<?xml version="1.0" encoding="UTF-8" standalone="no"?>
<!DOCTYPE svg PUBLIC "-//W3C//DTD SVG 1.1//EN"
 "http://www.w3.org/Graphics/SVG/1.1/DTD/svg11.dtd">
<!-- Generated by graphviz version 10.0.1 (20240210.2158)
 -->
<!-- Title: Components Pages: 1 -->
<svg width="442pt" height="197pt"
 viewBox="0.00 0.00 442.00 197.00" xmlns="http://www.w3.org/2000/svg" xmlns:xlink="http://www.w3.org/1999/xlink">
<g id="graph0" class="graph" transform="scale(1 1) rotate(0) translate(4 193)">
<title>Components</title>
<g id="clust1" class="cluster">
<title>clusterdir_3eca51afc31ab9312b29b4249736bc7a</title>
<g id="a_clust1"><a xlink:href="dir_3eca51afc31ab9312b29b4249736bc7a.html" target="_top" xlink:title="Emulator">
<polygon fill="#edf0f7" stroke="#404040" stroke-dasharray="5,2" points="8,-8 8,-181 426,-181 426,-8 8,-8"/>
<text text-anchor="middle" x="217" y="-167.5" font-family="Helvetica,sans-Serif" font-size="10.00">Emulator</text>
</a>
</g>
</g>
<g id="clust2" class="cluster">
<title>clusterdir_f1dd3ab951341472f6f0525fe7f46f05</title>
<g id="a_clust2"><a xlink:href="dir_f1dd3ab951341472f6f0525fe7f46f05.html" target="_top">
<polygon fill="#edf0f7" stroke="#404040" stroke-width="2" points="16,-63.25 16,-153.75 326,-153.75 326,-63.25 16,-63.25"/>
</a>
</g>
</g>
<!-- dir_9110424d8d329f8b6a25ed0145171490 -->
<g id="node1" class="node">
<title>dir_9110424d8d329f8b6a25ed0145171490</title>
<g id="a_node1"><a xlink:href="dir_9110424d8d329f8b6a25ed0145171490.html" target="_top" xlink:title="Base">
<polygon fill="#a2b4d6" stroke="#404040" points="277.25,-35.25 238.75,-35.25 238.75,-16 277.25,-16 277.25,-35.25"/>
<text text-anchor="middle" x="258" y="-21.75" font-family="Helvetica,sans-Serif" font-size="10.00">Base</text>
</a>
</g>
</g>
<!-- dir_caa8e5cf067d1e3bd80d413bc762db78 -->
<g id="node2" class="node">
<title>dir_caa8e5cf067d1e3bd80d413bc762db78</title>
<g id="a_node2"><a xlink:href="dir_caa8e5cf067d1e3bd80d413bc762db78.html" target="_top" xlink:title="Peripherals">
<polygon fill="#a2b4d6" stroke="red" points="398.38,-90.5 333.62,-90.5 333.62,-71.25 398.38,-71.25 398.38,-90.5"/>
<text text-anchor="middle" x="366" y="-77" font-family="Helvetica,sans-Serif" font-size="10.00">Peripherals</text>
</a>
</g>
</g>
<!-- dir_f1dd3ab951341472f6f0525fe7f46f05 -->
<g id="node3" class="node">
<title>dir_f1dd3ab951341472f6f0525fe7f46f05</title>
<text text-anchor="middle" x="60" y="-132.25" font-family="Helvetica,sans-Serif" font-size="10.00">Components</text>
</g>
<!-- dir_f1dd3ab951341472f6f0525fe7f46f05&#45;&gt;dir_9110424d8d329f8b6a25ed0145171490 -->
<g id="edge1" class="edge">
<title>dir_f1dd3ab951341472f6f0525fe7f46f05&#45;&gt;dir_9110424d8d329f8b6a25ed0145171490</title>
<g id="a_edge1"><a xlink:href="dir_000003_000000.html" target="_top">
<path fill="none" stroke="#63b8ff" d="M95.59,-127.36C141.79,-117.01 217.78,-99.03 228,-90.5 231.72,-87.39 242.31,-63.7 249.86,-46.07"/>
<polygon fill="#63b8ff" stroke="#63b8ff" points="253.01,-47.61 253.68,-37.03 246.56,-44.88 253.01,-47.61"/>
</a>
</g>
<g id="a_edge1&#45;headlabel"><a xlink:href="dir_000003_000000.html" target="_top" xlink:title="12">
<text text-anchor="middle" x="254.81" y="-46.75" font-family="Helvetica,sans-Serif" font-size="10.00" fill="#63b8ff">12</text>
</a>
</g>
</g>
<!-- dir_2fb434ef6d991966eae34475cb5121ae -->
<g id="node4" class="node">
<title>dir_2fb434ef6d991966eae34475cb5121ae</title>
<g id="a_node4"><a xlink:href="dir_2fb434ef6d991966eae34475cb5121ae.html" target="_top" xlink:title="CIA">
<polygon fill="#a2b4d6" stroke="#404040" points="146.62,-145.75 113.38,-145.75 113.38,-126.5 146.62,-126.5 146.62,-145.75"/>
<text text-anchor="middle" x="130" y="-132.25" font-family="Helvetica,sans-Serif" font-size="10.00">CIA</text>
</a>
</g>
</g>
<!-- dir_423d471fbe5556c8881c630a8e61cb1c -->
<g id="node5" class="node">
<title>dir_423d471fbe5556c8881c630a8e61cb1c</title>
<g id="a_node5"><a xlink:href="dir_423d471fbe5556c8881c630a8e61cb1c.html" target="_top" xlink:title="CPU">
<polygon fill="#a2b4d6" stroke="#404040" points="259.88,-145.75 222.12,-145.75 222.12,-126.5 259.88,-126.5 259.88,-145.75"/>
<text text-anchor="middle" x="241" y="-132.25" font-family="Helvetica,sans-Serif" font-size="10.00">CPU</text>
</a>
</g>
</g>
<!-- dir_423d471fbe5556c8881c630a8e61cb1c&#45;&gt;dir_9110424d8d329f8b6a25ed0145171490 -->
<g id="edge2" class="edge">
<title>dir_423d471fbe5556c8881c630a8e61cb1c&#45;&gt;dir_9110424d8d329f8b6a25ed0145171490</title>
<g id="a_edge2"><a xlink:href="dir_000004_000000.html" target="_top">
<path fill="none" stroke="#63b8ff" d="M247.05,-126.02C252.44,-117.32 259.94,-103.62 263,-90.5 266.37,-76.04 264.87,-59.29 262.65,-46.57"/>
<polygon fill="#63b8ff" stroke="#63b8ff" points="266.11,-46 260.67,-36.91 259.25,-47.41 266.11,-46"/>
</a>
</g>
<g id="a_edge2&#45;headlabel"><a xlink:href="dir_000004_000000.html" target="_top" xlink:title="1">
<text text-anchor="middle" x="269.31" y="-43.59" font-family="Helvetica,sans-Serif" font-size="10.00" fill="#63b8ff">1</text>
</a>
</g>
</g>
<!-- dir_3207aec741e2cd8cfc4463c210f840e6 -->
<g id="node6" class="node">
<title>dir_3207aec741e2cd8cfc4463c210f840e6</title>
<g id="a_node6"><a xlink:href="dir_3207aec741e2cd8cfc4463c210f840e6.html" target="_top" xlink:title="Memory">
<polygon fill="#a2b4d6" stroke="#404040" points="218.62,-90.5 167.38,-90.5 167.38,-71.25 218.62,-71.25 218.62,-90.5"/>
<text text-anchor="middle" x="193" y="-77" font-family="Helvetica,sans-Serif" font-size="10.00">Memory</text>
</a>
</g>
</g>
<!-- dir_ff1638999cfee165ecdeb3e16052ca2e -->
<g id="node7" class="node">
<title>dir_ff1638999cfee165ecdeb3e16052ca2e</title>
<g id="a_node7"><a xlink:href="dir_ff1638999cfee165ecdeb3e16052ca2e.html" target="_top" xlink:title="Ports">
<polygon fill="#a2b4d6" stroke="#404040" points="203.62,-145.75 164.38,-145.75 164.38,-126.5 203.62,-126.5 203.62,-145.75"/>
<text text-anchor="middle" x="184" y="-132.25" font-family="Helvetica,sans-Serif" font-size="10.00">Ports</text>
</a>
</g>
</g>
<!-- dir_ff1638999cfee165ecdeb3e16052ca2e&#45;&gt;dir_9110424d8d329f8b6a25ed0145171490 -->
<g id="edge3" class="edge">
<title>dir_ff1638999cfee165ecdeb3e16052ca2e&#45;&gt;dir_9110424d8d329f8b6a25ed0145171490</title>
<g id="a_edge3"><a xlink:href="dir_000022_000000.html" target="_top">
<path fill="none" stroke="#63b8ff" d="M201.93,-126.03C215.26,-118.35 232.84,-106.11 243,-90.5 251.48,-77.48 255.18,-60.2 256.79,-46.89"/>
<polygon fill="#63b8ff" stroke="#63b8ff" points="260.26,-47.4 257.64,-37.14 253.28,-46.79 260.26,-47.4"/>
</a>
</g>
<g id="a_edge3&#45;headlabel"><a xlink:href="dir_000022_000000.html" target="_top" xlink:title="2">
<text text-anchor="middle" x="262.9" y="-45.85" font-family="Helvetica,sans-Serif" font-size="10.00" fill="#63b8ff">2</text>
</a>
</g>
</g>
<!-- dir_c6eb1b6be04fd607e5126bbfa479e02a -->
<g id="node8" class="node">
<title>dir_c6eb1b6be04fd607e5126bbfa479e02a</title>
<g id="a_node8"><a xlink:href="dir_c6eb1b6be04fd607e5126bbfa479e02a.html" target="_top" xlink:title="SID">
<polygon fill="#a2b4d6" stroke="#404040" points="149.62,-90.5 116.38,-90.5 116.38,-71.25 149.62,-71.25 149.62,-90.5"/>
<text text-anchor="middle" x="133" y="-77" font-family="Helvetica,sans-Serif" font-size="10.00">SID</text>
</a>
</g>
</g>
<!-- dir_ff1638999cfee165ecdeb3e16052ca2e&#45;&gt;dir_c6eb1b6be04fd607e5126bbfa479e02a -->
<g id="edge4" class="edge">
<title>dir_ff1638999cfee165ecdeb3e16052ca2e&#45;&gt;dir_c6eb1b6be04fd607e5126bbfa479e02a</title>
<g id="a_edge4"><a xlink:href="dir_000022_000027.html" target="_top">
<path fill="none" stroke="#63b8ff" d="M175.58,-126.33C168.46,-118.9 158.06,-108.04 149.31,-98.91"/>
<polygon fill="#63b8ff" stroke="#63b8ff" points="152.1,-96.75 142.65,-91.95 147.04,-101.6 152.1,-96.75"/>
</a>
</g>
<g id="a_edge4&#45;headlabel"><a xlink:href="dir_000022_000027.html" target="_top" xlink:title="1">
<text text-anchor="middle" x="155.59" y="-92.42" font-family="Helvetica,sans-Serif" font-size="10.00" fill="#63b8ff">1</text>
</a>
</g>
</g>
<!-- dir_c6eb1b6be04fd607e5126bbfa479e02a&#45;&gt;dir_9110424d8d329f8b6a25ed0145171490 -->
<g id="edge5" class="edge">
<title>dir_c6eb1b6be04fd607e5126bbfa479e02a&#45;&gt;dir_9110424d8d329f8b6a25ed0145171490</title>
<g id="a_edge5"><a xlink:href="dir_000027_000000.html" target="_top">
<path fill="none" stroke="#63b8ff" d="M145.37,-70.82C149.29,-68.17 153.72,-65.42 158,-63.25 180.44,-51.88 207.27,-42.25 227.49,-35.72"/>
<polygon fill="#63b8ff" stroke="#63b8ff" points="228.33,-39.13 236.82,-32.79 226.23,-32.45 228.33,-39.13"/>
</a>
</g>
<g id="a_edge5&#45;headlabel"><a xlink:href="dir_000027_000000.html" target="_top" xlink:title="1">
<text text-anchor="middle" x="227.19" y="-38.59" font-family="Helvetica,sans-Serif" font-size="10.00" fill="#63b8ff">1</text>
</a>
</g>
</g>
<!-- dir_137a56c33be38fc40bbe4d7690612992 -->
<g id="node9" class="node">
<title>dir_137a56c33be38fc40bbe4d7690612992</title>
<g id="a_node9"><a xlink:href="dir_137a56c33be38fc40bbe4d7690612992.html" target="_top" xlink:title="VICII">
<polygon fill="#a2b4d6" stroke="#404040" points="317.62,-145.75 278.38,-145.75 278.38,-126.5 317.62,-126.5 317.62,-145.75"/>
<text text-anchor="middle" x="298" y="-132.25" font-family="Helvetica,sans-Serif" font-size="10.00">VICII</text>
</a>
</g>
</g>
<!-- dir_137a56c33be38fc40bbe4d7690612992&#45;&gt;dir_9110424d8d329f8b6a25ed0145171490 -->
<g id="edge7" class="edge">
<title>dir_137a56c33be38fc40bbe4d7690612992&#45;&gt;dir_9110424d8d329f8b6a25ed0145171490</title>
<g id="a_edge7"><a xlink:href="dir_000029_000000.html" target="_top">
<path fill="none" stroke="#63b8ff" d="M317.97,-130.82C356.35,-121.65 434.34,-98.13 407,-63.25 392.63,-44.92 328.34,-34.54 289.06,-29.8"/>
<polygon fill="#63b8ff" stroke="#63b8ff" points="289.58,-26.34 279.25,-28.68 288.79,-33.3 289.58,-26.34"/>
</a>
</g>
<g id="a_edge7&#45;headlabel"><a xlink:href="dir_000029_000000.html" target="_top" xlink:title="1">
<text text-anchor="middle" x="291.97" y="-19.88" font-family="Helvetica,sans-Serif" font-size="10.00" fill="#63b8ff">1</text>
</a>
</g>
</g>
<!-- dir_137a56c33be38fc40bbe4d7690612992&#45;&gt;dir_caa8e5cf067d1e3bd80d413bc762db78 -->
<g id="edge8" class="edge">
<title>dir_137a56c33be38fc40bbe4d7690612992&#45;&gt;dir_caa8e5cf067d1e3bd80d413bc762db78</title>
<g id="a_edge8"><a xlink:href="dir_000029_000021.html" target="_top">
<path fill="none" stroke="#63b8ff" d="M309.54,-126.09C319.46,-118.32 334.01,-106.92 345.86,-97.65"/>
<polygon fill="#63b8ff" stroke="#63b8ff" points="347.73,-100.63 353.44,-91.71 343.41,-95.12 347.73,-100.63"/>
</a>
</g>
<g id="a_edge8&#45;headlabel"><a xlink:href="dir_000029_000021.html" target="_top" xlink:title="1">
<text text-anchor="middle" x="347.84" y="-100.27" font-family="Helvetica,sans-Serif" font-size="10.00" fill="#63b8ff">1</text>
</a>
</g>
</g>
<!-- dir_137a56c33be38fc40bbe4d7690612992&#45;&gt;dir_3207aec741e2cd8cfc4463c210f840e6 -->
<g id="edge6" class="edge">
<title>dir_137a56c33be38fc40bbe4d7690612992&#45;&gt;dir_3207aec741e2cd8cfc4463c210f840e6</title>
<g id="a_edge6"><a xlink:href="dir_000029_000014.html" target="_top">
<path fill="none" stroke="#63b8ff" d="M280.19,-126.09C263.97,-117.87 239.76,-105.59 220.97,-96.06"/>
<polygon fill="#63b8ff" stroke="#63b8ff" points="222.75,-93.04 212.25,-91.64 219.58,-99.28 222.75,-93.04"/>
</a>
</g>
<g id="a_edge6&#45;headlabel"><a xlink:href="dir_000029_000014.html" target="_top" xlink:title="1">
<text text-anchor="middle" x="225.89" y="-87.57" font-family="Helvetica,sans-Serif" font-size="10.00" fill="#63b8ff">1</text>
</a>
</g>
</g>
</g>
</svg>
