<?xml version="1.0" encoding="UTF-8" standalone="no"?>
<!DOCTYPE svg PUBLIC "-//W3C//DTD SVG 1.1//EN"
 "http://www.w3.org/Graphics/SVG/1.1/DTD/svg11.dtd">
<!-- Generated by graphviz version 10.0.1 (20240210.2158)
 -->
<!-- Title: /Users/hoff/Retro/virtualc64/Emulator/Media/AnyFile.cpp Pages: 1 -->
<svg width="832pt" height="646pt"
 viewBox="0.00 0.00 832.38 646.25" xmlns="http://www.w3.org/2000/svg" xmlns:xlink="http://www.w3.org/1999/xlink">
<g id="graph0" class="graph" transform="scale(1 1) rotate(0) translate(4 642.25)">
<title>/Users/hoff/Retro/virtualc64/Emulator/Media/AnyFile.cpp</title>
<!-- Node1 -->
<g id="Node000001" class="node">
<title>Node1</title>
<g id="a_Node000001"><a xlink:title=" ">
<polygon fill="#999999" stroke="#666666" points="458.62,-638.25 316.62,-638.25 316.62,-607.75 458.62,-607.75 458.62,-638.25"/>
<text text-anchor="start" x="324.62" y="-624.75" font-family="Helvetica,sans-Serif" font-size="10.00">/Users/hoff/Retro/virtualc64</text>
<text text-anchor="middle" x="387.62" y="-613.5" font-family="Helvetica,sans-Serif" font-size="10.00">/Emulator/Media/AnyFile.cpp</text>
</a>
</g>
</g>
<!-- Node2 -->
<g id="Node000002" class="node">
<title>Node2</title>
<g id="a_Node000002"><a xlink:href="config_8h.html" target="_top" xlink:title=" ">
<polygon fill="white" stroke="#666666" points="51.88,-571.75 1.38,-571.75 1.38,-552.5 51.88,-552.5 51.88,-571.75"/>
<text text-anchor="middle" x="26.62" y="-558.25" font-family="Helvetica,sans-Serif" font-size="10.00">config.h</text>
</a>
</g>
</g>
<!-- Node1&#45;&gt;Node2 -->
<g id="edge1_Node000001_Node000002" class="edge">
<title>Node1&#45;&gt;Node2</title>
<g id="a_edge1_Node000001_Node000002"><a xlink:title=" ">
<path fill="none" stroke="#63b8ff" d="M316.42,-612.2C251.03,-602.89 151.53,-587.94 65.62,-571.75 64.81,-571.6 63.98,-571.44 63.15,-571.28"/>
<polygon fill="#63b8ff" stroke="#63b8ff" points="64.15,-567.91 53.65,-569.32 62.74,-574.77 64.15,-567.91"/>
</a>
</g>
</g>
<!-- Node4 -->
<g id="Node000004" class="node">
<title>Node4</title>
<g id="a_Node000004"><a xlink:href="_any_file_8h.html" target="_top" xlink:title=" ">
<polygon fill="white" stroke="#666666" points="392.25,-461.25 335,-461.25 335,-442 392.25,-442 392.25,-461.25"/>
<text text-anchor="middle" x="363.62" y="-447.75" font-family="Helvetica,sans-Serif" font-size="10.00">AnyFile.h</text>
</a>
</g>
</g>
<!-- Node1&#45;&gt;Node4 -->
<g id="edge3_Node000001_Node000004" class="edge">
<title>Node1&#45;&gt;Node4</title>
<g id="a_edge3_Node000001_Node000004"><a xlink:title=" ">
<path fill="none" stroke="#63b8ff" d="M316.36,-619.77C239.96,-615.69 125.92,-604.19 98.62,-571.75 33.29,-494.08 234.38,-464.91 323.44,-455.99"/>
<polygon fill="#63b8ff" stroke="#63b8ff" points="323.59,-459.49 333.21,-455.05 322.92,-452.52 323.59,-459.49"/>
</a>
</g>
</g>
<!-- Node22 -->
<g id="Node000022" class="node">
<title>Node22</title>
<g id="a_Node000022"><a xlink:href="_checksum_8h.html" target="_top" xlink:title=" ">
<polygon fill="white" stroke="#666666" points="824.38,-295.5 752.88,-295.5 752.88,-276.25 824.38,-276.25 824.38,-295.5"/>
<text text-anchor="middle" x="788.62" y="-282" font-family="Helvetica,sans-Serif" font-size="10.00">Checksum.h</text>
</a>
</g>
</g>
<!-- Node1&#45;&gt;Node22 -->
<g id="edge31_Node000001_Node000022" class="edge">
<title>Node1&#45;&gt;Node22</title>
<g id="a_edge31_Node000001_Node000022"><a xlink:title=" ">
<path fill="none" stroke="#63b8ff" d="M458.96,-616.28C573.72,-605.08 786.62,-575.24 786.62,-507.88 786.62,-507.88 786.62,-507.88 786.62,-395.38 786.62,-364.65 787.44,-329.04 788.03,-307.24"/>
<polygon fill="#63b8ff" stroke="#63b8ff" points="791.52,-307.48 788.3,-297.39 784.52,-307.29 791.52,-307.48"/>
</a>
</g>
</g>
<!-- Node26 -->
<g id="Node000026" class="node">
<title>Node26</title>
<g id="a_Node000026"><a xlink:href="_c_r_t_file_8h.html" target="_top" xlink:title=" ">
<polygon fill="white" stroke="#666666" points="678.12,-516.5 617.12,-516.5 617.12,-497.25 678.12,-497.25 678.12,-516.5"/>
<text text-anchor="middle" x="647.62" y="-503" font-family="Helvetica,sans-Serif" font-size="10.00">CRTFile.h</text>
</a>
</g>
</g>
<!-- Node1&#45;&gt;Node26 -->
<g id="edge32_Node000001_Node000026" class="edge">
<title>Node1&#45;&gt;Node26</title>
<g id="a_edge32_Node000001_Node000026"><a xlink:title=" ">
<path fill="none" stroke="#63b8ff" d="M459.07,-617.25C525.49,-611.23 617.67,-598.27 641.62,-571.75 652.14,-560.11 652.9,-541.93 651.46,-527.95"/>
<polygon fill="#63b8ff" stroke="#63b8ff" points="654.92,-527.44 649.96,-518.08 648,-528.49 654.92,-527.44"/>
</a>
</g>
</g>
<!-- Node28 -->
<g id="Node000028" class="node">
<title>Node28</title>
<g id="a_Node000028"><a xlink:href="_d64_file_8h.html" target="_top" xlink:title=" ">
<polygon fill="white" stroke="#666666" points="292.62,-516.5 234.62,-516.5 234.62,-497.25 292.62,-497.25 292.62,-516.5"/>
<text text-anchor="middle" x="263.62" y="-503" font-family="Helvetica,sans-Serif" font-size="10.00">D64File.h</text>
</a>
</g>
</g>
<!-- Node1&#45;&gt;Node28 -->
<g id="edge37_Node000001_Node000028" class="edge">
<title>Node1&#45;&gt;Node28</title>
<g id="a_edge37_Node000001_Node000028"><a xlink:title=" ">
<path fill="none" stroke="#63b8ff" d="M316.14,-614.82C288.52,-608.15 259.54,-595.52 242.62,-571.75 232.92,-558.11 240.68,-539.7 249.38,-526.15"/>
<polygon fill="#63b8ff" stroke="#63b8ff" points="252.14,-528.31 255.07,-518.13 246.43,-524.26 252.14,-528.31"/>
</a>
</g>
</g>
<!-- Node29 -->
<g id="Node000029" class="node">
<title>Node29</title>
<g id="a_Node000029"><a xlink:href="_folder_8h.html" target="_top" xlink:title=" ">
<polygon fill="white" stroke="#666666" points="376.88,-571.75 326.38,-571.75 326.38,-552.5 376.88,-552.5 376.88,-571.75"/>
<text text-anchor="middle" x="351.62" y="-558.25" font-family="Helvetica,sans-Serif" font-size="10.00">Folder.h</text>
</a>
</g>
</g>
<!-- Node1&#45;&gt;Node29 -->
<g id="edge39_Node000001_Node000029" class="edge">
<title>Node1&#45;&gt;Node29</title>
<g id="a_edge39_Node000001_Node000029"><a xlink:title=" ">
<path fill="none" stroke="#63b8ff" d="M378.73,-607.45C373.98,-599.69 368.1,-590.06 363.02,-581.76"/>
<polygon fill="#63b8ff" stroke="#63b8ff" points="366.17,-580.2 357.96,-573.49 360.2,-583.85 366.17,-580.2"/>
</a>
</g>
</g>
<!-- Node31 -->
<g id="Node000031" class="node">
<title>Node31</title>
<g id="a_Node000031"><a xlink:href="_g64_file_8h.html" target="_top" xlink:title=" ">
<polygon fill="white" stroke="#666666" points="598.62,-516.5 540.62,-516.5 540.62,-497.25 598.62,-497.25 598.62,-516.5"/>
<text text-anchor="middle" x="569.62" y="-503" font-family="Helvetica,sans-Serif" font-size="10.00">G64File.h</text>
</a>
</g>
</g>
<!-- Node1&#45;&gt;Node31 -->
<g id="edge42_Node000001_Node000031" class="edge">
<title>Node1&#45;&gt;Node31</title>
<g id="a_edge42_Node000001_Node000031"><a xlink:title=" ">
<path fill="none" stroke="#63b8ff" d="M459,-616.67C521.31,-610.36 604.91,-597.29 625.62,-571.75 639.59,-554.52 617.82,-535.49 597.49,-522.72"/>
<polygon fill="#63b8ff" stroke="#63b8ff" points="599.47,-519.83 589.08,-517.76 595.91,-525.86 599.47,-519.83"/>
</a>
</g>
</g>
<!-- Node32 -->
<g id="Node000032" class="node">
<title>Node32</title>
<g id="a_Node000032"><a xlink:href="_p00_file_8h.html" target="_top" xlink:title=" ">
<polygon fill="white" stroke="#666666" points="452.25,-571.75 395,-571.75 395,-552.5 452.25,-552.5 452.25,-571.75"/>
<text text-anchor="middle" x="423.62" y="-558.25" font-family="Helvetica,sans-Serif" font-size="10.00">P00File.h</text>
</a>
</g>
</g>
<!-- Node1&#45;&gt;Node32 -->
<g id="edge44_Node000001_Node000032" class="edge">
<title>Node1&#45;&gt;Node32</title>
<g id="a_edge44_Node000001_Node000032"><a xlink:title=" ">
<path fill="none" stroke="#63b8ff" d="M396.52,-607.45C401.27,-599.69 407.15,-590.06 412.23,-581.76"/>
<polygon fill="#63b8ff" stroke="#63b8ff" points="415.05,-583.85 417.29,-573.49 409.08,-580.2 415.05,-583.85"/>
</a>
</g>
</g>
<!-- Node33 -->
<g id="Node000033" class="node">
<title>Node33</title>
<g id="a_Node000033"><a xlink:href="_p_r_g_file_8h.html" target="_top" xlink:title=" ">
<polygon fill="white" stroke="#666666" points="532.5,-571.75 470.75,-571.75 470.75,-552.5 532.5,-552.5 532.5,-571.75"/>
<text text-anchor="middle" x="501.62" y="-558.25" font-family="Helvetica,sans-Serif" font-size="10.00">PRGFile.h</text>
</a>
</g>
</g>
<!-- Node1&#45;&gt;Node33 -->
<g id="edge46_Node000001_Node000033" class="edge">
<title>Node1&#45;&gt;Node33</title>
<g id="a_edge46_Node000001_Node000033"><a xlink:title=" ">
<path fill="none" stroke="#63b8ff" d="M416.1,-607.3C433.79,-598.16 456.43,-586.47 473.97,-577.41"/>
<polygon fill="#63b8ff" stroke="#63b8ff" points="475.52,-580.55 482.8,-572.85 472.31,-574.33 475.52,-580.55"/>
</a>
</g>
</g>
<!-- Node34 -->
<g id="Node000034" class="node">
<title>Node34</title>
<g id="a_Node000034"><a xlink:href="_rom_file_8h.html" target="_top" xlink:title=" ">
<polygon fill="white" stroke="#666666" points="757.12,-516.5 696.12,-516.5 696.12,-497.25 757.12,-497.25 757.12,-516.5"/>
<text text-anchor="middle" x="726.62" y="-503" font-family="Helvetica,sans-Serif" font-size="10.00">RomFile.h</text>
</a>
</g>
</g>
<!-- Node1&#45;&gt;Node34 -->
<g id="edge48_Node000001_Node000034" class="edge">
<title>Node1&#45;&gt;Node34</title>
<g id="a_edge48_Node000001_Node000034"><a xlink:title=" ">
<path fill="none" stroke="#63b8ff" d="M459.08,-619.91C516.13,-615.7 596.65,-603.91 659.62,-571.75 681.23,-560.72 700.65,-540.49 712.95,-525.75"/>
<polygon fill="#63b8ff" stroke="#63b8ff" points="715.49,-528.17 719.01,-518.18 710.03,-523.8 715.49,-528.17"/>
</a>
</g>
</g>
<!-- Node36 -->
<g id="Node000036" class="node">
<title>Node36</title>
<g id="a_Node000036"><a xlink:href="_script_8h.html" target="_top" xlink:title=" ">
<polygon fill="white" stroke="#666666" points="157.5,-571.75 107.75,-571.75 107.75,-552.5 157.5,-552.5 157.5,-571.75"/>
<text text-anchor="middle" x="132.62" y="-558.25" font-family="Helvetica,sans-Serif" font-size="10.00">Script.h</text>
</a>
</g>
</g>
<!-- Node1&#45;&gt;Node36 -->
<g id="edge53_Node000001_Node000036" class="edge">
<title>Node1&#45;&gt;Node36</title>
<g id="a_edge53_Node000001_Node000036"><a xlink:title=" ">
<path fill="none" stroke="#63b8ff" d="M323.94,-607.3C275.06,-596.01 209.34,-580.84 169.03,-571.53"/>
<polygon fill="#63b8ff" stroke="#63b8ff" points="169.89,-568.14 159.35,-569.3 168.31,-574.96 169.89,-568.14"/>
</a>
</g>
</g>
<!-- Node37 -->
<g id="Node000037" class="node">
<title>Node37</title>
<g id="a_Node000037"><a xlink:href="_snapshot_8h.html" target="_top" xlink:title=" ">
<polygon fill="white" stroke="#666666" points="616.38,-571.75 550.88,-571.75 550.88,-552.5 616.38,-552.5 616.38,-571.75"/>
<text text-anchor="middle" x="583.62" y="-558.25" font-family="Helvetica,sans-Serif" font-size="10.00">Snapshot.h</text>
</a>
</g>
</g>
<!-- Node1&#45;&gt;Node37 -->
<g id="edge55_Node000001_Node000037" class="edge">
<title>Node1&#45;&gt;Node37</title>
<g id="a_edge55_Node000001_Node000037"><a xlink:title=" ">
<path fill="none" stroke="#63b8ff" d="M436.58,-607.3C469.2,-597.5 511.58,-584.77 542.46,-575.49"/>
<polygon fill="#63b8ff" stroke="#63b8ff" points="543.26,-578.91 551.83,-572.68 541.24,-572.2 543.26,-578.91"/>
</a>
</g>
</g>
<!-- Node39 -->
<g id="Node000039" class="node">
<title>Node39</title>
<g id="a_Node000039"><a xlink:href="_t64_file_8h.html" target="_top" xlink:title=" ">
<polygon fill="white" stroke="#666666" points="307.88,-571.75 251.38,-571.75 251.38,-552.5 307.88,-552.5 307.88,-571.75"/>
<text text-anchor="middle" x="279.62" y="-558.25" font-family="Helvetica,sans-Serif" font-size="10.00">T64File.h</text>
</a>
</g>
</g>
<!-- Node1&#45;&gt;Node39 -->
<g id="edge58_Node000001_Node000039" class="edge">
<title>Node1&#45;&gt;Node39</title>
<g id="a_edge58_Node000001_Node000039"><a xlink:title=" ">
<path fill="none" stroke="#63b8ff" d="M360.65,-607.3C344.05,-598.24 322.85,-586.69 306.3,-577.66"/>
<polygon fill="#63b8ff" stroke="#63b8ff" points="307.97,-574.59 297.52,-572.88 304.62,-580.74 307.97,-574.59"/>
</a>
</g>
</g>
<!-- Node40 -->
<g id="Node000040" class="node">
<title>Node40</title>
<g id="a_Node000040"><a xlink:href="_t_a_p_file_8h.html" target="_top" xlink:title=" ">
<polygon fill="white" stroke="#666666" points="217,-516.5 158.25,-516.5 158.25,-497.25 217,-497.25 217,-516.5"/>
<text text-anchor="middle" x="187.62" y="-503" font-family="Helvetica,sans-Serif" font-size="10.00">TAPFile.h</text>
</a>
</g>
</g>
<!-- Node1&#45;&gt;Node40 -->
<g id="edge60_Node000001_Node000040" class="edge">
<title>Node1&#45;&gt;Node40</title>
<g id="a_edge60_Node000001_Node000040"><a xlink:title=" ">
<path fill="none" stroke="#63b8ff" d="M316.15,-608.68C288.52,-601.09 257.81,-589.42 233.62,-571.75 217.61,-560.04 204.96,-541.07 197.02,-526.84"/>
<polygon fill="#63b8ff" stroke="#63b8ff" points="200.13,-525.24 192.38,-518.01 193.93,-528.49 200.13,-525.24"/>
</a>
</g>
</g>
<!-- Node3 -->
<g id="Node000003" class="node">
<title>Node3</title>
<g id="a_Node000003"><a xlink:title=" ">
<polygon fill="#e0e0e0" stroke="#999999" points="51.25,-516.5 0,-516.5 0,-497.25 51.25,-497.25 51.25,-516.5"/>
<text text-anchor="middle" x="25.62" y="-503" font-family="Helvetica,sans-Serif" font-size="10.00">assert.h</text>
</a>
</g>
</g>
<!-- Node2&#45;&gt;Node3 -->
<g id="edge2_Node000002_Node000003" class="edge">
<title>Node2&#45;&gt;Node3</title>
<g id="a_edge2_Node000002_Node000003"><a xlink:title=" ">
<path fill="none" stroke="#63b8ff" d="M26.46,-552.33C26.34,-545.82 26.17,-536.67 26.01,-528.37"/>
<polygon fill="#63b8ff" stroke="#63b8ff" points="29.51,-528.3 25.82,-518.37 22.51,-528.44 29.51,-528.3"/>
</a>
</g>
</g>
<!-- Node5 -->
<g id="Node000005" class="node">
<title>Node5</title>
<g id="a_Node000005"><a xlink:href="_core_object_8h.html" target="_top" xlink:title=" ">
<polygon fill="white" stroke="#666666" points="295.5,-350.75 221.75,-350.75 221.75,-331.5 295.5,-331.5 295.5,-350.75"/>
<text text-anchor="middle" x="258.62" y="-337.25" font-family="Helvetica,sans-Serif" font-size="10.00">CoreObject.h</text>
</a>
</g>
</g>
<!-- Node4&#45;&gt;Node5 -->
<g id="edge4_Node000004_Node000005" class="edge">
<title>Node4&#45;&gt;Node5</title>
<g id="a_edge4_Node000004_Node000005"><a xlink:title=" ">
<path fill="none" stroke="#63b8ff" d="M334.77,-443.94C314.07,-437.63 287.19,-426.05 271.62,-406 261.96,-393.54 258.96,-375.72 258.24,-362.07"/>
<polygon fill="#63b8ff" stroke="#63b8ff" points="261.75,-362.44 258.11,-352.49 254.75,-362.53 261.75,-362.44"/>
</a>
</g>
</g>
<!-- Node19 -->
<g id="Node000019" class="node">
<title>Node19</title>
<g id="a_Node000019"><a xlink:href="_file_types_8h.html" target="_top" xlink:title=" ">
<polygon fill="white" stroke="#666666" points="566.75,-240.25 500.5,-240.25 500.5,-221 566.75,-221 566.75,-240.25"/>
<text text-anchor="middle" x="533.62" y="-226.75" font-family="Helvetica,sans-Serif" font-size="10.00">FileTypes.h</text>
</a>
</g>
</g>
<!-- Node4&#45;&gt;Node19 -->
<g id="edge19_Node000004_Node000019" class="edge">
<title>Node4&#45;&gt;Node19</title>
<g id="a_edge19_Node000004_Node000019"><a xlink:title=" ">
<path fill="none" stroke="#63b8ff" d="M392.51,-449.03C422.94,-445.74 470.05,-435.82 496.62,-406 535.69,-362.18 537.18,-287.55 535.33,-251.83"/>
<polygon fill="#63b8ff" stroke="#63b8ff" points="538.83,-251.82 534.66,-242.08 531.85,-252.29 538.83,-251.82"/>
</a>
</g>
</g>
<!-- Node20 -->
<g id="Node000020" class="node">
<title>Node20</title>
<g id="a_Node000020"><a xlink:href="_p_e_t_name_8h.html" target="_top" xlink:title=" ">
<polygon fill="white" stroke="#666666" points="487.62,-406 417.62,-406 417.62,-386.75 487.62,-386.75 487.62,-406"/>
<text text-anchor="middle" x="452.62" y="-392.5" font-family="Helvetica,sans-Serif" font-size="10.00">PETName.h</text>
</a>
</g>
</g>
<!-- Node4&#45;&gt;Node20 -->
<g id="edge22_Node000004_Node000020" class="edge">
<title>Node4&#45;&gt;Node20</title>
<g id="a_edge22_Node000004_Node000020"><a xlink:title=" ">
<path fill="none" stroke="#63b8ff" d="M378.72,-441.59C392.15,-433.56 412.04,-421.66 427.8,-412.23"/>
<polygon fill="#63b8ff" stroke="#63b8ff" points="429.37,-415.37 436.15,-407.23 425.78,-409.36 429.37,-415.37"/>
</a>
</g>
</g>
<!-- Node24 -->
<g id="Node000024" class="node">
<title>Node24</title>
<g id="a_Node000024"><a xlink:title=" ">
<polygon fill="#e0e0e0" stroke="#999999" points="332.25,-406 281,-406 281,-386.75 332.25,-386.75 332.25,-406"/>
<text text-anchor="middle" x="306.62" y="-392.5" font-family="Helvetica,sans-Serif" font-size="10.00">sstream</text>
</a>
</g>
</g>
<!-- Node4&#45;&gt;Node24 -->
<g id="edge29_Node000004_Node000024" class="edge">
<title>Node4&#45;&gt;Node24</title>
<g id="a_edge29_Node000004_Node000024"><a xlink:title=" ">
<path fill="none" stroke="#63b8ff" d="M353.96,-441.59C345.88,-434.05 334.16,-423.1 324.4,-413.98"/>
<polygon fill="#63b8ff" stroke="#63b8ff" points="326.95,-411.58 317.26,-407.31 322.18,-416.69 326.95,-411.58"/>
</a>
</g>
</g>
<!-- Node25 -->
<g id="Node000025" class="node">
<title>Node25</title>
<g id="a_Node000025"><a xlink:title=" ">
<polygon fill="#e0e0e0" stroke="#999999" points="399.12,-406 350.12,-406 350.12,-386.75 399.12,-386.75 399.12,-406"/>
<text text-anchor="middle" x="374.62" y="-392.5" font-family="Helvetica,sans-Serif" font-size="10.00">fstream</text>
</a>
</g>
</g>
<!-- Node4&#45;&gt;Node25 -->
<g id="edge30_Node000004_Node000025" class="edge">
<title>Node4&#45;&gt;Node25</title>
<g id="a_edge30_Node000004_Node000025"><a xlink:title=" ">
<path fill="none" stroke="#63b8ff" d="M365.44,-441.83C366.8,-435.24 368.72,-425.96 370.45,-417.57"/>
<polygon fill="#63b8ff" stroke="#63b8ff" points="373.87,-418.34 372.46,-407.84 367.01,-416.93 373.87,-418.34"/>
</a>
</g>
</g>
<!-- Node6 -->
<g id="Node000006" class="node">
<title>Node6</title>
<g id="a_Node000006"><a xlink:href="_error_8h.html" target="_top" xlink:title=" ">
<polygon fill="white" stroke="#666666" points="342.88,-295.5 298.38,-295.5 298.38,-276.25 342.88,-276.25 342.88,-295.5"/>
<text text-anchor="middle" x="320.62" y="-282" font-family="Helvetica,sans-Serif" font-size="10.00">Error.h</text>
</a>
</g>
</g>
<!-- Node5&#45;&gt;Node6 -->
<g id="edge5_Node000005_Node000006" class="edge">
<title>Node5&#45;&gt;Node6</title>
<g id="a_edge5_Node000005_Node000006"><a xlink:title=" ">
<path fill="none" stroke="#63b8ff" d="M269.14,-331.09C278.01,-323.47 290.94,-312.37 301.61,-303.2"/>
<polygon fill="#63b8ff" stroke="#63b8ff" points="303.81,-305.93 309.11,-296.76 299.25,-300.62 303.81,-305.93"/>
</a>
</g>
</g>
<!-- Node17 -->
<g id="Node000017" class="node">
<title>Node17</title>
<g id="a_Node000017"><a xlink:href="_inspectable_8h.html" target="_top" xlink:title=" ">
<polygon fill="white" stroke="#666666" points="278.88,-295.5 204.38,-295.5 204.38,-276.25 278.88,-276.25 278.88,-295.5"/>
<text text-anchor="middle" x="241.62" y="-282" font-family="Helvetica,sans-Serif" font-size="10.00">Inspectable.h</text>
</a>
</g>
</g>
<!-- Node5&#45;&gt;Node17 -->
<g id="edge17_Node000005_Node000017" class="edge">
<title>Node5&#45;&gt;Node17</title>
<g id="a_edge17_Node000005_Node000017"><a xlink:title=" ">
<path fill="none" stroke="#63b8ff" d="M255.82,-331.33C253.69,-324.67 250.68,-315.24 247.98,-306.78"/>
<polygon fill="#63b8ff" stroke="#63b8ff" points="251.33,-305.76 244.95,-297.3 244.66,-307.89 251.33,-305.76"/>
</a>
</g>
</g>
<!-- Node7 -->
<g id="Node000007" class="node">
<title>Node7</title>
<g id="a_Node000007"><a xlink:href="_error_types_8h.html" target="_top" xlink:title=" ">
<polygon fill="white" stroke="#666666" points="482.38,-240.25 410.88,-240.25 410.88,-221 482.38,-221 482.38,-240.25"/>
<text text-anchor="middle" x="446.62" y="-226.75" font-family="Helvetica,sans-Serif" font-size="10.00">ErrorTypes.h</text>
</a>
</g>
</g>
<!-- Node6&#45;&gt;Node7 -->
<g id="edge6_Node000006_Node000007" class="edge">
<title>Node6&#45;&gt;Node7</title>
<g id="a_edge6_Node000006_Node000007"><a xlink:title=" ">
<path fill="none" stroke="#63b8ff" d="M342,-275.84C361.91,-267.43 391.86,-254.77 414.63,-245.15"/>
<polygon fill="#63b8ff" stroke="#63b8ff" points="415.9,-248.41 423.75,-241.29 413.18,-241.96 415.9,-248.41"/>
</a>
</g>
</g>
<!-- Node15 -->
<g id="Node000015" class="node">
<title>Node15</title>
<g id="a_Node000015"><a xlink:href="_exception_8h.html" target="_top" xlink:title=" ">
<polygon fill="white" stroke="#666666" points="354.5,-240.25 286.75,-240.25 286.75,-221 354.5,-221 354.5,-240.25"/>
<text text-anchor="middle" x="320.62" y="-226.75" font-family="Helvetica,sans-Serif" font-size="10.00">Exception.h</text>
</a>
</g>
</g>
<!-- Node6&#45;&gt;Node15 -->
<g id="edge14_Node000006_Node000015" class="edge">
<title>Node6&#45;&gt;Node15</title>
<g id="a_edge14_Node000006_Node000015"><a xlink:title=" ">
<path fill="none" stroke="#63b8ff" d="M320.62,-276.08C320.62,-269.57 320.62,-260.42 320.62,-252.12"/>
<polygon fill="#63b8ff" stroke="#63b8ff" points="324.13,-252.12 320.63,-242.12 317.13,-252.12 324.13,-252.12"/>
</a>
</g>
</g>
<!-- Node8 -->
<g id="Node000008" class="node">
<title>Node8</title>
<g id="a_Node000008"><a xlink:href="_aliases_8h.html" target="_top" xlink:title=" ">
<polygon fill="white" stroke="#666666" points="642.88,-185 586.38,-185 586.38,-165.75 642.88,-165.75 642.88,-185"/>
<text text-anchor="middle" x="614.62" y="-171.5" font-family="Helvetica,sans-Serif" font-size="10.00">Aliases.h</text>
</a>
</g>
</g>
<!-- Node7&#45;&gt;Node8 -->
<g id="edge7_Node000007_Node000008" class="edge">
<title>Node7&#45;&gt;Node8</title>
<g id="a_edge7_Node000007_Node000008"><a xlink:title=" ">
<path fill="none" stroke="#63b8ff" d="M475.12,-220.59C502.64,-211.87 544.53,-198.59 575.23,-188.86"/>
<polygon fill="#63b8ff" stroke="#63b8ff" points="576.07,-192.27 584.54,-185.91 573.95,-185.59 576.07,-192.27"/>
</a>
</g>
</g>
<!-- Node14 -->
<g id="Node000014" class="node">
<title>Node14</title>
<g id="a_Node000014"><a xlink:href="_reflection_8h.html" target="_top" xlink:title=" ">
<polygon fill="white" stroke="#666666" points="567.88,-185 499.38,-185 499.38,-165.75 567.88,-165.75 567.88,-185"/>
<text text-anchor="middle" x="533.62" y="-171.5" font-family="Helvetica,sans-Serif" font-size="10.00">Reflection.h</text>
</a>
</g>
</g>
<!-- Node7&#45;&gt;Node14 -->
<g id="edge13_Node000007_Node000014" class="edge">
<title>Node7&#45;&gt;Node14</title>
<g id="a_edge13_Node000007_Node000014"><a xlink:title=" ">
<path fill="none" stroke="#63b8ff" d="M461.38,-220.59C474.51,-212.56 493.95,-200.66 509.36,-191.23"/>
<polygon fill="#63b8ff" stroke="#63b8ff" points="510.8,-194.45 517.5,-186.24 507.15,-188.48 510.8,-194.45"/>
</a>
</g>
</g>
<!-- Node9 -->
<g id="Node000009" class="node">
<title>Node9</title>
<g id="a_Node000009"><a xlink:href="_macros_8h.html" target="_top" xlink:title=" ">
<polygon fill="white" stroke="#666666" points="554.88,-129.75 498.38,-129.75 498.38,-110.5 554.88,-110.5 554.88,-129.75"/>
<text text-anchor="middle" x="526.62" y="-116.25" font-family="Helvetica,sans-Serif" font-size="10.00">Macros.h</text>
</a>
</g>
</g>
<!-- Node8&#45;&gt;Node9 -->
<g id="edge8_Node000008_Node000009" class="edge">
<title>Node8&#45;&gt;Node9</title>
<g id="a_edge8_Node000008_Node000009"><a xlink:title=" ">
<path fill="none" stroke="#63b8ff" d="M599.7,-165.34C586.42,-157.31 566.76,-145.41 551.17,-135.98"/>
<polygon fill="#63b8ff" stroke="#63b8ff" points="553.29,-133.17 542.92,-130.99 549.66,-139.16 553.29,-133.17"/>
</a>
</g>
</g>
<!-- Node10 -->
<g id="Node000010" class="node">
<title>Node10</title>
<g id="a_Node000010"><a xlink:href="_types_8h.html" target="_top" xlink:title=" ">
<polygon fill="white" stroke="#666666" points="479.88,-74.5 429.38,-74.5 429.38,-55.25 479.88,-55.25 479.88,-74.5"/>
<text text-anchor="middle" x="454.62" y="-61" font-family="Helvetica,sans-Serif" font-size="10.00">Types.h</text>
</a>
</g>
</g>
<!-- Node9&#45;&gt;Node10 -->
<g id="edge9_Node000009_Node000010" class="edge">
<title>Node9&#45;&gt;Node10</title>
<g id="a_edge9_Node000009_Node000010"><a xlink:title=" ">
<path fill="none" stroke="#63b8ff" d="M514.41,-110.09C503.8,-102.24 488.19,-90.7 475.58,-81.37"/>
<polygon fill="#63b8ff" stroke="#63b8ff" points="478,-78.81 467.88,-75.67 473.83,-84.44 478,-78.81"/>
</a>
</g>
</g>
<!-- Node11 -->
<g id="Node000011" class="node">
<title>Node11</title>
<g id="a_Node000011"><a xlink:title=" ">
<polygon fill="#e0e0e0" stroke="#999999" points="412.12,-19.25 345.12,-19.25 345.12,0 412.12,0 412.12,-19.25"/>
<text text-anchor="middle" x="378.62" y="-5.75" font-family="Helvetica,sans-Serif" font-size="10.00">sys/types.h</text>
</a>
</g>
</g>
<!-- Node10&#45;&gt;Node11 -->
<g id="edge10_Node000010_Node000011" class="edge">
<title>Node10&#45;&gt;Node11</title>
<g id="a_edge10_Node000010_Node000011"><a xlink:title=" ">
<path fill="none" stroke="#63b8ff" d="M441.73,-54.84C430.6,-47.04 414.25,-35.59 400.99,-26.29"/>
<polygon fill="#63b8ff" stroke="#63b8ff" points="403.02,-23.44 392.82,-20.57 399,-29.18 403.02,-23.44"/>
</a>
</g>
</g>
<!-- Node12 -->
<g id="Node000012" class="node">
<title>Node12</title>
<g id="a_Node000012"><a xlink:title=" ">
<polygon fill="#e0e0e0" stroke="#999999" points="478.75,-19.25 430.5,-19.25 430.5,0 478.75,0 478.75,-19.25"/>
<text text-anchor="middle" x="454.62" y="-5.75" font-family="Helvetica,sans-Serif" font-size="10.00">stdint.h</text>
</a>
</g>
</g>
<!-- Node10&#45;&gt;Node12 -->
<g id="edge11_Node000010_Node000012" class="edge">
<title>Node10&#45;&gt;Node12</title>
<g id="a_edge11_Node000010_Node000012"><a xlink:title=" ">
<path fill="none" stroke="#63b8ff" d="M454.62,-55.08C454.62,-48.57 454.62,-39.42 454.62,-31.12"/>
<polygon fill="#63b8ff" stroke="#63b8ff" points="458.13,-31.12 454.63,-21.12 451.13,-31.12 458.13,-31.12"/>
</a>
</g>
</g>
<!-- Node13 -->
<g id="Node000013" class="node">
<title>Node13</title>
<g id="a_Node000013"><a xlink:title=" ">
<polygon fill="#e0e0e0" stroke="#999999" points="552.5,-19.25 496.75,-19.25 496.75,0 552.5,0 552.5,-19.25"/>
<text text-anchor="middle" x="524.62" y="-5.75" font-family="Helvetica,sans-Serif" font-size="10.00">stdbool.h</text>
</a>
</g>
</g>
<!-- Node10&#45;&gt;Node13 -->
<g id="edge12_Node000010_Node000013" class="edge">
<title>Node10&#45;&gt;Node13</title>
<g id="a_edge12_Node000010_Node000013"><a xlink:title=" ">
<path fill="none" stroke="#63b8ff" d="M466.5,-54.84C476.72,-47.07 491.7,-35.67 503.89,-26.4"/>
<polygon fill="#63b8ff" stroke="#63b8ff" points="505.88,-29.28 511.72,-20.44 501.64,-23.71 505.88,-29.28"/>
</a>
</g>
</g>
<!-- Node15&#45;&gt;Node10 -->
<g id="edge15_Node000015_Node000010" class="edge">
<title>Node15&#45;&gt;Node10</title>
<g id="a_edge15_Node000015_Node000010"><a xlink:title=" ">
<path fill="none" stroke="#63b8ff" d="M309.96,-220.5C296.81,-208.08 277.36,-185.17 287.62,-165.75 314.1,-115.65 377.57,-88.33 418.19,-75.44"/>
<polygon fill="#63b8ff" stroke="#63b8ff" points="418.99,-78.86 427.55,-72.62 416.96,-72.16 418.99,-78.86"/>
</a>
</g>
</g>
<!-- Node16 -->
<g id="Node000016" class="node">
<title>Node16</title>
<g id="a_Node000016"><a xlink:title=" ">
<polygon fill="#e0e0e0" stroke="#999999" points="354.62,-185 296.62,-185 296.62,-165.75 354.62,-165.75 354.62,-185"/>
<text text-anchor="middle" x="325.62" y="-171.5" font-family="Helvetica,sans-Serif" font-size="10.00">exception</text>
</a>
</g>
</g>
<!-- Node15&#45;&gt;Node16 -->
<g id="edge16_Node000015_Node000016" class="edge">
<title>Node15&#45;&gt;Node16</title>
<g id="a_edge16_Node000015_Node000016"><a xlink:title=" ">
<path fill="none" stroke="#63b8ff" d="M321.45,-220.83C322.07,-214.24 322.94,-204.96 323.73,-196.57"/>
<polygon fill="#63b8ff" stroke="#63b8ff" points="327.19,-197.15 324.64,-186.87 320.22,-196.5 327.19,-197.15"/>
</a>
</g>
</g>
<!-- Node18 -->
<g id="Node000018" class="node">
<title>Node18</title>
<g id="a_Node000018"><a xlink:title=" ">
<polygon fill="#e0e0e0" stroke="#999999" points="268.38,-240.25 214.88,-240.25 214.88,-221 268.38,-221 268.38,-240.25"/>
<text text-anchor="middle" x="241.62" y="-226.75" font-family="Helvetica,sans-Serif" font-size="10.00">iostream</text>
</a>
</g>
</g>
<!-- Node17&#45;&gt;Node18 -->
<g id="edge18_Node000017_Node000018" class="edge">
<title>Node17&#45;&gt;Node18</title>
<g id="a_edge18_Node000017_Node000018"><a xlink:title=" ">
<path fill="none" stroke="#63b8ff" d="M241.62,-276.08C241.62,-269.57 241.62,-260.42 241.62,-252.12"/>
<polygon fill="#63b8ff" stroke="#63b8ff" points="245.13,-252.12 241.63,-242.12 238.13,-252.12 245.13,-252.12"/>
</a>
</g>
</g>
<!-- Node19&#45;&gt;Node8 -->
<g id="edge20_Node000019_Node000008" class="edge">
<title>Node19&#45;&gt;Node8</title>
<g id="a_edge20_Node000019_Node000008"><a xlink:title=" ">
<path fill="none" stroke="#63b8ff" d="M547.37,-220.59C559.35,-212.71 577,-201.11 591.21,-191.77"/>
<polygon fill="#63b8ff" stroke="#63b8ff" points="593.12,-194.7 599.55,-186.28 589.27,-188.85 593.12,-194.7"/>
</a>
</g>
</g>
<!-- Node19&#45;&gt;Node14 -->
<g id="edge21_Node000019_Node000014" class="edge">
<title>Node19&#45;&gt;Node14</title>
<g id="a_edge21_Node000019_Node000014"><a xlink:title=" ">
<path fill="none" stroke="#63b8ff" d="M533.62,-220.83C533.62,-214.32 533.62,-205.17 533.62,-196.87"/>
<polygon fill="#63b8ff" stroke="#63b8ff" points="537.13,-196.87 533.63,-186.87 530.13,-196.87 537.13,-196.87"/>
</a>
</g>
</g>
<!-- Node20&#45;&gt;Node5 -->
<g id="edge23_Node000020_Node000005" class="edge">
<title>Node20&#45;&gt;Node5</title>
<g id="a_edge23_Node000020_Node000005"><a xlink:title=" ">
<path fill="none" stroke="#63b8ff" d="M419.72,-386.34C387.53,-377.51 338.29,-363.99 302.72,-354.23"/>
<polygon fill="#63b8ff" stroke="#63b8ff" points="303.73,-350.87 293.16,-351.6 301.87,-357.63 303.73,-350.87"/>
</a>
</g>
</g>
<!-- Node21 -->
<g id="Node000021" class="node">
<title>Node21</title>
<g id="a_Node000021"><a xlink:href="_mem_utils_8h.html" target="_top" xlink:title=" ">
<polygon fill="white" stroke="#666666" points="485.75,-350.75 419.5,-350.75 419.5,-331.5 485.75,-331.5 485.75,-350.75"/>
<text text-anchor="middle" x="452.62" y="-337.25" font-family="Helvetica,sans-Serif" font-size="10.00">MemUtils.h</text>
</a>
</g>
</g>
<!-- Node20&#45;&gt;Node21 -->
<g id="edge24_Node000020_Node000021" class="edge">
<title>Node20&#45;&gt;Node21</title>
<g id="a_edge24_Node000020_Node000021"><a xlink:title=" ">
<path fill="none" stroke="#63b8ff" d="M452.62,-386.58C452.62,-380.07 452.62,-370.92 452.62,-362.62"/>
<polygon fill="#63b8ff" stroke="#63b8ff" points="456.13,-362.62 452.63,-352.62 449.13,-362.62 456.13,-362.62"/>
</a>
</g>
</g>
<!-- Node21&#45;&gt;Node10 -->
<g id="edge25_Node000021_Node000010" class="edge">
<title>Node21&#45;&gt;Node10</title>
<g id="a_edge25_Node000021_Node000010"><a xlink:title=" ">
<path fill="none" stroke="#63b8ff" d="M441.69,-331.24C422,-314.18 382.62,-274.67 382.62,-231.62 382.62,-231.62 382.62,-231.62 382.62,-174.38 382.62,-136.59 413.31,-101.9 434.62,-82.37"/>
<polygon fill="#63b8ff" stroke="#63b8ff" points="436.71,-85.18 441.92,-75.95 432.1,-79.92 436.71,-85.18"/>
</a>
</g>
</g>
<!-- Node21&#45;&gt;Node22 -->
<g id="edge26_Node000021_Node000022" class="edge">
<title>Node21&#45;&gt;Node22</title>
<g id="a_edge26_Node000021_Node000022"><a xlink:title=" ">
<path fill="none" stroke="#63b8ff" d="M486.07,-334.82C546.09,-325.31 672.23,-305.32 741.17,-294.4"/>
<polygon fill="#63b8ff" stroke="#63b8ff" points="741.71,-297.85 751.04,-292.83 740.62,-290.94 741.71,-297.85"/>
</a>
</g>
</g>
<!-- Node23 -->
<g id="Node000023" class="node">
<title>Node23</title>
<g id="a_Node000023"><a xlink:title=" ">
<polygon fill="#e0e0e0" stroke="#999999" points="467.02,-295.5 438.23,-295.5 438.23,-276.25 467.02,-276.25 467.02,-295.5"/>
<text text-anchor="middle" x="452.62" y="-282" font-family="Helvetica,sans-Serif" font-size="10.00">bit</text>
</a>
</g>
</g>
<!-- Node21&#45;&gt;Node23 -->
<g id="edge28_Node000021_Node000023" class="edge">
<title>Node21&#45;&gt;Node23</title>
<g id="a_edge28_Node000021_Node000023"><a xlink:title=" ">
<path fill="none" stroke="#63b8ff" d="M452.62,-331.33C452.62,-324.82 452.62,-315.67 452.62,-307.37"/>
<polygon fill="#63b8ff" stroke="#63b8ff" points="456.13,-307.37 452.63,-297.37 449.13,-307.37 456.13,-307.37"/>
</a>
</g>
</g>
<!-- Node22&#45;&gt;Node10 -->
<g id="edge27_Node000022_Node000010" class="edge">
<title>Node22&#45;&gt;Node10</title>
<g id="a_edge27_Node000022_Node000010"><a xlink:title=" ">
<path fill="none" stroke="#63b8ff" d="M788.11,-276.04C786.92,-262.72 782.93,-237.32 769.62,-221 696.06,-130.73 556.88,-88.8 490.98,-73.34"/>
<polygon fill="#63b8ff" stroke="#63b8ff" points="491.93,-69.96 481.41,-71.17 490.38,-76.79 491.93,-69.96"/>
</a>
</g>
</g>
<!-- Node26&#45;&gt;Node4 -->
<g id="edge36_Node000026_Node000004" class="edge">
<title>Node26&#45;&gt;Node4</title>
<g id="a_edge36_Node000026_Node000004"><a xlink:title=" ">
<path fill="none" stroke="#63b8ff" d="M616.64,-499.09C613.59,-498.46 610.55,-497.83 607.62,-497.25 536.03,-482.99 452.26,-468.05 403.83,-459.58"/>
<polygon fill="#63b8ff" stroke="#63b8ff" points="404.55,-456.15 394.09,-457.88 403.34,-463.05 404.55,-456.15"/>
</a>
</g>
</g>
<!-- Node27 -->
<g id="Node000027" class="node">
<title>Node27</title>
<g id="a_Node000027"><a xlink:href="_cartridge_types_8h.html" target="_top" xlink:title=" ">
<polygon fill="white" stroke="#666666" points="674.75,-240.25 584.5,-240.25 584.5,-221 674.75,-221 674.75,-240.25"/>
<text text-anchor="middle" x="629.62" y="-226.75" font-family="Helvetica,sans-Serif" font-size="10.00">CartridgeTypes.h</text>
</a>
</g>
</g>
<!-- Node26&#45;&gt;Node27 -->
<g id="edge33_Node000026_Node000027" class="edge">
<title>Node26&#45;&gt;Node27</title>
<g id="a_edge33_Node000026_Node000027"><a xlink:title=" ">
<path fill="none" stroke="#63b8ff" d="M646.51,-496.89C644.31,-478.33 639.62,-434.4 639.62,-397.38 639.62,-397.38 639.62,-397.38 639.62,-340.12 639.62,-309.28 635.57,-273.7 632.62,-251.94"/>
<polygon fill="#63b8ff" stroke="#63b8ff" points="636.1,-251.51 631.23,-242.1 629.16,-252.49 636.1,-251.51"/>
</a>
</g>
</g>
<!-- Node27&#45;&gt;Node8 -->
<g id="edge34_Node000027_Node000008" class="edge">
<title>Node27&#45;&gt;Node8</title>
<g id="a_edge34_Node000027_Node000008"><a xlink:title=" ">
<path fill="none" stroke="#63b8ff" d="M627.15,-220.83C625.27,-214.17 622.62,-204.74 620.23,-196.28"/>
<polygon fill="#63b8ff" stroke="#63b8ff" points="623.65,-195.49 617.57,-186.82 616.91,-197.39 623.65,-195.49"/>
</a>
</g>
</g>
<!-- Node27&#45;&gt;Node14 -->
<g id="edge35_Node000027_Node000014" class="edge">
<title>Node27&#45;&gt;Node14</title>
<g id="a_edge35_Node000027_Node000014"><a xlink:title=" ">
<path fill="none" stroke="#63b8ff" d="M613.34,-220.59C598.72,-212.48 577,-200.43 559.92,-190.96"/>
<polygon fill="#63b8ff" stroke="#63b8ff" points="561.76,-187.98 551.31,-186.19 558.36,-194.1 561.76,-187.98"/>
</a>
</g>
</g>
<!-- Node28&#45;&gt;Node4 -->
<g id="edge38_Node000028_Node000004" class="edge">
<title>Node28&#45;&gt;Node4</title>
<g id="a_edge38_Node000028_Node000004"><a xlink:title=" ">
<path fill="none" stroke="#63b8ff" d="M280.59,-496.84C295.89,-488.69 318.66,-476.57 336.49,-467.08"/>
<polygon fill="#63b8ff" stroke="#63b8ff" points="338.06,-470.2 345.24,-462.41 334.77,-464.02 338.06,-470.2"/>
</a>
</g>
</g>
<!-- Node30 -->
<g id="Node000030" class="node">
<title>Node30</title>
<g id="a_Node000030"><a xlink:href="_any_collection_8h.html" target="_top" xlink:title=" ">
<polygon fill="white" stroke="#666666" points="396.12,-516.5 311.12,-516.5 311.12,-497.25 396.12,-497.25 396.12,-516.5"/>
<text text-anchor="middle" x="353.62" y="-503" font-family="Helvetica,sans-Serif" font-size="10.00">AnyCollection.h</text>
</a>
</g>
</g>
<!-- Node29&#45;&gt;Node30 -->
<g id="edge40_Node000029_Node000030" class="edge">
<title>Node29&#45;&gt;Node30</title>
<g id="a_edge40_Node000029_Node000030"><a xlink:title=" ">
<path fill="none" stroke="#63b8ff" d="M351.96,-552.33C352.2,-545.74 352.55,-536.46 352.87,-528.07"/>
<polygon fill="#63b8ff" stroke="#63b8ff" points="356.35,-528.5 353.23,-518.37 349.36,-528.23 356.35,-528.5"/>
</a>
</g>
</g>
<!-- Node30&#45;&gt;Node4 -->
<g id="edge41_Node000030_Node000004" class="edge">
<title>Node30&#45;&gt;Node4</title>
<g id="a_edge41_Node000030_Node000004"><a xlink:title=" ">
<path fill="none" stroke="#63b8ff" d="M355.28,-497.08C356.51,-490.49 358.26,-481.21 359.83,-472.82"/>
<polygon fill="#63b8ff" stroke="#63b8ff" points="363.25,-473.57 361.66,-463.1 356.37,-472.28 363.25,-473.57"/>
</a>
</g>
</g>
<!-- Node31&#45;&gt;Node4 -->
<g id="edge43_Node000031_Node000004" class="edge">
<title>Node31&#45;&gt;Node4</title>
<g id="a_edge43_Node000031_Node000004"><a xlink:title=" ">
<path fill="none" stroke="#63b8ff" d="M540.55,-498.36C504.74,-489.1 443.73,-473.33 403.55,-462.95"/>
<polygon fill="#63b8ff" stroke="#63b8ff" points="404.58,-459.6 394.02,-460.48 402.83,-466.37 404.58,-459.6"/>
</a>
</g>
</g>
<!-- Node32&#45;&gt;Node30 -->
<g id="edge45_Node000032_Node000030" class="edge">
<title>Node32&#45;&gt;Node30</title>
<g id="a_edge45_Node000032_Node000030"><a xlink:title=" ">
<path fill="none" stroke="#63b8ff" d="M411.75,-552.09C401.53,-544.32 386.55,-532.92 374.36,-523.65"/>
<polygon fill="#63b8ff" stroke="#63b8ff" points="376.61,-520.96 366.53,-517.69 372.37,-526.53 376.61,-520.96"/>
</a>
</g>
</g>
<!-- Node33&#45;&gt;Node30 -->
<g id="edge47_Node000033_Node000030" class="edge">
<title>Node33&#45;&gt;Node30</title>
<g id="a_edge47_Node000033_Node000030"><a xlink:title=" ">
<path fill="none" stroke="#63b8ff" d="M476.52,-552.09C452.6,-543.49 416.34,-530.44 389.4,-520.75"/>
<polygon fill="#63b8ff" stroke="#63b8ff" points="390.87,-517.56 380.28,-517.46 388.5,-524.14 390.87,-517.56"/>
</a>
</g>
</g>
<!-- Node34&#45;&gt;Node4 -->
<g id="edge49_Node000034_Node000004" class="edge">
<title>Node34&#45;&gt;Node4</title>
<g id="a_edge49_Node000034_Node000004"><a xlink:title=" ">
<path fill="none" stroke="#63b8ff" d="M696.02,-498.86C693.18,-498.29 690.36,-497.74 687.62,-497.25 585.76,-479 464.72,-464.12 403.44,-457.06"/>
<polygon fill="#63b8ff" stroke="#63b8ff" points="404.19,-453.62 393.86,-455.96 403.39,-460.58 404.19,-453.62"/>
</a>
</g>
</g>
<!-- Node35 -->
<g id="Node000035" class="node">
<title>Node35</title>
<g id="a_Node000035"><a xlink:href="_c64_types_8h.html" target="_top" xlink:title=" ">
<polygon fill="white" stroke="#666666" points="760.88,-240.25 692.38,-240.25 692.38,-221 760.88,-221 760.88,-240.25"/>
<text text-anchor="middle" x="726.62" y="-226.75" font-family="Helvetica,sans-Serif" font-size="10.00">C64Types.h</text>
</a>
</g>
</g>
<!-- Node34&#45;&gt;Node35 -->
<g id="edge50_Node000034_Node000035" class="edge">
<title>Node34&#45;&gt;Node35</title>
<g id="a_edge50_Node000034_Node000035"><a xlink:title=" ">
<path fill="none" stroke="#63b8ff" d="M726.35,-496.87C725.8,-478.28 724.62,-434.3 724.62,-397.38 724.62,-397.38 724.62,-397.38 724.62,-340.12 724.62,-309.4 725.44,-273.79 726.03,-251.99"/>
<polygon fill="#63b8ff" stroke="#63b8ff" points="729.52,-252.23 726.3,-242.14 722.52,-252.04 729.52,-252.23"/>
</a>
</g>
</g>
<!-- Node35&#45;&gt;Node8 -->
<g id="edge51_Node000035_Node000008" class="edge">
<title>Node35&#45;&gt;Node8</title>
<g id="a_edge51_Node000035_Node000008"><a xlink:title=" ">
<path fill="none" stroke="#63b8ff" d="M707.63,-220.59C690.17,-212.29 664.03,-199.86 643.9,-190.29"/>
<polygon fill="#63b8ff" stroke="#63b8ff" points="645.62,-187.24 635.08,-186.1 642.61,-193.56 645.62,-187.24"/>
</a>
</g>
</g>
<!-- Node35&#45;&gt;Node14 -->
<g id="edge52_Node000035_Node000014" class="edge">
<title>Node35&#45;&gt;Node14</title>
<g id="a_edge52_Node000035_Node000014"><a xlink:title=" ">
<path fill="none" stroke="#63b8ff" d="M693.89,-220.59C661.86,-211.76 612.88,-198.24 577.5,-188.48"/>
<polygon fill="#63b8ff" stroke="#63b8ff" points="578.56,-185.14 567.98,-185.86 576.69,-191.89 578.56,-185.14"/>
</a>
</g>
</g>
<!-- Node36&#45;&gt;Node4 -->
<g id="edge54_Node000036_Node000004" class="edge">
<title>Node36&#45;&gt;Node4</title>
<g id="a_edge54_Node000036_Node000004"><a xlink:title=" ">
<path fill="none" stroke="#63b8ff" d="M132.26,-552.25C132.22,-538.41 134.29,-511.77 149.62,-497.25 174.21,-473.97 268.46,-461.47 323.34,-456.02"/>
<polygon fill="#63b8ff" stroke="#63b8ff" points="323.61,-459.51 333.23,-455.08 322.95,-452.54 323.61,-459.51"/>
</a>
</g>
</g>
<!-- Node37&#45;&gt;Node4 -->
<g id="edge56_Node000037_Node000004" class="edge">
<title>Node37&#45;&gt;Node4</title>
<g id="a_edge56_Node000037_Node000004"><a xlink:title=" ">
<path fill="none" stroke="#63b8ff" d="M550.59,-554.21C521.33,-547.25 478.04,-534.91 443.62,-516.5 419.78,-503.75 396.02,-483.59 380.67,-469.34"/>
<polygon fill="#63b8ff" stroke="#63b8ff" points="383.42,-467.12 373.76,-462.77 378.6,-472.2 383.42,-467.12"/>
</a>
</g>
</g>
<!-- Node38 -->
<g id="Node000038" class="node">
<title>Node38</title>
<g id="a_Node000038"><a xlink:href="_constants_8h.html" target="_top" xlink:title=" ">
<polygon fill="white" stroke="#666666" points="522.25,-516.5 453,-516.5 453,-497.25 522.25,-497.25 522.25,-516.5"/>
<text text-anchor="middle" x="487.62" y="-503" font-family="Helvetica,sans-Serif" font-size="10.00">Constants.h</text>
</a>
</g>
</g>
<!-- Node37&#45;&gt;Node38 -->
<g id="edge57_Node000037_Node000038" class="edge">
<title>Node37&#45;&gt;Node38</title>
<g id="a_edge57_Node000037_Node000038"><a xlink:title=" ">
<path fill="none" stroke="#63b8ff" d="M567.34,-552.09C552.72,-543.98 531,-531.93 513.92,-522.46"/>
<polygon fill="#63b8ff" stroke="#63b8ff" points="515.76,-519.48 505.31,-517.69 512.36,-525.6 515.76,-519.48"/>
</a>
</g>
</g>
<!-- Node39&#45;&gt;Node30 -->
<g id="edge59_Node000039_Node000030" class="edge">
<title>Node39&#45;&gt;Node30</title>
<g id="a_edge59_Node000039_Node000030"><a xlink:title=" ">
<path fill="none" stroke="#63b8ff" d="M292.18,-552.09C303.09,-544.24 319.13,-532.7 332.09,-523.37"/>
<polygon fill="#63b8ff" stroke="#63b8ff" points="333.96,-526.34 340.03,-517.66 329.87,-520.66 333.96,-526.34"/>
</a>
</g>
</g>
<!-- Node40&#45;&gt;Node4 -->
<g id="edge61_Node000040_Node000004" class="edge">
<title>Node40&#45;&gt;Node4</title>
<g id="a_edge61_Node000040_Node000004"><a xlink:title=" ">
<path fill="none" stroke="#63b8ff" d="M217.48,-496.84C246.69,-488 291.38,-474.48 323.65,-464.72"/>
<polygon fill="#63b8ff" stroke="#63b8ff" points="324.5,-468.12 333.05,-461.87 322.47,-461.42 324.5,-468.12"/>
</a>
</g>
</g>
</g>
</svg>
