<?xml version="1.0" encoding="UTF-8" standalone="no"?>
<!DOCTYPE svg PUBLIC "-//W3C//DTD SVG 1.1//EN"
 "http://www.w3.org/Graphics/SVG/1.1/DTD/svg11.dtd">
<!-- Generated by graphviz version 10.0.1 (20240210.2158)
 -->
<!-- Title: /Users/hoff/Retro/virtualc64/Emulator/Components/Ports/AudioPortTypes.h Pages: 1 -->
<svg width="422pt" height="483pt"
 viewBox="0.00 0.00 422.38 482.50" xmlns="http://www.w3.org/2000/svg" xmlns:xlink="http://www.w3.org/1999/xlink">
<g id="graph0" class="graph" transform="scale(1 1) rotate(0) translate(4 478.5)">
<title>/Users/hoff/Retro/virtualc64/Emulator/Components/Ports/AudioPortTypes.h</title>
<!-- Node1 -->
<g id="Node000001" class="node">
<title>Node1</title>
<g id="a_Node000001"><a xlink:title=" ">
<polygon fill="#999999" stroke="#666666" points="319.38,-474.5 176.62,-474.5 176.62,-432.75 319.38,-432.75 319.38,-474.5"/>
<text text-anchor="start" x="184.62" y="-461" font-family="Helvetica,sans-Serif" font-size="10.00">/Users/hoff/Retro/virtualc64</text>
<text text-anchor="start" x="184.62" y="-449.75" font-family="Helvetica,sans-Serif" font-size="10.00">/Emulator/Components/Ports</text>
<text text-anchor="middle" x="248" y="-438.5" font-family="Helvetica,sans-Serif" font-size="10.00">/AudioPortTypes.h</text>
</a>
</g>
</g>
<!-- Node2 -->
<g id="Node000002" class="node">
<title>Node2</title>
<g id="a_Node000002"><a xlink:href="_audio_port_8h_source.html" target="_top" xlink:title=" ">
<polygon fill="white" stroke="#666666" points="239.38,-396.75 96.62,-396.75 96.62,-355 239.38,-355 239.38,-396.75"/>
<text text-anchor="start" x="104.62" y="-383.25" font-family="Helvetica,sans-Serif" font-size="10.00">/Users/hoff/Retro/virtualc64</text>
<text text-anchor="start" x="104.62" y="-372" font-family="Helvetica,sans-Serif" font-size="10.00">/Emulator/Components/Ports</text>
<text text-anchor="middle" x="168" y="-360.75" font-family="Helvetica,sans-Serif" font-size="10.00">/AudioPort.h</text>
</a>
</g>
</g>
<!-- Node1&#45;&gt;Node2 -->
<g id="edge1_Node000001_Node000002" class="edge">
<title>Node1&#45;&gt;Node2</title>
<g id="a_edge1_Node000001_Node000002"><a xlink:title=" ">
<path fill="none" stroke="#63b8ff" d="M218.42,-424.61C208.83,-415.53 198.38,-405.64 189.5,-397.23"/>
<polygon fill="#63b8ff" stroke="#63b8ff" points="215.79,-426.95 225.46,-431.28 220.61,-421.87 215.79,-426.95"/>
</a>
</g>
</g>
<!-- Node8 -->
<g id="Node000008" class="node">
<title>Node8</title>
<g id="a_Node000008"><a xlink:href="_virtual_c64_types_8h.html" target="_top" xlink:title=" ">
<polygon fill="white" stroke="#666666" points="410.62,-391.12 269.38,-391.12 269.38,-360.62 410.62,-360.62 410.62,-391.12"/>
<text text-anchor="start" x="277.38" y="-377.62" font-family="Helvetica,sans-Serif" font-size="10.00">/Users/hoff/Retro/virtualc64</text>
<text text-anchor="middle" x="340" y="-366.38" font-family="Helvetica,sans-Serif" font-size="10.00">/Emulator/VirtualC64Types.h</text>
</a>
</g>
</g>
<!-- Node1&#45;&gt;Node8 -->
<g id="edge9_Node000001_Node000008" class="edge">
<title>Node1&#45;&gt;Node8</title>
<g id="a_edge9_Node000001_Node000008"><a xlink:title=" ">
<path fill="none" stroke="#63b8ff" d="M281.44,-425.09C295.26,-413.71 310.72,-400.98 322.28,-391.46"/>
<polygon fill="#63b8ff" stroke="#63b8ff" points="279.32,-422.3 273.82,-431.36 283.77,-427.71 279.32,-422.3"/>
</a>
</g>
</g>
<!-- Node3 -->
<g id="Node000003" class="node">
<title>Node3</title>
<g id="a_Node000003"><a xlink:href="_c64_8h_source.html" target="_top" xlink:title=" ">
<polygon fill="white" stroke="#666666" points="155.88,-97 10.12,-97 10.12,-66.5 155.88,-66.5 155.88,-97"/>
<text text-anchor="start" x="18.12" y="-83.5" font-family="Helvetica,sans-Serif" font-size="10.00">/Users/hoff/Retro/virtualc64</text>
<text text-anchor="middle" x="83" y="-72.25" font-family="Helvetica,sans-Serif" font-size="10.00">/Emulator/Components/C64.h</text>
</a>
</g>
</g>
<!-- Node2&#45;&gt;Node3 -->
<g id="edge2_Node000002_Node000003" class="edge">
<title>Node2&#45;&gt;Node3</title>
<g id="a_edge2_Node000002_Node000003"><a xlink:title=" ">
<path fill="none" stroke="#63b8ff" d="M104.06,-349.16C90.57,-341.21 77.55,-331.24 68,-319 17.12,-253.79 38.09,-212.18 62,-133 65.72,-120.69 71.41,-107.28 75.93,-97.41"/>
<polygon fill="#63b8ff" stroke="#63b8ff" points="102.15,-352.1 112.6,-353.86 105.53,-345.97 102.15,-352.1"/>
</a>
</g>
</g>
<!-- Node5 -->
<g id="Node000005" class="node">
<title>Node5</title>
<g id="a_Node000005"><a xlink:href="_re_s_i_d_8h_source.html" target="_top" xlink:title=" ">
<polygon fill="white" stroke="#666666" points="213.38,-319 76.62,-319 76.62,-277.25 213.38,-277.25 213.38,-319"/>
<text text-anchor="start" x="84.62" y="-305.5" font-family="Helvetica,sans-Serif" font-size="10.00">/Users/hoff/Retro/virtualc64</text>
<text text-anchor="start" x="84.62" y="-294.25" font-family="Helvetica,sans-Serif" font-size="10.00">/Emulator/Components/SID</text>
<text text-anchor="middle" x="145" y="-283" font-family="Helvetica,sans-Serif" font-size="10.00">/ReSID.h</text>
</a>
</g>
</g>
<!-- Node2&#45;&gt;Node5 -->
<g id="edge4_Node000002_Node000005" class="edge">
<title>Node2&#45;&gt;Node5</title>
<g id="a_edge4_Node000002_Node000005"><a xlink:title=" ">
<path fill="none" stroke="#63b8ff" d="M158.57,-343.81C156.08,-335.61 153.45,-326.96 151.18,-319.48"/>
<polygon fill="#63b8ff" stroke="#63b8ff" points="155.14,-344.58 161.4,-353.13 161.84,-342.54 155.14,-344.58"/>
</a>
</g>
</g>
<!-- Node7 -->
<g id="Node000007" class="node">
<title>Node7</title>
<g id="a_Node000007"><a xlink:href="_s_i_d_bridge_8h_source.html" target="_top" xlink:title=" ">
<polygon fill="white" stroke="#666666" points="207.38,-174.75 70.62,-174.75 70.62,-133 207.38,-133 207.38,-174.75"/>
<text text-anchor="start" x="78.62" y="-161.25" font-family="Helvetica,sans-Serif" font-size="10.00">/Users/hoff/Retro/virtualc64</text>
<text text-anchor="start" x="78.62" y="-150" font-family="Helvetica,sans-Serif" font-size="10.00">/Emulator/Components/SID</text>
<text text-anchor="middle" x="139" y="-138.75" font-family="Helvetica,sans-Serif" font-size="10.00">/SIDBridge.h</text>
</a>
</g>
</g>
<!-- Node2&#45;&gt;Node7 -->
<g id="edge8_Node000002_Node000007" class="edge">
<title>Node2&#45;&gt;Node7</title>
<g id="a_edge8_Node000002_Node000007"><a xlink:title=" ">
<path fill="none" stroke="#63b8ff" d="M202.06,-346.72C209.83,-338.58 217.21,-329.14 222,-319 242.64,-275.36 254.67,-252.82 231,-210.75 222.29,-195.28 207.38,-183.59 192.07,-175.02"/>
<polygon fill="#63b8ff" stroke="#63b8ff" points="199.69,-344.14 194.99,-353.63 204.58,-349.14 199.69,-344.14"/>
</a>
</g>
</g>
<!-- Node4 -->
<g id="Node000004" class="node">
<title>Node4</title>
<g id="a_Node000004"><a xlink:href="_emulator_8h_source.html" target="_top" xlink:title=" ">
<polygon fill="white" stroke="#666666" points="166,-30.5 0,-30.5 0,0 166,0 166,-30.5"/>
<text text-anchor="start" x="8" y="-17" font-family="Helvetica,sans-Serif" font-size="10.00">/Users/hoff/Retro/virtualc64</text>
<text text-anchor="middle" x="83" y="-5.75" font-family="Helvetica,sans-Serif" font-size="10.00">/Emulator/Components/Emulator.h</text>
</a>
</g>
</g>
<!-- Node3&#45;&gt;Node4 -->
<g id="edge3_Node000003_Node000004" class="edge">
<title>Node3&#45;&gt;Node4</title>
<g id="a_edge3_Node000003_Node000004"><a xlink:title=" ">
<path fill="none" stroke="#63b8ff" d="M83,-54.81C83,-46.64 83,-37.91 83,-30.83"/>
<polygon fill="#63b8ff" stroke="#63b8ff" points="79.5,-54.6 83,-64.6 86.5,-54.6 79.5,-54.6"/>
</a>
</g>
</g>
<!-- Node6 -->
<g id="Node000006" class="node">
<title>Node6</title>
<g id="a_Node000006"><a xlink:href="sid_8h_source.html" target="_top" xlink:title=" ">
<polygon fill="white" stroke="#666666" points="221.62,-241.25 56.38,-241.25 56.38,-210.75 221.62,-210.75 221.62,-241.25"/>
<text text-anchor="start" x="64.38" y="-227.75" font-family="Helvetica,sans-Serif" font-size="10.00">/Users/hoff/Retro/virtualc64</text>
<text text-anchor="middle" x="139" y="-216.5" font-family="Helvetica,sans-Serif" font-size="10.00">/Emulator/Components/SID/SID.h</text>
</a>
</g>
</g>
<!-- Node5&#45;&gt;Node6 -->
<g id="edge5_Node000005_Node000006" class="edge">
<title>Node5&#45;&gt;Node6</title>
<g id="a_edge5_Node000005_Node000006"><a xlink:title=" ">
<path fill="none" stroke="#63b8ff" d="M142.28,-265.38C141.57,-257.02 140.83,-248.4 140.24,-241.45"/>
<polygon fill="#63b8ff" stroke="#63b8ff" points="138.8,-265.67 143.14,-275.33 145.77,-265.07 138.8,-265.67"/>
</a>
</g>
</g>
<!-- Node6&#45;&gt;Node7 -->
<g id="edge6_Node000006_Node000007" class="edge">
<title>Node6&#45;&gt;Node7</title>
<g id="a_edge6_Node000006_Node000007"><a xlink:title=" ">
<path fill="none" stroke="#63b8ff" d="M139,-199.22C139,-191.31 139,-182.73 139,-175.24"/>
<polygon fill="#63b8ff" stroke="#63b8ff" points="135.5,-198.96 139,-208.96 142.5,-198.96 135.5,-198.96"/>
</a>
</g>
</g>
<!-- Node7&#45;&gt;Node3 -->
<g id="edge7_Node000007_Node000003" class="edge">
<title>Node7&#45;&gt;Node3</title>
<g id="a_edge7_Node000007_Node000003"><a xlink:title=" ">
<path fill="none" stroke="#63b8ff" d="M115.72,-123.72C108.41,-114.57 100.66,-104.87 94.54,-97.2"/>
<polygon fill="#63b8ff" stroke="#63b8ff" points="112.88,-125.78 121.86,-131.41 118.35,-121.41 112.88,-125.78"/>
</a>
</g>
</g>
<!-- Node9 -->
<g id="Node000009" class="node">
<title>Node9</title>
<g id="a_Node000009"><a xlink:href="_virtual_c64_8h.html" target="_top" xlink:title=" ">
<polygon fill="white" stroke="#666666" points="414.38,-313.38 277.62,-313.38 277.62,-282.88 414.38,-282.88 414.38,-313.38"/>
<text text-anchor="start" x="285.62" y="-299.88" font-family="Helvetica,sans-Serif" font-size="10.00">/Users/hoff/Retro/virtualc64</text>
<text text-anchor="middle" x="346" y="-288.62" font-family="Helvetica,sans-Serif" font-size="10.00">/Emulator/VirtualC64.h</text>
</a>
</g>
</g>
<!-- Node8&#45;&gt;Node9 -->
<g id="edge10_Node000008_Node000009" class="edge">
<title>Node8&#45;&gt;Node9</title>
<g id="a_edge10_Node000008_Node000009"><a xlink:title=" ">
<path fill="none" stroke="#63b8ff" d="M342.06,-348.85C342.99,-337.09 344.06,-323.63 344.85,-313.69"/>
<polygon fill="#63b8ff" stroke="#63b8ff" points="338.58,-348.52 341.28,-358.76 345.56,-349.07 338.58,-348.52"/>
</a>
</g>
</g>
<!-- Node10 -->
<g id="Node000010" class="node">
<title>Node10</title>
<g id="a_Node000010"><a xlink:href="_headless_8h_source.html" target="_top" xlink:title=" ">
<polygon fill="white" stroke="#666666" points="414.38,-241.25 277.62,-241.25 277.62,-210.75 414.38,-210.75 414.38,-241.25"/>
<text text-anchor="start" x="285.62" y="-227.75" font-family="Helvetica,sans-Serif" font-size="10.00">/Users/hoff/Retro/virtualc64</text>
<text text-anchor="middle" x="346" y="-216.5" font-family="Helvetica,sans-Serif" font-size="10.00">/Emulator/Headless.h</text>
</a>
</g>
</g>
<!-- Node9&#45;&gt;Node10 -->
<g id="edge11_Node000009_Node000010" class="edge">
<title>Node9&#45;&gt;Node10</title>
<g id="a_edge11_Node000009_Node000010"><a xlink:title=" ">
<path fill="none" stroke="#63b8ff" d="M346,-271.15C346,-261.14 346,-250.06 346,-241.51"/>
<polygon fill="#63b8ff" stroke="#63b8ff" points="342.5,-271.08 346,-281.08 349.5,-271.08 342.5,-271.08"/>
</a>
</g>
</g>
<!-- Node11 -->
<g id="Node000011" class="node">
<title>Node11</title>
<g id="a_Node000011"><a xlink:href="_headless_8cpp.html" target="_top" xlink:title=" ">
<polygon fill="white" stroke="#666666" points="414.38,-169.12 277.62,-169.12 277.62,-138.62 414.38,-138.62 414.38,-169.12"/>
<text text-anchor="start" x="285.62" y="-155.62" font-family="Helvetica,sans-Serif" font-size="10.00">/Users/hoff/Retro/virtualc64</text>
<text text-anchor="middle" x="346" y="-144.38" font-family="Helvetica,sans-Serif" font-size="10.00">/Emulator/Headless.cpp</text>
</a>
</g>
</g>
<!-- Node10&#45;&gt;Node11 -->
<g id="edge12_Node000010_Node000011" class="edge">
<title>Node10&#45;&gt;Node11</title>
<g id="a_edge12_Node000010_Node000011"><a xlink:title=" ">
<path fill="none" stroke="#63b8ff" d="M346,-199.02C346,-189.01 346,-177.94 346,-169.39"/>
<polygon fill="#63b8ff" stroke="#63b8ff" points="342.5,-198.96 346,-208.96 349.5,-198.96 342.5,-198.96"/>
</a>
</g>
</g>
</g>
</svg>
