<?xml version="1.0" encoding="UTF-8" standalone="no"?>
<!DOCTYPE svg PUBLIC "-//W3C//DTD SVG 1.1//EN"
 "http://www.w3.org/Graphics/SVG/1.1/DTD/svg11.dtd">
<!-- Generated by graphviz version 10.0.1 (20240210.2158)
 -->
<!-- Title: /Users/hoff/Retro/virtualc64/Emulator/Utilities/Buffer.cpp Pages: 1 -->
<svg width="928pt" height="260pt"
 viewBox="0.00 0.00 928.02 259.50" xmlns="http://www.w3.org/2000/svg" xmlns:xlink="http://www.w3.org/1999/xlink">
<g id="graph0" class="graph" transform="scale(1 1) rotate(0) translate(4 255.5)">
<title>/Users/hoff/Retro/virtualc64/Emulator/Utilities/Buffer.cpp</title>
<!-- Node1 -->
<g id="Node000001" class="node">
<title>Node1</title>
<g id="a_Node000001"><a xlink:title=" ">
<polygon fill="#999999" stroke="#666666" points="753.25,-251.5 612,-251.5 612,-221 753.25,-221 753.25,-251.5"/>
<text text-anchor="start" x="620" y="-238" font-family="Helvetica,sans-Serif" font-size="10.00">/Users/hoff/Retro/virtualc64</text>
<text text-anchor="middle" x="682.62" y="-226.75" font-family="Helvetica,sans-Serif" font-size="10.00">/Emulator/Utilities/Buffer.cpp</text>
</a>
</g>
</g>
<!-- Node2 -->
<g id="Node000002" class="node">
<title>Node2</title>
<g id="a_Node000002"><a xlink:href="config_8h.html" target="_top" xlink:title=" ">
<polygon fill="white" stroke="#666666" points="208.88,-185 158.38,-185 158.38,-165.75 208.88,-165.75 208.88,-185"/>
<text text-anchor="middle" x="183.62" y="-171.5" font-family="Helvetica,sans-Serif" font-size="10.00">config.h</text>
</a>
</g>
</g>
<!-- Node1&#45;&gt;Node2 -->
<g id="edge1_Node000001_Node000002" class="edge">
<title>Node1&#45;&gt;Node2</title>
<g id="a_edge1_Node000001_Node000002"><a xlink:title=" ">
<path fill="none" stroke="#63b8ff" d="M611.66,-226.88C503.95,-214.17 303.01,-190.46 220.47,-180.72"/>
<polygon fill="#63b8ff" stroke="#63b8ff" points="221.02,-177.26 210.68,-179.57 220.2,-184.21 221.02,-177.26"/>
</a>
</g>
</g>
<!-- Node4 -->
<g id="Node000004" class="node">
<title>Node4</title>
<g id="a_Node000004"><a xlink:href="_buffer_8h.html" target="_top" xlink:title=" ">
<polygon fill="white" stroke="#666666" points="760.5,-185 710.75,-185 710.75,-165.75 760.5,-165.75 760.5,-185"/>
<text text-anchor="middle" x="735.62" y="-171.5" font-family="Helvetica,sans-Serif" font-size="10.00">Buffer.h</text>
</a>
</g>
</g>
<!-- Node1&#45;&gt;Node4 -->
<g id="edge3_Node000001_Node000004" class="edge">
<title>Node1&#45;&gt;Node4</title>
<g id="a_edge3_Node000001_Node000004"><a xlink:title=" ">
<path fill="none" stroke="#63b8ff" d="M695.73,-220.7C703.02,-212.59 712.15,-202.45 719.84,-193.91"/>
<polygon fill="#63b8ff" stroke="#63b8ff" points="722.35,-196.35 726.44,-186.58 717.15,-191.67 722.35,-196.35"/>
</a>
</g>
</g>
<!-- Node10 -->
<g id="Node000010" class="node">
<title>Node10</title>
<g id="a_Node000010"><a xlink:href="_i_o_utils_8h.html" target="_top" xlink:title=" ">
<polygon fill="white" stroke="#666666" points="440.12,-185 385.12,-185 385.12,-165.75 440.12,-165.75 440.12,-185"/>
<text text-anchor="middle" x="412.62" y="-171.5" font-family="Helvetica,sans-Serif" font-size="10.00">IOUtils.h</text>
</a>
</g>
</g>
<!-- Node1&#45;&gt;Node10 -->
<g id="edge10_Node000001_Node000010" class="edge">
<title>Node1&#45;&gt;Node10</title>
<g id="a_edge10_Node000001_Node000010"><a xlink:title=" ">
<path fill="none" stroke="#63b8ff" d="M615.19,-220.55C563.54,-209.28 494.11,-194.14 451.41,-184.83"/>
<polygon fill="#63b8ff" stroke="#63b8ff" points="452.37,-181.46 441.85,-182.75 450.88,-188.3 452.37,-181.46"/>
</a>
</g>
</g>
<!-- Node15 -->
<g id="Node000015" class="node">
<title>Node15</title>
<g id="a_Node000015"><a xlink:title=" ">
<polygon fill="#e0e0e0" stroke="#999999" points="707.12,-129.75 658.12,-129.75 658.12,-110.5 707.12,-110.5 707.12,-129.75"/>
<text text-anchor="middle" x="682.62" y="-116.25" font-family="Helvetica,sans-Serif" font-size="10.00">fstream</text>
</a>
</g>
</g>
<!-- Node1&#45;&gt;Node15 -->
<g id="edge27_Node000001_Node000015" class="edge">
<title>Node1&#45;&gt;Node15</title>
<g id="a_edge27_Node000001_Node000015"><a xlink:title=" ">
<path fill="none" stroke="#63b8ff" d="M682.62,-220.8C682.62,-200.75 682.62,-164.4 682.62,-141.57"/>
<polygon fill="#63b8ff" stroke="#63b8ff" points="686.13,-141.71 682.63,-131.71 679.13,-141.71 686.13,-141.71"/>
</a>
</g>
</g>
<!-- Node20 -->
<g id="Node000020" class="node">
<title>Node20</title>
<g id="a_Node000020"><a xlink:href="_mem_utils_8h.html" target="_top" xlink:title=" ">
<polygon fill="white" stroke="#666666" points="870.75,-185 804.5,-185 804.5,-165.75 870.75,-165.75 870.75,-185"/>
<text text-anchor="middle" x="837.62" y="-171.5" font-family="Helvetica,sans-Serif" font-size="10.00">MemUtils.h</text>
</a>
</g>
</g>
<!-- Node1&#45;&gt;Node20 -->
<g id="edge23_Node000001_Node000020" class="edge">
<title>Node1&#45;&gt;Node20</title>
<g id="a_edge23_Node000001_Node000020"><a xlink:title=" ">
<path fill="none" stroke="#63b8ff" d="M721.34,-220.55C746.53,-210.98 779.09,-198.61 803.35,-189.39"/>
<polygon fill="#63b8ff" stroke="#63b8ff" points="804.33,-192.76 812.44,-185.94 801.85,-186.22 804.33,-192.76"/>
</a>
</g>
</g>
<!-- Node3 -->
<g id="Node000003" class="node">
<title>Node3</title>
<g id="a_Node000003"><a xlink:title=" ">
<polygon fill="#e0e0e0" stroke="#999999" points="51.25,-129.75 0,-129.75 0,-110.5 51.25,-110.5 51.25,-129.75"/>
<text text-anchor="middle" x="25.62" y="-116.25" font-family="Helvetica,sans-Serif" font-size="10.00">assert.h</text>
</a>
</g>
</g>
<!-- Node2&#45;&gt;Node3 -->
<g id="edge2_Node000002_Node000003" class="edge">
<title>Node2&#45;&gt;Node3</title>
<g id="a_edge2_Node000002_Node000003"><a xlink:title=" ">
<path fill="none" stroke="#63b8ff" d="M157.89,-165.7C131.91,-156.95 91.56,-143.35 62.25,-133.47"/>
<polygon fill="#63b8ff" stroke="#63b8ff" points="63.64,-130.24 53.05,-130.37 61.41,-136.88 63.64,-130.24"/>
</a>
</g>
</g>
<!-- Node5 -->
<g id="Node000005" class="node">
<title>Node5</title>
<g id="a_Node000005"><a xlink:href="_types_8h.html" target="_top" xlink:title=" ">
<polygon fill="white" stroke="#666666" points="760.88,-74.5 710.38,-74.5 710.38,-55.25 760.88,-55.25 760.88,-74.5"/>
<text text-anchor="middle" x="735.62" y="-61" font-family="Helvetica,sans-Serif" font-size="10.00">Types.h</text>
</a>
</g>
</g>
<!-- Node4&#45;&gt;Node5 -->
<g id="edge4_Node000004_Node000005" class="edge">
<title>Node4&#45;&gt;Node5</title>
<g id="a_edge4_Node000004_Node000005"><a xlink:title=" ">
<path fill="none" stroke="#63b8ff" d="M735.62,-165.5C735.62,-148.25 735.62,-109.83 735.62,-86.06"/>
<polygon fill="#63b8ff" stroke="#63b8ff" points="739.13,-86.39 735.63,-76.39 732.13,-86.39 739.13,-86.39"/>
</a>
</g>
</g>
<!-- Node9 -->
<g id="Node000009" class="node">
<title>Node9</title>
<g id="a_Node000009"><a xlink:href="_checksum_8h.html" target="_top" xlink:title=" ">
<polygon fill="white" stroke="#666666" points="835.38,-129.75 763.88,-129.75 763.88,-110.5 835.38,-110.5 835.38,-129.75"/>
<text text-anchor="middle" x="799.62" y="-116.25" font-family="Helvetica,sans-Serif" font-size="10.00">Checksum.h</text>
</a>
</g>
</g>
<!-- Node4&#45;&gt;Node9 -->
<g id="edge8_Node000004_Node000009" class="edge">
<title>Node4&#45;&gt;Node9</title>
<g id="a_edge8_Node000004_Node000009"><a xlink:title=" ">
<path fill="none" stroke="#63b8ff" d="M746.48,-165.34C755.73,-157.65 769.25,-146.4 780.33,-137.18"/>
<polygon fill="#63b8ff" stroke="#63b8ff" points="782.32,-140.08 787.77,-130.99 777.84,-134.7 782.32,-140.08"/>
</a>
</g>
</g>
<!-- Node6 -->
<g id="Node000006" class="node">
<title>Node6</title>
<g id="a_Node000006"><a xlink:title=" ">
<polygon fill="#e0e0e0" stroke="#999999" points="693.12,-19.25 626.12,-19.25 626.12,0 693.12,0 693.12,-19.25"/>
<text text-anchor="middle" x="659.62" y="-5.75" font-family="Helvetica,sans-Serif" font-size="10.00">sys/types.h</text>
</a>
</g>
</g>
<!-- Node5&#45;&gt;Node6 -->
<g id="edge5_Node000005_Node000006" class="edge">
<title>Node5&#45;&gt;Node6</title>
<g id="a_edge5_Node000005_Node000006"><a xlink:title=" ">
<path fill="none" stroke="#63b8ff" d="M722.73,-54.84C711.6,-47.04 695.25,-35.59 681.99,-26.29"/>
<polygon fill="#63b8ff" stroke="#63b8ff" points="684.02,-23.44 673.82,-20.57 680,-29.18 684.02,-23.44"/>
</a>
</g>
</g>
<!-- Node7 -->
<g id="Node000007" class="node">
<title>Node7</title>
<g id="a_Node000007"><a xlink:title=" ">
<polygon fill="#e0e0e0" stroke="#999999" points="759.75,-19.25 711.5,-19.25 711.5,0 759.75,0 759.75,-19.25"/>
<text text-anchor="middle" x="735.62" y="-5.75" font-family="Helvetica,sans-Serif" font-size="10.00">stdint.h</text>
</a>
</g>
</g>
<!-- Node5&#45;&gt;Node7 -->
<g id="edge6_Node000005_Node000007" class="edge">
<title>Node5&#45;&gt;Node7</title>
<g id="a_edge6_Node000005_Node000007"><a xlink:title=" ">
<path fill="none" stroke="#63b8ff" d="M735.62,-55.08C735.62,-48.57 735.62,-39.42 735.62,-31.12"/>
<polygon fill="#63b8ff" stroke="#63b8ff" points="739.13,-31.12 735.63,-21.12 732.13,-31.12 739.13,-31.12"/>
</a>
</g>
</g>
<!-- Node8 -->
<g id="Node000008" class="node">
<title>Node8</title>
<g id="a_Node000008"><a xlink:title=" ">
<polygon fill="#e0e0e0" stroke="#999999" points="833.5,-19.25 777.75,-19.25 777.75,0 833.5,0 833.5,-19.25"/>
<text text-anchor="middle" x="805.62" y="-5.75" font-family="Helvetica,sans-Serif" font-size="10.00">stdbool.h</text>
</a>
</g>
</g>
<!-- Node5&#45;&gt;Node8 -->
<g id="edge7_Node000005_Node000008" class="edge">
<title>Node5&#45;&gt;Node8</title>
<g id="a_edge7_Node000005_Node000008"><a xlink:title=" ">
<path fill="none" stroke="#63b8ff" d="M747.5,-54.84C757.72,-47.07 772.7,-35.67 784.89,-26.4"/>
<polygon fill="#63b8ff" stroke="#63b8ff" points="786.88,-29.28 792.72,-20.44 782.64,-23.71 786.88,-29.28"/>
</a>
</g>
</g>
<!-- Node9&#45;&gt;Node5 -->
<g id="edge9_Node000009_Node000005" class="edge">
<title>Node9&#45;&gt;Node5</title>
<g id="a_edge9_Node000009_Node000005"><a xlink:title=" ">
<path fill="none" stroke="#63b8ff" d="M788.77,-110.09C779.52,-102.4 766,-91.15 754.92,-81.93"/>
<polygon fill="#63b8ff" stroke="#63b8ff" points="757.41,-79.45 747.48,-75.74 752.93,-84.83 757.41,-79.45"/>
</a>
</g>
</g>
<!-- Node10&#45;&gt;Node5 -->
<g id="edge11_Node000010_Node000005" class="edge">
<title>Node10&#45;&gt;Node5</title>
<g id="a_edge11_Node000010_Node000005"><a xlink:title=" ">
<path fill="none" stroke="#63b8ff" d="M440.47,-170.36C479.37,-164.25 551.81,-151.02 610.62,-129.75 615.66,-127.93 672.74,-98.48 708,-80.21"/>
<polygon fill="#63b8ff" stroke="#63b8ff" points="709.55,-83.35 716.82,-75.64 706.33,-77.14 709.55,-83.35"/>
</a>
</g>
</g>
<!-- Node11 -->
<g id="Node000011" class="node">
<title>Node11</title>
<g id="a_Node000011"><a xlink:href="_string_utils_8h.html" target="_top" xlink:title=" ">
<polygon fill="white" stroke="#666666" points="601.62,-129.75 531.62,-129.75 531.62,-110.5 601.62,-110.5 601.62,-129.75"/>
<text text-anchor="middle" x="566.62" y="-116.25" font-family="Helvetica,sans-Serif" font-size="10.00">StringUtils.h</text>
</a>
</g>
</g>
<!-- Node10&#45;&gt;Node11 -->
<g id="edge12_Node000010_Node000011" class="edge">
<title>Node10&#45;&gt;Node11</title>
<g id="a_edge12_Node000010_Node000011"><a xlink:title=" ">
<path fill="none" stroke="#63b8ff" d="M438.75,-165.34C463.75,-156.7 501.7,-143.57 529.77,-133.87"/>
<polygon fill="#63b8ff" stroke="#63b8ff" points="530.64,-137.27 538.94,-130.7 528.35,-130.66 530.64,-137.27"/>
</a>
</g>
</g>
<!-- Node12 -->
<g id="Node000012" class="node">
<title>Node12</title>
<g id="a_Node000012"><a xlink:title=" ">
<polygon fill="#e0e0e0" stroke="#999999" points="345.12,-74.5 302.12,-74.5 302.12,-55.25 345.12,-55.25 345.12,-74.5"/>
<text text-anchor="middle" x="323.62" y="-61" font-family="Helvetica,sans-Serif" font-size="10.00">vector</text>
</a>
</g>
</g>
<!-- Node10&#45;&gt;Node12 -->
<g id="edge22_Node000010_Node000012" class="edge">
<title>Node10&#45;&gt;Node12</title>
<g id="a_edge22_Node000010_Node000012"><a xlink:title=" ">
<path fill="none" stroke="#63b8ff" d="M384.84,-172.48C311.54,-167.2 117.32,-151.3 98.62,-129.75 93.02,-123.29 93.2,-117.11 98.62,-110.5 122.57,-81.34 234.38,-70.9 290.83,-67.44"/>
<polygon fill="#63b8ff" stroke="#63b8ff" points="290.69,-70.95 300.47,-66.89 290.29,-63.97 290.69,-70.95"/>
</a>
</g>
</g>
<!-- Node13 -->
<g id="Node000013" class="node">
<title>Node13</title>
<g id="a_Node000013"><a xlink:title=" ">
<polygon fill="#e0e0e0" stroke="#999999" points="434.12,-129.75 391.12,-129.75 391.12,-110.5 434.12,-110.5 434.12,-129.75"/>
<text text-anchor="middle" x="412.62" y="-116.25" font-family="Helvetica,sans-Serif" font-size="10.00">fcntl.h</text>
</a>
</g>
</g>
<!-- Node10&#45;&gt;Node13 -->
<g id="edge15_Node000010_Node000013" class="edge">
<title>Node10&#45;&gt;Node13</title>
<g id="a_edge15_Node000010_Node000013"><a xlink:title=" ">
<path fill="none" stroke="#63b8ff" d="M412.62,-165.58C412.62,-159.07 412.62,-149.92 412.62,-141.62"/>
<polygon fill="#63b8ff" stroke="#63b8ff" points="416.13,-141.62 412.63,-131.62 409.13,-141.62 416.13,-141.62"/>
</a>
</g>
</g>
<!-- Node14 -->
<g id="Node000014" class="node">
<title>Node14</title>
<g id="a_Node000014"><a xlink:title=" ">
<polygon fill="#e0e0e0" stroke="#999999" points="513.12,-129.75 452.12,-129.75 452.12,-110.5 513.12,-110.5 513.12,-129.75"/>
<text text-anchor="middle" x="482.62" y="-116.25" font-family="Helvetica,sans-Serif" font-size="10.00">filesystem</text>
</a>
</g>
</g>
<!-- Node10&#45;&gt;Node14 -->
<g id="edge16_Node000010_Node000014" class="edge">
<title>Node10&#45;&gt;Node14</title>
<g id="a_edge16_Node000010_Node000014"><a xlink:title=" ">
<path fill="none" stroke="#63b8ff" d="M424.5,-165.34C434.72,-157.57 449.7,-146.17 461.89,-136.9"/>
<polygon fill="#63b8ff" stroke="#63b8ff" points="463.88,-139.78 469.72,-130.94 459.64,-134.21 463.88,-139.78"/>
</a>
</g>
</g>
<!-- Node10&#45;&gt;Node15 -->
<g id="edge17_Node000010_Node000015" class="edge">
<title>Node10&#45;&gt;Node15</title>
<g id="a_edge17_Node000010_Node000015"><a xlink:title=" ">
<path fill="none" stroke="#63b8ff" d="M440.41,-169.26C483.84,-161.2 570.43,-144.91 643.62,-129.75 644.64,-129.54 645.66,-129.33 646.69,-129.11"/>
<polygon fill="#63b8ff" stroke="#63b8ff" points="647.37,-132.54 656.41,-127.02 645.9,-125.7 647.37,-132.54"/>
</a>
</g>
</g>
<!-- Node16 -->
<g id="Node000016" class="node">
<title>Node16</title>
<g id="a_Node000016"><a xlink:title=" ">
<polygon fill="#e0e0e0" stroke="#999999" points="155.75,-129.75 107.5,-129.75 107.5,-110.5 155.75,-110.5 155.75,-129.75"/>
<text text-anchor="middle" x="131.62" y="-116.25" font-family="Helvetica,sans-Serif" font-size="10.00">istream</text>
</a>
</g>
</g>
<!-- Node10&#45;&gt;Node16 -->
<g id="edge18_Node000010_Node000016" class="edge">
<title>Node10&#45;&gt;Node16</title>
<g id="a_edge18_Node000010_Node000016"><a xlink:title=" ">
<path fill="none" stroke="#63b8ff" d="M384.96,-170.12C340.93,-163.18 251.97,-148.55 167.2,-130.18"/>
<polygon fill="#63b8ff" stroke="#63b8ff" points="168.08,-126.79 157.56,-128.07 166.58,-133.63 168.08,-126.79"/>
</a>
</g>
</g>
<!-- Node17 -->
<g id="Node000017" class="node">
<title>Node17</title>
<g id="a_Node000017"><a xlink:title=" ">
<polygon fill="#e0e0e0" stroke="#999999" points="227.38,-129.75 173.88,-129.75 173.88,-110.5 227.38,-110.5 227.38,-129.75"/>
<text text-anchor="middle" x="200.62" y="-116.25" font-family="Helvetica,sans-Serif" font-size="10.00">iostream</text>
</a>
</g>
</g>
<!-- Node10&#45;&gt;Node17 -->
<g id="edge19_Node000010_Node000017" class="edge">
<title>Node10&#45;&gt;Node17</title>
<g id="a_edge19_Node000010_Node000017"><a xlink:title=" ">
<path fill="none" stroke="#63b8ff" d="M384.91,-167.41C347.49,-158.01 280.65,-141.23 238.58,-130.66"/>
<polygon fill="#63b8ff" stroke="#63b8ff" points="239.7,-127.33 229.14,-128.29 237.99,-134.12 239.7,-127.33"/>
</a>
</g>
</g>
<!-- Node18 -->
<g id="Node000018" class="node">
<title>Node18</title>
<g id="a_Node000018"><a xlink:title=" ">
<polygon fill="#e0e0e0" stroke="#999999" points="296.25,-129.75 245,-129.75 245,-110.5 296.25,-110.5 296.25,-129.75"/>
<text text-anchor="middle" x="270.62" y="-116.25" font-family="Helvetica,sans-Serif" font-size="10.00">sstream</text>
</a>
</g>
</g>
<!-- Node10&#45;&gt;Node18 -->
<g id="edge20_Node000010_Node000018" class="edge">
<title>Node10&#45;&gt;Node18</title>
<g id="a_edge20_Node000010_Node000018"><a xlink:title=" ">
<path fill="none" stroke="#63b8ff" d="M388.54,-165.34C365.69,-156.77 331.11,-143.81 305.3,-134.13"/>
<polygon fill="#63b8ff" stroke="#63b8ff" points="306.84,-130.97 296.25,-130.73 304.38,-137.52 306.84,-130.97"/>
</a>
</g>
</g>
<!-- Node19 -->
<g id="Node000019" class="node">
<title>Node19</title>
<g id="a_Node000019"><a xlink:title=" ">
<polygon fill="#e0e0e0" stroke="#999999" points="373.38,-129.75 313.88,-129.75 313.88,-110.5 373.38,-110.5 373.38,-129.75"/>
<text text-anchor="middle" x="343.62" y="-116.25" font-family="Helvetica,sans-Serif" font-size="10.00">sys/stat.h</text>
</a>
</g>
</g>
<!-- Node10&#45;&gt;Node19 -->
<g id="edge21_Node000010_Node000019" class="edge">
<title>Node10&#45;&gt;Node19</title>
<g id="a_edge21_Node000010_Node000019"><a xlink:title=" ">
<path fill="none" stroke="#63b8ff" d="M400.92,-165.34C390.85,-157.57 376.08,-146.17 364.06,-136.9"/>
<polygon fill="#63b8ff" stroke="#63b8ff" points="366.41,-134.29 356.36,-130.95 362.13,-139.83 366.41,-134.29"/>
</a>
</g>
</g>
<!-- Node11&#45;&gt;Node5 -->
<g id="edge13_Node000011_Node000005" class="edge">
<title>Node11&#45;&gt;Node5</title>
<g id="a_edge13_Node000011_Node000005"><a xlink:title=" ">
<path fill="none" stroke="#63b8ff" d="M595.29,-110.09C623.98,-101.05 668.2,-87.12 699.32,-77.31"/>
<polygon fill="#63b8ff" stroke="#63b8ff" points="700.21,-80.7 708.69,-74.36 698.1,-74.03 700.21,-80.7"/>
</a>
</g>
</g>
<!-- Node11&#45;&gt;Node12 -->
<g id="edge14_Node000011_Node000012" class="edge">
<title>Node11&#45;&gt;Node12</title>
<g id="a_edge14_Node000011_Node000012"><a xlink:title=" ">
<path fill="none" stroke="#63b8ff" d="M531.29,-111.38C484.43,-101.11 402.33,-83.12 356.66,-73.11"/>
<polygon fill="#63b8ff" stroke="#63b8ff" points="357.6,-69.74 347.08,-71.02 356.1,-76.58 357.6,-69.74"/>
</a>
</g>
</g>
<!-- Node20&#45;&gt;Node5 -->
<g id="edge24_Node000020_Node000005" class="edge">
<title>Node20&#45;&gt;Node5</title>
<g id="a_edge24_Node000020_Node000005"><a xlink:title=" ">
<path fill="none" stroke="#63b8ff" d="M841.88,-165.67C847.63,-152.53 855.94,-127.36 844.62,-110.5 828.59,-86.61 797.25,-75.5 772.28,-70.34"/>
<polygon fill="#63b8ff" stroke="#63b8ff" points="772.93,-66.9 762.46,-68.57 771.69,-73.79 772.93,-66.9"/>
</a>
</g>
</g>
<!-- Node20&#45;&gt;Node9 -->
<g id="edge25_Node000020_Node000009" class="edge">
<title>Node20&#45;&gt;Node9</title>
<g id="a_edge25_Node000020_Node000009"><a xlink:title=" ">
<path fill="none" stroke="#63b8ff" d="M831.35,-165.58C826.27,-158.46 818.93,-148.18 812.59,-139.3"/>
<polygon fill="#63b8ff" stroke="#63b8ff" points="815.57,-137.45 806.92,-131.34 809.88,-141.51 815.57,-137.45"/>
</a>
</g>
</g>
<!-- Node21 -->
<g id="Node000021" class="node">
<title>Node21</title>
<g id="a_Node000021"><a xlink:title=" ">
<polygon fill="#e0e0e0" stroke="#999999" points="920.02,-129.75 891.23,-129.75 891.23,-110.5 920.02,-110.5 920.02,-129.75"/>
<text text-anchor="middle" x="905.62" y="-116.25" font-family="Helvetica,sans-Serif" font-size="10.00">bit</text>
</a>
</g>
</g>
<!-- Node20&#45;&gt;Node21 -->
<g id="edge26_Node000020_Node000021" class="edge">
<title>Node20&#45;&gt;Node21</title>
<g id="a_edge26_Node000020_Node000021"><a xlink:title=" ">
<path fill="none" stroke="#63b8ff" d="M849.16,-165.34C859.09,-157.57 873.64,-146.17 885.48,-136.9"/>
<polygon fill="#63b8ff" stroke="#63b8ff" points="887.35,-139.88 893.07,-130.96 883.04,-134.37 887.35,-139.88"/>
</a>
</g>
</g>
</g>
</svg>
