<?xml version="1.0" encoding="UTF-8" standalone="no"?>
<!DOCTYPE svg PUBLIC "-//W3C//DTD SVG 1.1//EN"
 "http://www.w3.org/Graphics/SVG/1.1/DTD/svg11.dtd">
<!-- Generated by graphviz version 10.0.1 (20240210.2158)
 -->
<!-- Title: /Users/hoff/Retro/virtualc64/Emulator/Components/VICII/BusTypes.h Pages: 1 -->
<svg width="314pt" height="549pt"
 viewBox="0.00 0.00 313.50 549.00" xmlns="http://www.w3.org/2000/svg" xmlns:xlink="http://www.w3.org/1999/xlink">
<g id="graph0" class="graph" transform="scale(1 1) rotate(0) translate(4 545)">
<title>/Users/hoff/Retro/virtualc64/Emulator/Components/VICII/BusTypes.h</title>
<!-- Node1 -->
<g id="Node000001" class="node">
<title>Node1</title>
<g id="a_Node000001"><a xlink:title=" ">
<polygon fill="#999999" stroke="#666666" points="255.25,-541 112.5,-541 112.5,-499.25 255.25,-499.25 255.25,-541"/>
<text text-anchor="start" x="120.5" y="-527.5" font-family="Helvetica,sans-Serif" font-size="10.00">/Users/hoff/Retro/virtualc64</text>
<text text-anchor="start" x="120.5" y="-516.25" font-family="Helvetica,sans-Serif" font-size="10.00">/Emulator/Components/VICII</text>
<text text-anchor="middle" x="183.88" y="-505" font-family="Helvetica,sans-Serif" font-size="10.00">/BusTypes.h</text>
</a>
</g>
</g>
<!-- Node2 -->
<g id="Node000002" class="node">
<title>Node2</title>
<g id="a_Node000002"><a xlink:href="_dma_debugger_types_8h.html" target="_top" xlink:title=" ">
<polygon fill="white" stroke="#666666" points="206.25,-463.25 63.5,-463.25 63.5,-421.5 206.25,-421.5 206.25,-463.25"/>
<text text-anchor="start" x="71.5" y="-449.75" font-family="Helvetica,sans-Serif" font-size="10.00">/Users/hoff/Retro/virtualc64</text>
<text text-anchor="start" x="71.5" y="-438.5" font-family="Helvetica,sans-Serif" font-size="10.00">/Emulator/Components/VICII</text>
<text text-anchor="middle" x="134.88" y="-427.25" font-family="Helvetica,sans-Serif" font-size="10.00">/DmaDebuggerTypes.h</text>
</a>
</g>
</g>
<!-- Node1&#45;&gt;Node2 -->
<g id="edge1_Node000001_Node000002" class="edge">
<title>Node1&#45;&gt;Node2</title>
<g id="a_edge1_Node000001_Node000002"><a xlink:title=" ">
<path fill="none" stroke="#63b8ff" d="M164.5,-489.18C158.98,-480.64 153.1,-471.55 148.04,-463.73"/>
<polygon fill="#63b8ff" stroke="#63b8ff" points="161.55,-491.06 169.92,-497.55 167.43,-487.26 161.55,-491.06"/>
</a>
</g>
</g>
<!-- Node9 -->
<g id="Node000009" class="node">
<title>Node9</title>
<g id="a_Node000009"><a xlink:href="_v_i_c_i_i_types_8h_source.html" target="_top" xlink:title=" ">
<polygon fill="white" stroke="#666666" points="305.25,-385.5 162.5,-385.5 162.5,-343.75 305.25,-343.75 305.25,-385.5"/>
<text text-anchor="start" x="170.5" y="-372" font-family="Helvetica,sans-Serif" font-size="10.00">/Users/hoff/Retro/virtualc64</text>
<text text-anchor="start" x="170.5" y="-360.75" font-family="Helvetica,sans-Serif" font-size="10.00">/Emulator/Components/VICII</text>
<text text-anchor="middle" x="233.88" y="-349.5" font-family="Helvetica,sans-Serif" font-size="10.00">/VICIITypes.h</text>
</a>
</g>
</g>
<!-- Node1&#45;&gt;Node9 -->
<g id="edge12_Node000001_Node000009" class="edge">
<title>Node1&#45;&gt;Node9</title>
<g id="a_edge12_Node000001_Node000009"><a xlink:title=" ">
<path fill="none" stroke="#63b8ff" d="M202.79,-489.11C207.29,-480.96 211.7,-471.97 214.88,-463.25 224.27,-437.45 229.33,-406.04 231.81,-385.94"/>
<polygon fill="#63b8ff" stroke="#63b8ff" points="199.86,-487.18 197.88,-497.59 205.92,-490.69 199.86,-487.18"/>
</a>
</g>
</g>
<!-- Node3 -->
<g id="Node000003" class="node">
<title>Node3</title>
<g id="a_Node000003"><a xlink:href="_dma_debugger_8h_source.html" target="_top" xlink:title=" ">
<polygon fill="white" stroke="#666666" points="144.25,-385.5 1.5,-385.5 1.5,-343.75 144.25,-343.75 144.25,-385.5"/>
<text text-anchor="start" x="9.5" y="-372" font-family="Helvetica,sans-Serif" font-size="10.00">/Users/hoff/Retro/virtualc64</text>
<text text-anchor="start" x="9.5" y="-360.75" font-family="Helvetica,sans-Serif" font-size="10.00">/Emulator/Components/VICII</text>
<text text-anchor="middle" x="72.88" y="-349.5" font-family="Helvetica,sans-Serif" font-size="10.00">/DmaDebugger.h</text>
</a>
</g>
</g>
<!-- Node2&#45;&gt;Node3 -->
<g id="edge2_Node000002_Node000003" class="edge">
<title>Node2&#45;&gt;Node3</title>
<g id="a_edge2_Node000002_Node000003"><a xlink:title=" ">
<path fill="none" stroke="#63b8ff" d="M111.04,-412.26C103.87,-403.49 96.14,-394.05 89.54,-385.98"/>
<polygon fill="#63b8ff" stroke="#63b8ff" points="108.26,-414.38 117.3,-419.9 113.68,-409.95 108.26,-414.38"/>
</a>
</g>
</g>
<!-- Node2&#45;&gt;Node9 -->
<g id="edge8_Node000002_Node000009" class="edge">
<title>Node2&#45;&gt;Node9</title>
<g id="a_edge8_Node000002_Node000009"><a xlink:title=" ">
<path fill="none" stroke="#63b8ff" d="M170.41,-414.19C182.56,-404.89 195.94,-394.65 207.27,-385.98"/>
<polygon fill="#63b8ff" stroke="#63b8ff" points="168.42,-411.3 162.61,-420.16 172.68,-416.86 168.42,-411.3"/>
</a>
</g>
</g>
<!-- Node4 -->
<g id="Node000004" class="node">
<title>Node4</title>
<g id="a_Node000004"><a xlink:href="_v_i_c_i_i_8h_source.html" target="_top" xlink:title=" ">
<polygon fill="white" stroke="#666666" points="144.25,-307.75 1.5,-307.75 1.5,-266 144.25,-266 144.25,-307.75"/>
<text text-anchor="start" x="9.5" y="-294.25" font-family="Helvetica,sans-Serif" font-size="10.00">/Users/hoff/Retro/virtualc64</text>
<text text-anchor="start" x="9.5" y="-283" font-family="Helvetica,sans-Serif" font-size="10.00">/Emulator/Components/VICII</text>
<text text-anchor="middle" x="72.88" y="-271.75" font-family="Helvetica,sans-Serif" font-size="10.00">/VICII.h</text>
</a>
</g>
</g>
<!-- Node3&#45;&gt;Node4 -->
<g id="edge3_Node000003_Node000004" class="edge">
<title>Node3&#45;&gt;Node4</title>
<g id="a_edge3_Node000003_Node000004"><a xlink:title=" ">
<path fill="none" stroke="#63b8ff" d="M72.88,-332C72.88,-323.96 72.88,-315.54 72.88,-308.23"/>
<polygon fill="#63b8ff" stroke="#63b8ff" points="69.38,-331.81 72.88,-341.81 76.38,-331.81 69.38,-331.81"/>
</a>
</g>
</g>
<!-- Node5 -->
<g id="Node000005" class="node">
<title>Node5</title>
<g id="a_Node000005"><a xlink:href="_c64_8h_source.html" target="_top" xlink:title=" ">
<polygon fill="white" stroke="#666666" points="145.75,-230 0,-230 0,-199.5 145.75,-199.5 145.75,-230"/>
<text text-anchor="start" x="8" y="-216.5" font-family="Helvetica,sans-Serif" font-size="10.00">/Users/hoff/Retro/virtualc64</text>
<text text-anchor="middle" x="72.88" y="-205.25" font-family="Helvetica,sans-Serif" font-size="10.00">/Emulator/Components/C64.h</text>
</a>
</g>
</g>
<!-- Node4&#45;&gt;Node5 -->
<g id="edge4_Node000004_Node000005" class="edge">
<title>Node4&#45;&gt;Node5</title>
<g id="a_edge4_Node000004_Node000005"><a xlink:title=" ">
<path fill="none" stroke="#63b8ff" d="M72.88,-254.13C72.88,-245.77 72.88,-237.15 72.88,-230.2"/>
<polygon fill="#63b8ff" stroke="#63b8ff" points="69.38,-254.08 72.88,-264.08 76.38,-254.08 69.38,-254.08"/>
</a>
</g>
</g>
<!-- Node6 -->
<g id="Node000006" class="node">
<title>Node6</title>
<g id="a_Node000006"><a xlink:href="_emulator_8h_source.html" target="_top" xlink:title=" ">
<polygon fill="white" stroke="#666666" points="180.88,-163.5 14.88,-163.5 14.88,-133 180.88,-133 180.88,-163.5"/>
<text text-anchor="start" x="22.88" y="-150" font-family="Helvetica,sans-Serif" font-size="10.00">/Users/hoff/Retro/virtualc64</text>
<text text-anchor="middle" x="97.88" y="-138.75" font-family="Helvetica,sans-Serif" font-size="10.00">/Emulator/Components/Emulator.h</text>
</a>
</g>
</g>
<!-- Node5&#45;&gt;Node6 -->
<g id="edge5_Node000005_Node000006" class="edge">
<title>Node5&#45;&gt;Node6</title>
<g id="a_edge5_Node000005_Node000006"><a xlink:title=" ">
<path fill="none" stroke="#63b8ff" d="M82.6,-188.66C85.86,-180.25 89.38,-171.16 92.22,-163.83"/>
<polygon fill="#63b8ff" stroke="#63b8ff" points="79.45,-187.11 79.09,-197.7 85.97,-189.64 79.45,-187.11"/>
</a>
</g>
</g>
<!-- Node7 -->
<g id="Node000007" class="node">
<title>Node7</title>
<g id="a_Node000007"><a xlink:href="_virtual_c64_8h.html" target="_top" xlink:title=" ">
<polygon fill="white" stroke="#666666" points="221.25,-97 84.5,-97 84.5,-66.5 221.25,-66.5 221.25,-97"/>
<text text-anchor="start" x="92.5" y="-83.5" font-family="Helvetica,sans-Serif" font-size="10.00">/Users/hoff/Retro/virtualc64</text>
<text text-anchor="middle" x="152.88" y="-72.25" font-family="Helvetica,sans-Serif" font-size="10.00">/Emulator/VirtualC64.h</text>
</a>
</g>
</g>
<!-- Node6&#45;&gt;Node7 -->
<g id="edge6_Node000006_Node000007" class="edge">
<title>Node6&#45;&gt;Node7</title>
<g id="a_edge6_Node000006_Node000007"><a xlink:title=" ">
<path fill="none" stroke="#63b8ff" d="M117.59,-124.13C125.21,-115.19 133.7,-105.24 140.44,-97.33"/>
<polygon fill="#63b8ff" stroke="#63b8ff" points="115.16,-121.58 111.34,-131.46 120.49,-126.12 115.16,-121.58"/>
</a>
</g>
</g>
<!-- Node8 -->
<g id="Node000008" class="node">
<title>Node8</title>
<g id="a_Node000008"><a xlink:href="_headless_8h_source.html" target="_top" xlink:title=" ">
<polygon fill="white" stroke="#666666" points="221.25,-30.5 84.5,-30.5 84.5,0 221.25,0 221.25,-30.5"/>
<text text-anchor="start" x="92.5" y="-17" font-family="Helvetica,sans-Serif" font-size="10.00">/Users/hoff/Retro/virtualc64</text>
<text text-anchor="middle" x="152.88" y="-5.75" font-family="Helvetica,sans-Serif" font-size="10.00">/Emulator/Headless.h</text>
</a>
</g>
</g>
<!-- Node7&#45;&gt;Node8 -->
<g id="edge7_Node000007_Node000008" class="edge">
<title>Node7&#45;&gt;Node8</title>
<g id="a_edge7_Node000007_Node000008"><a xlink:title=" ">
<path fill="none" stroke="#63b8ff" d="M152.88,-54.81C152.88,-46.64 152.88,-37.91 152.88,-30.83"/>
<polygon fill="#63b8ff" stroke="#63b8ff" points="149.38,-54.6 152.88,-64.6 156.38,-54.6 149.38,-54.6"/>
</a>
</g>
</g>
<!-- Node9&#45;&gt;Node4 -->
<g id="edge9_Node000009_Node000004" class="edge">
<title>Node9&#45;&gt;Node4</title>
<g id="a_edge9_Node000009_Node000004"><a xlink:title=" ">
<path fill="none" stroke="#63b8ff" d="M180.42,-338.47C159.54,-328.65 135.92,-317.54 116.14,-308.23"/>
<polygon fill="#63b8ff" stroke="#63b8ff" points="178.82,-341.59 189.36,-342.68 181.8,-335.26 178.82,-341.59"/>
</a>
</g>
</g>
<!-- Node10 -->
<g id="Node000010" class="node">
<title>Node10</title>
<g id="a_Node000010"><a xlink:href="_virtual_c64_types_8h.html" target="_top" xlink:title=" ">
<polygon fill="white" stroke="#666666" points="305.5,-230 164.25,-230 164.25,-199.5 305.5,-199.5 305.5,-230"/>
<text text-anchor="start" x="172.25" y="-216.5" font-family="Helvetica,sans-Serif" font-size="10.00">/Users/hoff/Retro/virtualc64</text>
<text text-anchor="middle" x="234.88" y="-205.25" font-family="Helvetica,sans-Serif" font-size="10.00">/Emulator/VirtualC64Types.h</text>
</a>
</g>
</g>
<!-- Node9&#45;&gt;Node10 -->
<g id="edge10_Node000009_Node000010" class="edge">
<title>Node9&#45;&gt;Node10</title>
<g id="a_edge10_Node000009_Node000010"><a xlink:title=" ">
<path fill="none" stroke="#63b8ff" d="M234.09,-332.19C234.3,-300.81 234.62,-253.98 234.78,-230.41"/>
<polygon fill="#63b8ff" stroke="#63b8ff" points="230.59,-331.84 234.02,-341.86 237.59,-331.88 230.59,-331.84"/>
</a>
</g>
</g>
<!-- Node10&#45;&gt;Node7 -->
<g id="edge11_Node000010_Node000007" class="edge">
<title>Node10&#45;&gt;Node7</title>
<g id="a_edge11_Node000010_Node000007"><a xlink:title=" ">
<path fill="none" stroke="#63b8ff" d="M222.3,-189.32C213.67,-173.05 201.7,-151.38 189.88,-133 181.9,-120.61 171.96,-107.2 164.39,-97.35"/>
<polygon fill="#63b8ff" stroke="#63b8ff" points="219,-190.56 226.74,-197.79 225.2,-187.31 219,-190.56"/>
</a>
</g>
</g>
</g>
</svg>
