<?xml version="1.0" encoding="UTF-8" standalone="no"?>
<!DOCTYPE svg PUBLIC "-//W3C//DTD SVG 1.1//EN"
 "http://www.w3.org/Graphics/SVG/1.1/DTD/svg11.dtd">
<!-- Generated by graphviz version 10.0.1 (20240210.2158)
 -->
<!-- Title: /Users/hoff/Retro/virtualc64/Emulator/Peripherals/Keyboard/C64Key.cpp Pages: 1 -->
<svg width="219pt" height="326pt"
 viewBox="0.00 0.00 218.88 326.00" xmlns="http://www.w3.org/2000/svg" xmlns:xlink="http://www.w3.org/1999/xlink">
<g id="graph0" class="graph" transform="scale(1 1) rotate(0) translate(4 322)">
<title>/Users/hoff/Retro/virtualc64/Emulator/Peripherals/Keyboard/C64Key.cpp</title>
<!-- Node1 -->
<g id="Node000001" class="node">
<title>Node1</title>
<g id="a_Node000001"><a xlink:title=" ">
<polygon fill="#999999" stroke="#666666" points="154,-318 0,-318 0,-276.25 154,-276.25 154,-318"/>
<text text-anchor="start" x="8" y="-304.5" font-family="Helvetica,sans-Serif" font-size="10.00">/Users/hoff/Retro/virtualc64</text>
<text text-anchor="start" x="8" y="-293.25" font-family="Helvetica,sans-Serif" font-size="10.00">/Emulator/Peripherals/Keyboard</text>
<text text-anchor="middle" x="77" y="-282" font-family="Helvetica,sans-Serif" font-size="10.00">/C64Key.cpp</text>
</a>
</g>
</g>
<!-- Node2 -->
<g id="Node000002" class="node">
<title>Node2</title>
<g id="a_Node000002"><a xlink:href="config_8h.html" target="_top" xlink:title=" ">
<polygon fill="white" stroke="#666666" points="66.25,-240.25 15.75,-240.25 15.75,-221 66.25,-221 66.25,-240.25"/>
<text text-anchor="middle" x="41" y="-226.75" font-family="Helvetica,sans-Serif" font-size="10.00">config.h</text>
</a>
</g>
</g>
<!-- Node1&#45;&gt;Node2 -->
<g id="edge1_Node000001_Node000002" class="edge">
<title>Node1&#45;&gt;Node2</title>
<g id="a_edge1_Node000001_Node000002"><a xlink:title=" ">
<path fill="none" stroke="#63b8ff" d="M65.81,-276.07C61.27,-267.93 56.05,-258.58 51.57,-250.57"/>
<polygon fill="#63b8ff" stroke="#63b8ff" points="54.73,-249.04 46.8,-242.02 48.62,-252.45 54.73,-249.04"/>
</a>
</g>
</g>
<!-- Node4 -->
<g id="Node000004" class="node">
<title>Node4</title>
<g id="a_Node000004"><a xlink:href="_c64_key_8h.html" target="_top" xlink:title=" ">
<polygon fill="white" stroke="#666666" points="142,-240.25 84,-240.25 84,-221 142,-221 142,-240.25"/>
<text text-anchor="middle" x="113" y="-226.75" font-family="Helvetica,sans-Serif" font-size="10.00">C64Key.h</text>
</a>
</g>
</g>
<!-- Node1&#45;&gt;Node4 -->
<g id="edge3_Node000001_Node000004" class="edge">
<title>Node1&#45;&gt;Node4</title>
<g id="a_edge3_Node000001_Node000004"><a xlink:title=" ">
<path fill="none" stroke="#63b8ff" d="M88.19,-276.07C92.73,-267.93 97.95,-258.58 102.43,-250.57"/>
<polygon fill="#63b8ff" stroke="#63b8ff" points="105.38,-252.45 107.2,-242.02 99.27,-249.04 105.38,-252.45"/>
</a>
</g>
</g>
<!-- Node3 -->
<g id="Node000003" class="node">
<title>Node3</title>
<g id="a_Node000003"><a xlink:title=" ">
<polygon fill="#e0e0e0" stroke="#999999" points="66.62,-185 15.38,-185 15.38,-165.75 66.62,-165.75 66.62,-185"/>
<text text-anchor="middle" x="41" y="-171.5" font-family="Helvetica,sans-Serif" font-size="10.00">assert.h</text>
</a>
</g>
</g>
<!-- Node2&#45;&gt;Node3 -->
<g id="edge2_Node000002_Node000003" class="edge">
<title>Node2&#45;&gt;Node3</title>
<g id="a_edge2_Node000002_Node000003"><a xlink:title=" ">
<path fill="none" stroke="#63b8ff" d="M41,-220.83C41,-214.32 41,-205.17 41,-196.87"/>
<polygon fill="#63b8ff" stroke="#63b8ff" points="44.5,-196.87 41,-186.87 37.5,-196.87 44.5,-196.87"/>
</a>
</g>
</g>
<!-- Node5 -->
<g id="Node000005" class="node">
<title>Node5</title>
<g id="a_Node000005"><a xlink:href="_aliases_8h.html" target="_top" xlink:title=" ">
<polygon fill="white" stroke="#666666" points="141.25,-185 84.75,-185 84.75,-165.75 141.25,-165.75 141.25,-185"/>
<text text-anchor="middle" x="113" y="-171.5" font-family="Helvetica,sans-Serif" font-size="10.00">Aliases.h</text>
</a>
</g>
</g>
<!-- Node4&#45;&gt;Node5 -->
<g id="edge4_Node000004_Node000005" class="edge">
<title>Node4&#45;&gt;Node5</title>
<g id="a_edge4_Node000004_Node000005"><a xlink:title=" ">
<path fill="none" stroke="#63b8ff" d="M113,-220.83C113,-214.32 113,-205.17 113,-196.87"/>
<polygon fill="#63b8ff" stroke="#63b8ff" points="116.5,-196.87 113,-186.87 109.5,-196.87 116.5,-196.87"/>
</a>
</g>
</g>
<!-- Node11 -->
<g id="Node000011" class="node">
<title>Node11</title>
<g id="a_Node000011"><a xlink:title=" ">
<polygon fill="#e0e0e0" stroke="#999999" points="202.5,-185 159.5,-185 159.5,-165.75 202.5,-165.75 202.5,-185"/>
<text text-anchor="middle" x="181" y="-171.5" font-family="Helvetica,sans-Serif" font-size="10.00">vector</text>
</a>
</g>
</g>
<!-- Node4&#45;&gt;Node11 -->
<g id="edge10_Node000004_Node000011" class="edge">
<title>Node4&#45;&gt;Node11</title>
<g id="a_edge10_Node000004_Node000011"><a xlink:title=" ">
<path fill="none" stroke="#63b8ff" d="M124.54,-220.59C134.46,-212.82 149.01,-201.42 160.86,-192.15"/>
<polygon fill="#63b8ff" stroke="#63b8ff" points="162.73,-195.13 168.44,-186.21 158.41,-189.62 162.73,-195.13"/>
</a>
</g>
</g>
<!-- Node6 -->
<g id="Node000006" class="node">
<title>Node6</title>
<g id="a_Node000006"><a xlink:href="_macros_8h.html" target="_top" xlink:title=" ">
<polygon fill="white" stroke="#666666" points="141.25,-129.75 84.75,-129.75 84.75,-110.5 141.25,-110.5 141.25,-129.75"/>
<text text-anchor="middle" x="113" y="-116.25" font-family="Helvetica,sans-Serif" font-size="10.00">Macros.h</text>
</a>
</g>
</g>
<!-- Node5&#45;&gt;Node6 -->
<g id="edge5_Node000005_Node000006" class="edge">
<title>Node5&#45;&gt;Node6</title>
<g id="a_edge5_Node000005_Node000006"><a xlink:title=" ">
<path fill="none" stroke="#63b8ff" d="M113,-165.58C113,-159.07 113,-149.92 113,-141.62"/>
<polygon fill="#63b8ff" stroke="#63b8ff" points="116.5,-141.62 113,-131.62 109.5,-141.62 116.5,-141.62"/>
</a>
</g>
</g>
<!-- Node7 -->
<g id="Node000007" class="node">
<title>Node7</title>
<g id="a_Node000007"><a xlink:href="_types_8h.html" target="_top" xlink:title=" ">
<polygon fill="white" stroke="#666666" points="138.25,-74.5 87.75,-74.5 87.75,-55.25 138.25,-55.25 138.25,-74.5"/>
<text text-anchor="middle" x="113" y="-61" font-family="Helvetica,sans-Serif" font-size="10.00">Types.h</text>
</a>
</g>
</g>
<!-- Node6&#45;&gt;Node7 -->
<g id="edge6_Node000006_Node000007" class="edge">
<title>Node6&#45;&gt;Node7</title>
<g id="a_edge6_Node000006_Node000007"><a xlink:title=" ">
<path fill="none" stroke="#63b8ff" d="M113,-110.33C113,-103.82 113,-94.67 113,-86.37"/>
<polygon fill="#63b8ff" stroke="#63b8ff" points="116.5,-86.37 113,-76.37 109.5,-86.37 116.5,-86.37"/>
</a>
</g>
</g>
<!-- Node8 -->
<g id="Node000008" class="node">
<title>Node8</title>
<g id="a_Node000008"><a xlink:title=" ">
<polygon fill="#e0e0e0" stroke="#999999" points="70.5,-19.25 3.5,-19.25 3.5,0 70.5,0 70.5,-19.25"/>
<text text-anchor="middle" x="37" y="-5.75" font-family="Helvetica,sans-Serif" font-size="10.00">sys/types.h</text>
</a>
</g>
</g>
<!-- Node7&#45;&gt;Node8 -->
<g id="edge7_Node000007_Node000008" class="edge">
<title>Node7&#45;&gt;Node8</title>
<g id="a_edge7_Node000007_Node000008"><a xlink:title=" ">
<path fill="none" stroke="#63b8ff" d="M100.11,-54.84C88.97,-47.04 72.63,-35.59 59.36,-26.29"/>
<polygon fill="#63b8ff" stroke="#63b8ff" points="61.39,-23.44 51.2,-20.57 57.38,-29.18 61.39,-23.44"/>
</a>
</g>
</g>
<!-- Node9 -->
<g id="Node000009" class="node">
<title>Node9</title>
<g id="a_Node000009"><a xlink:title=" ">
<polygon fill="#e0e0e0" stroke="#999999" points="137.12,-19.25 88.88,-19.25 88.88,0 137.12,0 137.12,-19.25"/>
<text text-anchor="middle" x="113" y="-5.75" font-family="Helvetica,sans-Serif" font-size="10.00">stdint.h</text>
</a>
</g>
</g>
<!-- Node7&#45;&gt;Node9 -->
<g id="edge8_Node000007_Node000009" class="edge">
<title>Node7&#45;&gt;Node9</title>
<g id="a_edge8_Node000007_Node000009"><a xlink:title=" ">
<path fill="none" stroke="#63b8ff" d="M113,-55.08C113,-48.57 113,-39.42 113,-31.12"/>
<polygon fill="#63b8ff" stroke="#63b8ff" points="116.5,-31.12 113,-21.12 109.5,-31.12 116.5,-31.12"/>
</a>
</g>
</g>
<!-- Node10 -->
<g id="Node000010" class="node">
<title>Node10</title>
<g id="a_Node000010"><a xlink:title=" ">
<polygon fill="#e0e0e0" stroke="#999999" points="210.88,-19.25 155.12,-19.25 155.12,0 210.88,0 210.88,-19.25"/>
<text text-anchor="middle" x="183" y="-5.75" font-family="Helvetica,sans-Serif" font-size="10.00">stdbool.h</text>
</a>
</g>
</g>
<!-- Node7&#45;&gt;Node10 -->
<g id="edge9_Node000007_Node000010" class="edge">
<title>Node7&#45;&gt;Node10</title>
<g id="a_edge9_Node000007_Node000010"><a xlink:title=" ">
<path fill="none" stroke="#63b8ff" d="M124.87,-54.84C135.09,-47.07 150.07,-35.67 162.26,-26.4"/>
<polygon fill="#63b8ff" stroke="#63b8ff" points="164.26,-29.28 170.1,-20.44 160.02,-23.71 164.26,-29.28"/>
</a>
</g>
</g>
</g>
</svg>
