<?xml version="1.0" encoding="UTF-8" standalone="no"?>
<!DOCTYPE svg PUBLIC "-//W3C//DTD SVG 1.1//EN"
 "http://www.w3.org/Graphics/SVG/1.1/DTD/svg11.dtd">
<!-- Generated by graphviz version 10.0.1 (20240210.2158)
 -->
<!-- Title: /Users/hoff/Retro/virtualc64/Emulator/Components/C64Types.h Pages: 1 -->
<svg width="1044pt" height="449pt"
 viewBox="0.00 0.00 1044.23 448.75" xmlns="http://www.w3.org/2000/svg" xmlns:xlink="http://www.w3.org/1999/xlink">
<g id="graph0" class="graph" transform="scale(1 1) rotate(0) translate(4 444.75)">
<title>/Users/hoff/Retro/virtualc64/Emulator/Components/C64Types.h</title>
<!-- Node1 -->
<g id="Node000001" class="node">
<title>Node1</title>
<g id="a_Node000001"><a xlink:title=" ">
<polygon fill="#999999" stroke="#666666" points="611.35,-440.75 439.35,-440.75 439.35,-410.25 611.35,-410.25 611.35,-440.75"/>
<text text-anchor="start" x="447.35" y="-427.25" font-family="Helvetica,sans-Serif" font-size="10.00">/Users/hoff/Retro/virtualc64</text>
<text text-anchor="middle" x="525.35" y="-416" font-family="Helvetica,sans-Serif" font-size="10.00">/Emulator/Components/C64Types.h</text>
</a>
</g>
</g>
<!-- Node2 -->
<g id="Node000002" class="node">
<title>Node2</title>
<g id="a_Node000002"><a xlink:href="_c64_8h_source.html" target="_top" xlink:title=" ">
<polygon fill="white" stroke="#666666" points="598.23,-296.5 452.48,-296.5 452.48,-266 598.23,-266 598.23,-296.5"/>
<text text-anchor="start" x="460.48" y="-283" font-family="Helvetica,sans-Serif" font-size="10.00">/Users/hoff/Retro/virtualc64</text>
<text text-anchor="middle" x="525.35" y="-271.75" font-family="Helvetica,sans-Serif" font-size="10.00">/Emulator/Components/C64.h</text>
</a>
</g>
</g>
<!-- Node1&#45;&gt;Node2 -->
<g id="edge1_Node000001_Node000002" class="edge">
<title>Node1&#45;&gt;Node2</title>
<g id="a_edge1_Node000001_Node000002"><a xlink:title=" ">
<path fill="none" stroke="#63b8ff" d="M427.71,-421.93C285.92,-417.17 36.86,-404.57 9.35,-374.25 -3.12,-360.51 -3.12,-346.24 9.35,-332.5 38.52,-300.36 316.64,-288.13 452.02,-284.05"/>
<polygon fill="#63b8ff" stroke="#63b8ff" points="427.36,-425.42 437.47,-422.25 427.59,-418.42 427.36,-425.42"/>
</a>
</g>
</g>
<!-- Node7 -->
<g id="Node000007" class="node">
<title>Node7</title>
<g id="a_Node000007"><a xlink:href="_c_i_a_8h_source.html" target="_top" xlink:title=" ">
<polygon fill="white" stroke="#666666" points="183.98,-368.62 18.73,-368.62 18.73,-338.12 183.98,-338.12 183.98,-368.62"/>
<text text-anchor="start" x="26.73" y="-355.12" font-family="Helvetica,sans-Serif" font-size="10.00">/Users/hoff/Retro/virtualc64</text>
<text text-anchor="middle" x="101.35" y="-343.88" font-family="Helvetica,sans-Serif" font-size="10.00">/Emulator/Components/CIA/CIA.h</text>
</a>
</g>
</g>
<!-- Node1&#45;&gt;Node7 -->
<g id="edge6_Node000001_Node000007" class="edge">
<title>Node1&#45;&gt;Node7</title>
<g id="a_edge6_Node000001_Node000007"><a xlink:title=" ">
<path fill="none" stroke="#63b8ff" d="M427.85,-411.38C361.56,-402.06 271.94,-388.67 193.35,-374.25 184.83,-372.69 175.9,-370.92 167.09,-369.1"/>
<polygon fill="#63b8ff" stroke="#63b8ff" points="427.23,-414.83 437.62,-412.75 428.2,-407.89 427.23,-414.83"/>
</a>
</g>
</g>
<!-- Node8 -->
<g id="Node000008" class="node">
<title>Node8</title>
<g id="a_Node000008"><a xlink:href="_rom_file_8h_source.html" target="_top" xlink:title=" ">
<polygon fill="white" stroke="#666666" points="338.73,-368.62 201.98,-368.62 201.98,-338.12 338.73,-338.12 338.73,-368.62"/>
<text text-anchor="start" x="209.98" y="-355.12" font-family="Helvetica,sans-Serif" font-size="10.00">/Users/hoff/Retro/virtualc64</text>
<text text-anchor="middle" x="270.35" y="-343.88" font-family="Helvetica,sans-Serif" font-size="10.00">/Emulator/Media/RomFile.h</text>
</a>
</g>
</g>
<!-- Node1&#45;&gt;Node8 -->
<g id="edge8_Node000001_Node000008" class="edge">
<title>Node1&#45;&gt;Node8</title>
<g id="a_edge8_Node000001_Node000008"><a xlink:title=" ">
<path fill="none" stroke="#63b8ff" d="M460.85,-406.76C418.46,-395.11 363.67,-380.04 323.74,-369.06"/>
<polygon fill="#63b8ff" stroke="#63b8ff" points="459.87,-410.12 470.44,-409.4 461.72,-403.37 459.87,-410.12"/>
</a>
</g>
</g>
<!-- Node9 -->
<g id="Node000009" class="node">
<title>Node9</title>
<g id="a_Node000009"><a xlink:href="_regression_tester_8h_source.html" target="_top" xlink:title=" ">
<polygon fill="white" stroke="#666666" points="518.1,-374.25 356.6,-374.25 356.6,-332.5 518.1,-332.5 518.1,-374.25"/>
<text text-anchor="start" x="364.6" y="-360.75" font-family="Helvetica,sans-Serif" font-size="10.00">/Users/hoff/Retro/virtualc64</text>
<text text-anchor="start" x="364.6" y="-349.5" font-family="Helvetica,sans-Serif" font-size="10.00">/Emulator/Misc/RegressionTester</text>
<text text-anchor="middle" x="437.35" y="-338.25" font-family="Helvetica,sans-Serif" font-size="10.00">/RegressionTester.h</text>
</a>
</g>
</g>
<!-- Node1&#45;&gt;Node9 -->
<g id="edge10_Node000001_Node000009" class="edge">
<title>Node1&#45;&gt;Node9</title>
<g id="a_edge10_Node000001_Node000009"><a xlink:title=" ">
<path fill="none" stroke="#63b8ff" d="M498.16,-402.83C486.92,-393.88 473.96,-383.55 462.9,-374.74"/>
<polygon fill="#63b8ff" stroke="#63b8ff" points="495.93,-405.53 505.93,-409.03 500.29,-400.06 495.93,-405.53"/>
</a>
</g>
</g>
<!-- Node10 -->
<g id="Node000010" class="node">
<title>Node10</title>
<g id="a_Node000010"><a xlink:href="_datasette_8h_source.html" target="_top" xlink:title=" ">
<polygon fill="white" stroke="#666666" points="692.1,-374.25 536.6,-374.25 536.6,-332.5 692.1,-332.5 692.1,-374.25"/>
<text text-anchor="start" x="544.6" y="-360.75" font-family="Helvetica,sans-Serif" font-size="10.00">/Users/hoff/Retro/virtualc64</text>
<text text-anchor="start" x="544.6" y="-349.5" font-family="Helvetica,sans-Serif" font-size="10.00">/Emulator/Peripherals/Datasette</text>
<text text-anchor="middle" x="614.35" y="-338.25" font-family="Helvetica,sans-Serif" font-size="10.00">/Datasette.h</text>
</a>
</g>
</g>
<!-- Node1&#45;&gt;Node10 -->
<g id="edge12_Node000001_Node000010" class="edge">
<title>Node1&#45;&gt;Node10</title>
<g id="a_edge12_Node000001_Node000010"><a xlink:title=" ">
<path fill="none" stroke="#63b8ff" d="M552.51,-403.1C563.95,-394.08 577.21,-383.64 588.51,-374.74"/>
<polygon fill="#63b8ff" stroke="#63b8ff" points="550.67,-400.1 544.98,-409.03 555,-405.59 550.67,-400.1"/>
</a>
</g>
</g>
<!-- Node11 -->
<g id="Node000011" class="node">
<title>Node11</title>
<g id="a_Node000011"><a xlink:href="_drive_8h_source.html" target="_top" xlink:title=" ">
<polygon fill="white" stroke="#666666" points="846.73,-374.25 709.98,-374.25 709.98,-332.5 846.73,-332.5 846.73,-374.25"/>
<text text-anchor="start" x="717.98" y="-360.75" font-family="Helvetica,sans-Serif" font-size="10.00">/Users/hoff/Retro/virtualc64</text>
<text text-anchor="start" x="717.98" y="-349.5" font-family="Helvetica,sans-Serif" font-size="10.00">/Emulator/Peripherals/Drive</text>
<text text-anchor="middle" x="778.35" y="-338.25" font-family="Helvetica,sans-Serif" font-size="10.00">/Drive.h</text>
</a>
</g>
</g>
<!-- Node1&#45;&gt;Node11 -->
<g id="edge14_Node000001_Node000011" class="edge">
<title>Node1&#45;&gt;Node11</title>
<g id="a_edge14_Node000001_Node000011"><a xlink:title=" ">
<path fill="none" stroke="#63b8ff" d="M589.45,-406.73C626.1,-396.57 672.09,-383.83 709.51,-373.46"/>
<polygon fill="#63b8ff" stroke="#63b8ff" points="588.55,-403.35 579.85,-409.4 590.42,-410.1 588.55,-403.35"/>
</a>
</g>
</g>
<!-- Node12 -->
<g id="Node000012" class="node">
<title>Node12</title>
<g id="a_Node000012"><a xlink:href="_keyboard_8h_source.html" target="_top" xlink:title=" ">
<polygon fill="white" stroke="#666666" points="1018.35,-374.25 864.35,-374.25 864.35,-332.5 1018.35,-332.5 1018.35,-374.25"/>
<text text-anchor="start" x="872.35" y="-360.75" font-family="Helvetica,sans-Serif" font-size="10.00">/Users/hoff/Retro/virtualc64</text>
<text text-anchor="start" x="872.35" y="-349.5" font-family="Helvetica,sans-Serif" font-size="10.00">/Emulator/Peripherals/Keyboard</text>
<text text-anchor="middle" x="941.35" y="-338.25" font-family="Helvetica,sans-Serif" font-size="10.00">/Keyboard.h</text>
</a>
</g>
</g>
<!-- Node1&#45;&gt;Node12 -->
<g id="edge16_Node000001_Node000012" class="edge">
<title>Node1&#45;&gt;Node12</title>
<g id="a_edge16_Node000001_Node000012"><a xlink:title=" ">
<path fill="none" stroke="#63b8ff" d="M623.01,-411.61C688.87,-402.44 777.6,-389.13 855.35,-374.25 858.21,-373.7 861.12,-373.13 864.06,-372.53"/>
<polygon fill="#63b8ff" stroke="#63b8ff" points="622.74,-408.12 613.32,-412.96 623.7,-415.05 622.74,-408.12"/>
</a>
</g>
</g>
<!-- Node13 -->
<g id="Node000013" class="node">
<title>Node13</title>
<g id="a_Node000013"><a xlink:href="_virtual_c64_types_8h.html" target="_top" xlink:title=" ">
<polygon fill="white" stroke="#666666" points="936.98,-296.5 795.73,-296.5 795.73,-266 936.98,-266 936.98,-296.5"/>
<text text-anchor="start" x="803.73" y="-283" font-family="Helvetica,sans-Serif" font-size="10.00">/Users/hoff/Retro/virtualc64</text>
<text text-anchor="middle" x="866.35" y="-271.75" font-family="Helvetica,sans-Serif" font-size="10.00">/Emulator/VirtualC64Types.h</text>
</a>
</g>
</g>
<!-- Node1&#45;&gt;Node13 -->
<g id="edge18_Node000001_Node000013" class="edge">
<title>Node1&#45;&gt;Node13</title>
<g id="a_edge18_Node000001_Node000013"><a xlink:title=" ">
<path fill="none" stroke="#63b8ff" d="M623.27,-421.63C761.7,-416.54 1000.81,-403.58 1027.35,-374.25 1039.8,-360.49 1038.35,-347.45 1027.35,-332.5 1006.62,-304.31 970.16,-291.49 937.18,-285.83"/>
<polygon fill="#63b8ff" stroke="#63b8ff" points="623.23,-418.13 613.36,-421.98 623.48,-425.12 623.23,-418.13"/>
</a>
</g>
</g>
<!-- Node3 -->
<g id="Node000003" class="node">
<title>Node3</title>
<g id="a_Node000003"><a xlink:href="_emulator_8h_source.html" target="_top" xlink:title=" ">
<polygon fill="white" stroke="#666666" points="633.35,-230 467.35,-230 467.35,-199.5 633.35,-199.5 633.35,-230"/>
<text text-anchor="start" x="475.35" y="-216.5" font-family="Helvetica,sans-Serif" font-size="10.00">/Users/hoff/Retro/virtualc64</text>
<text text-anchor="middle" x="550.35" y="-205.25" font-family="Helvetica,sans-Serif" font-size="10.00">/Emulator/Components/Emulator.h</text>
</a>
</g>
</g>
<!-- Node2&#45;&gt;Node3 -->
<g id="edge2_Node000002_Node000003" class="edge">
<title>Node2&#45;&gt;Node3</title>
<g id="a_edge2_Node000002_Node000003"><a xlink:title=" ">
<path fill="none" stroke="#63b8ff" d="M535.08,-255.16C538.34,-246.75 541.86,-237.66 544.7,-230.33"/>
<polygon fill="#63b8ff" stroke="#63b8ff" points="531.92,-253.61 531.57,-264.2 538.45,-256.14 531.92,-253.61"/>
</a>
</g>
</g>
<!-- Node4 -->
<g id="Node000004" class="node">
<title>Node4</title>
<g id="a_Node000004"><a xlink:href="_virtual_c64_8h.html" target="_top" xlink:title=" ">
<polygon fill="white" stroke="#666666" points="673.73,-163.5 536.98,-163.5 536.98,-133 673.73,-133 673.73,-163.5"/>
<text text-anchor="start" x="544.98" y="-150" font-family="Helvetica,sans-Serif" font-size="10.00">/Users/hoff/Retro/virtualc64</text>
<text text-anchor="middle" x="605.35" y="-138.75" font-family="Helvetica,sans-Serif" font-size="10.00">/Emulator/VirtualC64.h</text>
</a>
</g>
</g>
<!-- Node3&#45;&gt;Node4 -->
<g id="edge3_Node000003_Node000004" class="edge">
<title>Node3&#45;&gt;Node4</title>
<g id="a_edge3_Node000003_Node000004"><a xlink:title=" ">
<path fill="none" stroke="#63b8ff" d="M570.07,-190.63C577.69,-181.69 586.18,-171.74 592.92,-163.83"/>
<polygon fill="#63b8ff" stroke="#63b8ff" points="567.64,-188.08 563.81,-197.96 572.97,-192.62 567.64,-188.08"/>
</a>
</g>
</g>
<!-- Node5 -->
<g id="Node000005" class="node">
<title>Node5</title>
<g id="a_Node000005"><a xlink:href="_headless_8h_source.html" target="_top" xlink:title=" ">
<polygon fill="white" stroke="#666666" points="673.73,-97 536.98,-97 536.98,-66.5 673.73,-66.5 673.73,-97"/>
<text text-anchor="start" x="544.98" y="-83.5" font-family="Helvetica,sans-Serif" font-size="10.00">/Users/hoff/Retro/virtualc64</text>
<text text-anchor="middle" x="605.35" y="-72.25" font-family="Helvetica,sans-Serif" font-size="10.00">/Emulator/Headless.h</text>
</a>
</g>
</g>
<!-- Node4&#45;&gt;Node5 -->
<g id="edge4_Node000004_Node000005" class="edge">
<title>Node4&#45;&gt;Node5</title>
<g id="a_edge4_Node000004_Node000005"><a xlink:title=" ">
<path fill="none" stroke="#63b8ff" d="M605.35,-121.31C605.35,-113.14 605.35,-104.41 605.35,-97.33"/>
<polygon fill="#63b8ff" stroke="#63b8ff" points="601.85,-121.1 605.35,-131.1 608.85,-121.1 601.85,-121.1"/>
</a>
</g>
</g>
<!-- Node6 -->
<g id="Node000006" class="node">
<title>Node6</title>
<g id="a_Node000006"><a xlink:href="_headless_8cpp.html" target="_top" xlink:title=" ">
<polygon fill="white" stroke="#666666" points="673.73,-30.5 536.98,-30.5 536.98,0 673.73,0 673.73,-30.5"/>
<text text-anchor="start" x="544.98" y="-17" font-family="Helvetica,sans-Serif" font-size="10.00">/Users/hoff/Retro/virtualc64</text>
<text text-anchor="middle" x="605.35" y="-5.75" font-family="Helvetica,sans-Serif" font-size="10.00">/Emulator/Headless.cpp</text>
</a>
</g>
</g>
<!-- Node5&#45;&gt;Node6 -->
<g id="edge5_Node000005_Node000006" class="edge">
<title>Node5&#45;&gt;Node6</title>
<g id="a_edge5_Node000005_Node000006"><a xlink:title=" ">
<path fill="none" stroke="#63b8ff" d="M605.35,-54.81C605.35,-46.64 605.35,-37.91 605.35,-30.83"/>
<polygon fill="#63b8ff" stroke="#63b8ff" points="601.85,-54.6 605.35,-64.6 608.85,-54.6 601.85,-54.6"/>
</a>
</g>
</g>
<!-- Node7&#45;&gt;Node2 -->
<g id="edge7_Node000007_Node000002" class="edge">
<title>Node7&#45;&gt;Node2</title>
<g id="a_edge7_Node000007_Node000002"><a xlink:title=" ">
<path fill="none" stroke="#63b8ff" d="M178.26,-335.39C183.36,-334.38 188.43,-333.4 193.35,-332.5 282.08,-316.22 384.86,-301.26 452.27,-291.97"/>
<polygon fill="#63b8ff" stroke="#63b8ff" points="177.67,-331.94 168.57,-337.35 179.06,-338.8 177.67,-331.94"/>
</a>
</g>
</g>
<!-- Node8&#45;&gt;Node2 -->
<g id="edge9_Node000008_Node000002" class="edge">
<title>Node8&#45;&gt;Node2</title>
<g id="a_edge9_Node000008_Node000002"><a xlink:title=" ">
<path fill="none" stroke="#63b8ff" d="M334.85,-334.64C377.24,-322.98 432.03,-307.91 471.97,-296.93"/>
<polygon fill="#63b8ff" stroke="#63b8ff" points="333.98,-331.25 325.27,-337.27 335.84,-338 333.98,-331.25"/>
</a>
</g>
</g>
<!-- Node9&#45;&gt;Node2 -->
<g id="edge11_Node000009_Node000002" class="edge">
<title>Node9&#45;&gt;Node2</title>
<g id="a_edge11_Node000009_Node000002"><a xlink:title=" ">
<path fill="none" stroke="#63b8ff" d="M471.73,-324.98C483.73,-315.42 496.74,-305.05 506.94,-296.92"/>
<polygon fill="#63b8ff" stroke="#63b8ff" points="469.63,-322.18 463.99,-331.15 473.99,-327.65 469.63,-322.18"/>
</a>
</g>
</g>
<!-- Node10&#45;&gt;Node2 -->
<g id="edge13_Node000010_Node000002" class="edge">
<title>Node10&#45;&gt;Node2</title>
<g id="a_edge13_Node000010_Node000002"><a xlink:title=" ">
<path fill="none" stroke="#63b8ff" d="M579.59,-324.98C567.44,-315.42 554.28,-305.05 543.97,-296.92"/>
<polygon fill="#63b8ff" stroke="#63b8ff" points="577.4,-327.72 587.42,-331.16 581.73,-322.22 577.4,-327.72"/>
</a>
</g>
</g>
<!-- Node11&#45;&gt;Node2 -->
<g id="edge15_Node000011_Node000002" class="edge">
<title>Node11&#45;&gt;Node2</title>
<g id="a_edge15_Node000011_Node000002"><a xlink:title=" ">
<path fill="none" stroke="#63b8ff" d="M698.7,-330.3C659.51,-319.43 613.33,-306.63 578.49,-296.98"/>
<polygon fill="#63b8ff" stroke="#63b8ff" points="697.52,-333.6 708.09,-332.9 699.39,-326.86 697.52,-333.6"/>
</a>
</g>
</g>
<!-- Node12&#45;&gt;Node2 -->
<g id="edge17_Node000012_Node000002" class="edge">
<title>Node12&#45;&gt;Node2</title>
<g id="a_edge17_Node000012_Node000002"><a xlink:title=" ">
<path fill="none" stroke="#63b8ff" d="M853.01,-332.12C759.85,-314.58 663.2,-300.55 598.7,-291.79"/>
<polygon fill="#63b8ff" stroke="#63b8ff" points="852.09,-335.51 862.57,-333.94 853.4,-328.63 852.09,-335.51"/>
</a>
</g>
</g>
<!-- Node13&#45;&gt;Node4 -->
<g id="edge19_Node000013_Node000004" class="edge">
<title>Node13&#45;&gt;Node4</title>
<g id="a_edge19_Node000013_Node000004"><a xlink:title=" ">
<path fill="none" stroke="#63b8ff" d="M827.16,-260.58C774.29,-234.04 681.36,-187.4 634.34,-163.8"/>
<polygon fill="#63b8ff" stroke="#63b8ff" points="825.31,-263.57 835.82,-264.92 828.45,-257.31 825.31,-263.57"/>
</a>
</g>
</g>
</g>
</svg>
