<?xml version="1.0" encoding="UTF-8" standalone="no"?>
<!DOCTYPE svg PUBLIC "-//W3C//DTD SVG 1.1//EN"
 "http://www.w3.org/Graphics/SVG/1.1/DTD/svg11.dtd">
<!-- Generated by graphviz version 10.0.1 (20240210.2158)
 -->
<!-- Title: /Users/hoff/Retro/virtualc64/Emulator/Components/C64Types.h Pages: 1 -->
<svg width="1044pt" height="382pt"
 viewBox="0.00 0.00 1044.23 382.25" xmlns="http://www.w3.org/2000/svg" xmlns:xlink="http://www.w3.org/1999/xlink">
<g id="graph0" class="graph" transform="scale(1 1) rotate(0) translate(4 378.25)">
<title>/Users/hoff/Retro/virtualc64/Emulator/Components/C64Types.h</title>
<!-- Node1 -->
<g id="Node000001" class="node">
<title>Node1</title>
<g id="a_Node000001"><a xlink:title=" ">
<polygon fill="#999999" stroke="#666666" points="611.35,-374.25 439.35,-374.25 439.35,-343.75 611.35,-343.75 611.35,-374.25"/>
<text text-anchor="start" x="447.35" y="-360.75" font-family="Helvetica,sans-Serif" font-size="10.00">/Users/hoff/Retro/virtualc64</text>
<text text-anchor="middle" x="525.35" y="-349.5" font-family="Helvetica,sans-Serif" font-size="10.00">/Emulator/Components/C64Types.h</text>
</a>
</g>
</g>
<!-- Node2 -->
<g id="Node000002" class="node">
<title>Node2</title>
<g id="a_Node000002"><a xlink:href="_c64_8h_source.html" target="_top" xlink:title=" ">
<polygon fill="white" stroke="#666666" points="598.23,-230 452.48,-230 452.48,-199.5 598.23,-199.5 598.23,-230"/>
<text text-anchor="start" x="460.48" y="-216.5" font-family="Helvetica,sans-Serif" font-size="10.00">/Users/hoff/Retro/virtualc64</text>
<text text-anchor="middle" x="525.35" y="-205.25" font-family="Helvetica,sans-Serif" font-size="10.00">/Emulator/Components/C64.h</text>
</a>
</g>
</g>
<!-- Node1&#45;&gt;Node2 -->
<g id="edge1_Node000001_Node000002" class="edge">
<title>Node1&#45;&gt;Node2</title>
<g id="a_edge1_Node000001_Node000002"><a xlink:title=" ">
<path fill="none" stroke="#63b8ff" d="M427.71,-355.43C285.92,-350.67 36.86,-338.07 9.35,-307.75 -3.12,-294.01 -3.12,-279.74 9.35,-266 38.52,-233.86 316.64,-221.63 452.02,-217.55"/>
<polygon fill="#63b8ff" stroke="#63b8ff" points="427.36,-358.92 437.47,-355.75 427.59,-351.92 427.36,-358.92"/>
</a>
</g>
</g>
<!-- Node6 -->
<g id="Node000006" class="node">
<title>Node6</title>
<g id="a_Node000006"><a xlink:href="_c_i_a_8h_source.html" target="_top" xlink:title=" ">
<polygon fill="white" stroke="#666666" points="183.98,-302.12 18.73,-302.12 18.73,-271.62 183.98,-271.62 183.98,-302.12"/>
<text text-anchor="start" x="26.73" y="-288.62" font-family="Helvetica,sans-Serif" font-size="10.00">/Users/hoff/Retro/virtualc64</text>
<text text-anchor="middle" x="101.35" y="-277.38" font-family="Helvetica,sans-Serif" font-size="10.00">/Emulator/Components/CIA/CIA.h</text>
</a>
</g>
</g>
<!-- Node1&#45;&gt;Node6 -->
<g id="edge5_Node000001_Node000006" class="edge">
<title>Node1&#45;&gt;Node6</title>
<g id="a_edge5_Node000001_Node000006"><a xlink:title=" ">
<path fill="none" stroke="#63b8ff" d="M427.85,-344.88C361.56,-335.56 271.94,-322.17 193.35,-307.75 184.83,-306.19 175.9,-304.42 167.09,-302.6"/>
<polygon fill="#63b8ff" stroke="#63b8ff" points="427.23,-348.33 437.62,-346.25 428.2,-341.39 427.23,-348.33"/>
</a>
</g>
</g>
<!-- Node7 -->
<g id="Node000007" class="node">
<title>Node7</title>
<g id="a_Node000007"><a xlink:href="_rom_file_8h_source.html" target="_top" xlink:title=" ">
<polygon fill="white" stroke="#666666" points="338.73,-302.12 201.98,-302.12 201.98,-271.62 338.73,-271.62 338.73,-302.12"/>
<text text-anchor="start" x="209.98" y="-288.62" font-family="Helvetica,sans-Serif" font-size="10.00">/Users/hoff/Retro/virtualc64</text>
<text text-anchor="middle" x="270.35" y="-277.38" font-family="Helvetica,sans-Serif" font-size="10.00">/Emulator/Media/RomFile.h</text>
</a>
</g>
</g>
<!-- Node1&#45;&gt;Node7 -->
<g id="edge7_Node000001_Node000007" class="edge">
<title>Node1&#45;&gt;Node7</title>
<g id="a_edge7_Node000001_Node000007"><a xlink:title=" ">
<path fill="none" stroke="#63b8ff" d="M460.85,-340.26C418.46,-328.61 363.67,-313.54 323.74,-302.56"/>
<polygon fill="#63b8ff" stroke="#63b8ff" points="459.87,-343.62 470.44,-342.9 461.72,-336.87 459.87,-343.62"/>
</a>
</g>
</g>
<!-- Node8 -->
<g id="Node000008" class="node">
<title>Node8</title>
<g id="a_Node000008"><a xlink:href="_regression_tester_8h_source.html" target="_top" xlink:title=" ">
<polygon fill="white" stroke="#666666" points="518.1,-307.75 356.6,-307.75 356.6,-266 518.1,-266 518.1,-307.75"/>
<text text-anchor="start" x="364.6" y="-294.25" font-family="Helvetica,sans-Serif" font-size="10.00">/Users/hoff/Retro/virtualc64</text>
<text text-anchor="start" x="364.6" y="-283" font-family="Helvetica,sans-Serif" font-size="10.00">/Emulator/Misc/RegressionTester</text>
<text text-anchor="middle" x="437.35" y="-271.75" font-family="Helvetica,sans-Serif" font-size="10.00">/RegressionTester.h</text>
</a>
</g>
</g>
<!-- Node1&#45;&gt;Node8 -->
<g id="edge9_Node000001_Node000008" class="edge">
<title>Node1&#45;&gt;Node8</title>
<g id="a_edge9_Node000001_Node000008"><a xlink:title=" ">
<path fill="none" stroke="#63b8ff" d="M498.16,-336.33C486.92,-327.38 473.96,-317.05 462.9,-308.24"/>
<polygon fill="#63b8ff" stroke="#63b8ff" points="495.93,-339.03 505.93,-342.53 500.29,-333.56 495.93,-339.03"/>
</a>
</g>
</g>
<!-- Node9 -->
<g id="Node000009" class="node">
<title>Node9</title>
<g id="a_Node000009"><a xlink:href="_datasette_8h_source.html" target="_top" xlink:title=" ">
<polygon fill="white" stroke="#666666" points="692.1,-307.75 536.6,-307.75 536.6,-266 692.1,-266 692.1,-307.75"/>
<text text-anchor="start" x="544.6" y="-294.25" font-family="Helvetica,sans-Serif" font-size="10.00">/Users/hoff/Retro/virtualc64</text>
<text text-anchor="start" x="544.6" y="-283" font-family="Helvetica,sans-Serif" font-size="10.00">/Emulator/Peripherals/Datasette</text>
<text text-anchor="middle" x="614.35" y="-271.75" font-family="Helvetica,sans-Serif" font-size="10.00">/Datasette.h</text>
</a>
</g>
</g>
<!-- Node1&#45;&gt;Node9 -->
<g id="edge11_Node000001_Node000009" class="edge">
<title>Node1&#45;&gt;Node9</title>
<g id="a_edge11_Node000001_Node000009"><a xlink:title=" ">
<path fill="none" stroke="#63b8ff" d="M552.51,-336.6C563.95,-327.58 577.21,-317.14 588.51,-308.24"/>
<polygon fill="#63b8ff" stroke="#63b8ff" points="550.67,-333.6 544.98,-342.53 555,-339.09 550.67,-333.6"/>
</a>
</g>
</g>
<!-- Node10 -->
<g id="Node000010" class="node">
<title>Node10</title>
<g id="a_Node000010"><a xlink:href="_drive_8h_source.html" target="_top" xlink:title=" ">
<polygon fill="white" stroke="#666666" points="846.73,-307.75 709.98,-307.75 709.98,-266 846.73,-266 846.73,-307.75"/>
<text text-anchor="start" x="717.98" y="-294.25" font-family="Helvetica,sans-Serif" font-size="10.00">/Users/hoff/Retro/virtualc64</text>
<text text-anchor="start" x="717.98" y="-283" font-family="Helvetica,sans-Serif" font-size="10.00">/Emulator/Peripherals/Drive</text>
<text text-anchor="middle" x="778.35" y="-271.75" font-family="Helvetica,sans-Serif" font-size="10.00">/Drive.h</text>
</a>
</g>
</g>
<!-- Node1&#45;&gt;Node10 -->
<g id="edge13_Node000001_Node000010" class="edge">
<title>Node1&#45;&gt;Node10</title>
<g id="a_edge13_Node000001_Node000010"><a xlink:title=" ">
<path fill="none" stroke="#63b8ff" d="M589.45,-340.23C626.1,-330.07 672.09,-317.33 709.51,-306.96"/>
<polygon fill="#63b8ff" stroke="#63b8ff" points="588.55,-336.85 579.85,-342.9 590.42,-343.6 588.55,-336.85"/>
</a>
</g>
</g>
<!-- Node11 -->
<g id="Node000011" class="node">
<title>Node11</title>
<g id="a_Node000011"><a xlink:href="_keyboard_8h_source.html" target="_top" xlink:title=" ">
<polygon fill="white" stroke="#666666" points="1018.35,-307.75 864.35,-307.75 864.35,-266 1018.35,-266 1018.35,-307.75"/>
<text text-anchor="start" x="872.35" y="-294.25" font-family="Helvetica,sans-Serif" font-size="10.00">/Users/hoff/Retro/virtualc64</text>
<text text-anchor="start" x="872.35" y="-283" font-family="Helvetica,sans-Serif" font-size="10.00">/Emulator/Peripherals/Keyboard</text>
<text text-anchor="middle" x="941.35" y="-271.75" font-family="Helvetica,sans-Serif" font-size="10.00">/Keyboard.h</text>
</a>
</g>
</g>
<!-- Node1&#45;&gt;Node11 -->
<g id="edge15_Node000001_Node000011" class="edge">
<title>Node1&#45;&gt;Node11</title>
<g id="a_edge15_Node000001_Node000011"><a xlink:title=" ">
<path fill="none" stroke="#63b8ff" d="M623.01,-345.11C688.87,-335.94 777.6,-322.63 855.35,-307.75 858.21,-307.2 861.12,-306.63 864.06,-306.03"/>
<polygon fill="#63b8ff" stroke="#63b8ff" points="622.74,-341.62 613.32,-346.46 623.7,-348.55 622.74,-341.62"/>
</a>
</g>
</g>
<!-- Node12 -->
<g id="Node000012" class="node">
<title>Node12</title>
<g id="a_Node000012"><a xlink:href="_virtual_c64_types_8h.html" target="_top" xlink:title=" ">
<polygon fill="white" stroke="#666666" points="936.98,-230 795.73,-230 795.73,-199.5 936.98,-199.5 936.98,-230"/>
<text text-anchor="start" x="803.73" y="-216.5" font-family="Helvetica,sans-Serif" font-size="10.00">/Users/hoff/Retro/virtualc64</text>
<text text-anchor="middle" x="866.35" y="-205.25" font-family="Helvetica,sans-Serif" font-size="10.00">/Emulator/VirtualC64Types.h</text>
</a>
</g>
</g>
<!-- Node1&#45;&gt;Node12 -->
<g id="edge17_Node000001_Node000012" class="edge">
<title>Node1&#45;&gt;Node12</title>
<g id="a_edge17_Node000001_Node000012"><a xlink:title=" ">
<path fill="none" stroke="#63b8ff" d="M623.27,-355.13C761.7,-350.04 1000.81,-337.08 1027.35,-307.75 1039.8,-293.99 1038.35,-280.95 1027.35,-266 1006.62,-237.81 970.16,-224.99 937.18,-219.33"/>
<polygon fill="#63b8ff" stroke="#63b8ff" points="623.23,-351.63 613.36,-355.48 623.48,-358.62 623.23,-351.63"/>
</a>
</g>
</g>
<!-- Node3 -->
<g id="Node000003" class="node">
<title>Node3</title>
<g id="a_Node000003"><a xlink:href="_emulator_8h_source.html" target="_top" xlink:title=" ">
<polygon fill="white" stroke="#666666" points="633.35,-163.5 467.35,-163.5 467.35,-133 633.35,-133 633.35,-163.5"/>
<text text-anchor="start" x="475.35" y="-150" font-family="Helvetica,sans-Serif" font-size="10.00">/Users/hoff/Retro/virtualc64</text>
<text text-anchor="middle" x="550.35" y="-138.75" font-family="Helvetica,sans-Serif" font-size="10.00">/Emulator/Components/Emulator.h</text>
</a>
</g>
</g>
<!-- Node2&#45;&gt;Node3 -->
<g id="edge2_Node000002_Node000003" class="edge">
<title>Node2&#45;&gt;Node3</title>
<g id="a_edge2_Node000002_Node000003"><a xlink:title=" ">
<path fill="none" stroke="#63b8ff" d="M535.08,-188.66C538.34,-180.25 541.86,-171.16 544.7,-163.83"/>
<polygon fill="#63b8ff" stroke="#63b8ff" points="531.92,-187.11 531.57,-197.7 538.45,-189.64 531.92,-187.11"/>
</a>
</g>
</g>
<!-- Node4 -->
<g id="Node000004" class="node">
<title>Node4</title>
<g id="a_Node000004"><a xlink:href="_virtual_c64_8h.html" target="_top" xlink:title=" ">
<polygon fill="white" stroke="#666666" points="673.73,-97 536.98,-97 536.98,-66.5 673.73,-66.5 673.73,-97"/>
<text text-anchor="start" x="544.98" y="-83.5" font-family="Helvetica,sans-Serif" font-size="10.00">/Users/hoff/Retro/virtualc64</text>
<text text-anchor="middle" x="605.35" y="-72.25" font-family="Helvetica,sans-Serif" font-size="10.00">/Emulator/VirtualC64.h</text>
</a>
</g>
</g>
<!-- Node3&#45;&gt;Node4 -->
<g id="edge3_Node000003_Node000004" class="edge">
<title>Node3&#45;&gt;Node4</title>
<g id="a_edge3_Node000003_Node000004"><a xlink:title=" ">
<path fill="none" stroke="#63b8ff" d="M570.07,-124.13C577.69,-115.19 586.18,-105.24 592.92,-97.33"/>
<polygon fill="#63b8ff" stroke="#63b8ff" points="567.64,-121.58 563.81,-131.46 572.97,-126.12 567.64,-121.58"/>
</a>
</g>
</g>
<!-- Node5 -->
<g id="Node000005" class="node">
<title>Node5</title>
<g id="a_Node000005"><a xlink:href="_headless_8h_source.html" target="_top" xlink:title=" ">
<polygon fill="white" stroke="#666666" points="673.73,-30.5 536.98,-30.5 536.98,0 673.73,0 673.73,-30.5"/>
<text text-anchor="start" x="544.98" y="-17" font-family="Helvetica,sans-Serif" font-size="10.00">/Users/hoff/Retro/virtualc64</text>
<text text-anchor="middle" x="605.35" y="-5.75" font-family="Helvetica,sans-Serif" font-size="10.00">/Emulator/Headless.h</text>
</a>
</g>
</g>
<!-- Node4&#45;&gt;Node5 -->
<g id="edge4_Node000004_Node000005" class="edge">
<title>Node4&#45;&gt;Node5</title>
<g id="a_edge4_Node000004_Node000005"><a xlink:title=" ">
<path fill="none" stroke="#63b8ff" d="M605.35,-54.81C605.35,-46.64 605.35,-37.91 605.35,-30.83"/>
<polygon fill="#63b8ff" stroke="#63b8ff" points="601.85,-54.6 605.35,-64.6 608.85,-54.6 601.85,-54.6"/>
</a>
</g>
</g>
<!-- Node6&#45;&gt;Node2 -->
<g id="edge6_Node000006_Node000002" class="edge">
<title>Node6&#45;&gt;Node2</title>
<g id="a_edge6_Node000006_Node000002"><a xlink:title=" ">
<path fill="none" stroke="#63b8ff" d="M178.26,-268.89C183.36,-267.88 188.43,-266.9 193.35,-266 282.08,-249.72 384.86,-234.76 452.27,-225.47"/>
<polygon fill="#63b8ff" stroke="#63b8ff" points="177.67,-265.44 168.57,-270.85 179.06,-272.3 177.67,-265.44"/>
</a>
</g>
</g>
<!-- Node7&#45;&gt;Node2 -->
<g id="edge8_Node000007_Node000002" class="edge">
<title>Node7&#45;&gt;Node2</title>
<g id="a_edge8_Node000007_Node000002"><a xlink:title=" ">
<path fill="none" stroke="#63b8ff" d="M334.85,-268.14C377.24,-256.48 432.03,-241.41 471.97,-230.43"/>
<polygon fill="#63b8ff" stroke="#63b8ff" points="333.98,-264.75 325.27,-270.77 335.84,-271.5 333.98,-264.75"/>
</a>
</g>
</g>
<!-- Node8&#45;&gt;Node2 -->
<g id="edge10_Node000008_Node000002" class="edge">
<title>Node8&#45;&gt;Node2</title>
<g id="a_edge10_Node000008_Node000002"><a xlink:title=" ">
<path fill="none" stroke="#63b8ff" d="M471.73,-258.48C483.73,-248.92 496.74,-238.55 506.94,-230.42"/>
<polygon fill="#63b8ff" stroke="#63b8ff" points="469.63,-255.68 463.99,-264.65 473.99,-261.15 469.63,-255.68"/>
</a>
</g>
</g>
<!-- Node9&#45;&gt;Node2 -->
<g id="edge12_Node000009_Node000002" class="edge">
<title>Node9&#45;&gt;Node2</title>
<g id="a_edge12_Node000009_Node000002"><a xlink:title=" ">
<path fill="none" stroke="#63b8ff" d="M579.59,-258.48C567.44,-248.92 554.28,-238.55 543.97,-230.42"/>
<polygon fill="#63b8ff" stroke="#63b8ff" points="577.4,-261.22 587.42,-264.66 581.73,-255.72 577.4,-261.22"/>
</a>
</g>
</g>
<!-- Node10&#45;&gt;Node2 -->
<g id="edge14_Node000010_Node000002" class="edge">
<title>Node10&#45;&gt;Node2</title>
<g id="a_edge14_Node000010_Node000002"><a xlink:title=" ">
<path fill="none" stroke="#63b8ff" d="M698.7,-263.8C659.51,-252.93 613.33,-240.13 578.49,-230.48"/>
<polygon fill="#63b8ff" stroke="#63b8ff" points="697.52,-267.1 708.09,-266.4 699.39,-260.36 697.52,-267.1"/>
</a>
</g>
</g>
<!-- Node11&#45;&gt;Node2 -->
<g id="edge16_Node000011_Node000002" class="edge">
<title>Node11&#45;&gt;Node2</title>
<g id="a_edge16_Node000011_Node000002"><a xlink:title=" ">
<path fill="none" stroke="#63b8ff" d="M853.01,-265.62C759.85,-248.08 663.2,-234.05 598.7,-225.29"/>
<polygon fill="#63b8ff" stroke="#63b8ff" points="852.09,-269.01 862.57,-267.44 853.4,-262.13 852.09,-269.01"/>
</a>
</g>
</g>
<!-- Node12&#45;&gt;Node4 -->
<g id="edge18_Node000012_Node000004" class="edge">
<title>Node12&#45;&gt;Node4</title>
<g id="a_edge18_Node000012_Node000004"><a xlink:title=" ">
<path fill="none" stroke="#63b8ff" d="M827.16,-194.08C774.29,-167.54 681.36,-120.9 634.34,-97.3"/>
<polygon fill="#63b8ff" stroke="#63b8ff" points="825.31,-197.07 835.82,-198.42 828.45,-190.81 825.31,-197.07"/>
</a>
</g>
</g>
</g>
</svg>
