<?xml version="1.0" encoding="UTF-8" standalone="no"?>
<!DOCTYPE svg PUBLIC "-//W3C//DTD SVG 1.1//EN"
 "http://www.w3.org/Graphics/SVG/1.1/DTD/svg11.dtd">
<!-- Generated by graphviz version 10.0.1 (20240210.2158)
 -->
<!-- Title: /Users/hoff/Retro/virtualc64/Emulator/Components/C64Types.h Pages: 1 -->
<svg width="1124pt" height="449pt"
 viewBox="0.00 0.00 1123.99 448.75" xmlns="http://www.w3.org/2000/svg" xmlns:xlink="http://www.w3.org/1999/xlink">
<g id="graph0" class="graph" transform="scale(1 1) rotate(0) translate(4 444.75)">
<title>/Users/hoff/Retro/virtualc64/Emulator/Components/C64Types.h</title>
<!-- Node1 -->
<g id="Node000001" class="node">
<title>Node1</title>
<g id="a_Node000001"><a xlink:title=" ">
<polygon fill="#999999" stroke="#666666" points="627.37,-440.75 455.37,-440.75 455.37,-410.25 627.37,-410.25 627.37,-440.75"/>
<text text-anchor="start" x="463.37" y="-427.25" font-family="Helvetica,sans-Serif" font-size="10.00">/Users/hoff/Retro/virtualc64</text>
<text text-anchor="middle" x="541.37" y="-416" font-family="Helvetica,sans-Serif" font-size="10.00">/Emulator/Components/C64Types.h</text>
</a>
</g>
</g>
<!-- Node2 -->
<g id="Node000002" class="node">
<title>Node2</title>
<g id="a_Node000002"><a xlink:href="_c64_8h_source.html" target="_top" xlink:title=" ">
<polygon fill="white" stroke="#666666" points="614.24,-296.5 468.49,-296.5 468.49,-266 614.24,-266 614.24,-296.5"/>
<text text-anchor="start" x="476.49" y="-283" font-family="Helvetica,sans-Serif" font-size="10.00">/Users/hoff/Retro/virtualc64</text>
<text text-anchor="middle" x="541.37" y="-271.75" font-family="Helvetica,sans-Serif" font-size="10.00">/Emulator/Components/C64.h</text>
</a>
</g>
</g>
<!-- Node1&#45;&gt;Node2 -->
<g id="edge1_Node000001_Node000002" class="edge">
<title>Node1&#45;&gt;Node2</title>
<g id="a_edge1_Node000001_Node000002"><a xlink:title=" ">
<path fill="none" stroke="#63b8ff" d="M443.77,-422.25C298.15,-417.86 37.97,-405.68 9.37,-374.25 -3.12,-360.53 -3.12,-346.22 9.37,-332.5 39.65,-299.22 329.55,-287.52 468.2,-283.81"/>
<polygon fill="#63b8ff" stroke="#63b8ff" points="443.3,-425.73 453.4,-422.53 443.51,-418.74 443.3,-425.73"/>
</a>
</g>
</g>
<!-- Node7 -->
<g id="Node000007" class="node">
<title>Node7</title>
<g id="a_Node000007"><a xlink:href="_c_i_a_8h_source.html" target="_top" xlink:title=" ">
<polygon fill="white" stroke="#666666" points="183.99,-368.62 18.74,-368.62 18.74,-338.12 183.99,-338.12 183.99,-368.62"/>
<text text-anchor="start" x="26.74" y="-355.12" font-family="Helvetica,sans-Serif" font-size="10.00">/Users/hoff/Retro/virtualc64</text>
<text text-anchor="middle" x="101.37" y="-343.88" font-family="Helvetica,sans-Serif" font-size="10.00">/Emulator/Components/CIA/CIA.h</text>
</a>
</g>
</g>
<!-- Node1&#45;&gt;Node7 -->
<g id="edge6_Node000001_Node000007" class="edge">
<title>Node1&#45;&gt;Node7</title>
<g id="a_edge6_Node000001_Node000007"><a xlink:title=" ">
<path fill="none" stroke="#63b8ff" d="M444.01,-412.39C373.84,-403.2 276.99,-389.56 192.37,-374.25 183.77,-372.7 174.76,-370.91 165.88,-369.07"/>
<polygon fill="#63b8ff" stroke="#63b8ff" points="443.16,-415.81 453.53,-413.63 444.07,-408.87 443.16,-415.81"/>
</a>
</g>
</g>
<!-- Node8 -->
<g id="Node000008" class="node">
<title>Node8</title>
<g id="a_Node000008"><a xlink:href="_rom_file_8h_source.html" target="_top" xlink:title=" ">
<polygon fill="white" stroke="#666666" points="1017.74,-368.62 880.99,-368.62 880.99,-338.12 1017.74,-338.12 1017.74,-368.62"/>
<text text-anchor="start" x="888.99" y="-355.12" font-family="Helvetica,sans-Serif" font-size="10.00">/Users/hoff/Retro/virtualc64</text>
<text text-anchor="middle" x="949.37" y="-343.88" font-family="Helvetica,sans-Serif" font-size="10.00">/Emulator/Media/RomFile.h</text>
</a>
</g>
</g>
<!-- Node1&#45;&gt;Node8 -->
<g id="edge8_Node000001_Node000008" class="edge">
<title>Node1&#45;&gt;Node8</title>
<g id="a_edge8_Node000001_Node000008"><a xlink:title=" ">
<path fill="none" stroke="#63b8ff" d="M639.11,-412.33C705.26,-403.44 794.44,-390.18 872.37,-374.25 879.81,-372.73 887.6,-370.94 895.26,-369.08"/>
<polygon fill="#63b8ff" stroke="#63b8ff" points="638.82,-408.83 629.37,-413.62 639.74,-415.77 638.82,-408.83"/>
</a>
</g>
</g>
<!-- Node10 -->
<g id="Node000010" class="node">
<title>Node10</title>
<g id="a_Node000010"><a xlink:href="_regression_tester_8h_source.html" target="_top" xlink:title=" ">
<polygon fill="white" stroke="#666666" points="363.12,-374.25 201.62,-374.25 201.62,-332.5 363.12,-332.5 363.12,-374.25"/>
<text text-anchor="start" x="209.62" y="-360.75" font-family="Helvetica,sans-Serif" font-size="10.00">/Users/hoff/Retro/virtualc64</text>
<text text-anchor="start" x="209.62" y="-349.5" font-family="Helvetica,sans-Serif" font-size="10.00">/Emulator/Misc/RegressionTester</text>
<text text-anchor="middle" x="282.37" y="-338.25" font-family="Helvetica,sans-Serif" font-size="10.00">/RegressionTester.h</text>
</a>
</g>
</g>
<!-- Node1&#45;&gt;Node10 -->
<g id="edge12_Node000001_Node000010" class="edge">
<title>Node1&#45;&gt;Node10</title>
<g id="a_edge12_Node000001_Node000010"><a xlink:title=" ">
<path fill="none" stroke="#63b8ff" d="M476.15,-406.84C439.97,-397.05 394.83,-384.82 357.22,-374.64"/>
<polygon fill="#63b8ff" stroke="#63b8ff" points="475.04,-410.17 485.61,-409.4 476.87,-403.41 475.04,-410.17"/>
</a>
</g>
</g>
<!-- Node11 -->
<g id="Node000011" class="node">
<title>Node11</title>
<g id="a_Node000011"><a xlink:href="_datasette_8h_source.html" target="_top" xlink:title=" ">
<polygon fill="white" stroke="#666666" points="537.12,-374.25 381.62,-374.25 381.62,-332.5 537.12,-332.5 537.12,-374.25"/>
<text text-anchor="start" x="389.62" y="-360.75" font-family="Helvetica,sans-Serif" font-size="10.00">/Users/hoff/Retro/virtualc64</text>
<text text-anchor="start" x="389.62" y="-349.5" font-family="Helvetica,sans-Serif" font-size="10.00">/Emulator/Peripherals/Datasette</text>
<text text-anchor="middle" x="459.37" y="-338.25" font-family="Helvetica,sans-Serif" font-size="10.00">/Datasette.h</text>
</a>
</g>
</g>
<!-- Node1&#45;&gt;Node11 -->
<g id="edge14_Node000001_Node000011" class="edge">
<title>Node1&#45;&gt;Node11</title>
<g id="a_edge14_Node000001_Node000011"><a xlink:title=" ">
<path fill="none" stroke="#63b8ff" d="M515.72,-402.56C505.32,-393.67 493.38,-383.46 483.18,-374.74"/>
<polygon fill="#63b8ff" stroke="#63b8ff" points="513.35,-405.15 523.23,-408.99 517.9,-399.83 513.35,-405.15"/>
</a>
</g>
</g>
<!-- Node12 -->
<g id="Node000012" class="node">
<title>Node12</title>
<g id="a_Node000012"><a xlink:href="_drive_8h_source.html" target="_top" xlink:title=" ">
<polygon fill="white" stroke="#666666" points="691.74,-374.25 554.99,-374.25 554.99,-332.5 691.74,-332.5 691.74,-374.25"/>
<text text-anchor="start" x="562.99" y="-360.75" font-family="Helvetica,sans-Serif" font-size="10.00">/Users/hoff/Retro/virtualc64</text>
<text text-anchor="start" x="562.99" y="-349.5" font-family="Helvetica,sans-Serif" font-size="10.00">/Emulator/Peripherals/Drive</text>
<text text-anchor="middle" x="623.37" y="-338.25" font-family="Helvetica,sans-Serif" font-size="10.00">/Drive.h</text>
</a>
</g>
</g>
<!-- Node1&#45;&gt;Node12 -->
<g id="edge16_Node000001_Node000012" class="edge">
<title>Node1&#45;&gt;Node12</title>
<g id="a_edge16_Node000001_Node000012"><a xlink:title=" ">
<path fill="none" stroke="#63b8ff" d="M567.02,-402.56C577.42,-393.67 589.35,-383.46 599.56,-374.74"/>
<polygon fill="#63b8ff" stroke="#63b8ff" points="564.83,-399.83 559.51,-408.99 569.38,-405.15 564.83,-399.83"/>
</a>
</g>
</g>
<!-- Node13 -->
<g id="Node000013" class="node">
<title>Node13</title>
<g id="a_Node000013"><a xlink:href="_keyboard_8h_source.html" target="_top" xlink:title=" ">
<polygon fill="white" stroke="#666666" points="863.37,-374.25 709.37,-374.25 709.37,-332.5 863.37,-332.5 863.37,-374.25"/>
<text text-anchor="start" x="717.37" y="-360.75" font-family="Helvetica,sans-Serif" font-size="10.00">/Users/hoff/Retro/virtualc64</text>
<text text-anchor="start" x="717.37" y="-349.5" font-family="Helvetica,sans-Serif" font-size="10.00">/Emulator/Peripherals/Keyboard</text>
<text text-anchor="middle" x="786.37" y="-338.25" font-family="Helvetica,sans-Serif" font-size="10.00">/Keyboard.h</text>
</a>
</g>
</g>
<!-- Node1&#45;&gt;Node13 -->
<g id="edge18_Node000001_Node000013" class="edge">
<title>Node1&#45;&gt;Node13</title>
<g id="a_edge18_Node000001_Node000013"><a xlink:title=" ">
<path fill="none" stroke="#63b8ff" d="M603.5,-406.72C637.65,-396.94 680.14,-384.78 715.56,-374.64"/>
<polygon fill="#63b8ff" stroke="#63b8ff" points="602.83,-403.27 594.18,-409.38 604.76,-410 602.83,-403.27"/>
</a>
</g>
</g>
<!-- Node14 -->
<g id="Node000014" class="node">
<title>Node14</title>
<g id="a_Node000014"><a xlink:href="_virtual_c64_types_8h.html" target="_top" xlink:title=" ">
<polygon fill="white" stroke="#666666" points="1115.99,-230 974.74,-230 974.74,-199.5 1115.99,-199.5 1115.99,-230"/>
<text text-anchor="start" x="982.74" y="-216.5" font-family="Helvetica,sans-Serif" font-size="10.00">/Users/hoff/Retro/virtualc64</text>
<text text-anchor="middle" x="1045.37" y="-205.25" font-family="Helvetica,sans-Serif" font-size="10.00">/Emulator/VirtualC64Types.h</text>
</a>
</g>
</g>
<!-- Node1&#45;&gt;Node14 -->
<g id="edge20_Node000001_Node000014" class="edge">
<title>Node1&#45;&gt;Node14</title>
<g id="a_edge20_Node000001_Node000014"><a xlink:title=" ">
<path fill="none" stroke="#63b8ff" d="M639.2,-420.81C772.92,-414.81 999.36,-400.83 1026.37,-374.25 1065.68,-335.57 1055.35,-261.25 1048.81,-230.07"/>
<polygon fill="#63b8ff" stroke="#63b8ff" points="639.1,-417.31 629.27,-421.25 639.41,-424.31 639.1,-417.31"/>
</a>
</g>
</g>
<!-- Node3 -->
<g id="Node000003" class="node">
<title>Node3</title>
<g id="a_Node000003"><a xlink:href="_emulator_8h_source.html" target="_top" xlink:title=" ">
<polygon fill="white" stroke="#666666" points="812.37,-230 646.37,-230 646.37,-199.5 812.37,-199.5 812.37,-230"/>
<text text-anchor="start" x="654.37" y="-216.5" font-family="Helvetica,sans-Serif" font-size="10.00">/Users/hoff/Retro/virtualc64</text>
<text text-anchor="middle" x="729.37" y="-205.25" font-family="Helvetica,sans-Serif" font-size="10.00">/Emulator/Components/Emulator.h</text>
</a>
</g>
</g>
<!-- Node2&#45;&gt;Node3 -->
<g id="edge2_Node000002_Node000003" class="edge">
<title>Node2&#45;&gt;Node3</title>
<g id="a_edge2_Node000002_Node000003"><a xlink:title=" ">
<path fill="none" stroke="#63b8ff" d="M594.82,-261.91C623.88,-251.94 659.33,-239.78 686.55,-230.44"/>
<polygon fill="#63b8ff" stroke="#63b8ff" points="593.78,-258.57 585.46,-265.12 596.05,-265.19 593.78,-258.57"/>
</a>
</g>
</g>
<!-- Node4 -->
<g id="Node000004" class="node">
<title>Node4</title>
<g id="a_Node000004"><a xlink:href="_virtual_c64_8h.html" target="_top" xlink:title=" ">
<polygon fill="white" stroke="#666666" points="1014.74,-163.5 877.99,-163.5 877.99,-133 1014.74,-133 1014.74,-163.5"/>
<text text-anchor="start" x="885.99" y="-150" font-family="Helvetica,sans-Serif" font-size="10.00">/Users/hoff/Retro/virtualc64</text>
<text text-anchor="middle" x="946.37" y="-138.75" font-family="Helvetica,sans-Serif" font-size="10.00">/Emulator/VirtualC64.h</text>
</a>
</g>
</g>
<!-- Node3&#45;&gt;Node4 -->
<g id="edge3_Node000003_Node000004" class="edge">
<title>Node3&#45;&gt;Node4</title>
<g id="a_edge3_Node000003_Node000004"><a xlink:title=" ">
<path fill="none" stroke="#63b8ff" d="M789.57,-195.85C823.43,-185.79 865.17,-173.39 897.07,-163.9"/>
<polygon fill="#63b8ff" stroke="#63b8ff" points="788.92,-192.4 780.33,-198.6 790.91,-199.11 788.92,-192.4"/>
</a>
</g>
</g>
<!-- Node5 -->
<g id="Node000005" class="node">
<title>Node5</title>
<g id="a_Node000005"><a xlink:href="_headless_8h_source.html" target="_top" xlink:title=" ">
<polygon fill="white" stroke="#666666" points="1014.74,-97 877.99,-97 877.99,-66.5 1014.74,-66.5 1014.74,-97"/>
<text text-anchor="start" x="885.99" y="-83.5" font-family="Helvetica,sans-Serif" font-size="10.00">/Users/hoff/Retro/virtualc64</text>
<text text-anchor="middle" x="946.37" y="-72.25" font-family="Helvetica,sans-Serif" font-size="10.00">/Emulator/Headless.h</text>
</a>
</g>
</g>
<!-- Node4&#45;&gt;Node5 -->
<g id="edge4_Node000004_Node000005" class="edge">
<title>Node4&#45;&gt;Node5</title>
<g id="a_edge4_Node000004_Node000005"><a xlink:title=" ">
<path fill="none" stroke="#63b8ff" d="M946.37,-121.31C946.37,-113.14 946.37,-104.41 946.37,-97.33"/>
<polygon fill="#63b8ff" stroke="#63b8ff" points="942.87,-121.1 946.37,-131.1 949.87,-121.1 942.87,-121.1"/>
</a>
</g>
</g>
<!-- Node6 -->
<g id="Node000006" class="node">
<title>Node6</title>
<g id="a_Node000006"><a xlink:href="_headless_8cpp.html" target="_top" xlink:title=" ">
<polygon fill="white" stroke="#666666" points="1014.74,-30.5 877.99,-30.5 877.99,0 1014.74,0 1014.74,-30.5"/>
<text text-anchor="start" x="885.99" y="-17" font-family="Helvetica,sans-Serif" font-size="10.00">/Users/hoff/Retro/virtualc64</text>
<text text-anchor="middle" x="946.37" y="-5.75" font-family="Helvetica,sans-Serif" font-size="10.00">/Emulator/Headless.cpp</text>
</a>
</g>
</g>
<!-- Node5&#45;&gt;Node6 -->
<g id="edge5_Node000005_Node000006" class="edge">
<title>Node5&#45;&gt;Node6</title>
<g id="a_edge5_Node000005_Node000006"><a xlink:title=" ">
<path fill="none" stroke="#63b8ff" d="M946.37,-54.81C946.37,-46.64 946.37,-37.91 946.37,-30.83"/>
<polygon fill="#63b8ff" stroke="#63b8ff" points="942.87,-54.6 946.37,-64.6 949.87,-54.6 942.87,-54.6"/>
</a>
</g>
</g>
<!-- Node7&#45;&gt;Node2 -->
<g id="edge7_Node000007_Node000002" class="edge">
<title>Node7&#45;&gt;Node2</title>
<g id="a_edge7_Node000007_Node000002"><a xlink:title=" ">
<path fill="none" stroke="#63b8ff" d="M177.15,-335.39C182.29,-334.37 187.4,-333.4 192.37,-332.5 287.24,-315.33 397.48,-300.27 468.26,-291.22"/>
<polygon fill="#63b8ff" stroke="#63b8ff" points="176.46,-331.96 167.36,-337.38 177.86,-338.82 176.46,-331.96"/>
</a>
</g>
</g>
<!-- Node8&#45;&gt;Node2 -->
<g id="edge9_Node000008_Node000002" class="edge">
<title>Node8&#45;&gt;Node2</title>
<g id="a_edge9_Node000008_Node000002"><a xlink:title=" ">
<path fill="none" stroke="#63b8ff" d="M884.09,-335.04C880.13,-334.14 876.2,-333.28 872.37,-332.5 784.38,-314.52 682.04,-299.94 614.71,-291.2"/>
<polygon fill="#63b8ff" stroke="#63b8ff" points="883.25,-338.44 893.79,-337.32 884.86,-331.62 883.25,-338.44"/>
</a>
</g>
</g>
<!-- Node9 -->
<g id="Node000009" class="node">
<title>Node9</title>
<g id="a_Node000009"><a xlink:href="_media_8h_source.html" target="_top" xlink:title=" ">
<polygon fill="white" stroke="#666666" points="1016.74,-296.5 879.99,-296.5 879.99,-266 1016.74,-266 1016.74,-296.5"/>
<text text-anchor="start" x="887.99" y="-283" font-family="Helvetica,sans-Serif" font-size="10.00">/Users/hoff/Retro/virtualc64</text>
<text text-anchor="middle" x="948.37" y="-271.75" font-family="Helvetica,sans-Serif" font-size="10.00">/Emulator/Media/Media.h</text>
</a>
</g>
</g>
<!-- Node8&#45;&gt;Node9 -->
<g id="edge10_Node000008_Node000009" class="edge">
<title>Node8&#45;&gt;Node9</title>
<g id="a_edge10_Node000008_Node000009"><a xlink:title=" ">
<path fill="none" stroke="#63b8ff" d="M949,-326.4C948.85,-316.39 948.7,-305.31 948.57,-296.76"/>
<polygon fill="#63b8ff" stroke="#63b8ff" points="945.5,-326.38 949.14,-336.33 952.49,-326.28 945.5,-326.38"/>
</a>
</g>
</g>
<!-- Node9&#45;&gt;Node4 -->
<g id="edge11_Node000009_Node000004" class="edge">
<title>Node9&#45;&gt;Node4</title>
<g id="a_edge11_Node000009_Node000004"><a xlink:title=" ">
<path fill="none" stroke="#63b8ff" d="M947.97,-254.43C947.56,-227.34 946.92,-185.71 946.59,-163.83"/>
<polygon fill="#63b8ff" stroke="#63b8ff" points="944.47,-254.27 948.12,-264.22 951.47,-254.16 944.47,-254.27"/>
</a>
</g>
</g>
<!-- Node10&#45;&gt;Node2 -->
<g id="edge13_Node000010_Node000002" class="edge">
<title>Node10&#45;&gt;Node2</title>
<g id="a_edge13_Node000010_Node000002"><a xlink:title=" ">
<path fill="none" stroke="#63b8ff" d="M368.18,-329.14C407.43,-318.51 452.75,-306.24 487.18,-296.92"/>
<polygon fill="#63b8ff" stroke="#63b8ff" points="367.48,-325.7 358.74,-331.7 369.31,-332.46 367.48,-325.7"/>
</a>
</g>
</g>
<!-- Node11&#45;&gt;Node2 -->
<g id="edge15_Node000011_Node000002" class="edge">
<title>Node11&#45;&gt;Node2</title>
<g id="a_edge15_Node000011_Node000002"><a xlink:title=" ">
<path fill="none" stroke="#63b8ff" d="M491.73,-324.7C502.82,-315.21 514.8,-304.97 524.21,-296.92"/>
<polygon fill="#63b8ff" stroke="#63b8ff" points="489.56,-321.95 484.23,-331.11 494.11,-327.27 489.56,-321.95"/>
</a>
</g>
</g>
<!-- Node12&#45;&gt;Node2 -->
<g id="edge17_Node000012_Node000002" class="edge">
<title>Node12&#45;&gt;Node2</title>
<g id="a_edge17_Node000012_Node000002"><a xlink:title=" ">
<path fill="none" stroke="#63b8ff" d="M591.01,-324.7C579.91,-315.21 567.93,-304.97 558.52,-296.92"/>
<polygon fill="#63b8ff" stroke="#63b8ff" points="588.62,-327.27 598.5,-331.11 593.17,-321.95 588.62,-327.27"/>
</a>
</g>
</g>
<!-- Node13&#45;&gt;Node2 -->
<g id="edge19_Node000013_Node000002" class="edge">
<title>Node13&#45;&gt;Node2</title>
<g id="a_edge19_Node000013_Node000002"><a xlink:title=" ">
<path fill="none" stroke="#63b8ff" d="M704.72,-329.01C667.7,-318.41 625.05,-306.2 592.62,-296.92"/>
<polygon fill="#63b8ff" stroke="#63b8ff" points="703.47,-332.29 714.05,-331.68 705.4,-325.56 703.47,-332.29"/>
</a>
</g>
</g>
<!-- Node14&#45;&gt;Node4 -->
<g id="edge21_Node000014_Node000004" class="edge">
<title>Node14&#45;&gt;Node4</title>
<g id="a_edge21_Node000014_Node000004"><a xlink:title=" ">
<path fill="none" stroke="#63b8ff" d="M1013.27,-192.84C998.73,-183.37 981.89,-172.39 968.74,-163.83"/>
<polygon fill="#63b8ff" stroke="#63b8ff" points="1011.34,-195.76 1021.63,-198.29 1015.17,-189.9 1011.34,-195.76"/>
</a>
</g>
</g>
</g>
</svg>
