<?xml version="1.0" encoding="UTF-8" standalone="no"?>
<!DOCTYPE svg PUBLIC "-//W3C//DTD SVG 1.1//EN"
 "http://www.w3.org/Graphics/SVG/1.1/DTD/svg11.dtd">
<!-- Generated by graphviz version 10.0.1 (20240210.2158)
 -->
<!-- Title: /Users/hoff/Retro/virtualc64/Emulator/Components/CIA/CIATypes.h Pages: 1 -->
<svg width="331pt" height="271pt"
 viewBox="0.00 0.00 331.38 270.75" xmlns="http://www.w3.org/2000/svg" xmlns:xlink="http://www.w3.org/1999/xlink">
<g id="graph0" class="graph" transform="scale(1 1) rotate(0) translate(4 266.75)">
<title>/Users/hoff/Retro/virtualc64/Emulator/Components/CIA/CIATypes.h</title>
<!-- Node1 -->
<g id="Node000001" class="node">
<title>Node1</title>
<g id="a_Node000001"><a xlink:title=" ">
<polygon fill="#999999" stroke="#666666" points="184.88,-262.75 48.12,-262.75 48.12,-221 184.88,-221 184.88,-262.75"/>
<text text-anchor="start" x="56.12" y="-249.25" font-family="Helvetica,sans-Serif" font-size="10.00">/Users/hoff/Retro/virtualc64</text>
<text text-anchor="start" x="56.12" y="-238" font-family="Helvetica,sans-Serif" font-size="10.00">/Emulator/Components/CIA</text>
<text text-anchor="middle" x="116.5" y="-226.75" font-family="Helvetica,sans-Serif" font-size="10.00">/CIATypes.h</text>
</a>
</g>
</g>
<!-- Node2 -->
<g id="Node000002" class="node">
<title>Node2</title>
<g id="a_Node000002"><a xlink:href="_reflection_8h_source.html" target="_top" xlink:title=" ">
<polygon fill="white" stroke="#666666" points="124.75,-129.75 56.25,-129.75 56.25,-110.5 124.75,-110.5 124.75,-129.75"/>
<text text-anchor="middle" x="90.5" y="-116.25" font-family="Helvetica,sans-Serif" font-size="10.00">Reflection.h</text>
</a>
</g>
</g>
<!-- Node1&#45;&gt;Node2 -->
<g id="edge1_Node000001_Node000002" class="edge">
<title>Node1&#45;&gt;Node2</title>
<g id="a_edge1_Node000001_Node000002"><a xlink:title=" ">
<path fill="none" stroke="#63b8ff" d="M95.64,-220.57C87.01,-210.74 77.99,-198.21 73.5,-185 68.41,-170.04 73.71,-152.7 79.7,-139.86"/>
<polygon fill="#63b8ff" stroke="#63b8ff" points="82.67,-141.74 84.19,-131.26 76.46,-138.5 82.67,-141.74"/>
</a>
</g>
</g>
<!-- Node11 -->
<g id="Node000011" class="node">
<title>Node11</title>
<g id="a_Node000011"><a xlink:href="_c64_types_8h.html" target="_top" xlink:title=" ">
<polygon fill="white" stroke="#666666" points="150.75,-185 82.25,-185 82.25,-165.75 150.75,-165.75 150.75,-185"/>
<text text-anchor="middle" x="116.5" y="-171.5" font-family="Helvetica,sans-Serif" font-size="10.00">C64Types.h</text>
</a>
</g>
</g>
<!-- Node1&#45;&gt;Node11 -->
<g id="edge10_Node000001_Node000011" class="edge">
<title>Node1&#45;&gt;Node11</title>
<g id="a_edge10_Node000001_Node000011"><a xlink:title=" ">
<path fill="none" stroke="#63b8ff" d="M116.5,-220.82C116.5,-213.15 116.5,-204.39 116.5,-196.7"/>
<polygon fill="#63b8ff" stroke="#63b8ff" points="120,-196.96 116.5,-186.96 113,-196.96 120,-196.96"/>
</a>
</g>
</g>
<!-- Node12 -->
<g id="Node000012" class="node">
<title>Node12</title>
<g id="a_Node000012"><a xlink:href="_t_o_d_types_8h_source.html" target="_top" xlink:title=" ">
<polygon fill="white" stroke="#666666" points="214.25,-129.75 142.75,-129.75 142.75,-110.5 214.25,-110.5 214.25,-129.75"/>
<text text-anchor="middle" x="178.5" y="-116.25" font-family="Helvetica,sans-Serif" font-size="10.00">TODTypes.h</text>
</a>
</g>
</g>
<!-- Node1&#45;&gt;Node12 -->
<g id="edge12_Node000001_Node000012" class="edge">
<title>Node1&#45;&gt;Node12</title>
<g id="a_edge12_Node000001_Node000012"><a xlink:title=" ">
<path fill="none" stroke="#63b8ff" d="M135,-220.62C143.44,-210.52 152.98,-197.75 159.5,-185 166.6,-171.1 171.5,-154.12 174.54,-141.16"/>
<polygon fill="#63b8ff" stroke="#63b8ff" points="177.89,-142.19 176.58,-131.67 171.05,-140.71 177.89,-142.19"/>
</a>
</g>
</g>
<!-- Node3 -->
<g id="Node000003" class="node">
<title>Node3</title>
<g id="a_Node000003"><a xlink:href="_types_8h_source.html" target="_top" xlink:title=" ">
<polygon fill="white" stroke="#666666" points="196.75,-74.5 146.25,-74.5 146.25,-55.25 196.75,-55.25 196.75,-74.5"/>
<text text-anchor="middle" x="171.5" y="-61" font-family="Helvetica,sans-Serif" font-size="10.00">Types.h</text>
</a>
</g>
</g>
<!-- Node2&#45;&gt;Node3 -->
<g id="edge2_Node000002_Node000003" class="edge">
<title>Node2&#45;&gt;Node3</title>
<g id="a_edge2_Node000002_Node000003"><a xlink:title=" ">
<path fill="none" stroke="#63b8ff" d="M104.24,-110.09C116.23,-102.21 133.87,-90.61 148.08,-81.27"/>
<polygon fill="#63b8ff" stroke="#63b8ff" points="149.99,-84.2 156.43,-75.78 146.15,-78.35 149.99,-84.2"/>
</a>
</g>
</g>
<!-- Node9 -->
<g id="Node000009" class="node">
<title>Node9</title>
<g id="a_Node000009"><a xlink:title=" ">
<polygon fill="#e0e0e0" stroke="#999999" points="62.5,-74.5 4.5,-74.5 4.5,-55.25 62.5,-55.25 62.5,-74.5"/>
<text text-anchor="middle" x="33.5" y="-61" font-family="Helvetica,sans-Serif" font-size="10.00">functional</text>
</a>
</g>
</g>
<!-- Node2&#45;&gt;Node9 -->
<g id="edge8_Node000002_Node000009" class="edge">
<title>Node2&#45;&gt;Node9</title>
<g id="a_edge8_Node000002_Node000009"><a xlink:title=" ">
<path fill="none" stroke="#63b8ff" d="M80.83,-110.09C72.76,-102.55 61.03,-91.6 51.28,-82.48"/>
<polygon fill="#63b8ff" stroke="#63b8ff" points="53.83,-80.08 44.13,-75.81 49.05,-85.19 53.83,-80.08"/>
</a>
</g>
</g>
<!-- Node10 -->
<g id="Node000010" class="node">
<title>Node10</title>
<g id="a_Node000010"><a xlink:title=" ">
<polygon fill="#e0e0e0" stroke="#999999" points="114.88,-74.5 80.12,-74.5 80.12,-55.25 114.88,-55.25 114.88,-74.5"/>
<text text-anchor="middle" x="97.5" y="-61" font-family="Helvetica,sans-Serif" font-size="10.00">map</text>
</a>
</g>
</g>
<!-- Node2&#45;&gt;Node10 -->
<g id="edge9_Node000002_Node000010" class="edge">
<title>Node2&#45;&gt;Node10</title>
<g id="a_edge9_Node000002_Node000010"><a xlink:title=" ">
<path fill="none" stroke="#63b8ff" d="M91.66,-110.33C92.52,-103.74 93.74,-94.46 94.84,-86.07"/>
<polygon fill="#63b8ff" stroke="#63b8ff" points="98.29,-86.73 96.12,-76.36 91.35,-85.82 98.29,-86.73"/>
</a>
</g>
</g>
<!-- Node4 -->
<g id="Node000004" class="node">
<title>Node4</title>
<g id="a_Node000004"><a xlink:title=" ">
<polygon fill="#e0e0e0" stroke="#999999" points="67,-19.25 0,-19.25 0,0 67,0 67,-19.25"/>
<text text-anchor="middle" x="33.5" y="-5.75" font-family="Helvetica,sans-Serif" font-size="10.00">sys/types.h</text>
</a>
</g>
</g>
<!-- Node3&#45;&gt;Node4 -->
<g id="edge3_Node000003_Node000004" class="edge">
<title>Node3&#45;&gt;Node4</title>
<g id="a_edge3_Node000003_Node000004"><a xlink:title=" ">
<path fill="none" stroke="#63b8ff" d="M148.09,-54.84C125.98,-46.31 92.58,-33.42 67.53,-23.76"/>
<polygon fill="#63b8ff" stroke="#63b8ff" points="69.03,-20.58 58.44,-20.25 66.51,-27.11 69.03,-20.58"/>
</a>
</g>
</g>
<!-- Node5 -->
<g id="Node000005" class="node">
<title>Node5</title>
<g id="a_Node000005"><a xlink:title=" ">
<polygon fill="#e0e0e0" stroke="#999999" points="133.62,-19.25 85.38,-19.25 85.38,0 133.62,0 133.62,-19.25"/>
<text text-anchor="middle" x="109.5" y="-5.75" font-family="Helvetica,sans-Serif" font-size="10.00">stdint.h</text>
</a>
</g>
</g>
<!-- Node3&#45;&gt;Node5 -->
<g id="edge4_Node000003_Node000005" class="edge">
<title>Node3&#45;&gt;Node5</title>
<g id="a_edge4_Node000003_Node000005"><a xlink:title=" ">
<path fill="none" stroke="#63b8ff" d="M160.98,-54.84C152.11,-47.22 139.19,-36.12 128.51,-26.95"/>
<polygon fill="#63b8ff" stroke="#63b8ff" points="130.88,-24.37 121.01,-20.51 126.32,-29.68 130.88,-24.37"/>
</a>
</g>
</g>
<!-- Node6 -->
<g id="Node000006" class="node">
<title>Node6</title>
<g id="a_Node000006"><a xlink:title=" ">
<polygon fill="#e0e0e0" stroke="#999999" points="191.5,-19.25 151.5,-19.25 151.5,0 191.5,0 191.5,-19.25"/>
<text text-anchor="middle" x="171.5" y="-5.75" font-family="Helvetica,sans-Serif" font-size="10.00">string</text>
</a>
</g>
</g>
<!-- Node3&#45;&gt;Node6 -->
<g id="edge5_Node000003_Node000006" class="edge">
<title>Node3&#45;&gt;Node6</title>
<g id="a_edge5_Node000003_Node000006"><a xlink:title=" ">
<path fill="none" stroke="#63b8ff" d="M171.5,-55.08C171.5,-48.57 171.5,-39.42 171.5,-31.12"/>
<polygon fill="#63b8ff" stroke="#63b8ff" points="175,-31.12 171.5,-21.12 168,-31.12 175,-31.12"/>
</a>
</g>
</g>
<!-- Node7 -->
<g id="Node000007" class="node">
<title>Node7</title>
<g id="a_Node000007"><a xlink:title=" ">
<polygon fill="#e0e0e0" stroke="#999999" points="255.12,-19.25 209.88,-19.25 209.88,0 255.12,0 255.12,-19.25"/>
<text text-anchor="middle" x="232.5" y="-5.75" font-family="Helvetica,sans-Serif" font-size="10.00">cstring</text>
</a>
</g>
</g>
<!-- Node3&#45;&gt;Node7 -->
<g id="edge6_Node000003_Node000007" class="edge">
<title>Node3&#45;&gt;Node7</title>
<g id="a_edge6_Node000003_Node000007"><a xlink:title=" ">
<path fill="none" stroke="#63b8ff" d="M181.85,-54.84C190.58,-47.22 203.29,-36.12 213.8,-26.95"/>
<polygon fill="#63b8ff" stroke="#63b8ff" points="215.93,-29.73 221.16,-20.52 211.33,-24.46 215.93,-29.73"/>
</a>
</g>
</g>
<!-- Node8 -->
<g id="Node000008" class="node">
<title>Node8</title>
<g id="a_Node000008"><a xlink:title=" ">
<polygon fill="#e0e0e0" stroke="#999999" points="323.38,-19.25 273.62,-19.25 273.62,0 323.38,0 323.38,-19.25"/>
<text text-anchor="middle" x="298.5" y="-5.75" font-family="Helvetica,sans-Serif" font-size="10.00">optional</text>
</a>
</g>
</g>
<!-- Node3&#45;&gt;Node8 -->
<g id="edge7_Node000003_Node000008" class="edge">
<title>Node3&#45;&gt;Node8</title>
<g id="a_edge7_Node000003_Node000008"><a xlink:title=" ">
<path fill="none" stroke="#63b8ff" d="M193.04,-54.84C213.11,-46.43 243.3,-33.77 266.25,-24.15"/>
<polygon fill="#63b8ff" stroke="#63b8ff" points="267.59,-27.38 275.45,-20.29 264.88,-20.93 267.59,-27.38"/>
</a>
</g>
</g>
<!-- Node11&#45;&gt;Node2 -->
<g id="edge11_Node000011_Node000002" class="edge">
<title>Node11&#45;&gt;Node2</title>
<g id="a_edge11_Node000011_Node000002"><a xlink:title=" ">
<path fill="none" stroke="#63b8ff" d="M112.21,-165.58C108.88,-158.76 104.14,-149.06 99.94,-140.45"/>
<polygon fill="#63b8ff" stroke="#63b8ff" points="103.08,-138.92 95.55,-131.47 96.79,-141.99 103.08,-138.92"/>
</a>
</g>
</g>
<!-- Node12&#45;&gt;Node3 -->
<g id="edge13_Node000012_Node000003" class="edge">
<title>Node12&#45;&gt;Node3</title>
<g id="a_edge13_Node000012_Node000003"><a xlink:title=" ">
<path fill="none" stroke="#63b8ff" d="M177.34,-110.33C176.48,-103.74 175.26,-94.46 174.16,-86.07"/>
<polygon fill="#63b8ff" stroke="#63b8ff" points="177.65,-85.82 172.88,-76.36 170.71,-86.73 177.65,-85.82"/>
</a>
</g>
</g>
</g>
</svg>
