<?xml version="1.0" encoding="UTF-8" standalone="no"?>
<!DOCTYPE svg PUBLIC "-//W3C//DTD SVG 1.1//EN"
 "http://www.w3.org/Graphics/SVG/1.1/DTD/svg11.dtd">
<!-- Generated by graphviz version 10.0.1 (20240210.2158)
 -->
<!-- Title: /Users/hoff/Retro/virtualc64/Emulator/Components/CIA/CIATypes.h Pages: 1 -->
<svg width="333pt" height="316pt"
 viewBox="0.00 0.00 332.62 315.75" xmlns="http://www.w3.org/2000/svg" xmlns:xlink="http://www.w3.org/1999/xlink">
<g id="graph0" class="graph" transform="scale(1 1) rotate(0) translate(4 311.75)">
<title>/Users/hoff/Retro/virtualc64/Emulator/Components/CIA/CIATypes.h</title>
<!-- Node1 -->
<g id="Node000001" class="node">
<title>Node1</title>
<g id="a_Node000001"><a xlink:title=" ">
<polygon fill="#999999" stroke="#666666" points="236.38,-307.75 99.62,-307.75 99.62,-266 236.38,-266 236.38,-307.75"/>
<text text-anchor="start" x="107.62" y="-294.25" font-family="Helvetica,sans-Serif" font-size="10.00">/Users/hoff/Retro/virtualc64</text>
<text text-anchor="start" x="107.62" y="-283" font-family="Helvetica,sans-Serif" font-size="10.00">/Emulator/Components/CIA</text>
<text text-anchor="middle" x="168" y="-271.75" font-family="Helvetica,sans-Serif" font-size="10.00">/CIATypes.h</text>
</a>
</g>
</g>
<!-- Node2 -->
<g id="Node000002" class="node">
<title>Node2</title>
<g id="a_Node000002"><a xlink:href="_c_i_a_8h_source.html" target="_top" xlink:title=" ">
<polygon fill="white" stroke="#666666" points="165.62,-230 0.38,-230 0.38,-199.5 165.62,-199.5 165.62,-230"/>
<text text-anchor="start" x="8.38" y="-216.5" font-family="Helvetica,sans-Serif" font-size="10.00">/Users/hoff/Retro/virtualc64</text>
<text text-anchor="middle" x="83" y="-205.25" font-family="Helvetica,sans-Serif" font-size="10.00">/Emulator/Components/CIA/CIA.h</text>
</a>
</g>
</g>
<!-- Node1&#45;&gt;Node2 -->
<g id="edge1_Node000001_Node000002" class="edge">
<title>Node1&#45;&gt;Node2</title>
<g id="a_edge1_Node000001_Node000002"><a xlink:title=" ">
<path fill="none" stroke="#63b8ff" d="M134.8,-258.48C123.2,-248.92 110.63,-238.55 100.78,-230.42"/>
<polygon fill="#63b8ff" stroke="#63b8ff" points="132.31,-260.96 142.25,-264.63 136.76,-255.57 132.31,-260.96"/>
</a>
</g>
</g>
<!-- Node5 -->
<g id="Node000005" class="node">
<title>Node5</title>
<g id="a_Node000005"><a xlink:href="_virtual_c64_types_8h.html" target="_top" xlink:title=" ">
<polygon fill="white" stroke="#666666" points="324.62,-230 183.38,-230 183.38,-199.5 324.62,-199.5 324.62,-230"/>
<text text-anchor="start" x="191.38" y="-216.5" font-family="Helvetica,sans-Serif" font-size="10.00">/Users/hoff/Retro/virtualc64</text>
<text text-anchor="middle" x="254" y="-205.25" font-family="Helvetica,sans-Serif" font-size="10.00">/Emulator/VirtualC64Types.h</text>
</a>
</g>
</g>
<!-- Node1&#45;&gt;Node5 -->
<g id="edge4_Node000001_Node000005" class="edge">
<title>Node1&#45;&gt;Node5</title>
<g id="a_edge4_Node000001_Node000005"><a xlink:title=" ">
<path fill="none" stroke="#63b8ff" d="M201.59,-258.48C213.33,-248.92 226.04,-238.55 236.01,-230.42"/>
<polygon fill="#63b8ff" stroke="#63b8ff" points="199.59,-255.6 194.05,-264.64 204.01,-261.03 199.59,-255.6"/>
</a>
</g>
</g>
<!-- Node3 -->
<g id="Node000003" class="node">
<title>Node3</title>
<g id="a_Node000003"><a xlink:href="_c64_8h_source.html" target="_top" xlink:title=" ">
<polygon fill="white" stroke="#666666" points="155.88,-163.5 10.12,-163.5 10.12,-133 155.88,-133 155.88,-163.5"/>
<text text-anchor="start" x="18.12" y="-150" font-family="Helvetica,sans-Serif" font-size="10.00">/Users/hoff/Retro/virtualc64</text>
<text text-anchor="middle" x="83" y="-138.75" font-family="Helvetica,sans-Serif" font-size="10.00">/Emulator/Components/C64.h</text>
</a>
</g>
</g>
<!-- Node2&#45;&gt;Node3 -->
<g id="edge2_Node000002_Node000003" class="edge">
<title>Node2&#45;&gt;Node3</title>
<g id="a_edge2_Node000002_Node000003"><a xlink:title=" ">
<path fill="none" stroke="#63b8ff" d="M83,-187.81C83,-179.64 83,-170.91 83,-163.83"/>
<polygon fill="#63b8ff" stroke="#63b8ff" points="79.5,-187.6 83,-197.6 86.5,-187.6 79.5,-187.6"/>
</a>
</g>
</g>
<!-- Node4 -->
<g id="Node000004" class="node">
<title>Node4</title>
<g id="a_Node000004"><a xlink:href="_emulator_8h_source.html" target="_top" xlink:title=" ">
<polygon fill="white" stroke="#666666" points="166,-97 0,-97 0,-66.5 166,-66.5 166,-97"/>
<text text-anchor="start" x="8" y="-83.5" font-family="Helvetica,sans-Serif" font-size="10.00">/Users/hoff/Retro/virtualc64</text>
<text text-anchor="middle" x="83" y="-72.25" font-family="Helvetica,sans-Serif" font-size="10.00">/Emulator/Components/Emulator.h</text>
</a>
</g>
</g>
<!-- Node3&#45;&gt;Node4 -->
<g id="edge3_Node000003_Node000004" class="edge">
<title>Node3&#45;&gt;Node4</title>
<g id="a_edge3_Node000003_Node000004"><a xlink:title=" ">
<path fill="none" stroke="#63b8ff" d="M83,-121.31C83,-113.14 83,-104.41 83,-97.33"/>
<polygon fill="#63b8ff" stroke="#63b8ff" points="79.5,-121.1 83,-131.1 86.5,-121.1 79.5,-121.1"/>
</a>
</g>
</g>
<!-- Node6 -->
<g id="Node000006" class="node">
<title>Node6</title>
<g id="a_Node000006"><a xlink:href="_virtual_c64_8h.html" target="_top" xlink:title=" ">
<polygon fill="white" stroke="#666666" points="322.38,-163.5 185.62,-163.5 185.62,-133 322.38,-133 322.38,-163.5"/>
<text text-anchor="start" x="193.62" y="-150" font-family="Helvetica,sans-Serif" font-size="10.00">/Users/hoff/Retro/virtualc64</text>
<text text-anchor="middle" x="254" y="-138.75" font-family="Helvetica,sans-Serif" font-size="10.00">/Emulator/VirtualC64.h</text>
</a>
</g>
</g>
<!-- Node5&#45;&gt;Node6 -->
<g id="edge5_Node000005_Node000006" class="edge">
<title>Node5&#45;&gt;Node6</title>
<g id="a_edge5_Node000005_Node000006"><a xlink:title=" ">
<path fill="none" stroke="#63b8ff" d="M254,-187.81C254,-179.64 254,-170.91 254,-163.83"/>
<polygon fill="#63b8ff" stroke="#63b8ff" points="250.5,-187.6 254,-197.6 257.5,-187.6 250.5,-187.6"/>
</a>
</g>
</g>
<!-- Node7 -->
<g id="Node000007" class="node">
<title>Node7</title>
<g id="a_Node000007"><a xlink:href="_headless_8h_source.html" target="_top" xlink:title=" ">
<polygon fill="white" stroke="#666666" points="322.38,-97 185.62,-97 185.62,-66.5 322.38,-66.5 322.38,-97"/>
<text text-anchor="start" x="193.62" y="-83.5" font-family="Helvetica,sans-Serif" font-size="10.00">/Users/hoff/Retro/virtualc64</text>
<text text-anchor="middle" x="254" y="-72.25" font-family="Helvetica,sans-Serif" font-size="10.00">/Emulator/Headless.h</text>
</a>
</g>
</g>
<!-- Node6&#45;&gt;Node7 -->
<g id="edge6_Node000006_Node000007" class="edge">
<title>Node6&#45;&gt;Node7</title>
<g id="a_edge6_Node000006_Node000007"><a xlink:title=" ">
<path fill="none" stroke="#63b8ff" d="M254,-121.31C254,-113.14 254,-104.41 254,-97.33"/>
<polygon fill="#63b8ff" stroke="#63b8ff" points="250.5,-121.1 254,-131.1 257.5,-121.1 250.5,-121.1"/>
</a>
</g>
</g>
<!-- Node8 -->
<g id="Node000008" class="node">
<title>Node8</title>
<g id="a_Node000008"><a xlink:href="_headless_8cpp.html" target="_top" xlink:title=" ">
<polygon fill="white" stroke="#666666" points="322.38,-30.5 185.62,-30.5 185.62,0 322.38,0 322.38,-30.5"/>
<text text-anchor="start" x="193.62" y="-17" font-family="Helvetica,sans-Serif" font-size="10.00">/Users/hoff/Retro/virtualc64</text>
<text text-anchor="middle" x="254" y="-5.75" font-family="Helvetica,sans-Serif" font-size="10.00">/Emulator/Headless.cpp</text>
</a>
</g>
</g>
<!-- Node7&#45;&gt;Node8 -->
<g id="edge7_Node000007_Node000008" class="edge">
<title>Node7&#45;&gt;Node8</title>
<g id="a_edge7_Node000007_Node000008"><a xlink:title=" ">
<path fill="none" stroke="#63b8ff" d="M254,-54.81C254,-46.64 254,-37.91 254,-30.83"/>
<polygon fill="#63b8ff" stroke="#63b8ff" points="250.5,-54.6 254,-64.6 257.5,-54.6 250.5,-54.6"/>
</a>
</g>
</g>
</g>
</svg>
