<?xml version="1.0" encoding="UTF-8" standalone="no"?>
<!DOCTYPE svg PUBLIC "-//W3C//DTD SVG 1.1//EN"
 "http://www.w3.org/Graphics/SVG/1.1/DTD/svg11.dtd">
<!-- Generated by graphviz version 10.0.1 (20240210.2158)
 -->
<!-- Title: /Users/hoff/Retro/virtualc64/Emulator/Components/CPU/CPUInspector.h Pages: 1 -->
<svg width="329pt" height="437pt"
 viewBox="0.00 0.00 329.12 436.50" xmlns="http://www.w3.org/2000/svg" xmlns:xlink="http://www.w3.org/1999/xlink">
<g id="graph0" class="graph" transform="scale(1 1) rotate(0) translate(4 432.5)">
<title>/Users/hoff/Retro/virtualc64/Emulator/Components/CPU/CPUInspector.h</title>
<!-- Node1 -->
<g id="Node000001" class="node">
<title>Node1</title>
<g id="a_Node000001"><a xlink:title=" ">
<polygon fill="#999999" stroke="#666666" points="303.12,-428.5 161.88,-428.5 161.88,-386.75 303.12,-386.75 303.12,-428.5"/>
<text text-anchor="start" x="169.88" y="-415" font-family="Helvetica,sans-Serif" font-size="10.00">/Users/hoff/Retro/virtualc64</text>
<text text-anchor="start" x="169.88" y="-403.75" font-family="Helvetica,sans-Serif" font-size="10.00">/Emulator/Components/CPU</text>
<text text-anchor="middle" x="232.5" y="-392.5" font-family="Helvetica,sans-Serif" font-size="10.00">/CPUInspector.h</text>
</a>
</g>
</g>
<!-- Node1&#45;&gt;Node1 -->
<g id="edge1_Node000001_Node000001" class="edge">
<title>Node1&#45;&gt;Node1</title>
<g id="a_edge1_Node000001_Node000001"><a xlink:title=" ">
<path fill="none" stroke="#63b8ff" d="M303.43,-418.94C313.98,-417.18 321.12,-413.4 321.12,-407.62 321.12,-404.19 318.61,-401.47 314.35,-399.45"/>
<polygon fill="#63b8ff" stroke="#63b8ff" points="315.46,-396.13 304.88,-396.73 313.52,-402.86 315.46,-396.13"/>
</a>
</g>
</g>
<!-- Node2 -->
<g id="Node000002" class="node">
<title>Node2</title>
<g id="a_Node000002"><a xlink:href="_core_object_8h.html" target="_top" xlink:title=" ">
<polygon fill="white" stroke="#666666" points="269.38,-350.75 195.62,-350.75 195.62,-331.5 269.38,-331.5 269.38,-350.75"/>
<text text-anchor="middle" x="232.5" y="-337.25" font-family="Helvetica,sans-Serif" font-size="10.00">CoreObject.h</text>
</a>
</g>
</g>
<!-- Node1&#45;&gt;Node2 -->
<g id="edge2_Node000001_Node000002" class="edge">
<title>Node1&#45;&gt;Node2</title>
<g id="a_edge2_Node000001_Node000002"><a xlink:title=" ">
<path fill="none" stroke="#63b8ff" d="M232.5,-386.57C232.5,-378.9 232.5,-370.14 232.5,-362.45"/>
<polygon fill="#63b8ff" stroke="#63b8ff" points="236,-362.71 232.5,-352.71 229,-362.71 236,-362.71"/>
</a>
</g>
</g>
<!-- Node3 -->
<g id="Node000003" class="node">
<title>Node3</title>
<g id="a_Node000003"><a xlink:href="_error_8h.html" target="_top" xlink:title=" ">
<polygon fill="white" stroke="#666666" points="215.75,-295.5 171.25,-295.5 171.25,-276.25 215.75,-276.25 215.75,-295.5"/>
<text text-anchor="middle" x="193.5" y="-282" font-family="Helvetica,sans-Serif" font-size="10.00">Error.h</text>
</a>
</g>
</g>
<!-- Node2&#45;&gt;Node3 -->
<g id="edge3_Node000002_Node000003" class="edge">
<title>Node2&#45;&gt;Node3</title>
<g id="a_edge3_Node000002_Node000003"><a xlink:title=" ">
<path fill="none" stroke="#63b8ff" d="M226.06,-331.33C220.84,-324.21 213.31,-313.93 206.81,-305.05"/>
<polygon fill="#63b8ff" stroke="#63b8ff" points="209.71,-303.08 200.97,-297.08 204.06,-307.22 209.71,-303.08"/>
</a>
</g>
</g>
<!-- Node14 -->
<g id="Node000014" class="node">
<title>Node14</title>
<g id="a_Node000014"><a xlink:href="_inspectable_8h.html" target="_top" xlink:title=" ">
<polygon fill="white" stroke="#666666" points="308.75,-295.5 234.25,-295.5 234.25,-276.25 308.75,-276.25 308.75,-295.5"/>
<text text-anchor="middle" x="271.5" y="-282" font-family="Helvetica,sans-Serif" font-size="10.00">Inspectable.h</text>
</a>
</g>
</g>
<!-- Node2&#45;&gt;Node14 -->
<g id="edge15_Node000002_Node000014" class="edge">
<title>Node2&#45;&gt;Node14</title>
<g id="a_edge15_Node000002_Node000014"><a xlink:title=" ">
<path fill="none" stroke="#63b8ff" d="M238.94,-331.33C244.16,-324.21 251.69,-313.93 258.19,-305.05"/>
<polygon fill="#63b8ff" stroke="#63b8ff" points="260.94,-307.22 264.03,-297.08 255.29,-303.08 260.94,-307.22"/>
</a>
</g>
</g>
<!-- Node4 -->
<g id="Node000004" class="node">
<title>Node4</title>
<g id="a_Node000004"><a xlink:href="_error_types_8h.html" target="_top" xlink:title=" ">
<polygon fill="white" stroke="#666666" points="141.25,-240.25 69.75,-240.25 69.75,-221 141.25,-221 141.25,-240.25"/>
<text text-anchor="middle" x="105.5" y="-226.75" font-family="Helvetica,sans-Serif" font-size="10.00">ErrorTypes.h</text>
</a>
</g>
</g>
<!-- Node3&#45;&gt;Node4 -->
<g id="edge4_Node000003_Node000004" class="edge">
<title>Node3&#45;&gt;Node4</title>
<g id="a_edge4_Node000003_Node000004"><a xlink:title=" ">
<path fill="none" stroke="#63b8ff" d="M178.57,-275.84C165.3,-267.81 145.63,-255.91 130.05,-246.48"/>
<polygon fill="#63b8ff" stroke="#63b8ff" points="132.16,-243.67 121.8,-241.49 128.54,-249.66 132.16,-243.67"/>
</a>
</g>
</g>
<!-- Node12 -->
<g id="Node000012" class="node">
<title>Node12</title>
<g id="a_Node000012"><a xlink:href="_exception_8h.html" target="_top" xlink:title=" ">
<polygon fill="white" stroke="#666666" points="227.38,-240.25 159.62,-240.25 159.62,-221 227.38,-221 227.38,-240.25"/>
<text text-anchor="middle" x="193.5" y="-226.75" font-family="Helvetica,sans-Serif" font-size="10.00">Exception.h</text>
</a>
</g>
</g>
<!-- Node3&#45;&gt;Node12 -->
<g id="edge12_Node000003_Node000012" class="edge">
<title>Node3&#45;&gt;Node12</title>
<g id="a_edge12_Node000003_Node000012"><a xlink:title=" ">
<path fill="none" stroke="#63b8ff" d="M193.5,-276.08C193.5,-269.57 193.5,-260.42 193.5,-252.12"/>
<polygon fill="#63b8ff" stroke="#63b8ff" points="197,-252.12 193.5,-242.12 190,-252.12 197,-252.12"/>
</a>
</g>
</g>
<!-- Node5 -->
<g id="Node000005" class="node">
<title>Node5</title>
<g id="a_Node000005"><a xlink:href="_aliases_8h.html" target="_top" xlink:title=" ">
<polygon fill="white" stroke="#666666" points="65.75,-185 9.25,-185 9.25,-165.75 65.75,-165.75 65.75,-185"/>
<text text-anchor="middle" x="37.5" y="-171.5" font-family="Helvetica,sans-Serif" font-size="10.00">Aliases.h</text>
</a>
</g>
</g>
<!-- Node4&#45;&gt;Node5 -->
<g id="edge5_Node000004_Node000005" class="edge">
<title>Node4&#45;&gt;Node5</title>
<g id="a_edge5_Node000004_Node000005"><a xlink:title=" ">
<path fill="none" stroke="#63b8ff" d="M93.96,-220.59C84.04,-212.82 69.49,-201.42 57.64,-192.15"/>
<polygon fill="#63b8ff" stroke="#63b8ff" points="60.09,-189.62 50.06,-186.21 55.77,-195.13 60.09,-189.62"/>
</a>
</g>
</g>
<!-- Node11 -->
<g id="Node000011" class="node">
<title>Node11</title>
<g id="a_Node000011"><a xlink:href="_reflection_8h.html" target="_top" xlink:title=" ">
<polygon fill="white" stroke="#666666" points="152.75,-185 84.25,-185 84.25,-165.75 152.75,-165.75 152.75,-185"/>
<text text-anchor="middle" x="118.5" y="-171.5" font-family="Helvetica,sans-Serif" font-size="10.00">Reflection.h</text>
</a>
</g>
</g>
<!-- Node4&#45;&gt;Node11 -->
<g id="edge11_Node000004_Node000011" class="edge">
<title>Node4&#45;&gt;Node11</title>
<g id="a_edge11_Node000004_Node000011"><a xlink:title=" ">
<path fill="none" stroke="#63b8ff" d="M107.65,-220.83C109.27,-214.17 111.58,-204.74 113.64,-196.28"/>
<polygon fill="#63b8ff" stroke="#63b8ff" points="116.98,-197.37 115.95,-186.83 110.18,-195.71 116.98,-197.37"/>
</a>
</g>
</g>
<!-- Node6 -->
<g id="Node000006" class="node">
<title>Node6</title>
<g id="a_Node000006"><a xlink:href="_macros_8h.html" target="_top" xlink:title=" ">
<polygon fill="white" stroke="#666666" points="109.75,-129.75 53.25,-129.75 53.25,-110.5 109.75,-110.5 109.75,-129.75"/>
<text text-anchor="middle" x="81.5" y="-116.25" font-family="Helvetica,sans-Serif" font-size="10.00">Macros.h</text>
</a>
</g>
</g>
<!-- Node5&#45;&gt;Node6 -->
<g id="edge6_Node000005_Node000006" class="edge">
<title>Node5&#45;&gt;Node6</title>
<g id="a_edge6_Node000005_Node000006"><a xlink:title=" ">
<path fill="none" stroke="#63b8ff" d="M44.77,-165.58C50.78,-158.3 59.51,-147.73 66.96,-138.73"/>
<polygon fill="#63b8ff" stroke="#63b8ff" points="69.44,-141.21 73.11,-131.28 64.04,-136.76 69.44,-141.21"/>
</a>
</g>
</g>
<!-- Node7 -->
<g id="Node000007" class="node">
<title>Node7</title>
<g id="a_Node000007"><a xlink:href="_types_8h.html" target="_top" xlink:title=" ">
<polygon fill="white" stroke="#666666" points="134.75,-74.5 84.25,-74.5 84.25,-55.25 134.75,-55.25 134.75,-74.5"/>
<text text-anchor="middle" x="109.5" y="-61" font-family="Helvetica,sans-Serif" font-size="10.00">Types.h</text>
</a>
</g>
</g>
<!-- Node6&#45;&gt;Node7 -->
<g id="edge7_Node000006_Node000007" class="edge">
<title>Node6&#45;&gt;Node7</title>
<g id="a_edge7_Node000006_Node000007"><a xlink:title=" ">
<path fill="none" stroke="#63b8ff" d="M86.12,-110.33C89.75,-103.44 94.93,-93.59 99.49,-84.91"/>
<polygon fill="#63b8ff" stroke="#63b8ff" points="102.52,-86.68 104.07,-76.2 96.32,-83.42 102.52,-86.68"/>
</a>
</g>
</g>
<!-- Node8 -->
<g id="Node000008" class="node">
<title>Node8</title>
<g id="a_Node000008"><a xlink:title=" ">
<polygon fill="#e0e0e0" stroke="#999999" points="67,-19.25 0,-19.25 0,0 67,0 67,-19.25"/>
<text text-anchor="middle" x="33.5" y="-5.75" font-family="Helvetica,sans-Serif" font-size="10.00">sys/types.h</text>
</a>
</g>
</g>
<!-- Node7&#45;&gt;Node8 -->
<g id="edge8_Node000007_Node000008" class="edge">
<title>Node7&#45;&gt;Node8</title>
<g id="a_edge8_Node000007_Node000008"><a xlink:title=" ">
<path fill="none" stroke="#63b8ff" d="M96.61,-54.84C85.47,-47.04 69.13,-35.59 55.86,-26.29"/>
<polygon fill="#63b8ff" stroke="#63b8ff" points="57.89,-23.44 47.7,-20.57 53.88,-29.18 57.89,-23.44"/>
</a>
</g>
</g>
<!-- Node9 -->
<g id="Node000009" class="node">
<title>Node9</title>
<g id="a_Node000009"><a xlink:title=" ">
<polygon fill="#e0e0e0" stroke="#999999" points="133.62,-19.25 85.38,-19.25 85.38,0 133.62,0 133.62,-19.25"/>
<text text-anchor="middle" x="109.5" y="-5.75" font-family="Helvetica,sans-Serif" font-size="10.00">stdint.h</text>
</a>
</g>
</g>
<!-- Node7&#45;&gt;Node9 -->
<g id="edge9_Node000007_Node000009" class="edge">
<title>Node7&#45;&gt;Node9</title>
<g id="a_edge9_Node000007_Node000009"><a xlink:title=" ">
<path fill="none" stroke="#63b8ff" d="M109.5,-55.08C109.5,-48.57 109.5,-39.42 109.5,-31.12"/>
<polygon fill="#63b8ff" stroke="#63b8ff" points="113,-31.12 109.5,-21.12 106,-31.12 113,-31.12"/>
</a>
</g>
</g>
<!-- Node10 -->
<g id="Node000010" class="node">
<title>Node10</title>
<g id="a_Node000010"><a xlink:title=" ">
<polygon fill="#e0e0e0" stroke="#999999" points="207.38,-19.25 151.62,-19.25 151.62,0 207.38,0 207.38,-19.25"/>
<text text-anchor="middle" x="179.5" y="-5.75" font-family="Helvetica,sans-Serif" font-size="10.00">stdbool.h</text>
</a>
</g>
</g>
<!-- Node7&#45;&gt;Node10 -->
<g id="edge10_Node000007_Node000010" class="edge">
<title>Node7&#45;&gt;Node10</title>
<g id="a_edge10_Node000007_Node000010"><a xlink:title=" ">
<path fill="none" stroke="#63b8ff" d="M121.37,-54.84C131.59,-47.07 146.57,-35.67 158.76,-26.4"/>
<polygon fill="#63b8ff" stroke="#63b8ff" points="160.76,-29.28 166.6,-20.44 156.52,-23.71 160.76,-29.28"/>
</a>
</g>
</g>
<!-- Node12&#45;&gt;Node7 -->
<g id="edge13_Node000012_Node000007" class="edge">
<title>Node12&#45;&gt;Node7</title>
<g id="a_edge13_Node000012_Node000007"><a xlink:title=" ">
<path fill="none" stroke="#63b8ff" d="M188.99,-220.51C182.83,-208.09 171.43,-185.19 161.5,-165.75 147.09,-137.53 130.08,-105.01 119.54,-84.94"/>
<polygon fill="#63b8ff" stroke="#63b8ff" points="122.74,-83.5 114.98,-76.28 116.54,-86.76 122.74,-83.5"/>
</a>
</g>
</g>
<!-- Node13 -->
<g id="Node000013" class="node">
<title>Node13</title>
<g id="a_Node000013"><a xlink:title=" ">
<polygon fill="#e0e0e0" stroke="#999999" points="266.5,-185 208.5,-185 208.5,-165.75 266.5,-165.75 266.5,-185"/>
<text text-anchor="middle" x="237.5" y="-171.5" font-family="Helvetica,sans-Serif" font-size="10.00">exception</text>
</a>
</g>
</g>
<!-- Node12&#45;&gt;Node13 -->
<g id="edge14_Node000012_Node000013" class="edge">
<title>Node12&#45;&gt;Node13</title>
<g id="a_edge14_Node000012_Node000013"><a xlink:title=" ">
<path fill="none" stroke="#63b8ff" d="M200.77,-220.83C206.78,-213.55 215.51,-202.98 222.96,-193.98"/>
<polygon fill="#63b8ff" stroke="#63b8ff" points="225.44,-196.46 229.11,-186.53 220.04,-192.01 225.44,-196.46"/>
</a>
</g>
</g>
<!-- Node15 -->
<g id="Node000015" class="node">
<title>Node15</title>
<g id="a_Node000015"><a xlink:title=" ">
<polygon fill="#e0e0e0" stroke="#999999" points="299.25,-240.25 245.75,-240.25 245.75,-221 299.25,-221 299.25,-240.25"/>
<text text-anchor="middle" x="272.5" y="-226.75" font-family="Helvetica,sans-Serif" font-size="10.00">iostream</text>
</a>
</g>
</g>
<!-- Node14&#45;&gt;Node15 -->
<g id="edge16_Node000014_Node000015" class="edge">
<title>Node14&#45;&gt;Node15</title>
<g id="a_edge16_Node000014_Node000015"><a xlink:title=" ">
<path fill="none" stroke="#63b8ff" d="M271.67,-276.08C271.79,-269.57 271.96,-260.42 272.12,-252.12"/>
<polygon fill="#63b8ff" stroke="#63b8ff" points="275.61,-252.19 272.3,-242.12 268.62,-252.05 275.61,-252.19"/>
</a>
</g>
</g>
</g>
</svg>
