<?xml version="1.0" encoding="UTF-8" standalone="no"?>
<!DOCTYPE svg PUBLIC "-//W3C//DTD SVG 1.1//EN"
 "http://www.w3.org/Graphics/SVG/1.1/DTD/svg11.dtd">
<!-- Generated by graphviz version 10.0.1 (20240210.2158)
 -->
<!-- Title: /Users/hoff/Retro/virtualc64/Emulator/Media/CRTFile.h Pages: 1 -->
<svg width="567pt" height="536pt"
 viewBox="0.00 0.00 566.52 535.75" xmlns="http://www.w3.org/2000/svg" xmlns:xlink="http://www.w3.org/1999/xlink">
<g id="graph0" class="graph" transform="scale(1 1) rotate(0) translate(4 531.75)">
<title>/Users/hoff/Retro/virtualc64/Emulator/Media/CRTFile.h</title>
<!-- Node1 -->
<g id="Node000001" class="node">
<title>Node1</title>
<g id="a_Node000001"><a xlink:title=" ">
<polygon fill="#999999" stroke="#666666" points="188.5,-527.75 51.75,-527.75 51.75,-497.25 188.5,-497.25 188.5,-527.75"/>
<text text-anchor="start" x="59.75" y="-514.25" font-family="Helvetica,sans-Serif" font-size="10.00">/Users/hoff/Retro/virtualc64</text>
<text text-anchor="middle" x="120.12" y="-503" font-family="Helvetica,sans-Serif" font-size="10.00">/Emulator/Media/CRTFile.h</text>
</a>
</g>
</g>
<!-- Node2 -->
<g id="Node000002" class="node">
<title>Node2</title>
<g id="a_Node000002"><a xlink:href="_cartridge_types_8h.html" target="_top" xlink:title=" ">
<polygon fill="white" stroke="#666666" points="90.25,-240.25 0,-240.25 0,-221 90.25,-221 90.25,-240.25"/>
<text text-anchor="middle" x="45.12" y="-226.75" font-family="Helvetica,sans-Serif" font-size="10.00">CartridgeTypes.h</text>
</a>
</g>
</g>
<!-- Node1&#45;&gt;Node2 -->
<g id="edge1_Node000001_Node000002" class="edge">
<title>Node1&#45;&gt;Node2</title>
<g id="a_edge1_Node000001_Node000002"><a xlink:title=" ">
<path fill="none" stroke="#63b8ff" d="M109.92,-496.76C96.36,-475.72 74.12,-435.4 74.12,-397.38 74.12,-397.38 74.12,-397.38 74.12,-340.12 74.12,-308.19 62.26,-272.71 53.71,-251.29"/>
<polygon fill="#63b8ff" stroke="#63b8ff" points="56.95,-249.97 49.86,-242.09 50.49,-252.67 56.95,-249.97"/>
</a>
</g>
</g>
<!-- Node10 -->
<g id="Node000010" class="node">
<title>Node10</title>
<g id="a_Node000010"><a xlink:href="_any_file_8h.html" target="_top" xlink:title=" ">
<polygon fill="white" stroke="#666666" points="249.75,-461.25 192.5,-461.25 192.5,-442 249.75,-442 249.75,-461.25"/>
<text text-anchor="middle" x="221.12" y="-447.75" font-family="Helvetica,sans-Serif" font-size="10.00">AnyFile.h</text>
</a>
</g>
</g>
<!-- Node1&#45;&gt;Node10 -->
<g id="edge9_Node000001_Node000010" class="edge">
<title>Node1&#45;&gt;Node10</title>
<g id="a_edge9_Node000001_Node000010"><a xlink:title=" ">
<path fill="none" stroke="#63b8ff" d="M145.35,-496.8C160.73,-487.83 180.33,-476.41 195.74,-467.42"/>
<polygon fill="#63b8ff" stroke="#63b8ff" points="197.45,-470.48 204.33,-462.42 193.93,-464.43 197.45,-470.48"/>
</a>
</g>
</g>
<!-- Node3 -->
<g id="Node000003" class="node">
<title>Node3</title>
<g id="a_Node000003"><a xlink:href="_aliases_8h.html" target="_top" xlink:title=" ">
<polygon fill="white" stroke="#666666" points="169.38,-185 112.88,-185 112.88,-165.75 169.38,-165.75 169.38,-185"/>
<text text-anchor="middle" x="141.12" y="-171.5" font-family="Helvetica,sans-Serif" font-size="10.00">Aliases.h</text>
</a>
</g>
</g>
<!-- Node2&#45;&gt;Node3 -->
<g id="edge2_Node000002_Node000003" class="edge">
<title>Node2&#45;&gt;Node3</title>
<g id="a_edge2_Node000002_Node000003"><a xlink:title=" ">
<path fill="none" stroke="#63b8ff" d="M61.41,-220.59C76.03,-212.48 97.75,-200.43 114.83,-190.96"/>
<polygon fill="#63b8ff" stroke="#63b8ff" points="116.39,-194.1 123.44,-186.19 112.99,-187.98 116.39,-194.1"/>
</a>
</g>
</g>
<!-- Node9 -->
<g id="Node000009" class="node">
<title>Node9</title>
<g id="a_Node000009"><a xlink:href="_reflection_8h.html" target="_top" xlink:title=" ">
<polygon fill="white" stroke="#666666" points="256.38,-185 187.88,-185 187.88,-165.75 256.38,-165.75 256.38,-185"/>
<text text-anchor="middle" x="222.12" y="-171.5" font-family="Helvetica,sans-Serif" font-size="10.00">Reflection.h</text>
</a>
</g>
</g>
<!-- Node2&#45;&gt;Node9 -->
<g id="edge8_Node000002_Node000009" class="edge">
<title>Node2&#45;&gt;Node9</title>
<g id="a_edge8_Node000002_Node000009"><a xlink:title=" ">
<path fill="none" stroke="#63b8ff" d="M75.15,-220.59C104.27,-211.83 148.66,-198.48 181.04,-188.73"/>
<polygon fill="#63b8ff" stroke="#63b8ff" points="181.94,-192.12 190.5,-185.89 179.92,-185.42 181.94,-192.12"/>
</a>
</g>
</g>
<!-- Node4 -->
<g id="Node000004" class="node">
<title>Node4</title>
<g id="a_Node000004"><a xlink:href="_macros_8h.html" target="_top" xlink:title=" ">
<polygon fill="white" stroke="#666666" points="258.38,-129.75 201.88,-129.75 201.88,-110.5 258.38,-110.5 258.38,-129.75"/>
<text text-anchor="middle" x="230.12" y="-116.25" font-family="Helvetica,sans-Serif" font-size="10.00">Macros.h</text>
</a>
</g>
</g>
<!-- Node3&#45;&gt;Node4 -->
<g id="edge3_Node000003_Node000004" class="edge">
<title>Node3&#45;&gt;Node4</title>
<g id="a_edge3_Node000003_Node000004"><a xlink:title=" ">
<path fill="none" stroke="#63b8ff" d="M156.22,-165.34C169.65,-157.31 189.54,-145.41 205.3,-135.98"/>
<polygon fill="#63b8ff" stroke="#63b8ff" points="206.87,-139.12 213.65,-130.98 203.28,-133.11 206.87,-139.12"/>
</a>
</g>
</g>
<!-- Node5 -->
<g id="Node000005" class="node">
<title>Node5</title>
<g id="a_Node000005"><a xlink:href="_types_8h.html" target="_top" xlink:title=" ">
<polygon fill="white" stroke="#666666" points="418.38,-74.5 367.88,-74.5 367.88,-55.25 418.38,-55.25 418.38,-74.5"/>
<text text-anchor="middle" x="393.12" y="-61" font-family="Helvetica,sans-Serif" font-size="10.00">Types.h</text>
</a>
</g>
</g>
<!-- Node4&#45;&gt;Node5 -->
<g id="edge4_Node000004_Node000005" class="edge">
<title>Node4&#45;&gt;Node5</title>
<g id="a_edge4_Node000004_Node000005"><a xlink:title=" ">
<path fill="none" stroke="#63b8ff" d="M257.78,-110.09C285,-101.2 326.73,-87.57 356.65,-77.79"/>
<polygon fill="#63b8ff" stroke="#63b8ff" points="357.63,-81.15 366.05,-74.72 355.46,-74.5 357.63,-81.15"/>
</a>
</g>
</g>
<!-- Node6 -->
<g id="Node000006" class="node">
<title>Node6</title>
<g id="a_Node000006"><a xlink:title=" ">
<polygon fill="#e0e0e0" stroke="#999999" points="350.62,-19.25 283.62,-19.25 283.62,0 350.62,0 350.62,-19.25"/>
<text text-anchor="middle" x="317.12" y="-5.75" font-family="Helvetica,sans-Serif" font-size="10.00">sys/types.h</text>
</a>
</g>
</g>
<!-- Node5&#45;&gt;Node6 -->
<g id="edge5_Node000005_Node000006" class="edge">
<title>Node5&#45;&gt;Node6</title>
<g id="a_edge5_Node000005_Node000006"><a xlink:title=" ">
<path fill="none" stroke="#63b8ff" d="M380.23,-54.84C369.1,-47.04 352.75,-35.59 339.49,-26.29"/>
<polygon fill="#63b8ff" stroke="#63b8ff" points="341.52,-23.44 331.32,-20.57 337.5,-29.18 341.52,-23.44"/>
</a>
</g>
</g>
<!-- Node7 -->
<g id="Node000007" class="node">
<title>Node7</title>
<g id="a_Node000007"><a xlink:title=" ">
<polygon fill="#e0e0e0" stroke="#999999" points="417.25,-19.25 369,-19.25 369,0 417.25,0 417.25,-19.25"/>
<text text-anchor="middle" x="393.12" y="-5.75" font-family="Helvetica,sans-Serif" font-size="10.00">stdint.h</text>
</a>
</g>
</g>
<!-- Node5&#45;&gt;Node7 -->
<g id="edge6_Node000005_Node000007" class="edge">
<title>Node5&#45;&gt;Node7</title>
<g id="a_edge6_Node000005_Node000007"><a xlink:title=" ">
<path fill="none" stroke="#63b8ff" d="M393.12,-55.08C393.12,-48.57 393.12,-39.42 393.12,-31.12"/>
<polygon fill="#63b8ff" stroke="#63b8ff" points="396.63,-31.12 393.13,-21.12 389.63,-31.12 396.63,-31.12"/>
</a>
</g>
</g>
<!-- Node8 -->
<g id="Node000008" class="node">
<title>Node8</title>
<g id="a_Node000008"><a xlink:title=" ">
<polygon fill="#e0e0e0" stroke="#999999" points="491,-19.25 435.25,-19.25 435.25,0 491,0 491,-19.25"/>
<text text-anchor="middle" x="463.12" y="-5.75" font-family="Helvetica,sans-Serif" font-size="10.00">stdbool.h</text>
</a>
</g>
</g>
<!-- Node5&#45;&gt;Node8 -->
<g id="edge7_Node000005_Node000008" class="edge">
<title>Node5&#45;&gt;Node8</title>
<g id="a_edge7_Node000005_Node000008"><a xlink:title=" ">
<path fill="none" stroke="#63b8ff" d="M405,-54.84C415.22,-47.07 430.2,-35.67 442.39,-26.4"/>
<polygon fill="#63b8ff" stroke="#63b8ff" points="444.38,-29.28 450.22,-20.44 440.14,-23.71 444.38,-29.28"/>
</a>
</g>
</g>
<!-- Node11 -->
<g id="Node000011" class="node">
<title>Node11</title>
<g id="a_Node000011"><a xlink:href="_core_object_8h.html" target="_top" xlink:title=" ">
<polygon fill="white" stroke="#666666" points="345,-350.75 271.25,-350.75 271.25,-331.5 345,-331.5 345,-350.75"/>
<text text-anchor="middle" x="308.12" y="-337.25" font-family="Helvetica,sans-Serif" font-size="10.00">CoreObject.h</text>
</a>
</g>
</g>
<!-- Node10&#45;&gt;Node11 -->
<g id="edge10_Node000010_Node000011" class="edge">
<title>Node10&#45;&gt;Node11</title>
<g id="a_edge10_Node000010_Node000011"><a xlink:title=" ">
<path fill="none" stroke="#63b8ff" d="M241.76,-441.56C256.64,-434.04 276.14,-421.99 288.12,-406 297.73,-393.19 302.79,-375.66 305.42,-362.2"/>
<polygon fill="#63b8ff" stroke="#63b8ff" points="308.8,-363.17 306.96,-352.74 301.89,-362.05 308.8,-363.17"/>
</a>
</g>
</g>
<!-- Node18 -->
<g id="Node000018" class="node">
<title>Node18</title>
<g id="a_Node000018"><a xlink:href="_file_types_8h.html" target="_top" xlink:title=" ">
<polygon fill="white" stroke="#666666" points="174.25,-240.25 108,-240.25 108,-221 174.25,-221 174.25,-240.25"/>
<text text-anchor="middle" x="141.12" y="-226.75" font-family="Helvetica,sans-Serif" font-size="10.00">FileTypes.h</text>
</a>
</g>
</g>
<!-- Node10&#45;&gt;Node18 -->
<g id="edge20_Node000010_Node000018" class="edge">
<title>Node10&#45;&gt;Node18</title>
<g id="a_edge20_Node000010_Node000018"><a xlink:title=" ">
<path fill="none" stroke="#63b8ff" d="M196.66,-441.59C181.07,-434.46 162,-422.86 152.12,-406 123.31,-356.8 130.88,-285.83 136.94,-251.59"/>
<polygon fill="#63b8ff" stroke="#63b8ff" points="140.36,-252.36 138.82,-241.88 133.48,-251.03 140.36,-252.36"/>
</a>
</g>
</g>
<!-- Node19 -->
<g id="Node000019" class="node">
<title>Node19</title>
<g id="a_Node000019"><a xlink:href="_p_e_t_name_8h.html" target="_top" xlink:title=" ">
<polygon fill="white" stroke="#666666" points="406.12,-406 336.12,-406 336.12,-386.75 406.12,-386.75 406.12,-406"/>
<text text-anchor="middle" x="371.12" y="-392.5" font-family="Helvetica,sans-Serif" font-size="10.00">PETName.h</text>
</a>
</g>
</g>
<!-- Node10&#45;&gt;Node19 -->
<g id="edge23_Node000010_Node000019" class="edge">
<title>Node10&#45;&gt;Node19</title>
<g id="a_edge23_Node000010_Node000019"><a xlink:title=" ">
<path fill="none" stroke="#63b8ff" d="M246.57,-441.59C270.81,-432.99 307.56,-419.94 334.86,-410.25"/>
<polygon fill="#63b8ff" stroke="#63b8ff" points="335.88,-413.6 344.13,-406.96 333.53,-407.01 335.88,-413.6"/>
</a>
</g>
</g>
<!-- Node23 -->
<g id="Node000023" class="node">
<title>Node23</title>
<g id="a_Node000023"><a xlink:title=" ">
<polygon fill="#e0e0e0" stroke="#999999" points="212.75,-406 161.5,-406 161.5,-386.75 212.75,-386.75 212.75,-406"/>
<text text-anchor="middle" x="187.12" y="-392.5" font-family="Helvetica,sans-Serif" font-size="10.00">sstream</text>
</a>
</g>
</g>
<!-- Node10&#45;&gt;Node23 -->
<g id="edge30_Node000010_Node000023" class="edge">
<title>Node10&#45;&gt;Node23</title>
<g id="a_edge30_Node000010_Node000023"><a xlink:title=" ">
<path fill="none" stroke="#63b8ff" d="M215.51,-441.83C211.01,-434.78 204.54,-424.65 198.91,-415.83"/>
<polygon fill="#63b8ff" stroke="#63b8ff" points="202.01,-414.18 193.68,-407.63 196.11,-417.95 202.01,-414.18"/>
</a>
</g>
</g>
<!-- Node24 -->
<g id="Node000024" class="node">
<title>Node24</title>
<g id="a_Node000024"><a xlink:title=" ">
<polygon fill="#e0e0e0" stroke="#999999" points="279.62,-406 230.62,-406 230.62,-386.75 279.62,-386.75 279.62,-406"/>
<text text-anchor="middle" x="255.12" y="-392.5" font-family="Helvetica,sans-Serif" font-size="10.00">fstream</text>
</a>
</g>
</g>
<!-- Node10&#45;&gt;Node24 -->
<g id="edge31_Node000010_Node000024" class="edge">
<title>Node10&#45;&gt;Node24</title>
<g id="a_edge31_Node000010_Node000024"><a xlink:title=" ">
<path fill="none" stroke="#63b8ff" d="M226.74,-441.83C231.24,-434.78 237.71,-424.65 243.34,-415.83"/>
<polygon fill="#63b8ff" stroke="#63b8ff" points="246.14,-417.95 248.57,-407.63 240.24,-414.18 246.14,-417.95"/>
</a>
</g>
</g>
<!-- Node12 -->
<g id="Node000012" class="node">
<title>Node12</title>
<g id="a_Node000012"><a xlink:href="_error_8h.html" target="_top" xlink:title=" ">
<polygon fill="white" stroke="#666666" points="330.38,-295.5 285.88,-295.5 285.88,-276.25 330.38,-276.25 330.38,-295.5"/>
<text text-anchor="middle" x="308.12" y="-282" font-family="Helvetica,sans-Serif" font-size="10.00">Error.h</text>
</a>
</g>
</g>
<!-- Node11&#45;&gt;Node12 -->
<g id="edge11_Node000011_Node000012" class="edge">
<title>Node11&#45;&gt;Node12</title>
<g id="a_edge11_Node000011_Node000012"><a xlink:title=" ">
<path fill="none" stroke="#63b8ff" d="M308.12,-331.33C308.12,-324.82 308.12,-315.67 308.12,-307.37"/>
<polygon fill="#63b8ff" stroke="#63b8ff" points="311.63,-307.37 308.13,-297.37 304.63,-307.37 311.63,-307.37"/>
</a>
</g>
</g>
<!-- Node16 -->
<g id="Node000016" class="node">
<title>Node16</title>
<g id="a_Node000016"><a xlink:href="_inspectable_8h.html" target="_top" xlink:title=" ">
<polygon fill="white" stroke="#666666" points="266.38,-295.5 191.88,-295.5 191.88,-276.25 266.38,-276.25 266.38,-295.5"/>
<text text-anchor="middle" x="229.12" y="-282" font-family="Helvetica,sans-Serif" font-size="10.00">Inspectable.h</text>
</a>
</g>
</g>
<!-- Node11&#45;&gt;Node16 -->
<g id="edge18_Node000011_Node000016" class="edge">
<title>Node11&#45;&gt;Node16</title>
<g id="a_edge18_Node000011_Node000016"><a xlink:title=" ">
<path fill="none" stroke="#63b8ff" d="M294.72,-331.09C283.03,-323.21 265.82,-311.61 251.96,-302.27"/>
<polygon fill="#63b8ff" stroke="#63b8ff" points="254.1,-299.49 243.85,-296.8 250.18,-305.29 254.1,-299.49"/>
</a>
</g>
</g>
<!-- Node13 -->
<g id="Node000013" class="node">
<title>Node13</title>
<g id="a_Node000013"><a xlink:href="_error_types_8h.html" target="_top" xlink:title=" ">
<polygon fill="white" stroke="#666666" points="335.88,-240.25 264.38,-240.25 264.38,-221 335.88,-221 335.88,-240.25"/>
<text text-anchor="middle" x="300.12" y="-226.75" font-family="Helvetica,sans-Serif" font-size="10.00">ErrorTypes.h</text>
</a>
</g>
</g>
<!-- Node12&#45;&gt;Node13 -->
<g id="edge12_Node000012_Node000013" class="edge">
<title>Node12&#45;&gt;Node13</title>
<g id="a_edge12_Node000012_Node000013"><a xlink:title=" ">
<path fill="none" stroke="#63b8ff" d="M306.8,-276.08C305.81,-269.49 304.42,-260.21 303.16,-251.82"/>
<polygon fill="#63b8ff" stroke="#63b8ff" points="306.65,-251.47 301.7,-242.11 299.72,-252.51 306.65,-251.47"/>
</a>
</g>
</g>
<!-- Node14 -->
<g id="Node000014" class="node">
<title>Node14</title>
<g id="a_Node000014"><a xlink:href="_exception_8h.html" target="_top" xlink:title=" ">
<polygon fill="white" stroke="#666666" points="422,-240.25 354.25,-240.25 354.25,-221 422,-221 422,-240.25"/>
<text text-anchor="middle" x="388.12" y="-226.75" font-family="Helvetica,sans-Serif" font-size="10.00">Exception.h</text>
</a>
</g>
</g>
<!-- Node12&#45;&gt;Node14 -->
<g id="edge15_Node000012_Node000014" class="edge">
<title>Node12&#45;&gt;Node14</title>
<g id="a_edge15_Node000012_Node000014"><a xlink:title=" ">
<path fill="none" stroke="#63b8ff" d="M321.7,-275.84C333.53,-267.96 350.96,-256.36 365,-247.02"/>
<polygon fill="#63b8ff" stroke="#63b8ff" points="366.84,-250 373.23,-241.54 362.96,-244.17 366.84,-250"/>
</a>
</g>
</g>
<!-- Node13&#45;&gt;Node3 -->
<g id="edge13_Node000013_Node000003" class="edge">
<title>Node13&#45;&gt;Node3</title>
<g id="a_edge13_Node000013_Node000003"><a xlink:title=" ">
<path fill="none" stroke="#63b8ff" d="M273.15,-220.59C247.23,-211.91 207.81,-198.71 178.79,-188.99"/>
<polygon fill="#63b8ff" stroke="#63b8ff" points="180.26,-185.79 169.66,-185.93 178.04,-192.43 180.26,-185.79"/>
</a>
</g>
</g>
<!-- Node13&#45;&gt;Node9 -->
<g id="edge14_Node000013_Node000009" class="edge">
<title>Node13&#45;&gt;Node9</title>
<g id="a_edge14_Node000013_Node000009"><a xlink:title=" ">
<path fill="none" stroke="#63b8ff" d="M286.89,-220.59C275.35,-212.71 258.36,-201.11 244.68,-191.77"/>
<polygon fill="#63b8ff" stroke="#63b8ff" points="246.9,-189.05 236.67,-186.31 242.96,-194.83 246.9,-189.05"/>
</a>
</g>
</g>
<!-- Node14&#45;&gt;Node5 -->
<g id="edge16_Node000014_Node000005" class="edge">
<title>Node14&#45;&gt;Node5</title>
<g id="a_edge16_Node000014_Node000005"><a xlink:title=" ">
<path fill="none" stroke="#63b8ff" d="M388.39,-220.82C389.17,-195.5 391.41,-122 392.51,-86.09"/>
<polygon fill="#63b8ff" stroke="#63b8ff" points="396,-86.34 392.81,-76.24 389,-86.12 396,-86.34"/>
</a>
</g>
</g>
<!-- Node15 -->
<g id="Node000015" class="node">
<title>Node15</title>
<g id="a_Node000015"><a xlink:title=" ">
<polygon fill="#e0e0e0" stroke="#999999" points="346.12,-185 288.12,-185 288.12,-165.75 346.12,-165.75 346.12,-185"/>
<text text-anchor="middle" x="317.12" y="-171.5" font-family="Helvetica,sans-Serif" font-size="10.00">exception</text>
</a>
</g>
</g>
<!-- Node14&#45;&gt;Node15 -->
<g id="edge17_Node000014_Node000015" class="edge">
<title>Node14&#45;&gt;Node15</title>
<g id="a_edge17_Node000014_Node000015"><a xlink:title=" ">
<path fill="none" stroke="#63b8ff" d="M376.08,-220.59C365.72,-212.82 350.52,-201.42 338.16,-192.15"/>
<polygon fill="#63b8ff" stroke="#63b8ff" points="340.3,-189.38 330.2,-186.18 336.1,-194.98 340.3,-189.38"/>
</a>
</g>
</g>
<!-- Node17 -->
<g id="Node000017" class="node">
<title>Node17</title>
<g id="a_Node000017"><a xlink:title=" ">
<polygon fill="#e0e0e0" stroke="#999999" points="245.88,-240.25 192.38,-240.25 192.38,-221 245.88,-221 245.88,-240.25"/>
<text text-anchor="middle" x="219.12" y="-226.75" font-family="Helvetica,sans-Serif" font-size="10.00">iostream</text>
</a>
</g>
</g>
<!-- Node16&#45;&gt;Node17 -->
<g id="edge19_Node000016_Node000017" class="edge">
<title>Node16&#45;&gt;Node17</title>
<g id="a_edge19_Node000016_Node000017"><a xlink:title=" ">
<path fill="none" stroke="#63b8ff" d="M227.47,-276.08C226.24,-269.49 224.49,-260.21 222.92,-251.82"/>
<polygon fill="#63b8ff" stroke="#63b8ff" points="226.38,-251.28 221.09,-242.1 219.5,-252.57 226.38,-251.28"/>
</a>
</g>
</g>
<!-- Node18&#45;&gt;Node3 -->
<g id="edge21_Node000018_Node000003" class="edge">
<title>Node18&#45;&gt;Node3</title>
<g id="a_edge21_Node000018_Node000003"><a xlink:title=" ">
<path fill="none" stroke="#63b8ff" d="M141.12,-220.83C141.12,-214.32 141.12,-205.17 141.12,-196.87"/>
<polygon fill="#63b8ff" stroke="#63b8ff" points="144.63,-196.87 141.13,-186.87 137.63,-196.87 144.63,-196.87"/>
</a>
</g>
</g>
<!-- Node18&#45;&gt;Node9 -->
<g id="edge22_Node000018_Node000009" class="edge">
<title>Node18&#45;&gt;Node9</title>
<g id="a_edge22_Node000018_Node000009"><a xlink:title=" ">
<path fill="none" stroke="#63b8ff" d="M154.87,-220.59C166.85,-212.71 184.5,-201.11 198.71,-191.77"/>
<polygon fill="#63b8ff" stroke="#63b8ff" points="200.62,-194.7 207.05,-186.28 196.77,-188.85 200.62,-194.7"/>
</a>
</g>
</g>
<!-- Node19&#45;&gt;Node11 -->
<g id="edge24_Node000019_Node000011" class="edge">
<title>Node19&#45;&gt;Node11</title>
<g id="a_edge24_Node000019_Node000011"><a xlink:title=" ">
<path fill="none" stroke="#63b8ff" d="M360.44,-386.34C351.42,-378.72 338.29,-367.62 327.44,-358.45"/>
<polygon fill="#63b8ff" stroke="#63b8ff" points="329.71,-355.78 319.81,-352 325.19,-361.13 329.71,-355.78"/>
</a>
</g>
</g>
<!-- Node20 -->
<g id="Node000020" class="node">
<title>Node20</title>
<g id="a_Node000020"><a xlink:href="_mem_utils_8h.html" target="_top" xlink:title=" ">
<polygon fill="white" stroke="#666666" points="503.25,-185 437,-185 437,-165.75 503.25,-165.75 503.25,-185"/>
<text text-anchor="middle" x="470.12" y="-171.5" font-family="Helvetica,sans-Serif" font-size="10.00">MemUtils.h</text>
</a>
</g>
</g>
<!-- Node19&#45;&gt;Node20 -->
<g id="edge25_Node000019_Node000020" class="edge">
<title>Node19&#45;&gt;Node20</title>
<g id="a_edge25_Node000019_Node000020"><a xlink:title=" ">
<path fill="none" stroke="#63b8ff" d="M375.13,-386.52C389.81,-354.05 440.88,-241.07 461.45,-195.58"/>
<polygon fill="#63b8ff" stroke="#63b8ff" points="464.63,-197.03 465.56,-186.48 458.25,-194.15 464.63,-197.03"/>
</a>
</g>
</g>
<!-- Node20&#45;&gt;Node5 -->
<g id="edge26_Node000020_Node000005" class="edge">
<title>Node20&#45;&gt;Node5</title>
<g id="a_edge26_Node000020_Node000005"><a xlink:title=" ">
<path fill="none" stroke="#63b8ff" d="M461.55,-165.55C453.29,-156.82 440.67,-142.91 431.12,-129.75 420.7,-115.37 410.49,-97.98 403.29,-84.98"/>
<polygon fill="#63b8ff" stroke="#63b8ff" points="406.37,-83.32 398.53,-76.2 400.22,-86.66 406.37,-83.32"/>
</a>
</g>
</g>
<!-- Node21 -->
<g id="Node000021" class="node">
<title>Node21</title>
<g id="a_Node000021"><a xlink:href="_checksum_8h.html" target="_top" xlink:title=" ">
<polygon fill="white" stroke="#666666" points="511.88,-129.75 440.38,-129.75 440.38,-110.5 511.88,-110.5 511.88,-129.75"/>
<text text-anchor="middle" x="476.12" y="-116.25" font-family="Helvetica,sans-Serif" font-size="10.00">Checksum.h</text>
</a>
</g>
</g>
<!-- Node20&#45;&gt;Node21 -->
<g id="edge27_Node000020_Node000021" class="edge">
<title>Node20&#45;&gt;Node21</title>
<g id="a_edge27_Node000020_Node000021"><a xlink:title=" ">
<path fill="none" stroke="#63b8ff" d="M471.12,-165.58C471.86,-158.99 472.9,-149.71 473.85,-141.32"/>
<polygon fill="#63b8ff" stroke="#63b8ff" points="477.3,-141.94 474.94,-131.61 470.35,-141.16 477.3,-141.94"/>
</a>
</g>
</g>
<!-- Node22 -->
<g id="Node000022" class="node">
<title>Node22</title>
<g id="a_Node000022"><a xlink:title=" ">
<polygon fill="#e0e0e0" stroke="#999999" points="558.52,-129.75 529.73,-129.75 529.73,-110.5 558.52,-110.5 558.52,-129.75"/>
<text text-anchor="middle" x="544.12" y="-116.25" font-family="Helvetica,sans-Serif" font-size="10.00">bit</text>
</a>
</g>
</g>
<!-- Node20&#45;&gt;Node22 -->
<g id="edge29_Node000020_Node000022" class="edge">
<title>Node20&#45;&gt;Node22</title>
<g id="a_edge29_Node000020_Node000022"><a xlink:title=" ">
<path fill="none" stroke="#63b8ff" d="M482.68,-165.34C493.59,-157.49 509.63,-145.95 522.59,-136.62"/>
<polygon fill="#63b8ff" stroke="#63b8ff" points="524.46,-139.59 530.53,-130.91 520.37,-133.91 524.46,-139.59"/>
</a>
</g>
</g>
<!-- Node21&#45;&gt;Node5 -->
<g id="edge28_Node000021_Node000005" class="edge">
<title>Node21&#45;&gt;Node5</title>
<g id="a_edge28_Node000021_Node000005"><a xlink:title=" ">
<path fill="none" stroke="#63b8ff" d="M462.05,-110.09C449.64,-102.14 431.33,-90.39 416.7,-81"/>
<polygon fill="#63b8ff" stroke="#63b8ff" points="418.85,-78.22 408.55,-75.77 415.07,-84.12 418.85,-78.22"/>
</a>
</g>
</g>
</g>
</svg>
