<?xml version="1.0" encoding="UTF-8" standalone="no"?>
<!DOCTYPE svg PUBLIC "-//W3C//DTD SVG 1.1//EN"
 "http://www.w3.org/Graphics/SVG/1.1/DTD/svg11.dtd">
<!-- Generated by graphviz version 10.0.1 (20240210.2158)
 -->
<!-- Title: /Users/hoff/Retro/virtualc64/Emulator/Utilities/Checksum.cpp Pages: 1 -->
<svg width="252pt" height="204pt"
 viewBox="0.00 0.00 251.50 204.25" xmlns="http://www.w3.org/2000/svg" xmlns:xlink="http://www.w3.org/1999/xlink">
<g id="graph0" class="graph" transform="scale(1 1) rotate(0) translate(4 200.25)">
<title>/Users/hoff/Retro/virtualc64/Emulator/Utilities/Checksum.cpp</title>
<!-- Node1 -->
<g id="Node000001" class="node">
<title>Node1</title>
<g id="a_Node000001"><a xlink:title=" ">
<polygon fill="#999999" stroke="#666666" points="186.12,-196.25 23.12,-196.25 23.12,-165.75 186.12,-165.75 186.12,-196.25"/>
<text text-anchor="start" x="31.12" y="-182.75" font-family="Helvetica,sans-Serif" font-size="10.00">/Users/hoff/Retro/virtualc64</text>
<text text-anchor="middle" x="104.62" y="-171.5" font-family="Helvetica,sans-Serif" font-size="10.00">/Emulator/Utilities/Checksum.cpp</text>
</a>
</g>
</g>
<!-- Node2 -->
<g id="Node000002" class="node">
<title>Node2</title>
<g id="a_Node000002"><a xlink:href="config_8h.html" target="_top" xlink:title=" ">
<polygon fill="white" stroke="#666666" points="50.88,-129.75 0.38,-129.75 0.38,-110.5 50.88,-110.5 50.88,-129.75"/>
<text text-anchor="middle" x="25.62" y="-116.25" font-family="Helvetica,sans-Serif" font-size="10.00">config.h</text>
</a>
</g>
</g>
<!-- Node1&#45;&gt;Node2 -->
<g id="edge1_Node000001_Node000002" class="edge">
<title>Node1&#45;&gt;Node2</title>
<g id="a_edge1_Node000001_Node000002"><a xlink:title=" ">
<path fill="none" stroke="#63b8ff" d="M85.1,-165.45C73.53,-156.83 58.87,-145.9 46.99,-137.05"/>
<polygon fill="#63b8ff" stroke="#63b8ff" points="49.13,-134.27 39.02,-131.11 44.94,-139.89 49.13,-134.27"/>
</a>
</g>
</g>
<!-- Node4 -->
<g id="Node000004" class="node">
<title>Node4</title>
<g id="a_Node000004"><a xlink:href="_checksum_8h.html" target="_top" xlink:title=" ">
<polygon fill="white" stroke="#666666" points="140.38,-129.75 68.88,-129.75 68.88,-110.5 140.38,-110.5 140.38,-129.75"/>
<text text-anchor="middle" x="104.62" y="-116.25" font-family="Helvetica,sans-Serif" font-size="10.00">Checksum.h</text>
</a>
</g>
</g>
<!-- Node1&#45;&gt;Node4 -->
<g id="edge3_Node000001_Node000004" class="edge">
<title>Node1&#45;&gt;Node4</title>
<g id="a_edge3_Node000001_Node000004"><a xlink:title=" ">
<path fill="none" stroke="#63b8ff" d="M104.62,-165.45C104.62,-158.21 104.62,-149.34 104.62,-141.44"/>
<polygon fill="#63b8ff" stroke="#63b8ff" points="108.13,-141.71 104.63,-131.71 101.13,-141.71 108.13,-141.71"/>
</a>
</g>
</g>
<!-- Node9 -->
<g id="Node000009" class="node">
<title>Node9</title>
<g id="a_Node000009"><a xlink:href="_macros_8h.html" target="_top" xlink:title=" ">
<polygon fill="white" stroke="#666666" points="214.88,-129.75 158.38,-129.75 158.38,-110.5 214.88,-110.5 214.88,-129.75"/>
<text text-anchor="middle" x="186.62" y="-116.25" font-family="Helvetica,sans-Serif" font-size="10.00">Macros.h</text>
</a>
</g>
</g>
<!-- Node1&#45;&gt;Node9 -->
<g id="edge8_Node000001_Node000009" class="edge">
<title>Node1&#45;&gt;Node9</title>
<g id="a_edge8_Node000001_Node000009"><a xlink:title=" ">
<path fill="none" stroke="#63b8ff" d="M124.89,-165.45C137.02,-156.74 152.43,-145.68 164.82,-136.78"/>
<polygon fill="#63b8ff" stroke="#63b8ff" points="166.67,-139.76 172.75,-131.08 162.59,-134.07 166.67,-139.76"/>
</a>
</g>
</g>
<!-- Node3 -->
<g id="Node000003" class="node">
<title>Node3</title>
<g id="a_Node000003"><a xlink:title=" ">
<polygon fill="#e0e0e0" stroke="#999999" points="51.25,-74.5 0,-74.5 0,-55.25 51.25,-55.25 51.25,-74.5"/>
<text text-anchor="middle" x="25.62" y="-61" font-family="Helvetica,sans-Serif" font-size="10.00">assert.h</text>
</a>
</g>
</g>
<!-- Node2&#45;&gt;Node3 -->
<g id="edge2_Node000002_Node000003" class="edge">
<title>Node2&#45;&gt;Node3</title>
<g id="a_edge2_Node000002_Node000003"><a xlink:title=" ">
<path fill="none" stroke="#63b8ff" d="M25.62,-110.33C25.62,-103.82 25.62,-94.67 25.62,-86.37"/>
<polygon fill="#63b8ff" stroke="#63b8ff" points="29.13,-86.37 25.63,-76.37 22.13,-86.37 29.13,-86.37"/>
</a>
</g>
</g>
<!-- Node5 -->
<g id="Node000005" class="node">
<title>Node5</title>
<g id="a_Node000005"><a xlink:href="_types_8h.html" target="_top" xlink:title=" ">
<polygon fill="white" stroke="#666666" points="170.88,-74.5 120.38,-74.5 120.38,-55.25 170.88,-55.25 170.88,-74.5"/>
<text text-anchor="middle" x="145.62" y="-61" font-family="Helvetica,sans-Serif" font-size="10.00">Types.h</text>
</a>
</g>
</g>
<!-- Node4&#45;&gt;Node5 -->
<g id="edge4_Node000004_Node000005" class="edge">
<title>Node4&#45;&gt;Node5</title>
<g id="a_edge4_Node000004_Node000005"><a xlink:title=" ">
<path fill="none" stroke="#63b8ff" d="M111.4,-110.33C116.94,-103.13 124.97,-92.71 131.85,-83.76"/>
<polygon fill="#63b8ff" stroke="#63b8ff" points="134.46,-86.12 137.78,-76.06 128.91,-81.85 134.46,-86.12"/>
</a>
</g>
</g>
<!-- Node6 -->
<g id="Node000006" class="node">
<title>Node6</title>
<g id="a_Node000006"><a xlink:title=" ">
<polygon fill="#e0e0e0" stroke="#999999" points="103.12,-19.25 36.12,-19.25 36.12,0 103.12,0 103.12,-19.25"/>
<text text-anchor="middle" x="69.62" y="-5.75" font-family="Helvetica,sans-Serif" font-size="10.00">sys/types.h</text>
</a>
</g>
</g>
<!-- Node5&#45;&gt;Node6 -->
<g id="edge5_Node000005_Node000006" class="edge">
<title>Node5&#45;&gt;Node6</title>
<g id="a_edge5_Node000005_Node000006"><a xlink:title=" ">
<path fill="none" stroke="#63b8ff" d="M132.73,-54.84C121.6,-47.04 105.25,-35.59 91.99,-26.29"/>
<polygon fill="#63b8ff" stroke="#63b8ff" points="94.02,-23.44 83.82,-20.57 90,-29.18 94.02,-23.44"/>
</a>
</g>
</g>
<!-- Node7 -->
<g id="Node000007" class="node">
<title>Node7</title>
<g id="a_Node000007"><a xlink:title=" ">
<polygon fill="#e0e0e0" stroke="#999999" points="169.75,-19.25 121.5,-19.25 121.5,0 169.75,0 169.75,-19.25"/>
<text text-anchor="middle" x="145.62" y="-5.75" font-family="Helvetica,sans-Serif" font-size="10.00">stdint.h</text>
</a>
</g>
</g>
<!-- Node5&#45;&gt;Node7 -->
<g id="edge6_Node000005_Node000007" class="edge">
<title>Node5&#45;&gt;Node7</title>
<g id="a_edge6_Node000005_Node000007"><a xlink:title=" ">
<path fill="none" stroke="#63b8ff" d="M145.62,-55.08C145.62,-48.57 145.62,-39.42 145.62,-31.12"/>
<polygon fill="#63b8ff" stroke="#63b8ff" points="149.13,-31.12 145.63,-21.12 142.13,-31.12 149.13,-31.12"/>
</a>
</g>
</g>
<!-- Node8 -->
<g id="Node000008" class="node">
<title>Node8</title>
<g id="a_Node000008"><a xlink:title=" ">
<polygon fill="#e0e0e0" stroke="#999999" points="243.5,-19.25 187.75,-19.25 187.75,0 243.5,0 243.5,-19.25"/>
<text text-anchor="middle" x="215.62" y="-5.75" font-family="Helvetica,sans-Serif" font-size="10.00">stdbool.h</text>
</a>
</g>
</g>
<!-- Node5&#45;&gt;Node8 -->
<g id="edge7_Node000005_Node000008" class="edge">
<title>Node5&#45;&gt;Node8</title>
<g id="a_edge7_Node000005_Node000008"><a xlink:title=" ">
<path fill="none" stroke="#63b8ff" d="M157.5,-54.84C167.72,-47.07 182.7,-35.67 194.89,-26.4"/>
<polygon fill="#63b8ff" stroke="#63b8ff" points="196.88,-29.28 202.72,-20.44 192.64,-23.71 196.88,-29.28"/>
</a>
</g>
</g>
<!-- Node9&#45;&gt;Node5 -->
<g id="edge9_Node000009_Node000005" class="edge">
<title>Node9&#45;&gt;Node5</title>
<g id="a_edge9_Node000009_Node000005"><a xlink:title=" ">
<path fill="none" stroke="#63b8ff" d="M179.85,-110.33C174.31,-103.13 166.28,-92.71 159.4,-83.76"/>
<polygon fill="#63b8ff" stroke="#63b8ff" points="162.34,-81.85 153.47,-76.06 156.79,-86.12 162.34,-81.85"/>
</a>
</g>
</g>
</g>
</svg>
