<?xml version="1.0" encoding="UTF-8" standalone="no"?>
<!DOCTYPE svg PUBLIC "-//W3C//DTD SVG 1.1//EN"
 "http://www.w3.org/Graphics/SVG/1.1/DTD/svg11.dtd">
<!-- Generated by graphviz version 10.0.1 (20240210.2158)
 -->
<!-- Title: /Users/hoff/Retro/virtualc64/Emulator/Utilities/Chrono.cpp Pages: 1 -->
<svg width="271pt" height="204pt"
 viewBox="0.00 0.00 271.00 204.25" xmlns="http://www.w3.org/2000/svg" xmlns:xlink="http://www.w3.org/1999/xlink">
<g id="graph0" class="graph" transform="scale(1 1) rotate(0) translate(4 200.25)">
<title>/Users/hoff/Retro/virtualc64/Emulator/Utilities/Chrono.cpp</title>
<!-- Node1 -->
<g id="Node000001" class="node">
<title>Node1</title>
<g id="a_Node000001"><a xlink:title=" ">
<polygon fill="#999999" stroke="#666666" points="218.12,-196.25 70.88,-196.25 70.88,-165.75 218.12,-165.75 218.12,-196.25"/>
<text text-anchor="start" x="78.88" y="-182.75" font-family="Helvetica,sans-Serif" font-size="10.00">/Users/hoff/Retro/virtualc64</text>
<text text-anchor="middle" x="144.5" y="-171.5" font-family="Helvetica,sans-Serif" font-size="10.00">/Emulator/Utilities/Chrono.cpp</text>
</a>
</g>
</g>
<!-- Node2 -->
<g id="Node000002" class="node">
<title>Node2</title>
<g id="a_Node000002"><a xlink:href="config_8h.html" target="_top" xlink:title=" ">
<polygon fill="white" stroke="#666666" points="64.75,-129.75 14.25,-129.75 14.25,-110.5 64.75,-110.5 64.75,-129.75"/>
<text text-anchor="middle" x="39.5" y="-116.25" font-family="Helvetica,sans-Serif" font-size="10.00">config.h</text>
</a>
</g>
</g>
<!-- Node1&#45;&gt;Node2 -->
<g id="edge1_Node000001_Node000002" class="edge">
<title>Node1&#45;&gt;Node2</title>
<g id="a_edge1_Node000001_Node000002"><a xlink:title=" ">
<path fill="none" stroke="#63b8ff" d="M118.27,-165.3C102.13,-156.24 81.52,-144.69 65.43,-135.66"/>
<polygon fill="#63b8ff" stroke="#63b8ff" points="67.36,-132.73 56.92,-130.89 63.93,-138.84 67.36,-132.73"/>
</a>
</g>
</g>
<!-- Node4 -->
<g id="Node000004" class="node">
<title>Node4</title>
<g id="a_Node000004"><a xlink:href="_chrono_8h.html" target="_top" xlink:title=" ">
<polygon fill="white" stroke="#666666" points="138.38,-129.75 82.62,-129.75 82.62,-110.5 138.38,-110.5 138.38,-129.75"/>
<text text-anchor="middle" x="110.5" y="-116.25" font-family="Helvetica,sans-Serif" font-size="10.00">Chrono.h</text>
</a>
</g>
</g>
<!-- Node1&#45;&gt;Node4 -->
<g id="edge3_Node000001_Node000004" class="edge">
<title>Node1&#45;&gt;Node4</title>
<g id="a_edge3_Node000001_Node000004"><a xlink:title=" ">
<path fill="none" stroke="#63b8ff" d="M136.1,-165.45C131.67,-157.78 126.18,-148.27 121.42,-140.04"/>
<polygon fill="#63b8ff" stroke="#63b8ff" points="124.53,-138.42 116.5,-131.51 118.47,-141.92 124.53,-138.42"/>
</a>
</g>
</g>
<!-- Node10 -->
<g id="Node000010" class="node">
<title>Node10</title>
<g id="a_Node000010"><a xlink:title=" ">
<polygon fill="#e0e0e0" stroke="#999999" points="202.12,-129.75 156.88,-129.75 156.88,-110.5 202.12,-110.5 202.12,-129.75"/>
<text text-anchor="middle" x="179.5" y="-116.25" font-family="Helvetica,sans-Serif" font-size="10.00">chrono</text>
</a>
</g>
</g>
<!-- Node1&#45;&gt;Node10 -->
<g id="edge9_Node000001_Node000010" class="edge">
<title>Node1&#45;&gt;Node10</title>
<g id="a_edge9_Node000001_Node000010"><a xlink:title=" ">
<path fill="none" stroke="#63b8ff" d="M153.15,-165.45C157.71,-157.78 163.36,-148.27 168.26,-140.04"/>
<polygon fill="#63b8ff" stroke="#63b8ff" points="171.23,-141.89 173.33,-131.5 165.21,-138.31 171.23,-141.89"/>
</a>
</g>
</g>
<!-- Node11 -->
<g id="Node000011" class="node">
<title>Node11</title>
<g id="a_Node000011"><a xlink:title=" ">
<polygon fill="#e0e0e0" stroke="#999999" points="263,-129.75 220,-129.75 220,-110.5 263,-110.5 263,-129.75"/>
<text text-anchor="middle" x="241.5" y="-116.25" font-family="Helvetica,sans-Serif" font-size="10.00">thread</text>
</a>
</g>
</g>
<!-- Node1&#45;&gt;Node11 -->
<g id="edge10_Node000001_Node000011" class="edge">
<title>Node1&#45;&gt;Node11</title>
<g id="a_edge10_Node000001_Node000011"><a xlink:title=" ">
<path fill="none" stroke="#63b8ff" d="M168.48,-165.45C183.25,-156.48 202.13,-145.02 217,-136"/>
<polygon fill="#63b8ff" stroke="#63b8ff" points="218.52,-139.17 225.25,-130.99 214.89,-133.18 218.52,-139.17"/>
</a>
</g>
</g>
<!-- Node3 -->
<g id="Node000003" class="node">
<title>Node3</title>
<g id="a_Node000003"><a xlink:title=" ">
<polygon fill="#e0e0e0" stroke="#999999" points="65.12,-74.5 13.88,-74.5 13.88,-55.25 65.12,-55.25 65.12,-74.5"/>
<text text-anchor="middle" x="39.5" y="-61" font-family="Helvetica,sans-Serif" font-size="10.00">assert.h</text>
</a>
</g>
</g>
<!-- Node2&#45;&gt;Node3 -->
<g id="edge2_Node000002_Node000003" class="edge">
<title>Node2&#45;&gt;Node3</title>
<g id="a_edge2_Node000002_Node000003"><a xlink:title=" ">
<path fill="none" stroke="#63b8ff" d="M39.5,-110.33C39.5,-103.82 39.5,-94.67 39.5,-86.37"/>
<polygon fill="#63b8ff" stroke="#63b8ff" points="43,-86.37 39.5,-76.37 36,-86.37 43,-86.37"/>
</a>
</g>
</g>
<!-- Node5 -->
<g id="Node000005" class="node">
<title>Node5</title>
<g id="a_Node000005"><a xlink:href="_types_8h.html" target="_top" xlink:title=" ">
<polygon fill="white" stroke="#666666" points="134.75,-74.5 84.25,-74.5 84.25,-55.25 134.75,-55.25 134.75,-74.5"/>
<text text-anchor="middle" x="109.5" y="-61" font-family="Helvetica,sans-Serif" font-size="10.00">Types.h</text>
</a>
</g>
</g>
<!-- Node4&#45;&gt;Node5 -->
<g id="edge4_Node000004_Node000005" class="edge">
<title>Node4&#45;&gt;Node5</title>
<g id="a_edge4_Node000004_Node000005"><a xlink:title=" ">
<path fill="none" stroke="#63b8ff" d="M110.33,-110.33C110.21,-103.82 110.04,-94.67 109.88,-86.37"/>
<polygon fill="#63b8ff" stroke="#63b8ff" points="113.38,-86.3 109.7,-76.37 106.39,-86.44 113.38,-86.3"/>
</a>
</g>
</g>
<!-- Node9 -->
<g id="Node000009" class="node">
<title>Node9</title>
<g id="a_Node000009"><a xlink:title=" ">
<polygon fill="#e0e0e0" stroke="#999999" points="192.5,-74.5 152.5,-74.5 152.5,-55.25 192.5,-55.25 192.5,-74.5"/>
<text text-anchor="middle" x="172.5" y="-61" font-family="Helvetica,sans-Serif" font-size="10.00">ctime</text>
</a>
</g>
</g>
<!-- Node4&#45;&gt;Node9 -->
<g id="edge8_Node000004_Node000009" class="edge">
<title>Node4&#45;&gt;Node9</title>
<g id="a_edge8_Node000004_Node000009"><a xlink:title=" ">
<path fill="none" stroke="#63b8ff" d="M121.02,-110.09C129.89,-102.47 142.81,-91.37 153.49,-82.2"/>
<polygon fill="#63b8ff" stroke="#63b8ff" points="155.68,-84.93 160.99,-75.76 151.12,-79.62 155.68,-84.93"/>
</a>
</g>
</g>
<!-- Node6 -->
<g id="Node000006" class="node">
<title>Node6</title>
<g id="a_Node000006"><a xlink:title=" ">
<polygon fill="#e0e0e0" stroke="#999999" points="67,-19.25 0,-19.25 0,0 67,0 67,-19.25"/>
<text text-anchor="middle" x="33.5" y="-5.75" font-family="Helvetica,sans-Serif" font-size="10.00">sys/types.h</text>
</a>
</g>
</g>
<!-- Node5&#45;&gt;Node6 -->
<g id="edge5_Node000005_Node000006" class="edge">
<title>Node5&#45;&gt;Node6</title>
<g id="a_edge5_Node000005_Node000006"><a xlink:title=" ">
<path fill="none" stroke="#63b8ff" d="M96.61,-54.84C85.47,-47.04 69.13,-35.59 55.86,-26.29"/>
<polygon fill="#63b8ff" stroke="#63b8ff" points="57.89,-23.44 47.7,-20.57 53.88,-29.18 57.89,-23.44"/>
</a>
</g>
</g>
<!-- Node7 -->
<g id="Node000007" class="node">
<title>Node7</title>
<g id="a_Node000007"><a xlink:title=" ">
<polygon fill="#e0e0e0" stroke="#999999" points="133.62,-19.25 85.38,-19.25 85.38,0 133.62,0 133.62,-19.25"/>
<text text-anchor="middle" x="109.5" y="-5.75" font-family="Helvetica,sans-Serif" font-size="10.00">stdint.h</text>
</a>
</g>
</g>
<!-- Node5&#45;&gt;Node7 -->
<g id="edge6_Node000005_Node000007" class="edge">
<title>Node5&#45;&gt;Node7</title>
<g id="a_edge6_Node000005_Node000007"><a xlink:title=" ">
<path fill="none" stroke="#63b8ff" d="M109.5,-55.08C109.5,-48.57 109.5,-39.42 109.5,-31.12"/>
<polygon fill="#63b8ff" stroke="#63b8ff" points="113,-31.12 109.5,-21.12 106,-31.12 113,-31.12"/>
</a>
</g>
</g>
<!-- Node8 -->
<g id="Node000008" class="node">
<title>Node8</title>
<g id="a_Node000008"><a xlink:title=" ">
<polygon fill="#e0e0e0" stroke="#999999" points="207.38,-19.25 151.62,-19.25 151.62,0 207.38,0 207.38,-19.25"/>
<text text-anchor="middle" x="179.5" y="-5.75" font-family="Helvetica,sans-Serif" font-size="10.00">stdbool.h</text>
</a>
</g>
</g>
<!-- Node5&#45;&gt;Node8 -->
<g id="edge7_Node000005_Node000008" class="edge">
<title>Node5&#45;&gt;Node8</title>
<g id="a_edge7_Node000005_Node000008"><a xlink:title=" ">
<path fill="none" stroke="#63b8ff" d="M121.37,-54.84C131.59,-47.07 146.57,-35.67 158.76,-26.4"/>
<polygon fill="#63b8ff" stroke="#63b8ff" points="160.76,-29.28 166.6,-20.44 156.52,-23.71 160.76,-29.28"/>
</a>
</g>
</g>
</g>
</svg>
