<?xml version="1.0" encoding="UTF-8" standalone="no"?>
<!DOCTYPE svg PUBLIC "-//W3C//DTD SVG 1.1//EN"
 "http://www.w3.org/Graphics/SVG/1.1/DTD/svg11.dtd">
<!-- Generated by graphviz version 10.0.1 (20240210.2158)
 -->
<!-- Title: /Users/hoff/Retro/virtualc64/Emulator/Base/CmdQueue.h Pages: 1 -->
<svg width="705pt" height="425pt"
 viewBox="0.00 0.00 705.36 425.25" xmlns="http://www.w3.org/2000/svg" xmlns:xlink="http://www.w3.org/1999/xlink">
<g id="graph0" class="graph" transform="scale(1 1) rotate(0) translate(4 421.25)">
<title>/Users/hoff/Retro/virtualc64/Emulator/Base/CmdQueue.h</title>
<!-- Node1 -->
<g id="Node000001" class="node">
<title>Node1</title>
<g id="a_Node000001"><a xlink:title=" ">
<polygon fill="#999999" stroke="#666666" points="562.86,-417.25 418.61,-417.25 418.61,-386.75 562.86,-386.75 562.86,-417.25"/>
<text text-anchor="start" x="426.61" y="-403.75" font-family="Helvetica,sans-Serif" font-size="10.00">/Users/hoff/Retro/virtualc64</text>
<text text-anchor="middle" x="490.74" y="-392.5" font-family="Helvetica,sans-Serif" font-size="10.00">/Emulator/Base/CmdQueue.h</text>
</a>
</g>
</g>
<!-- Node2 -->
<g id="Node000002" class="node">
<title>Node2</title>
<g id="a_Node000002"><a xlink:href="_cmd_queue_types_8h.html" target="_top" xlink:title=" ">
<polygon fill="white" stroke="#666666" points="142.74,-295.5 42.74,-295.5 42.74,-276.25 142.74,-276.25 142.74,-295.5"/>
<text text-anchor="middle" x="92.74" y="-282" font-family="Helvetica,sans-Serif" font-size="10.00">CmdQueueTypes.h</text>
</a>
</g>
</g>
<!-- Node1&#45;&gt;Node2 -->
<g id="edge1_Node000001_Node000002" class="edge">
<title>Node1&#45;&gt;Node2</title>
<g id="a_edge1_Node000001_Node000002"><a xlink:title=" ">
<path fill="none" stroke="#63b8ff" d="M438.83,-386.33C403.54,-376.35 355.81,-362.8 313.74,-350.75 251.4,-332.89 179.23,-311.99 134.78,-299.09"/>
<polygon fill="#63b8ff" stroke="#63b8ff" points="135.86,-295.76 125.29,-296.33 133.91,-302.48 135.86,-295.76"/>
</a>
</g>
</g>
<!-- Node14 -->
<g id="Node000014" class="node">
<title>Node14</title>
<g id="a_Node000014"><a xlink:href="_core_object_8h_source.html" target="_top" xlink:title=" ">
<polygon fill="white" stroke="#666666" points="396.61,-350.75 322.86,-350.75 322.86,-331.5 396.61,-331.5 396.61,-350.75"/>
<text text-anchor="middle" x="359.74" y="-337.25" font-family="Helvetica,sans-Serif" font-size="10.00">CoreObject.h</text>
</a>
</g>
</g>
<!-- Node1&#45;&gt;Node14 -->
<g id="edge16_Node000001_Node000014" class="edge">
<title>Node1&#45;&gt;Node14</title>
<g id="a_edge16_Node000001_Node000014"><a xlink:title=" ">
<path fill="none" stroke="#63b8ff" d="M458.02,-386.3C437.2,-376.94 410.44,-364.91 390.1,-355.77"/>
<polygon fill="#63b8ff" stroke="#63b8ff" points="391.76,-352.68 381.21,-351.77 388.89,-359.07 391.76,-352.68"/>
</a>
</g>
</g>
<!-- Node21 -->
<g id="Node000021" class="node">
<title>Node21</title>
<g id="a_Node000021"><a xlink:href="_synchronizable_8h_source.html" target="_top" xlink:title=" ">
<polygon fill="white" stroke="#666666" points="536.24,-350.75 445.24,-350.75 445.24,-331.5 536.24,-331.5 536.24,-350.75"/>
<text text-anchor="middle" x="490.74" y="-337.25" font-family="Helvetica,sans-Serif" font-size="10.00">Synchronizable.h</text>
</a>
</g>
</g>
<!-- Node1&#45;&gt;Node21 -->
<g id="edge26_Node000001_Node000021" class="edge">
<title>Node1&#45;&gt;Node21</title>
<g id="a_edge26_Node000001_Node000021"><a xlink:title=" ">
<path fill="none" stroke="#63b8ff" d="M490.74,-386.45C490.74,-379.21 490.74,-370.34 490.74,-362.44"/>
<polygon fill="#63b8ff" stroke="#63b8ff" points="494.24,-362.71 490.74,-352.71 487.24,-362.71 494.24,-362.71"/>
</a>
</g>
</g>
<!-- Node27 -->
<g id="Node000027" class="node">
<title>Node27</title>
<g id="a_Node000027"><a xlink:href="_ring_buffer_8h_source.html" target="_top" xlink:title=" ">
<polygon fill="white" stroke="#666666" points="633.74,-350.75 563.74,-350.75 563.74,-331.5 633.74,-331.5 633.74,-350.75"/>
<text text-anchor="middle" x="598.74" y="-337.25" font-family="Helvetica,sans-Serif" font-size="10.00">RingBuffer.h</text>
</a>
</g>
</g>
<!-- Node1&#45;&gt;Node27 -->
<g id="edge33_Node000001_Node000027" class="edge">
<title>Node1&#45;&gt;Node27</title>
<g id="a_edge33_Node000001_Node000027"><a xlink:title=" ">
<path fill="none" stroke="#63b8ff" d="M517.71,-386.3C534.32,-377.24 555.52,-365.69 572.06,-356.66"/>
<polygon fill="#63b8ff" stroke="#63b8ff" points="573.74,-359.74 580.84,-351.88 570.39,-353.59 573.74,-359.74"/>
</a>
</g>
</g>
<!-- Node29 -->
<g id="Node000029" class="node">
<title>Node29</title>
<g id="a_Node000029"><a xlink:title=" ">
<polygon fill="#e0e0e0" stroke="#999999" points="697.36,-350.75 652.11,-350.75 652.11,-331.5 697.36,-331.5 697.36,-350.75"/>
<text text-anchor="middle" x="674.74" y="-337.25" font-family="Helvetica,sans-Serif" font-size="10.00">atomic</text>
</a>
</g>
</g>
<!-- Node1&#45;&gt;Node29 -->
<g id="edge36_Node000001_Node000029" class="edge">
<title>Node1&#45;&gt;Node29</title>
<g id="a_edge36_Node000001_Node000029"><a xlink:title=" ">
<path fill="none" stroke="#63b8ff" d="M536.69,-386.3C569.02,-375.95 611.56,-362.34 640.83,-352.97"/>
<polygon fill="#63b8ff" stroke="#63b8ff" points="641.83,-356.33 650.29,-349.95 639.7,-349.66 641.83,-356.33"/>
</a>
</g>
</g>
<!-- Node3 -->
<g id="Node000003" class="node">
<title>Node3</title>
<g id="a_Node000003"><a xlink:href="_aliases_8h_source.html" target="_top" xlink:title=" ">
<polygon fill="white" stroke="#666666" points="111.99,-185 55.49,-185 55.49,-165.75 111.99,-165.75 111.99,-185"/>
<text text-anchor="middle" x="83.74" y="-171.5" font-family="Helvetica,sans-Serif" font-size="10.00">Aliases.h</text>
</a>
</g>
</g>
<!-- Node2&#45;&gt;Node3 -->
<g id="edge2_Node000002_Node000003" class="edge">
<title>Node2&#45;&gt;Node3</title>
<g id="a_edge2_Node000002_Node000003"><a xlink:title=" ">
<path fill="none" stroke="#63b8ff" d="M54.67,-275.91C35.88,-269.35 14.9,-258.34 3.74,-240.25 -9.9,-218.15 18.08,-200.47 44.63,-189.37"/>
<polygon fill="#63b8ff" stroke="#63b8ff" points="45.57,-192.75 53.61,-185.85 43.02,-186.24 45.57,-192.75"/>
</a>
</g>
</g>
<!-- Node11 -->
<g id="Node000011" class="node">
<title>Node11</title>
<g id="a_Node000011"><a xlink:href="_reflection_8h_source.html" target="_top" xlink:title=" ">
<polygon fill="white" stroke="#666666" points="199.99,-185 131.49,-185 131.49,-165.75 199.99,-165.75 199.99,-185"/>
<text text-anchor="middle" x="165.74" y="-171.5" font-family="Helvetica,sans-Serif" font-size="10.00">Reflection.h</text>
</a>
</g>
</g>
<!-- Node2&#45;&gt;Node11 -->
<g id="edge10_Node000002_Node000011" class="edge">
<title>Node2&#45;&gt;Node11</title>
<g id="a_edge10_Node000002_Node000011"><a xlink:title=" ">
<path fill="none" stroke="#63b8ff" d="M98.71,-276C110.63,-258.27 137.6,-218.19 153.46,-194.63"/>
<polygon fill="#63b8ff" stroke="#63b8ff" points="156.16,-196.88 158.83,-186.63 150.35,-192.98 156.16,-196.88"/>
</a>
</g>
</g>
<!-- Node13 -->
<g id="Node000013" class="node">
<title>Node13</title>
<g id="a_Node000013"><a xlink:href="_joystick_types_8h.html" target="_top" xlink:title=" ">
<polygon fill="white" stroke="#666666" points="100.36,-240.25 13.11,-240.25 13.11,-221 100.36,-221 100.36,-240.25"/>
<text text-anchor="middle" x="56.74" y="-226.75" font-family="Helvetica,sans-Serif" font-size="10.00">JoystickTypes.h</text>
</a>
</g>
</g>
<!-- Node2&#45;&gt;Node13 -->
<g id="edge13_Node000002_Node000013" class="edge">
<title>Node2&#45;&gt;Node13</title>
<g id="a_edge13_Node000002_Node000013"><a xlink:title=" ">
<path fill="none" stroke="#63b8ff" d="M86.79,-276.08C82.03,-269.03 75.17,-258.9 69.22,-250.08"/>
<polygon fill="#63b8ff" stroke="#63b8ff" points="72.16,-248.19 63.66,-241.86 66.36,-252.11 72.16,-248.19"/>
</a>
</g>
</g>
<!-- Node4 -->
<g id="Node000004" class="node">
<title>Node4</title>
<g id="a_Node000004"><a xlink:href="_macros_8h_source.html" target="_top" xlink:title=" ">
<polygon fill="white" stroke="#666666" points="120.99,-129.75 64.49,-129.75 64.49,-110.5 120.99,-110.5 120.99,-129.75"/>
<text text-anchor="middle" x="92.74" y="-116.25" font-family="Helvetica,sans-Serif" font-size="10.00">Macros.h</text>
</a>
</g>
</g>
<!-- Node3&#45;&gt;Node4 -->
<g id="edge3_Node000003_Node000004" class="edge">
<title>Node3&#45;&gt;Node4</title>
<g id="a_edge3_Node000003_Node000004"><a xlink:title=" ">
<path fill="none" stroke="#63b8ff" d="M85.22,-165.58C86.34,-158.99 87.91,-149.71 89.32,-141.32"/>
<polygon fill="#63b8ff" stroke="#63b8ff" points="92.75,-142.05 90.97,-131.6 85.85,-140.88 92.75,-142.05"/>
</a>
</g>
</g>
<!-- Node5 -->
<g id="Node000005" class="node">
<title>Node5</title>
<g id="a_Node000005"><a xlink:href="_types_8h_source.html" target="_top" xlink:title=" ">
<polygon fill="white" stroke="#666666" points="274.99,-74.5 224.49,-74.5 224.49,-55.25 274.99,-55.25 274.99,-74.5"/>
<text text-anchor="middle" x="249.74" y="-61" font-family="Helvetica,sans-Serif" font-size="10.00">Types.h</text>
</a>
</g>
</g>
<!-- Node4&#45;&gt;Node5 -->
<g id="edge4_Node000004_Node000005" class="edge">
<title>Node4&#45;&gt;Node5</title>
<g id="a_edge4_Node000004_Node000005"><a xlink:title=" ">
<path fill="none" stroke="#63b8ff" d="M119.37,-110.09C145.16,-101.34 184.49,-88.01 213.2,-78.27"/>
<polygon fill="#63b8ff" stroke="#63b8ff" points="214.24,-81.61 222.58,-75.08 211.99,-74.98 214.24,-81.61"/>
</a>
</g>
</g>
<!-- Node6 -->
<g id="Node000006" class="node">
<title>Node6</title>
<g id="a_Node000006"><a xlink:title=" ">
<polygon fill="#e0e0e0" stroke="#999999" points="145.24,-19.25 78.24,-19.25 78.24,0 145.24,0 145.24,-19.25"/>
<text text-anchor="middle" x="111.74" y="-5.75" font-family="Helvetica,sans-Serif" font-size="10.00">sys/types.h</text>
</a>
</g>
</g>
<!-- Node5&#45;&gt;Node6 -->
<g id="edge5_Node000005_Node000006" class="edge">
<title>Node5&#45;&gt;Node6</title>
<g id="a_edge5_Node000005_Node000006"><a xlink:title=" ">
<path fill="none" stroke="#63b8ff" d="M226.33,-54.84C204.22,-46.31 170.82,-33.42 145.77,-23.76"/>
<polygon fill="#63b8ff" stroke="#63b8ff" points="147.26,-20.58 136.67,-20.25 144.74,-27.11 147.26,-20.58"/>
</a>
</g>
</g>
<!-- Node7 -->
<g id="Node000007" class="node">
<title>Node7</title>
<g id="a_Node000007"><a xlink:title=" ">
<polygon fill="#e0e0e0" stroke="#999999" points="211.86,-19.25 163.61,-19.25 163.61,0 211.86,0 211.86,-19.25"/>
<text text-anchor="middle" x="187.74" y="-5.75" font-family="Helvetica,sans-Serif" font-size="10.00">stdint.h</text>
</a>
</g>
</g>
<!-- Node5&#45;&gt;Node7 -->
<g id="edge6_Node000005_Node000007" class="edge">
<title>Node5&#45;&gt;Node7</title>
<g id="a_edge6_Node000005_Node000007"><a xlink:title=" ">
<path fill="none" stroke="#63b8ff" d="M239.22,-54.84C230.35,-47.22 217.42,-36.12 206.75,-26.95"/>
<polygon fill="#63b8ff" stroke="#63b8ff" points="209.11,-24.37 199.25,-20.51 204.55,-29.68 209.11,-24.37"/>
</a>
</g>
</g>
<!-- Node8 -->
<g id="Node000008" class="node">
<title>Node8</title>
<g id="a_Node000008"><a xlink:title=" ">
<polygon fill="#e0e0e0" stroke="#999999" points="269.74,-19.25 229.74,-19.25 229.74,0 269.74,0 269.74,-19.25"/>
<text text-anchor="middle" x="249.74" y="-5.75" font-family="Helvetica,sans-Serif" font-size="10.00">string</text>
</a>
</g>
</g>
<!-- Node5&#45;&gt;Node8 -->
<g id="edge7_Node000005_Node000008" class="edge">
<title>Node5&#45;&gt;Node8</title>
<g id="a_edge7_Node000005_Node000008"><a xlink:title=" ">
<path fill="none" stroke="#63b8ff" d="M249.74,-55.08C249.74,-48.57 249.74,-39.42 249.74,-31.12"/>
<polygon fill="#63b8ff" stroke="#63b8ff" points="253.24,-31.12 249.74,-21.12 246.24,-31.12 253.24,-31.12"/>
</a>
</g>
</g>
<!-- Node9 -->
<g id="Node000009" class="node">
<title>Node9</title>
<g id="a_Node000009"><a xlink:title=" ">
<polygon fill="#e0e0e0" stroke="#999999" points="333.36,-19.25 288.11,-19.25 288.11,0 333.36,0 333.36,-19.25"/>
<text text-anchor="middle" x="310.74" y="-5.75" font-family="Helvetica,sans-Serif" font-size="10.00">cstring</text>
</a>
</g>
</g>
<!-- Node5&#45;&gt;Node9 -->
<g id="edge8_Node000005_Node000009" class="edge">
<title>Node5&#45;&gt;Node9</title>
<g id="a_edge8_Node000005_Node000009"><a xlink:title=" ">
<path fill="none" stroke="#63b8ff" d="M260.08,-54.84C268.81,-47.22 281.53,-36.12 292.03,-26.95"/>
<polygon fill="#63b8ff" stroke="#63b8ff" points="294.17,-29.73 299.4,-20.52 289.57,-24.46 294.17,-29.73"/>
</a>
</g>
</g>
<!-- Node10 -->
<g id="Node000010" class="node">
<title>Node10</title>
<g id="a_Node000010"><a xlink:title=" ">
<polygon fill="#e0e0e0" stroke="#999999" points="401.61,-19.25 351.86,-19.25 351.86,0 401.61,0 401.61,-19.25"/>
<text text-anchor="middle" x="376.74" y="-5.75" font-family="Helvetica,sans-Serif" font-size="10.00">optional</text>
</a>
</g>
</g>
<!-- Node5&#45;&gt;Node10 -->
<g id="edge9_Node000005_Node000010" class="edge">
<title>Node5&#45;&gt;Node10</title>
<g id="a_edge9_Node000005_Node000010"><a xlink:title=" ">
<path fill="none" stroke="#63b8ff" d="M271.28,-54.84C291.35,-46.43 321.54,-33.77 344.48,-24.15"/>
<polygon fill="#63b8ff" stroke="#63b8ff" points="345.82,-27.38 353.69,-20.29 343.11,-20.93 345.82,-27.38"/>
</a>
</g>
</g>
<!-- Node11&#45;&gt;Node5 -->
<g id="edge11_Node000011_Node000005" class="edge">
<title>Node11&#45;&gt;Node5</title>
<g id="a_edge11_Node000011_Node000005"><a xlink:title=" ">
<path fill="none" stroke="#63b8ff" d="M172.61,-165.5C186.39,-147.69 217.64,-107.33 235.85,-83.81"/>
<polygon fill="#63b8ff" stroke="#63b8ff" points="238.49,-86.12 241.84,-76.07 232.95,-81.84 238.49,-86.12"/>
</a>
</g>
</g>
<!-- Node12 -->
<g id="Node000012" class="node">
<title>Node12</title>
<g id="a_Node000012"><a xlink:title=" ">
<polygon fill="#e0e0e0" stroke="#999999" points="183.11,-129.75 148.36,-129.75 148.36,-110.5 183.11,-110.5 183.11,-129.75"/>
<text text-anchor="middle" x="165.74" y="-116.25" font-family="Helvetica,sans-Serif" font-size="10.00">map</text>
</a>
</g>
</g>
<!-- Node11&#45;&gt;Node12 -->
<g id="edge12_Node000011_Node000012" class="edge">
<title>Node11&#45;&gt;Node12</title>
<g id="a_edge12_Node000011_Node000012"><a xlink:title=" ">
<path fill="none" stroke="#63b8ff" d="M165.74,-165.58C165.74,-159.07 165.74,-149.92 165.74,-141.62"/>
<polygon fill="#63b8ff" stroke="#63b8ff" points="169.24,-141.62 165.74,-131.62 162.24,-141.62 169.24,-141.62"/>
</a>
</g>
</g>
<!-- Node13&#45;&gt;Node3 -->
<g id="edge14_Node000013_Node000003" class="edge">
<title>Node13&#45;&gt;Node3</title>
<g id="a_edge14_Node000013_Node000003"><a xlink:title=" ">
<path fill="none" stroke="#63b8ff" d="M61.19,-220.83C64.69,-213.94 69.68,-204.09 74.08,-195.41"/>
<polygon fill="#63b8ff" stroke="#63b8ff" points="77.1,-197.21 78.5,-186.71 70.85,-194.05 77.1,-197.21"/>
</a>
</g>
</g>
<!-- Node13&#45;&gt;Node11 -->
<g id="edge15_Node000013_Node000011" class="edge">
<title>Node13&#45;&gt;Node11</title>
<g id="a_edge15_Node000013_Node000011"><a xlink:title=" ">
<path fill="none" stroke="#63b8ff" d="M75.23,-220.59C92.14,-212.33 117.42,-199.98 136.97,-190.43"/>
<polygon fill="#63b8ff" stroke="#63b8ff" points="138.35,-193.65 145.79,-186.12 135.27,-187.36 138.35,-193.65"/>
</a>
</g>
</g>
<!-- Node15 -->
<g id="Node000015" class="node">
<title>Node15</title>
<g id="a_Node000015"><a xlink:href="_error_8h.html" target="_top" xlink:title=" ">
<polygon fill="white" stroke="#666666" points="302.99,-295.5 258.49,-295.5 258.49,-276.25 302.99,-276.25 302.99,-295.5"/>
<text text-anchor="middle" x="280.74" y="-282" font-family="Helvetica,sans-Serif" font-size="10.00">Error.h</text>
</a>
</g>
</g>
<!-- Node14&#45;&gt;Node15 -->
<g id="edge17_Node000014_Node000015" class="edge">
<title>Node14&#45;&gt;Node15</title>
<g id="a_edge17_Node000014_Node000015"><a xlink:title=" ">
<path fill="none" stroke="#63b8ff" d="M346.33,-331.09C334.64,-323.21 317.44,-311.61 303.58,-302.27"/>
<polygon fill="#63b8ff" stroke="#63b8ff" points="305.71,-299.49 295.46,-296.8 301.79,-305.29 305.71,-299.49"/>
</a>
</g>
</g>
<!-- Node19 -->
<g id="Node000019" class="node">
<title>Node19</title>
<g id="a_Node000019"><a xlink:href="_inspectable_8h_source.html" target="_top" xlink:title=" ">
<polygon fill="white" stroke="#666666" points="396.99,-295.5 322.49,-295.5 322.49,-276.25 396.99,-276.25 396.99,-295.5"/>
<text text-anchor="middle" x="359.74" y="-282" font-family="Helvetica,sans-Serif" font-size="10.00">Inspectable.h</text>
</a>
</g>
</g>
<!-- Node14&#45;&gt;Node19 -->
<g id="edge24_Node000014_Node000019" class="edge">
<title>Node14&#45;&gt;Node19</title>
<g id="a_edge24_Node000014_Node000019"><a xlink:title=" ">
<path fill="none" stroke="#63b8ff" d="M359.74,-331.33C359.74,-324.82 359.74,-315.67 359.74,-307.37"/>
<polygon fill="#63b8ff" stroke="#63b8ff" points="363.24,-307.37 359.74,-297.37 356.24,-307.37 363.24,-307.37"/>
</a>
</g>
</g>
<!-- Node16 -->
<g id="Node000016" class="node">
<title>Node16</title>
<g id="a_Node000016"><a xlink:href="_error_types_8h.html" target="_top" xlink:title=" ">
<polygon fill="white" stroke="#666666" points="228.49,-240.25 156.99,-240.25 156.99,-221 228.49,-221 228.49,-240.25"/>
<text text-anchor="middle" x="192.74" y="-226.75" font-family="Helvetica,sans-Serif" font-size="10.00">ErrorTypes.h</text>
</a>
</g>
</g>
<!-- Node15&#45;&gt;Node16 -->
<g id="edge18_Node000015_Node000016" class="edge">
<title>Node15&#45;&gt;Node16</title>
<g id="a_edge18_Node000015_Node000016"><a xlink:title=" ">
<path fill="none" stroke="#63b8ff" d="M265.81,-275.84C252.53,-267.81 232.87,-255.91 217.28,-246.48"/>
<polygon fill="#63b8ff" stroke="#63b8ff" points="219.4,-243.67 209.03,-241.49 215.78,-249.66 219.4,-243.67"/>
</a>
</g>
</g>
<!-- Node17 -->
<g id="Node000017" class="node">
<title>Node17</title>
<g id="a_Node000017"><a xlink:href="_exception_8h_source.html" target="_top" xlink:title=" ">
<polygon fill="white" stroke="#666666" points="314.61,-240.25 246.86,-240.25 246.86,-221 314.61,-221 314.61,-240.25"/>
<text text-anchor="middle" x="280.74" y="-226.75" font-family="Helvetica,sans-Serif" font-size="10.00">Exception.h</text>
</a>
</g>
</g>
<!-- Node15&#45;&gt;Node17 -->
<g id="edge21_Node000015_Node000017" class="edge">
<title>Node15&#45;&gt;Node17</title>
<g id="a_edge21_Node000015_Node000017"><a xlink:title=" ">
<path fill="none" stroke="#63b8ff" d="M280.74,-276.08C280.74,-269.57 280.74,-260.42 280.74,-252.12"/>
<polygon fill="#63b8ff" stroke="#63b8ff" points="284.24,-252.12 280.74,-242.12 277.24,-252.12 284.24,-252.12"/>
</a>
</g>
</g>
<!-- Node16&#45;&gt;Node3 -->
<g id="edge19_Node000016_Node000003" class="edge">
<title>Node16&#45;&gt;Node3</title>
<g id="a_edge19_Node000016_Node000003"><a xlink:title=" ">
<path fill="none" stroke="#63b8ff" d="M174.25,-220.59C157.33,-212.33 132.05,-199.98 112.5,-190.43"/>
<polygon fill="#63b8ff" stroke="#63b8ff" points="114.2,-187.36 103.68,-186.12 111.13,-193.65 114.2,-187.36"/>
</a>
</g>
</g>
<!-- Node16&#45;&gt;Node11 -->
<g id="edge20_Node000016_Node000011" class="edge">
<title>Node16&#45;&gt;Node11</title>
<g id="a_edge20_Node000016_Node000011"><a xlink:title=" ">
<path fill="none" stroke="#63b8ff" d="M188.28,-220.83C184.78,-213.94 179.79,-204.09 175.39,-195.41"/>
<polygon fill="#63b8ff" stroke="#63b8ff" points="178.62,-194.05 170.98,-186.71 172.38,-197.21 178.62,-194.05"/>
</a>
</g>
</g>
<!-- Node17&#45;&gt;Node5 -->
<g id="edge22_Node000017_Node000005" class="edge">
<title>Node17&#45;&gt;Node5</title>
<g id="a_edge22_Node000017_Node000005"><a xlink:title=" ">
<path fill="none" stroke="#63b8ff" d="M278.07,-220.8C275.43,-211.85 271.42,-197.55 268.74,-185 261.39,-150.61 255.51,-110.09 252.33,-86.27"/>
<polygon fill="#63b8ff" stroke="#63b8ff" points="255.8,-85.87 251.04,-76.4 248.86,-86.77 255.8,-85.87"/>
</a>
</g>
</g>
<!-- Node18 -->
<g id="Node000018" class="node">
<title>Node18</title>
<g id="a_Node000018"><a xlink:title=" ">
<polygon fill="#e0e0e0" stroke="#999999" points="335.74,-185 277.74,-185 277.74,-165.75 335.74,-165.75 335.74,-185"/>
<text text-anchor="middle" x="306.74" y="-171.5" font-family="Helvetica,sans-Serif" font-size="10.00">exception</text>
</a>
</g>
</g>
<!-- Node17&#45;&gt;Node18 -->
<g id="edge23_Node000017_Node000018" class="edge">
<title>Node17&#45;&gt;Node18</title>
<g id="a_edge23_Node000017_Node000018"><a xlink:title=" ">
<path fill="none" stroke="#63b8ff" d="M285.03,-220.83C288.36,-214.01 293.1,-204.31 297.3,-195.7"/>
<polygon fill="#63b8ff" stroke="#63b8ff" points="300.44,-197.24 301.69,-186.72 294.15,-194.17 300.44,-197.24"/>
</a>
</g>
</g>
<!-- Node20 -->
<g id="Node000020" class="node">
<title>Node20</title>
<g id="a_Node000020"><a xlink:title=" ">
<polygon fill="#e0e0e0" stroke="#999999" points="386.49,-240.25 332.99,-240.25 332.99,-221 386.49,-221 386.49,-240.25"/>
<text text-anchor="middle" x="359.74" y="-226.75" font-family="Helvetica,sans-Serif" font-size="10.00">iostream</text>
</a>
</g>
</g>
<!-- Node19&#45;&gt;Node20 -->
<g id="edge25_Node000019_Node000020" class="edge">
<title>Node19&#45;&gt;Node20</title>
<g id="a_edge25_Node000019_Node000020"><a xlink:title=" ">
<path fill="none" stroke="#63b8ff" d="M359.74,-276.08C359.74,-269.57 359.74,-260.42 359.74,-252.12"/>
<polygon fill="#63b8ff" stroke="#63b8ff" points="363.24,-252.12 359.74,-242.12 356.24,-252.12 363.24,-252.12"/>
</a>
</g>
</g>
<!-- Node22 -->
<g id="Node000022" class="node">
<title>Node22</title>
<g id="a_Node000022"><a xlink:href="_concurrency_8h_source.html" target="_top" xlink:title=" ">
<polygon fill="white" stroke="#666666" points="529.86,-295.5 451.61,-295.5 451.61,-276.25 529.86,-276.25 529.86,-295.5"/>
<text text-anchor="middle" x="490.74" y="-282" font-family="Helvetica,sans-Serif" font-size="10.00">Concurrency.h</text>
</a>
</g>
</g>
<!-- Node21&#45;&gt;Node22 -->
<g id="edge27_Node000021_Node000022" class="edge">
<title>Node21&#45;&gt;Node22</title>
<g id="a_edge27_Node000021_Node000022"><a xlink:title=" ">
<path fill="none" stroke="#63b8ff" d="M490.74,-331.33C490.74,-324.82 490.74,-315.67 490.74,-307.37"/>
<polygon fill="#63b8ff" stroke="#63b8ff" points="494.24,-307.37 490.74,-297.37 487.24,-307.37 494.24,-307.37"/>
</a>
</g>
</g>
<!-- Node23 -->
<g id="Node000023" class="node">
<title>Node23</title>
<g id="a_Node000023"><a xlink:href="_chrono_8h_source.html" target="_top" xlink:title=" ">
<polygon fill="white" stroke="#666666" points="518.61,-240.25 462.86,-240.25 462.86,-221 518.61,-221 518.61,-240.25"/>
<text text-anchor="middle" x="490.74" y="-226.75" font-family="Helvetica,sans-Serif" font-size="10.00">Chrono.h</text>
</a>
</g>
</g>
<!-- Node22&#45;&gt;Node23 -->
<g id="edge28_Node000022_Node000023" class="edge">
<title>Node22&#45;&gt;Node23</title>
<g id="a_edge28_Node000022_Node000023"><a xlink:title=" ">
<path fill="none" stroke="#63b8ff" d="M490.74,-276.08C490.74,-269.57 490.74,-260.42 490.74,-252.12"/>
<polygon fill="#63b8ff" stroke="#63b8ff" points="494.24,-252.12 490.74,-242.12 487.24,-252.12 494.24,-252.12"/>
</a>
</g>
</g>
<!-- Node25 -->
<g id="Node000025" class="node">
<title>Node25</title>
<g id="a_Node000025"><a xlink:title=" ">
<polygon fill="#e0e0e0" stroke="#999999" points="579.24,-240.25 536.24,-240.25 536.24,-221 579.24,-221 579.24,-240.25"/>
<text text-anchor="middle" x="557.74" y="-226.75" font-family="Helvetica,sans-Serif" font-size="10.00">thread</text>
</a>
</g>
</g>
<!-- Node22&#45;&gt;Node25 -->
<g id="edge31_Node000022_Node000025" class="edge">
<title>Node22&#45;&gt;Node25</title>
<g id="a_edge31_Node000022_Node000025"><a xlink:title=" ">
<path fill="none" stroke="#63b8ff" d="M502.1,-275.84C511.79,-268.15 525.94,-256.9 537.54,-247.68"/>
<polygon fill="#63b8ff" stroke="#63b8ff" points="539.7,-250.43 545.35,-241.47 535.35,-244.95 539.7,-250.43"/>
</a>
</g>
</g>
<!-- Node26 -->
<g id="Node000026" class="node">
<title>Node26</title>
<g id="a_Node000026"><a xlink:title=" ">
<polygon fill="#e0e0e0" stroke="#999999" points="445.11,-240.25 404.36,-240.25 404.36,-221 445.11,-221 445.11,-240.25"/>
<text text-anchor="middle" x="424.74" y="-226.75" font-family="Helvetica,sans-Serif" font-size="10.00">future</text>
</a>
</g>
</g>
<!-- Node22&#45;&gt;Node26 -->
<g id="edge32_Node000022_Node000026" class="edge">
<title>Node22&#45;&gt;Node26</title>
<g id="a_edge32_Node000022_Node000026"><a xlink:title=" ">
<path fill="none" stroke="#63b8ff" d="M479.54,-275.84C470,-268.15 456.06,-256.9 444.63,-247.68"/>
<polygon fill="#63b8ff" stroke="#63b8ff" points="446.92,-245.03 436.94,-241.48 442.53,-250.48 446.92,-245.03"/>
</a>
</g>
</g>
<!-- Node23&#45;&gt;Node5 -->
<g id="edge29_Node000023_Node000005" class="edge">
<title>Node23&#45;&gt;Node5</title>
<g id="a_edge29_Node000023_Node000005"><a xlink:title=" ">
<path fill="none" stroke="#63b8ff" d="M490.37,-220.67C489.35,-207.2 485.6,-181.6 471.74,-165.75 422.54,-109.5 335.39,-83.3 286.19,-72.48"/>
<polygon fill="#63b8ff" stroke="#63b8ff" points="287.11,-69.1 276.61,-70.48 285.68,-75.95 287.11,-69.1"/>
</a>
</g>
</g>
<!-- Node24 -->
<g id="Node000024" class="node">
<title>Node24</title>
<g id="a_Node000024"><a xlink:title=" ">
<polygon fill="#e0e0e0" stroke="#999999" points="462.74,-185 422.74,-185 422.74,-165.75 462.74,-165.75 462.74,-185"/>
<text text-anchor="middle" x="442.74" y="-171.5" font-family="Helvetica,sans-Serif" font-size="10.00">ctime</text>
</a>
</g>
</g>
<!-- Node23&#45;&gt;Node24 -->
<g id="edge30_Node000023_Node000024" class="edge">
<title>Node23&#45;&gt;Node24</title>
<g id="a_edge30_Node000023_Node000024"><a xlink:title=" ">
<path fill="none" stroke="#63b8ff" d="M482.81,-220.83C476.18,-213.48 466.52,-202.76 458.35,-193.69"/>
<polygon fill="#63b8ff" stroke="#63b8ff" points="461.14,-191.57 451.85,-186.48 455.94,-196.25 461.14,-191.57"/>
</a>
</g>
</g>
<!-- Node27&#45;&gt;Node5 -->
<g id="edge34_Node000027_Node000005" class="edge">
<title>Node27&#45;&gt;Node5</title>
<g id="a_edge34_Node000027_Node000005"><a xlink:title=" ">
<path fill="none" stroke="#63b8ff" d="M599.99,-331.14C602.46,-312.59 607.74,-268.67 607.74,-231.62 607.74,-231.62 607.74,-231.62 607.74,-174.38 607.74,-107.8 378.14,-78.27 286.68,-69.15"/>
<polygon fill="#63b8ff" stroke="#63b8ff" points="287.28,-65.69 276.99,-68.21 286.61,-72.66 287.28,-65.69"/>
</a>
</g>
</g>
<!-- Node28 -->
<g id="Node000028" class="node">
<title>Node28</title>
<g id="a_Node000028"><a xlink:title=" ">
<polygon fill="#e0e0e0" stroke="#999999" points="675.36,-295.5 636.11,-295.5 636.11,-276.25 675.36,-276.25 675.36,-295.5"/>
<text text-anchor="middle" x="655.74" y="-282" font-family="Helvetica,sans-Serif" font-size="10.00">utility</text>
</a>
</g>
</g>
<!-- Node27&#45;&gt;Node28 -->
<g id="edge35_Node000027_Node000028" class="edge">
<title>Node27&#45;&gt;Node28</title>
<g id="a_edge35_Node000027_Node000028"><a xlink:title=" ">
<path fill="none" stroke="#63b8ff" d="M608.41,-331.09C616.48,-323.55 628.2,-312.6 637.96,-303.48"/>
<polygon fill="#63b8ff" stroke="#63b8ff" points="640.19,-306.19 645.1,-296.81 635.41,-301.08 640.19,-306.19"/>
</a>
</g>
</g>
</g>
</svg>
