<?xml version="1.0" encoding="UTF-8" standalone="no"?>
<!DOCTYPE svg PUBLIC "-//W3C//DTD SVG 1.1//EN"
 "http://www.w3.org/Graphics/SVG/1.1/DTD/svg11.dtd">
<!-- Generated by graphviz version 10.0.1 (20240210.2158)
 -->
<!-- Title: /Users/hoff/Retro/virtualc64/Emulator/Base/CmdQueueTypes.h Pages: 1 -->
<svg width="457pt" height="315pt"
 viewBox="0.00 0.00 456.50 314.75" xmlns="http://www.w3.org/2000/svg" xmlns:xlink="http://www.w3.org/1999/xlink">
<g id="graph0" class="graph" transform="scale(1 1) rotate(0) translate(4 310.75)">
<title>/Users/hoff/Retro/virtualc64/Emulator/Base/CmdQueueTypes.h</title>
<!-- Node1 -->
<g id="Node000001" class="node">
<title>Node1</title>
<g id="a_Node000001"><a xlink:title=" ">
<polygon fill="#999999" stroke="#666666" points="200.88,-306.75 30.38,-306.75 30.38,-276.25 200.88,-276.25 200.88,-306.75"/>
<text text-anchor="start" x="38.38" y="-293.25" font-family="Helvetica,sans-Serif" font-size="10.00">/Users/hoff/Retro/virtualc64</text>
<text text-anchor="middle" x="115.62" y="-282" font-family="Helvetica,sans-Serif" font-size="10.00">/Emulator/Base/CmdQueueTypes.h</text>
</a>
</g>
</g>
<!-- Node2 -->
<g id="Node000002" class="node">
<title>Node2</title>
<g id="a_Node000002"><a xlink:href="_joystick_types_8h.html" target="_top" xlink:title=" ">
<polygon fill="white" stroke="#666666" points="87.25,-240.25 0,-240.25 0,-221 87.25,-221 87.25,-240.25"/>
<text text-anchor="middle" x="43.62" y="-226.75" font-family="Helvetica,sans-Serif" font-size="10.00">JoystickTypes.h</text>
</a>
</g>
</g>
<!-- Node1&#45;&gt;Node2 -->
<g id="edge1_Node000001_Node000002" class="edge">
<title>Node1&#45;&gt;Node2</title>
<g id="a_edge1_Node000001_Node000002"><a xlink:title=" ">
<path fill="none" stroke="#63b8ff" d="M97.83,-275.95C87.39,-267.41 74.19,-256.62 63.42,-247.81"/>
<polygon fill="#63b8ff" stroke="#63b8ff" points="65.85,-245.28 55.9,-241.66 61.42,-250.7 65.85,-245.28"/>
</a>
</g>
</g>
<!-- Node3 -->
<g id="Node000003" class="node">
<title>Node3</title>
<g id="a_Node000003"><a xlink:href="_reflection_8h_source.html" target="_top" xlink:title=" ">
<polygon fill="white" stroke="#666666" points="195.88,-129.75 127.38,-129.75 127.38,-110.5 195.88,-110.5 195.88,-129.75"/>
<text text-anchor="middle" x="161.62" y="-116.25" font-family="Helvetica,sans-Serif" font-size="10.00">Reflection.h</text>
</a>
</g>
</g>
<!-- Node1&#45;&gt;Node3 -->
<g id="edge11_Node000001_Node000003" class="edge">
<title>Node1&#45;&gt;Node3</title>
<g id="a_edge11_Node000001_Node000003"><a xlink:title=" ">
<path fill="none" stroke="#63b8ff" d="M116.24,-275.85C117.6,-252.09 121.97,-203.96 135.62,-165.75 138.86,-156.69 143.95,-147.39 148.77,-139.64"/>
<polygon fill="#63b8ff" stroke="#63b8ff" points="151.58,-141.75 154.15,-131.47 145.73,-137.9 151.58,-141.75"/>
</a>
</g>
</g>
<!-- Node12 -->
<g id="Node000012" class="node">
<title>Node12</title>
<g id="a_Node000012"><a xlink:href="_option_8h.html" target="_top" xlink:title=" ">
<polygon fill="white" stroke="#666666" points="251,-240.25 198.25,-240.25 198.25,-221 251,-221 251,-240.25"/>
<text text-anchor="middle" x="224.62" y="-226.75" font-family="Helvetica,sans-Serif" font-size="10.00">Option.h</text>
</a>
</g>
</g>
<!-- Node1&#45;&gt;Node12 -->
<g id="edge12_Node000001_Node000012" class="edge">
<title>Node1&#45;&gt;Node12</title>
<g id="a_edge12_Node000001_Node000012"><a xlink:title=" ">
<path fill="none" stroke="#63b8ff" d="M142.85,-275.8C159.77,-266.66 181.41,-254.97 198.18,-245.91"/>
<polygon fill="#63b8ff" stroke="#63b8ff" points="199.44,-249.21 206.58,-241.37 196.12,-243.05 199.44,-249.21"/>
</a>
</g>
</g>
<!-- Node2&#45;&gt;Node3 -->
<g id="edge2_Node000002_Node000003" class="edge">
<title>Node2&#45;&gt;Node3</title>
<g id="a_edge2_Node000002_Node000003"><a xlink:title=" ">
<path fill="none" stroke="#63b8ff" d="M50.64,-220.87C61.09,-208.08 81.65,-183.86 101.62,-165.75 113.23,-155.23 127.22,-144.71 138.78,-136.53"/>
<polygon fill="#63b8ff" stroke="#63b8ff" points="140.72,-139.45 146.94,-130.87 136.73,-133.7 140.72,-139.45"/>
</a>
</g>
</g>
<!-- Node4 -->
<g id="Node000004" class="node">
<title>Node4</title>
<g id="a_Node000004"><a xlink:href="_types_8h_source.html" target="_top" xlink:title=" ">
<polygon fill="white" stroke="#666666" points="321.88,-74.5 271.38,-74.5 271.38,-55.25 321.88,-55.25 321.88,-74.5"/>
<text text-anchor="middle" x="296.62" y="-61" font-family="Helvetica,sans-Serif" font-size="10.00">Types.h</text>
</a>
</g>
</g>
<!-- Node3&#45;&gt;Node4 -->
<g id="edge3_Node000003_Node000004" class="edge">
<title>Node3&#45;&gt;Node4</title>
<g id="a_edge3_Node000003_Node000004"><a xlink:title=" ">
<path fill="none" stroke="#63b8ff" d="M184.53,-110.09C206.05,-101.6 238.54,-88.79 263,-79.14"/>
<polygon fill="#63b8ff" stroke="#63b8ff" points="264.19,-82.43 272.2,-75.51 261.62,-75.92 264.19,-82.43"/>
</a>
</g>
</g>
<!-- Node10 -->
<g id="Node000010" class="node">
<title>Node10</title>
<g id="a_Node000010"><a xlink:title=" ">
<polygon fill="#e0e0e0" stroke="#999999" points="253.62,-74.5 195.62,-74.5 195.62,-55.25 253.62,-55.25 253.62,-74.5"/>
<text text-anchor="middle" x="224.62" y="-61" font-family="Helvetica,sans-Serif" font-size="10.00">functional</text>
</a>
</g>
</g>
<!-- Node3&#45;&gt;Node10 -->
<g id="edge9_Node000003_Node000010" class="edge">
<title>Node3&#45;&gt;Node10</title>
<g id="a_edge9_Node000003_Node000010"><a xlink:title=" ">
<path fill="none" stroke="#63b8ff" d="M172.31,-110.09C181.33,-102.47 194.46,-91.37 205.31,-82.2"/>
<polygon fill="#63b8ff" stroke="#63b8ff" points="207.56,-84.88 212.94,-75.75 203.04,-79.53 207.56,-84.88"/>
</a>
</g>
</g>
<!-- Node11 -->
<g id="Node000011" class="node">
<title>Node11</title>
<g id="a_Node000011"><a xlink:title=" ">
<polygon fill="#e0e0e0" stroke="#999999" points="178,-74.5 143.25,-74.5 143.25,-55.25 178,-55.25 178,-74.5"/>
<text text-anchor="middle" x="160.62" y="-61" font-family="Helvetica,sans-Serif" font-size="10.00">map</text>
</a>
</g>
</g>
<!-- Node3&#45;&gt;Node11 -->
<g id="edge10_Node000003_Node000011" class="edge">
<title>Node3&#45;&gt;Node11</title>
<g id="a_edge10_Node000003_Node000011"><a xlink:title=" ">
<path fill="none" stroke="#63b8ff" d="M161.46,-110.33C161.34,-103.82 161.17,-94.67 161.01,-86.37"/>
<polygon fill="#63b8ff" stroke="#63b8ff" points="164.51,-86.3 160.82,-76.37 157.51,-86.44 164.51,-86.3"/>
</a>
</g>
</g>
<!-- Node5 -->
<g id="Node000005" class="node">
<title>Node5</title>
<g id="a_Node000005"><a xlink:title=" ">
<polygon fill="#e0e0e0" stroke="#999999" points="192.12,-19.25 125.12,-19.25 125.12,0 192.12,0 192.12,-19.25"/>
<text text-anchor="middle" x="158.62" y="-5.75" font-family="Helvetica,sans-Serif" font-size="10.00">sys/types.h</text>
</a>
</g>
</g>
<!-- Node4&#45;&gt;Node5 -->
<g id="edge4_Node000004_Node000005" class="edge">
<title>Node4&#45;&gt;Node5</title>
<g id="a_edge4_Node000004_Node000005"><a xlink:title=" ">
<path fill="none" stroke="#63b8ff" d="M273.22,-54.84C251.11,-46.31 217.71,-33.42 192.66,-23.76"/>
<polygon fill="#63b8ff" stroke="#63b8ff" points="194.15,-20.58 183.56,-20.25 191.63,-27.11 194.15,-20.58"/>
</a>
</g>
</g>
<!-- Node6 -->
<g id="Node000006" class="node">
<title>Node6</title>
<g id="a_Node000006"><a xlink:title=" ">
<polygon fill="#e0e0e0" stroke="#999999" points="258.75,-19.25 210.5,-19.25 210.5,0 258.75,0 258.75,-19.25"/>
<text text-anchor="middle" x="234.62" y="-5.75" font-family="Helvetica,sans-Serif" font-size="10.00">stdint.h</text>
</a>
</g>
</g>
<!-- Node4&#45;&gt;Node6 -->
<g id="edge5_Node000004_Node000006" class="edge">
<title>Node4&#45;&gt;Node6</title>
<g id="a_edge5_Node000004_Node000006"><a xlink:title=" ">
<path fill="none" stroke="#63b8ff" d="M286.11,-54.84C277.24,-47.22 264.31,-36.12 253.64,-26.95"/>
<polygon fill="#63b8ff" stroke="#63b8ff" points="256,-24.37 246.14,-20.51 251.44,-29.68 256,-24.37"/>
</a>
</g>
</g>
<!-- Node7 -->
<g id="Node000007" class="node">
<title>Node7</title>
<g id="a_Node000007"><a xlink:title=" ">
<polygon fill="#e0e0e0" stroke="#999999" points="316.62,-19.25 276.62,-19.25 276.62,0 316.62,0 316.62,-19.25"/>
<text text-anchor="middle" x="296.62" y="-5.75" font-family="Helvetica,sans-Serif" font-size="10.00">string</text>
</a>
</g>
</g>
<!-- Node4&#45;&gt;Node7 -->
<g id="edge6_Node000004_Node000007" class="edge">
<title>Node4&#45;&gt;Node7</title>
<g id="a_edge6_Node000004_Node000007"><a xlink:title=" ">
<path fill="none" stroke="#63b8ff" d="M296.62,-55.08C296.62,-48.57 296.62,-39.42 296.62,-31.12"/>
<polygon fill="#63b8ff" stroke="#63b8ff" points="300.13,-31.12 296.63,-21.12 293.13,-31.12 300.13,-31.12"/>
</a>
</g>
</g>
<!-- Node8 -->
<g id="Node000008" class="node">
<title>Node8</title>
<g id="a_Node000008"><a xlink:title=" ">
<polygon fill="#e0e0e0" stroke="#999999" points="380.25,-19.25 335,-19.25 335,0 380.25,0 380.25,-19.25"/>
<text text-anchor="middle" x="357.62" y="-5.75" font-family="Helvetica,sans-Serif" font-size="10.00">cstring</text>
</a>
</g>
</g>
<!-- Node4&#45;&gt;Node8 -->
<g id="edge7_Node000004_Node000008" class="edge">
<title>Node4&#45;&gt;Node8</title>
<g id="a_edge7_Node000004_Node000008"><a xlink:title=" ">
<path fill="none" stroke="#63b8ff" d="M306.97,-54.84C315.7,-47.22 328.41,-36.12 338.92,-26.95"/>
<polygon fill="#63b8ff" stroke="#63b8ff" points="341.06,-29.73 346.29,-20.52 336.45,-24.46 341.06,-29.73"/>
</a>
</g>
</g>
<!-- Node9 -->
<g id="Node000009" class="node">
<title>Node9</title>
<g id="a_Node000009"><a xlink:title=" ">
<polygon fill="#e0e0e0" stroke="#999999" points="448.5,-19.25 398.75,-19.25 398.75,0 448.5,0 448.5,-19.25"/>
<text text-anchor="middle" x="423.62" y="-5.75" font-family="Helvetica,sans-Serif" font-size="10.00">optional</text>
</a>
</g>
</g>
<!-- Node4&#45;&gt;Node9 -->
<g id="edge8_Node000004_Node000009" class="edge">
<title>Node4&#45;&gt;Node9</title>
<g id="a_edge8_Node000004_Node000009"><a xlink:title=" ">
<path fill="none" stroke="#63b8ff" d="M318.17,-54.84C338.24,-46.43 368.43,-33.77 391.37,-24.15"/>
<polygon fill="#63b8ff" stroke="#63b8ff" points="392.71,-27.38 400.58,-20.29 390,-20.93 392.71,-27.38"/>
</a>
</g>
</g>
<!-- Node13 -->
<g id="Node000013" class="node">
<title>Node13</title>
<g id="a_Node000013"><a xlink:href="_option_types_8h.html" target="_top" xlink:title=" ">
<polygon fill="white" stroke="#666666" points="223.12,-185 144.12,-185 144.12,-165.75 223.12,-165.75 223.12,-185"/>
<text text-anchor="middle" x="183.62" y="-171.5" font-family="Helvetica,sans-Serif" font-size="10.00">OptionTypes.h</text>
</a>
</g>
</g>
<!-- Node12&#45;&gt;Node13 -->
<g id="edge13_Node000012_Node000013" class="edge">
<title>Node12&#45;&gt;Node13</title>
<g id="a_edge13_Node000012_Node000013"><a xlink:title=" ">
<path fill="none" stroke="#63b8ff" d="M217.85,-220.83C212.31,-213.63 204.28,-203.21 197.4,-194.26"/>
<polygon fill="#63b8ff" stroke="#63b8ff" points="200.34,-192.35 191.47,-186.56 194.79,-196.62 200.34,-192.35"/>
</a>
</g>
</g>
<!-- Node14 -->
<g id="Node000014" class="node">
<title>Node14</title>
<g id="a_Node000014"><a xlink:href="_parser_8h_source.html" target="_top" xlink:title=" ">
<polygon fill="white" stroke="#666666" points="362.62,-185 310.62,-185 310.62,-165.75 362.62,-165.75 362.62,-185"/>
<text text-anchor="middle" x="336.62" y="-171.5" font-family="Helvetica,sans-Serif" font-size="10.00">Parser.h</text>
</a>
</g>
</g>
<!-- Node12&#45;&gt;Node14 -->
<g id="edge15_Node000012_Node000014" class="edge">
<title>Node12&#45;&gt;Node14</title>
<g id="a_edge15_Node000012_Node000014"><a xlink:title=" ">
<path fill="none" stroke="#63b8ff" d="M243.62,-220.59C261.08,-212.29 287.22,-199.86 307.35,-190.29"/>
<polygon fill="#63b8ff" stroke="#63b8ff" points="308.64,-193.56 316.17,-186.1 305.63,-187.24 308.64,-193.56"/>
</a>
</g>
</g>
<!-- Node17 -->
<g id="Node000017" class="node">
<title>Node17</title>
<g id="a_Node000017"><a xlink:title=" ">
<polygon fill="#e0e0e0" stroke="#999999" points="292.25,-185 241,-185 241,-165.75 292.25,-165.75 292.25,-185"/>
<text text-anchor="middle" x="266.62" y="-171.5" font-family="Helvetica,sans-Serif" font-size="10.00">memory</text>
</a>
</g>
</g>
<!-- Node12&#45;&gt;Node17 -->
<g id="edge21_Node000012_Node000017" class="edge">
<title>Node12&#45;&gt;Node17</title>
<g id="a_edge21_Node000012_Node000017"><a xlink:title=" ">
<path fill="none" stroke="#63b8ff" d="M231.56,-220.83C237.24,-213.63 245.46,-203.21 252.52,-194.26"/>
<polygon fill="#63b8ff" stroke="#63b8ff" points="255.16,-196.57 258.6,-186.55 249.66,-192.23 255.16,-196.57"/>
</a>
</g>
</g>
<!-- Node13&#45;&gt;Node3 -->
<g id="edge14_Node000013_Node000003" class="edge">
<title>Node13&#45;&gt;Node3</title>
<g id="a_edge14_Node000013_Node000003"><a xlink:title=" ">
<path fill="none" stroke="#63b8ff" d="M179.99,-165.58C177.21,-158.84 173.25,-149.27 169.73,-140.74"/>
<polygon fill="#63b8ff" stroke="#63b8ff" points="172.97,-139.41 165.91,-131.51 166.5,-142.09 172.97,-139.41"/>
</a>
</g>
</g>
<!-- Node14&#45;&gt;Node4 -->
<g id="edge16_Node000014_Node000004" class="edge">
<title>Node14&#45;&gt;Node4</title>
<g id="a_edge16_Node000014_Node000004"><a xlink:title=" ">
<path fill="none" stroke="#63b8ff" d="M331.87,-165.32C327.32,-156.43 320.45,-142.39 315.62,-129.75 310.06,-115.17 305.09,-98.22 301.62,-85.45"/>
<polygon fill="#63b8ff" stroke="#63b8ff" points="305.11,-84.94 299.18,-76.16 298.34,-86.72 305.11,-84.94"/>
</a>
</g>
</g>
<!-- Node14&#45;&gt;Node10 -->
<g id="edge20_Node000014_Node000010" class="edge">
<title>Node14&#45;&gt;Node10</title>
<g id="a_edge20_Node000014_Node000010"><a xlink:title=" ">
<path fill="none" stroke="#63b8ff" d="M327.46,-165.5C308.84,-147.46 266.3,-106.25 242.17,-82.88"/>
<polygon fill="#63b8ff" stroke="#63b8ff" points="244.62,-80.37 235,-75.93 239.75,-85.4 244.62,-80.37"/>
</a>
</g>
</g>
<!-- Node15 -->
<g id="Node000015" class="node">
<title>Node15</title>
<g id="a_Node000015"><a xlink:href="_exception_8h_source.html" target="_top" xlink:title=" ">
<polygon fill="white" stroke="#666666" points="392.5,-129.75 324.75,-129.75 324.75,-110.5 392.5,-110.5 392.5,-129.75"/>
<text text-anchor="middle" x="358.62" y="-116.25" font-family="Helvetica,sans-Serif" font-size="10.00">Exception.h</text>
</a>
</g>
</g>
<!-- Node14&#45;&gt;Node15 -->
<g id="edge17_Node000014_Node000015" class="edge">
<title>Node14&#45;&gt;Node15</title>
<g id="a_edge17_Node000014_Node000015"><a xlink:title=" ">
<path fill="none" stroke="#63b8ff" d="M340.26,-165.58C343.04,-158.84 347,-149.27 350.52,-140.74"/>
<polygon fill="#63b8ff" stroke="#63b8ff" points="353.75,-142.09 354.34,-131.51 347.28,-139.41 353.75,-142.09"/>
</a>
</g>
</g>
<!-- Node15&#45;&gt;Node4 -->
<g id="edge18_Node000015_Node000004" class="edge">
<title>Node15&#45;&gt;Node4</title>
<g id="a_edge18_Node000015_Node000004"><a xlink:title=" ">
<path fill="none" stroke="#63b8ff" d="M348.11,-110.09C339.24,-102.47 326.31,-91.37 315.64,-82.2"/>
<polygon fill="#63b8ff" stroke="#63b8ff" points="318,-79.62 308.14,-75.76 313.44,-84.93 318,-79.62"/>
</a>
</g>
</g>
<!-- Node16 -->
<g id="Node000016" class="node">
<title>Node16</title>
<g id="a_Node000016"><a xlink:title=" ">
<polygon fill="#e0e0e0" stroke="#999999" points="397.62,-74.5 339.62,-74.5 339.62,-55.25 397.62,-55.25 397.62,-74.5"/>
<text text-anchor="middle" x="368.62" y="-61" font-family="Helvetica,sans-Serif" font-size="10.00">exception</text>
</a>
</g>
</g>
<!-- Node15&#45;&gt;Node16 -->
<g id="edge19_Node000015_Node000016" class="edge">
<title>Node15&#45;&gt;Node16</title>
<g id="a_edge19_Node000015_Node000016"><a xlink:title=" ">
<path fill="none" stroke="#63b8ff" d="M360.28,-110.33C361.51,-103.74 363.26,-94.46 364.83,-86.07"/>
<polygon fill="#63b8ff" stroke="#63b8ff" points="368.25,-86.82 366.66,-76.35 361.37,-85.53 368.25,-86.82"/>
</a>
</g>
</g>
</g>
</svg>
