<?xml version="1.0" encoding="UTF-8" standalone="no"?>
<!DOCTYPE svg PUBLIC "-//W3C//DTD SVG 1.1//EN"
 "http://www.w3.org/Graphics/SVG/1.1/DTD/svg11.dtd">
<!-- Generated by graphviz version 10.0.1 (20240210.2158)
 -->
<!-- Title: /Users/hoff/Retro/virtualc64/Emulator/Base/CmdQueue.h Pages: 1 -->
<svg width="709pt" height="425pt"
 viewBox="0.00 0.00 709.29 425.25" xmlns="http://www.w3.org/2000/svg" xmlns:xlink="http://www.w3.org/1999/xlink">
<g id="graph0" class="graph" transform="scale(1 1) rotate(0) translate(4 421.25)">
<title>/Users/hoff/Retro/virtualc64/Emulator/Base/CmdQueue.h</title>
<!-- Node1 -->
<g id="Node000001" class="node">
<title>Node1</title>
<g id="a_Node000001"><a xlink:title=" ">
<polygon fill="#999999" stroke="#666666" points="571.79,-417.25 427.54,-417.25 427.54,-386.75 571.79,-386.75 571.79,-417.25"/>
<text text-anchor="start" x="435.54" y="-403.75" font-family="Helvetica,sans-Serif" font-size="10.00">/Users/hoff/Retro/virtualc64</text>
<text text-anchor="middle" x="499.67" y="-392.5" font-family="Helvetica,sans-Serif" font-size="10.00">/Emulator/Base/CmdQueue.h</text>
</a>
</g>
</g>
<!-- Node2 -->
<g id="Node000002" class="node">
<title>Node2</title>
<g id="a_Node000002"><a xlink:href="_cmd_queue_types_8h.html" target="_top" xlink:title=" ">
<polygon fill="white" stroke="#666666" points="142.67,-295.5 42.67,-295.5 42.67,-276.25 142.67,-276.25 142.67,-295.5"/>
<text text-anchor="middle" x="92.67" y="-282" font-family="Helvetica,sans-Serif" font-size="10.00">CmdQueueTypes.h</text>
</a>
</g>
</g>
<!-- Node1&#45;&gt;Node2 -->
<g id="edge1_Node000001_Node000002" class="edge">
<title>Node1&#45;&gt;Node2</title>
<g id="a_edge1_Node000001_Node000002"><a xlink:title=" ">
<path fill="none" stroke="#63b8ff" d="M444.25,-386.3C407.24,-376.41 357.48,-363 313.67,-350.75 251.04,-333.24 178.67,-312.16 134.29,-299.14"/>
<polygon fill="#63b8ff" stroke="#63b8ff" points="135.4,-295.82 124.82,-296.36 133.43,-302.53 135.4,-295.82"/>
</a>
</g>
</g>
<!-- Node11 -->
<g id="Node000011" class="node">
<title>Node11</title>
<g id="a_Node000011"><a xlink:href="_core_object_8h_source.html" target="_top" xlink:title=" ">
<polygon fill="white" stroke="#666666" points="396.54,-350.75 322.79,-350.75 322.79,-331.5 396.54,-331.5 396.54,-350.75"/>
<text text-anchor="middle" x="359.67" y="-337.25" font-family="Helvetica,sans-Serif" font-size="10.00">CoreObject.h</text>
</a>
</g>
</g>
<!-- Node1&#45;&gt;Node11 -->
<g id="edge12_Node000001_Node000011" class="edge">
<title>Node1&#45;&gt;Node11</title>
<g id="a_edge12_Node000001_Node000011"><a xlink:title=" ">
<path fill="none" stroke="#63b8ff" d="M464.7,-386.3C442.25,-376.85 413.33,-364.69 391.52,-355.52"/>
<polygon fill="#63b8ff" stroke="#63b8ff" points="393.11,-352.39 382.53,-351.74 390.39,-358.84 393.11,-352.39"/>
</a>
</g>
</g>
<!-- Node18 -->
<g id="Node000018" class="node">
<title>Node18</title>
<g id="a_Node000018"><a xlink:href="_synchronizable_8h_source.html" target="_top" xlink:title=" ">
<polygon fill="white" stroke="#666666" points="545.17,-350.75 454.17,-350.75 454.17,-331.5 545.17,-331.5 545.17,-350.75"/>
<text text-anchor="middle" x="499.67" y="-337.25" font-family="Helvetica,sans-Serif" font-size="10.00">Synchronizable.h</text>
</a>
</g>
</g>
<!-- Node1&#45;&gt;Node18 -->
<g id="edge22_Node000001_Node000018" class="edge">
<title>Node1&#45;&gt;Node18</title>
<g id="a_edge22_Node000001_Node000018"><a xlink:title=" ">
<path fill="none" stroke="#63b8ff" d="M499.67,-386.45C499.67,-379.21 499.67,-370.34 499.67,-362.44"/>
<polygon fill="#63b8ff" stroke="#63b8ff" points="503.17,-362.71 499.67,-352.71 496.17,-362.71 503.17,-362.71"/>
</a>
</g>
</g>
<!-- Node24 -->
<g id="Node000024" class="node">
<title>Node24</title>
<g id="a_Node000024"><a xlink:href="_ring_buffer_8h_source.html" target="_top" xlink:title=" ">
<polygon fill="white" stroke="#666666" points="637.67,-350.75 567.67,-350.75 567.67,-331.5 637.67,-331.5 637.67,-350.75"/>
<text text-anchor="middle" x="602.67" y="-337.25" font-family="Helvetica,sans-Serif" font-size="10.00">RingBuffer.h</text>
</a>
</g>
</g>
<!-- Node1&#45;&gt;Node24 -->
<g id="edge29_Node000001_Node000024" class="edge">
<title>Node1&#45;&gt;Node24</title>
<g id="a_edge29_Node000001_Node000024"><a xlink:title=" ">
<path fill="none" stroke="#63b8ff" d="M525.39,-386.3C541.23,-377.24 561.45,-365.69 577.23,-356.66"/>
<polygon fill="#63b8ff" stroke="#63b8ff" points="578.61,-359.91 585.56,-351.91 575.14,-353.83 578.61,-359.91"/>
</a>
</g>
</g>
<!-- Node26 -->
<g id="Node000026" class="node">
<title>Node26</title>
<g id="a_Node000026"><a xlink:title=" ">
<polygon fill="#e0e0e0" stroke="#999999" points="701.29,-350.75 656.04,-350.75 656.04,-331.5 701.29,-331.5 701.29,-350.75"/>
<text text-anchor="middle" x="678.67" y="-337.25" font-family="Helvetica,sans-Serif" font-size="10.00">atomic</text>
</a>
</g>
</g>
<!-- Node1&#45;&gt;Node26 -->
<g id="edge32_Node000001_Node000026" class="edge">
<title>Node1&#45;&gt;Node26</title>
<g id="a_edge32_Node000001_Node000026"><a xlink:title=" ">
<path fill="none" stroke="#63b8ff" d="M544.38,-386.3C575.64,-376.01 616.73,-362.5 645.19,-353.14"/>
<polygon fill="#63b8ff" stroke="#63b8ff" points="645.95,-356.57 654.36,-350.12 643.77,-349.92 645.95,-356.57"/>
</a>
</g>
</g>
<!-- Node3 -->
<g id="Node000003" class="node">
<title>Node3</title>
<g id="a_Node000003"><a xlink:href="_aliases_8h_source.html" target="_top" xlink:title=" ">
<polygon fill="white" stroke="#666666" points="84.92,-185 28.42,-185 28.42,-165.75 84.92,-165.75 84.92,-185"/>
<text text-anchor="middle" x="56.67" y="-171.5" font-family="Helvetica,sans-Serif" font-size="10.00">Aliases.h</text>
</a>
</g>
</g>
<!-- Node2&#45;&gt;Node3 -->
<g id="edge2_Node000002_Node000003" class="edge">
<title>Node2&#45;&gt;Node3</title>
<g id="a_edge2_Node000002_Node000003"><a xlink:title=" ">
<path fill="none" stroke="#63b8ff" d="M54.6,-275.91C35.82,-269.35 14.84,-258.34 3.67,-240.25 -7.43,-222.27 11.58,-203.93 29.84,-191.54"/>
<polygon fill="#63b8ff" stroke="#63b8ff" points="31.58,-194.58 38.16,-186.28 27.84,-188.67 31.58,-194.58"/>
</a>
</g>
</g>
<!-- Node9 -->
<g id="Node000009" class="node">
<title>Node9</title>
<g id="a_Node000009"><a xlink:href="_reflection_8h_source.html" target="_top" xlink:title=" ">
<polygon fill="white" stroke="#666666" points="171.92,-185 103.42,-185 103.42,-165.75 171.92,-165.75 171.92,-185"/>
<text text-anchor="middle" x="137.67" y="-171.5" font-family="Helvetica,sans-Serif" font-size="10.00">Reflection.h</text>
</a>
</g>
</g>
<!-- Node2&#45;&gt;Node9 -->
<g id="edge8_Node000002_Node000009" class="edge">
<title>Node2&#45;&gt;Node9</title>
<g id="a_edge8_Node000002_Node000009"><a xlink:title=" ">
<path fill="none" stroke="#63b8ff" d="M96.35,-276C103.57,-258.59 119.73,-219.62 129.57,-195.91"/>
<polygon fill="#63b8ff" stroke="#63b8ff" points="132.76,-197.35 133.35,-186.77 126.29,-194.67 132.76,-197.35"/>
</a>
</g>
</g>
<!-- Node10 -->
<g id="Node000010" class="node">
<title>Node10</title>
<g id="a_Node000010"><a xlink:href="_joystick_types_8h_source.html" target="_top" xlink:title=" ">
<polygon fill="white" stroke="#666666" points="100.29,-240.25 13.04,-240.25 13.04,-221 100.29,-221 100.29,-240.25"/>
<text text-anchor="middle" x="56.67" y="-226.75" font-family="Helvetica,sans-Serif" font-size="10.00">JoystickTypes.h</text>
</a>
</g>
</g>
<!-- Node2&#45;&gt;Node10 -->
<g id="edge9_Node000002_Node000010" class="edge">
<title>Node2&#45;&gt;Node10</title>
<g id="a_edge9_Node000002_Node000010"><a xlink:title=" ">
<path fill="none" stroke="#63b8ff" d="M86.72,-276.08C81.96,-269.03 75.11,-258.9 69.15,-250.08"/>
<polygon fill="#63b8ff" stroke="#63b8ff" points="72.09,-248.19 63.59,-241.86 66.29,-252.11 72.09,-248.19"/>
</a>
</g>
</g>
<!-- Node4 -->
<g id="Node000004" class="node">
<title>Node4</title>
<g id="a_Node000004"><a xlink:href="_macros_8h_source.html" target="_top" xlink:title=" ">
<polygon fill="white" stroke="#666666" points="196.92,-129.75 140.42,-129.75 140.42,-110.5 196.92,-110.5 196.92,-129.75"/>
<text text-anchor="middle" x="168.67" y="-116.25" font-family="Helvetica,sans-Serif" font-size="10.00">Macros.h</text>
</a>
</g>
</g>
<!-- Node3&#45;&gt;Node4 -->
<g id="edge3_Node000003_Node000004" class="edge">
<title>Node3&#45;&gt;Node4</title>
<g id="a_edge3_Node000003_Node000004"><a xlink:title=" ">
<path fill="none" stroke="#63b8ff" d="M75.67,-165.34C93.13,-157.04 119.27,-144.61 139.39,-135.04"/>
<polygon fill="#63b8ff" stroke="#63b8ff" points="140.68,-138.31 148.21,-130.85 137.67,-131.99 140.68,-138.31"/>
</a>
</g>
</g>
<!-- Node5 -->
<g id="Node000005" class="node">
<title>Node5</title>
<g id="a_Node000005"><a xlink:href="_types_8h_source.html" target="_top" xlink:title=" ">
<polygon fill="white" stroke="#666666" points="409.92,-74.5 359.42,-74.5 359.42,-55.25 409.92,-55.25 409.92,-74.5"/>
<text text-anchor="middle" x="384.67" y="-61" font-family="Helvetica,sans-Serif" font-size="10.00">Types.h</text>
</a>
</g>
</g>
<!-- Node4&#45;&gt;Node5 -->
<g id="edge4_Node000004_Node000005" class="edge">
<title>Node4&#45;&gt;Node5</title>
<g id="a_edge4_Node000004_Node000005"><a xlink:title=" ">
<path fill="none" stroke="#63b8ff" d="M197.35,-112.05C236.25,-102.47 305.73,-85.34 348.26,-74.85"/>
<polygon fill="#63b8ff" stroke="#63b8ff" points="348.89,-78.3 357.76,-72.51 347.22,-71.5 348.89,-78.3"/>
</a>
</g>
</g>
<!-- Node6 -->
<g id="Node000006" class="node">
<title>Node6</title>
<g id="a_Node000006"><a xlink:title=" ">
<polygon fill="#e0e0e0" stroke="#999999" points="342.17,-19.25 275.17,-19.25 275.17,0 342.17,0 342.17,-19.25"/>
<text text-anchor="middle" x="308.67" y="-5.75" font-family="Helvetica,sans-Serif" font-size="10.00">sys/types.h</text>
</a>
</g>
</g>
<!-- Node5&#45;&gt;Node6 -->
<g id="edge5_Node000005_Node000006" class="edge">
<title>Node5&#45;&gt;Node6</title>
<g id="a_edge5_Node000005_Node000006"><a xlink:title=" ">
<path fill="none" stroke="#63b8ff" d="M371.78,-54.84C360.64,-47.04 344.29,-35.59 331.03,-26.29"/>
<polygon fill="#63b8ff" stroke="#63b8ff" points="333.06,-23.44 322.86,-20.57 329.04,-29.18 333.06,-23.44"/>
</a>
</g>
</g>
<!-- Node7 -->
<g id="Node000007" class="node">
<title>Node7</title>
<g id="a_Node000007"><a xlink:title=" ">
<polygon fill="#e0e0e0" stroke="#999999" points="408.79,-19.25 360.54,-19.25 360.54,0 408.79,0 408.79,-19.25"/>
<text text-anchor="middle" x="384.67" y="-5.75" font-family="Helvetica,sans-Serif" font-size="10.00">stdint.h</text>
</a>
</g>
</g>
<!-- Node5&#45;&gt;Node7 -->
<g id="edge6_Node000005_Node000007" class="edge">
<title>Node5&#45;&gt;Node7</title>
<g id="a_edge6_Node000005_Node000007"><a xlink:title=" ">
<path fill="none" stroke="#63b8ff" d="M384.67,-55.08C384.67,-48.57 384.67,-39.42 384.67,-31.12"/>
<polygon fill="#63b8ff" stroke="#63b8ff" points="388.17,-31.12 384.67,-21.12 381.17,-31.12 388.17,-31.12"/>
</a>
</g>
</g>
<!-- Node8 -->
<g id="Node000008" class="node">
<title>Node8</title>
<g id="a_Node000008"><a xlink:title=" ">
<polygon fill="#e0e0e0" stroke="#999999" points="482.54,-19.25 426.79,-19.25 426.79,0 482.54,0 482.54,-19.25"/>
<text text-anchor="middle" x="454.67" y="-5.75" font-family="Helvetica,sans-Serif" font-size="10.00">stdbool.h</text>
</a>
</g>
</g>
<!-- Node5&#45;&gt;Node8 -->
<g id="edge7_Node000005_Node000008" class="edge">
<title>Node5&#45;&gt;Node8</title>
<g id="a_edge7_Node000005_Node000008"><a xlink:title=" ">
<path fill="none" stroke="#63b8ff" d="M396.54,-54.84C406.76,-47.07 421.74,-35.67 433.93,-26.4"/>
<polygon fill="#63b8ff" stroke="#63b8ff" points="435.92,-29.28 441.76,-20.44 431.69,-23.71 435.92,-29.28"/>
</a>
</g>
</g>
<!-- Node10&#45;&gt;Node3 -->
<g id="edge10_Node000010_Node000003" class="edge">
<title>Node10&#45;&gt;Node3</title>
<g id="a_edge10_Node000010_Node000003"><a xlink:title=" ">
<path fill="none" stroke="#63b8ff" d="M56.67,-220.83C56.67,-214.32 56.67,-205.17 56.67,-196.87"/>
<polygon fill="#63b8ff" stroke="#63b8ff" points="60.17,-196.87 56.67,-186.87 53.17,-196.87 60.17,-196.87"/>
</a>
</g>
</g>
<!-- Node10&#45;&gt;Node9 -->
<g id="edge11_Node000010_Node000009" class="edge">
<title>Node10&#45;&gt;Node9</title>
<g id="a_edge11_Node000010_Node000009"><a xlink:title=" ">
<path fill="none" stroke="#63b8ff" d="M70.41,-220.59C82.39,-212.71 100.04,-201.11 114.25,-191.77"/>
<polygon fill="#63b8ff" stroke="#63b8ff" points="116.16,-194.7 122.6,-186.28 112.32,-188.85 116.16,-194.7"/>
</a>
</g>
</g>
<!-- Node12 -->
<g id="Node000012" class="node">
<title>Node12</title>
<g id="a_Node000012"><a xlink:href="_error_8h.html" target="_top" xlink:title=" ">
<polygon fill="white" stroke="#666666" points="302.92,-295.5 258.42,-295.5 258.42,-276.25 302.92,-276.25 302.92,-295.5"/>
<text text-anchor="middle" x="280.67" y="-282" font-family="Helvetica,sans-Serif" font-size="10.00">Error.h</text>
</a>
</g>
</g>
<!-- Node11&#45;&gt;Node12 -->
<g id="edge13_Node000011_Node000012" class="edge">
<title>Node11&#45;&gt;Node12</title>
<g id="a_edge13_Node000011_Node000012"><a xlink:title=" ">
<path fill="none" stroke="#63b8ff" d="M346.27,-331.09C334.58,-323.21 317.37,-311.61 303.51,-302.27"/>
<polygon fill="#63b8ff" stroke="#63b8ff" points="305.64,-299.49 295.39,-296.8 301.73,-305.29 305.64,-299.49"/>
</a>
</g>
</g>
<!-- Node16 -->
<g id="Node000016" class="node">
<title>Node16</title>
<g id="a_Node000016"><a xlink:href="_inspectable_8h_source.html" target="_top" xlink:title=" ">
<polygon fill="white" stroke="#666666" points="396.92,-295.5 322.42,-295.5 322.42,-276.25 396.92,-276.25 396.92,-295.5"/>
<text text-anchor="middle" x="359.67" y="-282" font-family="Helvetica,sans-Serif" font-size="10.00">Inspectable.h</text>
</a>
</g>
</g>
<!-- Node11&#45;&gt;Node16 -->
<g id="edge20_Node000011_Node000016" class="edge">
<title>Node11&#45;&gt;Node16</title>
<g id="a_edge20_Node000011_Node000016"><a xlink:title=" ">
<path fill="none" stroke="#63b8ff" d="M359.67,-331.33C359.67,-324.82 359.67,-315.67 359.67,-307.37"/>
<polygon fill="#63b8ff" stroke="#63b8ff" points="363.17,-307.37 359.67,-297.37 356.17,-307.37 363.17,-307.37"/>
</a>
</g>
</g>
<!-- Node13 -->
<g id="Node000013" class="node">
<title>Node13</title>
<g id="a_Node000013"><a xlink:href="_error_types_8h.html" target="_top" xlink:title=" ">
<polygon fill="white" stroke="#666666" points="228.42,-240.25 156.92,-240.25 156.92,-221 228.42,-221 228.42,-240.25"/>
<text text-anchor="middle" x="192.67" y="-226.75" font-family="Helvetica,sans-Serif" font-size="10.00">ErrorTypes.h</text>
</a>
</g>
</g>
<!-- Node12&#45;&gt;Node13 -->
<g id="edge14_Node000012_Node000013" class="edge">
<title>Node12&#45;&gt;Node13</title>
<g id="a_edge14_Node000012_Node000013"><a xlink:title=" ">
<path fill="none" stroke="#63b8ff" d="M265.74,-275.84C252.47,-267.81 232.8,-255.91 217.21,-246.48"/>
<polygon fill="#63b8ff" stroke="#63b8ff" points="219.33,-243.67 208.96,-241.49 215.71,-249.66 219.33,-243.67"/>
</a>
</g>
</g>
<!-- Node14 -->
<g id="Node000014" class="node">
<title>Node14</title>
<g id="a_Node000014"><a xlink:href="_exception_8h_source.html" target="_top" xlink:title=" ">
<polygon fill="white" stroke="#666666" points="314.54,-240.25 246.79,-240.25 246.79,-221 314.54,-221 314.54,-240.25"/>
<text text-anchor="middle" x="280.67" y="-226.75" font-family="Helvetica,sans-Serif" font-size="10.00">Exception.h</text>
</a>
</g>
</g>
<!-- Node12&#45;&gt;Node14 -->
<g id="edge17_Node000012_Node000014" class="edge">
<title>Node12&#45;&gt;Node14</title>
<g id="a_edge17_Node000012_Node000014"><a xlink:title=" ">
<path fill="none" stroke="#63b8ff" d="M280.67,-276.08C280.67,-269.57 280.67,-260.42 280.67,-252.12"/>
<polygon fill="#63b8ff" stroke="#63b8ff" points="284.17,-252.12 280.67,-242.12 277.17,-252.12 284.17,-252.12"/>
</a>
</g>
</g>
<!-- Node13&#45;&gt;Node3 -->
<g id="edge15_Node000013_Node000003" class="edge">
<title>Node13&#45;&gt;Node3</title>
<g id="a_edge15_Node000013_Node000003"><a xlink:title=" ">
<path fill="none" stroke="#63b8ff" d="M169.6,-220.59C147.91,-212.1 115.19,-199.29 90.54,-189.64"/>
<polygon fill="#63b8ff" stroke="#63b8ff" points="91.85,-186.39 81.26,-186 89.3,-192.91 91.85,-186.39"/>
</a>
</g>
</g>
<!-- Node13&#45;&gt;Node9 -->
<g id="edge16_Node000013_Node000009" class="edge">
<title>Node13&#45;&gt;Node9</title>
<g id="a_edge16_Node000013_Node000009"><a xlink:title=" ">
<path fill="none" stroke="#63b8ff" d="M183.59,-220.83C175.83,-213.32 164.46,-202.31 154.97,-193.13"/>
<polygon fill="#63b8ff" stroke="#63b8ff" points="157.65,-190.85 148.03,-186.41 152.78,-195.88 157.65,-190.85"/>
</a>
</g>
</g>
<!-- Node14&#45;&gt;Node5 -->
<g id="edge18_Node000014_Node000005" class="edge">
<title>Node14&#45;&gt;Node5</title>
<g id="a_edge18_Node000014_Node000005"><a xlink:title=" ">
<path fill="none" stroke="#63b8ff" d="M288.82,-220.77C296.68,-212.03 308.66,-198.1 317.67,-185 340.77,-151.39 363.05,-109.22 375.2,-85.13"/>
<polygon fill="#63b8ff" stroke="#63b8ff" points="378.31,-86.73 379.64,-76.22 372.05,-83.61 378.31,-86.73"/>
</a>
</g>
</g>
<!-- Node15 -->
<g id="Node000015" class="node">
<title>Node15</title>
<g id="a_Node000015"><a xlink:title=" ">
<polygon fill="#e0e0e0" stroke="#999999" points="308.67,-185 250.67,-185 250.67,-165.75 308.67,-165.75 308.67,-185"/>
<text text-anchor="middle" x="279.67" y="-171.5" font-family="Helvetica,sans-Serif" font-size="10.00">exception</text>
</a>
</g>
</g>
<!-- Node14&#45;&gt;Node15 -->
<g id="edge19_Node000014_Node000015" class="edge">
<title>Node14&#45;&gt;Node15</title>
<g id="a_edge19_Node000014_Node000015"><a xlink:title=" ">
<path fill="none" stroke="#63b8ff" d="M280.5,-220.83C280.38,-214.32 280.21,-205.17 280.05,-196.87"/>
<polygon fill="#63b8ff" stroke="#63b8ff" points="283.55,-196.8 279.87,-186.87 276.55,-196.94 283.55,-196.8"/>
</a>
</g>
</g>
<!-- Node17 -->
<g id="Node000017" class="node">
<title>Node17</title>
<g id="a_Node000017"><a xlink:title=" ">
<polygon fill="#e0e0e0" stroke="#999999" points="386.42,-240.25 332.92,-240.25 332.92,-221 386.42,-221 386.42,-240.25"/>
<text text-anchor="middle" x="359.67" y="-226.75" font-family="Helvetica,sans-Serif" font-size="10.00">iostream</text>
</a>
</g>
</g>
<!-- Node16&#45;&gt;Node17 -->
<g id="edge21_Node000016_Node000017" class="edge">
<title>Node16&#45;&gt;Node17</title>
<g id="a_edge21_Node000016_Node000017"><a xlink:title=" ">
<path fill="none" stroke="#63b8ff" d="M359.67,-276.08C359.67,-269.57 359.67,-260.42 359.67,-252.12"/>
<polygon fill="#63b8ff" stroke="#63b8ff" points="363.17,-252.12 359.67,-242.12 356.17,-252.12 363.17,-252.12"/>
</a>
</g>
</g>
<!-- Node19 -->
<g id="Node000019" class="node">
<title>Node19</title>
<g id="a_Node000019"><a xlink:href="_concurrency_8h_source.html" target="_top" xlink:title=" ">
<polygon fill="white" stroke="#666666" points="538.79,-295.5 460.54,-295.5 460.54,-276.25 538.79,-276.25 538.79,-295.5"/>
<text text-anchor="middle" x="499.67" y="-282" font-family="Helvetica,sans-Serif" font-size="10.00">Concurrency.h</text>
</a>
</g>
</g>
<!-- Node18&#45;&gt;Node19 -->
<g id="edge23_Node000018_Node000019" class="edge">
<title>Node18&#45;&gt;Node19</title>
<g id="a_edge23_Node000018_Node000019"><a xlink:title=" ">
<path fill="none" stroke="#63b8ff" d="M499.67,-331.33C499.67,-324.82 499.67,-315.67 499.67,-307.37"/>
<polygon fill="#63b8ff" stroke="#63b8ff" points="503.17,-307.37 499.67,-297.37 496.17,-307.37 503.17,-307.37"/>
</a>
</g>
</g>
<!-- Node20 -->
<g id="Node000020" class="node">
<title>Node20</title>
<g id="a_Node000020"><a xlink:href="_chrono_8h_source.html" target="_top" xlink:title=" ">
<polygon fill="white" stroke="#666666" points="460.54,-240.25 404.79,-240.25 404.79,-221 460.54,-221 460.54,-240.25"/>
<text text-anchor="middle" x="432.67" y="-226.75" font-family="Helvetica,sans-Serif" font-size="10.00">Chrono.h</text>
</a>
</g>
</g>
<!-- Node19&#45;&gt;Node20 -->
<g id="edge24_Node000019_Node000020" class="edge">
<title>Node19&#45;&gt;Node20</title>
<g id="a_edge24_Node000019_Node000020"><a xlink:title=" ">
<path fill="none" stroke="#63b8ff" d="M488.3,-275.84C478.62,-268.15 464.47,-256.9 452.86,-247.68"/>
<polygon fill="#63b8ff" stroke="#63b8ff" points="455.06,-244.95 445.05,-241.47 450.7,-250.43 455.06,-244.95"/>
</a>
</g>
</g>
<!-- Node22 -->
<g id="Node000022" class="node">
<title>Node22</title>
<g id="a_Node000022"><a xlink:title=" ">
<polygon fill="#e0e0e0" stroke="#999999" points="521.17,-240.25 478.17,-240.25 478.17,-221 521.17,-221 521.17,-240.25"/>
<text text-anchor="middle" x="499.67" y="-226.75" font-family="Helvetica,sans-Serif" font-size="10.00">thread</text>
</a>
</g>
</g>
<!-- Node19&#45;&gt;Node22 -->
<g id="edge27_Node000019_Node000022" class="edge">
<title>Node19&#45;&gt;Node22</title>
<g id="a_edge27_Node000019_Node000022"><a xlink:title=" ">
<path fill="none" stroke="#63b8ff" d="M499.67,-276.08C499.67,-269.57 499.67,-260.42 499.67,-252.12"/>
<polygon fill="#63b8ff" stroke="#63b8ff" points="503.17,-252.12 499.67,-242.12 496.17,-252.12 503.17,-252.12"/>
</a>
</g>
</g>
<!-- Node23 -->
<g id="Node000023" class="node">
<title>Node23</title>
<g id="a_Node000023"><a xlink:title=" ">
<polygon fill="#e0e0e0" stroke="#999999" points="580.04,-240.25 539.29,-240.25 539.29,-221 580.04,-221 580.04,-240.25"/>
<text text-anchor="middle" x="559.67" y="-226.75" font-family="Helvetica,sans-Serif" font-size="10.00">future</text>
</a>
</g>
</g>
<!-- Node19&#45;&gt;Node23 -->
<g id="edge28_Node000019_Node000023" class="edge">
<title>Node19&#45;&gt;Node23</title>
<g id="a_edge28_Node000019_Node000023"><a xlink:title=" ">
<path fill="none" stroke="#63b8ff" d="M509.85,-275.84C518.43,-268.22 530.94,-257.12 541.27,-247.95"/>
<polygon fill="#63b8ff" stroke="#63b8ff" points="543.35,-250.79 548.51,-241.53 538.71,-245.55 543.35,-250.79"/>
</a>
</g>
</g>
<!-- Node20&#45;&gt;Node5 -->
<g id="edge25_Node000020_Node000005" class="edge">
<title>Node20&#45;&gt;Node5</title>
<g id="a_edge25_Node000020_Node000005"><a xlink:title=" ">
<path fill="none" stroke="#63b8ff" d="M430.09,-220.82C422.63,-195.39 400.93,-121.35 390.46,-85.62"/>
<polygon fill="#63b8ff" stroke="#63b8ff" points="393.86,-84.79 387.69,-76.17 387.14,-86.76 393.86,-84.79"/>
</a>
</g>
</g>
<!-- Node21 -->
<g id="Node000021" class="node">
<title>Node21</title>
<g id="a_Node000021"><a xlink:title=" ">
<polygon fill="#e0e0e0" stroke="#999999" points="404.67,-185 364.67,-185 364.67,-165.75 404.67,-165.75 404.67,-185"/>
<text text-anchor="middle" x="384.67" y="-171.5" font-family="Helvetica,sans-Serif" font-size="10.00">ctime</text>
</a>
</g>
</g>
<!-- Node20&#45;&gt;Node21 -->
<g id="edge26_Node000020_Node000021" class="edge">
<title>Node20&#45;&gt;Node21</title>
<g id="a_edge26_Node000020_Node000021"><a xlink:title=" ">
<path fill="none" stroke="#63b8ff" d="M424.74,-220.83C418.11,-213.48 408.45,-202.76 400.28,-193.69"/>
<polygon fill="#63b8ff" stroke="#63b8ff" points="403.07,-191.57 393.78,-186.48 397.88,-196.25 403.07,-191.57"/>
</a>
</g>
</g>
<!-- Node24&#45;&gt;Node5 -->
<g id="edge30_Node000024_Node000005" class="edge">
<title>Node24&#45;&gt;Node5</title>
<g id="a_edge30_Node000024_Node000005"><a xlink:title=" ">
<path fill="none" stroke="#63b8ff" d="M603.36,-331.13C604.74,-312.55 607.67,-268.58 607.67,-231.62 607.67,-231.62 607.67,-231.62 607.67,-174.38 607.67,-92.67 485.13,-72.48 421.72,-67.5"/>
<polygon fill="#63b8ff" stroke="#63b8ff" points="421.97,-64.01 411.76,-66.82 421.5,-70.99 421.97,-64.01"/>
</a>
</g>
</g>
<!-- Node25 -->
<g id="Node000025" class="node">
<title>Node25</title>
<g id="a_Node000025"><a xlink:title=" ">
<polygon fill="#e0e0e0" stroke="#999999" points="675.29,-295.5 636.04,-295.5 636.04,-276.25 675.29,-276.25 675.29,-295.5"/>
<text text-anchor="middle" x="655.67" y="-282" font-family="Helvetica,sans-Serif" font-size="10.00">utility</text>
</a>
</g>
</g>
<!-- Node24&#45;&gt;Node25 -->
<g id="edge31_Node000024_Node000025" class="edge">
<title>Node24&#45;&gt;Node25</title>
<g id="a_edge31_Node000024_Node000025"><a xlink:title=" ">
<path fill="none" stroke="#63b8ff" d="M611.42,-331.33C618.82,-323.9 629.63,-313.04 638.71,-303.91"/>
<polygon fill="#63b8ff" stroke="#63b8ff" points="641.08,-306.49 645.66,-296.93 636.12,-301.55 641.08,-306.49"/>
</a>
</g>
</g>
</g>
</svg>
