<?xml version="1.0" encoding="UTF-8" standalone="no"?>
<!DOCTYPE svg PUBLIC "-//W3C//DTD SVG 1.1//EN"
 "http://www.w3.org/Graphics/SVG/1.1/DTD/svg11.dtd">
<!-- Generated by graphviz version 10.0.1 (20240210.2158)
 -->
<!-- Title: /Users/hoff/Retro/virtualc64/Emulator/Base/CmdQueue.cpp Pages: 1 -->
<svg width="695pt" height="481pt"
 viewBox="0.00 0.00 695.38 480.50" xmlns="http://www.w3.org/2000/svg" xmlns:xlink="http://www.w3.org/1999/xlink">
<g id="graph0" class="graph" transform="scale(1 1) rotate(0) translate(4 476.5)">
<title>/Users/hoff/Retro/virtualc64/Emulator/Base/CmdQueue.cpp</title>
<!-- Node1 -->
<g id="Node000001" class="node">
<title>Node1</title>
<g id="a_Node000001"><a xlink:title=" ">
<polygon fill="#999999" stroke="#666666" points="235,-472.5 80.25,-472.5 80.25,-442 235,-442 235,-472.5"/>
<text text-anchor="start" x="88.25" y="-459" font-family="Helvetica,sans-Serif" font-size="10.00">/Users/hoff/Retro/virtualc64</text>
<text text-anchor="middle" x="157.62" y="-447.75" font-family="Helvetica,sans-Serif" font-size="10.00">/Emulator/Base/CmdQueue.cpp</text>
</a>
</g>
</g>
<!-- Node2 -->
<g id="Node000002" class="node">
<title>Node2</title>
<g id="a_Node000002"><a xlink:href="config_8h.html" target="_top" xlink:title=" ">
<polygon fill="white" stroke="#666666" points="142.88,-406 92.38,-406 92.38,-386.75 142.88,-386.75 142.88,-406"/>
<text text-anchor="middle" x="117.62" y="-392.5" font-family="Helvetica,sans-Serif" font-size="10.00">config.h</text>
</a>
</g>
</g>
<!-- Node1&#45;&gt;Node2 -->
<g id="edge1_Node000001_Node000002" class="edge">
<title>Node1&#45;&gt;Node2</title>
<g id="a_edge1_Node000001_Node000002"><a xlink:title=" ">
<path fill="none" stroke="#63b8ff" d="M147.74,-441.7C142.41,-433.85 135.78,-424.1 130.1,-415.74"/>
<polygon fill="#63b8ff" stroke="#63b8ff" points="133.16,-414.01 124.64,-407.7 127.37,-417.94 133.16,-414.01"/>
</a>
</g>
</g>
<!-- Node4 -->
<g id="Node000004" class="node">
<title>Node4</title>
<g id="a_Node000004"><a xlink:href="_cmd_queue_8h.html" target="_top" xlink:title=" ">
<polygon fill="white" stroke="#666666" points="283.5,-406 209.75,-406 209.75,-386.75 283.5,-386.75 283.5,-406"/>
<text text-anchor="middle" x="246.62" y="-392.5" font-family="Helvetica,sans-Serif" font-size="10.00">CmdQueue.h</text>
</a>
</g>
</g>
<!-- Node1&#45;&gt;Node4 -->
<g id="edge3_Node000001_Node000004" class="edge">
<title>Node1&#45;&gt;Node4</title>
<g id="a_edge3_Node000001_Node000004"><a xlink:title=" ">
<path fill="none" stroke="#63b8ff" d="M179.63,-441.7C192.92,-432.9 209.84,-421.71 223.35,-412.77"/>
<polygon fill="#63b8ff" stroke="#63b8ff" points="225.23,-415.72 231.64,-407.29 221.37,-409.88 225.23,-415.72"/>
</a>
</g>
</g>
<!-- Node3 -->
<g id="Node000003" class="node">
<title>Node3</title>
<g id="a_Node000003"><a xlink:title=" ">
<polygon fill="#e0e0e0" stroke="#999999" points="51.25,-350.75 0,-350.75 0,-331.5 51.25,-331.5 51.25,-350.75"/>
<text text-anchor="middle" x="25.62" y="-337.25" font-family="Helvetica,sans-Serif" font-size="10.00">assert.h</text>
</a>
</g>
</g>
<!-- Node2&#45;&gt;Node3 -->
<g id="edge2_Node000002_Node000003" class="edge">
<title>Node2&#45;&gt;Node3</title>
<g id="a_edge2_Node000002_Node000003"><a xlink:title=" ">
<path fill="none" stroke="#63b8ff" d="M102.02,-386.34C88.01,-378.23 67.19,-366.18 50.82,-356.71"/>
<polygon fill="#63b8ff" stroke="#63b8ff" points="53.03,-353.94 42.62,-351.96 49.52,-360 53.03,-353.94"/>
</a>
</g>
</g>
<!-- Node5 -->
<g id="Node000005" class="node">
<title>Node5</title>
<g id="a_Node000005"><a xlink:href="_cmd_queue_types_8h.html" target="_top" xlink:title=" ">
<polygon fill="white" stroke="#666666" points="397.62,-295.5 297.62,-295.5 297.62,-276.25 397.62,-276.25 397.62,-295.5"/>
<text text-anchor="middle" x="347.62" y="-282" font-family="Helvetica,sans-Serif" font-size="10.00">CmdQueueTypes.h</text>
</a>
</g>
</g>
<!-- Node4&#45;&gt;Node5 -->
<g id="edge4_Node000004_Node000005" class="edge">
<title>Node4&#45;&gt;Node5</title>
<g id="a_edge4_Node000004_Node000005"><a xlink:title=" ">
<path fill="none" stroke="#63b8ff" d="M270,-386.26C286.36,-378.84 307.69,-366.95 321.62,-350.75 332.5,-338.1 339.24,-320.3 343.13,-306.7"/>
<polygon fill="#63b8ff" stroke="#63b8ff" points="346.49,-307.68 345.55,-297.13 339.7,-305.96 346.49,-307.68"/>
</a>
</g>
</g>
<!-- Node14 -->
<g id="Node000014" class="node">
<title>Node14</title>
<g id="a_Node000014"><a xlink:href="_core_object_8h.html" target="_top" xlink:title=" ">
<polygon fill="white" stroke="#666666" points="552.5,-350.75 478.75,-350.75 478.75,-331.5 552.5,-331.5 552.5,-350.75"/>
<text text-anchor="middle" x="515.62" y="-337.25" font-family="Helvetica,sans-Serif" font-size="10.00">CoreObject.h</text>
</a>
</g>
</g>
<!-- Node4&#45;&gt;Node14 -->
<g id="edge15_Node000004_Node000014" class="edge">
<title>Node4&#45;&gt;Node14</title>
<g id="a_edge15_Node000004_Node000014"><a xlink:title=" ">
<path fill="none" stroke="#63b8ff" d="M283.75,-388.03C331.55,-378.56 414.72,-362.1 467.38,-351.68"/>
<polygon fill="#63b8ff" stroke="#63b8ff" points="467.84,-355.15 476.97,-349.78 466.48,-348.29 467.84,-355.15"/>
</a>
</g>
</g>
<!-- Node21 -->
<g id="Node000021" class="node">
<title>Node21</title>
<g id="a_Node000021"><a xlink:href="_synchronizable_8h.html" target="_top" xlink:title=" ">
<polygon fill="white" stroke="#666666" points="249.12,-350.75 158.12,-350.75 158.12,-331.5 249.12,-331.5 249.12,-350.75"/>
<text text-anchor="middle" x="203.62" y="-337.25" font-family="Helvetica,sans-Serif" font-size="10.00">Synchronizable.h</text>
</a>
</g>
</g>
<!-- Node4&#45;&gt;Node21 -->
<g id="edge25_Node000004_Node000021" class="edge">
<title>Node4&#45;&gt;Node21</title>
<g id="a_edge25_Node000004_Node000021"><a xlink:title=" ">
<path fill="none" stroke="#63b8ff" d="M239.52,-386.58C233.71,-379.38 225.29,-368.96 218.07,-360.01"/>
<polygon fill="#63b8ff" stroke="#63b8ff" points="220.84,-357.87 211.83,-352.29 215.39,-362.27 220.84,-357.87"/>
</a>
</g>
</g>
<!-- Node27 -->
<g id="Node000027" class="node">
<title>Node27</title>
<g id="a_Node000027"><a xlink:href="_ring_buffer_8h.html" target="_top" xlink:title=" ">
<polygon fill="white" stroke="#666666" points="139.62,-350.75 69.62,-350.75 69.62,-331.5 139.62,-331.5 139.62,-350.75"/>
<text text-anchor="middle" x="104.62" y="-337.25" font-family="Helvetica,sans-Serif" font-size="10.00">RingBuffer.h</text>
</a>
</g>
</g>
<!-- Node4&#45;&gt;Node27 -->
<g id="edge32_Node000004_Node000027" class="edge">
<title>Node4&#45;&gt;Node27</title>
<g id="a_edge32_Node000004_Node000027"><a xlink:title=" ">
<path fill="none" stroke="#63b8ff" d="M222.54,-386.34C199.69,-377.77 165.11,-364.81 139.3,-355.13"/>
<polygon fill="#63b8ff" stroke="#63b8ff" points="140.84,-351.97 130.25,-351.73 138.38,-358.52 140.84,-351.97"/>
</a>
</g>
</g>
<!-- Node29 -->
<g id="Node000029" class="node">
<title>Node29</title>
<g id="a_Node000029"><a xlink:title=" ">
<polygon fill="#e0e0e0" stroke="#999999" points="312.25,-350.75 267,-350.75 267,-331.5 312.25,-331.5 312.25,-350.75"/>
<text text-anchor="middle" x="289.62" y="-337.25" font-family="Helvetica,sans-Serif" font-size="10.00">atomic</text>
</a>
</g>
</g>
<!-- Node4&#45;&gt;Node29 -->
<g id="edge35_Node000004_Node000029" class="edge">
<title>Node4&#45;&gt;Node29</title>
<g id="a_edge35_Node000004_Node000029"><a xlink:title=" ">
<path fill="none" stroke="#63b8ff" d="M253.73,-386.58C259.54,-379.38 267.96,-368.96 275.18,-360.01"/>
<polygon fill="#63b8ff" stroke="#63b8ff" points="277.86,-362.27 281.42,-352.29 272.41,-357.87 277.86,-362.27"/>
</a>
</g>
</g>
<!-- Node6 -->
<g id="Node000006" class="node">
<title>Node6</title>
<g id="a_Node000006"><a xlink:href="_aliases_8h.html" target="_top" xlink:title=" ">
<polygon fill="white" stroke="#666666" points="374.88,-185 318.38,-185 318.38,-165.75 374.88,-165.75 374.88,-185"/>
<text text-anchor="middle" x="346.62" y="-171.5" font-family="Helvetica,sans-Serif" font-size="10.00">Aliases.h</text>
</a>
</g>
</g>
<!-- Node5&#45;&gt;Node6 -->
<g id="edge5_Node000005_Node000006" class="edge">
<title>Node5&#45;&gt;Node6</title>
<g id="a_edge5_Node000005_Node000006"><a xlink:title=" ">
<path fill="none" stroke="#63b8ff" d="M334.72,-275.96C324.39,-267.96 310.66,-255.22 304.62,-240.25 297.58,-222.78 311.25,-205.05 324.84,-192.72"/>
<polygon fill="#63b8ff" stroke="#63b8ff" points="326.94,-195.52 332.37,-186.42 322.46,-190.15 326.94,-195.52"/>
</a>
</g>
</g>
<!-- Node12 -->
<g id="Node000012" class="node">
<title>Node12</title>
<g id="a_Node000012"><a xlink:href="_reflection_8h.html" target="_top" xlink:title=" ">
<polygon fill="white" stroke="#666666" points="463.88,-185 395.38,-185 395.38,-165.75 463.88,-165.75 463.88,-185"/>
<text text-anchor="middle" x="429.62" y="-171.5" font-family="Helvetica,sans-Serif" font-size="10.00">Reflection.h</text>
</a>
</g>
</g>
<!-- Node5&#45;&gt;Node12 -->
<g id="edge11_Node000005_Node000012" class="edge">
<title>Node5&#45;&gt;Node12</title>
<g id="a_edge11_Node000005_Node000012"><a xlink:title=" ">
<path fill="none" stroke="#63b8ff" d="M366.5,-275.89C380.6,-268.27 399.3,-256.05 410.62,-240.25 419.82,-227.42 424.61,-210.13 427.08,-196.77"/>
<polygon fill="#63b8ff" stroke="#63b8ff" points="430.53,-197.35 428.58,-186.94 423.61,-196.3 430.53,-197.35"/>
</a>
</g>
</g>
<!-- Node13 -->
<g id="Node000013" class="node">
<title>Node13</title>
<g id="a_Node000013"><a xlink:href="_joystick_types_8h.html" target="_top" xlink:title=" ">
<polygon fill="white" stroke="#666666" points="401.25,-240.25 314,-240.25 314,-221 401.25,-221 401.25,-240.25"/>
<text text-anchor="middle" x="357.62" y="-226.75" font-family="Helvetica,sans-Serif" font-size="10.00">JoystickTypes.h</text>
</a>
</g>
</g>
<!-- Node5&#45;&gt;Node13 -->
<g id="edge12_Node000005_Node000013" class="edge">
<title>Node5&#45;&gt;Node13</title>
<g id="a_edge12_Node000005_Node000013"><a xlink:title=" ">
<path fill="none" stroke="#63b8ff" d="M349.28,-276.08C350.51,-269.49 352.26,-260.21 353.83,-251.82"/>
<polygon fill="#63b8ff" stroke="#63b8ff" points="357.25,-252.57 355.66,-242.1 350.37,-251.28 357.25,-252.57"/>
</a>
</g>
</g>
<!-- Node7 -->
<g id="Node000007" class="node">
<title>Node7</title>
<g id="a_Node000007"><a xlink:href="_macros_8h.html" target="_top" xlink:title=" ">
<polygon fill="white" stroke="#666666" points="344.88,-129.75 288.38,-129.75 288.38,-110.5 344.88,-110.5 344.88,-129.75"/>
<text text-anchor="middle" x="316.62" y="-116.25" font-family="Helvetica,sans-Serif" font-size="10.00">Macros.h</text>
</a>
</g>
</g>
<!-- Node6&#45;&gt;Node7 -->
<g id="edge6_Node000006_Node000007" class="edge">
<title>Node6&#45;&gt;Node7</title>
<g id="a_edge6_Node000006_Node000007"><a xlink:title=" ">
<path fill="none" stroke="#63b8ff" d="M341.67,-165.58C337.74,-158.61 332.11,-148.62 327.19,-139.87"/>
<polygon fill="#63b8ff" stroke="#63b8ff" points="330.39,-138.42 322.43,-131.43 324.29,-141.86 330.39,-138.42"/>
</a>
</g>
</g>
<!-- Node8 -->
<g id="Node000008" class="node">
<title>Node8</title>
<g id="a_Node000008"><a xlink:href="_types_8h.html" target="_top" xlink:title=" ">
<polygon fill="white" stroke="#666666" points="313.88,-74.5 263.38,-74.5 263.38,-55.25 313.88,-55.25 313.88,-74.5"/>
<text text-anchor="middle" x="288.62" y="-61" font-family="Helvetica,sans-Serif" font-size="10.00">Types.h</text>
</a>
</g>
</g>
<!-- Node7&#45;&gt;Node8 -->
<g id="edge7_Node000007_Node000008" class="edge">
<title>Node7&#45;&gt;Node8</title>
<g id="a_edge7_Node000007_Node000008"><a xlink:title=" ">
<path fill="none" stroke="#63b8ff" d="M312,-110.33C308.38,-103.44 303.2,-93.59 298.63,-84.91"/>
<polygon fill="#63b8ff" stroke="#63b8ff" points="301.81,-83.42 294.05,-76.2 295.61,-86.68 301.81,-83.42"/>
</a>
</g>
</g>
<!-- Node9 -->
<g id="Node000009" class="node">
<title>Node9</title>
<g id="a_Node000009"><a xlink:title=" ">
<polygon fill="#e0e0e0" stroke="#999999" points="246.12,-19.25 179.12,-19.25 179.12,0 246.12,0 246.12,-19.25"/>
<text text-anchor="middle" x="212.62" y="-5.75" font-family="Helvetica,sans-Serif" font-size="10.00">sys/types.h</text>
</a>
</g>
</g>
<!-- Node8&#45;&gt;Node9 -->
<g id="edge8_Node000008_Node000009" class="edge">
<title>Node8&#45;&gt;Node9</title>
<g id="a_edge8_Node000008_Node000009"><a xlink:title=" ">
<path fill="none" stroke="#63b8ff" d="M275.73,-54.84C264.6,-47.04 248.25,-35.59 234.99,-26.29"/>
<polygon fill="#63b8ff" stroke="#63b8ff" points="237.02,-23.44 226.82,-20.57 233,-29.18 237.02,-23.44"/>
</a>
</g>
</g>
<!-- Node10 -->
<g id="Node000010" class="node">
<title>Node10</title>
<g id="a_Node000010"><a xlink:title=" ">
<polygon fill="#e0e0e0" stroke="#999999" points="312.75,-19.25 264.5,-19.25 264.5,0 312.75,0 312.75,-19.25"/>
<text text-anchor="middle" x="288.62" y="-5.75" font-family="Helvetica,sans-Serif" font-size="10.00">stdint.h</text>
</a>
</g>
</g>
<!-- Node8&#45;&gt;Node10 -->
<g id="edge9_Node000008_Node000010" class="edge">
<title>Node8&#45;&gt;Node10</title>
<g id="a_edge9_Node000008_Node000010"><a xlink:title=" ">
<path fill="none" stroke="#63b8ff" d="M288.62,-55.08C288.62,-48.57 288.62,-39.42 288.62,-31.12"/>
<polygon fill="#63b8ff" stroke="#63b8ff" points="292.13,-31.12 288.63,-21.12 285.13,-31.12 292.13,-31.12"/>
</a>
</g>
</g>
<!-- Node11 -->
<g id="Node000011" class="node">
<title>Node11</title>
<g id="a_Node000011"><a xlink:title=" ">
<polygon fill="#e0e0e0" stroke="#999999" points="386.5,-19.25 330.75,-19.25 330.75,0 386.5,0 386.5,-19.25"/>
<text text-anchor="middle" x="358.62" y="-5.75" font-family="Helvetica,sans-Serif" font-size="10.00">stdbool.h</text>
</a>
</g>
</g>
<!-- Node8&#45;&gt;Node11 -->
<g id="edge10_Node000008_Node000011" class="edge">
<title>Node8&#45;&gt;Node11</title>
<g id="a_edge10_Node000008_Node000011"><a xlink:title=" ">
<path fill="none" stroke="#63b8ff" d="M300.5,-54.84C310.72,-47.07 325.7,-35.67 337.89,-26.4"/>
<polygon fill="#63b8ff" stroke="#63b8ff" points="339.88,-29.28 345.72,-20.44 335.64,-23.71 339.88,-29.28"/>
</a>
</g>
</g>
<!-- Node13&#45;&gt;Node6 -->
<g id="edge13_Node000013_Node000006" class="edge">
<title>Node13&#45;&gt;Node6</title>
<g id="a_edge13_Node000013_Node000006"><a xlink:title=" ">
<path fill="none" stroke="#63b8ff" d="M355.81,-220.83C354.45,-214.24 352.53,-204.96 350.8,-196.57"/>
<polygon fill="#63b8ff" stroke="#63b8ff" points="354.24,-195.93 348.79,-186.84 347.38,-197.34 354.24,-195.93"/>
</a>
</g>
</g>
<!-- Node13&#45;&gt;Node12 -->
<g id="edge14_Node000013_Node000012" class="edge">
<title>Node13&#45;&gt;Node12</title>
<g id="a_edge14_Node000013_Node000012"><a xlink:title=" ">
<path fill="none" stroke="#63b8ff" d="M369.84,-220.59C380.45,-212.74 396.06,-201.2 408.67,-191.87"/>
<polygon fill="#63b8ff" stroke="#63b8ff" points="410.42,-194.94 416.37,-186.17 406.25,-189.31 410.42,-194.94"/>
</a>
</g>
</g>
<!-- Node15 -->
<g id="Node000015" class="node">
<title>Node15</title>
<g id="a_Node000015"><a xlink:href="_error_8h.html" target="_top" xlink:title=" ">
<polygon fill="white" stroke="#666666" points="537.88,-295.5 493.38,-295.5 493.38,-276.25 537.88,-276.25 537.88,-295.5"/>
<text text-anchor="middle" x="515.62" y="-282" font-family="Helvetica,sans-Serif" font-size="10.00">Error.h</text>
</a>
</g>
</g>
<!-- Node14&#45;&gt;Node15 -->
<g id="edge16_Node000014_Node000015" class="edge">
<title>Node14&#45;&gt;Node15</title>
<g id="a_edge16_Node000014_Node000015"><a xlink:title=" ">
<path fill="none" stroke="#63b8ff" d="M515.62,-331.33C515.62,-324.82 515.62,-315.67 515.62,-307.37"/>
<polygon fill="#63b8ff" stroke="#63b8ff" points="519.13,-307.37 515.63,-297.37 512.13,-307.37 519.13,-307.37"/>
</a>
</g>
</g>
<!-- Node19 -->
<g id="Node000019" class="node">
<title>Node19</title>
<g id="a_Node000019"><a xlink:href="_inspectable_8h.html" target="_top" xlink:title=" ">
<polygon fill="white" stroke="#666666" points="674.88,-295.5 600.38,-295.5 600.38,-276.25 674.88,-276.25 674.88,-295.5"/>
<text text-anchor="middle" x="637.62" y="-282" font-family="Helvetica,sans-Serif" font-size="10.00">Inspectable.h</text>
</a>
</g>
</g>
<!-- Node14&#45;&gt;Node19 -->
<g id="edge23_Node000014_Node000019" class="edge">
<title>Node14&#45;&gt;Node19</title>
<g id="a_edge23_Node000014_Node000019"><a xlink:title=" ">
<path fill="none" stroke="#63b8ff" d="M536.32,-331.09C555.51,-322.72 584.34,-310.13 606.34,-300.53"/>
<polygon fill="#63b8ff" stroke="#63b8ff" points="607.68,-303.77 615.44,-296.56 604.88,-297.35 607.68,-303.77"/>
</a>
</g>
</g>
<!-- Node16 -->
<g id="Node000016" class="node">
<title>Node16</title>
<g id="a_Node000016"><a xlink:href="_error_types_8h.html" target="_top" xlink:title=" ">
<polygon fill="white" stroke="#666666" points="529.38,-240.25 457.88,-240.25 457.88,-221 529.38,-221 529.38,-240.25"/>
<text text-anchor="middle" x="493.62" y="-226.75" font-family="Helvetica,sans-Serif" font-size="10.00">ErrorTypes.h</text>
</a>
</g>
</g>
<!-- Node15&#45;&gt;Node16 -->
<g id="edge17_Node000015_Node000016" class="edge">
<title>Node15&#45;&gt;Node16</title>
<g id="a_edge17_Node000015_Node000016"><a xlink:title=" ">
<path fill="none" stroke="#63b8ff" d="M511.99,-276.08C509.21,-269.34 505.25,-259.77 501.73,-251.24"/>
<polygon fill="#63b8ff" stroke="#63b8ff" points="504.97,-249.91 497.91,-242.01 498.5,-252.59 504.97,-249.91"/>
</a>
</g>
</g>
<!-- Node17 -->
<g id="Node000017" class="node">
<title>Node17</title>
<g id="a_Node000017"><a xlink:href="_exception_8h.html" target="_top" xlink:title=" ">
<polygon fill="white" stroke="#666666" points="615.5,-240.25 547.75,-240.25 547.75,-221 615.5,-221 615.5,-240.25"/>
<text text-anchor="middle" x="581.62" y="-226.75" font-family="Helvetica,sans-Serif" font-size="10.00">Exception.h</text>
</a>
</g>
</g>
<!-- Node15&#45;&gt;Node17 -->
<g id="edge20_Node000015_Node000017" class="edge">
<title>Node15&#45;&gt;Node17</title>
<g id="a_edge20_Node000015_Node000017"><a xlink:title=" ">
<path fill="none" stroke="#63b8ff" d="M526.82,-275.84C536.36,-268.15 550.3,-256.9 561.73,-247.68"/>
<polygon fill="#63b8ff" stroke="#63b8ff" points="563.83,-250.48 569.42,-241.48 559.44,-245.03 563.83,-250.48"/>
</a>
</g>
</g>
<!-- Node16&#45;&gt;Node6 -->
<g id="edge18_Node000016_Node000006" class="edge">
<title>Node16&#45;&gt;Node6</title>
<g id="a_edge18_Node000016_Node000006"><a xlink:title=" ">
<path fill="none" stroke="#63b8ff" d="M468.69,-220.59C444.93,-211.99 408.92,-198.94 382.16,-189.25"/>
<polygon fill="#63b8ff" stroke="#63b8ff" points="383.7,-186.08 373.11,-185.97 381.32,-192.66 383.7,-186.08"/>
</a>
</g>
</g>
<!-- Node16&#45;&gt;Node12 -->
<g id="edge19_Node000016_Node000012" class="edge">
<title>Node16&#45;&gt;Node12</title>
<g id="a_edge19_Node000016_Node000012"><a xlink:title=" ">
<path fill="none" stroke="#63b8ff" d="M482.77,-220.59C473.52,-212.9 460,-201.65 448.92,-192.43"/>
<polygon fill="#63b8ff" stroke="#63b8ff" points="451.41,-189.95 441.48,-186.24 446.93,-195.33 451.41,-189.95"/>
</a>
</g>
</g>
<!-- Node17&#45;&gt;Node8 -->
<g id="edge21_Node000017_Node000008" class="edge">
<title>Node17&#45;&gt;Node8</title>
<g id="a_edge21_Node000017_Node000008"><a xlink:title=" ">
<path fill="none" stroke="#63b8ff" d="M566.55,-220.58C545.6,-208.06 506.44,-184.83 472.62,-165.75 417.16,-134.46 351.43,-99.22 315.47,-80.09"/>
<polygon fill="#63b8ff" stroke="#63b8ff" points="317.53,-77.22 307.06,-75.63 314.25,-83.41 317.53,-77.22"/>
</a>
</g>
</g>
<!-- Node18 -->
<g id="Node000018" class="node">
<title>Node18</title>
<g id="a_Node000018"><a xlink:title=" ">
<polygon fill="#e0e0e0" stroke="#999999" points="610.62,-185 552.62,-185 552.62,-165.75 610.62,-165.75 610.62,-185"/>
<text text-anchor="middle" x="581.62" y="-171.5" font-family="Helvetica,sans-Serif" font-size="10.00">exception</text>
</a>
</g>
</g>
<!-- Node17&#45;&gt;Node18 -->
<g id="edge22_Node000017_Node000018" class="edge">
<title>Node17&#45;&gt;Node18</title>
<g id="a_edge22_Node000017_Node000018"><a xlink:title=" ">
<path fill="none" stroke="#63b8ff" d="M581.62,-220.83C581.62,-214.32 581.62,-205.17 581.62,-196.87"/>
<polygon fill="#63b8ff" stroke="#63b8ff" points="585.13,-196.87 581.63,-186.87 578.13,-196.87 585.13,-196.87"/>
</a>
</g>
</g>
<!-- Node20 -->
<g id="Node000020" class="node">
<title>Node20</title>
<g id="a_Node000020"><a xlink:title=" ">
<polygon fill="#e0e0e0" stroke="#999999" points="687.38,-240.25 633.88,-240.25 633.88,-221 687.38,-221 687.38,-240.25"/>
<text text-anchor="middle" x="660.62" y="-226.75" font-family="Helvetica,sans-Serif" font-size="10.00">iostream</text>
</a>
</g>
</g>
<!-- Node19&#45;&gt;Node20 -->
<g id="edge24_Node000019_Node000020" class="edge">
<title>Node19&#45;&gt;Node20</title>
<g id="a_edge24_Node000019_Node000020"><a xlink:title=" ">
<path fill="none" stroke="#63b8ff" d="M641.42,-276.08C644.37,-269.26 648.56,-259.56 652.28,-250.95"/>
<polygon fill="#63b8ff" stroke="#63b8ff" points="655.39,-252.57 656.14,-242 648.97,-249.79 655.39,-252.57"/>
</a>
</g>
</g>
<!-- Node22 -->
<g id="Node000022" class="node">
<title>Node22</title>
<g id="a_Node000022"><a xlink:href="_concurrency_8h.html" target="_top" xlink:title=" ">
<polygon fill="white" stroke="#666666" points="231.75,-295.5 153.5,-295.5 153.5,-276.25 231.75,-276.25 231.75,-295.5"/>
<text text-anchor="middle" x="192.62" y="-282" font-family="Helvetica,sans-Serif" font-size="10.00">Concurrency.h</text>
</a>
</g>
</g>
<!-- Node21&#45;&gt;Node22 -->
<g id="edge26_Node000021_Node000022" class="edge">
<title>Node21&#45;&gt;Node22</title>
<g id="a_edge26_Node000021_Node000022"><a xlink:title=" ">
<path fill="none" stroke="#63b8ff" d="M201.81,-331.33C200.45,-324.74 198.53,-315.46 196.8,-307.07"/>
<polygon fill="#63b8ff" stroke="#63b8ff" points="200.24,-306.43 194.79,-297.34 193.38,-307.84 200.24,-306.43"/>
</a>
</g>
</g>
<!-- Node23 -->
<g id="Node000023" class="node">
<title>Node23</title>
<g id="a_Node000023"><a xlink:href="_chrono_8h.html" target="_top" xlink:title=" ">
<polygon fill="white" stroke="#666666" points="257.5,-240.25 201.75,-240.25 201.75,-221 257.5,-221 257.5,-240.25"/>
<text text-anchor="middle" x="229.62" y="-226.75" font-family="Helvetica,sans-Serif" font-size="10.00">Chrono.h</text>
</a>
</g>
</g>
<!-- Node22&#45;&gt;Node23 -->
<g id="edge27_Node000022_Node000023" class="edge">
<title>Node22&#45;&gt;Node23</title>
<g id="a_edge27_Node000022_Node000023"><a xlink:title=" ">
<path fill="none" stroke="#63b8ff" d="M198.73,-276.08C203.69,-268.96 210.83,-258.68 217,-249.8"/>
<polygon fill="#63b8ff" stroke="#63b8ff" points="219.69,-252.06 222.52,-241.85 213.94,-248.07 219.69,-252.06"/>
</a>
</g>
</g>
<!-- Node25 -->
<g id="Node000025" class="node">
<title>Node25</title>
<g id="a_Node000025"><a xlink:title=" ">
<polygon fill="#e0e0e0" stroke="#999999" points="125.12,-240.25 82.12,-240.25 82.12,-221 125.12,-221 125.12,-240.25"/>
<text text-anchor="middle" x="103.62" y="-226.75" font-family="Helvetica,sans-Serif" font-size="10.00">thread</text>
</a>
</g>
</g>
<!-- Node22&#45;&gt;Node25 -->
<g id="edge30_Node000022_Node000025" class="edge">
<title>Node22&#45;&gt;Node25</title>
<g id="a_edge30_Node000022_Node000025"><a xlink:title=" ">
<path fill="none" stroke="#63b8ff" d="M177.53,-275.84C164.1,-267.81 144.21,-255.91 128.45,-246.48"/>
<polygon fill="#63b8ff" stroke="#63b8ff" points="130.47,-243.61 120.1,-241.48 126.88,-249.62 130.47,-243.61"/>
</a>
</g>
</g>
<!-- Node26 -->
<g id="Node000026" class="node">
<title>Node26</title>
<g id="a_Node000026"><a xlink:title=" ">
<polygon fill="#e0e0e0" stroke="#999999" points="184,-240.25 143.25,-240.25 143.25,-221 184,-221 184,-240.25"/>
<text text-anchor="middle" x="163.62" y="-226.75" font-family="Helvetica,sans-Serif" font-size="10.00">future</text>
</a>
</g>
</g>
<!-- Node22&#45;&gt;Node26 -->
<g id="edge31_Node000022_Node000026" class="edge">
<title>Node22&#45;&gt;Node26</title>
<g id="a_edge31_Node000022_Node000026"><a xlink:title=" ">
<path fill="none" stroke="#63b8ff" d="M187.84,-276.08C184.08,-269.19 178.72,-259.34 173.99,-250.66"/>
<polygon fill="#63b8ff" stroke="#63b8ff" points="177.1,-249.05 169.24,-241.94 170.95,-252.39 177.1,-249.05"/>
</a>
</g>
</g>
<!-- Node23&#45;&gt;Node8 -->
<g id="edge28_Node000023_Node000008" class="edge">
<title>Node23&#45;&gt;Node8</title>
<g id="a_edge28_Node000023_Node000008"><a xlink:title=" ">
<path fill="none" stroke="#63b8ff" d="M231.96,-220.87C235.31,-208.48 241.85,-185.2 248.62,-165.75 258.49,-137.42 271.72,-105.34 280.21,-85.35"/>
<polygon fill="#63b8ff" stroke="#63b8ff" points="283.39,-86.82 284.11,-76.25 276.95,-84.06 283.39,-86.82"/>
</a>
</g>
</g>
<!-- Node24 -->
<g id="Node000024" class="node">
<title>Node24</title>
<g id="a_Node000024"><a xlink:title=" ">
<polygon fill="#e0e0e0" stroke="#999999" points="297.62,-185 257.62,-185 257.62,-165.75 297.62,-165.75 297.62,-185"/>
<text text-anchor="middle" x="277.62" y="-171.5" font-family="Helvetica,sans-Serif" font-size="10.00">ctime</text>
</a>
</g>
</g>
<!-- Node23&#45;&gt;Node24 -->
<g id="edge29_Node000023_Node000024" class="edge">
<title>Node23&#45;&gt;Node24</title>
<g id="a_edge29_Node000023_Node000024"><a xlink:title=" ">
<path fill="none" stroke="#63b8ff" d="M237.55,-220.83C244.18,-213.48 253.84,-202.76 262.01,-193.69"/>
<polygon fill="#63b8ff" stroke="#63b8ff" points="264.42,-196.25 268.51,-186.48 259.22,-191.57 264.42,-196.25"/>
</a>
</g>
</g>
<!-- Node27&#45;&gt;Node8 -->
<g id="edge33_Node000027_Node000008" class="edge">
<title>Node27&#45;&gt;Node8</title>
<g id="a_edge33_Node000027_Node000008"><a xlink:title=" ">
<path fill="none" stroke="#63b8ff" d="M97.1,-331.22C82.91,-313.49 53.62,-272 53.62,-231.62 53.62,-231.62 53.62,-231.62 53.62,-174.38 53.62,-88.11 185.78,-70.21 251.88,-66.65"/>
<polygon fill="#63b8ff" stroke="#63b8ff" points="251.68,-70.16 261.52,-66.22 251.37,-63.17 251.68,-70.16"/>
</a>
</g>
</g>
<!-- Node28 -->
<g id="Node000028" class="node">
<title>Node28</title>
<g id="a_Node000028"><a xlink:title=" ">
<polygon fill="#e0e0e0" stroke="#999999" points="124.25,-295.5 85,-295.5 85,-276.25 124.25,-276.25 124.25,-295.5"/>
<text text-anchor="middle" x="104.62" y="-282" font-family="Helvetica,sans-Serif" font-size="10.00">utility</text>
</a>
</g>
</g>
<!-- Node27&#45;&gt;Node28 -->
<g id="edge34_Node000027_Node000028" class="edge">
<title>Node27&#45;&gt;Node28</title>
<g id="a_edge34_Node000027_Node000028"><a xlink:title=" ">
<path fill="none" stroke="#63b8ff" d="M104.62,-331.33C104.62,-324.82 104.62,-315.67 104.62,-307.37"/>
<polygon fill="#63b8ff" stroke="#63b8ff" points="108.13,-307.37 104.63,-297.37 101.13,-307.37 108.13,-307.37"/>
</a>
</g>
</g>
</g>
</svg>
