<?xml version="1.0" encoding="UTF-8" standalone="no"?>
<!DOCTYPE svg PUBLIC "-//W3C//DTD SVG 1.1//EN"
 "http://www.w3.org/Graphics/SVG/1.1/DTD/svg11.dtd">
<!-- Generated by graphviz version 10.0.1 (20240210.2158)
 -->
<!-- Title: /Users/hoff/Retro/virtualc64/Emulator/Base/CmdQueueTypes.h Pages: 1 -->
<svg width="647pt" height="460pt"
 viewBox="0.00 0.00 647.16 460.00" xmlns="http://www.w3.org/2000/svg" xmlns:xlink="http://www.w3.org/1999/xlink">
<g id="graph0" class="graph" transform="scale(1 1) rotate(0) translate(4 456)">
<title>/Users/hoff/Retro/virtualc64/Emulator/Base/CmdQueueTypes.h</title>
<!-- Node1 -->
<g id="Node000001" class="node">
<title>Node1</title>
<g id="a_Node000001"><a xlink:title=" ">
<polygon fill="#999999" stroke="#666666" points="537.79,-452 367.29,-452 367.29,-421.5 537.79,-421.5 537.79,-452"/>
<text text-anchor="start" x="375.29" y="-438.5" font-family="Helvetica,sans-Serif" font-size="10.00">/Users/hoff/Retro/virtualc64</text>
<text text-anchor="middle" x="452.54" y="-427.25" font-family="Helvetica,sans-Serif" font-size="10.00">/Emulator/Base/CmdQueueTypes.h</text>
</a>
</g>
</g>
<!-- Node2 -->
<g id="Node000002" class="node">
<title>Node2</title>
<g id="a_Node000002"><a xlink:href="_cmd_queue_8h.html" target="_top" xlink:title=" ">
<polygon fill="white" stroke="#666666" points="164.66,-379.88 20.41,-379.88 20.41,-349.38 164.66,-349.38 164.66,-379.88"/>
<text text-anchor="start" x="28.41" y="-366.38" font-family="Helvetica,sans-Serif" font-size="10.00">/Users/hoff/Retro/virtualc64</text>
<text text-anchor="middle" x="92.54" y="-355.12" font-family="Helvetica,sans-Serif" font-size="10.00">/Emulator/Base/CmdQueue.h</text>
</a>
</g>
</g>
<!-- Node1&#45;&gt;Node2 -->
<g id="edge1_Node000001_Node000002" class="edge">
<title>Node1&#45;&gt;Node2</title>
<g id="a_edge1_Node000001_Node000002"><a xlink:title=" ">
<path fill="none" stroke="#63b8ff" d="M355.54,-419.81C301.76,-410.59 233.77,-398.3 173.54,-385.5 166.03,-383.9 158.16,-382.12 150.4,-380.29"/>
<polygon fill="#63b8ff" stroke="#63b8ff" points="354.86,-423.24 365.3,-421.48 356.03,-416.34 354.86,-423.24"/>
</a>
</g>
</g>
<!-- Node9 -->
<g id="Node000009" class="node">
<title>Node9</title>
<g id="a_Node000009"><a xlink:href="_control_port_8h_source.html" target="_top" xlink:title=" ">
<polygon fill="white" stroke="#666666" points="350.66,-385.5 182.41,-385.5 182.41,-343.75 350.66,-343.75 350.66,-385.5"/>
<text text-anchor="start" x="190.41" y="-372" font-family="Helvetica,sans-Serif" font-size="10.00">/Users/hoff/Retro/virtualc64</text>
<text text-anchor="start" x="190.41" y="-360.75" font-family="Helvetica,sans-Serif" font-size="10.00">/Emulator/Components/LogicBoard</text>
<text text-anchor="middle" x="266.54" y="-349.5" font-family="Helvetica,sans-Serif" font-size="10.00">/ControlPort.h</text>
</a>
</g>
</g>
<!-- Node1&#45;&gt;Node9 -->
<g id="edge10_Node000001_Node000009" class="edge">
<title>Node1&#45;&gt;Node9</title>
<g id="a_edge10_Node000001_Node000009"><a xlink:title=" ">
<path fill="none" stroke="#63b8ff" d="M402.99,-417.07C377.5,-407.46 346.37,-395.72 320.29,-385.89"/>
<polygon fill="#63b8ff" stroke="#63b8ff" points="401.54,-420.26 412.13,-420.52 404.01,-413.71 401.54,-420.26"/>
</a>
</g>
</g>
<!-- Node10 -->
<g id="Node000010" class="node">
<title>Node10</title>
<g id="a_Node000010"><a xlink:href="_expansion_port_8h_source.html" target="_top" xlink:title=" ">
<polygon fill="white" stroke="#666666" points="536.66,-385.5 368.41,-385.5 368.41,-343.75 536.66,-343.75 536.66,-385.5"/>
<text text-anchor="start" x="376.41" y="-372" font-family="Helvetica,sans-Serif" font-size="10.00">/Users/hoff/Retro/virtualc64</text>
<text text-anchor="start" x="376.41" y="-360.75" font-family="Helvetica,sans-Serif" font-size="10.00">/Emulator/Components/LogicBoard</text>
<text text-anchor="middle" x="452.54" y="-349.5" font-family="Helvetica,sans-Serif" font-size="10.00">/ExpansionPort.h</text>
</a>
</g>
</g>
<!-- Node1&#45;&gt;Node10 -->
<g id="edge12_Node000001_Node000010" class="edge">
<title>Node1&#45;&gt;Node10</title>
<g id="a_edge12_Node000001_Node000010"><a xlink:title=" ">
<path fill="none" stroke="#63b8ff" d="M452.54,-409.97C452.54,-402.06 452.54,-393.48 452.54,-385.99"/>
<polygon fill="#63b8ff" stroke="#63b8ff" points="449.04,-409.71 452.54,-419.71 456.04,-409.71 449.04,-409.71"/>
</a>
</g>
</g>
<!-- Node11 -->
<g id="Node000011" class="node">
<title>Node11</title>
<g id="a_Node000011"><a xlink:href="_drive_8h_source.html" target="_top" xlink:title=" ">
<polygon fill="white" stroke="#666666" points="574.91,-307.75 438.16,-307.75 438.16,-266 574.91,-266 574.91,-307.75"/>
<text text-anchor="start" x="446.16" y="-294.25" font-family="Helvetica,sans-Serif" font-size="10.00">/Users/hoff/Retro/virtualc64</text>
<text text-anchor="start" x="446.16" y="-283" font-family="Helvetica,sans-Serif" font-size="10.00">/Emulator/Peripherals/Drive</text>
<text text-anchor="middle" x="506.54" y="-271.75" font-family="Helvetica,sans-Serif" font-size="10.00">/Drive.h</text>
</a>
</g>
</g>
<!-- Node1&#45;&gt;Node11 -->
<g id="edge14_Node000001_Node000011" class="edge">
<title>Node1&#45;&gt;Node11</title>
<g id="a_edge14_Node000001_Node000011"><a xlink:title=" ">
<path fill="none" stroke="#63b8ff" d="M511.14,-416.24C524.77,-408.82 537.6,-398.82 545.54,-385.5 560.5,-360.42 541.52,-328.55 525.19,-308.18"/>
<polygon fill="#63b8ff" stroke="#63b8ff" points="509.9,-412.95 502.49,-420.53 513.01,-419.22 509.9,-412.95"/>
</a>
</g>
</g>
<!-- Node12 -->
<g id="Node000012" class="node">
<title>Node12</title>
<g id="a_Node000012"><a xlink:href="_virtual_c64_types_8h.html" target="_top" xlink:title=" ">
<polygon fill="white" stroke="#666666" points="639.16,-230 497.91,-230 497.91,-199.5 639.16,-199.5 639.16,-230"/>
<text text-anchor="start" x="505.91" y="-216.5" font-family="Helvetica,sans-Serif" font-size="10.00">/Users/hoff/Retro/virtualc64</text>
<text text-anchor="middle" x="568.54" y="-205.25" font-family="Helvetica,sans-Serif" font-size="10.00">/Emulator/VirtualC64Types.h</text>
</a>
</g>
</g>
<!-- Node1&#45;&gt;Node12 -->
<g id="edge16_Node000001_Node000012" class="edge">
<title>Node1&#45;&gt;Node12</title>
<g id="a_edge16_Node000001_Node000012"><a xlink:title=" ">
<path fill="none" stroke="#63b8ff" d="M517.43,-416.76C533.73,-409.29 549.88,-399.14 561.54,-385.5 596.63,-344.45 591.34,-319.44 583.54,-266 581.75,-253.75 577.63,-240.33 574.16,-230.45"/>
<polygon fill="#63b8ff" stroke="#63b8ff" points="516.52,-413.34 508.69,-420.47 519.26,-419.78 516.52,-413.34"/>
</a>
</g>
</g>
<!-- Node3 -->
<g id="Node000003" class="node">
<title>Node3</title>
<g id="a_Node000003"><a xlink:href="_emulator_8h_source.html" target="_top" xlink:title=" ">
<polygon fill="white" stroke="#666666" points="455.54,-163.5 289.54,-163.5 289.54,-133 455.54,-133 455.54,-163.5"/>
<text text-anchor="start" x="297.54" y="-150" font-family="Helvetica,sans-Serif" font-size="10.00">/Users/hoff/Retro/virtualc64</text>
<text text-anchor="middle" x="372.54" y="-138.75" font-family="Helvetica,sans-Serif" font-size="10.00">/Emulator/Components/Emulator.h</text>
</a>
</g>
</g>
<!-- Node2&#45;&gt;Node3 -->
<g id="edge2_Node000002_Node000003" class="edge">
<title>Node2&#45;&gt;Node3</title>
<g id="a_edge2_Node000002_Node000003"><a xlink:title=" ">
<path fill="none" stroke="#63b8ff" d="M45.32,-343.79C30.51,-335.04 15.86,-323.18 7.54,-307.75 -1.27,-291.42 -3.4,-280.99 7.54,-266 41.18,-219.92 193.56,-183.18 290.49,-163.95"/>
<polygon fill="#63b8ff" stroke="#63b8ff" points="43.24,-346.64 53.69,-348.36 46.6,-340.49 43.24,-346.64"/>
</a>
</g>
</g>
<!-- Node6 -->
<g id="Node000006" class="node">
<title>Node6</title>
<g id="a_Node000006"><a xlink:href="_datasette_8h_source.html" target="_top" xlink:title=" ">
<polygon fill="white" stroke="#666666" points="172.29,-307.75 16.79,-307.75 16.79,-266 172.29,-266 172.29,-307.75"/>
<text text-anchor="start" x="24.79" y="-294.25" font-family="Helvetica,sans-Serif" font-size="10.00">/Users/hoff/Retro/virtualc64</text>
<text text-anchor="start" x="24.79" y="-283" font-family="Helvetica,sans-Serif" font-size="10.00">/Emulator/Peripherals/Datasette</text>
<text text-anchor="middle" x="94.54" y="-271.75" font-family="Helvetica,sans-Serif" font-size="10.00">/Datasette.h</text>
</a>
</g>
</g>
<!-- Node2&#45;&gt;Node6 -->
<g id="edge5_Node000002_Node000006" class="edge">
<title>Node2&#45;&gt;Node6</title>
<g id="a_edge5_Node000002_Node000006"><a xlink:title=" ">
<path fill="none" stroke="#63b8ff" d="M93.23,-337.64C93.48,-328 93.76,-317.22 94,-308.16"/>
<polygon fill="#63b8ff" stroke="#63b8ff" points="89.73,-337.42 92.96,-347.51 96.73,-337.6 89.73,-337.42"/>
</a>
</g>
</g>
<!-- Node8 -->
<g id="Node000008" class="node">
<title>Node8</title>
<g id="a_Node000008"><a xlink:href="_keyboard_8h_source.html" target="_top" xlink:title=" ">
<polygon fill="white" stroke="#666666" points="344.54,-307.75 190.54,-307.75 190.54,-266 344.54,-266 344.54,-307.75"/>
<text text-anchor="start" x="198.54" y="-294.25" font-family="Helvetica,sans-Serif" font-size="10.00">/Users/hoff/Retro/virtualc64</text>
<text text-anchor="start" x="198.54" y="-283" font-family="Helvetica,sans-Serif" font-size="10.00">/Emulator/Peripherals/Keyboard</text>
<text text-anchor="middle" x="267.54" y="-271.75" font-family="Helvetica,sans-Serif" font-size="10.00">/Keyboard.h</text>
</a>
</g>
</g>
<!-- Node2&#45;&gt;Node8 -->
<g id="edge8_Node000002_Node000008" class="edge">
<title>Node2&#45;&gt;Node8</title>
<g id="a_edge8_Node000002_Node000008"><a xlink:title=" ">
<path fill="none" stroke="#63b8ff" d="M136.82,-344.46C162.43,-333.37 194.63,-319.43 220.67,-308.16"/>
<polygon fill="#63b8ff" stroke="#63b8ff" points="135.46,-341.23 127.67,-348.42 138.24,-347.66 135.46,-341.23"/>
</a>
</g>
</g>
<!-- Node4 -->
<g id="Node000004" class="node">
<title>Node4</title>
<g id="a_Node000004"><a xlink:href="_virtual_c64_8h.html" target="_top" xlink:title=" ">
<polygon fill="white" stroke="#666666" points="495.91,-97 359.16,-97 359.16,-66.5 495.91,-66.5 495.91,-97"/>
<text text-anchor="start" x="367.16" y="-83.5" font-family="Helvetica,sans-Serif" font-size="10.00">/Users/hoff/Retro/virtualc64</text>
<text text-anchor="middle" x="427.54" y="-72.25" font-family="Helvetica,sans-Serif" font-size="10.00">/Emulator/VirtualC64.h</text>
</a>
</g>
</g>
<!-- Node3&#45;&gt;Node4 -->
<g id="edge3_Node000003_Node000004" class="edge">
<title>Node3&#45;&gt;Node4</title>
<g id="a_edge3_Node000003_Node000004"><a xlink:title=" ">
<path fill="none" stroke="#63b8ff" d="M392.25,-124.13C399.88,-115.19 408.37,-105.24 415.11,-97.33"/>
<polygon fill="#63b8ff" stroke="#63b8ff" points="389.83,-121.58 386,-131.46 395.15,-126.12 389.83,-121.58"/>
</a>
</g>
</g>
<!-- Node5 -->
<g id="Node000005" class="node">
<title>Node5</title>
<g id="a_Node000005"><a xlink:href="_headless_8h_source.html" target="_top" xlink:title=" ">
<polygon fill="white" stroke="#666666" points="495.91,-30.5 359.16,-30.5 359.16,0 495.91,0 495.91,-30.5"/>
<text text-anchor="start" x="367.16" y="-17" font-family="Helvetica,sans-Serif" font-size="10.00">/Users/hoff/Retro/virtualc64</text>
<text text-anchor="middle" x="427.54" y="-5.75" font-family="Helvetica,sans-Serif" font-size="10.00">/Emulator/Headless.h</text>
</a>
</g>
</g>
<!-- Node4&#45;&gt;Node5 -->
<g id="edge4_Node000004_Node000005" class="edge">
<title>Node4&#45;&gt;Node5</title>
<g id="a_edge4_Node000004_Node000005"><a xlink:title=" ">
<path fill="none" stroke="#63b8ff" d="M427.54,-54.81C427.54,-46.64 427.54,-37.91 427.54,-30.83"/>
<polygon fill="#63b8ff" stroke="#63b8ff" points="424.04,-54.6 427.54,-64.6 431.04,-54.6 424.04,-54.6"/>
</a>
</g>
</g>
<!-- Node7 -->
<g id="Node000007" class="node">
<title>Node7</title>
<g id="a_Node000007"><a xlink:href="_c64_8h_source.html" target="_top" xlink:title=" ">
<polygon fill="white" stroke="#666666" points="445.41,-230 299.66,-230 299.66,-199.5 445.41,-199.5 445.41,-230"/>
<text text-anchor="start" x="307.66" y="-216.5" font-family="Helvetica,sans-Serif" font-size="10.00">/Users/hoff/Retro/virtualc64</text>
<text text-anchor="middle" x="372.54" y="-205.25" font-family="Helvetica,sans-Serif" font-size="10.00">/Emulator/Components/C64.h</text>
</a>
</g>
</g>
<!-- Node6&#45;&gt;Node7 -->
<g id="edge6_Node000006_Node000007" class="edge">
<title>Node6&#45;&gt;Node7</title>
<g id="a_edge6_Node000006_Node000007"><a xlink:title=" ">
<path fill="none" stroke="#63b8ff" d="M183.71,-263.38C226.49,-252.59 276.52,-239.97 314.34,-230.43"/>
<polygon fill="#63b8ff" stroke="#63b8ff" points="183.03,-259.94 174.19,-265.78 184.74,-266.73 183.03,-259.94"/>
</a>
</g>
</g>
<!-- Node7&#45;&gt;Node3 -->
<g id="edge7_Node000007_Node000003" class="edge">
<title>Node7&#45;&gt;Node3</title>
<g id="a_edge7_Node000007_Node000003"><a xlink:title=" ">
<path fill="none" stroke="#63b8ff" d="M372.54,-187.81C372.54,-179.64 372.54,-170.91 372.54,-163.83"/>
<polygon fill="#63b8ff" stroke="#63b8ff" points="369.04,-187.6 372.54,-197.6 376.04,-187.6 369.04,-187.6"/>
</a>
</g>
</g>
<!-- Node8&#45;&gt;Node7 -->
<g id="edge9_Node000008_Node000007" class="edge">
<title>Node8&#45;&gt;Node7</title>
<g id="a_edge9_Node000008_Node000007"><a xlink:title=" ">
<path fill="none" stroke="#63b8ff" d="M307.29,-259.32C321.96,-249.53 338.05,-238.79 350.57,-230.42"/>
<polygon fill="#63b8ff" stroke="#63b8ff" points="305.54,-256.29 299.17,-264.75 309.43,-262.11 305.54,-256.29"/>
</a>
</g>
</g>
<!-- Node9&#45;&gt;Node7 -->
<g id="edge11_Node000009_Node000007" class="edge">
<title>Node9&#45;&gt;Node7</title>
<g id="a_edge11_Node000009_Node000007"><a xlink:title=" ">
<path fill="none" stroke="#63b8ff" d="M321.97,-337.4C333.95,-329.41 345.44,-319.54 353.54,-307.75 369.7,-284.22 372.64,-249.87 372.89,-230.49"/>
<polygon fill="#63b8ff" stroke="#63b8ff" points="320.24,-334.36 313.6,-342.62 323.94,-340.3 320.24,-334.36"/>
</a>
</g>
</g>
<!-- Node10&#45;&gt;Node7 -->
<g id="edge13_Node000010_Node000007" class="edge">
<title>Node10&#45;&gt;Node7</title>
<g id="a_edge13_Node000010_Node000007"><a xlink:title=" ">
<path fill="none" stroke="#63b8ff" d="M436.2,-333.42C419.23,-302.05 393.39,-254.29 380.47,-230.41"/>
<polygon fill="#63b8ff" stroke="#63b8ff" points="433.03,-334.91 440.86,-342.04 439.18,-331.58 433.03,-334.91"/>
</a>
</g>
</g>
<!-- Node11&#45;&gt;Node7 -->
<g id="edge15_Node000011_Node000007" class="edge">
<title>Node11&#45;&gt;Node7</title>
<g id="a_edge15_Node000011_Node000007"><a xlink:title=" ">
<path fill="none" stroke="#63b8ff" d="M457.67,-260.3C438.46,-250.25 417.09,-239.07 400.57,-230.42"/>
<polygon fill="#63b8ff" stroke="#63b8ff" points="455.96,-263.35 466.44,-264.89 459.2,-257.15 455.96,-263.35"/>
</a>
</g>
</g>
<!-- Node12&#45;&gt;Node4 -->
<g id="edge17_Node000012_Node000004" class="edge">
<title>Node12&#45;&gt;Node4</title>
<g id="a_edge17_Node000012_Node000004"><a xlink:title=" ">
<path fill="none" stroke="#63b8ff" d="M544.59,-191.5C515.67,-164.63 467.84,-120.2 443.24,-97.33"/>
<polygon fill="#63b8ff" stroke="#63b8ff" points="542.09,-193.96 551.8,-198.2 546.86,-188.83 542.09,-193.96"/>
</a>
</g>
</g>
</g>
</svg>
