<?xml version="1.0" encoding="UTF-8" standalone="no"?>
<!DOCTYPE svg PUBLIC "-//W3C//DTD SVG 1.1//EN"
 "http://www.w3.org/Graphics/SVG/1.1/DTD/svg11.dtd">
<!-- Generated by graphviz version 10.0.1 (20240210.2158)
 -->
<!-- Title: /Users/hoff/Retro/virtualc64/Emulator/Base/CmdQueue.h Pages: 1 -->
<svg width="442pt" height="327pt"
 viewBox="0.00 0.00 442.08 327.00" xmlns="http://www.w3.org/2000/svg" xmlns:xlink="http://www.w3.org/1999/xlink">
<g id="graph0" class="graph" transform="scale(1 1) rotate(0) translate(4 323)">
<title>/Users/hoff/Retro/virtualc64/Emulator/Base/CmdQueue.h</title>
<!-- Node1 -->
<g id="Node000001" class="node">
<title>Node1</title>
<g id="a_Node000001"><a xlink:title=" ">
<polygon fill="#999999" stroke="#666666" points="350.25,-319 206,-319 206,-288.5 350.25,-288.5 350.25,-319"/>
<text text-anchor="start" x="214" y="-305.5" font-family="Helvetica,sans-Serif" font-size="10.00">/Users/hoff/Retro/virtualc64</text>
<text text-anchor="middle" x="278.12" y="-294.25" font-family="Helvetica,sans-Serif" font-size="10.00">/Emulator/Base/CmdQueue.h</text>
</a>
</g>
</g>
<!-- Node2 -->
<g id="Node000002" class="node">
<title>Node2</title>
<g id="a_Node000002"><a xlink:href="_c_p_u_8h_source.html" target="_top" xlink:title=" ">
<polygon fill="white" stroke="#666666" points="174.25,-246.88 0,-246.88 0,-216.38 174.25,-216.38 174.25,-246.88"/>
<text text-anchor="start" x="8" y="-233.38" font-family="Helvetica,sans-Serif" font-size="10.00">/Users/hoff/Retro/virtualc64</text>
<text text-anchor="middle" x="87.12" y="-222.12" font-family="Helvetica,sans-Serif" font-size="10.00">/Emulator/Components/CPU/CPU.h</text>
</a>
</g>
</g>
<!-- Node1&#45;&gt;Node2 -->
<g id="edge1_Node000001_Node000002" class="edge">
<title>Node1&#45;&gt;Node2</title>
<g id="a_edge1_Node000001_Node000002"><a xlink:title=" ">
<path fill="none" stroke="#63b8ff" d="M227.36,-284.11C195.97,-272.59 156.26,-258.01 127.11,-247.31"/>
<polygon fill="#63b8ff" stroke="#63b8ff" points="226.07,-287.37 236.66,-287.53 228.48,-280.8 226.07,-287.37"/>
</a>
</g>
</g>
<!-- Node4 -->
<g id="Node000004" class="node">
<title>Node4</title>
<g id="a_Node000004"><a xlink:href="_emulator_8h_source.html" target="_top" xlink:title=" ">
<polygon fill="white" stroke="#666666" points="426.12,-30.5 260.12,-30.5 260.12,0 426.12,0 426.12,-30.5"/>
<text text-anchor="start" x="268.12" y="-17" font-family="Helvetica,sans-Serif" font-size="10.00">/Users/hoff/Retro/virtualc64</text>
<text text-anchor="middle" x="343.12" y="-5.75" font-family="Helvetica,sans-Serif" font-size="10.00">/Emulator/Components/Emulator.h</text>
</a>
</g>
</g>
<!-- Node1&#45;&gt;Node4 -->
<g id="edge6_Node000001_Node000004" class="edge">
<title>Node1&#45;&gt;Node4</title>
<g id="a_edge6_Node000001_Node000004"><a xlink:title=" ">
<path fill="none" stroke="#63b8ff" d="M361.68,-290.35C383.22,-282.95 404.01,-271.19 417.12,-252.5 468.24,-179.68 388.31,-70.16 355.84,-30.9"/>
<polygon fill="#63b8ff" stroke="#63b8ff" points="360.69,-287 352.17,-293.3 362.76,-293.68 360.69,-287"/>
</a>
</g>
</g>
<!-- Node6 -->
<g id="Node000006" class="node">
<title>Node6</title>
<g id="a_Node000006"><a xlink:href="_datasette_8h_source.html" target="_top" xlink:title=" ">
<polygon fill="white" stroke="#666666" points="328.88,-174.75 173.38,-174.75 173.38,-133 328.88,-133 328.88,-174.75"/>
<text text-anchor="start" x="181.38" y="-161.25" font-family="Helvetica,sans-Serif" font-size="10.00">/Users/hoff/Retro/virtualc64</text>
<text text-anchor="start" x="181.38" y="-150" font-family="Helvetica,sans-Serif" font-size="10.00">/Emulator/Peripherals/Datasette</text>
<text text-anchor="middle" x="251.12" y="-138.75" font-family="Helvetica,sans-Serif" font-size="10.00">/Datasette.h</text>
</a>
</g>
</g>
<!-- Node1&#45;&gt;Node6 -->
<g id="edge7_Node000001_Node000006" class="edge">
<title>Node1&#45;&gt;Node6</title>
<g id="a_edge7_Node000001_Node000006"><a xlink:title=" ">
<path fill="none" stroke="#63b8ff" d="M258.38,-278.84C253,-270.94 247.9,-261.78 245.12,-252.5 237.39,-226.63 241.58,-195.24 245.86,-175.16"/>
<polygon fill="#63b8ff" stroke="#63b8ff" points="255.54,-280.89 264.28,-286.87 261.18,-276.74 255.54,-280.89"/>
</a>
</g>
</g>
<!-- Node7 -->
<g id="Node000007" class="node">
<title>Node7</title>
<g id="a_Node000007"><a xlink:href="_keyboard_8h_source.html" target="_top" xlink:title=" ">
<polygon fill="white" stroke="#666666" points="408.12,-252.5 254.12,-252.5 254.12,-210.75 408.12,-210.75 408.12,-252.5"/>
<text text-anchor="start" x="262.12" y="-239" font-family="Helvetica,sans-Serif" font-size="10.00">/Users/hoff/Retro/virtualc64</text>
<text text-anchor="start" x="262.12" y="-227.75" font-family="Helvetica,sans-Serif" font-size="10.00">/Emulator/Peripherals/Keyboard</text>
<text text-anchor="middle" x="331.12" y="-216.5" font-family="Helvetica,sans-Serif" font-size="10.00">/Keyboard.h</text>
</a>
</g>
</g>
<!-- Node1&#45;&gt;Node7 -->
<g id="edge9_Node000001_Node000007" class="edge">
<title>Node1&#45;&gt;Node7</title>
<g id="a_edge9_Node000001_Node000007"><a xlink:title=" ">
<path fill="none" stroke="#63b8ff" d="M295.94,-279.18C302.36,-270.69 309.54,-261.18 315.74,-252.99"/>
<polygon fill="#63b8ff" stroke="#63b8ff" points="293.26,-276.92 290.02,-287.01 298.84,-281.15 293.26,-276.92"/>
</a>
</g>
</g>
<!-- Node3 -->
<g id="Node000003" class="node">
<title>Node3</title>
<g id="a_Node000003"><a xlink:href="_c64_8h_source.html" target="_top" xlink:title=" ">
<polygon fill="white" stroke="#666666" points="324,-97 178.25,-97 178.25,-66.5 324,-66.5 324,-97"/>
<text text-anchor="start" x="186.25" y="-83.5" font-family="Helvetica,sans-Serif" font-size="10.00">/Users/hoff/Retro/virtualc64</text>
<text text-anchor="middle" x="251.12" y="-72.25" font-family="Helvetica,sans-Serif" font-size="10.00">/Emulator/Components/C64.h</text>
</a>
</g>
</g>
<!-- Node2&#45;&gt;Node3 -->
<g id="edge2_Node000002_Node000003" class="edge">
<title>Node2&#45;&gt;Node3</title>
<g id="a_edge2_Node000002_Node000003"><a xlink:title=" ">
<path fill="none" stroke="#63b8ff" d="M44.46,-210C30.96,-201.16 17.61,-189.43 10.12,-174.75 1.7,-158.22 -1.58,-147.4 10.12,-133 31.02,-107.3 114.96,-94.3 177.94,-88.04"/>
<polygon fill="#63b8ff" stroke="#63b8ff" points="42.58,-212.95 52.95,-215.15 46.21,-206.97 42.58,-212.95"/>
</a>
</g>
</g>
<!-- Node5 -->
<g id="Node000005" class="node">
<title>Node5</title>
<g id="a_Node000005"><a xlink:href="_drive_8h_source.html" target="_top" xlink:title=" ">
<polygon fill="white" stroke="#666666" points="155.5,-174.75 18.75,-174.75 18.75,-133 155.5,-133 155.5,-174.75"/>
<text text-anchor="start" x="26.75" y="-161.25" font-family="Helvetica,sans-Serif" font-size="10.00">/Users/hoff/Retro/virtualc64</text>
<text text-anchor="start" x="26.75" y="-150" font-family="Helvetica,sans-Serif" font-size="10.00">/Emulator/Peripherals/Drive</text>
<text text-anchor="middle" x="87.12" y="-138.75" font-family="Helvetica,sans-Serif" font-size="10.00">/Drive.h</text>
</a>
</g>
</g>
<!-- Node2&#45;&gt;Node5 -->
<g id="edge4_Node000002_Node000005" class="edge">
<title>Node2&#45;&gt;Node5</title>
<g id="a_edge4_Node000002_Node000005"><a xlink:title=" ">
<path fill="none" stroke="#63b8ff" d="M87.12,-204.64C87.12,-195 87.12,-184.22 87.12,-175.16"/>
<polygon fill="#63b8ff" stroke="#63b8ff" points="83.63,-204.51 87.13,-214.51 90.63,-204.51 83.63,-204.51"/>
</a>
</g>
</g>
<!-- Node3&#45;&gt;Node4 -->
<g id="edge3_Node000003_Node000004" class="edge">
<title>Node3&#45;&gt;Node4</title>
<g id="a_edge3_Node000003_Node000004"><a xlink:title=" ">
<path fill="none" stroke="#63b8ff" d="M281.34,-59.57C294.76,-50.16 310.23,-39.31 322.33,-30.83"/>
<polygon fill="#63b8ff" stroke="#63b8ff" points="279.42,-56.64 273.24,-65.25 283.44,-62.37 279.42,-56.64"/>
</a>
</g>
</g>
<!-- Node5&#45;&gt;Node3 -->
<g id="edge5_Node000005_Node000003" class="edge">
<title>Node5&#45;&gt;Node3</title>
<g id="a_edge5_Node000005_Node000003"><a xlink:title=" ">
<path fill="none" stroke="#63b8ff" d="M144.99,-128.13C169,-117.87 196.04,-106.3 216.82,-97.42"/>
<polygon fill="#63b8ff" stroke="#63b8ff" points="143.77,-124.85 135.95,-132 146.52,-131.28 143.77,-124.85"/>
</a>
</g>
</g>
<!-- Node6&#45;&gt;Node3 -->
<g id="edge8_Node000006_Node000003" class="edge">
<title>Node6&#45;&gt;Node3</title>
<g id="a_edge8_Node000006_Node000003"><a xlink:title=" ">
<path fill="none" stroke="#63b8ff" d="M251.12,-121.13C251.12,-112.77 251.12,-104.15 251.12,-97.2"/>
<polygon fill="#63b8ff" stroke="#63b8ff" points="247.63,-121.08 251.13,-131.08 254.63,-121.08 247.63,-121.08"/>
</a>
</g>
</g>
<!-- Node7&#45;&gt;Node3 -->
<g id="edge10_Node000007_Node000003" class="edge">
<title>Node7&#45;&gt;Node3</title>
<g id="a_edge10_Node000007_Node000003"><a xlink:title=" ">
<path fill="none" stroke="#63b8ff" d="M341.91,-199.6C346.98,-179.34 349.68,-153.02 338.12,-133 328.71,-116.68 311.75,-105.19 295.29,-97.36"/>
<polygon fill="#63b8ff" stroke="#63b8ff" points="338.6,-198.42 339.24,-208.99 345.34,-200.33 338.6,-198.42"/>
</a>
</g>
</g>
</g>
</svg>
