<?xml version="1.0" encoding="UTF-8" standalone="no"?>
<!DOCTYPE svg PUBLIC "-//W3C//DTD SVG 1.1//EN"
 "http://www.w3.org/Graphics/SVG/1.1/DTD/svg11.dtd">
<!-- Generated by graphviz version 10.0.1 (20240210.2158)
 -->
<!-- Title: /Users/hoff/Retro/virtualc64/Emulator/Base/CmdQueue.h Pages: 1 -->
<svg width="885pt" height="370pt"
 viewBox="0.00 0.00 885.25 370.00" xmlns="http://www.w3.org/2000/svg" xmlns:xlink="http://www.w3.org/1999/xlink">
<g id="graph0" class="graph" transform="scale(1 1) rotate(0) translate(4 366)">
<title>/Users/hoff/Retro/virtualc64/Emulator/Base/CmdQueue.h</title>
<!-- Node1 -->
<g id="Node000001" class="node">
<title>Node1</title>
<g id="a_Node000001"><a xlink:title=" ">
<polygon fill="#999999" stroke="#666666" points="747.75,-362 603.5,-362 603.5,-331.5 747.75,-331.5 747.75,-362"/>
<text text-anchor="start" x="611.5" y="-348.5" font-family="Helvetica,sans-Serif" font-size="10.00">/Users/hoff/Retro/virtualc64</text>
<text text-anchor="middle" x="675.62" y="-337.25" font-family="Helvetica,sans-Serif" font-size="10.00">/Emulator/Base/CmdQueue.h</text>
</a>
</g>
</g>
<!-- Node2 -->
<g id="Node000002" class="node">
<title>Node2</title>
<g id="a_Node000002"><a xlink:href="_cmd_queue_types_8h.html" target="_top" xlink:title=" ">
<polygon fill="white" stroke="#666666" points="220.62,-295.5 120.62,-295.5 120.62,-276.25 220.62,-276.25 220.62,-295.5"/>
<text text-anchor="middle" x="170.62" y="-282" font-family="Helvetica,sans-Serif" font-size="10.00">CmdQueueTypes.h</text>
</a>
</g>
</g>
<!-- Node1&#45;&gt;Node2 -->
<g id="edge1_Node000001_Node000002" class="edge">
<title>Node1&#45;&gt;Node2</title>
<g id="a_edge1_Node000001_Node000002"><a xlink:title=" ">
<path fill="none" stroke="#63b8ff" d="M603,-337.28C503.31,-325.66 325.8,-304.97 232.24,-294.06"/>
<polygon fill="#63b8ff" stroke="#63b8ff" points="232.83,-290.6 222.49,-292.92 232.02,-297.56 232.83,-290.6"/>
</a>
</g>
</g>
<!-- Node19 -->
<g id="Node000019" class="node">
<title>Node19</title>
<g id="a_Node000019"><a xlink:href="_core_object_8h_source.html" target="_top" xlink:title=" ">
<polygon fill="white" stroke="#666666" points="584.5,-295.5 510.75,-295.5 510.75,-276.25 584.5,-276.25 584.5,-295.5"/>
<text text-anchor="middle" x="547.62" y="-282" font-family="Helvetica,sans-Serif" font-size="10.00">CoreObject.h</text>
</a>
</g>
</g>
<!-- Node1&#45;&gt;Node19 -->
<g id="edge23_Node000001_Node000019" class="edge">
<title>Node1&#45;&gt;Node19</title>
<g id="a_edge23_Node000001_Node000019"><a xlink:title=" ">
<path fill="none" stroke="#63b8ff" d="M643.66,-331.05C623.41,-321.73 597.41,-309.77 577.57,-300.65"/>
<polygon fill="#63b8ff" stroke="#63b8ff" points="579.18,-297.54 568.63,-296.54 576.25,-303.9 579.18,-297.54"/>
</a>
</g>
</g>
<!-- Node24 -->
<g id="Node000024" class="node">
<title>Node24</title>
<g id="a_Node000024"><a xlink:href="_synchronizable_8h_source.html" target="_top" xlink:title=" ">
<polygon fill="white" stroke="#666666" points="721.12,-295.5 630.12,-295.5 630.12,-276.25 721.12,-276.25 721.12,-295.5"/>
<text text-anchor="middle" x="675.62" y="-282" font-family="Helvetica,sans-Serif" font-size="10.00">Synchronizable.h</text>
</a>
</g>
</g>
<!-- Node1&#45;&gt;Node24 -->
<g id="edge30_Node000001_Node000024" class="edge">
<title>Node1&#45;&gt;Node24</title>
<g id="a_edge30_Node000001_Node000024"><a xlink:title=" ">
<path fill="none" stroke="#63b8ff" d="M675.62,-331.2C675.62,-323.96 675.62,-315.09 675.62,-307.19"/>
<polygon fill="#63b8ff" stroke="#63b8ff" points="679.13,-307.46 675.63,-297.46 672.13,-307.46 679.13,-307.46"/>
</a>
</g>
</g>
<!-- Node30 -->
<g id="Node000030" class="node">
<title>Node30</title>
<g id="a_Node000030"><a xlink:href="_ring_buffer_8h_source.html" target="_top" xlink:title=" ">
<polygon fill="white" stroke="#666666" points="813.62,-295.5 743.62,-295.5 743.62,-276.25 813.62,-276.25 813.62,-295.5"/>
<text text-anchor="middle" x="778.62" y="-282" font-family="Helvetica,sans-Serif" font-size="10.00">RingBuffer.h</text>
</a>
</g>
</g>
<!-- Node1&#45;&gt;Node30 -->
<g id="edge37_Node000001_Node000030" class="edge">
<title>Node1&#45;&gt;Node30</title>
<g id="a_edge37_Node000001_Node000030"><a xlink:title=" ">
<path fill="none" stroke="#63b8ff" d="M701.35,-331.05C717.19,-321.99 737.41,-310.44 753.19,-301.41"/>
<polygon fill="#63b8ff" stroke="#63b8ff" points="754.57,-304.66 761.52,-296.66 751.1,-298.58 754.57,-304.66"/>
</a>
</g>
</g>
<!-- Node32 -->
<g id="Node000032" class="node">
<title>Node32</title>
<g id="a_Node000032"><a xlink:title=" ">
<polygon fill="#e0e0e0" stroke="#999999" points="877.25,-295.5 832,-295.5 832,-276.25 877.25,-276.25 877.25,-295.5"/>
<text text-anchor="middle" x="854.62" y="-282" font-family="Helvetica,sans-Serif" font-size="10.00">atomic</text>
</a>
</g>
</g>
<!-- Node1&#45;&gt;Node32 -->
<g id="edge40_Node000001_Node000032" class="edge">
<title>Node1&#45;&gt;Node32</title>
<g id="a_edge40_Node000001_Node000032"><a xlink:title=" ">
<path fill="none" stroke="#63b8ff" d="M720.33,-331.05C751.6,-320.76 792.69,-307.25 821.14,-297.89"/>
<polygon fill="#63b8ff" stroke="#63b8ff" points="821.91,-301.32 830.32,-294.87 819.72,-294.67 821.91,-301.32"/>
</a>
</g>
</g>
<!-- Node3 -->
<g id="Node000003" class="node">
<title>Node3</title>
<g id="a_Node000003"><a xlink:href="_joystick_types_8h.html" target="_top" xlink:title=" ">
<polygon fill="white" stroke="#666666" points="87.25,-240.25 0,-240.25 0,-221 87.25,-221 87.25,-240.25"/>
<text text-anchor="middle" x="43.62" y="-226.75" font-family="Helvetica,sans-Serif" font-size="10.00">JoystickTypes.h</text>
</a>
</g>
</g>
<!-- Node2&#45;&gt;Node3 -->
<g id="edge2_Node000002_Node000003" class="edge">
<title>Node2&#45;&gt;Node3</title>
<g id="a_edge2_Node000002_Node000003"><a xlink:title=" ">
<path fill="none" stroke="#63b8ff" d="M149.08,-275.84C129.01,-267.43 98.82,-254.77 75.88,-245.15"/>
<polygon fill="#63b8ff" stroke="#63b8ff" points="77.25,-241.93 66.67,-241.29 74.54,-248.38 77.25,-241.93"/>
</a>
</g>
</g>
<!-- Node4 -->
<g id="Node000004" class="node">
<title>Node4</title>
<g id="a_Node000004"><a xlink:href="_reflection_8h_source.html" target="_top" xlink:title=" ">
<polygon fill="white" stroke="#666666" points="222.88,-129.75 154.38,-129.75 154.38,-110.5 222.88,-110.5 222.88,-129.75"/>
<text text-anchor="middle" x="188.62" y="-116.25" font-family="Helvetica,sans-Serif" font-size="10.00">Reflection.h</text>
</a>
</g>
</g>
<!-- Node2&#45;&gt;Node4 -->
<g id="edge12_Node000002_Node000004" class="edge">
<title>Node2&#45;&gt;Node4</title>
<g id="a_edge12_Node000002_Node000004"><a xlink:title=" ">
<path fill="none" stroke="#63b8ff" d="M163.72,-275.88C149.03,-255.56 117.44,-204.84 135.62,-165.75 141.2,-153.77 151.75,-143.85 161.99,-136.43"/>
<polygon fill="#63b8ff" stroke="#63b8ff" points="163.87,-139.38 170.26,-130.94 160,-133.55 163.87,-139.38"/>
</a>
</g>
</g>
<!-- Node13 -->
<g id="Node000013" class="node">
<title>Node13</title>
<g id="a_Node000013"><a xlink:href="_option_8h.html" target="_top" xlink:title=" ">
<polygon fill="white" stroke="#666666" points="252,-240.25 199.25,-240.25 199.25,-221 252,-221 252,-240.25"/>
<text text-anchor="middle" x="225.62" y="-226.75" font-family="Helvetica,sans-Serif" font-size="10.00">Option.h</text>
</a>
</g>
</g>
<!-- Node2&#45;&gt;Node13 -->
<g id="edge13_Node000002_Node000013" class="edge">
<title>Node2&#45;&gt;Node13</title>
<g id="a_edge13_Node000002_Node000013"><a xlink:title=" ">
<path fill="none" stroke="#63b8ff" d="M179.71,-276.08C187.46,-268.57 198.84,-257.56 208.32,-248.38"/>
<polygon fill="#63b8ff" stroke="#63b8ff" points="210.51,-251.13 215.26,-241.66 205.64,-246.1 210.51,-251.13"/>
</a>
</g>
</g>
<!-- Node3&#45;&gt;Node4 -->
<g id="edge3_Node000003_Node000004" class="edge">
<title>Node3&#45;&gt;Node4</title>
<g id="a_edge3_Node000003_Node000004"><a xlink:title=" ">
<path fill="none" stroke="#63b8ff" d="M49.94,-220.86C59.8,-207.62 79.98,-182.33 101.62,-165.75 118.14,-153.1 138.78,-142.33 155.82,-134.55"/>
<polygon fill="#63b8ff" stroke="#63b8ff" points="156.77,-137.95 164.5,-130.7 153.94,-131.55 156.77,-137.95"/>
</a>
</g>
</g>
<!-- Node5 -->
<g id="Node000005" class="node">
<title>Node5</title>
<g id="a_Node000005"><a xlink:href="_types_8h_source.html" target="_top" xlink:title=" ">
<polygon fill="white" stroke="#666666" points="410.88,-74.5 360.38,-74.5 360.38,-55.25 410.88,-55.25 410.88,-74.5"/>
<text text-anchor="middle" x="385.62" y="-61" font-family="Helvetica,sans-Serif" font-size="10.00">Types.h</text>
</a>
</g>
</g>
<!-- Node4&#45;&gt;Node5 -->
<g id="edge4_Node000004_Node000005" class="edge">
<title>Node4&#45;&gt;Node5</title>
<g id="a_edge4_Node000004_Node000005"><a xlink:title=" ">
<path fill="none" stroke="#63b8ff" d="M222.04,-110.09C257.21,-100.59 312.4,-85.67 348.8,-75.83"/>
<polygon fill="#63b8ff" stroke="#63b8ff" points="349.71,-79.21 358.45,-73.22 347.88,-72.45 349.71,-79.21"/>
</a>
</g>
</g>
<!-- Node11 -->
<g id="Node000011" class="node">
<title>Node11</title>
<g id="a_Node000011"><a xlink:title=" ">
<polygon fill="#e0e0e0" stroke="#999999" points="284.62,-74.5 226.62,-74.5 226.62,-55.25 284.62,-55.25 284.62,-74.5"/>
<text text-anchor="middle" x="255.62" y="-61" font-family="Helvetica,sans-Serif" font-size="10.00">functional</text>
</a>
</g>
</g>
<!-- Node4&#45;&gt;Node11 -->
<g id="edge10_Node000004_Node000011" class="edge">
<title>Node4&#45;&gt;Node11</title>
<g id="a_edge10_Node000004_Node000011"><a xlink:title=" ">
<path fill="none" stroke="#63b8ff" d="M199.99,-110.09C209.67,-102.4 223.82,-91.15 235.43,-81.93"/>
<polygon fill="#63b8ff" stroke="#63b8ff" points="237.59,-84.68 243.24,-75.72 233.24,-79.2 237.59,-84.68"/>
</a>
</g>
</g>
<!-- Node12 -->
<g id="Node000012" class="node">
<title>Node12</title>
<g id="a_Node000012"><a xlink:title=" ">
<polygon fill="#e0e0e0" stroke="#999999" points="206,-74.5 171.25,-74.5 171.25,-55.25 206,-55.25 206,-74.5"/>
<text text-anchor="middle" x="188.62" y="-61" font-family="Helvetica,sans-Serif" font-size="10.00">map</text>
</a>
</g>
</g>
<!-- Node4&#45;&gt;Node12 -->
<g id="edge11_Node000004_Node000012" class="edge">
<title>Node4&#45;&gt;Node12</title>
<g id="a_edge11_Node000004_Node000012"><a xlink:title=" ">
<path fill="none" stroke="#63b8ff" d="M188.62,-110.33C188.62,-103.82 188.62,-94.67 188.62,-86.37"/>
<polygon fill="#63b8ff" stroke="#63b8ff" points="192.13,-86.37 188.63,-76.37 185.13,-86.37 192.13,-86.37"/>
</a>
</g>
</g>
<!-- Node6 -->
<g id="Node000006" class="node">
<title>Node6</title>
<g id="a_Node000006"><a xlink:title=" ">
<polygon fill="#e0e0e0" stroke="#999999" points="281.12,-19.25 214.12,-19.25 214.12,0 281.12,0 281.12,-19.25"/>
<text text-anchor="middle" x="247.62" y="-5.75" font-family="Helvetica,sans-Serif" font-size="10.00">sys/types.h</text>
</a>
</g>
</g>
<!-- Node5&#45;&gt;Node6 -->
<g id="edge5_Node000005_Node000006" class="edge">
<title>Node5&#45;&gt;Node6</title>
<g id="a_edge5_Node000005_Node000006"><a xlink:title=" ">
<path fill="none" stroke="#63b8ff" d="M362.22,-54.84C340.11,-46.31 306.71,-33.42 281.66,-23.76"/>
<polygon fill="#63b8ff" stroke="#63b8ff" points="283.15,-20.58 272.56,-20.25 280.63,-27.11 283.15,-20.58"/>
</a>
</g>
</g>
<!-- Node7 -->
<g id="Node000007" class="node">
<title>Node7</title>
<g id="a_Node000007"><a xlink:title=" ">
<polygon fill="#e0e0e0" stroke="#999999" points="347.75,-19.25 299.5,-19.25 299.5,0 347.75,0 347.75,-19.25"/>
<text text-anchor="middle" x="323.62" y="-5.75" font-family="Helvetica,sans-Serif" font-size="10.00">stdint.h</text>
</a>
</g>
</g>
<!-- Node5&#45;&gt;Node7 -->
<g id="edge6_Node000005_Node000007" class="edge">
<title>Node5&#45;&gt;Node7</title>
<g id="a_edge6_Node000005_Node000007"><a xlink:title=" ">
<path fill="none" stroke="#63b8ff" d="M375.11,-54.84C366.24,-47.22 353.31,-36.12 342.64,-26.95"/>
<polygon fill="#63b8ff" stroke="#63b8ff" points="345,-24.37 335.14,-20.51 340.44,-29.68 345,-24.37"/>
</a>
</g>
</g>
<!-- Node8 -->
<g id="Node000008" class="node">
<title>Node8</title>
<g id="a_Node000008"><a xlink:title=" ">
<polygon fill="#e0e0e0" stroke="#999999" points="405.62,-19.25 365.62,-19.25 365.62,0 405.62,0 405.62,-19.25"/>
<text text-anchor="middle" x="385.62" y="-5.75" font-family="Helvetica,sans-Serif" font-size="10.00">string</text>
</a>
</g>
</g>
<!-- Node5&#45;&gt;Node8 -->
<g id="edge7_Node000005_Node000008" class="edge">
<title>Node5&#45;&gt;Node8</title>
<g id="a_edge7_Node000005_Node000008"><a xlink:title=" ">
<path fill="none" stroke="#63b8ff" d="M385.62,-55.08C385.62,-48.57 385.62,-39.42 385.62,-31.12"/>
<polygon fill="#63b8ff" stroke="#63b8ff" points="389.13,-31.12 385.63,-21.12 382.13,-31.12 389.13,-31.12"/>
</a>
</g>
</g>
<!-- Node9 -->
<g id="Node000009" class="node">
<title>Node9</title>
<g id="a_Node000009"><a xlink:title=" ">
<polygon fill="#e0e0e0" stroke="#999999" points="469.25,-19.25 424,-19.25 424,0 469.25,0 469.25,-19.25"/>
<text text-anchor="middle" x="446.62" y="-5.75" font-family="Helvetica,sans-Serif" font-size="10.00">cstring</text>
</a>
</g>
</g>
<!-- Node5&#45;&gt;Node9 -->
<g id="edge8_Node000005_Node000009" class="edge">
<title>Node5&#45;&gt;Node9</title>
<g id="a_edge8_Node000005_Node000009"><a xlink:title=" ">
<path fill="none" stroke="#63b8ff" d="M395.97,-54.84C404.7,-47.22 417.41,-36.12 427.92,-26.95"/>
<polygon fill="#63b8ff" stroke="#63b8ff" points="430.06,-29.73 435.29,-20.52 425.45,-24.46 430.06,-29.73"/>
</a>
</g>
</g>
<!-- Node10 -->
<g id="Node000010" class="node">
<title>Node10</title>
<g id="a_Node000010"><a xlink:title=" ">
<polygon fill="#e0e0e0" stroke="#999999" points="537.5,-19.25 487.75,-19.25 487.75,0 537.5,0 537.5,-19.25"/>
<text text-anchor="middle" x="512.62" y="-5.75" font-family="Helvetica,sans-Serif" font-size="10.00">optional</text>
</a>
</g>
</g>
<!-- Node5&#45;&gt;Node10 -->
<g id="edge9_Node000005_Node000010" class="edge">
<title>Node5&#45;&gt;Node10</title>
<g id="a_edge9_Node000005_Node000010"><a xlink:title=" ">
<path fill="none" stroke="#63b8ff" d="M407.17,-54.84C427.24,-46.43 457.43,-33.77 480.37,-24.15"/>
<polygon fill="#63b8ff" stroke="#63b8ff" points="481.71,-27.38 489.58,-20.29 479,-20.93 481.71,-27.38"/>
</a>
</g>
</g>
<!-- Node14 -->
<g id="Node000014" class="node">
<title>Node14</title>
<g id="a_Node000014"><a xlink:href="_option_types_8h.html" target="_top" xlink:title=" ">
<polygon fill="white" stroke="#666666" points="223.12,-185 144.12,-185 144.12,-165.75 223.12,-165.75 223.12,-185"/>
<text text-anchor="middle" x="183.62" y="-171.5" font-family="Helvetica,sans-Serif" font-size="10.00">OptionTypes.h</text>
</a>
</g>
</g>
<!-- Node13&#45;&gt;Node14 -->
<g id="edge14_Node000013_Node000014" class="edge">
<title>Node13&#45;&gt;Node14</title>
<g id="a_edge14_Node000013_Node000014"><a xlink:title=" ">
<path fill="none" stroke="#63b8ff" d="M218.69,-220.83C213.01,-213.63 204.79,-203.21 197.73,-194.26"/>
<polygon fill="#63b8ff" stroke="#63b8ff" points="200.59,-192.23 191.65,-186.55 195.09,-196.57 200.59,-192.23"/>
</a>
</g>
</g>
<!-- Node15 -->
<g id="Node000015" class="node">
<title>Node15</title>
<g id="a_Node000015"><a xlink:href="_parser_8h_source.html" target="_top" xlink:title=" ">
<polygon fill="white" stroke="#666666" points="293.62,-185 241.62,-185 241.62,-165.75 293.62,-165.75 293.62,-185"/>
<text text-anchor="middle" x="267.62" y="-171.5" font-family="Helvetica,sans-Serif" font-size="10.00">Parser.h</text>
</a>
</g>
</g>
<!-- Node13&#45;&gt;Node15 -->
<g id="edge16_Node000013_Node000015" class="edge">
<title>Node13&#45;&gt;Node15</title>
<g id="a_edge16_Node000013_Node000015"><a xlink:title=" ">
<path fill="none" stroke="#63b8ff" d="M232.56,-220.83C238.24,-213.63 246.46,-203.21 253.52,-194.26"/>
<polygon fill="#63b8ff" stroke="#63b8ff" points="256.16,-196.57 259.6,-186.55 250.66,-192.23 256.16,-196.57"/>
</a>
</g>
</g>
<!-- Node18 -->
<g id="Node000018" class="node">
<title>Node18</title>
<g id="a_Node000018"><a xlink:title=" ">
<polygon fill="#e0e0e0" stroke="#999999" points="363.25,-185 312,-185 312,-165.75 363.25,-165.75 363.25,-185"/>
<text text-anchor="middle" x="337.62" y="-171.5" font-family="Helvetica,sans-Serif" font-size="10.00">memory</text>
</a>
</g>
</g>
<!-- Node13&#45;&gt;Node18 -->
<g id="edge22_Node000013_Node000018" class="edge">
<title>Node13&#45;&gt;Node18</title>
<g id="a_edge22_Node000013_Node000018"><a xlink:title=" ">
<path fill="none" stroke="#63b8ff" d="M244.62,-220.59C262.08,-212.29 288.22,-199.86 308.35,-190.29"/>
<polygon fill="#63b8ff" stroke="#63b8ff" points="309.64,-193.56 317.17,-186.1 306.63,-187.24 309.64,-193.56"/>
</a>
</g>
</g>
<!-- Node14&#45;&gt;Node4 -->
<g id="edge15_Node000014_Node000004" class="edge">
<title>Node14&#45;&gt;Node4</title>
<g id="a_edge15_Node000014_Node000004"><a xlink:title=" ">
<path fill="none" stroke="#63b8ff" d="M184.45,-165.58C185.07,-158.99 185.94,-149.71 186.73,-141.32"/>
<polygon fill="#63b8ff" stroke="#63b8ff" points="190.19,-141.9 187.64,-131.62 183.22,-141.25 190.19,-141.9"/>
</a>
</g>
</g>
<!-- Node15&#45;&gt;Node5 -->
<g id="edge17_Node000015_Node000005" class="edge">
<title>Node15&#45;&gt;Node5</title>
<g id="a_edge17_Node000015_Node000005"><a xlink:title=" ">
<path fill="none" stroke="#63b8ff" d="M277.28,-165.5C296.99,-147.38 342.11,-105.88 367.47,-82.57"/>
<polygon fill="#63b8ff" stroke="#63b8ff" points="369.73,-85.25 374.72,-75.9 364.99,-80.09 369.73,-85.25"/>
</a>
</g>
</g>
<!-- Node15&#45;&gt;Node11 -->
<g id="edge21_Node000015_Node000011" class="edge">
<title>Node15&#45;&gt;Node11</title>
<g id="a_edge21_Node000015_Node000011"><a xlink:title=" ">
<path fill="none" stroke="#63b8ff" d="M266.64,-165.5C264.74,-148.25 260.49,-109.83 257.86,-86.06"/>
<polygon fill="#63b8ff" stroke="#63b8ff" points="261.37,-85.94 256.79,-76.38 254.41,-86.71 261.37,-85.94"/>
</a>
</g>
</g>
<!-- Node16 -->
<g id="Node000016" class="node">
<title>Node16</title>
<g id="a_Node000016"><a xlink:href="_exception_8h_source.html" target="_top" xlink:title=" ">
<polygon fill="white" stroke="#666666" points="470.5,-129.75 402.75,-129.75 402.75,-110.5 470.5,-110.5 470.5,-129.75"/>
<text text-anchor="middle" x="436.62" y="-116.25" font-family="Helvetica,sans-Serif" font-size="10.00">Exception.h</text>
</a>
</g>
</g>
<!-- Node15&#45;&gt;Node16 -->
<g id="edge18_Node000015_Node000016" class="edge">
<title>Node15&#45;&gt;Node16</title>
<g id="a_edge18_Node000015_Node000016"><a xlink:title=" ">
<path fill="none" stroke="#63b8ff" d="M294.03,-166.05C321.68,-157.34 365.43,-143.56 397.18,-133.55"/>
<polygon fill="#63b8ff" stroke="#63b8ff" points="397.93,-136.99 406.42,-130.64 395.83,-130.31 397.93,-136.99"/>
</a>
</g>
</g>
<!-- Node16&#45;&gt;Node5 -->
<g id="edge19_Node000016_Node000005" class="edge">
<title>Node16&#45;&gt;Node5</title>
<g id="a_edge19_Node000016_Node000005"><a xlink:title=" ">
<path fill="none" stroke="#63b8ff" d="M428.2,-110.33C421.09,-102.9 410.68,-92.04 401.94,-82.91"/>
<polygon fill="#63b8ff" stroke="#63b8ff" points="404.72,-80.75 395.28,-75.95 399.67,-85.6 404.72,-80.75"/>
</a>
</g>
</g>
<!-- Node17 -->
<g id="Node000017" class="node">
<title>Node17</title>
<g id="a_Node000017"><a xlink:title=" ">
<polygon fill="#e0e0e0" stroke="#999999" points="486.62,-74.5 428.62,-74.5 428.62,-55.25 486.62,-55.25 486.62,-74.5"/>
<text text-anchor="middle" x="457.62" y="-61" font-family="Helvetica,sans-Serif" font-size="10.00">exception</text>
</a>
</g>
</g>
<!-- Node16&#45;&gt;Node17 -->
<g id="edge20_Node000016_Node000017" class="edge">
<title>Node16&#45;&gt;Node17</title>
<g id="a_edge20_Node000016_Node000017"><a xlink:title=" ">
<path fill="none" stroke="#63b8ff" d="M440.09,-110.33C442.75,-103.59 446.52,-94.02 449.89,-85.49"/>
<polygon fill="#63b8ff" stroke="#63b8ff" points="453.11,-86.85 453.53,-76.27 446.6,-84.29 453.11,-86.85"/>
</a>
</g>
</g>
<!-- Node20 -->
<g id="Node000020" class="node">
<title>Node20</title>
<g id="a_Node000020"><a xlink:href="_error_8h.html" target="_top" xlink:title=" ">
<polygon fill="white" stroke="#666666" points="491.88,-240.25 447.38,-240.25 447.38,-221 491.88,-221 491.88,-240.25"/>
<text text-anchor="middle" x="469.62" y="-226.75" font-family="Helvetica,sans-Serif" font-size="10.00">Error.h</text>
</a>
</g>
</g>
<!-- Node19&#45;&gt;Node20 -->
<g id="edge24_Node000019_Node000020" class="edge">
<title>Node19&#45;&gt;Node20</title>
<g id="a_edge24_Node000019_Node000020"><a xlink:title=" ">
<path fill="none" stroke="#63b8ff" d="M534.39,-275.84C522.85,-267.96 505.86,-256.36 492.18,-247.02"/>
<polygon fill="#63b8ff" stroke="#63b8ff" points="494.4,-244.3 484.17,-241.56 490.46,-250.08 494.4,-244.3"/>
</a>
</g>
</g>
<!-- Node22 -->
<g id="Node000022" class="node">
<title>Node22</title>
<g id="a_Node000022"><a xlink:href="_inspectable_8h_source.html" target="_top" xlink:title=" ">
<polygon fill="white" stroke="#666666" points="584.88,-240.25 510.38,-240.25 510.38,-221 584.88,-221 584.88,-240.25"/>
<text text-anchor="middle" x="547.62" y="-226.75" font-family="Helvetica,sans-Serif" font-size="10.00">Inspectable.h</text>
</a>
</g>
</g>
<!-- Node19&#45;&gt;Node22 -->
<g id="edge28_Node000019_Node000022" class="edge">
<title>Node19&#45;&gt;Node22</title>
<g id="a_edge28_Node000019_Node000022"><a xlink:title=" ">
<path fill="none" stroke="#63b8ff" d="M547.62,-276.08C547.62,-269.57 547.62,-260.42 547.62,-252.12"/>
<polygon fill="#63b8ff" stroke="#63b8ff" points="551.13,-252.12 547.63,-242.12 544.13,-252.12 551.13,-252.12"/>
</a>
</g>
</g>
<!-- Node20&#45;&gt;Node16 -->
<g id="edge27_Node000020_Node000016" class="edge">
<title>Node20&#45;&gt;Node16</title>
<g id="a_edge27_Node000020_Node000016"><a xlink:title=" ">
<path fill="none" stroke="#63b8ff" d="M469.58,-220.71C469.28,-208.15 467.84,-184.65 461.62,-165.75 458.68,-156.81 453.89,-147.61 449.28,-139.92"/>
<polygon fill="#63b8ff" stroke="#63b8ff" points="452.24,-138.04 443.92,-131.49 446.34,-141.8 452.24,-138.04"/>
</a>
</g>
</g>
<!-- Node21 -->
<g id="Node000021" class="node">
<title>Node21</title>
<g id="a_Node000021"><a xlink:href="_error_types_8h.html" target="_top" xlink:title=" ">
<polygon fill="white" stroke="#666666" points="452.38,-185 380.88,-185 380.88,-165.75 452.38,-165.75 452.38,-185"/>
<text text-anchor="middle" x="416.62" y="-171.5" font-family="Helvetica,sans-Serif" font-size="10.00">ErrorTypes.h</text>
</a>
</g>
</g>
<!-- Node20&#45;&gt;Node21 -->
<g id="edge25_Node000020_Node000021" class="edge">
<title>Node20&#45;&gt;Node21</title>
<g id="a_edge25_Node000020_Node000021"><a xlink:title=" ">
<path fill="none" stroke="#63b8ff" d="M460.87,-220.83C453.48,-213.4 442.66,-202.54 433.58,-193.41"/>
<polygon fill="#63b8ff" stroke="#63b8ff" points="436.17,-191.05 426.63,-186.43 431.21,-195.99 436.17,-191.05"/>
</a>
</g>
</g>
<!-- Node21&#45;&gt;Node4 -->
<g id="edge26_Node000021_Node000004" class="edge">
<title>Node21&#45;&gt;Node4</title>
<g id="a_edge26_Node000021_Node000004"><a xlink:title=" ">
<path fill="none" stroke="#63b8ff" d="M380.5,-165.94C340.85,-156.68 277.12,-141.79 234.1,-131.74"/>
<polygon fill="#63b8ff" stroke="#63b8ff" points="235.1,-128.38 224.56,-129.52 233.51,-135.2 235.1,-128.38"/>
</a>
</g>
</g>
<!-- Node23 -->
<g id="Node000023" class="node">
<title>Node23</title>
<g id="a_Node000023"><a xlink:title=" ">
<polygon fill="#e0e0e0" stroke="#999999" points="562.38,-185 508.88,-185 508.88,-165.75 562.38,-165.75 562.38,-185"/>
<text text-anchor="middle" x="535.62" y="-171.5" font-family="Helvetica,sans-Serif" font-size="10.00">iostream</text>
</a>
</g>
</g>
<!-- Node22&#45;&gt;Node23 -->
<g id="edge29_Node000022_Node000023" class="edge">
<title>Node22&#45;&gt;Node23</title>
<g id="a_edge29_Node000022_Node000023"><a xlink:title=" ">
<path fill="none" stroke="#63b8ff" d="M545.64,-220.83C544.16,-214.24 542.07,-204.96 540.18,-196.57"/>
<polygon fill="#63b8ff" stroke="#63b8ff" points="543.6,-195.82 537.98,-186.84 536.77,-197.36 543.6,-195.82"/>
</a>
</g>
</g>
<!-- Node25 -->
<g id="Node000025" class="node">
<title>Node25</title>
<g id="a_Node000025"><a xlink:href="_concurrency_8h_source.html" target="_top" xlink:title=" ">
<polygon fill="white" stroke="#666666" points="714.75,-240.25 636.5,-240.25 636.5,-221 714.75,-221 714.75,-240.25"/>
<text text-anchor="middle" x="675.62" y="-226.75" font-family="Helvetica,sans-Serif" font-size="10.00">Concurrency.h</text>
</a>
</g>
</g>
<!-- Node24&#45;&gt;Node25 -->
<g id="edge31_Node000024_Node000025" class="edge">
<title>Node24&#45;&gt;Node25</title>
<g id="a_edge31_Node000024_Node000025"><a xlink:title=" ">
<path fill="none" stroke="#63b8ff" d="M675.62,-276.08C675.62,-269.57 675.62,-260.42 675.62,-252.12"/>
<polygon fill="#63b8ff" stroke="#63b8ff" points="679.13,-252.12 675.63,-242.12 672.13,-252.12 679.13,-252.12"/>
</a>
</g>
</g>
<!-- Node26 -->
<g id="Node000026" class="node">
<title>Node26</title>
<g id="a_Node000026"><a xlink:href="_chrono_8h_source.html" target="_top" xlink:title=" ">
<polygon fill="white" stroke="#666666" points="636.5,-185 580.75,-185 580.75,-165.75 636.5,-165.75 636.5,-185"/>
<text text-anchor="middle" x="608.62" y="-171.5" font-family="Helvetica,sans-Serif" font-size="10.00">Chrono.h</text>
</a>
</g>
</g>
<!-- Node25&#45;&gt;Node26 -->
<g id="edge32_Node000025_Node000026" class="edge">
<title>Node25&#45;&gt;Node26</title>
<g id="a_edge32_Node000025_Node000026"><a xlink:title=" ">
<path fill="none" stroke="#63b8ff" d="M664.26,-220.59C654.58,-212.9 640.43,-201.65 628.82,-192.43"/>
<polygon fill="#63b8ff" stroke="#63b8ff" points="631.01,-189.7 621.01,-186.22 626.66,-195.18 631.01,-189.7"/>
</a>
</g>
</g>
<!-- Node28 -->
<g id="Node000028" class="node">
<title>Node28</title>
<g id="a_Node000028"><a xlink:title=" ">
<polygon fill="#e0e0e0" stroke="#999999" points="697.12,-185 654.12,-185 654.12,-165.75 697.12,-165.75 697.12,-185"/>
<text text-anchor="middle" x="675.62" y="-171.5" font-family="Helvetica,sans-Serif" font-size="10.00">thread</text>
</a>
</g>
</g>
<!-- Node25&#45;&gt;Node28 -->
<g id="edge35_Node000025_Node000028" class="edge">
<title>Node25&#45;&gt;Node28</title>
<g id="a_edge35_Node000025_Node000028"><a xlink:title=" ">
<path fill="none" stroke="#63b8ff" d="M675.62,-220.83C675.62,-214.32 675.62,-205.17 675.62,-196.87"/>
<polygon fill="#63b8ff" stroke="#63b8ff" points="679.13,-196.87 675.63,-186.87 672.13,-196.87 679.13,-196.87"/>
</a>
</g>
</g>
<!-- Node29 -->
<g id="Node000029" class="node">
<title>Node29</title>
<g id="a_Node000029"><a xlink:title=" ">
<polygon fill="#e0e0e0" stroke="#999999" points="756,-185 715.25,-185 715.25,-165.75 756,-165.75 756,-185"/>
<text text-anchor="middle" x="735.62" y="-171.5" font-family="Helvetica,sans-Serif" font-size="10.00">future</text>
</a>
</g>
</g>
<!-- Node25&#45;&gt;Node29 -->
<g id="edge36_Node000025_Node000029" class="edge">
<title>Node25&#45;&gt;Node29</title>
<g id="a_edge36_Node000025_Node000029"><a xlink:title=" ">
<path fill="none" stroke="#63b8ff" d="M685.8,-220.59C694.39,-212.97 706.89,-201.87 717.23,-192.7"/>
<polygon fill="#63b8ff" stroke="#63b8ff" points="719.31,-195.54 724.47,-186.28 714.66,-190.3 719.31,-195.54"/>
</a>
</g>
</g>
<!-- Node26&#45;&gt;Node5 -->
<g id="edge33_Node000026_Node000005" class="edge">
<title>Node26&#45;&gt;Node5</title>
<g id="a_edge33_Node000026_Node000005"><a xlink:title=" ">
<path fill="none" stroke="#63b8ff" d="M590.72,-165.39C565.86,-152.95 519.43,-129.8 479.62,-110.5 458.02,-100.02 433.51,-88.4 414.94,-79.64"/>
<polygon fill="#63b8ff" stroke="#63b8ff" points="416.66,-76.58 406.12,-75.49 413.68,-82.91 416.66,-76.58"/>
</a>
</g>
</g>
<!-- Node27 -->
<g id="Node000027" class="node">
<title>Node27</title>
<g id="a_Node000027"><a xlink:title=" ">
<polygon fill="#e0e0e0" stroke="#999999" points="628.62,-129.75 588.62,-129.75 588.62,-110.5 628.62,-110.5 628.62,-129.75"/>
<text text-anchor="middle" x="608.62" y="-116.25" font-family="Helvetica,sans-Serif" font-size="10.00">ctime</text>
</a>
</g>
</g>
<!-- Node26&#45;&gt;Node27 -->
<g id="edge34_Node000026_Node000027" class="edge">
<title>Node26&#45;&gt;Node27</title>
<g id="a_edge34_Node000026_Node000027"><a xlink:title=" ">
<path fill="none" stroke="#63b8ff" d="M608.62,-165.58C608.62,-159.07 608.62,-149.92 608.62,-141.62"/>
<polygon fill="#63b8ff" stroke="#63b8ff" points="612.13,-141.62 608.63,-131.62 605.13,-141.62 612.13,-141.62"/>
</a>
</g>
</g>
<!-- Node30&#45;&gt;Node5 -->
<g id="edge38_Node000030_Node000005" class="edge">
<title>Node30&#45;&gt;Node5</title>
<g id="a_edge38_Node000030_Node000005"><a xlink:title=" ">
<path fill="none" stroke="#63b8ff" d="M780.31,-276.04C783.86,-254.71 789.83,-199.69 764.62,-165.75 672.19,-41.27 579.15,-103.97 422.12,-74.77"/>
<polygon fill="#63b8ff" stroke="#63b8ff" points="423.16,-71.41 412.68,-72.9 421.81,-78.28 423.16,-71.41"/>
</a>
</g>
</g>
<!-- Node31 -->
<g id="Node000031" class="node">
<title>Node31</title>
<g id="a_Node000031"><a xlink:title=" ">
<polygon fill="#e0e0e0" stroke="#999999" points="851.25,-240.25 812,-240.25 812,-221 851.25,-221 851.25,-240.25"/>
<text text-anchor="middle" x="831.62" y="-226.75" font-family="Helvetica,sans-Serif" font-size="10.00">utility</text>
</a>
</g>
</g>
<!-- Node30&#45;&gt;Node31 -->
<g id="edge39_Node000030_Node000031" class="edge">
<title>Node30&#45;&gt;Node31</title>
<g id="a_edge39_Node000030_Node000031"><a xlink:title=" ">
<path fill="none" stroke="#63b8ff" d="M787.38,-276.08C794.77,-268.65 805.59,-257.79 814.67,-248.66"/>
<polygon fill="#63b8ff" stroke="#63b8ff" points="817.04,-251.24 821.62,-241.68 812.08,-246.3 817.04,-251.24"/>
</a>
</g>
</g>
</g>
</svg>
