<?xml version="1.0" encoding="UTF-8" standalone="no"?>
<!DOCTYPE svg PUBLIC "-//W3C//DTD SVG 1.1//EN"
 "http://www.w3.org/Graphics/SVG/1.1/DTD/svg11.dtd">
<!-- Generated by graphviz version 10.0.1 (20240210.2158)
 -->
<!-- Title: /Users/hoff/Retro/virtualc64/Emulator/Base/CmdQueueTypes.h Pages: 1 -->
<svg width="647pt" height="527pt"
 viewBox="0.00 0.00 647.16 526.50" xmlns="http://www.w3.org/2000/svg" xmlns:xlink="http://www.w3.org/1999/xlink">
<g id="graph0" class="graph" transform="scale(1 1) rotate(0) translate(4 522.5)">
<title>/Users/hoff/Retro/virtualc64/Emulator/Base/CmdQueueTypes.h</title>
<!-- Node1 -->
<g id="Node000001" class="node">
<title>Node1</title>
<g id="a_Node000001"><a xlink:title=" ">
<polygon fill="#999999" stroke="#666666" points="537.79,-518.5 367.29,-518.5 367.29,-488 537.79,-488 537.79,-518.5"/>
<text text-anchor="start" x="375.29" y="-505" font-family="Helvetica,sans-Serif" font-size="10.00">/Users/hoff/Retro/virtualc64</text>
<text text-anchor="middle" x="452.54" y="-493.75" font-family="Helvetica,sans-Serif" font-size="10.00">/Emulator/Base/CmdQueueTypes.h</text>
</a>
</g>
</g>
<!-- Node2 -->
<g id="Node000002" class="node">
<title>Node2</title>
<g id="a_Node000002"><a xlink:href="_cmd_queue_8h.html" target="_top" xlink:title=" ">
<polygon fill="white" stroke="#666666" points="164.66,-446.38 20.41,-446.38 20.41,-415.88 164.66,-415.88 164.66,-446.38"/>
<text text-anchor="start" x="28.41" y="-432.88" font-family="Helvetica,sans-Serif" font-size="10.00">/Users/hoff/Retro/virtualc64</text>
<text text-anchor="middle" x="92.54" y="-421.62" font-family="Helvetica,sans-Serif" font-size="10.00">/Emulator/Base/CmdQueue.h</text>
</a>
</g>
</g>
<!-- Node1&#45;&gt;Node2 -->
<g id="edge1_Node000001_Node000002" class="edge">
<title>Node1&#45;&gt;Node2</title>
<g id="a_edge1_Node000001_Node000002"><a xlink:title=" ">
<path fill="none" stroke="#63b8ff" d="M355.54,-486.31C301.76,-477.09 233.77,-464.8 173.54,-452 166.03,-450.4 158.16,-448.62 150.4,-446.79"/>
<polygon fill="#63b8ff" stroke="#63b8ff" points="354.86,-489.74 365.3,-487.98 356.03,-482.84 354.86,-489.74"/>
</a>
</g>
</g>
<!-- Node10 -->
<g id="Node000010" class="node">
<title>Node10</title>
<g id="a_Node000010"><a xlink:href="_control_port_8h_source.html" target="_top" xlink:title=" ">
<polygon fill="white" stroke="#666666" points="350.66,-452 182.41,-452 182.41,-410.25 350.66,-410.25 350.66,-452"/>
<text text-anchor="start" x="190.41" y="-438.5" font-family="Helvetica,sans-Serif" font-size="10.00">/Users/hoff/Retro/virtualc64</text>
<text text-anchor="start" x="190.41" y="-427.25" font-family="Helvetica,sans-Serif" font-size="10.00">/Emulator/Components/LogicBoard</text>
<text text-anchor="middle" x="266.54" y="-416" font-family="Helvetica,sans-Serif" font-size="10.00">/ControlPort.h</text>
</a>
</g>
</g>
<!-- Node1&#45;&gt;Node10 -->
<g id="edge11_Node000001_Node000010" class="edge">
<title>Node1&#45;&gt;Node10</title>
<g id="a_edge11_Node000001_Node000010"><a xlink:title=" ">
<path fill="none" stroke="#63b8ff" d="M402.99,-483.57C377.5,-473.96 346.37,-462.22 320.29,-452.39"/>
<polygon fill="#63b8ff" stroke="#63b8ff" points="401.54,-486.76 412.13,-487.02 404.01,-480.21 401.54,-486.76"/>
</a>
</g>
</g>
<!-- Node11 -->
<g id="Node000011" class="node">
<title>Node11</title>
<g id="a_Node000011"><a xlink:href="_expansion_port_8h_source.html" target="_top" xlink:title=" ">
<polygon fill="white" stroke="#666666" points="536.66,-452 368.41,-452 368.41,-410.25 536.66,-410.25 536.66,-452"/>
<text text-anchor="start" x="376.41" y="-438.5" font-family="Helvetica,sans-Serif" font-size="10.00">/Users/hoff/Retro/virtualc64</text>
<text text-anchor="start" x="376.41" y="-427.25" font-family="Helvetica,sans-Serif" font-size="10.00">/Emulator/Components/LogicBoard</text>
<text text-anchor="middle" x="452.54" y="-416" font-family="Helvetica,sans-Serif" font-size="10.00">/ExpansionPort.h</text>
</a>
</g>
</g>
<!-- Node1&#45;&gt;Node11 -->
<g id="edge13_Node000001_Node000011" class="edge">
<title>Node1&#45;&gt;Node11</title>
<g id="a_edge13_Node000001_Node000011"><a xlink:title=" ">
<path fill="none" stroke="#63b8ff" d="M452.54,-476.47C452.54,-468.56 452.54,-459.98 452.54,-452.49"/>
<polygon fill="#63b8ff" stroke="#63b8ff" points="449.04,-476.21 452.54,-486.21 456.04,-476.21 449.04,-476.21"/>
</a>
</g>
</g>
<!-- Node12 -->
<g id="Node000012" class="node">
<title>Node12</title>
<g id="a_Node000012"><a xlink:href="_drive_8h_source.html" target="_top" xlink:title=" ">
<polygon fill="white" stroke="#666666" points="574.91,-374.25 438.16,-374.25 438.16,-332.5 574.91,-332.5 574.91,-374.25"/>
<text text-anchor="start" x="446.16" y="-360.75" font-family="Helvetica,sans-Serif" font-size="10.00">/Users/hoff/Retro/virtualc64</text>
<text text-anchor="start" x="446.16" y="-349.5" font-family="Helvetica,sans-Serif" font-size="10.00">/Emulator/Peripherals/Drive</text>
<text text-anchor="middle" x="506.54" y="-338.25" font-family="Helvetica,sans-Serif" font-size="10.00">/Drive.h</text>
</a>
</g>
</g>
<!-- Node1&#45;&gt;Node12 -->
<g id="edge15_Node000001_Node000012" class="edge">
<title>Node1&#45;&gt;Node12</title>
<g id="a_edge15_Node000001_Node000012"><a xlink:title=" ">
<path fill="none" stroke="#63b8ff" d="M511.14,-482.74C524.77,-475.32 537.6,-465.32 545.54,-452 560.5,-426.92 541.52,-395.05 525.19,-374.68"/>
<polygon fill="#63b8ff" stroke="#63b8ff" points="509.9,-479.45 502.49,-487.03 513.01,-485.72 509.9,-479.45"/>
</a>
</g>
</g>
<!-- Node13 -->
<g id="Node000013" class="node">
<title>Node13</title>
<g id="a_Node000013"><a xlink:href="_virtual_c64_types_8h.html" target="_top" xlink:title=" ">
<polygon fill="white" stroke="#666666" points="639.16,-296.5 497.91,-296.5 497.91,-266 639.16,-266 639.16,-296.5"/>
<text text-anchor="start" x="505.91" y="-283" font-family="Helvetica,sans-Serif" font-size="10.00">/Users/hoff/Retro/virtualc64</text>
<text text-anchor="middle" x="568.54" y="-271.75" font-family="Helvetica,sans-Serif" font-size="10.00">/Emulator/VirtualC64Types.h</text>
</a>
</g>
</g>
<!-- Node1&#45;&gt;Node13 -->
<g id="edge17_Node000001_Node000013" class="edge">
<title>Node1&#45;&gt;Node13</title>
<g id="a_edge17_Node000001_Node000013"><a xlink:title=" ">
<path fill="none" stroke="#63b8ff" d="M517.43,-483.26C533.73,-475.79 549.88,-465.64 561.54,-452 596.63,-410.95 591.34,-385.94 583.54,-332.5 581.75,-320.25 577.63,-306.83 574.16,-296.95"/>
<polygon fill="#63b8ff" stroke="#63b8ff" points="516.52,-479.84 508.69,-486.97 519.26,-486.28 516.52,-479.84"/>
</a>
</g>
</g>
<!-- Node3 -->
<g id="Node000003" class="node">
<title>Node3</title>
<g id="a_Node000003"><a xlink:href="_emulator_8h_source.html" target="_top" xlink:title=" ">
<polygon fill="white" stroke="#666666" points="455.54,-230 289.54,-230 289.54,-199.5 455.54,-199.5 455.54,-230"/>
<text text-anchor="start" x="297.54" y="-216.5" font-family="Helvetica,sans-Serif" font-size="10.00">/Users/hoff/Retro/virtualc64</text>
<text text-anchor="middle" x="372.54" y="-205.25" font-family="Helvetica,sans-Serif" font-size="10.00">/Emulator/Components/Emulator.h</text>
</a>
</g>
</g>
<!-- Node2&#45;&gt;Node3 -->
<g id="edge2_Node000002_Node000003" class="edge">
<title>Node2&#45;&gt;Node3</title>
<g id="a_edge2_Node000002_Node000003"><a xlink:title=" ">
<path fill="none" stroke="#63b8ff" d="M45.32,-410.29C30.51,-401.54 15.86,-389.68 7.54,-374.25 -1.27,-357.92 -3.4,-347.49 7.54,-332.5 41.18,-286.42 193.56,-249.68 290.49,-230.45"/>
<polygon fill="#63b8ff" stroke="#63b8ff" points="43.24,-413.14 53.69,-414.86 46.6,-406.99 43.24,-413.14"/>
</a>
</g>
</g>
<!-- Node7 -->
<g id="Node000007" class="node">
<title>Node7</title>
<g id="a_Node000007"><a xlink:href="_datasette_8h_source.html" target="_top" xlink:title=" ">
<polygon fill="white" stroke="#666666" points="172.29,-374.25 16.79,-374.25 16.79,-332.5 172.29,-332.5 172.29,-374.25"/>
<text text-anchor="start" x="24.79" y="-360.75" font-family="Helvetica,sans-Serif" font-size="10.00">/Users/hoff/Retro/virtualc64</text>
<text text-anchor="start" x="24.79" y="-349.5" font-family="Helvetica,sans-Serif" font-size="10.00">/Emulator/Peripherals/Datasette</text>
<text text-anchor="middle" x="94.54" y="-338.25" font-family="Helvetica,sans-Serif" font-size="10.00">/Datasette.h</text>
</a>
</g>
</g>
<!-- Node2&#45;&gt;Node7 -->
<g id="edge6_Node000002_Node000007" class="edge">
<title>Node2&#45;&gt;Node7</title>
<g id="a_edge6_Node000002_Node000007"><a xlink:title=" ">
<path fill="none" stroke="#63b8ff" d="M93.23,-404.14C93.48,-394.5 93.76,-383.72 94,-374.66"/>
<polygon fill="#63b8ff" stroke="#63b8ff" points="89.73,-403.92 92.96,-414.01 96.73,-404.1 89.73,-403.92"/>
</a>
</g>
</g>
<!-- Node9 -->
<g id="Node000009" class="node">
<title>Node9</title>
<g id="a_Node000009"><a xlink:href="_keyboard_8h_source.html" target="_top" xlink:title=" ">
<polygon fill="white" stroke="#666666" points="344.54,-374.25 190.54,-374.25 190.54,-332.5 344.54,-332.5 344.54,-374.25"/>
<text text-anchor="start" x="198.54" y="-360.75" font-family="Helvetica,sans-Serif" font-size="10.00">/Users/hoff/Retro/virtualc64</text>
<text text-anchor="start" x="198.54" y="-349.5" font-family="Helvetica,sans-Serif" font-size="10.00">/Emulator/Peripherals/Keyboard</text>
<text text-anchor="middle" x="267.54" y="-338.25" font-family="Helvetica,sans-Serif" font-size="10.00">/Keyboard.h</text>
</a>
</g>
</g>
<!-- Node2&#45;&gt;Node9 -->
<g id="edge9_Node000002_Node000009" class="edge">
<title>Node2&#45;&gt;Node9</title>
<g id="a_edge9_Node000002_Node000009"><a xlink:title=" ">
<path fill="none" stroke="#63b8ff" d="M136.82,-410.96C162.43,-399.87 194.63,-385.93 220.67,-374.66"/>
<polygon fill="#63b8ff" stroke="#63b8ff" points="135.46,-407.73 127.67,-414.92 138.24,-414.16 135.46,-407.73"/>
</a>
</g>
</g>
<!-- Node4 -->
<g id="Node000004" class="node">
<title>Node4</title>
<g id="a_Node000004"><a xlink:href="_virtual_c64_8h.html" target="_top" xlink:title=" ">
<polygon fill="white" stroke="#666666" points="495.91,-163.5 359.16,-163.5 359.16,-133 495.91,-133 495.91,-163.5"/>
<text text-anchor="start" x="367.16" y="-150" font-family="Helvetica,sans-Serif" font-size="10.00">/Users/hoff/Retro/virtualc64</text>
<text text-anchor="middle" x="427.54" y="-138.75" font-family="Helvetica,sans-Serif" font-size="10.00">/Emulator/VirtualC64.h</text>
</a>
</g>
</g>
<!-- Node3&#45;&gt;Node4 -->
<g id="edge3_Node000003_Node000004" class="edge">
<title>Node3&#45;&gt;Node4</title>
<g id="a_edge3_Node000003_Node000004"><a xlink:title=" ">
<path fill="none" stroke="#63b8ff" d="M392.25,-190.63C399.88,-181.69 408.37,-171.74 415.11,-163.83"/>
<polygon fill="#63b8ff" stroke="#63b8ff" points="389.83,-188.08 386,-197.96 395.15,-192.62 389.83,-188.08"/>
</a>
</g>
</g>
<!-- Node5 -->
<g id="Node000005" class="node">
<title>Node5</title>
<g id="a_Node000005"><a xlink:href="_headless_8h_source.html" target="_top" xlink:title=" ">
<polygon fill="white" stroke="#666666" points="495.91,-97 359.16,-97 359.16,-66.5 495.91,-66.5 495.91,-97"/>
<text text-anchor="start" x="367.16" y="-83.5" font-family="Helvetica,sans-Serif" font-size="10.00">/Users/hoff/Retro/virtualc64</text>
<text text-anchor="middle" x="427.54" y="-72.25" font-family="Helvetica,sans-Serif" font-size="10.00">/Emulator/Headless.h</text>
</a>
</g>
</g>
<!-- Node4&#45;&gt;Node5 -->
<g id="edge4_Node000004_Node000005" class="edge">
<title>Node4&#45;&gt;Node5</title>
<g id="a_edge4_Node000004_Node000005"><a xlink:title=" ">
<path fill="none" stroke="#63b8ff" d="M427.54,-121.31C427.54,-113.14 427.54,-104.41 427.54,-97.33"/>
<polygon fill="#63b8ff" stroke="#63b8ff" points="424.04,-121.1 427.54,-131.1 431.04,-121.1 424.04,-121.1"/>
</a>
</g>
</g>
<!-- Node6 -->
<g id="Node000006" class="node">
<title>Node6</title>
<g id="a_Node000006"><a xlink:href="_headless_8cpp.html" target="_top" xlink:title=" ">
<polygon fill="white" stroke="#666666" points="495.91,-30.5 359.16,-30.5 359.16,0 495.91,0 495.91,-30.5"/>
<text text-anchor="start" x="367.16" y="-17" font-family="Helvetica,sans-Serif" font-size="10.00">/Users/hoff/Retro/virtualc64</text>
<text text-anchor="middle" x="427.54" y="-5.75" font-family="Helvetica,sans-Serif" font-size="10.00">/Emulator/Headless.cpp</text>
</a>
</g>
</g>
<!-- Node5&#45;&gt;Node6 -->
<g id="edge5_Node000005_Node000006" class="edge">
<title>Node5&#45;&gt;Node6</title>
<g id="a_edge5_Node000005_Node000006"><a xlink:title=" ">
<path fill="none" stroke="#63b8ff" d="M427.54,-54.81C427.54,-46.64 427.54,-37.91 427.54,-30.83"/>
<polygon fill="#63b8ff" stroke="#63b8ff" points="424.04,-54.6 427.54,-64.6 431.04,-54.6 424.04,-54.6"/>
</a>
</g>
</g>
<!-- Node8 -->
<g id="Node000008" class="node">
<title>Node8</title>
<g id="a_Node000008"><a xlink:href="_c64_8h_source.html" target="_top" xlink:title=" ">
<polygon fill="white" stroke="#666666" points="445.41,-296.5 299.66,-296.5 299.66,-266 445.41,-266 445.41,-296.5"/>
<text text-anchor="start" x="307.66" y="-283" font-family="Helvetica,sans-Serif" font-size="10.00">/Users/hoff/Retro/virtualc64</text>
<text text-anchor="middle" x="372.54" y="-271.75" font-family="Helvetica,sans-Serif" font-size="10.00">/Emulator/Components/C64.h</text>
</a>
</g>
</g>
<!-- Node7&#45;&gt;Node8 -->
<g id="edge7_Node000007_Node000008" class="edge">
<title>Node7&#45;&gt;Node8</title>
<g id="a_edge7_Node000007_Node000008"><a xlink:title=" ">
<path fill="none" stroke="#63b8ff" d="M183.71,-329.88C226.49,-319.09 276.52,-306.47 314.34,-296.93"/>
<polygon fill="#63b8ff" stroke="#63b8ff" points="183.03,-326.44 174.19,-332.28 184.74,-333.23 183.03,-326.44"/>
</a>
</g>
</g>
<!-- Node8&#45;&gt;Node3 -->
<g id="edge8_Node000008_Node000003" class="edge">
<title>Node8&#45;&gt;Node3</title>
<g id="a_edge8_Node000008_Node000003"><a xlink:title=" ">
<path fill="none" stroke="#63b8ff" d="M372.54,-254.31C372.54,-246.14 372.54,-237.41 372.54,-230.33"/>
<polygon fill="#63b8ff" stroke="#63b8ff" points="369.04,-254.1 372.54,-264.1 376.04,-254.1 369.04,-254.1"/>
</a>
</g>
</g>
<!-- Node9&#45;&gt;Node8 -->
<g id="edge10_Node000009_Node000008" class="edge">
<title>Node9&#45;&gt;Node8</title>
<g id="a_edge10_Node000009_Node000008"><a xlink:title=" ">
<path fill="none" stroke="#63b8ff" d="M307.29,-325.82C321.96,-316.03 338.05,-305.29 350.57,-296.92"/>
<polygon fill="#63b8ff" stroke="#63b8ff" points="305.54,-322.79 299.17,-331.25 309.43,-328.61 305.54,-322.79"/>
</a>
</g>
</g>
<!-- Node10&#45;&gt;Node8 -->
<g id="edge12_Node000010_Node000008" class="edge">
<title>Node10&#45;&gt;Node8</title>
<g id="a_edge12_Node000010_Node000008"><a xlink:title=" ">
<path fill="none" stroke="#63b8ff" d="M321.97,-403.9C333.95,-395.91 345.44,-386.04 353.54,-374.25 369.7,-350.72 372.64,-316.37 372.89,-296.99"/>
<polygon fill="#63b8ff" stroke="#63b8ff" points="320.24,-400.86 313.6,-409.12 323.94,-406.8 320.24,-400.86"/>
</a>
</g>
</g>
<!-- Node11&#45;&gt;Node8 -->
<g id="edge14_Node000011_Node000008" class="edge">
<title>Node11&#45;&gt;Node8</title>
<g id="a_edge14_Node000011_Node000008"><a xlink:title=" ">
<path fill="none" stroke="#63b8ff" d="M436.2,-399.92C419.23,-368.55 393.39,-320.79 380.47,-296.91"/>
<polygon fill="#63b8ff" stroke="#63b8ff" points="433.03,-401.41 440.86,-408.54 439.18,-398.08 433.03,-401.41"/>
</a>
</g>
</g>
<!-- Node12&#45;&gt;Node8 -->
<g id="edge16_Node000012_Node000008" class="edge">
<title>Node12&#45;&gt;Node8</title>
<g id="a_edge16_Node000012_Node000008"><a xlink:title=" ">
<path fill="none" stroke="#63b8ff" d="M457.67,-326.8C438.46,-316.75 417.09,-305.57 400.57,-296.92"/>
<polygon fill="#63b8ff" stroke="#63b8ff" points="455.96,-329.85 466.44,-331.39 459.2,-323.65 455.96,-329.85"/>
</a>
</g>
</g>
<!-- Node13&#45;&gt;Node4 -->
<g id="edge18_Node000013_Node000004" class="edge">
<title>Node13&#45;&gt;Node4</title>
<g id="a_edge18_Node000013_Node000004"><a xlink:title=" ">
<path fill="none" stroke="#63b8ff" d="M544.59,-258C515.67,-231.13 467.84,-186.7 443.24,-163.83"/>
<polygon fill="#63b8ff" stroke="#63b8ff" points="542.09,-260.46 551.8,-264.7 546.86,-255.33 542.09,-260.46"/>
</a>
</g>
</g>
</g>
</svg>
