<?xml version="1.0" encoding="UTF-8" standalone="no"?>
<!DOCTYPE svg PUBLIC "-//W3C//DTD SVG 1.1//EN"
 "http://www.w3.org/Graphics/SVG/1.1/DTD/svg11.dtd">
<!-- Generated by graphviz version 10.0.1 (20240210.2158)
 -->
<!-- Title: /Users/hoff/Retro/virtualc64/Emulator/Base/CmdQueueTypes.h Pages: 1 -->
<svg width="805pt" height="405pt"
 viewBox="0.00 0.00 804.92 404.75" xmlns="http://www.w3.org/2000/svg" xmlns:xlink="http://www.w3.org/1999/xlink">
<g id="graph0" class="graph" transform="scale(1 1) rotate(0) translate(4 400.75)">
<title>/Users/hoff/Retro/virtualc64/Emulator/Base/CmdQueueTypes.h</title>
<!-- Node1 -->
<g id="Node000001" class="node">
<title>Node1</title>
<g id="a_Node000001"><a xlink:title=" ">
<polygon fill="#999999" stroke="#666666" points="613.55,-396.75 443.05,-396.75 443.05,-366.25 613.55,-366.25 613.55,-396.75"/>
<text text-anchor="start" x="451.05" y="-383.25" font-family="Helvetica,sans-Serif" font-size="10.00">/Users/hoff/Retro/virtualc64</text>
<text text-anchor="middle" x="528.3" y="-372" font-family="Helvetica,sans-Serif" font-size="10.00">/Emulator/Base/CmdQueueTypes.h</text>
</a>
</g>
</g>
<!-- Node2 -->
<g id="Node000002" class="node">
<title>Node2</title>
<g id="a_Node000002"><a xlink:href="_cmd_queue_8h.html" target="_top" xlink:title=" ">
<polygon fill="white" stroke="#666666" points="203.42,-324.62 59.17,-324.62 59.17,-294.12 203.42,-294.12 203.42,-324.62"/>
<text text-anchor="start" x="67.17" y="-311.12" font-family="Helvetica,sans-Serif" font-size="10.00">/Users/hoff/Retro/virtualc64</text>
<text text-anchor="middle" x="131.3" y="-299.88" font-family="Helvetica,sans-Serif" font-size="10.00">/Emulator/Base/CmdQueue.h</text>
</a>
</g>
</g>
<!-- Node1&#45;&gt;Node2 -->
<g id="edge1_Node000001_Node000002" class="edge">
<title>Node1&#45;&gt;Node2</title>
<g id="a_edge1_Node000001_Node000002"><a xlink:title=" ">
<path fill="none" stroke="#63b8ff" d="M433.97,-363.84C363.43,-351.38 268.38,-334.59 203.75,-323.17"/>
<polygon fill="#63b8ff" stroke="#63b8ff" points="433.13,-367.24 443.59,-365.54 434.35,-360.35 433.13,-367.24"/>
</a>
</g>
</g>
<!-- Node6 -->
<g id="Node000006" class="node">
<title>Node6</title>
<g id="a_Node000006"><a xlink:href="_drive_8h_source.html" target="_top" xlink:title=" ">
<polygon fill="white" stroke="#666666" points="435.67,-174.75 298.92,-174.75 298.92,-133 435.67,-133 435.67,-174.75"/>
<text text-anchor="start" x="306.92" y="-161.25" font-family="Helvetica,sans-Serif" font-size="10.00">/Users/hoff/Retro/virtualc64</text>
<text text-anchor="start" x="306.92" y="-150" font-family="Helvetica,sans-Serif" font-size="10.00">/Emulator/Peripherals/Drive</text>
<text text-anchor="middle" x="367.3" y="-138.75" font-family="Helvetica,sans-Serif" font-size="10.00">/Drive.h</text>
</a>
</g>
</g>
<!-- Node1&#45;&gt;Node6 -->
<g id="edge16_Node000001_Node000006" class="edge">
<title>Node1&#45;&gt;Node6</title>
<g id="a_edge16_Node000001_Node000006"><a xlink:title=" ">
<path fill="none" stroke="#63b8ff" d="M484.09,-360.25C471.04,-352.46 457.74,-342.44 448.3,-330.25 414.18,-286.19 436.13,-260.13 410.3,-210.75 403.66,-198.06 394.11,-185.3 385.69,-175.18"/>
<polygon fill="#63b8ff" stroke="#63b8ff" points="482.2,-363.2 492.63,-365.04 485.62,-357.1 482.2,-363.2"/>
</a>
</g>
</g>
<!-- Node9 -->
<g id="Node000009" class="node">
<title>Node9</title>
<g id="a_Node000009"><a xlink:href="_control_port_8h_source.html" target="_top" xlink:title=" ">
<polygon fill="white" stroke="#666666" points="639.67,-174.75 496.92,-174.75 496.92,-133 639.67,-133 639.67,-174.75"/>
<text text-anchor="start" x="504.92" y="-161.25" font-family="Helvetica,sans-Serif" font-size="10.00">/Users/hoff/Retro/virtualc64</text>
<text text-anchor="start" x="504.92" y="-150" font-family="Helvetica,sans-Serif" font-size="10.00">/Emulator/Components/Ports</text>
<text text-anchor="middle" x="568.3" y="-138.75" font-family="Helvetica,sans-Serif" font-size="10.00">/ControlPort.h</text>
</a>
</g>
</g>
<!-- Node1&#45;&gt;Node9 -->
<g id="edge12_Node000001_Node000009" class="edge">
<title>Node1&#45;&gt;Node9</title>
<g id="a_edge12_Node000001_Node000009"><a xlink:title=" ">
<path fill="none" stroke="#63b8ff" d="M577.26,-360.4C589.58,-352.85 601.29,-342.94 608.3,-330.25 636.55,-279.14 602.19,-209.12 581.61,-175.09"/>
<polygon fill="#63b8ff" stroke="#63b8ff" points="575.67,-357.28 568.65,-365.21 579.08,-363.39 575.67,-357.28"/>
</a>
</g>
</g>
<!-- Node10 -->
<g id="Node000010" class="node">
<title>Node10</title>
<g id="a_Node000010"><a xlink:href="_expansion_port_8h_source.html" target="_top" xlink:title=" ">
<polygon fill="white" stroke="#666666" points="599.67,-330.25 456.92,-330.25 456.92,-288.5 599.67,-288.5 599.67,-330.25"/>
<text text-anchor="start" x="464.92" y="-316.75" font-family="Helvetica,sans-Serif" font-size="10.00">/Users/hoff/Retro/virtualc64</text>
<text text-anchor="start" x="464.92" y="-305.5" font-family="Helvetica,sans-Serif" font-size="10.00">/Emulator/Components/Ports</text>
<text text-anchor="middle" x="528.3" y="-294.25" font-family="Helvetica,sans-Serif" font-size="10.00">/ExpansionPort.h</text>
</a>
</g>
</g>
<!-- Node1&#45;&gt;Node10 -->
<g id="edge14_Node000001_Node000010" class="edge">
<title>Node1&#45;&gt;Node10</title>
<g id="a_edge14_Node000001_Node000010"><a xlink:title=" ">
<path fill="none" stroke="#63b8ff" d="M528.3,-354.72C528.3,-346.81 528.3,-338.23 528.3,-330.74"/>
<polygon fill="#63b8ff" stroke="#63b8ff" points="524.8,-354.46 528.3,-364.46 531.8,-354.46 524.8,-354.46"/>
</a>
</g>
</g>
<!-- Node11 -->
<g id="Node000011" class="node">
<title>Node11</title>
<g id="a_Node000011"><a xlink:href="_virtual_c64_types_8h.html" target="_top" xlink:title=" ">
<polygon fill="white" stroke="#666666" points="796.92,-324.62 655.67,-324.62 655.67,-294.12 796.92,-294.12 796.92,-324.62"/>
<text text-anchor="start" x="663.67" y="-311.12" font-family="Helvetica,sans-Serif" font-size="10.00">/Users/hoff/Retro/virtualc64</text>
<text text-anchor="middle" x="726.3" y="-299.88" font-family="Helvetica,sans-Serif" font-size="10.00">/Emulator/VirtualC64Types.h</text>
</a>
</g>
</g>
<!-- Node1&#45;&gt;Node11 -->
<g id="edge17_Node000001_Node000011" class="edge">
<title>Node1&#45;&gt;Node11</title>
<g id="a_edge17_Node000001_Node000011"><a xlink:title=" ">
<path fill="none" stroke="#63b8ff" d="M580.5,-362.01C613.1,-350.47 654.5,-335.8 684.85,-325.06"/>
<polygon fill="#63b8ff" stroke="#63b8ff" points="579.49,-358.66 571.23,-365.29 581.83,-365.25 579.49,-358.66"/>
</a>
</g>
</g>
<!-- Node3 -->
<g id="Node000003" class="node">
<title>Node3</title>
<g id="a_Node000003"><a xlink:href="_c_p_u_8h_source.html" target="_top" xlink:title=" ">
<polygon fill="white" stroke="#666666" points="401.42,-246.88 227.17,-246.88 227.17,-216.38 401.42,-216.38 401.42,-246.88"/>
<text text-anchor="start" x="235.17" y="-233.38" font-family="Helvetica,sans-Serif" font-size="10.00">/Users/hoff/Retro/virtualc64</text>
<text text-anchor="middle" x="314.3" y="-222.12" font-family="Helvetica,sans-Serif" font-size="10.00">/Emulator/Components/CPU/CPU.h</text>
</a>
</g>
</g>
<!-- Node2&#45;&gt;Node3 -->
<g id="edge2_Node000002_Node000003" class="edge">
<title>Node2&#45;&gt;Node3</title>
<g id="a_edge2_Node000002_Node000003"><a xlink:title=" ">
<path fill="none" stroke="#63b8ff" d="M176.87,-289.51C208.39,-276.46 249.73,-259.35 278.81,-247.31"/>
<polygon fill="#63b8ff" stroke="#63b8ff" points="175.88,-286.13 167.98,-293.19 178.56,-292.6 175.88,-286.13"/>
</a>
</g>
</g>
<!-- Node5 -->
<g id="Node000005" class="node">
<title>Node5</title>
<g id="a_Node000005"><a xlink:href="_emulator_8h_source.html" target="_top" xlink:title=" ">
<polygon fill="white" stroke="#666666" points="215.3,-30.5 49.3,-30.5 49.3,0 215.3,0 215.3,-30.5"/>
<text text-anchor="start" x="57.3" y="-17" font-family="Helvetica,sans-Serif" font-size="10.00">/Users/hoff/Retro/virtualc64</text>
<text text-anchor="middle" x="132.3" y="-5.75" font-family="Helvetica,sans-Serif" font-size="10.00">/Emulator/Components/Emulator.h</text>
</a>
</g>
</g>
<!-- Node2&#45;&gt;Node5 -->
<g id="edge7_Node000002_Node000005" class="edge">
<title>Node2&#45;&gt;Node5</title>
<g id="a_edge7_Node000002_Node000005"><a xlink:title=" ">
<path fill="none" stroke="#63b8ff" d="M82.57,-288.97C65.55,-280.09 47.64,-268.02 35.3,-252.5 1.59,-210.09 -9.88,-182.86 11.3,-133 30.87,-86.92 78.52,-50.18 107.85,-30.95"/>
<polygon fill="#63b8ff" stroke="#63b8ff" points="80.56,-291.89 91.08,-293.17 83.66,-285.61 80.56,-291.89"/>
</a>
</g>
</g>
<!-- Node7 -->
<g id="Node000007" class="node">
<title>Node7</title>
<g id="a_Node000007"><a xlink:href="_datasette_8h_source.html" target="_top" xlink:title=" ">
<polygon fill="white" stroke="#666666" points="209.05,-252.5 53.55,-252.5 53.55,-210.75 209.05,-210.75 209.05,-252.5"/>
<text text-anchor="start" x="61.55" y="-239" font-family="Helvetica,sans-Serif" font-size="10.00">/Users/hoff/Retro/virtualc64</text>
<text text-anchor="start" x="61.55" y="-227.75" font-family="Helvetica,sans-Serif" font-size="10.00">/Emulator/Peripherals/Datasette</text>
<text text-anchor="middle" x="131.3" y="-216.5" font-family="Helvetica,sans-Serif" font-size="10.00">/Datasette.h</text>
</a>
</g>
</g>
<!-- Node2&#45;&gt;Node7 -->
<g id="edge8_Node000002_Node000007" class="edge">
<title>Node2&#45;&gt;Node7</title>
<g id="a_edge8_Node000002_Node000007"><a xlink:title=" ">
<path fill="none" stroke="#63b8ff" d="M131.3,-282.39C131.3,-272.75 131.3,-261.97 131.3,-252.91"/>
<polygon fill="#63b8ff" stroke="#63b8ff" points="127.8,-282.26 131.3,-292.26 134.8,-282.26 127.8,-282.26"/>
</a>
</g>
</g>
<!-- Node8 -->
<g id="Node000008" class="node">
<title>Node8</title>
<g id="a_Node000008"><a xlink:href="_keyboard_8h_source.html" target="_top" xlink:title=" ">
<polygon fill="white" stroke="#666666" points="174.3,-174.75 20.3,-174.75 20.3,-133 174.3,-133 174.3,-174.75"/>
<text text-anchor="start" x="28.3" y="-161.25" font-family="Helvetica,sans-Serif" font-size="10.00">/Users/hoff/Retro/virtualc64</text>
<text text-anchor="start" x="28.3" y="-150" font-family="Helvetica,sans-Serif" font-size="10.00">/Emulator/Peripherals/Keyboard</text>
<text text-anchor="middle" x="97.3" y="-138.75" font-family="Helvetica,sans-Serif" font-size="10.00">/Keyboard.h</text>
</a>
</g>
</g>
<!-- Node2&#45;&gt;Node8 -->
<g id="edge10_Node000002_Node000008" class="edge">
<title>Node2&#45;&gt;Node8</title>
<g id="a_edge10_Node000002_Node000008"><a xlink:title=" ">
<path fill="none" stroke="#63b8ff" d="M82.62,-288.55C67.59,-279.85 52.77,-268.01 44.3,-252.5 35.4,-236.22 37.43,-227.99 44.3,-210.75 49.8,-196.96 60.49,-184.63 70.84,-175.08"/>
<polygon fill="#63b8ff" stroke="#63b8ff" points="80.67,-291.48 91.14,-293.11 83.97,-285.31 80.67,-291.48"/>
</a>
</g>
</g>
<!-- Node4 -->
<g id="Node000004" class="node">
<title>Node4</title>
<g id="a_Node000004"><a xlink:href="_c64_8h_source.html" target="_top" xlink:title=" ">
<polygon fill="white" stroke="#666666" points="344.17,-97 198.42,-97 198.42,-66.5 344.17,-66.5 344.17,-97"/>
<text text-anchor="start" x="206.42" y="-83.5" font-family="Helvetica,sans-Serif" font-size="10.00">/Users/hoff/Retro/virtualc64</text>
<text text-anchor="middle" x="271.3" y="-72.25" font-family="Helvetica,sans-Serif" font-size="10.00">/Emulator/Components/C64.h</text>
</a>
</g>
</g>
<!-- Node3&#45;&gt;Node4 -->
<g id="edge3_Node000003_Node000004" class="edge">
<title>Node3&#45;&gt;Node4</title>
<g id="a_edge3_Node000003_Node000004"><a xlink:title=" ">
<path fill="none" stroke="#63b8ff" d="M302.39,-205.86C298.13,-196.3 293.58,-185.17 290.3,-174.75 281.88,-147.99 276.2,-115.66 273.38,-97.32"/>
<polygon fill="#63b8ff" stroke="#63b8ff" points="299.16,-207.23 306.52,-214.85 305.52,-204.3 299.16,-207.23"/>
</a>
</g>
</g>
<!-- Node3&#45;&gt;Node6 -->
<g id="edge5_Node000003_Node000006" class="edge">
<title>Node3&#45;&gt;Node6</title>
<g id="a_edge5_Node000003_Node000006"><a xlink:title=" ">
<path fill="none" stroke="#63b8ff" d="M330.92,-206.87C338.04,-196.69 346.28,-184.92 353.11,-175.16"/>
<polygon fill="#63b8ff" stroke="#63b8ff" points="328.25,-204.58 325.39,-214.78 333.99,-208.59 328.25,-204.58"/>
</a>
</g>
</g>
<!-- Node4&#45;&gt;Node5 -->
<g id="edge4_Node000004_Node000005" class="edge">
<title>Node4&#45;&gt;Node5</title>
<g id="a_edge4_Node000004_Node000005"><a xlink:title=" ">
<path fill="none" stroke="#63b8ff" d="M229.45,-61.33C208.34,-51.53 183.15,-39.85 163.72,-30.83"/>
<polygon fill="#63b8ff" stroke="#63b8ff" points="227.84,-64.44 238.39,-65.48 230.79,-58.09 227.84,-64.44"/>
</a>
</g>
</g>
<!-- Node6&#45;&gt;Node4 -->
<g id="edge6_Node000006_Node000004" class="edge">
<title>Node6&#45;&gt;Node4</title>
<g id="a_edge6_Node000006_Node000004"><a xlink:title=" ">
<path fill="none" stroke="#63b8ff" d="M330.57,-126.04C317.26,-116.32 302.73,-105.71 291.38,-97.42"/>
<polygon fill="#63b8ff" stroke="#63b8ff" points="328.17,-128.63 338.31,-131.7 332.3,-122.97 328.17,-128.63"/>
</a>
</g>
</g>
<!-- Node7&#45;&gt;Node4 -->
<g id="edge9_Node000007_Node000004" class="edge">
<title>Node7&#45;&gt;Node4</title>
<g id="a_edge9_Node000007_Node000004"><a xlink:title=" ">
<path fill="none" stroke="#63b8ff" d="M158.36,-202.04C188.01,-170.72 234.42,-121.7 257.42,-97.41"/>
<polygon fill="#63b8ff" stroke="#63b8ff" points="155.85,-199.61 151.51,-209.27 160.93,-204.42 155.85,-199.61"/>
</a>
</g>
</g>
<!-- Node8&#45;&gt;Node4 -->
<g id="edge11_Node000008_Node000004" class="edge">
<title>Node8&#45;&gt;Node4</title>
<g id="a_edge11_Node000008_Node000004"><a xlink:title=" ">
<path fill="none" stroke="#63b8ff" d="M158.01,-128.41C183.65,-118.07 212.66,-106.38 234.9,-97.42"/>
<polygon fill="#63b8ff" stroke="#63b8ff" points="157,-125.04 149.03,-132.03 159.62,-131.53 157,-125.04"/>
</a>
</g>
</g>
<!-- Node9&#45;&gt;Node4 -->
<g id="edge13_Node000009_Node000004" class="edge">
<title>Node9&#45;&gt;Node4</title>
<g id="a_edge13_Node000009_Node000004"><a xlink:title=" ">
<path fill="none" stroke="#63b8ff" d="M485.75,-133.39C437.6,-122.02 377.84,-107.9 333.64,-97.47"/>
<polygon fill="#63b8ff" stroke="#63b8ff" points="484.77,-136.75 495.31,-135.64 486.38,-129.94 484.77,-136.75"/>
</a>
</g>
</g>
<!-- Node10&#45;&gt;Node4 -->
<g id="edge15_Node000010_Node000004" class="edge">
<title>Node10&#45;&gt;Node4</title>
<g id="a_edge15_Node000010_Node000004"><a xlink:title=" ">
<path fill="none" stroke="#63b8ff" d="M521.66,-277.25C511.67,-237.95 488.96,-170.88 444.3,-133 416.51,-109.43 378.19,-96.91 344.67,-90.26"/>
<polygon fill="#63b8ff" stroke="#63b8ff" points="518.22,-277.89 523.96,-286.79 525.02,-276.25 518.22,-277.89"/>
</a>
</g>
</g>
<!-- Node12 -->
<g id="Node000012" class="node">
<title>Node12</title>
<g id="a_Node000012"><a xlink:href="_virtual_c64_8h.html" target="_top" xlink:title=" ">
<polygon fill="white" stroke="#666666" points="794.67,-246.88 657.92,-246.88 657.92,-216.38 794.67,-216.38 794.67,-246.88"/>
<text text-anchor="start" x="665.92" y="-233.38" font-family="Helvetica,sans-Serif" font-size="10.00">/Users/hoff/Retro/virtualc64</text>
<text text-anchor="middle" x="726.3" y="-222.12" font-family="Helvetica,sans-Serif" font-size="10.00">/Emulator/VirtualC64.h</text>
</a>
</g>
</g>
<!-- Node11&#45;&gt;Node12 -->
<g id="edge18_Node000011_Node000012" class="edge">
<title>Node11&#45;&gt;Node12</title>
<g id="a_edge18_Node000011_Node000012"><a xlink:title=" ">
<path fill="none" stroke="#63b8ff" d="M726.3,-282.35C726.3,-270.59 726.3,-257.13 726.3,-247.19"/>
<polygon fill="#63b8ff" stroke="#63b8ff" points="722.8,-282.26 726.3,-292.26 729.8,-282.26 722.8,-282.26"/>
</a>
</g>
</g>
<!-- Node13 -->
<g id="Node000013" class="node">
<title>Node13</title>
<g id="a_Node000013"><a xlink:href="_headless_8h_source.html" target="_top" xlink:title=" ">
<polygon fill="white" stroke="#666666" points="794.67,-169.12 657.92,-169.12 657.92,-138.62 794.67,-138.62 794.67,-169.12"/>
<text text-anchor="start" x="665.92" y="-155.62" font-family="Helvetica,sans-Serif" font-size="10.00">/Users/hoff/Retro/virtualc64</text>
<text text-anchor="middle" x="726.3" y="-144.38" font-family="Helvetica,sans-Serif" font-size="10.00">/Emulator/Headless.h</text>
</a>
</g>
</g>
<!-- Node12&#45;&gt;Node13 -->
<g id="edge19_Node000012_Node000013" class="edge">
<title>Node12&#45;&gt;Node13</title>
<g id="a_edge19_Node000012_Node000013"><a xlink:title=" ">
<path fill="none" stroke="#63b8ff" d="M726.3,-204.6C726.3,-192.84 726.3,-179.38 726.3,-169.44"/>
<polygon fill="#63b8ff" stroke="#63b8ff" points="722.8,-204.51 726.3,-214.51 729.8,-204.51 722.8,-204.51"/>
</a>
</g>
</g>
<!-- Node14 -->
<g id="Node000014" class="node">
<title>Node14</title>
<g id="a_Node000014"><a xlink:href="_headless_8cpp.html" target="_top" xlink:title=" ">
<polygon fill="white" stroke="#666666" points="794.67,-97 657.92,-97 657.92,-66.5 794.67,-66.5 794.67,-97"/>
<text text-anchor="start" x="665.92" y="-83.5" font-family="Helvetica,sans-Serif" font-size="10.00">/Users/hoff/Retro/virtualc64</text>
<text text-anchor="middle" x="726.3" y="-72.25" font-family="Helvetica,sans-Serif" font-size="10.00">/Emulator/Headless.cpp</text>
</a>
</g>
</g>
<!-- Node13&#45;&gt;Node14 -->
<g id="edge20_Node000013_Node000014" class="edge">
<title>Node13&#45;&gt;Node14</title>
<g id="a_edge20_Node000013_Node000014"><a xlink:title=" ">
<path fill="none" stroke="#63b8ff" d="M726.3,-126.9C726.3,-116.89 726.3,-105.81 726.3,-97.26"/>
<polygon fill="#63b8ff" stroke="#63b8ff" points="722.8,-126.83 726.3,-136.83 729.8,-126.83 722.8,-126.83"/>
</a>
</g>
</g>
</g>
</svg>
