<?xml version="1.0" encoding="UTF-8" standalone="no"?>
<!DOCTYPE svg PUBLIC "-//W3C//DTD SVG 1.1//EN"
 "http://www.w3.org/Graphics/SVG/1.1/DTD/svg11.dtd">
<!-- Generated by graphviz version 10.0.1 (20240210.2158)
 -->
<!-- Title: /Users/hoff/Retro/virtualc64/Emulator/Base/CmdQueue.h Pages: 1 -->
<svg width="394pt" height="449pt"
 viewBox="0.00 0.00 394.00 448.75" xmlns="http://www.w3.org/2000/svg" xmlns:xlink="http://www.w3.org/1999/xlink">
<g id="graph0" class="graph" transform="scale(1 1) rotate(0) translate(4 444.75)">
<title>/Users/hoff/Retro/virtualc64/Emulator/Base/CmdQueue.h</title>
<!-- Node1 -->
<g id="Node000001" class="node">
<title>Node1</title>
<g id="a_Node000001"><a xlink:title=" ">
<polygon fill="#999999" stroke="#666666" points="208.12,-440.75 63.88,-440.75 63.88,-410.25 208.12,-410.25 208.12,-440.75"/>
<text text-anchor="start" x="71.88" y="-427.25" font-family="Helvetica,sans-Serif" font-size="10.00">/Users/hoff/Retro/virtualc64</text>
<text text-anchor="middle" x="136" y="-416" font-family="Helvetica,sans-Serif" font-size="10.00">/Emulator/Base/CmdQueue.h</text>
</a>
</g>
</g>
<!-- Node2 -->
<g id="Node000002" class="node">
<title>Node2</title>
<g id="a_Node000002"><a xlink:href="_emulator_8h_source.html" target="_top" xlink:title=" ">
<polygon fill="white" stroke="#666666" points="166,-230 0,-230 0,-199.5 166,-199.5 166,-230"/>
<text text-anchor="start" x="8" y="-216.5" font-family="Helvetica,sans-Serif" font-size="10.00">/Users/hoff/Retro/virtualc64</text>
<text text-anchor="middle" x="83" y="-205.25" font-family="Helvetica,sans-Serif" font-size="10.00">/Emulator/Components/Emulator.h</text>
</a>
</g>
</g>
<!-- Node1&#45;&gt;Node2 -->
<g id="edge1_Node000001_Node000002" class="edge">
<title>Node1&#45;&gt;Node2</title>
<g id="a_edge1_Node000001_Node000002"><a xlink:title=" ">
<path fill="none" stroke="#63b8ff" d="M81.81,-404.66C68.8,-397.19 56.5,-387.25 49,-374.25 42.05,-362.21 50.96,-275.86 54,-266 57.98,-253.1 65.74,-239.94 72.23,-230.32"/>
<polygon fill="#63b8ff" stroke="#63b8ff" points="80.01,-407.66 90.49,-409.19 83.25,-401.46 80.01,-407.66"/>
</a>
</g>
</g>
<!-- Node6 -->
<g id="Node000006" class="node">
<title>Node6</title>
<g id="a_Node000006"><a xlink:href="_datasette_8h_source.html" target="_top" xlink:title=" ">
<polygon fill="white" stroke="#666666" points="213.75,-374.25 58.25,-374.25 58.25,-332.5 213.75,-332.5 213.75,-374.25"/>
<text text-anchor="start" x="66.25" y="-360.75" font-family="Helvetica,sans-Serif" font-size="10.00">/Users/hoff/Retro/virtualc64</text>
<text text-anchor="start" x="66.25" y="-349.5" font-family="Helvetica,sans-Serif" font-size="10.00">/Emulator/Peripherals/Datasette</text>
<text text-anchor="middle" x="136" y="-338.25" font-family="Helvetica,sans-Serif" font-size="10.00">/Datasette.h</text>
</a>
</g>
</g>
<!-- Node1&#45;&gt;Node6 -->
<g id="edge5_Node000001_Node000006" class="edge">
<title>Node1&#45;&gt;Node6</title>
<g id="a_edge5_Node000001_Node000006"><a xlink:title=" ">
<path fill="none" stroke="#63b8ff" d="M136,-398.72C136,-390.81 136,-382.23 136,-374.74"/>
<polygon fill="#63b8ff" stroke="#63b8ff" points="132.5,-398.46 136,-408.46 139.5,-398.46 132.5,-398.46"/>
</a>
</g>
</g>
<!-- Node8 -->
<g id="Node000008" class="node">
<title>Node8</title>
<g id="a_Node000008"><a xlink:href="_keyboard_8h_source.html" target="_top" xlink:title=" ">
<polygon fill="white" stroke="#666666" points="386,-374.25 232,-374.25 232,-332.5 386,-332.5 386,-374.25"/>
<text text-anchor="start" x="240" y="-360.75" font-family="Helvetica,sans-Serif" font-size="10.00">/Users/hoff/Retro/virtualc64</text>
<text text-anchor="start" x="240" y="-349.5" font-family="Helvetica,sans-Serif" font-size="10.00">/Emulator/Peripherals/Keyboard</text>
<text text-anchor="middle" x="309" y="-338.25" font-family="Helvetica,sans-Serif" font-size="10.00">/Keyboard.h</text>
</a>
</g>
</g>
<!-- Node1&#45;&gt;Node8 -->
<g id="edge8_Node000001_Node000008" class="edge">
<title>Node1&#45;&gt;Node8</title>
<g id="a_edge8_Node000001_Node000008"><a xlink:title=" ">
<path fill="none" stroke="#63b8ff" d="M182.72,-405.56C206.32,-396 234.96,-384.39 259,-374.64"/>
<polygon fill="#63b8ff" stroke="#63b8ff" points="181.62,-402.23 173.67,-409.23 184.25,-408.72 181.62,-402.23"/>
</a>
</g>
</g>
<!-- Node3 -->
<g id="Node000003" class="node">
<title>Node3</title>
<g id="a_Node000003"><a xlink:href="_virtual_c64_8h.html" target="_top" xlink:title=" ">
<polygon fill="white" stroke="#666666" points="151.38,-163.5 14.62,-163.5 14.62,-133 151.38,-133 151.38,-163.5"/>
<text text-anchor="start" x="22.62" y="-150" font-family="Helvetica,sans-Serif" font-size="10.00">/Users/hoff/Retro/virtualc64</text>
<text text-anchor="middle" x="83" y="-138.75" font-family="Helvetica,sans-Serif" font-size="10.00">/Emulator/VirtualC64.h</text>
</a>
</g>
</g>
<!-- Node2&#45;&gt;Node3 -->
<g id="edge2_Node000002_Node000003" class="edge">
<title>Node2&#45;&gt;Node3</title>
<g id="a_edge2_Node000002_Node000003"><a xlink:title=" ">
<path fill="none" stroke="#63b8ff" d="M83,-187.81C83,-179.64 83,-170.91 83,-163.83"/>
<polygon fill="#63b8ff" stroke="#63b8ff" points="79.5,-187.6 83,-197.6 86.5,-187.6 79.5,-187.6"/>
</a>
</g>
</g>
<!-- Node4 -->
<g id="Node000004" class="node">
<title>Node4</title>
<g id="a_Node000004"><a xlink:href="_headless_8h_source.html" target="_top" xlink:title=" ">
<polygon fill="white" stroke="#666666" points="151.38,-97 14.62,-97 14.62,-66.5 151.38,-66.5 151.38,-97"/>
<text text-anchor="start" x="22.62" y="-83.5" font-family="Helvetica,sans-Serif" font-size="10.00">/Users/hoff/Retro/virtualc64</text>
<text text-anchor="middle" x="83" y="-72.25" font-family="Helvetica,sans-Serif" font-size="10.00">/Emulator/Headless.h</text>
</a>
</g>
</g>
<!-- Node3&#45;&gt;Node4 -->
<g id="edge3_Node000003_Node000004" class="edge">
<title>Node3&#45;&gt;Node4</title>
<g id="a_edge3_Node000003_Node000004"><a xlink:title=" ">
<path fill="none" stroke="#63b8ff" d="M83,-121.31C83,-113.14 83,-104.41 83,-97.33"/>
<polygon fill="#63b8ff" stroke="#63b8ff" points="79.5,-121.1 83,-131.1 86.5,-121.1 79.5,-121.1"/>
</a>
</g>
</g>
<!-- Node5 -->
<g id="Node000005" class="node">
<title>Node5</title>
<g id="a_Node000005"><a xlink:href="_headless_8cpp.html" target="_top" xlink:title=" ">
<polygon fill="white" stroke="#666666" points="151.38,-30.5 14.62,-30.5 14.62,0 151.38,0 151.38,-30.5"/>
<text text-anchor="start" x="22.62" y="-17" font-family="Helvetica,sans-Serif" font-size="10.00">/Users/hoff/Retro/virtualc64</text>
<text text-anchor="middle" x="83" y="-5.75" font-family="Helvetica,sans-Serif" font-size="10.00">/Emulator/Headless.cpp</text>
</a>
</g>
</g>
<!-- Node4&#45;&gt;Node5 -->
<g id="edge4_Node000004_Node000005" class="edge">
<title>Node4&#45;&gt;Node5</title>
<g id="a_edge4_Node000004_Node000005"><a xlink:title=" ">
<path fill="none" stroke="#63b8ff" d="M83,-54.81C83,-46.64 83,-37.91 83,-30.83"/>
<polygon fill="#63b8ff" stroke="#63b8ff" points="79.5,-54.6 83,-64.6 86.5,-54.6 79.5,-54.6"/>
</a>
</g>
</g>
<!-- Node7 -->
<g id="Node000007" class="node">
<title>Node7</title>
<g id="a_Node000007"><a xlink:href="_c64_8h_source.html" target="_top" xlink:title=" ">
<polygon fill="white" stroke="#666666" points="208.88,-296.5 63.12,-296.5 63.12,-266 208.88,-266 208.88,-296.5"/>
<text text-anchor="start" x="71.12" y="-283" font-family="Helvetica,sans-Serif" font-size="10.00">/Users/hoff/Retro/virtualc64</text>
<text text-anchor="middle" x="136" y="-271.75" font-family="Helvetica,sans-Serif" font-size="10.00">/Emulator/Components/C64.h</text>
</a>
</g>
</g>
<!-- Node6&#45;&gt;Node7 -->
<g id="edge6_Node000006_Node000007" class="edge">
<title>Node6&#45;&gt;Node7</title>
<g id="a_edge6_Node000006_Node000007"><a xlink:title=" ">
<path fill="none" stroke="#63b8ff" d="M136,-320.63C136,-312.27 136,-303.65 136,-296.7"/>
<polygon fill="#63b8ff" stroke="#63b8ff" points="132.5,-320.58 136,-330.58 139.5,-320.58 132.5,-320.58"/>
</a>
</g>
</g>
<!-- Node7&#45;&gt;Node2 -->
<g id="edge7_Node000007_Node000002" class="edge">
<title>Node7&#45;&gt;Node2</title>
<g id="a_edge7_Node000007_Node000002"><a xlink:title=" ">
<path fill="none" stroke="#63b8ff" d="M116.77,-256.85C109.49,-247.98 101.41,-238.15 94.98,-230.33"/>
<polygon fill="#63b8ff" stroke="#63b8ff" points="113.96,-258.94 123.01,-264.44 119.37,-254.5 113.96,-258.94"/>
</a>
</g>
</g>
<!-- Node8&#45;&gt;Node7 -->
<g id="edge9_Node000008_Node000007" class="edge">
<title>Node8&#45;&gt;Node7</title>
<g id="a_edge9_Node000008_Node000007"><a xlink:title=" ">
<path fill="none" stroke="#63b8ff" d="M248.3,-327.77C222.89,-317.47 194.21,-305.84 172.19,-296.92"/>
<polygon fill="#63b8ff" stroke="#63b8ff" points="246.98,-331.01 257.56,-331.52 249.61,-324.52 246.98,-331.01"/>
</a>
</g>
</g>
</g>
</svg>
