<?xml version="1.0" encoding="UTF-8" standalone="no"?>
<!DOCTYPE svg PUBLIC "-//W3C//DTD SVG 1.1//EN"
 "http://www.w3.org/Graphics/SVG/1.1/DTD/svg11.dtd">
<!-- Generated by graphviz version 10.0.1 (20240210.2158)
 -->
<!-- Title: /Users/hoff/Retro/virtualc64/Emulator/Misc/RetroShell/Command.h Pages: 1 -->
<svg width="342pt" height="271pt"
 viewBox="0.00 0.00 341.50 270.75" xmlns="http://www.w3.org/2000/svg" xmlns:xlink="http://www.w3.org/1999/xlink">
<g id="graph0" class="graph" transform="scale(1 1) rotate(0) translate(4 266.75)">
<title>/Users/hoff/Retro/virtualc64/Emulator/Misc/RetroShell/Command.h</title>
<!-- Node1 -->
<g id="Node000001" class="node">
<title>Node1</title>
<g id="a_Node000001"><a xlink:title=" ">
<polygon fill="#999999" stroke="#666666" points="286.88,-262.75 150.12,-262.75 150.12,-221 286.88,-221 286.88,-262.75"/>
<text text-anchor="start" x="158.12" y="-249.25" font-family="Helvetica,sans-Serif" font-size="10.00">/Users/hoff/Retro/virtualc64</text>
<text text-anchor="start" x="158.12" y="-238" font-family="Helvetica,sans-Serif" font-size="10.00">/Emulator/Misc/RetroShell</text>
<text text-anchor="middle" x="218.5" y="-226.75" font-family="Helvetica,sans-Serif" font-size="10.00">/Command.h</text>
</a>
</g>
</g>
<!-- Node2 -->
<g id="Node000002" class="node">
<title>Node2</title>
<g id="a_Node000002"><a xlink:href="_aliases_8h.html" target="_top" xlink:title=" ">
<polygon fill="white" stroke="#666666" points="137.75,-185 81.25,-185 81.25,-165.75 137.75,-165.75 137.75,-185"/>
<text text-anchor="middle" x="109.5" y="-171.5" font-family="Helvetica,sans-Serif" font-size="10.00">Aliases.h</text>
</a>
</g>
</g>
<!-- Node1&#45;&gt;Node2 -->
<g id="edge1_Node000001_Node000002" class="edge">
<title>Node1&#45;&gt;Node2</title>
<g id="a_edge1_Node000001_Node000002"><a xlink:title=" ">
<path fill="none" stroke="#63b8ff" d="M184.31,-220.64C168.08,-211.04 149.04,-199.77 134.23,-191.01"/>
<polygon fill="#63b8ff" stroke="#63b8ff" points="136.43,-188.25 126.04,-186.17 132.87,-194.27 136.43,-188.25"/>
</a>
</g>
</g>
<!-- Node8 -->
<g id="Node000008" class="node">
<title>Node8</title>
<g id="a_Node000008"><a xlink:title=" ">
<polygon fill="#e0e0e0" stroke="#999999" points="213.5,-185 155.5,-185 155.5,-165.75 213.5,-165.75 213.5,-185"/>
<text text-anchor="middle" x="184.5" y="-171.5" font-family="Helvetica,sans-Serif" font-size="10.00">functional</text>
</a>
</g>
</g>
<!-- Node1&#45;&gt;Node8 -->
<g id="edge7_Node000001_Node000008" class="edge">
<title>Node1&#45;&gt;Node8</title>
<g id="a_edge7_Node000001_Node000008"><a xlink:title=" ">
<path fill="none" stroke="#63b8ff" d="M207.93,-220.82C203.69,-212.78 198.82,-203.55 194.63,-195.59"/>
<polygon fill="#63b8ff" stroke="#63b8ff" points="197.75,-194 189.99,-186.78 191.55,-197.26 197.75,-194"/>
</a>
</g>
</g>
<!-- Node9 -->
<g id="Node000009" class="node">
<title>Node9</title>
<g id="a_Node000009"><a xlink:title=" ">
<polygon fill="#e0e0e0" stroke="#999999" points="275,-185 232,-185 232,-165.75 275,-165.75 275,-185"/>
<text text-anchor="middle" x="253.5" y="-171.5" font-family="Helvetica,sans-Serif" font-size="10.00">vector</text>
</a>
</g>
</g>
<!-- Node1&#45;&gt;Node9 -->
<g id="edge8_Node000001_Node000009" class="edge">
<title>Node1&#45;&gt;Node9</title>
<g id="a_edge8_Node000001_Node000009"><a xlink:title=" ">
<path fill="none" stroke="#63b8ff" d="M229.38,-220.82C233.8,-212.68 238.87,-203.33 243.22,-195.32"/>
<polygon fill="#63b8ff" stroke="#63b8ff" points="246.16,-197.23 247.86,-186.78 240.01,-193.9 246.16,-197.23"/>
</a>
</g>
</g>
<!-- Node10 -->
<g id="Node000010" class="node">
<title>Node10</title>
<g id="a_Node000010"><a xlink:title=" ">
<polygon fill="#e0e0e0" stroke="#999999" points="333.5,-185 293.5,-185 293.5,-165.75 333.5,-165.75 333.5,-185"/>
<text text-anchor="middle" x="313.5" y="-171.5" font-family="Helvetica,sans-Serif" font-size="10.00">stack</text>
</a>
</g>
</g>
<!-- Node1&#45;&gt;Node10 -->
<g id="edge9_Node000001_Node000010" class="edge">
<title>Node1&#45;&gt;Node10</title>
<g id="a_edge9_Node000001_Node000010"><a xlink:title=" ">
<path fill="none" stroke="#63b8ff" d="M248.3,-220.64C262.04,-211.32 278.08,-200.42 290.82,-191.77"/>
<polygon fill="#63b8ff" stroke="#63b8ff" points="292.66,-194.76 298.96,-186.24 288.72,-188.97 292.66,-194.76"/>
</a>
</g>
</g>
<!-- Node3 -->
<g id="Node000003" class="node">
<title>Node3</title>
<g id="a_Node000003"><a xlink:href="_macros_8h.html" target="_top" xlink:title=" ">
<polygon fill="white" stroke="#666666" points="137.75,-129.75 81.25,-129.75 81.25,-110.5 137.75,-110.5 137.75,-129.75"/>
<text text-anchor="middle" x="109.5" y="-116.25" font-family="Helvetica,sans-Serif" font-size="10.00">Macros.h</text>
</a>
</g>
</g>
<!-- Node2&#45;&gt;Node3 -->
<g id="edge2_Node000002_Node000003" class="edge">
<title>Node2&#45;&gt;Node3</title>
<g id="a_edge2_Node000002_Node000003"><a xlink:title=" ">
<path fill="none" stroke="#63b8ff" d="M109.5,-165.58C109.5,-159.07 109.5,-149.92 109.5,-141.62"/>
<polygon fill="#63b8ff" stroke="#63b8ff" points="113,-141.62 109.5,-131.62 106,-141.62 113,-141.62"/>
</a>
</g>
</g>
<!-- Node4 -->
<g id="Node000004" class="node">
<title>Node4</title>
<g id="a_Node000004"><a xlink:href="_types_8h.html" target="_top" xlink:title=" ">
<polygon fill="white" stroke="#666666" points="134.75,-74.5 84.25,-74.5 84.25,-55.25 134.75,-55.25 134.75,-74.5"/>
<text text-anchor="middle" x="109.5" y="-61" font-family="Helvetica,sans-Serif" font-size="10.00">Types.h</text>
</a>
</g>
</g>
<!-- Node3&#45;&gt;Node4 -->
<g id="edge3_Node000003_Node000004" class="edge">
<title>Node3&#45;&gt;Node4</title>
<g id="a_edge3_Node000003_Node000004"><a xlink:title=" ">
<path fill="none" stroke="#63b8ff" d="M109.5,-110.33C109.5,-103.82 109.5,-94.67 109.5,-86.37"/>
<polygon fill="#63b8ff" stroke="#63b8ff" points="113,-86.37 109.5,-76.37 106,-86.37 113,-86.37"/>
</a>
</g>
</g>
<!-- Node5 -->
<g id="Node000005" class="node">
<title>Node5</title>
<g id="a_Node000005"><a xlink:title=" ">
<polygon fill="#e0e0e0" stroke="#999999" points="67,-19.25 0,-19.25 0,0 67,0 67,-19.25"/>
<text text-anchor="middle" x="33.5" y="-5.75" font-family="Helvetica,sans-Serif" font-size="10.00">sys/types.h</text>
</a>
</g>
</g>
<!-- Node4&#45;&gt;Node5 -->
<g id="edge4_Node000004_Node000005" class="edge">
<title>Node4&#45;&gt;Node5</title>
<g id="a_edge4_Node000004_Node000005"><a xlink:title=" ">
<path fill="none" stroke="#63b8ff" d="M96.61,-54.84C85.47,-47.04 69.13,-35.59 55.86,-26.29"/>
<polygon fill="#63b8ff" stroke="#63b8ff" points="57.89,-23.44 47.7,-20.57 53.88,-29.18 57.89,-23.44"/>
</a>
</g>
</g>
<!-- Node6 -->
<g id="Node000006" class="node">
<title>Node6</title>
<g id="a_Node000006"><a xlink:title=" ">
<polygon fill="#e0e0e0" stroke="#999999" points="133.62,-19.25 85.38,-19.25 85.38,0 133.62,0 133.62,-19.25"/>
<text text-anchor="middle" x="109.5" y="-5.75" font-family="Helvetica,sans-Serif" font-size="10.00">stdint.h</text>
</a>
</g>
</g>
<!-- Node4&#45;&gt;Node6 -->
<g id="edge5_Node000004_Node000006" class="edge">
<title>Node4&#45;&gt;Node6</title>
<g id="a_edge5_Node000004_Node000006"><a xlink:title=" ">
<path fill="none" stroke="#63b8ff" d="M109.5,-55.08C109.5,-48.57 109.5,-39.42 109.5,-31.12"/>
<polygon fill="#63b8ff" stroke="#63b8ff" points="113,-31.12 109.5,-21.12 106,-31.12 113,-31.12"/>
</a>
</g>
</g>
<!-- Node7 -->
<g id="Node000007" class="node">
<title>Node7</title>
<g id="a_Node000007"><a xlink:title=" ">
<polygon fill="#e0e0e0" stroke="#999999" points="207.38,-19.25 151.62,-19.25 151.62,0 207.38,0 207.38,-19.25"/>
<text text-anchor="middle" x="179.5" y="-5.75" font-family="Helvetica,sans-Serif" font-size="10.00">stdbool.h</text>
</a>
</g>
</g>
<!-- Node4&#45;&gt;Node7 -->
<g id="edge6_Node000004_Node000007" class="edge">
<title>Node4&#45;&gt;Node7</title>
<g id="a_edge6_Node000004_Node000007"><a xlink:title=" ">
<path fill="none" stroke="#63b8ff" d="M121.37,-54.84C131.59,-47.07 146.57,-35.67 158.76,-26.4"/>
<polygon fill="#63b8ff" stroke="#63b8ff" points="160.76,-29.28 166.6,-20.44 156.52,-23.71 160.76,-29.28"/>
</a>
</g>
</g>
</g>
</svg>
