<?xml version="1.0" encoding="UTF-8" standalone="no"?>
<!DOCTYPE svg PUBLIC "-//W3C//DTD SVG 1.1//EN"
 "http://www.w3.org/Graphics/SVG/1.1/DTD/svg11.dtd">
<!-- Generated by graphviz version 10.0.1 (20240210.2158)
 -->
<!-- Title: /Users/hoff/Retro/virtualc64/Emulator/Base/Configurable.h Pages: 1 -->
<svg width="1054pt" height="481pt"
 viewBox="0.00 0.00 1054.25 480.50" xmlns="http://www.w3.org/2000/svg" xmlns:xlink="http://www.w3.org/1999/xlink">
<g id="graph0" class="graph" transform="scale(1 1) rotate(0) translate(4 476.5)">
<title>/Users/hoff/Retro/virtualc64/Emulator/Base/Configurable.h</title>
<!-- Node1 -->
<g id="Node000001" class="node">
<title>Node1</title>
<g id="a_Node000001"><a xlink:title=" ">
<polygon fill="#999999" stroke="#666666" points="211.25,-472.5 61.75,-472.5 61.75,-442 211.25,-442 211.25,-472.5"/>
<text text-anchor="start" x="69.75" y="-459" font-family="Helvetica,sans-Serif" font-size="10.00">/Users/hoff/Retro/virtualc64</text>
<text text-anchor="middle" x="136.5" y="-447.75" font-family="Helvetica,sans-Serif" font-size="10.00">/Emulator/Base/Configurable.h</text>
</a>
</g>
</g>
<!-- Node2 -->
<g id="Node000002" class="node">
<title>Node2</title>
<g id="a_Node000002"><a xlink:href="_option_types_8h.html" target="_top" xlink:title=" ">
<polygon fill="white" stroke="#666666" points="79,-350.75 0,-350.75 0,-331.5 79,-331.5 79,-350.75"/>
<text text-anchor="middle" x="39.5" y="-337.25" font-family="Helvetica,sans-Serif" font-size="10.00">OptionTypes.h</text>
</a>
</g>
</g>
<!-- Node1&#45;&gt;Node2 -->
<g id="edge1_Node000001_Node000002" class="edge">
<title>Node1&#45;&gt;Node2</title>
<g id="a_edge1_Node000001_Node000002"><a xlink:title=" ">
<path fill="none" stroke="#63b8ff" d="M124.06,-441.76C115.46,-431.73 103.77,-418.07 93.5,-406 80.31,-390.49 65.36,-372.8 54.54,-359.98"/>
<polygon fill="#63b8ff" stroke="#63b8ff" points="57.27,-357.78 48.15,-352.39 51.92,-362.29 57.27,-357.78"/>
</a>
</g>
</g>
<!-- Node9 -->
<g id="Node000009" class="node">
<title>Node9</title>
<g id="a_Node000009"><a xlink:href="_reflection_8h.html" target="_top" xlink:title=" ">
<polygon fill="white" stroke="#666666" points="176.75,-185 108.25,-185 108.25,-165.75 176.75,-165.75 176.75,-185"/>
<text text-anchor="middle" x="142.5" y="-171.5" font-family="Helvetica,sans-Serif" font-size="10.00">Reflection.h</text>
</a>
</g>
</g>
<!-- Node1&#45;&gt;Node9 -->
<g id="edge9_Node000001_Node000009" class="edge">
<title>Node1&#45;&gt;Node9</title>
<g id="a_edge9_Node000001_Node000009"><a xlink:title=" ">
<path fill="none" stroke="#63b8ff" d="M130.35,-441.78C121.84,-420.4 107.5,-378.92 107.5,-342.12 107.5,-342.12 107.5,-342.12 107.5,-284.88 107.5,-252.31 121.96,-216.79 132.29,-195.56"/>
<polygon fill="#63b8ff" stroke="#63b8ff" points="135.38,-197.19 136.8,-186.7 129.14,-194.02 135.38,-197.19"/>
</a>
</g>
</g>
<!-- Node10 -->
<g id="Node000010" class="node">
<title>Node10</title>
<g id="a_Node000010"><a xlink:href="_defaults_8h.html" target="_top" xlink:title=" ">
<polygon fill="white" stroke="#666666" points="230,-406 169,-406 169,-386.75 230,-386.75 230,-406"/>
<text text-anchor="middle" x="199.5" y="-392.5" font-family="Helvetica,sans-Serif" font-size="10.00">Defaults.h</text>
</a>
</g>
</g>
<!-- Node1&#45;&gt;Node10 -->
<g id="edge10_Node000001_Node000010" class="edge">
<title>Node1&#45;&gt;Node10</title>
<g id="a_edge10_Node000001_Node000010"><a xlink:title=" ">
<path fill="none" stroke="#63b8ff" d="M152.07,-441.7C161.02,-433.34 172.29,-422.8 181.6,-414.1"/>
<polygon fill="#63b8ff" stroke="#63b8ff" points="183.77,-416.87 188.68,-407.48 178.99,-411.76 183.77,-416.87"/>
</a>
</g>
</g>
<!-- Node32 -->
<g id="Node000032" class="node">
<title>Node32</title>
<g id="a_Node000032"><a xlink:title=" ">
<polygon fill="#e0e0e0" stroke="#999999" points="303.38,-406 247.62,-406 247.62,-386.75 303.38,-386.75 303.38,-406"/>
<text text-anchor="middle" x="275.5" y="-392.5" font-family="Helvetica,sans-Serif" font-size="10.00">algorithm</text>
</a>
</g>
</g>
<!-- Node1&#45;&gt;Node32 -->
<g id="edge41_Node000001_Node000032" class="edge">
<title>Node1&#45;&gt;Node32</title>
<g id="a_edge41_Node000001_Node000032"><a xlink:title=" ">
<path fill="none" stroke="#63b8ff" d="M171.22,-441.55C193.5,-432.1 222.22,-419.94 243.88,-410.77"/>
<polygon fill="#63b8ff" stroke="#63b8ff" points="244.95,-414.12 252.79,-406.99 242.22,-407.67 244.95,-414.12"/>
</a>
</g>
</g>
<!-- Node3 -->
<g id="Node000003" class="node">
<title>Node3</title>
<g id="a_Node000003"><a xlink:href="_aliases_8h.html" target="_top" xlink:title=" ">
<polygon fill="white" stroke="#666666" points="89.75,-185 33.25,-185 33.25,-165.75 89.75,-165.75 89.75,-185"/>
<text text-anchor="middle" x="61.5" y="-171.5" font-family="Helvetica,sans-Serif" font-size="10.00">Aliases.h</text>
</a>
</g>
</g>
<!-- Node2&#45;&gt;Node3 -->
<g id="edge2_Node000002_Node000003" class="edge">
<title>Node2&#45;&gt;Node3</title>
<g id="a_edge2_Node000002_Node000003"><a xlink:title=" ">
<path fill="none" stroke="#63b8ff" d="M40.7,-331.16C43.37,-311.31 49.97,-262.16 55.5,-221 56.58,-212.96 57.77,-204.11 58.8,-196.42"/>
<polygon fill="#63b8ff" stroke="#63b8ff" points="62.24,-197.14 60.1,-186.77 55.3,-196.21 62.24,-197.14"/>
</a>
</g>
</g>
<!-- Node2&#45;&gt;Node9 -->
<g id="edge8_Node000002_Node000009" class="edge">
<title>Node2&#45;&gt;Node9</title>
<g id="a_edge8_Node000002_Node000009"><a xlink:title=" ">
<path fill="none" stroke="#63b8ff" d="M43.02,-331.15C52.64,-306.8 79.61,-240.1 93.5,-221 101.22,-210.39 111.78,-200.38 121.12,-192.54"/>
<polygon fill="#63b8ff" stroke="#63b8ff" points="123.12,-195.42 128.72,-186.43 118.74,-189.97 123.12,-195.42"/>
</a>
</g>
</g>
<!-- Node4 -->
<g id="Node000004" class="node">
<title>Node4</title>
<g id="a_Node000004"><a xlink:href="_macros_8h.html" target="_top" xlink:title=" ">
<polygon fill="white" stroke="#666666" points="175.75,-129.75 119.25,-129.75 119.25,-110.5 175.75,-110.5 175.75,-129.75"/>
<text text-anchor="middle" x="147.5" y="-116.25" font-family="Helvetica,sans-Serif" font-size="10.00">Macros.h</text>
</a>
</g>
</g>
<!-- Node3&#45;&gt;Node4 -->
<g id="edge3_Node000003_Node000004" class="edge">
<title>Node3&#45;&gt;Node4</title>
<g id="a_edge3_Node000003_Node000004"><a xlink:title=" ">
<path fill="none" stroke="#63b8ff" d="M76.09,-165.34C88.94,-157.39 107.91,-145.64 123.07,-136.25"/>
<polygon fill="#63b8ff" stroke="#63b8ff" points="124.89,-139.24 131.55,-131 121.21,-133.29 124.89,-139.24"/>
</a>
</g>
</g>
<!-- Node5 -->
<g id="Node000005" class="node">
<title>Node5</title>
<g id="a_Node000005"><a xlink:href="_types_8h.html" target="_top" xlink:title=" ">
<polygon fill="white" stroke="#666666" points="418.75,-74.5 368.25,-74.5 368.25,-55.25 418.75,-55.25 418.75,-74.5"/>
<text text-anchor="middle" x="393.5" y="-61" font-family="Helvetica,sans-Serif" font-size="10.00">Types.h</text>
</a>
</g>
</g>
<!-- Node4&#45;&gt;Node5 -->
<g id="edge4_Node000004_Node000005" class="edge">
<title>Node4&#45;&gt;Node5</title>
<g id="a_edge4_Node000004_Node000005"><a xlink:title=" ">
<path fill="none" stroke="#63b8ff" d="M176.2,-112.91C221.02,-103.21 307.6,-84.47 356.86,-73.81"/>
<polygon fill="#63b8ff" stroke="#63b8ff" points="357.44,-77.26 366.47,-71.73 355.96,-70.42 357.44,-77.26"/>
</a>
</g>
</g>
<!-- Node6 -->
<g id="Node000006" class="node">
<title>Node6</title>
<g id="a_Node000006"><a xlink:title=" ">
<polygon fill="#e0e0e0" stroke="#999999" points="351,-19.25 284,-19.25 284,0 351,0 351,-19.25"/>
<text text-anchor="middle" x="317.5" y="-5.75" font-family="Helvetica,sans-Serif" font-size="10.00">sys/types.h</text>
</a>
</g>
</g>
<!-- Node5&#45;&gt;Node6 -->
<g id="edge5_Node000005_Node000006" class="edge">
<title>Node5&#45;&gt;Node6</title>
<g id="a_edge5_Node000005_Node000006"><a xlink:title=" ">
<path fill="none" stroke="#63b8ff" d="M380.61,-54.84C369.47,-47.04 353.13,-35.59 339.86,-26.29"/>
<polygon fill="#63b8ff" stroke="#63b8ff" points="341.89,-23.44 331.7,-20.57 337.88,-29.18 341.89,-23.44"/>
</a>
</g>
</g>
<!-- Node7 -->
<g id="Node000007" class="node">
<title>Node7</title>
<g id="a_Node000007"><a xlink:title=" ">
<polygon fill="#e0e0e0" stroke="#999999" points="417.62,-19.25 369.38,-19.25 369.38,0 417.62,0 417.62,-19.25"/>
<text text-anchor="middle" x="393.5" y="-5.75" font-family="Helvetica,sans-Serif" font-size="10.00">stdint.h</text>
</a>
</g>
</g>
<!-- Node5&#45;&gt;Node7 -->
<g id="edge6_Node000005_Node000007" class="edge">
<title>Node5&#45;&gt;Node7</title>
<g id="a_edge6_Node000005_Node000007"><a xlink:title=" ">
<path fill="none" stroke="#63b8ff" d="M393.5,-55.08C393.5,-48.57 393.5,-39.42 393.5,-31.12"/>
<polygon fill="#63b8ff" stroke="#63b8ff" points="397,-31.12 393.5,-21.12 390,-31.12 397,-31.12"/>
</a>
</g>
</g>
<!-- Node8 -->
<g id="Node000008" class="node">
<title>Node8</title>
<g id="a_Node000008"><a xlink:title=" ">
<polygon fill="#e0e0e0" stroke="#999999" points="491.38,-19.25 435.62,-19.25 435.62,0 491.38,0 491.38,-19.25"/>
<text text-anchor="middle" x="463.5" y="-5.75" font-family="Helvetica,sans-Serif" font-size="10.00">stdbool.h</text>
</a>
</g>
</g>
<!-- Node5&#45;&gt;Node8 -->
<g id="edge7_Node000005_Node000008" class="edge">
<title>Node5&#45;&gt;Node8</title>
<g id="a_edge7_Node000005_Node000008"><a xlink:title=" ">
<path fill="none" stroke="#63b8ff" d="M405.37,-54.84C415.59,-47.07 430.57,-35.67 442.76,-26.4"/>
<polygon fill="#63b8ff" stroke="#63b8ff" points="444.76,-29.28 450.6,-20.44 440.52,-23.71 444.76,-29.28"/>
</a>
</g>
</g>
<!-- Node10&#45;&gt;Node2 -->
<g id="edge21_Node000010_Node000002" class="edge">
<title>Node10&#45;&gt;Node2</title>
<g id="a_edge21_Node000010_Node000002"><a xlink:title=" ">
<path fill="none" stroke="#63b8ff" d="M172.36,-386.34C146.27,-377.66 106.6,-364.46 77.4,-354.74"/>
<polygon fill="#63b8ff" stroke="#63b8ff" points="78.8,-351.52 68.21,-351.68 76.59,-358.16 78.8,-351.52"/>
</a>
</g>
</g>
<!-- Node11 -->
<g id="Node000011" class="node">
<title>Node11</title>
<g id="a_Node000011"><a xlink:href="_core_object_8h.html" target="_top" xlink:title=" ">
<polygon fill="white" stroke="#666666" points="245.38,-350.75 171.62,-350.75 171.62,-331.5 245.38,-331.5 245.38,-350.75"/>
<text text-anchor="middle" x="208.5" y="-337.25" font-family="Helvetica,sans-Serif" font-size="10.00">CoreObject.h</text>
</a>
</g>
</g>
<!-- Node10&#45;&gt;Node11 -->
<g id="edge11_Node000010_Node000011" class="edge">
<title>Node10&#45;&gt;Node11</title>
<g id="a_edge11_Node000010_Node000011"><a xlink:title=" ">
<path fill="none" stroke="#63b8ff" d="M200.99,-386.58C202.1,-379.99 203.67,-370.71 205.09,-362.32"/>
<polygon fill="#63b8ff" stroke="#63b8ff" points="208.51,-363.05 206.73,-352.6 201.61,-361.88 208.51,-363.05"/>
</a>
</g>
</g>
<!-- Node18 -->
<g id="Node000018" class="node">
<title>Node18</title>
<g id="a_Node000018"><a xlink:href="_concurrency_8h.html" target="_top" xlink:title=" ">
<polygon fill="white" stroke="#666666" points="465.62,-350.75 387.38,-350.75 387.38,-331.5 465.62,-331.5 465.62,-350.75"/>
<text text-anchor="middle" x="426.5" y="-337.25" font-family="Helvetica,sans-Serif" font-size="10.00">Concurrency.h</text>
</a>
</g>
</g>
<!-- Node10&#45;&gt;Node18 -->
<g id="edge22_Node000010_Node000018" class="edge">
<title>Node10&#45;&gt;Node18</title>
<g id="a_edge22_Node000010_Node000018"><a xlink:title=" ">
<path fill="none" stroke="#63b8ff" d="M230.11,-388.19C267.63,-379.39 331.72,-364.36 376.44,-353.87"/>
<polygon fill="#63b8ff" stroke="#63b8ff" points="377.24,-357.28 386.18,-351.58 375.64,-350.46 377.24,-357.28"/>
</a>
</g>
</g>
<!-- Node23 -->
<g id="Node000023" class="node">
<title>Node23</title>
<g id="a_Node000023"><a xlink:href="_i_o_utils_8h.html" target="_top" xlink:title=" ">
<polygon fill="white" stroke="#666666" points="693,-295.5 638,-295.5 638,-276.25 693,-276.25 693,-295.5"/>
<text text-anchor="middle" x="665.5" y="-282" font-family="Helvetica,sans-Serif" font-size="10.00">IOUtils.h</text>
</a>
</g>
</g>
<!-- Node10&#45;&gt;Node23 -->
<g id="edge28_Node000010_Node000023" class="edge">
<title>Node10&#45;&gt;Node23</title>
<g id="a_edge28_Node000010_Node000023"><a xlink:title=" ">
<path fill="none" stroke="#63b8ff" d="M230.12,-388.4C232.95,-387.82 235.77,-387.26 238.5,-386.75 342.8,-367.28 371.37,-375.67 474.5,-350.75 530.95,-337.11 594.56,-314.28 632.27,-299.93"/>
<polygon fill="#63b8ff" stroke="#63b8ff" points="633.15,-303.34 641.23,-296.48 630.64,-296.8 633.15,-303.34"/>
</a>
</g>
</g>
<!-- Node12 -->
<g id="Node000012" class="node">
<title>Node12</title>
<g id="a_Node000012"><a xlink:href="_error_8h.html" target="_top" xlink:title=" ">
<polygon fill="white" stroke="#666666" points="230.75,-295.5 186.25,-295.5 186.25,-276.25 230.75,-276.25 230.75,-295.5"/>
<text text-anchor="middle" x="208.5" y="-282" font-family="Helvetica,sans-Serif" font-size="10.00">Error.h</text>
</a>
</g>
</g>
<!-- Node11&#45;&gt;Node12 -->
<g id="edge12_Node000011_Node000012" class="edge">
<title>Node11&#45;&gt;Node12</title>
<g id="a_edge12_Node000011_Node000012"><a xlink:title=" ">
<path fill="none" stroke="#63b8ff" d="M208.5,-331.33C208.5,-324.82 208.5,-315.67 208.5,-307.37"/>
<polygon fill="#63b8ff" stroke="#63b8ff" points="212,-307.37 208.5,-297.37 205,-307.37 212,-307.37"/>
</a>
</g>
</g>
<!-- Node16 -->
<g id="Node000016" class="node">
<title>Node16</title>
<g id="a_Node000016"><a xlink:href="_inspectable_8h.html" target="_top" xlink:title=" ">
<polygon fill="white" stroke="#666666" points="339.75,-295.5 265.25,-295.5 265.25,-276.25 339.75,-276.25 339.75,-295.5"/>
<text text-anchor="middle" x="302.5" y="-282" font-family="Helvetica,sans-Serif" font-size="10.00">Inspectable.h</text>
</a>
</g>
</g>
<!-- Node11&#45;&gt;Node16 -->
<g id="edge19_Node000011_Node000016" class="edge">
<title>Node11&#45;&gt;Node16</title>
<g id="a_edge19_Node000011_Node000016"><a xlink:title=" ">
<path fill="none" stroke="#63b8ff" d="M224.45,-331.09C238.76,-322.98 260.03,-310.93 276.75,-301.46"/>
<polygon fill="#63b8ff" stroke="#63b8ff" points="278.18,-304.67 285.16,-296.7 274.73,-298.58 278.18,-304.67"/>
</a>
</g>
</g>
<!-- Node13 -->
<g id="Node000013" class="node">
<title>Node13</title>
<g id="a_Node000013"><a xlink:href="_error_types_8h.html" target="_top" xlink:title=" ">
<polygon fill="white" stroke="#666666" points="207.25,-240.25 135.75,-240.25 135.75,-221 207.25,-221 207.25,-240.25"/>
<text text-anchor="middle" x="171.5" y="-226.75" font-family="Helvetica,sans-Serif" font-size="10.00">ErrorTypes.h</text>
</a>
</g>
</g>
<!-- Node12&#45;&gt;Node13 -->
<g id="edge13_Node000012_Node000013" class="edge">
<title>Node12&#45;&gt;Node13</title>
<g id="a_edge13_Node000012_Node000013"><a xlink:title=" ">
<path fill="none" stroke="#63b8ff" d="M202.39,-276.08C197.44,-268.96 190.3,-258.68 184.13,-249.8"/>
<polygon fill="#63b8ff" stroke="#63b8ff" points="187.19,-248.07 178.61,-241.85 181.44,-252.06 187.19,-248.07"/>
</a>
</g>
</g>
<!-- Node14 -->
<g id="Node000014" class="node">
<title>Node14</title>
<g id="a_Node000014"><a xlink:href="_exception_8h.html" target="_top" xlink:title=" ">
<polygon fill="white" stroke="#666666" points="293.38,-240.25 225.62,-240.25 225.62,-221 293.38,-221 293.38,-240.25"/>
<text text-anchor="middle" x="259.5" y="-226.75" font-family="Helvetica,sans-Serif" font-size="10.00">Exception.h</text>
</a>
</g>
</g>
<!-- Node12&#45;&gt;Node14 -->
<g id="edge16_Node000012_Node000014" class="edge">
<title>Node12&#45;&gt;Node14</title>
<g id="a_edge16_Node000012_Node000014"><a xlink:title=" ">
<path fill="none" stroke="#63b8ff" d="M216.92,-276.08C224.04,-268.65 234.44,-257.79 243.19,-248.66"/>
<polygon fill="#63b8ff" stroke="#63b8ff" points="245.46,-251.35 249.85,-241.7 240.4,-246.5 245.46,-251.35"/>
</a>
</g>
</g>
<!-- Node13&#45;&gt;Node3 -->
<g id="edge14_Node000013_Node000003" class="edge">
<title>Node13&#45;&gt;Node3</title>
<g id="a_edge14_Node000013_Node000003"><a xlink:title=" ">
<path fill="none" stroke="#63b8ff" d="M152.84,-220.59C135.77,-212.33 110.26,-199.98 90.53,-190.43"/>
<polygon fill="#63b8ff" stroke="#63b8ff" points="92.14,-187.32 81.61,-186.11 89.09,-193.62 92.14,-187.32"/>
</a>
</g>
</g>
<!-- Node13&#45;&gt;Node9 -->
<g id="edge15_Node000013_Node000009" class="edge">
<title>Node13&#45;&gt;Node9</title>
<g id="a_edge15_Node000013_Node000009"><a xlink:title=" ">
<path fill="none" stroke="#63b8ff" d="M166.71,-220.83C162.96,-213.94 157.59,-204.09 152.87,-195.41"/>
<polygon fill="#63b8ff" stroke="#63b8ff" points="155.97,-193.8 148.12,-186.69 149.83,-197.14 155.97,-193.8"/>
</a>
</g>
</g>
<!-- Node14&#45;&gt;Node5 -->
<g id="edge17_Node000014_Node000005" class="edge">
<title>Node14&#45;&gt;Node5</title>
<g id="a_edge17_Node000014_Node000005"><a xlink:title=" ">
<path fill="none" stroke="#63b8ff" d="M260.55,-220.71C262.41,-207.72 267.22,-183.26 278.5,-165.75 302.02,-129.25 342.68,-98.48 368.82,-81.11"/>
<polygon fill="#63b8ff" stroke="#63b8ff" points="370.62,-84.11 377.11,-75.74 366.82,-78.24 370.62,-84.11"/>
</a>
</g>
</g>
<!-- Node15 -->
<g id="Node000015" class="node">
<title>Node15</title>
<g id="a_Node000015"><a xlink:title=" ">
<polygon fill="#e0e0e0" stroke="#999999" points="345.5,-185 287.5,-185 287.5,-165.75 345.5,-165.75 345.5,-185"/>
<text text-anchor="middle" x="316.5" y="-171.5" font-family="Helvetica,sans-Serif" font-size="10.00">exception</text>
</a>
</g>
</g>
<!-- Node14&#45;&gt;Node15 -->
<g id="edge18_Node000014_Node000015" class="edge">
<title>Node14&#45;&gt;Node15</title>
<g id="a_edge18_Node000014_Node000015"><a xlink:title=" ">
<path fill="none" stroke="#63b8ff" d="M269.17,-220.59C277.24,-213.05 288.97,-202.1 298.72,-192.98"/>
<polygon fill="#63b8ff" stroke="#63b8ff" points="300.95,-195.69 305.87,-186.31 296.17,-190.58 300.95,-195.69"/>
</a>
</g>
</g>
<!-- Node17 -->
<g id="Node000017" class="node">
<title>Node17</title>
<g id="a_Node000017"><a xlink:title=" ">
<polygon fill="#e0e0e0" stroke="#999999" points="365.25,-240.25 311.75,-240.25 311.75,-221 365.25,-221 365.25,-240.25"/>
<text text-anchor="middle" x="338.5" y="-226.75" font-family="Helvetica,sans-Serif" font-size="10.00">iostream</text>
</a>
</g>
</g>
<!-- Node16&#45;&gt;Node17 -->
<g id="edge20_Node000016_Node000017" class="edge">
<title>Node16&#45;&gt;Node17</title>
<g id="a_edge20_Node000016_Node000017"><a xlink:title=" ">
<path fill="none" stroke="#63b8ff" d="M308.44,-276.08C313.21,-269.03 320.06,-258.9 326.02,-250.08"/>
<polygon fill="#63b8ff" stroke="#63b8ff" points="328.88,-252.11 331.58,-241.86 323.08,-248.19 328.88,-252.11"/>
</a>
</g>
</g>
<!-- Node19 -->
<g id="Node000019" class="node">
<title>Node19</title>
<g id="a_Node000019"><a xlink:href="_chrono_8h.html" target="_top" xlink:title=" ">
<polygon fill="white" stroke="#666666" points="421.38,-295.5 365.62,-295.5 365.62,-276.25 421.38,-276.25 421.38,-295.5"/>
<text text-anchor="middle" x="393.5" y="-282" font-family="Helvetica,sans-Serif" font-size="10.00">Chrono.h</text>
</a>
</g>
</g>
<!-- Node18&#45;&gt;Node19 -->
<g id="edge23_Node000018_Node000019" class="edge">
<title>Node18&#45;&gt;Node19</title>
<g id="a_edge23_Node000018_Node000019"><a xlink:title=" ">
<path fill="none" stroke="#63b8ff" d="M421.05,-331.33C416.73,-324.36 410.54,-314.37 405.12,-305.62"/>
<polygon fill="#63b8ff" stroke="#63b8ff" points="408.11,-303.8 399.86,-297.15 402.16,-307.49 408.11,-303.8"/>
</a>
</g>
</g>
<!-- Node21 -->
<g id="Node000021" class="node">
<title>Node21</title>
<g id="a_Node000021"><a xlink:title=" ">
<polygon fill="#e0e0e0" stroke="#999999" points="482,-295.5 439,-295.5 439,-276.25 482,-276.25 482,-295.5"/>
<text text-anchor="middle" x="460.5" y="-282" font-family="Helvetica,sans-Serif" font-size="10.00">thread</text>
</a>
</g>
</g>
<!-- Node18&#45;&gt;Node21 -->
<g id="edge26_Node000018_Node000021" class="edge">
<title>Node18&#45;&gt;Node21</title>
<g id="a_edge26_Node000018_Node000021"><a xlink:title=" ">
<path fill="none" stroke="#63b8ff" d="M432.11,-331.33C436.62,-324.28 443.09,-314.15 448.71,-305.33"/>
<polygon fill="#63b8ff" stroke="#63b8ff" points="451.52,-307.45 453.95,-297.13 445.62,-303.68 451.52,-307.45"/>
</a>
</g>
</g>
<!-- Node22 -->
<g id="Node000022" class="node">
<title>Node22</title>
<g id="a_Node000022"><a xlink:title=" ">
<polygon fill="#e0e0e0" stroke="#999999" points="540.88,-295.5 500.12,-295.5 500.12,-276.25 540.88,-276.25 540.88,-295.5"/>
<text text-anchor="middle" x="520.5" y="-282" font-family="Helvetica,sans-Serif" font-size="10.00">future</text>
</a>
</g>
</g>
<!-- Node18&#45;&gt;Node22 -->
<g id="edge27_Node000018_Node000022" class="edge">
<title>Node18&#45;&gt;Node22</title>
<g id="a_edge27_Node000018_Node000022"><a xlink:title=" ">
<path fill="none" stroke="#63b8ff" d="M442.45,-331.09C456.76,-322.98 478.03,-310.93 494.75,-301.46"/>
<polygon fill="#63b8ff" stroke="#63b8ff" points="496.18,-304.67 503.16,-296.7 492.73,-298.58 496.18,-304.67"/>
</a>
</g>
</g>
<!-- Node19&#45;&gt;Node5 -->
<g id="edge24_Node000019_Node000005" class="edge">
<title>Node19&#45;&gt;Node5</title>
<g id="a_edge24_Node000019_Node000005"><a xlink:title=" ">
<path fill="none" stroke="#63b8ff" d="M393.5,-276.02C393.5,-243.76 393.5,-132.01 393.5,-85.96"/>
<polygon fill="#63b8ff" stroke="#63b8ff" points="397,-86.12 393.5,-76.12 390,-86.12 397,-86.12"/>
</a>
</g>
</g>
<!-- Node20 -->
<g id="Node000020" class="node">
<title>Node20</title>
<g id="a_Node000020"><a xlink:title=" ">
<polygon fill="#e0e0e0" stroke="#999999" points="461.5,-240.25 421.5,-240.25 421.5,-221 461.5,-221 461.5,-240.25"/>
<text text-anchor="middle" x="441.5" y="-226.75" font-family="Helvetica,sans-Serif" font-size="10.00">ctime</text>
</a>
</g>
</g>
<!-- Node19&#45;&gt;Node20 -->
<g id="edge25_Node000019_Node000020" class="edge">
<title>Node19&#45;&gt;Node20</title>
<g id="a_edge25_Node000019_Node000020"><a xlink:title=" ">
<path fill="none" stroke="#63b8ff" d="M401.43,-276.08C408.06,-268.73 417.72,-258.01 425.89,-248.94"/>
<polygon fill="#63b8ff" stroke="#63b8ff" points="428.29,-251.5 432.39,-241.73 423.09,-246.82 428.29,-251.5"/>
</a>
</g>
</g>
<!-- Node23&#45;&gt;Node5 -->
<g id="edge29_Node000023_Node000005" class="edge">
<title>Node23&#45;&gt;Node5</title>
<g id="a_edge29_Node000023_Node000005"><a xlink:title=" ">
<path fill="none" stroke="#63b8ff" d="M637.7,-282.82C604.17,-279.12 547.47,-268.81 508.5,-240.25 452.26,-199.04 415.63,-121.37 400.88,-85.26"/>
<polygon fill="#63b8ff" stroke="#63b8ff" points="404.2,-84.14 397.27,-76.12 397.69,-86.71 404.2,-84.14"/>
</a>
</g>
</g>
<!-- Node23&#45;&gt;Node17 -->
<g id="edge37_Node000023_Node000017" class="edge">
<title>Node23&#45;&gt;Node17</title>
<g id="a_edge37_Node000023_Node000017"><a xlink:title=" ">
<path fill="none" stroke="#63b8ff" d="M637.62,-280.33C579.05,-270.8 443.14,-248.67 376.59,-237.83"/>
<polygon fill="#63b8ff" stroke="#63b8ff" points="377.32,-234.4 366.88,-236.25 376.19,-241.31 377.32,-234.4"/>
</a>
</g>
</g>
<!-- Node24 -->
<g id="Node000024" class="node">
<title>Node24</title>
<g id="a_Node000024"><a xlink:href="_string_utils_8h.html" target="_top" xlink:title=" ">
<polygon fill="white" stroke="#666666" points="587.5,-240.25 517.5,-240.25 517.5,-221 587.5,-221 587.5,-240.25"/>
<text text-anchor="middle" x="552.5" y="-226.75" font-family="Helvetica,sans-Serif" font-size="10.00">StringUtils.h</text>
</a>
</g>
</g>
<!-- Node23&#45;&gt;Node24 -->
<g id="edge30_Node000023_Node000024" class="edge">
<title>Node23&#45;&gt;Node24</title>
<g id="a_edge30_Node000023_Node000024"><a xlink:title=" ">
<path fill="none" stroke="#63b8ff" d="M646.33,-275.84C628.72,-267.54 602.34,-255.11 582.04,-245.54"/>
<polygon fill="#63b8ff" stroke="#63b8ff" points="583.67,-242.44 573.13,-241.35 580.69,-248.78 583.67,-242.44"/>
</a>
</g>
</g>
<!-- Node25 -->
<g id="Node000025" class="node">
<title>Node25</title>
<g id="a_Node000025"><a xlink:title=" ">
<polygon fill="#e0e0e0" stroke="#999999" points="627,-185 584,-185 584,-165.75 627,-165.75 627,-185"/>
<text text-anchor="middle" x="605.5" y="-171.5" font-family="Helvetica,sans-Serif" font-size="10.00">vector</text>
</a>
</g>
</g>
<!-- Node23&#45;&gt;Node25 -->
<g id="edge40_Node000023_Node000025" class="edge">
<title>Node23&#45;&gt;Node25</title>
<g id="a_edge40_Node000023_Node000025"><a xlink:title=" ">
<path fill="none" stroke="#63b8ff" d="M658.87,-275.91C652.49,-267.07 642.77,-253.08 635.5,-240.25 627.27,-225.72 619.3,-208.56 613.65,-195.69"/>
<polygon fill="#63b8ff" stroke="#63b8ff" points="616.93,-194.46 609.76,-186.66 610.5,-197.23 616.93,-194.46"/>
</a>
</g>
</g>
<!-- Node26 -->
<g id="Node000026" class="node">
<title>Node26</title>
<g id="a_Node000026"><a xlink:title=" ">
<polygon fill="#e0e0e0" stroke="#999999" points="687,-240.25 644,-240.25 644,-221 687,-221 687,-240.25"/>
<text text-anchor="middle" x="665.5" y="-226.75" font-family="Helvetica,sans-Serif" font-size="10.00">fcntl.h</text>
</a>
</g>
</g>
<!-- Node23&#45;&gt;Node26 -->
<g id="edge33_Node000023_Node000026" class="edge">
<title>Node23&#45;&gt;Node26</title>
<g id="a_edge33_Node000023_Node000026"><a xlink:title=" ">
<path fill="none" stroke="#63b8ff" d="M665.5,-276.08C665.5,-269.57 665.5,-260.42 665.5,-252.12"/>
<polygon fill="#63b8ff" stroke="#63b8ff" points="669,-252.12 665.5,-242.12 662,-252.12 669,-252.12"/>
</a>
</g>
</g>
<!-- Node27 -->
<g id="Node000027" class="node">
<title>Node27</title>
<g id="a_Node000027"><a xlink:title=" ">
<polygon fill="#e0e0e0" stroke="#999999" points="766,-240.25 705,-240.25 705,-221 766,-221 766,-240.25"/>
<text text-anchor="middle" x="735.5" y="-226.75" font-family="Helvetica,sans-Serif" font-size="10.00">filesystem</text>
</a>
</g>
</g>
<!-- Node23&#45;&gt;Node27 -->
<g id="edge34_Node000023_Node000027" class="edge">
<title>Node23&#45;&gt;Node27</title>
<g id="a_edge34_Node000023_Node000027"><a xlink:title=" ">
<path fill="none" stroke="#63b8ff" d="M677.37,-275.84C687.59,-268.07 702.57,-256.67 714.76,-247.4"/>
<polygon fill="#63b8ff" stroke="#63b8ff" points="716.76,-250.28 722.6,-241.44 712.52,-244.71 716.76,-250.28"/>
</a>
</g>
</g>
<!-- Node28 -->
<g id="Node000028" class="node">
<title>Node28</title>
<g id="a_Node000028"><a xlink:title=" ">
<polygon fill="#e0e0e0" stroke="#999999" points="833,-240.25 784,-240.25 784,-221 833,-221 833,-240.25"/>
<text text-anchor="middle" x="808.5" y="-226.75" font-family="Helvetica,sans-Serif" font-size="10.00">fstream</text>
</a>
</g>
</g>
<!-- Node23&#45;&gt;Node28 -->
<g id="edge35_Node000023_Node000028" class="edge">
<title>Node23&#45;&gt;Node28</title>
<g id="a_edge35_Node000023_Node000028"><a xlink:title=" ">
<path fill="none" stroke="#63b8ff" d="M689.76,-275.84C712.77,-267.27 747.59,-254.31 773.58,-244.63"/>
<polygon fill="#63b8ff" stroke="#63b8ff" points="774.55,-248 782.7,-241.23 772.11,-241.44 774.55,-248"/>
</a>
</g>
</g>
<!-- Node29 -->
<g id="Node000029" class="node">
<title>Node29</title>
<g id="a_Node000029"><a xlink:title=" ">
<polygon fill="#e0e0e0" stroke="#999999" points="899.62,-240.25 851.38,-240.25 851.38,-221 899.62,-221 899.62,-240.25"/>
<text text-anchor="middle" x="875.5" y="-226.75" font-family="Helvetica,sans-Serif" font-size="10.00">istream</text>
</a>
</g>
</g>
<!-- Node23&#45;&gt;Node29 -->
<g id="edge36_Node000023_Node000029" class="edge">
<title>Node23&#45;&gt;Node29</title>
<g id="a_edge36_Node000023_Node000029"><a xlink:title=" ">
<path fill="none" stroke="#63b8ff" d="M693.42,-277.92C726.2,-269.73 782.5,-255.61 839.89,-240.9"/>
<polygon fill="#63b8ff" stroke="#63b8ff" points="840.72,-244.31 849.53,-238.43 838.98,-237.53 840.72,-244.31"/>
</a>
</g>
</g>
<!-- Node30 -->
<g id="Node000030" class="node">
<title>Node30</title>
<g id="a_Node000030"><a xlink:title=" ">
<polygon fill="#e0e0e0" stroke="#999999" points="969.12,-240.25 917.88,-240.25 917.88,-221 969.12,-221 969.12,-240.25"/>
<text text-anchor="middle" x="943.5" y="-226.75" font-family="Helvetica,sans-Serif" font-size="10.00">sstream</text>
</a>
</g>
</g>
<!-- Node23&#45;&gt;Node30 -->
<g id="edge38_Node000023_Node000030" class="edge">
<title>Node23&#45;&gt;Node30</title>
<g id="a_edge38_Node000023_Node000030"><a xlink:title=" ">
<path fill="none" stroke="#63b8ff" d="M693.3,-280.33C736.62,-273.12 823.07,-258.27 906.35,-240.6"/>
<polygon fill="#63b8ff" stroke="#63b8ff" points="907.02,-244.04 916.07,-238.52 905.56,-237.19 907.02,-244.04"/>
</a>
</g>
</g>
<!-- Node31 -->
<g id="Node000031" class="node">
<title>Node31</title>
<g id="a_Node000031"><a xlink:title=" ">
<polygon fill="#e0e0e0" stroke="#999999" points="1046.25,-240.25 986.75,-240.25 986.75,-221 1046.25,-221 1046.25,-240.25"/>
<text text-anchor="middle" x="1016.5" y="-226.75" font-family="Helvetica,sans-Serif" font-size="10.00">sys/stat.h</text>
</a>
</g>
</g>
<!-- Node23&#45;&gt;Node31 -->
<g id="edge39_Node000023_Node000031" class="edge">
<title>Node23&#45;&gt;Node31</title>
<g id="a_edge39_Node000023_Node000031"><a xlink:title=" ">
<path fill="none" stroke="#63b8ff" d="M693.26,-281.69C746.21,-275.45 865.51,-260.6 975.02,-240.78"/>
<polygon fill="#63b8ff" stroke="#63b8ff" points="975.57,-244.24 984.77,-238.99 974.31,-237.35 975.57,-244.24"/>
</a>
</g>
</g>
<!-- Node24&#45;&gt;Node5 -->
<g id="edge31_Node000024_Node000005" class="edge">
<title>Node24&#45;&gt;Node5</title>
<g id="a_edge31_Node000024_Node000005"><a xlink:title=" ">
<path fill="none" stroke="#63b8ff" d="M551.21,-220.54C547.63,-198.66 535.68,-142.52 503.5,-110.5 483.54,-90.64 453.55,-79.26 429.92,-72.98"/>
<polygon fill="#63b8ff" stroke="#63b8ff" points="430.92,-69.62 420.38,-70.64 429.26,-76.42 430.92,-69.62"/>
</a>
</g>
</g>
<!-- Node24&#45;&gt;Node25 -->
<g id="edge32_Node000024_Node000025" class="edge">
<title>Node24&#45;&gt;Node25</title>
<g id="a_edge32_Node000024_Node000025"><a xlink:title=" ">
<path fill="none" stroke="#63b8ff" d="M561.25,-220.83C568.65,-213.4 579.46,-202.54 588.55,-193.41"/>
<polygon fill="#63b8ff" stroke="#63b8ff" points="590.92,-195.99 595.49,-186.43 585.96,-191.05 590.92,-195.99"/>
</a>
</g>
</g>
</g>
</svg>
