<?xml version="1.0" encoding="UTF-8" standalone="no"?>
<!DOCTYPE svg PUBLIC "-//W3C//DTD SVG 1.1//EN"
 "http://www.w3.org/Graphics/SVG/1.1/DTD/svg11.dtd">
<!-- Generated by graphviz version 10.0.1 (20240210.2158)
 -->
<!-- Title: /Users/hoff/Retro/virtualc64/Emulator/Base/Constants.h Pages: 1 -->
<svg width="598pt" height="604pt"
 viewBox="0.00 0.00 598.41 604.25" xmlns="http://www.w3.org/2000/svg" xmlns:xlink="http://www.w3.org/1999/xlink">
<g id="graph0" class="graph" transform="scale(1 1) rotate(0) translate(4 600.25)">
<title>/Users/hoff/Retro/virtualc64/Emulator/Base/Constants.h</title>
<!-- Node1 -->
<g id="Node000001" class="node">
<title>Node1</title>
<g id="a_Node000001"><a xlink:title=" ">
<polygon fill="#999999" stroke="#666666" points="391.66,-596.25 251.91,-596.25 251.91,-565.75 391.66,-565.75 391.66,-596.25"/>
<text text-anchor="start" x="259.91" y="-582.75" font-family="Helvetica,sans-Serif" font-size="10.00">/Users/hoff/Retro/virtualc64</text>
<text text-anchor="middle" x="321.78" y="-571.5" font-family="Helvetica,sans-Serif" font-size="10.00">/Emulator/Base/Constants.h</text>
</a>
</g>
</g>
<!-- Node2 -->
<g id="Node000002" class="node">
<title>Node2</title>
<g id="a_Node000002"><a xlink:href="_muxer_8h_source.html" target="_top" xlink:title=" ">
<polygon fill="white" stroke="#666666" points="180.16,-374.25 43.41,-374.25 43.41,-332.5 180.16,-332.5 180.16,-374.25"/>
<text text-anchor="start" x="51.41" y="-360.75" font-family="Helvetica,sans-Serif" font-size="10.00">/Users/hoff/Retro/virtualc64</text>
<text text-anchor="start" x="51.41" y="-349.5" font-family="Helvetica,sans-Serif" font-size="10.00">/Emulator/Components/SID</text>
<text text-anchor="middle" x="111.78" y="-338.25" font-family="Helvetica,sans-Serif" font-size="10.00">/Muxer.h</text>
</a>
</g>
</g>
<!-- Node1&#45;&gt;Node2 -->
<g id="edge1_Node000001_Node000002" class="edge">
<title>Node1&#45;&gt;Node2</title>
<g id="a_edge1_Node000001_Node000002"><a xlink:title=" ">
<path fill="none" stroke="#63b8ff" d="M240.53,-576.85C163.7,-572.05 56.06,-559.98 27.78,-529.75 -8.58,-490.88 -6.32,-456.64 19.78,-410.25 28.49,-394.78 43.4,-383.09 58.72,-374.52"/>
<polygon fill="#63b8ff" stroke="#63b8ff" points="239.93,-580.32 250.12,-577.42 240.35,-573.34 239.93,-580.32"/>
</a>
</g>
</g>
<!-- Node8 -->
<g id="Node000008" class="node">
<title>Node8</title>
<g id="a_Node000008"><a xlink:href="_fast_s_i_d_8h_source.html" target="_top" xlink:title=" ">
<polygon fill="white" stroke="#666666" points="173.16,-529.75 36.41,-529.75 36.41,-488 173.16,-488 173.16,-529.75"/>
<text text-anchor="start" x="44.41" y="-516.25" font-family="Helvetica,sans-Serif" font-size="10.00">/Users/hoff/Retro/virtualc64</text>
<text text-anchor="start" x="44.41" y="-505" font-family="Helvetica,sans-Serif" font-size="10.00">/Emulator/Components/SID</text>
<text text-anchor="middle" x="104.78" y="-493.75" font-family="Helvetica,sans-Serif" font-size="10.00">/fastsid/FastSID.h</text>
</a>
</g>
</g>
<!-- Node1&#45;&gt;Node8 -->
<g id="edge7_Node000001_Node000008" class="edge">
<title>Node1&#45;&gt;Node8</title>
<g id="a_edge7_Node000001_Node000008"><a xlink:title=" ">
<path fill="none" stroke="#63b8ff" d="M265.57,-561.83C235.53,-552.13 198.47,-540.15 167.5,-530.14"/>
<polygon fill="#63b8ff" stroke="#63b8ff" points="264.26,-565.09 274.85,-564.83 266.41,-558.43 264.26,-565.09"/>
</a>
</g>
</g>
<!-- Node10 -->
<g id="Node000010" class="node">
<title>Node10</title>
<g id="a_Node000010"><a xlink:href="_v_i_c_i_i_8h_source.html" target="_top" xlink:title=" ">
<polygon fill="white" stroke="#666666" points="393.16,-452 250.41,-452 250.41,-410.25 393.16,-410.25 393.16,-452"/>
<text text-anchor="start" x="258.41" y="-438.5" font-family="Helvetica,sans-Serif" font-size="10.00">/Users/hoff/Retro/virtualc64</text>
<text text-anchor="start" x="258.41" y="-427.25" font-family="Helvetica,sans-Serif" font-size="10.00">/Emulator/Components/VICII</text>
<text text-anchor="middle" x="321.78" y="-416" font-family="Helvetica,sans-Serif" font-size="10.00">/VICII.h</text>
</a>
</g>
</g>
<!-- Node1&#45;&gt;Node10 -->
<g id="edge10_Node000001_Node000010" class="edge">
<title>Node1&#45;&gt;Node10</title>
<g id="a_edge10_Node000001_Node000010"><a xlink:title=" ">
<path fill="none" stroke="#63b8ff" d="M341.94,-556.43C347.54,-548.48 352.89,-539.2 355.78,-529.75 361.22,-512.01 360.79,-505.87 355.78,-488 352.2,-475.21 344.79,-462.44 337.8,-452.34"/>
<polygon fill="#63b8ff" stroke="#63b8ff" points="339.3,-554.12 336.03,-564.2 344.87,-558.36 339.3,-554.12"/>
</a>
</g>
</g>
<!-- Node11 -->
<g id="Node000011" class="node">
<title>Node11</title>
<g id="a_Node000011"><a xlink:href="_snapshot_8h_source.html" target="_top" xlink:title=" ">
<polygon fill="white" stroke="#666666" points="490.66,-368.62 350.91,-368.62 350.91,-338.12 490.66,-338.12 490.66,-368.62"/>
<text text-anchor="start" x="358.91" y="-355.12" font-family="Helvetica,sans-Serif" font-size="10.00">/Users/hoff/Retro/virtualc64</text>
<text text-anchor="middle" x="420.78" y="-343.88" font-family="Helvetica,sans-Serif" font-size="10.00">/Emulator/Media/Snapshot.h</text>
</a>
</g>
</g>
<!-- Node1&#45;&gt;Node11 -->
<g id="edge12_Node000001_Node000011" class="edge">
<title>Node1&#45;&gt;Node11</title>
<g id="a_edge12_Node000001_Node000011"><a xlink:title=" ">
<path fill="none" stroke="#63b8ff" d="M347.31,-557.64C355.58,-549.47 364.28,-539.76 370.78,-529.75 405.1,-476.92 416.28,-400.25 419.55,-368.73"/>
<polygon fill="#63b8ff" stroke="#63b8ff" points="344.92,-555.09 340.07,-564.51 349.73,-560.17 344.92,-555.09"/>
</a>
</g>
</g>
<!-- Node13 -->
<g id="Node000013" class="node">
<title>Node13</title>
<g id="a_Node000013"><a xlink:href="_datasette_8h_source.html" target="_top" xlink:title=" ">
<polygon fill="white" stroke="#666666" points="346.53,-529.75 191.03,-529.75 191.03,-488 346.53,-488 346.53,-529.75"/>
<text text-anchor="start" x="199.03" y="-516.25" font-family="Helvetica,sans-Serif" font-size="10.00">/Users/hoff/Retro/virtualc64</text>
<text text-anchor="start" x="199.03" y="-505" font-family="Helvetica,sans-Serif" font-size="10.00">/Emulator/Peripherals/Datasette</text>
<text text-anchor="middle" x="268.78" y="-493.75" font-family="Helvetica,sans-Serif" font-size="10.00">/Datasette.h</text>
</a>
</g>
</g>
<!-- Node1&#45;&gt;Node13 -->
<g id="edge16_Node000001_Node000013" class="edge">
<title>Node1&#45;&gt;Node13</title>
<g id="a_edge16_Node000001_Node000013"><a xlink:title=" ">
<path fill="none" stroke="#63b8ff" d="M303.97,-556.43C297.55,-547.94 290.37,-538.43 284.17,-530.24"/>
<polygon fill="#63b8ff" stroke="#63b8ff" points="301.07,-558.4 309.89,-564.26 306.65,-554.17 301.07,-558.4"/>
</a>
</g>
</g>
<!-- Node14 -->
<g id="Node000014" class="node">
<title>Node14</title>
<g id="a_Node000014"><a xlink:href="_virtual_c64_types_8h.html" target="_top" xlink:title=" ">
<polygon fill="white" stroke="#666666" points="590.41,-446.38 449.16,-446.38 449.16,-415.88 590.41,-415.88 590.41,-446.38"/>
<text text-anchor="start" x="457.16" y="-432.88" font-family="Helvetica,sans-Serif" font-size="10.00">/Users/hoff/Retro/virtualc64</text>
<text text-anchor="middle" x="519.78" y="-421.62" font-family="Helvetica,sans-Serif" font-size="10.00">/Emulator/VirtualC64Types.h</text>
</a>
</g>
</g>
<!-- Node1&#45;&gt;Node14 -->
<g id="edge18_Node000001_Node000014" class="edge">
<title>Node1&#45;&gt;Node14</title>
<g id="a_edge18_Node000001_Node000014"><a xlink:title=" ">
<path fill="none" stroke="#63b8ff" d="M377.06,-561.08C396.33,-553.05 417.45,-542.56 434.78,-529.75 467.13,-505.84 495.8,-467.64 510.12,-446.82"/>
<polygon fill="#63b8ff" stroke="#63b8ff" points="375.96,-557.74 367.98,-564.71 378.57,-564.24 375.96,-557.74"/>
</a>
</g>
</g>
<!-- Node3 -->
<g id="Node000003" class="node">
<title>Node3</title>
<g id="a_Node000003"><a xlink:href="_c64_8h_source.html" target="_top" xlink:title=" ">
<polygon fill="white" stroke="#666666" points="325.66,-296.5 179.91,-296.5 179.91,-266 325.66,-266 325.66,-296.5"/>
<text text-anchor="start" x="187.91" y="-283" font-family="Helvetica,sans-Serif" font-size="10.00">/Users/hoff/Retro/virtualc64</text>
<text text-anchor="middle" x="252.78" y="-271.75" font-family="Helvetica,sans-Serif" font-size="10.00">/Emulator/Components/C64.h</text>
</a>
</g>
</g>
<!-- Node2&#45;&gt;Node3 -->
<g id="edge2_Node000002_Node000003" class="edge">
<title>Node2&#45;&gt;Node3</title>
<g id="a_edge2_Node000002_Node000003"><a xlink:title=" ">
<path fill="none" stroke="#63b8ff" d="M162.65,-327.08C183.01,-316.95 205.74,-305.64 223.29,-296.92"/>
<polygon fill="#63b8ff" stroke="#63b8ff" points="161.32,-323.83 153.92,-331.42 164.43,-330.1 161.32,-323.83"/>
</a>
</g>
</g>
<!-- Node4 -->
<g id="Node000004" class="node">
<title>Node4</title>
<g id="a_Node000004"><a xlink:href="_emulator_8h_source.html" target="_top" xlink:title=" ">
<polygon fill="white" stroke="#666666" points="335.78,-230 169.78,-230 169.78,-199.5 335.78,-199.5 335.78,-230"/>
<text text-anchor="start" x="177.78" y="-216.5" font-family="Helvetica,sans-Serif" font-size="10.00">/Users/hoff/Retro/virtualc64</text>
<text text-anchor="middle" x="252.78" y="-205.25" font-family="Helvetica,sans-Serif" font-size="10.00">/Emulator/Components/Emulator.h</text>
</a>
</g>
</g>
<!-- Node3&#45;&gt;Node4 -->
<g id="edge3_Node000003_Node000004" class="edge">
<title>Node3&#45;&gt;Node4</title>
<g id="a_edge3_Node000003_Node000004"><a xlink:title=" ">
<path fill="none" stroke="#63b8ff" d="M252.78,-254.31C252.78,-246.14 252.78,-237.41 252.78,-230.33"/>
<polygon fill="#63b8ff" stroke="#63b8ff" points="249.28,-254.1 252.78,-264.1 256.28,-254.1 249.28,-254.1"/>
</a>
</g>
</g>
<!-- Node5 -->
<g id="Node000005" class="node">
<title>Node5</title>
<g id="a_Node000005"><a xlink:href="_virtual_c64_8h.html" target="_top" xlink:title=" ">
<polygon fill="white" stroke="#666666" points="490.16,-163.5 353.41,-163.5 353.41,-133 490.16,-133 490.16,-163.5"/>
<text text-anchor="start" x="361.41" y="-150" font-family="Helvetica,sans-Serif" font-size="10.00">/Users/hoff/Retro/virtualc64</text>
<text text-anchor="middle" x="421.78" y="-138.75" font-family="Helvetica,sans-Serif" font-size="10.00">/Emulator/VirtualC64.h</text>
</a>
</g>
</g>
<!-- Node4&#45;&gt;Node5 -->
<g id="edge4_Node000004_Node000005" class="edge">
<title>Node4&#45;&gt;Node5</title>
<g id="a_edge4_Node000004_Node000005"><a xlink:title=" ">
<path fill="none" stroke="#63b8ff" d="M301.87,-195.01C327.8,-185.12 359.15,-173.15 383.29,-163.94"/>
<polygon fill="#63b8ff" stroke="#63b8ff" points="300.64,-191.74 292.55,-198.57 303.14,-198.28 300.64,-191.74"/>
</a>
</g>
</g>
<!-- Node6 -->
<g id="Node000006" class="node">
<title>Node6</title>
<g id="a_Node000006"><a xlink:href="_headless_8h_source.html" target="_top" xlink:title=" ">
<polygon fill="white" stroke="#666666" points="490.16,-97 353.41,-97 353.41,-66.5 490.16,-66.5 490.16,-97"/>
<text text-anchor="start" x="361.41" y="-83.5" font-family="Helvetica,sans-Serif" font-size="10.00">/Users/hoff/Retro/virtualc64</text>
<text text-anchor="middle" x="421.78" y="-72.25" font-family="Helvetica,sans-Serif" font-size="10.00">/Emulator/Headless.h</text>
</a>
</g>
</g>
<!-- Node5&#45;&gt;Node6 -->
<g id="edge5_Node000005_Node000006" class="edge">
<title>Node5&#45;&gt;Node6</title>
<g id="a_edge5_Node000005_Node000006"><a xlink:title=" ">
<path fill="none" stroke="#63b8ff" d="M421.78,-121.31C421.78,-113.14 421.78,-104.41 421.78,-97.33"/>
<polygon fill="#63b8ff" stroke="#63b8ff" points="418.28,-121.1 421.78,-131.1 425.28,-121.1 418.28,-121.1"/>
</a>
</g>
</g>
<!-- Node7 -->
<g id="Node000007" class="node">
<title>Node7</title>
<g id="a_Node000007"><a xlink:href="_headless_8cpp.html" target="_top" xlink:title=" ">
<polygon fill="white" stroke="#666666" points="490.16,-30.5 353.41,-30.5 353.41,0 490.16,0 490.16,-30.5"/>
<text text-anchor="start" x="361.41" y="-17" font-family="Helvetica,sans-Serif" font-size="10.00">/Users/hoff/Retro/virtualc64</text>
<text text-anchor="middle" x="421.78" y="-5.75" font-family="Helvetica,sans-Serif" font-size="10.00">/Emulator/Headless.cpp</text>
</a>
</g>
</g>
<!-- Node6&#45;&gt;Node7 -->
<g id="edge6_Node000006_Node000007" class="edge">
<title>Node6&#45;&gt;Node7</title>
<g id="a_edge6_Node000006_Node000007"><a xlink:title=" ">
<path fill="none" stroke="#63b8ff" d="M421.78,-54.81C421.78,-46.64 421.78,-37.91 421.78,-30.83"/>
<polygon fill="#63b8ff" stroke="#63b8ff" points="418.28,-54.6 421.78,-64.6 425.28,-54.6 418.28,-54.6"/>
</a>
</g>
</g>
<!-- Node9 -->
<g id="Node000009" class="node">
<title>Node9</title>
<g id="a_Node000009"><a xlink:href="sid_8h_source.html" target="_top" xlink:title=" ">
<polygon fill="white" stroke="#666666" points="194.41,-446.38 29.16,-446.38 29.16,-415.88 194.41,-415.88 194.41,-446.38"/>
<text text-anchor="start" x="37.16" y="-432.88" font-family="Helvetica,sans-Serif" font-size="10.00">/Users/hoff/Retro/virtualc64</text>
<text text-anchor="middle" x="111.78" y="-421.62" font-family="Helvetica,sans-Serif" font-size="10.00">/Emulator/Components/SID/SID.h</text>
</a>
</g>
</g>
<!-- Node8&#45;&gt;Node9 -->
<g id="edge8_Node000008_Node000009" class="edge">
<title>Node8&#45;&gt;Node9</title>
<g id="a_edge8_Node000008_Node000009"><a xlink:title=" ">
<path fill="none" stroke="#63b8ff" d="M107.7,-476.31C108.66,-465.94 109.68,-454.92 110.46,-446.48"/>
<polygon fill="#63b8ff" stroke="#63b8ff" points="104.23,-475.79 106.8,-486.07 111.2,-476.43 104.23,-475.79"/>
</a>
</g>
</g>
<!-- Node9&#45;&gt;Node2 -->
<g id="edge9_Node000009_Node000002" class="edge">
<title>Node9&#45;&gt;Node2</title>
<g id="a_edge9_Node000009_Node000002"><a xlink:title=" ">
<path fill="none" stroke="#63b8ff" d="M111.78,-404.14C111.78,-394.5 111.78,-383.72 111.78,-374.66"/>
<polygon fill="#63b8ff" stroke="#63b8ff" points="108.28,-404.01 111.78,-414.01 115.28,-404.01 108.28,-404.01"/>
</a>
</g>
</g>
<!-- Node10&#45;&gt;Node3 -->
<g id="edge11_Node000010_Node000003" class="edge">
<title>Node10&#45;&gt;Node3</title>
<g id="a_edge11_Node000010_Node000003"><a xlink:title=" ">
<path fill="none" stroke="#63b8ff" d="M307.5,-399.51C292.86,-368.14 270.72,-320.68 259.62,-296.91"/>
<polygon fill="#63b8ff" stroke="#63b8ff" points="304.29,-400.92 311.69,-408.5 310.64,-397.96 304.29,-400.92"/>
</a>
</g>
</g>
<!-- Node11&#45;&gt;Node3 -->
<g id="edge13_Node000011_Node000003" class="edge">
<title>Node11&#45;&gt;Node3</title>
<g id="a_edge13_Node000011_Node000003"><a xlink:title=" ">
<path fill="none" stroke="#63b8ff" d="M375.04,-333.28C347.61,-321.83 313.26,-307.49 287.95,-296.93"/>
<polygon fill="#63b8ff" stroke="#63b8ff" points="373.59,-336.47 384.17,-337.09 376.29,-330.01 373.59,-336.47"/>
</a>
</g>
</g>
<!-- Node12 -->
<g id="Node000012" class="node">
<title>Node12</title>
<g id="a_Node000012"><a xlink:href="_media_8h_source.html" target="_top" xlink:title=" ">
<polygon fill="white" stroke="#666666" points="490.16,-230 353.41,-230 353.41,-199.5 490.16,-199.5 490.16,-230"/>
<text text-anchor="start" x="361.41" y="-216.5" font-family="Helvetica,sans-Serif" font-size="10.00">/Users/hoff/Retro/virtualc64</text>
<text text-anchor="middle" x="421.78" y="-205.25" font-family="Helvetica,sans-Serif" font-size="10.00">/Emulator/Media/Media.h</text>
</a>
</g>
</g>
<!-- Node11&#45;&gt;Node12 -->
<g id="edge14_Node000011_Node000012" class="edge">
<title>Node11&#45;&gt;Node12</title>
<g id="a_edge14_Node000011_Node000012"><a xlink:title=" ">
<path fill="none" stroke="#63b8ff" d="M420.97,-326.28C421.18,-297.76 421.51,-253.11 421.68,-230.27"/>
<polygon fill="#63b8ff" stroke="#63b8ff" points="417.47,-326.21 420.9,-336.24 424.47,-326.27 417.47,-326.21"/>
</a>
</g>
</g>
<!-- Node12&#45;&gt;Node5 -->
<g id="edge15_Node000012_Node000005" class="edge">
<title>Node12&#45;&gt;Node5</title>
<g id="a_edge15_Node000012_Node000005"><a xlink:title=" ">
<path fill="none" stroke="#63b8ff" d="M421.78,-187.81C421.78,-179.64 421.78,-170.91 421.78,-163.83"/>
<polygon fill="#63b8ff" stroke="#63b8ff" points="418.28,-187.6 421.78,-197.6 425.28,-187.6 418.28,-187.6"/>
</a>
</g>
</g>
<!-- Node13&#45;&gt;Node3 -->
<g id="edge17_Node000013_Node000003" class="edge">
<title>Node13&#45;&gt;Node3</title>
<g id="a_edge17_Node000013_Node000003"><a xlink:title=" ">
<path fill="none" stroke="#63b8ff" d="M251.15,-477.68C247.3,-469.6 243.77,-460.69 241.78,-452 228.86,-395.58 242.18,-326.05 249.12,-296.55"/>
<polygon fill="#63b8ff" stroke="#63b8ff" points="247.95,-479.09 255.63,-486.39 254.17,-475.89 247.95,-479.09"/>
</a>
</g>
</g>
<!-- Node14&#45;&gt;Node5 -->
<g id="edge19_Node000014_Node000005" class="edge">
<title>Node14&#45;&gt;Node5</title>
<g id="a_edge19_Node000014_Node000005"><a xlink:title=" ">
<path fill="none" stroke="#63b8ff" d="M524.3,-404.21C530.76,-359.04 537.91,-264.52 498.78,-199.5 489.32,-183.77 472.82,-172.03 457.51,-163.87"/>
<polygon fill="#63b8ff" stroke="#63b8ff" points="520.84,-403.66 522.76,-414.08 527.76,-404.73 520.84,-403.66"/>
</a>
</g>
</g>
</g>
</svg>
