<?xml version="1.0" encoding="UTF-8" standalone="no"?>
<!DOCTYPE svg PUBLIC "-//W3C//DTD SVG 1.1//EN"
 "http://www.w3.org/Graphics/SVG/1.1/DTD/svg11.dtd">
<!-- Generated by graphviz version 10.0.1 (20240210.2158)
 -->
<!-- Title: /Users/hoff/Retro/virtualc64/Emulator/Base/Constants.h Pages: 1 -->
<svg width="796pt" height="316pt"
 viewBox="0.00 0.00 796.00 315.75" xmlns="http://www.w3.org/2000/svg" xmlns:xlink="http://www.w3.org/1999/xlink">
<g id="graph0" class="graph" transform="scale(1 1) rotate(0) translate(4 311.75)">
<title>/Users/hoff/Retro/virtualc64/Emulator/Base/Constants.h</title>
<!-- Node1 -->
<g id="Node000001" class="node">
<title>Node1</title>
<g id="a_Node000001"><a xlink:title=" ">
<polygon fill="#999999" stroke="#666666" points="455.25,-307.75 315.5,-307.75 315.5,-277.25 455.25,-277.25 455.25,-307.75"/>
<text text-anchor="start" x="323.5" y="-294.25" font-family="Helvetica,sans-Serif" font-size="10.00">/Users/hoff/Retro/virtualc64</text>
<text text-anchor="middle" x="385.38" y="-283" font-family="Helvetica,sans-Serif" font-size="10.00">/Emulator/Base/Constants.h</text>
</a>
</g>
</g>
<!-- Node2 -->
<g id="Node000002" class="node">
<title>Node2</title>
<g id="a_Node000002"><a xlink:href="_s_i_d_bridge_8h_source.html" target="_top" xlink:title=" ">
<polygon fill="white" stroke="#666666" points="136.75,-241.25 0,-241.25 0,-199.5 136.75,-199.5 136.75,-241.25"/>
<text text-anchor="start" x="8" y="-227.75" font-family="Helvetica,sans-Serif" font-size="10.00">/Users/hoff/Retro/virtualc64</text>
<text text-anchor="start" x="8" y="-216.5" font-family="Helvetica,sans-Serif" font-size="10.00">/Emulator/Components/SID</text>
<text text-anchor="middle" x="68.38" y="-205.25" font-family="Helvetica,sans-Serif" font-size="10.00">/SIDBridge.h</text>
</a>
</g>
</g>
<!-- Node1&#45;&gt;Node2 -->
<g id="edge1_Node000001_Node000002" class="edge">
<title>Node1&#45;&gt;Node2</title>
<g id="a_edge1_Node000001_Node000002"><a xlink:title=" ">
<path fill="none" stroke="#63b8ff" d="M303.95,-275.27C257.65,-265.82 198.65,-253.4 146.38,-241.25 143.38,-240.55 140.32,-239.83 137.24,-239.09"/>
<polygon fill="#63b8ff" stroke="#63b8ff" points="303.16,-278.68 313.65,-277.24 304.55,-271.82 303.16,-278.68"/>
</a>
</g>
</g>
<!-- Node5 -->
<g id="Node000005" class="node">
<title>Node5</title>
<g id="a_Node000005"><a xlink:href="_v_i_c_i_i_8h_source.html" target="_top" xlink:title=" ">
<polygon fill="white" stroke="#666666" points="297.75,-241.25 155,-241.25 155,-199.5 297.75,-199.5 297.75,-241.25"/>
<text text-anchor="start" x="163" y="-227.75" font-family="Helvetica,sans-Serif" font-size="10.00">/Users/hoff/Retro/virtualc64</text>
<text text-anchor="start" x="163" y="-216.5" font-family="Helvetica,sans-Serif" font-size="10.00">/Emulator/Components/VICII</text>
<text text-anchor="middle" x="226.38" y="-205.25" font-family="Helvetica,sans-Serif" font-size="10.00">/VICII.h</text>
</a>
</g>
</g>
<!-- Node1&#45;&gt;Node5 -->
<g id="edge4_Node000001_Node000005" class="edge">
<title>Node1&#45;&gt;Node5</title>
<g id="a_edge4_Node000001_Node000005"><a xlink:title=" ">
<path fill="none" stroke="#63b8ff" d="M341.56,-272.17C320.04,-262.68 294.12,-251.25 272.33,-241.64"/>
<polygon fill="#63b8ff" stroke="#63b8ff" points="340.1,-275.36 350.66,-276.19 342.92,-268.95 340.1,-275.36"/>
</a>
</g>
</g>
<!-- Node6 -->
<g id="Node000006" class="node">
<title>Node6</title>
<g id="a_Node000006"><a xlink:href="_snapshot_8h_source.html" target="_top" xlink:title=" ">
<polygon fill="white" stroke="#666666" points="455.25,-235.62 315.5,-235.62 315.5,-205.12 455.25,-205.12 455.25,-235.62"/>
<text text-anchor="start" x="323.5" y="-222.12" font-family="Helvetica,sans-Serif" font-size="10.00">/Users/hoff/Retro/virtualc64</text>
<text text-anchor="middle" x="385.38" y="-210.88" font-family="Helvetica,sans-Serif" font-size="10.00">/Emulator/Media/Snapshot.h</text>
</a>
</g>
</g>
<!-- Node1&#45;&gt;Node6 -->
<g id="edge6_Node000001_Node000006" class="edge">
<title>Node1&#45;&gt;Node6</title>
<g id="a_edge6_Node000001_Node000006"><a xlink:title=" ">
<path fill="none" stroke="#63b8ff" d="M385.38,-265.52C385.38,-255.51 385.38,-244.44 385.38,-235.89"/>
<polygon fill="#63b8ff" stroke="#63b8ff" points="381.88,-265.46 385.38,-275.46 388.88,-265.46 381.88,-265.46"/>
</a>
</g>
</g>
<!-- Node7 -->
<g id="Node000007" class="node">
<title>Node7</title>
<g id="a_Node000007"><a xlink:href="_datasette_8h_source.html" target="_top" xlink:title=" ">
<polygon fill="white" stroke="#666666" points="629.12,-241.25 473.62,-241.25 473.62,-199.5 629.12,-199.5 629.12,-241.25"/>
<text text-anchor="start" x="481.62" y="-227.75" font-family="Helvetica,sans-Serif" font-size="10.00">/Users/hoff/Retro/virtualc64</text>
<text text-anchor="start" x="481.62" y="-216.5" font-family="Helvetica,sans-Serif" font-size="10.00">/Emulator/Peripherals/Datasette</text>
<text text-anchor="middle" x="551.38" y="-205.25" font-family="Helvetica,sans-Serif" font-size="10.00">/Datasette.h</text>
</a>
</g>
</g>
<!-- Node1&#45;&gt;Node7 -->
<g id="edge8_Node000001_Node000007" class="edge">
<title>Node1&#45;&gt;Node7</title>
<g id="a_edge8_Node000001_Node000007"><a xlink:title=" ">
<path fill="none" stroke="#63b8ff" d="M430.51,-272.43C453.09,-262.89 480.44,-251.34 503.4,-241.64"/>
<polygon fill="#63b8ff" stroke="#63b8ff" points="429.42,-269.09 421.57,-276.21 432.14,-275.54 429.42,-269.09"/>
</a>
</g>
</g>
<!-- Node8 -->
<g id="Node000008" class="node">
<title>Node8</title>
<g id="a_Node000008"><a xlink:href="_virtual_c64_types_8h.html" target="_top" xlink:title=" ">
<polygon fill="white" stroke="#666666" points="788,-235.62 646.75,-235.62 646.75,-205.12 788,-205.12 788,-235.62"/>
<text text-anchor="start" x="654.75" y="-222.12" font-family="Helvetica,sans-Serif" font-size="10.00">/Users/hoff/Retro/virtualc64</text>
<text text-anchor="middle" x="717.38" y="-210.88" font-family="Helvetica,sans-Serif" font-size="10.00">/Emulator/VirtualC64Types.h</text>
</a>
</g>
</g>
<!-- Node1&#45;&gt;Node8 -->
<g id="edge10_Node000001_Node000008" class="edge">
<title>Node1&#45;&gt;Node8</title>
<g id="a_edge10_Node000001_Node000008"><a xlink:title=" ">
<path fill="none" stroke="#63b8ff" d="M466.66,-276.43C516.38,-266.95 581.21,-254.11 638.38,-241.25 645.55,-239.64 653.07,-237.86 660.5,-236.05"/>
<polygon fill="#63b8ff" stroke="#63b8ff" points="466.3,-272.94 457.13,-278.24 467.61,-279.82 466.3,-272.94"/>
</a>
</g>
</g>
<!-- Node3 -->
<g id="Node000003" class="node">
<title>Node3</title>
<g id="a_Node000003"><a xlink:href="_c64_8h_source.html" target="_top" xlink:title=" ">
<polygon fill="white" stroke="#666666" points="378.25,-163.5 232.5,-163.5 232.5,-133 378.25,-133 378.25,-163.5"/>
<text text-anchor="start" x="240.5" y="-150" font-family="Helvetica,sans-Serif" font-size="10.00">/Users/hoff/Retro/virtualc64</text>
<text text-anchor="middle" x="305.38" y="-138.75" font-family="Helvetica,sans-Serif" font-size="10.00">/Emulator/Components/C64.h</text>
</a>
</g>
</g>
<!-- Node2&#45;&gt;Node3 -->
<g id="edge2_Node000002_Node000003" class="edge">
<title>Node2&#45;&gt;Node3</title>
<g id="a_edge2_Node000002_Node000003"><a xlink:title=" ">
<path fill="none" stroke="#63b8ff" d="M147.82,-195.87C183.52,-185.3 224.56,-173.16 255.8,-163.92"/>
<polygon fill="#63b8ff" stroke="#63b8ff" points="146.97,-192.47 138.38,-198.66 148.96,-199.18 146.97,-192.47"/>
</a>
</g>
</g>
<!-- Node4 -->
<g id="Node000004" class="node">
<title>Node4</title>
<g id="a_Node000004"><a xlink:href="_emulator_8h_source.html" target="_top" xlink:title=" ">
<polygon fill="white" stroke="#666666" points="388.38,-97 222.38,-97 222.38,-66.5 388.38,-66.5 388.38,-97"/>
<text text-anchor="start" x="230.38" y="-83.5" font-family="Helvetica,sans-Serif" font-size="10.00">/Users/hoff/Retro/virtualc64</text>
<text text-anchor="middle" x="305.38" y="-72.25" font-family="Helvetica,sans-Serif" font-size="10.00">/Emulator/Components/Emulator.h</text>
</a>
</g>
</g>
<!-- Node3&#45;&gt;Node4 -->
<g id="edge3_Node000003_Node000004" class="edge">
<title>Node3&#45;&gt;Node4</title>
<g id="a_edge3_Node000003_Node000004"><a xlink:title=" ">
<path fill="none" stroke="#63b8ff" d="M305.38,-121.31C305.38,-113.14 305.38,-104.41 305.38,-97.33"/>
<polygon fill="#63b8ff" stroke="#63b8ff" points="301.88,-121.1 305.38,-131.1 308.88,-121.1 301.88,-121.1"/>
</a>
</g>
</g>
<!-- Node5&#45;&gt;Node3 -->
<g id="edge5_Node000005_Node000003" class="edge">
<title>Node5&#45;&gt;Node3</title>
<g id="a_edge5_Node000005_Node000003"><a xlink:title=" ">
<path fill="none" stroke="#63b8ff" d="M257.61,-191.65C268.38,-182.09 280.01,-171.77 289.1,-163.7"/>
<polygon fill="#63b8ff" stroke="#63b8ff" points="255.51,-188.83 250.36,-198.09 260.16,-194.07 255.51,-188.83"/>
</a>
</g>
</g>
<!-- Node6&#45;&gt;Node3 -->
<g id="edge7_Node000006_Node000003" class="edge">
<title>Node6&#45;&gt;Node3</title>
<g id="a_edge7_Node000006_Node000003"><a xlink:title=" ">
<path fill="none" stroke="#63b8ff" d="M360.19,-197.3C347.7,-186.35 332.97,-173.44 321.93,-163.76"/>
<polygon fill="#63b8ff" stroke="#63b8ff" points="357.83,-199.89 367.66,-203.85 362.45,-194.62 357.83,-199.89"/>
</a>
</g>
</g>
<!-- Node7&#45;&gt;Node3 -->
<g id="edge9_Node000007_Node000003" class="edge">
<title>Node7&#45;&gt;Node3</title>
<g id="a_edge9_Node000007_Node000003"><a xlink:title=" ">
<path fill="none" stroke="#63b8ff" d="M469.39,-196.01C432.22,-185.41 389.4,-173.2 356.84,-163.92"/>
<polygon fill="#63b8ff" stroke="#63b8ff" points="468.19,-199.3 478.77,-198.68 470.11,-192.57 468.19,-199.3"/>
</a>
</g>
</g>
<!-- Node9 -->
<g id="Node000009" class="node">
<title>Node9</title>
<g id="a_Node000009"><a xlink:href="_virtual_c64_8h.html" target="_top" xlink:title=" ">
<polygon fill="white" stroke="#666666" points="785.75,-163.5 649,-163.5 649,-133 785.75,-133 785.75,-163.5"/>
<text text-anchor="start" x="657" y="-150" font-family="Helvetica,sans-Serif" font-size="10.00">/Users/hoff/Retro/virtualc64</text>
<text text-anchor="middle" x="717.38" y="-138.75" font-family="Helvetica,sans-Serif" font-size="10.00">/Emulator/VirtualC64.h</text>
</a>
</g>
</g>
<!-- Node8&#45;&gt;Node9 -->
<g id="edge11_Node000008_Node000009" class="edge">
<title>Node8&#45;&gt;Node9</title>
<g id="a_edge11_Node000008_Node000009"><a xlink:title=" ">
<path fill="none" stroke="#63b8ff" d="M717.38,-193.4C717.38,-183.39 717.38,-172.31 717.38,-163.76"/>
<polygon fill="#63b8ff" stroke="#63b8ff" points="713.88,-193.33 717.38,-203.33 720.88,-193.33 713.88,-193.33"/>
</a>
</g>
</g>
<!-- Node10 -->
<g id="Node000010" class="node">
<title>Node10</title>
<g id="a_Node000010"><a xlink:href="_headless_8h_source.html" target="_top" xlink:title=" ">
<polygon fill="white" stroke="#666666" points="785.75,-97 649,-97 649,-66.5 785.75,-66.5 785.75,-97"/>
<text text-anchor="start" x="657" y="-83.5" font-family="Helvetica,sans-Serif" font-size="10.00">/Users/hoff/Retro/virtualc64</text>
<text text-anchor="middle" x="717.38" y="-72.25" font-family="Helvetica,sans-Serif" font-size="10.00">/Emulator/Headless.h</text>
</a>
</g>
</g>
<!-- Node9&#45;&gt;Node10 -->
<g id="edge12_Node000009_Node000010" class="edge">
<title>Node9&#45;&gt;Node10</title>
<g id="a_edge12_Node000009_Node000010"><a xlink:title=" ">
<path fill="none" stroke="#63b8ff" d="M717.38,-121.31C717.38,-113.14 717.38,-104.41 717.38,-97.33"/>
<polygon fill="#63b8ff" stroke="#63b8ff" points="713.88,-121.1 717.38,-131.1 720.88,-121.1 713.88,-121.1"/>
</a>
</g>
</g>
<!-- Node11 -->
<g id="Node000011" class="node">
<title>Node11</title>
<g id="a_Node000011"><a xlink:href="_headless_8cpp.html" target="_top" xlink:title=" ">
<polygon fill="white" stroke="#666666" points="785.75,-30.5 649,-30.5 649,0 785.75,0 785.75,-30.5"/>
<text text-anchor="start" x="657" y="-17" font-family="Helvetica,sans-Serif" font-size="10.00">/Users/hoff/Retro/virtualc64</text>
<text text-anchor="middle" x="717.38" y="-5.75" font-family="Helvetica,sans-Serif" font-size="10.00">/Emulator/Headless.cpp</text>
</a>
</g>
</g>
<!-- Node10&#45;&gt;Node11 -->
<g id="edge13_Node000010_Node000011" class="edge">
<title>Node10&#45;&gt;Node11</title>
<g id="a_edge13_Node000010_Node000011"><a xlink:title=" ">
<path fill="none" stroke="#63b8ff" d="M717.38,-54.81C717.38,-46.64 717.38,-37.91 717.38,-30.83"/>
<polygon fill="#63b8ff" stroke="#63b8ff" points="713.88,-54.6 717.38,-64.6 720.88,-54.6 713.88,-54.6"/>
</a>
</g>
</g>
</g>
</svg>
