<?xml version="1.0" encoding="UTF-8" standalone="no"?>
<!DOCTYPE svg PUBLIC "-//W3C//DTD SVG 1.1//EN"
 "http://www.w3.org/Graphics/SVG/1.1/DTD/svg11.dtd">
<!-- Generated by graphviz version 10.0.1 (20240210.2158)
 -->
<!-- Title: /Users/hoff/Retro/virtualc64/Emulator/Base/Constants.h Pages: 1 -->
<svg width="588pt" height="593pt"
 viewBox="0.00 0.00 588.33 593.00" xmlns="http://www.w3.org/2000/svg" xmlns:xlink="http://www.w3.org/1999/xlink">
<g id="graph0" class="graph" transform="scale(1 1) rotate(0) translate(4 589)">
<title>/Users/hoff/Retro/virtualc64/Emulator/Base/Constants.h</title>
<!-- Node1 -->
<g id="Node000001" class="node">
<title>Node1</title>
<g id="a_Node000001"><a xlink:title=" ">
<polygon fill="#999999" stroke="#666666" points="303.58,-585 163.83,-585 163.83,-554.5 303.58,-554.5 303.58,-585"/>
<text text-anchor="start" x="171.83" y="-571.5" font-family="Helvetica,sans-Serif" font-size="10.00">/Users/hoff/Retro/virtualc64</text>
<text text-anchor="middle" x="233.71" y="-560.25" font-family="Helvetica,sans-Serif" font-size="10.00">/Emulator/Base/Constants.h</text>
</a>
</g>
</g>
<!-- Node2 -->
<g id="Node000002" class="node">
<title>Node2</title>
<g id="a_Node000002"><a xlink:href="_muxer_8h_source.html" target="_top" xlink:title=" ">
<polygon fill="white" stroke="#666666" points="146.08,-374.25 9.33,-374.25 9.33,-332.5 146.08,-332.5 146.08,-374.25"/>
<text text-anchor="start" x="17.33" y="-360.75" font-family="Helvetica,sans-Serif" font-size="10.00">/Users/hoff/Retro/virtualc64</text>
<text text-anchor="start" x="17.33" y="-349.5" font-family="Helvetica,sans-Serif" font-size="10.00">/Emulator/Components/SID</text>
<text text-anchor="middle" x="77.71" y="-338.25" font-family="Helvetica,sans-Serif" font-size="10.00">/Muxer.h</text>
</a>
</g>
</g>
<!-- Node1&#45;&gt;Node2 -->
<g id="edge1_Node000001_Node000002" class="edge">
<title>Node1&#45;&gt;Node2</title>
<g id="a_edge1_Node000001_Node000002"><a xlink:title=" ">
<path fill="none" stroke="#63b8ff" d="M152.2,-556.53C105.09,-547.9 51.84,-534.95 34.71,-518.5 -0.76,-484.43 -8.98,-454.87 11.71,-410.25 18.4,-395.81 30.87,-383.75 43.18,-374.57"/>
<polygon fill="#63b8ff" stroke="#63b8ff" points="151.44,-559.95 161.9,-558.25 152.67,-553.05 151.44,-559.95"/>
</a>
</g>
</g>
<!-- Node8 -->
<g id="Node000008" class="node">
<title>Node8</title>
<g id="a_Node000008"><a xlink:href="_fast_s_i_d_8h_source.html" target="_top" xlink:title=" ">
<polygon fill="white" stroke="#666666" points="180.08,-518.5 43.33,-518.5 43.33,-476.75 180.08,-476.75 180.08,-518.5"/>
<text text-anchor="start" x="51.33" y="-505" font-family="Helvetica,sans-Serif" font-size="10.00">/Users/hoff/Retro/virtualc64</text>
<text text-anchor="start" x="51.33" y="-493.75" font-family="Helvetica,sans-Serif" font-size="10.00">/Emulator/Components/SID</text>
<text text-anchor="middle" x="111.71" y="-482.5" font-family="Helvetica,sans-Serif" font-size="10.00">/fastsid/FastSID.h</text>
</a>
</g>
</g>
<!-- Node1&#45;&gt;Node8 -->
<g id="edge7_Node000001_Node000008" class="edge">
<title>Node1&#45;&gt;Node8</title>
<g id="a_edge7_Node000001_Node000008"><a xlink:title=" ">
<path fill="none" stroke="#63b8ff" d="M198.49,-548.51C182.31,-539.21 163.16,-528.2 146.97,-518.89"/>
<polygon fill="#63b8ff" stroke="#63b8ff" points="196.41,-551.35 206.82,-553.3 199.89,-545.28 196.41,-551.35"/>
</a>
</g>
</g>
<!-- Node10 -->
<g id="Node000010" class="node">
<title>Node10</title>
<g id="a_Node000010"><a xlink:href="_v_i_c_i_i_8h_source.html" target="_top" xlink:title=" ">
<polygon fill="white" stroke="#666666" points="307.08,-374.25 164.33,-374.25 164.33,-332.5 307.08,-332.5 307.08,-374.25"/>
<text text-anchor="start" x="172.33" y="-360.75" font-family="Helvetica,sans-Serif" font-size="10.00">/Users/hoff/Retro/virtualc64</text>
<text text-anchor="start" x="172.33" y="-349.5" font-family="Helvetica,sans-Serif" font-size="10.00">/Emulator/Components/VICII</text>
<text text-anchor="middle" x="235.71" y="-338.25" font-family="Helvetica,sans-Serif" font-size="10.00">/VICII.h</text>
</a>
</g>
</g>
<!-- Node1&#45;&gt;Node10 -->
<g id="edge10_Node000001_Node000010" class="edge">
<title>Node1&#45;&gt;Node10</title>
<g id="a_edge10_Node000001_Node000010"><a xlink:title=" ">
<path fill="none" stroke="#63b8ff" d="M233.43,-543.15C233.15,-511.82 232.87,-457.13 233.71,-410.25 233.92,-398.41 234.38,-385.16 234.81,-374.54"/>
<polygon fill="#63b8ff" stroke="#63b8ff" points="229.92,-542.85 233.52,-552.81 236.92,-542.78 229.92,-542.85"/>
</a>
</g>
</g>
<!-- Node11 -->
<g id="Node000011" class="node">
<title>Node11</title>
<g id="a_Node000011"><a xlink:href="_snapshot_8h_source.html" target="_top" xlink:title=" ">
<polygon fill="white" stroke="#666666" points="382.58,-440.75 242.83,-440.75 242.83,-410.25 382.58,-410.25 382.58,-440.75"/>
<text text-anchor="start" x="250.83" y="-427.25" font-family="Helvetica,sans-Serif" font-size="10.00">/Users/hoff/Retro/virtualc64</text>
<text text-anchor="middle" x="312.71" y="-416" font-family="Helvetica,sans-Serif" font-size="10.00">/Emulator/Media/Snapshot.h</text>
</a>
</g>
</g>
<!-- Node1&#45;&gt;Node11 -->
<g id="edge12_Node000001_Node000011" class="edge">
<title>Node1&#45;&gt;Node11</title>
<g id="a_edge12_Node000001_Node000011"><a xlink:title=" ">
<path fill="none" stroke="#63b8ff" d="M247.43,-544.03C263.99,-514.22 291.27,-465.1 304.71,-440.9"/>
<polygon fill="#63b8ff" stroke="#63b8ff" points="244.39,-542.3 242.6,-552.74 250.51,-545.7 244.39,-542.3"/>
</a>
</g>
</g>
<!-- Node12 -->
<g id="Node000012" class="node">
<title>Node12</title>
<g id="a_Node000012"><a xlink:href="_datasette_8h_source.html" target="_top" xlink:title=" ">
<polygon fill="white" stroke="#666666" points="469.46,-518.5 313.96,-518.5 313.96,-476.75 469.46,-476.75 469.46,-518.5"/>
<text text-anchor="start" x="321.96" y="-505" font-family="Helvetica,sans-Serif" font-size="10.00">/Users/hoff/Retro/virtualc64</text>
<text text-anchor="start" x="321.96" y="-493.75" font-family="Helvetica,sans-Serif" font-size="10.00">/Emulator/Peripherals/Datasette</text>
<text text-anchor="middle" x="391.71" y="-482.5" font-family="Helvetica,sans-Serif" font-size="10.00">/Datasette.h</text>
</a>
</g>
</g>
<!-- Node1&#45;&gt;Node12 -->
<g id="edge14_Node000001_Node000012" class="edge">
<title>Node1&#45;&gt;Node12</title>
<g id="a_edge14_Node000001_Node000012"><a xlink:title=" ">
<path fill="none" stroke="#63b8ff" d="M277.25,-549.42C298.63,-539.93 324.39,-528.5 346.05,-518.89"/>
<polygon fill="#63b8ff" stroke="#63b8ff" points="275.93,-546.18 268.21,-553.44 278.77,-552.58 275.93,-546.18"/>
</a>
</g>
</g>
<!-- Node13 -->
<g id="Node000013" class="node">
<title>Node13</title>
<g id="a_Node000013"><a xlink:href="_virtual_c64_types_8h.html" target="_top" xlink:title=" ">
<polygon fill="white" stroke="#666666" points="580.33,-440.75 439.08,-440.75 439.08,-410.25 580.33,-410.25 580.33,-440.75"/>
<text text-anchor="start" x="447.08" y="-427.25" font-family="Helvetica,sans-Serif" font-size="10.00">/Users/hoff/Retro/virtualc64</text>
<text text-anchor="middle" x="509.71" y="-416" font-family="Helvetica,sans-Serif" font-size="10.00">/Emulator/VirtualC64Types.h</text>
</a>
</g>
</g>
<!-- Node1&#45;&gt;Node13 -->
<g id="edge16_Node000001_Node000013" class="edge">
<title>Node1&#45;&gt;Node13</title>
<g id="a_edge16_Node000001_Node000013"><a xlink:title=" ">
<path fill="none" stroke="#63b8ff" d="M315.13,-560.8C376.72,-553.22 454.67,-539.76 478.71,-518.5 501.31,-498.52 507.46,-461.5 509.12,-441.04"/>
<polygon fill="#63b8ff" stroke="#63b8ff" points="314.85,-557.31 305.34,-561.97 315.68,-564.26 314.85,-557.31"/>
</a>
</g>
</g>
<!-- Node3 -->
<g id="Node000003" class="node">
<title>Node3</title>
<g id="a_Node000003"><a xlink:href="_c64_8h_source.html" target="_top" xlink:title=" ">
<polygon fill="white" stroke="#666666" points="407.58,-296.5 261.83,-296.5 261.83,-266 407.58,-266 407.58,-296.5"/>
<text text-anchor="start" x="269.83" y="-283" font-family="Helvetica,sans-Serif" font-size="10.00">/Users/hoff/Retro/virtualc64</text>
<text text-anchor="middle" x="334.71" y="-271.75" font-family="Helvetica,sans-Serif" font-size="10.00">/Emulator/Components/C64.h</text>
</a>
</g>
</g>
<!-- Node2&#45;&gt;Node3 -->
<g id="edge2_Node000002_Node000003" class="edge">
<title>Node2&#45;&gt;Node3</title>
<g id="a_edge2_Node000002_Node000003"><a xlink:title=" ">
<path fill="none" stroke="#63b8ff" d="M157.65,-330.56C197.67,-319.64 245.05,-306.71 280.72,-296.98"/>
<polygon fill="#63b8ff" stroke="#63b8ff" points="156.76,-327.18 148.04,-333.18 158.61,-333.93 156.76,-327.18"/>
</a>
</g>
</g>
<!-- Node4 -->
<g id="Node000004" class="node">
<title>Node4</title>
<g id="a_Node000004"><a xlink:href="_emulator_8h_source.html" target="_top" xlink:title=" ">
<polygon fill="white" stroke="#666666" points="438.71,-230 272.71,-230 272.71,-199.5 438.71,-199.5 438.71,-230"/>
<text text-anchor="start" x="280.71" y="-216.5" font-family="Helvetica,sans-Serif" font-size="10.00">/Users/hoff/Retro/virtualc64</text>
<text text-anchor="middle" x="355.71" y="-205.25" font-family="Helvetica,sans-Serif" font-size="10.00">/Emulator/Components/Emulator.h</text>
</a>
</g>
</g>
<!-- Node3&#45;&gt;Node4 -->
<g id="edge3_Node000003_Node000004" class="edge">
<title>Node3&#45;&gt;Node4</title>
<g id="a_edge3_Node000003_Node000004"><a xlink:title=" ">
<path fill="none" stroke="#63b8ff" d="M342.97,-254.88C345.68,-246.55 348.6,-237.58 350.96,-230.33"/>
<polygon fill="#63b8ff" stroke="#63b8ff" points="339.71,-253.58 339.94,-264.17 346.37,-255.75 339.71,-253.58"/>
</a>
</g>
</g>
<!-- Node5 -->
<g id="Node000005" class="node">
<title>Node5</title>
<g id="a_Node000005"><a xlink:href="_virtual_c64_8h.html" target="_top" xlink:title=" ">
<polygon fill="white" stroke="#666666" points="479.08,-163.5 342.33,-163.5 342.33,-133 479.08,-133 479.08,-163.5"/>
<text text-anchor="start" x="350.33" y="-150" font-family="Helvetica,sans-Serif" font-size="10.00">/Users/hoff/Retro/virtualc64</text>
<text text-anchor="middle" x="410.71" y="-138.75" font-family="Helvetica,sans-Serif" font-size="10.00">/Emulator/VirtualC64.h</text>
</a>
</g>
</g>
<!-- Node4&#45;&gt;Node5 -->
<g id="edge4_Node000004_Node000005" class="edge">
<title>Node4&#45;&gt;Node5</title>
<g id="a_edge4_Node000004_Node000005"><a xlink:title=" ">
<path fill="none" stroke="#63b8ff" d="M375.42,-190.63C383.04,-181.69 391.53,-171.74 398.28,-163.83"/>
<polygon fill="#63b8ff" stroke="#63b8ff" points="373,-188.08 369.17,-197.96 378.32,-192.62 373,-188.08"/>
</a>
</g>
</g>
<!-- Node6 -->
<g id="Node000006" class="node">
<title>Node6</title>
<g id="a_Node000006"><a xlink:href="_headless_8h_source.html" target="_top" xlink:title=" ">
<polygon fill="white" stroke="#666666" points="479.08,-97 342.33,-97 342.33,-66.5 479.08,-66.5 479.08,-97"/>
<text text-anchor="start" x="350.33" y="-83.5" font-family="Helvetica,sans-Serif" font-size="10.00">/Users/hoff/Retro/virtualc64</text>
<text text-anchor="middle" x="410.71" y="-72.25" font-family="Helvetica,sans-Serif" font-size="10.00">/Emulator/Headless.h</text>
</a>
</g>
</g>
<!-- Node5&#45;&gt;Node6 -->
<g id="edge5_Node000005_Node000006" class="edge">
<title>Node5&#45;&gt;Node6</title>
<g id="a_edge5_Node000005_Node000006"><a xlink:title=" ">
<path fill="none" stroke="#63b8ff" d="M410.71,-121.31C410.71,-113.14 410.71,-104.41 410.71,-97.33"/>
<polygon fill="#63b8ff" stroke="#63b8ff" points="407.21,-121.1 410.71,-131.1 414.21,-121.1 407.21,-121.1"/>
</a>
</g>
</g>
<!-- Node7 -->
<g id="Node000007" class="node">
<title>Node7</title>
<g id="a_Node000007"><a xlink:href="_headless_8cpp.html" target="_top" xlink:title=" ">
<polygon fill="white" stroke="#666666" points="479.08,-30.5 342.33,-30.5 342.33,0 479.08,0 479.08,-30.5"/>
<text text-anchor="start" x="350.33" y="-17" font-family="Helvetica,sans-Serif" font-size="10.00">/Users/hoff/Retro/virtualc64</text>
<text text-anchor="middle" x="410.71" y="-5.75" font-family="Helvetica,sans-Serif" font-size="10.00">/Emulator/Headless.cpp</text>
</a>
</g>
</g>
<!-- Node6&#45;&gt;Node7 -->
<g id="edge6_Node000006_Node000007" class="edge">
<title>Node6&#45;&gt;Node7</title>
<g id="a_edge6_Node000006_Node000007"><a xlink:title=" ">
<path fill="none" stroke="#63b8ff" d="M410.71,-54.81C410.71,-46.64 410.71,-37.91 410.71,-30.83"/>
<polygon fill="#63b8ff" stroke="#63b8ff" points="407.21,-54.6 410.71,-64.6 414.21,-54.6 407.21,-54.6"/>
</a>
</g>
</g>
<!-- Node9 -->
<g id="Node000009" class="node">
<title>Node9</title>
<g id="a_Node000009"><a xlink:href="sid_8h_source.html" target="_top" xlink:title=" ">
<polygon fill="white" stroke="#666666" points="186.33,-440.75 21.08,-440.75 21.08,-410.25 186.33,-410.25 186.33,-440.75"/>
<text text-anchor="start" x="29.08" y="-427.25" font-family="Helvetica,sans-Serif" font-size="10.00">/Users/hoff/Retro/virtualc64</text>
<text text-anchor="middle" x="103.71" y="-416" font-family="Helvetica,sans-Serif" font-size="10.00">/Emulator/Components/SID/SID.h</text>
</a>
</g>
</g>
<!-- Node8&#45;&gt;Node9 -->
<g id="edge8_Node000008_Node000009" class="edge">
<title>Node8&#45;&gt;Node9</title>
<g id="a_edge8_Node000008_Node000009"><a xlink:title=" ">
<path fill="none" stroke="#63b8ff" d="M108.12,-465.17C107.15,-456.72 106.16,-447.98 105.36,-440.95"/>
<polygon fill="#63b8ff" stroke="#63b8ff" points="104.61,-465.3 109.22,-474.84 111.57,-464.51 104.61,-465.3"/>
</a>
</g>
</g>
<!-- Node9&#45;&gt;Node2 -->
<g id="edge9_Node000009_Node000002" class="edge">
<title>Node9&#45;&gt;Node2</title>
<g id="a_edge9_Node000009_Node000002"><a xlink:title=" ">
<path fill="none" stroke="#63b8ff" d="M94.36,-399.28C91.37,-391.22 88.1,-382.4 85.26,-374.74"/>
<polygon fill="#63b8ff" stroke="#63b8ff" points="91.04,-400.39 97.79,-408.55 97.6,-397.96 91.04,-400.39"/>
</a>
</g>
</g>
<!-- Node10&#45;&gt;Node3 -->
<g id="edge11_Node000010_Node000003" class="edge">
<title>Node10&#45;&gt;Node3</title>
<g id="a_edge11_Node000010_Node000003"><a xlink:title=" ">
<path fill="none" stroke="#63b8ff" d="M273.59,-325.54C287.31,-315.82 302.3,-305.21 314,-296.92"/>
<polygon fill="#63b8ff" stroke="#63b8ff" points="271.71,-322.58 265.58,-331.22 275.76,-328.29 271.71,-322.58"/>
</a>
</g>
</g>
<!-- Node11&#45;&gt;Node3 -->
<g id="edge13_Node000011_Node000003" class="edge">
<title>Node11&#45;&gt;Node3</title>
<g id="a_edge13_Node000011_Node000003"><a xlink:title=" ">
<path fill="none" stroke="#63b8ff" d="M316.71,-398.6C321.34,-368.68 328.79,-320.53 332.48,-296.65"/>
<polygon fill="#63b8ff" stroke="#63b8ff" points="313.28,-397.9 315.21,-408.32 320.2,-398.97 313.28,-397.9"/>
</a>
</g>
</g>
<!-- Node12&#45;&gt;Node3 -->
<g id="edge15_Node000012_Node000003" class="edge">
<title>Node12&#45;&gt;Node3</title>
<g id="a_edge15_Node000012_Node000003"><a xlink:title=" ">
<path fill="none" stroke="#63b8ff" d="M394.83,-465.24C395.69,-448.71 395.52,-428.19 391.71,-410.25 382.45,-366.71 357.3,-320.01 343.71,-296.92"/>
<polygon fill="#63b8ff" stroke="#63b8ff" points="391.35,-464.75 394.16,-474.97 398.34,-465.23 391.35,-464.75"/>
</a>
</g>
</g>
<!-- Node13&#45;&gt;Node5 -->
<g id="edge17_Node000013_Node000005" class="edge">
<title>Node13&#45;&gt;Node5</title>
<g id="a_edge17_Node000013_Node000005"><a xlink:title=" ">
<path fill="none" stroke="#63b8ff" d="M505.78,-398.8C498.53,-355.85 480.7,-267.49 447.71,-199.5 441.37,-186.44 431.53,-173.28 423.59,-163.71"/>
<polygon fill="#63b8ff" stroke="#63b8ff" points="502.28,-399.09 507.34,-408.4 509.19,-397.97 502.28,-399.09"/>
</a>
</g>
</g>
</g>
</svg>
