<?xml version="1.0" encoding="UTF-8" standalone="no"?>
<!DOCTYPE svg PUBLIC "-//W3C//DTD SVG 1.1//EN"
 "http://www.w3.org/Graphics/SVG/1.1/DTD/svg11.dtd">
<!-- Generated by graphviz version 10.0.1 (20240210.2158)
 -->
<!-- Title: /Users/hoff/Retro/virtualc64/Emulator/Base/CoreComponentTypes.h Pages: 1 -->
<svg width="610pt" height="316pt"
 viewBox="0.00 0.00 609.75 315.75" xmlns="http://www.w3.org/2000/svg" xmlns:xlink="http://www.w3.org/1999/xlink">
<g id="graph0" class="graph" transform="scale(1 1) rotate(0) translate(4 311.75)">
<title>/Users/hoff/Retro/virtualc64/Emulator/Base/CoreComponentTypes.h</title>
<!-- Node1 -->
<g id="Node000001" class="node">
<title>Node1</title>
<g id="a_Node000001"><a xlink:title=" ">
<polygon fill="#999999" stroke="#666666" points="396.5,-307.75 204.25,-307.75 204.25,-277.25 396.5,-277.25 396.5,-307.75"/>
<text text-anchor="start" x="212.25" y="-294.25" font-family="Helvetica,sans-Serif" font-size="10.00">/Users/hoff/Retro/virtualc64</text>
<text text-anchor="middle" x="300.38" y="-283" font-family="Helvetica,sans-Serif" font-size="10.00">/Emulator/Base/CoreComponentTypes.h</text>
</a>
</g>
</g>
<!-- Node2 -->
<g id="Node000002" class="node">
<title>Node2</title>
<g id="a_Node000002"><a xlink:href="_virtual_c64_types_8h.html" target="_top" xlink:title=" ">
<polygon fill="white" stroke="#666666" points="371,-241.25 229.75,-241.25 229.75,-210.75 371,-210.75 371,-241.25"/>
<text text-anchor="start" x="237.75" y="-227.75" font-family="Helvetica,sans-Serif" font-size="10.00">/Users/hoff/Retro/virtualc64</text>
<text text-anchor="middle" x="300.38" y="-216.5" font-family="Helvetica,sans-Serif" font-size="10.00">/Emulator/VirtualC64Types.h</text>
</a>
</g>
</g>
<!-- Node1&#45;&gt;Node2 -->
<g id="edge1_Node000001_Node000002" class="edge">
<title>Node1&#45;&gt;Node2</title>
<g id="a_edge1_Node000001_Node000002"><a xlink:title=" ">
<path fill="none" stroke="#63b8ff" d="M300.38,-265.56C300.38,-257.39 300.38,-248.66 300.38,-241.58"/>
<polygon fill="#63b8ff" stroke="#63b8ff" points="296.88,-265.35 300.38,-275.35 303.88,-265.35 296.88,-265.35"/>
</a>
</g>
</g>
<!-- Node3 -->
<g id="Node000003" class="node">
<title>Node3</title>
<g id="a_Node000003"><a xlink:href="_virtual_c64_8h.html" target="_top" xlink:title=" ">
<polygon fill="white" stroke="#666666" points="368.75,-174.75 232,-174.75 232,-144.25 368.75,-144.25 368.75,-174.75"/>
<text text-anchor="start" x="240" y="-161.25" font-family="Helvetica,sans-Serif" font-size="10.00">/Users/hoff/Retro/virtualc64</text>
<text text-anchor="middle" x="300.38" y="-150" font-family="Helvetica,sans-Serif" font-size="10.00">/Emulator/VirtualC64.h</text>
</a>
</g>
</g>
<!-- Node2&#45;&gt;Node3 -->
<g id="edge2_Node000002_Node000003" class="edge">
<title>Node2&#45;&gt;Node3</title>
<g id="a_edge2_Node000002_Node000003"><a xlink:title=" ">
<path fill="none" stroke="#63b8ff" d="M300.38,-199.06C300.38,-190.89 300.38,-182.16 300.38,-175.08"/>
<polygon fill="#63b8ff" stroke="#63b8ff" points="296.88,-198.85 300.38,-208.85 303.88,-198.85 296.88,-198.85"/>
</a>
</g>
</g>
<!-- Node4 -->
<g id="Node000004" class="node">
<title>Node4</title>
<g id="a_Node000004"><a xlink:href="_headless_8h.html" target="_top" xlink:title=" ">
<polygon fill="white" stroke="#666666" points="136.75,-102.62 0,-102.62 0,-72.12 136.75,-72.12 136.75,-102.62"/>
<text text-anchor="start" x="8" y="-89.12" font-family="Helvetica,sans-Serif" font-size="10.00">/Users/hoff/Retro/virtualc64</text>
<text text-anchor="middle" x="68.38" y="-77.88" font-family="Helvetica,sans-Serif" font-size="10.00">/Emulator/Headless.h</text>
</a>
</g>
</g>
<!-- Node3&#45;&gt;Node4 -->
<g id="edge3_Node000003_Node000004" class="edge">
<title>Node3&#45;&gt;Node4</title>
<g id="a_edge3_Node000003_Node000004"><a xlink:title=" ">
<path fill="none" stroke="#63b8ff" d="M241.2,-140.61C202.7,-128.98 153.12,-113.99 116.95,-103.06"/>
<polygon fill="#63b8ff" stroke="#63b8ff" points="239.71,-143.82 250.29,-143.36 241.73,-137.12 239.71,-143.82"/>
</a>
</g>
</g>
<!-- Node6 -->
<g id="Node000006" class="node">
<title>Node6</title>
<g id="a_Node000006"><a xlink:href="_script_8cpp.html" target="_top" xlink:title=" ">
<polygon fill="white" stroke="#666666" points="291.75,-102.62 155,-102.62 155,-72.12 291.75,-72.12 291.75,-102.62"/>
<text text-anchor="start" x="163" y="-89.12" font-family="Helvetica,sans-Serif" font-size="10.00">/Users/hoff/Retro/virtualc64</text>
<text text-anchor="middle" x="223.38" y="-77.88" font-family="Helvetica,sans-Serif" font-size="10.00">/Emulator/Media/Script.cpp</text>
</a>
</g>
</g>
<!-- Node3&#45;&gt;Node6 -->
<g id="edge5_Node000003_Node000006" class="edge">
<title>Node3&#45;&gt;Node6</title>
<g id="a_edge5_Node000003_Node000006"><a xlink:title=" ">
<path fill="none" stroke="#63b8ff" d="M276.13,-136.42C264.11,-125.48 249.94,-112.57 239.31,-102.89"/>
<polygon fill="#63b8ff" stroke="#63b8ff" points="273.55,-138.81 283.3,-142.95 278.26,-133.63 273.55,-138.81"/>
</a>
</g>
</g>
<!-- Node7 -->
<g id="Node000007" class="node">
<title>Node7</title>
<g id="a_Node000007"><a xlink:href="_retro_shell_8cpp.html" target="_top" xlink:title=" ">
<polygon fill="white" stroke="#666666" points="446.75,-108.25 310,-108.25 310,-66.5 446.75,-66.5 446.75,-108.25"/>
<text text-anchor="start" x="318" y="-94.75" font-family="Helvetica,sans-Serif" font-size="10.00">/Users/hoff/Retro/virtualc64</text>
<text text-anchor="start" x="318" y="-83.5" font-family="Helvetica,sans-Serif" font-size="10.00">/Emulator/Misc/RetroShell</text>
<text text-anchor="middle" x="378.38" y="-72.25" font-family="Helvetica,sans-Serif" font-size="10.00">/RetroShell.cpp</text>
</a>
</g>
</g>
<!-- Node3&#45;&gt;Node7 -->
<g id="edge6_Node000003_Node000007" class="edge">
<title>Node3&#45;&gt;Node7</title>
<g id="a_edge6_Node000003_Node000007"><a xlink:title=" ">
<path fill="none" stroke="#63b8ff" d="M325.07,-136.29C334.89,-127.47 346.12,-117.37 355.73,-108.74"/>
<polygon fill="#63b8ff" stroke="#63b8ff" points="322.76,-133.67 317.66,-142.96 327.44,-138.88 322.76,-133.67"/>
</a>
</g>
</g>
<!-- Node8 -->
<g id="Node000008" class="node">
<title>Node8</title>
<g id="a_Node000008"><a xlink:href="_virtual_c64_8cpp.html" target="_top" xlink:title=" ">
<polygon fill="white" stroke="#666666" points="601.75,-102.62 465,-102.62 465,-72.12 601.75,-72.12 601.75,-102.62"/>
<text text-anchor="start" x="473" y="-89.12" font-family="Helvetica,sans-Serif" font-size="10.00">/Users/hoff/Retro/virtualc64</text>
<text text-anchor="middle" x="533.38" y="-77.88" font-family="Helvetica,sans-Serif" font-size="10.00">/Emulator/VirtualC64.cpp</text>
</a>
</g>
</g>
<!-- Node3&#45;&gt;Node8 -->
<g id="edge7_Node000003_Node000008" class="edge">
<title>Node3&#45;&gt;Node8</title>
<g id="a_edge7_Node000003_Node000008"><a xlink:title=" ">
<path fill="none" stroke="#63b8ff" d="M359.81,-140.61C398.47,-128.98 448.26,-113.99 484.59,-103.06"/>
<polygon fill="#63b8ff" stroke="#63b8ff" points="359.24,-137.13 350.67,-143.36 361.25,-143.83 359.24,-137.13"/>
</a>
</g>
</g>
<!-- Node5 -->
<g id="Node000005" class="node">
<title>Node5</title>
<g id="a_Node000005"><a xlink:href="_headless_8cpp.html" target="_top" xlink:title=" ">
<polygon fill="white" stroke="#666666" points="136.75,-30.5 0,-30.5 0,0 136.75,0 136.75,-30.5"/>
<text text-anchor="start" x="8" y="-17" font-family="Helvetica,sans-Serif" font-size="10.00">/Users/hoff/Retro/virtualc64</text>
<text text-anchor="middle" x="68.38" y="-5.75" font-family="Helvetica,sans-Serif" font-size="10.00">/Emulator/Headless.cpp</text>
</a>
</g>
</g>
<!-- Node4&#45;&gt;Node5 -->
<g id="edge4_Node000004_Node000005" class="edge">
<title>Node4&#45;&gt;Node5</title>
<g id="a_edge4_Node000004_Node000005"><a xlink:title=" ">
<path fill="none" stroke="#63b8ff" d="M68.38,-60.4C68.38,-50.39 68.38,-39.31 68.38,-30.76"/>
<polygon fill="#63b8ff" stroke="#63b8ff" points="64.88,-60.33 68.38,-70.33 71.88,-60.33 64.88,-60.33"/>
</a>
</g>
</g>
</g>
</svg>
