<?xml version="1.0" encoding="UTF-8" standalone="no"?>
<!DOCTYPE svg PUBLIC "-//W3C//DTD SVG 1.1//EN"
 "http://www.w3.org/Graphics/SVG/1.1/DTD/svg11.dtd">
<!-- Generated by graphviz version 10.0.1 (20240210.2158)
 -->
<!-- Title: /Users/hoff/Retro/virtualc64/Emulator/Base/CoreComponent.h Pages: 1 -->
<svg width="1426pt" height="536pt"
 viewBox="0.00 0.00 1426.00 535.75" xmlns="http://www.w3.org/2000/svg" xmlns:xlink="http://www.w3.org/1999/xlink">
<g id="graph0" class="graph" transform="scale(1 1) rotate(0) translate(4 531.75)">
<title>/Users/hoff/Retro/virtualc64/Emulator/Base/CoreComponent.h</title>
<!-- Node1 -->
<g id="Node000001" class="node">
<title>Node1</title>
<g id="a_Node000001"><a xlink:title=" ">
<polygon fill="#999999" stroke="#666666" points="962.75,-527.75 796.75,-527.75 796.75,-497.25 962.75,-497.25 962.75,-527.75"/>
<text text-anchor="start" x="804.75" y="-514.25" font-family="Helvetica,sans-Serif" font-size="10.00">/Users/hoff/Retro/virtualc64</text>
<text text-anchor="middle" x="879.75" y="-503" font-family="Helvetica,sans-Serif" font-size="10.00">/Emulator/Base/CoreComponent.h</text>
</a>
</g>
</g>
<!-- Node2 -->
<g id="Node000002" class="node">
<title>Node2</title>
<g id="a_Node000002"><a xlink:href="_emulator_types_8h.html" target="_top" xlink:title=" ">
<polygon fill="white" stroke="#666666" points="89.5,-295.5 0,-295.5 0,-276.25 89.5,-276.25 89.5,-295.5"/>
<text text-anchor="middle" x="44.75" y="-282" font-family="Helvetica,sans-Serif" font-size="10.00">EmulatorTypes.h</text>
</a>
</g>
</g>
<!-- Node1&#45;&gt;Node2 -->
<g id="edge1_Node000001_Node000002" class="edge">
<title>Node1&#45;&gt;Node2</title>
<g id="a_edge1_Node000001_Node000002"><a xlink:title=" ">
<path fill="none" stroke="#63b8ff" d="M796.58,-511.11C608.75,-509.51 163.83,-501.48 109.75,-461.25 59.89,-424.16 48.26,-344.38 45.56,-306.99"/>
<polygon fill="#63b8ff" stroke="#63b8ff" points="49.06,-306.97 45.01,-297.18 42.08,-307.36 49.06,-306.97"/>
</a>
</g>
</g>
<!-- Node10 -->
<g id="Node000010" class="node">
<title>Node10</title>
<g id="a_Node000010"><a xlink:href="_thread_types_8h.html" target="_top" xlink:title=" ">
<polygon fill="white" stroke="#666666" points="146,-240.25 65.5,-240.25 65.5,-221 146,-221 146,-240.25"/>
<text text-anchor="middle" x="105.75" y="-226.75" font-family="Helvetica,sans-Serif" font-size="10.00">ThreadTypes.h</text>
</a>
</g>
</g>
<!-- Node1&#45;&gt;Node10 -->
<g id="edge56_Node000001_Node000010" class="edge">
<title>Node1&#45;&gt;Node10</title>
<g id="a_edge56_Node000001_Node000010"><a xlink:title=" ">
<path fill="none" stroke="#63b8ff" d="M796.32,-507.53C599.71,-497.07 123.75,-464.78 123.75,-397.38 123.75,-397.38 123.75,-397.38 123.75,-340.12 123.75,-308.84 116.38,-273.16 111.07,-251.52"/>
<polygon fill="#63b8ff" stroke="#63b8ff" points="114.5,-250.83 108.63,-242.01 107.72,-252.57 114.5,-250.83"/>
</a>
</g>
</g>
<!-- Node11 -->
<g id="Node000011" class="node">
<title>Node11</title>
<g id="a_Node000011"><a xlink:href="_core_object_8h.html" target="_top" xlink:title=" ">
<polygon fill="white" stroke="#666666" points="517.62,-350.75 443.88,-350.75 443.88,-331.5 517.62,-331.5 517.62,-350.75"/>
<text text-anchor="middle" x="480.75" y="-337.25" font-family="Helvetica,sans-Serif" font-size="10.00">CoreObject.h</text>
</a>
</g>
</g>
<!-- Node1&#45;&gt;Node11 -->
<g id="edge12_Node000001_Node000011" class="edge">
<title>Node1&#45;&gt;Node11</title>
<g id="a_edge12_Node000001_Node000011"><a xlink:title=" ">
<path fill="none" stroke="#63b8ff" d="M845.04,-496.77C768.58,-464.31 586.55,-387.04 512.7,-355.69"/>
<polygon fill="#63b8ff" stroke="#63b8ff" points="514.18,-352.51 503.6,-351.83 511.44,-358.96 514.18,-352.51"/>
</a>
</g>
</g>
<!-- Node18 -->
<g id="Node000018" class="node">
<title>Node18</title>
<g id="a_Node000018"><a xlink:href="_synchronizable_8h.html" target="_top" xlink:title=" ">
<polygon fill="white" stroke="#666666" points="925.25,-406 834.25,-406 834.25,-386.75 925.25,-386.75 925.25,-406"/>
<text text-anchor="middle" x="879.75" y="-392.5" font-family="Helvetica,sans-Serif" font-size="10.00">Synchronizable.h</text>
</a>
</g>
</g>
<!-- Node1&#45;&gt;Node18 -->
<g id="edge22_Node000001_Node000018" class="edge">
<title>Node1&#45;&gt;Node18</title>
<g id="a_edge22_Node000001_Node000018"><a xlink:title=" ">
<path fill="none" stroke="#63b8ff" d="M879.75,-497.05C879.75,-477 879.75,-440.65 879.75,-417.82"/>
<polygon fill="#63b8ff" stroke="#63b8ff" points="883.25,-417.96 879.75,-407.96 876.25,-417.96 883.25,-417.96"/>
</a>
</g>
</g>
<!-- Node19 -->
<g id="Node000019" class="node">
<title>Node19</title>
<g id="a_Node000019"><a xlink:href="_concurrency_8h.html" target="_top" xlink:title=" ">
<polygon fill="white" stroke="#666666" points="992.88,-350.75 914.62,-350.75 914.62,-331.5 992.88,-331.5 992.88,-350.75"/>
<text text-anchor="middle" x="953.75" y="-337.25" font-family="Helvetica,sans-Serif" font-size="10.00">Concurrency.h</text>
</a>
</g>
</g>
<!-- Node1&#45;&gt;Node19 -->
<g id="edge53_Node000001_Node000019" class="edge">
<title>Node1&#45;&gt;Node19</title>
<g id="a_edge53_Node000001_Node000019"><a xlink:title=" ">
<path fill="none" stroke="#63b8ff" d="M888.26,-496.85C899.66,-476.81 920.04,-439.52 933.75,-406 939.68,-391.49 944.92,-374.54 948.54,-361.75"/>
<polygon fill="#63b8ff" stroke="#63b8ff" points="951.83,-363 951.09,-352.43 945.08,-361.15 951.83,-363"/>
</a>
</g>
</g>
<!-- Node24 -->
<g id="Node000024" class="node">
<title>Node24</title>
<g id="a_Node000024"><a xlink:href="_serializable_8h.html" target="_top" xlink:title=" ">
<polygon fill="white" stroke="#666666" points="1319,-461.25 1244.5,-461.25 1244.5,-442 1319,-442 1319,-461.25"/>
<text text-anchor="middle" x="1281.75" y="-447.75" font-family="Helvetica,sans-Serif" font-size="10.00">Serializable.h</text>
</a>
</g>
</g>
<!-- Node1&#45;&gt;Node24 -->
<g id="edge29_Node000001_Node000024" class="edge">
<title>Node1&#45;&gt;Node24</title>
<g id="a_edge29_Node000001_Node000024"><a xlink:title=" ">
<path fill="none" stroke="#63b8ff" d="M963.17,-500.16C1034.34,-490.35 1139.36,-475.52 1230.75,-461.25 1231.43,-461.14 1232.11,-461.04 1232.8,-460.93"/>
<polygon fill="#63b8ff" stroke="#63b8ff" points="1233.36,-464.38 1242.67,-459.33 1232.24,-457.47 1233.36,-464.38"/>
</a>
</g>
</g>
<!-- Node25 -->
<g id="Node000025" class="node">
<title>Node25</title>
<g id="a_Node000025"><a xlink:href="_configurable_8h.html" target="_top" xlink:title=" ">
<polygon fill="white" stroke="#666666" points="419.25,-461.25 340.25,-461.25 340.25,-442 419.25,-442 419.25,-461.25"/>
<text text-anchor="middle" x="379.75" y="-447.75" font-family="Helvetica,sans-Serif" font-size="10.00">Configurable.h</text>
</a>
</g>
</g>
<!-- Node1&#45;&gt;Node25 -->
<g id="edge30_Node000001_Node000025" class="edge">
<title>Node1&#45;&gt;Node25</title>
<g id="a_edge30_Node000001_Node000025"><a xlink:title=" ">
<path fill="none" stroke="#63b8ff" d="M796.34,-501.68C692.21,-489.42 517.32,-468.82 431.05,-458.67"/>
<polygon fill="#63b8ff" stroke="#63b8ff" points="431.57,-455.2 421.23,-457.51 430.75,-462.15 431.57,-455.2"/>
</a>
</g>
</g>
<!-- Node30 -->
<g id="Node000030" class="node">
<title>Node30</title>
<g id="a_Node000030"><a xlink:title=" ">
<polygon fill="#e0e0e0" stroke="#999999" points="1104.25,-185 1061.25,-185 1061.25,-165.75 1104.25,-165.75 1104.25,-185"/>
<text text-anchor="middle" x="1082.75" y="-171.5" font-family="Helvetica,sans-Serif" font-size="10.00">vector</text>
</a>
</g>
</g>
<!-- Node1&#45;&gt;Node30 -->
<g id="edge57_Node000001_Node000030" class="edge">
<title>Node1&#45;&gt;Node30</title>
<g id="a_edge57_Node000001_Node000030"><a xlink:title=" ">
<path fill="none" stroke="#63b8ff" d="M963.05,-500.14C1062.85,-484.14 1216.75,-450.81 1216.75,-397.38 1216.75,-397.38 1216.75,-397.38 1216.75,-284.88 1216.75,-232.86 1155.02,-201.47 1115.35,-186.67"/>
<polygon fill="#63b8ff" stroke="#63b8ff" points="1116.6,-183.4 1106,-183.36 1114.26,-190 1116.6,-183.4"/>
</a>
</g>
</g>
<!-- Node38 -->
<g id="Node000038" class="node">
<title>Node38</title>
<g id="a_Node000038"><a xlink:href="_suspendable_8h.html" target="_top" xlink:title=" ">
<polygon fill="white" stroke="#666666" points="1418,-461.25 1337.5,-461.25 1337.5,-442 1418,-442 1418,-461.25"/>
<text text-anchor="middle" x="1377.75" y="-447.75" font-family="Helvetica,sans-Serif" font-size="10.00">Suspendable.h</text>
</a>
</g>
</g>
<!-- Node1&#45;&gt;Node38 -->
<g id="edge54_Node000001_Node000038" class="edge">
<title>Node1&#45;&gt;Node38</title>
<g id="a_edge54_Node000001_Node000038"><a xlink:title=" ">
<path fill="none" stroke="#63b8ff" d="M962.92,-503.66C1050.54,-495.06 1192.82,-480.14 1325.92,-461.43"/>
<polygon fill="#63b8ff" stroke="#63b8ff" points="1326.21,-464.92 1335.62,-460.05 1325.23,-457.99 1326.21,-464.92"/>
</a>
</g>
</g>
<!-- Node3 -->
<g id="Node000003" class="node">
<title>Node3</title>
<g id="a_Node000003"><a xlink:href="_aliases_8h.html" target="_top" xlink:title=" ">
<polygon fill="white" stroke="#666666" points="166,-185 109.5,-185 109.5,-165.75 166,-165.75 166,-185"/>
<text text-anchor="middle" x="137.75" y="-171.5" font-family="Helvetica,sans-Serif" font-size="10.00">Aliases.h</text>
</a>
</g>
</g>
<!-- Node2&#45;&gt;Node3 -->
<g id="edge2_Node000002_Node000003" class="edge">
<title>Node2&#45;&gt;Node3</title>
<g id="a_edge2_Node000002_Node000003"><a xlink:title=" ">
<path fill="none" stroke="#63b8ff" d="M37.16,-275.92C27.1,-262.88 11.91,-238.36 23.75,-221 40.29,-196.76 72.15,-185.69 97.99,-180.63"/>
<polygon fill="#63b8ff" stroke="#63b8ff" points="98.24,-184.14 107.51,-179.01 97.06,-177.24 98.24,-184.14"/>
</a>
</g>
</g>
<!-- Node9 -->
<g id="Node000009" class="node">
<title>Node9</title>
<g id="a_Node000009"><a xlink:href="_reflection_8h.html" target="_top" xlink:title=" ">
<polygon fill="white" stroke="#666666" points="253,-185 184.5,-185 184.5,-165.75 253,-165.75 253,-185"/>
<text text-anchor="middle" x="218.75" y="-171.5" font-family="Helvetica,sans-Serif" font-size="10.00">Reflection.h</text>
</a>
</g>
</g>
<!-- Node2&#45;&gt;Node9 -->
<g id="edge8_Node000002_Node000009" class="edge">
<title>Node2&#45;&gt;Node9</title>
<g id="a_edge8_Node000002_Node000009"><a xlink:title=" ">
<path fill="none" stroke="#63b8ff" d="M43.73,-276.18C42.64,-262.59 42.69,-236.28 56.75,-221 64.79,-212.27 128.05,-196.61 173.09,-186.36"/>
<polygon fill="#63b8ff" stroke="#63b8ff" points="173.64,-189.82 182.63,-184.21 172.1,-182.99 173.64,-189.82"/>
</a>
</g>
</g>
<!-- Node2&#45;&gt;Node10 -->
<g id="edge9_Node000002_Node000010" class="edge">
<title>Node2&#45;&gt;Node10</title>
<g id="a_edge9_Node000002_Node000010"><a xlink:title=" ">
<path fill="none" stroke="#63b8ff" d="M55.1,-275.84C63.83,-268.22 76.54,-257.12 87.05,-247.95"/>
<polygon fill="#63b8ff" stroke="#63b8ff" points="89.18,-250.73 94.41,-241.52 84.58,-245.46 89.18,-250.73"/>
</a>
</g>
</g>
<!-- Node4 -->
<g id="Node000004" class="node">
<title>Node4</title>
<g id="a_Node000004"><a xlink:href="_macros_8h.html" target="_top" xlink:title=" ">
<polygon fill="white" stroke="#666666" points="270,-129.75 213.5,-129.75 213.5,-110.5 270,-110.5 270,-129.75"/>
<text text-anchor="middle" x="241.75" y="-116.25" font-family="Helvetica,sans-Serif" font-size="10.00">Macros.h</text>
</a>
</g>
</g>
<!-- Node3&#45;&gt;Node4 -->
<g id="edge3_Node000003_Node000004" class="edge">
<title>Node3&#45;&gt;Node4</title>
<g id="a_edge3_Node000003_Node000004"><a xlink:title=" ">
<path fill="none" stroke="#63b8ff" d="M155.39,-165.34C171.38,-157.16 195.21,-144.96 213.79,-135.44"/>
<polygon fill="#63b8ff" stroke="#63b8ff" points="215.37,-138.57 222.67,-130.89 212.18,-132.33 215.37,-138.57"/>
</a>
</g>
</g>
<!-- Node5 -->
<g id="Node000005" class="node">
<title>Node5</title>
<g id="a_Node000005"><a xlink:href="_types_8h.html" target="_top" xlink:title=" ">
<polygon fill="white" stroke="#666666" points="982,-74.5 931.5,-74.5 931.5,-55.25 982,-55.25 982,-74.5"/>
<text text-anchor="middle" x="956.75" y="-61" font-family="Helvetica,sans-Serif" font-size="10.00">Types.h</text>
</a>
</g>
</g>
<!-- Node4&#45;&gt;Node5 -->
<g id="edge4_Node000004_Node000005" class="edge">
<title>Node4&#45;&gt;Node5</title>
<g id="a_edge4_Node000004_Node000005"><a xlink:title=" ">
<path fill="none" stroke="#63b8ff" d="M270.22,-117C382.44,-108.65 794.15,-77.98 919.98,-68.61"/>
<polygon fill="#63b8ff" stroke="#63b8ff" points="920.02,-72.12 929.73,-67.89 919.5,-65.14 920.02,-72.12"/>
</a>
</g>
</g>
<!-- Node6 -->
<g id="Node000006" class="node">
<title>Node6</title>
<g id="a_Node000006"><a xlink:title=" ">
<polygon fill="#e0e0e0" stroke="#999999" points="914.25,-19.25 847.25,-19.25 847.25,0 914.25,0 914.25,-19.25"/>
<text text-anchor="middle" x="880.75" y="-5.75" font-family="Helvetica,sans-Serif" font-size="10.00">sys/types.h</text>
</a>
</g>
</g>
<!-- Node5&#45;&gt;Node6 -->
<g id="edge5_Node000005_Node000006" class="edge">
<title>Node5&#45;&gt;Node6</title>
<g id="a_edge5_Node000005_Node000006"><a xlink:title=" ">
<path fill="none" stroke="#63b8ff" d="M943.86,-54.84C932.72,-47.04 916.38,-35.59 903.11,-26.29"/>
<polygon fill="#63b8ff" stroke="#63b8ff" points="905.14,-23.44 894.95,-20.57 901.13,-29.18 905.14,-23.44"/>
</a>
</g>
</g>
<!-- Node7 -->
<g id="Node000007" class="node">
<title>Node7</title>
<g id="a_Node000007"><a xlink:title=" ">
<polygon fill="#e0e0e0" stroke="#999999" points="980.88,-19.25 932.62,-19.25 932.62,0 980.88,0 980.88,-19.25"/>
<text text-anchor="middle" x="956.75" y="-5.75" font-family="Helvetica,sans-Serif" font-size="10.00">stdint.h</text>
</a>
</g>
</g>
<!-- Node5&#45;&gt;Node7 -->
<g id="edge6_Node000005_Node000007" class="edge">
<title>Node5&#45;&gt;Node7</title>
<g id="a_edge6_Node000005_Node000007"><a xlink:title=" ">
<path fill="none" stroke="#63b8ff" d="M956.75,-55.08C956.75,-48.57 956.75,-39.42 956.75,-31.12"/>
<polygon fill="#63b8ff" stroke="#63b8ff" points="960.25,-31.12 956.75,-21.12 953.25,-31.12 960.25,-31.12"/>
</a>
</g>
</g>
<!-- Node8 -->
<g id="Node000008" class="node">
<title>Node8</title>
<g id="a_Node000008"><a xlink:title=" ">
<polygon fill="#e0e0e0" stroke="#999999" points="1054.62,-19.25 998.88,-19.25 998.88,0 1054.62,0 1054.62,-19.25"/>
<text text-anchor="middle" x="1026.75" y="-5.75" font-family="Helvetica,sans-Serif" font-size="10.00">stdbool.h</text>
</a>
</g>
</g>
<!-- Node5&#45;&gt;Node8 -->
<g id="edge7_Node000005_Node000008" class="edge">
<title>Node5&#45;&gt;Node8</title>
<g id="a_edge7_Node000005_Node000008"><a xlink:title=" ">
<path fill="none" stroke="#63b8ff" d="M968.62,-54.84C978.84,-47.07 993.82,-35.67 1006.01,-26.4"/>
<polygon fill="#63b8ff" stroke="#63b8ff" points="1008.01,-29.28 1013.85,-20.44 1003.77,-23.71 1008.01,-29.28"/>
</a>
</g>
</g>
<!-- Node10&#45;&gt;Node3 -->
<g id="edge10_Node000010_Node000003" class="edge">
<title>Node10&#45;&gt;Node3</title>
<g id="a_edge10_Node000010_Node000003"><a xlink:title=" ">
<path fill="none" stroke="#63b8ff" d="M111.03,-220.83C115.22,-213.86 121.23,-203.87 126.48,-195.12"/>
<polygon fill="#63b8ff" stroke="#63b8ff" points="129.42,-197.03 131.57,-186.66 123.42,-193.43 129.42,-197.03"/>
</a>
</g>
</g>
<!-- Node10&#45;&gt;Node9 -->
<g id="edge11_Node000010_Node000009" class="edge">
<title>Node10&#45;&gt;Node9</title>
<g id="a_edge11_Node000010_Node000009"><a xlink:title=" ">
<path fill="none" stroke="#63b8ff" d="M124.92,-220.59C142.53,-212.29 168.91,-199.86 189.21,-190.29"/>
<polygon fill="#63b8ff" stroke="#63b8ff" points="190.56,-193.53 198.12,-186.1 187.58,-187.19 190.56,-193.53"/>
</a>
</g>
</g>
<!-- Node12 -->
<g id="Node000012" class="node">
<title>Node12</title>
<g id="a_Node000012"><a xlink:href="_error_8h.html" target="_top" xlink:title=" ">
<polygon fill="white" stroke="#666666" points="424,-295.5 379.5,-295.5 379.5,-276.25 424,-276.25 424,-295.5"/>
<text text-anchor="middle" x="401.75" y="-282" font-family="Helvetica,sans-Serif" font-size="10.00">Error.h</text>
</a>
</g>
</g>
<!-- Node11&#45;&gt;Node12 -->
<g id="edge13_Node000011_Node000012" class="edge">
<title>Node11&#45;&gt;Node12</title>
<g id="a_edge13_Node000011_Node000012"><a xlink:title=" ">
<path fill="none" stroke="#63b8ff" d="M467.35,-331.09C455.66,-323.21 438.45,-311.61 424.59,-302.27"/>
<polygon fill="#63b8ff" stroke="#63b8ff" points="426.72,-299.49 416.47,-296.8 422.81,-305.29 426.72,-299.49"/>
</a>
</g>
</g>
<!-- Node16 -->
<g id="Node000016" class="node">
<title>Node16</title>
<g id="a_Node000016"><a xlink:href="_inspectable_8h.html" target="_top" xlink:title=" ">
<polygon fill="white" stroke="#666666" points="518,-295.5 443.5,-295.5 443.5,-276.25 518,-276.25 518,-295.5"/>
<text text-anchor="middle" x="480.75" y="-282" font-family="Helvetica,sans-Serif" font-size="10.00">Inspectable.h</text>
</a>
</g>
</g>
<!-- Node11&#45;&gt;Node16 -->
<g id="edge20_Node000011_Node000016" class="edge">
<title>Node11&#45;&gt;Node16</title>
<g id="a_edge20_Node000011_Node000016"><a xlink:title=" ">
<path fill="none" stroke="#63b8ff" d="M480.75,-331.33C480.75,-324.82 480.75,-315.67 480.75,-307.37"/>
<polygon fill="#63b8ff" stroke="#63b8ff" points="484.25,-307.37 480.75,-297.37 477.25,-307.37 484.25,-307.37"/>
</a>
</g>
</g>
<!-- Node13 -->
<g id="Node000013" class="node">
<title>Node13</title>
<g id="a_Node000013"><a xlink:href="_error_types_8h.html" target="_top" xlink:title=" ">
<polygon fill="white" stroke="#666666" points="349.5,-240.25 278,-240.25 278,-221 349.5,-221 349.5,-240.25"/>
<text text-anchor="middle" x="313.75" y="-226.75" font-family="Helvetica,sans-Serif" font-size="10.00">ErrorTypes.h</text>
</a>
</g>
</g>
<!-- Node12&#45;&gt;Node13 -->
<g id="edge14_Node000012_Node000013" class="edge">
<title>Node12&#45;&gt;Node13</title>
<g id="a_edge14_Node000012_Node000013"><a xlink:title=" ">
<path fill="none" stroke="#63b8ff" d="M386.82,-275.84C373.55,-267.81 353.88,-255.91 338.3,-246.48"/>
<polygon fill="#63b8ff" stroke="#63b8ff" points="340.41,-243.67 330.05,-241.49 336.79,-249.66 340.41,-243.67"/>
</a>
</g>
</g>
<!-- Node14 -->
<g id="Node000014" class="node">
<title>Node14</title>
<g id="a_Node000014"><a xlink:href="_exception_8h.html" target="_top" xlink:title=" ">
<polygon fill="white" stroke="#666666" points="435.62,-240.25 367.88,-240.25 367.88,-221 435.62,-221 435.62,-240.25"/>
<text text-anchor="middle" x="401.75" y="-226.75" font-family="Helvetica,sans-Serif" font-size="10.00">Exception.h</text>
</a>
</g>
</g>
<!-- Node12&#45;&gt;Node14 -->
<g id="edge17_Node000012_Node000014" class="edge">
<title>Node12&#45;&gt;Node14</title>
<g id="a_edge17_Node000012_Node000014"><a xlink:title=" ">
<path fill="none" stroke="#63b8ff" d="M401.75,-276.08C401.75,-269.57 401.75,-260.42 401.75,-252.12"/>
<polygon fill="#63b8ff" stroke="#63b8ff" points="405.25,-252.12 401.75,-242.12 398.25,-252.12 405.25,-252.12"/>
</a>
</g>
</g>
<!-- Node13&#45;&gt;Node3 -->
<g id="edge15_Node000013_Node000003" class="edge">
<title>Node13&#45;&gt;Node3</title>
<g id="a_edge15_Node000013_Node000003"><a xlink:title=" ">
<path fill="none" stroke="#63b8ff" d="M283.89,-220.59C254.5,-211.7 209.45,-198.07 177.14,-188.29"/>
<polygon fill="#63b8ff" stroke="#63b8ff" points="178.33,-184.99 167.74,-185.45 176.3,-191.69 178.33,-184.99"/>
</a>
</g>
</g>
<!-- Node13&#45;&gt;Node9 -->
<g id="edge16_Node000013_Node000009" class="edge">
<title>Node13&#45;&gt;Node9</title>
<g id="a_edge16_Node000013_Node000009"><a xlink:title=" ">
<path fill="none" stroke="#63b8ff" d="M297.63,-220.59C283.17,-212.48 261.67,-200.43 244.77,-190.96"/>
<polygon fill="#63b8ff" stroke="#63b8ff" points="246.7,-188.03 236.26,-186.19 243.28,-194.14 246.7,-188.03"/>
</a>
</g>
</g>
<!-- Node14&#45;&gt;Node5 -->
<g id="edge18_Node000014_Node000005" class="edge">
<title>Node14&#45;&gt;Node5</title>
<g id="a_edge18_Node000014_Node000005"><a xlink:title=" ">
<path fill="none" stroke="#63b8ff" d="M401.66,-220.69C402.04,-206.76 404.93,-179.99 420.75,-165.75 495,-98.91 811.23,-74.39 919.9,-67.85"/>
<polygon fill="#63b8ff" stroke="#63b8ff" points="919.93,-71.35 929.71,-67.27 919.53,-64.36 919.93,-71.35"/>
</a>
</g>
</g>
<!-- Node15 -->
<g id="Node000015" class="node">
<title>Node15</title>
<g id="a_Node000015"><a xlink:title=" ">
<polygon fill="#e0e0e0" stroke="#999999" points="487.75,-185 429.75,-185 429.75,-165.75 487.75,-165.75 487.75,-185"/>
<text text-anchor="middle" x="458.75" y="-171.5" font-family="Helvetica,sans-Serif" font-size="10.00">exception</text>
</a>
</g>
</g>
<!-- Node14&#45;&gt;Node15 -->
<g id="edge19_Node000014_Node000015" class="edge">
<title>Node14&#45;&gt;Node15</title>
<g id="a_edge19_Node000014_Node000015"><a xlink:title=" ">
<path fill="none" stroke="#63b8ff" d="M411.42,-220.59C419.49,-213.05 431.22,-202.1 440.97,-192.98"/>
<polygon fill="#63b8ff" stroke="#63b8ff" points="443.2,-195.69 448.12,-186.31 438.42,-190.58 443.2,-195.69"/>
</a>
</g>
</g>
<!-- Node17 -->
<g id="Node000017" class="node">
<title>Node17</title>
<g id="a_Node000017"><a xlink:title=" ">
<polygon fill="#e0e0e0" stroke="#999999" points="507.5,-240.25 454,-240.25 454,-221 507.5,-221 507.5,-240.25"/>
<text text-anchor="middle" x="480.75" y="-226.75" font-family="Helvetica,sans-Serif" font-size="10.00">iostream</text>
</a>
</g>
</g>
<!-- Node16&#45;&gt;Node17 -->
<g id="edge21_Node000016_Node000017" class="edge">
<title>Node16&#45;&gt;Node17</title>
<g id="a_edge21_Node000016_Node000017"><a xlink:title=" ">
<path fill="none" stroke="#63b8ff" d="M480.75,-276.08C480.75,-269.57 480.75,-260.42 480.75,-252.12"/>
<polygon fill="#63b8ff" stroke="#63b8ff" points="484.25,-252.12 480.75,-242.12 477.25,-252.12 484.25,-252.12"/>
</a>
</g>
</g>
<!-- Node18&#45;&gt;Node19 -->
<g id="edge23_Node000018_Node000019" class="edge">
<title>Node18&#45;&gt;Node19</title>
<g id="a_edge23_Node000018_Node000019"><a xlink:title=" ">
<path fill="none" stroke="#63b8ff" d="M892.3,-386.34C903.21,-378.49 919.25,-366.95 932.21,-357.62"/>
<polygon fill="#63b8ff" stroke="#63b8ff" points="934.08,-360.59 940.15,-351.91 929.99,-354.91 934.08,-360.59"/>
</a>
</g>
</g>
<!-- Node20 -->
<g id="Node000020" class="node">
<title>Node20</title>
<g id="a_Node000020"><a xlink:href="_chrono_8h.html" target="_top" xlink:title=" ">
<polygon fill="white" stroke="#666666" points="981.62,-295.5 925.88,-295.5 925.88,-276.25 981.62,-276.25 981.62,-295.5"/>
<text text-anchor="middle" x="953.75" y="-282" font-family="Helvetica,sans-Serif" font-size="10.00">Chrono.h</text>
</a>
</g>
</g>
<!-- Node19&#45;&gt;Node20 -->
<g id="edge24_Node000019_Node000020" class="edge">
<title>Node19&#45;&gt;Node20</title>
<g id="a_edge24_Node000019_Node000020"><a xlink:title=" ">
<path fill="none" stroke="#63b8ff" d="M953.75,-331.33C953.75,-324.82 953.75,-315.67 953.75,-307.37"/>
<polygon fill="#63b8ff" stroke="#63b8ff" points="957.25,-307.37 953.75,-297.37 950.25,-307.37 957.25,-307.37"/>
</a>
</g>
</g>
<!-- Node22 -->
<g id="Node000022" class="node">
<title>Node22</title>
<g id="a_Node000022"><a xlink:title=" ">
<polygon fill="#e0e0e0" stroke="#999999" points="1042.25,-295.5 999.25,-295.5 999.25,-276.25 1042.25,-276.25 1042.25,-295.5"/>
<text text-anchor="middle" x="1020.75" y="-282" font-family="Helvetica,sans-Serif" font-size="10.00">thread</text>
</a>
</g>
</g>
<!-- Node19&#45;&gt;Node22 -->
<g id="edge27_Node000019_Node000022" class="edge">
<title>Node19&#45;&gt;Node22</title>
<g id="a_edge27_Node000019_Node000022"><a xlink:title=" ">
<path fill="none" stroke="#63b8ff" d="M965.12,-331.09C974.8,-323.4 988.95,-312.15 1000.56,-302.93"/>
<polygon fill="#63b8ff" stroke="#63b8ff" points="1002.72,-305.68 1008.37,-296.72 998.36,-300.2 1002.72,-305.68"/>
</a>
</g>
</g>
<!-- Node23 -->
<g id="Node000023" class="node">
<title>Node23</title>
<g id="a_Node000023"><a xlink:title=" ">
<polygon fill="#e0e0e0" stroke="#999999" points="1101.12,-295.5 1060.38,-295.5 1060.38,-276.25 1101.12,-276.25 1101.12,-295.5"/>
<text text-anchor="middle" x="1080.75" y="-282" font-family="Helvetica,sans-Serif" font-size="10.00">future</text>
</a>
</g>
</g>
<!-- Node19&#45;&gt;Node23 -->
<g id="edge28_Node000019_Node000023" class="edge">
<title>Node19&#45;&gt;Node23</title>
<g id="a_edge28_Node000019_Node000023"><a xlink:title=" ">
<path fill="none" stroke="#63b8ff" d="M975.29,-331.09C995.61,-322.57 1026.29,-309.71 1049.33,-300.05"/>
<polygon fill="#63b8ff" stroke="#63b8ff" points="1050.68,-303.28 1058.55,-296.18 1047.97,-296.82 1050.68,-303.28"/>
</a>
</g>
</g>
<!-- Node20&#45;&gt;Node5 -->
<g id="edge25_Node000020_Node000005" class="edge">
<title>Node20&#45;&gt;Node5</title>
<g id="a_edge25_Node000020_Node000005"><a xlink:title=" ">
<path fill="none" stroke="#63b8ff" d="M982.03,-278.02C984.64,-277.42 987.24,-276.82 989.75,-276.25 1065.09,-259.25 1111.12,-300.25 1159.75,-240.25 1217.48,-169.01 1065.53,-103.97 992.9,-77.91"/>
<polygon fill="#63b8ff" stroke="#63b8ff" points="994.41,-74.73 983.81,-74.72 992.08,-81.34 994.41,-74.73"/>
</a>
</g>
</g>
<!-- Node21 -->
<g id="Node000021" class="node">
<title>Node21</title>
<g id="a_Node000021"><a xlink:title=" ">
<polygon fill="#e0e0e0" stroke="#999999" points="1150.75,-240.25 1110.75,-240.25 1110.75,-221 1150.75,-221 1150.75,-240.25"/>
<text text-anchor="middle" x="1130.75" y="-226.75" font-family="Helvetica,sans-Serif" font-size="10.00">ctime</text>
</a>
</g>
</g>
<!-- Node20&#45;&gt;Node21 -->
<g id="edge26_Node000020_Node000021" class="edge">
<title>Node20&#45;&gt;Node21</title>
<g id="a_edge26_Node000020_Node000021"><a xlink:title=" ">
<path fill="none" stroke="#63b8ff" d="M981.8,-276.44C1013.8,-266.81 1066,-251.1 1099.34,-241.07"/>
<polygon fill="#63b8ff" stroke="#63b8ff" points="1100.27,-244.45 1108.84,-238.22 1098.25,-237.75 1100.27,-244.45"/>
</a>
</g>
</g>
<!-- Node25&#45;&gt;Node9 -->
<g id="edge34_Node000025_Node000009" class="edge">
<title>Node25&#45;&gt;Node9</title>
<g id="a_edge34_Node000025_Node000009"><a xlink:title=" ">
<path fill="none" stroke="#63b8ff" d="M340.03,-447.35C280.17,-440.01 173.75,-416.5 173.75,-342.12 173.75,-342.12 173.75,-342.12 173.75,-284.88 173.75,-251.19 192.49,-215.79 205.78,-194.93"/>
<polygon fill="#63b8ff" stroke="#63b8ff" points="208.64,-196.95 211.27,-186.68 202.82,-193.07 208.64,-196.95"/>
</a>
</g>
</g>
<!-- Node26 -->
<g id="Node000026" class="node">
<title>Node26</title>
<g id="a_Node000026"><a xlink:href="_option_types_8h.html" target="_top" xlink:title=" ">
<polygon fill="white" stroke="#666666" points="301.25,-350.75 222.25,-350.75 222.25,-331.5 301.25,-331.5 301.25,-350.75"/>
<text text-anchor="middle" x="261.75" y="-337.25" font-family="Helvetica,sans-Serif" font-size="10.00">OptionTypes.h</text>
</a>
</g>
</g>
<!-- Node25&#45;&gt;Node26 -->
<g id="edge31_Node000025_Node000026" class="edge">
<title>Node25&#45;&gt;Node26</title>
<g id="a_edge31_Node000025_Node000026"><a xlink:title=" ">
<path fill="none" stroke="#63b8ff" d="M370.09,-441.75C350.39,-423.63 305.26,-382.13 279.9,-358.82"/>
<polygon fill="#63b8ff" stroke="#63b8ff" points="282.38,-356.34 272.65,-352.15 277.65,-361.5 282.38,-356.34"/>
</a>
</g>
</g>
<!-- Node27 -->
<g id="Node000027" class="node">
<title>Node27</title>
<g id="a_Node000027"><a xlink:href="_defaults_8h.html" target="_top" xlink:title=" ">
<polygon fill="white" stroke="#666666" points="511.25,-406 450.25,-406 450.25,-386.75 511.25,-386.75 511.25,-406"/>
<text text-anchor="middle" x="480.75" y="-392.5" font-family="Helvetica,sans-Serif" font-size="10.00">Defaults.h</text>
</a>
</g>
</g>
<!-- Node25&#45;&gt;Node27 -->
<g id="edge35_Node000025_Node000027" class="edge">
<title>Node25&#45;&gt;Node27</title>
<g id="a_edge35_Node000025_Node000027"><a xlink:title=" ">
<path fill="none" stroke="#63b8ff" d="M396.88,-441.59C412.41,-433.41 435.55,-421.21 453.59,-411.69"/>
<polygon fill="#63b8ff" stroke="#63b8ff" points="454.98,-414.92 462.19,-407.16 451.72,-408.73 454.98,-414.92"/>
</a>
</g>
</g>
<!-- Node37 -->
<g id="Node000037" class="node">
<title>Node37</title>
<g id="a_Node000037"><a xlink:title=" ">
<polygon fill="#e0e0e0" stroke="#999999" points="407.62,-406 351.88,-406 351.88,-386.75 407.62,-386.75 407.62,-406"/>
<text text-anchor="middle" x="379.75" y="-392.5" font-family="Helvetica,sans-Serif" font-size="10.00">algorithm</text>
</a>
</g>
</g>
<!-- Node25&#45;&gt;Node37 -->
<g id="edge52_Node000025_Node000037" class="edge">
<title>Node25&#45;&gt;Node37</title>
<g id="a_edge52_Node000025_Node000037"><a xlink:title=" ">
<path fill="none" stroke="#63b8ff" d="M379.75,-441.83C379.75,-435.32 379.75,-426.17 379.75,-417.87"/>
<polygon fill="#63b8ff" stroke="#63b8ff" points="383.25,-417.87 379.75,-407.87 376.25,-417.87 383.25,-417.87"/>
</a>
</g>
</g>
<!-- Node26&#45;&gt;Node3 -->
<g id="edge32_Node000026_Node000003" class="edge">
<title>Node26&#45;&gt;Node3</title>
<g id="a_edge32_Node000026_Node000003"><a xlink:title=" ">
<path fill="none" stroke="#63b8ff" d="M255.08,-331.32C235.49,-305.44 177.79,-229.25 151.31,-194.28"/>
<polygon fill="#63b8ff" stroke="#63b8ff" points="154.19,-192.29 145.36,-186.43 148.61,-196.51 154.19,-192.29"/>
</a>
</g>
</g>
<!-- Node26&#45;&gt;Node9 -->
<g id="edge33_Node000026_Node000009" class="edge">
<title>Node26&#45;&gt;Node9</title>
<g id="a_edge33_Node000026_Node000009"><a xlink:title=" ">
<path fill="none" stroke="#63b8ff" d="M259.44,-331.32C252.76,-305.89 233.32,-231.85 223.94,-196.12"/>
<polygon fill="#63b8ff" stroke="#63b8ff" points="227.38,-195.47 221.46,-186.69 220.61,-197.25 227.38,-195.47"/>
</a>
</g>
</g>
<!-- Node27&#45;&gt;Node11 -->
<g id="edge36_Node000027_Node000011" class="edge">
<title>Node27&#45;&gt;Node11</title>
<g id="a_edge36_Node000027_Node000011"><a xlink:title=" ">
<path fill="none" stroke="#63b8ff" d="M480.75,-386.58C480.75,-380.07 480.75,-370.92 480.75,-362.62"/>
<polygon fill="#63b8ff" stroke="#63b8ff" points="484.25,-362.62 480.75,-352.62 477.25,-362.62 484.25,-362.62"/>
</a>
</g>
</g>
<!-- Node27&#45;&gt;Node19 -->
<g id="edge38_Node000027_Node000019" class="edge">
<title>Node27&#45;&gt;Node19</title>
<g id="a_edge38_Node000027_Node000019"><a xlink:title=" ">
<path fill="none" stroke="#63b8ff" d="M511.42,-391.92C590.99,-382.96 804.68,-358.91 902.99,-347.84"/>
<polygon fill="#63b8ff" stroke="#63b8ff" points="903.34,-351.32 912.89,-346.73 902.56,-344.37 903.34,-351.32"/>
</a>
</g>
</g>
<!-- Node27&#45;&gt;Node26 -->
<g id="edge37_Node000027_Node000026" class="edge">
<title>Node27&#45;&gt;Node26</title>
<g id="a_edge37_Node000027_Node000026"><a xlink:title=" ">
<path fill="none" stroke="#63b8ff" d="M449.84,-387.86C413.47,-379.02 352.66,-364.23 310.06,-353.87"/>
<polygon fill="#63b8ff" stroke="#63b8ff" points="311.12,-350.53 300.57,-351.56 309.46,-357.33 311.12,-350.53"/>
</a>
</g>
</g>
<!-- Node28 -->
<g id="Node000028" class="node">
<title>Node28</title>
<g id="a_Node000028"><a xlink:href="_i_o_utils_8h.html" target="_top" xlink:title=" ">
<polygon fill="white" stroke="#666666" points="795.25,-295.5 740.25,-295.5 740.25,-276.25 795.25,-276.25 795.25,-295.5"/>
<text text-anchor="middle" x="767.75" y="-282" font-family="Helvetica,sans-Serif" font-size="10.00">IOUtils.h</text>
</a>
</g>
</g>
<!-- Node27&#45;&gt;Node28 -->
<g id="edge39_Node000027_Node000028" class="edge">
<title>Node27&#45;&gt;Node28</title>
<g id="a_edge39_Node000027_Node000028"><a xlink:title=" ">
<path fill="none" stroke="#63b8ff" d="M504.73,-386.31C555.48,-367.12 673.94,-322.34 733,-300.01"/>
<polygon fill="#63b8ff" stroke="#63b8ff" points="734.11,-303.33 742.22,-296.52 731.63,-296.79 734.11,-303.33"/>
</a>
</g>
</g>
<!-- Node28&#45;&gt;Node5 -->
<g id="edge40_Node000028_Node000005" class="edge">
<title>Node28&#45;&gt;Node5</title>
<g id="a_edge40_Node000028_Node000005"><a xlink:title=" ">
<path fill="none" stroke="#63b8ff" d="M795.47,-281.42C838.75,-275.41 919.32,-261.63 937.75,-240.25 975.46,-196.49 967.72,-121.83 961.18,-86.1"/>
<polygon fill="#63b8ff" stroke="#63b8ff" points="964.61,-85.42 959.2,-76.31 957.75,-86.8 964.61,-85.42"/>
</a>
</g>
</g>
<!-- Node28&#45;&gt;Node17 -->
<g id="edge48_Node000028_Node000017" class="edge">
<title>Node28&#45;&gt;Node17</title>
<g id="a_edge48_Node000028_Node000017"><a xlink:title=" ">
<path fill="none" stroke="#63b8ff" d="M739.79,-280.46C695.23,-273.3 605.13,-258.35 518.88,-240.59"/>
<polygon fill="#63b8ff" stroke="#63b8ff" points="519.82,-237.21 509.32,-238.6 518.4,-244.06 519.82,-237.21"/>
</a>
</g>
</g>
<!-- Node29 -->
<g id="Node000029" class="node">
<title>Node29</title>
<g id="a_Node000029"><a xlink:href="_string_utils_8h.html" target="_top" xlink:title=" ">
<polygon fill="white" stroke="#666666" points="1054.75,-240.25 984.75,-240.25 984.75,-221 1054.75,-221 1054.75,-240.25"/>
<text text-anchor="middle" x="1019.75" y="-226.75" font-family="Helvetica,sans-Serif" font-size="10.00">StringUtils.h</text>
</a>
</g>
</g>
<!-- Node28&#45;&gt;Node29 -->
<g id="edge41_Node000028_Node000029" class="edge">
<title>Node28&#45;&gt;Node29</title>
<g id="a_edge41_Node000028_Node000029"><a xlink:title=" ">
<path fill="none" stroke="#63b8ff" d="M795.68,-278.97C838.57,-269.91 921.13,-252.46 973.17,-241.47"/>
<polygon fill="#63b8ff" stroke="#63b8ff" points="973.89,-244.89 982.95,-239.4 972.44,-238.04 973.89,-244.89"/>
</a>
</g>
</g>
<!-- Node28&#45;&gt;Node30 -->
<g id="edge51_Node000028_Node000030" class="edge">
<title>Node28&#45;&gt;Node30</title>
<g id="a_edge51_Node000028_Node000030"><a xlink:title=" ">
<path fill="none" stroke="#63b8ff" d="M795.66,-282.37C865.5,-275.87 1043.63,-257.75 1063.75,-240.25 1076.18,-229.45 1080.66,-210.92 1082.19,-196.59"/>
<polygon fill="#63b8ff" stroke="#63b8ff" points="1085.66,-197.09 1082.8,-186.89 1078.68,-196.65 1085.66,-197.09"/>
</a>
</g>
</g>
<!-- Node31 -->
<g id="Node000031" class="node">
<title>Node31</title>
<g id="a_Node000031"><a xlink:title=" ">
<polygon fill="#e0e0e0" stroke="#999999" points="646.25,-240.25 603.25,-240.25 603.25,-221 646.25,-221 646.25,-240.25"/>
<text text-anchor="middle" x="624.75" y="-226.75" font-family="Helvetica,sans-Serif" font-size="10.00">fcntl.h</text>
</a>
</g>
</g>
<!-- Node28&#45;&gt;Node31 -->
<g id="edge44_Node000028_Node000031" class="edge">
<title>Node28&#45;&gt;Node31</title>
<g id="a_edge44_Node000028_Node000031"><a xlink:title=" ">
<path fill="none" stroke="#63b8ff" d="M743.49,-275.84C719.65,-266.96 683.11,-253.36 656.87,-243.58"/>
<polygon fill="#63b8ff" stroke="#63b8ff" points="658.33,-240.39 647.73,-240.18 655.88,-246.95 658.33,-240.39"/>
</a>
</g>
</g>
<!-- Node32 -->
<g id="Node000032" class="node">
<title>Node32</title>
<g id="a_Node000032"><a xlink:title=" ">
<polygon fill="#e0e0e0" stroke="#999999" points="725.25,-240.25 664.25,-240.25 664.25,-221 725.25,-221 725.25,-240.25"/>
<text text-anchor="middle" x="694.75" y="-226.75" font-family="Helvetica,sans-Serif" font-size="10.00">filesystem</text>
</a>
</g>
</g>
<!-- Node28&#45;&gt;Node32 -->
<g id="edge45_Node000028_Node000032" class="edge">
<title>Node28&#45;&gt;Node32</title>
<g id="a_edge45_Node000028_Node000032"><a xlink:title=" ">
<path fill="none" stroke="#63b8ff" d="M755.37,-275.84C744.6,-267.99 728.78,-256.45 716,-247.12"/>
<polygon fill="#63b8ff" stroke="#63b8ff" points="718.31,-244.48 708.17,-241.42 714.19,-250.14 718.31,-244.48"/>
</a>
</g>
</g>
<!-- Node33 -->
<g id="Node000033" class="node">
<title>Node33</title>
<g id="a_Node000033"><a xlink:title=" ">
<polygon fill="#e0e0e0" stroke="#999999" points="792.25,-240.25 743.25,-240.25 743.25,-221 792.25,-221 792.25,-240.25"/>
<text text-anchor="middle" x="767.75" y="-226.75" font-family="Helvetica,sans-Serif" font-size="10.00">fstream</text>
</a>
</g>
</g>
<!-- Node28&#45;&gt;Node33 -->
<g id="edge46_Node000028_Node000033" class="edge">
<title>Node28&#45;&gt;Node33</title>
<g id="a_edge46_Node000028_Node000033"><a xlink:title=" ">
<path fill="none" stroke="#63b8ff" d="M767.75,-276.08C767.75,-269.57 767.75,-260.42 767.75,-252.12"/>
<polygon fill="#63b8ff" stroke="#63b8ff" points="771.25,-252.12 767.75,-242.12 764.25,-252.12 771.25,-252.12"/>
</a>
</g>
</g>
<!-- Node34 -->
<g id="Node000034" class="node">
<title>Node34</title>
<g id="a_Node000034"><a xlink:title=" ">
<polygon fill="#e0e0e0" stroke="#999999" points="858.88,-240.25 810.62,-240.25 810.62,-221 858.88,-221 858.88,-240.25"/>
<text text-anchor="middle" x="834.75" y="-226.75" font-family="Helvetica,sans-Serif" font-size="10.00">istream</text>
</a>
</g>
</g>
<!-- Node28&#45;&gt;Node34 -->
<g id="edge47_Node000028_Node000034" class="edge">
<title>Node28&#45;&gt;Node34</title>
<g id="a_edge47_Node000028_Node000034"><a xlink:title=" ">
<path fill="none" stroke="#63b8ff" d="M779.12,-275.84C788.8,-268.15 802.95,-256.9 814.56,-247.68"/>
<polygon fill="#63b8ff" stroke="#63b8ff" points="816.72,-250.43 822.37,-241.47 812.36,-244.95 816.72,-250.43"/>
</a>
</g>
</g>
<!-- Node35 -->
<g id="Node000035" class="node">
<title>Node35</title>
<g id="a_Node000035"><a xlink:title=" ">
<polygon fill="#e0e0e0" stroke="#999999" points="928.38,-240.25 877.12,-240.25 877.12,-221 928.38,-221 928.38,-240.25"/>
<text text-anchor="middle" x="902.75" y="-226.75" font-family="Helvetica,sans-Serif" font-size="10.00">sstream</text>
</a>
</g>
</g>
<!-- Node28&#45;&gt;Node35 -->
<g id="edge49_Node000028_Node000035" class="edge">
<title>Node28&#45;&gt;Node35</title>
<g id="a_edge49_Node000028_Node000035"><a xlink:title=" ">
<path fill="none" stroke="#63b8ff" d="M790.65,-275.84C812.18,-267.35 844.66,-254.54 869.13,-244.89"/>
<polygon fill="#63b8ff" stroke="#63b8ff" points="870.31,-248.18 878.33,-241.26 867.74,-241.67 870.31,-248.18"/>
</a>
</g>
</g>
<!-- Node36 -->
<g id="Node000036" class="node">
<title>Node36</title>
<g id="a_Node000036"><a xlink:title=" ">
<polygon fill="#e0e0e0" stroke="#999999" points="585.5,-240.25 526,-240.25 526,-221 585.5,-221 585.5,-240.25"/>
<text text-anchor="middle" x="555.75" y="-226.75" font-family="Helvetica,sans-Serif" font-size="10.00">sys/stat.h</text>
</a>
</g>
</g>
<!-- Node28&#45;&gt;Node36 -->
<g id="edge50_Node000028_Node000036" class="edge">
<title>Node28&#45;&gt;Node36</title>
<g id="a_edge50_Node000028_Node000036"><a xlink:title=" ">
<path fill="none" stroke="#63b8ff" d="M740.03,-277.91C703.54,-268.75 639.06,-252.55 596.87,-241.95"/>
<polygon fill="#63b8ff" stroke="#63b8ff" points="597.89,-238.6 587.34,-239.56 596.18,-245.39 597.89,-238.6"/>
</a>
</g>
</g>
<!-- Node29&#45;&gt;Node5 -->
<g id="edge42_Node000029_Node000005" class="edge">
<title>Node29&#45;&gt;Node5</title>
<g id="a_edge42_Node000029_Node000005"><a xlink:title=" ">
<path fill="none" stroke="#63b8ff" d="M1016.36,-220.82C1006.53,-195.28 977.84,-120.7 964.17,-85.15"/>
<polygon fill="#63b8ff" stroke="#63b8ff" points="967.55,-84.21 960.7,-76.14 961.02,-86.72 967.55,-84.21"/>
</a>
</g>
</g>
<!-- Node29&#45;&gt;Node30 -->
<g id="edge43_Node000029_Node000030" class="edge">
<title>Node29&#45;&gt;Node30</title>
<g id="a_edge43_Node000029_Node000030"><a xlink:title=" ">
<path fill="none" stroke="#63b8ff" d="M1030.44,-220.59C1039.45,-212.97 1052.58,-201.87 1063.43,-192.7"/>
<polygon fill="#63b8ff" stroke="#63b8ff" points="1065.69,-195.38 1071.06,-186.25 1061.17,-190.03 1065.69,-195.38"/>
</a>
</g>
</g>
<!-- Node39 -->
<g id="Node000039" class="node">
<title>Node39</title>
<g id="a_Node000039"><a xlink:title=" ">
<polygon fill="#e0e0e0" stroke="#999999" points="1398.88,-406 1356.62,-406 1356.62,-386.75 1398.88,-386.75 1398.88,-406"/>
<text text-anchor="middle" x="1377.75" y="-392.5" font-family="Helvetica,sans-Serif" font-size="10.00">cstdio</text>
</a>
</g>
</g>
<!-- Node38&#45;&gt;Node39 -->
<g id="edge55_Node000038_Node000039" class="edge">
<title>Node38&#45;&gt;Node39</title>
<g id="a_edge55_Node000038_Node000039"><a xlink:title=" ">
<path fill="none" stroke="#63b8ff" d="M1377.75,-441.83C1377.75,-435.32 1377.75,-426.17 1377.75,-417.87"/>
<polygon fill="#63b8ff" stroke="#63b8ff" points="1381.25,-417.87 1377.75,-407.87 1374.25,-417.87 1381.25,-417.87"/>
</a>
</g>
</g>
</g>
</svg>
