<?xml version="1.0" encoding="UTF-8" standalone="no"?>
<!DOCTYPE svg PUBLIC "-//W3C//DTD SVG 1.1//EN"
 "http://www.w3.org/Graphics/SVG/1.1/DTD/svg11.dtd">
<!-- Generated by graphviz version 10.0.1 (20240210.2158)
 -->
<!-- Title: /Users/hoff/Retro/virtualc64/Emulator/Peripherals/Datasette/DatasetteTypes.h Pages: 1 -->
<svg width="314pt" height="460pt"
 viewBox="0.00 0.00 313.50 460.00" xmlns="http://www.w3.org/2000/svg" xmlns:xlink="http://www.w3.org/1999/xlink">
<g id="graph0" class="graph" transform="scale(1 1) rotate(0) translate(4 456)">
<title>/Users/hoff/Retro/virtualc64/Emulator/Peripherals/Datasette/DatasetteTypes.h</title>
<!-- Node1 -->
<g id="Node000001" class="node">
<title>Node1</title>
<g id="a_Node000001"><a xlink:title=" ">
<polygon fill="#999999" stroke="#666666" points="231.62,-452 76.12,-452 76.12,-410.25 231.62,-410.25 231.62,-452"/>
<text text-anchor="start" x="84.12" y="-438.5" font-family="Helvetica,sans-Serif" font-size="10.00">/Users/hoff/Retro/virtualc64</text>
<text text-anchor="start" x="84.12" y="-427.25" font-family="Helvetica,sans-Serif" font-size="10.00">/Emulator/Peripherals/Datasette</text>
<text text-anchor="middle" x="153.88" y="-416" font-family="Helvetica,sans-Serif" font-size="10.00">/DatasetteTypes.h</text>
</a>
</g>
</g>
<!-- Node2 -->
<g id="Node000002" class="node">
<title>Node2</title>
<g id="a_Node000002"><a xlink:href="_datasette_8h_source.html" target="_top" xlink:title=" ">
<polygon fill="white" stroke="#666666" points="178.62,-374.25 23.12,-374.25 23.12,-332.5 178.62,-332.5 178.62,-374.25"/>
<text text-anchor="start" x="31.12" y="-360.75" font-family="Helvetica,sans-Serif" font-size="10.00">/Users/hoff/Retro/virtualc64</text>
<text text-anchor="start" x="31.12" y="-349.5" font-family="Helvetica,sans-Serif" font-size="10.00">/Emulator/Peripherals/Datasette</text>
<text text-anchor="middle" x="100.88" y="-338.25" font-family="Helvetica,sans-Serif" font-size="10.00">/Datasette.h</text>
</a>
</g>
</g>
<!-- Node1&#45;&gt;Node2 -->
<g id="edge1_Node000001_Node000002" class="edge">
<title>Node1&#45;&gt;Node2</title>
<g id="a_edge1_Node000001_Node000002"><a xlink:title=" ">
<path fill="none" stroke="#63b8ff" d="M133.12,-400.45C127.09,-391.84 120.65,-382.63 115.12,-374.73"/>
<polygon fill="#63b8ff" stroke="#63b8ff" points="130.2,-402.4 138.8,-408.59 135.94,-398.39 130.2,-402.4"/>
</a>
</g>
</g>
<!-- Node8 -->
<g id="Node000008" class="node">
<title>Node8</title>
<g id="a_Node000008"><a xlink:href="_virtual_c64_types_8h.html" target="_top" xlink:title=" ">
<polygon fill="white" stroke="#666666" points="305.5,-296.5 164.25,-296.5 164.25,-266 305.5,-266 305.5,-296.5"/>
<text text-anchor="start" x="172.25" y="-283" font-family="Helvetica,sans-Serif" font-size="10.00">/Users/hoff/Retro/virtualc64</text>
<text text-anchor="middle" x="234.88" y="-271.75" font-family="Helvetica,sans-Serif" font-size="10.00">/Emulator/VirtualC64Types.h</text>
</a>
</g>
</g>
<!-- Node1&#45;&gt;Node8 -->
<g id="edge7_Node000001_Node000008" class="edge">
<title>Node1&#45;&gt;Node8</title>
<g id="a_edge7_Node000001_Node000008"><a xlink:title=" ">
<path fill="none" stroke="#63b8ff" d="M172.64,-400.22C177.71,-391.88 183.11,-382.78 187.88,-374.25 202.92,-347.32 218.97,-315.05 227.87,-296.77"/>
<polygon fill="#63b8ff" stroke="#63b8ff" points="169.73,-398.26 167.47,-408.62 175.69,-401.93 169.73,-398.26"/>
</a>
</g>
</g>
<!-- Node3 -->
<g id="Node000003" class="node">
<title>Node3</title>
<g id="a_Node000003"><a xlink:href="_c64_8h_source.html" target="_top" xlink:title=" ">
<polygon fill="white" stroke="#666666" points="145.75,-296.5 0,-296.5 0,-266 145.75,-266 145.75,-296.5"/>
<text text-anchor="start" x="8" y="-283" font-family="Helvetica,sans-Serif" font-size="10.00">/Users/hoff/Retro/virtualc64</text>
<text text-anchor="middle" x="72.88" y="-271.75" font-family="Helvetica,sans-Serif" font-size="10.00">/Emulator/Components/C64.h</text>
</a>
</g>
</g>
<!-- Node2&#45;&gt;Node3 -->
<g id="edge2_Node000002_Node000003" class="edge">
<title>Node2&#45;&gt;Node3</title>
<g id="a_edge2_Node000002_Node000003"><a xlink:title=" ">
<path fill="none" stroke="#63b8ff" d="M88.55,-321.5C85.1,-312.87 81.51,-303.89 78.64,-296.7"/>
<polygon fill="#63b8ff" stroke="#63b8ff" points="85.26,-322.7 92.21,-330.69 91.76,-320.1 85.26,-322.7"/>
</a>
</g>
</g>
<!-- Node4 -->
<g id="Node000004" class="node">
<title>Node4</title>
<g id="a_Node000004"><a xlink:href="_emulator_8h_source.html" target="_top" xlink:title=" ">
<polygon fill="white" stroke="#666666" points="180.88,-230 14.88,-230 14.88,-199.5 180.88,-199.5 180.88,-230"/>
<text text-anchor="start" x="22.88" y="-216.5" font-family="Helvetica,sans-Serif" font-size="10.00">/Users/hoff/Retro/virtualc64</text>
<text text-anchor="middle" x="97.88" y="-205.25" font-family="Helvetica,sans-Serif" font-size="10.00">/Emulator/Components/Emulator.h</text>
</a>
</g>
</g>
<!-- Node3&#45;&gt;Node4 -->
<g id="edge3_Node000003_Node000004" class="edge">
<title>Node3&#45;&gt;Node4</title>
<g id="a_edge3_Node000003_Node000004"><a xlink:title=" ">
<path fill="none" stroke="#63b8ff" d="M82.6,-255.16C85.86,-246.75 89.38,-237.66 92.22,-230.33"/>
<polygon fill="#63b8ff" stroke="#63b8ff" points="79.45,-253.61 79.09,-264.2 85.97,-256.14 79.45,-253.61"/>
</a>
</g>
</g>
<!-- Node5 -->
<g id="Node000005" class="node">
<title>Node5</title>
<g id="a_Node000005"><a xlink:href="_virtual_c64_8h.html" target="_top" xlink:title=" ">
<polygon fill="white" stroke="#666666" points="221.25,-163.5 84.5,-163.5 84.5,-133 221.25,-133 221.25,-163.5"/>
<text text-anchor="start" x="92.5" y="-150" font-family="Helvetica,sans-Serif" font-size="10.00">/Users/hoff/Retro/virtualc64</text>
<text text-anchor="middle" x="152.88" y="-138.75" font-family="Helvetica,sans-Serif" font-size="10.00">/Emulator/VirtualC64.h</text>
</a>
</g>
</g>
<!-- Node4&#45;&gt;Node5 -->
<g id="edge4_Node000004_Node000005" class="edge">
<title>Node4&#45;&gt;Node5</title>
<g id="a_edge4_Node000004_Node000005"><a xlink:title=" ">
<path fill="none" stroke="#63b8ff" d="M117.59,-190.63C125.21,-181.69 133.7,-171.74 140.44,-163.83"/>
<polygon fill="#63b8ff" stroke="#63b8ff" points="115.16,-188.08 111.34,-197.96 120.49,-192.62 115.16,-188.08"/>
</a>
</g>
</g>
<!-- Node6 -->
<g id="Node000006" class="node">
<title>Node6</title>
<g id="a_Node000006"><a xlink:href="_headless_8h_source.html" target="_top" xlink:title=" ">
<polygon fill="white" stroke="#666666" points="221.25,-97 84.5,-97 84.5,-66.5 221.25,-66.5 221.25,-97"/>
<text text-anchor="start" x="92.5" y="-83.5" font-family="Helvetica,sans-Serif" font-size="10.00">/Users/hoff/Retro/virtualc64</text>
<text text-anchor="middle" x="152.88" y="-72.25" font-family="Helvetica,sans-Serif" font-size="10.00">/Emulator/Headless.h</text>
</a>
</g>
</g>
<!-- Node5&#45;&gt;Node6 -->
<g id="edge5_Node000005_Node000006" class="edge">
<title>Node5&#45;&gt;Node6</title>
<g id="a_edge5_Node000005_Node000006"><a xlink:title=" ">
<path fill="none" stroke="#63b8ff" d="M152.88,-121.31C152.88,-113.14 152.88,-104.41 152.88,-97.33"/>
<polygon fill="#63b8ff" stroke="#63b8ff" points="149.38,-121.1 152.88,-131.1 156.38,-121.1 149.38,-121.1"/>
</a>
</g>
</g>
<!-- Node7 -->
<g id="Node000007" class="node">
<title>Node7</title>
<g id="a_Node000007"><a xlink:href="_headless_8cpp.html" target="_top" xlink:title=" ">
<polygon fill="white" stroke="#666666" points="221.25,-30.5 84.5,-30.5 84.5,0 221.25,0 221.25,-30.5"/>
<text text-anchor="start" x="92.5" y="-17" font-family="Helvetica,sans-Serif" font-size="10.00">/Users/hoff/Retro/virtualc64</text>
<text text-anchor="middle" x="152.88" y="-5.75" font-family="Helvetica,sans-Serif" font-size="10.00">/Emulator/Headless.cpp</text>
</a>
</g>
</g>
<!-- Node6&#45;&gt;Node7 -->
<g id="edge6_Node000006_Node000007" class="edge">
<title>Node6&#45;&gt;Node7</title>
<g id="a_edge6_Node000006_Node000007"><a xlink:title=" ">
<path fill="none" stroke="#63b8ff" d="M152.88,-54.81C152.88,-46.64 152.88,-37.91 152.88,-30.83"/>
<polygon fill="#63b8ff" stroke="#63b8ff" points="149.38,-54.6 152.88,-64.6 156.38,-54.6 149.38,-54.6"/>
</a>
</g>
</g>
<!-- Node8&#45;&gt;Node5 -->
<g id="edge8_Node000008_Node000005" class="edge">
<title>Node8&#45;&gt;Node5</title>
<g id="a_edge8_Node000008_Node000005"><a xlink:title=" ">
<path fill="none" stroke="#63b8ff" d="M222.3,-255.82C213.67,-239.55 201.7,-217.88 189.88,-199.5 181.9,-187.11 171.96,-173.7 164.39,-163.85"/>
<polygon fill="#63b8ff" stroke="#63b8ff" points="219,-257.06 226.74,-264.29 225.2,-253.81 219,-257.06"/>
</a>
</g>
</g>
</g>
</svg>
