<?xml version="1.0" encoding="UTF-8" standalone="no"?>
<!DOCTYPE svg PUBLIC "-//W3C//DTD SVG 1.1//EN"
 "http://www.w3.org/Graphics/SVG/1.1/DTD/svg11.dtd">
<!-- Generated by graphviz version 10.0.1 (20240210.2158)
 -->
<!-- Title: /Users/hoff/Retro/virtualc64/Emulator/Base/Defaults.h Pages: 1 -->
<svg width="1103pt" height="425pt"
 viewBox="0.00 0.00 1103.38 425.25" xmlns="http://www.w3.org/2000/svg" xmlns:xlink="http://www.w3.org/1999/xlink">
<g id="graph0" class="graph" transform="scale(1 1) rotate(0) translate(4 421.25)">
<title>/Users/hoff/Retro/virtualc64/Emulator/Base/Defaults.h</title>
<!-- Node1 -->
<g id="Node000001" class="node">
<title>Node1</title>
<g id="a_Node000001"><a xlink:title=" ">
<polygon fill="#999999" stroke="#666666" points="499.38,-417.25 362.62,-417.25 362.62,-386.75 499.38,-386.75 499.38,-417.25"/>
<text text-anchor="start" x="370.62" y="-403.75" font-family="Helvetica,sans-Serif" font-size="10.00">/Users/hoff/Retro/virtualc64</text>
<text text-anchor="middle" x="431" y="-392.5" font-family="Helvetica,sans-Serif" font-size="10.00">/Emulator/Base/Defaults.h</text>
</a>
</g>
</g>
<!-- Node2 -->
<g id="Node000002" class="node">
<title>Node2</title>
<g id="a_Node000002"><a xlink:href="_core_object_8h.html" target="_top" xlink:title=" ">
<polygon fill="white" stroke="#666666" points="335.88,-350.75 262.12,-350.75 262.12,-331.5 335.88,-331.5 335.88,-350.75"/>
<text text-anchor="middle" x="299" y="-337.25" font-family="Helvetica,sans-Serif" font-size="10.00">CoreObject.h</text>
</a>
</g>
</g>
<!-- Node1&#45;&gt;Node2 -->
<g id="edge1_Node000001_Node000002" class="edge">
<title>Node1&#45;&gt;Node2</title>
<g id="a_edge1_Node000001_Node000002"><a xlink:title=" ">
<path fill="none" stroke="#63b8ff" d="M398.03,-386.3C377.06,-376.94 350.09,-364.91 329.6,-355.77"/>
<polygon fill="#63b8ff" stroke="#63b8ff" points="331.18,-352.65 320.63,-351.77 328.33,-359.04 331.18,-352.65"/>
</a>
</g>
</g>
<!-- Node16 -->
<g id="Node000016" class="node">
<title>Node16</title>
<g id="a_Node000016"><a xlink:href="_option_types_8h.html" target="_top" xlink:title=" ">
<polygon fill="white" stroke="#666666" points="164.5,-240.25 85.5,-240.25 85.5,-221 164.5,-221 164.5,-240.25"/>
<text text-anchor="middle" x="125" y="-226.75" font-family="Helvetica,sans-Serif" font-size="10.00">OptionTypes.h</text>
</a>
</g>
</g>
<!-- Node1&#45;&gt;Node16 -->
<g id="edge16_Node000001_Node000016" class="edge">
<title>Node1&#45;&gt;Node16</title>
<g id="a_edge16_Node000001_Node000016"><a xlink:title=" ">
<path fill="none" stroke="#63b8ff" d="M362.51,-388.76C328.31,-380.92 287.07,-368.75 253,-350.75 204.21,-324.97 160.17,-275.74 138.74,-249.36"/>
<polygon fill="#63b8ff" stroke="#63b8ff" points="141.57,-247.3 132.61,-241.65 136.09,-251.65 141.57,-247.3"/>
</a>
</g>
</g>
<!-- Node17 -->
<g id="Node000017" class="node">
<title>Node17</title>
<g id="a_Node000017"><a xlink:href="_concurrency_8h.html" target="_top" xlink:title=" ">
<polygon fill="white" stroke="#666666" points="1020.12,-350.75 941.88,-350.75 941.88,-331.5 1020.12,-331.5 1020.12,-350.75"/>
<text text-anchor="middle" x="981" y="-337.25" font-family="Helvetica,sans-Serif" font-size="10.00">Concurrency.h</text>
</a>
</g>
</g>
<!-- Node1&#45;&gt;Node17 -->
<g id="edge19_Node000001_Node000017" class="edge">
<title>Node1&#45;&gt;Node17</title>
<g id="a_edge19_Node000001_Node000017"><a xlink:title=" ">
<path fill="none" stroke="#63b8ff" d="M499.82,-393.63C611.98,-381.63 831.56,-358.12 930.52,-347.53"/>
<polygon fill="#63b8ff" stroke="#63b8ff" points="930.62,-351.04 940.19,-346.49 929.87,-344.08 930.62,-351.04"/>
</a>
</g>
</g>
<!-- Node22 -->
<g id="Node000022" class="node">
<title>Node22</title>
<g id="a_Node000022"><a xlink:href="_i_o_utils_8h.html" target="_top" xlink:title=" ">
<polygon fill="white" stroke="#666666" points="590.5,-295.5 535.5,-295.5 535.5,-276.25 590.5,-276.25 590.5,-295.5"/>
<text text-anchor="middle" x="563" y="-282" font-family="Helvetica,sans-Serif" font-size="10.00">IOUtils.h</text>
</a>
</g>
</g>
<!-- Node1&#45;&gt;Node22 -->
<g id="edge25_Node000001_Node000022" class="edge">
<title>Node1&#45;&gt;Node22</title>
<g id="a_edge25_Node000001_Node000022"><a xlink:title=" ">
<path fill="none" stroke="#63b8ff" d="M447.99,-386.31C472.67,-364.97 518.3,-325.52 544.05,-303.26"/>
<polygon fill="#63b8ff" stroke="#63b8ff" points="546.13,-306.08 551.41,-296.9 541.56,-300.79 546.13,-306.08"/>
</a>
</g>
</g>
<!-- Node3 -->
<g id="Node000003" class="node">
<title>Node3</title>
<g id="a_Node000003"><a xlink:href="_error_8h.html" target="_top" xlink:title=" ">
<polygon fill="white" stroke="#666666" points="240.25,-295.5 195.75,-295.5 195.75,-276.25 240.25,-276.25 240.25,-295.5"/>
<text text-anchor="middle" x="218" y="-282" font-family="Helvetica,sans-Serif" font-size="10.00">Error.h</text>
</a>
</g>
</g>
<!-- Node2&#45;&gt;Node3 -->
<g id="edge2_Node000002_Node000003" class="edge">
<title>Node2&#45;&gt;Node3</title>
<g id="a_edge2_Node000002_Node000003"><a xlink:title=" ">
<path fill="none" stroke="#63b8ff" d="M285.26,-331.09C273.27,-323.21 255.63,-311.61 241.42,-302.27"/>
<polygon fill="#63b8ff" stroke="#63b8ff" points="243.35,-299.35 233.07,-296.78 239.51,-305.2 243.35,-299.35"/>
</a>
</g>
</g>
<!-- Node14 -->
<g id="Node000014" class="node">
<title>Node14</title>
<g id="a_Node000014"><a xlink:href="_inspectable_8h.html" target="_top" xlink:title=" ">
<polygon fill="white" stroke="#666666" points="336.25,-295.5 261.75,-295.5 261.75,-276.25 336.25,-276.25 336.25,-295.5"/>
<text text-anchor="middle" x="299" y="-282" font-family="Helvetica,sans-Serif" font-size="10.00">Inspectable.h</text>
</a>
</g>
</g>
<!-- Node2&#45;&gt;Node14 -->
<g id="edge14_Node000002_Node000014" class="edge">
<title>Node2&#45;&gt;Node14</title>
<g id="a_edge14_Node000002_Node000014"><a xlink:title=" ">
<path fill="none" stroke="#63b8ff" d="M299,-331.33C299,-324.82 299,-315.67 299,-307.37"/>
<polygon fill="#63b8ff" stroke="#63b8ff" points="302.5,-307.37 299,-297.37 295.5,-307.37 302.5,-307.37"/>
</a>
</g>
</g>
<!-- Node4 -->
<g id="Node000004" class="node">
<title>Node4</title>
<g id="a_Node000004"><a xlink:href="_error_types_8h.html" target="_top" xlink:title=" ">
<polygon fill="white" stroke="#666666" points="253.75,-240.25 182.25,-240.25 182.25,-221 253.75,-221 253.75,-240.25"/>
<text text-anchor="middle" x="218" y="-226.75" font-family="Helvetica,sans-Serif" font-size="10.00">ErrorTypes.h</text>
</a>
</g>
</g>
<!-- Node3&#45;&gt;Node4 -->
<g id="edge3_Node000003_Node000004" class="edge">
<title>Node3&#45;&gt;Node4</title>
<g id="a_edge3_Node000003_Node000004"><a xlink:title=" ">
<path fill="none" stroke="#63b8ff" d="M218,-276.08C218,-269.57 218,-260.42 218,-252.12"/>
<polygon fill="#63b8ff" stroke="#63b8ff" points="221.5,-252.12 218,-242.12 214.5,-252.12 221.5,-252.12"/>
</a>
</g>
</g>
<!-- Node12 -->
<g id="Node000012" class="node">
<title>Node12</title>
<g id="a_Node000012"><a xlink:href="_exception_8h.html" target="_top" xlink:title=" ">
<polygon fill="white" stroke="#666666" points="67.88,-240.25 0.12,-240.25 0.12,-221 67.88,-221 67.88,-240.25"/>
<text text-anchor="middle" x="34" y="-226.75" font-family="Helvetica,sans-Serif" font-size="10.00">Exception.h</text>
</a>
</g>
</g>
<!-- Node3&#45;&gt;Node12 -->
<g id="edge11_Node000003_Node000012" class="edge">
<title>Node3&#45;&gt;Node12</title>
<g id="a_edge11_Node000003_Node000012"><a xlink:title=" ">
<path fill="none" stroke="#63b8ff" d="M195.44,-278.35C165.87,-269.79 113.42,-254.61 76.34,-243.88"/>
<polygon fill="#63b8ff" stroke="#63b8ff" points="77.4,-240.54 66.82,-241.12 75.46,-247.27 77.4,-240.54"/>
</a>
</g>
</g>
<!-- Node5 -->
<g id="Node000005" class="node">
<title>Node5</title>
<g id="a_Node000005"><a xlink:href="_aliases_8h.html" target="_top" xlink:title=" ">
<polygon fill="white" stroke="#666666" points="170.25,-185 113.75,-185 113.75,-165.75 170.25,-165.75 170.25,-185"/>
<text text-anchor="middle" x="142" y="-171.5" font-family="Helvetica,sans-Serif" font-size="10.00">Aliases.h</text>
</a>
</g>
</g>
<!-- Node4&#45;&gt;Node5 -->
<g id="edge4_Node000004_Node000005" class="edge">
<title>Node4&#45;&gt;Node5</title>
<g id="a_edge4_Node000004_Node000005"><a xlink:title=" ">
<path fill="none" stroke="#63b8ff" d="M205.11,-220.59C193.97,-212.79 177.63,-201.34 164.36,-192.04"/>
<polygon fill="#63b8ff" stroke="#63b8ff" points="166.39,-189.19 156.2,-186.32 162.38,-194.93 166.39,-189.19"/>
</a>
</g>
</g>
<!-- Node11 -->
<g id="Node000011" class="node">
<title>Node11</title>
<g id="a_Node000011"><a xlink:href="_reflection_8h.html" target="_top" xlink:title=" ">
<polygon fill="white" stroke="#666666" points="257.25,-185 188.75,-185 188.75,-165.75 257.25,-165.75 257.25,-185"/>
<text text-anchor="middle" x="223" y="-171.5" font-family="Helvetica,sans-Serif" font-size="10.00">Reflection.h</text>
</a>
</g>
</g>
<!-- Node4&#45;&gt;Node11 -->
<g id="edge10_Node000004_Node000011" class="edge">
<title>Node4&#45;&gt;Node11</title>
<g id="a_edge10_Node000004_Node000011"><a xlink:title=" ">
<path fill="none" stroke="#63b8ff" d="M218.83,-220.83C219.44,-214.24 220.32,-204.96 221.1,-196.57"/>
<polygon fill="#63b8ff" stroke="#63b8ff" points="224.56,-197.15 222.01,-186.87 217.6,-196.5 224.56,-197.15"/>
</a>
</g>
</g>
<!-- Node6 -->
<g id="Node000006" class="node">
<title>Node6</title>
<g id="a_Node000006"><a xlink:href="_macros_8h.html" target="_top" xlink:title=" ">
<polygon fill="white" stroke="#666666" points="318.25,-129.75 261.75,-129.75 261.75,-110.5 318.25,-110.5 318.25,-129.75"/>
<text text-anchor="middle" x="290" y="-116.25" font-family="Helvetica,sans-Serif" font-size="10.00">Macros.h</text>
</a>
</g>
</g>
<!-- Node5&#45;&gt;Node6 -->
<g id="edge5_Node000005_Node000006" class="edge">
<title>Node5&#45;&gt;Node6</title>
<g id="a_edge5_Node000005_Node000006"><a xlink:title=" ">
<path fill="none" stroke="#63b8ff" d="M167.11,-165.34C191.03,-156.74 227.28,-143.69 254.22,-134"/>
<polygon fill="#63b8ff" stroke="#63b8ff" points="255.12,-137.39 263.35,-130.71 252.75,-130.81 255.12,-137.39"/>
</a>
</g>
</g>
<!-- Node7 -->
<g id="Node000007" class="node">
<title>Node7</title>
<g id="a_Node000007"><a xlink:href="_types_8h.html" target="_top" xlink:title=" ">
<polygon fill="white" stroke="#666666" points="525.25,-74.5 474.75,-74.5 474.75,-55.25 525.25,-55.25 525.25,-74.5"/>
<text text-anchor="middle" x="500" y="-61" font-family="Helvetica,sans-Serif" font-size="10.00">Types.h</text>
</a>
</g>
</g>
<!-- Node6&#45;&gt;Node7 -->
<g id="edge6_Node000006_Node000007" class="edge">
<title>Node6&#45;&gt;Node7</title>
<g id="a_edge6_Node000006_Node000007"><a xlink:title=" ">
<path fill="none" stroke="#63b8ff" d="M318.32,-111.94C355.88,-102.42 422.21,-85.6 463.49,-75.13"/>
<polygon fill="#63b8ff" stroke="#63b8ff" points="464.13,-78.58 472.96,-72.73 462.4,-71.8 464.13,-78.58"/>
</a>
</g>
</g>
<!-- Node8 -->
<g id="Node000008" class="node">
<title>Node8</title>
<g id="a_Node000008"><a xlink:title=" ">
<polygon fill="#e0e0e0" stroke="#999999" points="457.5,-19.25 390.5,-19.25 390.5,0 457.5,0 457.5,-19.25"/>
<text text-anchor="middle" x="424" y="-5.75" font-family="Helvetica,sans-Serif" font-size="10.00">sys/types.h</text>
</a>
</g>
</g>
<!-- Node7&#45;&gt;Node8 -->
<g id="edge7_Node000007_Node000008" class="edge">
<title>Node7&#45;&gt;Node8</title>
<g id="a_edge7_Node000007_Node000008"><a xlink:title=" ">
<path fill="none" stroke="#63b8ff" d="M487.11,-54.84C475.97,-47.04 459.63,-35.59 446.36,-26.29"/>
<polygon fill="#63b8ff" stroke="#63b8ff" points="448.39,-23.44 438.2,-20.57 444.38,-29.18 448.39,-23.44"/>
</a>
</g>
</g>
<!-- Node9 -->
<g id="Node000009" class="node">
<title>Node9</title>
<g id="a_Node000009"><a xlink:title=" ">
<polygon fill="#e0e0e0" stroke="#999999" points="524.12,-19.25 475.88,-19.25 475.88,0 524.12,0 524.12,-19.25"/>
<text text-anchor="middle" x="500" y="-5.75" font-family="Helvetica,sans-Serif" font-size="10.00">stdint.h</text>
</a>
</g>
</g>
<!-- Node7&#45;&gt;Node9 -->
<g id="edge8_Node000007_Node000009" class="edge">
<title>Node7&#45;&gt;Node9</title>
<g id="a_edge8_Node000007_Node000009"><a xlink:title=" ">
<path fill="none" stroke="#63b8ff" d="M500,-55.08C500,-48.57 500,-39.42 500,-31.12"/>
<polygon fill="#63b8ff" stroke="#63b8ff" points="503.5,-31.12 500,-21.12 496.5,-31.12 503.5,-31.12"/>
</a>
</g>
</g>
<!-- Node10 -->
<g id="Node000010" class="node">
<title>Node10</title>
<g id="a_Node000010"><a xlink:title=" ">
<polygon fill="#e0e0e0" stroke="#999999" points="597.88,-19.25 542.12,-19.25 542.12,0 597.88,0 597.88,-19.25"/>
<text text-anchor="middle" x="570" y="-5.75" font-family="Helvetica,sans-Serif" font-size="10.00">stdbool.h</text>
</a>
</g>
</g>
<!-- Node7&#45;&gt;Node10 -->
<g id="edge9_Node000007_Node000010" class="edge">
<title>Node7&#45;&gt;Node10</title>
<g id="a_edge9_Node000007_Node000010"><a xlink:title=" ">
<path fill="none" stroke="#63b8ff" d="M511.87,-54.84C522.09,-47.07 537.07,-35.67 549.26,-26.4"/>
<polygon fill="#63b8ff" stroke="#63b8ff" points="551.26,-29.28 557.1,-20.44 547.02,-23.71 551.26,-29.28"/>
</a>
</g>
</g>
<!-- Node12&#45;&gt;Node7 -->
<g id="edge12_Node000012_Node000007" class="edge">
<title>Node12&#45;&gt;Node7</title>
<g id="a_edge12_Node000012_Node000007"><a xlink:title=" ">
<path fill="none" stroke="#63b8ff" d="M41.9,-220.62C54.2,-207.08 79.19,-181.39 105,-165.75 222.75,-94.37 389.82,-73.8 463.12,-68.04"/>
<polygon fill="#63b8ff" stroke="#63b8ff" points="463.24,-71.54 472.95,-67.32 462.72,-64.55 463.24,-71.54"/>
</a>
</g>
</g>
<!-- Node13 -->
<g id="Node000013" class="node">
<title>Node13</title>
<g id="a_Node000013"><a xlink:title=" ">
<polygon fill="#e0e0e0" stroke="#999999" points="58,-185 0,-185 0,-165.75 58,-165.75 58,-185"/>
<text text-anchor="middle" x="29" y="-171.5" font-family="Helvetica,sans-Serif" font-size="10.00">exception</text>
</a>
</g>
</g>
<!-- Node12&#45;&gt;Node13 -->
<g id="edge13_Node000012_Node000013" class="edge">
<title>Node12&#45;&gt;Node13</title>
<g id="a_edge13_Node000012_Node000013"><a xlink:title=" ">
<path fill="none" stroke="#63b8ff" d="M33.17,-220.83C32.56,-214.24 31.68,-204.96 30.9,-196.57"/>
<polygon fill="#63b8ff" stroke="#63b8ff" points="34.4,-196.5 29.99,-186.87 27.44,-197.15 34.4,-196.5"/>
</a>
</g>
</g>
<!-- Node15 -->
<g id="Node000015" class="node">
<title>Node15</title>
<g id="a_Node000015"><a xlink:title=" ">
<polygon fill="#e0e0e0" stroke="#999999" points="325.75,-240.25 272.25,-240.25 272.25,-221 325.75,-221 325.75,-240.25"/>
<text text-anchor="middle" x="299" y="-226.75" font-family="Helvetica,sans-Serif" font-size="10.00">iostream</text>
</a>
</g>
</g>
<!-- Node14&#45;&gt;Node15 -->
<g id="edge15_Node000014_Node000015" class="edge">
<title>Node14&#45;&gt;Node15</title>
<g id="a_edge15_Node000014_Node000015"><a xlink:title=" ">
<path fill="none" stroke="#63b8ff" d="M299,-276.08C299,-269.57 299,-260.42 299,-252.12"/>
<polygon fill="#63b8ff" stroke="#63b8ff" points="302.5,-252.12 299,-242.12 295.5,-252.12 302.5,-252.12"/>
</a>
</g>
</g>
<!-- Node16&#45;&gt;Node5 -->
<g id="edge17_Node000016_Node000005" class="edge">
<title>Node16&#45;&gt;Node5</title>
<g id="a_edge17_Node000016_Node000005"><a xlink:title=" ">
<path fill="none" stroke="#63b8ff" d="M127.81,-220.83C129.94,-214.17 132.94,-204.74 135.64,-196.28"/>
<polygon fill="#63b8ff" stroke="#63b8ff" points="138.96,-197.39 138.67,-186.8 132.3,-195.26 138.96,-197.39"/>
</a>
</g>
</g>
<!-- Node16&#45;&gt;Node11 -->
<g id="edge18_Node000016_Node000011" class="edge">
<title>Node16&#45;&gt;Node11</title>
<g id="a_edge18_Node000016_Node000011"><a xlink:title=" ">
<path fill="none" stroke="#63b8ff" d="M141.62,-220.59C156.69,-212.41 179.14,-200.21 196.65,-190.69"/>
<polygon fill="#63b8ff" stroke="#63b8ff" points="197.85,-194.02 204.96,-186.18 194.51,-187.87 197.85,-194.02"/>
</a>
</g>
</g>
<!-- Node18 -->
<g id="Node000018" class="node">
<title>Node18</title>
<g id="a_Node000018"><a xlink:href="_chrono_8h.html" target="_top" xlink:title=" ">
<polygon fill="white" stroke="#666666" points="975.88,-295.5 920.12,-295.5 920.12,-276.25 975.88,-276.25 975.88,-295.5"/>
<text text-anchor="middle" x="948" y="-282" font-family="Helvetica,sans-Serif" font-size="10.00">Chrono.h</text>
</a>
</g>
</g>
<!-- Node17&#45;&gt;Node18 -->
<g id="edge20_Node000017_Node000018" class="edge">
<title>Node17&#45;&gt;Node18</title>
<g id="a_edge20_Node000017_Node000018"><a xlink:title=" ">
<path fill="none" stroke="#63b8ff" d="M975.55,-331.33C971.23,-324.36 965.04,-314.37 959.62,-305.62"/>
<polygon fill="#63b8ff" stroke="#63b8ff" points="962.61,-303.8 954.36,-297.15 956.66,-307.49 962.61,-303.8"/>
</a>
</g>
</g>
<!-- Node20 -->
<g id="Node000020" class="node">
<title>Node20</title>
<g id="a_Node000020"><a xlink:title=" ">
<polygon fill="#e0e0e0" stroke="#999999" points="1036.5,-295.5 993.5,-295.5 993.5,-276.25 1036.5,-276.25 1036.5,-295.5"/>
<text text-anchor="middle" x="1015" y="-282" font-family="Helvetica,sans-Serif" font-size="10.00">thread</text>
</a>
</g>
</g>
<!-- Node17&#45;&gt;Node20 -->
<g id="edge23_Node000017_Node000020" class="edge">
<title>Node17&#45;&gt;Node20</title>
<g id="a_edge23_Node000017_Node000020"><a xlink:title=" ">
<path fill="none" stroke="#63b8ff" d="M986.61,-331.33C991.12,-324.28 997.59,-314.15 1003.21,-305.33"/>
<polygon fill="#63b8ff" stroke="#63b8ff" points="1006.02,-307.45 1008.45,-297.13 1000.12,-303.68 1006.02,-307.45"/>
</a>
</g>
</g>
<!-- Node21 -->
<g id="Node000021" class="node">
<title>Node21</title>
<g id="a_Node000021"><a xlink:title=" ">
<polygon fill="#e0e0e0" stroke="#999999" points="1095.38,-295.5 1054.62,-295.5 1054.62,-276.25 1095.38,-276.25 1095.38,-295.5"/>
<text text-anchor="middle" x="1075" y="-282" font-family="Helvetica,sans-Serif" font-size="10.00">future</text>
</a>
</g>
</g>
<!-- Node17&#45;&gt;Node21 -->
<g id="edge24_Node000017_Node000021" class="edge">
<title>Node17&#45;&gt;Node21</title>
<g id="a_edge24_Node000017_Node000021"><a xlink:title=" ">
<path fill="none" stroke="#63b8ff" d="M996.95,-331.09C1011.26,-322.98 1032.53,-310.93 1049.25,-301.46"/>
<polygon fill="#63b8ff" stroke="#63b8ff" points="1050.68,-304.67 1057.66,-296.7 1047.23,-298.58 1050.68,-304.67"/>
</a>
</g>
</g>
<!-- Node18&#45;&gt;Node7 -->
<g id="edge21_Node000018_Node000007" class="edge">
<title>Node18&#45;&gt;Node7</title>
<g id="a_edge21_Node000018_Node000007"><a xlink:title=" ">
<path fill="none" stroke="#63b8ff" d="M957.56,-276.02C970.31,-263.11 989.88,-238.74 977,-221 923.53,-147.38 639.5,-90.58 536.96,-72.2"/>
<polygon fill="#63b8ff" stroke="#63b8ff" points="537.6,-68.76 527.15,-70.46 536.38,-75.66 537.6,-68.76"/>
</a>
</g>
</g>
<!-- Node19 -->
<g id="Node000019" class="node">
<title>Node19</title>
<g id="a_Node000019"><a xlink:title=" ">
<polygon fill="#e0e0e0" stroke="#999999" points="968,-240.25 928,-240.25 928,-221 968,-221 968,-240.25"/>
<text text-anchor="middle" x="948" y="-226.75" font-family="Helvetica,sans-Serif" font-size="10.00">ctime</text>
</a>
</g>
</g>
<!-- Node18&#45;&gt;Node19 -->
<g id="edge22_Node000018_Node000019" class="edge">
<title>Node18&#45;&gt;Node19</title>
<g id="a_edge22_Node000018_Node000019"><a xlink:title=" ">
<path fill="none" stroke="#63b8ff" d="M948,-276.08C948,-269.57 948,-260.42 948,-252.12"/>
<polygon fill="#63b8ff" stroke="#63b8ff" points="951.5,-252.12 948,-242.12 944.5,-252.12 951.5,-252.12"/>
</a>
</g>
</g>
<!-- Node22&#45;&gt;Node7 -->
<g id="edge26_Node000022_Node000007" class="edge">
<title>Node22&#45;&gt;Node7</title>
<g id="a_edge26_Node000022_Node000007"><a xlink:title=" ">
<path fill="none" stroke="#63b8ff" d="M550.22,-275.84C539.9,-267.78 526,-254.99 519,-240.25 494.66,-189.01 495.68,-120.02 498.04,-86.23"/>
<polygon fill="#63b8ff" stroke="#63b8ff" points="501.53,-86.53 498.87,-76.27 494.56,-85.95 501.53,-86.53"/>
</a>
</g>
</g>
<!-- Node22&#45;&gt;Node15 -->
<g id="edge34_Node000022_Node000015" class="edge">
<title>Node22&#45;&gt;Node15</title>
<g id="a_edge34_Node000022_Node000015"><a xlink:title=" ">
<path fill="none" stroke="#63b8ff" d="M535.06,-279.89C493.77,-272.42 413.8,-257.58 336.92,-240.82"/>
<polygon fill="#63b8ff" stroke="#63b8ff" points="338.1,-237.49 327.58,-238.77 336.6,-244.33 338.1,-237.49"/>
</a>
</g>
</g>
<!-- Node23 -->
<g id="Node000023" class="node">
<title>Node23</title>
<g id="a_Node000023"><a xlink:href="_string_utils_8h.html" target="_top" xlink:title=" ">
<polygon fill="white" stroke="#666666" points="598,-240.25 528,-240.25 528,-221 598,-221 598,-240.25"/>
<text text-anchor="middle" x="563" y="-226.75" font-family="Helvetica,sans-Serif" font-size="10.00">StringUtils.h</text>
</a>
</g>
</g>
<!-- Node22&#45;&gt;Node23 -->
<g id="edge27_Node000022_Node000023" class="edge">
<title>Node22&#45;&gt;Node23</title>
<g id="a_edge27_Node000022_Node000023"><a xlink:title=" ">
<path fill="none" stroke="#63b8ff" d="M563,-276.08C563,-269.57 563,-260.42 563,-252.12"/>
<polygon fill="#63b8ff" stroke="#63b8ff" points="566.5,-252.12 563,-242.12 559.5,-252.12 566.5,-252.12"/>
</a>
</g>
</g>
<!-- Node24 -->
<g id="Node000024" class="node">
<title>Node24</title>
<g id="a_Node000024"><a xlink:title=" ">
<polygon fill="#e0e0e0" stroke="#999999" points="635.5,-185 592.5,-185 592.5,-165.75 635.5,-165.75 635.5,-185"/>
<text text-anchor="middle" x="614" y="-171.5" font-family="Helvetica,sans-Serif" font-size="10.00">vector</text>
</a>
</g>
</g>
<!-- Node22&#45;&gt;Node24 -->
<g id="edge37_Node000022_Node000024" class="edge">
<title>Node22&#45;&gt;Node24</title>
<g id="a_edge37_Node000022_Node000024"><a xlink:title=" ">
<path fill="none" stroke="#63b8ff" d="M575.78,-275.84C586.09,-267.78 599.99,-254.99 607,-240.25 613.47,-226.65 615.06,-209.63 615.12,-196.58"/>
<polygon fill="#63b8ff" stroke="#63b8ff" points="618.62,-196.54 614.84,-186.64 611.62,-196.73 618.62,-196.54"/>
</a>
</g>
</g>
<!-- Node25 -->
<g id="Node000025" class="node">
<title>Node25</title>
<g id="a_Node000025"><a xlink:title=" ">
<polygon fill="#e0e0e0" stroke="#999999" points="697.5,-240.25 654.5,-240.25 654.5,-221 697.5,-221 697.5,-240.25"/>
<text text-anchor="middle" x="676" y="-226.75" font-family="Helvetica,sans-Serif" font-size="10.00">fcntl.h</text>
</a>
</g>
</g>
<!-- Node22&#45;&gt;Node25 -->
<g id="edge30_Node000022_Node000025" class="edge">
<title>Node22&#45;&gt;Node25</title>
<g id="a_edge30_Node000022_Node000025"><a xlink:title=" ">
<path fill="none" stroke="#63b8ff" d="M582.17,-275.84C599.78,-267.54 626.16,-255.11 646.46,-245.54"/>
<polygon fill="#63b8ff" stroke="#63b8ff" points="647.81,-248.78 655.37,-241.35 644.83,-242.44 647.81,-248.78"/>
</a>
</g>
</g>
<!-- Node26 -->
<g id="Node000026" class="node">
<title>Node26</title>
<g id="a_Node000026"><a xlink:title=" ">
<polygon fill="#e0e0e0" stroke="#999999" points="776.5,-240.25 715.5,-240.25 715.5,-221 776.5,-221 776.5,-240.25"/>
<text text-anchor="middle" x="746" y="-226.75" font-family="Helvetica,sans-Serif" font-size="10.00">filesystem</text>
</a>
</g>
</g>
<!-- Node22&#45;&gt;Node26 -->
<g id="edge31_Node000022_Node000026" class="edge">
<title>Node22&#45;&gt;Node26</title>
<g id="a_edge31_Node000022_Node000026"><a xlink:title=" ">
<path fill="none" stroke="#63b8ff" d="M590.79,-276.79C621.02,-267.99 669.65,-253.84 704.43,-243.72"/>
<polygon fill="#63b8ff" stroke="#63b8ff" points="705.11,-247.17 713.73,-241.01 703.15,-240.45 705.11,-247.17"/>
</a>
</g>
</g>
<!-- Node27 -->
<g id="Node000027" class="node">
<title>Node27</title>
<g id="a_Node000027"><a xlink:title=" ">
<polygon fill="#e0e0e0" stroke="#999999" points="843.5,-240.25 794.5,-240.25 794.5,-221 843.5,-221 843.5,-240.25"/>
<text text-anchor="middle" x="819" y="-226.75" font-family="Helvetica,sans-Serif" font-size="10.00">fstream</text>
</a>
</g>
</g>
<!-- Node22&#45;&gt;Node27 -->
<g id="edge32_Node000022_Node000027" class="edge">
<title>Node22&#45;&gt;Node27</title>
<g id="a_edge32_Node000022_Node000027"><a xlink:title=" ">
<path fill="none" stroke="#63b8ff" d="M590.92,-279.83C631.28,-272.42 708.49,-257.8 783.18,-240.8"/>
<polygon fill="#63b8ff" stroke="#63b8ff" points="783.73,-244.27 792.7,-238.62 782.17,-237.44 783.73,-244.27"/>
</a>
</g>
</g>
<!-- Node28 -->
<g id="Node000028" class="node">
<title>Node28</title>
<g id="a_Node000028"><a xlink:title=" ">
<polygon fill="#e0e0e0" stroke="#999999" points="910.12,-240.25 861.88,-240.25 861.88,-221 910.12,-221 910.12,-240.25"/>
<text text-anchor="middle" x="886" y="-226.75" font-family="Helvetica,sans-Serif" font-size="10.00">istream</text>
</a>
</g>
</g>
<!-- Node22&#45;&gt;Node28 -->
<g id="edge33_Node000022_Node000028" class="edge">
<title>Node22&#45;&gt;Node28</title>
<g id="a_edge33_Node000022_Node000028"><a xlink:title=" ">
<path fill="none" stroke="#63b8ff" d="M590.76,-281.57C640.77,-275.41 749.48,-261.08 850.54,-240.58"/>
<polygon fill="#63b8ff" stroke="#63b8ff" points="850.99,-244.06 860.08,-238.62 849.58,-237.2 850.99,-244.06"/>
</a>
</g>
</g>
<!-- Node29 -->
<g id="Node000029" class="node">
<title>Node29</title>
<g id="a_Node000029"><a xlink:title=" ">
<polygon fill="#e0e0e0" stroke="#999999" points="394.62,-240.25 343.38,-240.25 343.38,-221 394.62,-221 394.62,-240.25"/>
<text text-anchor="middle" x="369" y="-226.75" font-family="Helvetica,sans-Serif" font-size="10.00">sstream</text>
</a>
</g>
</g>
<!-- Node22&#45;&gt;Node29 -->
<g id="edge35_Node000022_Node000029" class="edge">
<title>Node22&#45;&gt;Node29</title>
<g id="a_edge35_Node000022_Node000029"><a xlink:title=" ">
<path fill="none" stroke="#63b8ff" d="M535.2,-277.25C501.21,-267.92 443.56,-252.09 405.89,-241.75"/>
<polygon fill="#63b8ff" stroke="#63b8ff" points="406.91,-238.4 396.34,-239.13 405.06,-245.15 406.91,-238.4"/>
</a>
</g>
</g>
<!-- Node30 -->
<g id="Node000030" class="node">
<title>Node30</title>
<g id="a_Node000030"><a xlink:title=" ">
<polygon fill="#e0e0e0" stroke="#999999" points="471.75,-240.25 412.25,-240.25 412.25,-221 471.75,-221 471.75,-240.25"/>
<text text-anchor="middle" x="442" y="-226.75" font-family="Helvetica,sans-Serif" font-size="10.00">sys/stat.h</text>
</a>
</g>
</g>
<!-- Node22&#45;&gt;Node30 -->
<g id="edge36_Node000022_Node000030" class="edge">
<title>Node22&#45;&gt;Node30</title>
<g id="a_edge36_Node000022_Node000030"><a xlink:title=" ">
<path fill="none" stroke="#63b8ff" d="M542.47,-275.84C523.44,-267.47 494.85,-254.88 473.03,-245.28"/>
<polygon fill="#63b8ff" stroke="#63b8ff" points="474.57,-242.14 464.01,-241.31 471.76,-248.54 474.57,-242.14"/>
</a>
</g>
</g>
<!-- Node23&#45;&gt;Node7 -->
<g id="edge28_Node000023_Node000007" class="edge">
<title>Node23&#45;&gt;Node7</title>
<g id="a_edge28_Node000023_Node000007"><a xlink:title=" ">
<path fill="none" stroke="#63b8ff" d="M559.61,-220.82C549.78,-195.28 521.09,-120.7 507.42,-85.15"/>
<polygon fill="#63b8ff" stroke="#63b8ff" points="510.8,-84.21 503.95,-76.14 504.27,-86.72 510.8,-84.21"/>
</a>
</g>
</g>
<!-- Node23&#45;&gt;Node24 -->
<g id="edge29_Node000023_Node000024" class="edge">
<title>Node23&#45;&gt;Node24</title>
<g id="a_edge29_Node000023_Node000024"><a xlink:title=" ">
<path fill="none" stroke="#63b8ff" d="M571.42,-220.83C578.54,-213.4 588.94,-202.54 597.69,-193.41"/>
<polygon fill="#63b8ff" stroke="#63b8ff" points="599.96,-196.1 604.35,-186.45 594.9,-191.25 599.96,-196.1"/>
</a>
</g>
</g>
</g>
</svg>
