<?xml version="1.0" encoding="UTF-8" standalone="no"?>
<!DOCTYPE svg PUBLIC "-//W3C//DTD SVG 1.1//EN"
 "http://www.w3.org/Graphics/SVG/1.1/DTD/svg11.dtd">
<!-- Generated by graphviz version 10.0.1 (20240210.2158)
 -->
<!-- Title: /Users/hoff/Retro/virtualc64/Emulator/Peripherals/Drive/DiskAnalyzer.h Pages: 1 -->
<svg width="930pt" height="437pt"
 viewBox="0.00 0.00 930.00 436.50" xmlns="http://www.w3.org/2000/svg" xmlns:xlink="http://www.w3.org/1999/xlink">
<g id="graph0" class="graph" transform="scale(1 1) rotate(0) translate(4 432.5)">
<title>/Users/hoff/Retro/virtualc64/Emulator/Peripherals/Drive/DiskAnalyzer.h</title>
<!-- Node1 -->
<g id="Node000001" class="node">
<title>Node1</title>
<g id="a_Node000001"><a xlink:title=" ">
<polygon fill="#999999" stroke="#666666" points="244.88,-428.5 108.12,-428.5 108.12,-386.75 244.88,-386.75 244.88,-428.5"/>
<text text-anchor="start" x="116.12" y="-415" font-family="Helvetica,sans-Serif" font-size="10.00">/Users/hoff/Retro/virtualc64</text>
<text text-anchor="start" x="116.12" y="-403.75" font-family="Helvetica,sans-Serif" font-size="10.00">/Emulator/Peripherals/Drive</text>
<text text-anchor="middle" x="176.5" y="-392.5" font-family="Helvetica,sans-Serif" font-size="10.00">/DiskAnalyzer.h</text>
</a>
</g>
</g>
<!-- Node2 -->
<g id="Node000002" class="node">
<title>Node2</title>
<g id="a_Node000002"><a xlink:href="_disk_analyzer_types_8h.html" target="_top" xlink:title=" ">
<polygon fill="white" stroke="#666666" points="109,-295.5 0,-295.5 0,-276.25 109,-276.25 109,-295.5"/>
<text text-anchor="middle" x="54.5" y="-282" font-family="Helvetica,sans-Serif" font-size="10.00">DiskAnalyzerTypes.h</text>
</a>
</g>
</g>
<!-- Node1&#45;&gt;Node2 -->
<g id="edge1_Node000001_Node000002" class="edge">
<title>Node1&#45;&gt;Node2</title>
<g id="a_edge1_Node000001_Node000002"><a xlink:title=" ">
<path fill="none" stroke="#63b8ff" d="M155.8,-386.31C132.14,-363.09 93.84,-325.49 71.73,-303.79"/>
<polygon fill="#63b8ff" stroke="#63b8ff" points="74.27,-301.37 64.68,-296.87 69.36,-306.37 74.27,-301.37"/>
</a>
</g>
</g>
<!-- Node9 -->
<g id="Node000009" class="node">
<title>Node9</title>
<g id="a_Node000009"><a xlink:href="_disk_types_8h.html" target="_top" xlink:title=" ">
<polygon fill="white" stroke="#666666" points="89.88,-240.25 19.12,-240.25 19.12,-221 89.88,-221 89.88,-240.25"/>
<text text-anchor="middle" x="54.5" y="-226.75" font-family="Helvetica,sans-Serif" font-size="10.00">DiskTypes.h</text>
</a>
</g>
</g>
<!-- Node1&#45;&gt;Node9 -->
<g id="edge11_Node000001_Node000009" class="edge">
<title>Node1&#45;&gt;Node9</title>
<g id="a_edge11_Node000001_Node000009"><a xlink:title=" ">
<path fill="none" stroke="#63b8ff" d="M170.97,-386.27C162.78,-358.95 145.32,-309.98 117.5,-276.25 107.7,-264.38 94.02,-254.17 81.91,-246.53"/>
<polygon fill="#63b8ff" stroke="#63b8ff" points="83.9,-243.65 73.52,-241.52 80.3,-249.65 83.9,-243.65"/>
</a>
</g>
</g>
<!-- Node11 -->
<g id="Node000011" class="node">
<title>Node11</title>
<g id="a_Node000011"><a xlink:href="_core_object_8h.html" target="_top" xlink:title=" ">
<polygon fill="white" stroke="#666666" points="260.38,-350.75 186.62,-350.75 186.62,-331.5 260.38,-331.5 260.38,-350.75"/>
<text text-anchor="middle" x="223.5" y="-337.25" font-family="Helvetica,sans-Serif" font-size="10.00">CoreObject.h</text>
</a>
</g>
</g>
<!-- Node1&#45;&gt;Node11 -->
<g id="edge12_Node000001_Node000011" class="edge">
<title>Node1&#45;&gt;Node11</title>
<g id="a_edge12_Node000001_Node000011"><a xlink:title=" ">
<path fill="none" stroke="#63b8ff" d="M191.11,-386.57C197.24,-378.16 204.32,-368.45 210.29,-360.25"/>
<polygon fill="#63b8ff" stroke="#63b8ff" points="212.94,-362.56 216,-352.42 207.28,-358.44 212.94,-362.56"/>
</a>
</g>
</g>
<!-- Node18 -->
<g id="Node000018" class="node">
<title>Node18</title>
<g id="a_Node000018"><a xlink:href="_i_o_utils_8h.html" target="_top" xlink:title=" ">
<polygon fill="white" stroke="#666666" points="606,-295.5 551,-295.5 551,-276.25 606,-276.25 606,-295.5"/>
<text text-anchor="middle" x="578.5" y="-282" font-family="Helvetica,sans-Serif" font-size="10.00">IOUtils.h</text>
</a>
</g>
</g>
<!-- Node1&#45;&gt;Node18 -->
<g id="edge22_Node000001_Node000018" class="edge">
<title>Node1&#45;&gt;Node18</title>
<g id="a_edge22_Node000001_Node000018"><a xlink:title=" ">
<path fill="none" stroke="#63b8ff" d="M244.69,-386.31C329.78,-360.96 472.35,-318.5 540.27,-298.26"/>
<polygon fill="#63b8ff" stroke="#63b8ff" points="540.87,-301.74 549.45,-295.53 538.87,-295.03 540.87,-301.74"/>
</a>
</g>
</g>
<!-- Node3 -->
<g id="Node000003" class="node">
<title>Node3</title>
<g id="a_Node000003"><a xlink:href="_aliases_8h.html" target="_top" xlink:title=" ">
<polygon fill="white" stroke="#666666" points="84.75,-185 28.25,-185 28.25,-165.75 84.75,-165.75 84.75,-185"/>
<text text-anchor="middle" x="56.5" y="-171.5" font-family="Helvetica,sans-Serif" font-size="10.00">Aliases.h</text>
</a>
</g>
</g>
<!-- Node2&#45;&gt;Node3 -->
<g id="edge2_Node000002_Node000003" class="edge">
<title>Node2&#45;&gt;Node3</title>
<g id="a_edge2_Node000002_Node000003"><a xlink:title=" ">
<path fill="none" stroke="#63b8ff" d="M40.76,-275.85C24.71,-264.08 1.42,-242.45 10.5,-221 15.26,-209.74 24.41,-199.93 33.3,-192.4"/>
<polygon fill="#63b8ff" stroke="#63b8ff" points="35.34,-195.24 41.08,-186.33 31.04,-189.72 35.34,-195.24"/>
</a>
</g>
</g>
<!-- Node2&#45;&gt;Node9 -->
<g id="edge8_Node000002_Node000009" class="edge">
<title>Node2&#45;&gt;Node9</title>
<g id="a_edge8_Node000002_Node000009"><a xlink:title=" ">
<path fill="none" stroke="#63b8ff" d="M54.5,-276.08C54.5,-269.57 54.5,-260.42 54.5,-252.12"/>
<polygon fill="#63b8ff" stroke="#63b8ff" points="58,-252.12 54.5,-242.12 51,-252.12 58,-252.12"/>
</a>
</g>
</g>
<!-- Node4 -->
<g id="Node000004" class="node">
<title>Node4</title>
<g id="a_Node000004"><a xlink:href="_macros_8h.html" target="_top" xlink:title=" ">
<polygon fill="white" stroke="#666666" points="235.75,-129.75 179.25,-129.75 179.25,-110.5 235.75,-110.5 235.75,-129.75"/>
<text text-anchor="middle" x="207.5" y="-116.25" font-family="Helvetica,sans-Serif" font-size="10.00">Macros.h</text>
</a>
</g>
</g>
<!-- Node3&#45;&gt;Node4 -->
<g id="edge3_Node000003_Node000004" class="edge">
<title>Node3&#45;&gt;Node4</title>
<g id="a_edge3_Node000003_Node000004"><a xlink:title=" ">
<path fill="none" stroke="#63b8ff" d="M82.12,-165.34C106.52,-156.74 143.51,-143.69 171,-134"/>
<polygon fill="#63b8ff" stroke="#63b8ff" points="172.07,-137.33 180.33,-130.71 169.74,-130.73 172.07,-137.33"/>
</a>
</g>
</g>
<!-- Node5 -->
<g id="Node000005" class="node">
<title>Node5</title>
<g id="a_Node000005"><a xlink:href="_types_8h.html" target="_top" xlink:title=" ">
<polygon fill="white" stroke="#666666" points="521.75,-74.5 471.25,-74.5 471.25,-55.25 521.75,-55.25 521.75,-74.5"/>
<text text-anchor="middle" x="496.5" y="-61" font-family="Helvetica,sans-Serif" font-size="10.00">Types.h</text>
</a>
</g>
</g>
<!-- Node4&#45;&gt;Node5 -->
<g id="edge4_Node000004_Node000005" class="edge">
<title>Node4&#45;&gt;Node5</title>
<g id="a_edge4_Node000004_Node000005"><a xlink:title=" ">
<path fill="none" stroke="#63b8ff" d="M236,-113.87C288.76,-104.15 401.56,-83.37 459.89,-72.62"/>
<polygon fill="#63b8ff" stroke="#63b8ff" points="460.44,-76.08 469.64,-70.82 459.17,-69.19 460.44,-76.08"/>
</a>
</g>
</g>
<!-- Node6 -->
<g id="Node000006" class="node">
<title>Node6</title>
<g id="a_Node000006"><a xlink:title=" ">
<polygon fill="#e0e0e0" stroke="#999999" points="454,-19.25 387,-19.25 387,0 454,0 454,-19.25"/>
<text text-anchor="middle" x="420.5" y="-5.75" font-family="Helvetica,sans-Serif" font-size="10.00">sys/types.h</text>
</a>
</g>
</g>
<!-- Node5&#45;&gt;Node6 -->
<g id="edge5_Node000005_Node000006" class="edge">
<title>Node5&#45;&gt;Node6</title>
<g id="a_edge5_Node000005_Node000006"><a xlink:title=" ">
<path fill="none" stroke="#63b8ff" d="M483.61,-54.84C472.47,-47.04 456.13,-35.59 442.86,-26.29"/>
<polygon fill="#63b8ff" stroke="#63b8ff" points="444.89,-23.44 434.7,-20.57 440.88,-29.18 444.89,-23.44"/>
</a>
</g>
</g>
<!-- Node7 -->
<g id="Node000007" class="node">
<title>Node7</title>
<g id="a_Node000007"><a xlink:title=" ">
<polygon fill="#e0e0e0" stroke="#999999" points="520.62,-19.25 472.38,-19.25 472.38,0 520.62,0 520.62,-19.25"/>
<text text-anchor="middle" x="496.5" y="-5.75" font-family="Helvetica,sans-Serif" font-size="10.00">stdint.h</text>
</a>
</g>
</g>
<!-- Node5&#45;&gt;Node7 -->
<g id="edge6_Node000005_Node000007" class="edge">
<title>Node5&#45;&gt;Node7</title>
<g id="a_edge6_Node000005_Node000007"><a xlink:title=" ">
<path fill="none" stroke="#63b8ff" d="M496.5,-55.08C496.5,-48.57 496.5,-39.42 496.5,-31.12"/>
<polygon fill="#63b8ff" stroke="#63b8ff" points="500,-31.12 496.5,-21.12 493,-31.12 500,-31.12"/>
</a>
</g>
</g>
<!-- Node8 -->
<g id="Node000008" class="node">
<title>Node8</title>
<g id="a_Node000008"><a xlink:title=" ">
<polygon fill="#e0e0e0" stroke="#999999" points="594.38,-19.25 538.62,-19.25 538.62,0 594.38,0 594.38,-19.25"/>
<text text-anchor="middle" x="566.5" y="-5.75" font-family="Helvetica,sans-Serif" font-size="10.00">stdbool.h</text>
</a>
</g>
</g>
<!-- Node5&#45;&gt;Node8 -->
<g id="edge7_Node000005_Node000008" class="edge">
<title>Node5&#45;&gt;Node8</title>
<g id="a_edge7_Node000005_Node000008"><a xlink:title=" ">
<path fill="none" stroke="#63b8ff" d="M508.37,-54.84C518.59,-47.07 533.57,-35.67 545.76,-26.4"/>
<polygon fill="#63b8ff" stroke="#63b8ff" points="547.76,-29.28 553.6,-20.44 543.52,-23.71 547.76,-29.28"/>
</a>
</g>
</g>
<!-- Node9&#45;&gt;Node3 -->
<g id="edge9_Node000009_Node000003" class="edge">
<title>Node9&#45;&gt;Node3</title>
<g id="a_edge9_Node000009_Node000003"><a xlink:title=" ">
<path fill="none" stroke="#63b8ff" d="M54.83,-220.83C55.08,-214.24 55.43,-204.96 55.74,-196.57"/>
<polygon fill="#63b8ff" stroke="#63b8ff" points="59.23,-197 56.11,-186.87 52.23,-196.73 59.23,-197"/>
</a>
</g>
</g>
<!-- Node10 -->
<g id="Node000010" class="node">
<title>Node10</title>
<g id="a_Node000010"><a xlink:href="_reflection_8h.html" target="_top" xlink:title=" ">
<polygon fill="white" stroke="#666666" points="173.75,-185 105.25,-185 105.25,-165.75 173.75,-165.75 173.75,-185"/>
<text text-anchor="middle" x="139.5" y="-171.5" font-family="Helvetica,sans-Serif" font-size="10.00">Reflection.h</text>
</a>
</g>
</g>
<!-- Node9&#45;&gt;Node10 -->
<g id="edge10_Node000009_Node000010" class="edge">
<title>Node9&#45;&gt;Node10</title>
<g id="a_edge10_Node000009_Node000010"><a xlink:title=" ">
<path fill="none" stroke="#63b8ff" d="M68.92,-220.59C81.62,-212.64 100.37,-200.89 115.36,-191.5"/>
<polygon fill="#63b8ff" stroke="#63b8ff" points="117.11,-194.53 123.73,-186.26 113.4,-188.6 117.11,-194.53"/>
</a>
</g>
</g>
<!-- Node12 -->
<g id="Node000012" class="node">
<title>Node12</title>
<g id="a_Node000012"><a xlink:href="_error_8h.html" target="_top" xlink:title=" ">
<polygon fill="white" stroke="#666666" points="245.75,-295.5 201.25,-295.5 201.25,-276.25 245.75,-276.25 245.75,-295.5"/>
<text text-anchor="middle" x="223.5" y="-282" font-family="Helvetica,sans-Serif" font-size="10.00">Error.h</text>
</a>
</g>
</g>
<!-- Node11&#45;&gt;Node12 -->
<g id="edge13_Node000011_Node000012" class="edge">
<title>Node11&#45;&gt;Node12</title>
<g id="a_edge13_Node000011_Node000012"><a xlink:title=" ">
<path fill="none" stroke="#63b8ff" d="M223.5,-331.33C223.5,-324.82 223.5,-315.67 223.5,-307.37"/>
<polygon fill="#63b8ff" stroke="#63b8ff" points="227,-307.37 223.5,-297.37 220,-307.37 227,-307.37"/>
</a>
</g>
</g>
<!-- Node16 -->
<g id="Node000016" class="node">
<title>Node16</title>
<g id="a_Node000016"><a xlink:href="_inspectable_8h.html" target="_top" xlink:title=" ">
<polygon fill="white" stroke="#666666" points="343.75,-295.5 269.25,-295.5 269.25,-276.25 343.75,-276.25 343.75,-295.5"/>
<text text-anchor="middle" x="306.5" y="-282" font-family="Helvetica,sans-Serif" font-size="10.00">Inspectable.h</text>
</a>
</g>
</g>
<!-- Node11&#45;&gt;Node16 -->
<g id="edge20_Node000011_Node000016" class="edge">
<title>Node11&#45;&gt;Node16</title>
<g id="a_edge20_Node000011_Node000016"><a xlink:title=" ">
<path fill="none" stroke="#63b8ff" d="M237.58,-331.09C249.98,-323.14 268.29,-311.39 282.93,-302"/>
<polygon fill="#63b8ff" stroke="#63b8ff" points="284.55,-305.12 291.08,-296.77 280.77,-299.22 284.55,-305.12"/>
</a>
</g>
</g>
<!-- Node13 -->
<g id="Node000013" class="node">
<title>Node13</title>
<g id="a_Node000013"><a xlink:href="_error_types_8h.html" target="_top" xlink:title=" ">
<polygon fill="white" stroke="#666666" points="179.25,-240.25 107.75,-240.25 107.75,-221 179.25,-221 179.25,-240.25"/>
<text text-anchor="middle" x="143.5" y="-226.75" font-family="Helvetica,sans-Serif" font-size="10.00">ErrorTypes.h</text>
</a>
</g>
</g>
<!-- Node12&#45;&gt;Node13 -->
<g id="edge14_Node000012_Node000013" class="edge">
<title>Node12&#45;&gt;Node13</title>
<g id="a_edge14_Node000012_Node000013"><a xlink:title=" ">
<path fill="none" stroke="#63b8ff" d="M209.93,-275.84C198.09,-267.96 180.66,-256.36 166.63,-247.02"/>
<polygon fill="#63b8ff" stroke="#63b8ff" points="168.66,-244.17 158.4,-241.54 164.78,-250 168.66,-244.17"/>
</a>
</g>
</g>
<!-- Node14 -->
<g id="Node000014" class="node">
<title>Node14</title>
<g id="a_Node000014"><a xlink:href="_exception_8h.html" target="_top" xlink:title=" ">
<polygon fill="white" stroke="#666666" points="265.38,-240.25 197.62,-240.25 197.62,-221 265.38,-221 265.38,-240.25"/>
<text text-anchor="middle" x="231.5" y="-226.75" font-family="Helvetica,sans-Serif" font-size="10.00">Exception.h</text>
</a>
</g>
</g>
<!-- Node12&#45;&gt;Node14 -->
<g id="edge17_Node000012_Node000014" class="edge">
<title>Node12&#45;&gt;Node14</title>
<g id="a_edge17_Node000012_Node000014"><a xlink:title=" ">
<path fill="none" stroke="#63b8ff" d="M224.82,-276.08C225.81,-269.49 227.21,-260.21 228.47,-251.82"/>
<polygon fill="#63b8ff" stroke="#63b8ff" points="231.9,-252.51 229.93,-242.11 224.98,-251.47 231.9,-252.51"/>
</a>
</g>
</g>
<!-- Node13&#45;&gt;Node3 -->
<g id="edge15_Node000013_Node000003" class="edge">
<title>Node13&#45;&gt;Node3</title>
<g id="a_edge15_Node000013_Node000003"><a xlink:title=" ">
<path fill="none" stroke="#63b8ff" d="M128.74,-220.59C115.62,-212.56 96.18,-200.66 80.77,-191.23"/>
<polygon fill="#63b8ff" stroke="#63b8ff" points="82.98,-188.48 72.62,-186.24 79.32,-194.45 82.98,-188.48"/>
</a>
</g>
</g>
<!-- Node13&#45;&gt;Node10 -->
<g id="edge16_Node000013_Node000010" class="edge">
<title>Node13&#45;&gt;Node10</title>
<g id="a_edge16_Node000013_Node000010"><a xlink:title=" ">
<path fill="none" stroke="#63b8ff" d="M142.84,-220.83C142.34,-214.24 141.65,-204.96 141.02,-196.57"/>
<polygon fill="#63b8ff" stroke="#63b8ff" points="144.53,-196.58 140.29,-186.87 137.55,-197.1 144.53,-196.58"/>
</a>
</g>
</g>
<!-- Node14&#45;&gt;Node5 -->
<g id="edge18_Node000014_Node000005" class="edge">
<title>Node14&#45;&gt;Node5</title>
<g id="a_edge18_Node000014_Node000005"><a xlink:title=" ">
<path fill="none" stroke="#63b8ff" d="M246.13,-220.59C289.56,-193.75 418.13,-114.3 472.16,-80.92"/>
<polygon fill="#63b8ff" stroke="#63b8ff" points="473.97,-83.91 480.63,-75.68 470.29,-77.96 473.97,-83.91"/>
</a>
</g>
</g>
<!-- Node15 -->
<g id="Node000015" class="node">
<title>Node15</title>
<g id="a_Node000015"><a xlink:title=" ">
<polygon fill="#e0e0e0" stroke="#999999" points="260.5,-185 202.5,-185 202.5,-165.75 260.5,-165.75 260.5,-185"/>
<text text-anchor="middle" x="231.5" y="-171.5" font-family="Helvetica,sans-Serif" font-size="10.00">exception</text>
</a>
</g>
</g>
<!-- Node14&#45;&gt;Node15 -->
<g id="edge19_Node000014_Node000015" class="edge">
<title>Node14&#45;&gt;Node15</title>
<g id="a_edge19_Node000014_Node000015"><a xlink:title=" ">
<path fill="none" stroke="#63b8ff" d="M231.5,-220.83C231.5,-214.32 231.5,-205.17 231.5,-196.87"/>
<polygon fill="#63b8ff" stroke="#63b8ff" points="235,-196.87 231.5,-186.87 228,-196.87 235,-196.87"/>
</a>
</g>
</g>
<!-- Node17 -->
<g id="Node000017" class="node">
<title>Node17</title>
<g id="a_Node000017"><a xlink:title=" ">
<polygon fill="#e0e0e0" stroke="#999999" points="337.25,-240.25 283.75,-240.25 283.75,-221 337.25,-221 337.25,-240.25"/>
<text text-anchor="middle" x="310.5" y="-226.75" font-family="Helvetica,sans-Serif" font-size="10.00">iostream</text>
</a>
</g>
</g>
<!-- Node16&#45;&gt;Node17 -->
<g id="edge21_Node000016_Node000017" class="edge">
<title>Node16&#45;&gt;Node17</title>
<g id="a_edge21_Node000016_Node000017"><a xlink:title=" ">
<path fill="none" stroke="#63b8ff" d="M307.16,-276.08C307.66,-269.49 308.35,-260.21 308.98,-251.82"/>
<polygon fill="#63b8ff" stroke="#63b8ff" points="312.45,-252.35 309.71,-242.12 305.47,-251.83 312.45,-252.35"/>
</a>
</g>
</g>
<!-- Node18&#45;&gt;Node5 -->
<g id="edge23_Node000018_Node000005" class="edge">
<title>Node18&#45;&gt;Node5</title>
<g id="a_edge23_Node000018_Node000005"><a xlink:title=" ">
<path fill="none" stroke="#63b8ff" d="M576.18,-276.11C572.84,-263.72 566.32,-240.43 559.5,-221 542.08,-171.34 517.79,-114.33 505.06,-85.21"/>
<polygon fill="#63b8ff" stroke="#63b8ff" points="508.34,-83.98 501.11,-76.24 501.93,-86.8 508.34,-83.98"/>
</a>
</g>
</g>
<!-- Node18&#45;&gt;Node17 -->
<g id="edge31_Node000018_Node000017" class="edge">
<title>Node18&#45;&gt;Node17</title>
<g id="a_edge31_Node000018_Node000017"><a xlink:title=" ">
<path fill="none" stroke="#63b8ff" d="M550.56,-279.92C508.86,-272.44 427.6,-257.51 348.71,-240.65"/>
<polygon fill="#63b8ff" stroke="#63b8ff" points="349.59,-237.26 339.08,-238.57 348.12,-244.1 349.59,-237.26"/>
</a>
</g>
</g>
<!-- Node19 -->
<g id="Node000019" class="node">
<title>Node19</title>
<g id="a_Node000019"><a xlink:href="_string_utils_8h.html" target="_top" xlink:title=" ">
<polygon fill="white" stroke="#666666" points="676.5,-240.25 606.5,-240.25 606.5,-221 676.5,-221 676.5,-240.25"/>
<text text-anchor="middle" x="641.5" y="-226.75" font-family="Helvetica,sans-Serif" font-size="10.00">StringUtils.h</text>
</a>
</g>
</g>
<!-- Node18&#45;&gt;Node19 -->
<g id="edge24_Node000018_Node000019" class="edge">
<title>Node18&#45;&gt;Node19</title>
<g id="a_edge24_Node000018_Node000019"><a xlink:title=" ">
<path fill="none" stroke="#63b8ff" d="M589.19,-275.84C598.2,-268.22 611.33,-257.12 622.18,-247.95"/>
<polygon fill="#63b8ff" stroke="#63b8ff" points="624.44,-250.63 629.81,-241.5 619.92,-245.28 624.44,-250.63"/>
</a>
</g>
</g>
<!-- Node20 -->
<g id="Node000020" class="node">
<title>Node20</title>
<g id="a_Node000020"><a xlink:title=" ">
<polygon fill="#e0e0e0" stroke="#999999" points="716,-185 673,-185 673,-165.75 716,-165.75 716,-185"/>
<text text-anchor="middle" x="694.5" y="-171.5" font-family="Helvetica,sans-Serif" font-size="10.00">vector</text>
</a>
</g>
</g>
<!-- Node18&#45;&gt;Node20 -->
<g id="edge34_Node000018_Node000020" class="edge">
<title>Node18&#45;&gt;Node20</title>
<g id="a_edge34_Node000018_Node000020"><a xlink:title=" ">
<path fill="none" stroke="#63b8ff" d="M606.42,-281.05C631.22,-276.09 666.43,-264.94 685.5,-240.25 695.04,-227.9 696.86,-210.07 696.54,-196.39"/>
<polygon fill="#63b8ff" stroke="#63b8ff" points="700.06,-196.51 695.9,-186.77 693.07,-196.98 700.06,-196.51"/>
</a>
</g>
</g>
<!-- Node21 -->
<g id="Node000021" class="node">
<title>Node21</title>
<g id="a_Node000021"><a xlink:title=" ">
<polygon fill="#e0e0e0" stroke="#999999" points="776,-240.25 733,-240.25 733,-221 776,-221 776,-240.25"/>
<text text-anchor="middle" x="754.5" y="-226.75" font-family="Helvetica,sans-Serif" font-size="10.00">fcntl.h</text>
</a>
</g>
</g>
<!-- Node18&#45;&gt;Node21 -->
<g id="edge27_Node000018_Node000021" class="edge">
<title>Node18&#45;&gt;Node21</title>
<g id="a_edge27_Node000018_Node000021"><a xlink:title=" ">
<path fill="none" stroke="#63b8ff" d="M606.39,-276.44C637.69,-266.97 688.42,-251.62 721.63,-241.57"/>
<polygon fill="#63b8ff" stroke="#63b8ff" points="722.57,-244.94 731.13,-238.69 720.55,-238.24 722.57,-244.94"/>
</a>
</g>
</g>
<!-- Node22 -->
<g id="Node000022" class="node">
<title>Node22</title>
<g id="a_Node000022"><a xlink:title=" ">
<polygon fill="#e0e0e0" stroke="#999999" points="855,-240.25 794,-240.25 794,-221 855,-221 855,-240.25"/>
<text text-anchor="middle" x="824.5" y="-226.75" font-family="Helvetica,sans-Serif" font-size="10.00">filesystem</text>
</a>
</g>
</g>
<!-- Node18&#45;&gt;Node22 -->
<g id="edge28_Node000018_Node000022" class="edge">
<title>Node18&#45;&gt;Node22</title>
<g id="a_edge28_Node000018_Node000022"><a xlink:title=" ">
<path fill="none" stroke="#63b8ff" d="M606.3,-278.93C644.03,-270.85 713.83,-255.87 782.79,-240.83"/>
<polygon fill="#63b8ff" stroke="#63b8ff" points="783.34,-244.3 792.37,-238.74 781.85,-237.46 783.34,-244.3"/>
</a>
</g>
</g>
<!-- Node23 -->
<g id="Node000023" class="node">
<title>Node23</title>
<g id="a_Node000023"><a xlink:title=" ">
<polygon fill="#e0e0e0" stroke="#999999" points="922,-240.25 873,-240.25 873,-221 922,-221 922,-240.25"/>
<text text-anchor="middle" x="897.5" y="-226.75" font-family="Helvetica,sans-Serif" font-size="10.00">fstream</text>
</a>
</g>
</g>
<!-- Node18&#45;&gt;Node23 -->
<g id="edge29_Node000018_Node000023" class="edge">
<title>Node18&#45;&gt;Node23</title>
<g id="a_edge29_Node000018_Node000023"><a xlink:title=" ">
<path fill="none" stroke="#63b8ff" d="M606.28,-281.49C655.72,-275.26 762.45,-260.9 861.58,-240.69"/>
<polygon fill="#63b8ff" stroke="#63b8ff" points="862.13,-244.15 871.21,-238.7 860.71,-237.3 862.13,-244.15"/>
</a>
</g>
</g>
<!-- Node24 -->
<g id="Node000024" class="node">
<title>Node24</title>
<g id="a_Node000024"><a xlink:title=" ">
<polygon fill="#e0e0e0" stroke="#999999" points="403.62,-240.25 355.38,-240.25 355.38,-221 403.62,-221 403.62,-240.25"/>
<text text-anchor="middle" x="379.5" y="-226.75" font-family="Helvetica,sans-Serif" font-size="10.00">istream</text>
</a>
</g>
</g>
<!-- Node18&#45;&gt;Node24 -->
<g id="edge30_Node000018_Node000024" class="edge">
<title>Node18&#45;&gt;Node24</title>
<g id="a_edge30_Node000018_Node000024"><a xlink:title=" ">
<path fill="none" stroke="#63b8ff" d="M550.83,-277.47C515.35,-267.98 453.78,-251.5 414.92,-241.1"/>
<polygon fill="#63b8ff" stroke="#63b8ff" points="416.15,-237.81 405.58,-238.6 414.34,-244.57 416.15,-237.81"/>
</a>
</g>
</g>
<!-- Node25 -->
<g id="Node000025" class="node">
<title>Node25</title>
<g id="a_Node000025"><a xlink:title=" ">
<polygon fill="#e0e0e0" stroke="#999999" points="473.12,-240.25 421.88,-240.25 421.88,-221 473.12,-221 473.12,-240.25"/>
<text text-anchor="middle" x="447.5" y="-226.75" font-family="Helvetica,sans-Serif" font-size="10.00">sstream</text>
</a>
</g>
</g>
<!-- Node18&#45;&gt;Node25 -->
<g id="edge32_Node000018_Node000025" class="edge">
<title>Node18&#45;&gt;Node25</title>
<g id="a_edge32_Node000018_Node000025"><a xlink:title=" ">
<path fill="none" stroke="#63b8ff" d="M556.28,-275.84C535.48,-267.39 504.15,-254.65 480.45,-245.02"/>
<polygon fill="#63b8ff" stroke="#63b8ff" points="481.82,-241.8 471.23,-241.27 479.18,-248.28 481.82,-241.8"/>
</a>
</g>
</g>
<!-- Node26 -->
<g id="Node000026" class="node">
<title>Node26</title>
<g id="a_Node000026"><a xlink:title=" ">
<polygon fill="#e0e0e0" stroke="#999999" points="550.25,-240.25 490.75,-240.25 490.75,-221 550.25,-221 550.25,-240.25"/>
<text text-anchor="middle" x="520.5" y="-226.75" font-family="Helvetica,sans-Serif" font-size="10.00">sys/stat.h</text>
</a>
</g>
</g>
<!-- Node18&#45;&gt;Node26 -->
<g id="edge33_Node000018_Node000026" class="edge">
<title>Node18&#45;&gt;Node26</title>
<g id="a_edge33_Node000018_Node000026"><a xlink:title=" ">
<path fill="none" stroke="#63b8ff" d="M568.66,-275.84C560.45,-268.3 548.52,-257.35 538.59,-248.23"/>
<polygon fill="#63b8ff" stroke="#63b8ff" points="541.04,-245.73 531.31,-241.55 536.31,-250.89 541.04,-245.73"/>
</a>
</g>
</g>
<!-- Node19&#45;&gt;Node5 -->
<g id="edge25_Node000019_Node000005" class="edge">
<title>Node19&#45;&gt;Node5</title>
<g id="a_edge25_Node000019_Node000005"><a xlink:title=" ">
<path fill="none" stroke="#63b8ff" d="M640.1,-220.64C636.3,-198.99 623.87,-143.31 592.5,-110.5 576.39,-93.65 552.69,-82.55 532.86,-75.63"/>
<polygon fill="#63b8ff" stroke="#63b8ff" points="534.05,-72.33 523.46,-72.58 531.9,-78.99 534.05,-72.33"/>
</a>
</g>
</g>
<!-- Node19&#45;&gt;Node20 -->
<g id="edge26_Node000019_Node000020" class="edge">
<title>Node19&#45;&gt;Node20</title>
<g id="a_edge26_Node000019_Node000020"><a xlink:title=" ">
<path fill="none" stroke="#63b8ff" d="M650.25,-220.83C657.65,-213.4 668.46,-202.54 677.55,-193.41"/>
<polygon fill="#63b8ff" stroke="#63b8ff" points="679.92,-195.99 684.49,-186.43 674.96,-191.05 679.92,-195.99"/>
</a>
</g>
</g>
</g>
</svg>
