<?xml version="1.0" encoding="UTF-8" standalone="no"?>
<!DOCTYPE svg PUBLIC "-//W3C//DTD SVG 1.1//EN"
 "http://www.w3.org/Graphics/SVG/1.1/DTD/svg11.dtd">
<!-- Generated by graphviz version 10.0.1 (20240210.2158)
 -->
<!-- Title: /Users/hoff/Retro/virtualc64/Emulator/Peripherals/Drive/Disk.cpp Pages: 1 -->
<svg width="2835pt" height="326pt"
 viewBox="0.00 0.00 2835.25 326.00" xmlns="http://www.w3.org/2000/svg" xmlns:xlink="http://www.w3.org/1999/xlink">
<g id="graph0" class="graph" transform="scale(1 1) rotate(0) translate(4 322)">
<title>/Users/hoff/Retro/virtualc64/Emulator/Peripherals/Drive/Disk.cpp</title>
<!-- Node1 -->
<g id="Node000001" class="node">
<title>Node1</title>
<g id="a_Node000001"><a xlink:title=" ">
<polygon fill="#999999" stroke="#666666" points="2727,-318 2590.25,-318 2590.25,-276.25 2727,-276.25 2727,-318"/>
<text text-anchor="start" x="2598.25" y="-304.5" font-family="Helvetica,sans-Serif" font-size="10.00">/Users/hoff/Retro/virtualc64</text>
<text text-anchor="start" x="2598.25" y="-293.25" font-family="Helvetica,sans-Serif" font-size="10.00">/Emulator/Peripherals/Drive</text>
<text text-anchor="middle" x="2658.62" y="-282" font-family="Helvetica,sans-Serif" font-size="10.00">/Disk.cpp</text>
</a>
</g>
</g>
<!-- Node2 -->
<g id="Node000002" class="node">
<title>Node2</title>
<g id="a_Node000002"><a xlink:href="config_8h.html" target="_top" xlink:title=" ">
<polygon fill="white" stroke="#666666" points="708.88,-240.25 658.38,-240.25 658.38,-221 708.88,-221 708.88,-240.25"/>
<text text-anchor="middle" x="683.62" y="-226.75" font-family="Helvetica,sans-Serif" font-size="10.00">config.h</text>
</a>
</g>
</g>
<!-- Node1&#45;&gt;Node2 -->
<g id="edge1_Node000001_Node000002" class="edge">
<title>Node1&#45;&gt;Node2</title>
<g id="a_edge1_Node000001_Node000002"><a xlink:title=" ">
<path fill="none" stroke="#63b8ff" d="M2589.78,-293.88C2272.71,-283.52 958.41,-240.6 720.6,-232.83"/>
<polygon fill="#63b8ff" stroke="#63b8ff" points="720.81,-229.34 710.7,-232.51 720.58,-236.33 720.81,-229.34"/>
</a>
</g>
</g>
<!-- Node4 -->
<g id="Node000004" class="node">
<title>Node4</title>
<g id="a_Node000004"><a xlink:href="_c64_8h.html" target="_top" xlink:title=" ">
<polygon fill="white" stroke="#666666" points="1426.75,-240.25 1384.5,-240.25 1384.5,-221 1426.75,-221 1426.75,-240.25"/>
<text text-anchor="middle" x="1405.62" y="-226.75" font-family="Helvetica,sans-Serif" font-size="10.00">C64.h</text>
</a>
</g>
</g>
<!-- Node1&#45;&gt;Node4 -->
<g id="edge3_Node000001_Node000004" class="edge">
<title>Node1&#45;&gt;Node4</title>
<g id="a_edge3_Node000001_Node000004"><a xlink:title=" ">
<path fill="none" stroke="#63b8ff" d="M2589.92,-292.59C2357.21,-280.61 1604.03,-241.84 1438.14,-233.3"/>
<polygon fill="#63b8ff" stroke="#63b8ff" points="1438.49,-229.81 1428.32,-232.79 1438.13,-236.8 1438.49,-229.81"/>
</a>
</g>
</g>
<!-- Node38 -->
<g id="Node000038" class="node">
<title>Node38</title>
<g id="a_Node000038"><a xlink:href="_i_o_utils_8h.html" target="_top" xlink:title=" ">
<polygon fill="#fff0f0" stroke="red" points="2591.12,-129.75 2536.12,-129.75 2536.12,-110.5 2591.12,-110.5 2591.12,-129.75"/>
<text text-anchor="middle" x="2563.62" y="-116.25" font-family="Helvetica,sans-Serif" font-size="10.00">IOUtils.h</text>
</a>
</g>
</g>
<!-- Node1&#45;&gt;Node38 -->
<g id="edge64_Node000001_Node000038" class="edge">
<title>Node1&#45;&gt;Node38</title>
<g id="a_edge64_Node000001_Node000038"><a xlink:title=" ">
<path fill="none" stroke="#63b8ff" d="M2660.77,-276.14C2662.66,-248.81 2662.23,-199.34 2639.62,-165.75 2630.35,-151.96 2615.26,-141.84 2600.96,-134.75"/>
<polygon fill="#63b8ff" stroke="#63b8ff" points="2602.71,-131.71 2592.16,-130.75 2599.81,-138.08 2602.71,-131.71"/>
</a>
</g>
</g>
<!-- Node66 -->
<g id="Node000066" class="node">
<title>Node66</title>
<g id="a_Node000066"><a xlink:href="_checksum_8h.html" target="_top" xlink:title=" ">
<polygon fill="white" stroke="#666666" points="2758.38,-240.25 2686.88,-240.25 2686.88,-221 2758.38,-221 2758.38,-240.25"/>
<text text-anchor="middle" x="2722.62" y="-226.75" font-family="Helvetica,sans-Serif" font-size="10.00">Checksum.h</text>
</a>
</g>
</g>
<!-- Node1&#45;&gt;Node66 -->
<g id="edge65_Node000001_Node000066" class="edge">
<title>Node1&#45;&gt;Node66</title>
<g id="a_edge65_Node000001_Node000066"><a xlink:title=" ">
<path fill="none" stroke="#63b8ff" d="M2678.52,-276.07C2687.24,-267.29 2697.36,-257.09 2705.7,-248.68"/>
<polygon fill="#63b8ff" stroke="#63b8ff" points="2708,-251.33 2712.56,-241.77 2703.03,-246.4 2708,-251.33"/>
</a>
</g>
</g>
<!-- Node195 -->
<g id="Node000195" class="node">
<title>Node195</title>
<g id="a_Node000195"><a xlink:title=" ">
<polygon fill="#e0e0e0" stroke="#999999" points="2827.25,-240.25 2776,-240.25 2776,-221 2827.25,-221 2827.25,-240.25"/>
<text text-anchor="middle" x="2801.62" y="-226.75" font-family="Helvetica,sans-Serif" font-size="10.00">stdarg.h</text>
</a>
</g>
</g>
<!-- Node1&#45;&gt;Node195 -->
<g id="edge67_Node000001_Node000195" class="edge">
<title>Node1&#45;&gt;Node195</title>
<g id="a_edge67_Node000001_Node000195"><a xlink:title=" ">
<path fill="none" stroke="#63b8ff" d="M2703.48,-275.89C2725.59,-265.92 2751.68,-254.15 2771.4,-245.26"/>
<polygon fill="#63b8ff" stroke="#63b8ff" points="2772.57,-248.57 2780.25,-241.27 2769.69,-242.19 2772.57,-248.57"/>
</a>
</g>
</g>
<!-- Node3 -->
<g id="Node000003" class="node">
<title>Node3</title>
<g id="a_Node000003"><a xlink:title=" ">
<polygon fill="#e0e0e0" stroke="#999999" points="51.25,-185 0,-185 0,-165.75 51.25,-165.75 51.25,-185"/>
<text text-anchor="middle" x="25.62" y="-171.5" font-family="Helvetica,sans-Serif" font-size="10.00">assert.h</text>
</a>
</g>
</g>
<!-- Node2&#45;&gt;Node3 -->
<g id="edge2_Node000002_Node000003" class="edge">
<title>Node2&#45;&gt;Node3</title>
<g id="a_edge2_Node000002_Node000003"><a xlink:title=" ">
<path fill="none" stroke="#63b8ff" d="M657.88,-229.06C572.9,-226.91 293.77,-217.67 65.62,-185 64.61,-184.85 63.58,-184.7 62.55,-184.53"/>
<polygon fill="#63b8ff" stroke="#63b8ff" points="63.31,-181.11 52.84,-182.75 62.04,-188 63.31,-181.11"/>
</a>
</g>
</g>
<!-- Node5 -->
<g id="Node000005" class="node">
<title>Node5</title>
<g id="a_Node000005"><a xlink:href="_c64_types_8h.html" target="_top" xlink:title=" ">
<polygon fill="#fff0f0" stroke="red" points="374.88,-129.75 306.38,-129.75 306.38,-110.5 374.88,-110.5 374.88,-129.75"/>
<text text-anchor="middle" x="340.62" y="-116.25" font-family="Helvetica,sans-Serif" font-size="10.00">C64Types.h</text>
</a>
</g>
</g>
<!-- Node4&#45;&gt;Node5 -->
<g id="edge4_Node000004_Node000005" class="edge">
<title>Node4&#45;&gt;Node5</title>
<g id="a_edge4_Node000004_Node000005"><a xlink:title=" ">
<path fill="none" stroke="#63b8ff" d="M1384.01,-229.61C1231.42,-229.38 321.29,-226.27 281.62,-185 265.57,-168.29 289.98,-148.66 312.1,-135.61"/>
<polygon fill="#63b8ff" stroke="#63b8ff" points="313.6,-138.78 320.63,-130.85 310.19,-132.67 313.6,-138.78"/>
</a>
</g>
</g>
<!-- Node13 -->
<g id="Node000013" class="node">
<title>Node13</title>
<g id="a_Node000013"><a xlink:href="_msg_queue_8h.html" target="_top" xlink:title=" ">
<polygon fill="#fff0f0" stroke="red" points="642.38,-185 570.88,-185 570.88,-165.75 642.38,-165.75 642.38,-185"/>
<text text-anchor="middle" x="606.62" y="-171.5" font-family="Helvetica,sans-Serif" font-size="10.00">MsgQueue.h</text>
</a>
</g>
</g>
<!-- Node4&#45;&gt;Node13 -->
<g id="edge5_Node000004_Node000013" class="edge">
<title>Node4&#45;&gt;Node13</title>
<g id="a_edge5_Node000004_Node000013"><a xlink:title=" ">
<path fill="none" stroke="#63b8ff" d="M1384.24,-229.38C1295.71,-228.14 949.12,-221.21 653.79,-185.08"/>
<polygon fill="#63b8ff" stroke="#63b8ff" points="654.28,-181.61 643.92,-183.86 653.42,-188.56 654.28,-181.61"/>
</a>
</g>
</g>
<!-- Node30 -->
<g id="Node000030" class="node">
<title>Node30</title>
<g id="a_Node000030"><a xlink:href="_thread_8h.html" target="_top" xlink:title=" ">
<polygon fill="#fff0f0" stroke="red" points="714.75,-185 660.5,-185 660.5,-165.75 714.75,-165.75 714.75,-185"/>
<text text-anchor="middle" x="687.62" y="-171.5" font-family="Helvetica,sans-Serif" font-size="10.00">Thread.h</text>
</a>
</g>
</g>
<!-- Node4&#45;&gt;Node30 -->
<g id="edge6_Node000004_Node000030" class="edge">
<title>Node4&#45;&gt;Node30</title>
<g id="a_edge6_Node000004_Node000030"><a xlink:title=" ">
<path fill="none" stroke="#63b8ff" d="M1384.17,-229.31C1300.09,-227.86 985.06,-220.24 728.62,-185 727.79,-184.88 726.94,-184.76 726.09,-184.63"/>
<polygon fill="#63b8ff" stroke="#63b8ff" points="726.82,-181.21 716.37,-182.93 725.61,-188.1 726.82,-181.21"/>
</a>
</g>
</g>
<!-- Node51 -->
<g id="Node000051" class="node">
<title>Node51</title>
<g id="a_Node000051"><a xlink:href="_expansion_port_8h.html" target="_top" xlink:title=" ">
<polygon fill="#fff0f0" stroke="red" points="1182.62,-185 1094.62,-185 1094.62,-165.75 1182.62,-165.75 1182.62,-185"/>
<text text-anchor="middle" x="1138.62" y="-171.5" font-family="Helvetica,sans-Serif" font-size="10.00">ExpansionPort.h</text>
</a>
</g>
</g>
<!-- Node4&#45;&gt;Node51 -->
<g id="edge7_Node000004_Node000051" class="edge">
<title>Node4&#45;&gt;Node51</title>
<g id="a_edge7_Node000004_Node000051"><a xlink:title=" ">
<path fill="none" stroke="#63b8ff" d="M1384.23,-225.36C1343.31,-217.2 1252.79,-199.14 1193.81,-187.38"/>
<polygon fill="#63b8ff" stroke="#63b8ff" points="1194.8,-184.01 1184.31,-185.49 1193.43,-190.87 1194.8,-184.01"/>
</a>
</g>
</g>
<!-- Node58 -->
<g id="Node000058" class="node">
<title>Node58</title>
<g id="a_Node000058"><a xlink:href="_cartridge_8h.html" target="_top" xlink:title=" ">
<polygon fill="#fff0f0" stroke="red" points="1134.62,-129.75 1070.62,-129.75 1070.62,-110.5 1134.62,-110.5 1134.62,-129.75"/>
<text text-anchor="middle" x="1102.62" y="-116.25" font-family="Helvetica,sans-Serif" font-size="10.00">Cartridge.h</text>
</a>
</g>
</g>
<!-- Node4&#45;&gt;Node58 -->
<g id="edge31_Node000004_Node000058" class="edge">
<title>Node4&#45;&gt;Node58</title>
<g id="a_edge31_Node000004_Node000058"><a xlink:title=" ">
<path fill="none" stroke="#63b8ff" d="M1384.44,-230.09C1319.41,-231.03 1124.75,-229.96 1085.62,-185 1074.7,-172.45 1081.61,-153.61 1089.65,-139.65"/>
<polygon fill="#63b8ff" stroke="#63b8ff" points="1092.5,-141.69 1094.93,-131.38 1086.6,-137.92 1092.5,-141.69"/>
</a>
</g>
</g>
<!-- Node61 -->
<g id="Node000061" class="node">
<title>Node61</title>
<g id="a_Node000061"><a xlink:href="_c_r_t_file_8h.html" target="_top" xlink:title=" ">
<polygon fill="#fff0f0" stroke="red" points="1417.12,-74.5 1356.12,-74.5 1356.12,-55.25 1417.12,-55.25 1417.12,-74.5"/>
<text text-anchor="middle" x="1386.62" y="-61" font-family="Helvetica,sans-Serif" font-size="10.00">CRTFile.h</text>
</a>
</g>
</g>
<!-- Node4&#45;&gt;Node61 -->
<g id="edge52_Node000004_Node000061" class="edge">
<title>Node4&#45;&gt;Node61</title>
<g id="a_edge52_Node000004_Node000061"><a xlink:title=" ">
<path fill="none" stroke="#63b8ff" d="M1427.25,-229.65C1487.31,-229.21 1653.98,-224.39 1687.62,-185 1693.18,-178.49 1692.63,-172.69 1687.62,-165.75 1627.89,-82.99 1496.84,-67.72 1429.08,-65.59"/>
<polygon fill="#63b8ff" stroke="#63b8ff" points="1429.17,-62.09 1419.1,-65.37 1429.02,-69.09 1429.17,-62.09"/>
</a>
</g>
</g>
<!-- Node68 -->
<g id="Node000068" class="node">
<title>Node68</title>
<g id="a_Node000068"><a xlink:href="_i_e_c_8h.html" target="_top" xlink:title=" ">
<polygon fill="#fff0f0" stroke="red" points="1038.38,-185 996.88,-185 996.88,-165.75 1038.38,-165.75 1038.38,-185"/>
<text text-anchor="middle" x="1017.62" y="-171.5" font-family="Helvetica,sans-Serif" font-size="10.00">IEC.h</text>
</a>
</g>
</g>
<!-- Node4&#45;&gt;Node68 -->
<g id="edge10_Node000004_Node000068" class="edge">
<title>Node4&#45;&gt;Node68</title>
<g id="a_edge10_Node000004_Node000068"><a xlink:title=" ">
<path fill="none" stroke="#63b8ff" d="M1384,-227.77C1328.59,-222.83 1177.13,-208.13 1052.62,-185 1051.63,-184.81 1050.62,-184.62 1049.6,-184.41"/>
<polygon fill="#63b8ff" stroke="#63b8ff" points="1050.64,-181.06 1040.12,-182.3 1049.12,-187.89 1050.64,-181.06"/>
</a>
</g>
</g>
<!-- Node69 -->
<g id="Node000069" class="node">
<title>Node69</title>
<g id="a_Node000069"><a xlink:href="_keyboard_8h.html" target="_top" xlink:title=" ">
<polygon fill="#fff0f0" stroke="red" points="474.38,-185 408.88,-185 408.88,-165.75 474.38,-165.75 474.38,-185"/>
<text text-anchor="middle" x="441.62" y="-171.5" font-family="Helvetica,sans-Serif" font-size="10.00">Keyboard.h</text>
</a>
</g>
</g>
<!-- Node4&#45;&gt;Node69 -->
<g id="edge11_Node000004_Node000069" class="edge">
<title>Node4&#45;&gt;Node69</title>
<g id="a_edge11_Node000004_Node000069"><a xlink:title=" ">
<path fill="none" stroke="#63b8ff" d="M1384.05,-229.84C1283.37,-230.61 849.67,-231.01 485.95,-185.23"/>
<polygon fill="#63b8ff" stroke="#63b8ff" points="486.53,-181.78 476.17,-183.99 485.65,-188.72 486.53,-181.78"/>
</a>
</g>
</g>
<!-- Node74 -->
<g id="Node000074" class="node">
<title>Node74</title>
<g id="a_Node000074"><a xlink:href="_control_port_8h.html" target="_top" xlink:title=" ">
<polygon fill="#fff0f0" stroke="red" points="1808.5,-185 1734.75,-185 1734.75,-165.75 1808.5,-165.75 1808.5,-185"/>
<text text-anchor="middle" x="1771.62" y="-171.5" font-family="Helvetica,sans-Serif" font-size="10.00">ControlPort.h</text>
</a>
</g>
</g>
<!-- Node4&#45;&gt;Node74 -->
<g id="edge13_Node000004_Node000074" class="edge">
<title>Node4&#45;&gt;Node74</title>
<g id="a_edge13_Node000004_Node000074"><a xlink:title=" ">
<path fill="none" stroke="#63b8ff" d="M1427.04,-226.79C1477.99,-220.01 1610.38,-202.13 1720.62,-185 1721.46,-184.87 1722.3,-184.74 1723.14,-184.61"/>
<polygon fill="#63b8ff" stroke="#63b8ff" points="1723.51,-188.09 1732.83,-183.04 1722.4,-181.18 1723.51,-188.09"/>
</a>
</g>
</g>
<!-- Node77 -->
<g id="Node000077" class="node">
<title>Node77</title>
<g id="a_Node000077"><a xlink:href="_mouse_8h.html" target="_top" xlink:title=" ">
<polygon fill="#fff0f0" stroke="red" points="1809.38,-129.75 1755.88,-129.75 1755.88,-110.5 1809.38,-110.5 1809.38,-129.75"/>
<text text-anchor="middle" x="1782.62" y="-116.25" font-family="Helvetica,sans-Serif" font-size="10.00">Mouse.h</text>
</a>
</g>
</g>
<!-- Node4&#45;&gt;Node77 -->
<g id="edge41_Node000004_Node000077" class="edge">
<title>Node4&#45;&gt;Node77</title>
<g id="a_edge41_Node000004_Node000077"><a xlink:title=" ">
<path fill="none" stroke="#63b8ff" d="M1427.03,-228.94C1507.86,-226.16 1791.28,-214.35 1817.62,-185 1830.22,-170.97 1816.28,-151.62 1802.44,-137.91"/>
<polygon fill="#63b8ff" stroke="#63b8ff" points="1804.9,-135.42 1795.18,-131.22 1800.16,-140.57 1804.9,-135.42"/>
</a>
</g>
</g>
<!-- Node82 -->
<g id="Node000082" class="node">
<title>Node82</title>
<g id="a_Node000082"><a xlink:href="_c64_memory_8h.html" target="_top" xlink:title=" ">
<polygon fill="#fff0f0" stroke="red" points="1276.62,-185 1200.62,-185 1200.62,-165.75 1276.62,-165.75 1276.62,-185"/>
<text text-anchor="middle" x="1238.62" y="-171.5" font-family="Helvetica,sans-Serif" font-size="10.00">C64Memory.h</text>
</a>
</g>
</g>
<!-- Node4&#45;&gt;Node82 -->
<g id="edge15_Node000004_Node000082" class="edge">
<title>Node4&#45;&gt;Node82</title>
<g id="a_edge15_Node000004_Node000082"><a xlink:title=" ">
<path fill="none" stroke="#63b8ff" d="M1384.13,-222.77C1357.3,-214.22 1310.9,-199.42 1277.71,-188.84"/>
<polygon fill="#63b8ff" stroke="#63b8ff" points="1279.04,-185.59 1268.45,-185.89 1276.91,-192.26 1279.04,-185.59"/>
</a>
</g>
</g>
<!-- Node84 -->
<g id="Node000084" class="node">
<title>Node84</title>
<g id="a_Node000084"><a xlink:href="_drive_memory_8h.html" target="_top" xlink:title=" ">
<polygon fill="#fff0f0" stroke="red" points="788.25,-129.75 707,-129.75 707,-110.5 788.25,-110.5 788.25,-129.75"/>
<text text-anchor="middle" x="747.62" y="-116.25" font-family="Helvetica,sans-Serif" font-size="10.00">DriveMemory.h</text>
</a>
</g>
</g>
<!-- Node4&#45;&gt;Node84 -->
<g id="edge16_Node000004_Node000084" class="edge">
<title>Node4&#45;&gt;Node84</title>
<g id="a_edge16_Node000004_Node000084"><a xlink:title=" ">
<path fill="none" stroke="#63b8ff" d="M1384.21,-229.64C1277.86,-229.5 809.72,-226.51 761.62,-185 749.39,-174.44 746.44,-155.88 746.22,-141.48"/>
<polygon fill="#63b8ff" stroke="#63b8ff" points="749.71,-141.82 746.52,-131.71 742.71,-141.6 749.71,-141.82"/>
</a>
</g>
</g>
<!-- Node87 -->
<g id="Node000087" class="node">
<title>Node87</title>
<g id="a_Node000087"><a xlink:href="_flash_rom_8h.html" target="_top" xlink:title=" ">
<polygon fill="#fff0f0" stroke="red" points="1364.25,-185 1295,-185 1295,-165.75 1364.25,-165.75 1364.25,-185"/>
<text text-anchor="middle" x="1329.62" y="-171.5" font-family="Helvetica,sans-Serif" font-size="10.00">FlashRom.h</text>
</a>
</g>
</g>
<!-- Node4&#45;&gt;Node87 -->
<g id="edge17_Node000004_Node000087" class="edge">
<title>Node4&#45;&gt;Node87</title>
<g id="a_edge17_Node000004_Node000087"><a xlink:title=" ">
<path fill="none" stroke="#63b8ff" d="M1392.73,-220.59C1381.6,-212.79 1365.25,-201.34 1351.99,-192.04"/>
<polygon fill="#63b8ff" stroke="#63b8ff" points="1354.02,-189.19 1343.82,-186.32 1350,-194.93 1354.02,-189.19"/>
</a>
</g>
</g>
<!-- Node88 -->
<g id="Node000088" class="node">
<title>Node88</title>
<g id="a_Node000088"><a xlink:href="_v_i_c_i_i_8h.html" target="_top" xlink:title=" ">
<polygon fill="#fff0f0" stroke="red" points="1429.38,-185 1381.88,-185 1381.88,-165.75 1429.38,-165.75 1429.38,-185"/>
<text text-anchor="middle" x="1405.62" y="-171.5" font-family="Helvetica,sans-Serif" font-size="10.00">VICII.h</text>
</a>
</g>
</g>
<!-- Node4&#45;&gt;Node88 -->
<g id="edge18_Node000004_Node000088" class="edge">
<title>Node4&#45;&gt;Node88</title>
<g id="a_edge18_Node000004_Node000088"><a xlink:title=" ">
<path fill="none" stroke="#63b8ff" d="M1405.62,-220.83C1405.62,-214.32 1405.62,-205.17 1405.62,-196.87"/>
<polygon fill="#63b8ff" stroke="#63b8ff" points="1409.13,-196.87 1405.63,-186.87 1402.13,-196.87 1409.13,-196.87"/>
</a>
</g>
</g>
<!-- Node96 -->
<g id="Node000096" class="node">
<title>Node96</title>
<g id="a_Node000096"><a xlink:href="_muxer_8h.html" target="_top" xlink:title=" ">
<polygon fill="#fff0f0" stroke="red" points="1497.88,-185 1447.38,-185 1447.38,-165.75 1497.88,-165.75 1497.88,-185"/>
<text text-anchor="middle" x="1472.62" y="-171.5" font-family="Helvetica,sans-Serif" font-size="10.00">Muxer.h</text>
</a>
</g>
</g>
<!-- Node4&#45;&gt;Node96 -->
<g id="edge19_Node000004_Node000096" class="edge">
<title>Node4&#45;&gt;Node96</title>
<g id="a_edge19_Node000004_Node000096"><a xlink:title=" ">
<path fill="none" stroke="#63b8ff" d="M1416.99,-220.59C1426.67,-212.9 1440.82,-201.65 1452.43,-192.43"/>
<polygon fill="#63b8ff" stroke="#63b8ff" points="1454.59,-195.18 1460.24,-186.22 1450.24,-189.7 1454.59,-195.18"/>
</a>
</g>
</g>
<!-- Node113 -->
<g id="Node000113" class="node">
<title>Node113</title>
<g id="a_Node000113"><a xlink:href="_t_o_d_8h.html" target="_top" xlink:title=" ">
<polygon fill="#fff0f0" stroke="red" points="127.25,-129.75 82,-129.75 82,-110.5 127.25,-110.5 127.25,-129.75"/>
<text text-anchor="middle" x="104.62" y="-116.25" font-family="Helvetica,sans-Serif" font-size="10.00">TOD.h</text>
</a>
</g>
</g>
<!-- Node4&#45;&gt;Node113 -->
<g id="edge20_Node000004_Node000113" class="edge">
<title>Node4&#45;&gt;Node113</title>
<g id="a_edge20_Node000004_Node000113"><a xlink:title=" ">
<path fill="none" stroke="#63b8ff" d="M1384.17,-229.3C1216.49,-226.74 121.93,-209.12 98.62,-185 87.5,-173.49 90.76,-154.76 95.76,-140.56"/>
<polygon fill="#63b8ff" stroke="#63b8ff" points="98.98,-141.93 99.52,-131.35 92.5,-139.28 98.98,-141.93"/>
</a>
</g>
</g>
<!-- Node115 -->
<g id="Node000115" class="node">
<title>Node115</title>
<g id="a_Node000115"><a xlink:href="_c_i_a_8h.html" target="_top" xlink:title=" ">
<polygon fill="#fff0f0" stroke="red" points="149.38,-185 107.88,-185 107.88,-165.75 149.38,-165.75 149.38,-185"/>
<text text-anchor="middle" x="128.62" y="-171.5" font-family="Helvetica,sans-Serif" font-size="10.00">CIA.h</text>
</a>
</g>
</g>
<!-- Node4&#45;&gt;Node115 -->
<g id="edge21_Node000004_Node000115" class="edge">
<title>Node4&#45;&gt;Node115</title>
<g id="a_edge21_Node000004_Node000115"><a xlink:title=" ">
<path fill="none" stroke="#63b8ff" d="M1384.19,-229.6C1241.84,-229.32 430.85,-226.02 160.99,-185.1"/>
<polygon fill="#63b8ff" stroke="#63b8ff" points="161.62,-181.66 151.2,-183.55 160.53,-188.57 161.62,-181.66"/>
</a>
</g>
</g>
<!-- Node117 -->
<g id="Node000117" class="node">
<title>Node117</title>
<g id="a_Node000117"><a xlink:href="_c_p_u_8h.html" target="_top" xlink:title=" ">
<polygon fill="#fff0f0" stroke="red" points="858.62,-129.75 812.62,-129.75 812.62,-110.5 858.62,-110.5 858.62,-129.75"/>
<text text-anchor="middle" x="835.62" y="-116.25" font-family="Helvetica,sans-Serif" font-size="10.00">CPU.h</text>
</a>
</g>
</g>
<!-- Node4&#45;&gt;Node117 -->
<g id="edge24_Node000004_Node000117" class="edge">
<title>Node4&#45;&gt;Node117</title>
<g id="a_edge24_Node000004_Node000117"><a xlink:title=" ">
<path fill="none" stroke="#63b8ff" d="M1384.13,-229.11C1289.03,-226.65 908.84,-215.02 865.62,-185 851,-174.84 843.31,-155.64 839.4,-140.93"/>
<polygon fill="#63b8ff" stroke="#63b8ff" points="842.87,-140.39 837.26,-131.4 836.04,-141.93 842.87,-140.39"/>
</a>
</g>
</g>
<!-- Node127 -->
<g id="Node000127" class="node">
<title>Node127</title>
<g id="a_Node000127"><a xlink:href="_power_supply_8h.html" target="_top" xlink:title=" ">
<polygon fill="#fff0f0" stroke="red" points="1596.88,-185 1516.38,-185 1516.38,-165.75 1596.88,-165.75 1596.88,-185"/>
<text text-anchor="middle" x="1556.62" y="-171.5" font-family="Helvetica,sans-Serif" font-size="10.00">PowerSupply.h</text>
</a>
</g>
</g>
<!-- Node4&#45;&gt;Node127 -->
<g id="edge25_Node000004_Node000127" class="edge">
<title>Node4&#45;&gt;Node127</title>
<g id="a_edge25_Node000004_Node000127"><a xlink:title=" ">
<path fill="none" stroke="#63b8ff" d="M1426.94,-222.11C1451.16,-213.57 1491.11,-199.48 1520.27,-189.19"/>
<polygon fill="#63b8ff" stroke="#63b8ff" points="1521.18,-192.59 1529.44,-185.96 1518.85,-185.99 1521.18,-192.59"/>
</a>
</g>
</g>
<!-- Node129 -->
<g id="Node000129" class="node">
<title>Node129</title>
<g id="a_Node000129"><a xlink:href="_recorder_8h.html" target="_top" xlink:title=" ">
<polygon fill="#fff0f0" stroke="red" points="1678.25,-185 1615,-185 1615,-165.75 1678.25,-165.75 1678.25,-185"/>
<text text-anchor="middle" x="1646.62" y="-171.5" font-family="Helvetica,sans-Serif" font-size="10.00">Recorder.h</text>
</a>
</g>
</g>
<!-- Node4&#45;&gt;Node129 -->
<g id="edge26_Node000004_Node000129" class="edge">
<title>Node4&#45;&gt;Node129</title>
<g id="a_edge26_Node000004_Node000129"><a xlink:title=" ">
<path fill="none" stroke="#63b8ff" d="M1427.01,-224.9C1466.53,-216.17 1551.69,-197.35 1603.58,-185.89"/>
<polygon fill="#63b8ff" stroke="#63b8ff" points="1604.26,-189.32 1613.27,-183.74 1602.75,-182.48 1604.26,-189.32"/>
</a>
</g>
</g>
<!-- Node132 -->
<g id="Node000132" class="node">
<title>Node132</title>
<g id="a_Node000132"><a xlink:href="_regression_tester_8h.html" target="_top" xlink:title=" ">
<polygon fill="#fff0f0" stroke="red" points="390.62,-185 290.62,-185 290.62,-165.75 390.62,-165.75 390.62,-185"/>
<text text-anchor="middle" x="340.62" y="-171.5" font-family="Helvetica,sans-Serif" font-size="10.00">RegressionTester.h</text>
</a>
</g>
</g>
<!-- Node4&#45;&gt;Node132 -->
<g id="edge27_Node000004_Node000132" class="edge">
<title>Node4&#45;&gt;Node132</title>
<g id="a_edge27_Node000004_Node000132"><a xlink:title=" ">
<path fill="none" stroke="#63b8ff" d="M1384.33,-229.48C1278.97,-228.57 802.78,-222.57 402.34,-185.16"/>
<polygon fill="#63b8ff" stroke="#63b8ff" points="402.91,-181.69 392.62,-184.24 402.25,-188.66 402.91,-181.69"/>
</a>
</g>
</g>
<!-- Node133 -->
<g id="Node000133" class="node">
<title>Node133</title>
<g id="a_Node000133"><a xlink:href="_retro_shell_8h.html" target="_top" xlink:title=" ">
<polygon fill="#fff0f0" stroke="red" points="2014.62,-129.75 1944.62,-129.75 1944.62,-110.5 2014.62,-110.5 2014.62,-129.75"/>
<text text-anchor="middle" x="1979.62" y="-116.25" font-family="Helvetica,sans-Serif" font-size="10.00">RetroShell.h</text>
</a>
</g>
</g>
<!-- Node4&#45;&gt;Node133 -->
<g id="edge29_Node000004_Node000133" class="edge">
<title>Node4&#45;&gt;Node133</title>
<g id="a_edge29_Node000004_Node000133"><a xlink:title=" ">
<path fill="none" stroke="#63b8ff" d="M1427.02,-229.73C1490.41,-229.54 1682.27,-225.41 1834.62,-185 1878.24,-173.43 1925.5,-150.46 1953.82,-135.45"/>
<polygon fill="#63b8ff" stroke="#63b8ff" points="1955.23,-138.67 1962.37,-130.85 1951.91,-132.51 1955.23,-138.67"/>
</a>
</g>
</g>
<!-- Node141 -->
<g id="Node000141" class="node">
<title>Node141</title>
<g id="a_Node000141"><a xlink:href="_custom_cartridges_8h.html" target="_top" xlink:title=" ">
<polygon fill="#fff0f0" stroke="red" points="978.5,-185 874.75,-185 874.75,-165.75 978.5,-165.75 978.5,-185"/>
<text text-anchor="middle" x="926.62" y="-171.5" font-family="Helvetica,sans-Serif" font-size="10.00">CustomCartridges.h</text>
</a>
</g>
</g>
<!-- Node4&#45;&gt;Node141 -->
<g id="edge32_Node000004_Node000141" class="edge">
<title>Node4&#45;&gt;Node141</title>
<g id="a_edge32_Node000004_Node000141"><a xlink:title=" ">
<path fill="none" stroke="#63b8ff" d="M1384.28,-227.61C1324.13,-221.86 1147.89,-204.65 990.17,-185.28"/>
<polygon fill="#63b8ff" stroke="#63b8ff" points="990.71,-181.82 980.35,-184.06 989.85,-188.76 990.71,-181.82"/>
</a>
</g>
</g>
<!-- Node170 -->
<g id="Node000170" class="node">
<title>Node170</title>
<g id="a_Node000170"><a xlink:href="_drive_8h.html" target="_top" xlink:title=" ">
<polygon fill="#fff0f0" stroke="red" points="818.38,-185 770.88,-185 770.88,-165.75 818.38,-165.75 818.38,-185"/>
<text text-anchor="middle" x="794.62" y="-171.5" font-family="Helvetica,sans-Serif" font-size="10.00">Drive.h</text>
</a>
</g>
</g>
<!-- Node4&#45;&gt;Node170 -->
<g id="edge34_Node000004_Node000170" class="edge">
<title>Node4&#45;&gt;Node170</title>
<g id="a_edge34_Node000004_Node000170"><a xlink:title=" ">
<path fill="none" stroke="#63b8ff" d="M1384.16,-229.08C1308.35,-226.91 1046.21,-217.38 832.62,-185 831.63,-184.85 830.62,-184.69 829.61,-184.51"/>
<polygon fill="#63b8ff" stroke="#63b8ff" points="830.62,-181.15 820.13,-182.67 829.28,-188.02 830.62,-181.15"/>
</a>
</g>
</g>
<!-- Node178 -->
<g id="Node000178" class="node">
<title>Node178</title>
<g id="a_Node000178"><a xlink:href="_par_cable_8h.html" target="_top" xlink:title=" ">
<polygon fill="#fff0f0" stroke="red" points="2005,-185 1940.25,-185 1940.25,-165.75 2005,-165.75 2005,-185"/>
<text text-anchor="middle" x="1972.62" y="-171.5" font-family="Helvetica,sans-Serif" font-size="10.00">ParCable.h</text>
</a>
</g>
</g>
<!-- Node4&#45;&gt;Node178 -->
<g id="edge38_Node000004_Node000178" class="edge">
<title>Node4&#45;&gt;Node178</title>
<g id="a_edge38_Node000004_Node000178"><a xlink:title=" ">
<path fill="none" stroke="#63b8ff" d="M1427.05,-228.56C1498.29,-224.85 1733.68,-211.28 1926.62,-185 1927.3,-184.91 1927.99,-184.81 1928.68,-184.71"/>
<polygon fill="#63b8ff" stroke="#63b8ff" points="1929.2,-188.17 1938.53,-183.14 1928.1,-181.26 1929.2,-188.17"/>
</a>
</g>
</g>
<!-- Node179 -->
<g id="Node000179" class="node">
<title>Node179</title>
<g id="a_Node000179"><a xlink:href="_datasette_8h.html" target="_top" xlink:title=" ">
<polygon fill="#fff0f0" stroke="red" points="234.12,-185 167.12,-185 167.12,-165.75 234.12,-165.75 234.12,-185"/>
<text text-anchor="middle" x="200.62" y="-171.5" font-family="Helvetica,sans-Serif" font-size="10.00">Datasette.h</text>
</a>
</g>
</g>
<!-- Node4&#45;&gt;Node179 -->
<g id="edge39_Node000004_Node000179" class="edge">
<title>Node4&#45;&gt;Node179</title>
<g id="a_edge39_Node000004_Node000179"><a xlink:title=" ">
<path fill="none" stroke="#63b8ff" d="M1384.25,-229.91C1268.51,-231.21 705.27,-234.59 248.62,-185 247.61,-184.89 246.59,-184.77 245.56,-184.64"/>
<polygon fill="#63b8ff" stroke="#63b8ff" points="246.26,-181.21 235.87,-183.26 245.27,-188.14 246.26,-181.21"/>
</a>
</g>
</g>
<!-- Node181 -->
<g id="Node000181" class="node">
<title>Node181</title>
<g id="a_Node000181"><a xlink:href="_snapshot_8h.html" target="_top" xlink:title=" ">
<polygon fill="#fff0f0" stroke="red" points="2088.38,-185 2022.88,-185 2022.88,-165.75 2088.38,-165.75 2088.38,-185"/>
<text text-anchor="middle" x="2055.62" y="-171.5" font-family="Helvetica,sans-Serif" font-size="10.00">Snapshot.h</text>
</a>
</g>
</g>
<!-- Node4&#45;&gt;Node181 -->
<g id="edge42_Node000004_Node000181" class="edge">
<title>Node4&#45;&gt;Node181</title>
<g id="a_edge42_Node000004_Node000181"><a xlink:title=" ">
<path fill="none" stroke="#63b8ff" d="M1427,-229.06C1504.3,-226.79 1776.65,-216.99 2011.52,-185.1"/>
<polygon fill="#63b8ff" stroke="#63b8ff" points="2011.75,-188.6 2021.18,-183.77 2010.8,-181.66 2011.75,-188.6"/>
</a>
</g>
</g>
<!-- Node182 -->
<g id="Node000182" class="node">
<title>Node182</title>
<g id="a_Node000182"><a xlink:href="_t64_file_8h.html" target="_top" xlink:title=" ">
<polygon fill="#fff0f0" stroke="red" points="2162.88,-185 2106.38,-185 2106.38,-165.75 2162.88,-165.75 2162.88,-185"/>
<text text-anchor="middle" x="2134.62" y="-171.5" font-family="Helvetica,sans-Serif" font-size="10.00">T64File.h</text>
</a>
</g>
</g>
<!-- Node4&#45;&gt;Node182 -->
<g id="edge43_Node000004_Node000182" class="edge">
<title>Node4&#45;&gt;Node182</title>
<g id="a_edge43_Node000004_Node000182"><a xlink:title=" ">
<path fill="none" stroke="#63b8ff" d="M1427,-229.52C1510.98,-228.87 1826.53,-223.9 2094.9,-185.16"/>
<polygon fill="#63b8ff" stroke="#63b8ff" points="2095.15,-188.66 2104.53,-183.75 2094.13,-181.74 2095.15,-188.66"/>
</a>
</g>
</g>
<!-- Node184 -->
<g id="Node000184" class="node">
<title>Node184</title>
<g id="a_Node000184"><a xlink:href="_d64_file_8h.html" target="_top" xlink:title=" ">
<polygon fill="#fff0f0" stroke="red" points="2266.62,-129.75 2208.62,-129.75 2208.62,-110.5 2266.62,-110.5 2266.62,-129.75"/>
<text text-anchor="middle" x="2237.62" y="-116.25" font-family="Helvetica,sans-Serif" font-size="10.00">D64File.h</text>
</a>
</g>
</g>
<!-- Node4&#45;&gt;Node184 -->
<g id="edge44_Node000004_Node000184" class="edge">
<title>Node4&#45;&gt;Node184</title>
<g id="a_edge44_Node000004_Node000184"><a xlink:title=" ">
<path fill="none" stroke="#63b8ff" d="M1426.98,-229.38C1493.93,-228.25 1705.38,-221.8 1875.62,-185 1901.35,-179.44 1906.05,-171.95 1931.62,-165.75 2025.1,-143.08 2137.61,-130.28 2196.73,-124.65"/>
<polygon fill="#63b8ff" stroke="#63b8ff" points="2197.03,-128.13 2206.66,-123.72 2196.38,-121.16 2197.03,-128.13"/>
</a>
</g>
</g>
<!-- Node185 -->
<g id="Node000185" class="node">
<title>Node185</title>
<g id="a_Node000185"><a xlink:href="_g64_file_8h.html" target="_top" xlink:title=" ">
<polygon fill="#fff0f0" stroke="red" points="2238.62,-185 2180.62,-185 2180.62,-165.75 2238.62,-165.75 2238.62,-185"/>
<text text-anchor="middle" x="2209.62" y="-171.5" font-family="Helvetica,sans-Serif" font-size="10.00">G64File.h</text>
</a>
</g>
</g>
<!-- Node4&#45;&gt;Node185 -->
<g id="edge45_Node000004_Node000185" class="edge">
<title>Node4&#45;&gt;Node185</title>
<g id="a_edge45_Node000004_Node000185"><a xlink:title=" ">
<path fill="none" stroke="#63b8ff" d="M1427.08,-229.67C1516.7,-229.58 1870.04,-226.54 2169.19,-185.1"/>
<polygon fill="#63b8ff" stroke="#63b8ff" points="2169.34,-188.61 2178.76,-183.75 2168.37,-181.68 2169.34,-188.61"/>
</a>
</g>
</g>
<!-- Node186 -->
<g id="Node000186" class="node">
<title>Node186</title>
<g id="a_Node000186"><a xlink:href="_p_r_g_file_8h.html" target="_top" xlink:title=" ">
<polygon fill="#fff0f0" stroke="red" points="2318.5,-185 2256.75,-185 2256.75,-165.75 2318.5,-165.75 2318.5,-185"/>
<text text-anchor="middle" x="2287.62" y="-171.5" font-family="Helvetica,sans-Serif" font-size="10.00">PRGFile.h</text>
</a>
</g>
</g>
<!-- Node4&#45;&gt;Node186 -->
<g id="edge46_Node000004_Node000186" class="edge">
<title>Node4&#45;&gt;Node186</title>
<g id="a_edge46_Node000004_Node000186"><a xlink:title=" ">
<path fill="none" stroke="#63b8ff" d="M1427.21,-229.74C1522.42,-230 1914.39,-228.31 2245.02,-185.12"/>
<polygon fill="#63b8ff" stroke="#63b8ff" points="2245.31,-188.61 2254.76,-183.83 2244.39,-181.67 2245.31,-188.61"/>
</a>
</g>
</g>
<!-- Node187 -->
<g id="Node000187" class="node">
<title>Node187</title>
<g id="a_Node000187"><a xlink:href="_folder_8h.html" target="_top" xlink:title=" ">
<polygon fill="#fff0f0" stroke="red" points="2386.88,-185 2336.38,-185 2336.38,-165.75 2386.88,-165.75 2386.88,-185"/>
<text text-anchor="middle" x="2361.62" y="-171.5" font-family="Helvetica,sans-Serif" font-size="10.00">Folder.h</text>
</a>
</g>
</g>
<!-- Node4&#45;&gt;Node187 -->
<g id="edge47_Node000004_Node000187" class="edge">
<title>Node4&#45;&gt;Node187</title>
<g id="a_edge47_Node000004_Node000187"><a xlink:title=" ">
<path fill="none" stroke="#63b8ff" d="M1426.98,-229.17C1545.38,-226.58 2122.96,-212.76 2324.79,-185.06"/>
<polygon fill="#63b8ff" stroke="#63b8ff" points="2325.22,-188.53 2334.62,-183.64 2324.22,-181.6 2325.22,-188.53"/>
</a>
</g>
</g>
<!-- Node188 -->
<g id="Node000188" class="node">
<title>Node188</title>
<g id="a_Node000188"><a xlink:href="_p00_file_8h.html" target="_top" xlink:title=" ">
<polygon fill="#fff0f0" stroke="red" points="2462.25,-185 2405,-185 2405,-165.75 2462.25,-165.75 2462.25,-185"/>
<text text-anchor="middle" x="2433.62" y="-171.5" font-family="Helvetica,sans-Serif" font-size="10.00">P00File.h</text>
</a>
</g>
</g>
<!-- Node4&#45;&gt;Node188 -->
<g id="edge48_Node000004_Node000188" class="edge">
<title>Node4&#45;&gt;Node188</title>
<g id="a_edge48_Node000004_Node000188"><a xlink:title=" ">
<path fill="none" stroke="#63b8ff" d="M1426.88,-229.18C1550.27,-226.54 2176.34,-212.06 2393.42,-184.97"/>
<polygon fill="#63b8ff" stroke="#63b8ff" points="2393.71,-188.46 2403.17,-183.7 2392.81,-181.52 2393.71,-188.46"/>
</a>
</g>
</g>
<!-- Node189 -->
<g id="Node000189" class="node">
<title>Node189</title>
<g id="a_Node000189"><a xlink:href="_rom_file_8h.html" target="_top" xlink:title=" ">
<polygon fill="#fff0f0" stroke="red" points="553.12,-185 492.12,-185 492.12,-165.75 553.12,-165.75 553.12,-185"/>
<text text-anchor="middle" x="522.62" y="-171.5" font-family="Helvetica,sans-Serif" font-size="10.00">RomFile.h</text>
</a>
</g>
</g>
<!-- Node4&#45;&gt;Node189 -->
<g id="edge49_Node000004_Node000189" class="edge">
<title>Node4&#45;&gt;Node189</title>
<g id="a_edge49_Node000004_Node000189"><a xlink:title=" ">
<path fill="none" stroke="#63b8ff" d="M1384.31,-229.79C1289.41,-230.24 895.92,-229.29 564.88,-185.23"/>
<polygon fill="#63b8ff" stroke="#63b8ff" points="565.5,-181.78 555.12,-183.92 564.56,-188.72 565.5,-181.78"/>
</a>
</g>
</g>
<!-- Node190 -->
<g id="Node000190" class="node">
<title>Node190</title>
<g id="a_Node000190"><a xlink:href="_t_a_p_file_8h.html" target="_top" xlink:title=" ">
<polygon fill="#fff0f0" stroke="red" points="2539,-185 2480.25,-185 2480.25,-165.75 2539,-165.75 2539,-185"/>
<text text-anchor="middle" x="2509.62" y="-171.5" font-family="Helvetica,sans-Serif" font-size="10.00">TAPFile.h</text>
</a>
</g>
</g>
<!-- Node4&#45;&gt;Node190 -->
<g id="edge51_Node000004_Node000190" class="edge">
<title>Node4&#45;&gt;Node190</title>
<g id="a_edge51_Node000004_Node000190"><a xlink:title=" ">
<path fill="none" stroke="#63b8ff" d="M1427.21,-229.26C1557.03,-226.95 2236.02,-213.78 2468.46,-185.13"/>
<polygon fill="#63b8ff" stroke="#63b8ff" points="2468.87,-188.61 2478.35,-183.86 2467.98,-181.67 2468.87,-188.61"/>
</a>
</g>
</g>
<!-- Node191 -->
<g id="Node000191" class="node">
<title>Node191</title>
<g id="a_Node000191"><a xlink:href="_file_system_8h.html" target="_top" xlink:title=" ">
<polygon fill="#fff0f0" stroke="red" points="2630.5,-185 2556.75,-185 2556.75,-165.75 2630.5,-165.75 2630.5,-185"/>
<text text-anchor="middle" x="2593.62" y="-171.5" font-family="Helvetica,sans-Serif" font-size="10.00">FileSystem.h</text>
</a>
</g>
</g>
<!-- Node4&#45;&gt;Node191 -->
<g id="edge53_Node000004_Node000191" class="edge">
<title>Node4&#45;&gt;Node191</title>
<g id="a_edge53_Node000004_Node000191"><a xlink:title=" ">
<path fill="none" stroke="#63b8ff" d="M1426.93,-229.22C1561.52,-226.59 2295.71,-211.3 2545.13,-185.07"/>
<polygon fill="#63b8ff" stroke="#63b8ff" points="2545.22,-188.58 2554.78,-184.01 2544.46,-181.62 2545.22,-188.58"/>
</a>
</g>
</g>
<!-- Node51&#45;&gt;Node58 -->
<g id="edge8_Node000051_Node000058" class="edge">
<title>Node51&#45;&gt;Node58</title>
<g id="a_edge8_Node000051_Node000058"><a xlink:title=" ">
<path fill="none" stroke="#63b8ff" d="M1132.68,-165.58C1127.91,-158.53 1121.06,-148.4 1115.1,-139.58"/>
<polygon fill="#63b8ff" stroke="#63b8ff" points="1118.05,-137.69 1109.55,-131.36 1112.25,-141.61 1118.05,-137.69"/>
</a>
</g>
</g>
<!-- Node58&#45;&gt;Node61 -->
<g id="edge9_Node000058_Node000061" class="edge">
<title>Node58&#45;&gt;Node61</title>
<g id="a_edge9_Node000058_Node000061"><a xlink:title=" ">
<path fill="none" stroke="#63b8ff" d="M1134.93,-113.07C1186.48,-103.4 1287.34,-84.49 1344.49,-73.78"/>
<polygon fill="#63b8ff" stroke="#63b8ff" points="1344.98,-77.24 1354.16,-71.96 1343.69,-70.36 1344.98,-77.24"/>
</a>
</g>
</g>
<!-- Node69&#45;&gt;Node5 -->
<g id="edge12_Node000069_Node000005" class="edge">
<title>Node69&#45;&gt;Node5</title>
<g id="a_edge12_Node000069_Node000005"><a xlink:title=" ">
<path fill="none" stroke="#63b8ff" d="M424.49,-165.34C408.97,-157.16 385.82,-144.96 367.78,-135.44"/>
<polygon fill="#63b8ff" stroke="#63b8ff" points="369.66,-132.48 359.18,-130.91 366.39,-138.67 369.66,-132.48"/>
</a>
</g>
</g>
<!-- Node74&#45;&gt;Node77 -->
<g id="edge14_Node000074_Node000077" class="edge">
<title>Node74&#45;&gt;Node77</title>
<g id="a_edge14_Node000074_Node000077"><a xlink:title=" ">
<path fill="none" stroke="#63b8ff" d="M1773.44,-165.58C1774.8,-158.99 1776.72,-149.71 1778.45,-141.32"/>
<polygon fill="#63b8ff" stroke="#63b8ff" points="1781.87,-142.09 1780.46,-131.59 1775.01,-140.68 1781.87,-142.09"/>
</a>
</g>
</g>
<!-- Node115&#45;&gt;Node5 -->
<g id="edge22_Node000115_Node000005" class="edge">
<title>Node115&#45;&gt;Node5</title>
<g id="a_edge22_Node000115_Node000005"><a xlink:title=" ">
<path fill="none" stroke="#63b8ff" d="M149.81,-167.94C152.44,-167.18 155.09,-166.44 157.62,-165.75 204.26,-153.14 258,-140.22 295.13,-131.55"/>
<polygon fill="#63b8ff" stroke="#63b8ff" points="295.67,-135.02 304.62,-129.35 294.08,-128.2 295.67,-135.02"/>
</a>
</g>
</g>
<!-- Node115&#45;&gt;Node113 -->
<g id="edge23_Node000115_Node000113" class="edge">
<title>Node115&#45;&gt;Node113</title>
<g id="a_edge23_Node000115_Node000113"><a xlink:title=" ">
<path fill="none" stroke="#63b8ff" d="M124.66,-165.58C121.59,-158.76 117.21,-149.06 113.34,-140.45"/>
<polygon fill="#63b8ff" stroke="#63b8ff" points="116.6,-139.17 109.3,-131.49 110.21,-142.04 116.6,-139.17"/>
</a>
</g>
</g>
<!-- Node132&#45;&gt;Node5 -->
<g id="edge28_Node000132_Node000005" class="edge">
<title>Node132&#45;&gt;Node5</title>
<g id="a_edge28_Node000132_Node000005"><a xlink:title=" ">
<path fill="none" stroke="#63b8ff" d="M340.62,-165.58C340.62,-159.07 340.62,-149.92 340.62,-141.62"/>
<polygon fill="#63b8ff" stroke="#63b8ff" points="344.13,-141.62 340.63,-131.62 337.13,-141.62 344.13,-141.62"/>
</a>
</g>
</g>
<!-- Node43 -->
<g id="Node000043" class="node">
<title>Node43</title>
<g id="a_Node000043"><a xlink:title=" ">
<polygon fill="#e0e0e0" stroke="#999999" points="2213.12,-74.5 2164.12,-74.5 2164.12,-55.25 2213.12,-55.25 2213.12,-74.5"/>
<text text-anchor="middle" x="2188.62" y="-61" font-family="Helvetica,sans-Serif" font-size="10.00">fstream</text>
</a>
</g>
</g>
<!-- Node133&#45;&gt;Node43 -->
<g id="edge30_Node000133_Node000043" class="edge">
<title>Node133&#45;&gt;Node43</title>
<g id="a_edge30_Node000133_Node000043"><a xlink:title=" ">
<path fill="none" stroke="#63b8ff" d="M2015.08,-110.09C2053.56,-100.29 2114.64,-84.73 2153.13,-74.92"/>
<polygon fill="#63b8ff" stroke="#63b8ff" points="2153.53,-78.43 2162.36,-72.57 2151.81,-71.64 2153.53,-78.43"/>
</a>
</g>
</g>
<!-- Node141&#45;&gt;Node58 -->
<g id="edge33_Node000141_Node000058" class="edge">
<title>Node141&#45;&gt;Node58</title>
<g id="a_edge33_Node000141_Node000058"><a xlink:title=" ">
<path fill="none" stroke="#63b8ff" d="M956.48,-165.34C985.43,-156.58 1029.58,-143.23 1061.78,-133.48"/>
<polygon fill="#63b8ff" stroke="#63b8ff" points="1062.62,-136.89 1071.17,-130.64 1060.59,-130.19 1062.62,-136.89"/>
</a>
</g>
</g>
<!-- Node170&#45;&gt;Node5 -->
<g id="edge35_Node000170_Node000005" class="edge">
<title>Node170&#45;&gt;Node5</title>
<g id="a_edge35_Node000170_Node000005"><a xlink:title=" ">
<path fill="none" stroke="#63b8ff" d="M770.64,-171.43C756.88,-169.75 739.28,-167.61 723.62,-165.75 601.94,-151.27 458.44,-134.68 386.55,-126.4"/>
<polygon fill="#63b8ff" stroke="#63b8ff" points="387.06,-122.94 376.73,-125.27 386.26,-129.89 387.06,-122.94"/>
</a>
</g>
</g>
<!-- Node170&#45;&gt;Node84 -->
<g id="edge37_Node000170_Node000084" class="edge">
<title>Node170&#45;&gt;Node84</title>
<g id="a_edge37_Node000170_Node000084"><a xlink:title=" ">
<path fill="none" stroke="#63b8ff" d="M786.86,-165.58C780.44,-158.3 771.11,-147.73 763.16,-138.73"/>
<polygon fill="#63b8ff" stroke="#63b8ff" points="765.8,-136.43 756.56,-131.24 760.55,-141.06 765.8,-136.43"/>
</a>
</g>
</g>
<!-- Node170&#45;&gt;Node117 -->
<g id="edge36_Node000170_Node000117" class="edge">
<title>Node170&#45;&gt;Node117</title>
<g id="a_edge36_Node000170_Node000117"><a xlink:title=" ">
<path fill="none" stroke="#63b8ff" d="M801.4,-165.58C806.94,-158.38 814.97,-147.96 821.85,-139.01"/>
<polygon fill="#63b8ff" stroke="#63b8ff" points="824.46,-141.37 827.78,-131.31 818.91,-137.1 824.46,-141.37"/>
</a>
</g>
</g>
<!-- Node179&#45;&gt;Node5 -->
<g id="edge40_Node000179_Node000005" class="edge">
<title>Node179&#45;&gt;Node5</title>
<g id="a_edge40_Node000179_Node000005"><a xlink:title=" ">
<path fill="none" stroke="#63b8ff" d="M224.37,-165.34C246.8,-156.81 280.69,-143.92 306.1,-134.26"/>
<polygon fill="#63b8ff" stroke="#63b8ff" points="307.24,-137.57 315.34,-130.74 304.75,-131.02 307.24,-137.57"/>
</a>
</g>
</g>
<!-- Node189&#45;&gt;Node5 -->
<g id="edge50_Node000189_Node000005" class="edge">
<title>Node189&#45;&gt;Node5</title>
<g id="a_edge50_Node000189_Node000005"><a xlink:title=" ">
<path fill="none" stroke="#63b8ff" d="M491.75,-165.34C461.68,-156.54 415.76,-143.11 382.43,-133.36"/>
<polygon fill="#63b8ff" stroke="#63b8ff" points="383.68,-130.08 373.1,-130.63 381.72,-136.79 383.68,-130.08"/>
</a>
</g>
</g>
<!-- Node191&#45;&gt;Node184 -->
<g id="edge54_Node000191_Node000184" class="edge">
<title>Node191&#45;&gt;Node184</title>
<g id="a_edge54_Node000191_Node000184"><a xlink:title=" ">
<path fill="none" stroke="#63b8ff" d="M2556.49,-167.27C2553.49,-166.74 2550.51,-166.23 2547.62,-165.75 2451.07,-149.76 2337.03,-134.19 2277.84,-126.36"/>
<polygon fill="#63b8ff" stroke="#63b8ff" points="2278.62,-122.93 2268.25,-125.1 2277.71,-129.87 2278.62,-122.93"/>
</a>
</g>
</g>
<!-- Node191&#45;&gt;Node38 -->
<g id="edge55_Node000191_Node000038" class="edge">
<title>Node191&#45;&gt;Node38</title>
<g id="a_edge55_Node000191_Node000038"><a xlink:title=" ">
<path fill="none" stroke="#63b8ff" d="M2588.67,-165.58C2584.74,-158.61 2579.11,-148.62 2574.19,-139.87"/>
<polygon fill="#63b8ff" stroke="#63b8ff" points="2577.39,-138.42 2569.43,-131.43 2571.29,-141.86 2577.39,-138.42"/>
</a>
</g>
</g>
<!-- Node38&#45;&gt;Node43 -->
<g id="edge61_Node000038_Node000043" class="edge">
<title>Node38&#45;&gt;Node43</title>
<g id="a_edge61_Node000038_Node000043"><a xlink:title=" ">
<path fill="none" stroke="#63b8ff" d="M2535.75,-115.17C2468.72,-105.65 2298.61,-81.49 2224.29,-70.94"/>
<polygon fill="#63b8ff" stroke="#63b8ff" points="2225.1,-67.52 2214.71,-69.58 2224.12,-74.45 2225.1,-67.52"/>
</a>
</g>
</g>
<!-- Node8 -->
<g id="Node000008" class="node">
<title>Node8</title>
<g id="a_Node000008"><a xlink:href="_types_8h.html" target="_top" xlink:title=" ">
<polygon fill="#fff0f0" stroke="red" points="2651.88,-19.25 2601.38,-19.25 2601.38,0 2651.88,0 2651.88,-19.25"/>
<text text-anchor="middle" x="2626.62" y="-5.75" font-family="Helvetica,sans-Serif" font-size="10.00">Types.h</text>
</a>
</g>
</g>
<!-- Node38&#45;&gt;Node8 -->
<g id="edge56_Node000038_Node000008" class="edge">
<title>Node38&#45;&gt;Node8</title>
<g id="a_edge56_Node000038_Node000008"><a xlink:title=" ">
<path fill="none" stroke="#63b8ff" d="M2564.85,-110.32C2566.94,-97.47 2572.03,-73.18 2582.62,-55.25 2588.8,-44.79 2597.96,-34.97 2606.32,-27.22"/>
<polygon fill="#63b8ff" stroke="#63b8ff" points="2608.56,-29.91 2613.77,-20.68 2603.94,-24.65 2608.56,-29.91"/>
</a>
</g>
</g>
<!-- Node39 -->
<g id="Node000039" class="node">
<title>Node39</title>
<g id="a_Node000039"><a xlink:href="_string_utils_8h.html" target="_top" xlink:title=" ">
<polygon fill="#fff0f0" stroke="red" points="2661.62,-74.5 2591.62,-74.5 2591.62,-55.25 2661.62,-55.25 2661.62,-74.5"/>
<text text-anchor="middle" x="2626.62" y="-61" font-family="Helvetica,sans-Serif" font-size="10.00">StringUtils.h</text>
</a>
</g>
</g>
<!-- Node38&#45;&gt;Node39 -->
<g id="edge57_Node000038_Node000039" class="edge">
<title>Node38&#45;&gt;Node39</title>
<g id="a_edge57_Node000038_Node000039"><a xlink:title=" ">
<path fill="none" stroke="#63b8ff" d="M2574.31,-110.09C2583.33,-102.47 2596.46,-91.37 2607.31,-82.2"/>
<polygon fill="#63b8ff" stroke="#63b8ff" points="2609.56,-84.88 2614.94,-75.75 2605.04,-79.53 2609.56,-84.88"/>
</a>
</g>
</g>
<!-- Node41 -->
<g id="Node000041" class="node">
<title>Node41</title>
<g id="a_Node000041"><a xlink:title=" ">
<polygon fill="#e0e0e0" stroke="#999999" points="2723.12,-74.5 2680.12,-74.5 2680.12,-55.25 2723.12,-55.25 2723.12,-74.5"/>
<text text-anchor="middle" x="2701.62" y="-61" font-family="Helvetica,sans-Serif" font-size="10.00">fcntl.h</text>
</a>
</g>
</g>
<!-- Node38&#45;&gt;Node41 -->
<g id="edge59_Node000038_Node000041" class="edge">
<title>Node38&#45;&gt;Node41</title>
<g id="a_edge59_Node000038_Node000041"><a xlink:title=" ">
<path fill="none" stroke="#63b8ff" d="M2587.03,-110.09C2609.68,-101.36 2644.17,-88.04 2669.4,-78.31"/>
<polygon fill="#63b8ff" stroke="#63b8ff" points="2670.44,-81.66 2678.51,-74.79 2667.92,-75.13 2670.44,-81.66"/>
</a>
</g>
</g>
<!-- Node42 -->
<g id="Node000042" class="node">
<title>Node42</title>
<g id="a_Node000042"><a xlink:title=" ">
<polygon fill="#e0e0e0" stroke="#999999" points="2397.12,-74.5 2336.12,-74.5 2336.12,-55.25 2397.12,-55.25 2397.12,-74.5"/>
<text text-anchor="middle" x="2366.62" y="-61" font-family="Helvetica,sans-Serif" font-size="10.00">filesystem</text>
</a>
</g>
</g>
<!-- Node38&#45;&gt;Node42 -->
<g id="edge60_Node000038_Node000042" class="edge">
<title>Node38&#45;&gt;Node42</title>
<g id="a_edge60_Node000038_Node000042"><a xlink:title=" ">
<path fill="none" stroke="#63b8ff" d="M2535.82,-111.61C2502.61,-102.63 2446.75,-87.53 2408.36,-77.15"/>
<polygon fill="#63b8ff" stroke="#63b8ff" points="2409.56,-73.86 2399,-74.63 2407.74,-80.61 2409.56,-73.86"/>
</a>
</g>
</g>
<!-- Node44 -->
<g id="Node000044" class="node">
<title>Node44</title>
<g id="a_Node000044"><a xlink:title=" ">
<polygon fill="#e0e0e0" stroke="#999999" points="2463.75,-74.5 2415.5,-74.5 2415.5,-55.25 2463.75,-55.25 2463.75,-74.5"/>
<text text-anchor="middle" x="2439.62" y="-61" font-family="Helvetica,sans-Serif" font-size="10.00">istream</text>
</a>
</g>
</g>
<!-- Node38&#45;&gt;Node44 -->
<g id="edge62_Node000038_Node000044" class="edge">
<title>Node38&#45;&gt;Node44</title>
<g id="a_edge62_Node000038_Node000044"><a xlink:title=" ">
<path fill="none" stroke="#63b8ff" d="M2542.59,-110.09C2522.99,-101.68 2493.52,-89.02 2471.12,-79.4"/>
<polygon fill="#63b8ff" stroke="#63b8ff" points="2472.72,-76.28 2462.15,-75.55 2469.96,-82.71 2472.72,-76.28"/>
</a>
</g>
</g>
<!-- Node21 -->
<g id="Node000021" class="node">
<title>Node21</title>
<g id="a_Node000021"><a xlink:title=" ">
<polygon fill="#e0e0e0" stroke="#999999" points="2535.38,-74.5 2481.88,-74.5 2481.88,-55.25 2535.38,-55.25 2535.38,-74.5"/>
<text text-anchor="middle" x="2508.62" y="-61" font-family="Helvetica,sans-Serif" font-size="10.00">iostream</text>
</a>
</g>
</g>
<!-- Node38&#45;&gt;Node21 -->
<g id="edge63_Node000038_Node000021" class="edge">
<title>Node38&#45;&gt;Node21</title>
<g id="a_edge63_Node000038_Node000021"><a xlink:title=" ">
<path fill="none" stroke="#63b8ff" d="M2554.54,-110.33C2546.79,-102.82 2535.41,-91.81 2525.93,-82.63"/>
<polygon fill="#63b8ff" stroke="#63b8ff" points="2528.61,-80.35 2518.99,-75.91 2523.74,-85.38 2528.61,-80.35"/>
</a>
</g>
</g>
<!-- Node39&#45;&gt;Node8 -->
<g id="edge58_Node000039_Node000008" class="edge">
<title>Node39&#45;&gt;Node8</title>
<g id="a_edge58_Node000039_Node000008"><a xlink:title=" ">
<path fill="none" stroke="#63b8ff" d="M2626.62,-55.08C2626.62,-48.57 2626.62,-39.42 2626.62,-31.12"/>
<polygon fill="#63b8ff" stroke="#63b8ff" points="2630.13,-31.12 2626.63,-21.12 2623.13,-31.12 2630.13,-31.12"/>
</a>
</g>
</g>
<!-- Node66&#45;&gt;Node8 -->
<g id="edge66_Node000066_Node000008" class="edge">
<title>Node66&#45;&gt;Node8</title>
<g id="a_edge66_Node000066_Node000008"><a xlink:title=" ">
<path fill="none" stroke="#63b8ff" d="M2726.56,-220.69C2737.99,-193.24 2768.19,-108.8 2732.62,-55.25 2717.34,-32.24 2687.62,-21.06 2663.52,-15.65"/>
<polygon fill="#63b8ff" stroke="#63b8ff" points="2664.21,-12.22 2653.72,-13.73 2662.86,-19.09 2664.21,-12.22"/>
</a>
</g>
</g>
</g>
</svg>
