<?xml version="1.0" encoding="UTF-8" standalone="no"?>
<!DOCTYPE svg PUBLIC "-//W3C//DTD SVG 1.1//EN"
 "http://www.w3.org/Graphics/SVG/1.1/DTD/svg11.dtd">
<!-- Generated by graphviz version 10.0.1 (20240210.2158)
 -->
<!-- Title: /Users/hoff/Retro/virtualc64/Emulator/Components/VICII/DmaDebuggerTypes.h Pages: 1 -->
<svg width="329pt" height="405pt"
 viewBox="0.00 0.00 329.38 404.75" xmlns="http://www.w3.org/2000/svg" xmlns:xlink="http://www.w3.org/1999/xlink">
<g id="graph0" class="graph" transform="scale(1 1) rotate(0) translate(4 400.75)">
<title>/Users/hoff/Retro/virtualc64/Emulator/Components/VICII/DmaDebuggerTypes.h</title>
<!-- Node1 -->
<g id="Node000001" class="node">
<title>Node1</title>
<g id="a_Node000001"><a xlink:title=" ">
<polygon fill="#999999" stroke="#666666" points="240.38,-396.75 97.62,-396.75 97.62,-355 240.38,-355 240.38,-396.75"/>
<text text-anchor="start" x="105.62" y="-383.25" font-family="Helvetica,sans-Serif" font-size="10.00">/Users/hoff/Retro/virtualc64</text>
<text text-anchor="start" x="105.62" y="-372" font-family="Helvetica,sans-Serif" font-size="10.00">/Emulator/Components/VICII</text>
<text text-anchor="middle" x="169" y="-360.75" font-family="Helvetica,sans-Serif" font-size="10.00">/DmaDebuggerTypes.h</text>
</a>
</g>
</g>
<!-- Node2 -->
<g id="Node000002" class="node">
<title>Node2</title>
<g id="a_Node000002"><a xlink:href="_dma_debugger_8h_source.html" target="_top" xlink:title=" ">
<polygon fill="white" stroke="#666666" points="160.38,-319 17.62,-319 17.62,-277.25 160.38,-277.25 160.38,-319"/>
<text text-anchor="start" x="25.62" y="-305.5" font-family="Helvetica,sans-Serif" font-size="10.00">/Users/hoff/Retro/virtualc64</text>
<text text-anchor="start" x="25.62" y="-294.25" font-family="Helvetica,sans-Serif" font-size="10.00">/Emulator/Components/VICII</text>
<text text-anchor="middle" x="89" y="-283" font-family="Helvetica,sans-Serif" font-size="10.00">/DmaDebugger.h</text>
</a>
</g>
</g>
<!-- Node1&#45;&gt;Node2 -->
<g id="edge1_Node000001_Node000002" class="edge">
<title>Node1&#45;&gt;Node2</title>
<g id="a_edge1_Node000001_Node000002"><a xlink:title=" ">
<path fill="none" stroke="#63b8ff" d="M139.42,-346.86C129.83,-337.78 119.38,-327.89 110.5,-319.48"/>
<polygon fill="#63b8ff" stroke="#63b8ff" points="136.79,-349.2 146.46,-353.53 141.61,-344.12 136.79,-349.2"/>
</a>
</g>
</g>
<!-- Node6 -->
<g id="Node000006" class="node">
<title>Node6</title>
<g id="a_Node000006"><a xlink:href="_v_i_c_i_i_types_8h.html" target="_top" xlink:title=" ">
<polygon fill="white" stroke="#666666" points="321.38,-319 178.62,-319 178.62,-277.25 321.38,-277.25 321.38,-319"/>
<text text-anchor="start" x="186.62" y="-305.5" font-family="Helvetica,sans-Serif" font-size="10.00">/Users/hoff/Retro/virtualc64</text>
<text text-anchor="start" x="186.62" y="-294.25" font-family="Helvetica,sans-Serif" font-size="10.00">/Emulator/Components/VICII</text>
<text text-anchor="middle" x="250" y="-283" font-family="Helvetica,sans-Serif" font-size="10.00">/VICIITypes.h</text>
</a>
</g>
</g>
<!-- Node1&#45;&gt;Node6 -->
<g id="edge5_Node000001_Node000006" class="edge">
<title>Node1&#45;&gt;Node6</title>
<g id="a_edge5_Node000001_Node000006"><a xlink:title=" ">
<path fill="none" stroke="#63b8ff" d="M198.95,-346.86C208.66,-337.78 219.24,-327.89 228.23,-319.48"/>
<polygon fill="#63b8ff" stroke="#63b8ff" points="196.73,-344.15 191.81,-353.54 201.51,-349.27 196.73,-344.15"/>
</a>
</g>
</g>
<!-- Node3 -->
<g id="Node000003" class="node">
<title>Node3</title>
<g id="a_Node000003"><a xlink:href="_v_i_c_i_i_8h_source.html" target="_top" xlink:title=" ">
<polygon fill="white" stroke="#666666" points="160.38,-241.25 17.62,-241.25 17.62,-199.5 160.38,-199.5 160.38,-241.25"/>
<text text-anchor="start" x="25.62" y="-227.75" font-family="Helvetica,sans-Serif" font-size="10.00">/Users/hoff/Retro/virtualc64</text>
<text text-anchor="start" x="25.62" y="-216.5" font-family="Helvetica,sans-Serif" font-size="10.00">/Emulator/Components/VICII</text>
<text text-anchor="middle" x="89" y="-205.25" font-family="Helvetica,sans-Serif" font-size="10.00">/VICII.h</text>
</a>
</g>
</g>
<!-- Node2&#45;&gt;Node3 -->
<g id="edge2_Node000002_Node000003" class="edge">
<title>Node2&#45;&gt;Node3</title>
<g id="a_edge2_Node000002_Node000003"><a xlink:title=" ">
<path fill="none" stroke="#63b8ff" d="M89,-265.5C89,-257.46 89,-249.04 89,-241.73"/>
<polygon fill="#63b8ff" stroke="#63b8ff" points="85.5,-265.31 89,-275.31 92.5,-265.31 85.5,-265.31"/>
</a>
</g>
</g>
<!-- Node4 -->
<g id="Node000004" class="node">
<title>Node4</title>
<g id="a_Node000004"><a xlink:href="_c64_8h_source.html" target="_top" xlink:title=" ">
<polygon fill="white" stroke="#666666" points="157.88,-163.5 12.12,-163.5 12.12,-133 157.88,-133 157.88,-163.5"/>
<text text-anchor="start" x="20.12" y="-150" font-family="Helvetica,sans-Serif" font-size="10.00">/Users/hoff/Retro/virtualc64</text>
<text text-anchor="middle" x="85" y="-138.75" font-family="Helvetica,sans-Serif" font-size="10.00">/Emulator/Components/C64.h</text>
</a>
</g>
</g>
<!-- Node3&#45;&gt;Node4 -->
<g id="edge3_Node000003_Node000004" class="edge">
<title>Node3&#45;&gt;Node4</title>
<g id="a_edge3_Node000003_Node000004"><a xlink:title=" ">
<path fill="none" stroke="#63b8ff" d="M87.19,-187.63C86.71,-179.27 86.22,-170.65 85.82,-163.7"/>
<polygon fill="#63b8ff" stroke="#63b8ff" points="83.69,-187.8 87.76,-197.58 90.68,-187.4 83.69,-187.8"/>
</a>
</g>
</g>
<!-- Node5 -->
<g id="Node000005" class="node">
<title>Node5</title>
<g id="a_Node000005"><a xlink:href="_emulator_8h_source.html" target="_top" xlink:title=" ">
<polygon fill="white" stroke="#666666" points="166,-97 0,-97 0,-66.5 166,-66.5 166,-97"/>
<text text-anchor="start" x="8" y="-83.5" font-family="Helvetica,sans-Serif" font-size="10.00">/Users/hoff/Retro/virtualc64</text>
<text text-anchor="middle" x="83" y="-72.25" font-family="Helvetica,sans-Serif" font-size="10.00">/Emulator/Components/Emulator.h</text>
</a>
</g>
</g>
<!-- Node4&#45;&gt;Node5 -->
<g id="edge4_Node000004_Node000005" class="edge">
<title>Node4&#45;&gt;Node5</title>
<g id="a_edge4_Node000004_Node000005"><a xlink:title=" ">
<path fill="none" stroke="#63b8ff" d="M84.2,-121.31C83.94,-113.14 83.67,-104.41 83.45,-97.33"/>
<polygon fill="#63b8ff" stroke="#63b8ff" points="80.69,-121.21 84.5,-131.1 87.69,-121 80.69,-121.21"/>
</a>
</g>
</g>
<!-- Node6&#45;&gt;Node3 -->
<g id="edge6_Node000006_Node000003" class="edge">
<title>Node6&#45;&gt;Node3</title>
<g id="a_edge6_Node000006_Node000003"><a xlink:title=" ">
<path fill="none" stroke="#63b8ff" d="M196.54,-271.97C175.66,-262.15 152.04,-251.04 132.26,-241.73"/>
<polygon fill="#63b8ff" stroke="#63b8ff" points="194.95,-275.09 205.49,-276.18 197.93,-268.76 194.95,-275.09"/>
</a>
</g>
</g>
<!-- Node7 -->
<g id="Node000007" class="node">
<title>Node7</title>
<g id="a_Node000007"><a xlink:href="_virtual_c64_types_8h.html" target="_top" xlink:title=" ">
<polygon fill="white" stroke="#666666" points="320.62,-235.62 179.38,-235.62 179.38,-205.12 320.62,-205.12 320.62,-235.62"/>
<text text-anchor="start" x="187.38" y="-222.12" font-family="Helvetica,sans-Serif" font-size="10.00">/Users/hoff/Retro/virtualc64</text>
<text text-anchor="middle" x="250" y="-210.88" font-family="Helvetica,sans-Serif" font-size="10.00">/Emulator/VirtualC64Types.h</text>
</a>
</g>
</g>
<!-- Node6&#45;&gt;Node7 -->
<g id="edge7_Node000006_Node000007" class="edge">
<title>Node6&#45;&gt;Node7</title>
<g id="a_edge7_Node000006_Node000007"><a xlink:title=" ">
<path fill="none" stroke="#63b8ff" d="M250,-265.56C250,-255.19 250,-244.17 250,-235.73"/>
<polygon fill="#63b8ff" stroke="#63b8ff" points="246.5,-265.31 250,-275.31 253.5,-265.31 246.5,-265.31"/>
</a>
</g>
</g>
<!-- Node8 -->
<g id="Node000008" class="node">
<title>Node8</title>
<g id="a_Node000008"><a xlink:href="_virtual_c64_8h.html" target="_top" xlink:title=" ">
<polygon fill="white" stroke="#666666" points="319.38,-163.5 182.62,-163.5 182.62,-133 319.38,-133 319.38,-163.5"/>
<text text-anchor="start" x="190.62" y="-150" font-family="Helvetica,sans-Serif" font-size="10.00">/Users/hoff/Retro/virtualc64</text>
<text text-anchor="middle" x="251" y="-138.75" font-family="Helvetica,sans-Serif" font-size="10.00">/Emulator/VirtualC64.h</text>
</a>
</g>
</g>
<!-- Node7&#45;&gt;Node8 -->
<g id="edge8_Node000007_Node000008" class="edge">
<title>Node7&#45;&gt;Node8</title>
<g id="a_edge8_Node000007_Node000008"><a xlink:title=" ">
<path fill="none" stroke="#63b8ff" d="M250.37,-193.4C250.51,-183.39 250.67,-172.31 250.79,-163.76"/>
<polygon fill="#63b8ff" stroke="#63b8ff" points="246.87,-193.28 250.23,-203.33 253.87,-193.38 246.87,-193.28"/>
</a>
</g>
</g>
<!-- Node9 -->
<g id="Node000009" class="node">
<title>Node9</title>
<g id="a_Node000009"><a xlink:href="_headless_8h_source.html" target="_top" xlink:title=" ">
<polygon fill="white" stroke="#666666" points="320.38,-97 183.62,-97 183.62,-66.5 320.38,-66.5 320.38,-97"/>
<text text-anchor="start" x="191.62" y="-83.5" font-family="Helvetica,sans-Serif" font-size="10.00">/Users/hoff/Retro/virtualc64</text>
<text text-anchor="middle" x="252" y="-72.25" font-family="Helvetica,sans-Serif" font-size="10.00">/Emulator/Headless.h</text>
</a>
</g>
</g>
<!-- Node8&#45;&gt;Node9 -->
<g id="edge9_Node000008_Node000009" class="edge">
<title>Node8&#45;&gt;Node9</title>
<g id="a_edge9_Node000008_Node000009"><a xlink:title=" ">
<path fill="none" stroke="#63b8ff" d="M251.4,-121.31C251.53,-113.14 251.66,-104.41 251.77,-97.33"/>
<polygon fill="#63b8ff" stroke="#63b8ff" points="247.91,-121.05 251.25,-131.1 254.91,-121.16 247.91,-121.05"/>
</a>
</g>
</g>
<!-- Node10 -->
<g id="Node000010" class="node">
<title>Node10</title>
<g id="a_Node000010"><a xlink:href="_headless_8cpp.html" target="_top" xlink:title=" ">
<polygon fill="white" stroke="#666666" points="320.38,-30.5 183.62,-30.5 183.62,0 320.38,0 320.38,-30.5"/>
<text text-anchor="start" x="191.62" y="-17" font-family="Helvetica,sans-Serif" font-size="10.00">/Users/hoff/Retro/virtualc64</text>
<text text-anchor="middle" x="252" y="-5.75" font-family="Helvetica,sans-Serif" font-size="10.00">/Emulator/Headless.cpp</text>
</a>
</g>
</g>
<!-- Node9&#45;&gt;Node10 -->
<g id="edge10_Node000009_Node000010" class="edge">
<title>Node9&#45;&gt;Node10</title>
<g id="a_edge10_Node000009_Node000010"><a xlink:title=" ">
<path fill="none" stroke="#63b8ff" d="M252,-54.81C252,-46.64 252,-37.91 252,-30.83"/>
<polygon fill="#63b8ff" stroke="#63b8ff" points="248.5,-54.6 252,-64.6 255.5,-54.6 248.5,-54.6"/>
</a>
</g>
</g>
</g>
</svg>
