<?xml version="1.0" encoding="UTF-8" standalone="no"?>
<!DOCTYPE svg PUBLIC "-//W3C//DTD SVG 1.1//EN"
 "http://www.w3.org/Graphics/SVG/1.1/DTD/svg11.dtd">
<!-- Generated by graphviz version 10.0.1 (20240210.2158)
 -->
<!-- Title: /Users/hoff/Retro/virtualc64/Emulator/Components/VICII/DmaDebugger.h Pages: 1 -->
<svg width="1547pt" height="658pt"
 viewBox="0.00 0.00 1547.25 657.50" xmlns="http://www.w3.org/2000/svg" xmlns:xlink="http://www.w3.org/1999/xlink">
<g id="graph0" class="graph" transform="scale(1 1) rotate(0) translate(4 653.5)">
<title>/Users/hoff/Retro/virtualc64/Emulator/Components/VICII/DmaDebugger.h</title>
<!-- Node1 -->
<g id="Node000001" class="node">
<title>Node1</title>
<g id="a_Node000001"><a xlink:title=" ">
<polygon fill="#999999" stroke="#666666" points="1530.25,-649.5 1387.5,-649.5 1387.5,-607.75 1530.25,-607.75 1530.25,-649.5"/>
<text text-anchor="start" x="1395.5" y="-636" font-family="Helvetica,sans-Serif" font-size="10.00">/Users/hoff/Retro/virtualc64</text>
<text text-anchor="start" x="1395.5" y="-624.75" font-family="Helvetica,sans-Serif" font-size="10.00">/Emulator/Components/VICII</text>
<text text-anchor="middle" x="1458.88" y="-613.5" font-family="Helvetica,sans-Serif" font-size="10.00">/DmaDebugger.h</text>
</a>
</g>
</g>
<!-- Node2 -->
<g id="Node000002" class="node">
<title>Node2</title>
<g id="a_Node000002"><a xlink:href="_dma_debugger_types_8h.html" target="_top" xlink:title=" ">
<polygon fill="white" stroke="#666666" points="1346.62,-295.5 1233.12,-295.5 1233.12,-276.25 1346.62,-276.25 1346.62,-295.5"/>
<text text-anchor="middle" x="1289.88" y="-282" font-family="Helvetica,sans-Serif" font-size="10.00">DmaDebuggerTypes.h</text>
</a>
</g>
</g>
<!-- Node1&#45;&gt;Node2 -->
<g id="edge1_Node000001_Node000002" class="edge">
<title>Node1&#45;&gt;Node2</title>
<g id="a_edge1_Node000001_Node000002"><a xlink:title=" ">
<path fill="none" stroke="#63b8ff" d="M1458.88,-607.28C1458.88,-583.46 1458.88,-542.8 1458.88,-507.88 1458.88,-507.88 1458.88,-507.88 1458.88,-395.38 1458.88,-341.24 1396.71,-312.86 1347.79,-298.91"/>
<polygon fill="#63b8ff" stroke="#63b8ff" points="1348.98,-295.6 1338.41,-296.38 1347.16,-302.36 1348.98,-295.6"/>
</a>
</g>
</g>
<!-- Node11 -->
<g id="Node000011" class="node">
<title>Node11</title>
<g id="a_Node000011"><a xlink:href="_sub_component_8h.html" target="_top" xlink:title=" ">
<polygon fill="white" stroke="#666666" points="1430.75,-571.75 1339,-571.75 1339,-552.5 1430.75,-552.5 1430.75,-571.75"/>
<text text-anchor="middle" x="1384.88" y="-558.25" font-family="Helvetica,sans-Serif" font-size="10.00">SubComponent.h</text>
</a>
</g>
</g>
<!-- Node1&#45;&gt;Node11 -->
<g id="edge12_Node000001_Node000011" class="edge">
<title>Node1&#45;&gt;Node11</title>
<g id="a_edge12_Node000001_Node000011"><a xlink:title=" ">
<path fill="none" stroke="#63b8ff" d="M1435.87,-607.57C1425.58,-598.6 1413.6,-588.16 1403.83,-579.65"/>
<polygon fill="#63b8ff" stroke="#63b8ff" points="1406.26,-577.12 1396.42,-573.19 1401.66,-582.4 1406.26,-577.12"/>
</a>
</g>
</g>
<!-- Node46 -->
<g id="Node000046" class="node">
<title>Node46</title>
<g id="a_Node000046"><a xlink:href="_colors_8h.html" target="_top" xlink:title=" ">
<polygon fill="white" stroke="#666666" points="1539.25,-516.5 1486.5,-516.5 1486.5,-497.25 1539.25,-497.25 1539.25,-516.5"/>
<text text-anchor="middle" x="1512.88" y="-503" font-family="Helvetica,sans-Serif" font-size="10.00">Colors.h</text>
</a>
</g>
</g>
<!-- Node1&#45;&gt;Node46 -->
<g id="edge71_Node000001_Node000046" class="edge">
<title>Node1&#45;&gt;Node46</title>
<g id="a_edge71_Node000001_Node000046"><a xlink:title=" ">
<path fill="none" stroke="#63b8ff" d="M1468.04,-607.31C1478.14,-584.91 1494.27,-549.14 1504.18,-527.16"/>
<polygon fill="#63b8ff" stroke="#63b8ff" points="1507.31,-528.74 1508.23,-518.19 1500.92,-525.86 1507.31,-528.74"/>
</a>
</g>
</g>
<!-- Node3 -->
<g id="Node000003" class="node">
<title>Node3</title>
<g id="a_Node000003"><a xlink:href="_aliases_8h.html" target="_top" xlink:title=" ">
<polygon fill="white" stroke="#666666" points="1311.12,-185 1254.62,-185 1254.62,-165.75 1311.12,-165.75 1311.12,-185"/>
<text text-anchor="middle" x="1282.88" y="-171.5" font-family="Helvetica,sans-Serif" font-size="10.00">Aliases.h</text>
</a>
</g>
</g>
<!-- Node2&#45;&gt;Node3 -->
<g id="edge2_Node000002_Node000003" class="edge">
<title>Node2&#45;&gt;Node3</title>
<g id="a_edge2_Node000002_Node000003"><a xlink:title=" ">
<path fill="none" stroke="#63b8ff" d="M1300.68,-276.15C1314.1,-264.18 1334.26,-241.78 1325.88,-221 1321.44,-210.01 1312.86,-200.21 1304.52,-192.62"/>
<polygon fill="#63b8ff" stroke="#63b8ff" points="1306.85,-190.01 1296.94,-186.27 1302.36,-195.37 1306.85,-190.01"/>
</a>
</g>
</g>
<!-- Node9 -->
<g id="Node000009" class="node">
<title>Node9</title>
<g id="a_Node000009"><a xlink:href="_reflection_8h.html" target="_top" xlink:title=" ">
<polygon fill="white" stroke="#666666" points="1145.12,-185 1076.62,-185 1076.62,-165.75 1145.12,-165.75 1145.12,-185"/>
<text text-anchor="middle" x="1110.88" y="-171.5" font-family="Helvetica,sans-Serif" font-size="10.00">Reflection.h</text>
</a>
</g>
</g>
<!-- Node2&#45;&gt;Node9 -->
<g id="edge8_Node000002_Node000009" class="edge">
<title>Node2&#45;&gt;Node9</title>
<g id="a_edge8_Node000002_Node000009"><a xlink:title=" ">
<path fill="none" stroke="#63b8ff" d="M1274.92,-275.81C1244.05,-257.1 1172.99,-214.03 1135.33,-191.2"/>
<polygon fill="#63b8ff" stroke="#63b8ff" points="1137.32,-188.31 1126.95,-186.12 1133.69,-194.3 1137.32,-188.31"/>
</a>
</g>
</g>
<!-- Node10 -->
<g id="Node000010" class="node">
<title>Node10</title>
<g id="a_Node000010"><a xlink:href="_bus_types_8h.html" target="_top" xlink:title=" ">
<polygon fill="white" stroke="#666666" points="1316.75,-240.25 1249,-240.25 1249,-221 1316.75,-221 1316.75,-240.25"/>
<text text-anchor="middle" x="1282.88" y="-226.75" font-family="Helvetica,sans-Serif" font-size="10.00">BusTypes.h</text>
</a>
</g>
</g>
<!-- Node2&#45;&gt;Node10 -->
<g id="edge9_Node000002_Node000010" class="edge">
<title>Node2&#45;&gt;Node10</title>
<g id="a_edge9_Node000002_Node000010"><a xlink:title=" ">
<path fill="none" stroke="#63b8ff" d="M1288.72,-276.08C1287.85,-269.49 1286.63,-260.21 1285.53,-251.82"/>
<polygon fill="#63b8ff" stroke="#63b8ff" points="1289.03,-251.57 1284.25,-242.11 1282.09,-252.48 1289.03,-251.57"/>
</a>
</g>
</g>
<!-- Node4 -->
<g id="Node000004" class="node">
<title>Node4</title>
<g id="a_Node000004"><a xlink:href="_macros_8h.html" target="_top" xlink:title=" ">
<polygon fill="white" stroke="#666666" points="1051.12,-129.75 994.62,-129.75 994.62,-110.5 1051.12,-110.5 1051.12,-129.75"/>
<text text-anchor="middle" x="1022.88" y="-116.25" font-family="Helvetica,sans-Serif" font-size="10.00">Macros.h</text>
</a>
</g>
</g>
<!-- Node3&#45;&gt;Node4 -->
<g id="edge3_Node000003_Node000004" class="edge">
<title>Node3&#45;&gt;Node4</title>
<g id="a_edge3_Node000003_Node000004"><a xlink:title=" ">
<path fill="none" stroke="#63b8ff" d="M1254.56,-168.57C1208.08,-159.06 1115.52,-140.1 1062.54,-129.25"/>
<polygon fill="#63b8ff" stroke="#63b8ff" points="1063.54,-125.88 1053.04,-127.3 1062.13,-132.74 1063.54,-125.88"/>
</a>
</g>
</g>
<!-- Node5 -->
<g id="Node000005" class="node">
<title>Node5</title>
<g id="a_Node000005"><a xlink:href="_types_8h.html" target="_top" xlink:title=" ">
<polygon fill="white" stroke="#666666" points="377.12,-74.5 326.62,-74.5 326.62,-55.25 377.12,-55.25 377.12,-74.5"/>
<text text-anchor="middle" x="351.88" y="-61" font-family="Helvetica,sans-Serif" font-size="10.00">Types.h</text>
</a>
</g>
</g>
<!-- Node4&#45;&gt;Node5 -->
<g id="edge4_Node000004_Node000005" class="edge">
<title>Node4&#45;&gt;Node5</title>
<g id="a_edge4_Node000004_Node000005"><a xlink:title=" ">
<path fill="none" stroke="#63b8ff" d="M994.47,-116.87C887.52,-108.38 509.03,-78.35 388.81,-68.81"/>
<polygon fill="#63b8ff" stroke="#63b8ff" points="389.12,-65.32 378.87,-68.02 388.56,-72.3 389.12,-65.32"/>
</a>
</g>
</g>
<!-- Node6 -->
<g id="Node000006" class="node">
<title>Node6</title>
<g id="a_Node000006"><a xlink:title=" ">
<polygon fill="#e0e0e0" stroke="#999999" points="309.38,-19.25 242.38,-19.25 242.38,0 309.38,0 309.38,-19.25"/>
<text text-anchor="middle" x="275.88" y="-5.75" font-family="Helvetica,sans-Serif" font-size="10.00">sys/types.h</text>
</a>
</g>
</g>
<!-- Node5&#45;&gt;Node6 -->
<g id="edge5_Node000005_Node000006" class="edge">
<title>Node5&#45;&gt;Node6</title>
<g id="a_edge5_Node000005_Node000006"><a xlink:title=" ">
<path fill="none" stroke="#63b8ff" d="M338.98,-54.84C327.85,-47.04 311.5,-35.59 298.24,-26.29"/>
<polygon fill="#63b8ff" stroke="#63b8ff" points="300.27,-23.44 290.07,-20.57 296.25,-29.18 300.27,-23.44"/>
</a>
</g>
</g>
<!-- Node7 -->
<g id="Node000007" class="node">
<title>Node7</title>
<g id="a_Node000007"><a xlink:title=" ">
<polygon fill="#e0e0e0" stroke="#999999" points="376,-19.25 327.75,-19.25 327.75,0 376,0 376,-19.25"/>
<text text-anchor="middle" x="351.88" y="-5.75" font-family="Helvetica,sans-Serif" font-size="10.00">stdint.h</text>
</a>
</g>
</g>
<!-- Node5&#45;&gt;Node7 -->
<g id="edge6_Node000005_Node000007" class="edge">
<title>Node5&#45;&gt;Node7</title>
<g id="a_edge6_Node000005_Node000007"><a xlink:title=" ">
<path fill="none" stroke="#63b8ff" d="M351.88,-55.08C351.88,-48.57 351.88,-39.42 351.88,-31.12"/>
<polygon fill="#63b8ff" stroke="#63b8ff" points="355.38,-31.12 351.88,-21.12 348.38,-31.12 355.38,-31.12"/>
</a>
</g>
</g>
<!-- Node8 -->
<g id="Node000008" class="node">
<title>Node8</title>
<g id="a_Node000008"><a xlink:title=" ">
<polygon fill="#e0e0e0" stroke="#999999" points="449.75,-19.25 394,-19.25 394,0 449.75,0 449.75,-19.25"/>
<text text-anchor="middle" x="421.88" y="-5.75" font-family="Helvetica,sans-Serif" font-size="10.00">stdbool.h</text>
</a>
</g>
</g>
<!-- Node5&#45;&gt;Node8 -->
<g id="edge7_Node000005_Node000008" class="edge">
<title>Node5&#45;&gt;Node8</title>
<g id="a_edge7_Node000005_Node000008"><a xlink:title=" ">
<path fill="none" stroke="#63b8ff" d="M363.75,-54.84C373.97,-47.07 388.95,-35.67 401.14,-26.4"/>
<polygon fill="#63b8ff" stroke="#63b8ff" points="403.13,-29.28 408.97,-20.44 398.89,-23.71 403.13,-29.28"/>
</a>
</g>
</g>
<!-- Node10&#45;&gt;Node3 -->
<g id="edge10_Node000010_Node000003" class="edge">
<title>Node10&#45;&gt;Node3</title>
<g id="a_edge10_Node000010_Node000003"><a xlink:title=" ">
<path fill="none" stroke="#63b8ff" d="M1282.88,-220.83C1282.88,-214.32 1282.88,-205.17 1282.88,-196.87"/>
<polygon fill="#63b8ff" stroke="#63b8ff" points="1286.38,-196.87 1282.88,-186.87 1279.38,-196.87 1286.38,-196.87"/>
</a>
</g>
</g>
<!-- Node10&#45;&gt;Node9 -->
<g id="edge11_Node000010_Node000009" class="edge">
<title>Node10&#45;&gt;Node9</title>
<g id="a_edge11_Node000010_Node000009"><a xlink:title=" ">
<path fill="none" stroke="#63b8ff" d="M1253.7,-220.59C1225.4,-211.83 1182.26,-198.48 1150.79,-188.73"/>
<polygon fill="#63b8ff" stroke="#63b8ff" points="1152.23,-185.51 1141.64,-185.9 1150.16,-192.2 1152.23,-185.51"/>
</a>
</g>
</g>
<!-- Node12 -->
<g id="Node000012" class="node">
<title>Node12</title>
<g id="a_Node000012"><a xlink:href="_core_component_8h.html" target="_top" xlink:title=" ">
<polygon fill="white" stroke="#666666" points="803.62,-516.5 708.12,-516.5 708.12,-497.25 803.62,-497.25 803.62,-516.5"/>
<text text-anchor="middle" x="755.88" y="-503" font-family="Helvetica,sans-Serif" font-size="10.00">CoreComponent.h</text>
</a>
</g>
</g>
<!-- Node11&#45;&gt;Node12 -->
<g id="edge13_Node000011_Node000012" class="edge">
<title>Node11&#45;&gt;Node12</title>
<g id="a_edge13_Node000011_Node000012"><a xlink:title=" ">
<path fill="none" stroke="#63b8ff" d="M1338.62,-557.21C1226.37,-547.71 939.62,-523.43 815.09,-512.89"/>
<polygon fill="#63b8ff" stroke="#63b8ff" points="815.68,-509.43 805.42,-512.07 815.09,-516.4 815.68,-509.43"/>
</a>
</g>
</g>
<!-- Node44 -->
<g id="Node000044" class="node">
<title>Node44</title>
<g id="a_Node000044"><a xlink:href="_c_p_u_types_8h.html" target="_top" xlink:title=" ">
<polygon fill="white" stroke="#666666" points="1483,-240.25 1410.75,-240.25 1410.75,-221 1483,-221 1483,-240.25"/>
<text text-anchor="middle" x="1446.88" y="-226.75" font-family="Helvetica,sans-Serif" font-size="10.00">CPUTypes.h</text>
</a>
</g>
</g>
<!-- Node11&#45;&gt;Node44 -->
<g id="edge66_Node000011_Node000044" class="edge">
<title>Node11&#45;&gt;Node44</title>
<g id="a_edge66_Node000011_Node000044"><a xlink:title=" ">
<path fill="none" stroke="#63b8ff" d="M1390.03,-552.17C1399.99,-534.02 1420.88,-491.33 1420.88,-452.62 1420.88,-452.62 1420.88,-452.62 1420.88,-340.12 1420.88,-308.4 1431.52,-272.86 1439.18,-251.37"/>
<polygon fill="#63b8ff" stroke="#63b8ff" points="1442.41,-252.75 1442.62,-242.15 1435.85,-250.3 1442.41,-252.75"/>
</a>
</g>
</g>
<!-- Node13 -->
<g id="Node000013" class="node">
<title>Node13</title>
<g id="a_Node000013"><a xlink:href="_emulator_types_8h.html" target="_top" xlink:title=" ">
<polygon fill="white" stroke="#666666" points="1190.62,-295.5 1101.12,-295.5 1101.12,-276.25 1190.62,-276.25 1190.62,-295.5"/>
<text text-anchor="middle" x="1145.88" y="-282" font-family="Helvetica,sans-Serif" font-size="10.00">EmulatorTypes.h</text>
</a>
</g>
</g>
<!-- Node12&#45;&gt;Node13 -->
<g id="edge14_Node000012_Node000013" class="edge">
<title>Node12&#45;&gt;Node13</title>
<g id="a_edge14_Node000012_Node000013"><a xlink:title=" ">
<path fill="none" stroke="#63b8ff" d="M803.78,-503.39C898.92,-498 1104.52,-483.85 1126.88,-461.25 1167.87,-419.8 1158.18,-342.84 1150.68,-306.65"/>
<polygon fill="#63b8ff" stroke="#63b8ff" points="1154.15,-306.14 1148.54,-297.15 1147.33,-307.68 1154.15,-306.14"/>
</a>
</g>
</g>
<!-- Node14 -->
<g id="Node000014" class="node">
<title>Node14</title>
<g id="a_Node000014"><a xlink:href="_thread_types_8h.html" target="_top" xlink:title=" ">
<polygon fill="white" stroke="#666666" points="1117.12,-240.25 1036.62,-240.25 1036.62,-221 1117.12,-221 1117.12,-240.25"/>
<text text-anchor="middle" x="1076.88" y="-226.75" font-family="Helvetica,sans-Serif" font-size="10.00">ThreadTypes.h</text>
</a>
</g>
</g>
<!-- Node12&#45;&gt;Node14 -->
<g id="edge64_Node000012_Node000014" class="edge">
<title>Node12&#45;&gt;Node14</title>
<g id="a_edge64_Node000012_Node000014"><a xlink:title=" ">
<path fill="none" stroke="#63b8ff" d="M788.04,-496.81C811.93,-489.28 844.75,-477.23 870.88,-461.25 933.84,-422.73 946.04,-406.11 994.88,-350.75 1023.83,-317.93 1051.37,-274.58 1066,-250.25"/>
<polygon fill="#63b8ff" stroke="#63b8ff" points="1068.91,-252.21 1071,-241.82 1062.89,-248.64 1068.91,-252.21"/>
</a>
</g>
</g>
<!-- Node15 -->
<g id="Node000015" class="node">
<title>Node15</title>
<g id="a_Node000015"><a xlink:href="_core_object_8h.html" target="_top" xlink:title=" ">
<polygon fill="white" stroke="#666666" points="779.75,-350.75 706,-350.75 706,-331.5 779.75,-331.5 779.75,-350.75"/>
<text text-anchor="middle" x="742.88" y="-337.25" font-family="Helvetica,sans-Serif" font-size="10.00">CoreObject.h</text>
</a>
</g>
</g>
<!-- Node12&#45;&gt;Node15 -->
<g id="edge20_Node000012_Node000015" class="edge">
<title>Node12&#45;&gt;Node15</title>
<g id="a_edge20_Node000012_Node000015"><a xlink:title=" ">
<path fill="none" stroke="#63b8ff" d="M749.62,-496.78C738.39,-479.84 715.22,-441.93 706.88,-406 704.94,-397.67 704.03,-394.82 706.88,-386.75 710.5,-376.5 717.58,-366.87 724.52,-359.2"/>
<polygon fill="#63b8ff" stroke="#63b8ff" points="726.82,-361.85 731.31,-352.25 721.82,-356.95 726.82,-361.85"/>
</a>
</g>
</g>
<!-- Node22 -->
<g id="Node000022" class="node">
<title>Node22</title>
<g id="a_Node000022"><a xlink:href="_synchronizable_8h.html" target="_top" xlink:title=" ">
<polygon fill="white" stroke="#666666" points="175.38,-406 84.38,-406 84.38,-386.75 175.38,-386.75 175.38,-406"/>
<text text-anchor="middle" x="129.88" y="-392.5" font-family="Helvetica,sans-Serif" font-size="10.00">Synchronizable.h</text>
</a>
</g>
</g>
<!-- Node12&#45;&gt;Node22 -->
<g id="edge30_Node000012_Node000022" class="edge">
<title>Node12&#45;&gt;Node22</title>
<g id="a_edge30_Node000012_Node000022"><a xlink:title=" ">
<path fill="none" stroke="#63b8ff" d="M707.84,-506.48C588.36,-507.29 280.84,-504.93 189.88,-461.25 169.15,-451.3 151.98,-430.84 141.4,-415.74"/>
<polygon fill="#63b8ff" stroke="#63b8ff" points="144.44,-414 136,-407.6 138.61,-417.87 144.44,-414"/>
</a>
</g>
</g>
<!-- Node23 -->
<g id="Node000023" class="node">
<title>Node23</title>
<g id="a_Node000023"><a xlink:href="_concurrency_8h.html" target="_top" xlink:title=" ">
<polygon fill="white" stroke="#666666" points="151,-350.75 72.75,-350.75 72.75,-331.5 151,-331.5 151,-350.75"/>
<text text-anchor="middle" x="111.88" y="-337.25" font-family="Helvetica,sans-Serif" font-size="10.00">Concurrency.h</text>
</a>
</g>
</g>
<!-- Node12&#45;&gt;Node23 -->
<g id="edge61_Node000012_Node000023" class="edge">
<title>Node12&#45;&gt;Node23</title>
<g id="a_edge61_Node000012_Node000023"><a xlink:title=" ">
<path fill="none" stroke="#63b8ff" d="M707.78,-505.3C584.89,-503.35 261.93,-495.07 160.88,-461.25 117.79,-446.83 96.65,-445.87 74.88,-406 66.01,-389.76 78.91,-371.52 91.85,-358.71"/>
<polygon fill="#63b8ff" stroke="#63b8ff" points="93.99,-361.49 99.01,-352.16 89.27,-356.32 93.99,-361.49"/>
</a>
</g>
</g>
<!-- Node28 -->
<g id="Node000028" class="node">
<title>Node28</title>
<g id="a_Node000028"><a xlink:href="_serializable_8h.html" target="_top" xlink:title=" ">
<polygon fill="white" stroke="#666666" points="660.12,-461.25 585.62,-461.25 585.62,-442 660.12,-442 660.12,-461.25"/>
<text text-anchor="middle" x="622.88" y="-447.75" font-family="Helvetica,sans-Serif" font-size="10.00">Serializable.h</text>
</a>
</g>
</g>
<!-- Node12&#45;&gt;Node28 -->
<g id="edge37_Node000012_Node000028" class="edge">
<title>Node12&#45;&gt;Node28</title>
<g id="a_edge37_Node000012_Node000028"><a xlink:title=" ">
<path fill="none" stroke="#63b8ff" d="M733.31,-496.84C712.1,-488.35 680.1,-475.54 656,-465.89"/>
<polygon fill="#63b8ff" stroke="#63b8ff" points="657.54,-462.73 646.95,-462.27 654.94,-469.23 657.54,-462.73"/>
</a>
</g>
</g>
<!-- Node29 -->
<g id="Node000029" class="node">
<title>Node29</title>
<g id="a_Node000029"><a xlink:href="_configurable_8h.html" target="_top" xlink:title=" ">
<polygon fill="white" stroke="#666666" points="862.38,-461.25 783.38,-461.25 783.38,-442 862.38,-442 862.38,-461.25"/>
<text text-anchor="middle" x="822.88" y="-447.75" font-family="Helvetica,sans-Serif" font-size="10.00">Configurable.h</text>
</a>
</g>
</g>
<!-- Node12&#45;&gt;Node29 -->
<g id="edge38_Node000012_Node000029" class="edge">
<title>Node12&#45;&gt;Node29</title>
<g id="a_edge38_Node000012_Node000029"><a xlink:title=" ">
<path fill="none" stroke="#63b8ff" d="M767.24,-496.84C776.92,-489.15 791.07,-477.9 802.68,-468.68"/>
<polygon fill="#63b8ff" stroke="#63b8ff" points="804.84,-471.43 810.49,-462.47 800.49,-465.95 804.84,-471.43"/>
</a>
</g>
</g>
<!-- Node34 -->
<g id="Node000034" class="node">
<title>Node34</title>
<g id="a_Node000034"><a xlink:title=" ">
<polygon fill="#e0e0e0" stroke="#999999" points="197.38,-185 154.38,-185 154.38,-165.75 197.38,-165.75 197.38,-185"/>
<text text-anchor="middle" x="175.88" y="-171.5" font-family="Helvetica,sans-Serif" font-size="10.00">vector</text>
</a>
</g>
</g>
<!-- Node12&#45;&gt;Node34 -->
<g id="edge65_Node000012_Node000034" class="edge">
<title>Node12&#45;&gt;Node34</title>
<g id="a_edge65_Node000012_Node000034"><a xlink:title=" ">
<path fill="none" stroke="#63b8ff" d="M707.85,-506.56C573.56,-507.2 203.88,-499.68 203.88,-397.38 203.88,-397.38 203.88,-397.38 203.88,-340.12 203.88,-294.37 185.54,-285.52 178.88,-240.25 176.74,-225.74 176.01,-209.2 175.8,-196.58"/>
<polygon fill="#63b8ff" stroke="#63b8ff" points="179.3,-196.6 175.75,-186.62 172.3,-196.64 179.3,-196.6"/>
</a>
</g>
</g>
<!-- Node42 -->
<g id="Node000042" class="node">
<title>Node42</title>
<g id="a_Node000042"><a xlink:href="_suspendable_8h.html" target="_top" xlink:title=" ">
<polygon fill="white" stroke="#666666" points="1118.12,-461.25 1037.62,-461.25 1037.62,-442 1118.12,-442 1118.12,-461.25"/>
<text text-anchor="middle" x="1077.88" y="-447.75" font-family="Helvetica,sans-Serif" font-size="10.00">Suspendable.h</text>
</a>
</g>
</g>
<!-- Node12&#45;&gt;Node42 -->
<g id="edge62_Node000012_Node000042" class="edge">
<title>Node12&#45;&gt;Node42</title>
<g id="a_edge62_Node000012_Node000042"><a xlink:title=" ">
<path fill="none" stroke="#63b8ff" d="M804.08,-497.9C863.75,-488.04 964.95,-471.3 1026.18,-461.17"/>
<polygon fill="#63b8ff" stroke="#63b8ff" points="1026.71,-464.63 1036.01,-459.55 1025.57,-457.73 1026.71,-464.63"/>
</a>
</g>
</g>
<!-- Node13&#45;&gt;Node3 -->
<g id="edge15_Node000013_Node000003" class="edge">
<title>Node13&#45;&gt;Node3</title>
<g id="a_edge15_Node000013_Node000003"><a xlink:title=" ">
<path fill="none" stroke="#63b8ff" d="M1157.09,-276C1180.17,-257.72 1233.28,-215.65 1262.57,-192.46"/>
<polygon fill="#63b8ff" stroke="#63b8ff" points="1264.66,-195.27 1270.32,-186.32 1260.31,-189.78 1264.66,-195.27"/>
</a>
</g>
</g>
<!-- Node13&#45;&gt;Node9 -->
<g id="edge16_Node000013_Node000009" class="edge">
<title>Node13&#45;&gt;Node9</title>
<g id="a_edge16_Node000013_Node000009"><a xlink:title=" ">
<path fill="none" stroke="#63b8ff" d="M1143.09,-275.76C1139.27,-263.35 1132.19,-240.45 1125.88,-221 1123.23,-212.84 1120.23,-203.86 1117.61,-196.12"/>
<polygon fill="#63b8ff" stroke="#63b8ff" points="1120.93,-195.02 1114.4,-186.68 1114.31,-197.27 1120.93,-195.02"/>
</a>
</g>
</g>
<!-- Node13&#45;&gt;Node14 -->
<g id="edge17_Node000013_Node000014" class="edge">
<title>Node13&#45;&gt;Node14</title>
<g id="a_edge17_Node000013_Node000014"><a xlink:title=" ">
<path fill="none" stroke="#63b8ff" d="M1134.17,-275.84C1124.1,-268.07 1109.33,-256.67 1097.31,-247.4"/>
<polygon fill="#63b8ff" stroke="#63b8ff" points="1099.66,-244.79 1089.61,-241.45 1095.38,-250.33 1099.66,-244.79"/>
</a>
</g>
</g>
<!-- Node14&#45;&gt;Node3 -->
<g id="edge18_Node000014_Node000003" class="edge">
<title>Node14&#45;&gt;Node3</title>
<g id="a_edge18_Node000014_Node000003"><a xlink:title=" ">
<path fill="none" stroke="#63b8ff" d="M1111.82,-220.59C1148.39,-211.14 1205.67,-196.33 1243.73,-186.49"/>
<polygon fill="#63b8ff" stroke="#63b8ff" points="1244.13,-190 1252.94,-184.11 1242.38,-183.23 1244.13,-190"/>
</a>
</g>
</g>
<!-- Node14&#45;&gt;Node9 -->
<g id="edge19_Node000014_Node000009" class="edge">
<title>Node14&#45;&gt;Node9</title>
<g id="a_edge19_Node000014_Node000009"><a xlink:title=" ">
<path fill="none" stroke="#63b8ff" d="M1082.49,-220.83C1086.99,-213.78 1093.46,-203.65 1099.09,-194.83"/>
<polygon fill="#63b8ff" stroke="#63b8ff" points="1101.89,-196.95 1104.32,-186.63 1095.99,-193.18 1101.89,-196.95"/>
</a>
</g>
</g>
<!-- Node16 -->
<g id="Node000016" class="node">
<title>Node16</title>
<g id="a_Node000016"><a xlink:href="_error_8h.html" target="_top" xlink:title=" ">
<polygon fill="white" stroke="#666666" points="841.12,-295.5 796.62,-295.5 796.62,-276.25 841.12,-276.25 841.12,-295.5"/>
<text text-anchor="middle" x="818.88" y="-282" font-family="Helvetica,sans-Serif" font-size="10.00">Error.h</text>
</a>
</g>
</g>
<!-- Node15&#45;&gt;Node16 -->
<g id="edge21_Node000015_Node000016" class="edge">
<title>Node15&#45;&gt;Node16</title>
<g id="a_edge21_Node000015_Node000016"><a xlink:title=" ">
<path fill="none" stroke="#63b8ff" d="M755.77,-331.09C766.9,-323.29 783.25,-311.84 796.51,-302.54"/>
<polygon fill="#63b8ff" stroke="#63b8ff" points="798.5,-305.43 804.68,-296.82 794.48,-299.69 798.5,-305.43"/>
</a>
</g>
</g>
<!-- Node20 -->
<g id="Node000020" class="node">
<title>Node20</title>
<g id="a_Node000020"><a xlink:href="_inspectable_8h.html" target="_top" xlink:title=" ">
<polygon fill="white" stroke="#666666" points="777.12,-295.5 702.62,-295.5 702.62,-276.25 777.12,-276.25 777.12,-295.5"/>
<text text-anchor="middle" x="739.88" y="-282" font-family="Helvetica,sans-Serif" font-size="10.00">Inspectable.h</text>
</a>
</g>
</g>
<!-- Node15&#45;&gt;Node20 -->
<g id="edge28_Node000015_Node000020" class="edge">
<title>Node15&#45;&gt;Node20</title>
<g id="a_edge28_Node000015_Node000020"><a xlink:title=" ">
<path fill="none" stroke="#63b8ff" d="M742.38,-331.33C742.01,-324.74 741.49,-315.46 741.01,-307.07"/>
<polygon fill="#63b8ff" stroke="#63b8ff" points="744.52,-307.16 740.47,-297.37 737.53,-307.55 744.52,-307.16"/>
</a>
</g>
</g>
<!-- Node17 -->
<g id="Node000017" class="node">
<title>Node17</title>
<g id="a_Node000017"><a xlink:href="_error_types_8h.html" target="_top" xlink:title=" ">
<polygon fill="white" stroke="#666666" points="1018.62,-240.25 947.12,-240.25 947.12,-221 1018.62,-221 1018.62,-240.25"/>
<text text-anchor="middle" x="982.88" y="-226.75" font-family="Helvetica,sans-Serif" font-size="10.00">ErrorTypes.h</text>
</a>
</g>
</g>
<!-- Node16&#45;&gt;Node17 -->
<g id="edge22_Node000016_Node000017" class="edge">
<title>Node16&#45;&gt;Node17</title>
<g id="a_edge22_Node000016_Node000017"><a xlink:title=" ">
<path fill="none" stroke="#63b8ff" d="M841.33,-277.58C867.78,-269 912.15,-254.59 944.17,-244.19"/>
<polygon fill="#63b8ff" stroke="#63b8ff" points="945.06,-247.58 953.49,-241.16 942.9,-240.92 945.06,-247.58"/>
</a>
</g>
</g>
<!-- Node18 -->
<g id="Node000018" class="node">
<title>Node18</title>
<g id="a_Node000018"><a xlink:href="_exception_8h.html" target="_top" xlink:title=" ">
<polygon fill="white" stroke="#666666" points="852.75,-240.25 785,-240.25 785,-221 852.75,-221 852.75,-240.25"/>
<text text-anchor="middle" x="818.88" y="-226.75" font-family="Helvetica,sans-Serif" font-size="10.00">Exception.h</text>
</a>
</g>
</g>
<!-- Node16&#45;&gt;Node18 -->
<g id="edge25_Node000016_Node000018" class="edge">
<title>Node16&#45;&gt;Node18</title>
<g id="a_edge25_Node000016_Node000018"><a xlink:title=" ">
<path fill="none" stroke="#63b8ff" d="M818.88,-276.08C818.88,-269.57 818.88,-260.42 818.88,-252.12"/>
<polygon fill="#63b8ff" stroke="#63b8ff" points="822.38,-252.12 818.88,-242.12 815.38,-252.12 822.38,-252.12"/>
</a>
</g>
</g>
<!-- Node17&#45;&gt;Node3 -->
<g id="edge23_Node000017_Node000003" class="edge">
<title>Node17&#45;&gt;Node3</title>
<g id="a_edge23_Node000017_Node000003"><a xlink:title=" ">
<path fill="none" stroke="#63b8ff" d="M1018.73,-222.7C1021.82,-222.12 1024.9,-221.55 1027.88,-221 1103.79,-207.08 1192.61,-191.76 1242.85,-183.17"/>
<polygon fill="#63b8ff" stroke="#63b8ff" points="1243.41,-186.63 1252.67,-181.5 1242.23,-179.73 1243.41,-186.63"/>
</a>
</g>
</g>
<!-- Node17&#45;&gt;Node9 -->
<g id="edge24_Node000017_Node000009" class="edge">
<title>Node17&#45;&gt;Node9</title>
<g id="a_edge24_Node000017_Node000009"><a xlink:title=" ">
<path fill="none" stroke="#63b8ff" d="M1004.59,-220.59C1024.91,-212.14 1055.52,-199.4 1078.68,-189.77"/>
<polygon fill="#63b8ff" stroke="#63b8ff" points="1079.77,-193.11 1087.66,-186.03 1077.08,-186.64 1079.77,-193.11"/>
</a>
</g>
</g>
<!-- Node18&#45;&gt;Node5 -->
<g id="edge26_Node000018_Node000005" class="edge">
<title>Node18&#45;&gt;Node5</title>
<g id="a_edge26_Node000018_Node000005"><a xlink:title=" ">
<path fill="none" stroke="#63b8ff" d="M793.1,-220.59C714.72,-193.1 479.04,-110.46 388.16,-78.6"/>
<polygon fill="#63b8ff" stroke="#63b8ff" points="389.59,-75.39 379,-75.39 387.28,-82 389.59,-75.39"/>
</a>
</g>
</g>
<!-- Node19 -->
<g id="Node000019" class="node">
<title>Node19</title>
<g id="a_Node000019"><a xlink:title=" ">
<polygon fill="#e0e0e0" stroke="#999999" points="847.88,-185 789.88,-185 789.88,-165.75 847.88,-165.75 847.88,-185"/>
<text text-anchor="middle" x="818.88" y="-171.5" font-family="Helvetica,sans-Serif" font-size="10.00">exception</text>
</a>
</g>
</g>
<!-- Node18&#45;&gt;Node19 -->
<g id="edge27_Node000018_Node000019" class="edge">
<title>Node18&#45;&gt;Node19</title>
<g id="a_edge27_Node000018_Node000019"><a xlink:title=" ">
<path fill="none" stroke="#63b8ff" d="M818.88,-220.83C818.88,-214.32 818.88,-205.17 818.88,-196.87"/>
<polygon fill="#63b8ff" stroke="#63b8ff" points="822.38,-196.87 818.88,-186.87 815.38,-196.87 822.38,-196.87"/>
</a>
</g>
</g>
<!-- Node21 -->
<g id="Node000021" class="node">
<title>Node21</title>
<g id="a_Node000021"><a xlink:title=" ">
<polygon fill="#e0e0e0" stroke="#999999" points="766.62,-240.25 713.12,-240.25 713.12,-221 766.62,-221 766.62,-240.25"/>
<text text-anchor="middle" x="739.88" y="-226.75" font-family="Helvetica,sans-Serif" font-size="10.00">iostream</text>
</a>
</g>
</g>
<!-- Node20&#45;&gt;Node21 -->
<g id="edge29_Node000020_Node000021" class="edge">
<title>Node20&#45;&gt;Node21</title>
<g id="a_edge29_Node000020_Node000021"><a xlink:title=" ">
<path fill="none" stroke="#63b8ff" d="M739.88,-276.08C739.88,-269.57 739.88,-260.42 739.88,-252.12"/>
<polygon fill="#63b8ff" stroke="#63b8ff" points="743.38,-252.12 739.88,-242.12 736.38,-252.12 743.38,-252.12"/>
</a>
</g>
</g>
<!-- Node22&#45;&gt;Node23 -->
<g id="edge31_Node000022_Node000023" class="edge">
<title>Node22&#45;&gt;Node23</title>
<g id="a_edge31_Node000022_Node000023"><a xlink:title=" ">
<path fill="none" stroke="#63b8ff" d="M126.9,-386.58C124.62,-379.84 121.39,-370.27 118.51,-361.74"/>
<polygon fill="#63b8ff" stroke="#63b8ff" points="121.91,-360.9 115.4,-352.54 115.28,-363.14 121.91,-360.9"/>
</a>
</g>
</g>
<!-- Node24 -->
<g id="Node000024" class="node">
<title>Node24</title>
<g id="a_Node000024"><a xlink:href="_chrono_8h.html" target="_top" xlink:title=" ">
<polygon fill="white" stroke="#666666" points="55.75,-295.5 0,-295.5 0,-276.25 55.75,-276.25 55.75,-295.5"/>
<text text-anchor="middle" x="27.88" y="-282" font-family="Helvetica,sans-Serif" font-size="10.00">Chrono.h</text>
</a>
</g>
</g>
<!-- Node23&#45;&gt;Node24 -->
<g id="edge32_Node000023_Node000024" class="edge">
<title>Node23&#45;&gt;Node24</title>
<g id="a_edge32_Node000023_Node000024"><a xlink:title=" ">
<path fill="none" stroke="#63b8ff" d="M97.63,-331.09C85.08,-323.14 66.54,-311.39 51.73,-302"/>
<polygon fill="#63b8ff" stroke="#63b8ff" points="53.79,-299.16 43.47,-296.76 50.04,-305.07 53.79,-299.16"/>
</a>
</g>
</g>
<!-- Node26 -->
<g id="Node000026" class="node">
<title>Node26</title>
<g id="a_Node000026"><a xlink:title=" ">
<polygon fill="#e0e0e0" stroke="#999999" points="175.38,-295.5 132.38,-295.5 132.38,-276.25 175.38,-276.25 175.38,-295.5"/>
<text text-anchor="middle" x="153.88" y="-282" font-family="Helvetica,sans-Serif" font-size="10.00">thread</text>
</a>
</g>
</g>
<!-- Node23&#45;&gt;Node26 -->
<g id="edge35_Node000023_Node000026" class="edge">
<title>Node23&#45;&gt;Node26</title>
<g id="a_edge35_Node000023_Node000026"><a xlink:title=" ">
<path fill="none" stroke="#63b8ff" d="M118.81,-331.33C124.49,-324.13 132.71,-313.71 139.77,-304.76"/>
<polygon fill="#63b8ff" stroke="#63b8ff" points="142.41,-307.07 145.85,-297.05 136.91,-302.73 142.41,-307.07"/>
</a>
</g>
</g>
<!-- Node27 -->
<g id="Node000027" class="node">
<title>Node27</title>
<g id="a_Node000027"><a xlink:title=" ">
<polygon fill="#e0e0e0" stroke="#999999" points="114.25,-295.5 73.5,-295.5 73.5,-276.25 114.25,-276.25 114.25,-295.5"/>
<text text-anchor="middle" x="93.88" y="-282" font-family="Helvetica,sans-Serif" font-size="10.00">future</text>
</a>
</g>
</g>
<!-- Node23&#45;&gt;Node27 -->
<g id="edge36_Node000023_Node000027" class="edge">
<title>Node23&#45;&gt;Node27</title>
<g id="a_edge36_Node000023_Node000027"><a xlink:title=" ">
<path fill="none" stroke="#63b8ff" d="M108.9,-331.33C106.62,-324.59 103.39,-315.02 100.51,-306.49"/>
<polygon fill="#63b8ff" stroke="#63b8ff" points="103.91,-305.65 97.4,-297.29 97.28,-307.89 103.91,-305.65"/>
</a>
</g>
</g>
<!-- Node24&#45;&gt;Node5 -->
<g id="edge33_Node000024_Node000005" class="edge">
<title>Node24&#45;&gt;Node5</title>
<g id="a_edge33_Node000024_Node000005"><a xlink:title=" ">
<path fill="none" stroke="#63b8ff" d="M24.57,-276.12C20.3,-263.34 14.37,-239.13 22.88,-221 55.52,-151.43 86.96,-144.52 155.88,-110.5 207.57,-84.98 274.16,-73.81 314.9,-69.1"/>
<polygon fill="#63b8ff" stroke="#63b8ff" points="315.1,-72.6 324.66,-68.05 314.35,-65.64 315.1,-72.6"/>
</a>
</g>
</g>
<!-- Node25 -->
<g id="Node000025" class="node">
<title>Node25</title>
<g id="a_Node000025"><a xlink:title=" ">
<polygon fill="#e0e0e0" stroke="#999999" points="71.88,-240.25 31.88,-240.25 31.88,-221 71.88,-221 71.88,-240.25"/>
<text text-anchor="middle" x="51.88" y="-226.75" font-family="Helvetica,sans-Serif" font-size="10.00">ctime</text>
</a>
</g>
</g>
<!-- Node24&#45;&gt;Node25 -->
<g id="edge34_Node000024_Node000025" class="edge">
<title>Node24&#45;&gt;Node25</title>
<g id="a_edge34_Node000024_Node000025"><a xlink:title=" ">
<path fill="none" stroke="#63b8ff" d="M31.84,-276.08C34.91,-269.26 39.29,-259.56 43.16,-250.95"/>
<polygon fill="#63b8ff" stroke="#63b8ff" points="46.29,-252.54 47.2,-241.99 39.9,-249.67 46.29,-252.54"/>
</a>
</g>
</g>
<!-- Node29&#45;&gt;Node9 -->
<g id="edge42_Node000029_Node000009" class="edge">
<title>Node29&#45;&gt;Node9</title>
<g id="a_edge42_Node000029_Node000009"><a xlink:title=" ">
<path fill="none" stroke="#63b8ff" d="M831.86,-441.77C840.09,-433.25 852.14,-419.66 859.88,-406 902.8,-330.16 860.18,-279.39 924.88,-221 945.3,-202.57 1017.22,-189.3 1065.41,-182.23"/>
<polygon fill="#63b8ff" stroke="#63b8ff" points="1065.6,-185.74 1075.01,-180.87 1064.61,-178.81 1065.6,-185.74"/>
</a>
</g>
</g>
<!-- Node30 -->
<g id="Node000030" class="node">
<title>Node30</title>
<g id="a_Node000030"><a xlink:href="_option_types_8h.html" target="_top" xlink:title=" ">
<polygon fill="white" stroke="#666666" points="986.38,-350.75 907.38,-350.75 907.38,-331.5 986.38,-331.5 986.38,-350.75"/>
<text text-anchor="middle" x="946.88" y="-337.25" font-family="Helvetica,sans-Serif" font-size="10.00">OptionTypes.h</text>
</a>
</g>
</g>
<!-- Node29&#45;&gt;Node30 -->
<g id="edge39_Node000029_Node000030" class="edge">
<title>Node29&#45;&gt;Node30</title>
<g id="a_edge39_Node000029_Node000030"><a xlink:title=" ">
<path fill="none" stroke="#63b8ff" d="M839.98,-441.65C854.8,-433.45 876.38,-420.42 892.88,-406 908.56,-392.29 923.62,-373.89 933.83,-360.36"/>
<polygon fill="#63b8ff" stroke="#63b8ff" points="936.63,-362.47 939.73,-352.34 930.99,-358.33 936.63,-362.47"/>
</a>
</g>
</g>
<!-- Node31 -->
<g id="Node000031" class="node">
<title>Node31</title>
<g id="a_Node000031"><a xlink:href="_defaults_8h.html" target="_top" xlink:title=" ">
<polygon fill="white" stroke="#666666" points="777.38,-406 716.38,-406 716.38,-386.75 777.38,-386.75 777.38,-406"/>
<text text-anchor="middle" x="746.88" y="-392.5" font-family="Helvetica,sans-Serif" font-size="10.00">Defaults.h</text>
</a>
</g>
</g>
<!-- Node29&#45;&gt;Node31 -->
<g id="edge43_Node000029_Node000031" class="edge">
<title>Node29&#45;&gt;Node31</title>
<g id="a_edge43_Node000029_Node000031"><a xlink:title=" ">
<path fill="none" stroke="#63b8ff" d="M809.98,-441.59C798.85,-433.79 782.5,-422.34 769.24,-413.04"/>
<polygon fill="#63b8ff" stroke="#63b8ff" points="771.27,-410.19 761.07,-407.32 767.25,-415.93 771.27,-410.19"/>
</a>
</g>
</g>
<!-- Node41 -->
<g id="Node000041" class="node">
<title>Node41</title>
<g id="a_Node000041"><a xlink:title=" ">
<polygon fill="#e0e0e0" stroke="#999999" points="850.75,-406 795,-406 795,-386.75 850.75,-386.75 850.75,-406"/>
<text text-anchor="middle" x="822.88" y="-392.5" font-family="Helvetica,sans-Serif" font-size="10.00">algorithm</text>
</a>
</g>
</g>
<!-- Node29&#45;&gt;Node41 -->
<g id="edge60_Node000029_Node000041" class="edge">
<title>Node29&#45;&gt;Node41</title>
<g id="a_edge60_Node000029_Node000041"><a xlink:title=" ">
<path fill="none" stroke="#63b8ff" d="M822.88,-441.83C822.88,-435.32 822.88,-426.17 822.88,-417.87"/>
<polygon fill="#63b8ff" stroke="#63b8ff" points="826.38,-417.87 822.88,-407.87 819.38,-417.87 826.38,-417.87"/>
</a>
</g>
</g>
<!-- Node30&#45;&gt;Node3 -->
<g id="edge40_Node000030_Node000003" class="edge">
<title>Node30&#45;&gt;Node3</title>
<g id="a_edge40_Node000030_Node000003"><a xlink:title=" ">
<path fill="none" stroke="#63b8ff" d="M986.55,-338.75C1084.47,-334.94 1331.46,-322.72 1355.88,-295.5 1369.19,-280.65 1358.24,-246.92 1340.88,-221 1332.89,-209.08 1320.67,-198.99 1309.5,-191.44"/>
<polygon fill="#63b8ff" stroke="#63b8ff" points="1311.68,-188.68 1301.36,-186.29 1307.93,-194.59 1311.68,-188.68"/>
</a>
</g>
</g>
<!-- Node30&#45;&gt;Node9 -->
<g id="edge41_Node000030_Node000009" class="edge">
<title>Node30&#45;&gt;Node9</title>
<g id="a_edge41_Node000030_Node000009"><a xlink:title=" ">
<path fill="none" stroke="#63b8ff" d="M942.56,-331.2C932.86,-309.69 912.09,-254.28 937.88,-221 953.37,-201 1019.4,-188.36 1065.24,-181.83"/>
<polygon fill="#63b8ff" stroke="#63b8ff" points="1065.49,-185.33 1074.92,-180.51 1064.54,-178.4 1065.49,-185.33"/>
</a>
</g>
</g>
<!-- Node31&#45;&gt;Node15 -->
<g id="edge44_Node000031_Node000015" class="edge">
<title>Node31&#45;&gt;Node15</title>
<g id="a_edge44_Node000031_Node000015"><a xlink:title=" ">
<path fill="none" stroke="#63b8ff" d="M746.21,-386.58C745.72,-379.99 745.02,-370.71 744.39,-362.32"/>
<polygon fill="#63b8ff" stroke="#63b8ff" points="747.9,-362.33 743.66,-352.62 740.92,-362.85 747.9,-362.33"/>
</a>
</g>
</g>
<!-- Node31&#45;&gt;Node23 -->
<g id="edge46_Node000031_Node000023" class="edge">
<title>Node31&#45;&gt;Node23</title>
<g id="a_edge46_Node000031_Node000023"><a xlink:title=" ">
<path fill="none" stroke="#63b8ff" d="M716.25,-392.81C614.75,-384.29 288.68,-356.95 162.45,-346.37"/>
<polygon fill="#63b8ff" stroke="#63b8ff" points="162.99,-342.9 152.73,-345.55 162.41,-349.87 162.99,-342.9"/>
</a>
</g>
</g>
<!-- Node31&#45;&gt;Node30 -->
<g id="edge45_Node000031_Node000030" class="edge">
<title>Node31&#45;&gt;Node30</title>
<g id="a_edge45_Node000031_Node000030"><a xlink:title=" ">
<path fill="none" stroke="#63b8ff" d="M777.69,-387.17C810.9,-378.33 864.07,-364.17 901.94,-354.09"/>
<polygon fill="#63b8ff" stroke="#63b8ff" points="902.45,-357.58 911.21,-351.62 900.65,-350.81 902.45,-357.58"/>
</a>
</g>
</g>
<!-- Node32 -->
<g id="Node000032" class="node">
<title>Node32</title>
<g id="a_Node000032"><a xlink:href="_i_o_utils_8h.html" target="_top" xlink:title=" ">
<polygon fill="white" stroke="#666666" points="484.38,-295.5 429.38,-295.5 429.38,-276.25 484.38,-276.25 484.38,-295.5"/>
<text text-anchor="middle" x="456.88" y="-282" font-family="Helvetica,sans-Serif" font-size="10.00">IOUtils.h</text>
</a>
</g>
</g>
<!-- Node31&#45;&gt;Node32 -->
<g id="edge47_Node000031_Node000032" class="edge">
<title>Node31&#45;&gt;Node32</title>
<g id="a_edge47_Node000031_Node000032"><a xlink:title=" ">
<path fill="none" stroke="#63b8ff" d="M722.65,-386.31C671.37,-367.12 551.67,-322.34 491.99,-300.01"/>
<polygon fill="#63b8ff" stroke="#63b8ff" points="493.25,-296.75 482.65,-296.52 490.79,-303.3 493.25,-296.75"/>
</a>
</g>
</g>
<!-- Node32&#45;&gt;Node5 -->
<g id="edge48_Node000032_Node000005" class="edge">
<title>Node32&#45;&gt;Node5</title>
<g id="a_edge48_Node000032_Node000005"><a xlink:title=" ">
<path fill="none" stroke="#63b8ff" d="M429.09,-283.33C367.07,-279.43 219.62,-267.48 178.88,-240.25 154.9,-224.23 152.73,-212.74 144.88,-185 123.24,-108.57 249.91,-79.82 315.03,-70.19"/>
<polygon fill="#63b8ff" stroke="#63b8ff" points="315.51,-73.66 324.93,-68.81 314.54,-66.72 315.51,-73.66"/>
</a>
</g>
</g>
<!-- Node32&#45;&gt;Node21 -->
<g id="edge56_Node000032_Node000021" class="edge">
<title>Node32&#45;&gt;Node21</title>
<g id="a_edge56_Node000032_Node000021"><a xlink:title=" ">
<path fill="none" stroke="#63b8ff" d="M484.76,-280.36C528.69,-273.15 616.94,-258.19 701.67,-240.61"/>
<polygon fill="#63b8ff" stroke="#63b8ff" points="702.23,-244.07 711.3,-238.6 700.8,-237.22 702.23,-244.07"/>
</a>
</g>
</g>
<!-- Node33 -->
<g id="Node000033" class="node">
<title>Node33</title>
<g id="a_Node000033"><a xlink:href="_string_utils_8h.html" target="_top" xlink:title=" ">
<polygon fill="white" stroke="#666666" points="273.88,-240.25 203.88,-240.25 203.88,-221 273.88,-221 273.88,-240.25"/>
<text text-anchor="middle" x="238.88" y="-226.75" font-family="Helvetica,sans-Serif" font-size="10.00">StringUtils.h</text>
</a>
</g>
</g>
<!-- Node32&#45;&gt;Node33 -->
<g id="edge49_Node000032_Node000033" class="edge">
<title>Node32&#45;&gt;Node33</title>
<g id="a_edge49_Node000032_Node000033"><a xlink:title=" ">
<path fill="none" stroke="#63b8ff" d="M429.27,-278.13C393.01,-269.27 328.84,-253.6 285.11,-242.92"/>
<polygon fill="#63b8ff" stroke="#63b8ff" points="286.2,-239.58 275.66,-240.61 284.54,-246.38 286.2,-239.58"/>
</a>
</g>
</g>
<!-- Node32&#45;&gt;Node34 -->
<g id="edge59_Node000032_Node000034" class="edge">
<title>Node32&#45;&gt;Node34</title>
<g id="a_edge59_Node000032_Node000034"><a xlink:title=" ">
<path fill="none" stroke="#63b8ff" d="M429.26,-283.77C369.19,-280.83 229.32,-270.78 194.88,-240.25 182.55,-229.33 178.06,-210.81 176.5,-196.52"/>
<polygon fill="#63b8ff" stroke="#63b8ff" points="180.01,-196.6 175.86,-186.85 173.03,-197.06 180.01,-196.6"/>
</a>
</g>
</g>
<!-- Node35 -->
<g id="Node000035" class="node">
<title>Node35</title>
<g id="a_Node000035"><a xlink:title=" ">
<polygon fill="#e0e0e0" stroke="#999999" points="335.38,-240.25 292.38,-240.25 292.38,-221 335.38,-221 335.38,-240.25"/>
<text text-anchor="middle" x="313.88" y="-226.75" font-family="Helvetica,sans-Serif" font-size="10.00">fcntl.h</text>
</a>
</g>
</g>
<!-- Node32&#45;&gt;Node35 -->
<g id="edge52_Node000032_Node000035" class="edge">
<title>Node32&#45;&gt;Node35</title>
<g id="a_edge52_Node000032_Node000035"><a xlink:title=" ">
<path fill="none" stroke="#63b8ff" d="M432.62,-275.84C408.77,-266.96 372.24,-253.36 345.99,-243.58"/>
<polygon fill="#63b8ff" stroke="#63b8ff" points="347.45,-240.39 336.86,-240.18 345.01,-246.95 347.45,-240.39"/>
</a>
</g>
</g>
<!-- Node36 -->
<g id="Node000036" class="node">
<title>Node36</title>
<g id="a_Node000036"><a xlink:title=" ">
<polygon fill="#e0e0e0" stroke="#999999" points="414.38,-240.25 353.38,-240.25 353.38,-221 414.38,-221 414.38,-240.25"/>
<text text-anchor="middle" x="383.88" y="-226.75" font-family="Helvetica,sans-Serif" font-size="10.00">filesystem</text>
</a>
</g>
</g>
<!-- Node32&#45;&gt;Node36 -->
<g id="edge53_Node000032_Node000036" class="edge">
<title>Node32&#45;&gt;Node36</title>
<g id="a_edge53_Node000032_Node000036"><a xlink:title=" ">
<path fill="none" stroke="#63b8ff" d="M444.49,-275.84C433.73,-267.99 417.9,-256.45 405.12,-247.12"/>
<polygon fill="#63b8ff" stroke="#63b8ff" points="407.44,-244.48 397.3,-241.42 403.31,-250.14 407.44,-244.48"/>
</a>
</g>
</g>
<!-- Node37 -->
<g id="Node000037" class="node">
<title>Node37</title>
<g id="a_Node000037"><a xlink:title=" ">
<polygon fill="#e0e0e0" stroke="#999999" points="481.38,-240.25 432.38,-240.25 432.38,-221 481.38,-221 481.38,-240.25"/>
<text text-anchor="middle" x="456.88" y="-226.75" font-family="Helvetica,sans-Serif" font-size="10.00">fstream</text>
</a>
</g>
</g>
<!-- Node32&#45;&gt;Node37 -->
<g id="edge54_Node000032_Node000037" class="edge">
<title>Node32&#45;&gt;Node37</title>
<g id="a_edge54_Node000032_Node000037"><a xlink:title=" ">
<path fill="none" stroke="#63b8ff" d="M456.88,-276.08C456.88,-269.57 456.88,-260.42 456.88,-252.12"/>
<polygon fill="#63b8ff" stroke="#63b8ff" points="460.38,-252.12 456.88,-242.12 453.38,-252.12 460.38,-252.12"/>
</a>
</g>
</g>
<!-- Node38 -->
<g id="Node000038" class="node">
<title>Node38</title>
<g id="a_Node000038"><a xlink:title=" ">
<polygon fill="#e0e0e0" stroke="#999999" points="548,-240.25 499.75,-240.25 499.75,-221 548,-221 548,-240.25"/>
<text text-anchor="middle" x="523.88" y="-226.75" font-family="Helvetica,sans-Serif" font-size="10.00">istream</text>
</a>
</g>
</g>
<!-- Node32&#45;&gt;Node38 -->
<g id="edge55_Node000032_Node000038" class="edge">
<title>Node32&#45;&gt;Node38</title>
<g id="a_edge55_Node000032_Node000038"><a xlink:title=" ">
<path fill="none" stroke="#63b8ff" d="M468.24,-275.84C477.92,-268.15 492.07,-256.9 503.68,-247.68"/>
<polygon fill="#63b8ff" stroke="#63b8ff" points="505.84,-250.43 511.49,-241.47 501.49,-244.95 505.84,-250.43"/>
</a>
</g>
</g>
<!-- Node39 -->
<g id="Node000039" class="node">
<title>Node39</title>
<g id="a_Node000039"><a xlink:title=" ">
<polygon fill="#e0e0e0" stroke="#999999" points="617.5,-240.25 566.25,-240.25 566.25,-221 617.5,-221 617.5,-240.25"/>
<text text-anchor="middle" x="591.88" y="-226.75" font-family="Helvetica,sans-Serif" font-size="10.00">sstream</text>
</a>
</g>
</g>
<!-- Node32&#45;&gt;Node39 -->
<g id="edge57_Node000032_Node000039" class="edge">
<title>Node32&#45;&gt;Node39</title>
<g id="a_edge57_Node000032_Node000039"><a xlink:title=" ">
<path fill="none" stroke="#63b8ff" d="M479.78,-275.84C501.3,-267.35 533.79,-254.54 558.25,-244.89"/>
<polygon fill="#63b8ff" stroke="#63b8ff" points="559.44,-248.18 567.45,-241.26 556.87,-241.67 559.44,-248.18"/>
</a>
</g>
</g>
<!-- Node40 -->
<g id="Node000040" class="node">
<title>Node40</title>
<g id="a_Node000040"><a xlink:title=" ">
<polygon fill="#e0e0e0" stroke="#999999" points="694.62,-240.25 635.12,-240.25 635.12,-221 694.62,-221 694.62,-240.25"/>
<text text-anchor="middle" x="664.88" y="-226.75" font-family="Helvetica,sans-Serif" font-size="10.00">sys/stat.h</text>
</a>
</g>
</g>
<!-- Node32&#45;&gt;Node40 -->
<g id="edge58_Node000032_Node000040" class="edge">
<title>Node32&#45;&gt;Node40</title>
<g id="a_edge58_Node000032_Node000040"><a xlink:title=" ">
<path fill="none" stroke="#63b8ff" d="M484.5,-277.8C520.15,-268.68 582.51,-252.71 623.75,-242.15"/>
<polygon fill="#63b8ff" stroke="#63b8ff" points="624.49,-245.58 633.31,-239.71 622.76,-238.79 624.49,-245.58"/>
</a>
</g>
</g>
<!-- Node33&#45;&gt;Node5 -->
<g id="edge50_Node000033_Node000005" class="edge">
<title>Node33&#45;&gt;Node5</title>
<g id="a_edge50_Node000033_Node000005"><a xlink:title=" ">
<path fill="none" stroke="#63b8ff" d="M244.95,-220.82C262.81,-194.94 315.39,-118.75 339.52,-83.78"/>
<polygon fill="#63b8ff" stroke="#63b8ff" points="342.11,-86.19 344.91,-75.97 336.35,-82.21 342.11,-86.19"/>
</a>
</g>
</g>
<!-- Node33&#45;&gt;Node34 -->
<g id="edge51_Node000033_Node000034" class="edge">
<title>Node33&#45;&gt;Node34</title>
<g id="a_edge51_Node000033_Node000034"><a xlink:title=" ">
<path fill="none" stroke="#63b8ff" d="M228.19,-220.59C219.17,-212.97 206.04,-201.87 195.19,-192.7"/>
<polygon fill="#63b8ff" stroke="#63b8ff" points="197.46,-190.03 187.56,-186.25 192.94,-195.38 197.46,-190.03"/>
</a>
</g>
</g>
<!-- Node43 -->
<g id="Node000043" class="node">
<title>Node43</title>
<g id="a_Node000043"><a xlink:title=" ">
<polygon fill="#e0e0e0" stroke="#999999" points="1099,-406 1056.75,-406 1056.75,-386.75 1099,-386.75 1099,-406"/>
<text text-anchor="middle" x="1077.88" y="-392.5" font-family="Helvetica,sans-Serif" font-size="10.00">cstdio</text>
</a>
</g>
</g>
<!-- Node42&#45;&gt;Node43 -->
<g id="edge63_Node000042_Node000043" class="edge">
<title>Node42&#45;&gt;Node43</title>
<g id="a_edge63_Node000042_Node000043"><a xlink:title=" ">
<path fill="none" stroke="#63b8ff" d="M1077.88,-441.83C1077.88,-435.32 1077.88,-426.17 1077.88,-417.87"/>
<polygon fill="#63b8ff" stroke="#63b8ff" points="1081.38,-417.87 1077.88,-407.87 1074.38,-417.87 1081.38,-417.87"/>
</a>
</g>
</g>
<!-- Node44&#45;&gt;Node3 -->
<g id="edge67_Node000044_Node000003" class="edge">
<title>Node44&#45;&gt;Node3</title>
<g id="a_edge67_Node000044_Node000003"><a xlink:title=" ">
<path fill="none" stroke="#63b8ff" d="M1419.05,-220.59C1392.31,-211.91 1351.66,-198.71 1321.73,-188.99"/>
<polygon fill="#63b8ff" stroke="#63b8ff" points="1322.86,-185.68 1312.27,-185.92 1320.7,-192.34 1322.86,-185.68"/>
</a>
</g>
</g>
<!-- Node44&#45;&gt;Node9 -->
<g id="edge68_Node000044_Node000009" class="edge">
<title>Node44&#45;&gt;Node9</title>
<g id="a_edge68_Node000044_Node000009"><a xlink:title=" ">
<path fill="none" stroke="#63b8ff" d="M1410.28,-223.82C1348.54,-214.04 1223.84,-194.28 1156.5,-183.61"/>
<polygon fill="#63b8ff" stroke="#63b8ff" points="1157.33,-180.19 1146.91,-182.09 1156.23,-187.11 1157.33,-180.19"/>
</a>
</g>
</g>
<!-- Node45 -->
<g id="Node000045" class="node">
<title>Node45</title>
<g id="a_Node000045"><a xlink:href="_peddle_types_8h.html" target="_top" xlink:title=" ">
<polygon fill="white" stroke="#666666" points="1338.12,-129.75 1257.62,-129.75 1257.62,-110.5 1338.12,-110.5 1338.12,-129.75"/>
<text text-anchor="middle" x="1297.88" y="-116.25" font-family="Helvetica,sans-Serif" font-size="10.00">PeddleTypes.h</text>
</a>
</g>
</g>
<!-- Node44&#45;&gt;Node45 -->
<g id="edge69_Node000044_Node000045" class="edge">
<title>Node44&#45;&gt;Node45</title>
<g id="a_edge69_Node000044_Node000045"><a xlink:title=" ">
<path fill="none" stroke="#63b8ff" d="M1434.43,-220.56C1409.06,-202.09 1351.09,-159.88 1319.45,-136.84"/>
<polygon fill="#63b8ff" stroke="#63b8ff" points="1321.55,-134.04 1311.41,-130.98 1317.43,-139.69 1321.55,-134.04"/>
</a>
</g>
</g>
<!-- Node45&#45;&gt;Node5 -->
<g id="edge70_Node000045_Node000005" class="edge">
<title>Node45&#45;&gt;Node5</title>
<g id="a_edge70_Node000045_Node000005"><a xlink:title=" ">
<path fill="none" stroke="#63b8ff" d="M1257.23,-116.84C1100.73,-108.03 538.46,-76.38 388.73,-67.95"/>
<polygon fill="#63b8ff" stroke="#63b8ff" points="389.18,-64.47 379,-67.4 388.78,-71.46 389.18,-64.47"/>
</a>
</g>
</g>
<!-- Node46&#45;&gt;Node3 -->
<g id="edge72_Node000046_Node000003" class="edge">
<title>Node46&#45;&gt;Node3</title>
<g id="a_edge72_Node000046_Node000003"><a xlink:title=" ">
<path fill="none" stroke="#63b8ff" d="M1512.74,-496.87C1512.46,-478.28 1511.88,-434.3 1511.88,-397.38 1511.88,-397.38 1511.88,-397.38 1511.88,-284.88 1511.88,-255.13 1513.87,-241.03 1491.88,-221 1467.47,-198.77 1376.01,-185.88 1322.51,-180.09"/>
<polygon fill="#63b8ff" stroke="#63b8ff" points="1323.2,-176.64 1312.89,-179.09 1322.48,-183.61 1323.2,-176.64"/>
</a>
</g>
</g>
</g>
</svg>
