<?xml version="1.0" encoding="UTF-8" standalone="no"?>
<!DOCTYPE svg PUBLIC "-//W3C//DTD SVG 1.1//EN"
 "http://www.w3.org/Graphics/SVG/1.1/DTD/svg11.dtd">
<!-- Generated by graphviz version 10.0.1 (20240210.2158)
 -->
<!-- Title: /Users/hoff/Retro/virtualc64/Emulator/Peripherals/Drive/DriveTypes.h Pages: 1 -->
<svg width="427pt" height="538pt"
 viewBox="0.00 0.00 427.00 537.75" xmlns="http://www.w3.org/2000/svg" xmlns:xlink="http://www.w3.org/1999/xlink">
<g id="graph0" class="graph" transform="scale(1 1) rotate(0) translate(4 533.75)">
<title>/Users/hoff/Retro/virtualc64/Emulator/Peripherals/Drive/DriveTypes.h</title>
<!-- Node1 -->
<g id="Node000001" class="node">
<title>Node1</title>
<g id="a_Node000001"><a xlink:title=" ">
<polygon fill="#999999" stroke="#666666" points="280.75,-529.75 144,-529.75 144,-488 280.75,-488 280.75,-529.75"/>
<text text-anchor="start" x="152" y="-516.25" font-family="Helvetica,sans-Serif" font-size="10.00">/Users/hoff/Retro/virtualc64</text>
<text text-anchor="start" x="152" y="-505" font-family="Helvetica,sans-Serif" font-size="10.00">/Emulator/Peripherals/Drive</text>
<text text-anchor="middle" x="212.38" y="-493.75" font-family="Helvetica,sans-Serif" font-size="10.00">/DriveTypes.h</text>
</a>
</g>
</g>
<!-- Node2 -->
<g id="Node000002" class="node">
<title>Node2</title>
<g id="a_Node000002"><a xlink:href="_drive_8h_source.html" target="_top" xlink:title=" ">
<polygon fill="white" stroke="#666666" points="136.75,-374.25 0,-374.25 0,-332.5 136.75,-332.5 136.75,-374.25"/>
<text text-anchor="start" x="8" y="-360.75" font-family="Helvetica,sans-Serif" font-size="10.00">/Users/hoff/Retro/virtualc64</text>
<text text-anchor="start" x="8" y="-349.5" font-family="Helvetica,sans-Serif" font-size="10.00">/Emulator/Peripherals/Drive</text>
<text text-anchor="middle" x="68.38" y="-338.25" font-family="Helvetica,sans-Serif" font-size="10.00">/Drive.h</text>
</a>
</g>
</g>
<!-- Node1&#45;&gt;Node2 -->
<g id="edge1_Node000001_Node000002" class="edge">
<title>Node1&#45;&gt;Node2</title>
<g id="a_edge1_Node000001_Node000002"><a xlink:title=" ">
<path fill="none" stroke="#63b8ff" d="M133.3,-486.15C115.95,-478 99.24,-466.94 87.38,-452 69.76,-429.83 66.92,-396 67.15,-374.55"/>
<polygon fill="#63b8ff" stroke="#63b8ff" points="131.61,-489.23 142.17,-490.01 134.4,-482.81 131.61,-489.23"/>
</a>
</g>
</g>
<!-- Node8 -->
<g id="Node000008" class="node">
<title>Node8</title>
<g id="a_Node000008"><a xlink:href="_drive_memory_8h_source.html" target="_top" xlink:title=" ">
<polygon fill="white" stroke="#666666" points="232.75,-452 96,-452 96,-410.25 232.75,-410.25 232.75,-452"/>
<text text-anchor="start" x="104" y="-438.5" font-family="Helvetica,sans-Serif" font-size="10.00">/Users/hoff/Retro/virtualc64</text>
<text text-anchor="start" x="104" y="-427.25" font-family="Helvetica,sans-Serif" font-size="10.00">/Emulator/Peripherals/Drive</text>
<text text-anchor="middle" x="164.38" y="-416" font-family="Helvetica,sans-Serif" font-size="10.00">/DriveMemory.h</text>
</a>
</g>
</g>
<!-- Node1&#45;&gt;Node8 -->
<g id="edge7_Node000001_Node000008" class="edge">
<title>Node1&#45;&gt;Node8</title>
<g id="a_edge7_Node000001_Node000008"><a xlink:title=" ">
<path fill="none" stroke="#63b8ff" d="M193.4,-477.93C187.99,-469.39 182.23,-460.3 177.27,-452.48"/>
<polygon fill="#63b8ff" stroke="#63b8ff" points="190.39,-479.72 198.7,-486.3 196.31,-475.98 190.39,-479.72"/>
</a>
</g>
</g>
<!-- Node9 -->
<g id="Node000009" class="node">
<title>Node9</title>
<g id="a_Node000009"><a xlink:href="_par_cable_8h_source.html" target="_top" xlink:title=" ">
<polygon fill="white" stroke="#666666" points="328.75,-374.25 192,-374.25 192,-332.5 328.75,-332.5 328.75,-374.25"/>
<text text-anchor="start" x="200" y="-360.75" font-family="Helvetica,sans-Serif" font-size="10.00">/Users/hoff/Retro/virtualc64</text>
<text text-anchor="start" x="200" y="-349.5" font-family="Helvetica,sans-Serif" font-size="10.00">/Emulator/Peripherals/Drive</text>
<text text-anchor="middle" x="260.38" y="-338.25" font-family="Helvetica,sans-Serif" font-size="10.00">/ParCable.h</text>
</a>
</g>
</g>
<!-- Node1&#45;&gt;Node9 -->
<g id="edge10_Node000001_Node000009" class="edge">
<title>Node1&#45;&gt;Node9</title>
<g id="a_edge10_Node000001_Node000009"><a xlink:title=" ">
<path fill="none" stroke="#63b8ff" d="M230.15,-477.47C234.32,-469.4 238.4,-460.54 241.38,-452 250.41,-426.08 255.55,-394.7 258.15,-374.64"/>
<polygon fill="#63b8ff" stroke="#63b8ff" points="227.1,-475.75 225.44,-486.21 233.27,-479.07 227.1,-475.75"/>
</a>
</g>
</g>
<!-- Node10 -->
<g id="Node000010" class="node">
<title>Node10</title>
<g id="a_Node000010"><a xlink:href="_virtual_c64_types_8h.html" target="_top" xlink:title=" ">
<polygon fill="white" stroke="#666666" points="419,-296.5 277.75,-296.5 277.75,-266 419,-266 419,-296.5"/>
<text text-anchor="start" x="285.75" y="-283" font-family="Helvetica,sans-Serif" font-size="10.00">/Users/hoff/Retro/virtualc64</text>
<text text-anchor="middle" x="348.38" y="-271.75" font-family="Helvetica,sans-Serif" font-size="10.00">/Emulator/VirtualC64Types.h</text>
</a>
</g>
</g>
<!-- Node1&#45;&gt;Node10 -->
<g id="edge12_Node000001_Node000010" class="edge">
<title>Node1&#45;&gt;Node10</title>
<g id="a_edge12_Node000001_Node000010"><a xlink:title=" ">
<path fill="none" stroke="#63b8ff" d="M248.32,-480.55C277.58,-456.13 317.21,-417.58 337.38,-374.25 349.18,-348.87 350.02,-315.49 349.35,-296.71"/>
<polygon fill="#63b8ff" stroke="#63b8ff" points="246.32,-477.67 240.78,-486.71 250.74,-483.1 246.32,-477.67"/>
</a>
</g>
</g>
<!-- Node3 -->
<g id="Node000003" class="node">
<title>Node3</title>
<g id="a_Node000003"><a xlink:href="_c64_8h_source.html" target="_top" xlink:title=" ">
<polygon fill="white" stroke="#666666" points="252.25,-296.5 106.5,-296.5 106.5,-266 252.25,-266 252.25,-296.5"/>
<text text-anchor="start" x="114.5" y="-283" font-family="Helvetica,sans-Serif" font-size="10.00">/Users/hoff/Retro/virtualc64</text>
<text text-anchor="middle" x="179.38" y="-271.75" font-family="Helvetica,sans-Serif" font-size="10.00">/Emulator/Components/C64.h</text>
</a>
</g>
</g>
<!-- Node2&#45;&gt;Node3 -->
<g id="edge2_Node000002_Node000003" class="edge">
<title>Node2&#45;&gt;Node3</title>
<g id="a_edge2_Node000002_Node000003"><a xlink:title=" ">
<path fill="none" stroke="#63b8ff" d="M109.96,-326.1C125.59,-316.23 142.78,-305.37 156.15,-296.92"/>
<polygon fill="#63b8ff" stroke="#63b8ff" points="108.35,-322.98 101.76,-331.28 112.08,-328.9 108.35,-322.98"/>
</a>
</g>
</g>
<!-- Node4 -->
<g id="Node000004" class="node">
<title>Node4</title>
<g id="a_Node000004"><a xlink:href="_emulator_8h_source.html" target="_top" xlink:title=" ">
<polygon fill="white" stroke="#666666" points="287.38,-230 121.38,-230 121.38,-199.5 287.38,-199.5 287.38,-230"/>
<text text-anchor="start" x="129.38" y="-216.5" font-family="Helvetica,sans-Serif" font-size="10.00">/Users/hoff/Retro/virtualc64</text>
<text text-anchor="middle" x="204.38" y="-205.25" font-family="Helvetica,sans-Serif" font-size="10.00">/Emulator/Components/Emulator.h</text>
</a>
</g>
</g>
<!-- Node3&#45;&gt;Node4 -->
<g id="edge3_Node000003_Node000004" class="edge">
<title>Node3&#45;&gt;Node4</title>
<g id="a_edge3_Node000003_Node000004"><a xlink:title=" ">
<path fill="none" stroke="#63b8ff" d="M189.1,-255.16C192.36,-246.75 195.88,-237.66 198.72,-230.33"/>
<polygon fill="#63b8ff" stroke="#63b8ff" points="185.95,-253.61 185.59,-264.2 192.47,-256.14 185.95,-253.61"/>
</a>
</g>
</g>
<!-- Node5 -->
<g id="Node000005" class="node">
<title>Node5</title>
<g id="a_Node000005"><a xlink:href="_virtual_c64_8h.html" target="_top" xlink:title=" ">
<polygon fill="white" stroke="#666666" points="327.75,-163.5 191,-163.5 191,-133 327.75,-133 327.75,-163.5"/>
<text text-anchor="start" x="199" y="-150" font-family="Helvetica,sans-Serif" font-size="10.00">/Users/hoff/Retro/virtualc64</text>
<text text-anchor="middle" x="259.38" y="-138.75" font-family="Helvetica,sans-Serif" font-size="10.00">/Emulator/VirtualC64.h</text>
</a>
</g>
</g>
<!-- Node4&#45;&gt;Node5 -->
<g id="edge4_Node000004_Node000005" class="edge">
<title>Node4&#45;&gt;Node5</title>
<g id="a_edge4_Node000004_Node000005"><a xlink:title=" ">
<path fill="none" stroke="#63b8ff" d="M224.09,-190.63C231.71,-181.69 240.2,-171.74 246.94,-163.83"/>
<polygon fill="#63b8ff" stroke="#63b8ff" points="221.66,-188.08 217.84,-197.96 226.99,-192.62 221.66,-188.08"/>
</a>
</g>
</g>
<!-- Node6 -->
<g id="Node000006" class="node">
<title>Node6</title>
<g id="a_Node000006"><a xlink:href="_headless_8h_source.html" target="_top" xlink:title=" ">
<polygon fill="white" stroke="#666666" points="327.75,-97 191,-97 191,-66.5 327.75,-66.5 327.75,-97"/>
<text text-anchor="start" x="199" y="-83.5" font-family="Helvetica,sans-Serif" font-size="10.00">/Users/hoff/Retro/virtualc64</text>
<text text-anchor="middle" x="259.38" y="-72.25" font-family="Helvetica,sans-Serif" font-size="10.00">/Emulator/Headless.h</text>
</a>
</g>
</g>
<!-- Node5&#45;&gt;Node6 -->
<g id="edge5_Node000005_Node000006" class="edge">
<title>Node5&#45;&gt;Node6</title>
<g id="a_edge5_Node000005_Node000006"><a xlink:title=" ">
<path fill="none" stroke="#63b8ff" d="M259.38,-121.31C259.38,-113.14 259.38,-104.41 259.38,-97.33"/>
<polygon fill="#63b8ff" stroke="#63b8ff" points="255.88,-121.1 259.38,-131.1 262.88,-121.1 255.88,-121.1"/>
</a>
</g>
</g>
<!-- Node7 -->
<g id="Node000007" class="node">
<title>Node7</title>
<g id="a_Node000007"><a xlink:href="_headless_8cpp.html" target="_top" xlink:title=" ">
<polygon fill="white" stroke="#666666" points="327.75,-30.5 191,-30.5 191,0 327.75,0 327.75,-30.5"/>
<text text-anchor="start" x="199" y="-17" font-family="Helvetica,sans-Serif" font-size="10.00">/Users/hoff/Retro/virtualc64</text>
<text text-anchor="middle" x="259.38" y="-5.75" font-family="Helvetica,sans-Serif" font-size="10.00">/Emulator/Headless.cpp</text>
</a>
</g>
</g>
<!-- Node6&#45;&gt;Node7 -->
<g id="edge6_Node000006_Node000007" class="edge">
<title>Node6&#45;&gt;Node7</title>
<g id="a_edge6_Node000006_Node000007"><a xlink:title=" ">
<path fill="none" stroke="#63b8ff" d="M259.38,-54.81C259.38,-46.64 259.38,-37.91 259.38,-30.83"/>
<polygon fill="#63b8ff" stroke="#63b8ff" points="255.88,-54.6 259.38,-64.6 262.88,-54.6 255.88,-54.6"/>
</a>
</g>
</g>
<!-- Node8&#45;&gt;Node2 -->
<g id="edge9_Node000008_Node000002" class="edge">
<title>Node8&#45;&gt;Node2</title>
<g id="a_edge9_Node000008_Node000002"><a xlink:title=" ">
<path fill="none" stroke="#63b8ff" d="M129.92,-402.94C118.13,-393.64 105.16,-383.4 94.17,-374.73"/>
<polygon fill="#63b8ff" stroke="#63b8ff" points="127.44,-405.44 137.46,-408.89 131.78,-399.95 127.44,-405.44"/>
</a>
</g>
</g>
<!-- Node8&#45;&gt;Node3 -->
<g id="edge8_Node000008_Node000003" class="edge">
<title>Node8&#45;&gt;Node3</title>
<g id="a_edge8_Node000008_Node000003"><a xlink:title=" ">
<path fill="none" stroke="#63b8ff" d="M167.56,-398.69C170.75,-367.31 175.5,-320.48 177.89,-296.91"/>
<polygon fill="#63b8ff" stroke="#63b8ff" points="164.11,-398.07 166.58,-408.37 171.07,-398.77 164.11,-398.07"/>
</a>
</g>
</g>
<!-- Node9&#45;&gt;Node3 -->
<g id="edge11_Node000009_Node000003" class="edge">
<title>Node9&#45;&gt;Node3</title>
<g id="a_edge11_Node000009_Node000003"><a xlink:title=" ">
<path fill="none" stroke="#63b8ff" d="M228.41,-324.7C217.45,-315.21 205.62,-304.97 196.32,-296.92"/>
<polygon fill="#63b8ff" stroke="#63b8ff" points="225.95,-327.2 235.8,-331.1 230.53,-321.91 225.95,-327.2"/>
</a>
</g>
</g>
<!-- Node10&#45;&gt;Node5 -->
<g id="edge13_Node000010_Node000005" class="edge">
<title>Node10&#45;&gt;Node5</title>
<g id="a_edge13_Node000010_Node000005"><a xlink:title=" ">
<path fill="none" stroke="#63b8ff" d="M333.33,-256.03C323.15,-239.85 309.26,-218.2 296.38,-199.5 287.89,-187.19 277.8,-173.55 270.3,-163.59"/>
<polygon fill="#63b8ff" stroke="#63b8ff" points="330.36,-257.88 338.63,-264.49 336.29,-254.16 330.36,-257.88"/>
</a>
</g>
</g>
</g>
</svg>
