<?xml version="1.0" encoding="UTF-8" standalone="no"?>
<!DOCTYPE svg PUBLIC "-//W3C//DTD SVG 1.1//EN"
 "http://www.w3.org/Graphics/SVG/1.1/DTD/svg11.dtd">
<!-- Generated by graphviz version 10.0.1 (20240210.2158)
 -->
<!-- Title: /Users/hoff/Retro/virtualc64/Emulator/Peripherals/Drive/DriveTypes.h Pages: 1 -->
<svg width="1453pt" height="494pt"
 viewBox="0.00 0.00 1452.58 493.75" xmlns="http://www.w3.org/2000/svg" xmlns:xlink="http://www.w3.org/1999/xlink">
<g id="graph0" class="graph" transform="scale(1 1) rotate(0) translate(4 489.75)">
<title>/Users/hoff/Retro/virtualc64/Emulator/Peripherals/Drive/DriveTypes.h</title>
<!-- Node1 -->
<g id="Node000001" class="node">
<title>Node1</title>
<g id="a_Node000001"><a xlink:title=" ">
<polygon fill="#999999" stroke="#666666" points="775,-485.75 638.25,-485.75 638.25,-444 775,-444 775,-485.75"/>
<text text-anchor="start" x="646.25" y="-472.25" font-family="Helvetica,sans-Serif" font-size="10.00">/Users/hoff/Retro/virtualc64</text>
<text text-anchor="start" x="646.25" y="-461" font-family="Helvetica,sans-Serif" font-size="10.00">/Emulator/Peripherals/Drive</text>
<text text-anchor="middle" x="706.62" y="-449.75" font-family="Helvetica,sans-Serif" font-size="10.00">/DriveTypes.h</text>
</a>
</g>
</g>
<!-- Node2 -->
<g id="Node000002" class="node">
<title>Node2</title>
<g id="a_Node000002"><a xlink:href="_f_s_types_8h.html" target="_top" xlink:title=" ">
<polygon fill="white" stroke="#666666" points="846.62,-324.62 680.62,-324.62 680.62,-294.12 846.62,-294.12 846.62,-324.62"/>
<text text-anchor="start" x="688.62" y="-311.12" font-family="Helvetica,sans-Serif" font-size="10.00">/Users/hoff/Retro/virtualc64</text>
<text text-anchor="middle" x="763.62" y="-299.88" font-family="Helvetica,sans-Serif" font-size="10.00">/Emulator/FileSystems/FSTypes.h</text>
</a>
</g>
</g>
<!-- Node1&#45;&gt;Node2 -->
<g id="edge1_Node000001_Node000002" class="edge">
<title>Node1&#45;&gt;Node2</title>
<g id="a_edge1_Node000001_Node000002"><a xlink:title=" ">
<path fill="none" stroke="#63b8ff" d="M717.93,-433.43C730.12,-400.6 749.01,-349.73 758.22,-324.94"/>
<polygon fill="#63b8ff" stroke="#63b8ff" points="714.8,-431.8 714.6,-442.39 721.37,-434.23 714.8,-431.8"/>
</a>
</g>
</g>
<!-- Node10 -->
<g id="Node000010" class="node">
<title>Node10</title>
<g id="a_Node000010"><a xlink:href="_drive_8h_source.html" target="_top" xlink:title=" ">
<polygon fill="white" stroke="#666666" points="578,-174.75 441.25,-174.75 441.25,-133 578,-133 578,-174.75"/>
<text text-anchor="start" x="449.25" y="-161.25" font-family="Helvetica,sans-Serif" font-size="10.00">/Users/hoff/Retro/virtualc64</text>
<text text-anchor="start" x="449.25" y="-150" font-family="Helvetica,sans-Serif" font-size="10.00">/Emulator/Peripherals/Drive</text>
<text text-anchor="middle" x="509.62" y="-138.75" font-family="Helvetica,sans-Serif" font-size="10.00">/Drive.h</text>
</a>
</g>
</g>
<!-- Node1&#45;&gt;Node10 -->
<g id="edge32_Node000001_Node000010" class="edge">
<title>Node1&#45;&gt;Node10</title>
<g id="a_edge32_Node000001_Node000010"><a xlink:title=" ">
<path fill="none" stroke="#63b8ff" d="M674.77,-436.03C634.1,-398.57 564.68,-327.9 528.62,-252.5 516.71,-227.58 512.26,-195.67 510.61,-175.25"/>
<polygon fill="#63b8ff" stroke="#63b8ff" points="672.36,-438.57 682.12,-442.71 677.07,-433.39 672.36,-438.57"/>
</a>
</g>
</g>
<!-- Node11 -->
<g id="Node000011" class="node">
<title>Node11</title>
<g id="a_Node000011"><a xlink:href="_virtual_c64_types_8h.html" target="_top" xlink:title=" ">
<polygon fill="white" stroke="#666666" points="141.25,-246.88 0,-246.88 0,-216.38 141.25,-216.38 141.25,-246.88"/>
<text text-anchor="start" x="8" y="-233.38" font-family="Helvetica,sans-Serif" font-size="10.00">/Users/hoff/Retro/virtualc64</text>
<text text-anchor="middle" x="70.62" y="-222.12" font-family="Helvetica,sans-Serif" font-size="10.00">/Emulator/VirtualC64Types.h</text>
</a>
</g>
</g>
<!-- Node1&#45;&gt;Node11 -->
<g id="edge38_Node000001_Node000011" class="edge">
<title>Node1&#45;&gt;Node11</title>
<g id="a_edge38_Node000001_Node000011"><a xlink:title=" ">
<path fill="none" stroke="#63b8ff" d="M626.38,-459.37C542.96,-453.2 409.22,-439.1 297.62,-408 213.68,-384.61 180.49,-390.6 117.62,-330.25 93.2,-306.8 79.89,-268.06 74.13,-247.13"/>
<polygon fill="#63b8ff" stroke="#63b8ff" points="626.08,-462.86 636.3,-460.08 626.58,-455.88 626.08,-462.86"/>
</a>
</g>
</g>
<!-- Node15 -->
<g id="Node000015" class="node">
<title>Node15</title>
<g id="a_Node000015"><a xlink:href="_d64_file_8h_source.html" target="_top" xlink:title=" ">
<polygon fill="white" stroke="#666666" points="1411,-246.88 1274.25,-246.88 1274.25,-216.38 1411,-216.38 1411,-246.88"/>
<text text-anchor="start" x="1282.25" y="-233.38" font-family="Helvetica,sans-Serif" font-size="10.00">/Users/hoff/Retro/virtualc64</text>
<text text-anchor="middle" x="1342.62" y="-222.12" font-family="Helvetica,sans-Serif" font-size="10.00">/Emulator/Media/D64File.h</text>
</a>
</g>
</g>
<!-- Node1&#45;&gt;Node15 -->
<g id="edge17_Node000001_Node000015" class="edge">
<title>Node1&#45;&gt;Node15</title>
<g id="a_edge17_Node000001_Node000015"><a xlink:title=" ">
<path fill="none" stroke="#63b8ff" d="M773.24,-439.65C905.09,-391.71 1195.76,-286.03 1302.39,-247.26"/>
<polygon fill="#63b8ff" stroke="#63b8ff" points="772.13,-436.33 763.93,-443.04 774.52,-442.91 772.13,-436.33"/>
</a>
</g>
</g>
<!-- Node16 -->
<g id="Node000016" class="node">
<title>Node16</title>
<g id="a_Node000016"><a xlink:href="_g64_file_8h_source.html" target="_top" xlink:title=" ">
<polygon fill="white" stroke="#666666" points="1223,-402.38 1086.25,-402.38 1086.25,-371.88 1223,-371.88 1223,-402.38"/>
<text text-anchor="start" x="1094.25" y="-388.88" font-family="Helvetica,sans-Serif" font-size="10.00">/Users/hoff/Retro/virtualc64</text>
<text text-anchor="middle" x="1154.62" y="-377.62" font-family="Helvetica,sans-Serif" font-size="10.00">/Emulator/Media/G64File.h</text>
</a>
</g>
</g>
<!-- Node1&#45;&gt;Node16 -->
<g id="edge20_Node000001_Node000016" class="edge">
<title>Node1&#45;&gt;Node16</title>
<g id="a_edge20_Node000001_Node000016"><a xlink:title=" ">
<path fill="none" stroke="#63b8ff" d="M786.41,-452.3C857.87,-441.67 965.46,-425.03 1058.62,-408 1067.5,-406.38 1076.81,-404.58 1086,-402.74"/>
<polygon fill="#63b8ff" stroke="#63b8ff" points="786.13,-448.8 776.75,-453.73 787.16,-455.72 786.13,-448.8"/>
</a>
</g>
</g>
<!-- Node17 -->
<g id="Node000017" class="node">
<title>Node17</title>
<g id="a_Node000017"><a xlink:href="_disk_types_8h_source.html" target="_top" xlink:title=" ">
<polygon fill="white" stroke="#666666" points="443,-408 306.25,-408 306.25,-366.25 443,-366.25 443,-408"/>
<text text-anchor="start" x="314.25" y="-394.5" font-family="Helvetica,sans-Serif" font-size="10.00">/Users/hoff/Retro/virtualc64</text>
<text text-anchor="start" x="314.25" y="-383.25" font-family="Helvetica,sans-Serif" font-size="10.00">/Emulator/Peripherals/Drive</text>
<text text-anchor="middle" x="374.62" y="-372" font-family="Helvetica,sans-Serif" font-size="10.00">/DiskTypes.h</text>
</a>
</g>
</g>
<!-- Node1&#45;&gt;Node17 -->
<g id="edge22_Node000001_Node000017" class="edge">
<title>Node1&#45;&gt;Node17</title>
<g id="a_edge22_Node000001_Node000017"><a xlink:title=" ">
<path fill="none" stroke="#63b8ff" d="M626.89,-445.68C570.88,-432.9 496.72,-415.98 443.33,-403.8"/>
<polygon fill="#63b8ff" stroke="#63b8ff" points="625.83,-449.03 636.36,-447.84 627.39,-442.21 625.83,-449.03"/>
</a>
</g>
</g>
<!-- Node20 -->
<g id="Node000020" class="node">
<title>Node20</title>
<g id="a_Node000020"><a xlink:href="_drive_memory_8h_source.html" target="_top" xlink:title=" ">
<polygon fill="white" stroke="#666666" points="674,-252.5 537.25,-252.5 537.25,-210.75 674,-210.75 674,-252.5"/>
<text text-anchor="start" x="545.25" y="-239" font-family="Helvetica,sans-Serif" font-size="10.00">/Users/hoff/Retro/virtualc64</text>
<text text-anchor="start" x="545.25" y="-227.75" font-family="Helvetica,sans-Serif" font-size="10.00">/Emulator/Peripherals/Drive</text>
<text text-anchor="middle" x="605.62" y="-216.5" font-family="Helvetica,sans-Serif" font-size="10.00">/DriveMemory.h</text>
</a>
</g>
</g>
<!-- Node1&#45;&gt;Node20 -->
<g id="edge33_Node000001_Node000020" class="edge">
<title>Node1&#45;&gt;Node20</title>
<g id="a_edge33_Node000001_Node000020"><a xlink:title=" ">
<path fill="none" stroke="#63b8ff" d="M693.31,-433.39C672.35,-385.4 632.23,-293.53 614.46,-252.86"/>
<polygon fill="#63b8ff" stroke="#63b8ff" points="690.02,-434.61 697.23,-442.37 696.44,-431.81 690.02,-434.61"/>
</a>
</g>
</g>
<!-- Node21 -->
<g id="Node000021" class="node">
<title>Node21</title>
<g id="a_Node000021"><a xlink:href="_par_cable_8h_source.html" target="_top" xlink:title=" ">
<polygon fill="white" stroke="#666666" points="1347,-330.25 1210.25,-330.25 1210.25,-288.5 1347,-288.5 1347,-330.25"/>
<text text-anchor="start" x="1218.25" y="-316.75" font-family="Helvetica,sans-Serif" font-size="10.00">/Users/hoff/Retro/virtualc64</text>
<text text-anchor="start" x="1218.25" y="-305.5" font-family="Helvetica,sans-Serif" font-size="10.00">/Emulator/Peripherals/Drive</text>
<text text-anchor="middle" x="1278.62" y="-294.25" font-family="Helvetica,sans-Serif" font-size="10.00">/ParCable.h</text>
</a>
</g>
</g>
<!-- Node1&#45;&gt;Node21 -->
<g id="edge36_Node000001_Node000021" class="edge">
<title>Node1&#45;&gt;Node21</title>
<g id="a_edge36_Node000001_Node000021"><a xlink:title=" ">
<path fill="none" stroke="#63b8ff" d="M786.56,-453.85C844.49,-445.23 924.16,-430.57 991.62,-408 1031.92,-394.52 1037.88,-381.28 1077.62,-366.25 1120.82,-349.92 1170.85,-335.99 1210.19,-326.13"/>
<polygon fill="#63b8ff" stroke="#63b8ff" points="786.16,-450.37 776.77,-455.27 787.17,-457.3 786.16,-450.37"/>
</a>
</g>
</g>
<!-- Node3 -->
<g id="Node000003" class="node">
<title>Node3</title>
<g id="a_Node000003"><a xlink:href="_f_s_block_8h_source.html" target="_top" xlink:title=" ">
<polygon fill="white" stroke="#666666" points="1063.88,-246.88 899.38,-246.88 899.38,-216.38 1063.88,-216.38 1063.88,-246.88"/>
<text text-anchor="start" x="907.38" y="-233.38" font-family="Helvetica,sans-Serif" font-size="10.00">/Users/hoff/Retro/virtualc64</text>
<text text-anchor="middle" x="981.62" y="-222.12" font-family="Helvetica,sans-Serif" font-size="10.00">/Emulator/FileSystems/FSBlock.h</text>
</a>
</g>
</g>
<!-- Node2&#45;&gt;Node3 -->
<g id="edge2_Node000002_Node000003" class="edge">
<title>Node2&#45;&gt;Node3</title>
<g id="a_edge2_Node000002_Node000003"><a xlink:title=" ">
<path fill="none" stroke="#63b8ff" d="M816.71,-289.93C854.44,-276.82 904.44,-259.45 939.45,-247.28"/>
<polygon fill="#63b8ff" stroke="#63b8ff" points="815.64,-286.59 807.35,-293.18 817.94,-293.21 815.64,-286.59"/>
</a>
</g>
</g>
<!-- Node7 -->
<g id="Node000007" class="node">
<title>Node7</title>
<g id="a_Node000007"><a xlink:href="_f_s_descriptors_8h_source.html" target="_top" xlink:title=" ">
<polygon fill="white" stroke="#666666" points="881.62,-246.88 691.62,-246.88 691.62,-216.38 881.62,-216.38 881.62,-246.88"/>
<text text-anchor="start" x="699.62" y="-233.38" font-family="Helvetica,sans-Serif" font-size="10.00">/Users/hoff/Retro/virtualc64</text>
<text text-anchor="middle" x="786.62" y="-222.12" font-family="Helvetica,sans-Serif" font-size="10.00">/Emulator/FileSystems/FSDescriptors.h</text>
</a>
</g>
</g>
<!-- Node2&#45;&gt;Node7 -->
<g id="edge6_Node000002_Node000007" class="edge">
<title>Node2&#45;&gt;Node7</title>
<g id="a_edge6_Node000002_Node000007"><a xlink:title=" ">
<path fill="none" stroke="#63b8ff" d="M771.3,-283.09C774.93,-271.15 779.12,-257.34 782.2,-247.19"/>
<polygon fill="#63b8ff" stroke="#63b8ff" points="768.06,-281.74 768.5,-292.32 774.75,-283.77 768.06,-281.74"/>
</a>
</g>
</g>
<!-- Node8 -->
<g id="Node000008" class="node">
<title>Node8</title>
<g id="a_Node000008"><a xlink:href="_f_s_dir_entry_8h_source.html" target="_top" xlink:title=" ">
<polygon fill="white" stroke="#666666" points="1255.75,-246.88 1081.5,-246.88 1081.5,-216.38 1255.75,-216.38 1255.75,-246.88"/>
<text text-anchor="start" x="1089.5" y="-233.38" font-family="Helvetica,sans-Serif" font-size="10.00">/Users/hoff/Retro/virtualc64</text>
<text text-anchor="middle" x="1168.62" y="-222.12" font-family="Helvetica,sans-Serif" font-size="10.00">/Emulator/FileSystems/FSDirEntry.h</text>
</a>
</g>
</g>
<!-- Node2&#45;&gt;Node8 -->
<g id="edge8_Node000002_Node000008" class="edge">
<title>Node2&#45;&gt;Node8</title>
<g id="a_edge8_Node000002_Node000008"><a xlink:title=" ">
<path fill="none" stroke="#63b8ff" d="M858.2,-291.91C919.43,-281.1 1000.83,-266.42 1072.62,-252.5 1080.98,-250.88 1089.73,-249.13 1098.41,-247.37"/>
<polygon fill="#63b8ff" stroke="#63b8ff" points="857.74,-288.44 848.5,-293.62 858.96,-295.33 857.74,-288.44"/>
</a>
</g>
</g>
<!-- Node9 -->
<g id="Node000009" class="node">
<title>Node9</title>
<g id="a_Node000009"><a xlink:href="_disk_8h_source.html" target="_top" xlink:title=" ">
<polygon fill="white" stroke="#666666" points="481.38,-246.88 313.88,-246.88 313.88,-216.38 481.38,-216.38 481.38,-246.88"/>
<text text-anchor="start" x="321.88" y="-233.38" font-family="Helvetica,sans-Serif" font-size="10.00">/Users/hoff/Retro/virtualc64</text>
<text text-anchor="middle" x="397.62" y="-222.12" font-family="Helvetica,sans-Serif" font-size="10.00">/Emulator/Peripherals/Drive/Disk.h</text>
</a>
</g>
</g>
<!-- Node2&#45;&gt;Node9 -->
<g id="edge10_Node000002_Node000009" class="edge">
<title>Node2&#45;&gt;Node9</title>
<g id="a_edge10_Node000002_Node000009"><a xlink:title=" ">
<path fill="none" stroke="#63b8ff" d="M681.37,-291.35C617.44,-278.12 529.67,-259.95 468.74,-247.34"/>
<polygon fill="#63b8ff" stroke="#63b8ff" points="680.64,-294.77 691.14,-293.37 682.06,-287.92 680.64,-294.77"/>
</a>
</g>
</g>
<!-- Node2&#45;&gt;Node11 -->
<g id="edge13_Node000002_Node000011" class="edge">
<title>Node2&#45;&gt;Node11</title>
<g id="a_edge13_Node000002_Node000011"><a xlink:title=" ">
<path fill="none" stroke="#63b8ff" d="M668.91,-304.23C547.98,-297.91 332.59,-283.21 150.62,-252.5 142.3,-251.09 133.56,-249.28 125.04,-247.32"/>
<polygon fill="#63b8ff" stroke="#63b8ff" points="668.64,-307.72 678.81,-304.74 669,-300.73 668.64,-307.72"/>
</a>
</g>
</g>
<!-- Node4 -->
<g id="Node000004" class="node">
<title>Node4</title>
<g id="a_Node000004"><a xlink:href="_file_system_8h_source.html" target="_top" xlink:title=" ">
<polygon fill="white" stroke="#666666" points="1256.88,-169.12 1080.38,-169.12 1080.38,-138.62 1256.88,-138.62 1256.88,-169.12"/>
<text text-anchor="start" x="1088.38" y="-155.62" font-family="Helvetica,sans-Serif" font-size="10.00">/Users/hoff/Retro/virtualc64</text>
<text text-anchor="middle" x="1168.62" y="-144.38" font-family="Helvetica,sans-Serif" font-size="10.00">/Emulator/FileSystems/FileSystem.h</text>
</a>
</g>
</g>
<!-- Node3&#45;&gt;Node4 -->
<g id="edge3_Node000003_Node000004" class="edge">
<title>Node3&#45;&gt;Node4</title>
<g id="a_edge3_Node000003_Node000004"><a xlink:title=" ">
<path fill="none" stroke="#63b8ff" d="M1028.19,-211.76C1060.4,-198.71 1102.65,-181.6 1132.36,-169.56"/>
<polygon fill="#63b8ff" stroke="#63b8ff" points="1027.04,-208.45 1019.08,-215.45 1029.67,-214.94 1027.04,-208.45"/>
</a>
</g>
</g>
<!-- Node5 -->
<g id="Node000005" class="node">
<title>Node5</title>
<g id="a_Node000005"><a xlink:href="_c64_8h_source.html" target="_top" xlink:title=" ">
<polygon fill="white" stroke="#666666" points="1313.5,-97 1167.75,-97 1167.75,-66.5 1313.5,-66.5 1313.5,-97"/>
<text text-anchor="start" x="1175.75" y="-83.5" font-family="Helvetica,sans-Serif" font-size="10.00">/Users/hoff/Retro/virtualc64</text>
<text text-anchor="middle" x="1240.62" y="-72.25" font-family="Helvetica,sans-Serif" font-size="10.00">/Emulator/Components/C64.h</text>
</a>
</g>
</g>
<!-- Node4&#45;&gt;Node5 -->
<g id="edge4_Node000004_Node000005" class="edge">
<title>Node4&#45;&gt;Node5</title>
<g id="a_edge4_Node000004_Node000005"><a xlink:title=" ">
<path fill="none" stroke="#63b8ff" d="M1191.62,-130.48C1202.79,-119.6 1215.88,-106.85 1225.73,-97.26"/>
<polygon fill="#63b8ff" stroke="#63b8ff" points="1189.35,-127.8 1184.63,-137.29 1194.23,-132.82 1189.35,-127.8"/>
</a>
</g>
</g>
<!-- Node6 -->
<g id="Node000006" class="node">
<title>Node6</title>
<g id="a_Node000006"><a xlink:href="_emulator_8h_source.html" target="_top" xlink:title=" ">
<polygon fill="white" stroke="#666666" points="1323.62,-30.5 1157.62,-30.5 1157.62,0 1323.62,0 1323.62,-30.5"/>
<text text-anchor="start" x="1165.62" y="-17" font-family="Helvetica,sans-Serif" font-size="10.00">/Users/hoff/Retro/virtualc64</text>
<text text-anchor="middle" x="1240.62" y="-5.75" font-family="Helvetica,sans-Serif" font-size="10.00">/Emulator/Components/Emulator.h</text>
</a>
</g>
</g>
<!-- Node5&#45;&gt;Node6 -->
<g id="edge5_Node000005_Node000006" class="edge">
<title>Node5&#45;&gt;Node6</title>
<g id="a_edge5_Node000005_Node000006"><a xlink:title=" ">
<path fill="none" stroke="#63b8ff" d="M1240.62,-54.81C1240.62,-46.64 1240.62,-37.91 1240.62,-30.83"/>
<polygon fill="#63b8ff" stroke="#63b8ff" points="1237.13,-54.6 1240.63,-64.6 1244.13,-54.6 1237.13,-54.6"/>
</a>
</g>
</g>
<!-- Node7&#45;&gt;Node4 -->
<g id="edge7_Node000007_Node000004" class="edge">
<title>Node7&#45;&gt;Node4</title>
<g id="a_edge7_Node000007_Node000004"><a xlink:title=" ">
<path fill="none" stroke="#63b8ff" d="M871.64,-213.77C938.44,-200.52 1030.55,-182.26 1094.4,-169.59"/>
<polygon fill="#63b8ff" stroke="#63b8ff" points="871.34,-210.26 862.22,-215.64 872.71,-217.12 871.34,-210.26"/>
</a>
</g>
</g>
<!-- Node8&#45;&gt;Node4 -->
<g id="edge9_Node000008_Node000004" class="edge">
<title>Node8&#45;&gt;Node4</title>
<g id="a_edge9_Node000008_Node000004"><a xlink:title=" ">
<path fill="none" stroke="#63b8ff" d="M1168.62,-204.6C1168.62,-192.84 1168.62,-179.38 1168.62,-169.44"/>
<polygon fill="#63b8ff" stroke="#63b8ff" points="1165.13,-204.51 1168.63,-214.51 1172.13,-204.51 1165.13,-204.51"/>
</a>
</g>
</g>
<!-- Node9&#45;&gt;Node10 -->
<g id="edge11_Node000009_Node000010" class="edge">
<title>Node9&#45;&gt;Node10</title>
<g id="a_edge11_Node000009_Node000010"><a xlink:title=" ">
<path fill="none" stroke="#63b8ff" d="M428.63,-209.65C444.55,-198.89 463.86,-185.83 479.63,-175.16"/>
<polygon fill="#63b8ff" stroke="#63b8ff" points="426.8,-206.67 420.47,-215.17 430.72,-212.47 426.8,-206.67"/>
</a>
</g>
</g>
<!-- Node10&#45;&gt;Node5 -->
<g id="edge12_Node000010_Node000005" class="edge">
<title>Node10&#45;&gt;Node5</title>
<g id="a_edge12_Node000010_Node000005"><a xlink:title=" ">
<path fill="none" stroke="#63b8ff" d="M589.66,-145.2C732.59,-131.49 1029.63,-102.99 1167.45,-89.77"/>
<polygon fill="#63b8ff" stroke="#63b8ff" points="589.52,-141.69 579.9,-146.13 590.19,-148.66 589.52,-141.69"/>
</a>
</g>
</g>
<!-- Node12 -->
<g id="Node000012" class="node">
<title>Node12</title>
<g id="a_Node000012"><a xlink:href="_virtual_c64_8h.html" target="_top" xlink:title=" ">
<polygon fill="white" stroke="#666666" points="139,-169.12 2.25,-169.12 2.25,-138.62 139,-138.62 139,-169.12"/>
<text text-anchor="start" x="10.25" y="-155.62" font-family="Helvetica,sans-Serif" font-size="10.00">/Users/hoff/Retro/virtualc64</text>
<text text-anchor="middle" x="70.62" y="-144.38" font-family="Helvetica,sans-Serif" font-size="10.00">/Emulator/VirtualC64.h</text>
</a>
</g>
</g>
<!-- Node11&#45;&gt;Node12 -->
<g id="edge14_Node000011_Node000012" class="edge">
<title>Node11&#45;&gt;Node12</title>
<g id="a_edge14_Node000011_Node000012"><a xlink:title=" ">
<path fill="none" stroke="#63b8ff" d="M70.62,-204.6C70.62,-192.84 70.62,-179.38 70.62,-169.44"/>
<polygon fill="#63b8ff" stroke="#63b8ff" points="67.13,-204.51 70.63,-214.51 74.13,-204.51 67.13,-204.51"/>
</a>
</g>
</g>
<!-- Node13 -->
<g id="Node000013" class="node">
<title>Node13</title>
<g id="a_Node000013"><a xlink:href="_headless_8h_source.html" target="_top" xlink:title=" ">
<polygon fill="white" stroke="#666666" points="139,-97 2.25,-97 2.25,-66.5 139,-66.5 139,-97"/>
<text text-anchor="start" x="10.25" y="-83.5" font-family="Helvetica,sans-Serif" font-size="10.00">/Users/hoff/Retro/virtualc64</text>
<text text-anchor="middle" x="70.62" y="-72.25" font-family="Helvetica,sans-Serif" font-size="10.00">/Emulator/Headless.h</text>
</a>
</g>
</g>
<!-- Node12&#45;&gt;Node13 -->
<g id="edge15_Node000012_Node000013" class="edge">
<title>Node12&#45;&gt;Node13</title>
<g id="a_edge15_Node000012_Node000013"><a xlink:title=" ">
<path fill="none" stroke="#63b8ff" d="M70.62,-126.9C70.62,-116.89 70.62,-105.81 70.62,-97.26"/>
<polygon fill="#63b8ff" stroke="#63b8ff" points="67.13,-126.83 70.63,-136.83 74.13,-126.83 67.13,-126.83"/>
</a>
</g>
</g>
<!-- Node14 -->
<g id="Node000014" class="node">
<title>Node14</title>
<g id="a_Node000014"><a xlink:href="_headless_8cpp.html" target="_top" xlink:title=" ">
<polygon fill="white" stroke="#666666" points="139,-30.5 2.25,-30.5 2.25,0 139,0 139,-30.5"/>
<text text-anchor="start" x="10.25" y="-17" font-family="Helvetica,sans-Serif" font-size="10.00">/Users/hoff/Retro/virtualc64</text>
<text text-anchor="middle" x="70.62" y="-5.75" font-family="Helvetica,sans-Serif" font-size="10.00">/Emulator/Headless.cpp</text>
</a>
</g>
</g>
<!-- Node13&#45;&gt;Node14 -->
<g id="edge16_Node000013_Node000014" class="edge">
<title>Node13&#45;&gt;Node14</title>
<g id="a_edge16_Node000013_Node000014"><a xlink:title=" ">
<path fill="none" stroke="#63b8ff" d="M70.62,-54.81C70.62,-46.64 70.62,-37.91 70.62,-30.83"/>
<polygon fill="#63b8ff" stroke="#63b8ff" points="67.13,-54.6 70.63,-64.6 74.13,-54.6 67.13,-54.6"/>
</a>
</g>
</g>
<!-- Node15&#45;&gt;Node4 -->
<g id="edge19_Node000015_Node000004" class="edge">
<title>Node15&#45;&gt;Node4</title>
<g id="a_edge19_Node000015_Node000004"><a xlink:title=" ">
<path fill="none" stroke="#63b8ff" d="M1298.91,-211.59C1268.98,-198.57 1229.9,-181.55 1202.37,-169.56"/>
<polygon fill="#63b8ff" stroke="#63b8ff" points="1297.12,-214.63 1307.69,-215.42 1299.92,-208.21 1297.12,-214.63"/>
</a>
</g>
</g>
<!-- Node15&#45;&gt;Node5 -->
<g id="edge18_Node000015_Node000005" class="edge">
<title>Node15&#45;&gt;Node5</title>
<g id="a_edge18_Node000015_Node000005"><a xlink:title=" ">
<path fill="none" stroke="#63b8ff" d="M1326.13,-206.71C1304.81,-175.8 1268.35,-122.94 1250.74,-97.41"/>
<polygon fill="#63b8ff" stroke="#63b8ff" points="1323.05,-208.42 1331.61,-214.66 1328.82,-204.44 1323.05,-208.42"/>
</a>
</g>
</g>
<!-- Node16&#45;&gt;Node5 -->
<g id="edge21_Node000016_Node000005" class="edge">
<title>Node16&#45;&gt;Node5</title>
<g id="a_edge21_Node000016_Node000005"><a xlink:title=" ">
<path fill="none" stroke="#63b8ff" d="M1234.4,-376.58C1305.54,-363.02 1403.4,-330.44 1436.62,-252.5 1459.41,-199.05 1429.69,-168.4 1383.62,-133 1362.13,-116.49 1334.79,-105.12 1309.78,-97.45"/>
<polygon fill="#63b8ff" stroke="#63b8ff" points="1233.94,-373.1 1224.72,-378.32 1235.18,-379.99 1233.94,-373.1"/>
</a>
</g>
</g>
<!-- Node17&#45;&gt;Node7 -->
<g id="edge23_Node000017_Node000007" class="edge">
<title>Node17&#45;&gt;Node7</title>
<g id="a_edge23_Node000017_Node000007"><a xlink:title=" ">
<path fill="none" stroke="#63b8ff" d="M439.63,-361.9C526.01,-329.72 675.95,-273.86 747.04,-247.37"/>
<polygon fill="#63b8ff" stroke="#63b8ff" points="438.48,-358.6 430.33,-365.37 440.92,-365.16 438.48,-358.6"/>
</a>
</g>
</g>
<!-- Node17&#45;&gt;Node9 -->
<g id="edge24_Node000017_Node000009" class="edge">
<title>Node17&#45;&gt;Node9</title>
<g id="a_edge24_Node000017_Node000009"><a xlink:title=" ">
<path fill="none" stroke="#63b8ff" d="M379.32,-354.82C384.24,-321.97 391.76,-271.76 395.44,-247.19"/>
<polygon fill="#63b8ff" stroke="#63b8ff" points="375.88,-354.15 377.86,-364.56 382.8,-355.19 375.88,-354.15"/>
</a>
</g>
</g>
<!-- Node17&#45;&gt;Node11 -->
<g id="edge31_Node000017_Node000011" class="edge">
<title>Node17&#45;&gt;Node11</title>
<g id="a_edge31_Node000017_Node000011"><a xlink:title=" ">
<path fill="none" stroke="#63b8ff" d="M294.67,-373.24C256.33,-364.78 210.78,-351.27 173.62,-330.25 134.81,-308.29 99.39,-268.58 81.97,-247.2"/>
<polygon fill="#63b8ff" stroke="#63b8ff" points="293.81,-376.63 304.31,-375.28 295.26,-369.79 293.81,-376.63"/>
</a>
</g>
</g>
<!-- Node18 -->
<g id="Node000018" class="node">
<title>Node18</title>
<g id="a_Node000018"><a xlink:href="_disk_analyzer_8h_source.html" target="_top" xlink:title=" ">
<polygon fill="white" stroke="#666666" points="296,-252.5 159.25,-252.5 159.25,-210.75 296,-210.75 296,-252.5"/>
<text text-anchor="start" x="167.25" y="-239" font-family="Helvetica,sans-Serif" font-size="10.00">/Users/hoff/Retro/virtualc64</text>
<text text-anchor="start" x="167.25" y="-227.75" font-family="Helvetica,sans-Serif" font-size="10.00">/Emulator/Peripherals/Drive</text>
<text text-anchor="middle" x="227.62" y="-216.5" font-family="Helvetica,sans-Serif" font-size="10.00">/DiskAnalyzer.h</text>
</a>
</g>
</g>
<!-- Node17&#45;&gt;Node18 -->
<g id="edge25_Node000017_Node000018" class="edge">
<title>Node17&#45;&gt;Node18</title>
<g id="a_edge25_Node000017_Node000018"><a xlink:title=" ">
<path fill="none" stroke="#63b8ff" d="M365.27,-355.24C357.75,-334.44 345.46,-307.46 327.62,-288.5 313.72,-273.73 295.03,-261.86 277.56,-252.92"/>
<polygon fill="#63b8ff" stroke="#63b8ff" points="361.94,-356.3 368.48,-364.63 368.56,-354.04 361.94,-356.3"/>
</a>
</g>
</g>
<!-- Node19 -->
<g id="Node000019" class="node">
<title>Node19</title>
<g id="a_Node000019"><a xlink:href="_disk_analyzer_types_8h_source.html" target="_top" xlink:title=" ">
<polygon fill="white" stroke="#666666" points="319,-330.25 182.25,-330.25 182.25,-288.5 319,-288.5 319,-330.25"/>
<text text-anchor="start" x="190.25" y="-316.75" font-family="Helvetica,sans-Serif" font-size="10.00">/Users/hoff/Retro/virtualc64</text>
<text text-anchor="start" x="190.25" y="-305.5" font-family="Helvetica,sans-Serif" font-size="10.00">/Emulator/Peripherals/Drive</text>
<text text-anchor="middle" x="250.62" y="-294.25" font-family="Helvetica,sans-Serif" font-size="10.00">/DiskAnalyzerTypes.h</text>
</a>
</g>
</g>
<!-- Node17&#45;&gt;Node19 -->
<g id="edge27_Node000017_Node000019" class="edge">
<title>Node17&#45;&gt;Node19</title>
<g id="a_edge27_Node000017_Node000019"><a xlink:title=" ">
<path fill="none" stroke="#63b8ff" d="M331.9,-360.03C316.21,-350.44 298.69,-339.74 283.95,-330.73"/>
<polygon fill="#63b8ff" stroke="#63b8ff" points="329.75,-362.81 340.1,-365.04 333.39,-356.84 329.75,-362.81"/>
</a>
</g>
</g>
<!-- Node18&#45;&gt;Node10 -->
<g id="edge26_Node000018_Node000010" class="edge">
<title>Node18&#45;&gt;Node10</title>
<g id="a_edge26_Node000018_Node000010"><a xlink:title=" ">
<path fill="none" stroke="#63b8ff" d="M307.33,-209.22C349.52,-197.88 400.81,-184.11 441.18,-173.26"/>
<polygon fill="#63b8ff" stroke="#63b8ff" points="306.46,-205.82 297.71,-211.8 308.28,-212.58 306.46,-205.82"/>
</a>
</g>
</g>
<!-- Node19&#45;&gt;Node9 -->
<g id="edge28_Node000019_Node000009" class="edge">
<title>Node19&#45;&gt;Node9</title>
<g id="a_edge28_Node000019_Node000009"><a xlink:title=" ">
<path fill="none" stroke="#63b8ff" d="M299.99,-282.94C323.06,-271.05 349.69,-257.32 369.31,-247.21"/>
<polygon fill="#63b8ff" stroke="#63b8ff" points="298.65,-279.69 291.36,-287.38 301.86,-285.91 298.65,-279.69"/>
</a>
</g>
</g>
<!-- Node19&#45;&gt;Node11 -->
<g id="edge30_Node000019_Node000011" class="edge">
<title>Node19&#45;&gt;Node11</title>
<g id="a_edge30_Node000019_Node000011"><a xlink:title=" ">
<path fill="none" stroke="#63b8ff" d="M192.11,-283.75C163.54,-271.72 130.12,-257.66 105.58,-247.33"/>
<polygon fill="#63b8ff" stroke="#63b8ff" points="190.42,-286.84 200.99,-287.49 193.13,-280.38 190.42,-286.84"/>
</a>
</g>
</g>
<!-- Node19&#45;&gt;Node18 -->
<g id="edge29_Node000019_Node000018" class="edge">
<title>Node19&#45;&gt;Node18</title>
<g id="a_edge29_Node000019_Node000018"><a xlink:title=" ">
<path fill="none" stroke="#63b8ff" d="M241.19,-277.31C238.7,-269.11 236.08,-260.46 233.81,-252.98"/>
<polygon fill="#63b8ff" stroke="#63b8ff" points="237.77,-278.08 244.02,-286.63 244.47,-276.04 237.77,-278.08"/>
</a>
</g>
</g>
<!-- Node20&#45;&gt;Node5 -->
<g id="edge34_Node000020_Node000005" class="edge">
<title>Node20&#45;&gt;Node5</title>
<g id="a_edge34_Node000020_Node000005"><a xlink:title=" ">
<path fill="none" stroke="#63b8ff" d="M685.6,-210.05C867.93,-165.75 1071.22,-120.19 1173.92,-97.44"/>
<polygon fill="#63b8ff" stroke="#63b8ff" points="684.81,-206.64 675.92,-212.4 686.46,-213.44 684.81,-206.64"/>
</a>
</g>
</g>
<!-- Node20&#45;&gt;Node10 -->
<g id="edge35_Node000020_Node000010" class="edge">
<title>Node20&#45;&gt;Node10</title>
<g id="a_edge35_Node000020_Node000010"><a xlink:title=" ">
<path fill="none" stroke="#63b8ff" d="M571.17,-203.44C559.38,-194.14 546.41,-183.9 535.42,-175.23"/>
<polygon fill="#63b8ff" stroke="#63b8ff" points="568.69,-205.94 578.71,-209.39 573.03,-200.45 568.69,-205.94"/>
</a>
</g>
</g>
<!-- Node21&#45;&gt;Node5 -->
<g id="edge37_Node000021_Node000005" class="edge">
<title>Node21&#45;&gt;Node5</title>
<g id="a_edge37_Node000021_Node000005"><a xlink:title=" ">
<path fill="none" stroke="#63b8ff" d="M1358.17,-294.75C1381.91,-286.56 1405.38,-273.47 1419.62,-252.5 1430.05,-237.15 1428.11,-227.25 1419.62,-210.75 1390.27,-153.67 1322.36,-116.38 1279.13,-97.49"/>
<polygon fill="#63b8ff" stroke="#63b8ff" points="1357.21,-291.38 1348.72,-297.72 1359.31,-298.06 1357.21,-291.38"/>
</a>
</g>
</g>
</g>
</svg>
