<?xml version="1.0" encoding="UTF-8" standalone="no"?>
<!DOCTYPE svg PUBLIC "-//W3C//DTD SVG 1.1//EN"
 "http://www.w3.org/Graphics/SVG/1.1/DTD/svg11.dtd">
<!-- Generated by graphviz version 10.0.1 (20240210.2158)
 -->
<!-- Title: /Users/hoff/Retro/virtualc64/Emulator/Peripherals/Drive/DriveMemory.h Pages: 1 -->
<svg width="1525pt" height="658pt"
 viewBox="0.00 0.00 1525.00 657.50" xmlns="http://www.w3.org/2000/svg" xmlns:xlink="http://www.w3.org/1999/xlink">
<g id="graph0" class="graph" transform="scale(1 1) rotate(0) translate(4 653.5)">
<title>/Users/hoff/Retro/virtualc64/Emulator/Peripherals/Drive/DriveMemory.h</title>
<!-- Node1 -->
<g id="Node000001" class="node">
<title>Node1</title>
<g id="a_Node000001"><a xlink:title=" ">
<polygon fill="#999999" stroke="#666666" points="1401.25,-649.5 1264.5,-649.5 1264.5,-607.75 1401.25,-607.75 1401.25,-649.5"/>
<text text-anchor="start" x="1272.5" y="-636" font-family="Helvetica,sans-Serif" font-size="10.00">/Users/hoff/Retro/virtualc64</text>
<text text-anchor="start" x="1272.5" y="-624.75" font-family="Helvetica,sans-Serif" font-size="10.00">/Emulator/Peripherals/Drive</text>
<text text-anchor="middle" x="1332.88" y="-613.5" font-family="Helvetica,sans-Serif" font-size="10.00">/DriveMemory.h</text>
</a>
</g>
</g>
<!-- Node2 -->
<g id="Node000002" class="node">
<title>Node2</title>
<g id="a_Node000002"><a xlink:href="_sub_component_8h.html" target="_top" xlink:title=" ">
<polygon fill="white" stroke="#666666" points="1341.75,-571.75 1250,-571.75 1250,-552.5 1341.75,-552.5 1341.75,-571.75"/>
<text text-anchor="middle" x="1295.88" y="-558.25" font-family="Helvetica,sans-Serif" font-size="10.00">SubComponent.h</text>
</a>
</g>
</g>
<!-- Node1&#45;&gt;Node2 -->
<g id="edge1_Node000001_Node000002" class="edge">
<title>Node1&#45;&gt;Node2</title>
<g id="a_edge1_Node000001_Node000002"><a xlink:title=" ">
<path fill="none" stroke="#63b8ff" d="M1321.37,-607.57C1316.7,-599.43 1311.34,-590.08 1306.74,-582.07"/>
<polygon fill="#63b8ff" stroke="#63b8ff" points="1309.84,-580.44 1301.83,-573.51 1303.77,-583.92 1309.84,-580.44"/>
</a>
</g>
</g>
<!-- Node44 -->
<g id="Node000044" class="node">
<title>Node44</title>
<g id="a_Node000044"><a xlink:href="_drive_types_8h.html" target="_top" xlink:title=" ">
<polygon fill="white" stroke="#666666" points="1379.75,-295.5 1306,-295.5 1306,-276.25 1379.75,-276.25 1379.75,-295.5"/>
<text text-anchor="middle" x="1342.88" y="-282" font-family="Helvetica,sans-Serif" font-size="10.00">DriveTypes.h</text>
</a>
</g>
</g>
<!-- Node1&#45;&gt;Node44 -->
<g id="edge65_Node000001_Node000044" class="edge">
<title>Node1&#45;&gt;Node44</title>
<g id="a_edge65_Node000001_Node000044"><a xlink:title=" ">
<path fill="none" stroke="#63b8ff" d="M1343.18,-607.44C1354.13,-584.1 1369.88,-544.21 1369.88,-507.88 1369.88,-507.88 1369.88,-507.88 1369.88,-395.38 1369.88,-363.59 1358.83,-328.07 1350.86,-306.6"/>
<polygon fill="#63b8ff" stroke="#63b8ff" points="1354.17,-305.44 1347.29,-297.38 1347.64,-307.97 1354.17,-305.44"/>
</a>
</g>
</g>
<!-- Node3 -->
<g id="Node000003" class="node">
<title>Node3</title>
<g id="a_Node000003"><a xlink:href="_core_component_8h.html" target="_top" xlink:title=" ">
<polygon fill="white" stroke="#666666" points="894.62,-516.5 799.12,-516.5 799.12,-497.25 894.62,-497.25 894.62,-516.5"/>
<text text-anchor="middle" x="846.88" y="-503" font-family="Helvetica,sans-Serif" font-size="10.00">CoreComponent.h</text>
</a>
</g>
</g>
<!-- Node2&#45;&gt;Node3 -->
<g id="edge2_Node000002_Node000003" class="edge">
<title>Node2&#45;&gt;Node3</title>
<g id="a_edge2_Node000002_Node000003"><a xlink:title=" ">
<path fill="none" stroke="#63b8ff" d="M1249.52,-555.63C1167.43,-545.89 996.69,-525.64 906.17,-514.91"/>
<polygon fill="#63b8ff" stroke="#63b8ff" points="906.86,-511.46 896.52,-513.76 906.03,-518.42 906.86,-511.46"/>
</a>
</g>
</g>
<!-- Node42 -->
<g id="Node000042" class="node">
<title>Node42</title>
<g id="a_Node000042"><a xlink:href="_c_p_u_types_8h.html" target="_top" xlink:title=" ">
<polygon fill="white" stroke="#666666" points="1517,-240.25 1444.75,-240.25 1444.75,-221 1517,-221 1517,-240.25"/>
<text text-anchor="middle" x="1480.88" y="-226.75" font-family="Helvetica,sans-Serif" font-size="10.00">CPUTypes.h</text>
</a>
</g>
</g>
<!-- Node2&#45;&gt;Node42 -->
<g id="edge60_Node000002_Node000042" class="edge">
<title>Node2&#45;&gt;Node42</title>
<g id="a_edge60_Node000002_Node000042"><a xlink:title=" ">
<path fill="none" stroke="#63b8ff" d="M1300.82,-552.31C1325.49,-508.38 1435.37,-312.68 1470.23,-250.59"/>
<polygon fill="#63b8ff" stroke="#63b8ff" points="1473.24,-252.37 1475.08,-241.94 1467.14,-248.95 1473.24,-252.37"/>
</a>
</g>
</g>
<!-- Node4 -->
<g id="Node000004" class="node">
<title>Node4</title>
<g id="a_Node000004"><a xlink:href="_emulator_types_8h.html" target="_top" xlink:title=" ">
<polygon fill="white" stroke="#666666" points="1230.62,-295.5 1141.12,-295.5 1141.12,-276.25 1230.62,-276.25 1230.62,-295.5"/>
<text text-anchor="middle" x="1185.88" y="-282" font-family="Helvetica,sans-Serif" font-size="10.00">EmulatorTypes.h</text>
</a>
</g>
</g>
<!-- Node3&#45;&gt;Node4 -->
<g id="edge3_Node000003_Node000004" class="edge">
<title>Node3&#45;&gt;Node4</title>
<g id="a_edge3_Node000003_Node000004"><a xlink:title=" ">
<path fill="none" stroke="#63b8ff" d="M894.96,-503.59C963.43,-499.42 1084.44,-488.35 1117.88,-461.25 1166.2,-422.08 1180.28,-343.99 1184.3,-307.08"/>
<polygon fill="#63b8ff" stroke="#63b8ff" points="1187.76,-307.67 1185.21,-297.39 1180.79,-307.02 1187.76,-307.67"/>
</a>
</g>
</g>
<!-- Node12 -->
<g id="Node000012" class="node">
<title>Node12</title>
<g id="a_Node000012"><a xlink:href="_thread_types_8h.html" target="_top" xlink:title=" ">
<polygon fill="white" stroke="#666666" points="1165.12,-240.25 1084.62,-240.25 1084.62,-221 1165.12,-221 1165.12,-240.25"/>
<text text-anchor="middle" x="1124.88" y="-226.75" font-family="Helvetica,sans-Serif" font-size="10.00">ThreadTypes.h</text>
</a>
</g>
</g>
<!-- Node3&#45;&gt;Node12 -->
<g id="edge58_Node000003_Node000012" class="edge">
<title>Node3&#45;&gt;Node12</title>
<g id="a_edge58_Node000003_Node000012"><a xlink:title=" ">
<path fill="none" stroke="#63b8ff" d="M894.91,-506.15C969.3,-503.78 1103.88,-487.09 1103.88,-397.38 1103.88,-397.38 1103.88,-397.38 1103.88,-340.12 1103.88,-308.69 1112.48,-273.05 1118.67,-251.46"/>
<polygon fill="#63b8ff" stroke="#63b8ff" points="1122,-252.55 1121.52,-241.96 1115.29,-250.54 1122,-252.55"/>
</a>
</g>
</g>
<!-- Node13 -->
<g id="Node000013" class="node">
<title>Node13</title>
<g id="a_Node000013"><a xlink:href="_core_object_8h.html" target="_top" xlink:title=" ">
<polygon fill="white" stroke="#666666" points="549.75,-350.75 476,-350.75 476,-331.5 549.75,-331.5 549.75,-350.75"/>
<text text-anchor="middle" x="512.88" y="-337.25" font-family="Helvetica,sans-Serif" font-size="10.00">CoreObject.h</text>
</a>
</g>
</g>
<!-- Node3&#45;&gt;Node13 -->
<g id="edge14_Node000003_Node000013" class="edge">
<title>Node3&#45;&gt;Node13</title>
<g id="a_edge14_Node000003_Node000013"><a xlink:title=" ">
<path fill="none" stroke="#63b8ff" d="M827.74,-496.91C808.72,-487.97 778.71,-473.79 752.88,-461.25 675.94,-423.9 585.74,-378.76 540.99,-356.28"/>
<polygon fill="#63b8ff" stroke="#63b8ff" points="542.74,-353.24 532.24,-351.88 539.6,-359.5 542.74,-353.24"/>
</a>
</g>
</g>
<!-- Node20 -->
<g id="Node000020" class="node">
<title>Node20</title>
<g id="a_Node000020"><a xlink:href="_synchronizable_8h.html" target="_top" xlink:title=" ">
<polygon fill="white" stroke="#666666" points="174.38,-406 83.38,-406 83.38,-386.75 174.38,-386.75 174.38,-406"/>
<text text-anchor="middle" x="128.88" y="-392.5" font-family="Helvetica,sans-Serif" font-size="10.00">Synchronizable.h</text>
</a>
</g>
</g>
<!-- Node3&#45;&gt;Node20 -->
<g id="edge24_Node000003_Node000020" class="edge">
<title>Node3&#45;&gt;Node20</title>
<g id="a_edge24_Node000003_Node000020"><a xlink:title=" ">
<path fill="none" stroke="#63b8ff" d="M798.85,-504.64C656.53,-500.7 243.56,-487.14 188.88,-461.25 168.09,-451.41 150.94,-430.93 140.37,-415.8"/>
<polygon fill="#63b8ff" stroke="#63b8ff" points="143.41,-414.05 134.98,-407.64 137.57,-417.91 143.41,-414.05"/>
</a>
</g>
</g>
<!-- Node21 -->
<g id="Node000021" class="node">
<title>Node21</title>
<g id="a_Node000021"><a xlink:href="_concurrency_8h.html" target="_top" xlink:title=" ">
<polygon fill="white" stroke="#666666" points="151,-350.75 72.75,-350.75 72.75,-331.5 151,-331.5 151,-350.75"/>
<text text-anchor="middle" x="111.88" y="-337.25" font-family="Helvetica,sans-Serif" font-size="10.00">Concurrency.h</text>
</a>
</g>
</g>
<!-- Node3&#45;&gt;Node21 -->
<g id="edge55_Node000003_Node000021" class="edge">
<title>Node3&#45;&gt;Node21</title>
<g id="a_edge55_Node000003_Node000021"><a xlink:title=" ">
<path fill="none" stroke="#63b8ff" d="M798.88,-505.87C663.17,-505.35 278.8,-500.39 159.88,-461.25 116.72,-447.05 95.65,-445.87 73.88,-406 64.95,-389.65 78.17,-371.43 91.41,-358.64"/>
<polygon fill="#63b8ff" stroke="#63b8ff" points="93.6,-361.37 98.74,-352.11 88.95,-356.15 93.6,-361.37"/>
</a>
</g>
</g>
<!-- Node26 -->
<g id="Node000026" class="node">
<title>Node26</title>
<g id="a_Node000026"><a xlink:href="_serializable_8h.html" target="_top" xlink:title=" ">
<polygon fill="white" stroke="#666666" points="836.12,-461.25 761.62,-461.25 761.62,-442 836.12,-442 836.12,-461.25"/>
<text text-anchor="middle" x="798.88" y="-447.75" font-family="Helvetica,sans-Serif" font-size="10.00">Serializable.h</text>
</a>
</g>
</g>
<!-- Node3&#45;&gt;Node26 -->
<g id="edge31_Node000003_Node000026" class="edge">
<title>Node3&#45;&gt;Node26</title>
<g id="a_edge31_Node000003_Node000026"><a xlink:title=" ">
<path fill="none" stroke="#63b8ff" d="M838.95,-497.08C832.32,-489.73 822.66,-479.01 814.49,-469.94"/>
<polygon fill="#63b8ff" stroke="#63b8ff" points="817.28,-467.82 807.99,-462.73 812.08,-472.5 817.28,-467.82"/>
</a>
</g>
</g>
<!-- Node27 -->
<g id="Node000027" class="node">
<title>Node27</title>
<g id="a_Node000027"><a xlink:href="_configurable_8h.html" target="_top" xlink:title=" ">
<polygon fill="white" stroke="#666666" points="933.38,-461.25 854.38,-461.25 854.38,-442 933.38,-442 933.38,-461.25"/>
<text text-anchor="middle" x="893.88" y="-447.75" font-family="Helvetica,sans-Serif" font-size="10.00">Configurable.h</text>
</a>
</g>
</g>
<!-- Node3&#45;&gt;Node27 -->
<g id="edge32_Node000003_Node000027" class="edge">
<title>Node3&#45;&gt;Node27</title>
<g id="a_edge32_Node000003_Node000027"><a xlink:title=" ">
<path fill="none" stroke="#63b8ff" d="M854.64,-497.08C861.06,-489.8 870.39,-479.23 878.34,-470.23"/>
<polygon fill="#63b8ff" stroke="#63b8ff" points="880.95,-472.56 884.94,-462.74 875.7,-467.93 880.95,-472.56"/>
</a>
</g>
</g>
<!-- Node32 -->
<g id="Node000032" class="node">
<title>Node32</title>
<g id="a_Node000032"><a xlink:title=" ">
<polygon fill="#e0e0e0" stroke="#999999" points="467.38,-185 424.38,-185 424.38,-165.75 467.38,-165.75 467.38,-185"/>
<text text-anchor="middle" x="445.88" y="-171.5" font-family="Helvetica,sans-Serif" font-size="10.00">vector</text>
</a>
</g>
</g>
<!-- Node3&#45;&gt;Node32 -->
<g id="edge59_Node000003_Node000032" class="edge">
<title>Node3&#45;&gt;Node32</title>
<g id="a_edge59_Node000003_Node000032"><a xlink:title=" ">
<path fill="none" stroke="#63b8ff" d="M798.73,-502.85C649.22,-492.81 202.88,-457.79 202.88,-397.38 202.88,-397.38 202.88,-397.38 202.88,-340.12 202.88,-286.91 178.99,-260.29 214.88,-221 241.04,-192.35 355.6,-181.65 412.94,-178.03"/>
<polygon fill="#63b8ff" stroke="#63b8ff" points="412.96,-181.54 422.74,-177.45 412.55,-174.55 412.96,-181.54"/>
</a>
</g>
</g>
<!-- Node40 -->
<g id="Node000040" class="node">
<title>Node40</title>
<g id="a_Node000040"><a xlink:href="_suspendable_8h.html" target="_top" xlink:title=" ">
<polygon fill="white" stroke="#666666" points="1042.12,-461.25 961.62,-461.25 961.62,-442 1042.12,-442 1042.12,-461.25"/>
<text text-anchor="middle" x="1001.88" y="-447.75" font-family="Helvetica,sans-Serif" font-size="10.00">Suspendable.h</text>
</a>
</g>
</g>
<!-- Node3&#45;&gt;Node40 -->
<g id="edge56_Node000003_Node000040" class="edge">
<title>Node3&#45;&gt;Node40</title>
<g id="a_edge56_Node000003_Node000040"><a xlink:title=" ">
<path fill="none" stroke="#63b8ff" d="M873.17,-496.84C898.33,-488.2 936.53,-475.07 964.78,-465.37"/>
<polygon fill="#63b8ff" stroke="#63b8ff" points="965.7,-468.75 974.02,-462.19 963.43,-462.13 965.7,-468.75"/>
</a>
</g>
</g>
<!-- Node5 -->
<g id="Node000005" class="node">
<title>Node5</title>
<g id="a_Node000005"><a xlink:href="_aliases_8h.html" target="_top" xlink:title=" ">
<polygon fill="white" stroke="#666666" points="1281.12,-185 1224.62,-185 1224.62,-165.75 1281.12,-165.75 1281.12,-185"/>
<text text-anchor="middle" x="1252.88" y="-171.5" font-family="Helvetica,sans-Serif" font-size="10.00">Aliases.h</text>
</a>
</g>
</g>
<!-- Node4&#45;&gt;Node5 -->
<g id="edge4_Node000004_Node000005" class="edge">
<title>Node4&#45;&gt;Node5</title>
<g id="a_edge4_Node000004_Node000005"><a xlink:title=" ">
<path fill="none" stroke="#63b8ff" d="M1191.36,-276C1202.25,-258.35 1226.83,-218.55 1241.41,-194.95"/>
<polygon fill="#63b8ff" stroke="#63b8ff" points="1244.24,-197.01 1246.52,-186.66 1238.29,-193.33 1244.24,-197.01"/>
</a>
</g>
</g>
<!-- Node11 -->
<g id="Node000011" class="node">
<title>Node11</title>
<g id="a_Node000011"><a xlink:href="_reflection_8h.html" target="_top" xlink:title=" ">
<polygon fill="white" stroke="#666666" points="1175.12,-185 1106.62,-185 1106.62,-165.75 1175.12,-165.75 1175.12,-185"/>
<text text-anchor="middle" x="1140.88" y="-171.5" font-family="Helvetica,sans-Serif" font-size="10.00">Reflection.h</text>
</a>
</g>
</g>
<!-- Node4&#45;&gt;Node11 -->
<g id="edge10_Node000004_Node000011" class="edge">
<title>Node4&#45;&gt;Node11</title>
<g id="a_edge10_Node000004_Node000011"><a xlink:title=" ">
<path fill="none" stroke="#63b8ff" d="M1185.45,-275.83C1184.57,-263.1 1181.9,-239.41 1173.88,-221 1169.65,-211.31 1162.99,-201.73 1156.75,-193.95"/>
<polygon fill="#63b8ff" stroke="#63b8ff" points="1159.42,-191.68 1150.28,-186.33 1154.08,-196.22 1159.42,-191.68"/>
</a>
</g>
</g>
<!-- Node4&#45;&gt;Node12 -->
<g id="edge11_Node000004_Node000012" class="edge">
<title>Node4&#45;&gt;Node12</title>
<g id="a_edge11_Node000004_Node000012"><a xlink:title=" ">
<path fill="none" stroke="#63b8ff" d="M1175.53,-275.84C1166.8,-268.22 1154.09,-257.12 1143.58,-247.95"/>
<polygon fill="#63b8ff" stroke="#63b8ff" points="1146.05,-245.46 1136.21,-241.52 1141.44,-250.73 1146.05,-245.46"/>
</a>
</g>
</g>
<!-- Node6 -->
<g id="Node000006" class="node">
<title>Node6</title>
<g id="a_Node000006"><a xlink:href="_macros_8h.html" target="_top" xlink:title=" ">
<polygon fill="white" stroke="#666666" points="922.12,-129.75 865.62,-129.75 865.62,-110.5 922.12,-110.5 922.12,-129.75"/>
<text text-anchor="middle" x="893.88" y="-116.25" font-family="Helvetica,sans-Serif" font-size="10.00">Macros.h</text>
</a>
</g>
</g>
<!-- Node5&#45;&gt;Node6 -->
<g id="edge5_Node000005_Node000006" class="edge">
<title>Node5&#45;&gt;Node6</title>
<g id="a_edge5_Node000005_Node000006"><a xlink:title=" ">
<path fill="none" stroke="#63b8ff" d="M1224.4,-170.15C1160.65,-160.7 1006.29,-137.8 933.33,-126.98"/>
<polygon fill="#63b8ff" stroke="#63b8ff" points="934.25,-123.58 923.85,-125.57 933.22,-130.5 934.25,-123.58"/>
</a>
</g>
</g>
<!-- Node7 -->
<g id="Node000007" class="node">
<title>Node7</title>
<g id="a_Node000007"><a xlink:href="_types_8h.html" target="_top" xlink:title=" ">
<polygon fill="white" stroke="#666666" points="471.12,-74.5 420.62,-74.5 420.62,-55.25 471.12,-55.25 471.12,-74.5"/>
<text text-anchor="middle" x="445.88" y="-61" font-family="Helvetica,sans-Serif" font-size="10.00">Types.h</text>
</a>
</g>
</g>
<!-- Node6&#45;&gt;Node7 -->
<g id="edge6_Node000006_Node000007" class="edge">
<title>Node6&#45;&gt;Node7</title>
<g id="a_edge6_Node000006_Node000007"><a xlink:title=" ">
<path fill="none" stroke="#63b8ff" d="M865.17,-115.71C786.96,-106.42 570.17,-80.65 482.94,-70.28"/>
<polygon fill="#63b8ff" stroke="#63b8ff" points="483.37,-66.81 473.02,-69.1 482.54,-73.76 483.37,-66.81"/>
</a>
</g>
</g>
<!-- Node8 -->
<g id="Node000008" class="node">
<title>Node8</title>
<g id="a_Node000008"><a xlink:title=" ">
<polygon fill="#e0e0e0" stroke="#999999" points="403.38,-19.25 336.38,-19.25 336.38,0 403.38,0 403.38,-19.25"/>
<text text-anchor="middle" x="369.88" y="-5.75" font-family="Helvetica,sans-Serif" font-size="10.00">sys/types.h</text>
</a>
</g>
</g>
<!-- Node7&#45;&gt;Node8 -->
<g id="edge7_Node000007_Node000008" class="edge">
<title>Node7&#45;&gt;Node8</title>
<g id="a_edge7_Node000007_Node000008"><a xlink:title=" ">
<path fill="none" stroke="#63b8ff" d="M432.98,-54.84C421.85,-47.04 405.5,-35.59 392.24,-26.29"/>
<polygon fill="#63b8ff" stroke="#63b8ff" points="394.27,-23.44 384.07,-20.57 390.25,-29.18 394.27,-23.44"/>
</a>
</g>
</g>
<!-- Node9 -->
<g id="Node000009" class="node">
<title>Node9</title>
<g id="a_Node000009"><a xlink:title=" ">
<polygon fill="#e0e0e0" stroke="#999999" points="470,-19.25 421.75,-19.25 421.75,0 470,0 470,-19.25"/>
<text text-anchor="middle" x="445.88" y="-5.75" font-family="Helvetica,sans-Serif" font-size="10.00">stdint.h</text>
</a>
</g>
</g>
<!-- Node7&#45;&gt;Node9 -->
<g id="edge8_Node000007_Node000009" class="edge">
<title>Node7&#45;&gt;Node9</title>
<g id="a_edge8_Node000007_Node000009"><a xlink:title=" ">
<path fill="none" stroke="#63b8ff" d="M445.88,-55.08C445.88,-48.57 445.88,-39.42 445.88,-31.12"/>
<polygon fill="#63b8ff" stroke="#63b8ff" points="449.38,-31.12 445.88,-21.12 442.38,-31.12 449.38,-31.12"/>
</a>
</g>
</g>
<!-- Node10 -->
<g id="Node000010" class="node">
<title>Node10</title>
<g id="a_Node000010"><a xlink:title=" ">
<polygon fill="#e0e0e0" stroke="#999999" points="543.75,-19.25 488,-19.25 488,0 543.75,0 543.75,-19.25"/>
<text text-anchor="middle" x="515.88" y="-5.75" font-family="Helvetica,sans-Serif" font-size="10.00">stdbool.h</text>
</a>
</g>
</g>
<!-- Node7&#45;&gt;Node10 -->
<g id="edge9_Node000007_Node000010" class="edge">
<title>Node7&#45;&gt;Node10</title>
<g id="a_edge9_Node000007_Node000010"><a xlink:title=" ">
<path fill="none" stroke="#63b8ff" d="M457.75,-54.84C467.97,-47.07 482.95,-35.67 495.14,-26.4"/>
<polygon fill="#63b8ff" stroke="#63b8ff" points="497.13,-29.28 502.97,-20.44 492.89,-23.71 497.13,-29.28"/>
</a>
</g>
</g>
<!-- Node12&#45;&gt;Node5 -->
<g id="edge12_Node000012_Node000005" class="edge">
<title>Node12&#45;&gt;Node5</title>
<g id="a_edge12_Node000012_Node000005"><a xlink:title=" ">
<path fill="none" stroke="#63b8ff" d="M1146.59,-220.59C1166.91,-212.14 1197.52,-199.4 1220.68,-189.77"/>
<polygon fill="#63b8ff" stroke="#63b8ff" points="1221.77,-193.11 1229.66,-186.03 1219.08,-186.64 1221.77,-193.11"/>
</a>
</g>
</g>
<!-- Node12&#45;&gt;Node11 -->
<g id="edge13_Node000012_Node000011" class="edge">
<title>Node12&#45;&gt;Node11</title>
<g id="a_edge13_Node000012_Node000011"><a xlink:title=" ">
<path fill="none" stroke="#63b8ff" d="M1127.52,-220.83C1129.52,-214.17 1132.35,-204.74 1134.89,-196.28"/>
<polygon fill="#63b8ff" stroke="#63b8ff" points="1138.21,-197.39 1137.74,-186.81 1131.51,-195.38 1138.21,-197.39"/>
</a>
</g>
</g>
<!-- Node14 -->
<g id="Node000014" class="node">
<title>Node14</title>
<g id="a_Node000014"><a xlink:href="_error_8h.html" target="_top" xlink:title=" ">
<polygon fill="white" stroke="#666666" points="282.12,-295.5 237.62,-295.5 237.62,-276.25 282.12,-276.25 282.12,-295.5"/>
<text text-anchor="middle" x="259.88" y="-282" font-family="Helvetica,sans-Serif" font-size="10.00">Error.h</text>
</a>
</g>
</g>
<!-- Node13&#45;&gt;Node14 -->
<g id="edge15_Node000013_Node000014" class="edge">
<title>Node13&#45;&gt;Node14</title>
<g id="a_edge15_Node000013_Node000014"><a xlink:title=" ">
<path fill="none" stroke="#63b8ff" d="M475.54,-332.27C426.38,-321.92 340.65,-303.88 293.44,-293.94"/>
<polygon fill="#63b8ff" stroke="#63b8ff" points="294.3,-290.54 283.79,-291.91 292.86,-297.39 294.3,-290.54"/>
</a>
</g>
</g>
<!-- Node18 -->
<g id="Node000018" class="node">
<title>Node18</title>
<g id="a_Node000018"><a xlink:href="_inspectable_8h.html" target="_top" xlink:title=" ">
<polygon fill="white" stroke="#666666" points="487.12,-295.5 412.62,-295.5 412.62,-276.25 487.12,-276.25 487.12,-295.5"/>
<text text-anchor="middle" x="449.88" y="-282" font-family="Helvetica,sans-Serif" font-size="10.00">Inspectable.h</text>
</a>
</g>
</g>
<!-- Node13&#45;&gt;Node18 -->
<g id="edge22_Node000013_Node000018" class="edge">
<title>Node13&#45;&gt;Node18</title>
<g id="a_edge22_Node000013_Node000018"><a xlink:title=" ">
<path fill="none" stroke="#63b8ff" d="M502.19,-331.09C493.17,-323.47 480.04,-312.37 469.19,-303.2"/>
<polygon fill="#63b8ff" stroke="#63b8ff" points="471.46,-300.53 461.56,-296.75 466.94,-305.88 471.46,-300.53"/>
</a>
</g>
</g>
<!-- Node15 -->
<g id="Node000015" class="node">
<title>Node15</title>
<g id="a_Node000015"><a xlink:href="_error_types_8h.html" target="_top" xlink:title=" ">
<polygon fill="white" stroke="#666666" points="295.62,-240.25 224.12,-240.25 224.12,-221 295.62,-221 295.62,-240.25"/>
<text text-anchor="middle" x="259.88" y="-226.75" font-family="Helvetica,sans-Serif" font-size="10.00">ErrorTypes.h</text>
</a>
</g>
</g>
<!-- Node14&#45;&gt;Node15 -->
<g id="edge16_Node000014_Node000015" class="edge">
<title>Node14&#45;&gt;Node15</title>
<g id="a_edge16_Node000014_Node000015"><a xlink:title=" ">
<path fill="none" stroke="#63b8ff" d="M259.88,-276.08C259.88,-269.57 259.88,-260.42 259.88,-252.12"/>
<polygon fill="#63b8ff" stroke="#63b8ff" points="263.38,-252.12 259.88,-242.12 256.38,-252.12 263.38,-252.12"/>
</a>
</g>
</g>
<!-- Node16 -->
<g id="Node000016" class="node">
<title>Node16</title>
<g id="a_Node000016"><a xlink:href="_exception_8h.html" target="_top" xlink:title=" ">
<polygon fill="white" stroke="#666666" points="167.75,-240.25 100,-240.25 100,-221 167.75,-221 167.75,-240.25"/>
<text text-anchor="middle" x="133.88" y="-226.75" font-family="Helvetica,sans-Serif" font-size="10.00">Exception.h</text>
</a>
</g>
</g>
<!-- Node14&#45;&gt;Node16 -->
<g id="edge19_Node000014_Node000016" class="edge">
<title>Node14&#45;&gt;Node16</title>
<g id="a_edge19_Node000014_Node000016"><a xlink:title=" ">
<path fill="none" stroke="#63b8ff" d="M238.5,-275.84C218.59,-267.43 188.64,-254.77 165.87,-245.15"/>
<polygon fill="#63b8ff" stroke="#63b8ff" points="167.32,-241.96 156.75,-241.29 164.6,-248.41 167.32,-241.96"/>
</a>
</g>
</g>
<!-- Node15&#45;&gt;Node5 -->
<g id="edge17_Node000015_Node000005" class="edge">
<title>Node15&#45;&gt;Node5</title>
<g id="a_edge17_Node000015_Node000005"><a xlink:title=" ">
<path fill="none" stroke="#63b8ff" d="M295.66,-222.27C298.77,-221.78 301.87,-221.35 304.88,-221 693.28,-176.08 794.22,-217.28 1183.88,-185 1193.37,-184.21 1203.57,-183.09 1213.13,-181.92"/>
<polygon fill="#63b8ff" stroke="#63b8ff" points="1213.42,-185.41 1222.89,-180.67 1212.53,-178.47 1213.42,-185.41"/>
</a>
</g>
</g>
<!-- Node15&#45;&gt;Node11 -->
<g id="edge18_Node000015_Node000011" class="edge">
<title>Node15&#45;&gt;Node11</title>
<g id="a_edge18_Node000015_Node000011"><a xlink:title=" ">
<path fill="none" stroke="#63b8ff" d="M295.67,-222.31C298.77,-221.81 301.87,-221.37 304.88,-221 604.68,-184.44 968.59,-177.83 1095.01,-176.64"/>
<polygon fill="#63b8ff" stroke="#63b8ff" points="1095,-180.14 1104.97,-176.55 1094.94,-173.14 1095,-180.14"/>
</a>
</g>
</g>
<!-- Node16&#45;&gt;Node7 -->
<g id="edge20_Node000016_Node000007" class="edge">
<title>Node16&#45;&gt;Node7</title>
<g id="a_edge20_Node000016_Node000007"><a xlink:title=" ">
<path fill="none" stroke="#63b8ff" d="M134.06,-220.5C134.84,-206.81 138.28,-180.93 152.88,-165.75 222.68,-93.14 347.32,-73.31 409.09,-67.9"/>
<polygon fill="#63b8ff" stroke="#63b8ff" points="409.01,-71.42 418.71,-67.15 408.46,-64.44 409.01,-71.42"/>
</a>
</g>
</g>
<!-- Node17 -->
<g id="Node000017" class="node">
<title>Node17</title>
<g id="a_Node000017"><a xlink:title=" ">
<polygon fill="#e0e0e0" stroke="#999999" points="219.88,-185 161.88,-185 161.88,-165.75 219.88,-165.75 219.88,-185"/>
<text text-anchor="middle" x="190.88" y="-171.5" font-family="Helvetica,sans-Serif" font-size="10.00">exception</text>
</a>
</g>
</g>
<!-- Node16&#45;&gt;Node17 -->
<g id="edge21_Node000016_Node000017" class="edge">
<title>Node16&#45;&gt;Node17</title>
<g id="a_edge21_Node000016_Node000017"><a xlink:title=" ">
<path fill="none" stroke="#63b8ff" d="M143.54,-220.59C151.62,-213.05 163.34,-202.1 173.1,-192.98"/>
<polygon fill="#63b8ff" stroke="#63b8ff" points="175.32,-195.69 180.24,-186.31 170.55,-190.58 175.32,-195.69"/>
</a>
</g>
</g>
<!-- Node19 -->
<g id="Node000019" class="node">
<title>Node19</title>
<g id="a_Node000019"><a xlink:title=" ">
<polygon fill="#e0e0e0" stroke="#999999" points="367.62,-240.25 314.12,-240.25 314.12,-221 367.62,-221 367.62,-240.25"/>
<text text-anchor="middle" x="340.88" y="-226.75" font-family="Helvetica,sans-Serif" font-size="10.00">iostream</text>
</a>
</g>
</g>
<!-- Node18&#45;&gt;Node19 -->
<g id="edge23_Node000018_Node000019" class="edge">
<title>Node18&#45;&gt;Node19</title>
<g id="a_edge23_Node000018_Node000019"><a xlink:title=" ">
<path fill="none" stroke="#63b8ff" d="M431.38,-275.84C414.47,-267.58 389.19,-255.23 369.64,-245.68"/>
<polygon fill="#63b8ff" stroke="#63b8ff" points="371.34,-242.61 360.82,-241.37 368.26,-248.9 371.34,-242.61"/>
</a>
</g>
</g>
<!-- Node20&#45;&gt;Node21 -->
<g id="edge25_Node000020_Node000021" class="edge">
<title>Node20&#45;&gt;Node21</title>
<g id="a_edge25_Node000020_Node000021"><a xlink:title=" ">
<path fill="none" stroke="#63b8ff" d="M126.07,-386.58C123.94,-379.92 120.93,-370.49 118.23,-362.03"/>
<polygon fill="#63b8ff" stroke="#63b8ff" points="121.58,-361.01 115.2,-352.55 114.91,-363.14 121.58,-361.01"/>
</a>
</g>
</g>
<!-- Node22 -->
<g id="Node000022" class="node">
<title>Node22</title>
<g id="a_Node000022"><a xlink:href="_chrono_8h.html" target="_top" xlink:title=" ">
<polygon fill="white" stroke="#666666" points="55.75,-295.5 0,-295.5 0,-276.25 55.75,-276.25 55.75,-295.5"/>
<text text-anchor="middle" x="27.88" y="-282" font-family="Helvetica,sans-Serif" font-size="10.00">Chrono.h</text>
</a>
</g>
</g>
<!-- Node21&#45;&gt;Node22 -->
<g id="edge26_Node000021_Node000022" class="edge">
<title>Node21&#45;&gt;Node22</title>
<g id="a_edge26_Node000021_Node000022"><a xlink:title=" ">
<path fill="none" stroke="#63b8ff" d="M97.63,-331.09C85.08,-323.14 66.54,-311.39 51.73,-302"/>
<polygon fill="#63b8ff" stroke="#63b8ff" points="53.79,-299.16 43.47,-296.76 50.04,-305.07 53.79,-299.16"/>
</a>
</g>
</g>
<!-- Node24 -->
<g id="Node000024" class="node">
<title>Node24</title>
<g id="a_Node000024"><a xlink:title=" ">
<polygon fill="#e0e0e0" stroke="#999999" points="116.38,-295.5 73.38,-295.5 73.38,-276.25 116.38,-276.25 116.38,-295.5"/>
<text text-anchor="middle" x="94.88" y="-282" font-family="Helvetica,sans-Serif" font-size="10.00">thread</text>
</a>
</g>
</g>
<!-- Node21&#45;&gt;Node24 -->
<g id="edge29_Node000021_Node000024" class="edge">
<title>Node21&#45;&gt;Node24</title>
<g id="a_edge29_Node000021_Node000024"><a xlink:title=" ">
<path fill="none" stroke="#63b8ff" d="M109.07,-331.33C106.94,-324.67 103.93,-315.24 101.23,-306.78"/>
<polygon fill="#63b8ff" stroke="#63b8ff" points="104.58,-305.76 98.2,-297.3 97.91,-307.89 104.58,-305.76"/>
</a>
</g>
</g>
<!-- Node25 -->
<g id="Node000025" class="node">
<title>Node25</title>
<g id="a_Node000025"><a xlink:title=" ">
<polygon fill="#e0e0e0" stroke="#999999" points="175.25,-295.5 134.5,-295.5 134.5,-276.25 175.25,-276.25 175.25,-295.5"/>
<text text-anchor="middle" x="154.88" y="-282" font-family="Helvetica,sans-Serif" font-size="10.00">future</text>
</a>
</g>
</g>
<!-- Node21&#45;&gt;Node25 -->
<g id="edge30_Node000021_Node000025" class="edge">
<title>Node21&#45;&gt;Node25</title>
<g id="a_edge30_Node000021_Node000025"><a xlink:title=" ">
<path fill="none" stroke="#63b8ff" d="M118.98,-331.33C124.79,-324.13 133.21,-313.71 140.43,-304.76"/>
<polygon fill="#63b8ff" stroke="#63b8ff" points="143.11,-307.02 146.67,-297.04 137.66,-302.62 143.11,-307.02"/>
</a>
</g>
</g>
<!-- Node22&#45;&gt;Node7 -->
<g id="edge27_Node000022_Node000007" class="edge">
<title>Node22&#45;&gt;Node7</title>
<g id="a_edge27_Node000022_Node000007"><a xlink:title=" ">
<path fill="none" stroke="#63b8ff" d="M26.27,-275.91C24.43,-262.86 22.81,-238.31 32.88,-221 76.86,-145.33 114.8,-143.47 195.88,-110.5 267.9,-81.21 359.34,-71.1 409.26,-67.64"/>
<polygon fill="#63b8ff" stroke="#63b8ff" points="409.16,-71.15 418.92,-67.03 408.72,-64.17 409.16,-71.15"/>
</a>
</g>
</g>
<!-- Node23 -->
<g id="Node000023" class="node">
<title>Node23</title>
<g id="a_Node000023"><a xlink:title=" ">
<polygon fill="#e0e0e0" stroke="#999999" points="81.88,-240.25 41.88,-240.25 41.88,-221 81.88,-221 81.88,-240.25"/>
<text text-anchor="middle" x="61.88" y="-226.75" font-family="Helvetica,sans-Serif" font-size="10.00">ctime</text>
</a>
</g>
</g>
<!-- Node22&#45;&gt;Node23 -->
<g id="edge28_Node000022_Node000023" class="edge">
<title>Node22&#45;&gt;Node23</title>
<g id="a_edge28_Node000022_Node000023"><a xlink:title=" ">
<path fill="none" stroke="#63b8ff" d="M33.49,-276.08C37.99,-269.03 44.46,-258.9 50.09,-250.08"/>
<polygon fill="#63b8ff" stroke="#63b8ff" points="52.89,-252.2 55.32,-241.88 46.99,-248.43 52.89,-252.2"/>
</a>
</g>
</g>
<!-- Node27&#45;&gt;Node11 -->
<g id="edge36_Node000027_Node000011" class="edge">
<title>Node27&#45;&gt;Node11</title>
<g id="a_edge36_Node000027_Node000011"><a xlink:title=" ">
<path fill="none" stroke="#63b8ff" d="M896.66,-441.75C907.64,-408.08 951.17,-286.84 1027.88,-221 1047.11,-204.49 1073.19,-193.64 1095.45,-186.79"/>
<polygon fill="#63b8ff" stroke="#63b8ff" points="1096.26,-190.19 1104.9,-184.06 1094.32,-183.47 1096.26,-190.19"/>
</a>
</g>
</g>
<!-- Node28 -->
<g id="Node000028" class="node">
<title>Node28</title>
<g id="a_Node000028"><a xlink:href="_option_types_8h.html" target="_top" xlink:title=" ">
<polygon fill="white" stroke="#666666" points="1066.38,-350.75 987.38,-350.75 987.38,-331.5 1066.38,-331.5 1066.38,-350.75"/>
<text text-anchor="middle" x="1026.88" y="-337.25" font-family="Helvetica,sans-Serif" font-size="10.00">OptionTypes.h</text>
</a>
</g>
</g>
<!-- Node27&#45;&gt;Node28 -->
<g id="edge33_Node000027_Node000028" class="edge">
<title>Node27&#45;&gt;Node28</title>
<g id="a_edge33_Node000027_Node000028"><a xlink:title=" ">
<path fill="none" stroke="#63b8ff" d="M914.27,-441.6C931,-433.63 954.8,-420.97 972.88,-406 989.1,-392.57 1004.27,-373.85 1014.38,-360.15"/>
<polygon fill="#63b8ff" stroke="#63b8ff" points="1017.2,-362.23 1020.17,-352.06 1011.5,-358.15 1017.2,-362.23"/>
</a>
</g>
</g>
<!-- Node29 -->
<g id="Node000029" class="node">
<title>Node29</title>
<g id="a_Node000029"><a xlink:href="_defaults_8h.html" target="_top" xlink:title=" ">
<polygon fill="white" stroke="#666666" points="880.38,-406 819.38,-406 819.38,-386.75 880.38,-386.75 880.38,-406"/>
<text text-anchor="middle" x="849.88" y="-392.5" font-family="Helvetica,sans-Serif" font-size="10.00">Defaults.h</text>
</a>
</g>
</g>
<!-- Node27&#45;&gt;Node29 -->
<g id="edge37_Node000027_Node000029" class="edge">
<title>Node27&#45;&gt;Node29</title>
<g id="a_edge37_Node000027_Node000029"><a xlink:title=" ">
<path fill="none" stroke="#63b8ff" d="M886.61,-441.83C880.59,-434.55 871.86,-423.98 864.42,-414.98"/>
<polygon fill="#63b8ff" stroke="#63b8ff" points="867.33,-413.01 858.26,-407.53 861.93,-417.46 867.33,-413.01"/>
</a>
</g>
</g>
<!-- Node39 -->
<g id="Node000039" class="node">
<title>Node39</title>
<g id="a_Node000039"><a xlink:title=" ">
<polygon fill="#e0e0e0" stroke="#999999" points="801.75,-406 746,-406 746,-386.75 801.75,-386.75 801.75,-406"/>
<text text-anchor="middle" x="773.88" y="-392.5" font-family="Helvetica,sans-Serif" font-size="10.00">algorithm</text>
</a>
</g>
</g>
<!-- Node27&#45;&gt;Node39 -->
<g id="edge54_Node000027_Node000039" class="edge">
<title>Node27&#45;&gt;Node39</title>
<g id="a_edge54_Node000027_Node000039"><a xlink:title=" ">
<path fill="none" stroke="#63b8ff" d="M873.52,-441.59C854.64,-433.22 826.29,-420.63 804.65,-411.03"/>
<polygon fill="#63b8ff" stroke="#63b8ff" points="806.27,-407.92 795.71,-407.07 803.44,-414.32 806.27,-407.92"/>
</a>
</g>
</g>
<!-- Node28&#45;&gt;Node5 -->
<g id="edge34_Node000028_Node000005" class="edge">
<title>Node28&#45;&gt;Node5</title>
<g id="a_edge34_Node000028_Node000005"><a xlink:title=" ">
<path fill="none" stroke="#63b8ff" d="M1029.44,-331.1C1036.73,-306.02 1058.21,-236.3 1075.88,-221 1096.2,-203.39 1167.38,-189.52 1213.04,-182.16"/>
<polygon fill="#63b8ff" stroke="#63b8ff" points="1213.5,-185.64 1222.84,-180.63 1212.42,-178.72 1213.5,-185.64"/>
</a>
</g>
</g>
<!-- Node28&#45;&gt;Node11 -->
<g id="edge35_Node000028_Node000011" class="edge">
<title>Node28&#45;&gt;Node11</title>
<g id="a_edge35_Node000028_Node000011"><a xlink:title=" ">
<path fill="none" stroke="#63b8ff" d="M1025.4,-331.3C1022.36,-309.99 1017.63,-255.01 1042.88,-221 1055.6,-203.85 1076.48,-193.12 1095.7,-186.5"/>
<polygon fill="#63b8ff" stroke="#63b8ff" points="1096.51,-189.92 1105.01,-183.59 1094.42,-183.23 1096.51,-189.92"/>
</a>
</g>
</g>
<!-- Node29&#45;&gt;Node13 -->
<g id="edge38_Node000029_Node000013" class="edge">
<title>Node29&#45;&gt;Node13</title>
<g id="a_edge38_Node000029_Node000013"><a xlink:title=" ">
<path fill="none" stroke="#63b8ff" d="M819.26,-388.39C816.43,-387.81 813.6,-387.26 810.88,-386.75 723.35,-370.54 620.52,-356.16 561.4,-348.34"/>
<polygon fill="#63b8ff" stroke="#63b8ff" points="562.05,-344.9 551.68,-347.07 561.14,-351.84 562.05,-344.9"/>
</a>
</g>
</g>
<!-- Node29&#45;&gt;Node21 -->
<g id="edge40_Node000029_Node000021" class="edge">
<title>Node29&#45;&gt;Node21</title>
<g id="a_edge40_Node000029_Node000021"><a xlink:title=" ">
<path fill="none" stroke="#63b8ff" d="M819.3,-388.15C816.46,-387.62 813.62,-387.14 810.88,-386.75 569.63,-352.58 277.82,-344.56 162.38,-342.69"/>
<polygon fill="#63b8ff" stroke="#63b8ff" points="162.68,-339.19 152.63,-342.54 162.58,-346.19 162.68,-339.19"/>
</a>
</g>
</g>
<!-- Node29&#45;&gt;Node28 -->
<g id="edge39_Node000029_Node000028" class="edge">
<title>Node29&#45;&gt;Node28</title>
<g id="a_edge39_Node000029_Node000028"><a xlink:title=" ">
<path fill="none" stroke="#63b8ff" d="M879.9,-386.34C909.02,-377.58 953.41,-364.23 985.79,-354.48"/>
<polygon fill="#63b8ff" stroke="#63b8ff" points="986.69,-357.87 995.25,-351.64 984.67,-351.17 986.69,-357.87"/>
</a>
</g>
</g>
<!-- Node30 -->
<g id="Node000030" class="node">
<title>Node30</title>
<g id="a_Node000030"><a xlink:href="_i_o_utils_8h.html" target="_top" xlink:title=" ">
<polygon fill="white" stroke="#666666" points="669.38,-295.5 614.38,-295.5 614.38,-276.25 669.38,-276.25 669.38,-295.5"/>
<text text-anchor="middle" x="641.88" y="-282" font-family="Helvetica,sans-Serif" font-size="10.00">IOUtils.h</text>
</a>
</g>
</g>
<!-- Node29&#45;&gt;Node30 -->
<g id="edge41_Node000029_Node000030" class="edge">
<title>Node29&#45;&gt;Node30</title>
<g id="a_edge41_Node000029_Node000030"><a xlink:title=" ">
<path fill="none" stroke="#63b8ff" d="M832.5,-386.31C796.4,-367.48 713.06,-324.01 669.51,-301.29"/>
<polygon fill="#63b8ff" stroke="#63b8ff" points="671.17,-298.21 660.69,-296.69 667.94,-304.42 671.17,-298.21"/>
</a>
</g>
</g>
<!-- Node30&#45;&gt;Node7 -->
<g id="edge42_Node000030_Node000007" class="edge">
<title>Node30&#45;&gt;Node7</title>
<g id="a_edge42_Node000030_Node000007"><a xlink:title=" ">
<path fill="none" stroke="#63b8ff" d="M613.97,-281.74C565.27,-275.77 467.39,-261.46 440.88,-240.25 413.49,-218.34 409.62,-200.42 414.88,-165.75 419.23,-137.06 430.23,-105.26 437.88,-85.42"/>
<polygon fill="#63b8ff" stroke="#63b8ff" points="441.12,-86.74 441.56,-76.16 434.62,-84.16 441.12,-86.74"/>
</a>
</g>
</g>
<!-- Node30&#45;&gt;Node19 -->
<g id="edge50_Node000030_Node000019" class="edge">
<title>Node30&#45;&gt;Node19</title>
<g id="a_edge50_Node000030_Node000019"><a xlink:title=" ">
<path fill="none" stroke="#63b8ff" d="M614.11,-280.46C566.49,-272.81 466.22,-256.35 381.88,-240.25 380.87,-240.06 379.86,-239.86 378.84,-239.66"/>
<polygon fill="#63b8ff" stroke="#63b8ff" points="379.73,-236.27 369.24,-237.73 378.35,-243.13 379.73,-236.27"/>
</a>
</g>
</g>
<!-- Node31 -->
<g id="Node000031" class="node">
<title>Node31</title>
<g id="a_Node000031"><a xlink:href="_string_utils_8h.html" target="_top" xlink:title=" ">
<polygon fill="white" stroke="#666666" points="531.88,-240.25 461.88,-240.25 461.88,-221 531.88,-221 531.88,-240.25"/>
<text text-anchor="middle" x="496.88" y="-226.75" font-family="Helvetica,sans-Serif" font-size="10.00">StringUtils.h</text>
</a>
</g>
</g>
<!-- Node30&#45;&gt;Node31 -->
<g id="edge43_Node000030_Node000031" class="edge">
<title>Node30&#45;&gt;Node31</title>
<g id="a_edge43_Node000030_Node000031"><a xlink:title=" ">
<path fill="none" stroke="#63b8ff" d="M617.28,-275.84C593.95,-267.27 558.64,-254.31 532.28,-244.63"/>
<polygon fill="#63b8ff" stroke="#63b8ff" points="533.61,-241.39 523.01,-241.22 531.19,-247.96 533.61,-241.39"/>
</a>
</g>
</g>
<!-- Node30&#45;&gt;Node32 -->
<g id="edge53_Node000030_Node000032" class="edge">
<title>Node30&#45;&gt;Node32</title>
<g id="a_edge53_Node000030_Node000032"><a xlink:title=" ">
<path fill="none" stroke="#63b8ff" d="M614.15,-282.21C566.94,-277.07 473.98,-264.12 452.88,-240.25 442.58,-228.6 441.42,-210.71 442.5,-196.82"/>
<polygon fill="#63b8ff" stroke="#63b8ff" points="445.96,-197.35 443.73,-186.99 439.01,-196.48 445.96,-197.35"/>
</a>
</g>
</g>
<!-- Node33 -->
<g id="Node000033" class="node">
<title>Node33</title>
<g id="a_Node000033"><a xlink:title=" ">
<polygon fill="#e0e0e0" stroke="#999999" points="593.38,-240.25 550.38,-240.25 550.38,-221 593.38,-221 593.38,-240.25"/>
<text text-anchor="middle" x="571.88" y="-226.75" font-family="Helvetica,sans-Serif" font-size="10.00">fcntl.h</text>
</a>
</g>
</g>
<!-- Node30&#45;&gt;Node33 -->
<g id="edge46_Node000030_Node000033" class="edge">
<title>Node30&#45;&gt;Node33</title>
<g id="a_edge46_Node000030_Node000033"><a xlink:title=" ">
<path fill="none" stroke="#63b8ff" d="M630,-275.84C619.78,-268.07 604.8,-256.67 592.61,-247.4"/>
<polygon fill="#63b8ff" stroke="#63b8ff" points="594.86,-244.71 584.78,-241.44 590.62,-250.28 594.86,-244.71"/>
</a>
</g>
</g>
<!-- Node34 -->
<g id="Node000034" class="node">
<title>Node34</title>
<g id="a_Node000034"><a xlink:title=" ">
<polygon fill="#e0e0e0" stroke="#999999" points="672.38,-240.25 611.38,-240.25 611.38,-221 672.38,-221 672.38,-240.25"/>
<text text-anchor="middle" x="641.88" y="-226.75" font-family="Helvetica,sans-Serif" font-size="10.00">filesystem</text>
</a>
</g>
</g>
<!-- Node30&#45;&gt;Node34 -->
<g id="edge47_Node000030_Node000034" class="edge">
<title>Node30&#45;&gt;Node34</title>
<g id="a_edge47_Node000030_Node000034"><a xlink:title=" ">
<path fill="none" stroke="#63b8ff" d="M641.88,-276.08C641.88,-269.57 641.88,-260.42 641.88,-252.12"/>
<polygon fill="#63b8ff" stroke="#63b8ff" points="645.38,-252.12 641.88,-242.12 638.38,-252.12 645.38,-252.12"/>
</a>
</g>
</g>
<!-- Node35 -->
<g id="Node000035" class="node">
<title>Node35</title>
<g id="a_Node000035"><a xlink:title=" ">
<polygon fill="#e0e0e0" stroke="#999999" points="739.38,-240.25 690.38,-240.25 690.38,-221 739.38,-221 739.38,-240.25"/>
<text text-anchor="middle" x="714.88" y="-226.75" font-family="Helvetica,sans-Serif" font-size="10.00">fstream</text>
</a>
</g>
</g>
<!-- Node30&#45;&gt;Node35 -->
<g id="edge48_Node000030_Node000035" class="edge">
<title>Node30&#45;&gt;Node35</title>
<g id="a_edge48_Node000030_Node000035"><a xlink:title=" ">
<path fill="none" stroke="#63b8ff" d="M654.26,-275.84C665.02,-267.99 680.85,-256.45 693.63,-247.12"/>
<polygon fill="#63b8ff" stroke="#63b8ff" points="695.44,-250.14 701.45,-241.42 691.31,-244.48 695.44,-250.14"/>
</a>
</g>
</g>
<!-- Node36 -->
<g id="Node000036" class="node">
<title>Node36</title>
<g id="a_Node000036"><a xlink:title=" ">
<polygon fill="#e0e0e0" stroke="#999999" points="806,-240.25 757.75,-240.25 757.75,-221 806,-221 806,-240.25"/>
<text text-anchor="middle" x="781.88" y="-226.75" font-family="Helvetica,sans-Serif" font-size="10.00">istream</text>
</a>
</g>
</g>
<!-- Node30&#45;&gt;Node36 -->
<g id="edge49_Node000030_Node000036" class="edge">
<title>Node30&#45;&gt;Node36</title>
<g id="a_edge49_Node000030_Node000036"><a xlink:title=" ">
<path fill="none" stroke="#63b8ff" d="M665.62,-275.84C688.05,-267.31 721.94,-254.42 747.35,-244.76"/>
<polygon fill="#63b8ff" stroke="#63b8ff" points="748.49,-248.07 756.59,-241.24 746,-241.52 748.49,-248.07"/>
</a>
</g>
</g>
<!-- Node37 -->
<g id="Node000037" class="node">
<title>Node37</title>
<g id="a_Node000037"><a xlink:title=" ">
<polygon fill="#e0e0e0" stroke="#999999" points="875.5,-240.25 824.25,-240.25 824.25,-221 875.5,-221 875.5,-240.25"/>
<text text-anchor="middle" x="849.88" y="-226.75" font-family="Helvetica,sans-Serif" font-size="10.00">sstream</text>
</a>
</g>
</g>
<!-- Node30&#45;&gt;Node37 -->
<g id="edge51_Node000030_Node000037" class="edge">
<title>Node30&#45;&gt;Node37</title>
<g id="a_edge51_Node000030_Node000037"><a xlink:title=" ">
<path fill="none" stroke="#63b8ff" d="M669.5,-277.8C706.36,-268.36 771.78,-251.62 812.88,-241.1"/>
<polygon fill="#63b8ff" stroke="#63b8ff" points="813.5,-244.55 822.31,-238.68 811.76,-237.77 813.5,-244.55"/>
</a>
</g>
</g>
<!-- Node38 -->
<g id="Node000038" class="node">
<title>Node38</title>
<g id="a_Node000038"><a xlink:title=" ">
<polygon fill="#e0e0e0" stroke="#999999" points="952.62,-240.25 893.12,-240.25 893.12,-221 952.62,-221 952.62,-240.25"/>
<text text-anchor="middle" x="922.88" y="-226.75" font-family="Helvetica,sans-Serif" font-size="10.00">sys/stat.h</text>
</a>
</g>
</g>
<!-- Node30&#45;&gt;Node38 -->
<g id="edge52_Node000030_Node000038" class="edge">
<title>Node30&#45;&gt;Node38</title>
<g id="a_edge52_Node000030_Node000038"><a xlink:title=" ">
<path fill="none" stroke="#63b8ff" d="M669.64,-280.16C712.91,-272.74 799.3,-257.58 881.93,-240.79"/>
<polygon fill="#63b8ff" stroke="#63b8ff" points="882.45,-244.26 891.55,-238.83 881.05,-237.4 882.45,-244.26"/>
</a>
</g>
</g>
<!-- Node31&#45;&gt;Node7 -->
<g id="edge44_Node000031_Node000007" class="edge">
<title>Node31&#45;&gt;Node7</title>
<g id="a_edge44_Node000031_Node000007"><a xlink:title=" ">
<path fill="none" stroke="#63b8ff" d="M494.13,-220.82C486.21,-195.39 463.15,-121.35 452.02,-85.62"/>
<polygon fill="#63b8ff" stroke="#63b8ff" points="455.4,-84.67 449.08,-76.17 448.71,-86.76 455.4,-84.67"/>
</a>
</g>
</g>
<!-- Node31&#45;&gt;Node32 -->
<g id="edge45_Node000031_Node000032" class="edge">
<title>Node31&#45;&gt;Node32</title>
<g id="a_edge45_Node000031_Node000032"><a xlink:title=" ">
<path fill="none" stroke="#63b8ff" d="M488.45,-220.83C481.34,-213.4 470.93,-202.54 462.19,-193.41"/>
<polygon fill="#63b8ff" stroke="#63b8ff" points="464.97,-191.25 455.53,-186.45 459.92,-196.1 464.97,-191.25"/>
</a>
</g>
</g>
<!-- Node41 -->
<g id="Node000041" class="node">
<title>Node41</title>
<g id="a_Node000041"><a xlink:title=" ">
<polygon fill="#e0e0e0" stroke="#999999" points="1067,-406 1024.75,-406 1024.75,-386.75 1067,-386.75 1067,-406"/>
<text text-anchor="middle" x="1045.88" y="-392.5" font-family="Helvetica,sans-Serif" font-size="10.00">cstdio</text>
</a>
</g>
</g>
<!-- Node40&#45;&gt;Node41 -->
<g id="edge57_Node000040_Node000041" class="edge">
<title>Node40&#45;&gt;Node41</title>
<g id="a_edge57_Node000040_Node000041"><a xlink:title=" ">
<path fill="none" stroke="#63b8ff" d="M1009.14,-441.83C1015.16,-434.55 1023.89,-423.98 1031.33,-414.98"/>
<polygon fill="#63b8ff" stroke="#63b8ff" points="1033.82,-417.46 1037.49,-407.53 1028.42,-413.01 1033.82,-417.46"/>
</a>
</g>
</g>
<!-- Node42&#45;&gt;Node5 -->
<g id="edge61_Node000042_Node000005" class="edge">
<title>Node42&#45;&gt;Node5</title>
<g id="a_edge61_Node000042_Node000005"><a xlink:title=" ">
<path fill="none" stroke="#63b8ff" d="M1444.5,-221.13C1403.04,-211.45 1335.49,-195.67 1292.66,-185.67"/>
<polygon fill="#63b8ff" stroke="#63b8ff" points="1293.55,-182.28 1283.02,-183.42 1291.96,-189.1 1293.55,-182.28"/>
</a>
</g>
</g>
<!-- Node42&#45;&gt;Node11 -->
<g id="edge62_Node000042_Node000011" class="edge">
<title>Node42&#45;&gt;Node11</title>
<g id="a_edge62_Node000042_Node000011"><a xlink:title=" ">
<path fill="none" stroke="#63b8ff" d="M1444.49,-223.93C1382.14,-214.16 1255.02,-194.25 1186.72,-183.55"/>
<polygon fill="#63b8ff" stroke="#63b8ff" points="1187.39,-180.12 1176.97,-182.03 1186.31,-187.03 1187.39,-180.12"/>
</a>
</g>
</g>
<!-- Node43 -->
<g id="Node000043" class="node">
<title>Node43</title>
<g id="a_Node000043"><a xlink:href="_peddle_types_8h.html" target="_top" xlink:title=" ">
<polygon fill="white" stroke="#666666" points="1224.12,-129.75 1143.62,-129.75 1143.62,-110.5 1224.12,-110.5 1224.12,-129.75"/>
<text text-anchor="middle" x="1183.88" y="-116.25" font-family="Helvetica,sans-Serif" font-size="10.00">PeddleTypes.h</text>
</a>
</g>
</g>
<!-- Node42&#45;&gt;Node43 -->
<g id="edge63_Node000042_Node000043" class="edge">
<title>Node42&#45;&gt;Node43</title>
<g id="a_edge63_Node000042_Node000043"><a xlink:title=" ">
<path fill="none" stroke="#63b8ff" d="M1456.06,-220.56C1403.43,-201.33 1280.44,-156.4 1219.46,-134.12"/>
<polygon fill="#63b8ff" stroke="#63b8ff" points="1220.84,-130.9 1210.25,-130.76 1218.44,-137.48 1220.84,-130.9"/>
</a>
</g>
</g>
<!-- Node43&#45;&gt;Node7 -->
<g id="edge64_Node000043_Node000007" class="edge">
<title>Node43&#45;&gt;Node7</title>
<g id="a_edge64_Node000043_Node000007"><a xlink:title=" ">
<path fill="none" stroke="#63b8ff" d="M1143.15,-116.19C1012.73,-106.78 606.75,-77.48 482.43,-68.51"/>
<polygon fill="#63b8ff" stroke="#63b8ff" points="483.03,-65.05 472.8,-67.82 482.53,-72.03 483.03,-65.05"/>
</a>
</g>
</g>
<!-- Node44&#45;&gt;Node5 -->
<g id="edge66_Node000044_Node000005" class="edge">
<title>Node44&#45;&gt;Node5</title>
<g id="a_edge66_Node000044_Node000005"><a xlink:title=" ">
<path fill="none" stroke="#63b8ff" d="M1360.48,-275.92C1381.8,-263.88 1413.09,-241.6 1397.88,-221 1373.94,-188.59 1326.84,-178.98 1292.8,-176.49"/>
<polygon fill="#63b8ff" stroke="#63b8ff" points="1293.05,-173 1282.88,-175.96 1292.68,-179.99 1293.05,-173"/>
</a>
</g>
</g>
<!-- Node44&#45;&gt;Node11 -->
<g id="edge67_Node000044_Node000011" class="edge">
<title>Node44&#45;&gt;Node11</title>
<g id="a_edge67_Node000044_Node000011"><a xlink:title=" ">
<path fill="none" stroke="#63b8ff" d="M1326,-275.81C1291.02,-257.02 1210.35,-213.69 1167.98,-190.93"/>
<polygon fill="#63b8ff" stroke="#63b8ff" points="1169.64,-187.85 1159.18,-186.21 1166.33,-194.02 1169.64,-187.85"/>
</a>
</g>
</g>
<!-- Node45 -->
<g id="Node000045" class="node">
<title>Node45</title>
<g id="a_Node000045"><a xlink:href="_par_cable_types_8h.html" target="_top" xlink:title=" ">
<polygon fill="white" stroke="#666666" points="1388.38,-240.25 1297.38,-240.25 1297.38,-221 1388.38,-221 1388.38,-240.25"/>
<text text-anchor="middle" x="1342.88" y="-226.75" font-family="Helvetica,sans-Serif" font-size="10.00">ParCableTypes.h</text>
</a>
</g>
</g>
<!-- Node44&#45;&gt;Node45 -->
<g id="edge68_Node000044_Node000045" class="edge">
<title>Node44&#45;&gt;Node45</title>
<g id="a_edge68_Node000044_Node000045"><a xlink:title=" ">
<path fill="none" stroke="#63b8ff" d="M1342.88,-276.08C1342.88,-269.57 1342.88,-260.42 1342.88,-252.12"/>
<polygon fill="#63b8ff" stroke="#63b8ff" points="1346.38,-252.12 1342.88,-242.12 1339.38,-252.12 1346.38,-252.12"/>
</a>
</g>
</g>
<!-- Node45&#45;&gt;Node5 -->
<g id="edge69_Node000045_Node000005" class="edge">
<title>Node45&#45;&gt;Node5</title>
<g id="a_edge69_Node000045_Node000005"><a xlink:title=" ">
<path fill="none" stroke="#63b8ff" d="M1327.61,-220.59C1314.03,-212.56 1293.92,-200.66 1277.98,-191.23"/>
<polygon fill="#63b8ff" stroke="#63b8ff" points="1279.91,-188.3 1269.52,-186.22 1276.34,-194.33 1279.91,-188.3"/>
</a>
</g>
</g>
<!-- Node45&#45;&gt;Node11 -->
<g id="edge70_Node000045_Node000011" class="edge">
<title>Node45&#45;&gt;Node11</title>
<g id="a_edge70_Node000045_Node000011"><a xlink:title=" ">
<path fill="none" stroke="#63b8ff" d="M1308.61,-220.59C1274.95,-211.72 1223.38,-198.12 1186.31,-188.35"/>
<polygon fill="#63b8ff" stroke="#63b8ff" points="1187.34,-185 1176.77,-185.84 1185.55,-191.77 1187.34,-185"/>
</a>
</g>
</g>
</g>
</svg>
