<?xml version="1.0" encoding="UTF-8" standalone="no"?>
<!DOCTYPE svg PUBLIC "-//W3C//DTD SVG 1.1//EN"
 "http://www.w3.org/Graphics/SVG/1.1/DTD/svg11.dtd">
<!-- Generated by graphviz version 10.0.1 (20240210.2158)
 -->
<!-- Title: /Users/hoff/Retro/virtualc64/Emulator/Peripherals/Drive/DriveTypes.h Pages: 1 -->
<svg width="427pt" height="471pt"
 viewBox="0.00 0.00 427.00 471.25" xmlns="http://www.w3.org/2000/svg" xmlns:xlink="http://www.w3.org/1999/xlink">
<g id="graph0" class="graph" transform="scale(1 1) rotate(0) translate(4 467.25)">
<title>/Users/hoff/Retro/virtualc64/Emulator/Peripherals/Drive/DriveTypes.h</title>
<!-- Node1 -->
<g id="Node000001" class="node">
<title>Node1</title>
<g id="a_Node000001"><a xlink:title=" ">
<polygon fill="#999999" stroke="#666666" points="280.75,-463.25 144,-463.25 144,-421.5 280.75,-421.5 280.75,-463.25"/>
<text text-anchor="start" x="152" y="-449.75" font-family="Helvetica,sans-Serif" font-size="10.00">/Users/hoff/Retro/virtualc64</text>
<text text-anchor="start" x="152" y="-438.5" font-family="Helvetica,sans-Serif" font-size="10.00">/Emulator/Peripherals/Drive</text>
<text text-anchor="middle" x="212.38" y="-427.25" font-family="Helvetica,sans-Serif" font-size="10.00">/DriveTypes.h</text>
</a>
</g>
</g>
<!-- Node2 -->
<g id="Node000002" class="node">
<title>Node2</title>
<g id="a_Node000002"><a xlink:href="_drive_8h_source.html" target="_top" xlink:title=" ">
<polygon fill="white" stroke="#666666" points="136.75,-307.75 0,-307.75 0,-266 136.75,-266 136.75,-307.75"/>
<text text-anchor="start" x="8" y="-294.25" font-family="Helvetica,sans-Serif" font-size="10.00">/Users/hoff/Retro/virtualc64</text>
<text text-anchor="start" x="8" y="-283" font-family="Helvetica,sans-Serif" font-size="10.00">/Emulator/Peripherals/Drive</text>
<text text-anchor="middle" x="68.38" y="-271.75" font-family="Helvetica,sans-Serif" font-size="10.00">/Drive.h</text>
</a>
</g>
</g>
<!-- Node1&#45;&gt;Node2 -->
<g id="edge1_Node000001_Node000002" class="edge">
<title>Node1&#45;&gt;Node2</title>
<g id="a_edge1_Node000001_Node000002"><a xlink:title=" ">
<path fill="none" stroke="#63b8ff" d="M133.3,-419.65C115.95,-411.5 99.24,-400.44 87.38,-385.5 69.76,-363.33 66.92,-329.5 67.15,-308.05"/>
<polygon fill="#63b8ff" stroke="#63b8ff" points="131.61,-422.73 142.17,-423.51 134.4,-416.31 131.61,-422.73"/>
</a>
</g>
</g>
<!-- Node7 -->
<g id="Node000007" class="node">
<title>Node7</title>
<g id="a_Node000007"><a xlink:href="_drive_memory_8h_source.html" target="_top" xlink:title=" ">
<polygon fill="white" stroke="#666666" points="232.75,-385.5 96,-385.5 96,-343.75 232.75,-343.75 232.75,-385.5"/>
<text text-anchor="start" x="104" y="-372" font-family="Helvetica,sans-Serif" font-size="10.00">/Users/hoff/Retro/virtualc64</text>
<text text-anchor="start" x="104" y="-360.75" font-family="Helvetica,sans-Serif" font-size="10.00">/Emulator/Peripherals/Drive</text>
<text text-anchor="middle" x="164.38" y="-349.5" font-family="Helvetica,sans-Serif" font-size="10.00">/DriveMemory.h</text>
</a>
</g>
</g>
<!-- Node1&#45;&gt;Node7 -->
<g id="edge6_Node000001_Node000007" class="edge">
<title>Node1&#45;&gt;Node7</title>
<g id="a_edge6_Node000001_Node000007"><a xlink:title=" ">
<path fill="none" stroke="#63b8ff" d="M193.4,-411.43C187.99,-402.89 182.23,-393.8 177.27,-385.98"/>
<polygon fill="#63b8ff" stroke="#63b8ff" points="190.39,-413.22 198.7,-419.8 196.31,-409.48 190.39,-413.22"/>
</a>
</g>
</g>
<!-- Node8 -->
<g id="Node000008" class="node">
<title>Node8</title>
<g id="a_Node000008"><a xlink:href="_par_cable_8h_source.html" target="_top" xlink:title=" ">
<polygon fill="white" stroke="#666666" points="328.75,-307.75 192,-307.75 192,-266 328.75,-266 328.75,-307.75"/>
<text text-anchor="start" x="200" y="-294.25" font-family="Helvetica,sans-Serif" font-size="10.00">/Users/hoff/Retro/virtualc64</text>
<text text-anchor="start" x="200" y="-283" font-family="Helvetica,sans-Serif" font-size="10.00">/Emulator/Peripherals/Drive</text>
<text text-anchor="middle" x="260.38" y="-271.75" font-family="Helvetica,sans-Serif" font-size="10.00">/ParCable.h</text>
</a>
</g>
</g>
<!-- Node1&#45;&gt;Node8 -->
<g id="edge9_Node000001_Node000008" class="edge">
<title>Node1&#45;&gt;Node8</title>
<g id="a_edge9_Node000001_Node000008"><a xlink:title=" ">
<path fill="none" stroke="#63b8ff" d="M230.15,-410.97C234.32,-402.9 238.4,-394.04 241.38,-385.5 250.41,-359.58 255.55,-328.2 258.15,-308.14"/>
<polygon fill="#63b8ff" stroke="#63b8ff" points="227.1,-409.25 225.44,-419.71 233.27,-412.57 227.1,-409.25"/>
</a>
</g>
</g>
<!-- Node9 -->
<g id="Node000009" class="node">
<title>Node9</title>
<g id="a_Node000009"><a xlink:href="_virtual_c64_types_8h.html" target="_top" xlink:title=" ">
<polygon fill="white" stroke="#666666" points="419,-230 277.75,-230 277.75,-199.5 419,-199.5 419,-230"/>
<text text-anchor="start" x="285.75" y="-216.5" font-family="Helvetica,sans-Serif" font-size="10.00">/Users/hoff/Retro/virtualc64</text>
<text text-anchor="middle" x="348.38" y="-205.25" font-family="Helvetica,sans-Serif" font-size="10.00">/Emulator/VirtualC64Types.h</text>
</a>
</g>
</g>
<!-- Node1&#45;&gt;Node9 -->
<g id="edge11_Node000001_Node000009" class="edge">
<title>Node1&#45;&gt;Node9</title>
<g id="a_edge11_Node000001_Node000009"><a xlink:title=" ">
<path fill="none" stroke="#63b8ff" d="M248.32,-414.05C277.58,-389.63 317.21,-351.08 337.38,-307.75 349.18,-282.37 350.02,-248.99 349.35,-230.21"/>
<polygon fill="#63b8ff" stroke="#63b8ff" points="246.32,-411.17 240.78,-420.21 250.74,-416.6 246.32,-411.17"/>
</a>
</g>
</g>
<!-- Node3 -->
<g id="Node000003" class="node">
<title>Node3</title>
<g id="a_Node000003"><a xlink:href="_c64_8h_source.html" target="_top" xlink:title=" ">
<polygon fill="white" stroke="#666666" points="252.25,-230 106.5,-230 106.5,-199.5 252.25,-199.5 252.25,-230"/>
<text text-anchor="start" x="114.5" y="-216.5" font-family="Helvetica,sans-Serif" font-size="10.00">/Users/hoff/Retro/virtualc64</text>
<text text-anchor="middle" x="179.38" y="-205.25" font-family="Helvetica,sans-Serif" font-size="10.00">/Emulator/Components/C64.h</text>
</a>
</g>
</g>
<!-- Node2&#45;&gt;Node3 -->
<g id="edge2_Node000002_Node000003" class="edge">
<title>Node2&#45;&gt;Node3</title>
<g id="a_edge2_Node000002_Node000003"><a xlink:title=" ">
<path fill="none" stroke="#63b8ff" d="M109.96,-259.6C125.59,-249.73 142.78,-238.87 156.15,-230.42"/>
<polygon fill="#63b8ff" stroke="#63b8ff" points="108.35,-256.48 101.76,-264.78 112.08,-262.4 108.35,-256.48"/>
</a>
</g>
</g>
<!-- Node4 -->
<g id="Node000004" class="node">
<title>Node4</title>
<g id="a_Node000004"><a xlink:href="_emulator_8h_source.html" target="_top" xlink:title=" ">
<polygon fill="white" stroke="#666666" points="287.38,-163.5 121.38,-163.5 121.38,-133 287.38,-133 287.38,-163.5"/>
<text text-anchor="start" x="129.38" y="-150" font-family="Helvetica,sans-Serif" font-size="10.00">/Users/hoff/Retro/virtualc64</text>
<text text-anchor="middle" x="204.38" y="-138.75" font-family="Helvetica,sans-Serif" font-size="10.00">/Emulator/Components/Emulator.h</text>
</a>
</g>
</g>
<!-- Node3&#45;&gt;Node4 -->
<g id="edge3_Node000003_Node000004" class="edge">
<title>Node3&#45;&gt;Node4</title>
<g id="a_edge3_Node000003_Node000004"><a xlink:title=" ">
<path fill="none" stroke="#63b8ff" d="M189.1,-188.66C192.36,-180.25 195.88,-171.16 198.72,-163.83"/>
<polygon fill="#63b8ff" stroke="#63b8ff" points="185.95,-187.11 185.59,-197.7 192.47,-189.64 185.95,-187.11"/>
</a>
</g>
</g>
<!-- Node5 -->
<g id="Node000005" class="node">
<title>Node5</title>
<g id="a_Node000005"><a xlink:href="_virtual_c64_8h.html" target="_top" xlink:title=" ">
<polygon fill="white" stroke="#666666" points="327.75,-97 191,-97 191,-66.5 327.75,-66.5 327.75,-97"/>
<text text-anchor="start" x="199" y="-83.5" font-family="Helvetica,sans-Serif" font-size="10.00">/Users/hoff/Retro/virtualc64</text>
<text text-anchor="middle" x="259.38" y="-72.25" font-family="Helvetica,sans-Serif" font-size="10.00">/Emulator/VirtualC64.h</text>
</a>
</g>
</g>
<!-- Node4&#45;&gt;Node5 -->
<g id="edge4_Node000004_Node000005" class="edge">
<title>Node4&#45;&gt;Node5</title>
<g id="a_edge4_Node000004_Node000005"><a xlink:title=" ">
<path fill="none" stroke="#63b8ff" d="M224.09,-124.13C231.71,-115.19 240.2,-105.24 246.94,-97.33"/>
<polygon fill="#63b8ff" stroke="#63b8ff" points="221.66,-121.58 217.84,-131.46 226.99,-126.12 221.66,-121.58"/>
</a>
</g>
</g>
<!-- Node6 -->
<g id="Node000006" class="node">
<title>Node6</title>
<g id="a_Node000006"><a xlink:href="_headless_8h_source.html" target="_top" xlink:title=" ">
<polygon fill="white" stroke="#666666" points="327.75,-30.5 191,-30.5 191,0 327.75,0 327.75,-30.5"/>
<text text-anchor="start" x="199" y="-17" font-family="Helvetica,sans-Serif" font-size="10.00">/Users/hoff/Retro/virtualc64</text>
<text text-anchor="middle" x="259.38" y="-5.75" font-family="Helvetica,sans-Serif" font-size="10.00">/Emulator/Headless.h</text>
</a>
</g>
</g>
<!-- Node5&#45;&gt;Node6 -->
<g id="edge5_Node000005_Node000006" class="edge">
<title>Node5&#45;&gt;Node6</title>
<g id="a_edge5_Node000005_Node000006"><a xlink:title=" ">
<path fill="none" stroke="#63b8ff" d="M259.38,-54.81C259.38,-46.64 259.38,-37.91 259.38,-30.83"/>
<polygon fill="#63b8ff" stroke="#63b8ff" points="255.88,-54.6 259.38,-64.6 262.88,-54.6 255.88,-54.6"/>
</a>
</g>
</g>
<!-- Node7&#45;&gt;Node2 -->
<g id="edge8_Node000007_Node000002" class="edge">
<title>Node7&#45;&gt;Node2</title>
<g id="a_edge8_Node000007_Node000002"><a xlink:title=" ">
<path fill="none" stroke="#63b8ff" d="M129.92,-336.44C118.13,-327.14 105.16,-316.9 94.17,-308.23"/>
<polygon fill="#63b8ff" stroke="#63b8ff" points="127.44,-338.94 137.46,-342.39 131.78,-333.45 127.44,-338.94"/>
</a>
</g>
</g>
<!-- Node7&#45;&gt;Node3 -->
<g id="edge7_Node000007_Node000003" class="edge">
<title>Node7&#45;&gt;Node3</title>
<g id="a_edge7_Node000007_Node000003"><a xlink:title=" ">
<path fill="none" stroke="#63b8ff" d="M167.56,-332.19C170.75,-300.81 175.5,-253.98 177.89,-230.41"/>
<polygon fill="#63b8ff" stroke="#63b8ff" points="164.11,-331.57 166.58,-341.87 171.07,-332.27 164.11,-331.57"/>
</a>
</g>
</g>
<!-- Node8&#45;&gt;Node3 -->
<g id="edge10_Node000008_Node000003" class="edge">
<title>Node8&#45;&gt;Node3</title>
<g id="a_edge10_Node000008_Node000003"><a xlink:title=" ">
<path fill="none" stroke="#63b8ff" d="M228.41,-258.2C217.45,-248.71 205.62,-238.47 196.32,-230.42"/>
<polygon fill="#63b8ff" stroke="#63b8ff" points="225.95,-260.7 235.8,-264.6 230.53,-255.41 225.95,-260.7"/>
</a>
</g>
</g>
<!-- Node9&#45;&gt;Node5 -->
<g id="edge12_Node000009_Node000005" class="edge">
<title>Node9&#45;&gt;Node5</title>
<g id="a_edge12_Node000009_Node000005"><a xlink:title=" ">
<path fill="none" stroke="#63b8ff" d="M333.33,-189.53C323.15,-173.35 309.26,-151.7 296.38,-133 287.89,-120.69 277.8,-107.05 270.3,-97.09"/>
<polygon fill="#63b8ff" stroke="#63b8ff" points="330.36,-191.38 338.63,-197.99 336.29,-187.66 330.36,-191.38"/>
</a>
</g>
</g>
</g>
</svg>
