<?xml version="1.0" encoding="UTF-8" standalone="no"?>
<!DOCTYPE svg PUBLIC "-//W3C//DTD SVG 1.1//EN"
 "http://www.w3.org/Graphics/SVG/1.1/DTD/svg11.dtd">
<!-- Generated by graphviz version 10.0.1 (20240210.2158)
 -->
<!-- Title: /Users/hoff/Retro/virtualc64/Emulator/Components/Emulator.h Pages: 1 -->
<svg width="4461pt" height="261pt"
 viewBox="0.00 0.00 4460.62 260.50" xmlns="http://www.w3.org/2000/svg" xmlns:xlink="http://www.w3.org/1999/xlink">
<g id="graph0" class="graph" transform="scale(1 1) rotate(0) translate(4 256.5)">
<title>/Users/hoff/Retro/virtualc64/Emulator/Components/Emulator.h</title>
<!-- Node1 -->
<g id="Node000001" class="node">
<title>Node1</title>
<g id="a_Node000001"><a xlink:title=" ">
<polygon fill="#999999" stroke="#666666" points="2303.25,-252.5 2137.25,-252.5 2137.25,-222 2303.25,-222 2303.25,-252.5"/>
<text text-anchor="start" x="2145.25" y="-239" font-family="Helvetica,sans-Serif" font-size="10.00">/Users/hoff/Retro/virtualc64</text>
<text text-anchor="middle" x="2220.25" y="-227.75" font-family="Helvetica,sans-Serif" font-size="10.00">/Emulator/Components/Emulator.h</text>
</a>
</g>
</g>
<!-- Node2 -->
<g id="Node000002" class="node">
<title>Node2</title>
<g id="a_Node000002"><a xlink:href="_core_component_8cpp.html" target="_top" xlink:title=" ">
<polygon fill="white" stroke="#666666" points="176.5,-180.38 0,-180.38 0,-149.88 176.5,-149.88 176.5,-180.38"/>
<text text-anchor="start" x="8" y="-166.88" font-family="Helvetica,sans-Serif" font-size="10.00">/Users/hoff/Retro/virtualc64</text>
<text text-anchor="middle" x="88.25" y="-155.62" font-family="Helvetica,sans-Serif" font-size="10.00">/Emulator/Base/CoreComponent.cpp</text>
</a>
</g>
</g>
<!-- Node1&#45;&gt;Node2 -->
<g id="edge1_Node000001_Node000002" class="edge">
<title>Node1&#45;&gt;Node2</title>
<g id="a_edge1_Node000001_Node000002"><a xlink:title=" ">
<path fill="none" stroke="#63b8ff" d="M2125.66,-236.11C1777.72,-235.27 569.31,-229.24 186.25,-186 175.3,-184.76 163.75,-182.92 152.57,-180.84"/>
<polygon fill="#63b8ff" stroke="#63b8ff" points="2125.41,-239.61 2135.42,-236.14 2125.43,-232.61 2125.41,-239.61"/>
</a>
</g>
</g>
<!-- Node3 -->
<g id="Node000003" class="node">
<title>Node3</title>
<g id="a_Node000003"><a xlink:href="_host_8cpp.html" target="_top" xlink:title=" ">
<polygon fill="white" stroke="#666666" points="331.62,-180.38 194.88,-180.38 194.88,-149.88 331.62,-149.88 331.62,-180.38"/>
<text text-anchor="start" x="202.88" y="-166.88" font-family="Helvetica,sans-Serif" font-size="10.00">/Users/hoff/Retro/virtualc64</text>
<text text-anchor="middle" x="263.25" y="-155.62" font-family="Helvetica,sans-Serif" font-size="10.00">/Emulator/Base/Host.cpp</text>
</a>
</g>
</g>
<!-- Node1&#45;&gt;Node3 -->
<g id="edge2_Node000001_Node000003" class="edge">
<title>Node1&#45;&gt;Node3</title>
<g id="a_edge2_Node000001_Node000003"><a xlink:title=" ">
<path fill="none" stroke="#63b8ff" d="M2125.39,-236.5C1794.32,-236.95 691.33,-234.66 341.25,-186 332.39,-184.77 323.09,-182.91 314.11,-180.82"/>
<polygon fill="#63b8ff" stroke="#63b8ff" points="2125.33,-240 2135.32,-236.49 2125.32,-233 2125.33,-240"/>
</a>
</g>
</g>
<!-- Node4 -->
<g id="Node000004" class="node">
<title>Node4</title>
<g id="a_Node000004"><a xlink:href="_sub_component_8cpp.html" target="_top" xlink:title=" ">
<polygon fill="white" stroke="#666666" points="522.62,-180.38 349.88,-180.38 349.88,-149.88 522.62,-149.88 522.62,-180.38"/>
<text text-anchor="start" x="357.88" y="-166.88" font-family="Helvetica,sans-Serif" font-size="10.00">/Users/hoff/Retro/virtualc64</text>
<text text-anchor="middle" x="436.25" y="-155.62" font-family="Helvetica,sans-Serif" font-size="10.00">/Emulator/Base/SubComponent.cpp</text>
</a>
</g>
</g>
<!-- Node1&#45;&gt;Node4 -->
<g id="edge3_Node000001_Node000004" class="edge">
<title>Node1&#45;&gt;Node4</title>
<g id="a_edge3_Node000001_Node000004"><a xlink:title=" ">
<path fill="none" stroke="#63b8ff" d="M2125.8,-235.61C1817.79,-233.17 844.42,-222.68 532.25,-186 521.6,-184.75 510.38,-182.91 499.51,-180.85"/>
<polygon fill="#63b8ff" stroke="#63b8ff" points="2125.37,-239.1 2135.4,-235.68 2125.42,-232.1 2125.37,-239.1"/>
</a>
</g>
</g>
<!-- Node5 -->
<g id="Node000005" class="node">
<title>Node5</title>
<g id="a_Node000005"><a xlink:href="_final_i_i_i_8cpp.html" target="_top" xlink:title=" ">
<polygon fill="white" stroke="#666666" points="729.5,-186 541,-186 541,-144.25 729.5,-144.25 729.5,-186"/>
<text text-anchor="start" x="549" y="-172.5" font-family="Helvetica,sans-Serif" font-size="10.00">/Users/hoff/Retro/virtualc64</text>
<text text-anchor="start" x="549" y="-161.25" font-family="Helvetica,sans-Serif" font-size="10.00">/Emulator/Cartridges/CustomCartridges</text>
<text text-anchor="middle" x="635.25" y="-150" font-family="Helvetica,sans-Serif" font-size="10.00">/FinalIII.cpp</text>
</a>
</g>
</g>
<!-- Node1&#45;&gt;Node5 -->
<g id="edge4_Node000001_Node000005" class="edge">
<title>Node1&#45;&gt;Node5</title>
<g id="a_edge4_Node000001_Node000005"><a xlink:title=" ">
<path fill="none" stroke="#63b8ff" d="M2125.35,-234.95C1842.7,-230.79 1009.39,-216.21 739.25,-186 736.14,-185.65 732.99,-185.26 729.81,-184.84"/>
<polygon fill="#63b8ff" stroke="#63b8ff" points="2125.22,-238.45 2135.27,-235.1 2125.32,-231.45 2125.22,-238.45"/>
</a>
</g>
</g>
<!-- Node6 -->
<g id="Node000006" class="node">
<title>Node6</title>
<g id="a_Node000006"><a xlink:href="_game_killer_8cpp.html" target="_top" xlink:title=" ">
<polygon fill="white" stroke="#666666" points="936.5,-186 748,-186 748,-144.25 936.5,-144.25 936.5,-186"/>
<text text-anchor="start" x="756" y="-172.5" font-family="Helvetica,sans-Serif" font-size="10.00">/Users/hoff/Retro/virtualc64</text>
<text text-anchor="start" x="756" y="-161.25" font-family="Helvetica,sans-Serif" font-size="10.00">/Emulator/Cartridges/CustomCartridges</text>
<text text-anchor="middle" x="842.25" y="-150" font-family="Helvetica,sans-Serif" font-size="10.00">/GameKiller.cpp</text>
</a>
</g>
</g>
<!-- Node1&#45;&gt;Node6 -->
<g id="edge5_Node000001_Node000006" class="edge">
<title>Node1&#45;&gt;Node6</title>
<g id="a_edge5_Node000001_Node000006"><a xlink:title=" ">
<path fill="none" stroke="#63b8ff" d="M2125.56,-234.38C1870.65,-229.04 1173.77,-212.4 945.25,-186 942.45,-185.68 939.6,-185.32 936.74,-184.93"/>
<polygon fill="#63b8ff" stroke="#63b8ff" points="2125.41,-237.87 2135.48,-234.58 2125.56,-230.88 2125.41,-237.87"/>
</a>
</g>
</g>
<!-- Node7 -->
<g id="Node000007" class="node">
<title>Node7</title>
<g id="a_Node000007"><a xlink:href="_c64_8cpp.html" target="_top" xlink:title=" ">
<polygon fill="white" stroke="#666666" points="1110.38,-180.38 954.12,-180.38 954.12,-149.88 1110.38,-149.88 1110.38,-180.38"/>
<text text-anchor="start" x="962.12" y="-166.88" font-family="Helvetica,sans-Serif" font-size="10.00">/Users/hoff/Retro/virtualc64</text>
<text text-anchor="middle" x="1032.25" y="-155.62" font-family="Helvetica,sans-Serif" font-size="10.00">/Emulator/Components/C64.cpp</text>
</a>
</g>
</g>
<!-- Node1&#45;&gt;Node7 -->
<g id="edge6_Node000001_Node000007" class="edge">
<title>Node1&#45;&gt;Node7</title>
<g id="a_edge6_Node000001_Node000007"><a xlink:title=" ">
<path fill="none" stroke="#63b8ff" d="M2125.81,-234.08C1896.18,-228.45 1313.32,-212.01 1120.25,-186 1110.63,-184.7 1100.5,-182.87 1090.68,-180.83"/>
<polygon fill="#63b8ff" stroke="#63b8ff" points="2125.54,-237.57 2135.62,-234.32 2125.71,-230.57 2125.54,-237.57"/>
</a>
</g>
</g>
<!-- Node8 -->
<g id="Node000008" class="node">
<title>Node8</title>
<g id="a_Node000008"><a xlink:href="_c_i_a_8cpp.html" target="_top" xlink:title=" ">
<polygon fill="white" stroke="#666666" points="1265.62,-186 1128.88,-186 1128.88,-144.25 1265.62,-144.25 1265.62,-186"/>
<text text-anchor="start" x="1136.88" y="-172.5" font-family="Helvetica,sans-Serif" font-size="10.00">/Users/hoff/Retro/virtualc64</text>
<text text-anchor="start" x="1136.88" y="-161.25" font-family="Helvetica,sans-Serif" font-size="10.00">/Emulator/Components/CIA</text>
<text text-anchor="middle" x="1197.25" y="-150" font-family="Helvetica,sans-Serif" font-size="10.00">/CIA.cpp</text>
</a>
</g>
</g>
<!-- Node1&#45;&gt;Node8 -->
<g id="edge7_Node000001_Node000008" class="edge">
<title>Node1&#45;&gt;Node8</title>
<g id="a_edge7_Node000001_Node000008"><a xlink:title=" ">
<path fill="none" stroke="#63b8ff" d="M2125.6,-233.62C1919.63,-227.52 1436.28,-210.96 1274.25,-186 1271.52,-185.58 1268.75,-185.1 1265.96,-184.58"/>
<polygon fill="#63b8ff" stroke="#63b8ff" points="2125.37,-237.12 2135.47,-233.91 2125.57,-230.12 2125.37,-237.12"/>
</a>
</g>
</g>
<!-- Node9 -->
<g id="Node000009" class="node">
<title>Node9</title>
<g id="a_Node000009"><a xlink:href="_c_p_u_8cpp.html" target="_top" xlink:title=" ">
<polygon fill="white" stroke="#666666" points="1424.88,-186 1283.62,-186 1283.62,-144.25 1424.88,-144.25 1424.88,-186"/>
<text text-anchor="start" x="1291.62" y="-172.5" font-family="Helvetica,sans-Serif" font-size="10.00">/Users/hoff/Retro/virtualc64</text>
<text text-anchor="start" x="1291.62" y="-161.25" font-family="Helvetica,sans-Serif" font-size="10.00">/Emulator/Components/CPU</text>
<text text-anchor="middle" x="1354.25" y="-150" font-family="Helvetica,sans-Serif" font-size="10.00">/CPU.cpp</text>
</a>
</g>
</g>
<!-- Node1&#45;&gt;Node9 -->
<g id="edge8_Node000001_Node000009" class="edge">
<title>Node1&#45;&gt;Node9</title>
<g id="a_edge8_Node000001_Node000009"><a xlink:title=" ">
<path fill="none" stroke="#63b8ff" d="M2125.54,-235.67C1977.26,-233.53 1681.67,-224.32 1434.25,-186 1431.28,-185.54 1428.26,-185.02 1425.22,-184.46"/>
<polygon fill="#63b8ff" stroke="#63b8ff" points="2125.26,-239.17 2135.31,-235.8 2125.36,-232.17 2125.26,-239.17"/>
</a>
</g>
</g>
<!-- Node10 -->
<g id="Node000010" class="node">
<title>Node10</title>
<g id="a_Node000010"><a xlink:href="_emulator_8cpp.html" target="_top" xlink:title=" ">
<polygon fill="white" stroke="#666666" points="1619.5,-180.38 1443,-180.38 1443,-149.88 1619.5,-149.88 1619.5,-180.38"/>
<text text-anchor="start" x="1451" y="-166.88" font-family="Helvetica,sans-Serif" font-size="10.00">/Users/hoff/Retro/virtualc64</text>
<text text-anchor="middle" x="1531.25" y="-155.62" font-family="Helvetica,sans-Serif" font-size="10.00">/Emulator/Components/Emulator.cpp</text>
</a>
</g>
</g>
<!-- Node1&#45;&gt;Node10 -->
<g id="edge9_Node000001_Node000010" class="edge">
<title>Node1&#45;&gt;Node10</title>
<g id="a_edge9_Node000001_Node000010"><a xlink:title=" ">
<path fill="none" stroke="#63b8ff" d="M2125.64,-231.65C2008.45,-225.17 1802.88,-211.21 1628.25,-186 1618.38,-184.58 1608.01,-182.78 1597.86,-180.84"/>
<polygon fill="#63b8ff" stroke="#63b8ff" points="2125.37,-235.14 2135.54,-232.19 2125.75,-228.15 2125.37,-235.14"/>
</a>
</g>
</g>
<!-- Node11 -->
<g id="Node000011" class="node">
<title>Node11</title>
<g id="a_Node000011"><a xlink:href="_power_supply_8cpp.html" target="_top" xlink:title=" ">
<polygon fill="white" stroke="#666666" points="1805.38,-186 1637.12,-186 1637.12,-144.25 1805.38,-144.25 1805.38,-186"/>
<text text-anchor="start" x="1645.12" y="-172.5" font-family="Helvetica,sans-Serif" font-size="10.00">/Users/hoff/Retro/virtualc64</text>
<text text-anchor="start" x="1645.12" y="-161.25" font-family="Helvetica,sans-Serif" font-size="10.00">/Emulator/Components/LogicBoard</text>
<text text-anchor="middle" x="1721.25" y="-150" font-family="Helvetica,sans-Serif" font-size="10.00">/PowerSupply.cpp</text>
</a>
</g>
</g>
<!-- Node1&#45;&gt;Node11 -->
<g id="edge10_Node000001_Node000011" class="edge">
<title>Node1&#45;&gt;Node11</title>
<g id="a_edge10_Node000001_Node000011"><a xlink:title=" ">
<path fill="none" stroke="#63b8ff" d="M2125.62,-226.81C2043.33,-218.05 1921.03,-203.71 1815.25,-186 1812.12,-185.48 1808.94,-184.92 1805.74,-184.34"/>
<polygon fill="#63b8ff" stroke="#63b8ff" points="2125.14,-230.28 2135.45,-227.85 2125.87,-223.31 2125.14,-230.28"/>
</a>
</g>
</g>
<!-- Node12 -->
<g id="Node000012" class="node">
<title>Node12</title>
<g id="a_Node000012"><a xlink:href="_c64_memory_8cpp.html" target="_top" xlink:title=" ">
<polygon fill="white" stroke="#666666" points="1978.62,-186 1823.88,-186 1823.88,-144.25 1978.62,-144.25 1978.62,-186"/>
<text text-anchor="start" x="1831.88" y="-172.5" font-family="Helvetica,sans-Serif" font-size="10.00">/Users/hoff/Retro/virtualc64</text>
<text text-anchor="start" x="1831.88" y="-161.25" font-family="Helvetica,sans-Serif" font-size="10.00">/Emulator/Components/Memory</text>
<text text-anchor="middle" x="1901.25" y="-150" font-family="Helvetica,sans-Serif" font-size="10.00">/C64Memory.cpp</text>
</a>
</g>
</g>
<!-- Node1&#45;&gt;Node12 -->
<g id="edge11_Node000001_Node000012" class="edge">
<title>Node1&#45;&gt;Node12</title>
<g id="a_edge11_Node000001_Node000012"><a xlink:title=" ">
<path fill="none" stroke="#63b8ff" d="M2140.08,-219.12C2095.37,-209.51 2038.69,-197.22 1988.25,-186 1985.23,-185.33 1982.14,-184.64 1979.03,-183.94"/>
<polygon fill="#63b8ff" stroke="#63b8ff" points="2139.18,-222.51 2149.69,-221.18 2140.65,-215.66 2139.18,-222.51"/>
</a>
</g>
</g>
<!-- Node13 -->
<g id="Node000013" class="node">
<title>Node13</title>
<g id="a_Node000013"><a xlink:href="_muxer_8cpp.html" target="_top" xlink:title=" ">
<polygon fill="white" stroke="#666666" points="2133.62,-186 1996.88,-186 1996.88,-144.25 2133.62,-144.25 2133.62,-186"/>
<text text-anchor="start" x="2004.88" y="-172.5" font-family="Helvetica,sans-Serif" font-size="10.00">/Users/hoff/Retro/virtualc64</text>
<text text-anchor="start" x="2004.88" y="-161.25" font-family="Helvetica,sans-Serif" font-size="10.00">/Emulator/Components/SID</text>
<text text-anchor="middle" x="2065.25" y="-150" font-family="Helvetica,sans-Serif" font-size="10.00">/Muxer.cpp</text>
</a>
</g>
</g>
<!-- Node1&#45;&gt;Node13 -->
<g id="edge12_Node000001_Node000013" class="edge">
<title>Node1&#45;&gt;Node13</title>
<g id="a_edge12_Node000001_Node000013"><a xlink:title=" ">
<path fill="none" stroke="#63b8ff" d="M2177.53,-216.92C2156.56,-207.43 2131.29,-196 2110.05,-186.39"/>
<polygon fill="#63b8ff" stroke="#63b8ff" points="2175.82,-219.99 2186.38,-220.93 2178.71,-213.61 2175.82,-219.99"/>
</a>
</g>
</g>
<!-- Node14 -->
<g id="Node000014" class="node">
<title>Node14</title>
<g id="a_Node000014"><a xlink:href="_s_i_d_8cpp.html" target="_top" xlink:title=" ">
<polygon fill="white" stroke="#666666" points="2288.62,-186 2151.88,-186 2151.88,-144.25 2288.62,-144.25 2288.62,-186"/>
<text text-anchor="start" x="2159.88" y="-172.5" font-family="Helvetica,sans-Serif" font-size="10.00">/Users/hoff/Retro/virtualc64</text>
<text text-anchor="start" x="2159.88" y="-161.25" font-family="Helvetica,sans-Serif" font-size="10.00">/Emulator/Components/SID</text>
<text text-anchor="middle" x="2220.25" y="-150" font-family="Helvetica,sans-Serif" font-size="10.00">/SID.cpp</text>
</a>
</g>
</g>
<!-- Node1&#45;&gt;Node14 -->
<g id="edge13_Node000001_Node000014" class="edge">
<title>Node1&#45;&gt;Node14</title>
<g id="a_edge13_Node000001_Node000014"><a xlink:title=" ">
<path fill="none" stroke="#63b8ff" d="M2220.25,-210.47C2220.25,-202.56 2220.25,-193.98 2220.25,-186.49"/>
<polygon fill="#63b8ff" stroke="#63b8ff" points="2216.75,-210.21 2220.25,-220.21 2223.75,-210.21 2216.75,-210.21"/>
</a>
</g>
</g>
<!-- Node15 -->
<g id="Node000015" class="node">
<title>Node15</title>
<g id="a_Node000015"><a xlink:href="_dma_debugger_8cpp.html" target="_top" xlink:title=" ">
<polygon fill="white" stroke="#666666" points="2449.62,-186 2306.88,-186 2306.88,-144.25 2449.62,-144.25 2449.62,-186"/>
<text text-anchor="start" x="2314.88" y="-172.5" font-family="Helvetica,sans-Serif" font-size="10.00">/Users/hoff/Retro/virtualc64</text>
<text text-anchor="start" x="2314.88" y="-161.25" font-family="Helvetica,sans-Serif" font-size="10.00">/Emulator/Components/VICII</text>
<text text-anchor="middle" x="2378.25" y="-150" font-family="Helvetica,sans-Serif" font-size="10.00">/DmaDebugger.cpp</text>
</a>
</g>
</g>
<!-- Node1&#45;&gt;Node15 -->
<g id="edge14_Node000001_Node000015" class="edge">
<title>Node1&#45;&gt;Node15</title>
<g id="a_edge14_Node000001_Node000015"><a xlink:title=" ">
<path fill="none" stroke="#63b8ff" d="M2263.79,-216.92C2285.18,-207.43 2310.93,-196 2332.59,-186.39"/>
<polygon fill="#63b8ff" stroke="#63b8ff" points="2262.48,-213.68 2254.76,-220.94 2265.32,-220.08 2262.48,-213.68"/>
</a>
</g>
</g>
<!-- Node16 -->
<g id="Node000016" class="node">
<title>Node16</title>
<g id="a_Node000016"><a xlink:href="_v_i_c_i_i_8cpp.html" target="_top" xlink:title=" ">
<polygon fill="white" stroke="#666666" points="2610.62,-186 2467.88,-186 2467.88,-144.25 2610.62,-144.25 2610.62,-186"/>
<text text-anchor="start" x="2475.88" y="-172.5" font-family="Helvetica,sans-Serif" font-size="10.00">/Users/hoff/Retro/virtualc64</text>
<text text-anchor="start" x="2475.88" y="-161.25" font-family="Helvetica,sans-Serif" font-size="10.00">/Emulator/Components/VICII</text>
<text text-anchor="middle" x="2539.25" y="-150" font-family="Helvetica,sans-Serif" font-size="10.00">/VICII.cpp</text>
</a>
</g>
</g>
<!-- Node1&#45;&gt;Node16 -->
<g id="edge15_Node000001_Node000016" class="edge">
<title>Node1&#45;&gt;Node16</title>
<g id="a_edge15_Node000001_Node000016"><a xlink:title=" ">
<path fill="none" stroke="#63b8ff" d="M2304.08,-219.25C2349.74,-209.81 2407.19,-197.65 2458.25,-186 2461.36,-185.29 2464.53,-184.56 2467.73,-183.81"/>
<polygon fill="#63b8ff" stroke="#63b8ff" points="2303.61,-215.77 2294.52,-221.22 2305.02,-222.62 2303.61,-215.77"/>
</a>
</g>
</g>
<!-- Node17 -->
<g id="Node000017" class="node">
<title>Node17</title>
<g id="a_Node000017"><a xlink:href="_regression_tester_8cpp.html" target="_top" xlink:title=" ">
<polygon fill="white" stroke="#666666" points="2790,-186 2628.5,-186 2628.5,-144.25 2790,-144.25 2790,-186"/>
<text text-anchor="start" x="2636.5" y="-172.5" font-family="Helvetica,sans-Serif" font-size="10.00">/Users/hoff/Retro/virtualc64</text>
<text text-anchor="start" x="2636.5" y="-161.25" font-family="Helvetica,sans-Serif" font-size="10.00">/Emulator/Misc/RegressionTester</text>
<text text-anchor="middle" x="2709.25" y="-150" font-family="Helvetica,sans-Serif" font-size="10.00">/RegressionTester.cpp</text>
</a>
</g>
</g>
<!-- Node1&#45;&gt;Node17 -->
<g id="edge16_Node000001_Node000017" class="edge">
<title>Node1&#45;&gt;Node17</title>
<g id="a_edge16_Node000001_Node000017"><a xlink:title=" ">
<path fill="none" stroke="#63b8ff" d="M2314.67,-226.84C2395.75,-218.16 2515.6,-203.93 2619.25,-186 2622.25,-185.48 2625.29,-184.93 2628.37,-184.36"/>
<polygon fill="#63b8ff" stroke="#63b8ff" points="2314.57,-223.33 2305,-227.86 2315.31,-230.29 2314.57,-223.33"/>
</a>
</g>
</g>
<!-- Node18 -->
<g id="Node000018" class="node">
<title>Node18</title>
<g id="a_Node000018"><a xlink:href="_interpreter_8cpp.html" target="_top" xlink:title=" ">
<polygon fill="white" stroke="#666666" points="2944.62,-186 2807.88,-186 2807.88,-144.25 2944.62,-144.25 2944.62,-186"/>
<text text-anchor="start" x="2815.88" y="-172.5" font-family="Helvetica,sans-Serif" font-size="10.00">/Users/hoff/Retro/virtualc64</text>
<text text-anchor="start" x="2815.88" y="-161.25" font-family="Helvetica,sans-Serif" font-size="10.00">/Emulator/Misc/RetroShell</text>
<text text-anchor="middle" x="2876.25" y="-150" font-family="Helvetica,sans-Serif" font-size="10.00">/Interpreter.cpp</text>
</a>
</g>
</g>
<!-- Node1&#45;&gt;Node18 -->
<g id="edge17_Node000001_Node000018" class="edge">
<title>Node1&#45;&gt;Node18</title>
<g id="a_edge17_Node000001_Node000018"><a xlink:title=" ">
<path fill="none" stroke="#63b8ff" d="M2314.96,-232.86C2430.13,-227.62 2630.1,-214.96 2799.25,-186 2801.97,-185.53 2804.74,-185.02 2807.53,-184.47"/>
<polygon fill="#63b8ff" stroke="#63b8ff" points="2315.09,-229.35 2305.25,-233.29 2315.4,-236.34 2315.09,-229.35"/>
</a>
</g>
</g>
<!-- Node19 -->
<g id="Node000019" class="node">
<title>Node19</title>
<g id="a_Node000019"><a xlink:href="_interpreter_cmds_8cpp.html" target="_top" xlink:title=" ">
<polygon fill="white" stroke="#666666" points="3099.62,-186 2962.88,-186 2962.88,-144.25 3099.62,-144.25 3099.62,-186"/>
<text text-anchor="start" x="2970.88" y="-172.5" font-family="Helvetica,sans-Serif" font-size="10.00">/Users/hoff/Retro/virtualc64</text>
<text text-anchor="start" x="2970.88" y="-161.25" font-family="Helvetica,sans-Serif" font-size="10.00">/Emulator/Misc/RetroShell</text>
<text text-anchor="middle" x="3031.25" y="-150" font-family="Helvetica,sans-Serif" font-size="10.00">/InterpreterCmds.cpp</text>
</a>
</g>
</g>
<!-- Node1&#45;&gt;Node19 -->
<g id="edge18_Node000001_Node000019" class="edge">
<title>Node1&#45;&gt;Node19</title>
<g id="a_edge18_Node000001_Node000019"><a xlink:title=" ">
<path fill="none" stroke="#63b8ff" d="M2314.62,-235.23C2454.8,-232.48 2725.93,-222.44 2953.25,-186 2956.29,-185.51 2959.38,-184.96 2962.49,-184.36"/>
<polygon fill="#63b8ff" stroke="#63b8ff" points="2314.97,-231.72 2305.04,-235.41 2315.1,-238.72 2314.97,-231.72"/>
</a>
</g>
</g>
<!-- Node20 -->
<g id="Node000020" class="node">
<title>Node20</title>
<g id="a_Node000020"><a xlink:href="_interpreter_debug_cmds_8cpp.html" target="_top" xlink:title=" ">
<polygon fill="white" stroke="#666666" points="3254.62,-186 3117.88,-186 3117.88,-144.25 3254.62,-144.25 3254.62,-186"/>
<text text-anchor="start" x="3125.88" y="-172.5" font-family="Helvetica,sans-Serif" font-size="10.00">/Users/hoff/Retro/virtualc64</text>
<text text-anchor="start" x="3125.88" y="-161.25" font-family="Helvetica,sans-Serif" font-size="10.00">/Emulator/Misc/RetroShell</text>
<text text-anchor="middle" x="3186.25" y="-150" font-family="Helvetica,sans-Serif" font-size="10.00">/InterpreterDebugCmds.cpp</text>
</a>
</g>
</g>
<!-- Node1&#45;&gt;Node20 -->
<g id="edge19_Node000001_Node000020" class="edge">
<title>Node1&#45;&gt;Node20</title>
<g id="a_edge19_Node000001_Node000020"><a xlink:title=" ">
<path fill="none" stroke="#63b8ff" d="M2314.86,-236.86C2477.86,-236.59 2821.74,-230.19 3108.25,-186 3111.29,-185.53 3114.38,-185 3117.5,-184.41"/>
<polygon fill="#63b8ff" stroke="#63b8ff" points="2314.95,-233.36 2304.96,-236.87 2314.96,-240.36 2314.95,-233.36"/>
</a>
</g>
</g>
<!-- Node21 -->
<g id="Node000021" class="node">
<title>Node21</title>
<g id="a_Node000021"><a xlink:href="_datasette_8cpp.html" target="_top" xlink:title=" ">
<polygon fill="white" stroke="#666666" points="3428,-186 3272.5,-186 3272.5,-144.25 3428,-144.25 3428,-186"/>
<text text-anchor="start" x="3280.5" y="-172.5" font-family="Helvetica,sans-Serif" font-size="10.00">/Users/hoff/Retro/virtualc64</text>
<text text-anchor="start" x="3280.5" y="-161.25" font-family="Helvetica,sans-Serif" font-size="10.00">/Emulator/Peripherals/Datasette</text>
<text text-anchor="middle" x="3350.25" y="-150" font-family="Helvetica,sans-Serif" font-size="10.00">/Datasette.cpp</text>
</a>
</g>
</g>
<!-- Node1&#45;&gt;Node21 -->
<g id="edge20_Node000001_Node000021" class="edge">
<title>Node1&#45;&gt;Node21</title>
<g id="a_edge20_Node000001_Node000021"><a xlink:title=" ">
<path fill="none" stroke="#63b8ff" d="M2314.91,-233.83C2536.07,-227.83 3081.64,-210.92 3263.25,-186 3266.17,-185.6 3269.13,-185.15 3272.12,-184.66"/>
<polygon fill="#63b8ff" stroke="#63b8ff" points="2315.09,-230.32 2305.19,-234.09 2315.28,-237.32 2315.09,-230.32"/>
</a>
</g>
</g>
<!-- Node22 -->
<g id="Node000022" class="node">
<title>Node22</title>
<g id="a_Node000022"><a xlink:href="_drive_8cpp.html" target="_top" xlink:title=" ">
<polygon fill="white" stroke="#666666" points="3582.62,-186 3445.88,-186 3445.88,-144.25 3582.62,-144.25 3582.62,-186"/>
<text text-anchor="start" x="3453.88" y="-172.5" font-family="Helvetica,sans-Serif" font-size="10.00">/Users/hoff/Retro/virtualc64</text>
<text text-anchor="start" x="3453.88" y="-161.25" font-family="Helvetica,sans-Serif" font-size="10.00">/Emulator/Peripherals/Drive</text>
<text text-anchor="middle" x="3514.25" y="-150" font-family="Helvetica,sans-Serif" font-size="10.00">/Drive.cpp</text>
</a>
</g>
</g>
<!-- Node1&#45;&gt;Node22 -->
<g id="edge21_Node000001_Node000022" class="edge">
<title>Node1&#45;&gt;Node22</title>
<g id="a_edge21_Node000001_Node000022"><a xlink:title=" ">
<path fill="none" stroke="#63b8ff" d="M2315.03,-234.92C2562.04,-231.05 3221.29,-217.96 3437.25,-186 3439.98,-185.6 3442.76,-185.13 3445.55,-184.62"/>
<polygon fill="#63b8ff" stroke="#63b8ff" points="2315.04,-231.42 2305.1,-235.08 2315.15,-238.42 2315.04,-231.42"/>
</a>
</g>
</g>
<!-- Node23 -->
<g id="Node000023" class="node">
<title>Node23</title>
<g id="a_Node000023"><a xlink:href="_drive_memory_8cpp.html" target="_top" xlink:title=" ">
<polygon fill="white" stroke="#666666" points="3737.62,-186 3600.88,-186 3600.88,-144.25 3737.62,-144.25 3737.62,-186"/>
<text text-anchor="start" x="3608.88" y="-172.5" font-family="Helvetica,sans-Serif" font-size="10.00">/Users/hoff/Retro/virtualc64</text>
<text text-anchor="start" x="3608.88" y="-161.25" font-family="Helvetica,sans-Serif" font-size="10.00">/Emulator/Peripherals/Drive</text>
<text text-anchor="middle" x="3669.25" y="-150" font-family="Helvetica,sans-Serif" font-size="10.00">/DriveMemory.cpp</text>
</a>
</g>
</g>
<!-- Node1&#45;&gt;Node23 -->
<g id="edge22_Node000001_Node000023" class="edge">
<title>Node1&#45;&gt;Node23</title>
<g id="a_edge22_Node000001_Node000023"><a xlink:title=" ">
<path fill="none" stroke="#63b8ff" d="M2314.64,-235.4C2582.53,-232.59 3344.17,-221.59 3591.25,-186 3594.29,-185.56 3597.39,-185.05 3600.51,-184.49"/>
<polygon fill="#63b8ff" stroke="#63b8ff" points="2314.88,-231.9 2304.92,-235.5 2314.95,-238.9 2314.88,-231.9"/>
</a>
</g>
</g>
<!-- Node24 -->
<g id="Node000024" class="node">
<title>Node24</title>
<g id="a_Node000024"><a xlink:href="_joystick_8cpp.html" target="_top" xlink:title=" ">
<polygon fill="white" stroke="#666666" points="3905,-186 3755.5,-186 3755.5,-144.25 3905,-144.25 3905,-186"/>
<text text-anchor="start" x="3763.5" y="-172.5" font-family="Helvetica,sans-Serif" font-size="10.00">/Users/hoff/Retro/virtualc64</text>
<text text-anchor="start" x="3763.5" y="-161.25" font-family="Helvetica,sans-Serif" font-size="10.00">/Emulator/Peripherals/Joystick</text>
<text text-anchor="middle" x="3830.25" y="-150" font-family="Helvetica,sans-Serif" font-size="10.00">/Joystick.cpp</text>
</a>
</g>
</g>
<!-- Node1&#45;&gt;Node24 -->
<g id="edge23_Node000001_Node000024" class="edge">
<title>Node1&#45;&gt;Node24</title>
<g id="a_edge23_Node000001_Node000024"><a xlink:title=" ">
<path fill="none" stroke="#63b8ff" d="M2314.64,-235.61C2602.65,-233.25 3467.52,-223.18 3746.25,-186 3749.22,-185.6 3752.24,-185.15 3755.28,-184.64"/>
<polygon fill="#63b8ff" stroke="#63b8ff" points="2314.89,-232.1 2304.92,-235.68 2314.94,-239.1 2314.89,-232.1"/>
</a>
</g>
</g>
<!-- Node25 -->
<g id="Node000025" class="node">
<title>Node25</title>
<g id="a_Node000025"><a xlink:href="_mouse_8cpp.html" target="_top" xlink:title=" ">
<polygon fill="white" stroke="#666666" points="4065.25,-186 3923.25,-186 3923.25,-144.25 4065.25,-144.25 4065.25,-186"/>
<text text-anchor="start" x="3931.25" y="-172.5" font-family="Helvetica,sans-Serif" font-size="10.00">/Users/hoff/Retro/virtualc64</text>
<text text-anchor="start" x="3931.25" y="-161.25" font-family="Helvetica,sans-Serif" font-size="10.00">/Emulator/Peripherals/Mouse</text>
<text text-anchor="middle" x="3994.25" y="-150" font-family="Helvetica,sans-Serif" font-size="10.00">/Mouse.cpp</text>
</a>
</g>
</g>
<!-- Node1&#45;&gt;Node25 -->
<g id="edge24_Node000001_Node000025" class="edge">
<title>Node1&#45;&gt;Node25</title>
<g id="a_edge24_Node000001_Node000025"><a xlink:title=" ">
<path fill="none" stroke="#63b8ff" d="M2314.83,-236.1C2623.83,-235.21 3601.67,-228.96 3914.25,-186 3917.09,-185.61 3919.97,-185.16 3922.87,-184.66"/>
<polygon fill="#63b8ff" stroke="#63b8ff" points="2315.19,-232.6 2305.2,-236.13 2315.21,-239.6 2315.19,-232.6"/>
</a>
</g>
</g>
<!-- Node26 -->
<g id="Node000026" class="node">
<title>Node26</title>
<g id="a_Node000026"><a xlink:href="_virtual_c64_8h.html" target="_top" xlink:title=" ">
<polygon fill="white" stroke="#666666" points="4219.62,-180.38 4082.88,-180.38 4082.88,-149.88 4219.62,-149.88 4219.62,-180.38"/>
<text text-anchor="start" x="4090.88" y="-166.88" font-family="Helvetica,sans-Serif" font-size="10.00">/Users/hoff/Retro/virtualc64</text>
<text text-anchor="middle" x="4151.25" y="-155.62" font-family="Helvetica,sans-Serif" font-size="10.00">/Emulator/VirtualC64.h</text>
</a>
</g>
</g>
<!-- Node1&#45;&gt;Node26 -->
<g id="edge25_Node000001_Node000026" class="edge">
<title>Node1&#45;&gt;Node26</title>
<g id="a_edge25_Node000001_Node000026"><a xlink:title=" ">
<path fill="none" stroke="#63b8ff" d="M2314.98,-236.5C2643.02,-236.93 3729.3,-234.56 4074.25,-186 4083,-184.77 4092.19,-182.91 4101.05,-180.82"/>
<polygon fill="#63b8ff" stroke="#63b8ff" points="2315.15,-233 2305.14,-236.49 2315.14,-240 2315.15,-233"/>
</a>
</g>
</g>
<!-- Node27 -->
<g id="Node000027" class="node">
<title>Node27</title>
<g id="a_Node000027"><a xlink:href="_headless_8h.html" target="_top" xlink:title=" ">
<polygon fill="white" stroke="#666666" points="3987.62,-102.62 3850.88,-102.62 3850.88,-72.12 3987.62,-72.12 3987.62,-102.62"/>
<text text-anchor="start" x="3858.88" y="-89.12" font-family="Helvetica,sans-Serif" font-size="10.00">/Users/hoff/Retro/virtualc64</text>
<text text-anchor="middle" x="3919.25" y="-77.88" font-family="Helvetica,sans-Serif" font-size="10.00">/Emulator/Headless.h</text>
</a>
</g>
</g>
<!-- Node26&#45;&gt;Node27 -->
<g id="edge26_Node000026_Node000027" class="edge">
<title>Node26&#45;&gt;Node27</title>
<g id="a_edge26_Node000026_Node000027"><a xlink:title=" ">
<path fill="none" stroke="#63b8ff" d="M4095.53,-145.93C4055.29,-132.79 4001.63,-115.27 3964.13,-103.03"/>
<polygon fill="#63b8ff" stroke="#63b8ff" points="4094.21,-149.18 4104.8,-148.96 4096.38,-142.53 4094.21,-149.18"/>
</a>
</g>
</g>
<!-- Node29 -->
<g id="Node000029" class="node">
<title>Node29</title>
<g id="a_Node000029"><a xlink:href="_script_8cpp.html" target="_top" xlink:title=" ">
<polygon fill="white" stroke="#666666" points="4142.62,-102.62 4005.88,-102.62 4005.88,-72.12 4142.62,-72.12 4142.62,-102.62"/>
<text text-anchor="start" x="4013.88" y="-89.12" font-family="Helvetica,sans-Serif" font-size="10.00">/Users/hoff/Retro/virtualc64</text>
<text text-anchor="middle" x="4074.25" y="-77.88" font-family="Helvetica,sans-Serif" font-size="10.00">/Emulator/Media/Script.cpp</text>
</a>
</g>
</g>
<!-- Node26&#45;&gt;Node29 -->
<g id="edge28_Node000026_Node000029" class="edge">
<title>Node26&#45;&gt;Node29</title>
<g id="a_edge28_Node000026_Node000029"><a xlink:title=" ">
<path fill="none" stroke="#63b8ff" d="M4128.5,-141.75C4115.76,-129.21 4100.22,-113.93 4089.05,-102.94"/>
<polygon fill="#63b8ff" stroke="#63b8ff" points="4125.74,-143.94 4135.32,-148.46 4130.65,-138.95 4125.74,-143.94"/>
</a>
</g>
</g>
<!-- Node30 -->
<g id="Node000030" class="node">
<title>Node30</title>
<g id="a_Node000030"><a xlink:href="_retro_shell_8cpp.html" target="_top" xlink:title=" ">
<polygon fill="white" stroke="#666666" points="4297.62,-108.25 4160.88,-108.25 4160.88,-66.5 4297.62,-66.5 4297.62,-108.25"/>
<text text-anchor="start" x="4168.88" y="-94.75" font-family="Helvetica,sans-Serif" font-size="10.00">/Users/hoff/Retro/virtualc64</text>
<text text-anchor="start" x="4168.88" y="-83.5" font-family="Helvetica,sans-Serif" font-size="10.00">/Emulator/Misc/RetroShell</text>
<text text-anchor="middle" x="4229.25" y="-72.25" font-family="Helvetica,sans-Serif" font-size="10.00">/RetroShell.cpp</text>
</a>
</g>
</g>
<!-- Node26&#45;&gt;Node30 -->
<g id="edge29_Node000026_Node000030" class="edge">
<title>Node26&#45;&gt;Node30</title>
<g id="a_edge29_Node000026_Node000030"><a xlink:title=" ">
<path fill="none" stroke="#63b8ff" d="M4174.43,-141.62C4185.19,-131.16 4197.89,-118.83 4208.36,-108.66"/>
<polygon fill="#63b8ff" stroke="#63b8ff" points="4172.11,-138.99 4167.37,-148.47 4176.99,-144.01 4172.11,-138.99"/>
</a>
</g>
</g>
<!-- Node31 -->
<g id="Node000031" class="node">
<title>Node31</title>
<g id="a_Node000031"><a xlink:href="_virtual_c64_8cpp.html" target="_top" xlink:title=" ">
<polygon fill="white" stroke="#666666" points="4452.62,-102.62 4315.88,-102.62 4315.88,-72.12 4452.62,-72.12 4452.62,-102.62"/>
<text text-anchor="start" x="4323.88" y="-89.12" font-family="Helvetica,sans-Serif" font-size="10.00">/Users/hoff/Retro/virtualc64</text>
<text text-anchor="middle" x="4384.25" y="-77.88" font-family="Helvetica,sans-Serif" font-size="10.00">/Emulator/VirtualC64.cpp</text>
</a>
</g>
</g>
<!-- Node26&#45;&gt;Node31 -->
<g id="edge30_Node000026_Node000031" class="edge">
<title>Node26&#45;&gt;Node31</title>
<g id="a_edge30_Node000026_Node000031"><a xlink:title=" ">
<path fill="none" stroke="#63b8ff" d="M4207.21,-145.93C4247.63,-132.79 4301.51,-115.27 4339.17,-103.03"/>
<polygon fill="#63b8ff" stroke="#63b8ff" points="4206.32,-142.54 4197.89,-148.96 4208.48,-149.2 4206.32,-142.54"/>
</a>
</g>
</g>
<!-- Node28 -->
<g id="Node000028" class="node">
<title>Node28</title>
<g id="a_Node000028"><a xlink:href="_headless_8cpp.html" target="_top" xlink:title=" ">
<polygon fill="white" stroke="#666666" points="3987.62,-30.5 3850.88,-30.5 3850.88,0 3987.62,0 3987.62,-30.5"/>
<text text-anchor="start" x="3858.88" y="-17" font-family="Helvetica,sans-Serif" font-size="10.00">/Users/hoff/Retro/virtualc64</text>
<text text-anchor="middle" x="3919.25" y="-5.75" font-family="Helvetica,sans-Serif" font-size="10.00">/Emulator/Headless.cpp</text>
</a>
</g>
</g>
<!-- Node27&#45;&gt;Node28 -->
<g id="edge27_Node000027_Node000028" class="edge">
<title>Node27&#45;&gt;Node28</title>
<g id="a_edge27_Node000027_Node000028"><a xlink:title=" ">
<path fill="none" stroke="#63b8ff" d="M3919.25,-60.4C3919.25,-50.39 3919.25,-39.31 3919.25,-30.76"/>
<polygon fill="#63b8ff" stroke="#63b8ff" points="3915.75,-60.33 3919.25,-70.33 3922.75,-60.33 3915.75,-60.33"/>
</a>
</g>
</g>
</g>
</svg>
