<?xml version="1.0" encoding="UTF-8" standalone="no"?>
<!DOCTYPE svg PUBLIC "-//W3C//DTD SVG 1.1//EN"
 "http://www.w3.org/Graphics/SVG/1.1/DTD/svg11.dtd">
<!-- Generated by graphviz version 10.0.1 (20240210.2158)
 -->
<!-- Title: /Users/hoff/Retro/virtualc64/Emulator/Base/Error.cpp Pages: 1 -->
<svg width="276pt" height="370pt"
 viewBox="0.00 0.00 276.38 370.00" xmlns="http://www.w3.org/2000/svg" xmlns:xlink="http://www.w3.org/1999/xlink">
<g id="graph0" class="graph" transform="scale(1 1) rotate(0) translate(4 366)">
<title>/Users/hoff/Retro/virtualc64/Emulator/Base/Error.cpp</title>
<!-- Node1 -->
<g id="Node000001" class="node">
<title>Node1</title>
<g id="a_Node000001"><a xlink:title=" ">
<polygon fill="#999999" stroke="#666666" points="136.75,-362 0,-362 0,-331.5 136.75,-331.5 136.75,-362"/>
<text text-anchor="start" x="8" y="-348.5" font-family="Helvetica,sans-Serif" font-size="10.00">/Users/hoff/Retro/virtualc64</text>
<text text-anchor="middle" x="68.38" y="-337.25" font-family="Helvetica,sans-Serif" font-size="10.00">/Emulator/Base/Error.cpp</text>
</a>
</g>
</g>
<!-- Node2 -->
<g id="Node000002" class="node">
<title>Node2</title>
<g id="a_Node000002"><a xlink:href="config_8h.html" target="_top" xlink:title=" ">
<polygon fill="white" stroke="#666666" points="60.62,-295.5 10.12,-295.5 10.12,-276.25 60.62,-276.25 60.62,-295.5"/>
<text text-anchor="middle" x="35.38" y="-282" font-family="Helvetica,sans-Serif" font-size="10.00">config.h</text>
</a>
</g>
</g>
<!-- Node1&#45;&gt;Node2 -->
<g id="edge1_Node000001_Node000002" class="edge">
<title>Node1&#45;&gt;Node2</title>
<g id="a_edge1_Node000001_Node000002"><a xlink:title=" ">
<path fill="none" stroke="#63b8ff" d="M60.22,-331.2C55.92,-323.53 50.59,-314.02 45.98,-305.79"/>
<polygon fill="#63b8ff" stroke="#63b8ff" points="49.14,-304.28 41.2,-297.27 43.04,-307.71 49.14,-304.28"/>
</a>
</g>
</g>
<!-- Node4 -->
<g id="Node000004" class="node">
<title>Node4</title>
<g id="a_Node000004"><a xlink:href="_error_8h.html" target="_top" xlink:title=" ">
<polygon fill="white" stroke="#666666" points="129.62,-295.5 85.12,-295.5 85.12,-276.25 129.62,-276.25 129.62,-295.5"/>
<text text-anchor="middle" x="107.38" y="-282" font-family="Helvetica,sans-Serif" font-size="10.00">Error.h</text>
</a>
</g>
</g>
<!-- Node1&#45;&gt;Node4 -->
<g id="edge3_Node000001_Node000004" class="edge">
<title>Node1&#45;&gt;Node4</title>
<g id="a_edge3_Node000001_Node000004"><a xlink:title=" ">
<path fill="none" stroke="#63b8ff" d="M78.02,-331.2C83.15,-323.44 89.53,-313.81 95.03,-305.51"/>
<polygon fill="#63b8ff" stroke="#63b8ff" points="97.92,-307.48 100.53,-297.21 92.09,-303.62 97.92,-307.48"/>
</a>
</g>
</g>
<!-- Node3 -->
<g id="Node000003" class="node">
<title>Node3</title>
<g id="a_Node000003"><a xlink:title=" ">
<polygon fill="#e0e0e0" stroke="#999999" points="54,-240.25 2.75,-240.25 2.75,-221 54,-221 54,-240.25"/>
<text text-anchor="middle" x="28.38" y="-226.75" font-family="Helvetica,sans-Serif" font-size="10.00">assert.h</text>
</a>
</g>
</g>
<!-- Node2&#45;&gt;Node3 -->
<g id="edge2_Node000002_Node000003" class="edge">
<title>Node2&#45;&gt;Node3</title>
<g id="a_edge2_Node000002_Node000003"><a xlink:title=" ">
<path fill="none" stroke="#63b8ff" d="M34.22,-276.08C33.35,-269.49 32.13,-260.21 31.03,-251.82"/>
<polygon fill="#63b8ff" stroke="#63b8ff" points="34.53,-251.57 29.75,-242.11 27.59,-252.48 34.53,-251.57"/>
</a>
</g>
</g>
<!-- Node5 -->
<g id="Node000005" class="node">
<title>Node5</title>
<g id="a_Node000005"><a xlink:href="_error_types_8h.html" target="_top" xlink:title=" ">
<polygon fill="white" stroke="#666666" points="143.12,-240.25 71.62,-240.25 71.62,-221 143.12,-221 143.12,-240.25"/>
<text text-anchor="middle" x="107.38" y="-226.75" font-family="Helvetica,sans-Serif" font-size="10.00">ErrorTypes.h</text>
</a>
</g>
</g>
<!-- Node4&#45;&gt;Node5 -->
<g id="edge4_Node000004_Node000005" class="edge">
<title>Node4&#45;&gt;Node5</title>
<g id="a_edge4_Node000004_Node000005"><a xlink:title=" ">
<path fill="none" stroke="#63b8ff" d="M107.38,-276.08C107.38,-269.57 107.38,-260.42 107.38,-252.12"/>
<polygon fill="#63b8ff" stroke="#63b8ff" points="110.88,-252.12 107.38,-242.12 103.88,-252.12 110.88,-252.12"/>
</a>
</g>
</g>
<!-- Node13 -->
<g id="Node000013" class="node">
<title>Node13</title>
<g id="a_Node000013"><a xlink:href="_exception_8h.html" target="_top" xlink:title=" ">
<polygon fill="white" stroke="#666666" points="229.25,-240.25 161.5,-240.25 161.5,-221 229.25,-221 229.25,-240.25"/>
<text text-anchor="middle" x="195.38" y="-226.75" font-family="Helvetica,sans-Serif" font-size="10.00">Exception.h</text>
</a>
</g>
</g>
<!-- Node4&#45;&gt;Node13 -->
<g id="edge12_Node000004_Node000013" class="edge">
<title>Node4&#45;&gt;Node13</title>
<g id="a_edge12_Node000004_Node000013"><a xlink:title=" ">
<path fill="none" stroke="#63b8ff" d="M122.3,-275.84C135.58,-267.81 155.24,-255.91 170.83,-246.48"/>
<polygon fill="#63b8ff" stroke="#63b8ff" points="172.34,-249.66 179.08,-241.49 168.71,-243.67 172.34,-249.66"/>
</a>
</g>
</g>
<!-- Node6 -->
<g id="Node000006" class="node">
<title>Node6</title>
<g id="a_Node000006"><a xlink:href="_aliases_8h.html" target="_top" xlink:title=" ">
<polygon fill="white" stroke="#666666" points="67.62,-185 11.12,-185 11.12,-165.75 67.62,-165.75 67.62,-185"/>
<text text-anchor="middle" x="39.38" y="-171.5" font-family="Helvetica,sans-Serif" font-size="10.00">Aliases.h</text>
</a>
</g>
</g>
<!-- Node5&#45;&gt;Node6 -->
<g id="edge5_Node000005_Node000006" class="edge">
<title>Node5&#45;&gt;Node6</title>
<g id="a_edge5_Node000005_Node000006"><a xlink:title=" ">
<path fill="none" stroke="#63b8ff" d="M95.84,-220.59C85.91,-212.82 71.36,-201.42 59.52,-192.15"/>
<polygon fill="#63b8ff" stroke="#63b8ff" points="61.96,-189.62 51.93,-186.21 57.65,-195.13 61.96,-189.62"/>
</a>
</g>
</g>
<!-- Node12 -->
<g id="Node000012" class="node">
<title>Node12</title>
<g id="a_Node000012"><a xlink:href="_reflection_8h.html" target="_top" xlink:title=" ">
<polygon fill="white" stroke="#666666" points="154.62,-185 86.12,-185 86.12,-165.75 154.62,-165.75 154.62,-185"/>
<text text-anchor="middle" x="120.38" y="-171.5" font-family="Helvetica,sans-Serif" font-size="10.00">Reflection.h</text>
</a>
</g>
</g>
<!-- Node5&#45;&gt;Node12 -->
<g id="edge11_Node000005_Node000012" class="edge">
<title>Node5&#45;&gt;Node12</title>
<g id="a_edge11_Node000005_Node000012"><a xlink:title=" ">
<path fill="none" stroke="#63b8ff" d="M109.52,-220.83C111.15,-214.17 113.45,-204.74 115.52,-196.28"/>
<polygon fill="#63b8ff" stroke="#63b8ff" points="118.85,-197.37 117.82,-186.83 112.05,-195.71 118.85,-197.37"/>
</a>
</g>
</g>
<!-- Node7 -->
<g id="Node000007" class="node">
<title>Node7</title>
<g id="a_Node000007"><a xlink:href="_macros_8h.html" target="_top" xlink:title=" ">
<polygon fill="white" stroke="#666666" points="111.62,-129.75 55.12,-129.75 55.12,-110.5 111.62,-110.5 111.62,-129.75"/>
<text text-anchor="middle" x="83.38" y="-116.25" font-family="Helvetica,sans-Serif" font-size="10.00">Macros.h</text>
</a>
</g>
</g>
<!-- Node6&#45;&gt;Node7 -->
<g id="edge6_Node000006_Node000007" class="edge">
<title>Node6&#45;&gt;Node7</title>
<g id="a_edge6_Node000006_Node000007"><a xlink:title=" ">
<path fill="none" stroke="#63b8ff" d="M46.64,-165.58C52.66,-158.3 61.39,-147.73 68.83,-138.73"/>
<polygon fill="#63b8ff" stroke="#63b8ff" points="71.32,-141.21 74.99,-131.28 65.92,-136.76 71.32,-141.21"/>
</a>
</g>
</g>
<!-- Node8 -->
<g id="Node000008" class="node">
<title>Node8</title>
<g id="a_Node000008"><a xlink:href="_types_8h.html" target="_top" xlink:title=" ">
<polygon fill="white" stroke="#666666" points="136.62,-74.5 86.12,-74.5 86.12,-55.25 136.62,-55.25 136.62,-74.5"/>
<text text-anchor="middle" x="111.38" y="-61" font-family="Helvetica,sans-Serif" font-size="10.00">Types.h</text>
</a>
</g>
</g>
<!-- Node7&#45;&gt;Node8 -->
<g id="edge7_Node000007_Node000008" class="edge">
<title>Node7&#45;&gt;Node8</title>
<g id="a_edge7_Node000007_Node000008"><a xlink:title=" ">
<path fill="none" stroke="#63b8ff" d="M88,-110.33C91.62,-103.44 96.8,-93.59 101.37,-84.91"/>
<polygon fill="#63b8ff" stroke="#63b8ff" points="104.39,-86.68 105.95,-76.2 98.19,-83.42 104.39,-86.68"/>
</a>
</g>
</g>
<!-- Node9 -->
<g id="Node000009" class="node">
<title>Node9</title>
<g id="a_Node000009"><a xlink:title=" ">
<polygon fill="#e0e0e0" stroke="#999999" points="68.88,-19.25 1.88,-19.25 1.88,0 68.88,0 68.88,-19.25"/>
<text text-anchor="middle" x="35.38" y="-5.75" font-family="Helvetica,sans-Serif" font-size="10.00">sys/types.h</text>
</a>
</g>
</g>
<!-- Node8&#45;&gt;Node9 -->
<g id="edge8_Node000008_Node000009" class="edge">
<title>Node8&#45;&gt;Node9</title>
<g id="a_edge8_Node000008_Node000009"><a xlink:title=" ">
<path fill="none" stroke="#63b8ff" d="M98.48,-54.84C87.35,-47.04 71,-35.59 57.74,-26.29"/>
<polygon fill="#63b8ff" stroke="#63b8ff" points="59.77,-23.44 49.57,-20.57 55.75,-29.18 59.77,-23.44"/>
</a>
</g>
</g>
<!-- Node10 -->
<g id="Node000010" class="node">
<title>Node10</title>
<g id="a_Node000010"><a xlink:title=" ">
<polygon fill="#e0e0e0" stroke="#999999" points="135.5,-19.25 87.25,-19.25 87.25,0 135.5,0 135.5,-19.25"/>
<text text-anchor="middle" x="111.38" y="-5.75" font-family="Helvetica,sans-Serif" font-size="10.00">stdint.h</text>
</a>
</g>
</g>
<!-- Node8&#45;&gt;Node10 -->
<g id="edge9_Node000008_Node000010" class="edge">
<title>Node8&#45;&gt;Node10</title>
<g id="a_edge9_Node000008_Node000010"><a xlink:title=" ">
<path fill="none" stroke="#63b8ff" d="M111.38,-55.08C111.38,-48.57 111.38,-39.42 111.38,-31.12"/>
<polygon fill="#63b8ff" stroke="#63b8ff" points="114.88,-31.12 111.38,-21.12 107.88,-31.12 114.88,-31.12"/>
</a>
</g>
</g>
<!-- Node11 -->
<g id="Node000011" class="node">
<title>Node11</title>
<g id="a_Node000011"><a xlink:title=" ">
<polygon fill="#e0e0e0" stroke="#999999" points="209.25,-19.25 153.5,-19.25 153.5,0 209.25,0 209.25,-19.25"/>
<text text-anchor="middle" x="181.38" y="-5.75" font-family="Helvetica,sans-Serif" font-size="10.00">stdbool.h</text>
</a>
</g>
</g>
<!-- Node8&#45;&gt;Node11 -->
<g id="edge10_Node000008_Node000011" class="edge">
<title>Node8&#45;&gt;Node11</title>
<g id="a_edge10_Node000008_Node000011"><a xlink:title=" ">
<path fill="none" stroke="#63b8ff" d="M123.25,-54.84C133.47,-47.07 148.45,-35.67 160.64,-26.4"/>
<polygon fill="#63b8ff" stroke="#63b8ff" points="162.63,-29.28 168.47,-20.44 158.39,-23.71 162.63,-29.28"/>
</a>
</g>
</g>
<!-- Node13&#45;&gt;Node8 -->
<g id="edge13_Node000013_Node000008" class="edge">
<title>Node13&#45;&gt;Node8</title>
<g id="a_edge13_Node000013_Node000008"><a xlink:title=" ">
<path fill="none" stroke="#63b8ff" d="M190.86,-220.51C184.71,-208.09 173.3,-185.19 163.38,-165.75 148.96,-137.53 131.95,-105.01 121.42,-84.94"/>
<polygon fill="#63b8ff" stroke="#63b8ff" points="124.61,-83.5 116.86,-76.28 118.42,-86.76 124.61,-83.5"/>
</a>
</g>
</g>
<!-- Node14 -->
<g id="Node000014" class="node">
<title>Node14</title>
<g id="a_Node000014"><a xlink:title=" ">
<polygon fill="#e0e0e0" stroke="#999999" points="268.38,-185 210.38,-185 210.38,-165.75 268.38,-165.75 268.38,-185"/>
<text text-anchor="middle" x="239.38" y="-171.5" font-family="Helvetica,sans-Serif" font-size="10.00">exception</text>
</a>
</g>
</g>
<!-- Node13&#45;&gt;Node14 -->
<g id="edge14_Node000013_Node000014" class="edge">
<title>Node13&#45;&gt;Node14</title>
<g id="a_edge14_Node000013_Node000014"><a xlink:title=" ">
<path fill="none" stroke="#63b8ff" d="M202.64,-220.83C208.66,-213.55 217.39,-202.98 224.83,-193.98"/>
<polygon fill="#63b8ff" stroke="#63b8ff" points="227.32,-196.46 230.99,-186.53 221.92,-192.01 227.32,-196.46"/>
</a>
</g>
</g>
</g>
</svg>
