<?xml version="1.0" encoding="UTF-8" standalone="no"?>
<!DOCTYPE svg PUBLIC "-//W3C//DTD SVG 1.1//EN"
 "http://www.w3.org/Graphics/SVG/1.1/DTD/svg11.dtd">
<!-- Generated by graphviz version 10.0.1 (20240210.2158)
 -->
<!-- Title: /Users/hoff/Retro/virtualc64/Emulator/Base/Error.h Pages: 1 -->
<svg width="336pt" height="260pt"
 viewBox="0.00 0.00 335.88 259.50" xmlns="http://www.w3.org/2000/svg" xmlns:xlink="http://www.w3.org/1999/xlink">
<g id="graph0" class="graph" transform="scale(1 1) rotate(0) translate(4 255.5)">
<title>/Users/hoff/Retro/virtualc64/Emulator/Base/Error.h</title>
<!-- Node1 -->
<g id="Node000001" class="node">
<title>Node1</title>
<g id="a_Node000001"><a xlink:title=" ">
<polygon fill="#999999" stroke="#666666" points="173.38,-251.5 36.62,-251.5 36.62,-221 173.38,-221 173.38,-251.5"/>
<text text-anchor="start" x="44.62" y="-238" font-family="Helvetica,sans-Serif" font-size="10.00">/Users/hoff/Retro/virtualc64</text>
<text text-anchor="middle" x="105" y="-226.75" font-family="Helvetica,sans-Serif" font-size="10.00">/Emulator/Base/Error.h</text>
</a>
</g>
</g>
<!-- Node2 -->
<g id="Node000002" class="node">
<title>Node2</title>
<g id="a_Node000002"><a xlink:href="_error_types_8h.html" target="_top" xlink:title=" ">
<polygon fill="white" stroke="#666666" points="96.75,-185 25.25,-185 25.25,-165.75 96.75,-165.75 96.75,-185"/>
<text text-anchor="middle" x="61" y="-171.5" font-family="Helvetica,sans-Serif" font-size="10.00">ErrorTypes.h</text>
</a>
</g>
</g>
<!-- Node1&#45;&gt;Node2 -->
<g id="edge1_Node000001_Node000002" class="edge">
<title>Node1&#45;&gt;Node2</title>
<g id="a_edge1_Node000001_Node000002"><a xlink:title=" ">
<path fill="none" stroke="#63b8ff" d="M94.12,-220.7C88.2,-212.77 80.81,-202.88 74.52,-194.46"/>
<polygon fill="#63b8ff" stroke="#63b8ff" points="77.48,-192.58 68.69,-186.66 71.87,-196.77 77.48,-192.58"/>
</a>
</g>
</g>
<!-- Node12 -->
<g id="Node000012" class="node">
<title>Node12</title>
<g id="a_Node000012"><a xlink:href="_exception_8h_source.html" target="_top" xlink:title=" ">
<polygon fill="white" stroke="#666666" points="182.88,-185 115.12,-185 115.12,-165.75 182.88,-165.75 182.88,-185"/>
<text text-anchor="middle" x="149" y="-171.5" font-family="Helvetica,sans-Serif" font-size="10.00">Exception.h</text>
</a>
</g>
</g>
<!-- Node1&#45;&gt;Node12 -->
<g id="edge11_Node000001_Node000012" class="edge">
<title>Node1&#45;&gt;Node12</title>
<g id="a_edge11_Node000001_Node000012"><a xlink:title=" ">
<path fill="none" stroke="#63b8ff" d="M115.88,-220.7C121.8,-212.77 129.19,-202.88 135.48,-194.46"/>
<polygon fill="#63b8ff" stroke="#63b8ff" points="138.13,-196.77 141.31,-186.66 132.52,-192.58 138.13,-196.77"/>
</a>
</g>
</g>
<!-- Node3 -->
<g id="Node000003" class="node">
<title>Node3</title>
<g id="a_Node000003"><a xlink:href="_reflection_8h_source.html" target="_top" xlink:title=" ">
<polygon fill="white" stroke="#666666" points="95.25,-129.75 26.75,-129.75 26.75,-110.5 95.25,-110.5 95.25,-129.75"/>
<text text-anchor="middle" x="61" y="-116.25" font-family="Helvetica,sans-Serif" font-size="10.00">Reflection.h</text>
</a>
</g>
</g>
<!-- Node2&#45;&gt;Node3 -->
<g id="edge2_Node000002_Node000003" class="edge">
<title>Node2&#45;&gt;Node3</title>
<g id="a_edge2_Node000002_Node000003"><a xlink:title=" ">
<path fill="none" stroke="#63b8ff" d="M61,-165.58C61,-159.07 61,-149.92 61,-141.62"/>
<polygon fill="#63b8ff" stroke="#63b8ff" points="64.5,-141.62 61,-131.62 57.5,-141.62 64.5,-141.62"/>
</a>
</g>
</g>
<!-- Node4 -->
<g id="Node000004" class="node">
<title>Node4</title>
<g id="a_Node000004"><a xlink:href="_types_8h_source.html" target="_top" xlink:title=" ">
<polygon fill="white" stroke="#666666" points="201.25,-74.5 150.75,-74.5 150.75,-55.25 201.25,-55.25 201.25,-74.5"/>
<text text-anchor="middle" x="176" y="-61" font-family="Helvetica,sans-Serif" font-size="10.00">Types.h</text>
</a>
</g>
</g>
<!-- Node3&#45;&gt;Node4 -->
<g id="edge3_Node000003_Node000004" class="edge">
<title>Node3&#45;&gt;Node4</title>
<g id="a_edge3_Node000003_Node000004"><a xlink:title=" ">
<path fill="none" stroke="#63b8ff" d="M80.51,-110.09C98.52,-101.75 125.52,-89.25 146.23,-79.66"/>
<polygon fill="#63b8ff" stroke="#63b8ff" points="147.42,-82.97 155.02,-75.59 144.48,-76.61 147.42,-82.97"/>
</a>
</g>
</g>
<!-- Node10 -->
<g id="Node000010" class="node">
<title>Node10</title>
<g id="a_Node000010"><a xlink:title=" ">
<polygon fill="#e0e0e0" stroke="#999999" points="58,-74.5 0,-74.5 0,-55.25 58,-55.25 58,-74.5"/>
<text text-anchor="middle" x="29" y="-61" font-family="Helvetica,sans-Serif" font-size="10.00">functional</text>
</a>
</g>
</g>
<!-- Node3&#45;&gt;Node10 -->
<g id="edge9_Node000003_Node000010" class="edge">
<title>Node3&#45;&gt;Node10</title>
<g id="a_edge9_Node000003_Node000010"><a xlink:title=" ">
<path fill="none" stroke="#63b8ff" d="M55.72,-110.33C51.53,-103.36 45.52,-93.37 40.27,-84.62"/>
<polygon fill="#63b8ff" stroke="#63b8ff" points="43.33,-82.93 35.18,-76.16 37.33,-86.53 43.33,-82.93"/>
</a>
</g>
</g>
<!-- Node11 -->
<g id="Node000011" class="node">
<title>Node11</title>
<g id="a_Node000011"><a xlink:title=" ">
<polygon fill="#e0e0e0" stroke="#999999" points="110.38,-74.5 75.62,-74.5 75.62,-55.25 110.38,-55.25 110.38,-74.5"/>
<text text-anchor="middle" x="93" y="-61" font-family="Helvetica,sans-Serif" font-size="10.00">map</text>
</a>
</g>
</g>
<!-- Node3&#45;&gt;Node11 -->
<g id="edge10_Node000003_Node000011" class="edge">
<title>Node3&#45;&gt;Node11</title>
<g id="a_edge10_Node000003_Node000011"><a xlink:title=" ">
<path fill="none" stroke="#63b8ff" d="M66.28,-110.33C70.47,-103.36 76.48,-93.37 81.73,-84.62"/>
<polygon fill="#63b8ff" stroke="#63b8ff" points="84.67,-86.53 86.82,-76.16 78.67,-82.93 84.67,-86.53"/>
</a>
</g>
</g>
<!-- Node5 -->
<g id="Node000005" class="node">
<title>Node5</title>
<g id="a_Node000005"><a xlink:title=" ">
<polygon fill="#e0e0e0" stroke="#999999" points="71.5,-19.25 4.5,-19.25 4.5,0 71.5,0 71.5,-19.25"/>
<text text-anchor="middle" x="38" y="-5.75" font-family="Helvetica,sans-Serif" font-size="10.00">sys/types.h</text>
</a>
</g>
</g>
<!-- Node4&#45;&gt;Node5 -->
<g id="edge4_Node000004_Node000005" class="edge">
<title>Node4&#45;&gt;Node5</title>
<g id="a_edge4_Node000004_Node000005"><a xlink:title=" ">
<path fill="none" stroke="#63b8ff" d="M152.59,-54.84C130.48,-46.31 97.08,-33.42 72.03,-23.76"/>
<polygon fill="#63b8ff" stroke="#63b8ff" points="73.53,-20.58 62.94,-20.25 71.01,-27.11 73.53,-20.58"/>
</a>
</g>
</g>
<!-- Node6 -->
<g id="Node000006" class="node">
<title>Node6</title>
<g id="a_Node000006"><a xlink:title=" ">
<polygon fill="#e0e0e0" stroke="#999999" points="138.12,-19.25 89.88,-19.25 89.88,0 138.12,0 138.12,-19.25"/>
<text text-anchor="middle" x="114" y="-5.75" font-family="Helvetica,sans-Serif" font-size="10.00">stdint.h</text>
</a>
</g>
</g>
<!-- Node4&#45;&gt;Node6 -->
<g id="edge5_Node000004_Node000006" class="edge">
<title>Node4&#45;&gt;Node6</title>
<g id="a_edge5_Node000004_Node000006"><a xlink:title=" ">
<path fill="none" stroke="#63b8ff" d="M165.48,-54.84C156.61,-47.22 143.69,-36.12 133.01,-26.95"/>
<polygon fill="#63b8ff" stroke="#63b8ff" points="135.38,-24.37 125.51,-20.51 130.82,-29.68 135.38,-24.37"/>
</a>
</g>
</g>
<!-- Node7 -->
<g id="Node000007" class="node">
<title>Node7</title>
<g id="a_Node000007"><a xlink:title=" ">
<polygon fill="#e0e0e0" stroke="#999999" points="196,-19.25 156,-19.25 156,0 196,0 196,-19.25"/>
<text text-anchor="middle" x="176" y="-5.75" font-family="Helvetica,sans-Serif" font-size="10.00">string</text>
</a>
</g>
</g>
<!-- Node4&#45;&gt;Node7 -->
<g id="edge6_Node000004_Node000007" class="edge">
<title>Node4&#45;&gt;Node7</title>
<g id="a_edge6_Node000004_Node000007"><a xlink:title=" ">
<path fill="none" stroke="#63b8ff" d="M176,-55.08C176,-48.57 176,-39.42 176,-31.12"/>
<polygon fill="#63b8ff" stroke="#63b8ff" points="179.5,-31.12 176,-21.12 172.5,-31.12 179.5,-31.12"/>
</a>
</g>
</g>
<!-- Node8 -->
<g id="Node000008" class="node">
<title>Node8</title>
<g id="a_Node000008"><a xlink:title=" ">
<polygon fill="#e0e0e0" stroke="#999999" points="259.62,-19.25 214.38,-19.25 214.38,0 259.62,0 259.62,-19.25"/>
<text text-anchor="middle" x="237" y="-5.75" font-family="Helvetica,sans-Serif" font-size="10.00">cstring</text>
</a>
</g>
</g>
<!-- Node4&#45;&gt;Node8 -->
<g id="edge7_Node000004_Node000008" class="edge">
<title>Node4&#45;&gt;Node8</title>
<g id="a_edge7_Node000004_Node000008"><a xlink:title=" ">
<path fill="none" stroke="#63b8ff" d="M186.35,-54.84C195.08,-47.22 207.79,-36.12 218.3,-26.95"/>
<polygon fill="#63b8ff" stroke="#63b8ff" points="220.43,-29.73 225.66,-20.52 215.83,-24.46 220.43,-29.73"/>
</a>
</g>
</g>
<!-- Node9 -->
<g id="Node000009" class="node">
<title>Node9</title>
<g id="a_Node000009"><a xlink:title=" ">
<polygon fill="#e0e0e0" stroke="#999999" points="327.88,-19.25 278.12,-19.25 278.12,0 327.88,0 327.88,-19.25"/>
<text text-anchor="middle" x="303" y="-5.75" font-family="Helvetica,sans-Serif" font-size="10.00">optional</text>
</a>
</g>
</g>
<!-- Node4&#45;&gt;Node9 -->
<g id="edge8_Node000004_Node000009" class="edge">
<title>Node4&#45;&gt;Node9</title>
<g id="a_edge8_Node000004_Node000009"><a xlink:title=" ">
<path fill="none" stroke="#63b8ff" d="M197.54,-54.84C217.61,-46.43 247.8,-33.77 270.75,-24.15"/>
<polygon fill="#63b8ff" stroke="#63b8ff" points="272.09,-27.38 279.95,-20.29 269.38,-20.93 272.09,-27.38"/>
</a>
</g>
</g>
<!-- Node12&#45;&gt;Node4 -->
<g id="edge12_Node000012_Node000004" class="edge">
<title>Node12&#45;&gt;Node4</title>
<g id="a_edge12_Node000012_Node000004"><a xlink:title=" ">
<path fill="none" stroke="#63b8ff" d="M157.77,-165.37C165.32,-156.95 175.66,-143.61 180,-129.75 184.43,-115.59 183.16,-98.83 180.92,-86.03"/>
<polygon fill="#63b8ff" stroke="#63b8ff" points="184.35,-85.33 178.85,-76.28 177.5,-86.78 184.35,-85.33"/>
</a>
</g>
</g>
<!-- Node13 -->
<g id="Node000013" class="node">
<title>Node13</title>
<g id="a_Node000013"><a xlink:title=" ">
<polygon fill="#e0e0e0" stroke="#999999" points="171,-129.75 113,-129.75 113,-110.5 171,-110.5 171,-129.75"/>
<text text-anchor="middle" x="142" y="-116.25" font-family="Helvetica,sans-Serif" font-size="10.00">exception</text>
</a>
</g>
</g>
<!-- Node12&#45;&gt;Node13 -->
<g id="edge13_Node000012_Node000013" class="edge">
<title>Node12&#45;&gt;Node13</title>
<g id="a_edge13_Node000012_Node000013"><a xlink:title=" ">
<path fill="none" stroke="#63b8ff" d="M147.84,-165.58C146.98,-158.99 145.76,-149.71 144.66,-141.32"/>
<polygon fill="#63b8ff" stroke="#63b8ff" points="148.15,-141.07 143.38,-131.61 141.21,-141.98 148.15,-141.07"/>
</a>
</g>
</g>
</g>
</svg>
