<?xml version="1.0" encoding="UTF-8" standalone="no"?>
<!DOCTYPE svg PUBLIC "-//W3C//DTD SVG 1.1//EN"
 "http://www.w3.org/Graphics/SVG/1.1/DTD/svg11.dtd">
<!-- Generated by graphviz version 10.0.1 (20240210.2158)
 -->
<!-- Title: /Users/hoff/Retro/virtualc64/Emulator/Components/LogicBoard/ExpansionPortTypes.h Pages: 1 -->
<svg width="314pt" height="394pt"
 viewBox="0.00 0.00 313.50 393.50" xmlns="http://www.w3.org/2000/svg" xmlns:xlink="http://www.w3.org/1999/xlink">
<g id="graph0" class="graph" transform="scale(1 1) rotate(0) translate(4 389.5)">
<title>/Users/hoff/Retro/virtualc64/Emulator/Components/LogicBoard/ExpansionPortTypes.h</title>
<!-- Node1 -->
<g id="Node000001" class="node">
<title>Node1</title>
<g id="a_Node000001"><a xlink:title=" ">
<polygon fill="#999999" stroke="#666666" points="238,-385.5 69.75,-385.5 69.75,-343.75 238,-343.75 238,-385.5"/>
<text text-anchor="start" x="77.75" y="-372" font-family="Helvetica,sans-Serif" font-size="10.00">/Users/hoff/Retro/virtualc64</text>
<text text-anchor="start" x="77.75" y="-360.75" font-family="Helvetica,sans-Serif" font-size="10.00">/Emulator/Components/LogicBoard</text>
<text text-anchor="middle" x="153.88" y="-349.5" font-family="Helvetica,sans-Serif" font-size="10.00">/ExpansionPortTypes.h</text>
</a>
</g>
</g>
<!-- Node2 -->
<g id="Node000002" class="node">
<title>Node2</title>
<g id="a_Node000002"><a xlink:href="_expansion_port_8h_source.html" target="_top" xlink:title=" ">
<polygon fill="white" stroke="#666666" points="182,-307.75 13.75,-307.75 13.75,-266 182,-266 182,-307.75"/>
<text text-anchor="start" x="21.75" y="-294.25" font-family="Helvetica,sans-Serif" font-size="10.00">/Users/hoff/Retro/virtualc64</text>
<text text-anchor="start" x="21.75" y="-283" font-family="Helvetica,sans-Serif" font-size="10.00">/Emulator/Components/LogicBoard</text>
<text text-anchor="middle" x="97.88" y="-271.75" font-family="Helvetica,sans-Serif" font-size="10.00">/ExpansionPort.h</text>
</a>
</g>
</g>
<!-- Node1&#45;&gt;Node2 -->
<g id="edge1_Node000001_Node000002" class="edge">
<title>Node1&#45;&gt;Node2</title>
<g id="a_edge1_Node000001_Node000002"><a xlink:title=" ">
<path fill="none" stroke="#63b8ff" d="M132.15,-334.23C125.72,-325.54 118.83,-316.22 112.92,-308.23"/>
<polygon fill="#63b8ff" stroke="#63b8ff" points="129.21,-336.15 137.97,-342.11 134.84,-331.99 129.21,-336.15"/>
</a>
</g>
</g>
<!-- Node7 -->
<g id="Node000007" class="node">
<title>Node7</title>
<g id="a_Node000007"><a xlink:href="_virtual_c64_types_8h.html" target="_top" xlink:title=" ">
<polygon fill="white" stroke="#666666" points="305.5,-230 164.25,-230 164.25,-199.5 305.5,-199.5 305.5,-230"/>
<text text-anchor="start" x="172.25" y="-216.5" font-family="Helvetica,sans-Serif" font-size="10.00">/Users/hoff/Retro/virtualc64</text>
<text text-anchor="middle" x="234.88" y="-205.25" font-family="Helvetica,sans-Serif" font-size="10.00">/Emulator/VirtualC64Types.h</text>
</a>
</g>
</g>
<!-- Node1&#45;&gt;Node7 -->
<g id="edge6_Node000001_Node000007" class="edge">
<title>Node1&#45;&gt;Node7</title>
<g id="a_edge6_Node000001_Node000007"><a xlink:title=" ">
<path fill="none" stroke="#63b8ff" d="M174.58,-334.02C180.11,-325.67 185.93,-316.48 190.88,-307.75 205.89,-281.25 220.59,-248.83 228.62,-230.41"/>
<polygon fill="#63b8ff" stroke="#63b8ff" points="171.82,-331.85 169.13,-342.1 177.62,-335.77 171.82,-331.85"/>
</a>
</g>
</g>
<!-- Node3 -->
<g id="Node000003" class="node">
<title>Node3</title>
<g id="a_Node000003"><a xlink:href="_c64_8h_source.html" target="_top" xlink:title=" ">
<polygon fill="white" stroke="#666666" points="145.75,-230 0,-230 0,-199.5 145.75,-199.5 145.75,-230"/>
<text text-anchor="start" x="8" y="-216.5" font-family="Helvetica,sans-Serif" font-size="10.00">/Users/hoff/Retro/virtualc64</text>
<text text-anchor="middle" x="72.88" y="-205.25" font-family="Helvetica,sans-Serif" font-size="10.00">/Emulator/Components/C64.h</text>
</a>
</g>
</g>
<!-- Node2&#45;&gt;Node3 -->
<g id="edge2_Node000002_Node000003" class="edge">
<title>Node2&#45;&gt;Node3</title>
<g id="a_edge2_Node000002_Node000003"><a xlink:title=" ">
<path fill="none" stroke="#63b8ff" d="M86.87,-255C83.79,-246.37 80.59,-237.39 78.03,-230.2"/>
<polygon fill="#63b8ff" stroke="#63b8ff" points="83.48,-255.92 90.14,-264.17 90.07,-253.57 83.48,-255.92"/>
</a>
</g>
</g>
<!-- Node4 -->
<g id="Node000004" class="node">
<title>Node4</title>
<g id="a_Node000004"><a xlink:href="_emulator_8h_source.html" target="_top" xlink:title=" ">
<polygon fill="white" stroke="#666666" points="180.88,-163.5 14.88,-163.5 14.88,-133 180.88,-133 180.88,-163.5"/>
<text text-anchor="start" x="22.88" y="-150" font-family="Helvetica,sans-Serif" font-size="10.00">/Users/hoff/Retro/virtualc64</text>
<text text-anchor="middle" x="97.88" y="-138.75" font-family="Helvetica,sans-Serif" font-size="10.00">/Emulator/Components/Emulator.h</text>
</a>
</g>
</g>
<!-- Node3&#45;&gt;Node4 -->
<g id="edge3_Node000003_Node000004" class="edge">
<title>Node3&#45;&gt;Node4</title>
<g id="a_edge3_Node000003_Node000004"><a xlink:title=" ">
<path fill="none" stroke="#63b8ff" d="M82.6,-188.66C85.86,-180.25 89.38,-171.16 92.22,-163.83"/>
<polygon fill="#63b8ff" stroke="#63b8ff" points="79.45,-187.11 79.09,-197.7 85.97,-189.64 79.45,-187.11"/>
</a>
</g>
</g>
<!-- Node5 -->
<g id="Node000005" class="node">
<title>Node5</title>
<g id="a_Node000005"><a xlink:href="_virtual_c64_8h.html" target="_top" xlink:title=" ">
<polygon fill="white" stroke="#666666" points="221.25,-97 84.5,-97 84.5,-66.5 221.25,-66.5 221.25,-97"/>
<text text-anchor="start" x="92.5" y="-83.5" font-family="Helvetica,sans-Serif" font-size="10.00">/Users/hoff/Retro/virtualc64</text>
<text text-anchor="middle" x="152.88" y="-72.25" font-family="Helvetica,sans-Serif" font-size="10.00">/Emulator/VirtualC64.h</text>
</a>
</g>
</g>
<!-- Node4&#45;&gt;Node5 -->
<g id="edge4_Node000004_Node000005" class="edge">
<title>Node4&#45;&gt;Node5</title>
<g id="a_edge4_Node000004_Node000005"><a xlink:title=" ">
<path fill="none" stroke="#63b8ff" d="M117.59,-124.13C125.21,-115.19 133.7,-105.24 140.44,-97.33"/>
<polygon fill="#63b8ff" stroke="#63b8ff" points="115.16,-121.58 111.34,-131.46 120.49,-126.12 115.16,-121.58"/>
</a>
</g>
</g>
<!-- Node6 -->
<g id="Node000006" class="node">
<title>Node6</title>
<g id="a_Node000006"><a xlink:href="_headless_8h_source.html" target="_top" xlink:title=" ">
<polygon fill="white" stroke="#666666" points="221.25,-30.5 84.5,-30.5 84.5,0 221.25,0 221.25,-30.5"/>
<text text-anchor="start" x="92.5" y="-17" font-family="Helvetica,sans-Serif" font-size="10.00">/Users/hoff/Retro/virtualc64</text>
<text text-anchor="middle" x="152.88" y="-5.75" font-family="Helvetica,sans-Serif" font-size="10.00">/Emulator/Headless.h</text>
</a>
</g>
</g>
<!-- Node5&#45;&gt;Node6 -->
<g id="edge5_Node000005_Node000006" class="edge">
<title>Node5&#45;&gt;Node6</title>
<g id="a_edge5_Node000005_Node000006"><a xlink:title=" ">
<path fill="none" stroke="#63b8ff" d="M152.88,-54.81C152.88,-46.64 152.88,-37.91 152.88,-30.83"/>
<polygon fill="#63b8ff" stroke="#63b8ff" points="149.38,-54.6 152.88,-64.6 156.38,-54.6 149.38,-54.6"/>
</a>
</g>
</g>
<!-- Node7&#45;&gt;Node5 -->
<g id="edge7_Node000007_Node000005" class="edge">
<title>Node7&#45;&gt;Node5</title>
<g id="a_edge7_Node000007_Node000005"><a xlink:title=" ">
<path fill="none" stroke="#63b8ff" d="M222.3,-189.32C213.67,-173.05 201.7,-151.38 189.88,-133 181.9,-120.61 171.96,-107.2 164.39,-97.35"/>
<polygon fill="#63b8ff" stroke="#63b8ff" points="219,-190.56 226.74,-197.79 225.2,-187.31 219,-190.56"/>
</a>
</g>
</g>
</g>
</svg>
