<?xml version="1.0" encoding="UTF-8" standalone="no"?>
<!DOCTYPE svg PUBLIC "-//W3C//DTD SVG 1.1//EN"
 "http://www.w3.org/Graphics/SVG/1.1/DTD/svg11.dtd">
<!-- Generated by graphviz version 10.0.1 (20240210.2158)
 -->
<!-- Title: /Users/hoff/Retro/virtualc64/Emulator/Components/VICII/Recorder/FFmpeg.cpp Pages: 1 -->
<svg width="805pt" height="271pt"
 viewBox="0.00 0.00 804.50 270.75" xmlns="http://www.w3.org/2000/svg" xmlns:xlink="http://www.w3.org/1999/xlink">
<g id="graph0" class="graph" transform="scale(1 1) rotate(0) translate(4 266.75)">
<title>/Users/hoff/Retro/virtualc64/Emulator/Components/VICII/Recorder/FFmpeg.cpp</title>
<!-- Node1 -->
<g id="Node000001" class="node">
<title>Node1</title>
<g id="a_Node000001"><a xlink:title=" ">
<polygon fill="#999999" stroke="#666666" points="473,-262.75 330.25,-262.75 330.25,-221 473,-221 473,-262.75"/>
<text text-anchor="start" x="338.25" y="-249.25" font-family="Helvetica,sans-Serif" font-size="10.00">/Users/hoff/Retro/virtualc64</text>
<text text-anchor="start" x="338.25" y="-238" font-family="Helvetica,sans-Serif" font-size="10.00">/Emulator/Components/VICII</text>
<text text-anchor="middle" x="401.62" y="-226.75" font-family="Helvetica,sans-Serif" font-size="10.00">/Recorder/FFmpeg.cpp</text>
</a>
</g>
</g>
<!-- Node2 -->
<g id="Node000002" class="node">
<title>Node2</title>
<g id="a_Node000002"><a xlink:href="config_8h.html" target="_top" xlink:title=" ">
<polygon fill="white" stroke="#666666" points="217.88,-185 167.38,-185 167.38,-165.75 217.88,-165.75 217.88,-185"/>
<text text-anchor="middle" x="192.62" y="-171.5" font-family="Helvetica,sans-Serif" font-size="10.00">config.h</text>
</a>
</g>
</g>
<!-- Node1&#45;&gt;Node2 -->
<g id="edge1_Node000001_Node000002" class="edge">
<title>Node1&#45;&gt;Node2</title>
<g id="a_edge1_Node000001_Node000002"><a xlink:title=" ">
<path fill="none" stroke="#63b8ff" d="M335.78,-220.56C300.61,-209.7 258.63,-196.75 229.26,-187.68"/>
<polygon fill="#63b8ff" stroke="#63b8ff" points="230.31,-184.34 219.72,-184.74 228.24,-191.03 230.31,-184.34"/>
</a>
</g>
</g>
<!-- Node4 -->
<g id="Node000004" class="node">
<title>Node4</title>
<g id="a_Node000004"><a xlink:href="_f_fmpeg_8h.html" target="_top" xlink:title=" ">
<polygon fill="white" stroke="#666666" points="786.75,-129.75 726.5,-129.75 726.5,-110.5 786.75,-110.5 786.75,-129.75"/>
<text text-anchor="middle" x="756.62" y="-116.25" font-family="Helvetica,sans-Serif" font-size="10.00">FFmpeg.h</text>
</a>
</g>
</g>
<!-- Node1&#45;&gt;Node4 -->
<g id="edge3_Node000001_Node000004" class="edge">
<title>Node1&#45;&gt;Node4</title>
<g id="a_edge3_Node000001_Node000004"><a xlink:title=" ">
<path fill="none" stroke="#63b8ff" d="M461.85,-220.56C535.41,-195.75 657.61,-154.53 718.99,-133.82"/>
<polygon fill="#63b8ff" stroke="#63b8ff" points="719.93,-137.2 728.29,-130.68 717.69,-130.56 719.93,-137.2"/>
</a>
</g>
</g>
<!-- Node10 -->
<g id="Node000010" class="node">
<title>Node10</title>
<g id="a_Node000010"><a xlink:href="_i_o_utils_8h.html" target="_top" xlink:title=" ">
<polygon fill="white" stroke="#666666" points="429.12,-185 374.12,-185 374.12,-165.75 429.12,-165.75 429.12,-185"/>
<text text-anchor="middle" x="401.62" y="-171.5" font-family="Helvetica,sans-Serif" font-size="10.00">IOUtils.h</text>
</a>
</g>
</g>
<!-- Node1&#45;&gt;Node10 -->
<g id="edge9_Node000001_Node000010" class="edge">
<title>Node1&#45;&gt;Node10</title>
<g id="a_edge9_Node000001_Node000010"><a xlink:title=" ">
<path fill="none" stroke="#63b8ff" d="M401.62,-220.82C401.62,-213.15 401.62,-204.39 401.62,-196.7"/>
<polygon fill="#63b8ff" stroke="#63b8ff" points="405.13,-196.96 401.63,-186.96 398.13,-196.96 405.13,-196.96"/>
</a>
</g>
</g>
<!-- Node3 -->
<g id="Node000003" class="node">
<title>Node3</title>
<g id="a_Node000003"><a xlink:title=" ">
<polygon fill="#e0e0e0" stroke="#999999" points="51.25,-129.75 0,-129.75 0,-110.5 51.25,-110.5 51.25,-129.75"/>
<text text-anchor="middle" x="25.62" y="-116.25" font-family="Helvetica,sans-Serif" font-size="10.00">assert.h</text>
</a>
</g>
</g>
<!-- Node2&#45;&gt;Node3 -->
<g id="edge2_Node000002_Node000003" class="edge">
<title>Node2&#45;&gt;Node3</title>
<g id="a_edge2_Node000002_Node000003"><a xlink:title=" ">
<path fill="none" stroke="#63b8ff" d="M166.9,-166.17C138.91,-157.25 93.93,-142.9 62.26,-132.81"/>
<polygon fill="#63b8ff" stroke="#63b8ff" points="63.69,-129.59 53.1,-129.89 61.56,-136.26 63.69,-129.59"/>
</a>
</g>
</g>
<!-- Node5 -->
<g id="Node000005" class="node">
<title>Node5</title>
<g id="a_Node000005"><a xlink:href="_types_8h.html" target="_top" xlink:title=" ">
<polygon fill="white" stroke="#666666" points="723.88,-74.5 673.38,-74.5 673.38,-55.25 723.88,-55.25 723.88,-74.5"/>
<text text-anchor="middle" x="698.62" y="-61" font-family="Helvetica,sans-Serif" font-size="10.00">Types.h</text>
</a>
</g>
</g>
<!-- Node4&#45;&gt;Node5 -->
<g id="edge4_Node000004_Node000005" class="edge">
<title>Node4&#45;&gt;Node5</title>
<g id="a_edge4_Node000004_Node000005"><a xlink:title=" ">
<path fill="none" stroke="#63b8ff" d="M746.79,-110.09C738.57,-102.55 726.64,-91.6 716.71,-82.48"/>
<polygon fill="#63b8ff" stroke="#63b8ff" points="719.17,-79.98 709.43,-75.8 714.43,-85.14 719.17,-79.98"/>
</a>
</g>
</g>
<!-- Node9 -->
<g id="Node000009" class="node">
<title>Node9</title>
<g id="a_Node000009"><a xlink:title=" ">
<polygon fill="#e0e0e0" stroke="#999999" points="577.12,-74.5 534.12,-74.5 534.12,-55.25 577.12,-55.25 577.12,-74.5"/>
<text text-anchor="middle" x="555.62" y="-61" font-family="Helvetica,sans-Serif" font-size="10.00">vector</text>
</a>
</g>
</g>
<!-- Node4&#45;&gt;Node9 -->
<g id="edge8_Node000004_Node000009" class="edge">
<title>Node4&#45;&gt;Node9</title>
<g id="a_edge8_Node000004_Node000009"><a xlink:title=" ">
<path fill="none" stroke="#63b8ff" d="M726.1,-111.04C688.97,-101.2 626.56,-84.67 588.44,-74.57"/>
<polygon fill="#63b8ff" stroke="#63b8ff" points="589.46,-71.22 578.9,-72.04 587.67,-77.99 589.46,-71.22"/>
</a>
</g>
</g>
<!-- Node6 -->
<g id="Node000006" class="node">
<title>Node6</title>
<g id="a_Node000006"><a xlink:title=" ">
<polygon fill="#e0e0e0" stroke="#999999" points="656.12,-19.25 589.12,-19.25 589.12,0 656.12,0 656.12,-19.25"/>
<text text-anchor="middle" x="622.62" y="-5.75" font-family="Helvetica,sans-Serif" font-size="10.00">sys/types.h</text>
</a>
</g>
</g>
<!-- Node5&#45;&gt;Node6 -->
<g id="edge5_Node000005_Node000006" class="edge">
<title>Node5&#45;&gt;Node6</title>
<g id="a_edge5_Node000005_Node000006"><a xlink:title=" ">
<path fill="none" stroke="#63b8ff" d="M685.73,-54.84C674.6,-47.04 658.25,-35.59 644.99,-26.29"/>
<polygon fill="#63b8ff" stroke="#63b8ff" points="647.02,-23.44 636.82,-20.57 643,-29.18 647.02,-23.44"/>
</a>
</g>
</g>
<!-- Node7 -->
<g id="Node000007" class="node">
<title>Node7</title>
<g id="a_Node000007"><a xlink:title=" ">
<polygon fill="#e0e0e0" stroke="#999999" points="722.75,-19.25 674.5,-19.25 674.5,0 722.75,0 722.75,-19.25"/>
<text text-anchor="middle" x="698.62" y="-5.75" font-family="Helvetica,sans-Serif" font-size="10.00">stdint.h</text>
</a>
</g>
</g>
<!-- Node5&#45;&gt;Node7 -->
<g id="edge6_Node000005_Node000007" class="edge">
<title>Node5&#45;&gt;Node7</title>
<g id="a_edge6_Node000005_Node000007"><a xlink:title=" ">
<path fill="none" stroke="#63b8ff" d="M698.62,-55.08C698.62,-48.57 698.62,-39.42 698.62,-31.12"/>
<polygon fill="#63b8ff" stroke="#63b8ff" points="702.13,-31.12 698.63,-21.12 695.13,-31.12 702.13,-31.12"/>
</a>
</g>
</g>
<!-- Node8 -->
<g id="Node000008" class="node">
<title>Node8</title>
<g id="a_Node000008"><a xlink:title=" ">
<polygon fill="#e0e0e0" stroke="#999999" points="796.5,-19.25 740.75,-19.25 740.75,0 796.5,0 796.5,-19.25"/>
<text text-anchor="middle" x="768.62" y="-5.75" font-family="Helvetica,sans-Serif" font-size="10.00">stdbool.h</text>
</a>
</g>
</g>
<!-- Node5&#45;&gt;Node8 -->
<g id="edge7_Node000005_Node000008" class="edge">
<title>Node5&#45;&gt;Node8</title>
<g id="a_edge7_Node000005_Node000008"><a xlink:title=" ">
<path fill="none" stroke="#63b8ff" d="M710.5,-54.84C720.72,-47.07 735.7,-35.67 747.89,-26.4"/>
<polygon fill="#63b8ff" stroke="#63b8ff" points="749.88,-29.28 755.72,-20.44 745.64,-23.71 749.88,-29.28"/>
</a>
</g>
</g>
<!-- Node10&#45;&gt;Node5 -->
<g id="edge10_Node000010_Node000005" class="edge">
<title>Node10&#45;&gt;Node5</title>
<g id="a_edge10_Node000010_Node000005"><a xlink:title=" ">
<path fill="none" stroke="#63b8ff" d="M429.49,-173.57C492.38,-171.19 642.71,-162.16 679.62,-129.75 692,-118.89 696.49,-100.36 698.03,-86.05"/>
<polygon fill="#63b8ff" stroke="#63b8ff" points="701.51,-86.57 698.66,-76.37 694.52,-86.12 701.51,-86.57"/>
</a>
</g>
</g>
<!-- Node10&#45;&gt;Node9 -->
<g id="edge21_Node000010_Node000009" class="edge">
<title>Node10&#45;&gt;Node9</title>
<g id="a_edge21_Node000010_Node000009"><a xlink:title=" ">
<path fill="none" stroke="#63b8ff" d="M406.35,-165.34C413.86,-151.76 429.72,-126.03 449.62,-110.5 471.48,-93.45 500.8,-81.77 523.06,-74.65"/>
<polygon fill="#63b8ff" stroke="#63b8ff" points="523.98,-78.03 532.53,-71.78 521.95,-71.33 523.98,-78.03"/>
</a>
</g>
</g>
<!-- Node11 -->
<g id="Node000011" class="node">
<title>Node11</title>
<g id="a_Node000011"><a xlink:href="_string_utils_8h.html" target="_top" xlink:title=" ">
<polygon fill="white" stroke="#666666" points="590.62,-129.75 520.62,-129.75 520.62,-110.5 590.62,-110.5 590.62,-129.75"/>
<text text-anchor="middle" x="555.62" y="-116.25" font-family="Helvetica,sans-Serif" font-size="10.00">StringUtils.h</text>
</a>
</g>
</g>
<!-- Node10&#45;&gt;Node11 -->
<g id="edge11_Node000010_Node000011" class="edge">
<title>Node10&#45;&gt;Node11</title>
<g id="a_edge11_Node000010_Node000011"><a xlink:title=" ">
<path fill="none" stroke="#63b8ff" d="M427.75,-165.34C452.75,-156.7 490.7,-143.57 518.77,-133.87"/>
<polygon fill="#63b8ff" stroke="#63b8ff" points="519.64,-137.27 527.94,-130.7 517.35,-130.66 519.64,-137.27"/>
</a>
</g>
</g>
<!-- Node12 -->
<g id="Node000012" class="node">
<title>Node12</title>
<g id="a_Node000012"><a xlink:title=" ">
<polygon fill="#e0e0e0" stroke="#999999" points="502.12,-129.75 459.12,-129.75 459.12,-110.5 502.12,-110.5 502.12,-129.75"/>
<text text-anchor="middle" x="480.62" y="-116.25" font-family="Helvetica,sans-Serif" font-size="10.00">fcntl.h</text>
</a>
</g>
</g>
<!-- Node10&#45;&gt;Node12 -->
<g id="edge14_Node000010_Node000012" class="edge">
<title>Node10&#45;&gt;Node12</title>
<g id="a_edge14_Node000010_Node000012"><a xlink:title=" ">
<path fill="none" stroke="#63b8ff" d="M415.03,-165.34C426.72,-157.46 443.93,-145.86 457.79,-136.52"/>
<polygon fill="#63b8ff" stroke="#63b8ff" points="459.57,-139.54 465.9,-131.05 455.65,-133.74 459.57,-139.54"/>
</a>
</g>
</g>
<!-- Node13 -->
<g id="Node000013" class="node">
<title>Node13</title>
<g id="a_Node000013"><a xlink:title=" ">
<polygon fill="#e0e0e0" stroke="#999999" points="670.12,-129.75 609.12,-129.75 609.12,-110.5 670.12,-110.5 670.12,-129.75"/>
<text text-anchor="middle" x="639.62" y="-116.25" font-family="Helvetica,sans-Serif" font-size="10.00">filesystem</text>
</a>
</g>
</g>
<!-- Node10&#45;&gt;Node13 -->
<g id="edge15_Node000010_Node000013" class="edge">
<title>Node10&#45;&gt;Node13</title>
<g id="a_edge15_Node000010_Node000013"><a xlink:title=" ">
<path fill="none" stroke="#63b8ff" d="M429.39,-168.16C470.83,-158.89 549.14,-141.37 597.61,-130.53"/>
<polygon fill="#63b8ff" stroke="#63b8ff" points="598.18,-133.98 607.18,-128.38 596.65,-127.15 598.18,-133.98"/>
</a>
</g>
</g>
<!-- Node14 -->
<g id="Node000014" class="node">
<title>Node14</title>
<g id="a_Node000014"><a xlink:title=" ">
<polygon fill="#e0e0e0" stroke="#999999" points="118.12,-129.75 69.12,-129.75 69.12,-110.5 118.12,-110.5 118.12,-129.75"/>
<text text-anchor="middle" x="93.62" y="-116.25" font-family="Helvetica,sans-Serif" font-size="10.00">fstream</text>
</a>
</g>
</g>
<!-- Node10&#45;&gt;Node14 -->
<g id="edge16_Node000010_Node000014" class="edge">
<title>Node10&#45;&gt;Node14</title>
<g id="a_edge16_Node000010_Node000014"><a xlink:title=" ">
<path fill="none" stroke="#63b8ff" d="M373.87,-170.67C326.06,-164.11 224.92,-149.48 129.46,-129.97"/>
<polygon fill="#63b8ff" stroke="#63b8ff" points="130.43,-126.59 119.93,-127.99 129.02,-133.45 130.43,-126.59"/>
</a>
</g>
</g>
<!-- Node15 -->
<g id="Node000015" class="node">
<title>Node15</title>
<g id="a_Node000015"><a xlink:title=" ">
<polygon fill="#e0e0e0" stroke="#999999" points="184.75,-129.75 136.5,-129.75 136.5,-110.5 184.75,-110.5 184.75,-129.75"/>
<text text-anchor="middle" x="160.62" y="-116.25" font-family="Helvetica,sans-Serif" font-size="10.00">istream</text>
</a>
</g>
</g>
<!-- Node10&#45;&gt;Node15 -->
<g id="edge17_Node000010_Node000015" class="edge">
<title>Node10&#45;&gt;Node15</title>
<g id="a_edge17_Node000010_Node000015"><a xlink:title=" ">
<path fill="none" stroke="#63b8ff" d="M373.95,-168.84C336.04,-161.18 265.57,-146.62 196.22,-130.29"/>
<polygon fill="#63b8ff" stroke="#63b8ff" points="197.11,-126.9 186.58,-128 195.5,-133.71 197.11,-126.9"/>
</a>
</g>
</g>
<!-- Node16 -->
<g id="Node000016" class="node">
<title>Node16</title>
<g id="a_Node000016"><a xlink:title=" ">
<polygon fill="#e0e0e0" stroke="#999999" points="256.38,-129.75 202.88,-129.75 202.88,-110.5 256.38,-110.5 256.38,-129.75"/>
<text text-anchor="middle" x="229.62" y="-116.25" font-family="Helvetica,sans-Serif" font-size="10.00">iostream</text>
</a>
</g>
</g>
<!-- Node10&#45;&gt;Node16 -->
<g id="edge18_Node000010_Node000016" class="edge">
<title>Node10&#45;&gt;Node16</title>
<g id="a_edge18_Node000010_Node000016"><a xlink:title=" ">
<path fill="none" stroke="#63b8ff" d="M373.99,-165.82C345.11,-156.88 299.6,-142.79 267.41,-132.82"/>
<polygon fill="#63b8ff" stroke="#63b8ff" points="268.66,-129.55 258.07,-129.93 266.59,-136.23 268.66,-129.55"/>
</a>
</g>
</g>
<!-- Node17 -->
<g id="Node000017" class="node">
<title>Node17</title>
<g id="a_Node000017"><a xlink:title=" ">
<polygon fill="#e0e0e0" stroke="#999999" points="325.25,-129.75 274,-129.75 274,-110.5 325.25,-110.5 325.25,-129.75"/>
<text text-anchor="middle" x="299.62" y="-116.25" font-family="Helvetica,sans-Serif" font-size="10.00">sstream</text>
</a>
</g>
</g>
<!-- Node10&#45;&gt;Node17 -->
<g id="edge19_Node000010_Node000017" class="edge">
<title>Node10&#45;&gt;Node17</title>
<g id="a_edge19_Node000010_Node000017"><a xlink:title=" ">
<path fill="none" stroke="#63b8ff" d="M384.32,-165.34C368.64,-157.16 345.27,-144.96 327.05,-135.44"/>
<polygon fill="#63b8ff" stroke="#63b8ff" points="328.84,-132.43 318.35,-130.9 325.6,-138.63 328.84,-132.43"/>
</a>
</g>
</g>
<!-- Node18 -->
<g id="Node000018" class="node">
<title>Node18</title>
<g id="a_Node000018"><a xlink:title=" ">
<polygon fill="#e0e0e0" stroke="#999999" points="402.38,-129.75 342.88,-129.75 342.88,-110.5 402.38,-110.5 402.38,-129.75"/>
<text text-anchor="middle" x="372.62" y="-116.25" font-family="Helvetica,sans-Serif" font-size="10.00">sys/stat.h</text>
</a>
</g>
</g>
<!-- Node10&#45;&gt;Node18 -->
<g id="edge20_Node000010_Node000018" class="edge">
<title>Node10&#45;&gt;Node18</title>
<g id="a_edge20_Node000010_Node000018"><a xlink:title=" ">
<path fill="none" stroke="#63b8ff" d="M396.84,-165.58C393.08,-158.69 387.72,-148.84 382.99,-140.16"/>
<polygon fill="#63b8ff" stroke="#63b8ff" points="386.1,-138.55 378.24,-131.44 379.95,-141.89 386.1,-138.55"/>
</a>
</g>
</g>
<!-- Node11&#45;&gt;Node5 -->
<g id="edge12_Node000011_Node000005" class="edge">
<title>Node11&#45;&gt;Node5</title>
<g id="a_edge12_Node000011_Node000005"><a xlink:title=" ">
<path fill="none" stroke="#63b8ff" d="M579.88,-110.09C602.89,-101.52 637.72,-88.56 663.71,-78.88"/>
<polygon fill="#63b8ff" stroke="#63b8ff" points="664.68,-82.25 672.83,-75.48 662.24,-75.69 664.68,-82.25"/>
</a>
</g>
</g>
<!-- Node11&#45;&gt;Node9 -->
<g id="edge13_Node000011_Node000009" class="edge">
<title>Node11&#45;&gt;Node9</title>
<g id="a_edge13_Node000011_Node000009"><a xlink:title=" ">
<path fill="none" stroke="#63b8ff" d="M555.62,-110.33C555.62,-103.82 555.62,-94.67 555.62,-86.37"/>
<polygon fill="#63b8ff" stroke="#63b8ff" points="559.13,-86.37 555.63,-76.37 552.13,-86.37 559.13,-86.37"/>
</a>
</g>
</g>
</g>
</svg>
