<?xml version="1.0" encoding="UTF-8" standalone="no"?>
<!DOCTYPE svg PUBLIC "-//W3C//DTD SVG 1.1//EN"
 "http://www.w3.org/Graphics/SVG/1.1/DTD/svg11.dtd">
<!-- Generated by graphviz version 10.0.1 (20240210.2158)
 -->
<!-- Title: /Users/hoff/Retro/virtualc64/Emulator/FileSystems/FSBlock.h Pages: 1 -->
<svg width="479pt" height="481pt"
 viewBox="0.00 0.00 478.86 480.50" xmlns="http://www.w3.org/2000/svg" xmlns:xlink="http://www.w3.org/1999/xlink">
<g id="graph0" class="graph" transform="scale(1 1) rotate(0) translate(4 476.5)">
<title>/Users/hoff/Retro/virtualc64/Emulator/FileSystems/FSBlock.h</title>
<!-- Node1 -->
<g id="Node000001" class="node">
<title>Node1</title>
<g id="a_Node000001"><a xlink:title=" ">
<polygon fill="#999999" stroke="#666666" points="376.88,-472.5 212.38,-472.5 212.38,-442 376.88,-442 376.88,-472.5"/>
<text text-anchor="start" x="220.38" y="-459" font-family="Helvetica,sans-Serif" font-size="10.00">/Users/hoff/Retro/virtualc64</text>
<text text-anchor="middle" x="294.62" y="-447.75" font-family="Helvetica,sans-Serif" font-size="10.00">/Emulator/FileSystems/FSBlock.h</text>
</a>
</g>
</g>
<!-- Node2 -->
<g id="Node000002" class="node">
<title>Node2</title>
<g id="a_Node000002"><a xlink:href="_f_s_types_8h.html" target="_top" xlink:title=" ">
<polygon fill="white" stroke="#666666" points="63.25,-240.25 0,-240.25 0,-221 63.25,-221 63.25,-240.25"/>
<text text-anchor="middle" x="31.62" y="-226.75" font-family="Helvetica,sans-Serif" font-size="10.00">FSTypes.h</text>
</a>
</g>
</g>
<!-- Node1&#45;&gt;Node2 -->
<g id="edge1_Node000001_Node000002" class="edge">
<title>Node1&#45;&gt;Node2</title>
<g id="a_edge1_Node000001_Node000002"><a xlink:title=" ">
<path fill="none" stroke="#63b8ff" d="M277.37,-441.51C230.34,-401.34 100.13,-290.13 50.85,-248.05"/>
<polygon fill="#63b8ff" stroke="#63b8ff" points="53.16,-245.41 43.28,-241.58 48.61,-250.73 53.16,-245.41"/>
</a>
</g>
</g>
<!-- Node10 -->
<g id="Node000010" class="node">
<title>Node10</title>
<g id="a_Node000010"><a xlink:href="_buffer_8h.html" target="_top" xlink:title=" ">
<polygon fill="white" stroke="#666666" points="446.5,-185 396.75,-185 396.75,-165.75 446.5,-165.75 446.5,-185"/>
<text text-anchor="middle" x="421.62" y="-171.5" font-family="Helvetica,sans-Serif" font-size="10.00">Buffer.h</text>
</a>
</g>
</g>
<!-- Node1&#45;&gt;Node10 -->
<g id="edge9_Node000001_Node000010" class="edge">
<title>Node1&#45;&gt;Node10</title>
<g id="a_edge9_Node000001_Node000010"><a xlink:title=" ">
<path fill="none" stroke="#63b8ff" d="M324.55,-441.57C339.86,-432.89 357.9,-420.72 370.62,-406 391.14,-382.27 400.62,-373.49 400.62,-342.12 400.62,-342.12 400.62,-342.12 400.62,-284.88 400.62,-253.44 409.23,-217.8 415.42,-196.21"/>
<polygon fill="#63b8ff" stroke="#63b8ff" points="418.75,-197.3 418.27,-186.71 412.04,-195.29 418.75,-197.3"/>
</a>
</g>
</g>
<!-- Node12 -->
<g id="Node000012" class="node">
<title>Node12</title>
<g id="a_Node000012"><a xlink:href="_core_object_8h.html" target="_top" xlink:title=" ">
<polygon fill="white" stroke="#666666" points="300.5,-350.75 226.75,-350.75 226.75,-331.5 300.5,-331.5 300.5,-350.75"/>
<text text-anchor="middle" x="263.62" y="-337.25" font-family="Helvetica,sans-Serif" font-size="10.00">CoreObject.h</text>
</a>
</g>
</g>
<!-- Node1&#45;&gt;Node12 -->
<g id="edge13_Node000001_Node000012" class="edge">
<title>Node1&#45;&gt;Node12</title>
<g id="a_edge13_Node000001_Node000012"><a xlink:title=" ">
<path fill="none" stroke="#63b8ff" d="M290.7,-441.8C285.23,-421.65 275.29,-385.06 269.09,-362.25"/>
<polygon fill="#63b8ff" stroke="#63b8ff" points="272.49,-361.39 266.49,-352.66 265.73,-363.23 272.49,-361.39"/>
</a>
</g>
</g>
<!-- Node19 -->
<g id="Node000019" class="node">
<title>Node19</title>
<g id="a_Node000019"><a xlink:href="_p_e_t_name_8h.html" target="_top" xlink:title=" ">
<polygon fill="white" stroke="#666666" points="361.62,-406 291.62,-406 291.62,-386.75 361.62,-386.75 361.62,-406"/>
<text text-anchor="middle" x="326.62" y="-392.5" font-family="Helvetica,sans-Serif" font-size="10.00">PETName.h</text>
</a>
</g>
</g>
<!-- Node1&#45;&gt;Node19 -->
<g id="edge23_Node000001_Node000019" class="edge">
<title>Node1&#45;&gt;Node19</title>
<g id="a_edge23_Node000001_Node000019"><a xlink:title=" ">
<path fill="none" stroke="#63b8ff" d="M302.54,-441.7C306.66,-434.11 311.75,-424.74 316.19,-416.57"/>
<polygon fill="#63b8ff" stroke="#63b8ff" points="319.27,-418.24 320.97,-407.78 313.12,-414.9 319.27,-418.24"/>
</a>
</g>
</g>
<!-- Node3 -->
<g id="Node000003" class="node">
<title>Node3</title>
<g id="a_Node000003"><a xlink:href="_aliases_8h.html" target="_top" xlink:title=" ">
<polygon fill="white" stroke="#666666" points="82.88,-185 26.38,-185 26.38,-165.75 82.88,-165.75 82.88,-185"/>
<text text-anchor="middle" x="54.62" y="-171.5" font-family="Helvetica,sans-Serif" font-size="10.00">Aliases.h</text>
</a>
</g>
</g>
<!-- Node2&#45;&gt;Node3 -->
<g id="edge2_Node000002_Node000003" class="edge">
<title>Node2&#45;&gt;Node3</title>
<g id="a_edge2_Node000002_Node000003"><a xlink:title=" ">
<path fill="none" stroke="#63b8ff" d="M35.42,-220.83C38.37,-214.01 42.56,-204.31 46.28,-195.7"/>
<polygon fill="#63b8ff" stroke="#63b8ff" points="49.39,-197.32 50.14,-186.75 42.97,-194.54 49.39,-197.32"/>
</a>
</g>
</g>
<!-- Node9 -->
<g id="Node000009" class="node">
<title>Node9</title>
<g id="a_Node000009"><a xlink:href="_reflection_8h.html" target="_top" xlink:title=" ">
<polygon fill="white" stroke="#666666" points="169.88,-185 101.38,-185 101.38,-165.75 169.88,-165.75 169.88,-185"/>
<text text-anchor="middle" x="135.62" y="-171.5" font-family="Helvetica,sans-Serif" font-size="10.00">Reflection.h</text>
</a>
</g>
</g>
<!-- Node2&#45;&gt;Node9 -->
<g id="edge8_Node000002_Node000009" class="edge">
<title>Node2&#45;&gt;Node9</title>
<g id="a_edge8_Node000002_Node000009"><a xlink:title=" ">
<path fill="none" stroke="#63b8ff" d="M49.27,-220.59C65.25,-212.41 89.08,-200.21 107.66,-190.69"/>
<polygon fill="#63b8ff" stroke="#63b8ff" points="109.24,-193.82 116.55,-186.14 106.05,-187.58 109.24,-193.82"/>
</a>
</g>
</g>
<!-- Node4 -->
<g id="Node000004" class="node">
<title>Node4</title>
<g id="a_Node000004"><a xlink:href="_macros_8h.html" target="_top" xlink:title=" ">
<polygon fill="white" stroke="#666666" points="164.88,-129.75 108.38,-129.75 108.38,-110.5 164.88,-110.5 164.88,-129.75"/>
<text text-anchor="middle" x="136.62" y="-116.25" font-family="Helvetica,sans-Serif" font-size="10.00">Macros.h</text>
</a>
</g>
</g>
<!-- Node3&#45;&gt;Node4 -->
<g id="edge3_Node000003_Node000004" class="edge">
<title>Node3&#45;&gt;Node4</title>
<g id="a_edge3_Node000003_Node000004"><a xlink:title=" ">
<path fill="none" stroke="#63b8ff" d="M68.54,-165.34C80.79,-157.39 98.88,-145.64 113.34,-136.25"/>
<polygon fill="#63b8ff" stroke="#63b8ff" points="114.9,-139.41 121.38,-131.03 111.08,-133.54 114.9,-139.41"/>
</a>
</g>
</g>
<!-- Node5 -->
<g id="Node000005" class="node">
<title>Node5</title>
<g id="a_Node000005"><a xlink:href="_types_8h.html" target="_top" xlink:title=" ">
<polygon fill="white" stroke="#666666" points="336.88,-74.5 286.38,-74.5 286.38,-55.25 336.88,-55.25 336.88,-74.5"/>
<text text-anchor="middle" x="311.62" y="-61" font-family="Helvetica,sans-Serif" font-size="10.00">Types.h</text>
</a>
</g>
</g>
<!-- Node4&#45;&gt;Node5 -->
<g id="edge4_Node000004_Node000005" class="edge">
<title>Node4&#45;&gt;Node5</title>
<g id="a_edge4_Node000004_Node000005"><a xlink:title=" ">
<path fill="none" stroke="#63b8ff" d="M165.13,-110.45C195.11,-101.33 242.38,-86.95 275.07,-77"/>
<polygon fill="#63b8ff" stroke="#63b8ff" points="275.98,-80.38 284.53,-74.12 273.95,-73.68 275.98,-80.38"/>
</a>
</g>
</g>
<!-- Node6 -->
<g id="Node000006" class="node">
<title>Node6</title>
<g id="a_Node000006"><a xlink:title=" ">
<polygon fill="#e0e0e0" stroke="#999999" points="269.12,-19.25 202.12,-19.25 202.12,0 269.12,0 269.12,-19.25"/>
<text text-anchor="middle" x="235.62" y="-5.75" font-family="Helvetica,sans-Serif" font-size="10.00">sys/types.h</text>
</a>
</g>
</g>
<!-- Node5&#45;&gt;Node6 -->
<g id="edge5_Node000005_Node000006" class="edge">
<title>Node5&#45;&gt;Node6</title>
<g id="a_edge5_Node000005_Node000006"><a xlink:title=" ">
<path fill="none" stroke="#63b8ff" d="M298.73,-54.84C287.6,-47.04 271.25,-35.59 257.99,-26.29"/>
<polygon fill="#63b8ff" stroke="#63b8ff" points="260.02,-23.44 249.82,-20.57 256,-29.18 260.02,-23.44"/>
</a>
</g>
</g>
<!-- Node7 -->
<g id="Node000007" class="node">
<title>Node7</title>
<g id="a_Node000007"><a xlink:title=" ">
<polygon fill="#e0e0e0" stroke="#999999" points="335.75,-19.25 287.5,-19.25 287.5,0 335.75,0 335.75,-19.25"/>
<text text-anchor="middle" x="311.62" y="-5.75" font-family="Helvetica,sans-Serif" font-size="10.00">stdint.h</text>
</a>
</g>
</g>
<!-- Node5&#45;&gt;Node7 -->
<g id="edge6_Node000005_Node000007" class="edge">
<title>Node5&#45;&gt;Node7</title>
<g id="a_edge6_Node000005_Node000007"><a xlink:title=" ">
<path fill="none" stroke="#63b8ff" d="M311.62,-55.08C311.62,-48.57 311.62,-39.42 311.62,-31.12"/>
<polygon fill="#63b8ff" stroke="#63b8ff" points="315.13,-31.12 311.63,-21.12 308.13,-31.12 315.13,-31.12"/>
</a>
</g>
</g>
<!-- Node8 -->
<g id="Node000008" class="node">
<title>Node8</title>
<g id="a_Node000008"><a xlink:title=" ">
<polygon fill="#e0e0e0" stroke="#999999" points="409.5,-19.25 353.75,-19.25 353.75,0 409.5,0 409.5,-19.25"/>
<text text-anchor="middle" x="381.62" y="-5.75" font-family="Helvetica,sans-Serif" font-size="10.00">stdbool.h</text>
</a>
</g>
</g>
<!-- Node5&#45;&gt;Node8 -->
<g id="edge7_Node000005_Node000008" class="edge">
<title>Node5&#45;&gt;Node8</title>
<g id="a_edge7_Node000005_Node000008"><a xlink:title=" ">
<path fill="none" stroke="#63b8ff" d="M323.5,-54.84C333.72,-47.07 348.7,-35.67 360.89,-26.4"/>
<polygon fill="#63b8ff" stroke="#63b8ff" points="362.88,-29.28 368.72,-20.44 358.64,-23.71 362.88,-29.28"/>
</a>
</g>
</g>
<!-- Node10&#45;&gt;Node5 -->
<g id="edge10_Node000010_Node000005" class="edge">
<title>Node10&#45;&gt;Node5</title>
<g id="a_edge10_Node000010_Node000005"><a xlink:title=" ">
<path fill="none" stroke="#63b8ff" d="M435.96,-165.36C454.02,-152.87 481.06,-129.68 466.62,-110.5 452.42,-91.62 389.6,-78.24 348.42,-71.32"/>
<polygon fill="#63b8ff" stroke="#63b8ff" points="349.11,-67.88 338.68,-69.74 347.99,-74.79 349.11,-67.88"/>
</a>
</g>
</g>
<!-- Node11 -->
<g id="Node000011" class="node">
<title>Node11</title>
<g id="a_Node000011"><a xlink:href="_checksum_8h.html" target="_top" xlink:title=" ">
<polygon fill="white" stroke="#666666" points="457.38,-129.75 385.88,-129.75 385.88,-110.5 457.38,-110.5 457.38,-129.75"/>
<text text-anchor="middle" x="421.62" y="-116.25" font-family="Helvetica,sans-Serif" font-size="10.00">Checksum.h</text>
</a>
</g>
</g>
<!-- Node10&#45;&gt;Node11 -->
<g id="edge11_Node000010_Node000011" class="edge">
<title>Node10&#45;&gt;Node11</title>
<g id="a_edge11_Node000010_Node000011"><a xlink:title=" ">
<path fill="none" stroke="#63b8ff" d="M421.62,-165.58C421.62,-159.07 421.62,-149.92 421.62,-141.62"/>
<polygon fill="#63b8ff" stroke="#63b8ff" points="425.13,-141.62 421.63,-131.62 418.13,-141.62 425.13,-141.62"/>
</a>
</g>
</g>
<!-- Node11&#45;&gt;Node5 -->
<g id="edge12_Node000011_Node000005" class="edge">
<title>Node11&#45;&gt;Node5</title>
<g id="a_edge12_Node000011_Node000005"><a xlink:title=" ">
<path fill="none" stroke="#63b8ff" d="M402.96,-110.09C385.9,-101.83 360.38,-89.48 340.65,-79.93"/>
<polygon fill="#63b8ff" stroke="#63b8ff" points="342.26,-76.82 331.74,-75.61 339.21,-83.12 342.26,-76.82"/>
</a>
</g>
</g>
<!-- Node13 -->
<g id="Node000013" class="node">
<title>Node13</title>
<g id="a_Node000013"><a xlink:href="_error_8h.html" target="_top" xlink:title=" ">
<polygon fill="white" stroke="#666666" points="285.88,-295.5 241.38,-295.5 241.38,-276.25 285.88,-276.25 285.88,-295.5"/>
<text text-anchor="middle" x="263.62" y="-282" font-family="Helvetica,sans-Serif" font-size="10.00">Error.h</text>
</a>
</g>
</g>
<!-- Node12&#45;&gt;Node13 -->
<g id="edge14_Node000012_Node000013" class="edge">
<title>Node12&#45;&gt;Node13</title>
<g id="a_edge14_Node000012_Node000013"><a xlink:title=" ">
<path fill="none" stroke="#63b8ff" d="M263.62,-331.33C263.62,-324.82 263.62,-315.67 263.62,-307.37"/>
<polygon fill="#63b8ff" stroke="#63b8ff" points="267.13,-307.37 263.63,-297.37 260.13,-307.37 267.13,-307.37"/>
</a>
</g>
</g>
<!-- Node17 -->
<g id="Node000017" class="node">
<title>Node17</title>
<g id="a_Node000017"><a xlink:href="_inspectable_8h.html" target="_top" xlink:title=" ">
<polygon fill="white" stroke="#666666" points="197.88,-295.5 123.38,-295.5 123.38,-276.25 197.88,-276.25 197.88,-295.5"/>
<text text-anchor="middle" x="160.62" y="-282" font-family="Helvetica,sans-Serif" font-size="10.00">Inspectable.h</text>
</a>
</g>
</g>
<!-- Node12&#45;&gt;Node17 -->
<g id="edge21_Node000012_Node000017" class="edge">
<title>Node12&#45;&gt;Node17</title>
<g id="a_edge21_Node000012_Node000017"><a xlink:title=" ">
<path fill="none" stroke="#63b8ff" d="M246.15,-331.09C230.32,-322.91 206.72,-310.71 188.32,-301.19"/>
<polygon fill="#63b8ff" stroke="#63b8ff" points="190.02,-298.13 179.53,-296.65 186.8,-304.35 190.02,-298.13"/>
</a>
</g>
</g>
<!-- Node14 -->
<g id="Node000014" class="node">
<title>Node14</title>
<g id="a_Node000014"><a xlink:href="_error_types_8h.html" target="_top" xlink:title=" ">
<polygon fill="white" stroke="#666666" points="224.38,-240.25 152.88,-240.25 152.88,-221 224.38,-221 224.38,-240.25"/>
<text text-anchor="middle" x="188.62" y="-226.75" font-family="Helvetica,sans-Serif" font-size="10.00">ErrorTypes.h</text>
</a>
</g>
</g>
<!-- Node13&#45;&gt;Node14 -->
<g id="edge15_Node000013_Node000014" class="edge">
<title>Node13&#45;&gt;Node14</title>
<g id="a_edge15_Node000013_Node000014"><a xlink:title=" ">
<path fill="none" stroke="#63b8ff" d="M250.9,-275.84C239.91,-268.04 223.78,-256.59 210.69,-247.29"/>
<polygon fill="#63b8ff" stroke="#63b8ff" points="212.82,-244.51 202.64,-241.58 208.77,-250.22 212.82,-244.51"/>
</a>
</g>
</g>
<!-- Node15 -->
<g id="Node000015" class="node">
<title>Node15</title>
<g id="a_Node000015"><a xlink:href="_exception_8h.html" target="_top" xlink:title=" ">
<polygon fill="white" stroke="#666666" points="310.5,-240.25 242.75,-240.25 242.75,-221 310.5,-221 310.5,-240.25"/>
<text text-anchor="middle" x="276.62" y="-226.75" font-family="Helvetica,sans-Serif" font-size="10.00">Exception.h</text>
</a>
</g>
</g>
<!-- Node13&#45;&gt;Node15 -->
<g id="edge18_Node000013_Node000015" class="edge">
<title>Node13&#45;&gt;Node15</title>
<g id="a_edge18_Node000013_Node000015"><a xlink:title=" ">
<path fill="none" stroke="#63b8ff" d="M265.77,-276.08C267.4,-269.42 269.7,-259.99 271.77,-251.53"/>
<polygon fill="#63b8ff" stroke="#63b8ff" points="275.1,-252.62 274.07,-242.08 268.3,-250.96 275.1,-252.62"/>
</a>
</g>
</g>
<!-- Node14&#45;&gt;Node3 -->
<g id="edge16_Node000014_Node000003" class="edge">
<title>Node14&#45;&gt;Node3</title>
<g id="a_edge16_Node000014_Node000003"><a xlink:title=" ">
<path fill="none" stroke="#63b8ff" d="M165.89,-220.59C144.53,-212.1 112.28,-199.29 88,-189.64"/>
<polygon fill="#63b8ff" stroke="#63b8ff" points="89.46,-186.45 78.87,-186.01 86.87,-192.96 89.46,-186.45"/>
</a>
</g>
</g>
<!-- Node14&#45;&gt;Node9 -->
<g id="edge17_Node000014_Node000009" class="edge">
<title>Node14&#45;&gt;Node9</title>
<g id="a_edge17_Node000014_Node000009"><a xlink:title=" ">
<path fill="none" stroke="#63b8ff" d="M179.87,-220.83C172.48,-213.4 161.66,-202.54 152.58,-193.41"/>
<polygon fill="#63b8ff" stroke="#63b8ff" points="155.17,-191.05 145.63,-186.43 150.21,-195.99 155.17,-191.05"/>
</a>
</g>
</g>
<!-- Node15&#45;&gt;Node5 -->
<g id="edge19_Node000015_Node000005" class="edge">
<title>Node15&#45;&gt;Node5</title>
<g id="a_edge19_Node000015_Node000005"><a xlink:title=" ">
<path fill="none" stroke="#63b8ff" d="M278.51,-220.82C283.94,-195.39 299.77,-121.35 307.4,-85.62"/>
<polygon fill="#63b8ff" stroke="#63b8ff" points="310.75,-86.71 309.42,-76.2 303.9,-85.25 310.75,-86.71"/>
</a>
</g>
</g>
<!-- Node16 -->
<g id="Node000016" class="node">
<title>Node16</title>
<g id="a_Node000016"><a xlink:title=" ">
<polygon fill="#e0e0e0" stroke="#999999" points="245.62,-185 187.62,-185 187.62,-165.75 245.62,-165.75 245.62,-185"/>
<text text-anchor="middle" x="216.62" y="-171.5" font-family="Helvetica,sans-Serif" font-size="10.00">exception</text>
</a>
</g>
</g>
<!-- Node15&#45;&gt;Node16 -->
<g id="edge20_Node000015_Node000016" class="edge">
<title>Node15&#45;&gt;Node16</title>
<g id="a_edge20_Node000015_Node000016"><a xlink:title=" ">
<path fill="none" stroke="#63b8ff" d="M266.45,-220.59C257.86,-212.97 245.36,-201.87 235.02,-192.7"/>
<polygon fill="#63b8ff" stroke="#63b8ff" points="237.59,-190.3 227.78,-186.28 232.94,-195.54 237.59,-190.3"/>
</a>
</g>
</g>
<!-- Node18 -->
<g id="Node000018" class="node">
<title>Node18</title>
<g id="a_Node000018"><a xlink:title=" ">
<polygon fill="#e0e0e0" stroke="#999999" points="134.38,-240.25 80.88,-240.25 80.88,-221 134.38,-221 134.38,-240.25"/>
<text text-anchor="middle" x="107.62" y="-226.75" font-family="Helvetica,sans-Serif" font-size="10.00">iostream</text>
</a>
</g>
</g>
<!-- Node17&#45;&gt;Node18 -->
<g id="edge22_Node000017_Node000018" class="edge">
<title>Node17&#45;&gt;Node18</title>
<g id="a_edge22_Node000017_Node000018"><a xlink:title=" ">
<path fill="none" stroke="#63b8ff" d="M151.87,-276.08C144.48,-268.65 133.66,-257.79 124.58,-248.66"/>
<polygon fill="#63b8ff" stroke="#63b8ff" points="127.17,-246.3 117.63,-241.68 122.21,-251.24 127.17,-246.3"/>
</a>
</g>
</g>
<!-- Node19&#45;&gt;Node12 -->
<g id="edge24_Node000019_Node000012" class="edge">
<title>Node19&#45;&gt;Node12</title>
<g id="a_edge24_Node000019_Node000012"><a xlink:title=" ">
<path fill="none" stroke="#63b8ff" d="M315.94,-386.34C306.92,-378.72 293.79,-367.62 282.94,-358.45"/>
<polygon fill="#63b8ff" stroke="#63b8ff" points="285.21,-355.78 275.31,-352 280.69,-361.13 285.21,-355.78"/>
</a>
</g>
</g>
<!-- Node20 -->
<g id="Node000020" class="node">
<title>Node20</title>
<g id="a_Node000020"><a xlink:href="_mem_utils_8h.html" target="_top" xlink:title=" ">
<polygon fill="white" stroke="#666666" points="376.75,-185 310.5,-185 310.5,-165.75 376.75,-165.75 376.75,-185"/>
<text text-anchor="middle" x="343.62" y="-171.5" font-family="Helvetica,sans-Serif" font-size="10.00">MemUtils.h</text>
</a>
</g>
</g>
<!-- Node19&#45;&gt;Node20 -->
<g id="edge25_Node000019_Node000020" class="edge">
<title>Node19&#45;&gt;Node20</title>
<g id="a_edge25_Node000019_Node000020"><a xlink:title=" ">
<path fill="none" stroke="#63b8ff" d="M327.31,-386.52C329.82,-354.26 338.49,-242.51 342.07,-196.46"/>
<polygon fill="#63b8ff" stroke="#63b8ff" points="345.55,-196.85 342.83,-186.61 338.57,-196.31 345.55,-196.85"/>
</a>
</g>
</g>
<!-- Node20&#45;&gt;Node5 -->
<g id="edge26_Node000020_Node000005" class="edge">
<title>Node20&#45;&gt;Node5</title>
<g id="a_edge26_Node000020_Node000005"><a xlink:title=" ">
<path fill="none" stroke="#63b8ff" d="M341.01,-165.5C335.9,-148.17 324.48,-109.48 317.48,-85.74"/>
<polygon fill="#63b8ff" stroke="#63b8ff" points="320.89,-84.93 314.71,-76.33 314.18,-86.91 320.89,-84.93"/>
</a>
</g>
</g>
<!-- Node20&#45;&gt;Node11 -->
<g id="edge27_Node000020_Node000011" class="edge">
<title>Node20&#45;&gt;Node11</title>
<g id="a_edge27_Node000020_Node000011"><a xlink:title=" ">
<path fill="none" stroke="#63b8ff" d="M356.86,-165.34C368.4,-157.46 385.39,-145.86 399.07,-136.52"/>
<polygon fill="#63b8ff" stroke="#63b8ff" points="400.79,-139.58 407.08,-131.06 396.85,-133.8 400.79,-139.58"/>
</a>
</g>
</g>
<!-- Node21 -->
<g id="Node000021" class="node">
<title>Node21</title>
<g id="a_Node000021"><a xlink:title=" ">
<polygon fill="#e0e0e0" stroke="#999999" points="368.02,-129.75 339.23,-129.75 339.23,-110.5 368.02,-110.5 368.02,-129.75"/>
<text text-anchor="middle" x="353.62" y="-116.25" font-family="Helvetica,sans-Serif" font-size="10.00">bit</text>
</a>
</g>
</g>
<!-- Node20&#45;&gt;Node21 -->
<g id="edge28_Node000020_Node000021" class="edge">
<title>Node20&#45;&gt;Node21</title>
<g id="a_edge28_Node000020_Node000021"><a xlink:title=" ">
<path fill="none" stroke="#63b8ff" d="M345.28,-165.58C346.51,-158.99 348.26,-149.71 349.83,-141.32"/>
<polygon fill="#63b8ff" stroke="#63b8ff" points="353.25,-142.07 351.66,-131.6 346.37,-140.78 353.25,-142.07"/>
</a>
</g>
</g>
</g>
</svg>
