<?xml version="1.0" encoding="UTF-8" standalone="no"?>
<!DOCTYPE svg PUBLIC "-//W3C//DTD SVG 1.1//EN"
 "http://www.w3.org/Graphics/SVG/1.1/DTD/svg11.dtd">
<!-- Generated by graphviz version 10.0.1 (20240210.2158)
 -->
<!-- Title: /Users/hoff/Retro/virtualc64/Emulator/FileSystems/FSTypes.h Pages: 1 -->
<svg width="917pt" height="316pt"
 viewBox="0.00 0.00 916.88 315.75" xmlns="http://www.w3.org/2000/svg" xmlns:xlink="http://www.w3.org/1999/xlink">
<g id="graph0" class="graph" transform="scale(1 1) rotate(0) translate(4 311.75)">
<title>/Users/hoff/Retro/virtualc64/Emulator/FileSystems/FSTypes.h</title>
<!-- Node1 -->
<g id="Node000001" class="node">
<title>Node1</title>
<g id="a_Node000001"><a xlink:title=" ">
<polygon fill="#999999" stroke="#666666" points="560.25,-307.75 394.25,-307.75 394.25,-277.25 560.25,-277.25 560.25,-307.75"/>
<text text-anchor="start" x="402.25" y="-294.25" font-family="Helvetica,sans-Serif" font-size="10.00">/Users/hoff/Retro/virtualc64</text>
<text text-anchor="middle" x="477.25" y="-283" font-family="Helvetica,sans-Serif" font-size="10.00">/Emulator/FileSystems/FSTypes.h</text>
</a>
</g>
</g>
<!-- Node2 -->
<g id="Node000002" class="node">
<title>Node2</title>
<g id="a_Node000002"><a xlink:href="_f_s_block_8h_source.html" target="_top" xlink:title=" ">
<polygon fill="white" stroke="#666666" points="164.5,-241.25 0,-241.25 0,-210.75 164.5,-210.75 164.5,-241.25"/>
<text text-anchor="start" x="8" y="-227.75" font-family="Helvetica,sans-Serif" font-size="10.00">/Users/hoff/Retro/virtualc64</text>
<text text-anchor="middle" x="82.25" y="-216.5" font-family="Helvetica,sans-Serif" font-size="10.00">/Emulator/FileSystems/FSBlock.h</text>
</a>
</g>
</g>
<!-- Node1&#45;&gt;Node2 -->
<g id="edge1_Node000001_Node000002" class="edge">
<title>Node1&#45;&gt;Node2</title>
<g id="a_edge1_Node000001_Node000002"><a xlink:title=" ">
<path fill="none" stroke="#63b8ff" d="M382.66,-276.05C316.25,-265.21 228.31,-250.85 164.74,-240.47"/>
<polygon fill="#63b8ff" stroke="#63b8ff" points="382.04,-279.5 392.47,-277.66 383.16,-272.59 382.04,-279.5"/>
</a>
</g>
</g>
<!-- Node6 -->
<g id="Node000006" class="node">
<title>Node6</title>
<g id="a_Node000006"><a xlink:href="_f_s_descriptors_8h_source.html" target="_top" xlink:title=" ">
<polygon fill="white" stroke="#666666" points="372.25,-241.25 182.25,-241.25 182.25,-210.75 372.25,-210.75 372.25,-241.25"/>
<text text-anchor="start" x="190.25" y="-227.75" font-family="Helvetica,sans-Serif" font-size="10.00">/Users/hoff/Retro/virtualc64</text>
<text text-anchor="middle" x="277.25" y="-216.5" font-family="Helvetica,sans-Serif" font-size="10.00">/Emulator/FileSystems/FSDescriptors.h</text>
</a>
</g>
</g>
<!-- Node1&#45;&gt;Node6 -->
<g id="edge5_Node000001_Node000006" class="edge">
<title>Node1&#45;&gt;Node6</title>
<g id="a_edge5_Node000001_Node000006"><a xlink:title=" ">
<path fill="none" stroke="#63b8ff" d="M420.95,-273.34C389.89,-263.33 351.83,-251.05 322.69,-241.65"/>
<polygon fill="#63b8ff" stroke="#63b8ff" points="419.58,-276.58 430.18,-276.32 421.73,-269.92 419.58,-276.58"/>
</a>
</g>
</g>
<!-- Node7 -->
<g id="Node000007" class="node">
<title>Node7</title>
<g id="a_Node000007"><a xlink:href="_f_s_dir_entry_8h_source.html" target="_top" xlink:title=" ">
<polygon fill="white" stroke="#666666" points="564.38,-241.25 390.12,-241.25 390.12,-210.75 564.38,-210.75 564.38,-241.25"/>
<text text-anchor="start" x="398.12" y="-227.75" font-family="Helvetica,sans-Serif" font-size="10.00">/Users/hoff/Retro/virtualc64</text>
<text text-anchor="middle" x="477.25" y="-216.5" font-family="Helvetica,sans-Serif" font-size="10.00">/Emulator/FileSystems/FSDirEntry.h</text>
</a>
</g>
</g>
<!-- Node1&#45;&gt;Node7 -->
<g id="edge7_Node000001_Node000007" class="edge">
<title>Node1&#45;&gt;Node7</title>
<g id="a_edge7_Node000001_Node000007"><a xlink:title=" ">
<path fill="none" stroke="#63b8ff" d="M477.25,-265.56C477.25,-257.39 477.25,-248.66 477.25,-241.58"/>
<polygon fill="#63b8ff" stroke="#63b8ff" points="473.75,-265.35 477.25,-275.35 480.75,-265.35 473.75,-265.35"/>
</a>
</g>
</g>
<!-- Node8 -->
<g id="Node000008" class="node">
<title>Node8</title>
<g id="a_Node000008"><a xlink:href="_disk_8h_source.html" target="_top" xlink:title=" ">
<polygon fill="white" stroke="#666666" points="750,-241.25 582.5,-241.25 582.5,-210.75 750,-210.75 750,-241.25"/>
<text text-anchor="start" x="590.5" y="-227.75" font-family="Helvetica,sans-Serif" font-size="10.00">/Users/hoff/Retro/virtualc64</text>
<text text-anchor="middle" x="666.25" y="-216.5" font-family="Helvetica,sans-Serif" font-size="10.00">/Emulator/Peripherals/Drive/Disk.h</text>
</a>
</g>
</g>
<!-- Node1&#45;&gt;Node8 -->
<g id="edge9_Node000001_Node000008" class="edge">
<title>Node1&#45;&gt;Node8</title>
<g id="a_edge9_Node000001_Node000008"><a xlink:title=" ">
<path fill="none" stroke="#63b8ff" d="M530.99,-273.16C560.2,-263.19 595.84,-251.03 623.21,-241.69"/>
<polygon fill="#63b8ff" stroke="#63b8ff" points="529.9,-269.83 521.57,-276.38 532.16,-276.46 529.9,-269.83"/>
</a>
</g>
</g>
<!-- Node10 -->
<g id="Node000010" class="node">
<title>Node10</title>
<g id="a_Node000010"><a xlink:href="_virtual_c64_types_8h.html" target="_top" xlink:title=" ">
<polygon fill="white" stroke="#666666" points="908.88,-241.25 767.62,-241.25 767.62,-210.75 908.88,-210.75 908.88,-241.25"/>
<text text-anchor="start" x="775.62" y="-227.75" font-family="Helvetica,sans-Serif" font-size="10.00">/Users/hoff/Retro/virtualc64</text>
<text text-anchor="middle" x="838.25" y="-216.5" font-family="Helvetica,sans-Serif" font-size="10.00">/Emulator/VirtualC64Types.h</text>
</a>
</g>
</g>
<!-- Node1&#45;&gt;Node10 -->
<g id="edge12_Node000001_Node000010" class="edge">
<title>Node1&#45;&gt;Node10</title>
<g id="a_edge12_Node000001_Node000010"><a xlink:title=" ">
<path fill="none" stroke="#63b8ff" d="M571.34,-274.79C626.17,-265.03 696.63,-252.48 759.25,-241.25 761.86,-240.78 764.51,-240.31 767.19,-239.82"/>
<polygon fill="#63b8ff" stroke="#63b8ff" points="570.96,-271.3 561.73,-276.49 572.19,-278.19 570.96,-271.3"/>
</a>
</g>
</g>
<!-- Node3 -->
<g id="Node000003" class="node">
<title>Node3</title>
<g id="a_Node000003"><a xlink:href="_file_system_8h_source.html" target="_top" xlink:title=" ">
<polygon fill="white" stroke="#666666" points="465.5,-169.12 289,-169.12 289,-138.62 465.5,-138.62 465.5,-169.12"/>
<text text-anchor="start" x="297" y="-155.62" font-family="Helvetica,sans-Serif" font-size="10.00">/Users/hoff/Retro/virtualc64</text>
<text text-anchor="middle" x="377.25" y="-144.38" font-family="Helvetica,sans-Serif" font-size="10.00">/Emulator/FileSystems/FileSystem.h</text>
</a>
</g>
</g>
<!-- Node2&#45;&gt;Node3 -->
<g id="edge2_Node000002_Node000003" class="edge">
<title>Node2&#45;&gt;Node3</title>
<g id="a_edge2_Node000002_Node000003"><a xlink:title=" ">
<path fill="none" stroke="#63b8ff" d="M155.29,-207.64C204.45,-195.95 268.56,-180.71 315.24,-169.62"/>
<polygon fill="#63b8ff" stroke="#63b8ff" points="154.48,-204.23 145.56,-209.95 156.1,-211.04 154.48,-204.23"/>
</a>
</g>
</g>
<!-- Node4 -->
<g id="Node000004" class="node">
<title>Node4</title>
<g id="a_Node000004"><a xlink:href="_c64_8h_source.html" target="_top" xlink:title=" ">
<polygon fill="white" stroke="#666666" points="566.12,-97 420.38,-97 420.38,-66.5 566.12,-66.5 566.12,-97"/>
<text text-anchor="start" x="428.38" y="-83.5" font-family="Helvetica,sans-Serif" font-size="10.00">/Users/hoff/Retro/virtualc64</text>
<text text-anchor="middle" x="493.25" y="-72.25" font-family="Helvetica,sans-Serif" font-size="10.00">/Emulator/Components/C64.h</text>
</a>
</g>
</g>
<!-- Node3&#45;&gt;Node4 -->
<g id="edge3_Node000003_Node000004" class="edge">
<title>Node3&#45;&gt;Node4</title>
<g id="a_edge3_Node000003_Node000004"><a xlink:title=" ">
<path fill="none" stroke="#63b8ff" d="M411.37,-132.25C429.86,-121.07 452.27,-107.52 468.96,-97.43"/>
<polygon fill="#63b8ff" stroke="#63b8ff" points="409.61,-129.22 402.86,-137.39 413.23,-135.21 409.61,-129.22"/>
</a>
</g>
</g>
<!-- Node5 -->
<g id="Node000005" class="node">
<title>Node5</title>
<g id="a_Node000005"><a xlink:href="_emulator_8h_source.html" target="_top" xlink:title=" ">
<polygon fill="white" stroke="#666666" points="576.25,-30.5 410.25,-30.5 410.25,0 576.25,0 576.25,-30.5"/>
<text text-anchor="start" x="418.25" y="-17" font-family="Helvetica,sans-Serif" font-size="10.00">/Users/hoff/Retro/virtualc64</text>
<text text-anchor="middle" x="493.25" y="-5.75" font-family="Helvetica,sans-Serif" font-size="10.00">/Emulator/Components/Emulator.h</text>
</a>
</g>
</g>
<!-- Node4&#45;&gt;Node5 -->
<g id="edge4_Node000004_Node000005" class="edge">
<title>Node4&#45;&gt;Node5</title>
<g id="a_edge4_Node000004_Node000005"><a xlink:title=" ">
<path fill="none" stroke="#63b8ff" d="M493.25,-54.81C493.25,-46.64 493.25,-37.91 493.25,-30.83"/>
<polygon fill="#63b8ff" stroke="#63b8ff" points="489.75,-54.6 493.25,-64.6 496.75,-54.6 489.75,-54.6"/>
</a>
</g>
</g>
<!-- Node6&#45;&gt;Node3 -->
<g id="edge6_Node000006_Node000003" class="edge">
<title>Node6&#45;&gt;Node3</title>
<g id="a_edge6_Node000006_Node000003"><a xlink:title=" ">
<path fill="none" stroke="#63b8ff" d="M307.38,-203.87C323.26,-192.73 342.35,-179.35 356.56,-169.39"/>
<polygon fill="#63b8ff" stroke="#63b8ff" points="305.39,-200.99 299.21,-209.6 309.41,-206.73 305.39,-200.99"/>
</a>
</g>
</g>
<!-- Node7&#45;&gt;Node3 -->
<g id="edge8_Node000007_Node000003" class="edge">
<title>Node7&#45;&gt;Node3</title>
<g id="a_edge8_Node000007_Node000003"><a xlink:title=" ">
<path fill="none" stroke="#63b8ff" d="M447.12,-203.87C431.24,-192.73 412.15,-179.35 397.94,-169.39"/>
<polygon fill="#63b8ff" stroke="#63b8ff" points="445.09,-206.73 455.29,-209.6 449.11,-200.99 445.09,-206.73"/>
</a>
</g>
</g>
<!-- Node9 -->
<g id="Node000009" class="node">
<title>Node9</title>
<g id="a_Node000009"><a xlink:href="_drive_8h_source.html" target="_top" xlink:title=" ">
<polygon fill="white" stroke="#666666" points="677.62,-174.75 540.88,-174.75 540.88,-133 677.62,-133 677.62,-174.75"/>
<text text-anchor="start" x="548.88" y="-161.25" font-family="Helvetica,sans-Serif" font-size="10.00">/Users/hoff/Retro/virtualc64</text>
<text text-anchor="start" x="548.88" y="-150" font-family="Helvetica,sans-Serif" font-size="10.00">/Emulator/Peripherals/Drive</text>
<text text-anchor="middle" x="609.25" y="-138.75" font-family="Helvetica,sans-Serif" font-size="10.00">/Drive.h</text>
</a>
</g>
</g>
<!-- Node8&#45;&gt;Node9 -->
<g id="edge10_Node000008_Node000009" class="edge">
<title>Node8&#45;&gt;Node9</title>
<g id="a_edge10_Node000008_Node000009"><a xlink:title=" ">
<path fill="none" stroke="#63b8ff" d="M647.32,-201.71C640.36,-193.14 632.53,-183.52 625.8,-175.24"/>
<polygon fill="#63b8ff" stroke="#63b8ff" points="644.46,-203.74 653.48,-209.3 649.89,-199.33 644.46,-203.74"/>
</a>
</g>
</g>
<!-- Node9&#45;&gt;Node4 -->
<g id="edge11_Node000009_Node000004" class="edge">
<title>Node9&#45;&gt;Node4</title>
<g id="a_edge11_Node000009_Node000004"><a xlink:title=" ">
<path fill="none" stroke="#63b8ff" d="M566.25,-126.88C549.8,-116.94 531.62,-105.95 517.52,-97.42"/>
<polygon fill="#63b8ff" stroke="#63b8ff" points="564.03,-129.63 574.4,-131.81 567.66,-123.64 564.03,-129.63"/>
</a>
</g>
</g>
<!-- Node11 -->
<g id="Node000011" class="node">
<title>Node11</title>
<g id="a_Node000011"><a xlink:href="_virtual_c64_8h.html" target="_top" xlink:title=" ">
<polygon fill="white" stroke="#666666" points="906.62,-169.12 769.88,-169.12 769.88,-138.62 906.62,-138.62 906.62,-169.12"/>
<text text-anchor="start" x="777.88" y="-155.62" font-family="Helvetica,sans-Serif" font-size="10.00">/Users/hoff/Retro/virtualc64</text>
<text text-anchor="middle" x="838.25" y="-144.38" font-family="Helvetica,sans-Serif" font-size="10.00">/Emulator/VirtualC64.h</text>
</a>
</g>
</g>
<!-- Node10&#45;&gt;Node11 -->
<g id="edge13_Node000010_Node000011" class="edge">
<title>Node10&#45;&gt;Node11</title>
<g id="a_edge13_Node000010_Node000011"><a xlink:title=" ">
<path fill="none" stroke="#63b8ff" d="M838.25,-199.02C838.25,-189.01 838.25,-177.94 838.25,-169.39"/>
<polygon fill="#63b8ff" stroke="#63b8ff" points="834.75,-198.96 838.25,-208.96 841.75,-198.96 834.75,-198.96"/>
</a>
</g>
</g>
<!-- Node12 -->
<g id="Node000012" class="node">
<title>Node12</title>
<g id="a_Node000012"><a xlink:href="_headless_8h_source.html" target="_top" xlink:title=" ">
<polygon fill="white" stroke="#666666" points="906.62,-97 769.88,-97 769.88,-66.5 906.62,-66.5 906.62,-97"/>
<text text-anchor="start" x="777.88" y="-83.5" font-family="Helvetica,sans-Serif" font-size="10.00">/Users/hoff/Retro/virtualc64</text>
<text text-anchor="middle" x="838.25" y="-72.25" font-family="Helvetica,sans-Serif" font-size="10.00">/Emulator/Headless.h</text>
</a>
</g>
</g>
<!-- Node11&#45;&gt;Node12 -->
<g id="edge14_Node000011_Node000012" class="edge">
<title>Node11&#45;&gt;Node12</title>
<g id="a_edge14_Node000011_Node000012"><a xlink:title=" ">
<path fill="none" stroke="#63b8ff" d="M838.25,-126.9C838.25,-116.89 838.25,-105.81 838.25,-97.26"/>
<polygon fill="#63b8ff" stroke="#63b8ff" points="834.75,-126.83 838.25,-136.83 841.75,-126.83 834.75,-126.83"/>
</a>
</g>
</g>
<!-- Node13 -->
<g id="Node000013" class="node">
<title>Node13</title>
<g id="a_Node000013"><a xlink:href="_headless_8cpp.html" target="_top" xlink:title=" ">
<polygon fill="white" stroke="#666666" points="906.62,-30.5 769.88,-30.5 769.88,0 906.62,0 906.62,-30.5"/>
<text text-anchor="start" x="777.88" y="-17" font-family="Helvetica,sans-Serif" font-size="10.00">/Users/hoff/Retro/virtualc64</text>
<text text-anchor="middle" x="838.25" y="-5.75" font-family="Helvetica,sans-Serif" font-size="10.00">/Emulator/Headless.cpp</text>
</a>
</g>
</g>
<!-- Node12&#45;&gt;Node13 -->
<g id="edge15_Node000012_Node000013" class="edge">
<title>Node12&#45;&gt;Node13</title>
<g id="a_edge15_Node000012_Node000013"><a xlink:title=" ">
<path fill="none" stroke="#63b8ff" d="M838.25,-54.81C838.25,-46.64 838.25,-37.91 838.25,-30.83"/>
<polygon fill="#63b8ff" stroke="#63b8ff" points="834.75,-54.6 838.25,-64.6 841.75,-54.6 834.75,-54.6"/>
</a>
</g>
</g>
</g>
</svg>
