<?xml version="1.0" encoding="UTF-8" standalone="no"?>
<!DOCTYPE svg PUBLIC "-//W3C//DTD SVG 1.1//EN"
 "http://www.w3.org/Graphics/SVG/1.1/DTD/svg11.dtd">
<!-- Generated by graphviz version 10.0.1 (20240210.2158)
 -->
<!-- Title: /Users/hoff/Retro/virtualc64/Emulator/FileSystems/FSTypes.h Pages: 1 -->
<svg width="857pt" height="449pt"
 viewBox="0.00 0.00 856.88 448.75" xmlns="http://www.w3.org/2000/svg" xmlns:xlink="http://www.w3.org/1999/xlink">
<g id="graph0" class="graph" transform="scale(1 1) rotate(0) translate(4 444.75)">
<title>/Users/hoff/Retro/virtualc64/Emulator/FileSystems/FSTypes.h</title>
<!-- Node1 -->
<g id="Node000001" class="node">
<title>Node1</title>
<g id="a_Node000001"><a xlink:title=" ">
<polygon fill="#999999" stroke="#666666" points="560.25,-440.75 394.25,-440.75 394.25,-410.25 560.25,-410.25 560.25,-440.75"/>
<text text-anchor="start" x="402.25" y="-427.25" font-family="Helvetica,sans-Serif" font-size="10.00">/Users/hoff/Retro/virtualc64</text>
<text text-anchor="middle" x="477.25" y="-416" font-family="Helvetica,sans-Serif" font-size="10.00">/Emulator/FileSystems/FSTypes.h</text>
</a>
</g>
</g>
<!-- Node2 -->
<g id="Node000002" class="node">
<title>Node2</title>
<g id="a_Node000002"><a xlink:href="_f_s_block_8h_source.html" target="_top" xlink:title=" ">
<polygon fill="white" stroke="#666666" points="164.5,-374.25 0,-374.25 0,-343.75 164.5,-343.75 164.5,-374.25"/>
<text text-anchor="start" x="8" y="-360.75" font-family="Helvetica,sans-Serif" font-size="10.00">/Users/hoff/Retro/virtualc64</text>
<text text-anchor="middle" x="82.25" y="-349.5" font-family="Helvetica,sans-Serif" font-size="10.00">/Emulator/FileSystems/FSBlock.h</text>
</a>
</g>
</g>
<!-- Node1&#45;&gt;Node2 -->
<g id="edge1_Node000001_Node000002" class="edge">
<title>Node1&#45;&gt;Node2</title>
<g id="a_edge1_Node000001_Node000002"><a xlink:title=" ">
<path fill="none" stroke="#63b8ff" d="M382.66,-409.05C316.25,-398.21 228.31,-383.85 164.74,-373.47"/>
<polygon fill="#63b8ff" stroke="#63b8ff" points="382.04,-412.5 392.47,-410.66 383.16,-405.59 382.04,-412.5"/>
</a>
</g>
</g>
<!-- Node8 -->
<g id="Node000008" class="node">
<title>Node8</title>
<g id="a_Node000008"><a xlink:href="_f_s_descriptors_8h_source.html" target="_top" xlink:title=" ">
<polygon fill="white" stroke="#666666" points="372.25,-374.25 182.25,-374.25 182.25,-343.75 372.25,-343.75 372.25,-374.25"/>
<text text-anchor="start" x="190.25" y="-360.75" font-family="Helvetica,sans-Serif" font-size="10.00">/Users/hoff/Retro/virtualc64</text>
<text text-anchor="middle" x="277.25" y="-349.5" font-family="Helvetica,sans-Serif" font-size="10.00">/Emulator/FileSystems/FSDescriptors.h</text>
</a>
</g>
</g>
<!-- Node1&#45;&gt;Node8 -->
<g id="edge7_Node000001_Node000008" class="edge">
<title>Node1&#45;&gt;Node8</title>
<g id="a_edge7_Node000001_Node000008"><a xlink:title=" ">
<path fill="none" stroke="#63b8ff" d="M420.95,-406.34C389.89,-396.33 351.83,-384.05 322.69,-374.65"/>
<polygon fill="#63b8ff" stroke="#63b8ff" points="419.58,-409.58 430.18,-409.32 421.73,-402.92 419.58,-409.58"/>
</a>
</g>
</g>
<!-- Node9 -->
<g id="Node000009" class="node">
<title>Node9</title>
<g id="a_Node000009"><a xlink:href="_f_s_dir_entry_8h_source.html" target="_top" xlink:title=" ">
<polygon fill="white" stroke="#666666" points="564.38,-374.25 390.12,-374.25 390.12,-343.75 564.38,-343.75 564.38,-374.25"/>
<text text-anchor="start" x="398.12" y="-360.75" font-family="Helvetica,sans-Serif" font-size="10.00">/Users/hoff/Retro/virtualc64</text>
<text text-anchor="middle" x="477.25" y="-349.5" font-family="Helvetica,sans-Serif" font-size="10.00">/Emulator/FileSystems/FSDirEntry.h</text>
</a>
</g>
</g>
<!-- Node1&#45;&gt;Node9 -->
<g id="edge9_Node000001_Node000009" class="edge">
<title>Node1&#45;&gt;Node9</title>
<g id="a_edge9_Node000001_Node000009"><a xlink:title=" ">
<path fill="none" stroke="#63b8ff" d="M477.25,-398.56C477.25,-390.39 477.25,-381.66 477.25,-374.58"/>
<polygon fill="#63b8ff" stroke="#63b8ff" points="473.75,-398.35 477.25,-408.35 480.75,-398.35 473.75,-398.35"/>
</a>
</g>
</g>
<!-- Node10 -->
<g id="Node000010" class="node">
<title>Node10</title>
<g id="a_Node000010"><a xlink:href="_disk_8h_source.html" target="_top" xlink:title=" ">
<polygon fill="white" stroke="#666666" points="750,-374.25 582.5,-374.25 582.5,-343.75 750,-343.75 750,-374.25"/>
<text text-anchor="start" x="590.5" y="-360.75" font-family="Helvetica,sans-Serif" font-size="10.00">/Users/hoff/Retro/virtualc64</text>
<text text-anchor="middle" x="666.25" y="-349.5" font-family="Helvetica,sans-Serif" font-size="10.00">/Emulator/Peripherals/Drive/Disk.h</text>
</a>
</g>
</g>
<!-- Node1&#45;&gt;Node10 -->
<g id="edge11_Node000001_Node000010" class="edge">
<title>Node1&#45;&gt;Node10</title>
<g id="a_edge11_Node000001_Node000010"><a xlink:title=" ">
<path fill="none" stroke="#63b8ff" d="M530.99,-406.16C560.2,-396.19 595.84,-384.03 623.21,-374.69"/>
<polygon fill="#63b8ff" stroke="#63b8ff" points="529.9,-402.83 521.57,-409.38 532.16,-409.46 529.9,-402.83"/>
</a>
</g>
</g>
<!-- Node12 -->
<g id="Node000012" class="node">
<title>Node12</title>
<g id="a_Node000012"><a xlink:href="_virtual_c64_types_8h.html" target="_top" xlink:title=" ">
<polygon fill="white" stroke="#666666" points="848.88,-230 707.62,-230 707.62,-199.5 848.88,-199.5 848.88,-230"/>
<text text-anchor="start" x="715.62" y="-216.5" font-family="Helvetica,sans-Serif" font-size="10.00">/Users/hoff/Retro/virtualc64</text>
<text text-anchor="middle" x="778.25" y="-205.25" font-family="Helvetica,sans-Serif" font-size="10.00">/Emulator/VirtualC64Types.h</text>
</a>
</g>
</g>
<!-- Node1&#45;&gt;Node12 -->
<g id="edge14_Node000001_Node000012" class="edge">
<title>Node1&#45;&gt;Node12</title>
<g id="a_edge14_Node000001_Node000012"><a xlink:title=" ">
<path fill="none" stroke="#63b8ff" d="M571.87,-419.51C643.58,-413.63 733.97,-401.02 759.25,-374.25 796.93,-334.36 787.69,-261.36 781.57,-230.33"/>
<polygon fill="#63b8ff" stroke="#63b8ff" points="571.74,-416.01 562.04,-420.28 572.28,-422.99 571.74,-416.01"/>
</a>
</g>
</g>
<!-- Node3 -->
<g id="Node000003" class="node">
<title>Node3</title>
<g id="a_Node000003"><a xlink:href="_file_system_8h_source.html" target="_top" xlink:title=" ">
<polygon fill="white" stroke="#666666" points="465.5,-302.12 289,-302.12 289,-271.62 465.5,-271.62 465.5,-302.12"/>
<text text-anchor="start" x="297" y="-288.62" font-family="Helvetica,sans-Serif" font-size="10.00">/Users/hoff/Retro/virtualc64</text>
<text text-anchor="middle" x="377.25" y="-277.38" font-family="Helvetica,sans-Serif" font-size="10.00">/Emulator/FileSystems/FileSystem.h</text>
</a>
</g>
</g>
<!-- Node2&#45;&gt;Node3 -->
<g id="edge2_Node000002_Node000003" class="edge">
<title>Node2&#45;&gt;Node3</title>
<g id="a_edge2_Node000002_Node000003"><a xlink:title=" ">
<path fill="none" stroke="#63b8ff" d="M155.29,-340.64C204.45,-328.95 268.56,-313.71 315.24,-302.62"/>
<polygon fill="#63b8ff" stroke="#63b8ff" points="154.48,-337.23 145.56,-342.95 156.1,-344.04 154.48,-337.23"/>
</a>
</g>
</g>
<!-- Node4 -->
<g id="Node000004" class="node">
<title>Node4</title>
<g id="a_Node000004"><a xlink:href="_c64_8h_source.html" target="_top" xlink:title=" ">
<polygon fill="white" stroke="#666666" points="689.12,-230 543.38,-230 543.38,-199.5 689.12,-199.5 689.12,-230"/>
<text text-anchor="start" x="551.38" y="-216.5" font-family="Helvetica,sans-Serif" font-size="10.00">/Users/hoff/Retro/virtualc64</text>
<text text-anchor="middle" x="616.25" y="-205.25" font-family="Helvetica,sans-Serif" font-size="10.00">/Emulator/Components/C64.h</text>
</a>
</g>
</g>
<!-- Node3&#45;&gt;Node4 -->
<g id="edge3_Node000003_Node000004" class="edge">
<title>Node3&#45;&gt;Node4</title>
<g id="a_edge3_Node000003_Node000004"><a xlink:title=" ">
<path fill="none" stroke="#63b8ff" d="M438.21,-267.99C477.87,-256.35 528.95,-241.37 566.21,-230.43"/>
<polygon fill="#63b8ff" stroke="#63b8ff" points="437.41,-264.57 428.8,-270.75 439.39,-271.29 437.41,-264.57"/>
</a>
</g>
</g>
<!-- Node5 -->
<g id="Node000005" class="node">
<title>Node5</title>
<g id="a_Node000005"><a xlink:href="_emulator_8h_source.html" target="_top" xlink:title=" ">
<polygon fill="white" stroke="#666666" points="724.25,-163.5 558.25,-163.5 558.25,-133 724.25,-133 724.25,-163.5"/>
<text text-anchor="start" x="566.25" y="-150" font-family="Helvetica,sans-Serif" font-size="10.00">/Users/hoff/Retro/virtualc64</text>
<text text-anchor="middle" x="641.25" y="-138.75" font-family="Helvetica,sans-Serif" font-size="10.00">/Emulator/Components/Emulator.h</text>
</a>
</g>
</g>
<!-- Node4&#45;&gt;Node5 -->
<g id="edge4_Node000004_Node000005" class="edge">
<title>Node4&#45;&gt;Node5</title>
<g id="a_edge4_Node000004_Node000005"><a xlink:title=" ">
<path fill="none" stroke="#63b8ff" d="M625.97,-188.66C629.23,-180.25 632.76,-171.16 635.6,-163.83"/>
<polygon fill="#63b8ff" stroke="#63b8ff" points="622.82,-187.11 622.47,-197.7 629.35,-189.64 622.82,-187.11"/>
</a>
</g>
</g>
<!-- Node6 -->
<g id="Node000006" class="node">
<title>Node6</title>
<g id="a_Node000006"><a xlink:href="_virtual_c64_8h.html" target="_top" xlink:title=" ">
<polygon fill="white" stroke="#666666" points="764.62,-97 627.88,-97 627.88,-66.5 764.62,-66.5 764.62,-97"/>
<text text-anchor="start" x="635.88" y="-83.5" font-family="Helvetica,sans-Serif" font-size="10.00">/Users/hoff/Retro/virtualc64</text>
<text text-anchor="middle" x="696.25" y="-72.25" font-family="Helvetica,sans-Serif" font-size="10.00">/Emulator/VirtualC64.h</text>
</a>
</g>
</g>
<!-- Node5&#45;&gt;Node6 -->
<g id="edge5_Node000005_Node000006" class="edge">
<title>Node5&#45;&gt;Node6</title>
<g id="a_edge5_Node000005_Node000006"><a xlink:title=" ">
<path fill="none" stroke="#63b8ff" d="M660.96,-124.13C668.59,-115.19 677.08,-105.24 683.82,-97.33"/>
<polygon fill="#63b8ff" stroke="#63b8ff" points="658.54,-121.58 654.71,-131.46 663.86,-126.12 658.54,-121.58"/>
</a>
</g>
</g>
<!-- Node7 -->
<g id="Node000007" class="node">
<title>Node7</title>
<g id="a_Node000007"><a xlink:href="_headless_8h_source.html" target="_top" xlink:title=" ">
<polygon fill="white" stroke="#666666" points="764.62,-30.5 627.88,-30.5 627.88,0 764.62,0 764.62,-30.5"/>
<text text-anchor="start" x="635.88" y="-17" font-family="Helvetica,sans-Serif" font-size="10.00">/Users/hoff/Retro/virtualc64</text>
<text text-anchor="middle" x="696.25" y="-5.75" font-family="Helvetica,sans-Serif" font-size="10.00">/Emulator/Headless.h</text>
</a>
</g>
</g>
<!-- Node6&#45;&gt;Node7 -->
<g id="edge6_Node000006_Node000007" class="edge">
<title>Node6&#45;&gt;Node7</title>
<g id="a_edge6_Node000006_Node000007"><a xlink:title=" ">
<path fill="none" stroke="#63b8ff" d="M696.25,-54.81C696.25,-46.64 696.25,-37.91 696.25,-30.83"/>
<polygon fill="#63b8ff" stroke="#63b8ff" points="692.75,-54.6 696.25,-64.6 699.75,-54.6 692.75,-54.6"/>
</a>
</g>
</g>
<!-- Node8&#45;&gt;Node3 -->
<g id="edge8_Node000008_Node000003" class="edge">
<title>Node8&#45;&gt;Node3</title>
<g id="a_edge8_Node000008_Node000003"><a xlink:title=" ">
<path fill="none" stroke="#63b8ff" d="M307.38,-336.87C323.26,-325.73 342.35,-312.35 356.56,-302.39"/>
<polygon fill="#63b8ff" stroke="#63b8ff" points="305.39,-333.99 299.21,-342.6 309.41,-339.73 305.39,-333.99"/>
</a>
</g>
</g>
<!-- Node9&#45;&gt;Node3 -->
<g id="edge10_Node000009_Node000003" class="edge">
<title>Node9&#45;&gt;Node3</title>
<g id="a_edge10_Node000009_Node000003"><a xlink:title=" ">
<path fill="none" stroke="#63b8ff" d="M447.12,-336.87C431.24,-325.73 412.15,-312.35 397.94,-302.39"/>
<polygon fill="#63b8ff" stroke="#63b8ff" points="445.09,-339.73 455.29,-342.6 449.11,-333.99 445.09,-339.73"/>
</a>
</g>
</g>
<!-- Node11 -->
<g id="Node000011" class="node">
<title>Node11</title>
<g id="a_Node000011"><a xlink:href="_drive_8h_source.html" target="_top" xlink:title=" ">
<polygon fill="white" stroke="#666666" points="709.62,-307.75 572.88,-307.75 572.88,-266 709.62,-266 709.62,-307.75"/>
<text text-anchor="start" x="580.88" y="-294.25" font-family="Helvetica,sans-Serif" font-size="10.00">/Users/hoff/Retro/virtualc64</text>
<text text-anchor="start" x="580.88" y="-283" font-family="Helvetica,sans-Serif" font-size="10.00">/Emulator/Peripherals/Drive</text>
<text text-anchor="middle" x="641.25" y="-271.75" font-family="Helvetica,sans-Serif" font-size="10.00">/Drive.h</text>
</a>
</g>
</g>
<!-- Node10&#45;&gt;Node11 -->
<g id="edge12_Node000010_Node000011" class="edge">
<title>Node10&#45;&gt;Node11</title>
<g id="a_edge12_Node000010_Node000011"><a xlink:title=" ">
<path fill="none" stroke="#63b8ff" d="M657.26,-332.78C654.38,-324.72 651.24,-315.9 648.51,-308.24"/>
<polygon fill="#63b8ff" stroke="#63b8ff" points="653.91,-333.8 660.56,-342.04 660.5,-331.45 653.91,-333.8"/>
</a>
</g>
</g>
<!-- Node11&#45;&gt;Node4 -->
<g id="edge13_Node000011_Node000004" class="edge">
<title>Node11&#45;&gt;Node4</title>
<g id="a_edge13_Node000011_Node000004"><a xlink:title=" ">
<path fill="none" stroke="#63b8ff" d="M630.24,-255C627.16,-246.37 623.96,-237.39 621.4,-230.2"/>
<polygon fill="#63b8ff" stroke="#63b8ff" points="626.86,-255.92 633.51,-264.17 633.45,-253.57 626.86,-255.92"/>
</a>
</g>
</g>
<!-- Node12&#45;&gt;Node6 -->
<g id="edge15_Node000012_Node000006" class="edge">
<title>Node12&#45;&gt;Node6</title>
<g id="a_edge15_Node000012_Node000006"><a xlink:title=" ">
<path fill="none" stroke="#63b8ff" d="M765.67,-189.32C757.05,-173.05 745.07,-151.38 733.25,-133 725.28,-120.61 715.34,-107.2 707.76,-97.35"/>
<polygon fill="#63b8ff" stroke="#63b8ff" points="762.37,-190.56 770.12,-197.79 768.57,-187.31 762.37,-190.56"/>
</a>
</g>
</g>
</g>
</svg>
