<?xml version="1.0" encoding="UTF-8" standalone="no"?>
<!DOCTYPE svg PUBLIC "-//W3C//DTD SVG 1.1//EN"
 "http://www.w3.org/Graphics/SVG/1.1/DTD/svg11.dtd">
<!-- Generated by graphviz version 10.0.1 (20240210.2158)
 -->
<!-- Title: /Users/hoff/Retro/virtualc64/Emulator/FileSystems/FSBlock.cpp Pages: 1 -->
<svg width="1289pt" height="646pt"
 viewBox="0.00 0.00 1288.50 646.25" xmlns="http://www.w3.org/2000/svg" xmlns:xlink="http://www.w3.org/1999/xlink">
<g id="graph0" class="graph" transform="scale(1 1) rotate(0) translate(4 642.25)">
<title>/Users/hoff/Retro/virtualc64/Emulator/FileSystems/FSBlock.cpp</title>
<!-- Node1 -->
<g id="Node000001" class="node">
<title>Node1</title>
<g id="a_Node000001"><a xlink:title=" ">
<polygon fill="#999999" stroke="#666666" points="344.5,-638.25 169.5,-638.25 169.5,-607.75 344.5,-607.75 344.5,-638.25"/>
<text text-anchor="start" x="177.5" y="-624.75" font-family="Helvetica,sans-Serif" font-size="10.00">/Users/hoff/Retro/virtualc64</text>
<text text-anchor="middle" x="257" y="-613.5" font-family="Helvetica,sans-Serif" font-size="10.00">/Emulator/FileSystems/FSBlock.cpp</text>
</a>
</g>
</g>
<!-- Node2 -->
<g id="Node000002" class="node">
<title>Node2</title>
<g id="a_Node000002"><a xlink:href="config_8h.html" target="_top" xlink:title=" ">
<polygon fill="white" stroke="#666666" points="147.25,-571.75 96.75,-571.75 96.75,-552.5 147.25,-552.5 147.25,-571.75"/>
<text text-anchor="middle" x="122" y="-558.25" font-family="Helvetica,sans-Serif" font-size="10.00">config.h</text>
</a>
</g>
</g>
<!-- Node1&#45;&gt;Node2 -->
<g id="edge1_Node000001_Node000002" class="edge">
<title>Node1&#45;&gt;Node2</title>
<g id="a_edge1_Node000001_Node000002"><a xlink:title=" ">
<path fill="none" stroke="#63b8ff" d="M223.28,-607.3C201.73,-597.9 174,-585.8 153,-576.64"/>
<polygon fill="#63b8ff" stroke="#63b8ff" points="154.66,-573.55 144.09,-572.76 151.86,-579.96 154.66,-573.55"/>
</a>
</g>
</g>
<!-- Node4 -->
<g id="Node000004" class="node">
<title>Node4</title>
<g id="a_Node000004"><a xlink:href="_f_s_block_8h.html" target="_top" xlink:title=" ">
<polygon fill="white" stroke="#666666" points="435.88,-461.25 374.12,-461.25 374.12,-442 435.88,-442 435.88,-461.25"/>
<text text-anchor="middle" x="405" y="-447.75" font-family="Helvetica,sans-Serif" font-size="10.00">FSBlock.h</text>
</a>
</g>
</g>
<!-- Node1&#45;&gt;Node4 -->
<g id="edge3_Node000001_Node000004" class="edge">
<title>Node1&#45;&gt;Node4</title>
<g id="a_edge3_Node000001_Node000004"><a xlink:title=" ">
<path fill="none" stroke="#63b8ff" d="M269.88,-607.27C297.13,-576.07 360.55,-503.5 389.76,-470.06"/>
<polygon fill="#63b8ff" stroke="#63b8ff" points="392.1,-472.71 396.04,-462.87 386.83,-468.1 392.1,-472.71"/>
</a>
</g>
</g>
<!-- Node23 -->
<g id="Node000023" class="node">
<title>Node23</title>
<g id="a_Node000023"><a xlink:href="_mem_utils_8h.html" target="_top" xlink:title=" ">
<polygon fill="white" stroke="#666666" points="137.12,-350.75 70.88,-350.75 70.88,-331.5 137.12,-331.5 137.12,-350.75"/>
<text text-anchor="middle" x="104" y="-337.25" font-family="Helvetica,sans-Serif" font-size="10.00">MemUtils.h</text>
</a>
</g>
</g>
<!-- Node1&#45;&gt;Node23 -->
<g id="edge69_Node000001_Node000023" class="edge">
<title>Node1&#45;&gt;Node23</title>
<g id="a_edge69_Node000001_Node000023"><a xlink:title=" ">
<path fill="none" stroke="#63b8ff" d="M237.15,-607.44C212.88,-587.79 175,-550.33 175,-507.88 175,-507.88 175,-507.88 175,-450.62 175,-413 144.74,-378.26 123.73,-358.67"/>
<polygon fill="#63b8ff" stroke="#63b8ff" points="126.33,-356.3 116.54,-352.25 121.66,-361.52 126.33,-356.3"/>
</a>
</g>
</g>
<!-- Node25 -->
<g id="Node000025" class="node">
<title>Node25</title>
<g id="a_Node000025"><a xlink:href="_file_system_8h.html" target="_top" xlink:title=" ">
<polygon fill="white" stroke="#666666" points="551.88,-571.75 478.12,-571.75 478.12,-552.5 551.88,-552.5 551.88,-571.75"/>
<text text-anchor="middle" x="515" y="-558.25" font-family="Helvetica,sans-Serif" font-size="10.00">FileSystem.h</text>
</a>
</g>
</g>
<!-- Node1&#45;&gt;Node25 -->
<g id="edge32_Node000001_Node000025" class="edge">
<title>Node1&#45;&gt;Node25</title>
<g id="a_edge32_Node000001_Node000025"><a xlink:title=" ">
<path fill="none" stroke="#63b8ff" d="M321.44,-607.3C366.46,-597.02 425.62,-583.52 466.63,-574.16"/>
<polygon fill="#63b8ff" stroke="#63b8ff" points="467.24,-577.61 476.21,-571.98 465.68,-570.79 467.24,-577.61"/>
</a>
</g>
</g>
<!-- Node3 -->
<g id="Node000003" class="node">
<title>Node3</title>
<g id="a_Node000003"><a xlink:title=" ">
<polygon fill="#e0e0e0" stroke="#999999" points="146.62,-516.5 95.38,-516.5 95.38,-497.25 146.62,-497.25 146.62,-516.5"/>
<text text-anchor="middle" x="121" y="-503" font-family="Helvetica,sans-Serif" font-size="10.00">assert.h</text>
</a>
</g>
</g>
<!-- Node2&#45;&gt;Node3 -->
<g id="edge2_Node000002_Node000003" class="edge">
<title>Node2&#45;&gt;Node3</title>
<g id="a_edge2_Node000002_Node000003"><a xlink:title=" ">
<path fill="none" stroke="#63b8ff" d="M121.83,-552.33C121.71,-545.82 121.54,-536.67 121.38,-528.37"/>
<polygon fill="#63b8ff" stroke="#63b8ff" points="124.88,-528.3 121.2,-518.37 117.89,-528.44 124.88,-528.3"/>
</a>
</g>
</g>
<!-- Node5 -->
<g id="Node000005" class="node">
<title>Node5</title>
<g id="a_Node000005"><a xlink:href="_f_s_types_8h.html" target="_top" xlink:title=" ">
<polygon fill="white" stroke="#666666" points="446.62,-350.75 383.38,-350.75 383.38,-331.5 446.62,-331.5 446.62,-350.75"/>
<text text-anchor="middle" x="415" y="-337.25" font-family="Helvetica,sans-Serif" font-size="10.00">FSTypes.h</text>
</a>
</g>
</g>
<!-- Node4&#45;&gt;Node5 -->
<g id="edge4_Node000004_Node000005" class="edge">
<title>Node4&#45;&gt;Node5</title>
<g id="a_edge4_Node000004_Node000005"><a xlink:title=" ">
<path fill="none" stroke="#63b8ff" d="M405.82,-441.75C407.41,-424.5 410.95,-386.08 413.14,-362.31"/>
<polygon fill="#63b8ff" stroke="#63b8ff" points="416.6,-362.91 414.03,-352.63 409.63,-362.27 416.6,-362.91"/>
</a>
</g>
</g>
<!-- Node13 -->
<g id="Node000013" class="node">
<title>Node13</title>
<g id="a_Node000013"><a xlink:href="_buffer_8h.html" target="_top" xlink:title=" ">
<polygon fill="white" stroke="#666666" points="204.88,-350.75 155.12,-350.75 155.12,-331.5 204.88,-331.5 204.88,-350.75"/>
<text text-anchor="middle" x="180" y="-337.25" font-family="Helvetica,sans-Serif" font-size="10.00">Buffer.h</text>
</a>
</g>
</g>
<!-- Node4&#45;&gt;Node13 -->
<g id="edge12_Node000004_Node000013" class="edge">
<title>Node4&#45;&gt;Node13</title>
<g id="a_edge12_Node000004_Node000013"><a xlink:title=" ">
<path fill="none" stroke="#63b8ff" d="M384.85,-441.58C365.17,-432.69 334.41,-418.66 308,-406 273.32,-389.37 233.75,-369.49 207.9,-356.37"/>
<polygon fill="#63b8ff" stroke="#63b8ff" points="209.57,-353.29 199.07,-351.88 206.4,-359.53 209.57,-353.29"/>
</a>
</g>
</g>
<!-- Node15 -->
<g id="Node000015" class="node">
<title>Node15</title>
<g id="a_Node000015"><a xlink:href="_core_object_8h.html" target="_top" xlink:title=" ">
<polygon fill="white" stroke="#666666" points="592.88,-350.75 519.12,-350.75 519.12,-331.5 592.88,-331.5 592.88,-350.75"/>
<text text-anchor="middle" x="556" y="-337.25" font-family="Helvetica,sans-Serif" font-size="10.00">CoreObject.h</text>
</a>
</g>
</g>
<!-- Node4&#45;&gt;Node15 -->
<g id="edge16_Node000004_Node000015" class="edge">
<title>Node4&#45;&gt;Node15</title>
<g id="a_edge16_Node000004_Node000015"><a xlink:title=" ">
<path fill="none" stroke="#63b8ff" d="M436.09,-448.75C466.82,-445.2 513.04,-435.03 540,-406 550.84,-394.33 554.62,-376.44 555.81,-362.56"/>
<polygon fill="#63b8ff" stroke="#63b8ff" points="559.3,-362.89 556.25,-352.74 552.31,-362.58 559.3,-362.89"/>
</a>
</g>
</g>
<!-- Node22 -->
<g id="Node000022" class="node">
<title>Node22</title>
<g id="a_Node000022"><a xlink:href="_p_e_t_name_8h.html" target="_top" xlink:title=" ">
<polygon fill="white" stroke="#666666" points="387,-406 317,-406 317,-386.75 387,-386.75 387,-406"/>
<text text-anchor="middle" x="352" y="-392.5" font-family="Helvetica,sans-Serif" font-size="10.00">PETName.h</text>
</a>
</g>
</g>
<!-- Node4&#45;&gt;Node22 -->
<g id="edge26_Node000004_Node000022" class="edge">
<title>Node4&#45;&gt;Node22</title>
<g id="a_edge26_Node000004_Node000022"><a xlink:title=" ">
<path fill="none" stroke="#63b8ff" d="M396.25,-441.83C388.85,-434.4 378.04,-423.54 368.95,-414.41"/>
<polygon fill="#63b8ff" stroke="#63b8ff" points="371.54,-412.05 362.01,-407.43 366.58,-416.99 371.54,-412.05"/>
</a>
</g>
</g>
<!-- Node6 -->
<g id="Node000006" class="node">
<title>Node6</title>
<g id="a_Node000006"><a xlink:href="_aliases_8h.html" target="_top" xlink:title=" ">
<polygon fill="white" stroke="#666666" points="380.25,-185 323.75,-185 323.75,-165.75 380.25,-165.75 380.25,-185"/>
<text text-anchor="middle" x="352" y="-171.5" font-family="Helvetica,sans-Serif" font-size="10.00">Aliases.h</text>
</a>
</g>
</g>
<!-- Node5&#45;&gt;Node6 -->
<g id="edge5_Node000005_Node000006" class="edge">
<title>Node5&#45;&gt;Node6</title>
<g id="a_edge5_Node000005_Node000006"><a xlink:title=" ">
<path fill="none" stroke="#63b8ff" d="M391.2,-331.02C375.27,-323.73 355.08,-311.99 343,-295.5 323.1,-268.32 321.06,-253.74 329,-221 331.18,-212.02 335.5,-202.82 339.81,-195.13"/>
<polygon fill="#63b8ff" stroke="#63b8ff" points="342.71,-197.1 344.9,-186.73 336.72,-193.47 342.71,-197.1"/>
</a>
</g>
</g>
<!-- Node12 -->
<g id="Node000012" class="node">
<title>Node12</title>
<g id="a_Node000012"><a xlink:href="_reflection_8h.html" target="_top" xlink:title=" ">
<polygon fill="white" stroke="#666666" points="528.25,-185 459.75,-185 459.75,-165.75 528.25,-165.75 528.25,-185"/>
<text text-anchor="middle" x="494" y="-171.5" font-family="Helvetica,sans-Serif" font-size="10.00">Reflection.h</text>
</a>
</g>
</g>
<!-- Node5&#45;&gt;Node12 -->
<g id="edge11_Node000005_Node000012" class="edge">
<title>Node5&#45;&gt;Node12</title>
<g id="a_edge11_Node000005_Node000012"><a xlink:title=" ">
<path fill="none" stroke="#63b8ff" d="M427.95,-331.22C449.27,-315.68 490.97,-281.32 507,-240.25 512.61,-225.88 508.56,-208.71 503.55,-195.79"/>
<polygon fill="#63b8ff" stroke="#63b8ff" points="506.78,-194.44 499.54,-186.71 500.38,-197.27 506.78,-194.44"/>
</a>
</g>
</g>
<!-- Node7 -->
<g id="Node000007" class="node">
<title>Node7</title>
<g id="a_Node000007"><a xlink:href="_macros_8h.html" target="_top" xlink:title=" ">
<polygon fill="white" stroke="#666666" points="331.25,-129.75 274.75,-129.75 274.75,-110.5 331.25,-110.5 331.25,-129.75"/>
<text text-anchor="middle" x="303" y="-116.25" font-family="Helvetica,sans-Serif" font-size="10.00">Macros.h</text>
</a>
</g>
</g>
<!-- Node6&#45;&gt;Node7 -->
<g id="edge6_Node000006_Node000007" class="edge">
<title>Node6&#45;&gt;Node7</title>
<g id="a_edge6_Node000006_Node000007"><a xlink:title=" ">
<path fill="none" stroke="#63b8ff" d="M343.91,-165.58C337.14,-158.23 327.28,-147.51 318.94,-138.44"/>
<polygon fill="#63b8ff" stroke="#63b8ff" points="321.64,-136.21 312.29,-131.22 316.49,-140.95 321.64,-136.21"/>
</a>
</g>
</g>
<!-- Node8 -->
<g id="Node000008" class="node">
<title>Node8</title>
<g id="a_Node000008"><a xlink:href="_types_8h.html" target="_top" xlink:title=" ">
<polygon fill="white" stroke="#666666" points="223.25,-74.5 172.75,-74.5 172.75,-55.25 223.25,-55.25 223.25,-74.5"/>
<text text-anchor="middle" x="198" y="-61" font-family="Helvetica,sans-Serif" font-size="10.00">Types.h</text>
</a>
</g>
</g>
<!-- Node7&#45;&gt;Node8 -->
<g id="edge7_Node000007_Node000008" class="edge">
<title>Node7&#45;&gt;Node8</title>
<g id="a_edge7_Node000007_Node000008"><a xlink:title=" ">
<path fill="none" stroke="#63b8ff" d="M285.19,-110.09C268.97,-101.87 244.76,-89.59 225.97,-80.06"/>
<polygon fill="#63b8ff" stroke="#63b8ff" points="227.75,-77.04 217.25,-75.64 224.58,-83.28 227.75,-77.04"/>
</a>
</g>
</g>
<!-- Node9 -->
<g id="Node000009" class="node">
<title>Node9</title>
<g id="a_Node000009"><a xlink:title=" ">
<polygon fill="#e0e0e0" stroke="#999999" points="155.5,-19.25 88.5,-19.25 88.5,0 155.5,0 155.5,-19.25"/>
<text text-anchor="middle" x="122" y="-5.75" font-family="Helvetica,sans-Serif" font-size="10.00">sys/types.h</text>
</a>
</g>
</g>
<!-- Node8&#45;&gt;Node9 -->
<g id="edge8_Node000008_Node000009" class="edge">
<title>Node8&#45;&gt;Node9</title>
<g id="a_edge8_Node000008_Node000009"><a xlink:title=" ">
<path fill="none" stroke="#63b8ff" d="M185.11,-54.84C173.97,-47.04 157.63,-35.59 144.36,-26.29"/>
<polygon fill="#63b8ff" stroke="#63b8ff" points="146.39,-23.44 136.2,-20.57 142.38,-29.18 146.39,-23.44"/>
</a>
</g>
</g>
<!-- Node10 -->
<g id="Node000010" class="node">
<title>Node10</title>
<g id="a_Node000010"><a xlink:title=" ">
<polygon fill="#e0e0e0" stroke="#999999" points="222.12,-19.25 173.88,-19.25 173.88,0 222.12,0 222.12,-19.25"/>
<text text-anchor="middle" x="198" y="-5.75" font-family="Helvetica,sans-Serif" font-size="10.00">stdint.h</text>
</a>
</g>
</g>
<!-- Node8&#45;&gt;Node10 -->
<g id="edge9_Node000008_Node000010" class="edge">
<title>Node8&#45;&gt;Node10</title>
<g id="a_edge9_Node000008_Node000010"><a xlink:title=" ">
<path fill="none" stroke="#63b8ff" d="M198,-55.08C198,-48.57 198,-39.42 198,-31.12"/>
<polygon fill="#63b8ff" stroke="#63b8ff" points="201.5,-31.12 198,-21.12 194.5,-31.12 201.5,-31.12"/>
</a>
</g>
</g>
<!-- Node11 -->
<g id="Node000011" class="node">
<title>Node11</title>
<g id="a_Node000011"><a xlink:title=" ">
<polygon fill="#e0e0e0" stroke="#999999" points="295.88,-19.25 240.12,-19.25 240.12,0 295.88,0 295.88,-19.25"/>
<text text-anchor="middle" x="268" y="-5.75" font-family="Helvetica,sans-Serif" font-size="10.00">stdbool.h</text>
</a>
</g>
</g>
<!-- Node8&#45;&gt;Node11 -->
<g id="edge10_Node000008_Node000011" class="edge">
<title>Node8&#45;&gt;Node11</title>
<g id="a_edge10_Node000008_Node000011"><a xlink:title=" ">
<path fill="none" stroke="#63b8ff" d="M209.87,-54.84C220.09,-47.07 235.07,-35.67 247.26,-26.4"/>
<polygon fill="#63b8ff" stroke="#63b8ff" points="249.26,-29.28 255.1,-20.44 245.02,-23.71 249.26,-29.28"/>
</a>
</g>
</g>
<!-- Node13&#45;&gt;Node8 -->
<g id="edge13_Node000013_Node000008" class="edge">
<title>Node13&#45;&gt;Node8</title>
<g id="a_edge13_Node000013_Node000008"><a xlink:title=" ">
<path fill="none" stroke="#63b8ff" d="M178.42,-331.07C175.46,-313.59 169.18,-273.93 167,-240.25 163.31,-183.39 181.21,-117.47 191.37,-85.41"/>
<polygon fill="#63b8ff" stroke="#63b8ff" points="194.57,-86.9 194.36,-76.3 187.92,-84.72 194.57,-86.9"/>
</a>
</g>
</g>
<!-- Node14 -->
<g id="Node000014" class="node">
<title>Node14</title>
<g id="a_Node000014"><a xlink:href="_checksum_8h.html" target="_top" xlink:title=" ">
<polygon fill="white" stroke="#666666" points="145.75,-295.5 74.25,-295.5 74.25,-276.25 145.75,-276.25 145.75,-295.5"/>
<text text-anchor="middle" x="110" y="-282" font-family="Helvetica,sans-Serif" font-size="10.00">Checksum.h</text>
</a>
</g>
</g>
<!-- Node13&#45;&gt;Node14 -->
<g id="edge14_Node000013_Node000014" class="edge">
<title>Node13&#45;&gt;Node14</title>
<g id="a_edge14_Node000013_Node000014"><a xlink:title=" ">
<path fill="none" stroke="#63b8ff" d="M168.13,-331.09C157.91,-323.32 142.93,-311.92 130.74,-302.65"/>
<polygon fill="#63b8ff" stroke="#63b8ff" points="132.98,-299.96 122.9,-296.69 128.74,-305.53 132.98,-299.96"/>
</a>
</g>
</g>
<!-- Node14&#45;&gt;Node8 -->
<g id="edge15_Node000014_Node000008" class="edge">
<title>Node14&#45;&gt;Node8</title>
<g id="a_edge15_Node000014_Node000008"><a xlink:title=" ">
<path fill="none" stroke="#63b8ff" d="M108.89,-276.09C105.91,-249.08 100.17,-165.75 134,-110.5 141.79,-97.77 154.73,-87.74 166.94,-80.43"/>
<polygon fill="#63b8ff" stroke="#63b8ff" points="168.5,-83.56 175.57,-75.67 165.12,-77.44 168.5,-83.56"/>
</a>
</g>
</g>
<!-- Node16 -->
<g id="Node000016" class="node">
<title>Node16</title>
<g id="a_Node000016"><a xlink:href="_error_8h.html" target="_top" xlink:title=" ">
<polygon fill="white" stroke="#666666" points="396.25,-295.5 351.75,-295.5 351.75,-276.25 396.25,-276.25 396.25,-295.5"/>
<text text-anchor="middle" x="374" y="-282" font-family="Helvetica,sans-Serif" font-size="10.00">Error.h</text>
</a>
</g>
</g>
<!-- Node15&#45;&gt;Node16 -->
<g id="edge17_Node000015_Node000016" class="edge">
<title>Node15&#45;&gt;Node16</title>
<g id="a_edge17_Node000015_Node000016"><a xlink:title=" ">
<path fill="none" stroke="#63b8ff" d="M525.13,-331.09C492.42,-321.52 440.94,-306.46 407.33,-296.63"/>
<polygon fill="#63b8ff" stroke="#63b8ff" points="408.7,-293.38 398.12,-293.93 406.73,-300.1 408.7,-293.38"/>
</a>
</g>
</g>
<!-- Node20 -->
<g id="Node000020" class="node">
<title>Node20</title>
<g id="a_Node000020"><a xlink:href="_inspectable_8h.html" target="_top" xlink:title=" ">
<polygon fill="white" stroke="#666666" points="593.25,-295.5 518.75,-295.5 518.75,-276.25 593.25,-276.25 593.25,-295.5"/>
<text text-anchor="middle" x="556" y="-282" font-family="Helvetica,sans-Serif" font-size="10.00">Inspectable.h</text>
</a>
</g>
</g>
<!-- Node15&#45;&gt;Node20 -->
<g id="edge24_Node000015_Node000020" class="edge">
<title>Node15&#45;&gt;Node20</title>
<g id="a_edge24_Node000015_Node000020"><a xlink:title=" ">
<path fill="none" stroke="#63b8ff" d="M556,-331.33C556,-324.82 556,-315.67 556,-307.37"/>
<polygon fill="#63b8ff" stroke="#63b8ff" points="559.5,-307.37 556,-297.37 552.5,-307.37 559.5,-307.37"/>
</a>
</g>
</g>
<!-- Node17 -->
<g id="Node000017" class="node">
<title>Node17</title>
<g id="a_Node000017"><a xlink:href="_error_types_8h.html" target="_top" xlink:title=" ">
<polygon fill="white" stroke="#666666" points="409.75,-240.25 338.25,-240.25 338.25,-221 409.75,-221 409.75,-240.25"/>
<text text-anchor="middle" x="374" y="-226.75" font-family="Helvetica,sans-Serif" font-size="10.00">ErrorTypes.h</text>
</a>
</g>
</g>
<!-- Node16&#45;&gt;Node17 -->
<g id="edge18_Node000016_Node000017" class="edge">
<title>Node16&#45;&gt;Node17</title>
<g id="a_edge18_Node000016_Node000017"><a xlink:title=" ">
<path fill="none" stroke="#63b8ff" d="M374,-276.08C374,-269.57 374,-260.42 374,-252.12"/>
<polygon fill="#63b8ff" stroke="#63b8ff" points="377.5,-252.12 374,-242.12 370.5,-252.12 377.5,-252.12"/>
</a>
</g>
</g>
<!-- Node18 -->
<g id="Node000018" class="node">
<title>Node18</title>
<g id="a_Node000018"><a xlink:href="_exception_8h.html" target="_top" xlink:title=" ">
<polygon fill="white" stroke="#666666" points="243.88,-240.25 176.12,-240.25 176.12,-221 243.88,-221 243.88,-240.25"/>
<text text-anchor="middle" x="210" y="-226.75" font-family="Helvetica,sans-Serif" font-size="10.00">Exception.h</text>
</a>
</g>
</g>
<!-- Node16&#45;&gt;Node18 -->
<g id="edge21_Node000016_Node000018" class="edge">
<title>Node16&#45;&gt;Node18</title>
<g id="a_edge21_Node000016_Node000018"><a xlink:title=" ">
<path fill="none" stroke="#63b8ff" d="M351.54,-277.58C325.09,-269 280.72,-254.59 248.7,-244.19"/>
<polygon fill="#63b8ff" stroke="#63b8ff" points="249.97,-240.92 239.38,-241.16 247.81,-247.58 249.97,-240.92"/>
</a>
</g>
</g>
<!-- Node17&#45;&gt;Node6 -->
<g id="edge19_Node000017_Node000006" class="edge">
<title>Node17&#45;&gt;Node6</title>
<g id="a_edge19_Node000017_Node000006"><a xlink:title=" ">
<path fill="none" stroke="#63b8ff" d="M370.37,-220.83C367.58,-214.09 363.63,-204.52 360.1,-195.99"/>
<polygon fill="#63b8ff" stroke="#63b8ff" points="363.34,-194.66 356.29,-186.76 356.87,-197.34 363.34,-194.66"/>
</a>
</g>
</g>
<!-- Node17&#45;&gt;Node12 -->
<g id="edge20_Node000017_Node000012" class="edge">
<title>Node17&#45;&gt;Node12</title>
<g id="a_edge20_Node000017_Node000012"><a xlink:title=" ">
<path fill="none" stroke="#63b8ff" d="M394.36,-220.59C413.23,-212.22 441.59,-199.63 463.23,-190.03"/>
<polygon fill="#63b8ff" stroke="#63b8ff" points="464.44,-193.32 472.16,-186.07 461.6,-186.92 464.44,-193.32"/>
</a>
</g>
</g>
<!-- Node18&#45;&gt;Node8 -->
<g id="edge22_Node000018_Node000008" class="edge">
<title>Node18&#45;&gt;Node8</title>
<g id="a_edge22_Node000018_Node000008"><a xlink:title=" ">
<path fill="none" stroke="#63b8ff" d="M209.35,-220.82C207.5,-195.5 202.11,-122 199.48,-86.09"/>
<polygon fill="#63b8ff" stroke="#63b8ff" points="202.98,-85.95 198.76,-76.23 196,-86.46 202.98,-85.95"/>
</a>
</g>
</g>
<!-- Node19 -->
<g id="Node000019" class="node">
<title>Node19</title>
<g id="a_Node000019"><a xlink:title=" ">
<polygon fill="#e0e0e0" stroke="#999999" points="284,-185 226,-185 226,-165.75 284,-165.75 284,-185"/>
<text text-anchor="middle" x="255" y="-171.5" font-family="Helvetica,sans-Serif" font-size="10.00">exception</text>
</a>
</g>
</g>
<!-- Node18&#45;&gt;Node19 -->
<g id="edge23_Node000018_Node000019" class="edge">
<title>Node18&#45;&gt;Node19</title>
<g id="a_edge23_Node000018_Node000019"><a xlink:title=" ">
<path fill="none" stroke="#63b8ff" d="M217.43,-220.83C223.58,-213.55 232.51,-202.98 240.13,-193.98"/>
<polygon fill="#63b8ff" stroke="#63b8ff" points="242.65,-196.41 246.43,-186.52 237.3,-191.89 242.65,-196.41"/>
</a>
</g>
</g>
<!-- Node21 -->
<g id="Node000021" class="node">
<title>Node21</title>
<g id="a_Node000021"><a xlink:title=" ">
<polygon fill="#e0e0e0" stroke="#999999" points="607.75,-240.25 554.25,-240.25 554.25,-221 607.75,-221 607.75,-240.25"/>
<text text-anchor="middle" x="581" y="-226.75" font-family="Helvetica,sans-Serif" font-size="10.00">iostream</text>
</a>
</g>
</g>
<!-- Node20&#45;&gt;Node21 -->
<g id="edge25_Node000020_Node000021" class="edge">
<title>Node20&#45;&gt;Node21</title>
<g id="a_edge25_Node000020_Node000021"><a xlink:title=" ">
<path fill="none" stroke="#63b8ff" d="M560.13,-276.08C563.33,-269.26 567.89,-259.56 571.93,-250.95"/>
<polygon fill="#63b8ff" stroke="#63b8ff" points="575.06,-252.52 576.14,-241.98 568.72,-249.54 575.06,-252.52"/>
</a>
</g>
</g>
<!-- Node22&#45;&gt;Node15 -->
<g id="edge27_Node000022_Node000015" class="edge">
<title>Node22&#45;&gt;Node15</title>
<g id="a_edge27_Node000022_Node000015"><a xlink:title=" ">
<path fill="none" stroke="#63b8ff" d="M386.61,-386.34C420.6,-377.47 472.68,-363.87 510.11,-354.1"/>
<polygon fill="#63b8ff" stroke="#63b8ff" points="510.97,-357.5 519.76,-351.58 509.2,-350.72 510.97,-357.5"/>
</a>
</g>
</g>
<!-- Node22&#45;&gt;Node23 -->
<g id="edge28_Node000022_Node000023" class="edge">
<title>Node22&#45;&gt;Node23</title>
<g id="a_edge28_Node000022_Node000023"><a xlink:title=" ">
<path fill="none" stroke="#63b8ff" d="M316.73,-387.8C272.53,-378.31 196.75,-362.04 148.58,-351.7"/>
<polygon fill="#63b8ff" stroke="#63b8ff" points="149.55,-348.33 139.04,-349.65 148.08,-355.17 149.55,-348.33"/>
</a>
</g>
</g>
<!-- Node23&#45;&gt;Node8 -->
<g id="edge29_Node000023_Node000008" class="edge">
<title>Node23&#45;&gt;Node8</title>
<g id="a_edge29_Node000023_Node000008"><a xlink:title=" ">
<path fill="none" stroke="#63b8ff" d="M74.15,-331.13C55.81,-324.17 33.19,-312.75 19,-295.5 0.19,-272.62 0,-261.24 0,-231.62 0,-231.62 0,-231.62 0,-174.38 0,-101.58 104.19,-77.3 161.41,-69.46"/>
<polygon fill="#63b8ff" stroke="#63b8ff" points="161.53,-72.97 171.02,-68.25 160.66,-66.03 161.53,-72.97"/>
</a>
</g>
</g>
<!-- Node23&#45;&gt;Node14 -->
<g id="edge30_Node000023_Node000014" class="edge">
<title>Node23&#45;&gt;Node14</title>
<g id="a_edge30_Node000023_Node000014"><a xlink:title=" ">
<path fill="none" stroke="#63b8ff" d="M104.99,-331.33C105.73,-324.74 106.78,-315.46 107.72,-307.07"/>
<polygon fill="#63b8ff" stroke="#63b8ff" points="111.18,-307.69 108.82,-297.36 104.22,-306.91 111.18,-307.69"/>
</a>
</g>
</g>
<!-- Node24 -->
<g id="Node000024" class="node">
<title>Node24</title>
<g id="a_Node000024"><a xlink:title=" ">
<polygon fill="#e0e0e0" stroke="#999999" points="56.4,-295.5 27.6,-295.5 27.6,-276.25 56.4,-276.25 56.4,-295.5"/>
<text text-anchor="middle" x="42" y="-282" font-family="Helvetica,sans-Serif" font-size="10.00">bit</text>
</a>
</g>
</g>
<!-- Node23&#45;&gt;Node24 -->
<g id="edge31_Node000023_Node000024" class="edge">
<title>Node23&#45;&gt;Node24</title>
<g id="a_edge31_Node000023_Node000024"><a xlink:title=" ">
<path fill="none" stroke="#63b8ff" d="M93.48,-331.09C84.61,-323.47 71.69,-312.37 61.01,-303.2"/>
<polygon fill="#63b8ff" stroke="#63b8ff" points="63.38,-300.62 53.51,-296.76 58.82,-305.93 63.38,-300.62"/>
</a>
</g>
</g>
<!-- Node25&#45;&gt;Node4 -->
<g id="edge39_Node000025_Node000004" class="edge">
<title>Node25&#45;&gt;Node4</title>
<g id="a_edge39_Node000025_Node000004"><a xlink:title=" ">
<path fill="none" stroke="#63b8ff" d="M504.67,-552.1C494.62,-543.22 479.01,-529.2 466,-516.5 450.13,-501.01 432.73,-482.63 420.58,-469.58"/>
<polygon fill="#63b8ff" stroke="#63b8ff" points="423.49,-467.56 414.13,-462.6 418.35,-472.32 423.49,-467.56"/>
</a>
</g>
</g>
<!-- Node26 -->
<g id="Node000026" class="node">
<title>Node26</title>
<g id="a_Node000026"><a xlink:href="_f_s_descriptors_8h.html" target="_top" xlink:title=" ">
<polygon fill="white" stroke="#666666" points="530.62,-406 443.38,-406 443.38,-386.75 530.62,-386.75 530.62,-406"/>
<text text-anchor="middle" x="487" y="-392.5" font-family="Helvetica,sans-Serif" font-size="10.00">FSDescriptors.h</text>
</a>
</g>
</g>
<!-- Node25&#45;&gt;Node26 -->
<g id="edge33_Node000025_Node000026" class="edge">
<title>Node25&#45;&gt;Node26</title>
<g id="a_edge33_Node000025_Node000026"><a xlink:title=" ">
<path fill="none" stroke="#63b8ff" d="M511.31,-552.06C507.84,-543.16 502.77,-529.11 500,-516.5 492.5,-482.38 489.24,-441.77 487.89,-417.87"/>
<polygon fill="#63b8ff" stroke="#63b8ff" points="491.39,-417.77 487.4,-407.96 484.4,-418.12 491.39,-417.77"/>
</a>
</g>
</g>
<!-- Node28 -->
<g id="Node000028" class="node">
<title>Node28</title>
<g id="a_Node000028"><a xlink:href="_f_s_dir_entry_8h.html" target="_top" xlink:title=" ">
<polygon fill="white" stroke="#666666" points="335.75,-461.25 264.25,-461.25 264.25,-442 335.75,-442 335.75,-461.25"/>
<text text-anchor="middle" x="300" y="-447.75" font-family="Helvetica,sans-Serif" font-size="10.00">FSDirEntry.h</text>
</a>
</g>
</g>
<!-- Node25&#45;&gt;Node28 -->
<g id="edge40_Node000025_Node000028" class="edge">
<title>Node25&#45;&gt;Node28</title>
<g id="a_edge40_Node000025_Node000028"><a xlink:title=" ">
<path fill="none" stroke="#63b8ff" d="M497.04,-552.06C459.65,-533.19 373.21,-489.57 328.28,-466.9"/>
<polygon fill="#63b8ff" stroke="#63b8ff" points="329.92,-463.8 319.41,-462.42 326.76,-470.05 329.92,-463.8"/>
</a>
</g>
</g>
<!-- Node29 -->
<g id="Node000029" class="node">
<title>Node29</title>
<g id="a_Node000029"><a xlink:href="_d64_file_8h.html" target="_top" xlink:title=" ">
<polygon fill="white" stroke="#666666" points="670,-516.5 612,-516.5 612,-497.25 670,-497.25 670,-516.5"/>
<text text-anchor="middle" x="641" y="-503" font-family="Helvetica,sans-Serif" font-size="10.00">D64File.h</text>
</a>
</g>
</g>
<!-- Node25&#45;&gt;Node29 -->
<g id="edge44_Node000025_Node000029" class="edge">
<title>Node25&#45;&gt;Node29</title>
<g id="a_edge44_Node000025_Node000029"><a xlink:title=" ">
<path fill="none" stroke="#63b8ff" d="M536.37,-552.09C556.29,-543.68 586.24,-531.02 609,-521.4"/>
<polygon fill="#63b8ff" stroke="#63b8ff" points="610.28,-524.66 618.13,-517.54 607.55,-518.21 610.28,-524.66"/>
</a>
</g>
</g>
<!-- Node34 -->
<g id="Node000034" class="node">
<title>Node34</title>
<g id="a_Node000034"><a xlink:href="_any_collection_8h.html" target="_top" xlink:title=" ">
<polygon fill="white" stroke="#666666" points="593.5,-516.5 508.5,-516.5 508.5,-497.25 593.5,-497.25 593.5,-516.5"/>
<text text-anchor="middle" x="551" y="-503" font-family="Helvetica,sans-Serif" font-size="10.00">AnyCollection.h</text>
</a>
</g>
</g>
<!-- Node25&#45;&gt;Node34 -->
<g id="edge53_Node000025_Node000034" class="edge">
<title>Node25&#45;&gt;Node34</title>
<g id="a_edge53_Node000025_Node000034"><a xlink:title=" ">
<path fill="none" stroke="#63b8ff" d="M520.94,-552.33C525.71,-545.28 532.56,-535.15 538.52,-526.33"/>
<polygon fill="#63b8ff" stroke="#63b8ff" points="541.38,-528.36 544.08,-518.11 535.58,-524.44 541.38,-528.36"/>
</a>
</g>
</g>
<!-- Node35 -->
<g id="Node000035" class="node">
<title>Node35</title>
<g id="a_Node000035"><a xlink:href="_i_o_utils_8h.html" target="_top" xlink:title=" ">
<polygon fill="white" stroke="#666666" points="957.5,-461.25 902.5,-461.25 902.5,-442 957.5,-442 957.5,-461.25"/>
<text text-anchor="middle" x="930" y="-447.75" font-family="Helvetica,sans-Serif" font-size="10.00">IOUtils.h</text>
</a>
</g>
</g>
<!-- Node25&#45;&gt;Node35 -->
<g id="edge55_Node000025_Node000035" class="edge">
<title>Node25&#45;&gt;Node35</title>
<g id="a_edge55_Node000025_Node000035"><a xlink:title=" ">
<path fill="none" stroke="#63b8ff" d="M549.67,-552.06C626.45,-531.99 810.38,-483.9 891.01,-462.82"/>
<polygon fill="#63b8ff" stroke="#63b8ff" points="891.88,-466.21 900.67,-460.29 890.11,-459.44 891.88,-466.21"/>
</a>
</g>
</g>
<!-- Node37 -->
<g id="Node000037" class="node">
<title>Node37</title>
<g id="a_Node000037"><a xlink:title=" ">
<polygon fill="#e0e0e0" stroke="#999999" points="1280.5,-350.75 1237.5,-350.75 1237.5,-331.5 1280.5,-331.5 1280.5,-350.75"/>
<text text-anchor="middle" x="1259" y="-337.25" font-family="Helvetica,sans-Serif" font-size="10.00">vector</text>
</a>
</g>
</g>
<!-- Node25&#45;&gt;Node37 -->
<g id="edge68_Node000025_Node000037" class="edge">
<title>Node25&#45;&gt;Node37</title>
<g id="a_edge68_Node000025_Node000037"><a xlink:title=" ">
<path fill="none" stroke="#63b8ff" d="M552.17,-553.72C596.1,-544.95 671.41,-529.83 736,-516.5 969.1,-468.39 1110.07,-590.85 1260,-406 1269.83,-393.88 1268.55,-375.77 1265.4,-361.93"/>
<polygon fill="#63b8ff" stroke="#63b8ff" points="1268.85,-361.27 1262.8,-352.58 1262.11,-363.15 1268.85,-361.27"/>
</a>
</g>
</g>
<!-- Node26&#45;&gt;Node5 -->
<g id="edge38_Node000026_Node000005" class="edge">
<title>Node26&#45;&gt;Node5</title>
<g id="a_edge38_Node000026_Node000005"><a xlink:title=" ">
<path fill="none" stroke="#63b8ff" d="M474.79,-386.34C464.17,-378.49 448.56,-366.95 435.96,-357.62"/>
<polygon fill="#63b8ff" stroke="#63b8ff" points="438.37,-355.06 428.25,-351.92 434.21,-360.69 438.37,-355.06"/>
</a>
</g>
</g>
<!-- Node26&#45;&gt;Node15 -->
<g id="edge34_Node000026_Node000015" class="edge">
<title>Node26&#45;&gt;Node15</title>
<g id="a_edge34_Node000026_Node000015"><a xlink:title=" ">
<path fill="none" stroke="#63b8ff" d="M498.7,-386.34C508.78,-378.57 523.54,-367.17 535.56,-357.9"/>
<polygon fill="#63b8ff" stroke="#63b8ff" points="537.49,-360.83 543.27,-351.95 533.21,-355.29 537.49,-360.83"/>
</a>
</g>
</g>
<!-- Node27 -->
<g id="Node000027" class="node">
<title>Node27</title>
<g id="a_Node000027"><a xlink:href="_disk_types_8h.html" target="_top" xlink:title=" ">
<polygon fill="white" stroke="#666666" points="498.38,-240.25 427.62,-240.25 427.62,-221 498.38,-221 498.38,-240.25"/>
<text text-anchor="middle" x="463" y="-226.75" font-family="Helvetica,sans-Serif" font-size="10.00">DiskTypes.h</text>
</a>
</g>
</g>
<!-- Node26&#45;&gt;Node27 -->
<g id="edge35_Node000026_Node000027" class="edge">
<title>Node26&#45;&gt;Node27</title>
<g id="a_edge35_Node000026_Node000027"><a xlink:title=" ">
<path fill="none" stroke="#63b8ff" d="M485.71,-386.57C482,-361.25 471.23,-287.75 465.96,-251.84"/>
<polygon fill="#63b8ff" stroke="#63b8ff" points="469.43,-251.36 464.52,-241.97 462.5,-252.37 469.43,-251.36"/>
</a>
</g>
</g>
<!-- Node27&#45;&gt;Node6 -->
<g id="edge36_Node000027_Node000006" class="edge">
<title>Node27&#45;&gt;Node6</title>
<g id="a_edge36_Node000027_Node000006"><a xlink:title=" ">
<path fill="none" stroke="#63b8ff" d="M444.17,-220.59C426.95,-212.33 401.2,-199.98 381.29,-190.43"/>
<polygon fill="#63b8ff" stroke="#63b8ff" points="382.82,-187.28 372.29,-186.11 379.79,-193.59 382.82,-187.28"/>
</a>
</g>
</g>
<!-- Node27&#45;&gt;Node12 -->
<g id="edge37_Node000027_Node000012" class="edge">
<title>Node27&#45;&gt;Node12</title>
<g id="a_edge37_Node000027_Node000012"><a xlink:title=" ">
<path fill="none" stroke="#63b8ff" d="M468.12,-220.83C472.18,-213.86 477.99,-203.87 483.09,-195.12"/>
<polygon fill="#63b8ff" stroke="#63b8ff" points="486,-197.07 488.01,-186.67 479.95,-193.55 486,-197.07"/>
</a>
</g>
</g>
<!-- Node28&#45;&gt;Node5 -->
<g id="edge42_Node000028_Node000005" class="edge">
<title>Node28&#45;&gt;Node5</title>
<g id="a_edge42_Node000028_Node000005"><a xlink:title=" ">
<path fill="none" stroke="#63b8ff" d="M298.53,-441.76C296.84,-428.39 295.69,-402.94 308,-386.75 323.32,-366.6 349.41,-355.48 371.99,-349.38"/>
<polygon fill="#63b8ff" stroke="#63b8ff" points="372.7,-352.81 381.59,-347.05 371.05,-346.01 372.7,-352.81"/>
</a>
</g>
</g>
<!-- Node28&#45;&gt;Node6 -->
<g id="edge41_Node000028_Node000006" class="edge">
<title>Node28&#45;&gt;Node6</title>
<g id="a_edge41_Node000028_Node000006"><a xlink:title=" ">
<path fill="none" stroke="#63b8ff" d="M298.63,-441.52C296.94,-429.13 294.48,-406.25 296,-386.75 301.8,-312.41 294.78,-290.42 322,-221 325.7,-211.57 331.65,-202.12 337.28,-194.36"/>
<polygon fill="#63b8ff" stroke="#63b8ff" points="340.02,-196.53 343.35,-186.48 334.48,-192.26 340.02,-196.53"/>
</a>
</g>
</g>
<!-- Node28&#45;&gt;Node22 -->
<g id="edge43_Node000028_Node000022" class="edge">
<title>Node28&#45;&gt;Node22</title>
<g id="a_edge43_Node000028_Node000022"><a xlink:title=" ">
<path fill="none" stroke="#63b8ff" d="M308.59,-441.83C315.84,-434.4 326.45,-423.54 335.37,-414.41"/>
<polygon fill="#63b8ff" stroke="#63b8ff" points="337.69,-417.04 342.17,-407.44 332.68,-412.15 337.69,-417.04"/>
</a>
</g>
</g>
<!-- Node30 -->
<g id="Node000030" class="node">
<title>Node30</title>
<g id="a_Node000030"><a xlink:href="_any_file_8h.html" target="_top" xlink:title=" ">
<polygon fill="white" stroke="#666666" points="663.62,-461.25 606.38,-461.25 606.38,-442 663.62,-442 663.62,-461.25"/>
<text text-anchor="middle" x="635" y="-447.75" font-family="Helvetica,sans-Serif" font-size="10.00">AnyFile.h</text>
</a>
</g>
</g>
<!-- Node29&#45;&gt;Node30 -->
<g id="edge45_Node000029_Node000030" class="edge">
<title>Node29&#45;&gt;Node30</title>
<g id="a_edge45_Node000029_Node000030"><a xlink:title=" ">
<path fill="none" stroke="#63b8ff" d="M640.01,-497.08C639.27,-490.49 638.22,-481.21 637.28,-472.82"/>
<polygon fill="#63b8ff" stroke="#63b8ff" points="640.78,-472.66 636.18,-463.11 633.82,-473.44 640.78,-472.66"/>
</a>
</g>
</g>
<!-- Node30&#45;&gt;Node15 -->
<g id="edge46_Node000030_Node000015" class="edge">
<title>Node30&#45;&gt;Node15</title>
<g id="a_edge46_Node000030_Node000015"><a xlink:title=" ">
<path fill="none" stroke="#63b8ff" d="M628.54,-441.75C615.63,-424.02 586.45,-383.94 569.29,-360.38"/>
<polygon fill="#63b8ff" stroke="#63b8ff" points="572.16,-358.37 563.45,-352.35 566.5,-362.49 572.16,-358.37"/>
</a>
</g>
</g>
<!-- Node30&#45;&gt;Node22 -->
<g id="edge50_Node000030_Node000022" class="edge">
<title>Node30&#45;&gt;Node22</title>
<g id="a_edge50_Node000030_Node000022"><a xlink:title=" ">
<path fill="none" stroke="#63b8ff" d="M606.04,-445.18C557.05,-435.96 457.38,-417.2 398.5,-406.13"/>
<polygon fill="#63b8ff" stroke="#63b8ff" points="399.26,-402.71 388.78,-404.3 397.96,-409.59 399.26,-402.71"/>
</a>
</g>
</g>
<!-- Node31 -->
<g id="Node000031" class="node">
<title>Node31</title>
<g id="a_Node000031"><a xlink:href="_file_types_8h.html" target="_top" xlink:title=" ">
<polygon fill="white" stroke="#666666" points="692.12,-240.25 625.88,-240.25 625.88,-221 692.12,-221 692.12,-240.25"/>
<text text-anchor="middle" x="659" y="-226.75" font-family="Helvetica,sans-Serif" font-size="10.00">FileTypes.h</text>
</a>
</g>
</g>
<!-- Node30&#45;&gt;Node31 -->
<g id="edge47_Node000030_Node000031" class="edge">
<title>Node30&#45;&gt;Node31</title>
<g id="a_edge47_Node000030_Node000031"><a xlink:title=" ">
<path fill="none" stroke="#63b8ff" d="M635.97,-441.77C639.51,-409.51 651.75,-297.76 656.8,-251.71"/>
<polygon fill="#63b8ff" stroke="#63b8ff" points="660.27,-252.18 657.88,-241.86 653.31,-251.42 660.27,-252.18"/>
</a>
</g>
</g>
<!-- Node32 -->
<g id="Node000032" class="node">
<title>Node32</title>
<g id="a_Node000032"><a xlink:title=" ">
<polygon fill="#e0e0e0" stroke="#999999" points="714.62,-406 663.38,-406 663.38,-386.75 714.62,-386.75 714.62,-406"/>
<text text-anchor="middle" x="689" y="-392.5" font-family="Helvetica,sans-Serif" font-size="10.00">sstream</text>
</a>
</g>
</g>
<!-- Node30&#45;&gt;Node32 -->
<g id="edge51_Node000030_Node000032" class="edge">
<title>Node30&#45;&gt;Node32</title>
<g id="a_edge51_Node000030_Node000032"><a xlink:title=" ">
<path fill="none" stroke="#63b8ff" d="M643.92,-441.83C651.45,-434.4 662.47,-423.54 671.73,-414.41"/>
<polygon fill="#63b8ff" stroke="#63b8ff" points="674.15,-416.94 678.81,-407.42 669.23,-411.95 674.15,-416.94"/>
</a>
</g>
</g>
<!-- Node33 -->
<g id="Node000033" class="node">
<title>Node33</title>
<g id="a_Node000033"><a xlink:title=" ">
<polygon fill="#e0e0e0" stroke="#999999" points="781.5,-406 732.5,-406 732.5,-386.75 781.5,-386.75 781.5,-406"/>
<text text-anchor="middle" x="757" y="-392.5" font-family="Helvetica,sans-Serif" font-size="10.00">fstream</text>
</a>
</g>
</g>
<!-- Node30&#45;&gt;Node33 -->
<g id="edge52_Node000030_Node000033" class="edge">
<title>Node30&#45;&gt;Node33</title>
<g id="a_edge52_Node000030_Node000033"><a xlink:title=" ">
<path fill="none" stroke="#63b8ff" d="M655.7,-441.59C674.89,-433.22 703.71,-420.63 725.72,-411.03"/>
<polygon fill="#63b8ff" stroke="#63b8ff" points="727.05,-414.27 734.82,-407.06 724.25,-407.85 727.05,-414.27"/>
</a>
</g>
</g>
<!-- Node31&#45;&gt;Node6 -->
<g id="edge48_Node000031_Node000006" class="edge">
<title>Node31&#45;&gt;Node6</title>
<g id="a_edge48_Node000031_Node000006"><a xlink:title=" ">
<path fill="none" stroke="#63b8ff" d="M625.55,-222.64C622.66,-222.07 619.78,-221.52 617,-221 537.44,-206.14 444.01,-190.92 392.05,-182.66"/>
<polygon fill="#63b8ff" stroke="#63b8ff" points="392.61,-179.21 382.18,-181.1 391.51,-186.12 392.61,-179.21"/>
</a>
</g>
</g>
<!-- Node31&#45;&gt;Node12 -->
<g id="edge49_Node000031_Node000012" class="edge">
<title>Node31&#45;&gt;Node12</title>
<g id="a_edge49_Node000031_Node000012"><a xlink:title=" ">
<path fill="none" stroke="#63b8ff" d="M631.01,-220.59C603.99,-211.87 562.84,-198.59 532.69,-188.86"/>
<polygon fill="#63b8ff" stroke="#63b8ff" points="534.16,-185.66 523.57,-185.92 532.01,-192.32 534.16,-185.66"/>
</a>
</g>
</g>
<!-- Node34&#45;&gt;Node30 -->
<g id="edge54_Node000034_Node000030" class="edge">
<title>Node34&#45;&gt;Node30</title>
<g id="a_edge54_Node000034_Node000030"><a xlink:title=" ">
<path fill="none" stroke="#63b8ff" d="M565.25,-496.84C577.8,-488.89 596.33,-477.14 611.14,-467.75"/>
<polygon fill="#63b8ff" stroke="#63b8ff" points="612.83,-470.82 619.4,-462.51 609.08,-464.91 612.83,-470.82"/>
</a>
</g>
</g>
<!-- Node35&#45;&gt;Node8 -->
<g id="edge56_Node000035_Node000008" class="edge">
<title>Node35&#45;&gt;Node8</title>
<g id="a_edge56_Node000035_Node000008"><a xlink:title=" ">
<path fill="none" stroke="#63b8ff" d="M940.27,-441.68C949.29,-433.29 962.18,-419.98 970,-406 984.46,-380.15 989,-371.74 989,-342.12 989,-342.12 989,-342.12 989,-174.38 989,-97.2 390.41,-72.19 234.67,-66.99"/>
<polygon fill="#63b8ff" stroke="#63b8ff" points="235.04,-63.5 224.93,-66.67 234.82,-70.49 235.04,-63.5"/>
</a>
</g>
</g>
<!-- Node35&#45;&gt;Node21 -->
<g id="edge64_Node000035_Node000021" class="edge">
<title>Node35&#45;&gt;Node21</title>
<g id="a_edge64_Node000035_Node000021"><a xlink:title=" ">
<path fill="none" stroke="#63b8ff" d="M906.35,-441.57C885.68,-433.3 855.14,-420.24 830,-406 740.06,-355.06 642,-280 600.88,-247.54"/>
<polygon fill="#63b8ff" stroke="#63b8ff" points="603.1,-244.84 593.1,-241.36 598.75,-250.32 603.1,-244.84"/>
</a>
</g>
</g>
<!-- Node35&#45;&gt;Node32 -->
<g id="edge65_Node000035_Node000032" class="edge">
<title>Node35&#45;&gt;Node32</title>
<g id="a_edge65_Node000035_Node000032"><a xlink:title=" ">
<path fill="none" stroke="#63b8ff" d="M902.29,-444.88C864.69,-437.03 795.17,-422.32 726.06,-406.42"/>
<polygon fill="#63b8ff" stroke="#63b8ff" points="726.98,-403.04 716.45,-404.2 725.4,-409.87 726.98,-403.04"/>
</a>
</g>
</g>
<!-- Node35&#45;&gt;Node33 -->
<g id="edge62_Node000035_Node000033" class="edge">
<title>Node35&#45;&gt;Node33</title>
<g id="a_edge62_Node000035_Node000033"><a xlink:title=" ">
<path fill="none" stroke="#63b8ff" d="M902.2,-442.07C872.47,-432.92 825.22,-418.37 792.74,-408.38"/>
<polygon fill="#63b8ff" stroke="#63b8ff" points="793.95,-405.09 783.37,-405.49 791.89,-411.78 793.95,-405.09"/>
</a>
</g>
</g>
<!-- Node36 -->
<g id="Node000036" class="node">
<title>Node36</title>
<g id="a_Node000036"><a xlink:href="_string_utils_8h.html" target="_top" xlink:title=" ">
<polygon fill="white" stroke="#666666" points="1231,-406 1161,-406 1161,-386.75 1231,-386.75 1231,-406"/>
<text text-anchor="middle" x="1196" y="-392.5" font-family="Helvetica,sans-Serif" font-size="10.00">StringUtils.h</text>
</a>
</g>
</g>
<!-- Node35&#45;&gt;Node36 -->
<g id="edge57_Node000035_Node000036" class="edge">
<title>Node35&#45;&gt;Node36</title>
<g id="a_edge57_Node000035_Node000036"><a xlink:title=" ">
<path fill="none" stroke="#63b8ff" d="M957.96,-445.03C1003.54,-435.9 1094.3,-417.73 1149.64,-406.66"/>
<polygon fill="#63b8ff" stroke="#63b8ff" points="1150.28,-410.1 1159.4,-404.7 1148.9,-403.23 1150.28,-410.1"/>
</a>
</g>
</g>
<!-- Node35&#45;&gt;Node37 -->
<g id="edge67_Node000035_Node000037" class="edge">
<title>Node35&#45;&gt;Node37</title>
<g id="a_edge67_Node000035_Node000037"><a xlink:title=" ">
<path fill="none" stroke="#63b8ff" d="M957.98,-450.34C1026.09,-449.06 1198.02,-442.25 1240,-406 1252.46,-395.24 1256.94,-376.7 1258.46,-362.36"/>
<polygon fill="#63b8ff" stroke="#63b8ff" points="1261.94,-362.85 1259.07,-352.65 1254.95,-362.41 1261.94,-362.85"/>
</a>
</g>
</g>
<!-- Node38 -->
<g id="Node000038" class="node">
<title>Node38</title>
<g id="a_Node000038"><a xlink:title=" ">
<polygon fill="#e0e0e0" stroke="#999999" points="881.5,-406 838.5,-406 838.5,-386.75 881.5,-386.75 881.5,-406"/>
<text text-anchor="middle" x="860" y="-392.5" font-family="Helvetica,sans-Serif" font-size="10.00">fcntl.h</text>
</a>
</g>
</g>
<!-- Node35&#45;&gt;Node38 -->
<g id="edge60_Node000035_Node000038" class="edge">
<title>Node35&#45;&gt;Node38</title>
<g id="a_edge60_Node000035_Node000038"><a xlink:title=" ">
<path fill="none" stroke="#63b8ff" d="M918.13,-441.59C907.91,-433.82 892.93,-422.42 880.74,-413.15"/>
<polygon fill="#63b8ff" stroke="#63b8ff" points="882.98,-410.46 872.9,-407.19 878.74,-416.03 882.98,-410.46"/>
</a>
</g>
</g>
<!-- Node39 -->
<g id="Node000039" class="node">
<title>Node39</title>
<g id="a_Node000039"><a xlink:title=" ">
<polygon fill="#e0e0e0" stroke="#999999" points="960.5,-406 899.5,-406 899.5,-386.75 960.5,-386.75 960.5,-406"/>
<text text-anchor="middle" x="930" y="-392.5" font-family="Helvetica,sans-Serif" font-size="10.00">filesystem</text>
</a>
</g>
</g>
<!-- Node35&#45;&gt;Node39 -->
<g id="edge61_Node000035_Node000039" class="edge">
<title>Node35&#45;&gt;Node39</title>
<g id="a_edge61_Node000035_Node000039"><a xlink:title=" ">
<path fill="none" stroke="#63b8ff" d="M930,-441.83C930,-435.32 930,-426.17 930,-417.87"/>
<polygon fill="#63b8ff" stroke="#63b8ff" points="933.5,-417.87 930,-407.87 926.5,-417.87 933.5,-417.87"/>
</a>
</g>
</g>
<!-- Node40 -->
<g id="Node000040" class="node">
<title>Node40</title>
<g id="a_Node000040"><a xlink:title=" ">
<polygon fill="#e0e0e0" stroke="#999999" points="1065.12,-406 1016.88,-406 1016.88,-386.75 1065.12,-386.75 1065.12,-406"/>
<text text-anchor="middle" x="1041" y="-392.5" font-family="Helvetica,sans-Serif" font-size="10.00">istream</text>
</a>
</g>
</g>
<!-- Node35&#45;&gt;Node40 -->
<g id="edge63_Node000035_Node000040" class="edge">
<title>Node35&#45;&gt;Node40</title>
<g id="a_edge63_Node000035_Node000040"><a xlink:title=" ">
<path fill="none" stroke="#63b8ff" d="M948.83,-441.59C966.05,-433.33 991.8,-420.98 1011.71,-411.43"/>
<polygon fill="#63b8ff" stroke="#63b8ff" points="1013.21,-414.59 1020.71,-407.11 1010.18,-408.28 1013.21,-414.59"/>
</a>
</g>
</g>
<!-- Node41 -->
<g id="Node000041" class="node">
<title>Node41</title>
<g id="a_Node000041"><a xlink:title=" ">
<polygon fill="#e0e0e0" stroke="#999999" points="1142.75,-406 1083.25,-406 1083.25,-386.75 1142.75,-386.75 1142.75,-406"/>
<text text-anchor="middle" x="1113" y="-392.5" font-family="Helvetica,sans-Serif" font-size="10.00">sys/stat.h</text>
</a>
</g>
</g>
<!-- Node35&#45;&gt;Node41 -->
<g id="edge66_Node000035_Node000041" class="edge">
<title>Node35&#45;&gt;Node41</title>
<g id="a_edge66_Node000035_Node000041"><a xlink:title=" ">
<path fill="none" stroke="#63b8ff" d="M957.79,-442.54C988.2,-433.69 1037.24,-419.42 1072.05,-409.29"/>
<polygon fill="#63b8ff" stroke="#63b8ff" points="1072.73,-412.74 1081.36,-406.58 1070.78,-406.02 1072.73,-412.74"/>
</a>
</g>
</g>
<!-- Node36&#45;&gt;Node8 -->
<g id="edge58_Node000036_Node000008" class="edge">
<title>Node36&#45;&gt;Node8</title>
<g id="a_edge58_Node000036_Node000008"><a xlink:title=" ">
<path fill="none" stroke="#63b8ff" d="M1182.13,-386.48C1158.27,-369.98 1112,-332.14 1112,-286.88 1112,-286.88 1112,-286.88 1112,-174.38 1112,-118.23 1056.76,-126.7 1003,-110.5 856.34,-66.3 372.03,-65.06 234.63,-65.63"/>
<polygon fill="#63b8ff" stroke="#63b8ff" points="235.02,-62.13 225.03,-65.68 235.05,-69.13 235.02,-62.13"/>
</a>
</g>
</g>
<!-- Node36&#45;&gt;Node37 -->
<g id="edge59_Node000036_Node000037" class="edge">
<title>Node36&#45;&gt;Node37</title>
<g id="a_edge59_Node000036_Node000037"><a xlink:title=" ">
<path fill="none" stroke="#63b8ff" d="M1206.69,-386.34C1215.7,-378.72 1228.83,-367.62 1239.68,-358.45"/>
<polygon fill="#63b8ff" stroke="#63b8ff" points="1241.94,-361.13 1247.31,-352 1237.42,-355.78 1241.94,-361.13"/>
</a>
</g>
</g>
</g>
</svg>
