<?xml version="1.0" encoding="UTF-8" standalone="no"?>
<!DOCTYPE svg PUBLIC "-//W3C//DTD SVG 1.1//EN"
 "http://www.w3.org/Graphics/SVG/1.1/DTD/svg11.dtd">
<!-- Generated by graphviz version 10.0.1 (20240210.2158)
 -->
<!-- Title: /Users/hoff/Retro/virtualc64/Emulator/FileSystems/FSDescriptors.h Pages: 1 -->
<svg width="407pt" height="425pt"
 viewBox="0.00 0.00 407.38 425.25" xmlns="http://www.w3.org/2000/svg" xmlns:xlink="http://www.w3.org/1999/xlink">
<g id="graph0" class="graph" transform="scale(1 1) rotate(0) translate(4 421.25)">
<title>/Users/hoff/Retro/virtualc64/Emulator/FileSystems/FSDescriptors.h</title>
<!-- Node1 -->
<g id="Node000001" class="node">
<title>Node1</title>
<g id="a_Node000001"><a xlink:title=" ">
<polygon fill="#999999" stroke="#666666" points="211.62,-417.25 21.62,-417.25 21.62,-386.75 211.62,-386.75 211.62,-417.25"/>
<text text-anchor="start" x="29.62" y="-403.75" font-family="Helvetica,sans-Serif" font-size="10.00">/Users/hoff/Retro/virtualc64</text>
<text text-anchor="middle" x="116.62" y="-392.5" font-family="Helvetica,sans-Serif" font-size="10.00">/Emulator/FileSystems/FSDescriptors.h</text>
</a>
</g>
</g>
<!-- Node2 -->
<g id="Node000002" class="node">
<title>Node2</title>
<g id="a_Node000002"><a xlink:href="_core_object_8h.html" target="_top" xlink:title=" ">
<polygon fill="white" stroke="#666666" points="264.5,-350.75 190.75,-350.75 190.75,-331.5 264.5,-331.5 264.5,-350.75"/>
<text text-anchor="middle" x="227.62" y="-337.25" font-family="Helvetica,sans-Serif" font-size="10.00">CoreObject.h</text>
</a>
</g>
</g>
<!-- Node1&#45;&gt;Node2 -->
<g id="edge1_Node000001_Node000002" class="edge">
<title>Node1&#45;&gt;Node2</title>
<g id="a_edge1_Node000001_Node000002"><a xlink:title=" ">
<path fill="none" stroke="#63b8ff" d="M144.35,-386.3C161.58,-377.16 183.62,-365.47 200.7,-356.41"/>
<polygon fill="#63b8ff" stroke="#63b8ff" points="202.07,-359.64 209.27,-351.86 198.79,-353.46 202.07,-359.64"/>
</a>
</g>
</g>
<!-- Node16 -->
<g id="Node000016" class="node">
<title>Node16</title>
<g id="a_Node000016"><a xlink:href="_disk_types_8h.html" target="_top" xlink:title=" ">
<polygon fill="white" stroke="#666666" points="152,-240.25 81.25,-240.25 81.25,-221 152,-221 152,-240.25"/>
<text text-anchor="middle" x="116.62" y="-226.75" font-family="Helvetica,sans-Serif" font-size="10.00">DiskTypes.h</text>
</a>
</g>
</g>
<!-- Node1&#45;&gt;Node16 -->
<g id="edge16_Node000001_Node000016" class="edge">
<title>Node1&#45;&gt;Node16</title>
<g id="a_edge16_Node000001_Node000016"><a xlink:title=" ">
<path fill="none" stroke="#63b8ff" d="M116.62,-386.27C116.62,-356.01 116.62,-286.8 116.62,-252.16"/>
<polygon fill="#63b8ff" stroke="#63b8ff" points="120.13,-252.25 116.63,-242.25 113.13,-252.25 120.13,-252.25"/>
</a>
</g>
</g>
<!-- Node17 -->
<g id="Node000017" class="node">
<title>Node17</title>
<g id="a_Node000017"><a xlink:href="_f_s_types_8h.html" target="_top" xlink:title=" ">
<polygon fill="white" stroke="#666666" points="63.25,-240.25 0,-240.25 0,-221 63.25,-221 63.25,-240.25"/>
<text text-anchor="middle" x="31.62" y="-226.75" font-family="Helvetica,sans-Serif" font-size="10.00">FSTypes.h</text>
</a>
</g>
</g>
<!-- Node1&#45;&gt;Node17 -->
<g id="edge19_Node000001_Node000017" class="edge">
<title>Node1&#45;&gt;Node17</title>
<g id="a_edge19_Node000001_Node000017"><a xlink:title=" ">
<path fill="none" stroke="#63b8ff" d="M109.23,-386.27C93.84,-355.61 58.39,-284.97 41.25,-250.81"/>
<polygon fill="#63b8ff" stroke="#63b8ff" points="44.49,-249.46 36.88,-242.09 38.23,-252.6 44.49,-249.46"/>
</a>
</g>
</g>
<!-- Node3 -->
<g id="Node000003" class="node">
<title>Node3</title>
<g id="a_Node000003"><a xlink:href="_error_8h.html" target="_top" xlink:title=" ">
<polygon fill="white" stroke="#666666" points="249.88,-295.5 205.38,-295.5 205.38,-276.25 249.88,-276.25 249.88,-295.5"/>
<text text-anchor="middle" x="227.62" y="-282" font-family="Helvetica,sans-Serif" font-size="10.00">Error.h</text>
</a>
</g>
</g>
<!-- Node2&#45;&gt;Node3 -->
<g id="edge2_Node000002_Node000003" class="edge">
<title>Node2&#45;&gt;Node3</title>
<g id="a_edge2_Node000002_Node000003"><a xlink:title=" ">
<path fill="none" stroke="#63b8ff" d="M227.62,-331.33C227.62,-324.82 227.62,-315.67 227.62,-307.37"/>
<polygon fill="#63b8ff" stroke="#63b8ff" points="231.13,-307.37 227.63,-297.37 224.13,-307.37 231.13,-307.37"/>
</a>
</g>
</g>
<!-- Node14 -->
<g id="Node000014" class="node">
<title>Node14</title>
<g id="a_Node000014"><a xlink:href="_inspectable_8h.html" target="_top" xlink:title=" ">
<polygon fill="white" stroke="#666666" points="386.88,-295.5 312.38,-295.5 312.38,-276.25 386.88,-276.25 386.88,-295.5"/>
<text text-anchor="middle" x="349.62" y="-282" font-family="Helvetica,sans-Serif" font-size="10.00">Inspectable.h</text>
</a>
</g>
</g>
<!-- Node2&#45;&gt;Node14 -->
<g id="edge14_Node000002_Node000014" class="edge">
<title>Node2&#45;&gt;Node14</title>
<g id="a_edge14_Node000002_Node000014"><a xlink:title=" ">
<path fill="none" stroke="#63b8ff" d="M248.32,-331.09C267.51,-322.72 296.34,-310.13 318.34,-300.53"/>
<polygon fill="#63b8ff" stroke="#63b8ff" points="319.68,-303.77 327.44,-296.56 316.88,-297.35 319.68,-303.77"/>
</a>
</g>
</g>
<!-- Node4 -->
<g id="Node000004" class="node">
<title>Node4</title>
<g id="a_Node000004"><a xlink:href="_error_types_8h.html" target="_top" xlink:title=" ">
<polygon fill="white" stroke="#666666" points="241.38,-240.25 169.88,-240.25 169.88,-221 241.38,-221 241.38,-240.25"/>
<text text-anchor="middle" x="205.62" y="-226.75" font-family="Helvetica,sans-Serif" font-size="10.00">ErrorTypes.h</text>
</a>
</g>
</g>
<!-- Node3&#45;&gt;Node4 -->
<g id="edge3_Node000003_Node000004" class="edge">
<title>Node3&#45;&gt;Node4</title>
<g id="a_edge3_Node000003_Node000004"><a xlink:title=" ">
<path fill="none" stroke="#63b8ff" d="M223.99,-276.08C221.21,-269.34 217.25,-259.77 213.73,-251.24"/>
<polygon fill="#63b8ff" stroke="#63b8ff" points="216.97,-249.91 209.91,-242.01 210.5,-252.59 216.97,-249.91"/>
</a>
</g>
</g>
<!-- Node12 -->
<g id="Node000012" class="node">
<title>Node12</title>
<g id="a_Node000012"><a xlink:href="_exception_8h.html" target="_top" xlink:title=" ">
<polygon fill="white" stroke="#666666" points="327.5,-240.25 259.75,-240.25 259.75,-221 327.5,-221 327.5,-240.25"/>
<text text-anchor="middle" x="293.62" y="-226.75" font-family="Helvetica,sans-Serif" font-size="10.00">Exception.h</text>
</a>
</g>
</g>
<!-- Node3&#45;&gt;Node12 -->
<g id="edge11_Node000003_Node000012" class="edge">
<title>Node3&#45;&gt;Node12</title>
<g id="a_edge11_Node000003_Node000012"><a xlink:title=" ">
<path fill="none" stroke="#63b8ff" d="M238.82,-275.84C248.36,-268.15 262.3,-256.9 273.73,-247.68"/>
<polygon fill="#63b8ff" stroke="#63b8ff" points="275.83,-250.48 281.42,-241.48 271.44,-245.03 275.83,-250.48"/>
</a>
</g>
</g>
<!-- Node5 -->
<g id="Node000005" class="node">
<title>Node5</title>
<g id="a_Node000005"><a xlink:href="_aliases_8h.html" target="_top" xlink:title=" ">
<polygon fill="white" stroke="#666666" points="216.88,-185 160.38,-185 160.38,-165.75 216.88,-165.75 216.88,-185"/>
<text text-anchor="middle" x="188.62" y="-171.5" font-family="Helvetica,sans-Serif" font-size="10.00">Aliases.h</text>
</a>
</g>
</g>
<!-- Node4&#45;&gt;Node5 -->
<g id="edge4_Node000004_Node000005" class="edge">
<title>Node4&#45;&gt;Node5</title>
<g id="a_edge4_Node000004_Node000005"><a xlink:title=" ">
<path fill="none" stroke="#63b8ff" d="M202.82,-220.83C200.69,-214.17 197.68,-204.74 194.98,-196.28"/>
<polygon fill="#63b8ff" stroke="#63b8ff" points="198.33,-195.26 191.95,-186.8 191.66,-197.39 198.33,-195.26"/>
</a>
</g>
</g>
<!-- Node11 -->
<g id="Node000011" class="node">
<title>Node11</title>
<g id="a_Node000011"><a xlink:href="_reflection_8h.html" target="_top" xlink:title=" ">
<polygon fill="white" stroke="#666666" points="141.88,-185 73.38,-185 73.38,-165.75 141.88,-165.75 141.88,-185"/>
<text text-anchor="middle" x="107.62" y="-171.5" font-family="Helvetica,sans-Serif" font-size="10.00">Reflection.h</text>
</a>
</g>
</g>
<!-- Node4&#45;&gt;Node11 -->
<g id="edge10_Node000004_Node000011" class="edge">
<title>Node4&#45;&gt;Node11</title>
<g id="a_edge10_Node000004_Node000011"><a xlink:title=" ">
<path fill="none" stroke="#63b8ff" d="M189,-220.59C173.94,-212.41 151.48,-200.21 133.97,-190.69"/>
<polygon fill="#63b8ff" stroke="#63b8ff" points="136.12,-187.87 125.66,-186.18 132.78,-194.02 136.12,-187.87"/>
</a>
</g>
</g>
<!-- Node6 -->
<g id="Node000006" class="node">
<title>Node6</title>
<g id="a_Node000006"><a xlink:href="_macros_8h.html" target="_top" xlink:title=" ">
<polygon fill="white" stroke="#666666" points="216.88,-129.75 160.38,-129.75 160.38,-110.5 216.88,-110.5 216.88,-129.75"/>
<text text-anchor="middle" x="188.62" y="-116.25" font-family="Helvetica,sans-Serif" font-size="10.00">Macros.h</text>
</a>
</g>
</g>
<!-- Node5&#45;&gt;Node6 -->
<g id="edge5_Node000005_Node000006" class="edge">
<title>Node5&#45;&gt;Node6</title>
<g id="a_edge5_Node000005_Node000006"><a xlink:title=" ">
<path fill="none" stroke="#63b8ff" d="M188.62,-165.58C188.62,-159.07 188.62,-149.92 188.62,-141.62"/>
<polygon fill="#63b8ff" stroke="#63b8ff" points="192.13,-141.62 188.63,-131.62 185.13,-141.62 192.13,-141.62"/>
</a>
</g>
</g>
<!-- Node7 -->
<g id="Node000007" class="node">
<title>Node7</title>
<g id="a_Node000007"><a xlink:href="_types_8h.html" target="_top" xlink:title=" ">
<polygon fill="white" stroke="#666666" points="241.88,-74.5 191.38,-74.5 191.38,-55.25 241.88,-55.25 241.88,-74.5"/>
<text text-anchor="middle" x="216.62" y="-61" font-family="Helvetica,sans-Serif" font-size="10.00">Types.h</text>
</a>
</g>
</g>
<!-- Node6&#45;&gt;Node7 -->
<g id="edge6_Node000006_Node000007" class="edge">
<title>Node6&#45;&gt;Node7</title>
<g id="a_edge6_Node000006_Node000007"><a xlink:title=" ">
<path fill="none" stroke="#63b8ff" d="M193.25,-110.33C196.87,-103.44 202.05,-93.59 206.62,-84.91"/>
<polygon fill="#63b8ff" stroke="#63b8ff" points="209.64,-86.68 211.2,-76.2 203.44,-83.42 209.64,-86.68"/>
</a>
</g>
</g>
<!-- Node8 -->
<g id="Node000008" class="node">
<title>Node8</title>
<g id="a_Node000008"><a xlink:title=" ">
<polygon fill="#e0e0e0" stroke="#999999" points="174.12,-19.25 107.12,-19.25 107.12,0 174.12,0 174.12,-19.25"/>
<text text-anchor="middle" x="140.62" y="-5.75" font-family="Helvetica,sans-Serif" font-size="10.00">sys/types.h</text>
</a>
</g>
</g>
<!-- Node7&#45;&gt;Node8 -->
<g id="edge7_Node000007_Node000008" class="edge">
<title>Node7&#45;&gt;Node8</title>
<g id="a_edge7_Node000007_Node000008"><a xlink:title=" ">
<path fill="none" stroke="#63b8ff" d="M203.73,-54.84C192.6,-47.04 176.25,-35.59 162.99,-26.29"/>
<polygon fill="#63b8ff" stroke="#63b8ff" points="165.02,-23.44 154.82,-20.57 161,-29.18 165.02,-23.44"/>
</a>
</g>
</g>
<!-- Node9 -->
<g id="Node000009" class="node">
<title>Node9</title>
<g id="a_Node000009"><a xlink:title=" ">
<polygon fill="#e0e0e0" stroke="#999999" points="240.75,-19.25 192.5,-19.25 192.5,0 240.75,0 240.75,-19.25"/>
<text text-anchor="middle" x="216.62" y="-5.75" font-family="Helvetica,sans-Serif" font-size="10.00">stdint.h</text>
</a>
</g>
</g>
<!-- Node7&#45;&gt;Node9 -->
<g id="edge8_Node000007_Node000009" class="edge">
<title>Node7&#45;&gt;Node9</title>
<g id="a_edge8_Node000007_Node000009"><a xlink:title=" ">
<path fill="none" stroke="#63b8ff" d="M216.62,-55.08C216.62,-48.57 216.62,-39.42 216.62,-31.12"/>
<polygon fill="#63b8ff" stroke="#63b8ff" points="220.13,-31.12 216.63,-21.12 213.13,-31.12 220.13,-31.12"/>
</a>
</g>
</g>
<!-- Node10 -->
<g id="Node000010" class="node">
<title>Node10</title>
<g id="a_Node000010"><a xlink:title=" ">
<polygon fill="#e0e0e0" stroke="#999999" points="314.5,-19.25 258.75,-19.25 258.75,0 314.5,0 314.5,-19.25"/>
<text text-anchor="middle" x="286.62" y="-5.75" font-family="Helvetica,sans-Serif" font-size="10.00">stdbool.h</text>
</a>
</g>
</g>
<!-- Node7&#45;&gt;Node10 -->
<g id="edge9_Node000007_Node000010" class="edge">
<title>Node7&#45;&gt;Node10</title>
<g id="a_edge9_Node000007_Node000010"><a xlink:title=" ">
<path fill="none" stroke="#63b8ff" d="M228.5,-54.84C238.72,-47.07 253.7,-35.67 265.89,-26.4"/>
<polygon fill="#63b8ff" stroke="#63b8ff" points="267.88,-29.28 273.72,-20.44 263.64,-23.71 267.88,-29.28"/>
</a>
</g>
</g>
<!-- Node12&#45;&gt;Node7 -->
<g id="edge12_Node000012_Node000007" class="edge">
<title>Node12&#45;&gt;Node7</title>
<g id="a_edge12_Node000012_Node000007"><a xlink:title=" ">
<path fill="none" stroke="#63b8ff" d="M286.82,-220.75C280.31,-212 270.49,-198.06 263.62,-185 246.01,-151.48 231.03,-109.84 222.98,-85.71"/>
<polygon fill="#63b8ff" stroke="#63b8ff" points="226.32,-84.69 219.89,-76.27 219.67,-86.86 226.32,-84.69"/>
</a>
</g>
</g>
<!-- Node13 -->
<g id="Node000013" class="node">
<title>Node13</title>
<g id="a_Node000013"><a xlink:title=" ">
<polygon fill="#e0e0e0" stroke="#999999" points="330.62,-185 272.62,-185 272.62,-165.75 330.62,-165.75 330.62,-185"/>
<text text-anchor="middle" x="301.62" y="-171.5" font-family="Helvetica,sans-Serif" font-size="10.00">exception</text>
</a>
</g>
</g>
<!-- Node12&#45;&gt;Node13 -->
<g id="edge13_Node000012_Node000013" class="edge">
<title>Node12&#45;&gt;Node13</title>
<g id="a_edge13_Node000012_Node000013"><a xlink:title=" ">
<path fill="none" stroke="#63b8ff" d="M294.95,-220.83C295.94,-214.24 297.33,-204.96 298.59,-196.57"/>
<polygon fill="#63b8ff" stroke="#63b8ff" points="302.03,-197.26 300.05,-186.86 295.1,-196.22 302.03,-197.26"/>
</a>
</g>
</g>
<!-- Node15 -->
<g id="Node000015" class="node">
<title>Node15</title>
<g id="a_Node000015"><a xlink:title=" ">
<polygon fill="#e0e0e0" stroke="#999999" points="399.38,-240.25 345.88,-240.25 345.88,-221 399.38,-221 399.38,-240.25"/>
<text text-anchor="middle" x="372.62" y="-226.75" font-family="Helvetica,sans-Serif" font-size="10.00">iostream</text>
</a>
</g>
</g>
<!-- Node14&#45;&gt;Node15 -->
<g id="edge15_Node000014_Node000015" class="edge">
<title>Node14&#45;&gt;Node15</title>
<g id="a_edge15_Node000014_Node000015"><a xlink:title=" ">
<path fill="none" stroke="#63b8ff" d="M353.42,-276.08C356.37,-269.26 360.56,-259.56 364.28,-250.95"/>
<polygon fill="#63b8ff" stroke="#63b8ff" points="367.39,-252.57 368.14,-242 360.97,-249.79 367.39,-252.57"/>
</a>
</g>
</g>
<!-- Node16&#45;&gt;Node5 -->
<g id="edge17_Node000016_Node000005" class="edge">
<title>Node16&#45;&gt;Node5</title>
<g id="a_edge17_Node000016_Node000005"><a xlink:title=" ">
<path fill="none" stroke="#63b8ff" d="M128.84,-220.59C139.45,-212.74 155.06,-201.2 167.67,-191.87"/>
<polygon fill="#63b8ff" stroke="#63b8ff" points="169.42,-194.94 175.37,-186.17 165.25,-189.31 169.42,-194.94"/>
</a>
</g>
</g>
<!-- Node16&#45;&gt;Node11 -->
<g id="edge18_Node000016_Node000011" class="edge">
<title>Node16&#45;&gt;Node11</title>
<g id="a_edge18_Node000016_Node000011"><a xlink:title=" ">
<path fill="none" stroke="#63b8ff" d="M115.14,-220.83C114.03,-214.24 112.46,-204.96 111.04,-196.57"/>
<polygon fill="#63b8ff" stroke="#63b8ff" points="114.51,-196.13 109.4,-186.85 107.61,-197.3 114.51,-196.13"/>
</a>
</g>
</g>
<!-- Node17&#45;&gt;Node5 -->
<g id="edge20_Node000017_Node000005" class="edge">
<title>Node17&#45;&gt;Node5</title>
<g id="a_edge20_Node000017_Node000005"><a xlink:title=" ">
<path fill="none" stroke="#63b8ff" d="M58.26,-220.59C83.75,-211.95 122.44,-198.82 151.05,-189.12"/>
<polygon fill="#63b8ff" stroke="#63b8ff" points="152.08,-192.47 160.43,-185.94 149.83,-185.84 152.08,-192.47"/>
</a>
</g>
</g>
<!-- Node17&#45;&gt;Node11 -->
<g id="edge21_Node000017_Node000011" class="edge">
<title>Node17&#45;&gt;Node11</title>
<g id="a_edge21_Node000017_Node000011"><a xlink:title=" ">
<path fill="none" stroke="#63b8ff" d="M44.52,-220.59C55.65,-212.79 72,-201.34 85.26,-192.04"/>
<polygon fill="#63b8ff" stroke="#63b8ff" points="87.25,-194.93 93.43,-186.32 83.23,-189.19 87.25,-194.93"/>
</a>
</g>
</g>
</g>
</svg>
