<?xml version="1.0" encoding="UTF-8" standalone="no"?>
<!DOCTYPE svg PUBLIC "-//W3C//DTD SVG 1.1//EN"
 "http://www.w3.org/Graphics/SVG/1.1/DTD/svg11.dtd">
<!-- Generated by graphviz version 10.0.1 (20240210.2158)
 -->
<!-- Title: /Users/hoff/Retro/virtualc64/Emulator/FileSystems/FSDirEntry.h Pages: 1 -->
<svg width="432pt" height="481pt"
 viewBox="0.00 0.00 431.52 480.50" xmlns="http://www.w3.org/2000/svg" xmlns:xlink="http://www.w3.org/1999/xlink">
<g id="graph0" class="graph" transform="scale(1 1) rotate(0) translate(4 476.5)">
<title>/Users/hoff/Retro/virtualc64/Emulator/FileSystems/FSDirEntry.h</title>
<!-- Node1 -->
<g id="Node000001" class="node">
<title>Node1</title>
<g id="a_Node000001"><a xlink:title=" ">
<polygon fill="#999999" stroke="#666666" points="423.52,-472.5 249.27,-472.5 249.27,-442 423.52,-442 423.52,-472.5"/>
<text text-anchor="start" x="257.27" y="-459" font-family="Helvetica,sans-Serif" font-size="10.00">/Users/hoff/Retro/virtualc64</text>
<text text-anchor="middle" x="336.4" y="-447.75" font-family="Helvetica,sans-Serif" font-size="10.00">/Emulator/FileSystems/FSDirEntry.h</text>
</a>
</g>
</g>
<!-- Node2 -->
<g id="Node000002" class="node">
<title>Node2</title>
<g id="a_Node000002"><a xlink:href="_aliases_8h.html" target="_top" xlink:title=" ">
<polygon fill="white" stroke="#666666" points="363.65,-185 307.15,-185 307.15,-165.75 363.65,-165.75 363.65,-185"/>
<text text-anchor="middle" x="335.4" y="-171.5" font-family="Helvetica,sans-Serif" font-size="10.00">Aliases.h</text>
</a>
</g>
</g>
<!-- Node1&#45;&gt;Node2 -->
<g id="edge1_Node000001_Node000002" class="edge">
<title>Node1&#45;&gt;Node2</title>
<g id="a_edge1_Node000001_Node000002"><a xlink:title=" ">
<path fill="none" stroke="#63b8ff" d="M350.01,-441.67C367.72,-421.14 396.4,-381.75 396.4,-342.12 396.4,-342.12 396.4,-342.12 396.4,-284.88 396.4,-255.26 392.17,-246.67 377.4,-221 371.4,-210.57 362.5,-200.65 354.44,-192.82"/>
<polygon fill="#63b8ff" stroke="#63b8ff" points="357.04,-190.45 347.31,-186.24 352.29,-195.6 357.04,-190.45"/>
</a>
</g>
</g>
<!-- Node8 -->
<g id="Node000008" class="node">
<title>Node8</title>
<g id="a_Node000008"><a xlink:href="_f_s_types_8h.html" target="_top" xlink:title=" ">
<polygon fill="white" stroke="#666666" points="368.02,-240.25 304.77,-240.25 304.77,-221 368.02,-221 368.02,-240.25"/>
<text text-anchor="middle" x="336.4" y="-226.75" font-family="Helvetica,sans-Serif" font-size="10.00">FSTypes.h</text>
</a>
</g>
</g>
<!-- Node1&#45;&gt;Node8 -->
<g id="edge7_Node000001_Node000008" class="edge">
<title>Node1&#45;&gt;Node8</title>
<g id="a_edge7_Node000001_Node000008"><a xlink:title=" ">
<path fill="none" stroke="#63b8ff" d="M336.4,-441.51C336.4,-402.42 336.4,-296.08 336.4,-251.6"/>
<polygon fill="#63b8ff" stroke="#63b8ff" points="339.9,-251.88 336.4,-241.88 332.9,-251.88 339.9,-251.88"/>
</a>
</g>
</g>
<!-- Node10 -->
<g id="Node000010" class="node">
<title>Node10</title>
<g id="a_Node000010"><a xlink:href="_p_e_t_name_8h.html" target="_top" xlink:title=" ">
<polygon fill="white" stroke="#666666" points="168.4,-406 98.4,-406 98.4,-386.75 168.4,-386.75 168.4,-406"/>
<text text-anchor="middle" x="133.4" y="-392.5" font-family="Helvetica,sans-Serif" font-size="10.00">PETName.h</text>
</a>
</g>
</g>
<!-- Node1&#45;&gt;Node10 -->
<g id="edge10_Node000001_Node000010" class="edge">
<title>Node1&#45;&gt;Node10</title>
<g id="a_edge10_Node000001_Node000010"><a xlink:title=" ">
<path fill="none" stroke="#63b8ff" d="M285.7,-441.55C251.77,-431.7 207.63,-418.9 175.61,-409.62"/>
<polygon fill="#63b8ff" stroke="#63b8ff" points="176.86,-406.34 166.28,-406.91 174.91,-413.06 176.86,-406.34"/>
</a>
</g>
</g>
<!-- Node3 -->
<g id="Node000003" class="node">
<title>Node3</title>
<g id="a_Node000003"><a xlink:href="_macros_8h.html" target="_top" xlink:title=" ">
<polygon fill="white" stroke="#666666" points="315.65,-129.75 259.15,-129.75 259.15,-110.5 315.65,-110.5 315.65,-129.75"/>
<text text-anchor="middle" x="287.4" y="-116.25" font-family="Helvetica,sans-Serif" font-size="10.00">Macros.h</text>
</a>
</g>
</g>
<!-- Node2&#45;&gt;Node3 -->
<g id="edge2_Node000002_Node000003" class="edge">
<title>Node2&#45;&gt;Node3</title>
<g id="a_edge2_Node000002_Node000003"><a xlink:title=" ">
<path fill="none" stroke="#63b8ff" d="M327.47,-165.58C320.84,-158.23 311.18,-147.51 303.01,-138.44"/>
<polygon fill="#63b8ff" stroke="#63b8ff" points="305.81,-136.32 296.51,-131.23 300.61,-141 305.81,-136.32"/>
</a>
</g>
</g>
<!-- Node4 -->
<g id="Node000004" class="node">
<title>Node4</title>
<g id="a_Node000004"><a xlink:href="_types_8h.html" target="_top" xlink:title=" ">
<polygon fill="white" stroke="#666666" points="177.65,-74.5 127.15,-74.5 127.15,-55.25 177.65,-55.25 177.65,-74.5"/>
<text text-anchor="middle" x="152.4" y="-61" font-family="Helvetica,sans-Serif" font-size="10.00">Types.h</text>
</a>
</g>
</g>
<!-- Node3&#45;&gt;Node4 -->
<g id="edge3_Node000003_Node000004" class="edge">
<title>Node3&#45;&gt;Node4</title>
<g id="a_edge3_Node000003_Node000004"><a xlink:title=" ">
<path fill="none" stroke="#63b8ff" d="M264.5,-110.09C242.97,-101.6 210.49,-88.79 186.02,-79.14"/>
<polygon fill="#63b8ff" stroke="#63b8ff" points="187.41,-75.92 176.82,-75.51 184.84,-82.43 187.41,-75.92"/>
</a>
</g>
</g>
<!-- Node5 -->
<g id="Node000005" class="node">
<title>Node5</title>
<g id="a_Node000005"><a xlink:title=" ">
<polygon fill="#e0e0e0" stroke="#999999" points="109.9,-19.25 42.9,-19.25 42.9,0 109.9,0 109.9,-19.25"/>
<text text-anchor="middle" x="76.4" y="-5.75" font-family="Helvetica,sans-Serif" font-size="10.00">sys/types.h</text>
</a>
</g>
</g>
<!-- Node4&#45;&gt;Node5 -->
<g id="edge4_Node000004_Node000005" class="edge">
<title>Node4&#45;&gt;Node5</title>
<g id="a_edge4_Node000004_Node000005"><a xlink:title=" ">
<path fill="none" stroke="#63b8ff" d="M139.51,-54.84C128.37,-47.04 112.03,-35.59 98.76,-26.29"/>
<polygon fill="#63b8ff" stroke="#63b8ff" points="100.79,-23.44 90.6,-20.57 96.78,-29.18 100.79,-23.44"/>
</a>
</g>
</g>
<!-- Node6 -->
<g id="Node000006" class="node">
<title>Node6</title>
<g id="a_Node000006"><a xlink:title=" ">
<polygon fill="#e0e0e0" stroke="#999999" points="176.53,-19.25 128.28,-19.25 128.28,0 176.53,0 176.53,-19.25"/>
<text text-anchor="middle" x="152.4" y="-5.75" font-family="Helvetica,sans-Serif" font-size="10.00">stdint.h</text>
</a>
</g>
</g>
<!-- Node4&#45;&gt;Node6 -->
<g id="edge5_Node000004_Node000006" class="edge">
<title>Node4&#45;&gt;Node6</title>
<g id="a_edge5_Node000004_Node000006"><a xlink:title=" ">
<path fill="none" stroke="#63b8ff" d="M152.4,-55.08C152.4,-48.57 152.4,-39.42 152.4,-31.12"/>
<polygon fill="#63b8ff" stroke="#63b8ff" points="155.9,-31.12 152.4,-21.12 148.9,-31.12 155.9,-31.12"/>
</a>
</g>
</g>
<!-- Node7 -->
<g id="Node000007" class="node">
<title>Node7</title>
<g id="a_Node000007"><a xlink:title=" ">
<polygon fill="#e0e0e0" stroke="#999999" points="250.28,-19.25 194.53,-19.25 194.53,0 250.28,0 250.28,-19.25"/>
<text text-anchor="middle" x="222.4" y="-5.75" font-family="Helvetica,sans-Serif" font-size="10.00">stdbool.h</text>
</a>
</g>
</g>
<!-- Node4&#45;&gt;Node7 -->
<g id="edge6_Node000004_Node000007" class="edge">
<title>Node4&#45;&gt;Node7</title>
<g id="a_edge6_Node000004_Node000007"><a xlink:title=" ">
<path fill="none" stroke="#63b8ff" d="M164.27,-54.84C174.49,-47.07 189.47,-35.67 201.66,-26.4"/>
<polygon fill="#63b8ff" stroke="#63b8ff" points="203.66,-29.28 209.5,-20.44 199.42,-23.71 203.66,-29.28"/>
</a>
</g>
</g>
<!-- Node8&#45;&gt;Node2 -->
<g id="edge8_Node000008_Node000002" class="edge">
<title>Node8&#45;&gt;Node2</title>
<g id="a_edge8_Node000008_Node000002"><a xlink:title=" ">
<path fill="none" stroke="#63b8ff" d="M336.23,-220.83C336.11,-214.32 335.94,-205.17 335.78,-196.87"/>
<polygon fill="#63b8ff" stroke="#63b8ff" points="339.28,-196.8 335.6,-186.87 332.29,-196.94 339.28,-196.8"/>
</a>
</g>
</g>
<!-- Node9 -->
<g id="Node000009" class="node">
<title>Node9</title>
<g id="a_Node000009"><a xlink:href="_reflection_8h.html" target="_top" xlink:title=" ">
<polygon fill="white" stroke="#666666" points="286.65,-185 218.15,-185 218.15,-165.75 286.65,-165.75 286.65,-185"/>
<text text-anchor="middle" x="252.4" y="-171.5" font-family="Helvetica,sans-Serif" font-size="10.00">Reflection.h</text>
</a>
</g>
</g>
<!-- Node8&#45;&gt;Node9 -->
<g id="edge9_Node000008_Node000009" class="edge">
<title>Node8&#45;&gt;Node9</title>
<g id="a_edge9_Node000008_Node000009"><a xlink:title=" ">
<path fill="none" stroke="#63b8ff" d="M322.15,-220.59C309.6,-212.64 291.07,-200.89 276.26,-191.5"/>
<polygon fill="#63b8ff" stroke="#63b8ff" points="278.32,-188.66 268,-186.26 274.57,-194.57 278.32,-188.66"/>
</a>
</g>
</g>
<!-- Node11 -->
<g id="Node000011" class="node">
<title>Node11</title>
<g id="a_Node000011"><a xlink:href="_core_object_8h.html" target="_top" xlink:title=" ">
<polygon fill="white" stroke="#666666" points="170.28,-350.75 96.53,-350.75 96.53,-331.5 170.28,-331.5 170.28,-350.75"/>
<text text-anchor="middle" x="133.4" y="-337.25" font-family="Helvetica,sans-Serif" font-size="10.00">CoreObject.h</text>
</a>
</g>
</g>
<!-- Node10&#45;&gt;Node11 -->
<g id="edge11_Node000010_Node000011" class="edge">
<title>Node10&#45;&gt;Node11</title>
<g id="a_edge11_Node000010_Node000011"><a xlink:title=" ">
<path fill="none" stroke="#63b8ff" d="M133.4,-386.58C133.4,-380.07 133.4,-370.92 133.4,-362.62"/>
<polygon fill="#63b8ff" stroke="#63b8ff" points="136.9,-362.62 133.4,-352.62 129.9,-362.62 136.9,-362.62"/>
</a>
</g>
</g>
<!-- Node18 -->
<g id="Node000018" class="node">
<title>Node18</title>
<g id="a_Node000018"><a xlink:href="_mem_utils_8h.html" target="_top" xlink:title=" ">
<polygon fill="white" stroke="#666666" points="73.53,-185 7.28,-185 7.28,-165.75 73.53,-165.75 73.53,-185"/>
<text text-anchor="middle" x="40.4" y="-171.5" font-family="Helvetica,sans-Serif" font-size="10.00">MemUtils.h</text>
</a>
</g>
</g>
<!-- Node10&#45;&gt;Node18 -->
<g id="edge21_Node000010_Node000018" class="edge">
<title>Node10&#45;&gt;Node18</title>
<g id="a_edge21_Node000010_Node000018"><a xlink:title=" ">
<path fill="none" stroke="#63b8ff" d="M121.31,-386.26C101.43,-370.42 62.63,-335.63 48.4,-295.5 36.65,-262.38 36.96,-220.88 38.5,-196.63"/>
<polygon fill="#63b8ff" stroke="#63b8ff" points="41.97,-197.13 39.27,-186.88 34.99,-196.57 41.97,-197.13"/>
</a>
</g>
</g>
<!-- Node12 -->
<g id="Node000012" class="node">
<title>Node12</title>
<g id="a_Node000012"><a xlink:href="_error_8h.html" target="_top" xlink:title=" ">
<polygon fill="white" stroke="#666666" points="194.65,-295.5 150.15,-295.5 150.15,-276.25 194.65,-276.25 194.65,-295.5"/>
<text text-anchor="middle" x="172.4" y="-282" font-family="Helvetica,sans-Serif" font-size="10.00">Error.h</text>
</a>
</g>
</g>
<!-- Node11&#45;&gt;Node12 -->
<g id="edge12_Node000011_Node000012" class="edge">
<title>Node11&#45;&gt;Node12</title>
<g id="a_edge12_Node000011_Node000012"><a xlink:title=" ">
<path fill="none" stroke="#63b8ff" d="M139.84,-331.33C145.06,-324.21 152.59,-313.93 159.09,-305.05"/>
<polygon fill="#63b8ff" stroke="#63b8ff" points="161.84,-307.22 164.93,-297.08 156.19,-303.08 161.84,-307.22"/>
</a>
</g>
</g>
<!-- Node16 -->
<g id="Node000016" class="node">
<title>Node16</title>
<g id="a_Node000016"><a xlink:href="_inspectable_8h.html" target="_top" xlink:title=" ">
<polygon fill="white" stroke="#666666" points="131.65,-295.5 57.15,-295.5 57.15,-276.25 131.65,-276.25 131.65,-295.5"/>
<text text-anchor="middle" x="94.4" y="-282" font-family="Helvetica,sans-Serif" font-size="10.00">Inspectable.h</text>
</a>
</g>
</g>
<!-- Node11&#45;&gt;Node16 -->
<g id="edge19_Node000011_Node000016" class="edge">
<title>Node11&#45;&gt;Node16</title>
<g id="a_edge19_Node000011_Node000016"><a xlink:title=" ">
<path fill="none" stroke="#63b8ff" d="M126.96,-331.33C121.74,-324.21 114.21,-313.93 107.71,-305.05"/>
<polygon fill="#63b8ff" stroke="#63b8ff" points="110.61,-303.08 101.87,-297.08 104.96,-307.22 110.61,-303.08"/>
</a>
</g>
</g>
<!-- Node13 -->
<g id="Node000013" class="node">
<title>Node13</title>
<g id="a_Node000013"><a xlink:href="_error_types_8h.html" target="_top" xlink:title=" ">
<polygon fill="white" stroke="#666666" points="287.15,-240.25 215.65,-240.25 215.65,-221 287.15,-221 287.15,-240.25"/>
<text text-anchor="middle" x="251.4" y="-226.75" font-family="Helvetica,sans-Serif" font-size="10.00">ErrorTypes.h</text>
</a>
</g>
</g>
<!-- Node12&#45;&gt;Node13 -->
<g id="edge13_Node000012_Node000013" class="edge">
<title>Node12&#45;&gt;Node13</title>
<g id="a_edge13_Node000012_Node000013"><a xlink:title=" ">
<path fill="none" stroke="#63b8ff" d="M185.8,-275.84C197.49,-267.96 214.7,-256.36 228.56,-247.02"/>
<polygon fill="#63b8ff" stroke="#63b8ff" points="230.34,-250.04 236.68,-241.55 226.43,-244.24 230.34,-250.04"/>
</a>
</g>
</g>
<!-- Node14 -->
<g id="Node000014" class="node">
<title>Node14</title>
<g id="a_Node000014"><a xlink:href="_exception_8h.html" target="_top" xlink:title=" ">
<polygon fill="white" stroke="#666666" points="197.28,-240.25 129.53,-240.25 129.53,-221 197.28,-221 197.28,-240.25"/>
<text text-anchor="middle" x="163.4" y="-226.75" font-family="Helvetica,sans-Serif" font-size="10.00">Exception.h</text>
</a>
</g>
</g>
<!-- Node12&#45;&gt;Node14 -->
<g id="edge16_Node000012_Node000014" class="edge">
<title>Node12&#45;&gt;Node14</title>
<g id="a_edge16_Node000012_Node000014"><a xlink:title=" ">
<path fill="none" stroke="#63b8ff" d="M170.91,-276.08C169.8,-269.49 168.23,-260.21 166.81,-251.82"/>
<polygon fill="#63b8ff" stroke="#63b8ff" points="170.29,-251.38 165.17,-242.1 163.39,-252.55 170.29,-251.38"/>
</a>
</g>
</g>
<!-- Node13&#45;&gt;Node2 -->
<g id="edge14_Node000013_Node000002" class="edge">
<title>Node13&#45;&gt;Node2</title>
<g id="a_edge14_Node000013_Node000002"><a xlink:title=" ">
<path fill="none" stroke="#63b8ff" d="M265.65,-220.59C278.2,-212.64 296.73,-200.89 311.54,-191.5"/>
<polygon fill="#63b8ff" stroke="#63b8ff" points="313.23,-194.57 319.8,-186.26 309.48,-188.66 313.23,-194.57"/>
</a>
</g>
</g>
<!-- Node13&#45;&gt;Node9 -->
<g id="edge15_Node000013_Node000009" class="edge">
<title>Node13&#45;&gt;Node9</title>
<g id="a_edge15_Node000013_Node000009"><a xlink:title=" ">
<path fill="none" stroke="#63b8ff" d="M251.57,-220.83C251.69,-214.32 251.86,-205.17 252.02,-196.87"/>
<polygon fill="#63b8ff" stroke="#63b8ff" points="255.51,-196.94 252.2,-186.87 248.52,-196.8 255.51,-196.94"/>
</a>
</g>
</g>
<!-- Node14&#45;&gt;Node4 -->
<g id="edge17_Node000014_Node000004" class="edge">
<title>Node14&#45;&gt;Node4</title>
<g id="a_edge17_Node000014_Node000004"><a xlink:title=" ">
<path fill="none" stroke="#63b8ff" d="M164.52,-220.6C166.78,-200.63 171.21,-151.25 165.4,-110.5 164.22,-102.22 161.86,-93.32 159.47,-85.67"/>
<polygon fill="#63b8ff" stroke="#63b8ff" points="162.85,-84.74 156.35,-76.37 156.22,-86.97 162.85,-84.74"/>
</a>
</g>
</g>
<!-- Node15 -->
<g id="Node000015" class="node">
<title>Node15</title>
<g id="a_Node000015"><a xlink:title=" ">
<polygon fill="#e0e0e0" stroke="#999999" points="156.4,-185 98.4,-185 98.4,-165.75 156.4,-165.75 156.4,-185"/>
<text text-anchor="middle" x="127.4" y="-171.5" font-family="Helvetica,sans-Serif" font-size="10.00">exception</text>
</a>
</g>
</g>
<!-- Node14&#45;&gt;Node15 -->
<g id="edge18_Node000014_Node000015" class="edge">
<title>Node14&#45;&gt;Node15</title>
<g id="a_edge18_Node000014_Node000015"><a xlink:title=" ">
<path fill="none" stroke="#63b8ff" d="M157.46,-220.83C152.69,-213.78 145.84,-203.65 139.88,-194.83"/>
<polygon fill="#63b8ff" stroke="#63b8ff" points="142.82,-192.94 134.32,-186.61 137.02,-196.86 142.82,-192.94"/>
</a>
</g>
</g>
<!-- Node17 -->
<g id="Node000017" class="node">
<title>Node17</title>
<g id="a_Node000017"><a xlink:title=" ">
<polygon fill="#e0e0e0" stroke="#999999" points="111.15,-240.25 57.65,-240.25 57.65,-221 111.15,-221 111.15,-240.25"/>
<text text-anchor="middle" x="84.4" y="-226.75" font-family="Helvetica,sans-Serif" font-size="10.00">iostream</text>
</a>
</g>
</g>
<!-- Node16&#45;&gt;Node17 -->
<g id="edge20_Node000016_Node000017" class="edge">
<title>Node16&#45;&gt;Node17</title>
<g id="a_edge20_Node000016_Node000017"><a xlink:title=" ">
<path fill="none" stroke="#63b8ff" d="M92.75,-276.08C91.51,-269.49 89.77,-260.21 88.19,-251.82"/>
<polygon fill="#63b8ff" stroke="#63b8ff" points="91.65,-251.28 86.37,-242.1 84.77,-252.57 91.65,-251.28"/>
</a>
</g>
</g>
<!-- Node18&#45;&gt;Node4 -->
<g id="edge22_Node000018_Node000004" class="edge">
<title>Node18&#45;&gt;Node4</title>
<g id="a_edge22_Node000018_Node000004"><a xlink:title=" ">
<path fill="none" stroke="#63b8ff" d="M43.45,-165.58C48.42,-152.3 59.32,-126.97 75.4,-110.5 87.91,-97.69 104.87,-87.33 119.69,-79.83"/>
<polygon fill="#63b8ff" stroke="#63b8ff" points="121.14,-83.02 128.64,-75.54 118.11,-76.71 121.14,-83.02"/>
</a>
</g>
</g>
<!-- Node19 -->
<g id="Node000019" class="node">
<title>Node19</title>
<g id="a_Node000019"><a xlink:href="_checksum_8h.html" target="_top" xlink:title=" ">
<polygon fill="white" stroke="#666666" points="156.15,-129.75 84.65,-129.75 84.65,-110.5 156.15,-110.5 156.15,-129.75"/>
<text text-anchor="middle" x="120.4" y="-116.25" font-family="Helvetica,sans-Serif" font-size="10.00">Checksum.h</text>
</a>
</g>
</g>
<!-- Node18&#45;&gt;Node19 -->
<g id="edge23_Node000018_Node000019" class="edge">
<title>Node18&#45;&gt;Node19</title>
<g id="a_edge23_Node000018_Node000019"><a xlink:title=" ">
<path fill="none" stroke="#63b8ff" d="M53.97,-165.34C65.81,-157.46 83.24,-145.86 97.27,-136.52"/>
<polygon fill="#63b8ff" stroke="#63b8ff" points="99.12,-139.5 105.5,-131.04 95.24,-133.67 99.12,-139.5"/>
</a>
</g>
</g>
<!-- Node20 -->
<g id="Node000020" class="node">
<title>Node20</title>
<g id="a_Node000020"><a xlink:title=" ">
<polygon fill="#e0e0e0" stroke="#999999" points="28.8,-129.75 0,-129.75 0,-110.5 28.8,-110.5 28.8,-129.75"/>
<text text-anchor="middle" x="14.4" y="-116.25" font-family="Helvetica,sans-Serif" font-size="10.00">bit</text>
</a>
</g>
</g>
<!-- Node18&#45;&gt;Node20 -->
<g id="edge25_Node000018_Node000020" class="edge">
<title>Node18&#45;&gt;Node20</title>
<g id="a_edge25_Node000018_Node000020"><a xlink:title=" ">
<path fill="none" stroke="#63b8ff" d="M36.11,-165.58C32.78,-158.76 28.04,-149.06 23.84,-140.45"/>
<polygon fill="#63b8ff" stroke="#63b8ff" points="26.98,-138.92 19.45,-131.47 20.69,-141.99 26.98,-138.92"/>
</a>
</g>
</g>
<!-- Node19&#45;&gt;Node4 -->
<g id="edge24_Node000019_Node000004" class="edge">
<title>Node19&#45;&gt;Node4</title>
<g id="a_edge24_Node000019_Node000004"><a xlink:title=" ">
<path fill="none" stroke="#63b8ff" d="M125.68,-110.33C129.87,-103.36 135.88,-93.37 141.13,-84.62"/>
<polygon fill="#63b8ff" stroke="#63b8ff" points="144.07,-86.53 146.22,-76.16 138.07,-82.93 144.07,-86.53"/>
</a>
</g>
</g>
</g>
</svg>
