<?xml version="1.0" encoding="UTF-8" standalone="no"?>
<!DOCTYPE svg PUBLIC "-//W3C//DTD SVG 1.1//EN"
 "http://www.w3.org/Graphics/SVG/1.1/DTD/svg11.dtd">
<!-- Generated by graphviz version 10.0.1 (20240210.2158)
 -->
<!-- Title: /Users/hoff/Retro/virtualc64/Emulator/FileSystems/FSTypes.h Pages: 1 -->
<svg width="857pt" height="515pt"
 viewBox="0.00 0.00 856.88 515.25" xmlns="http://www.w3.org/2000/svg" xmlns:xlink="http://www.w3.org/1999/xlink">
<g id="graph0" class="graph" transform="scale(1 1) rotate(0) translate(4 511.25)">
<title>/Users/hoff/Retro/virtualc64/Emulator/FileSystems/FSTypes.h</title>
<!-- Node1 -->
<g id="Node000001" class="node">
<title>Node1</title>
<g id="a_Node000001"><a xlink:title=" ">
<polygon fill="#999999" stroke="#666666" points="560.25,-507.25 394.25,-507.25 394.25,-476.75 560.25,-476.75 560.25,-507.25"/>
<text text-anchor="start" x="402.25" y="-493.75" font-family="Helvetica,sans-Serif" font-size="10.00">/Users/hoff/Retro/virtualc64</text>
<text text-anchor="middle" x="477.25" y="-482.5" font-family="Helvetica,sans-Serif" font-size="10.00">/Emulator/FileSystems/FSTypes.h</text>
</a>
</g>
</g>
<!-- Node2 -->
<g id="Node000002" class="node">
<title>Node2</title>
<g id="a_Node000002"><a xlink:href="_f_s_block_8h_source.html" target="_top" xlink:title=" ">
<polygon fill="white" stroke="#666666" points="164.5,-440.75 0,-440.75 0,-410.25 164.5,-410.25 164.5,-440.75"/>
<text text-anchor="start" x="8" y="-427.25" font-family="Helvetica,sans-Serif" font-size="10.00">/Users/hoff/Retro/virtualc64</text>
<text text-anchor="middle" x="82.25" y="-416" font-family="Helvetica,sans-Serif" font-size="10.00">/Emulator/FileSystems/FSBlock.h</text>
</a>
</g>
</g>
<!-- Node1&#45;&gt;Node2 -->
<g id="edge1_Node000001_Node000002" class="edge">
<title>Node1&#45;&gt;Node2</title>
<g id="a_edge1_Node000001_Node000002"><a xlink:title=" ">
<path fill="none" stroke="#63b8ff" d="M382.66,-475.55C316.25,-464.71 228.31,-450.35 164.74,-439.97"/>
<polygon fill="#63b8ff" stroke="#63b8ff" points="382.04,-479 392.47,-477.16 383.16,-472.09 382.04,-479"/>
</a>
</g>
</g>
<!-- Node9 -->
<g id="Node000009" class="node">
<title>Node9</title>
<g id="a_Node000009"><a xlink:href="_f_s_descriptors_8h_source.html" target="_top" xlink:title=" ">
<polygon fill="white" stroke="#666666" points="372.25,-440.75 182.25,-440.75 182.25,-410.25 372.25,-410.25 372.25,-440.75"/>
<text text-anchor="start" x="190.25" y="-427.25" font-family="Helvetica,sans-Serif" font-size="10.00">/Users/hoff/Retro/virtualc64</text>
<text text-anchor="middle" x="277.25" y="-416" font-family="Helvetica,sans-Serif" font-size="10.00">/Emulator/FileSystems/FSDescriptors.h</text>
</a>
</g>
</g>
<!-- Node1&#45;&gt;Node9 -->
<g id="edge8_Node000001_Node000009" class="edge">
<title>Node1&#45;&gt;Node9</title>
<g id="a_edge8_Node000001_Node000009"><a xlink:title=" ">
<path fill="none" stroke="#63b8ff" d="M420.95,-472.84C389.89,-462.83 351.83,-450.55 322.69,-441.15"/>
<polygon fill="#63b8ff" stroke="#63b8ff" points="419.58,-476.08 430.18,-475.82 421.73,-469.42 419.58,-476.08"/>
</a>
</g>
</g>
<!-- Node10 -->
<g id="Node000010" class="node">
<title>Node10</title>
<g id="a_Node000010"><a xlink:href="_f_s_dir_entry_8h_source.html" target="_top" xlink:title=" ">
<polygon fill="white" stroke="#666666" points="564.38,-440.75 390.12,-440.75 390.12,-410.25 564.38,-410.25 564.38,-440.75"/>
<text text-anchor="start" x="398.12" y="-427.25" font-family="Helvetica,sans-Serif" font-size="10.00">/Users/hoff/Retro/virtualc64</text>
<text text-anchor="middle" x="477.25" y="-416" font-family="Helvetica,sans-Serif" font-size="10.00">/Emulator/FileSystems/FSDirEntry.h</text>
</a>
</g>
</g>
<!-- Node1&#45;&gt;Node10 -->
<g id="edge10_Node000001_Node000010" class="edge">
<title>Node1&#45;&gt;Node10</title>
<g id="a_edge10_Node000001_Node000010"><a xlink:title=" ">
<path fill="none" stroke="#63b8ff" d="M477.25,-465.06C477.25,-456.89 477.25,-448.16 477.25,-441.08"/>
<polygon fill="#63b8ff" stroke="#63b8ff" points="473.75,-464.85 477.25,-474.85 480.75,-464.85 473.75,-464.85"/>
</a>
</g>
</g>
<!-- Node11 -->
<g id="Node000011" class="node">
<title>Node11</title>
<g id="a_Node000011"><a xlink:href="_disk_8h_source.html" target="_top" xlink:title=" ">
<polygon fill="white" stroke="#666666" points="750,-440.75 582.5,-440.75 582.5,-410.25 750,-410.25 750,-440.75"/>
<text text-anchor="start" x="590.5" y="-427.25" font-family="Helvetica,sans-Serif" font-size="10.00">/Users/hoff/Retro/virtualc64</text>
<text text-anchor="middle" x="666.25" y="-416" font-family="Helvetica,sans-Serif" font-size="10.00">/Emulator/Peripherals/Drive/Disk.h</text>
</a>
</g>
</g>
<!-- Node1&#45;&gt;Node11 -->
<g id="edge12_Node000001_Node000011" class="edge">
<title>Node1&#45;&gt;Node11</title>
<g id="a_edge12_Node000001_Node000011"><a xlink:title=" ">
<path fill="none" stroke="#63b8ff" d="M530.99,-472.66C560.2,-462.69 595.84,-450.53 623.21,-441.19"/>
<polygon fill="#63b8ff" stroke="#63b8ff" points="529.9,-469.33 521.57,-475.88 532.16,-475.96 529.9,-469.33"/>
</a>
</g>
</g>
<!-- Node13 -->
<g id="Node000013" class="node">
<title>Node13</title>
<g id="a_Node000013"><a xlink:href="_virtual_c64_types_8h.html" target="_top" xlink:title=" ">
<polygon fill="white" stroke="#666666" points="848.88,-296.5 707.62,-296.5 707.62,-266 848.88,-266 848.88,-296.5"/>
<text text-anchor="start" x="715.62" y="-283" font-family="Helvetica,sans-Serif" font-size="10.00">/Users/hoff/Retro/virtualc64</text>
<text text-anchor="middle" x="778.25" y="-271.75" font-family="Helvetica,sans-Serif" font-size="10.00">/Emulator/VirtualC64Types.h</text>
</a>
</g>
</g>
<!-- Node1&#45;&gt;Node13 -->
<g id="edge15_Node000001_Node000013" class="edge">
<title>Node1&#45;&gt;Node13</title>
<g id="a_edge15_Node000001_Node000013"><a xlink:title=" ">
<path fill="none" stroke="#63b8ff" d="M571.87,-486.01C643.58,-480.13 733.97,-467.52 759.25,-440.75 796.93,-400.86 787.69,-327.86 781.57,-296.83"/>
<polygon fill="#63b8ff" stroke="#63b8ff" points="571.74,-482.51 562.04,-486.78 572.28,-489.49 571.74,-482.51"/>
</a>
</g>
</g>
<!-- Node3 -->
<g id="Node000003" class="node">
<title>Node3</title>
<g id="a_Node000003"><a xlink:href="_file_system_8h_source.html" target="_top" xlink:title=" ">
<polygon fill="white" stroke="#666666" points="465.5,-368.62 289,-368.62 289,-338.12 465.5,-338.12 465.5,-368.62"/>
<text text-anchor="start" x="297" y="-355.12" font-family="Helvetica,sans-Serif" font-size="10.00">/Users/hoff/Retro/virtualc64</text>
<text text-anchor="middle" x="377.25" y="-343.88" font-family="Helvetica,sans-Serif" font-size="10.00">/Emulator/FileSystems/FileSystem.h</text>
</a>
</g>
</g>
<!-- Node2&#45;&gt;Node3 -->
<g id="edge2_Node000002_Node000003" class="edge">
<title>Node2&#45;&gt;Node3</title>
<g id="a_edge2_Node000002_Node000003"><a xlink:title=" ">
<path fill="none" stroke="#63b8ff" d="M155.29,-407.14C204.45,-395.45 268.56,-380.21 315.24,-369.12"/>
<polygon fill="#63b8ff" stroke="#63b8ff" points="154.48,-403.73 145.56,-409.45 156.1,-410.54 154.48,-403.73"/>
</a>
</g>
</g>
<!-- Node4 -->
<g id="Node000004" class="node">
<title>Node4</title>
<g id="a_Node000004"><a xlink:href="_c64_8h_source.html" target="_top" xlink:title=" ">
<polygon fill="white" stroke="#666666" points="689.12,-296.5 543.38,-296.5 543.38,-266 689.12,-266 689.12,-296.5"/>
<text text-anchor="start" x="551.38" y="-283" font-family="Helvetica,sans-Serif" font-size="10.00">/Users/hoff/Retro/virtualc64</text>
<text text-anchor="middle" x="616.25" y="-271.75" font-family="Helvetica,sans-Serif" font-size="10.00">/Emulator/Components/C64.h</text>
</a>
</g>
</g>
<!-- Node3&#45;&gt;Node4 -->
<g id="edge3_Node000003_Node000004" class="edge">
<title>Node3&#45;&gt;Node4</title>
<g id="a_edge3_Node000003_Node000004"><a xlink:title=" ">
<path fill="none" stroke="#63b8ff" d="M438.21,-334.49C477.87,-322.85 528.95,-307.87 566.21,-296.93"/>
<polygon fill="#63b8ff" stroke="#63b8ff" points="437.41,-331.07 428.8,-337.25 439.39,-337.79 437.41,-331.07"/>
</a>
</g>
</g>
<!-- Node5 -->
<g id="Node000005" class="node">
<title>Node5</title>
<g id="a_Node000005"><a xlink:href="_emulator_8h_source.html" target="_top" xlink:title=" ">
<polygon fill="white" stroke="#666666" points="724.25,-230 558.25,-230 558.25,-199.5 724.25,-199.5 724.25,-230"/>
<text text-anchor="start" x="566.25" y="-216.5" font-family="Helvetica,sans-Serif" font-size="10.00">/Users/hoff/Retro/virtualc64</text>
<text text-anchor="middle" x="641.25" y="-205.25" font-family="Helvetica,sans-Serif" font-size="10.00">/Emulator/Components/Emulator.h</text>
</a>
</g>
</g>
<!-- Node4&#45;&gt;Node5 -->
<g id="edge4_Node000004_Node000005" class="edge">
<title>Node4&#45;&gt;Node5</title>
<g id="a_edge4_Node000004_Node000005"><a xlink:title=" ">
<path fill="none" stroke="#63b8ff" d="M625.97,-255.16C629.23,-246.75 632.76,-237.66 635.6,-230.33"/>
<polygon fill="#63b8ff" stroke="#63b8ff" points="622.82,-253.61 622.47,-264.2 629.35,-256.14 622.82,-253.61"/>
</a>
</g>
</g>
<!-- Node6 -->
<g id="Node000006" class="node">
<title>Node6</title>
<g id="a_Node000006"><a xlink:href="_virtual_c64_8h.html" target="_top" xlink:title=" ">
<polygon fill="white" stroke="#666666" points="764.62,-163.5 627.88,-163.5 627.88,-133 764.62,-133 764.62,-163.5"/>
<text text-anchor="start" x="635.88" y="-150" font-family="Helvetica,sans-Serif" font-size="10.00">/Users/hoff/Retro/virtualc64</text>
<text text-anchor="middle" x="696.25" y="-138.75" font-family="Helvetica,sans-Serif" font-size="10.00">/Emulator/VirtualC64.h</text>
</a>
</g>
</g>
<!-- Node5&#45;&gt;Node6 -->
<g id="edge5_Node000005_Node000006" class="edge">
<title>Node5&#45;&gt;Node6</title>
<g id="a_edge5_Node000005_Node000006"><a xlink:title=" ">
<path fill="none" stroke="#63b8ff" d="M660.96,-190.63C668.59,-181.69 677.08,-171.74 683.82,-163.83"/>
<polygon fill="#63b8ff" stroke="#63b8ff" points="658.54,-188.08 654.71,-197.96 663.86,-192.62 658.54,-188.08"/>
</a>
</g>
</g>
<!-- Node7 -->
<g id="Node000007" class="node">
<title>Node7</title>
<g id="a_Node000007"><a xlink:href="_headless_8h_source.html" target="_top" xlink:title=" ">
<polygon fill="white" stroke="#666666" points="764.62,-97 627.88,-97 627.88,-66.5 764.62,-66.5 764.62,-97"/>
<text text-anchor="start" x="635.88" y="-83.5" font-family="Helvetica,sans-Serif" font-size="10.00">/Users/hoff/Retro/virtualc64</text>
<text text-anchor="middle" x="696.25" y="-72.25" font-family="Helvetica,sans-Serif" font-size="10.00">/Emulator/Headless.h</text>
</a>
</g>
</g>
<!-- Node6&#45;&gt;Node7 -->
<g id="edge6_Node000006_Node000007" class="edge">
<title>Node6&#45;&gt;Node7</title>
<g id="a_edge6_Node000006_Node000007"><a xlink:title=" ">
<path fill="none" stroke="#63b8ff" d="M696.25,-121.31C696.25,-113.14 696.25,-104.41 696.25,-97.33"/>
<polygon fill="#63b8ff" stroke="#63b8ff" points="692.75,-121.1 696.25,-131.1 699.75,-121.1 692.75,-121.1"/>
</a>
</g>
</g>
<!-- Node8 -->
<g id="Node000008" class="node">
<title>Node8</title>
<g id="a_Node000008"><a xlink:href="_headless_8cpp.html" target="_top" xlink:title=" ">
<polygon fill="white" stroke="#666666" points="764.62,-30.5 627.88,-30.5 627.88,0 764.62,0 764.62,-30.5"/>
<text text-anchor="start" x="635.88" y="-17" font-family="Helvetica,sans-Serif" font-size="10.00">/Users/hoff/Retro/virtualc64</text>
<text text-anchor="middle" x="696.25" y="-5.75" font-family="Helvetica,sans-Serif" font-size="10.00">/Emulator/Headless.cpp</text>
</a>
</g>
</g>
<!-- Node7&#45;&gt;Node8 -->
<g id="edge7_Node000007_Node000008" class="edge">
<title>Node7&#45;&gt;Node8</title>
<g id="a_edge7_Node000007_Node000008"><a xlink:title=" ">
<path fill="none" stroke="#63b8ff" d="M696.25,-54.81C696.25,-46.64 696.25,-37.91 696.25,-30.83"/>
<polygon fill="#63b8ff" stroke="#63b8ff" points="692.75,-54.6 696.25,-64.6 699.75,-54.6 692.75,-54.6"/>
</a>
</g>
</g>
<!-- Node9&#45;&gt;Node3 -->
<g id="edge9_Node000009_Node000003" class="edge">
<title>Node9&#45;&gt;Node3</title>
<g id="a_edge9_Node000009_Node000003"><a xlink:title=" ">
<path fill="none" stroke="#63b8ff" d="M307.38,-403.37C323.26,-392.23 342.35,-378.85 356.56,-368.89"/>
<polygon fill="#63b8ff" stroke="#63b8ff" points="305.39,-400.49 299.21,-409.1 309.41,-406.23 305.39,-400.49"/>
</a>
</g>
</g>
<!-- Node10&#45;&gt;Node3 -->
<g id="edge11_Node000010_Node000003" class="edge">
<title>Node10&#45;&gt;Node3</title>
<g id="a_edge11_Node000010_Node000003"><a xlink:title=" ">
<path fill="none" stroke="#63b8ff" d="M447.12,-403.37C431.24,-392.23 412.15,-378.85 397.94,-368.89"/>
<polygon fill="#63b8ff" stroke="#63b8ff" points="445.09,-406.23 455.29,-409.1 449.11,-400.49 445.09,-406.23"/>
</a>
</g>
</g>
<!-- Node12 -->
<g id="Node000012" class="node">
<title>Node12</title>
<g id="a_Node000012"><a xlink:href="_drive_8h_source.html" target="_top" xlink:title=" ">
<polygon fill="white" stroke="#666666" points="709.62,-374.25 572.88,-374.25 572.88,-332.5 709.62,-332.5 709.62,-374.25"/>
<text text-anchor="start" x="580.88" y="-360.75" font-family="Helvetica,sans-Serif" font-size="10.00">/Users/hoff/Retro/virtualc64</text>
<text text-anchor="start" x="580.88" y="-349.5" font-family="Helvetica,sans-Serif" font-size="10.00">/Emulator/Peripherals/Drive</text>
<text text-anchor="middle" x="641.25" y="-338.25" font-family="Helvetica,sans-Serif" font-size="10.00">/Drive.h</text>
</a>
</g>
</g>
<!-- Node11&#45;&gt;Node12 -->
<g id="edge13_Node000011_Node000012" class="edge">
<title>Node11&#45;&gt;Node12</title>
<g id="a_edge13_Node000011_Node000012"><a xlink:title=" ">
<path fill="none" stroke="#63b8ff" d="M657.26,-399.28C654.38,-391.22 651.24,-382.4 648.51,-374.74"/>
<polygon fill="#63b8ff" stroke="#63b8ff" points="653.91,-400.3 660.56,-408.54 660.5,-397.95 653.91,-400.3"/>
</a>
</g>
</g>
<!-- Node12&#45;&gt;Node4 -->
<g id="edge14_Node000012_Node000004" class="edge">
<title>Node12&#45;&gt;Node4</title>
<g id="a_edge14_Node000012_Node000004"><a xlink:title=" ">
<path fill="none" stroke="#63b8ff" d="M630.24,-321.5C627.16,-312.87 623.96,-303.89 621.4,-296.7"/>
<polygon fill="#63b8ff" stroke="#63b8ff" points="626.86,-322.42 633.51,-330.67 633.45,-320.07 626.86,-322.42"/>
</a>
</g>
</g>
<!-- Node13&#45;&gt;Node6 -->
<g id="edge16_Node000013_Node000006" class="edge">
<title>Node13&#45;&gt;Node6</title>
<g id="a_edge16_Node000013_Node000006"><a xlink:title=" ">
<path fill="none" stroke="#63b8ff" d="M765.67,-255.82C757.05,-239.55 745.07,-217.88 733.25,-199.5 725.28,-187.11 715.34,-173.7 707.76,-163.85"/>
<polygon fill="#63b8ff" stroke="#63b8ff" points="762.37,-257.06 770.12,-264.29 768.57,-253.81 762.37,-257.06"/>
</a>
</g>
</g>
</g>
</svg>
