<?xml version="1.0" encoding="UTF-8" standalone="no"?>
<!DOCTYPE svg PUBLIC "-//W3C//DTD SVG 1.1//EN"
 "http://www.w3.org/Graphics/SVG/1.1/DTD/svg11.dtd">
<!-- Generated by graphviz version 10.0.1 (20240210.2158)
 -->
<!-- Title: /Users/hoff/Retro/virtualc64/Emulator/FileSystems/FileSystem.h Pages: 1 -->
<svg width="1148pt" height="591pt"
 viewBox="0.00 0.00 1147.64 591.00" xmlns="http://www.w3.org/2000/svg" xmlns:xlink="http://www.w3.org/1999/xlink">
<g id="graph0" class="graph" transform="scale(1 1) rotate(0) translate(4 587)">
<title>/Users/hoff/Retro/virtualc64/Emulator/FileSystems/FileSystem.h</title>
<!-- Node1 -->
<g id="Node000001" class="node">
<title>Node1</title>
<g id="a_Node000001"><a xlink:title=" ">
<polygon fill="#999999" stroke="#666666" points="497.83,-583 321.33,-583 321.33,-552.5 497.83,-552.5 497.83,-583"/>
<text text-anchor="start" x="329.33" y="-569.5" font-family="Helvetica,sans-Serif" font-size="10.00">/Users/hoff/Retro/virtualc64</text>
<text text-anchor="middle" x="409.58" y="-558.25" font-family="Helvetica,sans-Serif" font-size="10.00">/Emulator/FileSystems/FileSystem.h</text>
</a>
</g>
</g>
<!-- Node2 -->
<g id="Node000002" class="node">
<title>Node2</title>
<g id="a_Node000002"><a xlink:href="_f_s_descriptors_8h.html" target="_top" xlink:title=" ">
<polygon fill="white" stroke="#666666" points="350.21,-406 262.96,-406 262.96,-386.75 350.21,-386.75 350.21,-406"/>
<text text-anchor="middle" x="306.58" y="-392.5" font-family="Helvetica,sans-Serif" font-size="10.00">FSDescriptors.h</text>
</a>
</g>
</g>
<!-- Node1&#45;&gt;Node2 -->
<g id="edge1_Node000001_Node000002" class="edge">
<title>Node1&#45;&gt;Node2</title>
<g id="a_edge1_Node000001_Node000002"><a xlink:title=" ">
<path fill="none" stroke="#63b8ff" d="M397.57,-552.29C389.71,-542.5 379.48,-529.11 371.58,-516.5 351.85,-485 351.66,-474.48 333.58,-442 328.8,-433.41 323.21,-424.07 318.37,-416.17"/>
<polygon fill="#63b8ff" stroke="#63b8ff" points="321.41,-414.43 313.16,-407.78 315.46,-418.12 321.41,-414.43"/>
</a>
</g>
</g>
<!-- Node19 -->
<g id="Node000019" class="node">
<title>Node19</title>
<g id="a_Node000019"><a xlink:href="_f_s_block_8h.html" target="_top" xlink:title=" ">
<polygon fill="white" stroke="#666666" points="234.46,-461.25 172.71,-461.25 172.71,-442 234.46,-442 234.46,-461.25"/>
<text text-anchor="middle" x="203.58" y="-447.75" font-family="Helvetica,sans-Serif" font-size="10.00">FSBlock.h</text>
</a>
</g>
</g>
<!-- Node1&#45;&gt;Node19 -->
<g id="edge23_Node000001_Node000019" class="edge">
<title>Node1&#45;&gt;Node19</title>
<g id="a_edge23_Node000001_Node000019"><a xlink:title=" ">
<path fill="none" stroke="#63b8ff" d="M382.57,-552.09C364.21,-542.11 339.4,-528.57 317.58,-516.5 287.25,-499.72 252.51,-480.21 229.44,-467.22"/>
<polygon fill="#63b8ff" stroke="#63b8ff" points="231.16,-464.17 220.73,-462.31 227.73,-470.27 231.16,-464.17"/>
</a>
</g>
</g>
<!-- Node25 -->
<g id="Node000025" class="node">
<title>Node25</title>
<g id="a_Node000025"><a xlink:href="_f_s_dir_entry_8h.html" target="_top" xlink:title=" ">
<polygon fill="white" stroke="#666666" points="324.33,-461.25 252.83,-461.25 252.83,-442 324.33,-442 324.33,-461.25"/>
<text text-anchor="middle" x="288.58" y="-447.75" font-family="Helvetica,sans-Serif" font-size="10.00">FSDirEntry.h</text>
</a>
</g>
</g>
<!-- Node1&#45;&gt;Node25 -->
<g id="edge36_Node000001_Node000025" class="edge">
<title>Node1&#45;&gt;Node25</title>
<g id="a_edge36_Node000001_Node000025"><a xlink:title=" ">
<path fill="none" stroke="#63b8ff" d="M385.24,-552.06C370.88,-542.79 352.8,-530.04 338.58,-516.5 323.96,-502.57 310.03,-484.19 300.6,-470.73"/>
<polygon fill="#63b8ff" stroke="#63b8ff" points="303.72,-469.09 295.19,-462.8 297.93,-473.03 303.72,-469.09"/>
</a>
</g>
</g>
<!-- Node26 -->
<g id="Node000026" class="node">
<title>Node26</title>
<g id="a_Node000026"><a xlink:href="_d64_file_8h.html" target="_top" xlink:title=" ">
<polygon fill="white" stroke="#666666" points="438.58,-516.5 380.58,-516.5 380.58,-497.25 438.58,-497.25 438.58,-516.5"/>
<text text-anchor="middle" x="409.58" y="-503" font-family="Helvetica,sans-Serif" font-size="10.00">D64File.h</text>
</a>
</g>
</g>
<!-- Node1&#45;&gt;Node26 -->
<g id="edge40_Node000001_Node000026" class="edge">
<title>Node1&#45;&gt;Node26</title>
<g id="a_edge40_Node000001_Node000026"><a xlink:title=" ">
<path fill="none" stroke="#63b8ff" d="M409.58,-552.2C409.58,-544.96 409.58,-536.09 409.58,-528.19"/>
<polygon fill="#63b8ff" stroke="#63b8ff" points="413.08,-528.46 409.58,-518.46 406.08,-528.46 413.08,-528.46"/>
</a>
</g>
</g>
<!-- Node31 -->
<g id="Node000031" class="node">
<title>Node31</title>
<g id="a_Node000031"><a xlink:href="_any_collection_8h.html" target="_top" xlink:title=" ">
<polygon fill="white" stroke="#666666" points="542.08,-516.5 457.08,-516.5 457.08,-497.25 542.08,-497.25 542.08,-516.5"/>
<text text-anchor="middle" x="499.58" y="-503" font-family="Helvetica,sans-Serif" font-size="10.00">AnyCollection.h</text>
</a>
</g>
</g>
<!-- Node1&#45;&gt;Node31 -->
<g id="edge49_Node000001_Node000031" class="edge">
<title>Node1&#45;&gt;Node31</title>
<g id="a_edge49_Node000001_Node000031"><a xlink:title=" ">
<path fill="none" stroke="#63b8ff" d="M431.83,-552.2C445.4,-543.32 462.72,-531.99 476.45,-523.01"/>
<polygon fill="#63b8ff" stroke="#63b8ff" points="477.99,-526.18 484.44,-517.78 474.16,-520.33 477.99,-526.18"/>
</a>
</g>
</g>
<!-- Node32 -->
<g id="Node000032" class="node">
<title>Node32</title>
<g id="a_Node000032"><a xlink:href="_i_o_utils_8h.html" target="_top" xlink:title=" ">
<polygon fill="white" stroke="#666666" points="811.08,-461.25 756.08,-461.25 756.08,-442 811.08,-442 811.08,-461.25"/>
<text text-anchor="middle" x="783.58" y="-447.75" font-family="Helvetica,sans-Serif" font-size="10.00">IOUtils.h</text>
</a>
</g>
</g>
<!-- Node1&#45;&gt;Node32 -->
<g id="edge51_Node000001_Node000032" class="edge">
<title>Node1&#45;&gt;Node32</title>
<g id="a_edge51_Node000001_Node000032"><a xlink:title=" ">
<path fill="none" stroke="#63b8ff" d="M457.71,-552.06C532.84,-529.14 676.48,-485.31 745.16,-464.35"/>
<polygon fill="#63b8ff" stroke="#63b8ff" points="745.91,-467.78 754.46,-461.51 743.87,-461.08 745.91,-467.78"/>
</a>
</g>
</g>
<!-- Node34 -->
<g id="Node000034" class="node">
<title>Node34</title>
<g id="a_Node000034"><a xlink:title=" ">
<polygon fill="#e0e0e0" stroke="#999999" points="931.08,-350.75 888.08,-350.75 888.08,-331.5 931.08,-331.5 931.08,-350.75"/>
<text text-anchor="middle" x="909.58" y="-337.25" font-family="Helvetica,sans-Serif" font-size="10.00">vector</text>
</a>
</g>
</g>
<!-- Node1&#45;&gt;Node34 -->
<g id="edge64_Node000001_Node000034" class="edge">
<title>Node1&#45;&gt;Node34</title>
<g id="a_edge64_Node000001_Node000034"><a xlink:title=" ">
<path fill="none" stroke="#63b8ff" d="M498.15,-560.6C673.87,-546.37 1056.48,-504.53 1135.58,-406 1140.94,-399.33 1141.02,-393.36 1135.58,-386.75 1111.52,-357.47 999.22,-347.09 942.52,-343.67"/>
<polygon fill="#63b8ff" stroke="#63b8ff" points="943.01,-340.19 932.83,-343.12 942.62,-347.18 943.01,-340.19"/>
</a>
</g>
</g>
<!-- Node3 -->
<g id="Node000003" class="node">
<title>Node3</title>
<g id="a_Node000003"><a xlink:href="_core_object_8h.html" target="_top" xlink:title=" ">
<polygon fill="white" stroke="#666666" points="415.46,-350.75 341.71,-350.75 341.71,-331.5 415.46,-331.5 415.46,-350.75"/>
<text text-anchor="middle" x="378.58" y="-337.25" font-family="Helvetica,sans-Serif" font-size="10.00">CoreObject.h</text>
</a>
</g>
</g>
<!-- Node2&#45;&gt;Node3 -->
<g id="edge2_Node000002_Node000003" class="edge">
<title>Node2&#45;&gt;Node3</title>
<g id="a_edge2_Node000002_Node000003"><a xlink:title=" ">
<path fill="none" stroke="#63b8ff" d="M318.8,-386.34C329.41,-378.49 345.02,-366.95 357.63,-357.62"/>
<polygon fill="#63b8ff" stroke="#63b8ff" points="359.37,-360.69 365.33,-351.92 355.21,-355.06 359.37,-360.69"/>
</a>
</g>
</g>
<!-- Node17 -->
<g id="Node000017" class="node">
<title>Node17</title>
<g id="a_Node000017"><a xlink:href="_disk_types_8h.html" target="_top" xlink:title=" ">
<polygon fill="white" stroke="#666666" points="388.96,-240.25 318.21,-240.25 318.21,-221 388.96,-221 388.96,-240.25"/>
<text text-anchor="middle" x="353.58" y="-226.75" font-family="Helvetica,sans-Serif" font-size="10.00">DiskTypes.h</text>
</a>
</g>
</g>
<!-- Node2&#45;&gt;Node17 -->
<g id="edge17_Node000002_Node000017" class="edge">
<title>Node2&#45;&gt;Node17</title>
<g id="a_edge17_Node000002_Node000017"><a xlink:title=" ">
<path fill="none" stroke="#63b8ff" d="M309.11,-386.57C316.41,-361.14 337.66,-287.1 347.92,-251.37"/>
<polygon fill="#63b8ff" stroke="#63b8ff" points="351.23,-252.5 350.63,-241.93 344.5,-250.57 351.23,-252.5"/>
</a>
</g>
</g>
<!-- Node18 -->
<g id="Node000018" class="node">
<title>Node18</title>
<g id="a_Node000018"><a xlink:href="_f_s_types_8h.html" target="_top" xlink:title=" ">
<polygon fill="white" stroke="#666666" points="232.21,-350.75 168.96,-350.75 168.96,-331.5 232.21,-331.5 232.21,-350.75"/>
<text text-anchor="middle" x="200.58" y="-337.25" font-family="Helvetica,sans-Serif" font-size="10.00">FSTypes.h</text>
</a>
</g>
</g>
<!-- Node2&#45;&gt;Node18 -->
<g id="edge20_Node000002_Node000018" class="edge">
<title>Node2&#45;&gt;Node18</title>
<g id="a_edge20_Node000002_Node000018"><a xlink:title=" ">
<path fill="none" stroke="#63b8ff" d="M288.6,-386.34C272.23,-378.12 247.79,-365.84 228.82,-356.31"/>
<polygon fill="#63b8ff" stroke="#63b8ff" points="230.51,-353.24 220.01,-351.88 227.37,-359.5 230.51,-353.24"/>
</a>
</g>
</g>
<!-- Node4 -->
<g id="Node000004" class="node">
<title>Node4</title>
<g id="a_Node000004"><a xlink:href="_error_8h.html" target="_top" xlink:title=" ">
<polygon fill="white" stroke="#666666" points="285.83,-295.5 241.33,-295.5 241.33,-276.25 285.83,-276.25 285.83,-295.5"/>
<text text-anchor="middle" x="263.58" y="-282" font-family="Helvetica,sans-Serif" font-size="10.00">Error.h</text>
</a>
</g>
</g>
<!-- Node3&#45;&gt;Node4 -->
<g id="edge3_Node000003_Node000004" class="edge">
<title>Node3&#45;&gt;Node4</title>
<g id="a_edge3_Node000003_Node000004"><a xlink:title=" ">
<path fill="none" stroke="#63b8ff" d="M359.08,-331.09C341.07,-322.75 314.06,-310.25 293.36,-300.66"/>
<polygon fill="#63b8ff" stroke="#63b8ff" points="295.11,-297.61 284.56,-296.59 292.16,-303.97 295.11,-297.61"/>
</a>
</g>
</g>
<!-- Node15 -->
<g id="Node000015" class="node">
<title>Node15</title>
<g id="a_Node000015"><a xlink:href="_inspectable_8h.html" target="_top" xlink:title=" ">
<polygon fill="white" stroke="#666666" points="556.83,-295.5 482.33,-295.5 482.33,-276.25 556.83,-276.25 556.83,-295.5"/>
<text text-anchor="middle" x="519.58" y="-282" font-family="Helvetica,sans-Serif" font-size="10.00">Inspectable.h</text>
</a>
</g>
</g>
<!-- Node3&#45;&gt;Node15 -->
<g id="edge15_Node000003_Node000015" class="edge">
<title>Node3&#45;&gt;Node15</title>
<g id="a_edge15_Node000003_Node000015"><a xlink:title=" ">
<path fill="none" stroke="#63b8ff" d="M402.5,-331.09C425.09,-322.56 459.22,-309.67 484.81,-300.01"/>
<polygon fill="#63b8ff" stroke="#63b8ff" points="486.01,-303.29 494.13,-296.49 483.54,-296.75 486.01,-303.29"/>
</a>
</g>
</g>
<!-- Node5 -->
<g id="Node000005" class="node">
<title>Node5</title>
<g id="a_Node000005"><a xlink:href="_error_types_8h.html" target="_top" xlink:title=" ">
<polygon fill="white" stroke="#666666" points="300.33,-240.25 228.83,-240.25 228.83,-221 300.33,-221 300.33,-240.25"/>
<text text-anchor="middle" x="264.58" y="-226.75" font-family="Helvetica,sans-Serif" font-size="10.00">ErrorTypes.h</text>
</a>
</g>
</g>
<!-- Node4&#45;&gt;Node5 -->
<g id="edge4_Node000004_Node000005" class="edge">
<title>Node4&#45;&gt;Node5</title>
<g id="a_edge4_Node000004_Node000005"><a xlink:title=" ">
<path fill="none" stroke="#63b8ff" d="M263.75,-276.08C263.87,-269.57 264.04,-260.42 264.2,-252.12"/>
<polygon fill="#63b8ff" stroke="#63b8ff" points="267.7,-252.19 264.39,-242.12 260.7,-252.05 267.7,-252.19"/>
</a>
</g>
</g>
<!-- Node13 -->
<g id="Node000013" class="node">
<title>Node13</title>
<g id="a_Node000013"><a xlink:href="_exception_8h.html" target="_top" xlink:title=" ">
<polygon fill="white" stroke="#666666" points="172.46,-240.25 104.71,-240.25 104.71,-221 172.46,-221 172.46,-240.25"/>
<text text-anchor="middle" x="138.58" y="-226.75" font-family="Helvetica,sans-Serif" font-size="10.00">Exception.h</text>
</a>
</g>
</g>
<!-- Node4&#45;&gt;Node13 -->
<g id="edge12_Node000004_Node000013" class="edge">
<title>Node4&#45;&gt;Node13</title>
<g id="a_edge12_Node000004_Node000013"><a xlink:title=" ">
<path fill="none" stroke="#63b8ff" d="M242.38,-275.84C222.63,-267.43 192.91,-254.77 170.33,-245.15"/>
<polygon fill="#63b8ff" stroke="#63b8ff" points="171.86,-241.99 161.28,-241.3 169.11,-248.43 171.86,-241.99"/>
</a>
</g>
</g>
<!-- Node6 -->
<g id="Node000006" class="node">
<title>Node6</title>
<g id="a_Node000006"><a xlink:href="_aliases_8h.html" target="_top" xlink:title=" ">
<polygon fill="white" stroke="#666666" points="444.83,-185 388.33,-185 388.33,-165.75 444.83,-165.75 444.83,-185"/>
<text text-anchor="middle" x="416.58" y="-171.5" font-family="Helvetica,sans-Serif" font-size="10.00">Aliases.h</text>
</a>
</g>
</g>
<!-- Node5&#45;&gt;Node6 -->
<g id="edge5_Node000005_Node000006" class="edge">
<title>Node5&#45;&gt;Node6</title>
<g id="a_edge5_Node000005_Node000006"><a xlink:title=" ">
<path fill="none" stroke="#63b8ff" d="M290.37,-220.59C314.93,-211.99 352.17,-198.94 379.84,-189.25"/>
<polygon fill="#63b8ff" stroke="#63b8ff" points="380.96,-192.56 389.24,-185.95 378.65,-185.96 380.96,-192.56"/>
</a>
</g>
</g>
<!-- Node12 -->
<g id="Node000012" class="node">
<title>Node12</title>
<g id="a_Node000012"><a xlink:href="_reflection_8h.html" target="_top" xlink:title=" ">
<polygon fill="white" stroke="#666666" points="369.83,-185 301.33,-185 301.33,-165.75 369.83,-165.75 369.83,-185"/>
<text text-anchor="middle" x="335.58" y="-171.5" font-family="Helvetica,sans-Serif" font-size="10.00">Reflection.h</text>
</a>
</g>
</g>
<!-- Node5&#45;&gt;Node12 -->
<g id="edge11_Node000005_Node000012" class="edge">
<title>Node5&#45;&gt;Node12</title>
<g id="a_edge11_Node000005_Node000012"><a xlink:title=" ">
<path fill="none" stroke="#63b8ff" d="M276.63,-220.59C286.99,-212.82 302.18,-201.42 314.55,-192.15"/>
<polygon fill="#63b8ff" stroke="#63b8ff" points="316.61,-194.98 322.51,-186.18 312.41,-189.38 316.61,-194.98"/>
</a>
</g>
</g>
<!-- Node7 -->
<g id="Node000007" class="node">
<title>Node7</title>
<g id="a_Node000007"><a xlink:href="_macros_8h.html" target="_top" xlink:title=" ">
<polygon fill="white" stroke="#666666" points="363.83,-129.75 307.33,-129.75 307.33,-110.5 363.83,-110.5 363.83,-129.75"/>
<text text-anchor="middle" x="335.58" y="-116.25" font-family="Helvetica,sans-Serif" font-size="10.00">Macros.h</text>
</a>
</g>
</g>
<!-- Node6&#45;&gt;Node7 -->
<g id="edge6_Node000006_Node000007" class="edge">
<title>Node6&#45;&gt;Node7</title>
<g id="a_edge6_Node000006_Node000007"><a xlink:title=" ">
<path fill="none" stroke="#63b8ff" d="M402.84,-165.34C390.86,-157.46 373.21,-145.86 359,-136.52"/>
<polygon fill="#63b8ff" stroke="#63b8ff" points="360.93,-133.6 350.66,-131.03 357.09,-139.45 360.93,-133.6"/>
</a>
</g>
</g>
<!-- Node8 -->
<g id="Node000008" class="node">
<title>Node8</title>
<g id="a_Node000008"><a xlink:href="_types_8h.html" target="_top" xlink:title=" ">
<polygon fill="white" stroke="#666666" points="222.83,-74.5 172.33,-74.5 172.33,-55.25 222.83,-55.25 222.83,-74.5"/>
<text text-anchor="middle" x="197.58" y="-61" font-family="Helvetica,sans-Serif" font-size="10.00">Types.h</text>
</a>
</g>
</g>
<!-- Node7&#45;&gt;Node8 -->
<g id="edge7_Node000007_Node000008" class="edge">
<title>Node7&#45;&gt;Node8</title>
<g id="a_edge7_Node000007_Node000008"><a xlink:title=" ">
<path fill="none" stroke="#63b8ff" d="M312.17,-110.09C290.07,-101.56 256.66,-88.67 231.62,-79.01"/>
<polygon fill="#63b8ff" stroke="#63b8ff" points="233.11,-75.83 222.52,-75.5 230.59,-82.36 233.11,-75.83"/>
</a>
</g>
</g>
<!-- Node9 -->
<g id="Node000009" class="node">
<title>Node9</title>
<g id="a_Node000009"><a xlink:title=" ">
<polygon fill="#e0e0e0" stroke="#999999" points="155.08,-19.25 88.08,-19.25 88.08,0 155.08,0 155.08,-19.25"/>
<text text-anchor="middle" x="121.58" y="-5.75" font-family="Helvetica,sans-Serif" font-size="10.00">sys/types.h</text>
</a>
</g>
</g>
<!-- Node8&#45;&gt;Node9 -->
<g id="edge8_Node000008_Node000009" class="edge">
<title>Node8&#45;&gt;Node9</title>
<g id="a_edge8_Node000008_Node000009"><a xlink:title=" ">
<path fill="none" stroke="#63b8ff" d="M184.69,-54.84C173.55,-47.04 157.21,-35.59 143.95,-26.29"/>
<polygon fill="#63b8ff" stroke="#63b8ff" points="145.98,-23.44 135.78,-20.57 141.96,-29.18 145.98,-23.44"/>
</a>
</g>
</g>
<!-- Node10 -->
<g id="Node000010" class="node">
<title>Node10</title>
<g id="a_Node000010"><a xlink:title=" ">
<polygon fill="#e0e0e0" stroke="#999999" points="221.71,-19.25 173.46,-19.25 173.46,0 221.71,0 221.71,-19.25"/>
<text text-anchor="middle" x="197.58" y="-5.75" font-family="Helvetica,sans-Serif" font-size="10.00">stdint.h</text>
</a>
</g>
</g>
<!-- Node8&#45;&gt;Node10 -->
<g id="edge9_Node000008_Node000010" class="edge">
<title>Node8&#45;&gt;Node10</title>
<g id="a_edge9_Node000008_Node000010"><a xlink:title=" ">
<path fill="none" stroke="#63b8ff" d="M197.58,-55.08C197.58,-48.57 197.58,-39.42 197.58,-31.12"/>
<polygon fill="#63b8ff" stroke="#63b8ff" points="201.08,-31.12 197.58,-21.12 194.08,-31.12 201.08,-31.12"/>
</a>
</g>
</g>
<!-- Node11 -->
<g id="Node000011" class="node">
<title>Node11</title>
<g id="a_Node000011"><a xlink:title=" ">
<polygon fill="#e0e0e0" stroke="#999999" points="295.46,-19.25 239.71,-19.25 239.71,0 295.46,0 295.46,-19.25"/>
<text text-anchor="middle" x="267.58" y="-5.75" font-family="Helvetica,sans-Serif" font-size="10.00">stdbool.h</text>
</a>
</g>
</g>
<!-- Node8&#45;&gt;Node11 -->
<g id="edge10_Node000008_Node000011" class="edge">
<title>Node8&#45;&gt;Node11</title>
<g id="a_edge10_Node000008_Node000011"><a xlink:title=" ">
<path fill="none" stroke="#63b8ff" d="M209.46,-54.84C219.68,-47.07 234.66,-35.67 246.85,-26.4"/>
<polygon fill="#63b8ff" stroke="#63b8ff" points="248.84,-29.28 254.68,-20.44 244.6,-23.71 248.84,-29.28"/>
</a>
</g>
</g>
<!-- Node13&#45;&gt;Node8 -->
<g id="edge13_Node000013_Node000008" class="edge">
<title>Node13&#45;&gt;Node8</title>
<g id="a_edge13_Node000013_Node000008"><a xlink:title=" ">
<path fill="none" stroke="#63b8ff" d="M142.51,-220.64C150.01,-203.27 166.73,-163.79 178.58,-129.75 183.71,-115.01 188.71,-98.07 192.3,-85.34"/>
<polygon fill="#63b8ff" stroke="#63b8ff" points="195.56,-86.66 194.85,-76.09 188.81,-84.8 195.56,-86.66"/>
</a>
</g>
</g>
<!-- Node14 -->
<g id="Node000014" class="node">
<title>Node14</title>
<g id="a_Node000014"><a xlink:title=" ">
<polygon fill="#e0e0e0" stroke="#999999" points="283.58,-185 225.58,-185 225.58,-165.75 283.58,-165.75 283.58,-185"/>
<text text-anchor="middle" x="254.58" y="-171.5" font-family="Helvetica,sans-Serif" font-size="10.00">exception</text>
</a>
</g>
</g>
<!-- Node13&#45;&gt;Node14 -->
<g id="edge14_Node000013_Node000014" class="edge">
<title>Node13&#45;&gt;Node14</title>
<g id="a_edge14_Node000013_Node000014"><a xlink:title=" ">
<path fill="none" stroke="#63b8ff" d="M158.26,-220.59C176.43,-212.25 203.67,-199.75 224.55,-190.16"/>
<polygon fill="#63b8ff" stroke="#63b8ff" points="225.81,-193.44 233.43,-186.08 222.89,-187.08 225.81,-193.44"/>
</a>
</g>
</g>
<!-- Node16 -->
<g id="Node000016" class="node">
<title>Node16</title>
<g id="a_Node000016"><a xlink:title=" ">
<polygon fill="#e0e0e0" stroke="#999999" points="546.33,-240.25 492.83,-240.25 492.83,-221 546.33,-221 546.33,-240.25"/>
<text text-anchor="middle" x="519.58" y="-226.75" font-family="Helvetica,sans-Serif" font-size="10.00">iostream</text>
</a>
</g>
</g>
<!-- Node15&#45;&gt;Node16 -->
<g id="edge16_Node000015_Node000016" class="edge">
<title>Node15&#45;&gt;Node16</title>
<g id="a_edge16_Node000015_Node000016"><a xlink:title=" ">
<path fill="none" stroke="#63b8ff" d="M519.58,-276.08C519.58,-269.57 519.58,-260.42 519.58,-252.12"/>
<polygon fill="#63b8ff" stroke="#63b8ff" points="523.08,-252.12 519.58,-242.12 516.08,-252.12 523.08,-252.12"/>
</a>
</g>
</g>
<!-- Node17&#45;&gt;Node6 -->
<g id="edge18_Node000017_Node000006" class="edge">
<title>Node17&#45;&gt;Node6</title>
<g id="a_edge18_Node000017_Node000006"><a xlink:title=" ">
<path fill="none" stroke="#63b8ff" d="M364.27,-220.59C373.29,-212.97 386.42,-201.87 397.27,-192.7"/>
<polygon fill="#63b8ff" stroke="#63b8ff" points="399.52,-195.38 404.9,-186.25 395,-190.03 399.52,-195.38"/>
</a>
</g>
</g>
<!-- Node17&#45;&gt;Node12 -->
<g id="edge19_Node000017_Node000012" class="edge">
<title>Node17&#45;&gt;Node12</title>
<g id="a_edge19_Node000017_Node000012"><a xlink:title=" ">
<path fill="none" stroke="#63b8ff" d="M350.61,-220.83C348.33,-214.09 345.1,-204.52 342.21,-195.99"/>
<polygon fill="#63b8ff" stroke="#63b8ff" points="345.62,-195.15 339.11,-186.79 338.99,-197.39 345.62,-195.15"/>
</a>
</g>
</g>
<!-- Node18&#45;&gt;Node6 -->
<g id="edge21_Node000018_Node000006" class="edge">
<title>Node18&#45;&gt;Node6</title>
<g id="a_edge21_Node000018_Node000006"><a xlink:title=" ">
<path fill="none" stroke="#63b8ff" d="M232.67,-332.59C276.51,-320.62 354.59,-293.01 397.58,-240.25 407.77,-227.75 412.49,-209.94 414.69,-196.29"/>
<polygon fill="#63b8ff" stroke="#63b8ff" points="418.12,-197.07 415.89,-186.71 411.17,-196.2 418.12,-197.07"/>
</a>
</g>
</g>
<!-- Node18&#45;&gt;Node12 -->
<g id="edge22_Node000018_Node000012" class="edge">
<title>Node18&#45;&gt;Node12</title>
<g id="a_edge22_Node000018_Node000012"><a xlink:title=" ">
<path fill="none" stroke="#63b8ff" d="M199.25,-331.17C196.56,-309.58 192.82,-254.03 219.58,-221 228.94,-209.45 261.8,-197.42 290.17,-188.76"/>
<polygon fill="#63b8ff" stroke="#63b8ff" points="291.12,-192.13 299.71,-185.93 289.13,-185.41 291.12,-192.13"/>
</a>
</g>
</g>
<!-- Node19&#45;&gt;Node3 -->
<g id="edge29_Node000019_Node000003" class="edge">
<title>Node19&#45;&gt;Node3</title>
<g id="a_edge29_Node000019_Node000003"><a xlink:title=" ">
<path fill="none" stroke="#63b8ff" d="M234.64,-443.43C277.52,-433.25 350.6,-414.89 359.58,-406 371.17,-394.54 375.76,-376.35 377.54,-362.3"/>
<polygon fill="#63b8ff" stroke="#63b8ff" points="381.02,-362.66 378.38,-352.4 374.05,-362.06 381.02,-362.66"/>
</a>
</g>
</g>
<!-- Node19&#45;&gt;Node18 -->
<g id="edge24_Node000019_Node000018" class="edge">
<title>Node19&#45;&gt;Node18</title>
<g id="a_edge24_Node000019_Node000018"><a xlink:title=" ">
<path fill="none" stroke="#63b8ff" d="M177.01,-441.51C161.03,-434.5 142.02,-423.08 132.58,-406 121.17,-385.35 144.77,-367.51 167.23,-355.98"/>
<polygon fill="#63b8ff" stroke="#63b8ff" points="168.47,-359.27 175.97,-351.79 165.44,-352.96 168.47,-359.27"/>
</a>
</g>
</g>
<!-- Node20 -->
<g id="Node000020" class="node">
<title>Node20</title>
<g id="a_Node000020"><a xlink:href="_buffer_8h.html" target="_top" xlink:title=" ">
<polygon fill="white" stroke="#666666" points="62.46,-185 12.71,-185 12.71,-165.75 62.46,-165.75 62.46,-185"/>
<text text-anchor="middle" x="37.58" y="-171.5" font-family="Helvetica,sans-Serif" font-size="10.00">Buffer.h</text>
</a>
</g>
</g>
<!-- Node19&#45;&gt;Node20 -->
<g id="edge25_Node000019_Node000020" class="edge">
<title>Node19&#45;&gt;Node20</title>
<g id="a_edge25_Node000019_Node000020"><a xlink:title=" ">
<path fill="none" stroke="#63b8ff" d="M172.55,-444.85C124.75,-433.97 38.58,-405.55 38.58,-342.12 38.58,-342.12 38.58,-342.12 38.58,-284.88 38.58,-254.15 38.18,-218.54 37.88,-196.74"/>
<polygon fill="#63b8ff" stroke="#63b8ff" points="41.39,-196.84 37.74,-186.89 34.39,-196.94 41.39,-196.84"/>
</a>
</g>
</g>
<!-- Node22 -->
<g id="Node000022" class="node">
<title>Node22</title>
<g id="a_Node000022"><a xlink:href="_p_e_t_name_8h.html" target="_top" xlink:title=" ">
<polygon fill="white" stroke="#666666" points="244.58,-406 174.58,-406 174.58,-386.75 244.58,-386.75 244.58,-406"/>
<text text-anchor="middle" x="209.58" y="-392.5" font-family="Helvetica,sans-Serif" font-size="10.00">PETName.h</text>
</a>
</g>
</g>
<!-- Node19&#45;&gt;Node22 -->
<g id="edge30_Node000019_Node000022" class="edge">
<title>Node19&#45;&gt;Node22</title>
<g id="a_edge30_Node000019_Node000022"><a xlink:title=" ">
<path fill="none" stroke="#63b8ff" d="M204.57,-441.83C205.32,-435.24 206.36,-425.96 207.31,-417.57"/>
<polygon fill="#63b8ff" stroke="#63b8ff" points="210.76,-418.19 208.4,-407.86 203.8,-417.41 210.76,-418.19"/>
</a>
</g>
</g>
<!-- Node20&#45;&gt;Node8 -->
<g id="edge26_Node000020_Node000008" class="edge">
<title>Node20&#45;&gt;Node8</title>
<g id="a_edge26_Node000020_Node000008"><a xlink:title=" ">
<path fill="none" stroke="#63b8ff" d="M26.89,-165.48C12.6,-152.52 -9.4,-128.09 4.58,-110.5 23.71,-86.45 110.15,-74.23 160.63,-69.05"/>
<polygon fill="#63b8ff" stroke="#63b8ff" points="160.91,-72.54 170.52,-68.08 160.22,-65.57 160.91,-72.54"/>
</a>
</g>
</g>
<!-- Node21 -->
<g id="Node000021" class="node">
<title>Node21</title>
<g id="a_Node000021"><a xlink:href="_checksum_8h.html" target="_top" xlink:title=" ">
<polygon fill="white" stroke="#666666" points="85.33,-129.75 13.83,-129.75 13.83,-110.5 85.33,-110.5 85.33,-129.75"/>
<text text-anchor="middle" x="49.58" y="-116.25" font-family="Helvetica,sans-Serif" font-size="10.00">Checksum.h</text>
</a>
</g>
</g>
<!-- Node20&#45;&gt;Node21 -->
<g id="edge27_Node000020_Node000021" class="edge">
<title>Node20&#45;&gt;Node21</title>
<g id="a_edge27_Node000020_Node000021"><a xlink:title=" ">
<path fill="none" stroke="#63b8ff" d="M39.57,-165.58C41.05,-158.99 43.14,-149.71 45.03,-141.32"/>
<polygon fill="#63b8ff" stroke="#63b8ff" points="48.44,-142.11 47.23,-131.59 41.61,-140.57 48.44,-142.11"/>
</a>
</g>
</g>
<!-- Node21&#45;&gt;Node8 -->
<g id="edge28_Node000021_Node000008" class="edge">
<title>Node21&#45;&gt;Node8</title>
<g id="a_edge28_Node000021_Node000008"><a xlink:title=" ">
<path fill="none" stroke="#63b8ff" d="M74.69,-110.09C98.61,-101.49 134.87,-88.44 161.81,-78.75"/>
<polygon fill="#63b8ff" stroke="#63b8ff" points="162.71,-82.14 170.93,-75.46 160.34,-75.56 162.71,-82.14"/>
</a>
</g>
</g>
<!-- Node22&#45;&gt;Node3 -->
<g id="edge31_Node000022_Node000003" class="edge">
<title>Node22&#45;&gt;Node3</title>
<g id="a_edge31_Node000022_Node000003"><a xlink:title=" ">
<path fill="none" stroke="#63b8ff" d="M238.25,-386.34C265.93,-377.62 308.07,-364.34 338.95,-354.61"/>
<polygon fill="#63b8ff" stroke="#63b8ff" points="339.84,-358 348.33,-351.66 337.74,-351.32 339.84,-358"/>
</a>
</g>
</g>
<!-- Node23 -->
<g id="Node000023" class="node">
<title>Node23</title>
<g id="a_Node000023"><a xlink:href="_mem_utils_8h.html" target="_top" xlink:title=" ">
<polygon fill="white" stroke="#666666" points="146.71,-185 80.46,-185 80.46,-165.75 146.71,-165.75 146.71,-185"/>
<text text-anchor="middle" x="113.58" y="-171.5" font-family="Helvetica,sans-Serif" font-size="10.00">MemUtils.h</text>
</a>
</g>
</g>
<!-- Node22&#45;&gt;Node23 -->
<g id="edge32_Node000022_Node000023" class="edge">
<title>Node22&#45;&gt;Node23</title>
<g id="a_edge32_Node000022_Node000023"><a xlink:title=" ">
<path fill="none" stroke="#63b8ff" d="M197.49,-386.38C186.69,-377.97 170.9,-364.64 159.58,-350.75 123.74,-306.75 110.31,-295.06 95.58,-240.25 91.51,-225.1 96.86,-208 102.76,-195.31"/>
<polygon fill="#63b8ff" stroke="#63b8ff" points="105.68,-197.29 107.17,-186.8 99.47,-194.07 105.68,-197.29"/>
</a>
</g>
</g>
<!-- Node23&#45;&gt;Node8 -->
<g id="edge33_Node000023_Node000008" class="edge">
<title>Node23&#45;&gt;Node8</title>
<g id="a_edge33_Node000023_Node000008"><a xlink:title=" ">
<path fill="none" stroke="#63b8ff" d="M114.37,-165.28C115.91,-152.08 120.33,-127.34 132.58,-110.5 141.74,-97.92 155.57,-87.72 168.12,-80.26"/>
<polygon fill="#63b8ff" stroke="#63b8ff" points="169.45,-83.53 176.48,-75.61 166.04,-77.41 169.45,-83.53"/>
</a>
</g>
</g>
<!-- Node23&#45;&gt;Node21 -->
<g id="edge34_Node000023_Node000021" class="edge">
<title>Node23&#45;&gt;Node21</title>
<g id="a_edge34_Node000023_Node000021"><a xlink:title=" ">
<path fill="none" stroke="#63b8ff" d="M102.73,-165.34C93.48,-157.65 79.96,-146.4 68.87,-137.18"/>
<polygon fill="#63b8ff" stroke="#63b8ff" points="71.37,-134.7 61.44,-130.99 66.89,-140.08 71.37,-134.7"/>
</a>
</g>
</g>
<!-- Node24 -->
<g id="Node000024" class="node">
<title>Node24</title>
<g id="a_Node000024"><a xlink:title=" ">
<polygon fill="#e0e0e0" stroke="#999999" points="169.98,-129.75 141.18,-129.75 141.18,-110.5 169.98,-110.5 169.98,-129.75"/>
<text text-anchor="middle" x="155.58" y="-116.25" font-family="Helvetica,sans-Serif" font-size="10.00">bit</text>
</a>
</g>
</g>
<!-- Node23&#45;&gt;Node24 -->
<g id="edge35_Node000023_Node000024" class="edge">
<title>Node23&#45;&gt;Node24</title>
<g id="a_edge35_Node000023_Node000024"><a xlink:title=" ">
<path fill="none" stroke="#63b8ff" d="M120.52,-165.58C126.2,-158.38 134.42,-147.96 141.48,-139.01"/>
<polygon fill="#63b8ff" stroke="#63b8ff" points="144.12,-141.32 147.56,-131.3 138.62,-136.98 144.12,-141.32"/>
</a>
</g>
</g>
<!-- Node25&#45;&gt;Node6 -->
<g id="edge37_Node000025_Node000006" class="edge">
<title>Node25&#45;&gt;Node6</title>
<g id="a_edge37_Node000025_Node000006"><a xlink:title=" ">
<path fill="none" stroke="#63b8ff" d="M324.6,-443.81C373.42,-432.24 454.58,-403.75 454.58,-342.12 454.58,-342.12 454.58,-342.12 454.58,-284.88 454.58,-251.88 438.74,-216.26 427.51,-195.16"/>
<polygon fill="#63b8ff" stroke="#63b8ff" points="430.68,-193.65 422.76,-186.61 424.56,-197.05 430.68,-193.65"/>
</a>
</g>
</g>
<!-- Node25&#45;&gt;Node18 -->
<g id="edge38_Node000025_Node000018" class="edge">
<title>Node25&#45;&gt;Node18</title>
<g id="a_edge38_Node000025_Node000018"><a xlink:title=" ">
<path fill="none" stroke="#63b8ff" d="M252.53,-442.4C220.04,-434.16 175.85,-420.65 165.58,-406 154.99,-390.88 167.86,-372.23 180.89,-358.99"/>
<polygon fill="#63b8ff" stroke="#63b8ff" points="183.22,-361.6 188.11,-352.2 178.43,-356.5 183.22,-361.6"/>
</a>
</g>
</g>
<!-- Node25&#45;&gt;Node22 -->
<g id="edge39_Node000025_Node000022" class="edge">
<title>Node25&#45;&gt;Node22</title>
<g id="a_edge39_Node000025_Node000022"><a xlink:title=" ">
<path fill="none" stroke="#63b8ff" d="M275.18,-441.59C263.49,-433.71 246.28,-422.11 232.42,-412.77"/>
<polygon fill="#63b8ff" stroke="#63b8ff" points="234.55,-409.99 224.31,-407.3 230.64,-415.79 234.55,-409.99"/>
</a>
</g>
</g>
<!-- Node27 -->
<g id="Node000027" class="node">
<title>Node27</title>
<g id="a_Node000027"><a xlink:href="_any_file_8h.html" target="_top" xlink:title=" ">
<polygon fill="white" stroke="#666666" points="521.21,-461.25 463.96,-461.25 463.96,-442 521.21,-442 521.21,-461.25"/>
<text text-anchor="middle" x="492.58" y="-447.75" font-family="Helvetica,sans-Serif" font-size="10.00">AnyFile.h</text>
</a>
</g>
</g>
<!-- Node26&#45;&gt;Node27 -->
<g id="edge41_Node000026_Node000027" class="edge">
<title>Node26&#45;&gt;Node27</title>
<g id="a_edge41_Node000026_Node000027"><a xlink:title=" ">
<path fill="none" stroke="#63b8ff" d="M423.66,-496.84C436.06,-488.89 454.38,-477.14 469.01,-467.75"/>
<polygon fill="#63b8ff" stroke="#63b8ff" points="470.63,-470.87 477.16,-462.52 466.85,-464.97 470.63,-470.87"/>
</a>
</g>
</g>
<!-- Node27&#45;&gt;Node3 -->
<g id="edge42_Node000027_Node000003" class="edge">
<title>Node27&#45;&gt;Node3</title>
<g id="a_edge42_Node000027_Node000003"><a xlink:title=" ">
<path fill="none" stroke="#63b8ff" d="M483.25,-441.75C464.22,-423.63 420.62,-382.13 396.12,-358.82"/>
<polygon fill="#63b8ff" stroke="#63b8ff" points="398.79,-356.53 389.14,-352.17 393.97,-361.6 398.79,-356.53"/>
</a>
</g>
</g>
<!-- Node27&#45;&gt;Node22 -->
<g id="edge46_Node000027_Node000022" class="edge">
<title>Node27&#45;&gt;Node22</title>
<g id="a_edge46_Node000027_Node000022"><a xlink:title=" ">
<path fill="none" stroke="#63b8ff" d="M463.5,-445.28C420.43,-437.35 336.83,-421.88 255.57,-406.37"/>
<polygon fill="#63b8ff" stroke="#63b8ff" points="256.61,-403 246.13,-404.56 255.29,-409.88 256.61,-403"/>
</a>
</g>
</g>
<!-- Node28 -->
<g id="Node000028" class="node">
<title>Node28</title>
<g id="a_Node000028"><a xlink:href="_file_types_8h.html" target="_top" xlink:title=" ">
<polygon fill="white" stroke="#666666" points="630.71,-240.25 564.46,-240.25 564.46,-221 630.71,-221 630.71,-240.25"/>
<text text-anchor="middle" x="597.58" y="-226.75" font-family="Helvetica,sans-Serif" font-size="10.00">FileTypes.h</text>
</a>
</g>
</g>
<!-- Node27&#45;&gt;Node28 -->
<g id="edge43_Node000027_Node000028" class="edge">
<title>Node27&#45;&gt;Node28</title>
<g id="a_edge43_Node000027_Node000028"><a xlink:title=" ">
<path fill="none" stroke="#63b8ff" d="M494.5,-441.71C497.38,-429.13 503.34,-405.62 511.58,-386.75 530.44,-343.56 543.02,-336.87 565.58,-295.5 573.68,-280.66 582.22,-263.52 588.45,-250.73"/>
<polygon fill="#63b8ff" stroke="#63b8ff" points="591.58,-252.29 592.77,-241.77 585.27,-249.25 591.58,-252.29"/>
</a>
</g>
</g>
<!-- Node29 -->
<g id="Node000029" class="node">
<title>Node29</title>
<g id="a_Node000029"><a xlink:title=" ">
<polygon fill="#e0e0e0" stroke="#999999" points="572.21,-406 520.96,-406 520.96,-386.75 572.21,-386.75 572.21,-406"/>
<text text-anchor="middle" x="546.58" y="-392.5" font-family="Helvetica,sans-Serif" font-size="10.00">sstream</text>
</a>
</g>
</g>
<!-- Node27&#45;&gt;Node29 -->
<g id="edge47_Node000027_Node000029" class="edge">
<title>Node27&#45;&gt;Node29</title>
<g id="a_edge47_Node000027_Node000029"><a xlink:title=" ">
<path fill="none" stroke="#63b8ff" d="M501.5,-441.83C509.04,-434.4 520.05,-423.54 529.31,-414.41"/>
<polygon fill="#63b8ff" stroke="#63b8ff" points="531.73,-416.94 536.4,-407.42 526.82,-411.95 531.73,-416.94"/>
</a>
</g>
</g>
<!-- Node30 -->
<g id="Node000030" class="node">
<title>Node30</title>
<g id="a_Node000030"><a xlink:title=" ">
<polygon fill="#e0e0e0" stroke="#999999" points="639.08,-406 590.08,-406 590.08,-386.75 639.08,-386.75 639.08,-406"/>
<text text-anchor="middle" x="614.58" y="-392.5" font-family="Helvetica,sans-Serif" font-size="10.00">fstream</text>
</a>
</g>
</g>
<!-- Node27&#45;&gt;Node30 -->
<g id="edge48_Node000027_Node000030" class="edge">
<title>Node27&#45;&gt;Node30</title>
<g id="a_edge48_Node000027_Node000030"><a xlink:title=" ">
<path fill="none" stroke="#63b8ff" d="M513.28,-441.59C532.47,-433.22 561.3,-420.63 583.3,-411.03"/>
<polygon fill="#63b8ff" stroke="#63b8ff" points="584.63,-414.27 592.4,-407.06 581.83,-407.85 584.63,-414.27"/>
</a>
</g>
</g>
<!-- Node28&#45;&gt;Node6 -->
<g id="edge44_Node000028_Node000006" class="edge">
<title>Node28&#45;&gt;Node6</title>
<g id="a_edge44_Node000028_Node000006"><a xlink:title=" ">
<path fill="none" stroke="#63b8ff" d="M566.88,-220.59C536.25,-211.58 489.08,-197.7 455.77,-187.9"/>
<polygon fill="#63b8ff" stroke="#63b8ff" points="457.08,-184.64 446.5,-185.18 455.11,-191.36 457.08,-184.64"/>
</a>
</g>
</g>
<!-- Node28&#45;&gt;Node12 -->
<g id="edge45_Node000028_Node000012" class="edge">
<title>Node28&#45;&gt;Node12</title>
<g id="a_edge45_Node000028_Node000012"><a xlink:title=" ">
<path fill="none" stroke="#63b8ff" d="M564.11,-222.74C561.23,-222.15 558.36,-221.57 555.58,-221 495.34,-208.7 425.79,-194.62 381.29,-185.61"/>
<polygon fill="#63b8ff" stroke="#63b8ff" points="382.24,-182.23 371.75,-183.68 380.85,-189.1 382.24,-182.23"/>
</a>
</g>
</g>
<!-- Node31&#45;&gt;Node27 -->
<g id="edge50_Node000031_Node000027" class="edge">
<title>Node31&#45;&gt;Node27</title>
<g id="a_edge50_Node000031_Node000027"><a xlink:title=" ">
<path fill="none" stroke="#63b8ff" d="M498.43,-497.08C497.56,-490.49 496.34,-481.21 495.24,-472.82"/>
<polygon fill="#63b8ff" stroke="#63b8ff" points="498.74,-472.57 493.96,-463.11 491.8,-473.48 498.74,-472.57"/>
</a>
</g>
</g>
<!-- Node32&#45;&gt;Node8 -->
<g id="edge52_Node000032_Node000008" class="edge">
<title>Node32&#45;&gt;Node8</title>
<g id="a_edge52_Node000032_Node000008"><a xlink:title=" ">
<path fill="none" stroke="#63b8ff" d="M783.58,-441.62C783.58,-423.03 783.58,-379.05 783.58,-342.12 783.58,-342.12 783.58,-342.12 783.58,-174.38 783.58,-118.25 362.62,-79.32 234.28,-68.76"/>
<polygon fill="#63b8ff" stroke="#63b8ff" points="234.9,-65.3 224.65,-67.97 234.33,-72.27 234.9,-65.3"/>
</a>
</g>
</g>
<!-- Node32&#45;&gt;Node16 -->
<g id="edge60_Node000032_Node000016" class="edge">
<title>Node32&#45;&gt;Node16</title>
<g id="a_edge60_Node000032_Node000016"><a xlink:title=" ">
<path fill="none" stroke="#63b8ff" d="M756.98,-441.61C736.6,-433.97 708.37,-421.74 686.58,-406 622.67,-359.82 620.79,-332.55 565.58,-276.25 556.45,-266.93 546.03,-256.79 537.42,-248.53"/>
<polygon fill="#63b8ff" stroke="#63b8ff" points="539.98,-246.13 530.33,-241.76 535.15,-251.2 539.98,-246.13"/>
</a>
</g>
</g>
<!-- Node32&#45;&gt;Node29 -->
<g id="edge61_Node000032_Node000029" class="edge">
<title>Node32&#45;&gt;Node29</title>
<g id="a_edge61_Node000032_Node000029"><a xlink:title=" ">
<path fill="none" stroke="#63b8ff" d="M755.76,-444.7C718.75,-436.77 651,-422.09 583.4,-406.38"/>
<polygon fill="#63b8ff" stroke="#63b8ff" points="584.57,-403.06 574.03,-404.19 582.98,-409.88 584.57,-403.06"/>
</a>
</g>
</g>
<!-- Node32&#45;&gt;Node30 -->
<g id="edge58_Node000032_Node000030" class="edge">
<title>Node32&#45;&gt;Node30</title>
<g id="a_edge58_Node000032_Node000030"><a xlink:title=" ">
<path fill="none" stroke="#63b8ff" d="M755.68,-441.83C726.87,-432.76 681.82,-418.56 650.4,-408.66"/>
<polygon fill="#63b8ff" stroke="#63b8ff" points="651.53,-405.35 640.94,-405.68 649.43,-412.02 651.53,-405.35"/>
</a>
</g>
</g>
<!-- Node33 -->
<g id="Node000033" class="node">
<title>Node33</title>
<g id="a_Node000033"><a xlink:href="_string_utils_8h.html" target="_top" xlink:title=" ">
<polygon fill="white" stroke="#666666" points="881.58,-406 811.58,-406 811.58,-386.75 881.58,-386.75 881.58,-406"/>
<text text-anchor="middle" x="846.58" y="-392.5" font-family="Helvetica,sans-Serif" font-size="10.00">StringUtils.h</text>
</a>
</g>
</g>
<!-- Node32&#45;&gt;Node33 -->
<g id="edge53_Node000032_Node000033" class="edge">
<title>Node32&#45;&gt;Node33</title>
<g id="a_edge53_Node000032_Node000033"><a xlink:title=" ">
<path fill="none" stroke="#63b8ff" d="M794.27,-441.59C803.29,-433.97 816.42,-422.87 827.27,-413.7"/>
<polygon fill="#63b8ff" stroke="#63b8ff" points="829.52,-416.38 834.9,-407.25 825,-411.03 829.52,-416.38"/>
</a>
</g>
</g>
<!-- Node32&#45;&gt;Node34 -->
<g id="edge63_Node000032_Node000034" class="edge">
<title>Node32&#45;&gt;Node34</title>
<g id="a_edge63_Node000032_Node000034"><a xlink:title=" ">
<path fill="none" stroke="#63b8ff" d="M811.14,-445.99C835.35,-440.51 869.86,-429.05 890.58,-406 901.36,-394.01 906.04,-376.15 908.06,-362.36"/>
<polygon fill="#63b8ff" stroke="#63b8ff" points="911.52,-362.95 909.11,-352.63 904.56,-362.2 911.52,-362.95"/>
</a>
</g>
</g>
<!-- Node35 -->
<g id="Node000035" class="node">
<title>Node35</title>
<g id="a_Node000035"><a xlink:title=" ">
<polygon fill="#e0e0e0" stroke="#999999" points="981.08,-406 938.08,-406 938.08,-386.75 981.08,-386.75 981.08,-406"/>
<text text-anchor="middle" x="959.58" y="-392.5" font-family="Helvetica,sans-Serif" font-size="10.00">fcntl.h</text>
</a>
</g>
</g>
<!-- Node32&#45;&gt;Node35 -->
<g id="edge56_Node000032_Node000035" class="edge">
<title>Node32&#45;&gt;Node35</title>
<g id="a_edge56_Node000032_Node000035"><a xlink:title=" ">
<path fill="none" stroke="#63b8ff" d="M811.47,-442.19C842.77,-432.72 893.51,-417.37 926.71,-407.32"/>
<polygon fill="#63b8ff" stroke="#63b8ff" points="927.66,-410.69 936.22,-404.44 925.63,-403.99 927.66,-410.69"/>
</a>
</g>
</g>
<!-- Node36 -->
<g id="Node000036" class="node">
<title>Node36</title>
<g id="a_Node000036"><a xlink:title=" ">
<polygon fill="#e0e0e0" stroke="#999999" points="1060.08,-406 999.08,-406 999.08,-386.75 1060.08,-386.75 1060.08,-406"/>
<text text-anchor="middle" x="1029.58" y="-392.5" font-family="Helvetica,sans-Serif" font-size="10.00">filesystem</text>
</a>
</g>
</g>
<!-- Node32&#45;&gt;Node36 -->
<g id="edge57_Node000032_Node000036" class="edge">
<title>Node32&#45;&gt;Node36</title>
<g id="a_edge57_Node000032_Node000036"><a xlink:title=" ">
<path fill="none" stroke="#63b8ff" d="M811.38,-444.68C849.11,-436.6 918.91,-421.62 987.87,-406.58"/>
<polygon fill="#63b8ff" stroke="#63b8ff" points="988.43,-410.05 997.45,-404.49 986.94,-403.21 988.43,-410.05"/>
</a>
</g>
</g>
<!-- Node37 -->
<g id="Node000037" class="node">
<title>Node37</title>
<g id="a_Node000037"><a xlink:title=" ">
<polygon fill="#e0e0e0" stroke="#999999" points="1126.71,-406 1078.46,-406 1078.46,-386.75 1126.71,-386.75 1126.71,-406"/>
<text text-anchor="middle" x="1102.58" y="-392.5" font-family="Helvetica,sans-Serif" font-size="10.00">istream</text>
</a>
</g>
</g>
<!-- Node32&#45;&gt;Node37 -->
<g id="edge59_Node000032_Node000037" class="edge">
<title>Node32&#45;&gt;Node37</title>
<g id="a_edge59_Node000032_Node000037"><a xlink:title=" ">
<path fill="none" stroke="#63b8ff" d="M811.36,-447.24C860.81,-441.01 967.53,-426.65 1066.99,-406.36"/>
<polygon fill="#63b8ff" stroke="#63b8ff" points="1067.57,-409.82 1076.66,-404.36 1066.16,-402.96 1067.57,-409.82"/>
</a>
</g>
</g>
<!-- Node38 -->
<g id="Node000038" class="node">
<title>Node38</title>
<g id="a_Node000038"><a xlink:title=" ">
<polygon fill="#e0e0e0" stroke="#999999" points="755.33,-406 695.83,-406 695.83,-386.75 755.33,-386.75 755.33,-406"/>
<text text-anchor="middle" x="725.58" y="-392.5" font-family="Helvetica,sans-Serif" font-size="10.00">sys/stat.h</text>
</a>
</g>
</g>
<!-- Node32&#45;&gt;Node38 -->
<g id="edge62_Node000032_Node000038" class="edge">
<title>Node32&#45;&gt;Node38</title>
<g id="a_edge62_Node000032_Node000038"><a xlink:title=" ">
<path fill="none" stroke="#63b8ff" d="M773.74,-441.59C765.53,-434.05 753.6,-423.1 743.67,-413.98"/>
<polygon fill="#63b8ff" stroke="#63b8ff" points="746.13,-411.48 736.39,-407.3 741.39,-416.64 746.13,-411.48"/>
</a>
</g>
</g>
<!-- Node33&#45;&gt;Node8 -->
<g id="edge54_Node000033_Node000008" class="edge">
<title>Node33&#45;&gt;Node8</title>
<g id="a_edge54_Node000033_Node000008"><a xlink:title=" ">
<path fill="none" stroke="#63b8ff" d="M844.91,-386.41C841.62,-367.89 834.58,-324.02 834.58,-286.88 834.58,-286.88 834.58,-286.88 834.58,-174.38 834.58,-141.57 825.38,-127.93 797.58,-110.5 749.94,-80.63 357.95,-69.44 234.6,-66.63"/>
<polygon fill="#63b8ff" stroke="#63b8ff" points="234.78,-63.14 224.7,-66.42 234.62,-70.14 234.78,-63.14"/>
</a>
</g>
</g>
<!-- Node33&#45;&gt;Node34 -->
<g id="edge55_Node000033_Node000034" class="edge">
<title>Node33&#45;&gt;Node34</title>
<g id="a_edge55_Node000033_Node000034"><a xlink:title=" ">
<path fill="none" stroke="#63b8ff" d="M857.27,-386.34C866.29,-378.72 879.42,-367.62 890.27,-358.45"/>
<polygon fill="#63b8ff" stroke="#63b8ff" points="892.52,-361.13 897.9,-352 888,-355.78 892.52,-361.13"/>
</a>
</g>
</g>
</g>
</svg>
