<?xml version="1.0" encoding="UTF-8" standalone="no"?>
<!DOCTYPE svg PUBLIC "-//W3C//DTD SVG 1.1//EN"
 "http://www.w3.org/Graphics/SVG/1.1/DTD/svg11.dtd">
<!-- Generated by graphviz version 10.0.1 (20240210.2158)
 -->
<!-- Title: /Users/hoff/Retro/virtualc64/Emulator/Cartridges/FlashRom.cpp Pages: 1 -->
<svg width="1475pt" height="702pt"
 viewBox="0.00 0.00 1475.12 701.50" xmlns="http://www.w3.org/2000/svg" xmlns:xlink="http://www.w3.org/1999/xlink">
<g id="graph0" class="graph" transform="scale(1 1) rotate(0) translate(4 697.5)">
<title>/Users/hoff/Retro/virtualc64/Emulator/Cartridges/FlashRom.cpp</title>
<!-- Node1 -->
<g id="Node000001" class="node">
<title>Node1</title>
<g id="a_Node000001"><a xlink:title=" ">
<polygon fill="#999999" stroke="#666666" points="321.5,-693.5 148.75,-693.5 148.75,-663 321.5,-663 321.5,-693.5"/>
<text text-anchor="start" x="156.75" y="-680" font-family="Helvetica,sans-Serif" font-size="10.00">/Users/hoff/Retro/virtualc64</text>
<text text-anchor="middle" x="235.12" y="-668.75" font-family="Helvetica,sans-Serif" font-size="10.00">/Emulator/Cartridges/FlashRom.cpp</text>
</a>
</g>
</g>
<!-- Node2 -->
<g id="Node000002" class="node">
<title>Node2</title>
<g id="a_Node000002"><a xlink:href="config_8h.html" target="_top" xlink:title=" ">
<polygon fill="white" stroke="#666666" points="170.38,-627 119.88,-627 119.88,-607.75 170.38,-607.75 170.38,-627"/>
<text text-anchor="middle" x="145.12" y="-613.5" font-family="Helvetica,sans-Serif" font-size="10.00">config.h</text>
</a>
</g>
</g>
<!-- Node1&#45;&gt;Node2 -->
<g id="edge1_Node000001_Node000002" class="edge">
<title>Node1&#45;&gt;Node2</title>
<g id="a_edge1_Node000001_Node000002"><a xlink:title=" ">
<path fill="none" stroke="#63b8ff" d="M212.88,-662.7C199.31,-653.82 181.99,-642.49 168.26,-633.51"/>
<polygon fill="#63b8ff" stroke="#63b8ff" points="170.55,-630.83 160.27,-628.28 166.72,-636.68 170.55,-630.83"/>
</a>
</g>
</g>
<!-- Node4 -->
<g id="Node000004" class="node">
<title>Node4</title>
<g id="a_Node000004"><a xlink:href="_flash_rom_8h.html" target="_top" xlink:title=" ">
<polygon fill="white" stroke="#666666" points="269.75,-627 200.5,-627 200.5,-607.75 269.75,-607.75 269.75,-627"/>
<text text-anchor="middle" x="235.12" y="-613.5" font-family="Helvetica,sans-Serif" font-size="10.00">FlashRom.h</text>
</a>
</g>
</g>
<!-- Node1&#45;&gt;Node4 -->
<g id="edge3_Node000001_Node000004" class="edge">
<title>Node1&#45;&gt;Node4</title>
<g id="a_edge3_Node000001_Node000004"><a xlink:title=" ">
<path fill="none" stroke="#63b8ff" d="M235.12,-662.7C235.12,-655.46 235.12,-646.59 235.12,-638.69"/>
<polygon fill="#63b8ff" stroke="#63b8ff" points="238.63,-638.96 235.13,-628.96 231.63,-638.96 238.63,-638.96"/>
</a>
</g>
</g>
<!-- Node33 -->
<g id="Node000033" class="node">
<title>Node33</title>
<g id="a_Node000033"><a xlink:href="_i_o_utils_8h.html" target="_top" xlink:title=" ">
<polygon fill="white" stroke="#666666" points="1130.62,-350.75 1075.62,-350.75 1075.62,-331.5 1130.62,-331.5 1130.62,-350.75"/>
<text text-anchor="middle" x="1103.12" y="-337.25" font-family="Helvetica,sans-Serif" font-size="10.00">IOUtils.h</text>
</a>
</g>
</g>
<!-- Node1&#45;&gt;Node33 -->
<g id="edge71_Node000001_Node000033" class="edge">
<title>Node1&#45;&gt;Node33</title>
<g id="a_edge71_Node000001_Node000033"><a xlink:title=" ">
<path fill="none" stroke="#63b8ff" d="M321.97,-672.37C512.86,-660.48 952.12,-626.27 952.12,-563.12 952.12,-563.12 952.12,-563.12 952.12,-450.62 952.12,-395.27 1019.87,-365.39 1064.61,-351.7"/>
<polygon fill="#63b8ff" stroke="#63b8ff" points="1065.35,-355.13 1073.98,-348.98 1063.4,-348.4 1065.35,-355.13"/>
</a>
</g>
</g>
<!-- Node3 -->
<g id="Node000003" class="node">
<title>Node3</title>
<g id="a_Node000003"><a xlink:title=" ">
<polygon fill="#e0e0e0" stroke="#999999" points="157.75,-571.75 106.5,-571.75 106.5,-552.5 157.75,-552.5 157.75,-571.75"/>
<text text-anchor="middle" x="132.12" y="-558.25" font-family="Helvetica,sans-Serif" font-size="10.00">assert.h</text>
</a>
</g>
</g>
<!-- Node2&#45;&gt;Node3 -->
<g id="edge2_Node000002_Node000003" class="edge">
<title>Node2&#45;&gt;Node3</title>
<g id="a_edge2_Node000002_Node000003"><a xlink:title=" ">
<path fill="none" stroke="#63b8ff" d="M142.98,-607.58C141.35,-600.92 139.05,-591.49 136.98,-583.03"/>
<polygon fill="#63b8ff" stroke="#63b8ff" points="140.45,-582.46 134.68,-573.58 133.65,-584.12 140.45,-582.46"/>
</a>
</g>
</g>
<!-- Node5 -->
<g id="Node000005" class="node">
<title>Node5</title>
<g id="a_Node000005"><a xlink:href="_sub_component_8h.html" target="_top" xlink:title=" ">
<polygon fill="white" stroke="#666666" points="306,-571.75 214.25,-571.75 214.25,-552.5 306,-552.5 306,-571.75"/>
<text text-anchor="middle" x="260.12" y="-558.25" font-family="Helvetica,sans-Serif" font-size="10.00">SubComponent.h</text>
</a>
</g>
</g>
<!-- Node4&#45;&gt;Node5 -->
<g id="edge4_Node000004_Node000005" class="edge">
<title>Node4&#45;&gt;Node5</title>
<g id="a_edge4_Node000004_Node000005"><a xlink:title=" ">
<path fill="none" stroke="#63b8ff" d="M239.25,-607.58C242.45,-600.76 247.01,-591.06 251.05,-582.45"/>
<polygon fill="#63b8ff" stroke="#63b8ff" points="254.18,-584.02 255.26,-573.48 247.85,-581.04 254.18,-584.02"/>
</a>
</g>
</g>
<!-- Node47 -->
<g id="Node000047" class="node">
<title>Node47</title>
<g id="a_Node000047"><a xlink:href="_cartridge_types_8h.html" target="_top" xlink:title=" ">
<polygon fill="white" stroke="#666666" points="218.25,-240.25 128,-240.25 128,-221 218.25,-221 218.25,-240.25"/>
<text text-anchor="middle" x="173.12" y="-226.75" font-family="Helvetica,sans-Serif" font-size="10.00">CartridgeTypes.h</text>
</a>
</g>
</g>
<!-- Node4&#45;&gt;Node47 -->
<g id="edge68_Node000004_Node000047" class="edge">
<title>Node4&#45;&gt;Node47</title>
<g id="a_edge68_Node000004_Node000047"><a xlink:title=" ">
<path fill="none" stroke="#63b8ff" d="M227.89,-607.42C214.26,-589.61 186.12,-547.97 186.12,-507.88 186.12,-507.88 186.12,-507.88 186.12,-340.12 186.12,-309.19 180.85,-273.64 177.02,-251.9"/>
<polygon fill="#63b8ff" stroke="#63b8ff" points="180.46,-251.27 175.21,-242.07 173.58,-252.54 180.46,-251.27"/>
</a>
</g>
</g>
<!-- Node6 -->
<g id="Node000006" class="node">
<title>Node6</title>
<g id="a_Node000006"><a xlink:href="_core_component_8h.html" target="_top" xlink:title=" ">
<polygon fill="white" stroke="#666666" points="607.88,-516.5 512.38,-516.5 512.38,-497.25 607.88,-497.25 607.88,-516.5"/>
<text text-anchor="middle" x="560.12" y="-503" font-family="Helvetica,sans-Serif" font-size="10.00">CoreComponent.h</text>
</a>
</g>
</g>
<!-- Node5&#45;&gt;Node6 -->
<g id="edge5_Node000005_Node000006" class="edge">
<title>Node5&#45;&gt;Node6</title>
<g id="a_edge5_Node000005_Node000006"><a xlink:title=" ">
<path fill="none" stroke="#63b8ff" d="M306.34,-552.92C358.66,-543.64 444,-528.49 501.09,-518.35"/>
<polygon fill="#63b8ff" stroke="#63b8ff" points="501.39,-521.85 510.63,-516.66 500.17,-514.96 501.39,-521.85"/>
</a>
</g>
</g>
<!-- Node45 -->
<g id="Node000045" class="node">
<title>Node45</title>
<g id="a_Node000045"><a xlink:href="_c_p_u_types_8h.html" target="_top" xlink:title=" ">
<polygon fill="white" stroke="#666666" points="72.25,-240.25 0,-240.25 0,-221 72.25,-221 72.25,-240.25"/>
<text text-anchor="middle" x="36.12" y="-226.75" font-family="Helvetica,sans-Serif" font-size="10.00">CPUTypes.h</text>
</a>
</g>
</g>
<!-- Node5&#45;&gt;Node45 -->
<g id="edge63_Node000005_Node000045" class="edge">
<title>Node5&#45;&gt;Node45</title>
<g id="a_edge63_Node000005_Node000045"><a xlink:title=" ">
<path fill="none" stroke="#63b8ff" d="M248.14,-552.3C219.25,-529.9 148.12,-467.64 148.12,-397.38 148.12,-397.38 148.12,-397.38 148.12,-340.12 148.12,-295.18 101.01,-262.89 67.9,-245.75"/>
<polygon fill="#63b8ff" stroke="#63b8ff" points="69.59,-242.69 59.08,-241.39 66.49,-248.96 69.59,-242.69"/>
</a>
</g>
</g>
<!-- Node7 -->
<g id="Node000007" class="node">
<title>Node7</title>
<g id="a_Node000007"><a xlink:href="_emulator_types_8h.html" target="_top" xlink:title=" ">
<polygon fill="white" stroke="#666666" points="353.88,-295.5 264.38,-295.5 264.38,-276.25 353.88,-276.25 353.88,-295.5"/>
<text text-anchor="middle" x="309.12" y="-282" font-family="Helvetica,sans-Serif" font-size="10.00">EmulatorTypes.h</text>
</a>
</g>
</g>
<!-- Node6&#45;&gt;Node7 -->
<g id="edge6_Node000006_Node000007" class="edge">
<title>Node6&#45;&gt;Node7</title>
<g id="a_edge6_Node000006_Node000007"><a xlink:title=" ">
<path fill="none" stroke="#63b8ff" d="M541.39,-496.79C524.11,-488.21 497.92,-474.68 476.12,-461.25 439.96,-438.96 428.54,-435.66 398.12,-406 365.76,-374.45 336.03,-330.33 320.48,-305.6"/>
<polygon fill="#63b8ff" stroke="#63b8ff" points="323.57,-303.94 315.34,-297.28 317.62,-307.63 323.57,-303.94"/>
</a>
</g>
</g>
<!-- Node15 -->
<g id="Node000015" class="node">
<title>Node15</title>
<g id="a_Node000015"><a xlink:href="_thread_types_8h.html" target="_top" xlink:title=" ">
<polygon fill="white" stroke="#666666" points="316.38,-240.25 235.88,-240.25 235.88,-221 316.38,-221 316.38,-240.25"/>
<text text-anchor="middle" x="276.12" y="-226.75" font-family="Helvetica,sans-Serif" font-size="10.00">ThreadTypes.h</text>
</a>
</g>
</g>
<!-- Node6&#45;&gt;Node15 -->
<g id="edge61_Node000006_Node000015" class="edge">
<title>Node6&#45;&gt;Node15</title>
<g id="a_edge61_Node000006_Node000015"><a xlink:title=" ">
<path fill="none" stroke="#63b8ff" d="M512.12,-504.8C436.62,-502.15 294.8,-492.97 257.12,-461.25 234.26,-442.01 236.12,-427.26 236.12,-397.38 236.12,-397.38 236.12,-397.38 236.12,-340.12 236.12,-306.94 252.8,-271.38 264.62,-250.34"/>
<polygon fill="#63b8ff" stroke="#63b8ff" points="267.58,-252.2 269.63,-241.81 261.55,-248.66 267.58,-252.2"/>
</a>
</g>
</g>
<!-- Node16 -->
<g id="Node000016" class="node">
<title>Node16</title>
<g id="a_Node000016"><a xlink:href="_core_object_8h.html" target="_top" xlink:title=" ">
<polygon fill="white" stroke="#666666" points="791,-350.75 717.25,-350.75 717.25,-331.5 791,-331.5 791,-350.75"/>
<text text-anchor="middle" x="754.12" y="-337.25" font-family="Helvetica,sans-Serif" font-size="10.00">CoreObject.h</text>
</a>
</g>
</g>
<!-- Node6&#45;&gt;Node16 -->
<g id="edge17_Node000006_Node000016" class="edge">
<title>Node6&#45;&gt;Node16</title>
<g id="a_edge17_Node000006_Node000016"><a xlink:title=" ">
<path fill="none" stroke="#63b8ff" d="M608.13,-502.89C665.45,-498.22 756.22,-486.89 777.12,-461.25 800.77,-432.25 780.53,-386.14 765.92,-360.63"/>
<polygon fill="#63b8ff" stroke="#63b8ff" points="769.09,-359.12 760.93,-352.36 763.1,-362.73 769.09,-359.12"/>
</a>
</g>
</g>
<!-- Node23 -->
<g id="Node000023" class="node">
<title>Node23</title>
<g id="a_Node000023"><a xlink:href="_synchronizable_8h.html" target="_top" xlink:title=" ">
<polygon fill="white" stroke="#666666" points="643.62,-406 552.62,-406 552.62,-386.75 643.62,-386.75 643.62,-406"/>
<text text-anchor="middle" x="598.12" y="-392.5" font-family="Helvetica,sans-Serif" font-size="10.00">Synchronizable.h</text>
</a>
</g>
</g>
<!-- Node6&#45;&gt;Node23 -->
<g id="edge27_Node000006_Node000023" class="edge">
<title>Node6&#45;&gt;Node23</title>
<g id="a_edge27_Node000006_Node000023"><a xlink:title=" ">
<path fill="none" stroke="#63b8ff" d="M563.23,-497C569.3,-479.67 582.85,-440.98 591.17,-417.24"/>
<polygon fill="#63b8ff" stroke="#63b8ff" points="594.47,-418.4 594.47,-407.81 587.86,-416.09 594.47,-418.4"/>
</a>
</g>
</g>
<!-- Node24 -->
<g id="Node000024" class="node">
<title>Node24</title>
<g id="a_Node000024"><a xlink:href="_concurrency_8h.html" target="_top" xlink:title=" ">
<polygon fill="white" stroke="#666666" points="651.25,-350.75 573,-350.75 573,-331.5 651.25,-331.5 651.25,-350.75"/>
<text text-anchor="middle" x="612.12" y="-337.25" font-family="Helvetica,sans-Serif" font-size="10.00">Concurrency.h</text>
</a>
</g>
</g>
<!-- Node6&#45;&gt;Node24 -->
<g id="edge58_Node000006_Node000024" class="edge">
<title>Node6&#45;&gt;Node24</title>
<g id="a_edge58_Node000006_Node000024"><a xlink:title=" ">
<path fill="none" stroke="#63b8ff" d="M573.56,-496.75C595.21,-481.15 636.99,-447.01 653.12,-406 659.97,-388.6 646.63,-370.86 633.38,-358.51"/>
<polygon fill="#63b8ff" stroke="#63b8ff" points="635.91,-356.07 626.04,-352.21 631.35,-361.38 635.91,-356.07"/>
</a>
</g>
</g>
<!-- Node29 -->
<g id="Node000029" class="node">
<title>Node29</title>
<g id="a_Node000029"><a xlink:href="_serializable_8h.html" target="_top" xlink:title=" ">
<polygon fill="white" stroke="#666666" points="768.38,-461.25 693.88,-461.25 693.88,-442 768.38,-442 768.38,-461.25"/>
<text text-anchor="middle" x="731.12" y="-447.75" font-family="Helvetica,sans-Serif" font-size="10.00">Serializable.h</text>
</a>
</g>
</g>
<!-- Node6&#45;&gt;Node29 -->
<g id="edge34_Node000006_Node000029" class="edge">
<title>Node6&#45;&gt;Node29</title>
<g id="a_edge34_Node000006_Node000029"><a xlink:title=" ">
<path fill="none" stroke="#63b8ff" d="M589.13,-496.84C617.14,-488.12 659.78,-474.84 691.03,-465.11"/>
<polygon fill="#63b8ff" stroke="#63b8ff" points="692.02,-468.47 700.53,-462.15 689.94,-461.78 692.02,-468.47"/>
</a>
</g>
</g>
<!-- Node30 -->
<g id="Node000030" class="node">
<title>Node30</title>
<g id="a_Node000030"><a xlink:href="_configurable_8h.html" target="_top" xlink:title=" ">
<polygon fill="white" stroke="#666666" points="563.62,-461.25 484.62,-461.25 484.62,-442 563.62,-442 563.62,-461.25"/>
<text text-anchor="middle" x="524.12" y="-447.75" font-family="Helvetica,sans-Serif" font-size="10.00">Configurable.h</text>
</a>
</g>
</g>
<!-- Node6&#45;&gt;Node30 -->
<g id="edge35_Node000006_Node000030" class="edge">
<title>Node6&#45;&gt;Node30</title>
<g id="a_edge35_Node000006_Node000030"><a xlink:title=" ">
<path fill="none" stroke="#63b8ff" d="M554.18,-497.08C549.41,-490.03 542.56,-479.9 536.6,-471.08"/>
<polygon fill="#63b8ff" stroke="#63b8ff" points="539.55,-469.19 531.05,-462.86 533.75,-473.11 539.55,-469.19"/>
</a>
</g>
</g>
<!-- Node35 -->
<g id="Node000035" class="node">
<title>Node35</title>
<g id="a_Node000035"><a xlink:title=" ">
<polygon fill="#e0e0e0" stroke="#999999" points="1412.62,-240.25 1369.62,-240.25 1369.62,-221 1412.62,-221 1412.62,-240.25"/>
<text text-anchor="middle" x="1391.12" y="-226.75" font-family="Helvetica,sans-Serif" font-size="10.00">vector</text>
</a>
</g>
</g>
<!-- Node6&#45;&gt;Node35 -->
<g id="edge62_Node000006_Node000035" class="edge">
<title>Node6&#45;&gt;Node35</title>
<g id="a_edge62_Node000006_Node000035"><a xlink:title=" ">
<path fill="none" stroke="#63b8ff" d="M608.08,-504.98C790.26,-500.93 1429.12,-480.81 1429.12,-397.38 1429.12,-397.38 1429.12,-397.38 1429.12,-340.12 1429.12,-307.13 1413.28,-271.51 1402.06,-250.41"/>
<polygon fill="#63b8ff" stroke="#63b8ff" points="1405.22,-248.9 1397.3,-241.86 1399.1,-252.3 1405.22,-248.9"/>
</a>
</g>
</g>
<!-- Node43 -->
<g id="Node000043" class="node">
<title>Node43</title>
<g id="a_Node000043"><a xlink:href="_suspendable_8h.html" target="_top" xlink:title=" ">
<polygon fill="white" stroke="#666666" points="346.38,-461.25 265.88,-461.25 265.88,-442 346.38,-442 346.38,-461.25"/>
<text text-anchor="middle" x="306.12" y="-447.75" font-family="Helvetica,sans-Serif" font-size="10.00">Suspendable.h</text>
</a>
</g>
</g>
<!-- Node6&#45;&gt;Node43 -->
<g id="edge59_Node000006_Node000043" class="edge">
<title>Node6&#45;&gt;Node43</title>
<g id="a_edge59_Node000006_Node000043"><a xlink:title=" ">
<path fill="none" stroke="#63b8ff" d="M516.75,-496.78C472.77,-487.56 404.7,-473.29 357.92,-463.48"/>
<polygon fill="#63b8ff" stroke="#63b8ff" points="358.79,-460.09 348.28,-461.46 357.35,-466.94 358.79,-460.09"/>
</a>
</g>
</g>
<!-- Node8 -->
<g id="Node000008" class="node">
<title>Node8</title>
<g id="a_Node000008"><a xlink:href="_aliases_8h.html" target="_top" xlink:title=" ">
<polygon fill="white" stroke="#666666" points="298.38,-185 241.88,-185 241.88,-165.75 298.38,-165.75 298.38,-185"/>
<text text-anchor="middle" x="270.12" y="-171.5" font-family="Helvetica,sans-Serif" font-size="10.00">Aliases.h</text>
</a>
</g>
</g>
<!-- Node7&#45;&gt;Node8 -->
<g id="edge7_Node000007_Node000008" class="edge">
<title>Node7&#45;&gt;Node8</title>
<g id="a_edge7_Node000007_Node000008"><a xlink:title=" ">
<path fill="none" stroke="#63b8ff" d="M263.92,-280.64C213.56,-274.88 136.85,-262.62 119.12,-240.25 87.19,-199.95 175.52,-184.72 230.28,-179.24"/>
<polygon fill="#63b8ff" stroke="#63b8ff" points="230.26,-182.76 239.9,-178.36 229.62,-175.79 230.26,-182.76"/>
</a>
</g>
</g>
<!-- Node14 -->
<g id="Node000014" class="node">
<title>Node14</title>
<g id="a_Node000014"><a xlink:href="_reflection_8h.html" target="_top" xlink:title=" ">
<polygon fill="white" stroke="#666666" points="385.38,-185 316.88,-185 316.88,-165.75 385.38,-165.75 385.38,-185"/>
<text text-anchor="middle" x="351.12" y="-171.5" font-family="Helvetica,sans-Serif" font-size="10.00">Reflection.h</text>
</a>
</g>
</g>
<!-- Node7&#45;&gt;Node14 -->
<g id="edge13_Node000007_Node000014" class="edge">
<title>Node7&#45;&gt;Node14</title>
<g id="a_edge13_Node000007_Node000014"><a xlink:title=" ">
<path fill="none" stroke="#63b8ff" d="M312.56,-276C319.3,-258.59 334.38,-219.62 343.56,-195.91"/>
<polygon fill="#63b8ff" stroke="#63b8ff" points="346.75,-197.38 347.09,-186.79 340.22,-194.85 346.75,-197.38"/>
</a>
</g>
</g>
<!-- Node7&#45;&gt;Node15 -->
<g id="edge14_Node000007_Node000015" class="edge">
<title>Node7&#45;&gt;Node15</title>
<g id="a_edge14_Node000007_Node000015"><a xlink:title=" ">
<path fill="none" stroke="#63b8ff" d="M303.68,-276.08C299.35,-269.11 293.16,-259.12 287.74,-250.37"/>
<polygon fill="#63b8ff" stroke="#63b8ff" points="290.73,-248.55 282.49,-241.9 284.78,-252.24 290.73,-248.55"/>
</a>
</g>
</g>
<!-- Node9 -->
<g id="Node000009" class="node">
<title>Node9</title>
<g id="a_Node000009"><a xlink:href="_macros_8h.html" target="_top" xlink:title=" ">
<polygon fill="white" stroke="#666666" points="546.38,-129.75 489.88,-129.75 489.88,-110.5 546.38,-110.5 546.38,-129.75"/>
<text text-anchor="middle" x="518.12" y="-116.25" font-family="Helvetica,sans-Serif" font-size="10.00">Macros.h</text>
</a>
</g>
</g>
<!-- Node8&#45;&gt;Node9 -->
<g id="edge8_Node000008_Node000009" class="edge">
<title>Node8&#45;&gt;Node9</title>
<g id="a_edge8_Node000008_Node000009"><a xlink:title=" ">
<path fill="none" stroke="#63b8ff" d="M298.75,-167.83C301.91,-167.12 305.09,-166.42 308.12,-165.75 367.36,-152.74 436.12,-138.24 478.38,-129.4"/>
<polygon fill="#63b8ff" stroke="#63b8ff" points="479.01,-132.84 488.08,-127.37 477.58,-125.99 479.01,-132.84"/>
</a>
</g>
</g>
<!-- Node10 -->
<g id="Node000010" class="node">
<title>Node10</title>
<g id="a_Node000010"><a xlink:href="_types_8h.html" target="_top" xlink:title=" ">
<polygon fill="white" stroke="#666666" points="726.38,-74.5 675.88,-74.5 675.88,-55.25 726.38,-55.25 726.38,-74.5"/>
<text text-anchor="middle" x="701.12" y="-61" font-family="Helvetica,sans-Serif" font-size="10.00">Types.h</text>
</a>
</g>
</g>
<!-- Node9&#45;&gt;Node10 -->
<g id="edge9_Node000009_Node000010" class="edge">
<title>Node9&#45;&gt;Node10</title>
<g id="a_edge9_Node000009_Node000010"><a xlink:title=" ">
<path fill="none" stroke="#63b8ff" d="M546.72,-110.8C578.56,-101.54 630.09,-86.54 664.77,-76.45"/>
<polygon fill="#63b8ff" stroke="#63b8ff" points="665.31,-79.94 673.94,-73.79 663.36,-73.22 665.31,-79.94"/>
</a>
</g>
</g>
<!-- Node11 -->
<g id="Node000011" class="node">
<title>Node11</title>
<g id="a_Node000011"><a xlink:title=" ">
<polygon fill="#e0e0e0" stroke="#999999" points="658.62,-19.25 591.62,-19.25 591.62,0 658.62,0 658.62,-19.25"/>
<text text-anchor="middle" x="625.12" y="-5.75" font-family="Helvetica,sans-Serif" font-size="10.00">sys/types.h</text>
</a>
</g>
</g>
<!-- Node10&#45;&gt;Node11 -->
<g id="edge10_Node000010_Node000011" class="edge">
<title>Node10&#45;&gt;Node11</title>
<g id="a_edge10_Node000010_Node000011"><a xlink:title=" ">
<path fill="none" stroke="#63b8ff" d="M688.23,-54.84C677.1,-47.04 660.75,-35.59 647.49,-26.29"/>
<polygon fill="#63b8ff" stroke="#63b8ff" points="649.52,-23.44 639.32,-20.57 645.5,-29.18 649.52,-23.44"/>
</a>
</g>
</g>
<!-- Node12 -->
<g id="Node000012" class="node">
<title>Node12</title>
<g id="a_Node000012"><a xlink:title=" ">
<polygon fill="#e0e0e0" stroke="#999999" points="725.25,-19.25 677,-19.25 677,0 725.25,0 725.25,-19.25"/>
<text text-anchor="middle" x="701.12" y="-5.75" font-family="Helvetica,sans-Serif" font-size="10.00">stdint.h</text>
</a>
</g>
</g>
<!-- Node10&#45;&gt;Node12 -->
<g id="edge11_Node000010_Node000012" class="edge">
<title>Node10&#45;&gt;Node12</title>
<g id="a_edge11_Node000010_Node000012"><a xlink:title=" ">
<path fill="none" stroke="#63b8ff" d="M701.12,-55.08C701.12,-48.57 701.12,-39.42 701.12,-31.12"/>
<polygon fill="#63b8ff" stroke="#63b8ff" points="704.63,-31.12 701.13,-21.12 697.63,-31.12 704.63,-31.12"/>
</a>
</g>
</g>
<!-- Node13 -->
<g id="Node000013" class="node">
<title>Node13</title>
<g id="a_Node000013"><a xlink:title=" ">
<polygon fill="#e0e0e0" stroke="#999999" points="799,-19.25 743.25,-19.25 743.25,0 799,0 799,-19.25"/>
<text text-anchor="middle" x="771.12" y="-5.75" font-family="Helvetica,sans-Serif" font-size="10.00">stdbool.h</text>
</a>
</g>
</g>
<!-- Node10&#45;&gt;Node13 -->
<g id="edge12_Node000010_Node000013" class="edge">
<title>Node10&#45;&gt;Node13</title>
<g id="a_edge12_Node000010_Node000013"><a xlink:title=" ">
<path fill="none" stroke="#63b8ff" d="M713,-54.84C723.22,-47.07 738.2,-35.67 750.39,-26.4"/>
<polygon fill="#63b8ff" stroke="#63b8ff" points="752.38,-29.28 758.22,-20.44 748.14,-23.71 752.38,-29.28"/>
</a>
</g>
</g>
<!-- Node15&#45;&gt;Node8 -->
<g id="edge15_Node000015_Node000008" class="edge">
<title>Node15&#45;&gt;Node8</title>
<g id="a_edge15_Node000015_Node000008"><a xlink:title=" ">
<path fill="none" stroke="#63b8ff" d="M275.13,-220.83C274.39,-214.24 273.35,-204.96 272.4,-196.57"/>
<polygon fill="#63b8ff" stroke="#63b8ff" points="275.9,-196.41 271.31,-186.86 268.95,-197.19 275.9,-196.41"/>
</a>
</g>
</g>
<!-- Node15&#45;&gt;Node14 -->
<g id="edge16_Node000015_Node000014" class="edge">
<title>Node15&#45;&gt;Node14</title>
<g id="a_edge16_Node000015_Node000014"><a xlink:title=" ">
<path fill="none" stroke="#63b8ff" d="M288.85,-220.59C299.84,-212.79 315.97,-201.34 329.06,-192.04"/>
<polygon fill="#63b8ff" stroke="#63b8ff" points="330.98,-194.97 337.11,-186.33 326.93,-189.26 330.98,-194.97"/>
</a>
</g>
</g>
<!-- Node17 -->
<g id="Node000017" class="node">
<title>Node17</title>
<g id="a_Node000017"><a xlink:href="_error_8h.html" target="_top" xlink:title=" ">
<polygon fill="white" stroke="#666666" points="723.38,-295.5 678.88,-295.5 678.88,-276.25 723.38,-276.25 723.38,-295.5"/>
<text text-anchor="middle" x="701.12" y="-282" font-family="Helvetica,sans-Serif" font-size="10.00">Error.h</text>
</a>
</g>
</g>
<!-- Node16&#45;&gt;Node17 -->
<g id="edge18_Node000016_Node000017" class="edge">
<title>Node16&#45;&gt;Node17</title>
<g id="a_edge18_Node000016_Node000017"><a xlink:title=" ">
<path fill="none" stroke="#63b8ff" d="M745.37,-331.33C737.98,-323.9 727.16,-313.04 718.08,-303.91"/>
<polygon fill="#63b8ff" stroke="#63b8ff" points="720.67,-301.55 711.13,-296.93 715.71,-306.49 720.67,-301.55"/>
</a>
</g>
</g>
<!-- Node21 -->
<g id="Node000021" class="node">
<title>Node21</title>
<g id="a_Node000021"><a xlink:href="_inspectable_8h.html" target="_top" xlink:title=" ">
<polygon fill="white" stroke="#666666" points="816.38,-295.5 741.88,-295.5 741.88,-276.25 816.38,-276.25 816.38,-295.5"/>
<text text-anchor="middle" x="779.12" y="-282" font-family="Helvetica,sans-Serif" font-size="10.00">Inspectable.h</text>
</a>
</g>
</g>
<!-- Node16&#45;&gt;Node21 -->
<g id="edge25_Node000016_Node000021" class="edge">
<title>Node16&#45;&gt;Node21</title>
<g id="a_edge25_Node000016_Node000021"><a xlink:title=" ">
<path fill="none" stroke="#63b8ff" d="M758.25,-331.33C761.45,-324.51 766.01,-314.81 770.05,-306.2"/>
<polygon fill="#63b8ff" stroke="#63b8ff" points="773.18,-307.77 774.26,-297.23 766.85,-304.79 773.18,-307.77"/>
</a>
</g>
</g>
<!-- Node18 -->
<g id="Node000018" class="node">
<title>Node18</title>
<g id="a_Node000018"><a xlink:href="_error_types_8h.html" target="_top" xlink:title=" ">
<polygon fill="white" stroke="#666666" points="615.88,-240.25 544.38,-240.25 544.38,-221 615.88,-221 615.88,-240.25"/>
<text text-anchor="middle" x="580.12" y="-226.75" font-family="Helvetica,sans-Serif" font-size="10.00">ErrorTypes.h</text>
</a>
</g>
</g>
<!-- Node17&#45;&gt;Node18 -->
<g id="edge19_Node000017_Node000018" class="edge">
<title>Node17&#45;&gt;Node18</title>
<g id="a_edge19_Node000017_Node000018"><a xlink:title=" ">
<path fill="none" stroke="#63b8ff" d="M680.6,-275.84C661.56,-267.47 632.97,-254.88 611.15,-245.28"/>
<polygon fill="#63b8ff" stroke="#63b8ff" points="612.7,-242.14 602.14,-241.31 609.88,-248.54 612.7,-242.14"/>
</a>
</g>
</g>
<!-- Node19 -->
<g id="Node000019" class="node">
<title>Node19</title>
<g id="a_Node000019"><a xlink:href="_exception_8h.html" target="_top" xlink:title=" ">
<polygon fill="white" stroke="#666666" points="740,-240.25 672.25,-240.25 672.25,-221 740,-221 740,-240.25"/>
<text text-anchor="middle" x="706.12" y="-226.75" font-family="Helvetica,sans-Serif" font-size="10.00">Exception.h</text>
</a>
</g>
</g>
<!-- Node17&#45;&gt;Node19 -->
<g id="edge22_Node000017_Node000019" class="edge">
<title>Node17&#45;&gt;Node19</title>
<g id="a_edge22_Node000017_Node000019"><a xlink:title=" ">
<path fill="none" stroke="#63b8ff" d="M701.95,-276.08C702.57,-269.49 703.44,-260.21 704.23,-251.82"/>
<polygon fill="#63b8ff" stroke="#63b8ff" points="707.69,-252.4 705.14,-242.12 700.72,-251.75 707.69,-252.4"/>
</a>
</g>
</g>
<!-- Node18&#45;&gt;Node8 -->
<g id="edge20_Node000018_Node000008" class="edge">
<title>Node18&#45;&gt;Node8</title>
<g id="a_edge20_Node000018_Node000008"><a xlink:title=" ">
<path fill="none" stroke="#63b8ff" d="M544.28,-222.65C541.19,-222.08 538.1,-221.52 535.12,-221 438.04,-204 410.36,-204.27 309.98,-185.24"/>
<polygon fill="#63b8ff" stroke="#63b8ff" points="310.68,-181.81 300.2,-183.36 309.37,-188.68 310.68,-181.81"/>
</a>
</g>
</g>
<!-- Node18&#45;&gt;Node14 -->
<g id="edge21_Node000018_Node000014" class="edge">
<title>Node18&#45;&gt;Node14</title>
<g id="a_edge21_Node000018_Node000014"><a xlink:title=" ">
<path fill="none" stroke="#63b8ff" d="M544.09,-221.25C504.32,-212 440.2,-197.09 396.9,-187.02"/>
<polygon fill="#63b8ff" stroke="#63b8ff" points="397.83,-183.64 387.3,-184.79 396.25,-190.46 397.83,-183.64"/>
</a>
</g>
</g>
<!-- Node19&#45;&gt;Node10 -->
<g id="edge23_Node000019_Node000010" class="edge">
<title>Node19&#45;&gt;Node10</title>
<g id="a_edge23_Node000019_Node000010"><a xlink:title=" ">
<path fill="none" stroke="#63b8ff" d="M715.45,-220.73C723.48,-212.38 734.48,-199.09 739.12,-185 750.85,-149.42 729.5,-107.68 714.34,-84.25"/>
<polygon fill="#63b8ff" stroke="#63b8ff" points="717.32,-82.41 708.8,-76.11 711.53,-86.35 717.32,-82.41"/>
</a>
</g>
</g>
<!-- Node20 -->
<g id="Node000020" class="node">
<title>Node20</title>
<g id="a_Node000020"><a xlink:title=" ">
<polygon fill="#e0e0e0" stroke="#999999" points="730.12,-185 672.12,-185 672.12,-165.75 730.12,-165.75 730.12,-185"/>
<text text-anchor="middle" x="701.12" y="-171.5" font-family="Helvetica,sans-Serif" font-size="10.00">exception</text>
</a>
</g>
</g>
<!-- Node19&#45;&gt;Node20 -->
<g id="edge24_Node000019_Node000020" class="edge">
<title>Node19&#45;&gt;Node20</title>
<g id="a_edge24_Node000019_Node000020"><a xlink:title=" ">
<path fill="none" stroke="#63b8ff" d="M705.3,-220.83C704.68,-214.24 703.81,-204.96 703.02,-196.57"/>
<polygon fill="#63b8ff" stroke="#63b8ff" points="706.53,-196.5 702.11,-186.87 699.56,-197.15 706.53,-196.5"/>
</a>
</g>
</g>
<!-- Node22 -->
<g id="Node000022" class="node">
<title>Node22</title>
<g id="a_Node000022"><a xlink:title=" ">
<polygon fill="#e0e0e0" stroke="#999999" points="1017.88,-240.25 964.38,-240.25 964.38,-221 1017.88,-221 1017.88,-240.25"/>
<text text-anchor="middle" x="991.12" y="-226.75" font-family="Helvetica,sans-Serif" font-size="10.00">iostream</text>
</a>
</g>
</g>
<!-- Node21&#45;&gt;Node22 -->
<g id="edge26_Node000021_Node000022" class="edge">
<title>Node21&#45;&gt;Node22</title>
<g id="a_edge26_Node000021_Node000022"><a xlink:title=" ">
<path fill="none" stroke="#63b8ff" d="M815.09,-275.84C853.47,-266.2 914.04,-250.99 953.17,-241.16"/>
<polygon fill="#63b8ff" stroke="#63b8ff" points="953.77,-244.62 962.62,-238.78 952.07,-237.83 953.77,-244.62"/>
</a>
</g>
</g>
<!-- Node23&#45;&gt;Node24 -->
<g id="edge28_Node000023_Node000024" class="edge">
<title>Node23&#45;&gt;Node24</title>
<g id="a_edge28_Node000023_Node000024"><a xlink:title=" ">
<path fill="none" stroke="#63b8ff" d="M600.44,-386.58C602.19,-379.92 604.67,-370.49 606.89,-362.03"/>
<polygon fill="#63b8ff" stroke="#63b8ff" points="610.22,-363.13 609.38,-352.57 603.45,-361.35 610.22,-363.13"/>
</a>
</g>
</g>
<!-- Node25 -->
<g id="Node000025" class="node">
<title>Node25</title>
<g id="a_Node000025"><a xlink:href="_chrono_8h.html" target="_top" xlink:title=" ">
<polygon fill="white" stroke="#666666" points="661,-295.5 605.25,-295.5 605.25,-276.25 661,-276.25 661,-295.5"/>
<text text-anchor="middle" x="633.12" y="-282" font-family="Helvetica,sans-Serif" font-size="10.00">Chrono.h</text>
</a>
</g>
</g>
<!-- Node24&#45;&gt;Node25 -->
<g id="edge29_Node000024_Node000025" class="edge">
<title>Node24&#45;&gt;Node25</title>
<g id="a_edge29_Node000024_Node000025"><a xlink:title=" ">
<path fill="none" stroke="#63b8ff" d="M615.59,-331.33C618.25,-324.59 622.02,-315.02 625.39,-306.49"/>
<polygon fill="#63b8ff" stroke="#63b8ff" points="628.61,-307.85 629.03,-297.27 622.1,-305.29 628.61,-307.85"/>
</a>
</g>
</g>
<!-- Node27 -->
<g id="Node000027" class="node">
<title>Node27</title>
<g id="a_Node000027"><a xlink:title=" ">
<polygon fill="#e0e0e0" stroke="#999999" points="587.62,-295.5 544.62,-295.5 544.62,-276.25 587.62,-276.25 587.62,-295.5"/>
<text text-anchor="middle" x="566.12" y="-282" font-family="Helvetica,sans-Serif" font-size="10.00">thread</text>
</a>
</g>
</g>
<!-- Node24&#45;&gt;Node27 -->
<g id="edge32_Node000024_Node000027" class="edge">
<title>Node24&#45;&gt;Node27</title>
<g id="a_edge32_Node000024_Node000027"><a xlink:title=" ">
<path fill="none" stroke="#63b8ff" d="M604.53,-331.33C598.24,-324.05 589.11,-313.48 581.33,-304.48"/>
<polygon fill="#63b8ff" stroke="#63b8ff" points="584.06,-302.28 574.88,-297 578.76,-306.86 584.06,-302.28"/>
</a>
</g>
</g>
<!-- Node28 -->
<g id="Node000028" class="node">
<title>Node28</title>
<g id="a_Node000028"><a xlink:title=" ">
<polygon fill="#e0e0e0" stroke="#999999" points="526.5,-295.5 485.75,-295.5 485.75,-276.25 526.5,-276.25 526.5,-295.5"/>
<text text-anchor="middle" x="506.12" y="-282" font-family="Helvetica,sans-Serif" font-size="10.00">future</text>
</a>
</g>
</g>
<!-- Node24&#45;&gt;Node28 -->
<g id="edge33_Node000024_Node000028" class="edge">
<title>Node24&#45;&gt;Node28</title>
<g id="a_edge33_Node000024_Node000028"><a xlink:title=" ">
<path fill="none" stroke="#63b8ff" d="M594.14,-331.09C577.77,-322.87 553.34,-310.59 534.36,-301.06"/>
<polygon fill="#63b8ff" stroke="#63b8ff" points="536.05,-297.99 525.55,-296.63 532.91,-304.25 536.05,-297.99"/>
</a>
</g>
</g>
<!-- Node25&#45;&gt;Node10 -->
<g id="edge30_Node000025_Node000010" class="edge">
<title>Node25&#45;&gt;Node10</title>
<g id="a_edge30_Node000025_Node000010"><a xlink:title=" ">
<path fill="none" stroke="#63b8ff" d="M635.03,-275.81C639.32,-255.76 650.37,-206.23 663.12,-165.75 672.07,-137.33 684.75,-105.27 692.95,-85.31"/>
<polygon fill="#63b8ff" stroke="#63b8ff" points="696.12,-86.81 696.73,-76.24 689.66,-84.13 696.12,-86.81"/>
</a>
</g>
</g>
<!-- Node26 -->
<g id="Node000026" class="node">
<title>Node26</title>
<g id="a_Node000026"><a xlink:title=" ">
<polygon fill="#e0e0e0" stroke="#999999" points="526.12,-240.25 486.12,-240.25 486.12,-221 526.12,-221 526.12,-240.25"/>
<text text-anchor="middle" x="506.12" y="-226.75" font-family="Helvetica,sans-Serif" font-size="10.00">ctime</text>
</a>
</g>
</g>
<!-- Node25&#45;&gt;Node26 -->
<g id="edge31_Node000025_Node000026" class="edge">
<title>Node25&#45;&gt;Node26</title>
<g id="a_edge31_Node000025_Node000026"><a xlink:title=" ">
<path fill="none" stroke="#63b8ff" d="M611.58,-275.84C591.05,-267.23 559.94,-254.19 536.82,-244.5"/>
<polygon fill="#63b8ff" stroke="#63b8ff" points="538.48,-241.4 527.91,-240.76 535.78,-247.85 538.48,-241.4"/>
</a>
</g>
</g>
<!-- Node30&#45;&gt;Node14 -->
<g id="edge39_Node000030_Node000014" class="edge">
<title>Node30&#45;&gt;Node14</title>
<g id="a_edge39_Node000030_Node000014"><a xlink:title=" ">
<path fill="none" stroke="#63b8ff" d="M490.44,-441.61C470.74,-434.77 446.76,-423.49 431.12,-406 375.29,-343.53 357.95,-239.91 352.97,-196.49"/>
<polygon fill="#63b8ff" stroke="#63b8ff" points="356.45,-196.15 351.95,-186.56 349.49,-196.87 356.45,-196.15"/>
</a>
</g>
</g>
<!-- Node31 -->
<g id="Node000031" class="node">
<title>Node31</title>
<g id="a_Node000031"><a xlink:href="_option_types_8h.html" target="_top" xlink:title=" ">
<polygon fill="white" stroke="#666666" points="549.62,-350.75 470.62,-350.75 470.62,-331.5 549.62,-331.5 549.62,-350.75"/>
<text text-anchor="middle" x="510.12" y="-337.25" font-family="Helvetica,sans-Serif" font-size="10.00">OptionTypes.h</text>
</a>
</g>
</g>
<!-- Node30&#45;&gt;Node31 -->
<g id="edge36_Node000030_Node000031" class="edge">
<title>Node30&#45;&gt;Node31</title>
<g id="a_edge36_Node000030_Node000031"><a xlink:title=" ">
<path fill="none" stroke="#63b8ff" d="M522.98,-441.75C520.75,-424.5 515.8,-386.08 512.73,-362.31"/>
<polygon fill="#63b8ff" stroke="#63b8ff" points="516.23,-362.1 511.48,-352.63 509.29,-362.99 516.23,-362.1"/>
</a>
</g>
</g>
<!-- Node32 -->
<g id="Node000032" class="node">
<title>Node32</title>
<g id="a_Node000032"><a xlink:href="_defaults_8h.html" target="_top" xlink:title=" ">
<polygon fill="white" stroke="#666666" points="761.62,-406 700.62,-406 700.62,-386.75 761.62,-386.75 761.62,-406"/>
<text text-anchor="middle" x="731.12" y="-392.5" font-family="Helvetica,sans-Serif" font-size="10.00">Defaults.h</text>
</a>
</g>
</g>
<!-- Node30&#45;&gt;Node32 -->
<g id="edge40_Node000030_Node000032" class="edge">
<title>Node30&#45;&gt;Node32</title>
<g id="a_edge40_Node000030_Node000032"><a xlink:title=" ">
<path fill="none" stroke="#63b8ff" d="M559.24,-441.59C595.25,-432.33 651.25,-417.92 689.47,-408.09"/>
<polygon fill="#63b8ff" stroke="#63b8ff" points="689.96,-411.58 698.77,-405.7 688.22,-404.8 689.96,-411.58"/>
</a>
</g>
</g>
<!-- Node42 -->
<g id="Node000042" class="node">
<title>Node42</title>
<g id="a_Node000042"><a xlink:title=" ">
<polygon fill="#e0e0e0" stroke="#999999" points="496,-406 440.25,-406 440.25,-386.75 496,-386.75 496,-406"/>
<text text-anchor="middle" x="468.12" y="-392.5" font-family="Helvetica,sans-Serif" font-size="10.00">algorithm</text>
</a>
</g>
</g>
<!-- Node30&#45;&gt;Node42 -->
<g id="edge57_Node000030_Node000042" class="edge">
<title>Node30&#45;&gt;Node42</title>
<g id="a_edge57_Node000030_Node000042"><a xlink:title=" ">
<path fill="none" stroke="#63b8ff" d="M514.63,-441.59C506.69,-434.05 495.18,-423.1 485.59,-413.98"/>
<polygon fill="#63b8ff" stroke="#63b8ff" points="488.24,-411.67 478.58,-407.32 483.42,-416.74 488.24,-411.67"/>
</a>
</g>
</g>
<!-- Node31&#45;&gt;Node8 -->
<g id="edge37_Node000031_Node000008" class="edge">
<title>Node31&#45;&gt;Node8</title>
<g id="a_edge37_Node000031_Node000008"><a xlink:title=" ">
<path fill="none" stroke="#63b8ff" d="M496.88,-331.09C457.71,-304.36 342.07,-225.46 292.79,-191.84"/>
<polygon fill="#63b8ff" stroke="#63b8ff" points="294.81,-188.98 284.58,-186.24 290.87,-194.76 294.81,-188.98"/>
</a>
</g>
</g>
<!-- Node31&#45;&gt;Node14 -->
<g id="edge38_Node000031_Node000014" class="edge">
<title>Node31&#45;&gt;Node14</title>
<g id="a_edge38_Node000031_Node000014"><a xlink:title=" ">
<path fill="none" stroke="#63b8ff" d="M502.99,-331.11C496.08,-322.25 485.47,-308.23 477.12,-295.5 456.17,-263.52 461.56,-247.62 434.12,-221 420.45,-207.73 402.03,-197.3 386.02,-189.87"/>
<polygon fill="#63b8ff" stroke="#63b8ff" points="387.87,-186.86 377.31,-186.03 385.05,-193.26 387.87,-186.86"/>
</a>
</g>
</g>
<!-- Node32&#45;&gt;Node16 -->
<g id="edge41_Node000032_Node000016" class="edge">
<title>Node32&#45;&gt;Node16</title>
<g id="a_edge41_Node000032_Node000016"><a xlink:title=" ">
<path fill="none" stroke="#63b8ff" d="M734.92,-386.58C737.87,-379.76 742.06,-370.06 745.78,-361.45"/>
<polygon fill="#63b8ff" stroke="#63b8ff" points="748.89,-363.07 749.64,-352.5 742.47,-360.29 748.89,-363.07"/>
</a>
</g>
</g>
<!-- Node32&#45;&gt;Node24 -->
<g id="edge43_Node000032_Node000024" class="edge">
<title>Node32&#45;&gt;Node24</title>
<g id="a_edge43_Node000032_Node000024"><a xlink:title=" ">
<path fill="none" stroke="#63b8ff" d="M710.94,-386.34C692.22,-377.97 664.1,-365.38 642.64,-355.78"/>
<polygon fill="#63b8ff" stroke="#63b8ff" points="644.35,-352.71 633.79,-351.82 641.49,-359.1 644.35,-352.71"/>
</a>
</g>
</g>
<!-- Node32&#45;&gt;Node31 -->
<g id="edge42_Node000032_Node000031" class="edge">
<title>Node32&#45;&gt;Node31</title>
<g id="a_edge42_Node000032_Node000031"><a xlink:title=" ">
<path fill="none" stroke="#63b8ff" d="M700.4,-387.97C663.81,-379.16 602.26,-364.32 559.09,-353.92"/>
<polygon fill="#63b8ff" stroke="#63b8ff" points="560,-350.54 549.46,-351.6 558.36,-357.35 560,-350.54"/>
</a>
</g>
</g>
<!-- Node32&#45;&gt;Node33 -->
<g id="edge44_Node000032_Node000033" class="edge">
<title>Node32&#45;&gt;Node33</title>
<g id="a_edge44_Node000032_Node000033"><a xlink:title=" ">
<path fill="none" stroke="#63b8ff" d="M761.88,-390.97C829.22,-381.33 989.58,-358.38 1063.97,-347.73"/>
<polygon fill="#63b8ff" stroke="#63b8ff" points="1064.25,-351.23 1073.65,-346.34 1063.25,-344.3 1064.25,-351.23"/>
</a>
</g>
</g>
<!-- Node33&#45;&gt;Node10 -->
<g id="edge45_Node000033_Node000010" class="edge">
<title>Node33&#45;&gt;Node10</title>
<g id="a_edge45_Node000033_Node000010"><a xlink:title=" ">
<path fill="none" stroke="#63b8ff" d="M1130.83,-340.76C1184.02,-340.94 1303.03,-336.29 1392.12,-295.5 1431.94,-277.27 1467.12,-275.41 1467.12,-231.62 1467.12,-231.62 1467.12,-231.62 1467.12,-174.38 1467.12,-99.83 891.14,-72.98 738.1,-67.16"/>
<polygon fill="#63b8ff" stroke="#63b8ff" points="738.25,-63.67 728.12,-66.79 737.99,-70.66 738.25,-63.67"/>
</a>
</g>
</g>
<!-- Node33&#45;&gt;Node22 -->
<g id="edge53_Node000033_Node000022" class="edge">
<title>Node33&#45;&gt;Node22</title>
<g id="a_edge53_Node000033_Node000022"><a xlink:title=" ">
<path fill="none" stroke="#63b8ff" d="M1128.93,-331.07C1157.16,-319.75 1196.14,-299.07 1178.12,-276.25 1159.94,-253.21 1078.46,-240.76 1029.25,-235.23"/>
<polygon fill="#63b8ff" stroke="#63b8ff" points="1029.91,-231.78 1019.59,-234.19 1029.16,-238.74 1029.91,-231.78"/>
</a>
</g>
</g>
<!-- Node34 -->
<g id="Node000034" class="node">
<title>Node34</title>
<g id="a_Node000034"><a xlink:href="_string_utils_8h.html" target="_top" xlink:title=" ">
<polygon fill="white" stroke="#666666" points="1363.12,-295.5 1293.12,-295.5 1293.12,-276.25 1363.12,-276.25 1363.12,-295.5"/>
<text text-anchor="middle" x="1328.12" y="-282" font-family="Helvetica,sans-Serif" font-size="10.00">StringUtils.h</text>
</a>
</g>
</g>
<!-- Node33&#45;&gt;Node34 -->
<g id="edge46_Node000033_Node000034" class="edge">
<title>Node33&#45;&gt;Node34</title>
<g id="a_edge46_Node000033_Node000034"><a xlink:title=" ">
<path fill="none" stroke="#63b8ff" d="M1130.71,-333.6C1168.36,-324.69 1236.34,-308.6 1281.85,-297.83"/>
<polygon fill="#63b8ff" stroke="#63b8ff" points="1282.51,-301.27 1291.43,-295.56 1280.9,-294.46 1282.51,-301.27"/>
</a>
</g>
</g>
<!-- Node33&#45;&gt;Node35 -->
<g id="edge56_Node000033_Node000035" class="edge">
<title>Node33&#45;&gt;Node35</title>
<g id="a_edge56_Node000033_Node000035"><a xlink:title=" ">
<path fill="none" stroke="#63b8ff" d="M1131.01,-339.15C1192.41,-336.44 1336.63,-326.82 1372.12,-295.5 1384.47,-284.61 1388.96,-266.08 1390.52,-251.78"/>
<polygon fill="#63b8ff" stroke="#63b8ff" points="1393.99,-252.32 1391.15,-242.11 1387,-251.86 1393.99,-252.32"/>
</a>
</g>
</g>
<!-- Node36 -->
<g id="Node000036" class="node">
<title>Node36</title>
<g id="a_Node000036"><a xlink:title=" ">
<polygon fill="#e0e0e0" stroke="#999999" points="1089.62,-295.5 1046.62,-295.5 1046.62,-276.25 1089.62,-276.25 1089.62,-295.5"/>
<text text-anchor="middle" x="1068.12" y="-282" font-family="Helvetica,sans-Serif" font-size="10.00">fcntl.h</text>
</a>
</g>
</g>
<!-- Node33&#45;&gt;Node36 -->
<g id="edge49_Node000033_Node000036" class="edge">
<title>Node33&#45;&gt;Node36</title>
<g id="a_edge49_Node000033_Node000036"><a xlink:title=" ">
<path fill="none" stroke="#63b8ff" d="M1097.35,-331.33C1092.71,-324.28 1086.05,-314.15 1080.26,-305.33"/>
<polygon fill="#63b8ff" stroke="#63b8ff" points="1083.28,-303.56 1074.86,-297.12 1077.43,-307.4 1083.28,-303.56"/>
</a>
</g>
</g>
<!-- Node37 -->
<g id="Node000037" class="node">
<title>Node37</title>
<g id="a_Node000037"><a xlink:title=" ">
<polygon fill="#e0e0e0" stroke="#999999" points="1168.62,-295.5 1107.62,-295.5 1107.62,-276.25 1168.62,-276.25 1168.62,-295.5"/>
<text text-anchor="middle" x="1138.12" y="-282" font-family="Helvetica,sans-Serif" font-size="10.00">filesystem</text>
</a>
</g>
</g>
<!-- Node33&#45;&gt;Node37 -->
<g id="edge50_Node000033_Node000037" class="edge">
<title>Node33&#45;&gt;Node37</title>
<g id="a_edge50_Node000033_Node000037"><a xlink:title=" ">
<path fill="none" stroke="#63b8ff" d="M1108.9,-331.33C1113.54,-324.28 1120.2,-314.15 1125.99,-305.33"/>
<polygon fill="#63b8ff" stroke="#63b8ff" points="1128.82,-307.4 1131.39,-297.12 1122.97,-303.56 1128.82,-307.4"/>
</a>
</g>
</g>
<!-- Node38 -->
<g id="Node000038" class="node">
<title>Node38</title>
<g id="a_Node000038"><a xlink:title=" ">
<polygon fill="#e0e0e0" stroke="#999999" points="1274.62,-295.5 1225.62,-295.5 1225.62,-276.25 1274.62,-276.25 1274.62,-295.5"/>
<text text-anchor="middle" x="1250.12" y="-282" font-family="Helvetica,sans-Serif" font-size="10.00">fstream</text>
</a>
</g>
</g>
<!-- Node33&#45;&gt;Node38 -->
<g id="edge51_Node000033_Node000038" class="edge">
<title>Node33&#45;&gt;Node38</title>
<g id="a_edge51_Node000033_Node000038"><a xlink:title=" ">
<path fill="none" stroke="#63b8ff" d="M1128.06,-331.09C1151.96,-322.43 1188.27,-309.28 1215.07,-299.57"/>
<polygon fill="#63b8ff" stroke="#63b8ff" points="1215.92,-302.99 1224.13,-296.29 1213.54,-296.41 1215.92,-302.99"/>
</a>
</g>
</g>
<!-- Node39 -->
<g id="Node000039" class="node">
<title>Node39</title>
<g id="a_Node000039"><a xlink:title=" ">
<polygon fill="#e0e0e0" stroke="#999999" points="882.25,-295.5 834,-295.5 834,-276.25 882.25,-276.25 882.25,-295.5"/>
<text text-anchor="middle" x="858.12" y="-282" font-family="Helvetica,sans-Serif" font-size="10.00">istream</text>
</a>
</g>
</g>
<!-- Node33&#45;&gt;Node39 -->
<g id="edge52_Node000033_Node000039" class="edge">
<title>Node33&#45;&gt;Node39</title>
<g id="a_edge52_Node000033_Node000039"><a xlink:title=" ">
<path fill="none" stroke="#63b8ff" d="M1075.25,-334.7C1036.61,-327.09 964.34,-312.51 893.5,-295.97"/>
<polygon fill="#63b8ff" stroke="#63b8ff" points="894.61,-292.64 884.07,-293.76 893.01,-299.45 894.61,-292.64"/>
</a>
</g>
</g>
<!-- Node40 -->
<g id="Node000040" class="node">
<title>Node40</title>
<g id="a_Node000040"><a xlink:title=" ">
<polygon fill="#e0e0e0" stroke="#999999" points="951.75,-295.5 900.5,-295.5 900.5,-276.25 951.75,-276.25 951.75,-295.5"/>
<text text-anchor="middle" x="926.12" y="-282" font-family="Helvetica,sans-Serif" font-size="10.00">sstream</text>
</a>
</g>
</g>
<!-- Node33&#45;&gt;Node40 -->
<g id="edge54_Node000033_Node000040" class="edge">
<title>Node33&#45;&gt;Node40</title>
<g id="a_edge54_Node000033_Node000040"><a xlink:title=" ">
<path fill="none" stroke="#63b8ff" d="M1075.47,-331.8C1045.16,-322.69 996.39,-308.01 962.88,-297.93"/>
<polygon fill="#63b8ff" stroke="#63b8ff" points="964.18,-294.67 953.6,-295.14 962.16,-301.37 964.18,-294.67"/>
</a>
</g>
</g>
<!-- Node41 -->
<g id="Node000041" class="node">
<title>Node41</title>
<g id="a_Node000041"><a xlink:title=" ">
<polygon fill="#e0e0e0" stroke="#999999" points="1028.88,-295.5 969.38,-295.5 969.38,-276.25 1028.88,-276.25 1028.88,-295.5"/>
<text text-anchor="middle" x="999.12" y="-282" font-family="Helvetica,sans-Serif" font-size="10.00">sys/stat.h</text>
</a>
</g>
</g>
<!-- Node33&#45;&gt;Node41 -->
<g id="edge55_Node000033_Node000041" class="edge">
<title>Node33&#45;&gt;Node41</title>
<g id="a_edge55_Node000033_Node000041"><a xlink:title=" ">
<path fill="none" stroke="#63b8ff" d="M1085.48,-331.09C1069.5,-322.91 1045.67,-310.71 1027.09,-301.19"/>
<polygon fill="#63b8ff" stroke="#63b8ff" points="1028.7,-298.08 1018.2,-296.64 1025.51,-304.32 1028.7,-298.08"/>
</a>
</g>
</g>
<!-- Node34&#45;&gt;Node10 -->
<g id="edge47_Node000034_Node000010" class="edge">
<title>Node34&#45;&gt;Node10</title>
<g id="a_edge47_Node000034_Node000010"><a xlink:title=" ">
<path fill="none" stroke="#63b8ff" d="M1302.38,-275.88C1204.03,-241.53 851.87,-118.53 737.37,-78.54"/>
<polygon fill="#63b8ff" stroke="#63b8ff" points="738.77,-75.31 728.17,-75.32 736.46,-81.92 738.77,-75.31"/>
</a>
</g>
</g>
<!-- Node34&#45;&gt;Node35 -->
<g id="edge48_Node000034_Node000035" class="edge">
<title>Node34&#45;&gt;Node35</title>
<g id="a_edge48_Node000034_Node000035"><a xlink:title=" ">
<path fill="none" stroke="#63b8ff" d="M1338.81,-275.84C1347.83,-268.22 1360.96,-257.12 1371.81,-247.95"/>
<polygon fill="#63b8ff" stroke="#63b8ff" points="1374.06,-250.63 1379.44,-241.5 1369.54,-245.28 1374.06,-250.63"/>
</a>
</g>
</g>
<!-- Node44 -->
<g id="Node000044" class="node">
<title>Node44</title>
<g id="a_Node000044"><a xlink:title=" ">
<polygon fill="#e0e0e0" stroke="#999999" points="327.25,-406 285,-406 285,-386.75 327.25,-386.75 327.25,-406"/>
<text text-anchor="middle" x="306.12" y="-392.5" font-family="Helvetica,sans-Serif" font-size="10.00">cstdio</text>
</a>
</g>
</g>
<!-- Node43&#45;&gt;Node44 -->
<g id="edge60_Node000043_Node000044" class="edge">
<title>Node43&#45;&gt;Node44</title>
<g id="a_edge60_Node000043_Node000044"><a xlink:title=" ">
<path fill="none" stroke="#63b8ff" d="M306.12,-441.83C306.12,-435.32 306.12,-426.17 306.12,-417.87"/>
<polygon fill="#63b8ff" stroke="#63b8ff" points="309.63,-417.87 306.13,-407.87 302.63,-417.87 309.63,-417.87"/>
</a>
</g>
</g>
<!-- Node45&#45;&gt;Node8 -->
<g id="edge64_Node000045_Node000008" class="edge">
<title>Node45&#45;&gt;Node8</title>
<g id="a_edge64_Node000045_Node000008"><a xlink:title=" ">
<path fill="none" stroke="#63b8ff" d="M72.69,-221.3C115.52,-211.56 186.23,-195.47 230.39,-185.42"/>
<polygon fill="#63b8ff" stroke="#63b8ff" points="231.1,-188.85 240.07,-183.21 229.55,-182.02 231.1,-188.85"/>
</a>
</g>
</g>
<!-- Node45&#45;&gt;Node14 -->
<g id="edge65_Node000045_Node000014" class="edge">
<title>Node45&#45;&gt;Node14</title>
<g id="a_edge65_Node000045_Node000014"><a xlink:title=" ">
<path fill="none" stroke="#63b8ff" d="M72.57,-223.98C122.57,-216.17 215.53,-201.35 305.34,-185.27"/>
<polygon fill="#63b8ff" stroke="#63b8ff" points="305.84,-188.74 315.07,-183.52 304.61,-181.85 305.84,-188.74"/>
</a>
</g>
</g>
<!-- Node46 -->
<g id="Node000046" class="node">
<title>Node46</title>
<g id="a_Node000046"><a xlink:href="_peddle_types_8h.html" target="_top" xlink:title=" ">
<polygon fill="white" stroke="#666666" points="331.38,-129.75 250.88,-129.75 250.88,-110.5 331.38,-110.5 331.38,-129.75"/>
<text text-anchor="middle" x="291.12" y="-116.25" font-family="Helvetica,sans-Serif" font-size="10.00">PeddleTypes.h</text>
</a>
</g>
</g>
<!-- Node45&#45;&gt;Node46 -->
<g id="edge66_Node000045_Node000046" class="edge">
<title>Node45&#45;&gt;Node46</title>
<g id="a_edge66_Node000045_Node000046"><a xlink:title=" ">
<path fill="none" stroke="#63b8ff" d="M57.43,-220.56C102.24,-201.49 206.46,-157.15 259.26,-134.68"/>
<polygon fill="#63b8ff" stroke="#63b8ff" points="260.48,-137.97 268.31,-130.83 257.74,-131.53 260.48,-137.97"/>
</a>
</g>
</g>
<!-- Node46&#45;&gt;Node10 -->
<g id="edge67_Node000046_Node000010" class="edge">
<title>Node46&#45;&gt;Node10</title>
<g id="a_edge67_Node000046_Node000010"><a xlink:title=" ">
<path fill="none" stroke="#63b8ff" d="M331.56,-113.87C411.31,-103.52 587.76,-80.6 664.4,-70.65"/>
<polygon fill="#63b8ff" stroke="#63b8ff" points="664.42,-74.17 673.88,-69.41 663.52,-67.23 664.42,-74.17"/>
</a>
</g>
</g>
<!-- Node47&#45;&gt;Node8 -->
<g id="edge69_Node000047_Node000008" class="edge">
<title>Node47&#45;&gt;Node8</title>
<g id="a_edge69_Node000047_Node000008"><a xlink:title=" ">
<path fill="none" stroke="#63b8ff" d="M189.58,-220.59C204.35,-212.48 226.3,-200.43 243.56,-190.96"/>
<polygon fill="#63b8ff" stroke="#63b8ff" points="245.18,-194.06 252.26,-186.18 241.81,-187.93 245.18,-194.06"/>
</a>
</g>
</g>
<!-- Node47&#45;&gt;Node14 -->
<g id="edge70_Node000047_Node000014" class="edge">
<title>Node47&#45;&gt;Node14</title>
<g id="a_edge70_Node000047_Node000014"><a xlink:title=" ">
<path fill="none" stroke="#63b8ff" d="M203.32,-220.59C232.6,-211.83 277.25,-198.48 309.81,-188.73"/>
<polygon fill="#63b8ff" stroke="#63b8ff" points="310.75,-192.11 319.33,-185.89 308.75,-185.4 310.75,-192.11"/>
</a>
</g>
</g>
</g>
</svg>
