<?xml version="1.0" encoding="UTF-8" standalone="no"?>
<!DOCTYPE svg PUBLIC "-//W3C//DTD SVG 1.1//EN"
 "http://www.w3.org/Graphics/SVG/1.1/DTD/svg11.dtd">
<!-- Generated by graphviz version 10.0.1 (20240210.2158)
 -->
<!-- Title: /Users/hoff/Retro/virtualc64/Emulator/Cartridges/FlashRom.h Pages: 1 -->
<svg width="1443pt" height="646pt"
 viewBox="0.00 0.00 1443.12 646.25" xmlns="http://www.w3.org/2000/svg" xmlns:xlink="http://www.w3.org/1999/xlink">
<g id="graph0" class="graph" transform="scale(1 1) rotate(0) translate(4 642.25)">
<title>/Users/hoff/Retro/virtualc64/Emulator/Cartridges/FlashRom.h</title>
<!-- Node1 -->
<g id="Node000001" class="node">
<title>Node1</title>
<g id="a_Node000001"><a xlink:title=" ">
<polygon fill="#999999" stroke="#666666" points="1344.12,-638.25 1181.88,-638.25 1181.88,-607.75 1344.12,-607.75 1344.12,-638.25"/>
<text text-anchor="start" x="1189.88" y="-624.75" font-family="Helvetica,sans-Serif" font-size="10.00">/Users/hoff/Retro/virtualc64</text>
<text text-anchor="middle" x="1263" y="-613.5" font-family="Helvetica,sans-Serif" font-size="10.00">/Emulator/Cartridges/FlashRom.h</text>
</a>
</g>
</g>
<!-- Node2 -->
<g id="Node000002" class="node">
<title>Node2</title>
<g id="a_Node000002"><a xlink:href="_sub_component_8h.html" target="_top" xlink:title=" ">
<polygon fill="white" stroke="#666666" points="1271.88,-571.75 1180.12,-571.75 1180.12,-552.5 1271.88,-552.5 1271.88,-571.75"/>
<text text-anchor="middle" x="1226" y="-558.25" font-family="Helvetica,sans-Serif" font-size="10.00">SubComponent.h</text>
</a>
</g>
</g>
<!-- Node1&#45;&gt;Node2 -->
<g id="edge1_Node000001_Node000002" class="edge">
<title>Node1&#45;&gt;Node2</title>
<g id="a_edge1_Node000001_Node000002"><a xlink:title=" ">
<path fill="none" stroke="#63b8ff" d="M1253.85,-607.45C1248.98,-599.69 1242.93,-590.06 1237.71,-581.76"/>
<polygon fill="#63b8ff" stroke="#63b8ff" points="1240.79,-580.09 1232.51,-573.48 1234.87,-583.81 1240.79,-580.09"/>
</a>
</g>
</g>
<!-- Node44 -->
<g id="Node000044" class="node">
<title>Node44</title>
<g id="a_Node000044"><a xlink:href="_cartridge_types_8h.html" target="_top" xlink:title=" ">
<polygon fill="white" stroke="#666666" points="1345.12,-240.25 1254.88,-240.25 1254.88,-221 1345.12,-221 1345.12,-240.25"/>
<text text-anchor="middle" x="1300" y="-226.75" font-family="Helvetica,sans-Serif" font-size="10.00">CartridgeTypes.h</text>
</a>
</g>
</g>
<!-- Node1&#45;&gt;Node44 -->
<g id="edge65_Node000001_Node000044" class="edge">
<title>Node1&#45;&gt;Node44</title>
<g id="a_edge65_Node000001_Node000044"><a xlink:title=" ">
<path fill="none" stroke="#63b8ff" d="M1271.03,-607.36C1281.91,-586.1 1300,-545.16 1300,-507.88 1300,-507.88 1300,-507.88 1300,-340.12 1300,-309.41 1300,-273.8 1300,-251.99"/>
<polygon fill="#63b8ff" stroke="#63b8ff" points="1303.5,-252.14 1300,-242.14 1296.5,-252.14 1303.5,-252.14"/>
</a>
</g>
</g>
<!-- Node3 -->
<g id="Node000003" class="node">
<title>Node3</title>
<g id="a_Node000003"><a xlink:href="_core_component_8h.html" target="_top" xlink:title=" ">
<polygon fill="white" stroke="#666666" points="910.75,-516.5 815.25,-516.5 815.25,-497.25 910.75,-497.25 910.75,-516.5"/>
<text text-anchor="middle" x="863" y="-503" font-family="Helvetica,sans-Serif" font-size="10.00">CoreComponent.h</text>
</a>
</g>
</g>
<!-- Node2&#45;&gt;Node3 -->
<g id="edge2_Node000002_Node000003" class="edge">
<title>Node2&#45;&gt;Node3</title>
<g id="a_edge2_Node000002_Node000003"><a xlink:title=" ">
<path fill="none" stroke="#63b8ff" d="M1179.66,-554.33C1114.07,-544.71 994.16,-527.12 922.21,-516.56"/>
<polygon fill="#63b8ff" stroke="#63b8ff" points="922.99,-513.14 912.58,-515.15 921.97,-520.06 922.99,-513.14"/>
</a>
</g>
</g>
<!-- Node42 -->
<g id="Node000042" class="node">
<title>Node42</title>
<g id="a_Node000042"><a xlink:href="_c_p_u_types_8h.html" target="_top" xlink:title=" ">
<polygon fill="white" stroke="#666666" points="1435.12,-240.25 1362.88,-240.25 1362.88,-221 1435.12,-221 1435.12,-240.25"/>
<text text-anchor="middle" x="1399" y="-226.75" font-family="Helvetica,sans-Serif" font-size="10.00">CPUTypes.h</text>
</a>
</g>
</g>
<!-- Node2&#45;&gt;Node42 -->
<g id="edge60_Node000002_Node000042" class="edge">
<title>Node2&#45;&gt;Node42</title>
<g id="a_edge60_Node000002_Node000042"><a xlink:title=" ">
<path fill="none" stroke="#63b8ff" d="M1231.16,-552.17C1241.11,-534.02 1262,-491.33 1262,-452.62 1262,-452.62 1262,-452.62 1262,-395.38 1262,-326.84 1333.47,-271.88 1373.17,-246.64"/>
<polygon fill="#63b8ff" stroke="#63b8ff" points="1374.78,-249.76 1381.46,-241.53 1371.11,-243.8 1374.78,-249.76"/>
</a>
</g>
</g>
<!-- Node4 -->
<g id="Node000004" class="node">
<title>Node4</title>
<g id="a_Node000004"><a xlink:href="_emulator_types_8h.html" target="_top" xlink:title=" ">
<polygon fill="white" stroke="#666666" points="1134.75,-295.5 1045.25,-295.5 1045.25,-276.25 1134.75,-276.25 1134.75,-295.5"/>
<text text-anchor="middle" x="1090" y="-282" font-family="Helvetica,sans-Serif" font-size="10.00">EmulatorTypes.h</text>
</a>
</g>
</g>
<!-- Node3&#45;&gt;Node4 -->
<g id="edge3_Node000003_Node000004" class="edge">
<title>Node3&#45;&gt;Node4</title>
<g id="a_edge3_Node000003_Node000004"><a xlink:title=" ">
<path fill="none" stroke="#63b8ff" d="M887.25,-496.76C922.64,-482.37 988.59,-451.3 1029,-406 1055.85,-375.9 1074.33,-331.85 1083.45,-306.6"/>
<polygon fill="#63b8ff" stroke="#63b8ff" points="1086.71,-307.89 1086.68,-297.29 1080.1,-305.6 1086.71,-307.89"/>
</a>
</g>
</g>
<!-- Node12 -->
<g id="Node000012" class="node">
<title>Node12</title>
<g id="a_Node000012"><a xlink:href="_thread_types_8h.html" target="_top" xlink:title=" ">
<polygon fill="white" stroke="#666666" points="1199.25,-240.25 1118.75,-240.25 1118.75,-221 1199.25,-221 1199.25,-240.25"/>
<text text-anchor="middle" x="1159" y="-226.75" font-family="Helvetica,sans-Serif" font-size="10.00">ThreadTypes.h</text>
</a>
</g>
</g>
<!-- Node3&#45;&gt;Node12 -->
<g id="edge58_Node000003_Node000012" class="edge">
<title>Node3&#45;&gt;Node12</title>
<g id="a_edge58_Node000003_Node000012"><a xlink:title=" ">
<path fill="none" stroke="#63b8ff" d="M911.07,-504.76C985.45,-502.05 1123.69,-492.8 1160,-461.25 1182.36,-441.82 1179,-426.99 1179,-397.38 1179,-397.38 1179,-397.38 1179,-340.12 1179,-308.74 1170.81,-273.09 1164.91,-251.48"/>
<polygon fill="#63b8ff" stroke="#63b8ff" points="1168.31,-250.64 1162.2,-241.98 1161.58,-252.56 1168.31,-250.64"/>
</a>
</g>
</g>
<!-- Node13 -->
<g id="Node000013" class="node">
<title>Node13</title>
<g id="a_Node000013"><a xlink:href="_core_object_8h.html" target="_top" xlink:title=" ">
<polygon fill="white" stroke="#666666" points="830.88,-350.75 757.12,-350.75 757.12,-331.5 830.88,-331.5 830.88,-350.75"/>
<text text-anchor="middle" x="794" y="-337.25" font-family="Helvetica,sans-Serif" font-size="10.00">CoreObject.h</text>
</a>
</g>
</g>
<!-- Node3&#45;&gt;Node13 -->
<g id="edge14_Node000003_Node000013" class="edge">
<title>Node3&#45;&gt;Node13</title>
<g id="a_edge14_Node000003_Node000013"><a xlink:title=" ">
<path fill="none" stroke="#63b8ff" d="M859.29,-497.07C848.53,-471.53 817.1,-396.95 802.12,-361.4"/>
<polygon fill="#63b8ff" stroke="#63b8ff" points="805.42,-360.22 798.32,-352.37 798.97,-362.94 805.42,-360.22"/>
</a>
</g>
</g>
<!-- Node20 -->
<g id="Node000020" class="node">
<title>Node20</title>
<g id="a_Node000020"><a xlink:href="_synchronizable_8h.html" target="_top" xlink:title=" ">
<polygon fill="white" stroke="#666666" points="330.5,-406 239.5,-406 239.5,-386.75 330.5,-386.75 330.5,-406"/>
<text text-anchor="middle" x="285" y="-392.5" font-family="Helvetica,sans-Serif" font-size="10.00">Synchronizable.h</text>
</a>
</g>
</g>
<!-- Node3&#45;&gt;Node20 -->
<g id="edge24_Node000003_Node000020" class="edge">
<title>Node3&#45;&gt;Node20</title>
<g id="a_edge24_Node000003_Node000020"><a xlink:title=" ">
<path fill="none" stroke="#63b8ff" d="M814.95,-506.06C702.81,-505.82 427.14,-501.06 345,-461.25 324.31,-451.22 307.14,-430.77 296.54,-415.7"/>
<polygon fill="#63b8ff" stroke="#63b8ff" points="299.59,-413.96 291.13,-407.58 293.76,-417.84 299.59,-413.96"/>
</a>
</g>
</g>
<!-- Node21 -->
<g id="Node000021" class="node">
<title>Node21</title>
<g id="a_Node000021"><a xlink:href="_concurrency_8h.html" target="_top" xlink:title=" ">
<polygon fill="white" stroke="#666666" points="361.12,-350.75 282.88,-350.75 282.88,-331.5 361.12,-331.5 361.12,-350.75"/>
<text text-anchor="middle" x="322" y="-337.25" font-family="Helvetica,sans-Serif" font-size="10.00">Concurrency.h</text>
</a>
</g>
</g>
<!-- Node3&#45;&gt;Node21 -->
<g id="edge55_Node000003_Node000021" class="edge">
<title>Node3&#45;&gt;Node21</title>
<g id="a_edge55_Node000003_Node000021"><a xlink:title=" ">
<path fill="none" stroke="#63b8ff" d="M815.04,-504.15C699.62,-499.61 413.26,-485.98 378,-461.25 369.21,-455.09 343.15,-393.78 329.91,-361.61"/>
<polygon fill="#63b8ff" stroke="#63b8ff" points="333.26,-360.57 326.24,-352.63 326.78,-363.21 333.26,-360.57"/>
</a>
</g>
</g>
<!-- Node26 -->
<g id="Node000026" class="node">
<title>Node26</title>
<g id="a_Node000026"><a xlink:href="_serializable_8h.html" target="_top" xlink:title=" ">
<polygon fill="white" stroke="#666666" points="461.25,-461.25 386.75,-461.25 386.75,-442 461.25,-442 461.25,-461.25"/>
<text text-anchor="middle" x="424" y="-447.75" font-family="Helvetica,sans-Serif" font-size="10.00">Serializable.h</text>
</a>
</g>
</g>
<!-- Node3&#45;&gt;Node26 -->
<g id="edge31_Node000003_Node000026" class="edge">
<title>Node3&#45;&gt;Node26</title>
<g id="a_edge31_Node000003_Node000026"><a xlink:title=" ">
<path fill="none" stroke="#63b8ff" d="M814.81,-501.16C741.35,-493.79 597.01,-478.57 475,-461.25 474.32,-461.15 473.63,-461.05 472.94,-460.95"/>
<polygon fill="#63b8ff" stroke="#63b8ff" points="473.48,-457.5 463.06,-459.44 472.41,-464.41 473.48,-457.5"/>
</a>
</g>
</g>
<!-- Node27 -->
<g id="Node000027" class="node">
<title>Node27</title>
<g id="a_Node000027"><a xlink:href="_configurable_8h.html" target="_top" xlink:title=" ">
<polygon fill="white" stroke="#666666" points="936.5,-461.25 857.5,-461.25 857.5,-442 936.5,-442 936.5,-461.25"/>
<text text-anchor="middle" x="897" y="-447.75" font-family="Helvetica,sans-Serif" font-size="10.00">Configurable.h</text>
</a>
</g>
</g>
<!-- Node3&#45;&gt;Node27 -->
<g id="edge32_Node000003_Node000027" class="edge">
<title>Node3&#45;&gt;Node27</title>
<g id="a_edge32_Node000003_Node000027"><a xlink:title=" ">
<path fill="none" stroke="#63b8ff" d="M868.61,-497.08C873.12,-490.03 879.59,-479.9 885.21,-471.08"/>
<polygon fill="#63b8ff" stroke="#63b8ff" points="888.02,-473.2 890.45,-462.88 882.12,-469.43 888.02,-473.2"/>
</a>
</g>
</g>
<!-- Node32 -->
<g id="Node000032" class="node">
<title>Node32</title>
<g id="a_Node000032"><a xlink:title=" ">
<polygon fill="#e0e0e0" stroke="#999999" points="165.5,-185 122.5,-185 122.5,-165.75 165.5,-165.75 165.5,-185"/>
<text text-anchor="middle" x="144" y="-171.5" font-family="Helvetica,sans-Serif" font-size="10.00">vector</text>
</a>
</g>
</g>
<!-- Node3&#45;&gt;Node32 -->
<g id="edge59_Node000003_Node000032" class="edge">
<title>Node3&#45;&gt;Node32</title>
<g id="a_edge59_Node000003_Node000032"><a xlink:title=" ">
<path fill="none" stroke="#63b8ff" d="M844.62,-496.87C761.69,-456.28 424.26,-291.7 374,-276.25 325.18,-261.25 181.07,-278.3 147,-240.25 136.46,-228.48 136.71,-210.06 139.01,-196.01"/>
<polygon fill="#63b8ff" stroke="#63b8ff" points="142.37,-197.07 141.03,-186.56 135.52,-195.61 142.37,-197.07"/>
</a>
</g>
</g>
<!-- Node40 -->
<g id="Node000040" class="node">
<title>Node40</title>
<g id="a_Node000040"><a xlink:href="_suspendable_8h.html" target="_top" xlink:title=" ">
<polygon fill="white" stroke="#666666" points="1151.25,-461.25 1070.75,-461.25 1070.75,-442 1151.25,-442 1151.25,-461.25"/>
<text text-anchor="middle" x="1111" y="-447.75" font-family="Helvetica,sans-Serif" font-size="10.00">Suspendable.h</text>
</a>
</g>
</g>
<!-- Node3&#45;&gt;Node40 -->
<g id="edge56_Node000003_Node000040" class="edge">
<title>Node3&#45;&gt;Node40</title>
<g id="a_edge56_Node000003_Node000040"><a xlink:title=" ">
<path fill="none" stroke="#63b8ff" d="M905.35,-496.78C947.95,-487.64 1013.69,-473.52 1059.33,-463.72"/>
<polygon fill="#63b8ff" stroke="#63b8ff" points="1059.95,-467.17 1068.99,-461.65 1058.48,-460.32 1059.95,-467.17"/>
</a>
</g>
</g>
<!-- Node5 -->
<g id="Node000005" class="node">
<title>Node5</title>
<g id="a_Node000005"><a xlink:href="_aliases_8h.html" target="_top" xlink:title=" ">
<polygon fill="white" stroke="#666666" points="1187.25,-185 1130.75,-185 1130.75,-165.75 1187.25,-165.75 1187.25,-185"/>
<text text-anchor="middle" x="1159" y="-171.5" font-family="Helvetica,sans-Serif" font-size="10.00">Aliases.h</text>
</a>
</g>
</g>
<!-- Node4&#45;&gt;Node5 -->
<g id="edge4_Node000004_Node000005" class="edge">
<title>Node4&#45;&gt;Node5</title>
<g id="a_edge4_Node000004_Node000005"><a xlink:title=" ">
<path fill="none" stroke="#63b8ff" d="M1091.27,-275.99C1093.43,-263.05 1098.75,-238.63 1110,-221 1117.05,-209.94 1127.54,-199.88 1137.01,-192.13"/>
<polygon fill="#63b8ff" stroke="#63b8ff" points="1139.01,-195 1144.77,-186.11 1134.72,-189.47 1139.01,-195"/>
</a>
</g>
</g>
<!-- Node11 -->
<g id="Node000011" class="node">
<title>Node11</title>
<g id="a_Node000011"><a xlink:href="_reflection_8h.html" target="_top" xlink:title=" ">
<polygon fill="white" stroke="#666666" points="1087.25,-185 1018.75,-185 1018.75,-165.75 1087.25,-165.75 1087.25,-185"/>
<text text-anchor="middle" x="1053" y="-171.5" font-family="Helvetica,sans-Serif" font-size="10.00">Reflection.h</text>
</a>
</g>
</g>
<!-- Node4&#45;&gt;Node11 -->
<g id="edge10_Node000004_Node000011" class="edge">
<title>Node4&#45;&gt;Node11</title>
<g id="a_edge10_Node000004_Node000011"><a xlink:title=" ">
<path fill="none" stroke="#63b8ff" d="M1086.97,-276C1081.06,-258.67 1067.87,-219.98 1059.77,-196.24"/>
<polygon fill="#63b8ff" stroke="#63b8ff" points="1063.1,-195.14 1056.56,-186.81 1056.47,-197.4 1063.1,-195.14"/>
</a>
</g>
</g>
<!-- Node4&#45;&gt;Node12 -->
<g id="edge11_Node000004_Node000012" class="edge">
<title>Node4&#45;&gt;Node12</title>
<g id="a_edge11_Node000004_Node000012"><a xlink:title=" ">
<path fill="none" stroke="#63b8ff" d="M1101.7,-275.84C1111.78,-268.07 1126.54,-256.67 1138.56,-247.4"/>
<polygon fill="#63b8ff" stroke="#63b8ff" points="1140.49,-250.33 1146.27,-241.45 1136.21,-244.79 1140.49,-250.33"/>
</a>
</g>
</g>
<!-- Node6 -->
<g id="Node000006" class="node">
<title>Node6</title>
<g id="a_Node000006"><a xlink:href="_macros_8h.html" target="_top" xlink:title=" ">
<polygon fill="white" stroke="#666666" points="1048.25,-129.75 991.75,-129.75 991.75,-110.5 1048.25,-110.5 1048.25,-129.75"/>
<text text-anchor="middle" x="1020" y="-116.25" font-family="Helvetica,sans-Serif" font-size="10.00">Macros.h</text>
</a>
</g>
</g>
<!-- Node5&#45;&gt;Node6 -->
<g id="edge5_Node000005_Node000006" class="edge">
<title>Node5&#45;&gt;Node6</title>
<g id="a_edge5_Node000005_Node000006"><a xlink:title=" ">
<path fill="none" stroke="#63b8ff" d="M1135.42,-165.34C1113.16,-156.81 1079.51,-143.92 1054.28,-134.26"/>
<polygon fill="#63b8ff" stroke="#63b8ff" points="1055.7,-131.05 1045.11,-130.74 1053.19,-137.59 1055.7,-131.05"/>
</a>
</g>
</g>
<!-- Node7 -->
<g id="Node000007" class="node">
<title>Node7</title>
<g id="a_Node000007"><a xlink:href="_types_8h.html" target="_top" xlink:title=" ">
<polygon fill="white" stroke="#666666" points="572.25,-74.5 521.75,-74.5 521.75,-55.25 572.25,-55.25 572.25,-74.5"/>
<text text-anchor="middle" x="547" y="-61" font-family="Helvetica,sans-Serif" font-size="10.00">Types.h</text>
</a>
</g>
</g>
<!-- Node6&#45;&gt;Node7 -->
<g id="edge6_Node000006_Node000007" class="edge">
<title>Node6&#45;&gt;Node7</title>
<g id="a_edge6_Node000006_Node000007"><a xlink:title=" ">
<path fill="none" stroke="#63b8ff" d="M991.48,-115.91C909.86,-106.73 675.38,-80.33 584.04,-70.05"/>
<polygon fill="#63b8ff" stroke="#63b8ff" points="584.46,-66.57 574.14,-68.93 583.68,-73.53 584.46,-66.57"/>
</a>
</g>
</g>
<!-- Node8 -->
<g id="Node000008" class="node">
<title>Node8</title>
<g id="a_Node000008"><a xlink:title=" ">
<polygon fill="#e0e0e0" stroke="#999999" points="504.5,-19.25 437.5,-19.25 437.5,0 504.5,0 504.5,-19.25"/>
<text text-anchor="middle" x="471" y="-5.75" font-family="Helvetica,sans-Serif" font-size="10.00">sys/types.h</text>
</a>
</g>
</g>
<!-- Node7&#45;&gt;Node8 -->
<g id="edge7_Node000007_Node000008" class="edge">
<title>Node7&#45;&gt;Node8</title>
<g id="a_edge7_Node000007_Node000008"><a xlink:title=" ">
<path fill="none" stroke="#63b8ff" d="M534.11,-54.84C522.97,-47.04 506.63,-35.59 493.36,-26.29"/>
<polygon fill="#63b8ff" stroke="#63b8ff" points="495.39,-23.44 485.2,-20.57 491.38,-29.18 495.39,-23.44"/>
</a>
</g>
</g>
<!-- Node9 -->
<g id="Node000009" class="node">
<title>Node9</title>
<g id="a_Node000009"><a xlink:title=" ">
<polygon fill="#e0e0e0" stroke="#999999" points="571.12,-19.25 522.88,-19.25 522.88,0 571.12,0 571.12,-19.25"/>
<text text-anchor="middle" x="547" y="-5.75" font-family="Helvetica,sans-Serif" font-size="10.00">stdint.h</text>
</a>
</g>
</g>
<!-- Node7&#45;&gt;Node9 -->
<g id="edge8_Node000007_Node000009" class="edge">
<title>Node7&#45;&gt;Node9</title>
<g id="a_edge8_Node000007_Node000009"><a xlink:title=" ">
<path fill="none" stroke="#63b8ff" d="M547,-55.08C547,-48.57 547,-39.42 547,-31.12"/>
<polygon fill="#63b8ff" stroke="#63b8ff" points="550.5,-31.12 547,-21.12 543.5,-31.12 550.5,-31.12"/>
</a>
</g>
</g>
<!-- Node10 -->
<g id="Node000010" class="node">
<title>Node10</title>
<g id="a_Node000010"><a xlink:title=" ">
<polygon fill="#e0e0e0" stroke="#999999" points="644.88,-19.25 589.12,-19.25 589.12,0 644.88,0 644.88,-19.25"/>
<text text-anchor="middle" x="617" y="-5.75" font-family="Helvetica,sans-Serif" font-size="10.00">stdbool.h</text>
</a>
</g>
</g>
<!-- Node7&#45;&gt;Node10 -->
<g id="edge9_Node000007_Node000010" class="edge">
<title>Node7&#45;&gt;Node10</title>
<g id="a_edge9_Node000007_Node000010"><a xlink:title=" ">
<path fill="none" stroke="#63b8ff" d="M558.87,-54.84C569.09,-47.07 584.07,-35.67 596.26,-26.4"/>
<polygon fill="#63b8ff" stroke="#63b8ff" points="598.26,-29.28 604.1,-20.44 594.02,-23.71 598.26,-29.28"/>
</a>
</g>
</g>
<!-- Node12&#45;&gt;Node5 -->
<g id="edge12_Node000012_Node000005" class="edge">
<title>Node12&#45;&gt;Node5</title>
<g id="a_edge12_Node000012_Node000005"><a xlink:title=" ">
<path fill="none" stroke="#63b8ff" d="M1159,-220.83C1159,-214.32 1159,-205.17 1159,-196.87"/>
<polygon fill="#63b8ff" stroke="#63b8ff" points="1162.5,-196.87 1159,-186.87 1155.5,-196.87 1162.5,-196.87"/>
</a>
</g>
</g>
<!-- Node12&#45;&gt;Node11 -->
<g id="edge13_Node000012_Node000011" class="edge">
<title>Node12&#45;&gt;Node11</title>
<g id="a_edge13_Node000012_Node000011"><a xlink:title=" ">
<path fill="none" stroke="#63b8ff" d="M1141.02,-220.59C1124.65,-212.37 1100.21,-200.09 1081.24,-190.56"/>
<polygon fill="#63b8ff" stroke="#63b8ff" points="1082.93,-187.49 1072.42,-186.13 1079.79,-193.75 1082.93,-187.49"/>
</a>
</g>
</g>
<!-- Node14 -->
<g id="Node000014" class="node">
<title>Node14</title>
<g id="a_Node000014"><a xlink:href="_error_8h.html" target="_top" xlink:title=" ">
<polygon fill="white" stroke="#666666" points="847.25,-295.5 802.75,-295.5 802.75,-276.25 847.25,-276.25 847.25,-295.5"/>
<text text-anchor="middle" x="825" y="-282" font-family="Helvetica,sans-Serif" font-size="10.00">Error.h</text>
</a>
</g>
</g>
<!-- Node13&#45;&gt;Node14 -->
<g id="edge15_Node000013_Node000014" class="edge">
<title>Node13&#45;&gt;Node14</title>
<g id="a_edge15_Node000013_Node000014"><a xlink:title=" ">
<path fill="none" stroke="#63b8ff" d="M799.12,-331.33C803.18,-324.36 808.99,-314.37 814.09,-305.62"/>
<polygon fill="#63b8ff" stroke="#63b8ff" points="817,-307.57 819.01,-297.17 810.95,-304.05 817,-307.57"/>
</a>
</g>
</g>
<!-- Node18 -->
<g id="Node000018" class="node">
<title>Node18</title>
<g id="a_Node000018"><a xlink:href="_inspectable_8h.html" target="_top" xlink:title=" ">
<polygon fill="white" stroke="#666666" points="783.25,-295.5 708.75,-295.5 708.75,-276.25 783.25,-276.25 783.25,-295.5"/>
<text text-anchor="middle" x="746" y="-282" font-family="Helvetica,sans-Serif" font-size="10.00">Inspectable.h</text>
</a>
</g>
</g>
<!-- Node13&#45;&gt;Node18 -->
<g id="edge22_Node000013_Node000018" class="edge">
<title>Node13&#45;&gt;Node18</title>
<g id="a_edge22_Node000013_Node000018"><a xlink:title=" ">
<path fill="none" stroke="#63b8ff" d="M786.07,-331.33C779.44,-323.98 769.78,-313.26 761.61,-304.19"/>
<polygon fill="#63b8ff" stroke="#63b8ff" points="764.41,-302.07 755.11,-296.98 759.21,-306.75 764.41,-302.07"/>
</a>
</g>
</g>
<!-- Node15 -->
<g id="Node000015" class="node">
<title>Node15</title>
<g id="a_Node000015"><a xlink:href="_error_types_8h.html" target="_top" xlink:title=" ">
<polygon fill="white" stroke="#666666" points="948.75,-240.25 877.25,-240.25 877.25,-221 948.75,-221 948.75,-240.25"/>
<text text-anchor="middle" x="913" y="-226.75" font-family="Helvetica,sans-Serif" font-size="10.00">ErrorTypes.h</text>
</a>
</g>
</g>
<!-- Node14&#45;&gt;Node15 -->
<g id="edge16_Node000014_Node000015" class="edge">
<title>Node14&#45;&gt;Node15</title>
<g id="a_edge16_Node000014_Node000015"><a xlink:title=" ">
<path fill="none" stroke="#63b8ff" d="M839.93,-275.84C853.2,-267.81 872.87,-255.91 888.45,-246.48"/>
<polygon fill="#63b8ff" stroke="#63b8ff" points="889.96,-249.66 896.7,-241.49 886.34,-243.67 889.96,-249.66"/>
</a>
</g>
</g>
<!-- Node16 -->
<g id="Node000016" class="node">
<title>Node16</title>
<g id="a_Node000016"><a xlink:href="_exception_8h.html" target="_top" xlink:title=" ">
<polygon fill="white" stroke="#666666" points="858.88,-240.25 791.12,-240.25 791.12,-221 858.88,-221 858.88,-240.25"/>
<text text-anchor="middle" x="825" y="-226.75" font-family="Helvetica,sans-Serif" font-size="10.00">Exception.h</text>
</a>
</g>
</g>
<!-- Node14&#45;&gt;Node16 -->
<g id="edge19_Node000014_Node000016" class="edge">
<title>Node14&#45;&gt;Node16</title>
<g id="a_edge19_Node000014_Node000016"><a xlink:title=" ">
<path fill="none" stroke="#63b8ff" d="M825,-276.08C825,-269.57 825,-260.42 825,-252.12"/>
<polygon fill="#63b8ff" stroke="#63b8ff" points="828.5,-252.12 825,-242.12 821.5,-252.12 828.5,-252.12"/>
</a>
</g>
</g>
<!-- Node15&#45;&gt;Node5 -->
<g id="edge17_Node000015_Node000005" class="edge">
<title>Node15&#45;&gt;Node5</title>
<g id="a_edge17_Node000015_Node000005"><a xlink:title=" ">
<path fill="none" stroke="#63b8ff" d="M949.03,-221.82C994.53,-211.98 1072.52,-195.1 1119.57,-184.91"/>
<polygon fill="#63b8ff" stroke="#63b8ff" points="1120.02,-188.39 1129.06,-182.86 1118.54,-181.55 1120.02,-188.39"/>
</a>
</g>
</g>
<!-- Node15&#45;&gt;Node11 -->
<g id="edge18_Node000015_Node000011" class="edge">
<title>Node15&#45;&gt;Node11</title>
<g id="a_edge18_Node000015_Node000011"><a xlink:title=" ">
<path fill="none" stroke="#63b8ff" d="M936.75,-220.59C959.17,-212.06 993.06,-199.17 1018.47,-189.51"/>
<polygon fill="#63b8ff" stroke="#63b8ff" points="1019.62,-192.82 1027.72,-185.99 1017.13,-186.27 1019.62,-192.82"/>
</a>
</g>
</g>
<!-- Node16&#45;&gt;Node7 -->
<g id="edge20_Node000016_Node000007" class="edge">
<title>Node16&#45;&gt;Node7</title>
<g id="a_edge20_Node000016_Node000007"><a xlink:title=" ">
<path fill="none" stroke="#63b8ff" d="M824.74,-220.58C823.86,-206.98 820.29,-181.22 806,-165.75 746.15,-100.98 639.53,-77.78 583.58,-69.81"/>
<polygon fill="#63b8ff" stroke="#63b8ff" points="584.32,-66.38 573.95,-68.53 583.4,-73.31 584.32,-66.38"/>
</a>
</g>
</g>
<!-- Node17 -->
<g id="Node000017" class="node">
<title>Node17</title>
<g id="a_Node000017"><a xlink:title=" ">
<polygon fill="#e0e0e0" stroke="#999999" points="797,-185 739,-185 739,-165.75 797,-165.75 797,-185"/>
<text text-anchor="middle" x="768" y="-171.5" font-family="Helvetica,sans-Serif" font-size="10.00">exception</text>
</a>
</g>
</g>
<!-- Node16&#45;&gt;Node17 -->
<g id="edge21_Node000016_Node000017" class="edge">
<title>Node16&#45;&gt;Node17</title>
<g id="a_edge21_Node000016_Node000017"><a xlink:title=" ">
<path fill="none" stroke="#63b8ff" d="M815.33,-220.59C807.26,-213.05 795.53,-202.1 785.78,-192.98"/>
<polygon fill="#63b8ff" stroke="#63b8ff" points="788.33,-190.58 778.63,-186.31 783.55,-195.69 788.33,-190.58"/>
</a>
</g>
</g>
<!-- Node19 -->
<g id="Node000019" class="node">
<title>Node19</title>
<g id="a_Node000019"><a xlink:title=" ">
<polygon fill="#e0e0e0" stroke="#999999" points="772.75,-240.25 719.25,-240.25 719.25,-221 772.75,-221 772.75,-240.25"/>
<text text-anchor="middle" x="746" y="-226.75" font-family="Helvetica,sans-Serif" font-size="10.00">iostream</text>
</a>
</g>
</g>
<!-- Node18&#45;&gt;Node19 -->
<g id="edge23_Node000018_Node000019" class="edge">
<title>Node18&#45;&gt;Node19</title>
<g id="a_edge23_Node000018_Node000019"><a xlink:title=" ">
<path fill="none" stroke="#63b8ff" d="M746,-276.08C746,-269.57 746,-260.42 746,-252.12"/>
<polygon fill="#63b8ff" stroke="#63b8ff" points="749.5,-252.12 746,-242.12 742.5,-252.12 749.5,-252.12"/>
</a>
</g>
</g>
<!-- Node20&#45;&gt;Node21 -->
<g id="edge25_Node000020_Node000021" class="edge">
<title>Node20&#45;&gt;Node21</title>
<g id="a_edge25_Node000020_Node000021"><a xlink:title=" ">
<path fill="none" stroke="#63b8ff" d="M291.11,-386.58C296.06,-379.46 303.2,-369.18 309.37,-360.3"/>
<polygon fill="#63b8ff" stroke="#63b8ff" points="312.06,-362.56 314.89,-352.35 306.31,-358.57 312.06,-362.56"/>
</a>
</g>
</g>
<!-- Node22 -->
<g id="Node000022" class="node">
<title>Node22</title>
<g id="a_Node000022"><a xlink:href="_chrono_8h.html" target="_top" xlink:title=" ">
<polygon fill="white" stroke="#666666" points="95.88,-295.5 40.12,-295.5 40.12,-276.25 95.88,-276.25 95.88,-295.5"/>
<text text-anchor="middle" x="68" y="-282" font-family="Helvetica,sans-Serif" font-size="10.00">Chrono.h</text>
</a>
</g>
</g>
<!-- Node21&#45;&gt;Node22 -->
<g id="edge26_Node000021_Node000022" class="edge">
<title>Node21&#45;&gt;Node22</title>
<g id="a_edge26_Node000021_Node000022"><a xlink:title=" ">
<path fill="none" stroke="#63b8ff" d="M282.59,-331.86C234.83,-321.85 154.85,-305.08 107.19,-295.09"/>
<polygon fill="#63b8ff" stroke="#63b8ff" points="108.08,-291.7 97.58,-293.08 106.65,-298.55 108.08,-291.7"/>
</a>
</g>
</g>
<!-- Node24 -->
<g id="Node000024" class="node">
<title>Node24</title>
<g id="a_Node000024"><a xlink:title=" ">
<polygon fill="#e0e0e0" stroke="#999999" points="306.5,-295.5 263.5,-295.5 263.5,-276.25 306.5,-276.25 306.5,-295.5"/>
<text text-anchor="middle" x="285" y="-282" font-family="Helvetica,sans-Serif" font-size="10.00">thread</text>
</a>
</g>
</g>
<!-- Node21&#45;&gt;Node24 -->
<g id="edge29_Node000021_Node000024" class="edge">
<title>Node21&#45;&gt;Node24</title>
<g id="a_edge29_Node000021_Node000024"><a xlink:title=" ">
<path fill="none" stroke="#63b8ff" d="M315.89,-331.33C310.94,-324.21 303.8,-313.93 297.63,-305.05"/>
<polygon fill="#63b8ff" stroke="#63b8ff" points="300.69,-303.32 292.11,-297.1 294.94,-307.31 300.69,-303.32"/>
</a>
</g>
</g>
<!-- Node25 -->
<g id="Node000025" class="node">
<title>Node25</title>
<g id="a_Node000025"><a xlink:title=" ">
<polygon fill="#e0e0e0" stroke="#999999" points="365.38,-295.5 324.62,-295.5 324.62,-276.25 365.38,-276.25 365.38,-295.5"/>
<text text-anchor="middle" x="345" y="-282" font-family="Helvetica,sans-Serif" font-size="10.00">future</text>
</a>
</g>
</g>
<!-- Node21&#45;&gt;Node25 -->
<g id="edge30_Node000021_Node000025" class="edge">
<title>Node21&#45;&gt;Node25</title>
<g id="a_edge30_Node000021_Node000025"><a xlink:title=" ">
<path fill="none" stroke="#63b8ff" d="M325.8,-331.33C328.74,-324.51 332.94,-314.81 336.65,-306.2"/>
<polygon fill="#63b8ff" stroke="#63b8ff" points="339.77,-307.82 340.52,-297.25 333.34,-305.04 339.77,-307.82"/>
</a>
</g>
</g>
<!-- Node22&#45;&gt;Node7 -->
<g id="edge27_Node000022_Node000007" class="edge">
<title>Node22&#45;&gt;Node7</title>
<g id="a_edge27_Node000022_Node000007"><a xlink:title=" ">
<path fill="none" stroke="#63b8ff" d="M69.03,-275.87C71.96,-254.18 82.21,-198.41 113,-165.75 154.11,-122.14 178.44,-127.2 236,-110.5 332.55,-82.49 451.27,-71.68 510.2,-67.82"/>
<polygon fill="#63b8ff" stroke="#63b8ff" points="510.23,-71.33 519.99,-67.22 509.79,-64.34 510.23,-71.33"/>
</a>
</g>
</g>
<!-- Node23 -->
<g id="Node000023" class="node">
<title>Node23</title>
<g id="a_Node000023"><a xlink:title=" ">
<polygon fill="#e0e0e0" stroke="#999999" points="40,-240.25 0,-240.25 0,-221 40,-221 40,-240.25"/>
<text text-anchor="middle" x="20" y="-226.75" font-family="Helvetica,sans-Serif" font-size="10.00">ctime</text>
</a>
</g>
</g>
<!-- Node22&#45;&gt;Node23 -->
<g id="edge28_Node000022_Node000023" class="edge">
<title>Node22&#45;&gt;Node23</title>
<g id="a_edge28_Node000022_Node000023"><a xlink:title=" ">
<path fill="none" stroke="#63b8ff" d="M60.07,-276.08C53.44,-268.73 43.78,-258.01 35.61,-248.94"/>
<polygon fill="#63b8ff" stroke="#63b8ff" points="38.41,-246.82 29.11,-241.73 33.21,-251.5 38.41,-246.82"/>
</a>
</g>
</g>
<!-- Node27&#45;&gt;Node11 -->
<g id="edge36_Node000027_Node000011" class="edge">
<title>Node27&#45;&gt;Node11</title>
<g id="a_edge36_Node000027_Node000011"><a xlink:title=" ">
<path fill="none" stroke="#63b8ff" d="M920.31,-441.61C954.7,-426.61 1015,-393.05 1015,-342.12 1015,-342.12 1015,-342.12 1015,-284.88 1015,-251.88 1030.84,-216.26 1042.07,-195.16"/>
<polygon fill="#63b8ff" stroke="#63b8ff" points="1045.02,-197.05 1046.82,-186.61 1038.9,-193.65 1045.02,-197.05"/>
</a>
</g>
</g>
<!-- Node28 -->
<g id="Node000028" class="node">
<title>Node28</title>
<g id="a_Node000028"><a xlink:href="_option_types_8h.html" target="_top" xlink:title=" ">
<polygon fill="white" stroke="#666666" points="986.5,-350.75 907.5,-350.75 907.5,-331.5 986.5,-331.5 986.5,-350.75"/>
<text text-anchor="middle" x="947" y="-337.25" font-family="Helvetica,sans-Serif" font-size="10.00">OptionTypes.h</text>
</a>
</g>
</g>
<!-- Node27&#45;&gt;Node28 -->
<g id="edge33_Node000027_Node000028" class="edge">
<title>Node27&#45;&gt;Node28</title>
<g id="a_edge33_Node000027_Node000028"><a xlink:title=" ">
<path fill="none" stroke="#63b8ff" d="M904.58,-441.59C911.51,-432.93 921.62,-419.26 928,-406 934.76,-391.93 939.67,-374.96 942.81,-362.04"/>
<polygon fill="#63b8ff" stroke="#63b8ff" points="946.15,-363.13 944.94,-352.61 939.32,-361.59 946.15,-363.13"/>
</a>
</g>
</g>
<!-- Node29 -->
<g id="Node000029" class="node">
<title>Node29</title>
<g id="a_Node000029"><a xlink:href="_defaults_8h.html" target="_top" xlink:title=" ">
<polygon fill="white" stroke="#666666" points="800.5,-406 739.5,-406 739.5,-386.75 800.5,-386.75 800.5,-406"/>
<text text-anchor="middle" x="770" y="-392.5" font-family="Helvetica,sans-Serif" font-size="10.00">Defaults.h</text>
</a>
</g>
</g>
<!-- Node27&#45;&gt;Node29 -->
<g id="edge37_Node000027_Node000029" class="edge">
<title>Node27&#45;&gt;Node29</title>
<g id="a_edge37_Node000027_Node000029"><a xlink:title=" ">
<path fill="none" stroke="#63b8ff" d="M875.46,-441.59C855.39,-433.18 825.2,-420.52 802.25,-410.9"/>
<polygon fill="#63b8ff" stroke="#63b8ff" points="803.62,-407.68 793.05,-407.04 800.91,-414.13 803.62,-407.68"/>
</a>
</g>
</g>
<!-- Node39 -->
<g id="Node000039" class="node">
<title>Node39</title>
<g id="a_Node000039"><a xlink:title=" ">
<polygon fill="#e0e0e0" stroke="#999999" points="918.88,-406 863.12,-406 863.12,-386.75 918.88,-386.75 918.88,-406"/>
<text text-anchor="middle" x="891" y="-392.5" font-family="Helvetica,sans-Serif" font-size="10.00">algorithm</text>
</a>
</g>
</g>
<!-- Node27&#45;&gt;Node39 -->
<g id="edge54_Node000027_Node000039" class="edge">
<title>Node27&#45;&gt;Node39</title>
<g id="a_edge54_Node000027_Node000039"><a xlink:title=" ">
<path fill="none" stroke="#63b8ff" d="M896.01,-441.83C895.27,-435.24 894.22,-425.96 893.28,-417.57"/>
<polygon fill="#63b8ff" stroke="#63b8ff" points="896.78,-417.41 892.18,-407.86 889.82,-418.19 896.78,-417.41"/>
</a>
</g>
</g>
<!-- Node28&#45;&gt;Node5 -->
<g id="edge34_Node000028_Node000005" class="edge">
<title>Node28&#45;&gt;Node5</title>
<g id="a_edge34_Node000028_Node000005"><a xlink:title=" ">
<path fill="none" stroke="#63b8ff" d="M986.66,-336.85C1027.87,-332.17 1093.28,-321.1 1144,-295.5 1177.55,-278.57 1192.36,-274.42 1208,-240.25 1216.36,-221.98 1199.88,-204.08 1183.81,-191.9"/>
<polygon fill="#63b8ff" stroke="#63b8ff" points="1186.03,-189.18 1175.84,-186.3 1182.01,-194.91 1186.03,-189.18"/>
</a>
</g>
</g>
<!-- Node28&#45;&gt;Node11 -->
<g id="edge35_Node000028_Node000011" class="edge">
<title>Node28&#45;&gt;Node11</title>
<g id="a_edge35_Node000028_Node000011"><a xlink:title=" ">
<path fill="none" stroke="#63b8ff" d="M949.61,-331.05C955.94,-310.13 973.61,-257.51 1001,-221 1009.22,-210.04 1020.57,-199.91 1030.57,-192.08"/>
<polygon fill="#63b8ff" stroke="#63b8ff" points="1032.48,-195.02 1038.39,-186.23 1028.28,-189.42 1032.48,-195.02"/>
</a>
</g>
</g>
<!-- Node29&#45;&gt;Node13 -->
<g id="edge38_Node000029_Node000013" class="edge">
<title>Node29&#45;&gt;Node13</title>
<g id="a_edge38_Node000029_Node000013"><a xlink:title=" ">
<path fill="none" stroke="#63b8ff" d="M773.96,-386.58C777.04,-379.76 781.41,-370.06 785.29,-361.45"/>
<polygon fill="#63b8ff" stroke="#63b8ff" points="788.41,-363.04 789.33,-352.49 782.03,-360.17 788.41,-363.04"/>
</a>
</g>
</g>
<!-- Node29&#45;&gt;Node21 -->
<g id="edge40_Node000029_Node000021" class="edge">
<title>Node29&#45;&gt;Node21</title>
<g id="a_edge40_Node000029_Node000021"><a xlink:title=" ">
<path fill="none" stroke="#63b8ff" d="M739.21,-391.71C663.28,-382.69 466.5,-359.3 372.9,-348.18"/>
<polygon fill="#63b8ff" stroke="#63b8ff" points="373.32,-344.7 362.98,-347 372.5,-351.65 373.32,-344.7"/>
</a>
</g>
</g>
<!-- Node29&#45;&gt;Node28 -->
<g id="edge39_Node000029_Node000028" class="edge">
<title>Node29&#45;&gt;Node28</title>
<g id="a_edge39_Node000029_Node000028"><a xlink:title=" ">
<path fill="none" stroke="#63b8ff" d="M800.03,-386.34C829.14,-377.58 873.54,-364.23 905.92,-354.48"/>
<polygon fill="#63b8ff" stroke="#63b8ff" points="906.81,-357.87 915.38,-351.64 904.79,-351.17 906.81,-357.87"/>
</a>
</g>
</g>
<!-- Node30 -->
<g id="Node000030" class="node">
<title>Node30</title>
<g id="a_Node000030"><a xlink:href="_i_o_utils_8h.html" target="_top" xlink:title=" ">
<polygon fill="white" stroke="#666666" points="490.5,-295.5 435.5,-295.5 435.5,-276.25 490.5,-276.25 490.5,-295.5"/>
<text text-anchor="middle" x="463" y="-282" font-family="Helvetica,sans-Serif" font-size="10.00">IOUtils.h</text>
</a>
</g>
</g>
<!-- Node29&#45;&gt;Node30 -->
<g id="edge41_Node000029_Node000030" class="edge">
<title>Node29&#45;&gt;Node30</title>
<g id="a_edge41_Node000029_Node000030"><a xlink:title=" ">
<path fill="none" stroke="#63b8ff" d="M744.35,-386.31C689.84,-367.04 562.29,-321.97 499.39,-299.74"/>
<polygon fill="#63b8ff" stroke="#63b8ff" points="500.81,-296.53 490.22,-296.49 498.48,-303.13 500.81,-296.53"/>
</a>
</g>
</g>
<!-- Node30&#45;&gt;Node7 -->
<g id="edge42_Node000030_Node000007" class="edge">
<title>Node30&#45;&gt;Node7</title>
<g id="a_edge42_Node000030_Node000007"><a xlink:title=" ">
<path fill="none" stroke="#63b8ff" d="M435.34,-279.7C388.57,-270.67 298.03,-251.89 289,-240.25 283.76,-233.49 284.79,-228.45 289,-221 336.88,-136.34 451.48,-92.79 510.5,-75.32"/>
<polygon fill="#63b8ff" stroke="#63b8ff" points="511.42,-78.7 520.07,-72.59 509.5,-71.97 511.42,-78.7"/>
</a>
</g>
</g>
<!-- Node30&#45;&gt;Node19 -->
<g id="edge50_Node000030_Node000019" class="edge">
<title>Node30&#45;&gt;Node19</title>
<g id="a_edge50_Node000030_Node000019"><a xlink:title=" ">
<path fill="none" stroke="#63b8ff" d="M490.88,-280.36C534.81,-273.15 623.07,-258.19 707.79,-240.61"/>
<polygon fill="#63b8ff" stroke="#63b8ff" points="708.36,-244.07 717.43,-238.6 706.92,-237.22 708.36,-244.07"/>
</a>
</g>
</g>
<!-- Node31 -->
<g id="Node000031" class="node">
<title>Node31</title>
<g id="a_Node000031"><a xlink:href="_string_utils_8h.html" target="_top" xlink:title=" ">
<polygon fill="white" stroke="#666666" points="242,-240.25 172,-240.25 172,-221 242,-221 242,-240.25"/>
<text text-anchor="middle" x="207" y="-226.75" font-family="Helvetica,sans-Serif" font-size="10.00">StringUtils.h</text>
</a>
</g>
</g>
<!-- Node30&#45;&gt;Node31 -->
<g id="edge43_Node000030_Node000031" class="edge">
<title>Node30&#45;&gt;Node31</title>
<g id="a_edge43_Node000030_Node000031"><a xlink:title=" ">
<path fill="none" stroke="#63b8ff" d="M435.12,-279.07C391.41,-269.98 306.31,-252.28 253.31,-241.26"/>
<polygon fill="#63b8ff" stroke="#63b8ff" points="254.17,-237.86 243.67,-239.25 252.75,-244.72 254.17,-237.86"/>
</a>
</g>
</g>
<!-- Node30&#45;&gt;Node32 -->
<g id="edge53_Node000030_Node000032" class="edge">
<title>Node30&#45;&gt;Node32</title>
<g id="a_edge53_Node000030_Node000032"><a xlink:title=" ">
<path fill="none" stroke="#63b8ff" d="M435.09,-280.54C426.12,-279.16 416.14,-277.63 407,-276.25 352.8,-268.08 204.42,-276.15 163,-240.25 150.56,-229.47 146.08,-210.93 144.55,-196.6"/>
<polygon fill="#63b8ff" stroke="#63b8ff" points="148.06,-196.65 143.94,-186.89 141.08,-197.09 148.06,-196.65"/>
</a>
</g>
</g>
<!-- Node33 -->
<g id="Node000033" class="node">
<title>Node33</title>
<g id="a_Node000033"><a xlink:title=" ">
<polygon fill="#e0e0e0" stroke="#999999" points="341.5,-240.25 298.5,-240.25 298.5,-221 341.5,-221 341.5,-240.25"/>
<text text-anchor="middle" x="320" y="-226.75" font-family="Helvetica,sans-Serif" font-size="10.00">fcntl.h</text>
</a>
</g>
</g>
<!-- Node30&#45;&gt;Node33 -->
<g id="edge46_Node000030_Node000033" class="edge">
<title>Node30&#45;&gt;Node33</title>
<g id="a_edge46_Node000030_Node000033"><a xlink:title=" ">
<path fill="none" stroke="#63b8ff" d="M438.74,-275.84C414.9,-266.96 378.36,-253.36 352.12,-243.58"/>
<polygon fill="#63b8ff" stroke="#63b8ff" points="353.58,-240.39 342.98,-240.18 351.13,-246.95 353.58,-240.39"/>
</a>
</g>
</g>
<!-- Node34 -->
<g id="Node000034" class="node">
<title>Node34</title>
<g id="a_Node000034"><a xlink:title=" ">
<polygon fill="#e0e0e0" stroke="#999999" points="420.5,-240.25 359.5,-240.25 359.5,-221 420.5,-221 420.5,-240.25"/>
<text text-anchor="middle" x="390" y="-226.75" font-family="Helvetica,sans-Serif" font-size="10.00">filesystem</text>
</a>
</g>
</g>
<!-- Node30&#45;&gt;Node34 -->
<g id="edge47_Node000030_Node000034" class="edge">
<title>Node30&#45;&gt;Node34</title>
<g id="a_edge47_Node000030_Node000034"><a xlink:title=" ">
<path fill="none" stroke="#63b8ff" d="M450.62,-275.84C439.85,-267.99 424.03,-256.45 411.25,-247.12"/>
<polygon fill="#63b8ff" stroke="#63b8ff" points="413.56,-244.48 403.42,-241.42 409.44,-250.14 413.56,-244.48"/>
</a>
</g>
</g>
<!-- Node35 -->
<g id="Node000035" class="node">
<title>Node35</title>
<g id="a_Node000035"><a xlink:title=" ">
<polygon fill="#e0e0e0" stroke="#999999" points="487.5,-240.25 438.5,-240.25 438.5,-221 487.5,-221 487.5,-240.25"/>
<text text-anchor="middle" x="463" y="-226.75" font-family="Helvetica,sans-Serif" font-size="10.00">fstream</text>
</a>
</g>
</g>
<!-- Node30&#45;&gt;Node35 -->
<g id="edge48_Node000030_Node000035" class="edge">
<title>Node30&#45;&gt;Node35</title>
<g id="a_edge48_Node000030_Node000035"><a xlink:title=" ">
<path fill="none" stroke="#63b8ff" d="M463,-276.08C463,-269.57 463,-260.42 463,-252.12"/>
<polygon fill="#63b8ff" stroke="#63b8ff" points="466.5,-252.12 463,-242.12 459.5,-252.12 466.5,-252.12"/>
</a>
</g>
</g>
<!-- Node36 -->
<g id="Node000036" class="node">
<title>Node36</title>
<g id="a_Node000036"><a xlink:title=" ">
<polygon fill="#e0e0e0" stroke="#999999" points="554.12,-240.25 505.88,-240.25 505.88,-221 554.12,-221 554.12,-240.25"/>
<text text-anchor="middle" x="530" y="-226.75" font-family="Helvetica,sans-Serif" font-size="10.00">istream</text>
</a>
</g>
</g>
<!-- Node30&#45;&gt;Node36 -->
<g id="edge49_Node000030_Node000036" class="edge">
<title>Node30&#45;&gt;Node36</title>
<g id="a_edge49_Node000030_Node000036"><a xlink:title=" ">
<path fill="none" stroke="#63b8ff" d="M474.37,-275.84C484.05,-268.15 498.2,-256.9 509.81,-247.68"/>
<polygon fill="#63b8ff" stroke="#63b8ff" points="511.97,-250.43 517.62,-241.47 507.61,-244.95 511.97,-250.43"/>
</a>
</g>
</g>
<!-- Node37 -->
<g id="Node000037" class="node">
<title>Node37</title>
<g id="a_Node000037"><a xlink:title=" ">
<polygon fill="#e0e0e0" stroke="#999999" points="623.62,-240.25 572.38,-240.25 572.38,-221 623.62,-221 623.62,-240.25"/>
<text text-anchor="middle" x="598" y="-226.75" font-family="Helvetica,sans-Serif" font-size="10.00">sstream</text>
</a>
</g>
</g>
<!-- Node30&#45;&gt;Node37 -->
<g id="edge51_Node000030_Node000037" class="edge">
<title>Node30&#45;&gt;Node37</title>
<g id="a_edge51_Node000030_Node000037"><a xlink:title=" ">
<path fill="none" stroke="#63b8ff" d="M485.9,-275.84C507.43,-267.35 539.91,-254.54 564.38,-244.89"/>
<polygon fill="#63b8ff" stroke="#63b8ff" points="565.56,-248.18 573.58,-241.26 562.99,-241.67 565.56,-248.18"/>
</a>
</g>
</g>
<!-- Node38 -->
<g id="Node000038" class="node">
<title>Node38</title>
<g id="a_Node000038"><a xlink:title=" ">
<polygon fill="#e0e0e0" stroke="#999999" points="700.75,-240.25 641.25,-240.25 641.25,-221 700.75,-221 700.75,-240.25"/>
<text text-anchor="middle" x="671" y="-226.75" font-family="Helvetica,sans-Serif" font-size="10.00">sys/stat.h</text>
</a>
</g>
</g>
<!-- Node30&#45;&gt;Node38 -->
<g id="edge52_Node000030_Node000038" class="edge">
<title>Node30&#45;&gt;Node38</title>
<g id="a_edge52_Node000030_Node000038"><a xlink:title=" ">
<path fill="none" stroke="#63b8ff" d="M490.62,-277.8C526.28,-268.68 588.63,-252.71 629.87,-242.15"/>
<polygon fill="#63b8ff" stroke="#63b8ff" points="630.62,-245.58 639.44,-239.71 628.88,-238.79 630.62,-245.58"/>
</a>
</g>
</g>
<!-- Node31&#45;&gt;Node7 -->
<g id="edge44_Node000031_Node000007" class="edge">
<title>Node31&#45;&gt;Node7</title>
<g id="a_edge44_Node000031_Node000007"><a xlink:title=" ">
<path fill="none" stroke="#63b8ff" d="M207.77,-220.7C210.22,-198.18 219.96,-138.84 256,-110.5 294.83,-79.96 440.96,-70.1 510.19,-67.1"/>
<polygon fill="#63b8ff" stroke="#63b8ff" points="510.03,-70.61 519.88,-66.71 509.75,-63.61 510.03,-70.61"/>
</a>
</g>
</g>
<!-- Node31&#45;&gt;Node32 -->
<g id="edge45_Node000031_Node000032" class="edge">
<title>Node31&#45;&gt;Node32</title>
<g id="a_edge45_Node000031_Node000032"><a xlink:title=" ">
<path fill="none" stroke="#63b8ff" d="M196.31,-220.59C187.3,-212.97 174.17,-201.87 163.32,-192.7"/>
<polygon fill="#63b8ff" stroke="#63b8ff" points="165.58,-190.03 155.69,-186.25 161.06,-195.38 165.58,-190.03"/>
</a>
</g>
</g>
<!-- Node41 -->
<g id="Node000041" class="node">
<title>Node41</title>
<g id="a_Node000041"><a xlink:title=" ">
<polygon fill="#e0e0e0" stroke="#999999" points="1132.12,-406 1089.88,-406 1089.88,-386.75 1132.12,-386.75 1132.12,-406"/>
<text text-anchor="middle" x="1111" y="-392.5" font-family="Helvetica,sans-Serif" font-size="10.00">cstdio</text>
</a>
</g>
</g>
<!-- Node40&#45;&gt;Node41 -->
<g id="edge57_Node000040_Node000041" class="edge">
<title>Node40&#45;&gt;Node41</title>
<g id="a_edge57_Node000040_Node000041"><a xlink:title=" ">
<path fill="none" stroke="#63b8ff" d="M1111,-441.83C1111,-435.32 1111,-426.17 1111,-417.87"/>
<polygon fill="#63b8ff" stroke="#63b8ff" points="1114.5,-417.87 1111,-407.87 1107.5,-417.87 1114.5,-417.87"/>
</a>
</g>
</g>
<!-- Node42&#45;&gt;Node5 -->
<g id="edge61_Node000042_Node000005" class="edge">
<title>Node42&#45;&gt;Node5</title>
<g id="a_edge61_Node000042_Node000005"><a xlink:title=" ">
<path fill="none" stroke="#63b8ff" d="M1362.55,-221.54C1318.4,-211.74 1244.29,-195.3 1198.72,-185.19"/>
<polygon fill="#63b8ff" stroke="#63b8ff" points="1199.51,-181.78 1188.98,-183.03 1197.99,-188.61 1199.51,-181.78"/>
</a>
</g>
</g>
<!-- Node42&#45;&gt;Node11 -->
<g id="edge62_Node000042_Node000011" class="edge">
<title>Node42&#45;&gt;Node11</title>
<g id="a_edge62_Node000042_Node000011"><a xlink:title=" ">
<path fill="none" stroke="#63b8ff" d="M1362.67,-222.53C1359.74,-221.99 1356.82,-221.48 1354,-221 1263.67,-205.65 1157.58,-190.62 1098.54,-182.52"/>
<polygon fill="#63b8ff" stroke="#63b8ff" points="1099.26,-179.08 1088.88,-181.2 1098.32,-186.02 1099.26,-179.08"/>
</a>
</g>
</g>
<!-- Node43 -->
<g id="Node000043" class="node">
<title>Node43</title>
<g id="a_Node000043"><a xlink:href="_peddle_types_8h.html" target="_top" xlink:title=" ">
<polygon fill="white" stroke="#666666" points="1247.25,-129.75 1166.75,-129.75 1166.75,-110.5 1247.25,-110.5 1247.25,-129.75"/>
<text text-anchor="middle" x="1207" y="-116.25" font-family="Helvetica,sans-Serif" font-size="10.00">PeddleTypes.h</text>
</a>
</g>
</g>
<!-- Node42&#45;&gt;Node43 -->
<g id="edge63_Node000042_Node000043" class="edge">
<title>Node42&#45;&gt;Node43</title>
<g id="a_edge63_Node000042_Node000043"><a xlink:title=" ">
<path fill="none" stroke="#63b8ff" d="M1382.96,-220.56C1349.78,-201.81 1273.36,-158.62 1233.02,-135.83"/>
<polygon fill="#63b8ff" stroke="#63b8ff" points="1234.87,-132.86 1224.45,-130.98 1231.43,-138.95 1234.87,-132.86"/>
</a>
</g>
</g>
<!-- Node43&#45;&gt;Node7 -->
<g id="edge64_Node000043_Node000007" class="edge">
<title>Node43&#45;&gt;Node7</title>
<g id="a_edge64_Node000043_Node000007"><a xlink:title=" ">
<path fill="none" stroke="#63b8ff" d="M1166.71,-115.87C1047.64,-106.27 698.56,-78.1 583.94,-68.86"/>
<polygon fill="#63b8ff" stroke="#63b8ff" points="584.43,-65.38 574.18,-68.07 583.86,-72.36 584.43,-65.38"/>
</a>
</g>
</g>
<!-- Node44&#45;&gt;Node5 -->
<g id="edge66_Node000044_Node000005" class="edge">
<title>Node44&#45;&gt;Node5</title>
<g id="a_edge66_Node000044_Node000005"><a xlink:title=" ">
<path fill="none" stroke="#63b8ff" d="M1276.08,-220.59C1253.5,-212.06 1219.36,-199.17 1193.77,-189.51"/>
<polygon fill="#63b8ff" stroke="#63b8ff" points="1195.04,-186.25 1184.45,-185.99 1192.57,-192.79 1195.04,-186.25"/>
</a>
</g>
</g>
<!-- Node44&#45;&gt;Node11 -->
<g id="edge67_Node000044_Node000011" class="edge">
<title>Node44&#45;&gt;Node11</title>
<g id="a_edge67_Node000044_Node000011"><a xlink:title=" ">
<path fill="none" stroke="#63b8ff" d="M1257.82,-220.53C1213.49,-210.97 1144,-195.99 1098.47,-186.18"/>
<polygon fill="#63b8ff" stroke="#63b8ff" points="1099.43,-182.8 1088.92,-184.12 1097.96,-189.65 1099.43,-182.8"/>
</a>
</g>
</g>
</g>
</svg>
