<?xml version="1.0" encoding="UTF-8" standalone="no"?>
<!DOCTYPE svg PUBLIC "-//W3C//DTD SVG 1.1//EN"
 "http://www.w3.org/Graphics/SVG/1.1/DTD/svg11.dtd">
<!-- Generated by graphviz version 10.0.1 (20240210.2158)
 -->
<!-- Title: /Users/hoff/Retro/virtualc64/Emulator/Media/Folder.h Pages: 1 -->
<svg width="460pt" height="591pt"
 viewBox="0.00 0.00 459.75 591.00" xmlns="http://www.w3.org/2000/svg" xmlns:xlink="http://www.w3.org/1999/xlink">
<g id="graph0" class="graph" transform="scale(1 1) rotate(0) translate(4 587)">
<title>/Users/hoff/Retro/virtualc64/Emulator/Media/Folder.h</title>
<!-- Node1 -->
<g id="Node000001" class="node">
<title>Node1</title>
<g id="a_Node000001"><a xlink:title=" ">
<polygon fill="#999999" stroke="#666666" points="348.62,-583 211.88,-583 211.88,-552.5 348.62,-552.5 348.62,-583"/>
<text text-anchor="start" x="219.88" y="-569.5" font-family="Helvetica,sans-Serif" font-size="10.00">/Users/hoff/Retro/virtualc64</text>
<text text-anchor="middle" x="280.25" y="-558.25" font-family="Helvetica,sans-Serif" font-size="10.00">/Emulator/Media/Folder.h</text>
</a>
</g>
</g>
<!-- Node2 -->
<g id="Node000002" class="node">
<title>Node2</title>
<g id="a_Node000002"><a xlink:href="_any_collection_8h.html" target="_top" xlink:title=" ">
<polygon fill="white" stroke="#666666" points="322.75,-516.5 237.75,-516.5 237.75,-497.25 322.75,-497.25 322.75,-516.5"/>
<text text-anchor="middle" x="280.25" y="-503" font-family="Helvetica,sans-Serif" font-size="10.00">AnyCollection.h</text>
</a>
</g>
</g>
<!-- Node1&#45;&gt;Node2 -->
<g id="edge1_Node000001_Node000002" class="edge">
<title>Node1&#45;&gt;Node2</title>
<g id="a_edge1_Node000001_Node000002"><a xlink:title=" ">
<path fill="none" stroke="#63b8ff" d="M280.25,-552.2C280.25,-544.96 280.25,-536.09 280.25,-528.19"/>
<polygon fill="#63b8ff" stroke="#63b8ff" points="283.75,-528.46 280.25,-518.46 276.75,-528.46 283.75,-528.46"/>
</a>
</g>
</g>
<!-- Node3 -->
<g id="Node000003" class="node">
<title>Node3</title>
<g id="a_Node000003"><a xlink:href="_any_file_8h.html" target="_top" xlink:title=" ">
<polygon fill="white" stroke="#666666" points="308.88,-461.25 251.62,-461.25 251.62,-442 308.88,-442 308.88,-461.25"/>
<text text-anchor="middle" x="280.25" y="-447.75" font-family="Helvetica,sans-Serif" font-size="10.00">AnyFile.h</text>
</a>
</g>
</g>
<!-- Node2&#45;&gt;Node3 -->
<g id="edge2_Node000002_Node000003" class="edge">
<title>Node2&#45;&gt;Node3</title>
<g id="a_edge2_Node000002_Node000003"><a xlink:title=" ">
<path fill="none" stroke="#63b8ff" d="M280.25,-497.08C280.25,-490.57 280.25,-481.42 280.25,-473.12"/>
<polygon fill="#63b8ff" stroke="#63b8ff" points="283.75,-473.12 280.25,-463.12 276.75,-473.12 283.75,-473.12"/>
</a>
</g>
</g>
<!-- Node4 -->
<g id="Node000004" class="node">
<title>Node4</title>
<g id="a_Node000004"><a xlink:href="_core_object_8h.html" target="_top" xlink:title=" ">
<polygon fill="white" stroke="#666666" points="286.12,-350.75 212.38,-350.75 212.38,-331.5 286.12,-331.5 286.12,-350.75"/>
<text text-anchor="middle" x="249.25" y="-337.25" font-family="Helvetica,sans-Serif" font-size="10.00">CoreObject.h</text>
</a>
</g>
</g>
<!-- Node3&#45;&gt;Node4 -->
<g id="edge3_Node000003_Node000004" class="edge">
<title>Node3&#45;&gt;Node4</title>
<g id="a_edge3_Node000003_Node000004"><a xlink:title=" ">
<path fill="none" stroke="#63b8ff" d="M267.05,-441.77C256.48,-433.83 242.44,-421.1 236.25,-406 230.4,-391.73 234.46,-374.55 239.54,-361.61"/>
<polygon fill="#63b8ff" stroke="#63b8ff" points="242.73,-363.05 243.62,-352.49 236.34,-360.19 242.73,-363.05"/>
</a>
</g>
</g>
<!-- Node18 -->
<g id="Node000018" class="node">
<title>Node18</title>
<g id="a_Node000018"><a xlink:href="_file_types_8h.html" target="_top" xlink:title=" ">
<polygon fill="white" stroke="#666666" points="67.38,-240.25 1.12,-240.25 1.12,-221 67.38,-221 67.38,-240.25"/>
<text text-anchor="middle" x="34.25" y="-226.75" font-family="Helvetica,sans-Serif" font-size="10.00">FileTypes.h</text>
</a>
</g>
</g>
<!-- Node3&#45;&gt;Node18 -->
<g id="edge18_Node000003_Node000018" class="edge">
<title>Node3&#45;&gt;Node18</title>
<g id="a_edge18_Node000003_Node000018"><a xlink:title=" ">
<path fill="none" stroke="#63b8ff" d="M270.06,-441.77C259.75,-432.79 243.35,-418.47 229.25,-406 163.99,-348.27 87.02,-279.13 52.55,-248.11"/>
<polygon fill="#63b8ff" stroke="#63b8ff" points="55.26,-245.84 45.49,-241.75 50.58,-251.04 55.26,-245.84"/>
</a>
</g>
</g>
<!-- Node19 -->
<g id="Node000019" class="node">
<title>Node19</title>
<g id="a_Node000019"><a xlink:href="_p_e_t_name_8h.html" target="_top" xlink:title=" ">
<polygon fill="white" stroke="#666666" points="315.25,-406 245.25,-406 245.25,-386.75 315.25,-386.75 315.25,-406"/>
<text text-anchor="middle" x="280.25" y="-392.5" font-family="Helvetica,sans-Serif" font-size="10.00">PETName.h</text>
</a>
</g>
</g>
<!-- Node3&#45;&gt;Node19 -->
<g id="edge21_Node000003_Node000019" class="edge">
<title>Node3&#45;&gt;Node19</title>
<g id="a_edge21_Node000003_Node000019"><a xlink:title=" ">
<path fill="none" stroke="#63b8ff" d="M280.25,-441.83C280.25,-435.32 280.25,-426.17 280.25,-417.87"/>
<polygon fill="#63b8ff" stroke="#63b8ff" points="283.75,-417.87 280.25,-407.87 276.75,-417.87 283.75,-417.87"/>
</a>
</g>
</g>
<!-- Node23 -->
<g id="Node000023" class="node">
<title>Node23</title>
<g id="a_Node000023"><a xlink:title=" ">
<polygon fill="#e0e0e0" stroke="#999999" points="384.88,-406 333.62,-406 333.62,-386.75 384.88,-386.75 384.88,-406"/>
<text text-anchor="middle" x="359.25" y="-392.5" font-family="Helvetica,sans-Serif" font-size="10.00">sstream</text>
</a>
</g>
</g>
<!-- Node3&#45;&gt;Node23 -->
<g id="edge28_Node000003_Node000023" class="edge">
<title>Node3&#45;&gt;Node23</title>
<g id="a_edge28_Node000003_Node000023"><a xlink:title=" ">
<path fill="none" stroke="#63b8ff" d="M293.65,-441.59C305.34,-433.71 322.55,-422.11 336.41,-412.77"/>
<polygon fill="#63b8ff" stroke="#63b8ff" points="338.19,-415.79 344.53,-407.3 334.28,-409.99 338.19,-415.79"/>
</a>
</g>
</g>
<!-- Node24 -->
<g id="Node000024" class="node">
<title>Node24</title>
<g id="a_Node000024"><a xlink:title=" ">
<polygon fill="#e0e0e0" stroke="#999999" points="451.75,-406 402.75,-406 402.75,-386.75 451.75,-386.75 451.75,-406"/>
<text text-anchor="middle" x="427.25" y="-392.5" font-family="Helvetica,sans-Serif" font-size="10.00">fstream</text>
</a>
</g>
</g>
<!-- Node3&#45;&gt;Node24 -->
<g id="edge29_Node000003_Node000024" class="edge">
<title>Node3&#45;&gt;Node24</title>
<g id="a_edge29_Node000003_Node000024"><a xlink:title=" ">
<path fill="none" stroke="#63b8ff" d="M305.19,-441.59C329.09,-432.93 365.39,-419.78 392.2,-410.07"/>
<polygon fill="#63b8ff" stroke="#63b8ff" points="393.05,-413.49 401.26,-406.79 390.66,-406.91 393.05,-413.49"/>
</a>
</g>
</g>
<!-- Node5 -->
<g id="Node000005" class="node">
<title>Node5</title>
<g id="a_Node000005"><a xlink:href="_error_8h.html" target="_top" xlink:title=" ">
<polygon fill="white" stroke="#666666" points="231.5,-295.5 187,-295.5 187,-276.25 231.5,-276.25 231.5,-295.5"/>
<text text-anchor="middle" x="209.25" y="-282" font-family="Helvetica,sans-Serif" font-size="10.00">Error.h</text>
</a>
</g>
</g>
<!-- Node4&#45;&gt;Node5 -->
<g id="edge4_Node000004_Node000005" class="edge">
<title>Node4&#45;&gt;Node5</title>
<g id="a_edge4_Node000004_Node000005"><a xlink:title=" ">
<path fill="none" stroke="#63b8ff" d="M242.64,-331.33C237.29,-324.21 229.57,-313.93 222.9,-305.05"/>
<polygon fill="#63b8ff" stroke="#63b8ff" points="225.71,-302.96 216.91,-297.07 220.12,-307.17 225.71,-302.96"/>
</a>
</g>
</g>
<!-- Node16 -->
<g id="Node000016" class="node">
<title>Node16</title>
<g id="a_Node000016"><a xlink:href="_inspectable_8h.html" target="_top" xlink:title=" ">
<polygon fill="white" stroke="#666666" points="325.5,-295.5 251,-295.5 251,-276.25 325.5,-276.25 325.5,-295.5"/>
<text text-anchor="middle" x="288.25" y="-282" font-family="Helvetica,sans-Serif" font-size="10.00">Inspectable.h</text>
</a>
</g>
</g>
<!-- Node4&#45;&gt;Node16 -->
<g id="edge16_Node000004_Node000016" class="edge">
<title>Node4&#45;&gt;Node16</title>
<g id="a_edge16_Node000004_Node000016"><a xlink:title=" ">
<path fill="none" stroke="#63b8ff" d="M255.69,-331.33C260.91,-324.21 268.44,-313.93 274.94,-305.05"/>
<polygon fill="#63b8ff" stroke="#63b8ff" points="277.69,-307.22 280.78,-297.08 272.04,-303.08 277.69,-307.22"/>
</a>
</g>
</g>
<!-- Node6 -->
<g id="Node000006" class="node">
<title>Node6</title>
<g id="a_Node000006"><a xlink:href="_error_types_8h.html" target="_top" xlink:title=" ">
<polygon fill="white" stroke="#666666" points="157,-240.25 85.5,-240.25 85.5,-221 157,-221 157,-240.25"/>
<text text-anchor="middle" x="121.25" y="-226.75" font-family="Helvetica,sans-Serif" font-size="10.00">ErrorTypes.h</text>
</a>
</g>
</g>
<!-- Node5&#45;&gt;Node6 -->
<g id="edge5_Node000005_Node000006" class="edge">
<title>Node5&#45;&gt;Node6</title>
<g id="a_edge5_Node000005_Node000006"><a xlink:title=" ">
<path fill="none" stroke="#63b8ff" d="M194.32,-275.84C181.05,-267.81 161.38,-255.91 145.8,-246.48"/>
<polygon fill="#63b8ff" stroke="#63b8ff" points="147.91,-243.67 137.55,-241.49 144.29,-249.66 147.91,-243.67"/>
</a>
</g>
</g>
<!-- Node14 -->
<g id="Node000014" class="node">
<title>Node14</title>
<g id="a_Node000014"><a xlink:href="_exception_8h.html" target="_top" xlink:title=" ">
<polygon fill="white" stroke="#666666" points="243.12,-240.25 175.38,-240.25 175.38,-221 243.12,-221 243.12,-240.25"/>
<text text-anchor="middle" x="209.25" y="-226.75" font-family="Helvetica,sans-Serif" font-size="10.00">Exception.h</text>
</a>
</g>
</g>
<!-- Node5&#45;&gt;Node14 -->
<g id="edge13_Node000005_Node000014" class="edge">
<title>Node5&#45;&gt;Node14</title>
<g id="a_edge13_Node000005_Node000014"><a xlink:title=" ">
<path fill="none" stroke="#63b8ff" d="M209.25,-276.08C209.25,-269.57 209.25,-260.42 209.25,-252.12"/>
<polygon fill="#63b8ff" stroke="#63b8ff" points="212.75,-252.12 209.25,-242.12 205.75,-252.12 212.75,-252.12"/>
</a>
</g>
</g>
<!-- Node7 -->
<g id="Node000007" class="node">
<title>Node7</title>
<g id="a_Node000007"><a xlink:href="_aliases_8h.html" target="_top" xlink:title=" ">
<polygon fill="white" stroke="#666666" points="143.5,-185 87,-185 87,-165.75 143.5,-165.75 143.5,-185"/>
<text text-anchor="middle" x="115.25" y="-171.5" font-family="Helvetica,sans-Serif" font-size="10.00">Aliases.h</text>
</a>
</g>
</g>
<!-- Node6&#45;&gt;Node7 -->
<g id="edge6_Node000006_Node000007" class="edge">
<title>Node6&#45;&gt;Node7</title>
<g id="a_edge6_Node000006_Node000007"><a xlink:title=" ">
<path fill="none" stroke="#63b8ff" d="M120.26,-220.83C119.52,-214.24 118.47,-204.96 117.53,-196.57"/>
<polygon fill="#63b8ff" stroke="#63b8ff" points="121.03,-196.41 116.43,-186.86 114.07,-197.19 121.03,-196.41"/>
</a>
</g>
</g>
<!-- Node13 -->
<g id="Node000013" class="node">
<title>Node13</title>
<g id="a_Node000013"><a xlink:href="_reflection_8h.html" target="_top" xlink:title=" ">
<polygon fill="white" stroke="#666666" points="68.5,-185 0,-185 0,-165.75 68.5,-165.75 68.5,-185"/>
<text text-anchor="middle" x="34.25" y="-171.5" font-family="Helvetica,sans-Serif" font-size="10.00">Reflection.h</text>
</a>
</g>
</g>
<!-- Node6&#45;&gt;Node13 -->
<g id="edge12_Node000006_Node000013" class="edge">
<title>Node6&#45;&gt;Node13</title>
<g id="a_edge12_Node000006_Node000013"><a xlink:title=" ">
<path fill="none" stroke="#63b8ff" d="M106.49,-220.59C93.37,-212.56 73.93,-200.66 58.52,-191.23"/>
<polygon fill="#63b8ff" stroke="#63b8ff" points="60.73,-188.48 50.37,-186.24 57.07,-194.45 60.73,-188.48"/>
</a>
</g>
</g>
<!-- Node8 -->
<g id="Node000008" class="node">
<title>Node8</title>
<g id="a_Node000008"><a xlink:href="_macros_8h.html" target="_top" xlink:title=" ">
<polygon fill="white" stroke="#666666" points="181.5,-129.75 125,-129.75 125,-110.5 181.5,-110.5 181.5,-129.75"/>
<text text-anchor="middle" x="153.25" y="-116.25" font-family="Helvetica,sans-Serif" font-size="10.00">Macros.h</text>
</a>
</g>
</g>
<!-- Node7&#45;&gt;Node8 -->
<g id="edge7_Node000007_Node000008" class="edge">
<title>Node7&#45;&gt;Node8</title>
<g id="a_edge7_Node000007_Node000008"><a xlink:title=" ">
<path fill="none" stroke="#63b8ff" d="M121.52,-165.58C126.61,-158.46 133.95,-148.18 140.28,-139.3"/>
<polygon fill="#63b8ff" stroke="#63b8ff" points="143,-141.51 145.96,-131.34 137.3,-137.45 143,-141.51"/>
</a>
</g>
</g>
<!-- Node9 -->
<g id="Node000009" class="node">
<title>Node9</title>
<g id="a_Node000009"><a xlink:href="_types_8h.html" target="_top" xlink:title=" ">
<polygon fill="white" stroke="#666666" points="304.5,-74.5 254,-74.5 254,-55.25 304.5,-55.25 304.5,-74.5"/>
<text text-anchor="middle" x="279.25" y="-61" font-family="Helvetica,sans-Serif" font-size="10.00">Types.h</text>
</a>
</g>
</g>
<!-- Node8&#45;&gt;Node9 -->
<g id="edge8_Node000008_Node000009" class="edge">
<title>Node8&#45;&gt;Node9</title>
<g id="a_edge8_Node000008_Node000009"><a xlink:title=" ">
<path fill="none" stroke="#63b8ff" d="M174.62,-110.09C194.54,-101.68 224.49,-89.02 247.25,-79.4"/>
<polygon fill="#63b8ff" stroke="#63b8ff" points="248.53,-82.66 256.38,-75.54 245.8,-76.21 248.53,-82.66"/>
</a>
</g>
</g>
<!-- Node10 -->
<g id="Node000010" class="node">
<title>Node10</title>
<g id="a_Node000010"><a xlink:title=" ">
<polygon fill="#e0e0e0" stroke="#999999" points="236.75,-19.25 169.75,-19.25 169.75,0 236.75,0 236.75,-19.25"/>
<text text-anchor="middle" x="203.25" y="-5.75" font-family="Helvetica,sans-Serif" font-size="10.00">sys/types.h</text>
</a>
</g>
</g>
<!-- Node9&#45;&gt;Node10 -->
<g id="edge9_Node000009_Node000010" class="edge">
<title>Node9&#45;&gt;Node10</title>
<g id="a_edge9_Node000009_Node000010"><a xlink:title=" ">
<path fill="none" stroke="#63b8ff" d="M266.36,-54.84C255.22,-47.04 238.88,-35.59 225.61,-26.29"/>
<polygon fill="#63b8ff" stroke="#63b8ff" points="227.64,-23.44 217.45,-20.57 223.63,-29.18 227.64,-23.44"/>
</a>
</g>
</g>
<!-- Node11 -->
<g id="Node000011" class="node">
<title>Node11</title>
<g id="a_Node000011"><a xlink:title=" ">
<polygon fill="#e0e0e0" stroke="#999999" points="303.38,-19.25 255.12,-19.25 255.12,0 303.38,0 303.38,-19.25"/>
<text text-anchor="middle" x="279.25" y="-5.75" font-family="Helvetica,sans-Serif" font-size="10.00">stdint.h</text>
</a>
</g>
</g>
<!-- Node9&#45;&gt;Node11 -->
<g id="edge10_Node000009_Node000011" class="edge">
<title>Node9&#45;&gt;Node11</title>
<g id="a_edge10_Node000009_Node000011"><a xlink:title=" ">
<path fill="none" stroke="#63b8ff" d="M279.25,-55.08C279.25,-48.57 279.25,-39.42 279.25,-31.12"/>
<polygon fill="#63b8ff" stroke="#63b8ff" points="282.75,-31.12 279.25,-21.12 275.75,-31.12 282.75,-31.12"/>
</a>
</g>
</g>
<!-- Node12 -->
<g id="Node000012" class="node">
<title>Node12</title>
<g id="a_Node000012"><a xlink:title=" ">
<polygon fill="#e0e0e0" stroke="#999999" points="377.12,-19.25 321.38,-19.25 321.38,0 377.12,0 377.12,-19.25"/>
<text text-anchor="middle" x="349.25" y="-5.75" font-family="Helvetica,sans-Serif" font-size="10.00">stdbool.h</text>
</a>
</g>
</g>
<!-- Node9&#45;&gt;Node12 -->
<g id="edge11_Node000009_Node000012" class="edge">
<title>Node9&#45;&gt;Node12</title>
<g id="a_edge11_Node000009_Node000012"><a xlink:title=" ">
<path fill="none" stroke="#63b8ff" d="M291.12,-54.84C301.34,-47.07 316.32,-35.67 328.51,-26.4"/>
<polygon fill="#63b8ff" stroke="#63b8ff" points="330.51,-29.28 336.35,-20.44 326.27,-23.71 330.51,-29.28"/>
</a>
</g>
</g>
<!-- Node14&#45;&gt;Node9 -->
<g id="edge14_Node000014_Node000009" class="edge">
<title>Node14&#45;&gt;Node9</title>
<g id="a_edge14_Node000014_Node000009"><a xlink:title=" ">
<path fill="none" stroke="#63b8ff" d="M213.01,-220.82C223.93,-195.28 255.81,-120.7 271.01,-85.15"/>
<polygon fill="#63b8ff" stroke="#63b8ff" points="274.16,-86.69 274.87,-76.11 267.72,-83.93 274.16,-86.69"/>
</a>
</g>
</g>
<!-- Node15 -->
<g id="Node000015" class="node">
<title>Node15</title>
<g id="a_Node000015"><a xlink:title=" ">
<polygon fill="#e0e0e0" stroke="#999999" points="219.25,-185 161.25,-185 161.25,-165.75 219.25,-165.75 219.25,-185"/>
<text text-anchor="middle" x="190.25" y="-171.5" font-family="Helvetica,sans-Serif" font-size="10.00">exception</text>
</a>
</g>
</g>
<!-- Node14&#45;&gt;Node15 -->
<g id="edge15_Node000014_Node000015" class="edge">
<title>Node14&#45;&gt;Node15</title>
<g id="a_edge15_Node000014_Node000015"><a xlink:title=" ">
<path fill="none" stroke="#63b8ff" d="M206.11,-220.83C203.71,-214.09 200.29,-204.52 197.25,-195.99"/>
<polygon fill="#63b8ff" stroke="#63b8ff" points="200.62,-195.03 193.96,-186.78 194.03,-197.38 200.62,-195.03"/>
</a>
</g>
</g>
<!-- Node17 -->
<g id="Node000017" class="node">
<title>Node17</title>
<g id="a_Node000017"><a xlink:title=" ">
<polygon fill="#e0e0e0" stroke="#999999" points="315,-240.25 261.5,-240.25 261.5,-221 315,-221 315,-240.25"/>
<text text-anchor="middle" x="288.25" y="-226.75" font-family="Helvetica,sans-Serif" font-size="10.00">iostream</text>
</a>
</g>
</g>
<!-- Node16&#45;&gt;Node17 -->
<g id="edge17_Node000016_Node000017" class="edge">
<title>Node16&#45;&gt;Node17</title>
<g id="a_edge17_Node000016_Node000017"><a xlink:title=" ">
<path fill="none" stroke="#63b8ff" d="M288.25,-276.08C288.25,-269.57 288.25,-260.42 288.25,-252.12"/>
<polygon fill="#63b8ff" stroke="#63b8ff" points="291.75,-252.12 288.25,-242.12 284.75,-252.12 291.75,-252.12"/>
</a>
</g>
</g>
<!-- Node18&#45;&gt;Node7 -->
<g id="edge19_Node000018_Node000007" class="edge">
<title>Node18&#45;&gt;Node7</title>
<g id="a_edge19_Node000018_Node000007"><a xlink:title=" ">
<path fill="none" stroke="#63b8ff" d="M47.99,-220.59C59.98,-212.71 77.62,-201.11 91.83,-191.77"/>
<polygon fill="#63b8ff" stroke="#63b8ff" points="93.74,-194.7 100.18,-186.28 89.9,-188.85 93.74,-194.7"/>
</a>
</g>
</g>
<!-- Node18&#45;&gt;Node13 -->
<g id="edge20_Node000018_Node000013" class="edge">
<title>Node18&#45;&gt;Node13</title>
<g id="a_edge20_Node000018_Node000013"><a xlink:title=" ">
<path fill="none" stroke="#63b8ff" d="M34.25,-220.83C34.25,-214.32 34.25,-205.17 34.25,-196.87"/>
<polygon fill="#63b8ff" stroke="#63b8ff" points="37.75,-196.87 34.25,-186.87 30.75,-196.87 37.75,-196.87"/>
</a>
</g>
</g>
<!-- Node19&#45;&gt;Node4 -->
<g id="edge22_Node000019_Node000004" class="edge">
<title>Node19&#45;&gt;Node4</title>
<g id="a_edge22_Node000019_Node000004"><a xlink:title=" ">
<path fill="none" stroke="#63b8ff" d="M275.13,-386.58C271.07,-379.61 265.26,-369.62 260.16,-360.87"/>
<polygon fill="#63b8ff" stroke="#63b8ff" points="263.3,-359.3 255.24,-352.42 257.25,-362.82 263.3,-359.3"/>
</a>
</g>
</g>
<!-- Node20 -->
<g id="Node000020" class="node">
<title>Node20</title>
<g id="a_Node000020"><a xlink:href="_mem_utils_8h.html" target="_top" xlink:title=" ">
<polygon fill="white" stroke="#666666" points="397.38,-185 331.12,-185 331.12,-165.75 397.38,-165.75 397.38,-185"/>
<text text-anchor="middle" x="364.25" y="-171.5" font-family="Helvetica,sans-Serif" font-size="10.00">MemUtils.h</text>
</a>
</g>
</g>
<!-- Node19&#45;&gt;Node20 -->
<g id="edge23_Node000019_Node000020" class="edge">
<title>Node19&#45;&gt;Node20</title>
<g id="a_edge23_Node000019_Node000020"><a xlink:title=" ">
<path fill="none" stroke="#63b8ff" d="M286.11,-386.38C297.01,-369.31 320.52,-330.77 334.25,-295.5 347.36,-261.81 356.27,-220.5 360.78,-196.43"/>
<polygon fill="#63b8ff" stroke="#63b8ff" points="364.2,-197.23 362.52,-186.77 357.31,-195.99 364.2,-197.23"/>
</a>
</g>
</g>
<!-- Node20&#45;&gt;Node9 -->
<g id="edge24_Node000020_Node000009" class="edge">
<title>Node20&#45;&gt;Node9</title>
<g id="a_edge24_Node000020_Node000009"><a xlink:title=" ">
<path fill="none" stroke="#63b8ff" d="M365.49,-165.26C366.8,-152.04 367.36,-127.27 356.25,-110.5 346.54,-95.85 330.26,-85.41 315.16,-78.33"/>
<polygon fill="#63b8ff" stroke="#63b8ff" points="316.95,-75.29 306.38,-74.55 314.19,-81.72 316.95,-75.29"/>
</a>
</g>
</g>
<!-- Node21 -->
<g id="Node000021" class="node">
<title>Node21</title>
<g id="a_Node000021"><a xlink:href="_checksum_8h.html" target="_top" xlink:title=" ">
<polygon fill="white" stroke="#666666" points="347,-129.75 275.5,-129.75 275.5,-110.5 347,-110.5 347,-129.75"/>
<text text-anchor="middle" x="311.25" y="-116.25" font-family="Helvetica,sans-Serif" font-size="10.00">Checksum.h</text>
</a>
</g>
</g>
<!-- Node20&#45;&gt;Node21 -->
<g id="edge25_Node000020_Node000021" class="edge">
<title>Node20&#45;&gt;Node21</title>
<g id="a_edge25_Node000020_Node000021"><a xlink:title=" ">
<path fill="none" stroke="#63b8ff" d="M355.5,-165.58C348.1,-158.15 337.29,-147.29 328.2,-138.16"/>
<polygon fill="#63b8ff" stroke="#63b8ff" points="330.79,-135.8 321.26,-131.18 325.83,-140.74 330.79,-135.8"/>
</a>
</g>
</g>
<!-- Node22 -->
<g id="Node000022" class="node">
<title>Node22</title>
<g id="a_Node000022"><a xlink:title=" ">
<polygon fill="#e0e0e0" stroke="#999999" points="431.65,-129.75 402.85,-129.75 402.85,-110.5 431.65,-110.5 431.65,-129.75"/>
<text text-anchor="middle" x="417.25" y="-116.25" font-family="Helvetica,sans-Serif" font-size="10.00">bit</text>
</a>
</g>
</g>
<!-- Node20&#45;&gt;Node22 -->
<g id="edge27_Node000020_Node000022" class="edge">
<title>Node20&#45;&gt;Node22</title>
<g id="a_edge27_Node000020_Node000022"><a xlink:title=" ">
<path fill="none" stroke="#63b8ff" d="M373,-165.58C380.4,-158.15 391.21,-147.29 400.3,-138.16"/>
<polygon fill="#63b8ff" stroke="#63b8ff" points="402.67,-140.74 407.24,-131.18 397.71,-135.8 402.67,-140.74"/>
</a>
</g>
</g>
<!-- Node21&#45;&gt;Node9 -->
<g id="edge26_Node000021_Node000009" class="edge">
<title>Node21&#45;&gt;Node9</title>
<g id="a_edge26_Node000021_Node000009"><a xlink:title=" ">
<path fill="none" stroke="#63b8ff" d="M305.97,-110.33C301.78,-103.36 295.77,-93.37 290.52,-84.62"/>
<polygon fill="#63b8ff" stroke="#63b8ff" points="293.58,-82.93 285.43,-76.16 287.58,-86.53 293.58,-82.93"/>
</a>
</g>
</g>
</g>
</svg>
