<?xml version="1.0" encoding="UTF-8" standalone="no"?>
<!DOCTYPE svg PUBLIC "-//W3C//DTD SVG 1.1//EN"
 "http://www.w3.org/Graphics/SVG/1.1/DTD/svg11.dtd">
<!-- Generated by graphviz version 10.0.1 (20240210.2158)
 -->
<!-- Title: /Users/hoff/Retro/virtualc64/Emulator/Headless.cpp Pages: 1 -->
<svg width="3047pt" height="370pt"
 viewBox="0.00 0.00 3047.00 370.00" xmlns="http://www.w3.org/2000/svg" xmlns:xlink="http://www.w3.org/1999/xlink">
<g id="graph0" class="graph" transform="scale(1 1) rotate(0) translate(4 366)">
<title>/Users/hoff/Retro/virtualc64/Emulator/Headless.cpp</title>
<!-- Node1 -->
<g id="Node000001" class="node">
<title>Node1</title>
<g id="a_Node000001"><a xlink:title=" ">
<polygon fill="#999999" stroke="#666666" points="650.38,-362 513.62,-362 513.62,-331.5 650.38,-331.5 650.38,-362"/>
<text text-anchor="start" x="521.62" y="-348.5" font-family="Helvetica,sans-Serif" font-size="10.00">/Users/hoff/Retro/virtualc64</text>
<text text-anchor="middle" x="582" y="-337.25" font-family="Helvetica,sans-Serif" font-size="10.00">/Emulator/Headless.cpp</text>
</a>
</g>
</g>
<!-- Node2 -->
<g id="Node000002" class="node">
<title>Node2</title>
<g id="a_Node000002"><a xlink:href="config_8h_source.html" target="_top" xlink:title=" ">
<polygon fill="white" stroke="#666666" points="450.25,-295.5 399.75,-295.5 399.75,-276.25 450.25,-276.25 450.25,-295.5"/>
<text text-anchor="middle" x="425" y="-282" font-family="Helvetica,sans-Serif" font-size="10.00">config.h</text>
</a>
</g>
</g>
<!-- Node1&#45;&gt;Node2 -->
<g id="edge1_Node000001_Node000002" class="edge">
<title>Node1&#45;&gt;Node2</title>
<g id="a_edge1_Node000001_Node000002"><a xlink:title=" ">
<path fill="none" stroke="#63b8ff" d="M542.79,-331.05C517.27,-321.48 484.29,-309.11 459.72,-299.89"/>
<polygon fill="#63b8ff" stroke="#63b8ff" points="461.09,-296.67 450.49,-296.44 458.63,-303.22 461.09,-296.67"/>
</a>
</g>
</g>
<!-- Node4 -->
<g id="Node000004" class="node">
<title>Node4</title>
<g id="a_Node000004"><a xlink:href="_headless_8h_source.html" target="_top" xlink:title=" ">
<polygon fill="white" stroke="#666666" points="533.75,-295.5 468.25,-295.5 468.25,-276.25 533.75,-276.25 533.75,-295.5"/>
<text text-anchor="middle" x="501" y="-282" font-family="Helvetica,sans-Serif" font-size="10.00">Headless.h</text>
</a>
</g>
</g>
<!-- Node1&#45;&gt;Node4 -->
<g id="edge3_Node000001_Node000004" class="edge">
<title>Node1&#45;&gt;Node4</title>
<g id="a_edge3_Node000001_Node000004"><a xlink:title=" ">
<path fill="none" stroke="#63b8ff" d="M561.98,-331.2C550,-322.49 534.78,-311.43 522.54,-302.53"/>
<polygon fill="#63b8ff" stroke="#63b8ff" points="524.86,-299.89 514.71,-296.84 520.74,-305.55 524.86,-299.89"/>
</a>
</g>
</g>
<!-- Node79 -->
<g id="Node000079" class="node">
<title>Node79</title>
<g id="a_Node000079"><a xlink:title=" ">
<polygon fill="#e0e0e0" stroke="#999999" points="612.5,-295.5 551.5,-295.5 551.5,-276.25 612.5,-276.25 612.5,-295.5"/>
<text text-anchor="middle" x="582" y="-282" font-family="Helvetica,sans-Serif" font-size="10.00">filesystem</text>
</a>
</g>
</g>
<!-- Node1&#45;&gt;Node79 -->
<g id="edge63_Node000001_Node000079" class="edge">
<title>Node1&#45;&gt;Node79</title>
<g id="a_edge63_Node000001_Node000079"><a xlink:title=" ">
<path fill="none" stroke="#63b8ff" d="M582,-331.2C582,-323.96 582,-315.09 582,-307.19"/>
<polygon fill="#63b8ff" stroke="#63b8ff" points="585.5,-307.46 582,-297.46 578.5,-307.46 585.5,-307.46"/>
</a>
</g>
</g>
<!-- Node206 -->
<g id="Node000206" class="node">
<title>Node206</title>
<g id="a_Node000206"><a xlink:title=" ">
<polygon fill="#e0e0e0" stroke="#999999" points="675.62,-295.5 630.38,-295.5 630.38,-276.25 675.62,-276.25 675.62,-295.5"/>
<text text-anchor="middle" x="653" y="-282" font-family="Helvetica,sans-Serif" font-size="10.00">chrono</text>
</a>
</g>
</g>
<!-- Node1&#45;&gt;Node206 -->
<g id="edge64_Node000001_Node000206" class="edge">
<title>Node1&#45;&gt;Node206</title>
<g id="a_edge64_Node000001_Node000206"><a xlink:title=" ">
<path fill="none" stroke="#63b8ff" d="M599.55,-331.2C609.84,-322.66 622.86,-311.87 633.48,-303.06"/>
<polygon fill="#63b8ff" stroke="#63b8ff" points="635.43,-305.99 640.89,-296.92 630.96,-300.61 635.43,-305.99"/>
</a>
</g>
</g>
<!-- Node207 -->
<g id="Node000207" class="node">
<title>Node207</title>
<g id="a_Node000207"><a xlink:title=" ">
<polygon fill="#e0e0e0" stroke="#999999" points="744.62,-295.5 693.38,-295.5 693.38,-276.25 744.62,-276.25 744.62,-295.5"/>
<text text-anchor="middle" x="719" y="-282" font-family="Helvetica,sans-Serif" font-size="10.00">getopt.h</text>
</a>
</g>
</g>
<!-- Node1&#45;&gt;Node207 -->
<g id="edge65_Node000001_Node000207" class="edge">
<title>Node1&#45;&gt;Node207</title>
<g id="a_edge65_Node000001_Node000207"><a xlink:title=" ">
<path fill="none" stroke="#63b8ff" d="M616.22,-331.05C638.08,-321.65 666.23,-309.55 687.54,-300.39"/>
<polygon fill="#63b8ff" stroke="#63b8ff" points="688.79,-303.67 696.6,-296.5 686.03,-297.23 688.79,-303.67"/>
</a>
</g>
</g>
<!-- Node3 -->
<g id="Node000003" class="node">
<title>Node3</title>
<g id="a_Node000003"><a xlink:title=" ">
<polygon fill="#e0e0e0" stroke="#999999" points="450.62,-240.25 399.38,-240.25 399.38,-221 450.62,-221 450.62,-240.25"/>
<text text-anchor="middle" x="425" y="-226.75" font-family="Helvetica,sans-Serif" font-size="10.00">assert.h</text>
</a>
</g>
</g>
<!-- Node2&#45;&gt;Node3 -->
<g id="edge2_Node000002_Node000003" class="edge">
<title>Node2&#45;&gt;Node3</title>
<g id="a_edge2_Node000002_Node000003"><a xlink:title=" ">
<path fill="none" stroke="#63b8ff" d="M425,-276.08C425,-269.57 425,-260.42 425,-252.12"/>
<polygon fill="#63b8ff" stroke="#63b8ff" points="428.5,-252.12 425,-242.12 421.5,-252.12 428.5,-252.12"/>
</a>
</g>
</g>
<!-- Node5 -->
<g id="Node000005" class="node">
<title>Node5</title>
<g id="a_Node000005"><a xlink:href="_virtual_c64_8h.html" target="_top" xlink:title=" ">
<polygon fill="white" stroke="#666666" points="598,-240.25 528,-240.25 528,-221 598,-221 598,-240.25"/>
<text text-anchor="middle" x="563" y="-226.75" font-family="Helvetica,sans-Serif" font-size="10.00">VirtualC64.h</text>
</a>
</g>
</g>
<!-- Node4&#45;&gt;Node5 -->
<g id="edge4_Node000004_Node000005" class="edge">
<title>Node4&#45;&gt;Node5</title>
<g id="a_edge4_Node000004_Node000005"><a xlink:title=" ">
<path fill="none" stroke="#63b8ff" d="M511.52,-275.84C520.39,-268.22 533.31,-257.12 543.99,-247.95"/>
<polygon fill="#63b8ff" stroke="#63b8ff" points="546.18,-250.68 551.49,-241.51 541.62,-245.37 546.18,-250.68"/>
</a>
</g>
</g>
<!-- Node17 -->
<g id="Node000017" class="node">
<title>Node17</title>
<g id="a_Node000017"><a xlink:title=" ">
<polygon fill="#e0e0e0" stroke="#999999" points="510.38,-240.25 475.62,-240.25 475.62,-221 510.38,-221 510.38,-240.25"/>
<text text-anchor="middle" x="493" y="-226.75" font-family="Helvetica,sans-Serif" font-size="10.00">map</text>
</a>
</g>
</g>
<!-- Node4&#45;&gt;Node17 -->
<g id="edge62_Node000004_Node000017" class="edge">
<title>Node4&#45;&gt;Node17</title>
<g id="a_edge62_Node000004_Node000017"><a xlink:title=" ">
<path fill="none" stroke="#63b8ff" d="M499.68,-276.08C498.69,-269.49 497.29,-260.21 496.03,-251.82"/>
<polygon fill="#63b8ff" stroke="#63b8ff" points="499.52,-251.47 494.57,-242.11 492.6,-252.51 499.52,-251.47"/>
</a>
</g>
</g>
<!-- Node6 -->
<g id="Node000006" class="node">
<title>Node6</title>
<g id="a_Node000006"><a xlink:href="_virtual_c64_types_8h.html" target="_top" xlink:title=" ">
<polygon fill="white" stroke="#666666" points="1682.12,-129.75 1585.88,-129.75 1585.88,-110.5 1682.12,-110.5 1682.12,-129.75"/>
<text text-anchor="middle" x="1634" y="-116.25" font-family="Helvetica,sans-Serif" font-size="10.00">VirtualC64Types.h</text>
</a>
</g>
</g>
<!-- Node5&#45;&gt;Node6 -->
<g id="edge5_Node000005_Node000006" class="edge">
<title>Node5&#45;&gt;Node6</title>
<g id="a_edge5_Node000005_Node000006"><a xlink:title=" ">
<path fill="none" stroke="#63b8ff" d="M598.33,-226.05C753.76,-210.3 1377.75,-147.08 1574.36,-127.17"/>
<polygon fill="#63b8ff" stroke="#63b8ff" points="1574.49,-130.67 1584.09,-126.18 1573.79,-123.71 1574.49,-130.67"/>
</a>
</g>
</g>
<!-- Node55 -->
<g id="Node000055" class="node">
<title>Node55</title>
<g id="a_Node000055"><a xlink:href="_emulator_8h_source.html" target="_top" xlink:title=" ">
<polygon fill="white" stroke="#666666" points="594.25,-185 531.75,-185 531.75,-165.75 594.25,-165.75 594.25,-185"/>
<text text-anchor="middle" x="563" y="-171.5" font-family="Helvetica,sans-Serif" font-size="10.00">Emulator.h</text>
</a>
</g>
</g>
<!-- Node5&#45;&gt;Node55 -->
<g id="edge36_Node000005_Node000055" class="edge">
<title>Node5&#45;&gt;Node55</title>
<g id="a_edge36_Node000005_Node000055"><a xlink:title=" ">
<path fill="none" stroke="#63b8ff" d="M563,-220.83C563,-214.32 563,-205.17 563,-196.87"/>
<polygon fill="#63b8ff" stroke="#63b8ff" points="566.5,-196.87 563,-186.87 559.5,-196.87 566.5,-196.87"/>
</a>
</g>
</g>
<!-- Node204 -->
<g id="Node000204" class="node">
<title>Node204</title>
<g id="a_Node000204"><a xlink:href="_media_8h_source.html" target="_top" xlink:title=" ">
<polygon fill="#fff0f0" stroke="red" points="276.25,-129.75 225.75,-129.75 225.75,-110.5 276.25,-110.5 276.25,-129.75"/>
<text text-anchor="middle" x="251" y="-116.25" font-family="Helvetica,sans-Serif" font-size="10.00">Media.h</text>
</a>
</g>
</g>
<!-- Node5&#45;&gt;Node204 -->
<g id="edge55_Node000005_Node000204" class="edge">
<title>Node5&#45;&gt;Node204</title>
<g id="a_edge55_Node000005_Node000204"><a xlink:title=" ">
<path fill="none" stroke="#63b8ff" d="M536.94,-220.56C481.26,-201.2 350.61,-155.77 287.03,-133.66"/>
<polygon fill="#63b8ff" stroke="#63b8ff" points="288.36,-130.41 277.76,-130.43 286.06,-137.02 288.36,-130.41"/>
</a>
</g>
</g>
<!-- Node7 -->
<g id="Node000007" class="node">
<title>Node7</title>
<g id="a_Node000007"><a xlink:href="_c64_types_8h.html" target="_top" xlink:title=" ">
<polygon fill="#fff0f0" stroke="red" points="423.25,-19.25 354.75,-19.25 354.75,0 423.25,0 423.25,-19.25"/>
<text text-anchor="middle" x="389" y="-5.75" font-family="Helvetica,sans-Serif" font-size="10.00">C64Types.h</text>
</a>
</g>
</g>
<!-- Node6&#45;&gt;Node7 -->
<g id="edge6_Node000006_Node000007" class="edge">
<title>Node6&#45;&gt;Node7</title>
<g id="a_edge6_Node000006_Node000007"><a xlink:title=" ">
<path fill="none" stroke="#63b8ff" d="M1585.49,-119.14C1431.02,-118.77 952.08,-114.36 803,-74.5 784.71,-69.61 783.12,-60.73 765,-55.25 649.66,-20.39 506.73,-12.57 434.85,-10.94"/>
<polygon fill="#63b8ff" stroke="#63b8ff" points="435.1,-7.45 425.03,-10.75 434.96,-14.45 435.1,-7.45"/>
</a>
</g>
</g>
<!-- Node18 -->
<g id="Node000018" class="node">
<title>Node18</title>
<g id="a_Node000018"><a xlink:href="_cartridge_types_8h.html" target="_top" xlink:title=" ">
<polygon fill="#fff0f0" stroke="red" points="839.12,-19.25 748.88,-19.25 748.88,0 839.12,0 839.12,-19.25"/>
<text text-anchor="middle" x="794" y="-5.75" font-family="Helvetica,sans-Serif" font-size="10.00">CartridgeTypes.h</text>
</a>
</g>
</g>
<!-- Node6&#45;&gt;Node18 -->
<g id="edge7_Node000006_Node000018" class="edge">
<title>Node6&#45;&gt;Node18</title>
<g id="a_edge7_Node000006_Node000018"><a xlink:title=" ">
<path fill="none" stroke="#63b8ff" d="M1585.47,-117.42C1502.76,-113.83 1329.5,-103.28 1186,-74.5 1157.29,-68.74 1151.6,-61.52 1123,-55.25 1028.59,-34.56 916.7,-21.83 850.74,-15.51"/>
<polygon fill="#63b8ff" stroke="#63b8ff" points="851.16,-12.03 840.88,-14.58 850.51,-19 851.16,-12.03"/>
</a>
</g>
</g>
<!-- Node19 -->
<g id="Node000019" class="node">
<title>Node19</title>
<g id="a_Node000019"><a xlink:href="_c_i_a_types_8h.html" target="_top" xlink:title=" ">
<polygon fill="#fff0f0" stroke="red" points="2921.12,-74.5 2854.88,-74.5 2854.88,-55.25 2921.12,-55.25 2921.12,-74.5"/>
<text text-anchor="middle" x="2888" y="-61" font-family="Helvetica,sans-Serif" font-size="10.00">CIATypes.h</text>
</a>
</g>
</g>
<!-- Node6&#45;&gt;Node19 -->
<g id="edge8_Node000006_Node000019" class="edge">
<title>Node6&#45;&gt;Node19</title>
<g id="a_edge8_Node000006_Node000019"><a xlink:title=" ">
<path fill="none" stroke="#63b8ff" d="M1682.48,-118.41C1875.78,-115.41 2592.7,-102.69 2843.39,-74.56"/>
<polygon fill="#63b8ff" stroke="#63b8ff" points="2843.58,-78.06 2853.11,-73.43 2842.77,-71.11 2843.58,-78.06"/>
</a>
</g>
</g>
<!-- Node21 -->
<g id="Node000021" class="node">
<title>Node21</title>
<g id="a_Node000021"><a xlink:href="_cmd_queue_types_8h.html" target="_top" xlink:title=" ">
<polygon fill="#fff0f0" stroke="red" points="3039,-74.5 2939,-74.5 2939,-55.25 3039,-55.25 3039,-74.5"/>
<text text-anchor="middle" x="2989" y="-61" font-family="Helvetica,sans-Serif" font-size="10.00">CmdQueueTypes.h</text>
</a>
</g>
</g>
<!-- Node6&#45;&gt;Node21 -->
<g id="edge9_Node000006_Node000021" class="edge">
<title>Node6&#45;&gt;Node21</title>
<g id="a_edge9_Node000006_Node000021"><a xlink:title=" ">
<path fill="none" stroke="#63b8ff" d="M1682.37,-119.39C1851.98,-119.9 2435.62,-118.23 2927.28,-74.64"/>
<polygon fill="#63b8ff" stroke="#63b8ff" points="2927.36,-78.14 2937.01,-73.77 2926.73,-71.17 2927.36,-78.14"/>
</a>
</g>
</g>
<!-- Node22 -->
<g id="Node000022" class="node">
<title>Node22</title>
<g id="a_Node000022"><a xlink:href="_joystick_types_8h.html" target="_top" xlink:title=" ">
<polygon fill="#fff0f0" stroke="red" points="2591.62,-19.25 2504.38,-19.25 2504.38,0 2591.62,0 2591.62,-19.25"/>
<text text-anchor="middle" x="2548" y="-5.75" font-family="Helvetica,sans-Serif" font-size="10.00">JoystickTypes.h</text>
</a>
</g>
</g>
<!-- Node6&#45;&gt;Node22 -->
<g id="edge25_Node000006_Node000022" class="edge">
<title>Node6&#45;&gt;Node22</title>
<g id="a_edge25_Node000006_Node000022"><a xlink:title=" ">
<path fill="none" stroke="#63b8ff" d="M1682.52,-116.63C1783.47,-111.06 2012.91,-96.37 2088,-74.5 2106.18,-69.21 2107.84,-60.61 2126,-55.25 2253.58,-17.58 2411.13,-10.85 2492.9,-10.15"/>
<polygon fill="#63b8ff" stroke="#63b8ff" points="2492.67,-13.65 2502.65,-10.1 2492.63,-6.65 2492.67,-13.65"/>
</a>
</g>
</g>
<!-- Node23 -->
<g id="Node000023" class="node">
<title>Node23</title>
<g id="a_Node000023"><a xlink:href="_control_port_types_8h.html" target="_top" xlink:title=" ">
<polygon fill="#fff0f0" stroke="red" points="912,-74.5 812,-74.5 812,-55.25 912,-55.25 912,-74.5"/>
<text text-anchor="middle" x="862" y="-61" font-family="Helvetica,sans-Serif" font-size="10.00">ControlPortTypes.h</text>
</a>
</g>
</g>
<!-- Node6&#45;&gt;Node23 -->
<g id="edge11_Node000006_Node000023" class="edge">
<title>Node6&#45;&gt;Node23</title>
<g id="a_edge11_Node000006_Node000023"><a xlink:title=" ">
<path fill="none" stroke="#63b8ff" d="M1585.47,-117.47C1471.74,-113.3 1178.93,-100.84 923.85,-74.71"/>
<polygon fill="#63b8ff" stroke="#63b8ff" points="924.31,-71.24 914,-73.69 923.59,-78.2 924.31,-71.24"/>
</a>
</g>
</g>
<!-- Node24 -->
<g id="Node000024" class="node">
<title>Node24</title>
<g id="a_Node000024"><a xlink:href="_c_p_u_types_8h_source.html" target="_top" xlink:title=" ">
<polygon fill="#fff0f0" stroke="red" points="1002.12,-74.5 929.88,-74.5 929.88,-55.25 1002.12,-55.25 1002.12,-74.5"/>
<text text-anchor="middle" x="966" y="-61" font-family="Helvetica,sans-Serif" font-size="10.00">CPUTypes.h</text>
</a>
</g>
</g>
<!-- Node6&#45;&gt;Node24 -->
<g id="edge12_Node000006_Node000024" class="edge">
<title>Node6&#45;&gt;Node24</title>
<g id="a_edge12_Node000006_Node000024"><a xlink:title=" ">
<path fill="none" stroke="#63b8ff" d="M1585.73,-117.61C1482.58,-113.94 1232.88,-102.85 1013.69,-74.7"/>
<polygon fill="#63b8ff" stroke="#63b8ff" points="1014.16,-71.23 1003.79,-73.41 1013.26,-78.17 1014.16,-71.23"/>
</a>
</g>
</g>
<!-- Node26 -->
<g id="Node000026" class="node">
<title>Node26</title>
<g id="a_Node000026"><a xlink:href="_datasette_types_8h.html" target="_top" xlink:title=" ">
<polygon fill="#fff0f0" stroke="red" points="1113.62,-74.5 1020.38,-74.5 1020.38,-55.25 1113.62,-55.25 1113.62,-74.5"/>
<text text-anchor="middle" x="1067" y="-61" font-family="Helvetica,sans-Serif" font-size="10.00">DatasetteTypes.h</text>
</a>
</g>
</g>
<!-- Node6&#45;&gt;Node26 -->
<g id="edge13_Node000006_Node000026" class="edge">
<title>Node6&#45;&gt;Node26</title>
<g id="a_edge13_Node000006_Node000026"><a xlink:title=" ">
<path fill="none" stroke="#63b8ff" d="M1585.42,-115.69C1495.17,-109.13 1295.56,-93.72 1128,-74.5 1127,-74.39 1125.99,-74.27 1124.98,-74.15"/>
<polygon fill="#63b8ff" stroke="#63b8ff" points="1125.78,-70.72 1115.43,-72.95 1124.92,-77.67 1125.78,-70.72"/>
</a>
</g>
</g>
<!-- Node27 -->
<g id="Node000027" class="node">
<title>Node27</title>
<g id="a_Node000027"><a xlink:href="_disk_types_8h_source.html" target="_top" xlink:title=" ">
<polygon fill="#fff0f0" stroke="red" points="1702.38,-19.25 1631.62,-19.25 1631.62,0 1702.38,0 1702.38,-19.25"/>
<text text-anchor="middle" x="1667" y="-5.75" font-family="Helvetica,sans-Serif" font-size="10.00">DiskTypes.h</text>
</a>
</g>
</g>
<!-- Node6&#45;&gt;Node27 -->
<g id="edge14_Node000006_Node000027" class="edge">
<title>Node6&#45;&gt;Node27</title>
<g id="a_edge14_Node000006_Node000027"><a xlink:title=" ">
<path fill="none" stroke="#63b8ff" d="M1585.67,-119.39C1508.2,-118.67 1361.59,-112.2 1329,-74.5 1323.41,-68.03 1323.36,-61.68 1329,-55.25 1347.88,-33.71 1531.44,-19.23 1619.85,-13.45"/>
<polygon fill="#63b8ff" stroke="#63b8ff" points="1619.9,-16.95 1629.65,-12.82 1619.45,-9.97 1619.9,-16.95"/>
</a>
</g>
</g>
<!-- Node34 -->
<g id="Node000034" class="node">
<title>Node34</title>
<g id="a_Node000034"><a xlink:href="_disk_analyzer_types_8h_source.html" target="_top" xlink:title=" ">
<polygon fill="#fff0f0" stroke="red" points="2078.5,-74.5 1969.5,-74.5 1969.5,-55.25 2078.5,-55.25 2078.5,-74.5"/>
<text text-anchor="middle" x="2024" y="-61" font-family="Helvetica,sans-Serif" font-size="10.00">DiskAnalyzerTypes.h</text>
</a>
</g>
</g>
<!-- Node6&#45;&gt;Node34 -->
<g id="edge15_Node000006_Node000034" class="edge">
<title>Node6&#45;&gt;Node34</title>
<g id="a_edge15_Node000006_Node000034"><a xlink:title=" ">
<path fill="none" stroke="#63b8ff" d="M1682.48,-112.52C1744.08,-104.12 1854,-89.12 1957.72,-74.95"/>
<polygon fill="#63b8ff" stroke="#63b8ff" points="1958.09,-78.43 1967.53,-73.61 1957.14,-71.49 1958.09,-78.43"/>
</a>
</g>
</g>
<!-- Node35 -->
<g id="Node000035" class="node">
<title>Node35</title>
<g id="a_Node000035"><a xlink:href="_drive_types_8h.html" target="_top" xlink:title=" ">
<polygon fill="#fff0f0" stroke="red" points="1281.88,-74.5 1208.12,-74.5 1208.12,-55.25 1281.88,-55.25 1281.88,-74.5"/>
<text text-anchor="middle" x="1245" y="-61" font-family="Helvetica,sans-Serif" font-size="10.00">DriveTypes.h</text>
</a>
</g>
</g>
<!-- Node6&#45;&gt;Node35 -->
<g id="edge17_Node000006_Node000035" class="edge">
<title>Node6&#45;&gt;Node35</title>
<g id="a_edge17_Node000006_Node000035"><a xlink:title=" ">
<path fill="none" stroke="#63b8ff" d="M1585.51,-113.28C1519.8,-105.24 1398.87,-89.98 1296,-74.5 1295.17,-74.37 1294.33,-74.25 1293.48,-74.12"/>
<polygon fill="#63b8ff" stroke="#63b8ff" points="1294.22,-70.69 1283.79,-72.58 1293.12,-77.6 1294.22,-70.69"/>
</a>
</g>
</g>
<!-- Node36 -->
<g id="Node000036" class="node">
<title>Node36</title>
<g id="a_Node000036"><a xlink:href="_par_cable_types_8h.html" target="_top" xlink:title=" ">
<polygon fill="#fff0f0" stroke="red" points="1240.5,-19.25 1149.5,-19.25 1149.5,0 1240.5,0 1240.5,-19.25"/>
<text text-anchor="middle" x="1195" y="-5.75" font-family="Helvetica,sans-Serif" font-size="10.00">ParCableTypes.h</text>
</a>
</g>
</g>
<!-- Node6&#45;&gt;Node36 -->
<g id="edge30_Node000006_Node000036" class="edge">
<title>Node6&#45;&gt;Node36</title>
<g id="a_edge30_Node000006_Node000036"><a xlink:title=" ">
<path fill="none" stroke="#63b8ff" d="M1585.65,-117.63C1477.89,-113.8 1225.4,-101.97 1199,-74.5 1188.04,-63.1 1188.03,-44.63 1190.18,-30.48"/>
<polygon fill="#63b8ff" stroke="#63b8ff" points="1193.56,-31.42 1192.11,-20.93 1186.7,-30.04 1193.56,-31.42"/>
</a>
</g>
</g>
<!-- Node37 -->
<g id="Node000037" class="node">
<title>Node37</title>
<g id="a_Node000037"><a xlink:href="_emulator_types_8h.html" target="_top" xlink:title=" ">
<polygon fill="#fff0f0" stroke="red" points="755.75,-74.5 666.25,-74.5 666.25,-55.25 755.75,-55.25 755.75,-74.5"/>
<text text-anchor="middle" x="711" y="-61" font-family="Helvetica,sans-Serif" font-size="10.00">EmulatorTypes.h</text>
</a>
</g>
</g>
<!-- Node6&#45;&gt;Node37 -->
<g id="edge19_Node000006_Node000037" class="edge">
<title>Node6&#45;&gt;Node37</title>
<g id="a_edge19_Node000006_Node000037"><a xlink:title=" ">
<path fill="none" stroke="#63b8ff" d="M1585.64,-118.21C1454.25,-115.39 1079.78,-105.08 770,-74.5 769.15,-74.42 768.29,-74.33 767.43,-74.24"/>
<polygon fill="#63b8ff" stroke="#63b8ff" points="767.89,-70.77 757.55,-73.08 767.07,-77.72 767.89,-70.77"/>
</a>
</g>
</g>
<!-- Node39 -->
<g id="Node000039" class="node">
<title>Node39</title>
<g id="a_Node000039"><a xlink:href="_error_types_8h.html" target="_top" xlink:title=" ">
<polygon fill="#fff0f0" stroke="red" points="1409.75,-74.5 1338.25,-74.5 1338.25,-55.25 1409.75,-55.25 1409.75,-74.5"/>
<text text-anchor="middle" x="1374" y="-61" font-family="Helvetica,sans-Serif" font-size="10.00">ErrorTypes.h</text>
</a>
</g>
</g>
<!-- Node6&#45;&gt;Node39 -->
<g id="edge20_Node000006_Node000039" class="edge">
<title>Node6&#45;&gt;Node39</title>
<g id="a_edge20_Node000006_Node000039"><a xlink:title=" ">
<path fill="none" stroke="#63b8ff" d="M1589.6,-110.03C1542.6,-100.41 1468.74,-85.28 1420.84,-75.47"/>
<polygon fill="#63b8ff" stroke="#63b8ff" points="1421.83,-72.1 1411.33,-73.52 1420.43,-78.96 1421.83,-72.1"/>
</a>
</g>
</g>
<!-- Node40 -->
<g id="Node000040" class="node">
<title>Node40</title>
<g id="a_Node000040"><a xlink:href="_expansion_port_types_8h.html" target="_top" xlink:title=" ">
<polygon fill="#fff0f0" stroke="red" points="1542.12,-74.5 1427.88,-74.5 1427.88,-55.25 1542.12,-55.25 1542.12,-74.5"/>
<text text-anchor="middle" x="1485" y="-61" font-family="Helvetica,sans-Serif" font-size="10.00">ExpansionPortTypes.h</text>
</a>
</g>
</g>
<!-- Node6&#45;&gt;Node40 -->
<g id="edge21_Node000006_Node000040" class="edge">
<title>Node6&#45;&gt;Node40</title>
<g id="a_edge21_Node000006_Node000040"><a xlink:title=" ">
<path fill="none" stroke="#63b8ff" d="M1608.72,-110.09C1584.64,-101.49 1548.14,-88.44 1521.02,-78.75"/>
<polygon fill="#63b8ff" stroke="#63b8ff" points="1522.42,-75.53 1511.83,-75.46 1520.06,-82.12 1522.42,-75.53"/>
</a>
</g>
</g>
<!-- Node41 -->
<g id="Node000041" class="node">
<title>Node41</title>
<g id="a_Node000041"><a xlink:href="_file_types_8h.html" target="_top" xlink:title=" ">
<polygon fill="#fff0f0" stroke="red" points="1626.12,-74.5 1559.88,-74.5 1559.88,-55.25 1626.12,-55.25 1626.12,-74.5"/>
<text text-anchor="middle" x="1593" y="-61" font-family="Helvetica,sans-Serif" font-size="10.00">FileTypes.h</text>
</a>
</g>
</g>
<!-- Node6&#45;&gt;Node41 -->
<g id="edge22_Node000006_Node000041" class="edge">
<title>Node6&#45;&gt;Node41</title>
<g id="a_edge22_Node000006_Node000041"><a xlink:title=" ">
<path fill="none" stroke="#63b8ff" d="M1627.23,-110.33C1621.68,-103.13 1613.66,-92.71 1606.77,-83.76"/>
<polygon fill="#63b8ff" stroke="#63b8ff" points="1609.71,-81.85 1600.84,-76.06 1604.17,-86.12 1609.71,-81.85"/>
</a>
</g>
</g>
<!-- Node42 -->
<g id="Node000042" class="node">
<title>Node42</title>
<g id="a_Node000042"><a xlink:href="_f_s_types_8h.html" target="_top" xlink:title=" ">
<polygon fill="#fff0f0" stroke="red" points="1707.62,-74.5 1644.38,-74.5 1644.38,-55.25 1707.62,-55.25 1707.62,-74.5"/>
<text text-anchor="middle" x="1676" y="-61" font-family="Helvetica,sans-Serif" font-size="10.00">FSTypes.h</text>
</a>
</g>
</g>
<!-- Node6&#45;&gt;Node42 -->
<g id="edge23_Node000006_Node000042" class="edge">
<title>Node6&#45;&gt;Node42</title>
<g id="a_edge23_Node000006_Node000042"><a xlink:title=" ">
<path fill="none" stroke="#63b8ff" d="M1640.94,-110.33C1646.62,-103.13 1654.84,-92.71 1661.89,-83.76"/>
<polygon fill="#63b8ff" stroke="#63b8ff" points="1664.53,-86.07 1667.98,-76.05 1659.04,-81.73 1664.53,-86.07"/>
</a>
</g>
</g>
<!-- Node43 -->
<g id="Node000043" class="node">
<title>Node43</title>
<g id="a_Node000043"><a xlink:href="_core_component_types_8h_source.html" target="_top" xlink:title=" ">
<polygon fill="#fff0f0" stroke="red" points="1847.88,-74.5 1726.12,-74.5 1726.12,-55.25 1847.88,-55.25 1847.88,-74.5"/>
<text text-anchor="middle" x="1787" y="-61" font-family="Helvetica,sans-Serif" font-size="10.00">CoreComponentTypes.h</text>
</a>
</g>
</g>
<!-- Node6&#45;&gt;Node43 -->
<g id="edge24_Node000006_Node000043" class="edge">
<title>Node6&#45;&gt;Node43</title>
<g id="a_edge24_Node000006_Node000043"><a xlink:title=" ">
<path fill="none" stroke="#63b8ff" d="M1659.95,-110.09C1684.79,-101.45 1722.5,-88.32 1750.38,-78.62"/>
<polygon fill="#63b8ff" stroke="#63b8ff" points="1751.19,-82.04 1759.49,-75.45 1748.89,-75.43 1751.19,-82.04"/>
</a>
</g>
</g>
<!-- Node44 -->
<g id="Node000044" class="node">
<title>Node44</title>
<g id="a_Node000044"><a xlink:href="_memory_types_8h.html" target="_top" xlink:title=" ">
<polygon fill="#fff0f0" stroke="red" points="1951.88,-74.5 1866.12,-74.5 1866.12,-55.25 1951.88,-55.25 1951.88,-74.5"/>
<text text-anchor="middle" x="1909" y="-61" font-family="Helvetica,sans-Serif" font-size="10.00">MemoryTypes.h</text>
</a>
</g>
</g>
<!-- Node6&#45;&gt;Node44 -->
<g id="edge26_Node000006_Node000044" class="edge">
<title>Node6&#45;&gt;Node44</title>
<g id="a_edge26_Node000006_Node000044"><a xlink:title=" ">
<path fill="none" stroke="#63b8ff" d="M1680.96,-110.03C1729.17,-100.7 1804.1,-86.19 1854.79,-76.37"/>
<polygon fill="#63b8ff" stroke="#63b8ff" points="1855.22,-79.85 1864.37,-74.52 1853.89,-72.98 1855.22,-79.85"/>
</a>
</g>
</g>
<!-- Node45 -->
<g id="Node000045" class="node">
<title>Node45</title>
<g id="a_Node000045"><a xlink:href="_mouse_types_8h.html" target="_top" xlink:title=" ">
<polygon fill="#fff0f0" stroke="red" points="2214.88,-74.5 2135.12,-74.5 2135.12,-55.25 2214.88,-55.25 2214.88,-74.5"/>
<text text-anchor="middle" x="2175" y="-61" font-family="Helvetica,sans-Serif" font-size="10.00">MouseTypes.h</text>
</a>
</g>
</g>
<!-- Node6&#45;&gt;Node45 -->
<g id="edge27_Node000006_Node000045" class="edge">
<title>Node6&#45;&gt;Node45</title>
<g id="a_edge27_Node000006_Node000045"><a xlink:title=" ">
<path fill="none" stroke="#63b8ff" d="M1682.5,-115.76C1770.21,-109.44 1960.94,-94.59 2121,-74.5 2121.83,-74.4 2122.67,-74.29 2123.51,-74.18"/>
<polygon fill="#63b8ff" stroke="#63b8ff" points="2123.73,-77.68 2133.15,-72.83 2122.76,-70.75 2123.73,-77.68"/>
</a>
</g>
</g>
<!-- Node46 -->
<g id="Node000046" class="node">
<title>Node46</title>
<g id="a_Node000046"><a xlink:href="_msg_queue_types_8h.html" target="_top" xlink:title=" ">
<polygon fill="#fff0f0" stroke="red" points="2330.88,-74.5 2233.12,-74.5 2233.12,-55.25 2330.88,-55.25 2330.88,-74.5"/>
<text text-anchor="middle" x="2282" y="-61" font-family="Helvetica,sans-Serif" font-size="10.00">MsgQueueTypes.h</text>
</a>
</g>
</g>
<!-- Node6&#45;&gt;Node46 -->
<g id="edge28_Node000006_Node000046" class="edge">
<title>Node6&#45;&gt;Node46</title>
<g id="a_edge28_Node000006_Node000046"><a xlink:title=" ">
<path fill="none" stroke="#63b8ff" d="M1682.29,-116.66C1781.32,-111.34 2014.77,-97.48 2221.3,-74.72"/>
<polygon fill="#63b8ff" stroke="#63b8ff" points="2221.61,-78.21 2231.17,-73.63 2220.84,-71.25 2221.61,-78.21"/>
</a>
</g>
</g>
<!-- Node47 -->
<g id="Node000047" class="node">
<title>Node47</title>
<g id="a_Node000047"><a xlink:href="_option_types_8h.html" target="_top" xlink:title=" ">
<polygon fill="#fff0f0" stroke="red" points="648.5,-74.5 569.5,-74.5 569.5,-55.25 648.5,-55.25 648.5,-74.5"/>
<text text-anchor="middle" x="609" y="-61" font-family="Helvetica,sans-Serif" font-size="10.00">OptionTypes.h</text>
</a>
</g>
</g>
<!-- Node6&#45;&gt;Node47 -->
<g id="edge29_Node000006_Node000047" class="edge">
<title>Node6&#45;&gt;Node47</title>
<g id="a_edge29_Node000006_Node000047"><a xlink:title=" ">
<path fill="none" stroke="#63b8ff" d="M1585.53,-119.17C1444.27,-118.83 1020.58,-114.39 659.94,-74.68"/>
<polygon fill="#63b8ff" stroke="#63b8ff" points="660.58,-71.23 650.26,-73.6 659.81,-78.19 660.58,-71.23"/>
</a>
</g>
</g>
<!-- Node48 -->
<g id="Node000048" class="node">
<title>Node48</title>
<g id="a_Node000048"><a xlink:href="_power_supply_types_8h.html" target="_top" xlink:title=" ">
<polygon fill="#fff0f0" stroke="red" points="2457.12,-74.5 2348.88,-74.5 2348.88,-55.25 2457.12,-55.25 2457.12,-74.5"/>
<text text-anchor="middle" x="2403" y="-61" font-family="Helvetica,sans-Serif" font-size="10.00">PowerSupplyTypes.h</text>
</a>
</g>
</g>
<!-- Node6&#45;&gt;Node48 -->
<g id="edge31_Node000006_Node000048" class="edge">
<title>Node6&#45;&gt;Node48</title>
<g id="a_edge31_Node000006_Node000048"><a xlink:title=" ">
<path fill="none" stroke="#63b8ff" d="M1682.46,-117.28C1795.35,-112.72 2084.81,-99.53 2337.16,-74.71"/>
<polygon fill="#63b8ff" stroke="#63b8ff" points="2337.28,-78.22 2346.89,-73.75 2336.59,-71.25 2337.28,-78.22"/>
</a>
</g>
</g>
<!-- Node49 -->
<g id="Node000049" class="node">
<title>Node49</title>
<g id="a_Node000049"><a xlink:href="_retro_shell_types_8h.html" target="_top" xlink:title=" ">
<polygon fill="#fff0f0" stroke="red" points="2571.12,-74.5 2474.88,-74.5 2474.88,-55.25 2571.12,-55.25 2571.12,-74.5"/>
<text text-anchor="middle" x="2523" y="-61" font-family="Helvetica,sans-Serif" font-size="10.00">RetroShellTypes.h</text>
</a>
</g>
</g>
<!-- Node6&#45;&gt;Node49 -->
<g id="edge32_Node000006_Node000049" class="edge">
<title>Node6&#45;&gt;Node49</title>
<g id="a_edge32_Node000006_Node000049"><a xlink:title=" ">
<path fill="none" stroke="#63b8ff" d="M1682.43,-118.16C1809.03,-115.29 2160.48,-105.1 2463.33,-74.67"/>
<polygon fill="#63b8ff" stroke="#63b8ff" points="2463.43,-78.18 2473.02,-73.69 2462.72,-71.22 2463.43,-78.18"/>
</a>
</g>
</g>
<!-- Node50 -->
<g id="Node000050" class="node">
<title>Node50</title>
<g id="a_Node000050"><a xlink:href="_s_i_d_types_8h.html" target="_top" xlink:title=" ">
<polygon fill="#fff0f0" stroke="red" points="2656.88,-74.5 2589.12,-74.5 2589.12,-55.25 2656.88,-55.25 2656.88,-74.5"/>
<text text-anchor="middle" x="2623" y="-61" font-family="Helvetica,sans-Serif" font-size="10.00">SIDTypes.h</text>
</a>
</g>
</g>
<!-- Node6&#45;&gt;Node50 -->
<g id="edge33_Node000006_Node000050" class="edge">
<title>Node6&#45;&gt;Node50</title>
<g id="a_edge33_Node000006_Node000050"><a xlink:title=" ">
<path fill="none" stroke="#63b8ff" d="M1682.46,-119.41C1820.75,-119.68 2229.22,-116.67 2577.48,-74.6"/>
<polygon fill="#63b8ff" stroke="#63b8ff" points="2577.8,-78.09 2587.31,-73.4 2576.95,-71.14 2577.8,-78.09"/>
</a>
</g>
</g>
<!-- Node51 -->
<g id="Node000051" class="node">
<title>Node51</title>
<g id="a_Node000051"><a xlink:href="_v_i_c_i_i_types_8h.html" target="_top" xlink:title=" ">
<polygon fill="#fff0f0" stroke="red" points="2748.88,-74.5 2675.12,-74.5 2675.12,-55.25 2748.88,-55.25 2748.88,-74.5"/>
<text text-anchor="middle" x="2712" y="-61" font-family="Helvetica,sans-Serif" font-size="10.00">VICIITypes.h</text>
</a>
</g>
</g>
<!-- Node6&#45;&gt;Node51 -->
<g id="edge34_Node000006_Node000051" class="edge">
<title>Node6&#45;&gt;Node51</title>
<g id="a_edge34_Node000006_Node000051"><a xlink:title=" ">
<path fill="none" stroke="#63b8ff" d="M1682.55,-119.47C1829.15,-119.99 2280.26,-117.8 2663.35,-74.62"/>
<polygon fill="#63b8ff" stroke="#63b8ff" points="2663.62,-78.12 2673.16,-73.51 2662.83,-71.16 2663.62,-78.12"/>
</a>
</g>
</g>
<!-- Node54 -->
<g id="Node000054" class="node">
<title>Node54</title>
<g id="a_Node000054"><a xlink:href="_constants_8h.html" target="_top" xlink:title=" ">
<polygon fill="#fff0f0" stroke="red" points="2836.62,-74.5 2767.38,-74.5 2767.38,-55.25 2836.62,-55.25 2836.62,-74.5"/>
<text text-anchor="middle" x="2802" y="-61" font-family="Helvetica,sans-Serif" font-size="10.00">Constants.h</text>
</a>
</g>
</g>
<!-- Node6&#45;&gt;Node54 -->
<g id="edge35_Node000006_Node000054" class="edge">
<title>Node6&#45;&gt;Node54</title>
<g id="a_edge35_Node000006_Node000054"><a xlink:title=" ">
<path fill="none" stroke="#63b8ff" d="M1682.41,-118.2C1866.32,-114.52 2522.59,-99.96 2755.58,-74.53"/>
<polygon fill="#63b8ff" stroke="#63b8ff" points="2755.97,-78.01 2765.51,-73.41 2755.18,-71.06 2755.97,-78.01"/>
</a>
</g>
</g>
<!-- Node21&#45;&gt;Node22 -->
<g id="edge10_Node000021_Node000022" class="edge">
<title>Node21&#45;&gt;Node22</title>
<g id="a_edge10_Node000021_Node000022"><a xlink:title=" ">
<path fill="none" stroke="#63b8ff" d="M2938.8,-56.44C2935.82,-56.03 2932.87,-55.63 2930,-55.25 2813.91,-39.99 2677.61,-24.69 2603.27,-16.57"/>
<polygon fill="#63b8ff" stroke="#63b8ff" points="2603.7,-13.1 2593.38,-15.5 2602.94,-20.06 2603.7,-13.1"/>
</a>
</g>
</g>
<!-- Node34&#45;&gt;Node27 -->
<g id="edge16_Node000034_Node000027" class="edge">
<title>Node34&#45;&gt;Node27</title>
<g id="a_edge16_Node000034_Node000027"><a xlink:title=" ">
<path fill="none" stroke="#63b8ff" d="M1969,-55.67C1899.07,-45.24 1779.54,-27.41 1713.78,-17.6"/>
<polygon fill="#63b8ff" stroke="#63b8ff" points="1714.45,-14.16 1704.04,-16.15 1713.41,-21.09 1714.45,-14.16"/>
</a>
</g>
</g>
<!-- Node35&#45;&gt;Node36 -->
<g id="edge18_Node000035_Node000036" class="edge">
<title>Node35&#45;&gt;Node36</title>
<g id="a_edge18_Node000035_Node000036"><a xlink:title=" ">
<path fill="none" stroke="#63b8ff" d="M1236.74,-55.08C1229.84,-47.73 1219.78,-37.01 1211.26,-27.94"/>
<polygon fill="#63b8ff" stroke="#63b8ff" points="1213.87,-25.61 1204.47,-20.71 1208.77,-30.4 1213.87,-25.61"/>
</a>
</g>
</g>
<!-- Node55&#45;&gt;Node37 -->
<g id="edge50_Node000055_Node000037" class="edge">
<title>Node55&#45;&gt;Node37</title>
<g id="a_edge50_Node000055_Node000037"><a xlink:title=" ">
<path fill="none" stroke="#63b8ff" d="M579.16,-165.26C594.04,-156.66 616.54,-143.12 635,-129.75 655.81,-114.68 678.15,-95.5 693.19,-82.11"/>
<polygon fill="#63b8ff" stroke="#63b8ff" points="695.31,-84.91 700.4,-75.62 690.63,-79.71 695.31,-84.91"/>
</a>
</g>
</g>
<!-- Node56 -->
<g id="Node000056" class="node">
<title>Node56</title>
<g id="a_Node000056"><a xlink:href="_c64_8h_source.html" target="_top" xlink:title=" ">
<polygon fill="#fff0f0" stroke="red" points="405.12,-129.75 362.88,-129.75 362.88,-110.5 405.12,-110.5 405.12,-129.75"/>
<text text-anchor="middle" x="384" y="-116.25" font-family="Helvetica,sans-Serif" font-size="10.00">C64.h</text>
</a>
</g>
</g>
<!-- Node55&#45;&gt;Node56 -->
<g id="edge37_Node000055_Node000056" class="edge">
<title>Node55&#45;&gt;Node56</title>
<g id="a_edge37_Node000055_Node000056"><a xlink:title=" ">
<path fill="none" stroke="#63b8ff" d="M532.64,-165.34C500.34,-155.73 449.44,-140.59 416.39,-130.76"/>
<polygon fill="#63b8ff" stroke="#63b8ff" points="417.53,-127.45 406.95,-127.95 415.54,-134.16 417.53,-127.45"/>
</a>
</g>
</g>
<!-- Node72 -->
<g id="Node000072" class="node">
<title>Node72</title>
<g id="a_Node000072"><a xlink:href="_thread_8h.html" target="_top" xlink:title=" ">
<polygon fill="#fff0f0" stroke="red" points="551.12,-74.5 496.88,-74.5 496.88,-55.25 551.12,-55.25 551.12,-74.5"/>
<text text-anchor="middle" x="524" y="-61" font-family="Helvetica,sans-Serif" font-size="10.00">Thread.h</text>
</a>
</g>
</g>
<!-- Node55&#45;&gt;Node72 -->
<g id="edge52_Node000055_Node000072" class="edge">
<title>Node55&#45;&gt;Node72</title>
<g id="a_edge52_Node000055_Node000072"><a xlink:title=" ">
<path fill="none" stroke="#63b8ff" d="M559.81,-165.5C553.55,-148.09 539.55,-109.12 531.02,-85.41"/>
<polygon fill="#63b8ff" stroke="#63b8ff" points="534.42,-84.53 527.75,-76.3 527.84,-86.9 534.42,-84.53"/>
</a>
</g>
</g>
<!-- Node75 -->
<g id="Node000075" class="node">
<title>Node75</title>
<g id="a_Node000075"><a xlink:href="_defaults_8h_source.html" target="_top" xlink:title=" ">
<polygon fill="#fff0f0" stroke="red" points="626.5,-129.75 565.5,-129.75 565.5,-110.5 626.5,-110.5 626.5,-129.75"/>
<text text-anchor="middle" x="596" y="-116.25" font-family="Helvetica,sans-Serif" font-size="10.00">Defaults.h</text>
</a>
</g>
</g>
<!-- Node55&#45;&gt;Node75 -->
<g id="edge48_Node000055_Node000075" class="edge">
<title>Node55&#45;&gt;Node75</title>
<g id="a_edge48_Node000055_Node000075"><a xlink:title=" ">
<path fill="none" stroke="#63b8ff" d="M568.45,-165.58C572.77,-158.61 578.96,-148.62 584.38,-139.87"/>
<polygon fill="#63b8ff" stroke="#63b8ff" points="587.34,-141.74 589.64,-131.4 581.39,-138.05 587.34,-141.74"/>
</a>
</g>
</g>
<!-- Node203 -->
<g id="Node000203" class="node">
<title>Node203</title>
<g id="a_Node000203"><a xlink:href="_host_8h_source.html" target="_top" xlink:title=" ">
<polygon fill="#fff0f0" stroke="red" points="344.62,-129.75 299.38,-129.75 299.38,-110.5 344.62,-110.5 344.62,-129.75"/>
<text text-anchor="middle" x="322" y="-116.25" font-family="Helvetica,sans-Serif" font-size="10.00">Host.h</text>
</a>
</g>
</g>
<!-- Node55&#45;&gt;Node203 -->
<g id="edge51_Node000055_Node000203" class="edge">
<title>Node55&#45;&gt;Node203</title>
<g id="a_edge51_Node000055_Node000203"><a xlink:title=" ">
<path fill="none" stroke="#63b8ff" d="M531.37,-168.16C492.42,-160.4 423.98,-146.37 355.95,-130.12"/>
<polygon fill="#63b8ff" stroke="#63b8ff" points="357.05,-126.78 346.51,-127.84 355.41,-133.59 357.05,-126.78"/>
</a>
</g>
</g>
<!-- Node97 -->
<g id="Node000097" class="node">
<title>Node97</title>
<g id="a_Node000097"><a xlink:href="_cmd_queue_8h.html" target="_top" xlink:title=" ">
<polygon fill="#fff0f0" stroke="red" points="2419.88,-129.75 2346.12,-129.75 2346.12,-110.5 2419.88,-110.5 2419.88,-129.75"/>
<text text-anchor="middle" x="2383" y="-116.25" font-family="Helvetica,sans-Serif" font-size="10.00">CmdQueue.h</text>
</a>
</g>
</g>
<!-- Node55&#45;&gt;Node97 -->
<g id="edge53_Node000055_Node000097" class="edge">
<title>Node55&#45;&gt;Node97</title>
<g id="a_edge53_Node000055_Node000097"><a xlink:title=" ">
<path fill="none" stroke="#63b8ff" d="M594.59,-173.45C810.64,-167.13 2069.69,-130.29 2334.24,-122.55"/>
<polygon fill="#63b8ff" stroke="#63b8ff" points="2334.32,-126.05 2344.21,-122.26 2334.11,-119.05 2334.32,-126.05"/>
</a>
</g>
</g>
<!-- Node56&#45;&gt;Node7 -->
<g id="edge38_Node000056_Node000007" class="edge">
<title>Node56&#45;&gt;Node7</title>
<g id="a_edge38_Node000056_Node000007"><a xlink:title=" ">
<path fill="none" stroke="#63b8ff" d="M384.41,-110.25C385.2,-93 386.97,-54.58 388.07,-30.81"/>
<polygon fill="#63b8ff" stroke="#63b8ff" points="391.55,-31.29 388.52,-21.14 384.56,-30.97 391.55,-31.29"/>
</a>
</g>
</g>
<!-- Node56&#45;&gt;Node72 -->
<g id="edge39_Node000056_Node000072" class="edge">
<title>Node56&#45;&gt;Node72</title>
<g id="a_edge39_Node000056_Node000072"><a xlink:title=" ">
<path fill="none" stroke="#63b8ff" d="M405.57,-110.92C427.98,-102.4 463.4,-88.93 489.67,-78.93"/>
<polygon fill="#63b8ff" stroke="#63b8ff" points="490.78,-82.25 498.88,-75.43 488.29,-75.71 490.78,-82.25"/>
</a>
</g>
</g>
<!-- Node192 -->
<g id="Node000192" class="node">
<title>Node192</title>
<g id="a_Node000192"><a xlink:href="_d64_file_8h_source.html" target="_top" xlink:title=" ">
<polygon fill="#fff0f0" stroke="red" points="58,-74.5 0,-74.5 0,-55.25 58,-55.25 58,-74.5"/>
<text text-anchor="middle" x="29" y="-61" font-family="Helvetica,sans-Serif" font-size="10.00">D64File.h</text>
</a>
</g>
</g>
<!-- Node56&#45;&gt;Node192 -->
<g id="edge40_Node000056_Node000192" class="edge">
<title>Node56&#45;&gt;Node192</title>
<g id="a_edge40_Node000056_Node000192"><a xlink:title=" ">
<path fill="none" stroke="#63b8ff" d="M362.47,-112.5C359.64,-111.76 356.76,-111.07 354,-110.5 231.63,-85.39 195.64,-96.1 69.65,-74.79"/>
<polygon fill="#63b8ff" stroke="#63b8ff" points="70.34,-71.36 59.89,-73.11 69.15,-78.26 70.34,-71.36"/>
</a>
</g>
</g>
<!-- Node194 -->
<g id="Node000194" class="node">
<title>Node194</title>
<g id="a_Node000194"><a xlink:href="_p_r_g_file_8h_source.html" target="_top" xlink:title=" ">
<polygon fill="#fff0f0" stroke="red" points="281.88,-74.5 220.12,-74.5 220.12,-55.25 281.88,-55.25 281.88,-74.5"/>
<text text-anchor="middle" x="251" y="-61" font-family="Helvetica,sans-Serif" font-size="10.00">PRGFile.h</text>
</a>
</g>
</g>
<!-- Node56&#45;&gt;Node194 -->
<g id="edge41_Node000056_Node000194" class="edge">
<title>Node56&#45;&gt;Node194</title>
<g id="a_edge41_Node000056_Node000194"><a xlink:title=" ">
<path fill="none" stroke="#63b8ff" d="M362.63,-110.57C341.49,-102.11 308.83,-89.03 284.29,-79.2"/>
<polygon fill="#63b8ff" stroke="#63b8ff" points="285.64,-75.97 275.06,-75.51 283.04,-82.47 285.64,-75.97"/>
</a>
</g>
</g>
<!-- Node195 -->
<g id="Node000195" class="node">
<title>Node195</title>
<g id="a_Node000195"><a xlink:href="_folder_8h_source.html" target="_top" xlink:title=" ">
<polygon fill="#fff0f0" stroke="red" points="126.25,-74.5 75.75,-74.5 75.75,-55.25 126.25,-55.25 126.25,-74.5"/>
<text text-anchor="middle" x="101" y="-61" font-family="Helvetica,sans-Serif" font-size="10.00">Folder.h</text>
</a>
</g>
</g>
<!-- Node56&#45;&gt;Node195 -->
<g id="edge42_Node000056_Node000195" class="edge">
<title>Node56&#45;&gt;Node195</title>
<g id="a_edge42_Node000056_Node000195"><a xlink:title=" ">
<path fill="none" stroke="#63b8ff" d="M362.45,-112.6C359.62,-111.84 356.75,-111.12 354,-110.5 261.25,-89.62 233.55,-94.26 137.65,-74.89"/>
<polygon fill="#63b8ff" stroke="#63b8ff" points="138.55,-71.5 128.05,-72.92 137.14,-78.36 138.55,-71.5"/>
</a>
</g>
</g>
<!-- Node196 -->
<g id="Node000196" class="node">
<title>Node196</title>
<g id="a_Node000196"><a xlink:href="_p00_file_8h_source.html" target="_top" xlink:title=" ">
<polygon fill="#fff0f0" stroke="red" points="201.62,-74.5 144.38,-74.5 144.38,-55.25 201.62,-55.25 201.62,-74.5"/>
<text text-anchor="middle" x="173" y="-61" font-family="Helvetica,sans-Serif" font-size="10.00">P00File.h</text>
</a>
</g>
</g>
<!-- Node56&#45;&gt;Node196 -->
<g id="edge43_Node000056_Node000196" class="edge">
<title>Node56&#45;&gt;Node196</title>
<g id="a_edge43_Node000056_Node000196"><a xlink:title=" ">
<path fill="none" stroke="#63b8ff" d="M362.4,-112.81C359.58,-112.01 356.72,-111.23 354,-110.5 305.54,-97.57 249.42,-83.94 212.68,-75.2"/>
<polygon fill="#63b8ff" stroke="#63b8ff" points="213.94,-71.9 203.4,-73 212.32,-78.71 213.94,-71.9"/>
</a>
</g>
</g>
<!-- Node197 -->
<g id="Node000197" class="node">
<title>Node197</title>
<g id="a_Node000197"><a xlink:href="_rom_file_8h_source.html" target="_top" xlink:title=" ">
<polygon fill="#fff0f0" stroke="red" points="360.5,-74.5 299.5,-74.5 299.5,-55.25 360.5,-55.25 360.5,-74.5"/>
<text text-anchor="middle" x="330" y="-61" font-family="Helvetica,sans-Serif" font-size="10.00">RomFile.h</text>
</a>
</g>
</g>
<!-- Node56&#45;&gt;Node197 -->
<g id="edge44_Node000056_Node000197" class="edge">
<title>Node56&#45;&gt;Node197</title>
<g id="a_edge44_Node000056_Node000197"><a xlink:title=" ">
<path fill="none" stroke="#63b8ff" d="M375.08,-110.33C367.55,-102.9 356.53,-92.04 347.27,-82.91"/>
<polygon fill="#63b8ff" stroke="#63b8ff" points="349.77,-80.45 340.19,-75.92 344.85,-85.44 349.77,-80.45"/>
</a>
</g>
</g>
<!-- Node92 -->
<g id="Node000092" class="node">
<title>Node92</title>
<g id="a_Node000092"><a xlink:href="_c_r_t_file_8h_source.html" target="_top" xlink:title=" ">
<polygon fill="#fff0f0" stroke="red" points="478.5,-74.5 417.5,-74.5 417.5,-55.25 478.5,-55.25 478.5,-74.5"/>
<text text-anchor="middle" x="448" y="-61" font-family="Helvetica,sans-Serif" font-size="10.00">CRTFile.h</text>
</a>
</g>
</g>
<!-- Node56&#45;&gt;Node92 -->
<g id="edge46_Node000056_Node000092" class="edge">
<title>Node56&#45;&gt;Node92</title>
<g id="a_edge46_Node000056_Node000092"><a xlink:title=" ">
<path fill="none" stroke="#63b8ff" d="M394.86,-110.09C404.11,-102.4 417.62,-91.15 428.71,-81.93"/>
<polygon fill="#63b8ff" stroke="#63b8ff" points="430.69,-84.83 436.14,-75.74 426.21,-79.45 430.69,-84.83"/>
</a>
</g>
</g>
<!-- Node197&#45;&gt;Node7 -->
<g id="edge45_Node000197_Node000007" class="edge">
<title>Node197&#45;&gt;Node7</title>
<g id="a_edge45_Node000197_Node000007"><a xlink:title=" ">
<path fill="none" stroke="#63b8ff" d="M340.01,-54.84C348.37,-47.3 360.5,-36.35 370.6,-27.23"/>
<polygon fill="#63b8ff" stroke="#63b8ff" points="372.94,-29.84 378.02,-20.54 368.25,-24.64 372.94,-29.84"/>
</a>
</g>
</g>
<!-- Node92&#45;&gt;Node18 -->
<g id="edge47_Node000092_Node000018" class="edge">
<title>Node92&#45;&gt;Node18</title>
<g id="a_edge47_Node000092_Node000018"><a xlink:title=" ">
<path fill="none" stroke="#63b8ff" d="M478.97,-56.98C482.01,-56.37 485.06,-55.78 488,-55.25 574.49,-39.64 675.49,-25.74 737.08,-17.76"/>
<polygon fill="#63b8ff" stroke="#63b8ff" points="737.51,-21.23 746.98,-16.48 736.61,-14.29 737.51,-21.23"/>
</a>
</g>
</g>
<!-- Node75&#45;&gt;Node47 -->
<g id="edge49_Node000075_Node000047" class="edge">
<title>Node75&#45;&gt;Node47</title>
<g id="a_edge49_Node000075_Node000047"><a xlink:title=" ">
<path fill="none" stroke="#63b8ff" d="M598.15,-110.33C599.77,-103.67 602.08,-94.24 604.14,-85.78"/>
<polygon fill="#63b8ff" stroke="#63b8ff" points="607.48,-86.87 606.45,-76.33 600.68,-85.21 607.48,-86.87"/>
</a>
</g>
</g>
<!-- Node97&#45;&gt;Node21 -->
<g id="edge54_Node000097_Node000021" class="edge">
<title>Node97&#45;&gt;Node21</title>
<g id="a_edge54_Node000097_Node000021"><a xlink:title=" ">
<path fill="none" stroke="#63b8ff" d="M2420.22,-116.91C2507.11,-111.56 2730.28,-96.82 2927.65,-74.7"/>
<polygon fill="#63b8ff" stroke="#63b8ff" points="2927.77,-78.2 2937.31,-73.6 2926.98,-71.25 2927.77,-78.2"/>
</a>
</g>
</g>
<!-- Node204&#45;&gt;Node192 -->
<g id="edge57_Node000204_Node000192" class="edge">
<title>Node204&#45;&gt;Node192</title>
<g id="a_edge57_Node000204_Node000192"><a xlink:title=" ">
<path fill="none" stroke="#63b8ff" d="M225.53,-113.02C187.32,-103.85 114.77,-86.45 69.32,-75.55"/>
<polygon fill="#63b8ff" stroke="#63b8ff" points="70.39,-72.2 59.85,-73.28 68.76,-79.01 70.39,-72.2"/>
</a>
</g>
</g>
<!-- Node204&#45;&gt;Node194 -->
<g id="edge60_Node000204_Node000194" class="edge">
<title>Node204&#45;&gt;Node194</title>
<g id="a_edge60_Node000204_Node000194"><a xlink:title=" ">
<path fill="none" stroke="#63b8ff" d="M251,-110.33C251,-103.82 251,-94.67 251,-86.37"/>
<polygon fill="#63b8ff" stroke="#63b8ff" points="254.5,-86.37 251,-76.37 247.5,-86.37 254.5,-86.37"/>
</a>
</g>
</g>
<!-- Node204&#45;&gt;Node195 -->
<g id="edge58_Node000204_Node000195" class="edge">
<title>Node204&#45;&gt;Node195</title>
<g id="a_edge58_Node000204_Node000195"><a xlink:title=" ">
<path fill="none" stroke="#63b8ff" d="M225.55,-110.09C201.31,-101.49 164.57,-88.44 137.26,-78.75"/>
<polygon fill="#63b8ff" stroke="#63b8ff" points="138.59,-75.51 128,-75.46 136.25,-82.1 138.59,-75.51"/>
</a>
</g>
</g>
<!-- Node204&#45;&gt;Node196 -->
<g id="edge59_Node000204_Node000196" class="edge">
<title>Node204&#45;&gt;Node196</title>
<g id="a_edge59_Node000204_Node000196"><a xlink:title=" ">
<path fill="none" stroke="#63b8ff" d="M237.77,-110.09C226.23,-102.21 209.23,-90.61 195.55,-81.27"/>
<polygon fill="#63b8ff" stroke="#63b8ff" points="197.78,-78.55 187.55,-75.81 193.83,-84.33 197.78,-78.55"/>
</a>
</g>
</g>
<!-- Node204&#45;&gt;Node197 -->
<g id="edge61_Node000204_Node000197" class="edge">
<title>Node204&#45;&gt;Node197</title>
<g id="a_edge61_Node000204_Node000197"><a xlink:title=" ">
<path fill="none" stroke="#63b8ff" d="M264.4,-110.09C276.09,-102.21 293.3,-90.61 307.16,-81.27"/>
<polygon fill="#63b8ff" stroke="#63b8ff" points="308.94,-84.29 315.28,-75.8 305.03,-78.49 308.94,-84.29"/>
</a>
</g>
</g>
<!-- Node204&#45;&gt;Node92 -->
<g id="edge56_Node000204_Node000092" class="edge">
<title>Node204&#45;&gt;Node92</title>
<g id="a_edge56_Node000204_Node000092"><a xlink:title=" ">
<path fill="none" stroke="#63b8ff" d="M276.35,-112.27C309.17,-103.4 366.81,-87.82 406.17,-77.18"/>
<polygon fill="#63b8ff" stroke="#63b8ff" points="407.04,-80.57 415.78,-74.58 405.22,-73.81 407.04,-80.57"/>
</a>
</g>
</g>
</g>
</svg>
