<?xml version="1.0" encoding="UTF-8" standalone="no"?>
<!DOCTYPE svg PUBLIC "-//W3C//DTD SVG 1.1//EN"
 "http://www.w3.org/Graphics/SVG/1.1/DTD/svg11.dtd">
<!-- Generated by graphviz version 10.0.1 (20240210.2158)
 -->
<!-- Title: /Users/hoff/Retro/virtualc64/Emulator/Headless.cpp Pages: 1 -->
<svg width="2320pt" height="370pt"
 viewBox="0.00 0.00 2319.50 370.00" xmlns="http://www.w3.org/2000/svg" xmlns:xlink="http://www.w3.org/1999/xlink">
<g id="graph0" class="graph" transform="scale(1 1) rotate(0) translate(4 366)">
<title>/Users/hoff/Retro/virtualc64/Emulator/Headless.cpp</title>
<!-- Node1 -->
<g id="Node000001" class="node">
<title>Node1</title>
<g id="a_Node000001"><a xlink:title=" ">
<polygon fill="#999999" stroke="#666666" points="1997.12,-362 1860.38,-362 1860.38,-331.5 1997.12,-331.5 1997.12,-362"/>
<text text-anchor="start" x="1868.38" y="-348.5" font-family="Helvetica,sans-Serif" font-size="10.00">/Users/hoff/Retro/virtualc64</text>
<text text-anchor="middle" x="1928.75" y="-337.25" font-family="Helvetica,sans-Serif" font-size="10.00">/Emulator/Headless.cpp</text>
</a>
</g>
</g>
<!-- Node2 -->
<g id="Node000002" class="node">
<title>Node2</title>
<g id="a_Node000002"><a xlink:href="config_8h_source.html" target="_top" xlink:title=" ">
<polygon fill="white" stroke="#666666" points="1519,-295.5 1468.5,-295.5 1468.5,-276.25 1519,-276.25 1519,-295.5"/>
<text text-anchor="middle" x="1493.75" y="-282" font-family="Helvetica,sans-Serif" font-size="10.00">config.h</text>
</a>
</g>
</g>
<!-- Node1&#45;&gt;Node2 -->
<g id="edge1_Node000001_Node000002" class="edge">
<title>Node1&#45;&gt;Node2</title>
<g id="a_edge1_Node000001_Node000002"><a xlink:title=" ">
<path fill="none" stroke="#63b8ff" d="M1860.3,-336.49C1767.15,-323.88 1603.72,-301.76 1530.75,-291.88"/>
<polygon fill="#63b8ff" stroke="#63b8ff" points="1531.31,-288.43 1520.93,-290.55 1530.37,-295.36 1531.31,-288.43"/>
</a>
</g>
</g>
<!-- Node4 -->
<g id="Node000004" class="node">
<title>Node4</title>
<g id="a_Node000004"><a xlink:href="_headless_8h_source.html" target="_top" xlink:title=" ">
<polygon fill="white" stroke="#666666" points="1678.5,-295.5 1613,-295.5 1613,-276.25 1678.5,-276.25 1678.5,-295.5"/>
<text text-anchor="middle" x="1645.75" y="-282" font-family="Helvetica,sans-Serif" font-size="10.00">Headless.h</text>
</a>
</g>
</g>
<!-- Node1&#45;&gt;Node4 -->
<g id="edge3_Node000001_Node000004" class="edge">
<title>Node1&#45;&gt;Node4</title>
<g id="a_edge3_Node000001_Node000004"><a xlink:title=" ">
<path fill="none" stroke="#63b8ff" d="M1859.88,-331.42C1807.05,-320.43 1735.69,-305.59 1690.19,-296.12"/>
<polygon fill="#63b8ff" stroke="#63b8ff" points="1690.9,-292.69 1680.4,-294.08 1689.48,-299.55 1690.9,-292.69"/>
</a>
</g>
</g>
<!-- Node72 -->
<g id="Node000072" class="node">
<title>Node72</title>
<g id="a_Node000072"><a xlink:title=" ">
<polygon fill="#e0e0e0" stroke="#999999" points="1793.25,-185 1732.25,-185 1732.25,-165.75 1793.25,-165.75 1793.25,-185"/>
<text text-anchor="middle" x="1762.75" y="-171.5" font-family="Helvetica,sans-Serif" font-size="10.00">filesystem</text>
</a>
</g>
</g>
<!-- Node1&#45;&gt;Node72 -->
<g id="edge64_Node000001_Node000072" class="edge">
<title>Node1&#45;&gt;Node72</title>
<g id="a_edge64_Node000001_Node000072"><a xlink:title=" ">
<path fill="none" stroke="#63b8ff" d="M1914.31,-331.02C1883.61,-299.69 1812,-226.63 1779.42,-193.38"/>
<polygon fill="#63b8ff" stroke="#63b8ff" points="1782.24,-191.26 1772.74,-186.57 1777.24,-196.16 1782.24,-191.26"/>
</a>
</g>
</g>
<!-- Node78 -->
<g id="Node000078" class="node">
<title>Node78</title>
<g id="a_Node000078"><a xlink:href="_i_o_utils_8h_source.html" target="_top" xlink:title=" ">
<polygon fill="white" stroke="#666666" points="1956.25,-240.25 1901.25,-240.25 1901.25,-221 1956.25,-221 1956.25,-240.25"/>
<text text-anchor="middle" x="1928.75" y="-226.75" font-family="Helvetica,sans-Serif" font-size="10.00">IOUtils.h</text>
</a>
</g>
</g>
<!-- Node1&#45;&gt;Node78 -->
<g id="edge50_Node000001_Node000078" class="edge">
<title>Node1&#45;&gt;Node78</title>
<g id="a_edge50_Node000001_Node000078"><a xlink:title=" ">
<path fill="none" stroke="#63b8ff" d="M1928.75,-331.3C1928.75,-311.25 1928.75,-274.9 1928.75,-252.07"/>
<polygon fill="#63b8ff" stroke="#63b8ff" points="1932.25,-252.21 1928.75,-242.21 1925.25,-252.21 1932.25,-252.21"/>
</a>
</g>
</g>
<!-- Node82 -->
<g id="Node000082" class="node">
<title>Node82</title>
<g id="a_Node000082"><a xlink:title=" ">
<polygon fill="#e0e0e0" stroke="#999999" points="2311.5,-185 2258,-185 2258,-165.75 2311.5,-165.75 2311.5,-185"/>
<text text-anchor="middle" x="2284.75" y="-171.5" font-family="Helvetica,sans-Serif" font-size="10.00">iostream</text>
</a>
</g>
</g>
<!-- Node1&#45;&gt;Node82 -->
<g id="edge65_Node000001_Node000082" class="edge">
<title>Node1&#45;&gt;Node82</title>
<g id="a_edge65_Node000001_Node000082"><a xlink:title=" ">
<path fill="none" stroke="#63b8ff" d="M1941.2,-331.12C1955.07,-315.61 1978.85,-291.33 2003.75,-276.25 2045.83,-250.77 2180.24,-208.1 2246.75,-187.79"/>
<polygon fill="#63b8ff" stroke="#63b8ff" points="2247.58,-191.19 2256.13,-184.93 2245.54,-184.49 2247.58,-191.19"/>
</a>
</g>
</g>
<!-- Node84 -->
<g id="Node000084" class="node">
<title>Node84</title>
<g id="a_Node000084"><a xlink:title=" ">
<polygon fill="#e0e0e0" stroke="#999999" points="2058.38,-295.5 2013.12,-295.5 2013.12,-276.25 2058.38,-276.25 2058.38,-295.5"/>
<text text-anchor="middle" x="2035.75" y="-282" font-family="Helvetica,sans-Serif" font-size="10.00">chrono</text>
</a>
</g>
</g>
<!-- Node1&#45;&gt;Node84 -->
<g id="edge63_Node000001_Node000084" class="edge">
<title>Node1&#45;&gt;Node84</title>
<g id="a_edge63_Node000001_Node000084"><a xlink:title=" ">
<path fill="none" stroke="#63b8ff" d="M1955.47,-331.05C1971.93,-321.99 1992.93,-310.44 2009.33,-301.41"/>
<polygon fill="#63b8ff" stroke="#63b8ff" points="2010.94,-304.52 2018.01,-296.63 2007.57,-298.39 2010.94,-304.52"/>
</a>
</g>
</g>
<!-- Node85 -->
<g id="Node000085" class="node">
<title>Node85</title>
<g id="a_Node000085"><a xlink:title=" ">
<polygon fill="#e0e0e0" stroke="#999999" points="2127.38,-295.5 2076.12,-295.5 2076.12,-276.25 2127.38,-276.25 2127.38,-295.5"/>
<text text-anchor="middle" x="2101.75" y="-282" font-family="Helvetica,sans-Serif" font-size="10.00">getopt.h</text>
</a>
</g>
</g>
<!-- Node1&#45;&gt;Node85 -->
<g id="edge66_Node000001_Node000085" class="edge">
<title>Node1&#45;&gt;Node85</title>
<g id="a_edge66_Node000001_Node000085"><a xlink:title=" ">
<path fill="none" stroke="#63b8ff" d="M1971.96,-331.05C2000.63,-321.29 2037.86,-308.62 2065.09,-299.35"/>
<polygon fill="#63b8ff" stroke="#63b8ff" points="2065.95,-302.75 2074.29,-296.22 2063.7,-296.13 2065.95,-302.75"/>
</a>
</g>
</g>
<!-- Node3 -->
<g id="Node000003" class="node">
<title>Node3</title>
<g id="a_Node000003"><a xlink:title=" ">
<polygon fill="#e0e0e0" stroke="#999999" points="1478.38,-240.25 1427.12,-240.25 1427.12,-221 1478.38,-221 1478.38,-240.25"/>
<text text-anchor="middle" x="1452.75" y="-226.75" font-family="Helvetica,sans-Serif" font-size="10.00">assert.h</text>
</a>
</g>
</g>
<!-- Node2&#45;&gt;Node3 -->
<g id="edge2_Node000002_Node000003" class="edge">
<title>Node2&#45;&gt;Node3</title>
<g id="a_edge2_Node000002_Node000003"><a xlink:title=" ">
<path fill="none" stroke="#63b8ff" d="M1486.98,-276.08C1481.43,-268.88 1473.41,-258.46 1466.52,-249.51"/>
<polygon fill="#63b8ff" stroke="#63b8ff" points="1469.46,-247.6 1460.59,-241.81 1463.92,-251.87 1469.46,-247.6"/>
</a>
</g>
</g>
<!-- Node5 -->
<g id="Node000005" class="node">
<title>Node5</title>
<g id="a_Node000005"><a xlink:href="_virtual_c64_8h.html" target="_top" xlink:title=" ">
<polygon fill="white" stroke="#666666" points="1715.75,-240.25 1645.75,-240.25 1645.75,-221 1715.75,-221 1715.75,-240.25"/>
<text text-anchor="middle" x="1680.75" y="-226.75" font-family="Helvetica,sans-Serif" font-size="10.00">VirtualC64.h</text>
</a>
</g>
</g>
<!-- Node4&#45;&gt;Node5 -->
<g id="edge4_Node000004_Node000005" class="edge">
<title>Node4&#45;&gt;Node5</title>
<g id="a_edge4_Node000004_Node000005"><a xlink:title=" ">
<path fill="none" stroke="#63b8ff" d="M1651.53,-276.08C1656.16,-269.03 1662.82,-258.9 1668.62,-250.08"/>
<polygon fill="#63b8ff" stroke="#63b8ff" points="1671.45,-252.15 1674.01,-241.87 1665.6,-248.31 1671.45,-252.15"/>
</a>
</g>
</g>
<!-- Node73 -->
<g id="Node000073" class="node">
<title>Node73</title>
<g id="a_Node000073"><a xlink:href="_concurrency_8h_source.html" target="_top" xlink:title=" ">
<polygon fill="white" stroke="#666666" points="1574.88,-240.25 1496.62,-240.25 1496.62,-221 1574.88,-221 1574.88,-240.25"/>
<text text-anchor="middle" x="1535.75" y="-226.75" font-family="Helvetica,sans-Serif" font-size="10.00">Concurrency.h</text>
</a>
</g>
</g>
<!-- Node4&#45;&gt;Node73 -->
<g id="edge44_Node000004_Node000073" class="edge">
<title>Node4&#45;&gt;Node73</title>
<g id="a_edge44_Node000004_Node000073"><a xlink:title=" ">
<path fill="none" stroke="#63b8ff" d="M1627.09,-275.84C1610.02,-267.58 1584.51,-255.23 1564.78,-245.68"/>
<polygon fill="#63b8ff" stroke="#63b8ff" points="1566.39,-242.57 1555.86,-241.36 1563.34,-248.87 1566.39,-242.57"/>
</a>
</g>
</g>
<!-- Node17 -->
<g id="Node000017" class="node">
<title>Node17</title>
<g id="a_Node000017"><a xlink:title=" ">
<polygon fill="#e0e0e0" stroke="#999999" points="1628.12,-240.25 1593.38,-240.25 1593.38,-221 1628.12,-221 1628.12,-240.25"/>
<text text-anchor="middle" x="1610.75" y="-226.75" font-family="Helvetica,sans-Serif" font-size="10.00">map</text>
</a>
</g>
</g>
<!-- Node4&#45;&gt;Node17 -->
<g id="edge49_Node000004_Node000017" class="edge">
<title>Node4&#45;&gt;Node17</title>
<g id="a_edge49_Node000004_Node000017"><a xlink:title=" ">
<path fill="none" stroke="#63b8ff" d="M1639.97,-276.08C1635.34,-269.03 1628.68,-258.9 1622.88,-250.08"/>
<polygon fill="#63b8ff" stroke="#63b8ff" points="1625.9,-248.31 1617.49,-241.87 1620.05,-252.15 1625.9,-248.31"/>
</a>
</g>
</g>
<!-- Node6 -->
<g id="Node000006" class="node">
<title>Node6</title>
<g id="a_Node000006"><a xlink:href="_virtual_c64_types_8h.html" target="_top" xlink:title=" ">
<polygon fill="#fff0f0" stroke="red" points="951.88,-185 855.62,-185 855.62,-165.75 951.88,-165.75 951.88,-185"/>
<text text-anchor="middle" x="903.75" y="-171.5" font-family="Helvetica,sans-Serif" font-size="10.00">VirtualC64Types.h</text>
</a>
</g>
</g>
<!-- Node5&#45;&gt;Node6 -->
<g id="edge5_Node000005_Node000006" class="edge">
<title>Node5&#45;&gt;Node6</title>
<g id="a_edge5_Node000005_Node000006"><a xlink:title=" ">
<path fill="none" stroke="#63b8ff" d="M1645.27,-222.25C1642.4,-221.78 1639.53,-221.36 1636.75,-221 1387.8,-189.17 1088.29,-179.9 963.18,-177.32"/>
<polygon fill="#63b8ff" stroke="#63b8ff" points="963.56,-173.83 953.5,-177.13 963.43,-180.83 963.56,-173.83"/>
</a>
</g>
</g>
<!-- Node68 -->
<g id="Node000068" class="node">
<title>Node68</title>
<g id="a_Node000068"><a xlink:href="_error_8h.html" target="_top" xlink:title=" ">
<polygon fill="#fff0f0" stroke="red" points="838,-185 793.5,-185 793.5,-165.75 838,-165.75 838,-185"/>
<text text-anchor="middle" x="815.75" y="-171.5" font-family="Helvetica,sans-Serif" font-size="10.00">Error.h</text>
</a>
</g>
</g>
<!-- Node5&#45;&gt;Node68 -->
<g id="edge37_Node000005_Node000068" class="edge">
<title>Node5&#45;&gt;Node68</title>
<g id="a_edge37_Node000005_Node000068"><a xlink:title=" ">
<path fill="none" stroke="#63b8ff" d="M1645.28,-222.2C1642.4,-221.75 1639.53,-221.33 1636.75,-221 1291.53,-179.53 1195.87,-239.15 849.67,-185.09"/>
<polygon fill="#63b8ff" stroke="#63b8ff" points="850.23,-181.63 839.8,-183.52 849.13,-188.54 850.23,-181.63"/>
</a>
</g>
</g>
<!-- Node69 -->
<g id="Node000069" class="node">
<title>Node69</title>
<g id="a_Node000069"><a xlink:href="_media_file_8h_source.html" target="_top" xlink:title=" ">
<polygon fill="white" stroke="#666666" points="1713.88,-185 1647.62,-185 1647.62,-165.75 1713.88,-165.75 1713.88,-185"/>
<text text-anchor="middle" x="1680.75" y="-171.5" font-family="Helvetica,sans-Serif" font-size="10.00">MediaFile.h</text>
</a>
</g>
</g>
<!-- Node5&#45;&gt;Node69 -->
<g id="edge39_Node000005_Node000069" class="edge">
<title>Node5&#45;&gt;Node69</title>
<g id="a_edge39_Node000005_Node000069"><a xlink:title=" ">
<path fill="none" stroke="#63b8ff" d="M1680.75,-220.83C1680.75,-214.32 1680.75,-205.17 1680.75,-196.87"/>
<polygon fill="#63b8ff" stroke="#63b8ff" points="1684.25,-196.87 1680.75,-186.87 1677.25,-196.87 1684.25,-196.87"/>
</a>
</g>
</g>
<!-- Node5&#45;&gt;Node72 -->
<g id="edge43_Node000005_Node000072" class="edge">
<title>Node5&#45;&gt;Node72</title>
<g id="a_edge43_Node000005_Node000072"><a xlink:title=" ">
<path fill="none" stroke="#63b8ff" d="M1694.66,-220.59C1706.91,-212.64 1725,-200.89 1739.46,-191.5"/>
<polygon fill="#63b8ff" stroke="#63b8ff" points="1741.02,-194.66 1747.5,-186.28 1737.21,-188.79 1741.02,-194.66"/>
</a>
</g>
</g>
<!-- Node7 -->
<g id="Node000007" class="node">
<title>Node7</title>
<g id="a_Node000007"><a xlink:href="_audio_port_types_8h.html" target="_top" xlink:title=" ">
<polygon fill="white" stroke="#666666" points="1376.38,-129.75 1283.12,-129.75 1283.12,-110.5 1376.38,-110.5 1376.38,-129.75"/>
<text text-anchor="middle" x="1329.75" y="-116.25" font-family="Helvetica,sans-Serif" font-size="10.00">AudioPortTypes.h</text>
</a>
</g>
</g>
<!-- Node6&#45;&gt;Node7 -->
<g id="edge6_Node000006_Node000007" class="edge">
<title>Node6&#45;&gt;Node7</title>
<g id="a_edge6_Node000006_Node000007"><a xlink:title=" ">
<path fill="none" stroke="#63b8ff" d="M952.3,-169.03C1020.93,-161.37 1150.54,-146.48 1271.42,-130.03"/>
<polygon fill="#63b8ff" stroke="#63b8ff" points="1271.78,-133.51 1281.21,-128.69 1270.83,-126.58 1271.78,-133.51"/>
</a>
</g>
</g>
<!-- Node14 -->
<g id="Node000014" class="node">
<title>Node14</title>
<g id="a_Node000014"><a xlink:href="_c64_types_8h.html" target="_top" xlink:title=" ">
<polygon fill="#fff0f0" stroke="red" points="571,-74.5 502.5,-74.5 502.5,-55.25 571,-55.25 571,-74.5"/>
<text text-anchor="middle" x="536.75" y="-61" font-family="Helvetica,sans-Serif" font-size="10.00">C64Types.h</text>
</a>
</g>
</g>
<!-- Node6&#45;&gt;Node14 -->
<g id="edge13_Node000006_Node000014" class="edge">
<title>Node6&#45;&gt;Node14</title>
<g id="a_edge13_Node000006_Node000014"><a xlink:title=" ">
<path fill="none" stroke="#63b8ff" d="M855.25,-166.95C852.38,-166.53 849.53,-166.13 846.75,-165.75 782.2,-156.87 605.49,-171.85 555.75,-129.75 543.18,-119.11 538.72,-100.56 537.23,-86.18"/>
<polygon fill="#63b8ff" stroke="#63b8ff" points="540.74,-86.21 536.65,-76.44 533.75,-86.63 540.74,-86.21"/>
</a>
</g>
</g>
<!-- Node18 -->
<g id="Node000018" class="node">
<title>Node18</title>
<g id="a_Node000018"><a xlink:href="_cartridge_types_8h.html" target="_top" xlink:title=" ">
<polygon fill="#fff0f0" stroke="red" points="1264.88,-129.75 1174.62,-129.75 1174.62,-110.5 1264.88,-110.5 1264.88,-129.75"/>
<text text-anchor="middle" x="1219.75" y="-116.25" font-family="Helvetica,sans-Serif" font-size="10.00">CartridgeTypes.h</text>
</a>
</g>
</g>
<!-- Node6&#45;&gt;Node18 -->
<g id="edge14_Node000006_Node000018" class="edge">
<title>Node6&#45;&gt;Node18</title>
<g id="a_edge14_Node000006_Node000018"><a xlink:title=" ">
<path fill="none" stroke="#63b8ff" d="M952.09,-166.23C1008.85,-156.66 1102.89,-140.82 1163.05,-130.68"/>
<polygon fill="#63b8ff" stroke="#63b8ff" points="1163.47,-134.16 1172.75,-129.05 1162.3,-127.26 1163.47,-134.16"/>
</a>
</g>
</g>
<!-- Node19 -->
<g id="Node000019" class="node">
<title>Node19</title>
<g id="a_Node000019"><a xlink:href="_c_i_a_types_8h.html" target="_top" xlink:title=" ">
<polygon fill="#fff0f0" stroke="red" points="508.88,-129.75 442.62,-129.75 442.62,-110.5 508.88,-110.5 508.88,-129.75"/>
<text text-anchor="middle" x="475.75" y="-116.25" font-family="Helvetica,sans-Serif" font-size="10.00">CIATypes.h</text>
</a>
</g>
</g>
<!-- Node6&#45;&gt;Node19 -->
<g id="edge15_Node000006_Node000019" class="edge">
<title>Node6&#45;&gt;Node19</title>
<g id="a_edge15_Node000006_Node000019"><a xlink:title=" ">
<path fill="none" stroke="#63b8ff" d="M855.26,-166.9C852.38,-166.5 849.53,-166.11 846.75,-165.75 703.09,-146.91 666.09,-150.84 522.75,-129.75 522.07,-129.65 521.39,-129.55 520.7,-129.44"/>
<polygon fill="#63b8ff" stroke="#63b8ff" points="521.26,-125.99 510.83,-127.83 520.13,-132.9 521.26,-125.99"/>
</a>
</g>
</g>
<!-- Node21 -->
<g id="Node000021" class="node">
<title>Node21</title>
<g id="a_Node000021"><a xlink:href="_cmd_queue_types_8h.html" target="_top" xlink:title=" ">
<polygon fill="#fff0f0" stroke="red" points="1156.75,-129.75 1056.75,-129.75 1056.75,-110.5 1156.75,-110.5 1156.75,-129.75"/>
<text text-anchor="middle" x="1106.75" y="-116.25" font-family="Helvetica,sans-Serif" font-size="10.00">CmdQueueTypes.h</text>
</a>
</g>
</g>
<!-- Node6&#45;&gt;Node21 -->
<g id="edge17_Node000006_Node000021" class="edge">
<title>Node6&#45;&gt;Node21</title>
<g id="a_edge17_Node000006_Node000021"><a xlink:title=" ">
<path fill="none" stroke="#63b8ff" d="M938.19,-165.34C972.02,-156.47 1023.84,-142.87 1061.09,-133.1"/>
<polygon fill="#63b8ff" stroke="#63b8ff" points="1061.9,-136.51 1070.68,-130.59 1060.12,-129.74 1061.9,-136.51"/>
</a>
</g>
</g>
<!-- Node22 -->
<g id="Node000022" class="node">
<title>Node22</title>
<g id="a_Node000022"><a xlink:href="_joystick_types_8h.html" target="_top" xlink:title=" ">
<polygon fill="#fff0f0" stroke="red" points="1111.38,-74.5 1024.12,-74.5 1024.12,-55.25 1111.38,-55.25 1111.38,-74.5"/>
<text text-anchor="middle" x="1067.75" y="-61" font-family="Helvetica,sans-Serif" font-size="10.00">JoystickTypes.h</text>
</a>
</g>
</g>
<!-- Node6&#45;&gt;Node22 -->
<g id="edge33_Node000006_Node000022" class="edge">
<title>Node6&#45;&gt;Node22</title>
<g id="a_edge33_Node000006_Node000022"><a xlink:title=" ">
<path fill="none" stroke="#63b8ff" d="M934.79,-165.3C956.95,-157.9 986.77,-146.02 1009.75,-129.75 1027.65,-117.07 1044.06,-98 1054.81,-83.99"/>
<polygon fill="#63b8ff" stroke="#63b8ff" points="1057.54,-86.19 1060.69,-76.07 1051.92,-82.02 1057.54,-86.19"/>
</a>
</g>
</g>
<!-- Node29 -->
<g id="Node000029" class="node">
<title>Node29</title>
<g id="a_Node000029"><a xlink:href="_control_port_types_8h.html" target="_top" xlink:title=" ">
<polygon fill="#fff0f0" stroke="red" points="1494.75,-129.75 1394.75,-129.75 1394.75,-110.5 1494.75,-110.5 1494.75,-129.75"/>
<text text-anchor="middle" x="1444.75" y="-116.25" font-family="Helvetica,sans-Serif" font-size="10.00">ControlPortTypes.h</text>
</a>
</g>
</g>
<!-- Node6&#45;&gt;Node29 -->
<g id="edge19_Node000006_Node000029" class="edge">
<title>Node6&#45;&gt;Node29</title>
<g id="a_edge19_Node000006_Node000029"><a xlink:title=" ">
<path fill="none" stroke="#63b8ff" d="M952.07,-170.75C1037.04,-164.19 1219,-149.33 1383.27,-129.99"/>
<polygon fill="#63b8ff" stroke="#63b8ff" points="1383.54,-133.48 1393.06,-128.82 1382.72,-126.53 1383.54,-133.48"/>
</a>
</g>
</g>
<!-- Node30 -->
<g id="Node000030" class="node">
<title>Node30</title>
<g id="a_Node000030"><a xlink:href="_c_p_u_types_8h_source.html" target="_top" xlink:title=" ">
<polygon fill="#fff0f0" stroke="red" points="1584.88,-129.75 1512.62,-129.75 1512.62,-110.5 1584.88,-110.5 1584.88,-129.75"/>
<text text-anchor="middle" x="1548.75" y="-116.25" font-family="Helvetica,sans-Serif" font-size="10.00">CPUTypes.h</text>
</a>
</g>
</g>
<!-- Node6&#45;&gt;Node30 -->
<g id="edge20_Node000006_Node000030" class="edge">
<title>Node6&#45;&gt;Node30</title>
<g id="a_edge20_Node000006_Node000030"><a xlink:title=" ">
<path fill="none" stroke="#63b8ff" d="M952.16,-172.67C1052.62,-168.71 1291.18,-157.21 1501.21,-129.93"/>
<polygon fill="#63b8ff" stroke="#63b8ff" points="1501.5,-133.42 1510.96,-128.65 1500.59,-126.48 1501.5,-133.42"/>
</a>
</g>
</g>
<!-- Node33 -->
<g id="Node000033" class="node">
<title>Node33</title>
<g id="a_Node000033"><a xlink:href="_datasette_types_8h.html" target="_top" xlink:title=" ">
<polygon fill="#fff0f0" stroke="red" points="348.38,-129.75 255.12,-129.75 255.12,-110.5 348.38,-110.5 348.38,-129.75"/>
<text text-anchor="middle" x="301.75" y="-116.25" font-family="Helvetica,sans-Serif" font-size="10.00">DatasetteTypes.h</text>
</a>
</g>
</g>
<!-- Node6&#45;&gt;Node33 -->
<g id="edge21_Node000006_Node000033" class="edge">
<title>Node6&#45;&gt;Node33</title>
<g id="a_edge21_Node000006_Node000033"><a xlink:title=" ">
<path fill="none" stroke="#63b8ff" d="M855.27,-166.78C852.39,-166.41 849.53,-166.06 846.75,-165.75 632.4,-141.6 577.21,-152.86 362.75,-129.75 361.75,-129.64 360.74,-129.53 359.72,-129.42"/>
<polygon fill="#63b8ff" stroke="#63b8ff" points="360.52,-125.99 350.17,-128.26 359.68,-132.94 360.52,-125.99"/>
</a>
</g>
</g>
<!-- Node34 -->
<g id="Node000034" class="node">
<title>Node34</title>
<g id="a_Node000034"><a xlink:href="_disk_types_8h_source.html" target="_top" xlink:title=" ">
<polygon fill="#fff0f0" stroke="red" points="218.12,-74.5 147.38,-74.5 147.38,-55.25 218.12,-55.25 218.12,-74.5"/>
<text text-anchor="middle" x="182.75" y="-61" font-family="Helvetica,sans-Serif" font-size="10.00">DiskTypes.h</text>
</a>
</g>
</g>
<!-- Node6&#45;&gt;Node34 -->
<g id="edge22_Node000006_Node000034" class="edge">
<title>Node6&#45;&gt;Node34</title>
<g id="a_edge22_Node000006_Node000034"><a xlink:title=" ">
<path fill="none" stroke="#63b8ff" d="M855.28,-166.7C852.4,-166.35 849.54,-166.03 846.75,-165.75 806.51,-161.72 147.63,-159.04 119.75,-129.75 103.29,-112.45 129.14,-92.96 152.53,-80.11"/>
<polygon fill="#63b8ff" stroke="#63b8ff" points="154,-83.29 161.26,-75.57 150.77,-77.08 154,-83.29"/>
</a>
</g>
</g>
<!-- Node42 -->
<g id="Node000042" class="node">
<title>Node42</title>
<g id="a_Node000042"><a xlink:href="_drive_types_8h.html" target="_top" xlink:title=" ">
<polygon fill="#fff0f0" stroke="red" points="413.62,-19.25 339.88,-19.25 339.88,0 413.62,0 413.62,-19.25"/>
<text text-anchor="middle" x="376.75" y="-5.75" font-family="Helvetica,sans-Serif" font-size="10.00">DriveTypes.h</text>
</a>
</g>
</g>
<!-- Node6&#45;&gt;Node42 -->
<g id="edge26_Node000006_Node000042" class="edge">
<title>Node6&#45;&gt;Node42</title>
<g id="a_edge26_Node000006_Node000042"><a xlink:title=" ">
<path fill="none" stroke="#63b8ff" d="M855.27,-166.82C852.39,-166.44 849.53,-166.08 846.75,-165.75 752.62,-154.65 499.56,-183.87 421.75,-129.75 389.47,-107.3 380.32,-58.56 377.75,-30.88"/>
<polygon fill="#63b8ff" stroke="#63b8ff" points="381.25,-30.75 377.06,-21.02 374.26,-31.24 381.25,-30.75"/>
</a>
</g>
</g>
<!-- Node44 -->
<g id="Node000044" class="node">
<title>Node44</title>
<g id="a_Node000044"><a xlink:href="_disk_analyzer_types_8h_source.html" target="_top" xlink:title=" ">
<polygon fill="white" stroke="#666666" points="237.25,-129.75 128.25,-129.75 128.25,-110.5 237.25,-110.5 237.25,-129.75"/>
<text text-anchor="middle" x="182.75" y="-116.25" font-family="Helvetica,sans-Serif" font-size="10.00">DiskAnalyzerTypes.h</text>
</a>
</g>
</g>
<!-- Node6&#45;&gt;Node44 -->
<g id="edge24_Node000006_Node000044" class="edge">
<title>Node6&#45;&gt;Node44</title>
<g id="a_edge24_Node000006_Node000044"><a xlink:title=" ">
<path fill="none" stroke="#63b8ff" d="M855.28,-166.74C852.4,-166.38 849.54,-166.04 846.75,-165.75 584.27,-138.09 513.97,-155.43 248.83,-129.98"/>
<polygon fill="#63b8ff" stroke="#63b8ff" points="249.49,-126.53 239.2,-129.04 248.82,-133.5 249.49,-126.53"/>
</a>
</g>
</g>
<!-- Node45 -->
<g id="Node000045" class="node">
<title>Node45</title>
<g id="a_Node000045"><a xlink:href="_emulator_types_8h.html" target="_top" xlink:title=" ">
<polygon fill="#fff0f0" stroke="red" points="786.5,-129.75 697,-129.75 697,-110.5 786.5,-110.5 786.5,-129.75"/>
<text text-anchor="middle" x="741.75" y="-116.25" font-family="Helvetica,sans-Serif" font-size="10.00">EmulatorTypes.h</text>
</a>
</g>
</g>
<!-- Node6&#45;&gt;Node45 -->
<g id="edge27_Node000006_Node000045" class="edge">
<title>Node6&#45;&gt;Node45</title>
<g id="a_edge27_Node000006_Node000045"><a xlink:title=" ">
<path fill="none" stroke="#63b8ff" d="M876.27,-165.34C849.85,-156.66 809.69,-143.46 780.13,-133.74"/>
<polygon fill="#63b8ff" stroke="#63b8ff" points="781.4,-130.47 770.8,-130.68 779.21,-137.12 781.4,-130.47"/>
</a>
</g>
</g>
<!-- Node47 -->
<g id="Node000047" class="node">
<title>Node47</title>
<g id="a_Node000047"><a xlink:href="_error_types_8h.html" target="_top" xlink:title=" ">
<polygon fill="#fff0f0" stroke="red" points="71.5,-129.75 0,-129.75 0,-110.5 71.5,-110.5 71.5,-129.75"/>
<text text-anchor="middle" x="35.75" y="-116.25" font-family="Helvetica,sans-Serif" font-size="10.00">ErrorTypes.h</text>
</a>
</g>
</g>
<!-- Node6&#45;&gt;Node47 -->
<g id="edge29_Node000006_Node000047" class="edge">
<title>Node6&#45;&gt;Node47</title>
<g id="a_edge29_Node000006_Node000047"><a xlink:title=" ">
<path fill="none" stroke="#63b8ff" d="M855.28,-166.69C852.4,-166.35 849.54,-166.03 846.75,-165.75 509.8,-132.38 422.34,-166.6 85.75,-129.75 84.91,-129.66 84.07,-129.56 83.22,-129.46"/>
<polygon fill="#63b8ff" stroke="#63b8ff" points="83.88,-126.02 73.5,-128.12 82.93,-132.95 83.88,-126.02"/>
</a>
</g>
</g>
<!-- Node48 -->
<g id="Node000048" class="node">
<title>Node48</title>
<g id="a_Node000048"><a xlink:href="_expansion_port_types_8h.html" target="_top" xlink:title=" ">
<polygon fill="#fff0f0" stroke="red" points="678.88,-129.75 564.62,-129.75 564.62,-110.5 678.88,-110.5 678.88,-129.75"/>
<text text-anchor="middle" x="621.75" y="-116.25" font-family="Helvetica,sans-Serif" font-size="10.00">ExpansionPortTypes.h</text>
</a>
</g>
</g>
<!-- Node6&#45;&gt;Node48 -->
<g id="edge30_Node000006_Node000048" class="edge">
<title>Node6&#45;&gt;Node48</title>
<g id="a_edge30_Node000006_Node000048"><a xlink:title=" ">
<path fill="none" stroke="#63b8ff" d="M855.59,-165.28C807.23,-156.15 732.63,-142.06 680.74,-132.26"/>
<polygon fill="#63b8ff" stroke="#63b8ff" points="681.67,-128.88 671.2,-130.46 680.37,-135.76 681.67,-128.88"/>
</a>
</g>
</g>
<!-- Node49 -->
<g id="Node000049" class="node">
<title>Node49</title>
<g id="a_Node000049"><a xlink:href="_f_s_types_8h.html" target="_top" xlink:title=" ">
<polygon fill="#fff0f0" stroke="red" points="468.38,-74.5 405.12,-74.5 405.12,-55.25 468.38,-55.25 468.38,-74.5"/>
<text text-anchor="middle" x="436.75" y="-61" font-family="Helvetica,sans-Serif" font-size="10.00">FSTypes.h</text>
</a>
</g>
</g>
<!-- Node6&#45;&gt;Node49 -->
<g id="edge31_Node000006_Node000049" class="edge">
<title>Node6&#45;&gt;Node49</title>
<g id="a_edge31_Node000006_Node000049"><a xlink:title=" ">
<path fill="none" stroke="#63b8ff" d="M855.27,-166.83C852.39,-166.44 849.53,-166.08 846.75,-165.75 801.01,-160.3 464.88,-163.71 433.75,-129.75 422.97,-117.99 425.24,-99.29 429.31,-85.16"/>
<polygon fill="#63b8ff" stroke="#63b8ff" points="432.5,-86.64 432.41,-76.05 425.87,-84.39 432.5,-86.64"/>
</a>
</g>
</g>
<!-- Node50 -->
<g id="Node000050" class="node">
<title>Node50</title>
<g id="a_Node000050"><a xlink:href="_keyboard_types_8h_source.html" target="_top" xlink:title=" ">
<polygon fill="#fff0f0" stroke="red" points="896.62,-129.75 804.88,-129.75 804.88,-110.5 896.62,-110.5 896.62,-129.75"/>
<text text-anchor="middle" x="850.75" y="-116.25" font-family="Helvetica,sans-Serif" font-size="10.00">KeyboardTypes.h</text>
</a>
</g>
</g>
<!-- Node6&#45;&gt;Node50 -->
<g id="edge34_Node000006_Node000050" class="edge">
<title>Node6&#45;&gt;Node50</title>
<g id="a_edge34_Node000006_Node000050"><a xlink:title=" ">
<path fill="none" stroke="#63b8ff" d="M895,-165.58C887.6,-158.15 876.79,-147.29 867.7,-138.16"/>
<polygon fill="#63b8ff" stroke="#63b8ff" points="870.29,-135.8 860.76,-131.18 865.33,-140.74 870.29,-135.8"/>
</a>
</g>
</g>
<!-- Node52 -->
<g id="Node000052" class="node">
<title>Node52</title>
<g id="a_Node000052"><a xlink:href="_media_file_types_8h.html" target="_top" xlink:title=" ">
<polygon fill="#fff0f0" stroke="red" points="1733,-129.75 1640.5,-129.75 1640.5,-110.5 1733,-110.5 1733,-129.75"/>
<text text-anchor="middle" x="1686.75" y="-116.25" font-family="Helvetica,sans-Serif" font-size="10.00">MediaFileTypes.h</text>
</a>
</g>
</g>
<!-- Node6&#45;&gt;Node52 -->
<g id="edge35_Node000006_Node000052" class="edge">
<title>Node6&#45;&gt;Node52</title>
<g id="a_edge35_Node000006_Node000052"><a xlink:title=" ">
<path fill="none" stroke="#63b8ff" d="M952.3,-171.7C1065.03,-165.39 1353.21,-148.68 1593.75,-129.75 1605.15,-128.85 1617.32,-127.8 1628.98,-126.74"/>
<polygon fill="#63b8ff" stroke="#63b8ff" points="1629.27,-130.22 1638.91,-125.82 1628.63,-123.25 1629.27,-130.22"/>
</a>
</g>
</g>
<!-- Node53 -->
<g id="Node000053" class="node">
<title>Node53</title>
<g id="a_Node000053"><a xlink:href="_memory_types_8h.html" target="_top" xlink:title=" ">
<polygon fill="#fff0f0" stroke="red" points="1000.62,-129.75 914.88,-129.75 914.88,-110.5 1000.62,-110.5 1000.62,-129.75"/>
<text text-anchor="middle" x="957.75" y="-116.25" font-family="Helvetica,sans-Serif" font-size="10.00">MemoryTypes.h</text>
</a>
</g>
</g>
<!-- Node6&#45;&gt;Node53 -->
<g id="edge36_Node000006_Node000053" class="edge">
<title>Node6&#45;&gt;Node53</title>
<g id="a_edge36_Node000006_Node000053"><a xlink:title=" ">
<path fill="none" stroke="#63b8ff" d="M912.67,-165.58C920.2,-158.15 931.22,-147.29 940.48,-138.16"/>
<polygon fill="#63b8ff" stroke="#63b8ff" points="942.9,-140.69 947.56,-131.17 937.98,-135.7 942.9,-140.69"/>
</a>
</g>
</g>
<!-- Node8 -->
<g id="Node000008" class="node">
<title>Node8</title>
<g id="a_Node000008"><a xlink:href="_types_8h_source.html" target="_top" xlink:title=" ">
<polygon fill="white" stroke="#666666" points="1780,-74.5 1729.5,-74.5 1729.5,-55.25 1780,-55.25 1780,-74.5"/>
<text text-anchor="middle" x="1754.75" y="-61" font-family="Helvetica,sans-Serif" font-size="10.00">Types.h</text>
</a>
</g>
</g>
<!-- Node7&#45;&gt;Node8 -->
<g id="edge7_Node000007_Node000008" class="edge">
<title>Node7&#45;&gt;Node8</title>
<g id="a_edge7_Node000007_Node000008"><a xlink:title=" ">
<path fill="none" stroke="#63b8ff" d="M1376.79,-111.77C1379.82,-111.33 1382.83,-110.9 1385.75,-110.5 1507.27,-93.8 1651.77,-77.3 1718.13,-69.9"/>
<polygon fill="#63b8ff" stroke="#63b8ff" points="1718.16,-73.42 1727.71,-68.84 1717.38,-66.47 1718.16,-73.42"/>
</a>
</g>
</g>
<!-- Node9 -->
<g id="Node000009" class="node">
<title>Node9</title>
<g id="a_Node000009"><a xlink:title=" ">
<polygon fill="#e0e0e0" stroke="#999999" points="1930.25,-19.25 1863.25,-19.25 1863.25,0 1930.25,0 1930.25,-19.25"/>
<text text-anchor="middle" x="1896.75" y="-5.75" font-family="Helvetica,sans-Serif" font-size="10.00">sys/types.h</text>
</a>
</g>
</g>
<!-- Node8&#45;&gt;Node9 -->
<g id="edge8_Node000008_Node000009" class="edge">
<title>Node8&#45;&gt;Node9</title>
<g id="a_edge8_Node000008_Node000009"><a xlink:title=" ">
<path fill="none" stroke="#63b8ff" d="M1778.84,-54.84C1801.69,-46.27 1836.27,-33.31 1862.08,-23.63"/>
<polygon fill="#63b8ff" stroke="#63b8ff" points="1862.99,-27.02 1871.13,-20.23 1860.53,-20.47 1862.99,-27.02"/>
</a>
</g>
</g>
<!-- Node10 -->
<g id="Node000010" class="node">
<title>Node10</title>
<g id="a_Node000010"><a xlink:title=" ">
<polygon fill="#e0e0e0" stroke="#999999" points="1655.88,-19.25 1607.62,-19.25 1607.62,0 1655.88,0 1655.88,-19.25"/>
<text text-anchor="middle" x="1631.75" y="-5.75" font-family="Helvetica,sans-Serif" font-size="10.00">stdint.h</text>
</a>
</g>
</g>
<!-- Node8&#45;&gt;Node10 -->
<g id="edge9_Node000008_Node000010" class="edge">
<title>Node8&#45;&gt;Node10</title>
<g id="a_edge9_Node000008_Node000010"><a xlink:title=" ">
<path fill="none" stroke="#63b8ff" d="M1733.88,-54.84C1714.45,-46.43 1685.21,-33.77 1662.99,-24.15"/>
<polygon fill="#63b8ff" stroke="#63b8ff" points="1664.67,-21.06 1654.11,-20.3 1661.89,-27.49 1664.67,-21.06"/>
</a>
</g>
</g>
<!-- Node11 -->
<g id="Node000011" class="node">
<title>Node11</title>
<g id="a_Node000011"><a xlink:title=" ">
<polygon fill="#e0e0e0" stroke="#999999" points="1713.75,-19.25 1673.75,-19.25 1673.75,0 1713.75,0 1713.75,-19.25"/>
<text text-anchor="middle" x="1693.75" y="-5.75" font-family="Helvetica,sans-Serif" font-size="10.00">string</text>
</a>
</g>
</g>
<!-- Node8&#45;&gt;Node11 -->
<g id="edge10_Node000008_Node000011" class="edge">
<title>Node8&#45;&gt;Node11</title>
<g id="a_edge10_Node000008_Node000011"><a xlink:title=" ">
<path fill="none" stroke="#63b8ff" d="M1744.4,-54.84C1735.67,-47.22 1722.96,-36.12 1712.45,-26.95"/>
<polygon fill="#63b8ff" stroke="#63b8ff" points="1714.92,-24.46 1705.09,-20.52 1710.32,-29.73 1714.92,-24.46"/>
</a>
</g>
</g>
<!-- Node12 -->
<g id="Node000012" class="node">
<title>Node12</title>
<g id="a_Node000012"><a xlink:title=" ">
<polygon fill="#e0e0e0" stroke="#999999" points="1777.38,-19.25 1732.12,-19.25 1732.12,0 1777.38,0 1777.38,-19.25"/>
<text text-anchor="middle" x="1754.75" y="-5.75" font-family="Helvetica,sans-Serif" font-size="10.00">cstring</text>
</a>
</g>
</g>
<!-- Node8&#45;&gt;Node12 -->
<g id="edge11_Node000008_Node000012" class="edge">
<title>Node8&#45;&gt;Node12</title>
<g id="a_edge11_Node000008_Node000012"><a xlink:title=" ">
<path fill="none" stroke="#63b8ff" d="M1754.75,-55.08C1754.75,-48.57 1754.75,-39.42 1754.75,-31.12"/>
<polygon fill="#63b8ff" stroke="#63b8ff" points="1758.25,-31.12 1754.75,-21.12 1751.25,-31.12 1758.25,-31.12"/>
</a>
</g>
</g>
<!-- Node13 -->
<g id="Node000013" class="node">
<title>Node13</title>
<g id="a_Node000013"><a xlink:title=" ">
<polygon fill="#e0e0e0" stroke="#999999" points="1845.62,-19.25 1795.88,-19.25 1795.88,0 1845.62,0 1845.62,-19.25"/>
<text text-anchor="middle" x="1820.75" y="-5.75" font-family="Helvetica,sans-Serif" font-size="10.00">optional</text>
</a>
</g>
</g>
<!-- Node8&#45;&gt;Node13 -->
<g id="edge12_Node000008_Node000013" class="edge">
<title>Node8&#45;&gt;Node13</title>
<g id="a_edge12_Node000008_Node000013"><a xlink:title=" ">
<path fill="none" stroke="#63b8ff" d="M1765.95,-54.84C1775.49,-47.15 1789.42,-35.9 1800.86,-26.68"/>
<polygon fill="#63b8ff" stroke="#63b8ff" points="1802.96,-29.48 1808.54,-20.48 1798.56,-24.03 1802.96,-29.48"/>
</a>
</g>
</g>
<!-- Node19&#45;&gt;Node14 -->
<g id="edge16_Node000019_Node000014" class="edge">
<title>Node19&#45;&gt;Node14</title>
<g id="a_edge16_Node000019_Node000014"><a xlink:title=" ">
<path fill="none" stroke="#63b8ff" d="M486.1,-110.09C494.83,-102.47 507.54,-91.37 518.05,-82.2"/>
<polygon fill="#63b8ff" stroke="#63b8ff" points="520.18,-84.98 525.41,-75.77 515.58,-79.71 520.18,-84.98"/>
</a>
</g>
</g>
<!-- Node21&#45;&gt;Node22 -->
<g id="edge18_Node000021_Node000022" class="edge">
<title>Node21&#45;&gt;Node22</title>
<g id="a_edge18_Node000021_Node000022"><a xlink:title=" ">
<path fill="none" stroke="#63b8ff" d="M1100.31,-110.33C1095.09,-103.21 1087.56,-92.93 1081.06,-84.05"/>
<polygon fill="#63b8ff" stroke="#63b8ff" points="1083.96,-82.08 1075.22,-76.08 1078.31,-86.22 1083.96,-82.08"/>
</a>
</g>
</g>
<!-- Node34&#45;&gt;Node42 -->
<g id="edge23_Node000034_Node000042" class="edge">
<title>Node34&#45;&gt;Node42</title>
<g id="a_edge23_Node000034_Node000042"><a xlink:title=" ">
<path fill="none" stroke="#63b8ff" d="M215.66,-54.84C247.85,-46.01 297.09,-32.49 332.65,-22.73"/>
<polygon fill="#63b8ff" stroke="#63b8ff" points="333.5,-26.13 342.22,-20.1 331.65,-19.37 333.5,-26.13"/>
</a>
</g>
</g>
<!-- Node44&#45;&gt;Node34 -->
<g id="edge25_Node000044_Node000034" class="edge">
<title>Node44&#45;&gt;Node34</title>
<g id="a_edge25_Node000044_Node000034"><a xlink:title=" ">
<path fill="none" stroke="#63b8ff" d="M182.75,-110.33C182.75,-103.82 182.75,-94.67 182.75,-86.37"/>
<polygon fill="#63b8ff" stroke="#63b8ff" points="186.25,-86.37 182.75,-76.37 179.25,-86.37 186.25,-86.37"/>
</a>
</g>
</g>
<!-- Node45&#45;&gt;Node14 -->
<g id="edge28_Node000045_Node000014" class="edge">
<title>Node45&#45;&gt;Node14</title>
<g id="a_edge28_Node000045_Node000014"><a xlink:title=" ">
<path fill="none" stroke="#63b8ff" d="M706.97,-110.09C672.56,-101.15 619.71,-87.42 582.03,-77.64"/>
<polygon fill="#63b8ff" stroke="#63b8ff" points="583.38,-74.37 572.82,-75.24 581.62,-81.15 583.38,-74.37"/>
</a>
</g>
</g>
<!-- Node49&#45;&gt;Node42 -->
<g id="edge32_Node000049_Node000042" class="edge">
<title>Node49&#45;&gt;Node42</title>
<g id="a_edge32_Node000049_Node000042"><a xlink:title=" ">
<path fill="none" stroke="#63b8ff" d="M426.57,-54.84C417.99,-47.22 405.48,-36.12 395.15,-26.95"/>
<polygon fill="#63b8ff" stroke="#63b8ff" points="397.71,-24.55 387.91,-20.53 393.07,-29.79 397.71,-24.55"/>
</a>
</g>
</g>
<!-- Node68&#45;&gt;Node47 -->
<g id="edge38_Node000068_Node000047" class="edge">
<title>Node68&#45;&gt;Node47</title>
<g id="a_edge38_Node000068_Node000047"><a xlink:title=" ">
<path fill="none" stroke="#63b8ff" d="M793.15,-167.65C790.02,-166.9 786.82,-166.24 783.75,-165.75 476.96,-117.06 394.47,-164.21 85.75,-129.75 84.91,-129.66 84.07,-129.56 83.22,-129.45"/>
<polygon fill="#63b8ff" stroke="#63b8ff" points="83.88,-126.01 73.5,-128.11 82.92,-132.95 83.88,-126.01"/>
</a>
</g>
</g>
<!-- Node69&#45;&gt;Node52 -->
<g id="edge40_Node000069_Node000052" class="edge">
<title>Node69&#45;&gt;Node52</title>
<g id="a_edge40_Node000069_Node000052"><a xlink:title=" ">
<path fill="none" stroke="#63b8ff" d="M1681.74,-165.58C1682.48,-158.99 1683.53,-149.71 1684.47,-141.32"/>
<polygon fill="#63b8ff" stroke="#63b8ff" points="1687.93,-141.94 1685.57,-131.61 1680.97,-141.16 1687.93,-141.94"/>
</a>
</g>
</g>
<!-- Node70 -->
<g id="Node000070" class="node">
<title>Node70</title>
<g id="a_Node000070"><a xlink:title=" ">
<polygon fill="#e0e0e0" stroke="#999999" points="1802.38,-129.75 1751.12,-129.75 1751.12,-110.5 1802.38,-110.5 1802.38,-129.75"/>
<text text-anchor="middle" x="1776.75" y="-116.25" font-family="Helvetica,sans-Serif" font-size="10.00">sstream</text>
</a>
</g>
</g>
<!-- Node69&#45;&gt;Node70 -->
<g id="edge41_Node000069_Node000070" class="edge">
<title>Node69&#45;&gt;Node70</title>
<g id="a_edge41_Node000069_Node000070"><a xlink:title=" ">
<path fill="none" stroke="#63b8ff" d="M1697.04,-165.34C1711.65,-157.23 1733.38,-145.18 1750.46,-135.71"/>
<polygon fill="#63b8ff" stroke="#63b8ff" points="1752.01,-138.85 1759.06,-130.94 1748.62,-132.73 1752.01,-138.85"/>
</a>
</g>
</g>
<!-- Node71 -->
<g id="Node000071" class="node">
<title>Node71</title>
<g id="a_Node000071"><a xlink:title=" ">
<polygon fill="#e0e0e0" stroke="#999999" points="1869.25,-129.75 1820.25,-129.75 1820.25,-110.5 1869.25,-110.5 1869.25,-129.75"/>
<text text-anchor="middle" x="1844.75" y="-116.25" font-family="Helvetica,sans-Serif" font-size="10.00">fstream</text>
</a>
</g>
</g>
<!-- Node69&#45;&gt;Node71 -->
<g id="edge42_Node000069_Node000071" class="edge">
<title>Node69&#45;&gt;Node71</title>
<g id="a_edge42_Node000069_Node000071"><a xlink:title=" ">
<path fill="none" stroke="#63b8ff" d="M1708.57,-165.34C1736.2,-156.37 1778.69,-142.57 1808.85,-132.78"/>
<polygon fill="#63b8ff" stroke="#63b8ff" points="1809.88,-136.13 1818.31,-129.71 1807.72,-129.47 1809.88,-136.13"/>
</a>
</g>
</g>
<!-- Node74 -->
<g id="Node000074" class="node">
<title>Node74</title>
<g id="a_Node000074"><a xlink:href="_chrono_8h_source.html" target="_top" xlink:title=" ">
<polygon fill="#fff0f0" stroke="red" points="1596.62,-185 1540.88,-185 1540.88,-165.75 1596.62,-165.75 1596.62,-185"/>
<text text-anchor="middle" x="1568.75" y="-171.5" font-family="Helvetica,sans-Serif" font-size="10.00">Chrono.h</text>
</a>
</g>
</g>
<!-- Node73&#45;&gt;Node74 -->
<g id="edge45_Node000073_Node000074" class="edge">
<title>Node73&#45;&gt;Node74</title>
<g id="a_edge45_Node000073_Node000074"><a xlink:title=" ">
<path fill="none" stroke="#63b8ff" d="M1541.2,-220.83C1545.52,-213.86 1551.71,-203.87 1557.13,-195.12"/>
<polygon fill="#63b8ff" stroke="#63b8ff" points="1560.09,-196.99 1562.39,-186.65 1554.14,-193.3 1560.09,-196.99"/>
</a>
</g>
</g>
<!-- Node76 -->
<g id="Node000076" class="node">
<title>Node76</title>
<g id="a_Node000076"><a xlink:title=" ">
<polygon fill="#e0e0e0" stroke="#999999" points="716.25,-185 673.25,-185 673.25,-165.75 716.25,-165.75 716.25,-185"/>
<text text-anchor="middle" x="694.75" y="-171.5" font-family="Helvetica,sans-Serif" font-size="10.00">thread</text>
</a>
</g>
</g>
<!-- Node73&#45;&gt;Node76 -->
<g id="edge47_Node000073_Node000076" class="edge">
<title>Node73&#45;&gt;Node76</title>
<g id="a_edge47_Node000073_Node000076"><a xlink:title=" ">
<path fill="none" stroke="#63b8ff" d="M1496.26,-222.11C1493.38,-221.69 1490.53,-221.31 1487.75,-221 1154.47,-183.35 1062.47,-237.59 727.63,-184.87"/>
<polygon fill="#63b8ff" stroke="#63b8ff" points="728.55,-181.48 718.13,-183.36 727.45,-188.39 728.55,-181.48"/>
</a>
</g>
</g>
<!-- Node77 -->
<g id="Node000077" class="node">
<title>Node77</title>
<g id="a_Node000077"><a xlink:title=" ">
<polygon fill="#e0e0e0" stroke="#999999" points="775.12,-185 734.38,-185 734.38,-165.75 775.12,-165.75 775.12,-185"/>
<text text-anchor="middle" x="754.75" y="-171.5" font-family="Helvetica,sans-Serif" font-size="10.00">future</text>
</a>
</g>
</g>
<!-- Node73&#45;&gt;Node77 -->
<g id="edge48_Node000073_Node000077" class="edge">
<title>Node73&#45;&gt;Node77</title>
<g id="a_edge48_Node000073_Node000077"><a xlink:title=" ">
<path fill="none" stroke="#63b8ff" d="M1496.26,-222.12C1493.38,-221.7 1490.53,-221.32 1487.75,-221 1180.59,-185.68 1095.32,-235.37 786.67,-184.87"/>
<polygon fill="#63b8ff" stroke="#63b8ff" points="787.52,-181.46 777.08,-183.27 786.38,-188.37 787.52,-181.46"/>
</a>
</g>
</g>
<!-- Node74&#45;&gt;Node8 -->
<g id="edge46_Node000074_Node000008" class="edge">
<title>Node74&#45;&gt;Node8</title>
<g id="a_edge46_Node000074_Node000008"><a xlink:title=" ">
<path fill="none" stroke="#63b8ff" d="M1575.52,-165.28C1586.11,-151.63 1607.89,-125.8 1631.75,-110.5 1658.45,-93.38 1692.61,-81.66 1718.15,-74.54"/>
<polygon fill="#63b8ff" stroke="#63b8ff" points="1719,-77.94 1727.76,-71.98 1717.2,-71.18 1719,-77.94"/>
</a>
</g>
</g>
<!-- Node78&#45;&gt;Node8 -->
<g id="edge51_Node000078_Node000008" class="edge">
<title>Node78&#45;&gt;Node8</title>
<g id="a_edge51_Node000078_Node000008"><a xlink:title=" ">
<path fill="none" stroke="#63b8ff" d="M1926.03,-220.69C1918.32,-195.82 1895.75,-126.64 1878.75,-110.5 1854.79,-87.76 1818.42,-76.47 1791.25,-70.96"/>
<polygon fill="#63b8ff" stroke="#63b8ff" points="1792.19,-67.57 1781.73,-69.2 1790.93,-74.46 1792.19,-67.57"/>
</a>
</g>
</g>
<!-- Node78&#45;&gt;Node70 -->
<g id="edge60_Node000078_Node000070" class="edge">
<title>Node78&#45;&gt;Node70</title>
<g id="a_edge60_Node000078_Node000070"><a xlink:title=" ">
<path fill="none" stroke="#63b8ff" d="M1916.18,-220.76C1903.46,-211.77 1883.21,-197.45 1865.75,-185 1842.86,-168.68 1816.73,-149.91 1798.74,-136.96"/>
<polygon fill="#63b8ff" stroke="#63b8ff" points="1800.8,-134.13 1790.64,-131.13 1796.71,-139.81 1800.8,-134.13"/>
</a>
</g>
</g>
<!-- Node78&#45;&gt;Node71 -->
<g id="edge57_Node000078_Node000071" class="edge">
<title>Node78&#45;&gt;Node71</title>
<g id="a_edge57_Node000078_Node000071"><a xlink:title=" ">
<path fill="none" stroke="#63b8ff" d="M1918.39,-220.68C1908.78,-212.09 1894.39,-198.47 1883.75,-185 1872.55,-170.82 1862.01,-153.2 1854.71,-140.06"/>
<polygon fill="#63b8ff" stroke="#63b8ff" points="1857.97,-138.71 1850.13,-131.58 1851.81,-142.04 1857.97,-138.71"/>
</a>
</g>
</g>
<!-- Node78&#45;&gt;Node72 -->
<g id="edge56_Node000078_Node000072" class="edge">
<title>Node78&#45;&gt;Node72</title>
<g id="a_edge56_Node000078_Node000072"><a xlink:title=" ">
<path fill="none" stroke="#63b8ff" d="M1900.97,-220.71C1873.84,-212.01 1832.31,-198.69 1801.85,-188.92"/>
<polygon fill="#63b8ff" stroke="#63b8ff" points="1803.21,-185.68 1792.62,-185.96 1801.08,-192.35 1803.21,-185.68"/>
</a>
</g>
</g>
<!-- Node79 -->
<g id="Node000079" class="node">
<title>Node79</title>
<g id="a_Node000079"><a xlink:href="_string_utils_8h_source.html" target="_top" xlink:title=" ">
<polygon fill="white" stroke="#666666" points="1995.75,-185 1925.75,-185 1925.75,-165.75 1995.75,-165.75 1995.75,-185"/>
<text text-anchor="middle" x="1960.75" y="-171.5" font-family="Helvetica,sans-Serif" font-size="10.00">StringUtils.h</text>
</a>
</g>
</g>
<!-- Node78&#45;&gt;Node79 -->
<g id="edge52_Node000078_Node000079" class="edge">
<title>Node78&#45;&gt;Node79</title>
<g id="a_edge52_Node000078_Node000079"><a xlink:title=" ">
<path fill="none" stroke="#63b8ff" d="M1934.03,-220.83C1938.22,-213.86 1944.23,-203.87 1949.48,-195.12"/>
<polygon fill="#63b8ff" stroke="#63b8ff" points="1952.42,-197.03 1954.57,-186.66 1946.42,-193.43 1952.42,-197.03"/>
</a>
</g>
</g>
<!-- Node41 -->
<g id="Node000041" class="node">
<title>Node41</title>
<g id="a_Node000041"><a xlink:title=" ">
<polygon fill="#e0e0e0" stroke="#999999" points="2033.25,-129.75 1990.25,-129.75 1990.25,-110.5 2033.25,-110.5 2033.25,-129.75"/>
<text text-anchor="middle" x="2011.75" y="-116.25" font-family="Helvetica,sans-Serif" font-size="10.00">vector</text>
</a>
</g>
</g>
<!-- Node78&#45;&gt;Node41 -->
<g id="edge62_Node000078_Node000041" class="edge">
<title>Node78&#45;&gt;Node41</title>
<g id="a_edge62_Node000078_Node000041"><a xlink:title=" ">
<path fill="none" stroke="#63b8ff" d="M1956.49,-220.61C1973.31,-213.63 1993.61,-202.21 2004.75,-185 2013.02,-172.23 2014.46,-154.93 2014.01,-141.56"/>
<polygon fill="#63b8ff" stroke="#63b8ff" points="2017.51,-141.43 2013.26,-131.72 2010.53,-141.96 2017.51,-141.43"/>
</a>
</g>
</g>
<!-- Node80 -->
<g id="Node000080" class="node">
<title>Node80</title>
<g id="a_Node000080"><a xlink:title=" ">
<polygon fill="#e0e0e0" stroke="#999999" points="2095.25,-185 2052.25,-185 2052.25,-165.75 2095.25,-165.75 2095.25,-185"/>
<text text-anchor="middle" x="2073.75" y="-171.5" font-family="Helvetica,sans-Serif" font-size="10.00">fcntl.h</text>
</a>
</g>
</g>
<!-- Node78&#45;&gt;Node80 -->
<g id="edge55_Node000078_Node000080" class="edge">
<title>Node78&#45;&gt;Node80</title>
<g id="a_edge55_Node000078_Node000080"><a xlink:title=" ">
<path fill="none" stroke="#63b8ff" d="M1953.35,-220.59C1977.53,-211.71 2014.57,-198.11 2041.18,-188.33"/>
<polygon fill="#63b8ff" stroke="#63b8ff" points="2042.28,-191.66 2050.46,-184.93 2039.87,-185.09 2042.28,-191.66"/>
</a>
</g>
</g>
<!-- Node81 -->
<g id="Node000081" class="node">
<title>Node81</title>
<g id="a_Node000081"><a xlink:title=" ">
<polygon fill="#e0e0e0" stroke="#999999" points="2161.88,-185 2113.62,-185 2113.62,-165.75 2161.88,-165.75 2161.88,-185"/>
<text text-anchor="middle" x="2137.75" y="-171.5" font-family="Helvetica,sans-Serif" font-size="10.00">istream</text>
</a>
</g>
</g>
<!-- Node78&#45;&gt;Node81 -->
<g id="edge58_Node000078_Node000081" class="edge">
<title>Node78&#45;&gt;Node81</title>
<g id="a_edge58_Node000078_Node000081"><a xlink:title=" ">
<path fill="none" stroke="#63b8ff" d="M1956.51,-222.65C1989.1,-214.45 2045.08,-200.32 2102.2,-185.64"/>
<polygon fill="#63b8ff" stroke="#63b8ff" points="2102.97,-189.06 2111.78,-183.18 2101.22,-182.28 2102.97,-189.06"/>
</a>
</g>
</g>
<!-- Node78&#45;&gt;Node82 -->
<g id="edge59_Node000078_Node000082" class="edge">
<title>Node78&#45;&gt;Node82</title>
<g id="a_edge59_Node000078_Node000082"><a xlink:title=" ">
<path fill="none" stroke="#63b8ff" d="M1956.71,-223.58C1961.39,-222.66 1966.2,-221.76 1970.75,-221 2090.03,-201.06 2124.23,-207.15 2246.38,-185.25"/>
<polygon fill="#63b8ff" stroke="#63b8ff" points="2246.99,-188.69 2256.2,-183.46 2245.73,-181.81 2246.99,-188.69"/>
</a>
</g>
</g>
<!-- Node83 -->
<g id="Node000083" class="node">
<title>Node83</title>
<g id="a_Node000083"><a xlink:title=" ">
<polygon fill="#e0e0e0" stroke="#999999" points="2239.5,-185 2180,-185 2180,-165.75 2239.5,-165.75 2239.5,-185"/>
<text text-anchor="middle" x="2209.75" y="-171.5" font-family="Helvetica,sans-Serif" font-size="10.00">sys/stat.h</text>
</a>
</g>
</g>
<!-- Node78&#45;&gt;Node83 -->
<g id="edge61_Node000078_Node000083" class="edge">
<title>Node78&#45;&gt;Node83</title>
<g id="a_edge61_Node000078_Node000083"><a xlink:title=" ">
<path fill="none" stroke="#63b8ff" d="M1956.75,-223.78C1961.42,-222.83 1966.22,-221.87 1970.75,-221 2055.97,-204.58 2080.32,-202.87 2168.47,-185.39"/>
<polygon fill="#63b8ff" stroke="#63b8ff" points="2168.94,-188.87 2178.06,-183.48 2167.57,-182 2168.94,-188.87"/>
</a>
</g>
</g>
<!-- Node79&#45;&gt;Node8 -->
<g id="edge53_Node000079_Node000008" class="edge">
<title>Node79&#45;&gt;Node8</title>
<g id="a_edge53_Node000079_Node000008"><a xlink:title=" ">
<path fill="none" stroke="#63b8ff" d="M1956.35,-165.49C1949.03,-151.63 1933.02,-124.95 1911.75,-110.5 1875.37,-85.79 1825.4,-74.64 1791.68,-69.69"/>
<polygon fill="#63b8ff" stroke="#63b8ff" points="1792.36,-66.25 1781.99,-68.39 1791.43,-73.19 1792.36,-66.25"/>
</a>
</g>
</g>
<!-- Node79&#45;&gt;Node41 -->
<g id="edge54_Node000079_Node000041" class="edge">
<title>Node79&#45;&gt;Node41</title>
<g id="a_edge54_Node000079_Node000041"><a xlink:title=" ">
<path fill="none" stroke="#63b8ff" d="M1969.17,-165.58C1976.29,-158.15 1986.69,-147.29 1995.44,-138.16"/>
<polygon fill="#63b8ff" stroke="#63b8ff" points="1997.71,-140.85 2002.1,-131.2 1992.65,-136 1997.71,-140.85"/>
</a>
</g>
</g>
</g>
</svg>
