<?xml version="1.0" encoding="UTF-8" standalone="no"?>
<!DOCTYPE svg PUBLIC "-//W3C//DTD SVG 1.1//EN"
 "http://www.w3.org/Graphics/SVG/1.1/DTD/svg11.dtd">
<!-- Generated by graphviz version 10.0.1 (20240210.2158)
 -->
<!-- Title: /Users/hoff/Retro/virtualc64/Emulator/Headless.cpp Pages: 1 -->
<svg width="2817pt" height="425pt"
 viewBox="0.00 0.00 2816.78 425.25" xmlns="http://www.w3.org/2000/svg" xmlns:xlink="http://www.w3.org/1999/xlink">
<g id="graph0" class="graph" transform="scale(1 1) rotate(0) translate(4 421.25)">
<title>/Users/hoff/Retro/virtualc64/Emulator/Headless.cpp</title>
<!-- Node1 -->
<g id="Node000001" class="node">
<title>Node1</title>
<g id="a_Node000001"><a xlink:title=" ">
<polygon fill="#999999" stroke="#666666" points="1511.5,-417.25 1374.75,-417.25 1374.75,-386.75 1511.5,-386.75 1511.5,-417.25"/>
<text text-anchor="start" x="1382.75" y="-403.75" font-family="Helvetica,sans-Serif" font-size="10.00">/Users/hoff/Retro/virtualc64</text>
<text text-anchor="middle" x="1443.12" y="-392.5" font-family="Helvetica,sans-Serif" font-size="10.00">/Emulator/Headless.cpp</text>
</a>
</g>
</g>
<!-- Node2 -->
<g id="Node000002" class="node">
<title>Node2</title>
<g id="a_Node000002"><a xlink:href="config_8h_source.html" target="_top" xlink:title=" ">
<polygon fill="white" stroke="#666666" points="1301.38,-350.75 1250.88,-350.75 1250.88,-331.5 1301.38,-331.5 1301.38,-350.75"/>
<text text-anchor="middle" x="1276.12" y="-337.25" font-family="Helvetica,sans-Serif" font-size="10.00">config.h</text>
</a>
</g>
</g>
<!-- Node1&#45;&gt;Node2 -->
<g id="edge1_Node000001_Node000002" class="edge">
<title>Node1&#45;&gt;Node2</title>
<g id="a_edge1_Node000001_Node000002"><a xlink:title=" ">
<path fill="none" stroke="#63b8ff" d="M1401.41,-386.3C1374.03,-376.64 1338.55,-364.13 1312.35,-354.9"/>
<polygon fill="#63b8ff" stroke="#63b8ff" points="1313.76,-351.68 1303.16,-351.66 1311.43,-358.28 1313.76,-351.68"/>
</a>
</g>
</g>
<!-- Node4 -->
<g id="Node000004" class="node">
<title>Node4</title>
<g id="a_Node000004"><a xlink:href="_headless_8h_source.html" target="_top" xlink:title=" ">
<polygon fill="white" stroke="#666666" points="1385.88,-350.75 1320.38,-350.75 1320.38,-331.5 1385.88,-331.5 1385.88,-350.75"/>
<text text-anchor="middle" x="1353.12" y="-337.25" font-family="Helvetica,sans-Serif" font-size="10.00">Headless.h</text>
</a>
</g>
</g>
<!-- Node1&#45;&gt;Node4 -->
<g id="edge3_Node000001_Node000004" class="edge">
<title>Node1&#45;&gt;Node4</title>
<g id="a_edge3_Node000001_Node000004"><a xlink:title=" ">
<path fill="none" stroke="#63b8ff" d="M1420.88,-386.45C1407.31,-377.57 1389.99,-366.24 1376.26,-357.26"/>
<polygon fill="#63b8ff" stroke="#63b8ff" points="1378.55,-354.58 1368.27,-352.03 1374.72,-360.43 1378.55,-354.58"/>
</a>
</g>
</g>
<!-- Node202 -->
<g id="Node000202" class="node">
<title>Node202</title>
<g id="a_Node000202"><a xlink:href="_script_8h_source.html" target="_top" xlink:title=" ">
<polygon fill="white" stroke="#666666" points="2086,-295.5 2036.25,-295.5 2036.25,-276.25 2086,-276.25 2086,-295.5"/>
<text text-anchor="middle" x="2061.12" y="-282" font-family="Helvetica,sans-Serif" font-size="10.00">Script.h</text>
</a>
</g>
</g>
<!-- Node1&#45;&gt;Node202 -->
<g id="edge52_Node000001_Node000202" class="edge">
<title>Node1&#45;&gt;Node202</title>
<g id="a_edge52_Node000001_Node000202"><a xlink:title=" ">
<path fill="none" stroke="#63b8ff" d="M1435.34,-386.47C1428.14,-370.82 1420.44,-346.19 1434.12,-331.5 1474.43,-288.23 1895.99,-286.24 2024.28,-286.65"/>
<polygon fill="#63b8ff" stroke="#63b8ff" points="2024.23,-290.15 2034.25,-286.69 2024.26,-283.15 2024.23,-290.15"/>
</a>
</g>
</g>
<!-- Node72 -->
<g id="Node000072" class="node">
<title>Node72</title>
<g id="a_Node000072"><a xlink:title=" ">
<polygon fill="#e0e0e0" stroke="#999999" points="1503.62,-350.75 1442.62,-350.75 1442.62,-331.5 1503.62,-331.5 1503.62,-350.75"/>
<text text-anchor="middle" x="1473.12" y="-337.25" font-family="Helvetica,sans-Serif" font-size="10.00">filesystem</text>
</a>
</g>
</g>
<!-- Node1&#45;&gt;Node72 -->
<g id="edge60_Node000001_Node000072" class="edge">
<title>Node1&#45;&gt;Node72</title>
<g id="a_edge60_Node000001_Node000072"><a xlink:title=" ">
<path fill="none" stroke="#63b8ff" d="M1450.54,-386.45C1454.41,-378.86 1459.18,-369.49 1463.35,-361.32"/>
<polygon fill="#63b8ff" stroke="#63b8ff" points="1466.39,-363.05 1467.81,-352.55 1460.15,-359.87 1466.39,-363.05"/>
</a>
</g>
</g>
<!-- Node203 -->
<g id="Node000203" class="node">
<title>Node203</title>
<g id="a_Node000203"><a xlink:title=" ">
<polygon fill="#e0e0e0" stroke="#999999" points="1566.75,-350.75 1521.5,-350.75 1521.5,-331.5 1566.75,-331.5 1566.75,-350.75"/>
<text text-anchor="middle" x="1544.12" y="-337.25" font-family="Helvetica,sans-Serif" font-size="10.00">chrono</text>
</a>
</g>
</g>
<!-- Node1&#45;&gt;Node203 -->
<g id="edge61_Node000001_Node000203" class="edge">
<title>Node1&#45;&gt;Node203</title>
<g id="a_edge61_Node000001_Node000203"><a xlink:title=" ">
<path fill="none" stroke="#63b8ff" d="M1468.35,-386.3C1483.73,-377.33 1503.33,-365.91 1518.74,-356.92"/>
<polygon fill="#63b8ff" stroke="#63b8ff" points="1520.45,-359.98 1527.33,-351.92 1516.93,-353.93 1520.45,-359.98"/>
</a>
</g>
</g>
<!-- Node204 -->
<g id="Node000204" class="node">
<title>Node204</title>
<g id="a_Node000204"><a xlink:title=" ">
<polygon fill="#e0e0e0" stroke="#999999" points="1635.75,-350.75 1584.5,-350.75 1584.5,-331.5 1635.75,-331.5 1635.75,-350.75"/>
<text text-anchor="middle" x="1610.12" y="-337.25" font-family="Helvetica,sans-Serif" font-size="10.00">getopt.h</text>
</a>
</g>
</g>
<!-- Node1&#45;&gt;Node204 -->
<g id="edge62_Node000001_Node000204" class="edge">
<title>Node1&#45;&gt;Node204</title>
<g id="a_edge62_Node000001_Node000204"><a xlink:title=" ">
<path fill="none" stroke="#63b8ff" d="M1484.84,-386.3C1512.22,-376.64 1547.7,-364.13 1573.9,-354.9"/>
<polygon fill="#63b8ff" stroke="#63b8ff" points="1574.82,-358.28 1583.09,-351.66 1572.49,-351.68 1574.82,-358.28"/>
</a>
</g>
</g>
<!-- Node3 -->
<g id="Node000003" class="node">
<title>Node3</title>
<g id="a_Node000003"><a xlink:title=" ">
<polygon fill="#e0e0e0" stroke="#999999" points="1264.75,-295.5 1213.5,-295.5 1213.5,-276.25 1264.75,-276.25 1264.75,-295.5"/>
<text text-anchor="middle" x="1239.12" y="-282" font-family="Helvetica,sans-Serif" font-size="10.00">assert.h</text>
</a>
</g>
</g>
<!-- Node2&#45;&gt;Node3 -->
<g id="edge2_Node000002_Node000003" class="edge">
<title>Node2&#45;&gt;Node3</title>
<g id="a_edge2_Node000002_Node000003"><a xlink:title=" ">
<path fill="none" stroke="#63b8ff" d="M1270.02,-331.33C1265.06,-324.21 1257.92,-313.93 1251.75,-305.05"/>
<polygon fill="#63b8ff" stroke="#63b8ff" points="1254.81,-303.32 1246.23,-297.1 1249.06,-307.31 1254.81,-303.32"/>
</a>
</g>
</g>
<!-- Node5 -->
<g id="Node000005" class="node">
<title>Node5</title>
<g id="a_Node000005"><a xlink:href="_virtual_c64_8h.html" target="_top" xlink:title=" ">
<polygon fill="white" stroke="#666666" points="1353.12,-295.5 1283.12,-295.5 1283.12,-276.25 1353.12,-276.25 1353.12,-295.5"/>
<text text-anchor="middle" x="1318.12" y="-282" font-family="Helvetica,sans-Serif" font-size="10.00">VirtualC64.h</text>
</a>
</g>
</g>
<!-- Node4&#45;&gt;Node5 -->
<g id="edge4_Node000004_Node000005" class="edge">
<title>Node4&#45;&gt;Node5</title>
<g id="a_edge4_Node000004_Node000005"><a xlink:title=" ">
<path fill="none" stroke="#63b8ff" d="M1347.35,-331.33C1342.71,-324.28 1336.05,-314.15 1330.26,-305.33"/>
<polygon fill="#63b8ff" stroke="#63b8ff" points="1333.28,-303.56 1324.86,-297.12 1327.43,-307.4 1333.28,-303.56"/>
</a>
</g>
</g>
<!-- Node201 -->
<g id="Node000201" class="node">
<title>Node201</title>
<g id="a_Node000201"><a xlink:title=" ">
<polygon fill="#e0e0e0" stroke="#999999" points="1405.5,-295.5 1370.75,-295.5 1370.75,-276.25 1405.5,-276.25 1405.5,-295.5"/>
<text text-anchor="middle" x="1388.12" y="-282" font-family="Helvetica,sans-Serif" font-size="10.00">map</text>
</a>
</g>
</g>
<!-- Node4&#45;&gt;Node201 -->
<g id="edge51_Node000004_Node000201" class="edge">
<title>Node4&#45;&gt;Node201</title>
<g id="a_edge51_Node000004_Node000201"><a xlink:title=" ">
<path fill="none" stroke="#63b8ff" d="M1358.9,-331.33C1363.54,-324.28 1370.2,-314.15 1375.99,-305.33"/>
<polygon fill="#63b8ff" stroke="#63b8ff" points="1378.82,-307.4 1381.39,-297.12 1372.97,-303.56 1378.82,-307.4"/>
</a>
</g>
</g>
<!-- Node6 -->
<g id="Node000006" class="node">
<title>Node6</title>
<g id="a_Node000006"><a xlink:href="_virtual_c64_types_8h.html" target="_top" xlink:title=" ">
<polygon fill="white" stroke="#666666" points="1366.25,-185 1270,-185 1270,-165.75 1366.25,-165.75 1366.25,-185"/>
<text text-anchor="middle" x="1318.12" y="-171.5" font-family="Helvetica,sans-Serif" font-size="10.00">VirtualC64Types.h</text>
</a>
</g>
</g>
<!-- Node5&#45;&gt;Node6 -->
<g id="edge5_Node000005_Node000006" class="edge">
<title>Node5&#45;&gt;Node6</title>
<g id="a_edge5_Node000005_Node000006"><a xlink:title=" ">
<path fill="none" stroke="#63b8ff" d="M1318.12,-276C1318.12,-258.75 1318.12,-220.33 1318.12,-196.56"/>
<polygon fill="#63b8ff" stroke="#63b8ff" points="1321.63,-196.89 1318.13,-186.89 1314.63,-196.89 1321.63,-196.89"/>
</a>
</g>
</g>
<!-- Node47 -->
<g id="Node000047" class="node">
<title>Node47</title>
<g id="a_Node000047"><a xlink:href="_emulator_8h_source.html" target="_top" xlink:title=" ">
<polygon fill="white" stroke="#666666" points="1016.38,-240.25 953.88,-240.25 953.88,-221 1016.38,-221 1016.38,-240.25"/>
<text text-anchor="middle" x="985.12" y="-226.75" font-family="Helvetica,sans-Serif" font-size="10.00">Emulator.h</text>
</a>
</g>
</g>
<!-- Node5&#45;&gt;Node47 -->
<g id="edge36_Node000005_Node000047" class="edge">
<title>Node5&#45;&gt;Node47</title>
<g id="a_edge36_Node000005_Node000047"><a xlink:title=" ">
<path fill="none" stroke="#63b8ff" d="M1283.08,-277.87C1280.06,-277.31 1277.04,-276.76 1274.12,-276.25 1187.06,-261 1084.74,-245.85 1028.19,-237.72"/>
<polygon fill="#63b8ff" stroke="#63b8ff" points="1028.73,-234.26 1018.34,-236.31 1027.74,-241.19 1028.73,-234.26"/>
</a>
</g>
</g>
<!-- Node7 -->
<g id="Node000007" class="node">
<title>Node7</title>
<g id="a_Node000007"><a xlink:href="_c64_types_8h.html" target="_top" xlink:title=" ">
<polygon fill="#fff0f0" stroke="red" points="140.38,-129.75 71.88,-129.75 71.88,-110.5 140.38,-110.5 140.38,-129.75"/>
<text text-anchor="middle" x="106.12" y="-116.25" font-family="Helvetica,sans-Serif" font-size="10.00">C64Types.h</text>
</a>
</g>
</g>
<!-- Node6&#45;&gt;Node7 -->
<g id="edge6_Node000006_Node000007" class="edge">
<title>Node6&#45;&gt;Node7</title>
<g id="a_edge6_Node000006_Node000007"><a xlink:title=" ">
<path fill="none" stroke="#63b8ff" d="M1269.77,-172.99C1069,-167.16 304.85,-144.37 152.18,-129.78"/>
<polygon fill="#63b8ff" stroke="#63b8ff" points="152.6,-126.31 142.29,-128.73 151.86,-133.27 152.6,-126.31"/>
</a>
</g>
</g>
<!-- Node15 -->
<g id="Node000015" class="node">
<title>Node15</title>
<g id="a_Node000015"><a xlink:href="_cartridge_types_8h.html" target="_top" xlink:title=" ">
<polygon fill="#fff0f0" stroke="red" points="1740.25,-129.75 1650,-129.75 1650,-110.5 1740.25,-110.5 1740.25,-129.75"/>
<text text-anchor="middle" x="1695.12" y="-116.25" font-family="Helvetica,sans-Serif" font-size="10.00">CartridgeTypes.h</text>
</a>
</g>
</g>
<!-- Node6&#45;&gt;Node15 -->
<g id="edge7_Node000006_Node000015" class="edge">
<title>Node6&#45;&gt;Node15</title>
<g id="a_edge7_Node000006_Node000015"><a xlink:title=" ">
<path fill="none" stroke="#63b8ff" d="M1366.6,-168C1427.6,-159.91 1535.89,-145.31 1638.56,-130.11"/>
<polygon fill="#63b8ff" stroke="#63b8ff" points="1638.89,-133.6 1648.27,-128.66 1637.86,-126.67 1638.89,-133.6"/>
</a>
</g>
</g>
<!-- Node16 -->
<g id="Node000016" class="node">
<title>Node16</title>
<g id="a_Node000016"><a xlink:href="_c_i_a_types_8h.html" target="_top" xlink:title=" ">
<polygon fill="#fff0f0" stroke="red" points="1824.25,-129.75 1758,-129.75 1758,-110.5 1824.25,-110.5 1824.25,-129.75"/>
<text text-anchor="middle" x="1791.12" y="-116.25" font-family="Helvetica,sans-Serif" font-size="10.00">CIATypes.h</text>
</a>
</g>
</g>
<!-- Node6&#45;&gt;Node16 -->
<g id="edge8_Node000006_Node000016" class="edge">
<title>Node6&#45;&gt;Node16</title>
<g id="a_edge8_Node000006_Node000016"><a xlink:title=" ">
<path fill="none" stroke="#63b8ff" d="M1366.48,-170.94C1444.39,-165.07 1602.72,-151.73 1746.5,-130.01"/>
<polygon fill="#63b8ff" stroke="#63b8ff" points="1746.86,-133.5 1756.21,-128.53 1745.8,-126.58 1746.86,-133.5"/>
</a>
</g>
</g>
<!-- Node18 -->
<g id="Node000018" class="node">
<title>Node18</title>
<g id="a_Node000018"><a xlink:href="_cmd_queue_types_8h.html" target="_top" xlink:title=" ">
<polygon fill="#fff0f0" stroke="red" points="2525.12,-129.75 2425.12,-129.75 2425.12,-110.5 2525.12,-110.5 2525.12,-129.75"/>
<text text-anchor="middle" x="2475.12" y="-116.25" font-family="Helvetica,sans-Serif" font-size="10.00">CmdQueueTypes.h</text>
</a>
</g>
</g>
<!-- Node6&#45;&gt;Node18 -->
<g id="edge9_Node000006_Node000018" class="edge">
<title>Node6&#45;&gt;Node18</title>
<g id="a_edge9_Node000006_Node000018"><a xlink:title=" ">
<path fill="none" stroke="#63b8ff" d="M1366.68,-174.21C1519.27,-173.31 2002.9,-167.53 2413.43,-129.9"/>
<polygon fill="#63b8ff" stroke="#63b8ff" points="2413.49,-133.41 2423.13,-129 2412.85,-126.44 2413.49,-133.41"/>
</a>
</g>
</g>
<!-- Node19 -->
<g id="Node000019" class="node">
<title>Node19</title>
<g id="a_Node000019"><a xlink:href="_joystick_types_8h.html" target="_top" xlink:title=" ">
<polygon fill="#fff0f0" stroke="red" points="2456.75,-74.5 2369.5,-74.5 2369.5,-55.25 2456.75,-55.25 2456.75,-74.5"/>
<text text-anchor="middle" x="2413.12" y="-61" font-family="Helvetica,sans-Serif" font-size="10.00">JoystickTypes.h</text>
</a>
</g>
</g>
<!-- Node6&#45;&gt;Node19 -->
<g id="edge25_Node000006_Node000019" class="edge">
<title>Node6&#45;&gt;Node19</title>
<g id="a_edge25_Node000006_Node000019"><a xlink:title=" ">
<path fill="none" stroke="#63b8ff" d="M1269.67,-172.74C1090.78,-166.6 477.11,-144.48 463.12,-129.75 457.24,-123.54 457.14,-116.61 463.12,-110.5 498.01,-74.9 2207.32,-76.38 2257.12,-74.5 2290.51,-73.24 2327.87,-71.2 2357.66,-69.42"/>
<polygon fill="#63b8ff" stroke="#63b8ff" points="2357.82,-72.91 2367.59,-68.81 2357.4,-65.93 2357.82,-72.91"/>
</a>
</g>
</g>
<!-- Node20 -->
<g id="Node000020" class="node">
<title>Node20</title>
<g id="a_Node000020"><a xlink:href="_control_port_types_8h.html" target="_top" xlink:title=" ">
<polygon fill="#fff0f0" stroke="red" points="1942.12,-129.75 1842.12,-129.75 1842.12,-110.5 1942.12,-110.5 1942.12,-129.75"/>
<text text-anchor="middle" x="1892.12" y="-116.25" font-family="Helvetica,sans-Serif" font-size="10.00">ControlPortTypes.h</text>
</a>
</g>
</g>
<!-- Node6&#45;&gt;Node20 -->
<g id="edge11_Node000006_Node000020" class="edge">
<title>Node6&#45;&gt;Node20</title>
<g id="a_edge11_Node000006_Node000020"><a xlink:title=" ">
<path fill="none" stroke="#63b8ff" d="M1366.5,-171.14C1455.94,-164.94 1653.45,-150.29 1830.57,-129.98"/>
<polygon fill="#63b8ff" stroke="#63b8ff" points="1830.9,-133.47 1840.44,-128.84 1830.1,-126.51 1830.9,-133.47"/>
</a>
</g>
</g>
<!-- Node21 -->
<g id="Node000021" class="node">
<title>Node21</title>
<g id="a_Node000021"><a xlink:href="_c_p_u_types_8h_source.html" target="_top" xlink:title=" ">
<polygon fill="#fff0f0" stroke="red" points="2032.25,-129.75 1960,-129.75 1960,-110.5 2032.25,-110.5 2032.25,-129.75"/>
<text text-anchor="middle" x="1996.12" y="-116.25" font-family="Helvetica,sans-Serif" font-size="10.00">CPUTypes.h</text>
</a>
</g>
</g>
<!-- Node6&#45;&gt;Node21 -->
<g id="edge12_Node000006_Node000021" class="edge">
<title>Node6&#45;&gt;Node21</title>
<g id="a_edge12_Node000006_Node000021"><a xlink:title=" ">
<path fill="none" stroke="#63b8ff" d="M1366.36,-172.93C1470.72,-169.39 1725.37,-158.48 1948.56,-129.93"/>
<polygon fill="#63b8ff" stroke="#63b8ff" points="1948.87,-133.42 1958.33,-128.66 1947.97,-126.47 1948.87,-133.42"/>
</a>
</g>
</g>
<!-- Node23 -->
<g id="Node000023" class="node">
<title>Node23</title>
<g id="a_Node000023"><a xlink:href="_datasette_types_8h.html" target="_top" xlink:title=" ">
<polygon fill="#fff0f0" stroke="red" points="2143.75,-129.75 2050.5,-129.75 2050.5,-110.5 2143.75,-110.5 2143.75,-129.75"/>
<text text-anchor="middle" x="2097.12" y="-116.25" font-family="Helvetica,sans-Serif" font-size="10.00">DatasetteTypes.h</text>
</a>
</g>
</g>
<!-- Node6&#45;&gt;Node23 -->
<g id="edge13_Node000006_Node000023" class="edge">
<title>Node6&#45;&gt;Node23</title>
<g id="a_edge13_Node000006_Node000023"><a xlink:title=" ">
<path fill="none" stroke="#63b8ff" d="M1366.48,-172.91C1481.26,-169.12 1779.32,-157.35 2038.95,-129.88"/>
<polygon fill="#63b8ff" stroke="#63b8ff" points="2039.04,-133.39 2048.61,-128.84 2038.29,-126.43 2039.04,-133.39"/>
</a>
</g>
</g>
<!-- Node24 -->
<g id="Node000024" class="node">
<title>Node24</title>
<g id="a_Node000024"><a xlink:href="_disk_types_8h_source.html" target="_top" xlink:title=" ">
<polygon fill="#fff0f0" stroke="red" points="2248.5,-74.5 2177.75,-74.5 2177.75,-55.25 2248.5,-55.25 2248.5,-74.5"/>
<text text-anchor="middle" x="2213.12" y="-61" font-family="Helvetica,sans-Serif" font-size="10.00">DiskTypes.h</text>
</a>
</g>
</g>
<!-- Node6&#45;&gt;Node24 -->
<g id="edge14_Node000006_Node000024" class="edge">
<title>Node6&#45;&gt;Node24</title>
<g id="a_edge14_Node000006_Node000024"><a xlink:title=" ">
<path fill="none" stroke="#63b8ff" d="M1366.54,-173.88C1533.93,-171.89 2081.87,-162.86 2153.12,-129.75 2173.98,-120.06 2191.12,-99.55 2201.66,-84.37"/>
<polygon fill="#63b8ff" stroke="#63b8ff" points="2204.48,-86.46 2207.05,-76.18 2198.63,-82.62 2204.48,-86.46"/>
</a>
</g>
</g>
<!-- Node25 -->
<g id="Node000025" class="node">
<title>Node25</title>
<g id="a_Node000025"><a xlink:href="_disk_analyzer_types_8h_source.html" target="_top" xlink:title=" ">
<polygon fill="#fff0f0" stroke="red" points="2309.62,-129.75 2200.62,-129.75 2200.62,-110.5 2309.62,-110.5 2309.62,-129.75"/>
<text text-anchor="middle" x="2255.12" y="-116.25" font-family="Helvetica,sans-Serif" font-size="10.00">DiskAnalyzerTypes.h</text>
</a>
</g>
</g>
<!-- Node6&#45;&gt;Node25 -->
<g id="edge15_Node000006_Node000025" class="edge">
<title>Node6&#45;&gt;Node25</title>
<g id="a_edge15_Node000006_Node000025"><a xlink:title=" ">
<path fill="none" stroke="#63b8ff" d="M1366.68,-173.12C1498.59,-169.45 1874.6,-157.19 2186.12,-129.75 2187.12,-129.66 2188.13,-129.57 2189.15,-129.48"/>
<polygon fill="#63b8ff" stroke="#63b8ff" points="2189.07,-133 2198.67,-128.51 2188.37,-126.04 2189.07,-133"/>
</a>
</g>
</g>
<!-- Node26 -->
<g id="Node000026" class="node">
<title>Node26</title>
<g id="a_Node000026"><a xlink:href="_drive_types_8h.html" target="_top" xlink:title=" ">
<polygon fill="#fff0f0" stroke="red" points="416,-129.75 342.25,-129.75 342.25,-110.5 416,-110.5 416,-129.75"/>
<text text-anchor="middle" x="379.12" y="-116.25" font-family="Helvetica,sans-Serif" font-size="10.00">DriveTypes.h</text>
</a>
</g>
</g>
<!-- Node6&#45;&gt;Node26 -->
<g id="edge17_Node000006_Node000026" class="edge">
<title>Node6&#45;&gt;Node26</title>
<g id="a_edge17_Node000006_Node000026"><a xlink:title=" ">
<path fill="none" stroke="#63b8ff" d="M1269.5,-172.69C1108.7,-166.98 594.98,-147.77 430.12,-129.75 429.29,-129.66 428.44,-129.56 427.59,-129.46"/>
<polygon fill="#63b8ff" stroke="#63b8ff" points="428.26,-126.02 417.88,-128.15 427.32,-132.96 428.26,-126.02"/>
</a>
</g>
</g>
<!-- Node27 -->
<g id="Node000027" class="node">
<title>Node27</title>
<g id="a_Node000027"><a xlink:href="_par_cable_types_8h.html" target="_top" xlink:title=" ">
<polygon fill="#fff0f0" stroke="red" points="410.62,-74.5 319.62,-74.5 319.62,-55.25 410.62,-55.25 410.62,-74.5"/>
<text text-anchor="middle" x="365.12" y="-61" font-family="Helvetica,sans-Serif" font-size="10.00">ParCableTypes.h</text>
</a>
</g>
</g>
<!-- Node6&#45;&gt;Node27 -->
<g id="edge30_Node000006_Node000027" class="edge">
<title>Node6&#45;&gt;Node27</title>
<g id="a_edge30_Node000006_Node000027"><a xlink:title=" ">
<path fill="none" stroke="#63b8ff" d="M1269.51,-173.08C1073.3,-167.73 349.48,-146.86 333.12,-129.75 320.21,-116.24 333.59,-96.49 346.79,-82.54"/>
<polygon fill="#63b8ff" stroke="#63b8ff" points="348.99,-85.28 353.66,-75.77 344.08,-80.29 348.99,-85.28"/>
</a>
</g>
</g>
<!-- Node28 -->
<g id="Node000028" class="node">
<title>Node28</title>
<g id="a_Node000028"><a xlink:href="_emulator_types_8h.html" target="_top" xlink:title=" ">
<polygon fill="#fff0f0" stroke="red" points="247.88,-129.75 158.38,-129.75 158.38,-110.5 247.88,-110.5 247.88,-129.75"/>
<text text-anchor="middle" x="203.12" y="-116.25" font-family="Helvetica,sans-Serif" font-size="10.00">EmulatorTypes.h</text>
</a>
</g>
</g>
<!-- Node6&#45;&gt;Node28 -->
<g id="edge19_Node000006_Node000028" class="edge">
<title>Node6&#45;&gt;Node28</title>
<g id="a_edge19_Node000006_Node000028"><a xlink:title=" ">
<path fill="none" stroke="#63b8ff" d="M1269.63,-172.99C1089.88,-167.75 461.72,-148.51 262.12,-129.75 261.27,-129.67 260.42,-129.59 259.56,-129.5"/>
<polygon fill="#63b8ff" stroke="#63b8ff" points="260,-126.03 249.67,-128.37 259.21,-132.98 260,-126.03"/>
</a>
</g>
</g>
<!-- Node30 -->
<g id="Node000030" class="node">
<title>Node30</title>
<g id="a_Node000030"><a xlink:href="_error_types_8h.html" target="_top" xlink:title=" ">
<polygon fill="#fff0f0" stroke="red" points="1349.88,-19.25 1278.38,-19.25 1278.38,0 1349.88,0 1349.88,-19.25"/>
<text text-anchor="middle" x="1314.12" y="-5.75" font-family="Helvetica,sans-Serif" font-size="10.00">ErrorTypes.h</text>
</a>
</g>
</g>
<!-- Node6&#45;&gt;Node30 -->
<g id="edge20_Node000006_Node000030" class="edge">
<title>Node6&#45;&gt;Node30</title>
<g id="a_edge20_Node000006_Node000030"><a xlink:title=" ">
<path fill="none" stroke="#63b8ff" d="M1269.79,-172.99C1072.98,-167.28 341.55,-145.03 323.12,-129.75 297.25,-108.3 286.89,-79.54 310.12,-55.25 343.55,-20.31 1072.2,-12.42 1266.74,-10.93"/>
<polygon fill="#63b8ff" stroke="#63b8ff" points="1266.49,-14.43 1276.47,-10.86 1266.44,-7.43 1266.49,-14.43"/>
</a>
</g>
</g>
<!-- Node31 -->
<g id="Node000031" class="node">
<title>Node31</title>
<g id="a_Node000031"><a xlink:href="_expansion_port_types_8h.html" target="_top" xlink:title=" ">
<polygon fill="#fff0f0" stroke="red" points="586.25,-129.75 472,-129.75 472,-110.5 586.25,-110.5 586.25,-129.75"/>
<text text-anchor="middle" x="529.12" y="-116.25" font-family="Helvetica,sans-Serif" font-size="10.00">ExpansionPortTypes.h</text>
</a>
</g>
</g>
<!-- Node6&#45;&gt;Node31 -->
<g id="edge21_Node000006_Node000031" class="edge">
<title>Node6&#45;&gt;Node31</title>
<g id="a_edge21_Node000006_Node000031"><a xlink:title=" ">
<path fill="none" stroke="#63b8ff" d="M1269.81,-172.53C1155.11,-167.92 857.22,-154.5 597.84,-129.95"/>
<polygon fill="#63b8ff" stroke="#63b8ff" points="598.49,-126.49 588.2,-129.03 597.82,-133.46 598.49,-126.49"/>
</a>
</g>
</g>
<!-- Node32 -->
<g id="Node000032" class="node">
<title>Node32</title>
<g id="a_Node000032"><a xlink:href="_file_types_8h.html" target="_top" xlink:title=" ">
<polygon fill="#fff0f0" stroke="red" points="2609.25,-129.75 2543,-129.75 2543,-110.5 2609.25,-110.5 2609.25,-129.75"/>
<text text-anchor="middle" x="2576.12" y="-116.25" font-family="Helvetica,sans-Serif" font-size="10.00">FileTypes.h</text>
</a>
</g>
</g>
<!-- Node6&#45;&gt;Node32 -->
<g id="edge22_Node000006_Node000032" class="edge">
<title>Node6&#45;&gt;Node32</title>
<g id="a_edge22_Node000006_Node000032"><a xlink:title=" ">
<path fill="none" stroke="#63b8ff" d="M1366.43,-173.67C1559.88,-170.7 2279.84,-158.03 2531.47,-129.81"/>
<polygon fill="#63b8ff" stroke="#63b8ff" points="2531.7,-133.31 2541.23,-128.68 2530.9,-126.36 2531.7,-133.31"/>
</a>
</g>
</g>
<!-- Node33 -->
<g id="Node000033" class="node">
<title>Node33</title>
<g id="a_Node000033"><a xlink:href="_f_s_types_8h.html" target="_top" xlink:title=" ">
<polygon fill="#fff0f0" stroke="red" points="667.75,-129.75 604.5,-129.75 604.5,-110.5 667.75,-110.5 667.75,-129.75"/>
<text text-anchor="middle" x="636.12" y="-116.25" font-family="Helvetica,sans-Serif" font-size="10.00">FSTypes.h</text>
</a>
</g>
</g>
<!-- Node6&#45;&gt;Node33 -->
<g id="edge23_Node000006_Node000033" class="edge">
<title>Node6&#45;&gt;Node33</title>
<g id="a_edge23_Node000006_Node000033"><a xlink:title=" ">
<path fill="none" stroke="#63b8ff" d="M1269.64,-173.28C1164.1,-170.4 905.51,-160.7 678.94,-129.78"/>
<polygon fill="#63b8ff" stroke="#63b8ff" points="679.72,-126.36 669.33,-128.45 678.76,-133.29 679.72,-126.36"/>
</a>
</g>
</g>
<!-- Node34 -->
<g id="Node000034" class="node">
<title>Node34</title>
<g id="a_Node000034"><a xlink:href="_core_component_types_8h_source.html" target="_top" xlink:title=" ">
<polygon fill="#fff0f0" stroke="red" points="808,-129.75 686.25,-129.75 686.25,-110.5 808,-110.5 808,-129.75"/>
<text text-anchor="middle" x="747.12" y="-116.25" font-family="Helvetica,sans-Serif" font-size="10.00">CoreComponentTypes.h</text>
</a>
</g>
</g>
<!-- Node6&#45;&gt;Node34 -->
<g id="edge24_Node000006_Node000034" class="edge">
<title>Node6&#45;&gt;Node34</title>
<g id="a_edge24_Node000006_Node000034"><a xlink:title=" ">
<path fill="none" stroke="#63b8ff" d="M1269.71,-170.61C1182.16,-163.68 991.41,-148.04 819.49,-129.97"/>
<polygon fill="#63b8ff" stroke="#63b8ff" points="820.01,-126.5 809.7,-128.93 819.28,-133.46 820.01,-126.5"/>
</a>
</g>
</g>
<!-- Node35 -->
<g id="Node000035" class="node">
<title>Node35</title>
<g id="a_Node000035"><a xlink:href="_memory_types_8h.html" target="_top" xlink:title=" ">
<polygon fill="#fff0f0" stroke="red" points="912,-129.75 826.25,-129.75 826.25,-110.5 912,-110.5 912,-129.75"/>
<text text-anchor="middle" x="869.12" y="-116.25" font-family="Helvetica,sans-Serif" font-size="10.00">MemoryTypes.h</text>
</a>
</g>
</g>
<!-- Node6&#45;&gt;Node35 -->
<g id="edge26_Node000006_Node000035" class="edge">
<title>Node6&#45;&gt;Node35</title>
<g id="a_edge26_Node000006_Node000035"><a xlink:title=" ">
<path fill="none" stroke="#63b8ff" d="M1269.74,-169.76C1196.92,-162.64 1054.56,-148.01 923.27,-129.98"/>
<polygon fill="#63b8ff" stroke="#63b8ff" points="924.11,-126.56 913.73,-128.66 923.15,-133.5 924.11,-126.56"/>
</a>
</g>
</g>
<!-- Node36 -->
<g id="Node000036" class="node">
<title>Node36</title>
<g id="a_Node000036"><a xlink:href="_mouse_types_8h.html" target="_top" xlink:title=" ">
<polygon fill="#fff0f0" stroke="red" points="1010,-129.75 930.25,-129.75 930.25,-110.5 1010,-110.5 1010,-129.75"/>
<text text-anchor="middle" x="970.12" y="-116.25" font-family="Helvetica,sans-Serif" font-size="10.00">MouseTypes.h</text>
</a>
</g>
</g>
<!-- Node6&#45;&gt;Node36 -->
<g id="edge27_Node000006_Node000036" class="edge">
<title>Node6&#45;&gt;Node36</title>
<g id="a_edge27_Node000006_Node000036"><a xlink:title=" ">
<path fill="none" stroke="#63b8ff" d="M1269.64,-167.54C1212.71,-159.42 1115.11,-145.22 1021.58,-130.11"/>
<polygon fill="#63b8ff" stroke="#63b8ff" points="1022.41,-126.7 1011.98,-128.56 1021.29,-133.61 1022.41,-126.7"/>
</a>
</g>
</g>
<!-- Node37 -->
<g id="Node000037" class="node">
<title>Node37</title>
<g id="a_Node000037"><a xlink:href="_msg_queue_types_8h.html" target="_top" xlink:title=" ">
<polygon fill="#fff0f0" stroke="red" points="1126,-129.75 1028.25,-129.75 1028.25,-110.5 1126,-110.5 1126,-129.75"/>
<text text-anchor="middle" x="1077.12" y="-116.25" font-family="Helvetica,sans-Serif" font-size="10.00">MsgQueueTypes.h</text>
</a>
</g>
</g>
<!-- Node6&#45;&gt;Node37 -->
<g id="edge28_Node000006_Node000037" class="edge">
<title>Node6&#45;&gt;Node37</title>
<g id="a_edge28_Node000006_Node000037"><a xlink:title=" ">
<path fill="none" stroke="#63b8ff" d="M1276.97,-165.28C1236.16,-156.26 1173.49,-142.42 1129.22,-132.64"/>
<polygon fill="#63b8ff" stroke="#63b8ff" points="1130.11,-129.25 1119.59,-130.51 1128.6,-136.08 1130.11,-129.25"/>
</a>
</g>
</g>
<!-- Node38 -->
<g id="Node000038" class="node">
<title>Node38</title>
<g id="a_Node000038"><a xlink:href="_option_types_8h.html" target="_top" xlink:title=" ">
<polygon fill="#fff0f0" stroke="red" points="2406.62,-129.75 2327.62,-129.75 2327.62,-110.5 2406.62,-110.5 2406.62,-129.75"/>
<text text-anchor="middle" x="2367.12" y="-116.25" font-family="Helvetica,sans-Serif" font-size="10.00">OptionTypes.h</text>
</a>
</g>
</g>
<!-- Node6&#45;&gt;Node38 -->
<g id="edge29_Node000006_Node000038" class="edge">
<title>Node6&#45;&gt;Node38</title>
<g id="a_edge29_Node000006_Node000038"><a xlink:title=" ">
<path fill="none" stroke="#63b8ff" d="M1366.74,-174.5C1510.46,-174.37 1945.94,-170.5 2316.16,-129.93"/>
<polygon fill="#63b8ff" stroke="#63b8ff" points="2316.31,-133.44 2325.87,-128.86 2315.54,-126.48 2316.31,-133.44"/>
</a>
</g>
</g>
<!-- Node39 -->
<g id="Node000039" class="node">
<title>Node39</title>
<g id="a_Node000039"><a xlink:href="_power_supply_types_8h.html" target="_top" xlink:title=" ">
<polygon fill="#fff0f0" stroke="red" points="1252.25,-129.75 1144,-129.75 1144,-110.5 1252.25,-110.5 1252.25,-129.75"/>
<text text-anchor="middle" x="1198.12" y="-116.25" font-family="Helvetica,sans-Serif" font-size="10.00">PowerSupplyTypes.h</text>
</a>
</g>
</g>
<!-- Node6&#45;&gt;Node39 -->
<g id="edge31_Node000006_Node000039" class="edge">
<title>Node6&#45;&gt;Node39</title>
<g id="a_edge31_Node000006_Node000039"><a xlink:title=" ">
<path fill="none" stroke="#63b8ff" d="M1297.77,-165.34C1278.89,-156.97 1250.54,-144.38 1228.9,-134.78"/>
<polygon fill="#63b8ff" stroke="#63b8ff" points="1230.52,-131.67 1219.96,-130.82 1227.69,-138.07 1230.52,-131.67"/>
</a>
</g>
</g>
<!-- Node40 -->
<g id="Node000040" class="node">
<title>Node40</title>
<g id="a_Node000040"><a xlink:href="_retro_shell_types_8h.html" target="_top" xlink:title=" ">
<polygon fill="#fff0f0" stroke="red" points="1366.25,-129.75 1270,-129.75 1270,-110.5 1366.25,-110.5 1366.25,-129.75"/>
<text text-anchor="middle" x="1318.12" y="-116.25" font-family="Helvetica,sans-Serif" font-size="10.00">RetroShellTypes.h</text>
</a>
</g>
</g>
<!-- Node6&#45;&gt;Node40 -->
<g id="edge32_Node000006_Node000040" class="edge">
<title>Node6&#45;&gt;Node40</title>
<g id="a_edge32_Node000006_Node000040"><a xlink:title=" ">
<path fill="none" stroke="#63b8ff" d="M1318.12,-165.58C1318.12,-159.07 1318.12,-149.92 1318.12,-141.62"/>
<polygon fill="#63b8ff" stroke="#63b8ff" points="1321.63,-141.62 1318.13,-131.62 1314.63,-141.62 1321.63,-141.62"/>
</a>
</g>
</g>
<!-- Node41 -->
<g id="Node000041" class="node">
<title>Node41</title>
<g id="a_Node000041"><a xlink:href="_s_i_d_types_8h.html" target="_top" xlink:title=" ">
<polygon fill="#fff0f0" stroke="red" points="1452,-129.75 1384.25,-129.75 1384.25,-110.5 1452,-110.5 1452,-129.75"/>
<text text-anchor="middle" x="1418.12" y="-116.25" font-family="Helvetica,sans-Serif" font-size="10.00">SIDTypes.h</text>
</a>
</g>
</g>
<!-- Node6&#45;&gt;Node41 -->
<g id="edge33_Node000006_Node000041" class="edge">
<title>Node6&#45;&gt;Node41</title>
<g id="a_edge33_Node000006_Node000041"><a xlink:title=" ">
<path fill="none" stroke="#63b8ff" d="M1335.09,-165.34C1350.39,-157.19 1373.16,-145.07 1390.99,-135.58"/>
<polygon fill="#63b8ff" stroke="#63b8ff" points="1392.56,-138.7 1399.74,-130.91 1389.27,-132.52 1392.56,-138.7"/>
</a>
</g>
</g>
<!-- Node42 -->
<g id="Node000042" class="node">
<title>Node42</title>
<g id="a_Node000042"><a xlink:href="_v_i_c_i_i_types_8h.html" target="_top" xlink:title=" ">
<polygon fill="#fff0f0" stroke="red" points="1544,-129.75 1470.25,-129.75 1470.25,-110.5 1544,-110.5 1544,-129.75"/>
<text text-anchor="middle" x="1507.12" y="-116.25" font-family="Helvetica,sans-Serif" font-size="10.00">VICIITypes.h</text>
</a>
</g>
</g>
<!-- Node6&#45;&gt;Node42 -->
<g id="edge34_Node000006_Node000042" class="edge">
<title>Node6&#45;&gt;Node42</title>
<g id="a_edge34_Node000006_Node000042"><a xlink:title=" ">
<path fill="none" stroke="#63b8ff" d="M1350.19,-165.34C1381.55,-156.51 1429.51,-142.99 1464.16,-133.23"/>
<polygon fill="#63b8ff" stroke="#63b8ff" points="1464.77,-136.69 1473.45,-130.61 1462.88,-129.96 1464.77,-136.69"/>
</a>
</g>
</g>
<!-- Node46 -->
<g id="Node000046" class="node">
<title>Node46</title>
<g id="a_Node000046"><a xlink:href="_constants_8h.html" target="_top" xlink:title=" ">
<polygon fill="white" stroke="#666666" points="1631.75,-129.75 1562.5,-129.75 1562.5,-110.5 1631.75,-110.5 1631.75,-129.75"/>
<text text-anchor="middle" x="1597.12" y="-116.25" font-family="Helvetica,sans-Serif" font-size="10.00">Constants.h</text>
</a>
</g>
</g>
<!-- Node6&#45;&gt;Node46 -->
<g id="edge35_Node000006_Node000046" class="edge">
<title>Node6&#45;&gt;Node46</title>
<g id="a_edge35_Node000006_Node000046"><a xlink:title=" ">
<path fill="none" stroke="#63b8ff" d="M1366.3,-165.31C1411.4,-156.81 1480.98,-143.64 1550.85,-130.18"/>
<polygon fill="#63b8ff" stroke="#63b8ff" points="1551.42,-133.63 1560.58,-128.3 1550.1,-126.76 1551.42,-133.63"/>
</a>
</g>
</g>
<!-- Node18&#45;&gt;Node19 -->
<g id="edge10_Node000018_Node000019" class="edge">
<title>Node18&#45;&gt;Node19</title>
<g id="a_edge10_Node000018_Node000019"><a xlink:title=" ">
<path fill="none" stroke="#63b8ff" d="M2464.61,-110.09C2455.74,-102.47 2442.81,-91.37 2432.14,-82.2"/>
<polygon fill="#63b8ff" stroke="#63b8ff" points="2434.5,-79.62 2424.64,-75.76 2429.94,-84.93 2434.5,-79.62"/>
</a>
</g>
</g>
<!-- Node25&#45;&gt;Node24 -->
<g id="edge16_Node000025_Node000024" class="edge">
<title>Node25&#45;&gt;Node24</title>
<g id="a_edge16_Node000025_Node000024"><a xlink:title=" ">
<path fill="none" stroke="#63b8ff" d="M2248.19,-110.33C2242.51,-103.13 2234.29,-92.71 2227.23,-83.76"/>
<polygon fill="#63b8ff" stroke="#63b8ff" points="2230.09,-81.73 2221.15,-76.05 2224.59,-86.07 2230.09,-81.73"/>
</a>
</g>
</g>
<!-- Node26&#45;&gt;Node27 -->
<g id="edge18_Node000026_Node000027" class="edge">
<title>Node26&#45;&gt;Node27</title>
<g id="a_edge18_Node000026_Node000027"><a xlink:title=" ">
<path fill="none" stroke="#63b8ff" d="M376.81,-110.33C375.06,-103.67 372.58,-94.24 370.36,-85.78"/>
<polygon fill="#63b8ff" stroke="#63b8ff" points="373.8,-85.1 367.87,-76.32 367.03,-86.88 373.8,-85.1"/>
</a>
</g>
</g>
<!-- Node47&#45;&gt;Node28 -->
<g id="edge45_Node000047_Node000028" class="edge">
<title>Node47&#45;&gt;Node28</title>
<g id="a_edge45_Node000047_Node000028"><a xlink:title=" ">
<path fill="none" stroke="#63b8ff" d="M953.4,-225.33C852.41,-211.65 529.34,-167.74 262.12,-129.75 261.28,-129.63 260.43,-129.51 259.57,-129.39"/>
<polygon fill="#63b8ff" stroke="#63b8ff" points="260.11,-125.93 249.72,-127.97 259.12,-132.86 260.11,-125.93"/>
</a>
</g>
</g>
<!-- Node48 -->
<g id="Node000048" class="node">
<title>Node48</title>
<g id="a_Node000048"><a xlink:href="_c64_8h_source.html" target="_top" xlink:title=" ">
<polygon fill="#fff0f0" stroke="red" points="127.25,-185 85,-185 85,-165.75 127.25,-165.75 127.25,-185"/>
<text text-anchor="middle" x="106.12" y="-171.5" font-family="Helvetica,sans-Serif" font-size="10.00">C64.h</text>
</a>
</g>
</g>
<!-- Node47&#45;&gt;Node48 -->
<g id="edge37_Node000047_Node000048" class="edge">
<title>Node47&#45;&gt;Node48</title>
<g id="a_edge37_Node000047_Node000048"><a xlink:title=" ">
<path fill="none" stroke="#63b8ff" d="M953.58,-227.71C817.04,-219.44 277.6,-186.76 138.82,-178.36"/>
<polygon fill="#63b8ff" stroke="#63b8ff" points="139.43,-174.89 129.24,-177.78 139.01,-181.87 139.43,-174.89"/>
</a>
</g>
</g>
<!-- Node64 -->
<g id="Node000064" class="node">
<title>Node64</title>
<g id="a_Node000064"><a xlink:href="_thread_8h.html" target="_top" xlink:title=" ">
<polygon fill="#fff0f0" stroke="red" points="54.25,-129.75 0,-129.75 0,-110.5 54.25,-110.5 54.25,-129.75"/>
<text text-anchor="middle" x="27.12" y="-116.25" font-family="Helvetica,sans-Serif" font-size="10.00">Thread.h</text>
</a>
</g>
</g>
<!-- Node47&#45;&gt;Node64 -->
<g id="edge47_Node000047_Node000064" class="edge">
<title>Node47&#45;&gt;Node64</title>
<g id="a_edge47_Node000047_Node000064"><a xlink:title=" ">
<path fill="none" stroke="#63b8ff" d="M953.61,-229.64C802.38,-229.49 155.15,-226.42 76.12,-185 57.6,-175.29 43.98,-155.1 35.87,-140"/>
<polygon fill="#63b8ff" stroke="#63b8ff" points="39.22,-138.87 31.62,-131.49 32.96,-142 39.22,-138.87"/>
</a>
</g>
</g>
<!-- Node67 -->
<g id="Node000067" class="node">
<title>Node67</title>
<g id="a_Node000067"><a xlink:href="_defaults_8h_source.html" target="_top" xlink:title=" ">
<polygon fill="#fff0f0" stroke="red" points="2397.62,-185 2336.62,-185 2336.62,-165.75 2397.62,-165.75 2397.62,-185"/>
<text text-anchor="middle" x="2367.12" y="-171.5" font-family="Helvetica,sans-Serif" font-size="10.00">Defaults.h</text>
</a>
</g>
</g>
<!-- Node47&#45;&gt;Node67 -->
<g id="edge40_Node000047_Node000067" class="edge">
<title>Node47&#45;&gt;Node67</title>
<g id="a_edge40_Node000047_Node000067"><a xlink:title=" ">
<path fill="none" stroke="#63b8ff" d="M1016.59,-228.41C1198.67,-221.4 2116.57,-186.03 2324.99,-178"/>
<polygon fill="#63b8ff" stroke="#63b8ff" points="2324.94,-181.5 2334.8,-177.62 2324.67,-174.51 2324.94,-181.5"/>
</a>
</g>
</g>
<!-- Node200 -->
<g id="Node000200" class="node">
<title>Node200</title>
<g id="a_Node000200"><a xlink:href="_host_8h_source.html" target="_top" xlink:title=" ">
<polygon fill="#fff0f0" stroke="red" points="1007.75,-185 962.5,-185 962.5,-165.75 1007.75,-165.75 1007.75,-185"/>
<text text-anchor="middle" x="985.12" y="-171.5" font-family="Helvetica,sans-Serif" font-size="10.00">Host.h</text>
</a>
</g>
</g>
<!-- Node47&#45;&gt;Node200 -->
<g id="edge46_Node000047_Node000200" class="edge">
<title>Node47&#45;&gt;Node200</title>
<g id="a_edge46_Node000047_Node000200"><a xlink:title=" ">
<path fill="none" stroke="#63b8ff" d="M985.12,-220.83C985.12,-214.32 985.12,-205.17 985.12,-196.87"/>
<polygon fill="#63b8ff" stroke="#63b8ff" points="988.63,-196.87 985.13,-186.87 981.63,-196.87 988.63,-196.87"/>
</a>
</g>
</g>
<!-- Node93 -->
<g id="Node000093" class="node">
<title>Node93</title>
<g id="a_Node000093"><a xlink:href="_cmd_queue_8h.html" target="_top" xlink:title=" ">
<polygon fill="#fff0f0" stroke="red" points="2512,-185 2438.25,-185 2438.25,-165.75 2512,-165.75 2512,-185"/>
<text text-anchor="middle" x="2475.12" y="-171.5" font-family="Helvetica,sans-Serif" font-size="10.00">CmdQueue.h</text>
</a>
</g>
</g>
<!-- Node47&#45;&gt;Node93 -->
<g id="edge48_Node000047_Node000093" class="edge">
<title>Node47&#45;&gt;Node93</title>
<g id="a_edge48_Node000047_Node000093"><a xlink:title=" ">
<path fill="none" stroke="#63b8ff" d="M1016.71,-229.74C1169.96,-230.07 1851.26,-228.88 2407.12,-185 2413.51,-184.5 2420.21,-183.82 2426.82,-183.07"/>
<polygon fill="#63b8ff" stroke="#63b8ff" points="2426.77,-186.61 2436.28,-181.94 2425.93,-179.66 2426.77,-186.61"/>
</a>
</g>
</g>
<!-- Node48&#45;&gt;Node7 -->
<g id="edge38_Node000048_Node000007" class="edge">
<title>Node48&#45;&gt;Node7</title>
<g id="a_edge38_Node000048_Node000007"><a xlink:title=" ">
<path fill="none" stroke="#63b8ff" d="M106.12,-165.58C106.12,-159.07 106.12,-149.92 106.12,-141.62"/>
<polygon fill="#63b8ff" stroke="#63b8ff" points="109.63,-141.62 106.13,-131.62 102.63,-141.62 109.63,-141.62"/>
</a>
</g>
</g>
<!-- Node48&#45;&gt;Node64 -->
<g id="edge39_Node000048_Node000064" class="edge">
<title>Node48&#45;&gt;Node64</title>
<g id="a_edge39_Node000048_Node000064"><a xlink:title=" ">
<path fill="none" stroke="#63b8ff" d="M92.72,-165.34C81.03,-157.46 63.82,-145.86 49.96,-136.52"/>
<polygon fill="#63b8ff" stroke="#63b8ff" points="52.1,-133.74 41.85,-131.05 48.18,-139.54 52.1,-133.74"/>
</a>
</g>
</g>
<!-- Node67&#45;&gt;Node38 -->
<g id="edge44_Node000067_Node000038" class="edge">
<title>Node67&#45;&gt;Node38</title>
<g id="a_edge44_Node000067_Node000038"><a xlink:title=" ">
<path fill="none" stroke="#63b8ff" d="M2367.12,-165.58C2367.12,-159.07 2367.12,-149.92 2367.12,-141.62"/>
<polygon fill="#63b8ff" stroke="#63b8ff" points="2370.63,-141.62 2367.13,-131.62 2363.63,-141.62 2370.63,-141.62"/>
</a>
</g>
</g>
<!-- Node50 -->
<g id="Node000050" class="node">
<title>Node50</title>
<g id="a_Node000050"><a xlink:href="_core_object_8h_source.html" target="_top" xlink:title=" ">
<polygon fill="#fff0f0" stroke="red" points="2701,-129.75 2627.25,-129.75 2627.25,-110.5 2701,-110.5 2701,-129.75"/>
<text text-anchor="middle" x="2664.12" y="-116.25" font-family="Helvetica,sans-Serif" font-size="10.00">CoreObject.h</text>
</a>
</g>
</g>
<!-- Node67&#45;&gt;Node50 -->
<g id="edge41_Node000067_Node000050" class="edge">
<title>Node67&#45;&gt;Node50</title>
<g id="a_edge41_Node000067_Node000050"><a xlink:title=" ">
<path fill="none" stroke="#63b8ff" d="M2398.05,-168.97C2443.46,-161.02 2531.12,-145.59 2615.85,-130.15"/>
<polygon fill="#63b8ff" stroke="#63b8ff" points="2616.28,-133.63 2625.48,-128.39 2615.02,-126.75 2616.28,-133.63"/>
</a>
</g>
</g>
<!-- Node51 -->
<g id="Node000051" class="node">
<title>Node51</title>
<g id="a_Node000051"><a xlink:href="_error_8h.html" target="_top" xlink:title=" ">
<polygon fill="#fff0f0" stroke="red" points="2623.38,-74.5 2578.88,-74.5 2578.88,-55.25 2623.38,-55.25 2623.38,-74.5"/>
<text text-anchor="middle" x="2601.12" y="-61" font-family="Helvetica,sans-Serif" font-size="10.00">Error.h</text>
</a>
</g>
</g>
<!-- Node50&#45;&gt;Node51 -->
<g id="edge42_Node000050_Node000051" class="edge">
<title>Node50&#45;&gt;Node51</title>
<g id="a_edge42_Node000050_Node000051"><a xlink:title=" ">
<path fill="none" stroke="#63b8ff" d="M2653.44,-110.09C2644.42,-102.47 2631.29,-91.37 2620.44,-82.2"/>
<polygon fill="#63b8ff" stroke="#63b8ff" points="2622.71,-79.53 2612.81,-75.75 2618.19,-84.88 2622.71,-79.53"/>
</a>
</g>
</g>
<!-- Node51&#45;&gt;Node30 -->
<g id="edge43_Node000051_Node000030" class="edge">
<title>Node51&#45;&gt;Node30</title>
<g id="a_edge43_Node000051_Node000030"><a xlink:title=" ">
<path fill="none" stroke="#63b8ff" d="M2578.68,-62.27C2551.9,-60.39 2505.76,-57.28 2466.12,-55.25 2037.11,-33.24 1517.72,-16.77 1361.05,-12.02"/>
<polygon fill="#63b8ff" stroke="#63b8ff" points="1361.59,-8.53 1351.49,-11.73 1361.38,-15.53 1361.59,-8.53"/>
</a>
</g>
</g>
<!-- Node93&#45;&gt;Node18 -->
<g id="edge49_Node000093_Node000018" class="edge">
<title>Node93&#45;&gt;Node18</title>
<g id="a_edge49_Node000093_Node000018"><a xlink:title=" ">
<path fill="none" stroke="#63b8ff" d="M2475.12,-165.58C2475.12,-159.07 2475.12,-149.92 2475.12,-141.62"/>
<polygon fill="#63b8ff" stroke="#63b8ff" points="2478.63,-141.62 2475.13,-131.62 2471.63,-141.62 2478.63,-141.62"/>
</a>
</g>
</g>
<!-- Node93&#45;&gt;Node50 -->
<g id="edge50_Node000093_Node000050" class="edge">
<title>Node93&#45;&gt;Node50</title>
<g id="a_edge50_Node000093_Node000050"><a xlink:title=" ">
<path fill="none" stroke="#63b8ff" d="M2507.19,-165.34C2538.55,-156.51 2586.51,-142.99 2621.16,-133.23"/>
<polygon fill="#63b8ff" stroke="#63b8ff" points="2621.77,-136.69 2630.45,-130.61 2619.88,-129.96 2621.77,-136.69"/>
</a>
</g>
</g>
<!-- Node86 -->
<g id="Node000086" class="node">
<title>Node86</title>
<g id="a_Node000086"><a xlink:href="_any_file_8h_source.html" target="_top" xlink:title=" ">
<polygon fill="white" stroke="#666666" points="2701.75,-240.25 2644.5,-240.25 2644.5,-221 2701.75,-221 2701.75,-240.25"/>
<text text-anchor="middle" x="2673.12" y="-226.75" font-family="Helvetica,sans-Serif" font-size="10.00">AnyFile.h</text>
</a>
</g>
</g>
<!-- Node202&#45;&gt;Node86 -->
<g id="edge53_Node000202_Node000086" class="edge">
<title>Node202&#45;&gt;Node86</title>
<g id="a_edge53_Node000202_Node000086"><a xlink:title=" ">
<path fill="none" stroke="#63b8ff" d="M2086.26,-282.69C2180.96,-274.45 2516.78,-245.23 2633.11,-235.11"/>
<polygon fill="#63b8ff" stroke="#63b8ff" points="2633.13,-238.62 2642.79,-234.26 2632.52,-231.64 2633.13,-238.62"/>
</a>
</g>
</g>
<!-- Node86&#45;&gt;Node32 -->
<g id="edge55_Node000086_Node000032" class="edge">
<title>Node86&#45;&gt;Node32</title>
<g id="a_edge55_Node000086_Node000032"><a xlink:title=" ">
<path fill="none" stroke="#63b8ff" d="M2701.92,-226.18C2748.42,-219.47 2831.99,-202.02 2802.12,-165.75 2777.45,-135.78 2674.51,-137.52 2620.61,-129.88"/>
<polygon fill="#63b8ff" stroke="#63b8ff" points="2621.52,-126.48 2611.08,-128.28 2620.37,-133.38 2621.52,-126.48"/>
</a>
</g>
</g>
<!-- Node86&#45;&gt;Node50 -->
<g id="edge54_Node000086_Node000050" class="edge">
<title>Node86&#45;&gt;Node50</title>
<g id="a_edge54_Node000086_Node000050"><a xlink:title=" ">
<path fill="none" stroke="#63b8ff" d="M2671.11,-220.79C2669.16,-211.83 2666.34,-197.53 2665.12,-185 2663.73,-170.58 2663.5,-154.25 2663.61,-141.7"/>
<polygon fill="#63b8ff" stroke="#63b8ff" points="2667.1,-141.82 2663.78,-131.76 2660.1,-141.7 2667.1,-141.82"/>
</a>
</g>
</g>
<!-- Node87 -->
<g id="Node000087" class="node">
<title>Node87</title>
<g id="a_Node000087"><a xlink:href="_p_e_t_name_8h_source.html" target="_top" xlink:title=" ">
<polygon fill="#fff0f0" stroke="red" points="2618.12,-185 2548.12,-185 2548.12,-165.75 2618.12,-165.75 2618.12,-185"/>
<text text-anchor="middle" x="2583.12" y="-171.5" font-family="Helvetica,sans-Serif" font-size="10.00">PETName.h</text>
</a>
</g>
</g>
<!-- Node86&#45;&gt;Node87 -->
<g id="edge56_Node000086_Node000087" class="edge">
<title>Node86&#45;&gt;Node87</title>
<g id="a_edge56_Node000086_Node000087"><a xlink:title=" ">
<path fill="none" stroke="#63b8ff" d="M2657.86,-220.59C2644.28,-212.56 2624.17,-200.66 2608.23,-191.23"/>
<polygon fill="#63b8ff" stroke="#63b8ff" points="2610.16,-188.3 2599.77,-186.22 2606.59,-194.33 2610.16,-188.3"/>
</a>
</g>
</g>
<!-- Node75 -->
<g id="Node000075" class="node">
<title>Node75</title>
<g id="a_Node000075"><a xlink:title=" ">
<polygon fill="#e0e0e0" stroke="#999999" points="2725.75,-185 2674.5,-185 2674.5,-165.75 2725.75,-165.75 2725.75,-185"/>
<text text-anchor="middle" x="2700.12" y="-171.5" font-family="Helvetica,sans-Serif" font-size="10.00">sstream</text>
</a>
</g>
</g>
<!-- Node86&#45;&gt;Node75 -->
<g id="edge58_Node000086_Node000075" class="edge">
<title>Node86&#45;&gt;Node75</title>
<g id="a_edge58_Node000086_Node000075"><a xlink:title=" ">
<path fill="none" stroke="#63b8ff" d="M2677.58,-220.83C2681.08,-213.94 2686.07,-204.09 2690.47,-195.41"/>
<polygon fill="#63b8ff" stroke="#63b8ff" points="2693.48,-197.21 2694.89,-186.71 2687.24,-194.05 2693.48,-197.21"/>
</a>
</g>
</g>
<!-- Node73 -->
<g id="Node000073" class="node">
<title>Node73</title>
<g id="a_Node000073"><a xlink:title=" ">
<polygon fill="#e0e0e0" stroke="#999999" points="2792.62,-185 2743.62,-185 2743.62,-165.75 2792.62,-165.75 2792.62,-185"/>
<text text-anchor="middle" x="2768.12" y="-171.5" font-family="Helvetica,sans-Serif" font-size="10.00">fstream</text>
</a>
</g>
</g>
<!-- Node86&#45;&gt;Node73 -->
<g id="edge59_Node000086_Node000073" class="edge">
<title>Node86&#45;&gt;Node73</title>
<g id="a_edge59_Node000086_Node000073"><a xlink:title=" ">
<path fill="none" stroke="#63b8ff" d="M2689.24,-220.59C2703.71,-212.48 2725.2,-200.43 2742.11,-190.96"/>
<polygon fill="#63b8ff" stroke="#63b8ff" points="2743.6,-194.14 2750.61,-186.19 2740.18,-188.03 2743.6,-194.14"/>
</a>
</g>
</g>
<!-- Node87&#45;&gt;Node50 -->
<g id="edge57_Node000087_Node000050" class="edge">
<title>Node87&#45;&gt;Node50</title>
<g id="a_edge57_Node000087_Node000050"><a xlink:title=" ">
<path fill="none" stroke="#63b8ff" d="M2596.87,-165.34C2608.85,-157.46 2626.5,-145.86 2640.71,-136.52"/>
<polygon fill="#63b8ff" stroke="#63b8ff" points="2642.62,-139.45 2649.05,-131.03 2638.77,-133.6 2642.62,-139.45"/>
</a>
</g>
</g>
</g>
</svg>
