<?xml version="1.0" encoding="UTF-8" standalone="no"?>
<!DOCTYPE svg PUBLIC "-//W3C//DTD SVG 1.1//EN"
 "http://www.w3.org/Graphics/SVG/1.1/DTD/svg11.dtd">
<!-- Generated by graphviz version 10.0.1 (20240210.2158)
 -->
<!-- Title: /Users/hoff/Retro/virtualc64/Emulator/Base/Host.h Pages: 1 -->
<svg width="1284pt" height="591pt"
 viewBox="0.00 0.00 1284.25 591.00" xmlns="http://www.w3.org/2000/svg" xmlns:xlink="http://www.w3.org/1999/xlink">
<g id="graph0" class="graph" transform="scale(1 1) rotate(0) translate(4 587)">
<title>/Users/hoff/Retro/virtualc64/Emulator/Base/Host.h</title>
<!-- Node1 -->
<g id="Node000001" class="node">
<title>Node1</title>
<g id="a_Node000001"><a xlink:title=" ">
<polygon fill="#999999" stroke="#666666" points="937.62,-583 800.88,-583 800.88,-552.5 937.62,-552.5 937.62,-583"/>
<text text-anchor="start" x="808.88" y="-569.5" font-family="Helvetica,sans-Serif" font-size="10.00">/Users/hoff/Retro/virtualc64</text>
<text text-anchor="middle" x="869.25" y="-558.25" font-family="Helvetica,sans-Serif" font-size="10.00">/Emulator/Base/Host.h</text>
</a>
</g>
</g>
<!-- Node2 -->
<g id="Node000002" class="node">
<title>Node2</title>
<g id="a_Node000002"><a xlink:href="_core_component_8h.html" target="_top" xlink:title=" ">
<polygon fill="white" stroke="#666666" points="484,-516.5 388.5,-516.5 388.5,-497.25 484,-497.25 484,-516.5"/>
<text text-anchor="middle" x="436.25" y="-503" font-family="Helvetica,sans-Serif" font-size="10.00">CoreComponent.h</text>
</a>
</g>
</g>
<!-- Node1&#45;&gt;Node2 -->
<g id="edge1_Node000001_Node000002" class="edge">
<title>Node1&#45;&gt;Node2</title>
<g id="a_edge1_Node000001_Node000002"><a xlink:title=" ">
<path fill="none" stroke="#63b8ff" d="M800.64,-557.42C716.54,-545.99 575.42,-526.8 495.73,-515.96"/>
<polygon fill="#63b8ff" stroke="#63b8ff" points="496.31,-512.51 485.93,-514.63 495.37,-519.45 496.31,-512.51"/>
</a>
</g>
</g>
<!-- Node29 -->
<g id="Node000029" class="node">
<title>Node29</title>
<g id="a_Node000029"><a xlink:href="_i_o_utils_8h.html" target="_top" xlink:title=" ">
<polygon fill="white" stroke="#666666" points="974.75,-350.75 919.75,-350.75 919.75,-331.5 974.75,-331.5 974.75,-350.75"/>
<text text-anchor="middle" x="947.25" y="-337.25" font-family="Helvetica,sans-Serif" font-size="10.00">IOUtils.h</text>
</a>
</g>
</g>
<!-- Node1&#45;&gt;Node29 -->
<g id="edge59_Node000001_Node000029" class="edge">
<title>Node1&#45;&gt;Node29</title>
<g id="a_edge59_Node000001_Node000029"><a xlink:title=" ">
<path fill="none" stroke="#63b8ff" d="M874.37,-552.01C888,-512.76 925.19,-405.66 940.51,-361.53"/>
<polygon fill="#63b8ff" stroke="#63b8ff" points="943.75,-362.89 943.72,-352.29 937.13,-360.59 943.75,-362.89"/>
</a>
</g>
</g>
<!-- Node3 -->
<g id="Node000003" class="node">
<title>Node3</title>
<g id="a_Node000003"><a xlink:href="_emulator_types_8h.html" target="_top" xlink:title=" ">
<polygon fill="white" stroke="#666666" points="156,-295.5 66.5,-295.5 66.5,-276.25 156,-276.25 156,-295.5"/>
<text text-anchor="middle" x="111.25" y="-282" font-family="Helvetica,sans-Serif" font-size="10.00">EmulatorTypes.h</text>
</a>
</g>
</g>
<!-- Node2&#45;&gt;Node3 -->
<g id="edge2_Node000002_Node000003" class="edge">
<title>Node2&#45;&gt;Node3</title>
<g id="a_edge2_Node000002_Node000003"><a xlink:title=" ">
<path fill="none" stroke="#63b8ff" d="M388.09,-504.02C318.84,-500.38 195.88,-489.96 163.25,-461.25 117.85,-421.31 111.27,-343.6 110.84,-306.94"/>
<polygon fill="#63b8ff" stroke="#63b8ff" points="114.34,-307.34 110.88,-297.32 107.34,-307.31 114.34,-307.34"/>
</a>
</g>
</g>
<!-- Node11 -->
<g id="Node000011" class="node">
<title>Node11</title>
<g id="a_Node000011"><a xlink:href="_thread_types_8h.html" target="_top" xlink:title=" ">
<polygon fill="white" stroke="#666666" points="80.5,-240.25 0,-240.25 0,-221 80.5,-221 80.5,-240.25"/>
<text text-anchor="middle" x="40.25" y="-226.75" font-family="Helvetica,sans-Serif" font-size="10.00">ThreadTypes.h</text>
</a>
</g>
</g>
<!-- Node2&#45;&gt;Node11 -->
<g id="edge57_Node000002_Node000011" class="edge">
<title>Node2&#45;&gt;Node11</title>
<g id="a_edge57_Node000002_Node000011"><a xlink:title=" ">
<path fill="none" stroke="#63b8ff" d="M388.24,-502.91C282.39,-495.06 38.25,-469.17 38.25,-397.38 38.25,-397.38 38.25,-397.38 38.25,-340.12 38.25,-309.4 39.06,-273.79 39.65,-251.99"/>
<polygon fill="#63b8ff" stroke="#63b8ff" points="43.15,-252.23 39.93,-242.14 36.15,-252.04 43.15,-252.23"/>
</a>
</g>
</g>
<!-- Node12 -->
<g id="Node000012" class="node">
<title>Node12</title>
<g id="a_Node000012"><a xlink:href="_core_object_8h.html" target="_top" xlink:title=" ">
<polygon fill="white" stroke="#666666" points="444.12,-350.75 370.38,-350.75 370.38,-331.5 444.12,-331.5 444.12,-350.75"/>
<text text-anchor="middle" x="407.25" y="-337.25" font-family="Helvetica,sans-Serif" font-size="10.00">CoreObject.h</text>
</a>
</g>
</g>
<!-- Node2&#45;&gt;Node12 -->
<g id="edge13_Node000002_Node000012" class="edge">
<title>Node2&#45;&gt;Node12</title>
<g id="a_edge13_Node000002_Node000012"><a xlink:title=" ">
<path fill="none" stroke="#63b8ff" d="M430.66,-496.96C420.4,-480.03 398.92,-441.7 391.25,-406 388.01,-390.94 392.62,-374.04 397.7,-361.4"/>
<polygon fill="#63b8ff" stroke="#63b8ff" points="400.77,-363.11 401.68,-352.56 394.39,-360.24 400.77,-363.11"/>
</a>
</g>
</g>
<!-- Node19 -->
<g id="Node000019" class="node">
<title>Node19</title>
<g id="a_Node000019"><a xlink:href="_synchronizable_8h.html" target="_top" xlink:title=" ">
<polygon fill="white" stroke="#666666" points="631.75,-406 540.75,-406 540.75,-386.75 631.75,-386.75 631.75,-406"/>
<text text-anchor="middle" x="586.25" y="-392.5" font-family="Helvetica,sans-Serif" font-size="10.00">Synchronizable.h</text>
</a>
</g>
</g>
<!-- Node2&#45;&gt;Node19 -->
<g id="edge23_Node000002_Node000019" class="edge">
<title>Node2&#45;&gt;Node19</title>
<g id="a_edge23_Node000002_Node000019"><a xlink:title=" ">
<path fill="none" stroke="#63b8ff" d="M456.59,-496.83C473.97,-488.67 499.25,-475.75 519.25,-461.25 538.46,-447.32 557.8,-428.21 570.73,-414.53"/>
<polygon fill="#63b8ff" stroke="#63b8ff" points="572.97,-417.25 577.2,-407.54 567.84,-412.5 572.97,-417.25"/>
</a>
</g>
</g>
<!-- Node20 -->
<g id="Node000020" class="node">
<title>Node20</title>
<g id="a_Node000020"><a xlink:href="_concurrency_8h.html" target="_top" xlink:title=" ">
<polygon fill="white" stroke="#666666" points="605.38,-350.75 527.12,-350.75 527.12,-331.5 605.38,-331.5 605.38,-350.75"/>
<text text-anchor="middle" x="566.25" y="-337.25" font-family="Helvetica,sans-Serif" font-size="10.00">Concurrency.h</text>
</a>
</g>
</g>
<!-- Node2&#45;&gt;Node20 -->
<g id="edge54_Node000002_Node000020" class="edge">
<title>Node2&#45;&gt;Node20</title>
<g id="a_edge54_Node000002_Node000020"><a xlink:title=" ">
<path fill="none" stroke="#63b8ff" d="M484.46,-498.1C534.12,-487.18 608.72,-461.96 641.25,-406 653.73,-384.52 627.91,-366.85 603.22,-355.59"/>
<polygon fill="#63b8ff" stroke="#63b8ff" points="604.8,-352.45 594.22,-351.75 602.05,-358.89 604.8,-352.45"/>
</a>
</g>
</g>
<!-- Node25 -->
<g id="Node000025" class="node">
<title>Node25</title>
<g id="a_Node000025"><a xlink:href="_serializable_8h.html" target="_top" xlink:title=" ">
<polygon fill="white" stroke="#666666" points="246.5,-461.25 172,-461.25 172,-442 246.5,-442 246.5,-461.25"/>
<text text-anchor="middle" x="209.25" y="-447.75" font-family="Helvetica,sans-Serif" font-size="10.00">Serializable.h</text>
</a>
</g>
</g>
<!-- Node2&#45;&gt;Node25 -->
<g id="edge30_Node000002_Node000025" class="edge">
<title>Node2&#45;&gt;Node25</title>
<g id="a_edge30_Node000002_Node000025"><a xlink:title=" ">
<path fill="none" stroke="#63b8ff" d="M397.49,-496.78C358.86,-487.72 299.45,-473.78 257.72,-464"/>
<polygon fill="#63b8ff" stroke="#63b8ff" points="258.73,-460.64 248.2,-461.76 257.13,-467.45 258.73,-460.64"/>
</a>
</g>
</g>
<!-- Node26 -->
<g id="Node000026" class="node">
<title>Node26</title>
<g id="a_Node000026"><a xlink:href="_configurable_8h.html" target="_top" xlink:title=" ">
<polygon fill="white" stroke="#666666" points="343.75,-461.25 264.75,-461.25 264.75,-442 343.75,-442 343.75,-461.25"/>
<text text-anchor="middle" x="304.25" y="-447.75" font-family="Helvetica,sans-Serif" font-size="10.00">Configurable.h</text>
</a>
</g>
</g>
<!-- Node2&#45;&gt;Node26 -->
<g id="edge31_Node000002_Node000026" class="edge">
<title>Node2&#45;&gt;Node26</title>
<g id="a_edge31_Node000002_Node000026"><a xlink:title=" ">
<path fill="none" stroke="#63b8ff" d="M413.86,-496.84C392.81,-488.35 361.05,-475.54 337.13,-465.89"/>
<polygon fill="#63b8ff" stroke="#63b8ff" points="338.74,-462.76 328.16,-462.27 336.12,-469.26 338.74,-462.76"/>
</a>
</g>
</g>
<!-- Node31 -->
<g id="Node000031" class="node">
<title>Node31</title>
<g id="a_Node000031"><a xlink:title=" ">
<polygon fill="#e0e0e0" stroke="#999999" points="1259.75,-240.25 1216.75,-240.25 1216.75,-221 1259.75,-221 1259.75,-240.25"/>
<text text-anchor="middle" x="1238.25" y="-226.75" font-family="Helvetica,sans-Serif" font-size="10.00">vector</text>
</a>
</g>
</g>
<!-- Node2&#45;&gt;Node31 -->
<g id="edge58_Node000002_Node000031" class="edge">
<title>Node2&#45;&gt;Node31</title>
<g id="a_edge58_Node000002_Node000031"><a xlink:title=" ">
<path fill="none" stroke="#63b8ff" d="M484.43,-504.76C662.92,-500 1276.25,-477.79 1276.25,-397.38 1276.25,-397.38 1276.25,-397.38 1276.25,-340.12 1276.25,-307.13 1260.41,-271.51 1249.18,-250.41"/>
<polygon fill="#63b8ff" stroke="#63b8ff" points="1252.35,-248.9 1244.43,-241.86 1246.23,-252.3 1252.35,-248.9"/>
</a>
</g>
</g>
<!-- Node39 -->
<g id="Node000039" class="node">
<title>Node39</title>
<g id="a_Node000039"><a xlink:href="_suspendable_8h.html" target="_top" xlink:title=" ">
<polygon fill="white" stroke="#666666" points="510.5,-461.25 430,-461.25 430,-442 510.5,-442 510.5,-461.25"/>
<text text-anchor="middle" x="470.25" y="-447.75" font-family="Helvetica,sans-Serif" font-size="10.00">Suspendable.h</text>
</a>
</g>
</g>
<!-- Node2&#45;&gt;Node39 -->
<g id="edge55_Node000002_Node000039" class="edge">
<title>Node2&#45;&gt;Node39</title>
<g id="a_edge55_Node000002_Node000039"><a xlink:title=" ">
<path fill="none" stroke="#63b8ff" d="M441.86,-497.08C446.37,-490.03 452.84,-479.9 458.46,-471.08"/>
<polygon fill="#63b8ff" stroke="#63b8ff" points="461.27,-473.2 463.7,-462.88 455.37,-469.43 461.27,-473.2"/>
</a>
</g>
</g>
<!-- Node4 -->
<g id="Node000004" class="node">
<title>Node4</title>
<g id="a_Node000004"><a xlink:href="_aliases_8h.html" target="_top" xlink:title=" ">
<polygon fill="white" stroke="#666666" points="188.5,-185 132,-185 132,-165.75 188.5,-165.75 188.5,-185"/>
<text text-anchor="middle" x="160.25" y="-171.5" font-family="Helvetica,sans-Serif" font-size="10.00">Aliases.h</text>
</a>
</g>
</g>
<!-- Node3&#45;&gt;Node4 -->
<g id="edge3_Node000003_Node000004" class="edge">
<title>Node3&#45;&gt;Node4</title>
<g id="a_edge3_Node000003_Node000004"><a xlink:title=" ">
<path fill="none" stroke="#63b8ff" d="M113.45,-275.94C116.72,-263.34 123.42,-239.81 132.25,-221 136.52,-211.9 142.28,-202.4 147.47,-194.51"/>
<polygon fill="#63b8ff" stroke="#63b8ff" points="150.19,-196.72 152.93,-186.49 144.41,-192.78 150.19,-196.72"/>
</a>
</g>
</g>
<!-- Node10 -->
<g id="Node000010" class="node">
<title>Node10</title>
<g id="a_Node000010"><a xlink:href="_reflection_8h.html" target="_top" xlink:title=" ">
<polygon fill="white" stroke="#666666" points="275.5,-185 207,-185 207,-165.75 275.5,-165.75 275.5,-185"/>
<text text-anchor="middle" x="241.25" y="-171.5" font-family="Helvetica,sans-Serif" font-size="10.00">Reflection.h</text>
</a>
</g>
</g>
<!-- Node3&#45;&gt;Node10 -->
<g id="edge9_Node000003_Node000010" class="edge">
<title>Node3&#45;&gt;Node10</title>
<g id="a_edge9_Node000003_Node000010"><a xlink:title=" ">
<path fill="none" stroke="#63b8ff" d="M121.89,-276C143.79,-257.72 194.19,-215.65 221.98,-192.46"/>
<polygon fill="#63b8ff" stroke="#63b8ff" points="223.87,-195.44 229.3,-186.35 219.38,-190.07 223.87,-195.44"/>
</a>
</g>
</g>
<!-- Node3&#45;&gt;Node11 -->
<g id="edge10_Node000003_Node000011" class="edge">
<title>Node3&#45;&gt;Node11</title>
<g id="a_edge10_Node000003_Node000011"><a xlink:title=" ">
<path fill="none" stroke="#63b8ff" d="M99.21,-275.84C88.84,-268.07 73.65,-256.67 61.28,-247.4"/>
<polygon fill="#63b8ff" stroke="#63b8ff" points="63.43,-244.63 53.33,-241.43 59.23,-250.23 63.43,-244.63"/>
</a>
</g>
</g>
<!-- Node5 -->
<g id="Node000005" class="node">
<title>Node5</title>
<g id="a_Node000005"><a xlink:href="_macros_8h.html" target="_top" xlink:title=" ">
<polygon fill="white" stroke="#666666" points="296.5,-129.75 240,-129.75 240,-110.5 296.5,-110.5 296.5,-129.75"/>
<text text-anchor="middle" x="268.25" y="-116.25" font-family="Helvetica,sans-Serif" font-size="10.00">Macros.h</text>
</a>
</g>
</g>
<!-- Node4&#45;&gt;Node5 -->
<g id="edge4_Node000004_Node000005" class="edge">
<title>Node4&#45;&gt;Node5</title>
<g id="a_edge4_Node000004_Node000005"><a xlink:title=" ">
<path fill="none" stroke="#63b8ff" d="M178.57,-165.34C195.33,-157.08 220.38,-144.73 239.75,-135.18"/>
<polygon fill="#63b8ff" stroke="#63b8ff" points="241.06,-138.43 248.48,-130.87 237.97,-132.15 241.06,-138.43"/>
</a>
</g>
</g>
<!-- Node6 -->
<g id="Node000006" class="node">
<title>Node6</title>
<g id="a_Node000006"><a xlink:href="_types_8h.html" target="_top" xlink:title=" ">
<polygon fill="white" stroke="#666666" points="557.5,-74.5 507,-74.5 507,-55.25 557.5,-55.25 557.5,-74.5"/>
<text text-anchor="middle" x="532.25" y="-61" font-family="Helvetica,sans-Serif" font-size="10.00">Types.h</text>
</a>
</g>
</g>
<!-- Node5&#45;&gt;Node6 -->
<g id="edge5_Node000005_Node000006" class="edge">
<title>Node5&#45;&gt;Node6</title>
<g id="a_edge5_Node000005_Node000006"><a xlink:title=" ">
<path fill="none" stroke="#63b8ff" d="M296.75,-113.38C344.95,-103.65 442.47,-83.98 495.65,-73.26"/>
<polygon fill="#63b8ff" stroke="#63b8ff" points="496.01,-76.76 505.12,-71.35 494.63,-69.89 496.01,-76.76"/>
</a>
</g>
</g>
<!-- Node7 -->
<g id="Node000007" class="node">
<title>Node7</title>
<g id="a_Node000007"><a xlink:title=" ">
<polygon fill="#e0e0e0" stroke="#999999" points="489.75,-19.25 422.75,-19.25 422.75,0 489.75,0 489.75,-19.25"/>
<text text-anchor="middle" x="456.25" y="-5.75" font-family="Helvetica,sans-Serif" font-size="10.00">sys/types.h</text>
</a>
</g>
</g>
<!-- Node6&#45;&gt;Node7 -->
<g id="edge6_Node000006_Node000007" class="edge">
<title>Node6&#45;&gt;Node7</title>
<g id="a_edge6_Node000006_Node000007"><a xlink:title=" ">
<path fill="none" stroke="#63b8ff" d="M519.36,-54.84C508.22,-47.04 491.88,-35.59 478.61,-26.29"/>
<polygon fill="#63b8ff" stroke="#63b8ff" points="480.64,-23.44 470.45,-20.57 476.63,-29.18 480.64,-23.44"/>
</a>
</g>
</g>
<!-- Node8 -->
<g id="Node000008" class="node">
<title>Node8</title>
<g id="a_Node000008"><a xlink:title=" ">
<polygon fill="#e0e0e0" stroke="#999999" points="556.38,-19.25 508.12,-19.25 508.12,0 556.38,0 556.38,-19.25"/>
<text text-anchor="middle" x="532.25" y="-5.75" font-family="Helvetica,sans-Serif" font-size="10.00">stdint.h</text>
</a>
</g>
</g>
<!-- Node6&#45;&gt;Node8 -->
<g id="edge7_Node000006_Node000008" class="edge">
<title>Node6&#45;&gt;Node8</title>
<g id="a_edge7_Node000006_Node000008"><a xlink:title=" ">
<path fill="none" stroke="#63b8ff" d="M532.25,-55.08C532.25,-48.57 532.25,-39.42 532.25,-31.12"/>
<polygon fill="#63b8ff" stroke="#63b8ff" points="535.75,-31.12 532.25,-21.12 528.75,-31.12 535.75,-31.12"/>
</a>
</g>
</g>
<!-- Node9 -->
<g id="Node000009" class="node">
<title>Node9</title>
<g id="a_Node000009"><a xlink:title=" ">
<polygon fill="#e0e0e0" stroke="#999999" points="630.12,-19.25 574.38,-19.25 574.38,0 630.12,0 630.12,-19.25"/>
<text text-anchor="middle" x="602.25" y="-5.75" font-family="Helvetica,sans-Serif" font-size="10.00">stdbool.h</text>
</a>
</g>
</g>
<!-- Node6&#45;&gt;Node9 -->
<g id="edge8_Node000006_Node000009" class="edge">
<title>Node6&#45;&gt;Node9</title>
<g id="a_edge8_Node000006_Node000009"><a xlink:title=" ">
<path fill="none" stroke="#63b8ff" d="M544.12,-54.84C554.34,-47.07 569.32,-35.67 581.51,-26.4"/>
<polygon fill="#63b8ff" stroke="#63b8ff" points="583.51,-29.28 589.35,-20.44 579.27,-23.71 583.51,-29.28"/>
</a>
</g>
</g>
<!-- Node11&#45;&gt;Node4 -->
<g id="edge11_Node000011_Node000004" class="edge">
<title>Node11&#45;&gt;Node4</title>
<g id="a_edge11_Node000011_Node000004"><a xlink:title=" ">
<path fill="none" stroke="#63b8ff" d="M60.61,-220.59C79.48,-212.22 107.84,-199.63 129.48,-190.03"/>
<polygon fill="#63b8ff" stroke="#63b8ff" points="130.69,-193.32 138.41,-186.07 127.85,-186.92 130.69,-193.32"/>
</a>
</g>
</g>
<!-- Node11&#45;&gt;Node10 -->
<g id="edge12_Node000011_Node000010" class="edge">
<title>Node11&#45;&gt;Node10</title>
<g id="a_edge12_Node000011_Node000010"><a xlink:title=" ">
<path fill="none" stroke="#63b8ff" d="M74.35,-220.59C107.84,-211.72 159.15,-198.12 196.04,-188.35"/>
<polygon fill="#63b8ff" stroke="#63b8ff" points="196.75,-191.78 205.52,-185.84 194.96,-185.02 196.75,-191.78"/>
</a>
</g>
</g>
<!-- Node13 -->
<g id="Node000013" class="node">
<title>Node13</title>
<g id="a_Node000013"><a xlink:href="_error_8h.html" target="_top" xlink:title=" ">
<polygon fill="white" stroke="#666666" points="339.5,-295.5 295,-295.5 295,-276.25 339.5,-276.25 339.5,-295.5"/>
<text text-anchor="middle" x="317.25" y="-282" font-family="Helvetica,sans-Serif" font-size="10.00">Error.h</text>
</a>
</g>
</g>
<!-- Node12&#45;&gt;Node13 -->
<g id="edge14_Node000012_Node000013" class="edge">
<title>Node12&#45;&gt;Node13</title>
<g id="a_edge14_Node000012_Node000013"><a xlink:title=" ">
<path fill="none" stroke="#63b8ff" d="M391.98,-331.09C378.41,-323.06 358.3,-311.16 342.35,-301.73"/>
<polygon fill="#63b8ff" stroke="#63b8ff" points="344.28,-298.8 333.89,-296.72 340.72,-304.83 344.28,-298.8"/>
</a>
</g>
</g>
<!-- Node17 -->
<g id="Node000017" class="node">
<title>Node17</title>
<g id="a_Node000017"><a xlink:href="_inspectable_8h.html" target="_top" xlink:title=" ">
<polygon fill="white" stroke="#666666" points="505.5,-295.5 431,-295.5 431,-276.25 505.5,-276.25 505.5,-295.5"/>
<text text-anchor="middle" x="468.25" y="-282" font-family="Helvetica,sans-Serif" font-size="10.00">Inspectable.h</text>
</a>
</g>
</g>
<!-- Node12&#45;&gt;Node17 -->
<g id="edge21_Node000012_Node000017" class="edge">
<title>Node12&#45;&gt;Node17</title>
<g id="a_edge21_Node000012_Node000017"><a xlink:title=" ">
<path fill="none" stroke="#63b8ff" d="M417.6,-331.09C426.33,-323.47 439.04,-312.37 449.55,-303.2"/>
<polygon fill="#63b8ff" stroke="#63b8ff" points="451.68,-305.98 456.91,-296.77 447.08,-300.71 451.68,-305.98"/>
</a>
</g>
</g>
<!-- Node14 -->
<g id="Node000014" class="node">
<title>Node14</title>
<g id="a_Node000014"><a xlink:href="_error_types_8h.html" target="_top" xlink:title=" ">
<polygon fill="white" stroke="#666666" points="360,-240.25 288.5,-240.25 288.5,-221 360,-221 360,-240.25"/>
<text text-anchor="middle" x="324.25" y="-226.75" font-family="Helvetica,sans-Serif" font-size="10.00">ErrorTypes.h</text>
</a>
</g>
</g>
<!-- Node13&#45;&gt;Node14 -->
<g id="edge15_Node000013_Node000014" class="edge">
<title>Node13&#45;&gt;Node14</title>
<g id="a_edge15_Node000013_Node000014"><a xlink:title=" ">
<path fill="none" stroke="#63b8ff" d="M318.41,-276.08C319.27,-269.49 320.49,-260.21 321.59,-251.82"/>
<polygon fill="#63b8ff" stroke="#63b8ff" points="325.04,-252.48 322.87,-242.11 318.1,-251.57 325.04,-252.48"/>
</a>
</g>
</g>
<!-- Node15 -->
<g id="Node000015" class="node">
<title>Node15</title>
<g id="a_Node000015"><a xlink:href="_exception_8h.html" target="_top" xlink:title=" ">
<polygon fill="white" stroke="#666666" points="446.12,-240.25 378.38,-240.25 378.38,-221 446.12,-221 446.12,-240.25"/>
<text text-anchor="middle" x="412.25" y="-226.75" font-family="Helvetica,sans-Serif" font-size="10.00">Exception.h</text>
</a>
</g>
</g>
<!-- Node13&#45;&gt;Node15 -->
<g id="edge18_Node000013_Node000015" class="edge">
<title>Node13&#45;&gt;Node15</title>
<g id="a_edge18_Node000013_Node000015"><a xlink:title=" ">
<path fill="none" stroke="#63b8ff" d="M333.37,-275.84C347.83,-267.73 369.33,-255.68 386.23,-246.21"/>
<polygon fill="#63b8ff" stroke="#63b8ff" points="387.72,-249.39 394.74,-241.44 384.3,-243.28 387.72,-249.39"/>
</a>
</g>
</g>
<!-- Node14&#45;&gt;Node4 -->
<g id="edge16_Node000014_Node000004" class="edge">
<title>Node14&#45;&gt;Node4</title>
<g id="a_edge16_Node000014_Node000004"><a xlink:title=" ">
<path fill="none" stroke="#63b8ff" d="M296.43,-220.59C269.69,-211.91 229.03,-198.71 199.1,-188.99"/>
<polygon fill="#63b8ff" stroke="#63b8ff" points="200.24,-185.68 189.65,-185.92 198.08,-192.34 200.24,-185.68"/>
</a>
</g>
</g>
<!-- Node14&#45;&gt;Node10 -->
<g id="edge17_Node000014_Node000010" class="edge">
<title>Node14&#45;&gt;Node10</title>
<g id="a_edge17_Node000014_Node000010"><a xlink:title=" ">
<path fill="none" stroke="#63b8ff" d="M310.17,-220.59C297.77,-212.64 279.46,-200.89 264.82,-191.5"/>
<polygon fill="#63b8ff" stroke="#63b8ff" points="266.98,-188.72 256.67,-186.27 263.2,-194.62 266.98,-188.72"/>
</a>
</g>
</g>
<!-- Node15&#45;&gt;Node6 -->
<g id="edge19_Node000015_Node000006" class="edge">
<title>Node15&#45;&gt;Node6</title>
<g id="a_edge19_Node000015_Node000006"><a xlink:title=" ">
<path fill="none" stroke="#63b8ff" d="M413.45,-220.8C415.5,-207.93 420.54,-183.61 431.25,-165.75 452.11,-130.96 487.86,-99.64 510.76,-81.7"/>
<polygon fill="#63b8ff" stroke="#63b8ff" points="512.68,-84.63 518.5,-75.77 508.43,-79.07 512.68,-84.63"/>
</a>
</g>
</g>
<!-- Node16 -->
<g id="Node000016" class="node">
<title>Node16</title>
<g id="a_Node000016"><a xlink:title=" ">
<polygon fill="#e0e0e0" stroke="#999999" points="498.25,-185 440.25,-185 440.25,-165.75 498.25,-165.75 498.25,-185"/>
<text text-anchor="middle" x="469.25" y="-171.5" font-family="Helvetica,sans-Serif" font-size="10.00">exception</text>
</a>
</g>
</g>
<!-- Node15&#45;&gt;Node16 -->
<g id="edge20_Node000015_Node000016" class="edge">
<title>Node15&#45;&gt;Node16</title>
<g id="a_edge20_Node000015_Node000016"><a xlink:title=" ">
<path fill="none" stroke="#63b8ff" d="M421.92,-220.59C429.99,-213.05 441.72,-202.1 451.47,-192.98"/>
<polygon fill="#63b8ff" stroke="#63b8ff" points="453.7,-195.69 458.62,-186.31 448.92,-190.58 453.7,-195.69"/>
</a>
</g>
</g>
<!-- Node18 -->
<g id="Node000018" class="node">
<title>Node18</title>
<g id="a_Node000018"><a xlink:title=" ">
<polygon fill="#e0e0e0" stroke="#999999" points="937,-240.25 883.5,-240.25 883.5,-221 937,-221 937,-240.25"/>
<text text-anchor="middle" x="910.25" y="-226.75" font-family="Helvetica,sans-Serif" font-size="10.00">iostream</text>
</a>
</g>
</g>
<!-- Node17&#45;&gt;Node18 -->
<g id="edge22_Node000017_Node000018" class="edge">
<title>Node17&#45;&gt;Node18</title>
<g id="a_edge22_Node000017_Node000018"><a xlink:title=" ">
<path fill="none" stroke="#63b8ff" d="M505.87,-277.59C508.7,-277.11 511.52,-276.66 514.25,-276.25 644.9,-256.67 800.97,-241.47 871.85,-235.01"/>
<polygon fill="#63b8ff" stroke="#63b8ff" points="872.12,-238.5 881.77,-234.11 871.49,-231.53 872.12,-238.5"/>
</a>
</g>
</g>
<!-- Node19&#45;&gt;Node20 -->
<g id="edge24_Node000019_Node000020" class="edge">
<title>Node19&#45;&gt;Node20</title>
<g id="a_edge24_Node000019_Node000020"><a xlink:title=" ">
<path fill="none" stroke="#63b8ff" d="M582.95,-386.58C580.42,-379.84 576.82,-370.27 573.62,-361.74"/>
<polygon fill="#63b8ff" stroke="#63b8ff" points="576.95,-360.66 570.16,-352.53 570.4,-363.12 576.95,-360.66"/>
</a>
</g>
</g>
<!-- Node21 -->
<g id="Node000021" class="node">
<title>Node21</title>
<g id="a_Node000021"><a xlink:href="_chrono_8h.html" target="_top" xlink:title=" ">
<polygon fill="white" stroke="#666666" points="413.12,-295.5 357.38,-295.5 357.38,-276.25 413.12,-276.25 413.12,-295.5"/>
<text text-anchor="middle" x="385.25" y="-282" font-family="Helvetica,sans-Serif" font-size="10.00">Chrono.h</text>
</a>
</g>
</g>
<!-- Node20&#45;&gt;Node21 -->
<g id="edge25_Node000020_Node000021" class="edge">
<title>Node20&#45;&gt;Node21</title>
<g id="a_edge25_Node000020_Node000021"><a xlink:title=" ">
<path fill="none" stroke="#63b8ff" d="M535.55,-331.09C504.83,-322.05 457.47,-308.12 424.14,-298.32"/>
<polygon fill="#63b8ff" stroke="#63b8ff" points="425.45,-295.05 414.87,-295.59 423.48,-301.77 425.45,-295.05"/>
</a>
</g>
</g>
<!-- Node23 -->
<g id="Node000023" class="node">
<title>Node23</title>
<g id="a_Node000023"><a xlink:title=" ">
<polygon fill="#e0e0e0" stroke="#999999" points="566.75,-295.5 523.75,-295.5 523.75,-276.25 566.75,-276.25 566.75,-295.5"/>
<text text-anchor="middle" x="545.25" y="-282" font-family="Helvetica,sans-Serif" font-size="10.00">thread</text>
</a>
</g>
</g>
<!-- Node20&#45;&gt;Node23 -->
<g id="edge28_Node000020_Node000023" class="edge">
<title>Node20&#45;&gt;Node23</title>
<g id="a_edge28_Node000020_Node000023"><a xlink:title=" ">
<path fill="none" stroke="#63b8ff" d="M562.78,-331.33C560.12,-324.59 556.35,-315.02 552.99,-306.49"/>
<polygon fill="#63b8ff" stroke="#63b8ff" points="556.27,-305.29 549.35,-297.27 549.76,-307.85 556.27,-305.29"/>
</a>
</g>
</g>
<!-- Node24 -->
<g id="Node000024" class="node">
<title>Node24</title>
<g id="a_Node000024"><a xlink:title=" ">
<polygon fill="#e0e0e0" stroke="#999999" points="625.62,-295.5 584.88,-295.5 584.88,-276.25 625.62,-276.25 625.62,-295.5"/>
<text text-anchor="middle" x="605.25" y="-282" font-family="Helvetica,sans-Serif" font-size="10.00">future</text>
</a>
</g>
</g>
<!-- Node20&#45;&gt;Node24 -->
<g id="edge29_Node000020_Node000024" class="edge">
<title>Node20&#45;&gt;Node24</title>
<g id="a_edge29_Node000020_Node000024"><a xlink:title=" ">
<path fill="none" stroke="#63b8ff" d="M572.69,-331.33C577.91,-324.21 585.44,-313.93 591.94,-305.05"/>
<polygon fill="#63b8ff" stroke="#63b8ff" points="594.69,-307.22 597.78,-297.08 589.04,-303.08 594.69,-307.22"/>
</a>
</g>
</g>
<!-- Node21&#45;&gt;Node6 -->
<g id="edge26_Node000021_Node000006" class="edge">
<title>Node21&#45;&gt;Node6</title>
<g id="a_edge26_Node000021_Node000006"><a xlink:title=" ">
<path fill="none" stroke="#63b8ff" d="M413.35,-276.81C449.05,-266.3 506.82,-248.33 513.25,-240.25 549.21,-195.04 542.31,-121.08 536.32,-85.81"/>
<polygon fill="#63b8ff" stroke="#63b8ff" points="539.8,-85.36 534.52,-76.17 532.92,-86.65 539.8,-85.36"/>
</a>
</g>
</g>
<!-- Node22 -->
<g id="Node000022" class="node">
<title>Node22</title>
<g id="a_Node000022"><a xlink:title=" ">
<polygon fill="#e0e0e0" stroke="#999999" points="504.25,-240.25 464.25,-240.25 464.25,-221 504.25,-221 504.25,-240.25"/>
<text text-anchor="middle" x="484.25" y="-226.75" font-family="Helvetica,sans-Serif" font-size="10.00">ctime</text>
</a>
</g>
</g>
<!-- Node21&#45;&gt;Node22 -->
<g id="edge27_Node000021_Node000022" class="edge">
<title>Node21&#45;&gt;Node22</title>
<g id="a_edge27_Node000021_Node000022"><a xlink:title=" ">
<path fill="none" stroke="#63b8ff" d="M402.04,-275.84C417.26,-267.66 439.95,-255.46 457.63,-245.94"/>
<polygon fill="#63b8ff" stroke="#63b8ff" points="458.89,-249.24 466.04,-241.42 455.58,-243.07 458.89,-249.24"/>
</a>
</g>
</g>
<!-- Node26&#45;&gt;Node10 -->
<g id="edge35_Node000026_Node000010" class="edge">
<title>Node26&#45;&gt;Node10</title>
<g id="a_edge35_Node000026_Node000010"><a xlink:title=" ">
<path fill="none" stroke="#63b8ff" d="M290.71,-441.65C267.42,-425.02 222.25,-386.99 222.25,-342.12 222.25,-342.12 222.25,-342.12 222.25,-284.88 222.25,-253.54 230.03,-217.87 235.64,-196.25"/>
<polygon fill="#63b8ff" stroke="#63b8ff" points="238.97,-197.31 238.21,-186.75 232.22,-195.48 238.97,-197.31"/>
</a>
</g>
</g>
<!-- Node27 -->
<g id="Node000027" class="node">
<title>Node27</title>
<g id="a_Node000027"><a xlink:href="_option_types_8h.html" target="_top" xlink:title=" ">
<polygon fill="white" stroke="#666666" points="329.75,-350.75 250.75,-350.75 250.75,-331.5 329.75,-331.5 329.75,-350.75"/>
<text text-anchor="middle" x="290.25" y="-337.25" font-family="Helvetica,sans-Serif" font-size="10.00">OptionTypes.h</text>
</a>
</g>
</g>
<!-- Node26&#45;&gt;Node27 -->
<g id="edge32_Node000026_Node000027" class="edge">
<title>Node26&#45;&gt;Node27</title>
<g id="a_edge32_Node000026_Node000027"><a xlink:title=" ">
<path fill="none" stroke="#63b8ff" d="M297.39,-441.65C291.27,-433.04 282.75,-419.4 279.25,-406 275.42,-391.31 278.68,-374.37 282.62,-361.63"/>
<polygon fill="#63b8ff" stroke="#63b8ff" points="285.87,-362.93 285.9,-352.33 279.27,-360.6 285.87,-362.93"/>
</a>
</g>
</g>
<!-- Node28 -->
<g id="Node000028" class="node">
<title>Node28</title>
<g id="a_Node000028"><a xlink:href="_defaults_8h.html" target="_top" xlink:title=" ">
<polygon fill="white" stroke="#666666" points="461.75,-406 400.75,-406 400.75,-386.75 461.75,-386.75 461.75,-406"/>
<text text-anchor="middle" x="431.25" y="-392.5" font-family="Helvetica,sans-Serif" font-size="10.00">Defaults.h</text>
</a>
</g>
</g>
<!-- Node26&#45;&gt;Node28 -->
<g id="edge36_Node000026_Node000028" class="edge">
<title>Node26&#45;&gt;Node28</title>
<g id="a_edge36_Node000026_Node000028"><a xlink:title=" ">
<path fill="none" stroke="#63b8ff" d="M325.79,-441.59C345.86,-433.18 376.05,-420.52 399,-410.9"/>
<polygon fill="#63b8ff" stroke="#63b8ff" points="400.34,-414.13 408.2,-407.04 397.63,-407.68 400.34,-414.13"/>
</a>
</g>
</g>
<!-- Node38 -->
<g id="Node000038" class="node">
<title>Node38</title>
<g id="a_Node000038"><a xlink:title=" ">
<polygon fill="#e0e0e0" stroke="#999999" points="344.12,-406 288.38,-406 288.38,-386.75 344.12,-386.75 344.12,-406"/>
<text text-anchor="middle" x="316.25" y="-392.5" font-family="Helvetica,sans-Serif" font-size="10.00">algorithm</text>
</a>
</g>
</g>
<!-- Node26&#45;&gt;Node38 -->
<g id="edge53_Node000026_Node000038" class="edge">
<title>Node26&#45;&gt;Node38</title>
<g id="a_edge53_Node000026_Node000038"><a xlink:title=" ">
<path fill="none" stroke="#63b8ff" d="M306.23,-441.83C307.72,-435.24 309.81,-425.96 311.7,-417.57"/>
<polygon fill="#63b8ff" stroke="#63b8ff" points="315.11,-418.36 313.89,-407.84 308.28,-416.82 315.11,-418.36"/>
</a>
</g>
</g>
<!-- Node27&#45;&gt;Node4 -->
<g id="edge33_Node000027_Node000004" class="edge">
<title>Node27&#45;&gt;Node4</title>
<g id="a_edge33_Node000027_Node000004"><a xlink:title=" ">
<path fill="none" stroke="#63b8ff" d="M283.26,-331.32C262.63,-305.33 201.71,-228.59 174.11,-193.84"/>
<polygon fill="#63b8ff" stroke="#63b8ff" points="177.17,-192.06 168.22,-186.41 171.69,-196.42 177.17,-192.06"/>
</a>
</g>
</g>
<!-- Node27&#45;&gt;Node10 -->
<g id="edge34_Node000027_Node000010" class="edge">
<title>Node27&#45;&gt;Node10</title>
<g id="a_edge34_Node000027_Node000010"><a xlink:title=" ">
<path fill="none" stroke="#63b8ff" d="M287.62,-331.32C280,-305.89 257.85,-231.85 247.16,-196.12"/>
<polygon fill="#63b8ff" stroke="#63b8ff" points="250.55,-195.25 244.33,-186.67 243.85,-197.26 250.55,-195.25"/>
</a>
</g>
</g>
<!-- Node28&#45;&gt;Node12 -->
<g id="edge37_Node000028_Node000012" class="edge">
<title>Node28&#45;&gt;Node12</title>
<g id="a_edge37_Node000028_Node000012"><a xlink:title=" ">
<path fill="none" stroke="#63b8ff" d="M427.29,-386.58C424.21,-379.76 419.84,-370.06 415.96,-361.45"/>
<polygon fill="#63b8ff" stroke="#63b8ff" points="419.22,-360.17 411.92,-352.49 412.84,-363.04 419.22,-360.17"/>
</a>
</g>
</g>
<!-- Node28&#45;&gt;Node20 -->
<g id="edge39_Node000028_Node000020" class="edge">
<title>Node28&#45;&gt;Node20</title>
<g id="a_edge39_Node000028_Node000020"><a xlink:title=" ">
<path fill="none" stroke="#63b8ff" d="M454.15,-386.34C475.68,-377.85 508.16,-365.04 532.63,-355.39"/>
<polygon fill="#63b8ff" stroke="#63b8ff" points="533.81,-358.68 541.83,-351.76 531.24,-352.17 533.81,-358.68"/>
</a>
</g>
</g>
<!-- Node28&#45;&gt;Node27 -->
<g id="edge38_Node000028_Node000027" class="edge">
<title>Node28&#45;&gt;Node27</title>
<g id="a_edge38_Node000028_Node000027"><a xlink:title=" ">
<path fill="none" stroke="#63b8ff" d="M407.33,-386.34C384.75,-377.81 350.61,-364.92 325.02,-355.26"/>
<polygon fill="#63b8ff" stroke="#63b8ff" points="326.29,-352 315.7,-351.74 323.82,-358.54 326.29,-352"/>
</a>
</g>
</g>
<!-- Node28&#45;&gt;Node29 -->
<g id="edge40_Node000028_Node000029" class="edge">
<title>Node28&#45;&gt;Node29</title>
<g id="a_edge40_Node000028_Node000029"><a xlink:title=" ">
<path fill="none" stroke="#63b8ff" d="M462.19,-388.32C465.24,-387.74 468.3,-387.2 471.25,-386.75 632.35,-361.92 826.39,-348.92 908.04,-344.22"/>
<polygon fill="#63b8ff" stroke="#63b8ff" points="908.18,-347.72 917.96,-343.66 907.78,-340.73 908.18,-347.72"/>
</a>
</g>
</g>
<!-- Node29&#45;&gt;Node6 -->
<g id="edge41_Node000029_Node000006" class="edge">
<title>Node29&#45;&gt;Node6</title>
<g id="a_edge41_Node000029_Node000006"><a xlink:title=" ">
<path fill="none" stroke="#63b8ff" d="M919.35,-339.21C857.15,-336.6 709.75,-327.16 673.25,-295.5 650.78,-276.01 653.25,-261.37 653.25,-231.62 653.25,-231.62 653.25,-231.62 653.25,-174.38 653.25,-127.64 602.59,-95.96 566.83,-79.41"/>
<polygon fill="#63b8ff" stroke="#63b8ff" points="568.68,-76.41 558.12,-75.57 565.86,-82.81 568.68,-76.41"/>
</a>
</g>
</g>
<!-- Node29&#45;&gt;Node18 -->
<g id="edge49_Node000029_Node000018" class="edge">
<title>Node29&#45;&gt;Node18</title>
<g id="a_edge49_Node000029_Node000018"><a xlink:title=" ">
<path fill="none" stroke="#63b8ff" d="M975.02,-338.09C1025.98,-333.3 1126.32,-318.35 1093.25,-276.25 1075.62,-253.8 996.91,-241.21 948.64,-235.48"/>
<polygon fill="#63b8ff" stroke="#63b8ff" points="949.21,-232.02 938.87,-234.37 948.42,-238.98 949.21,-232.02"/>
</a>
</g>
</g>
<!-- Node30 -->
<g id="Node000030" class="node">
<title>Node30</title>
<g id="a_Node000030"><a xlink:href="_string_utils_8h.html" target="_top" xlink:title=" ">
<polygon fill="white" stroke="#666666" points="1210.25,-295.5 1140.25,-295.5 1140.25,-276.25 1210.25,-276.25 1210.25,-295.5"/>
<text text-anchor="middle" x="1175.25" y="-282" font-family="Helvetica,sans-Serif" font-size="10.00">StringUtils.h</text>
</a>
</g>
</g>
<!-- Node29&#45;&gt;Node30 -->
<g id="edge42_Node000029_Node000030" class="edge">
<title>Node29&#45;&gt;Node30</title>
<g id="a_edge42_Node000029_Node000030"><a xlink:title=" ">
<path fill="none" stroke="#63b8ff" d="M975.21,-333.6C1013.47,-324.66 1082.63,-308.51 1128.76,-297.73"/>
<polygon fill="#63b8ff" stroke="#63b8ff" points="1129.54,-301.15 1138.48,-295.46 1127.95,-294.33 1129.54,-301.15"/>
</a>
</g>
</g>
<!-- Node29&#45;&gt;Node31 -->
<g id="edge52_Node000029_Node000031" class="edge">
<title>Node29&#45;&gt;Node31</title>
<g id="a_edge52_Node000029_Node000031"><a xlink:title=" ">
<path fill="none" stroke="#63b8ff" d="M974.98,-339.21C1036.79,-336.62 1183.25,-327.21 1219.25,-295.5 1231.61,-284.62 1236.1,-266.09 1237.65,-251.79"/>
<polygon fill="#63b8ff" stroke="#63b8ff" points="1241.12,-252.32 1238.28,-242.11 1234.13,-251.86 1241.12,-252.32"/>
</a>
</g>
</g>
<!-- Node32 -->
<g id="Node000032" class="node">
<title>Node32</title>
<g id="a_Node000032"><a xlink:title=" ">
<polygon fill="#e0e0e0" stroke="#999999" points="724.75,-295.5 681.75,-295.5 681.75,-276.25 724.75,-276.25 724.75,-295.5"/>
<text text-anchor="middle" x="703.25" y="-282" font-family="Helvetica,sans-Serif" font-size="10.00">fcntl.h</text>
</a>
</g>
</g>
<!-- Node29&#45;&gt;Node32 -->
<g id="edge45_Node000029_Node000032" class="edge">
<title>Node29&#45;&gt;Node32</title>
<g id="a_edge45_Node000029_Node000032"><a xlink:title=" ">
<path fill="none" stroke="#63b8ff" d="M919.55,-334.92C880.78,-327.5 807.9,-313.09 736.24,-295.85"/>
<polygon fill="#63b8ff" stroke="#63b8ff" points="737.23,-292.49 726.69,-293.53 735.58,-299.3 737.23,-292.49"/>
</a>
</g>
</g>
<!-- Node33 -->
<g id="Node000033" class="node">
<title>Node33</title>
<g id="a_Node000033"><a xlink:title=" ">
<polygon fill="#e0e0e0" stroke="#999999" points="803.75,-295.5 742.75,-295.5 742.75,-276.25 803.75,-276.25 803.75,-295.5"/>
<text text-anchor="middle" x="773.25" y="-282" font-family="Helvetica,sans-Serif" font-size="10.00">filesystem</text>
</a>
</g>
</g>
<!-- Node29&#45;&gt;Node33 -->
<g id="edge46_Node000029_Node000033" class="edge">
<title>Node29&#45;&gt;Node33</title>
<g id="a_edge46_Node000029_Node000033"><a xlink:title=" ">
<path fill="none" stroke="#63b8ff" d="M919.29,-331.57C890.76,-322.84 846.19,-309.2 813.79,-299.28"/>
<polygon fill="#63b8ff" stroke="#63b8ff" points="814.92,-295.97 804.33,-296.39 812.87,-302.66 814.92,-295.97"/>
</a>
</g>
</g>
<!-- Node34 -->
<g id="Node000034" class="node">
<title>Node34</title>
<g id="a_Node000034"><a xlink:title=" ">
<polygon fill="#e0e0e0" stroke="#999999" points="870.75,-295.5 821.75,-295.5 821.75,-276.25 870.75,-276.25 870.75,-295.5"/>
<text text-anchor="middle" x="846.25" y="-282" font-family="Helvetica,sans-Serif" font-size="10.00">fstream</text>
</a>
</g>
</g>
<!-- Node29&#45;&gt;Node34 -->
<g id="edge47_Node000029_Node000034" class="edge">
<title>Node29&#45;&gt;Node34</title>
<g id="a_edge47_Node000029_Node000034"><a xlink:title=" ">
<path fill="none" stroke="#63b8ff" d="M930.12,-331.09C914.59,-322.91 891.45,-310.71 873.41,-301.19"/>
<polygon fill="#63b8ff" stroke="#63b8ff" points="875.28,-298.23 864.81,-296.66 872.02,-304.42 875.28,-298.23"/>
</a>
</g>
</g>
<!-- Node35 -->
<g id="Node000035" class="node">
<title>Node35</title>
<g id="a_Node000035"><a xlink:title=" ">
<polygon fill="#e0e0e0" stroke="#999999" points="937.38,-295.5 889.12,-295.5 889.12,-276.25 937.38,-276.25 937.38,-295.5"/>
<text text-anchor="middle" x="913.25" y="-282" font-family="Helvetica,sans-Serif" font-size="10.00">istream</text>
</a>
</g>
</g>
<!-- Node29&#45;&gt;Node35 -->
<g id="edge48_Node000029_Node000035" class="edge">
<title>Node29&#45;&gt;Node35</title>
<g id="a_edge48_Node000029_Node000035"><a xlink:title=" ">
<path fill="none" stroke="#63b8ff" d="M941.64,-331.33C937.13,-324.28 930.66,-314.15 925.04,-305.33"/>
<polygon fill="#63b8ff" stroke="#63b8ff" points="928.13,-303.68 919.8,-297.13 922.23,-307.45 928.13,-303.68"/>
</a>
</g>
</g>
<!-- Node36 -->
<g id="Node000036" class="node">
<title>Node36</title>
<g id="a_Node000036"><a xlink:title=" ">
<polygon fill="#e0e0e0" stroke="#999999" points="1006.88,-295.5 955.62,-295.5 955.62,-276.25 1006.88,-276.25 1006.88,-295.5"/>
<text text-anchor="middle" x="981.25" y="-282" font-family="Helvetica,sans-Serif" font-size="10.00">sstream</text>
</a>
</g>
</g>
<!-- Node29&#45;&gt;Node36 -->
<g id="edge50_Node000029_Node000036" class="edge">
<title>Node29&#45;&gt;Node36</title>
<g id="a_edge50_Node000029_Node000036"><a xlink:title=" ">
<path fill="none" stroke="#63b8ff" d="M952.86,-331.33C957.37,-324.28 963.84,-314.15 969.46,-305.33"/>
<polygon fill="#63b8ff" stroke="#63b8ff" points="972.27,-307.45 974.7,-297.13 966.37,-303.68 972.27,-307.45"/>
</a>
</g>
</g>
<!-- Node37 -->
<g id="Node000037" class="node">
<title>Node37</title>
<g id="a_Node000037"><a xlink:title=" ">
<polygon fill="#e0e0e0" stroke="#999999" points="1084,-295.5 1024.5,-295.5 1024.5,-276.25 1084,-276.25 1084,-295.5"/>
<text text-anchor="middle" x="1054.25" y="-282" font-family="Helvetica,sans-Serif" font-size="10.00">sys/stat.h</text>
</a>
</g>
</g>
<!-- Node29&#45;&gt;Node37 -->
<g id="edge51_Node000029_Node000037" class="edge">
<title>Node29&#45;&gt;Node37</title>
<g id="a_edge51_Node000029_Node000037"><a xlink:title=" ">
<path fill="none" stroke="#63b8ff" d="M965.4,-331.09C981.93,-322.87 1006.59,-310.59 1025.75,-301.06"/>
<polygon fill="#63b8ff" stroke="#63b8ff" points="1027.26,-304.22 1034.65,-296.63 1024.14,-297.95 1027.26,-304.22"/>
</a>
</g>
</g>
<!-- Node30&#45;&gt;Node6 -->
<g id="edge43_Node000030_Node000006" class="edge">
<title>Node30&#45;&gt;Node6</title>
<g id="a_edge43_Node000030_Node000006"><a xlink:title=" ">
<path fill="none" stroke="#63b8ff" d="M1149.11,-275.79C1074.19,-249.75 852.16,-172.79 667.25,-110.5 633.84,-99.24 595.69,-86.66 568.49,-77.73"/>
<polygon fill="#63b8ff" stroke="#63b8ff" points="569.94,-74.52 559.35,-74.73 567.76,-81.17 569.94,-74.52"/>
</a>
</g>
</g>
<!-- Node30&#45;&gt;Node31 -->
<g id="edge44_Node000030_Node000031" class="edge">
<title>Node30&#45;&gt;Node31</title>
<g id="a_edge44_Node000030_Node000031"><a xlink:title=" ">
<path fill="none" stroke="#63b8ff" d="M1185.94,-275.84C1194.95,-268.22 1208.08,-257.12 1218.93,-247.95"/>
<polygon fill="#63b8ff" stroke="#63b8ff" points="1221.19,-250.63 1226.56,-241.5 1216.67,-245.28 1221.19,-250.63"/>
</a>
</g>
</g>
<!-- Node40 -->
<g id="Node000040" class="node">
<title>Node40</title>
<g id="a_Node000040"><a xlink:title=" ">
<polygon fill="#e0e0e0" stroke="#999999" points="522.38,-406 480.12,-406 480.12,-386.75 522.38,-386.75 522.38,-406"/>
<text text-anchor="middle" x="501.25" y="-392.5" font-family="Helvetica,sans-Serif" font-size="10.00">cstdio</text>
</a>
</g>
</g>
<!-- Node39&#45;&gt;Node40 -->
<g id="edge56_Node000039_Node000040" class="edge">
<title>Node39&#45;&gt;Node40</title>
<g id="a_edge56_Node000039_Node000040"><a xlink:title=" ">
<path fill="none" stroke="#63b8ff" d="M475.37,-441.83C479.43,-434.86 485.24,-424.87 490.34,-416.12"/>
<polygon fill="#63b8ff" stroke="#63b8ff" points="493.25,-418.07 495.26,-407.67 487.2,-414.55 493.25,-418.07"/>
</a>
</g>
</g>
</g>
</svg>
