<?xml version="1.0" encoding="UTF-8" standalone="no"?>
<!DOCTYPE svg PUBLIC "-//W3C//DTD SVG 1.1//EN"
 "http://www.w3.org/Graphics/SVG/1.1/DTD/svg11.dtd">
<!-- Generated by graphviz version 10.0.1 (20240210.2158)
 -->
<!-- Title: /Users/hoff/Retro/virtualc64/Emulator/Base/Host.h Pages: 1 -->
<svg width="4461pt" height="338pt"
 viewBox="0.00 0.00 4460.75 338.25" xmlns="http://www.w3.org/2000/svg" xmlns:xlink="http://www.w3.org/1999/xlink">
<g id="graph0" class="graph" transform="scale(1 1) rotate(0) translate(4 334.25)">
<title>/Users/hoff/Retro/virtualc64/Emulator/Base/Host.h</title>
<!-- Node1 -->
<g id="Node000001" class="node">
<title>Node1</title>
<g id="a_Node000001"><a xlink:title=" ">
<polygon fill="#999999" stroke="#666666" points="2210.75,-330.25 2074,-330.25 2074,-299.75 2210.75,-299.75 2210.75,-330.25"/>
<text text-anchor="start" x="2082" y="-316.75" font-family="Helvetica,sans-Serif" font-size="10.00">/Users/hoff/Retro/virtualc64</text>
<text text-anchor="middle" x="2142.38" y="-305.5" font-family="Helvetica,sans-Serif" font-size="10.00">/Emulator/Base/Host.h</text>
</a>
</g>
</g>
<!-- Node2 -->
<g id="Node000002" class="node">
<title>Node2</title>
<g id="a_Node000002"><a xlink:href="_host_8cpp.html" target="_top" xlink:title=" ">
<polygon fill="white" stroke="#666666" points="136.75,-180.38 0,-180.38 0,-149.88 136.75,-149.88 136.75,-180.38"/>
<text text-anchor="start" x="8" y="-166.88" font-family="Helvetica,sans-Serif" font-size="10.00">/Users/hoff/Retro/virtualc64</text>
<text text-anchor="middle" x="68.38" y="-155.62" font-family="Helvetica,sans-Serif" font-size="10.00">/Emulator/Base/Host.cpp</text>
</a>
</g>
</g>
<!-- Node1&#45;&gt;Node2 -->
<g id="edge1_Node000001_Node000002" class="edge">
<title>Node1&#45;&gt;Node2</title>
<g id="a_edge1_Node000001_Node000002"><a xlink:title=" ">
<path fill="none" stroke="#63b8ff" d="M2062.53,-314.17C1791.78,-313.64 884.33,-302.65 146.38,-186 137.96,-184.67 129.12,-182.84 120.54,-180.84"/>
<polygon fill="#63b8ff" stroke="#63b8ff" points="2062.28,-317.67 2072.29,-314.19 2062.29,-310.67 2062.28,-317.67"/>
</a>
</g>
</g>
<!-- Node3 -->
<g id="Node000003" class="node">
<title>Node3</title>
<g id="a_Node000003"><a xlink:href="_emulator_8h.html" target="_top" xlink:title=" ">
<polygon fill="white" stroke="#666666" points="2225.38,-258.12 2059.38,-258.12 2059.38,-227.62 2225.38,-227.62 2225.38,-258.12"/>
<text text-anchor="start" x="2067.38" y="-244.62" font-family="Helvetica,sans-Serif" font-size="10.00">/Users/hoff/Retro/virtualc64</text>
<text text-anchor="middle" x="2142.38" y="-233.38" font-family="Helvetica,sans-Serif" font-size="10.00">/Emulator/Components/Emulator.h</text>
</a>
</g>
</g>
<!-- Node1&#45;&gt;Node3 -->
<g id="edge2_Node000001_Node000003" class="edge">
<title>Node1&#45;&gt;Node3</title>
<g id="a_edge2_Node000001_Node000003"><a xlink:title=" ">
<path fill="none" stroke="#63b8ff" d="M2142.38,-288.02C2142.38,-278.01 2142.38,-266.94 2142.38,-258.39"/>
<polygon fill="#63b8ff" stroke="#63b8ff" points="2138.88,-287.96 2142.38,-297.96 2145.88,-287.96 2138.88,-287.96"/>
</a>
</g>
</g>
<!-- Node33 -->
<g id="Node000033" class="node">
<title>Node33</title>
<g id="a_Node000033"><a xlink:href="_recorder_8cpp.html" target="_top" xlink:title=" ">
<polygon fill="white" stroke="#666666" points="2385.75,-263.75 2243,-263.75 2243,-222 2385.75,-222 2385.75,-263.75"/>
<text text-anchor="start" x="2251" y="-250.25" font-family="Helvetica,sans-Serif" font-size="10.00">/Users/hoff/Retro/virtualc64</text>
<text text-anchor="start" x="2251" y="-239" font-family="Helvetica,sans-Serif" font-size="10.00">/Emulator/Components/VICII</text>
<text text-anchor="middle" x="2314.38" y="-227.75" font-family="Helvetica,sans-Serif" font-size="10.00">/Recorder/Recorder.cpp</text>
</a>
</g>
</g>
<!-- Node1&#45;&gt;Node33 -->
<g id="edge33_Node000001_Node000033" class="edge">
<title>Node1&#45;&gt;Node33</title>
<g id="a_edge33_Node000001_Node000033"><a xlink:title=" ">
<path fill="none" stroke="#63b8ff" d="M2188.82,-295.06C2212.28,-285.5 2240.77,-273.89 2264.67,-264.14"/>
<polygon fill="#63b8ff" stroke="#63b8ff" points="2187.77,-291.71 2179.83,-298.73 2190.41,-298.19 2187.77,-291.71"/>
</a>
</g>
</g>
<!-- Node3&#45;&gt;Node2 -->
<g id="edge4_Node000003_Node000002" class="edge">
<title>Node3&#45;&gt;Node2</title>
<g id="a_edge4_Node000003_Node000002"><a xlink:title=" ">
<path fill="none" stroke="#63b8ff" d="M2047.66,-239.81C1664.01,-231.36 241.36,-199.26 146.38,-186 137.52,-184.76 128.21,-182.9 119.24,-180.81"/>
<polygon fill="#63b8ff" stroke="#63b8ff" points="2047.39,-243.3 2057.47,-240.02 2047.55,-236.3 2047.39,-243.3"/>
</a>
</g>
</g>
<!-- Node4 -->
<g id="Node000004" class="node">
<title>Node4</title>
<g id="a_Node000004"><a xlink:href="_core_component_8cpp.html" target="_top" xlink:title=" ">
<polygon fill="white" stroke="#666666" points="331.62,-180.38 155.12,-180.38 155.12,-149.88 331.62,-149.88 331.62,-180.38"/>
<text text-anchor="start" x="163.12" y="-166.88" font-family="Helvetica,sans-Serif" font-size="10.00">/Users/hoff/Retro/virtualc64</text>
<text text-anchor="middle" x="243.38" y="-155.62" font-family="Helvetica,sans-Serif" font-size="10.00">/Emulator/Base/CoreComponent.cpp</text>
</a>
</g>
</g>
<!-- Node3&#45;&gt;Node4 -->
<g id="edge3_Node000003_Node000004" class="edge">
<title>Node3&#45;&gt;Node4</title>
<g id="a_edge3_Node000003_Node000004"><a xlink:title=" ">
<path fill="none" stroke="#63b8ff" d="M2047.6,-239.87C1700.61,-232.42 510.94,-205.68 341.38,-186 330.51,-184.74 319.06,-182.89 307.97,-180.83"/>
<polygon fill="#63b8ff" stroke="#63b8ff" points="2047.51,-243.37 2057.58,-240.09 2047.66,-236.37 2047.51,-243.37"/>
</a>
</g>
</g>
<!-- Node5 -->
<g id="Node000005" class="node">
<title>Node5</title>
<g id="a_Node000005"><a xlink:href="_sub_component_8cpp.html" target="_top" xlink:title=" ">
<polygon fill="white" stroke="#666666" points="522.75,-180.38 350,-180.38 350,-149.88 522.75,-149.88 522.75,-180.38"/>
<text text-anchor="start" x="358" y="-166.88" font-family="Helvetica,sans-Serif" font-size="10.00">/Users/hoff/Retro/virtualc64</text>
<text text-anchor="middle" x="436.38" y="-155.62" font-family="Helvetica,sans-Serif" font-size="10.00">/Emulator/Base/SubComponent.cpp</text>
</a>
</g>
</g>
<!-- Node3&#45;&gt;Node5 -->
<g id="edge5_Node000003_Node000005" class="edge">
<title>Node3&#45;&gt;Node5</title>
<g id="a_edge5_Node000003_Node000005"><a xlink:title=" ">
<path fill="none" stroke="#63b8ff" d="M2048,-240.7C1749.58,-236.66 828.64,-221.55 532.38,-186 521.81,-184.73 510.69,-182.9 499.9,-180.85"/>
<polygon fill="#63b8ff" stroke="#63b8ff" points="2047.64,-244.2 2057.69,-240.83 2047.74,-237.2 2047.64,-244.2"/>
</a>
</g>
</g>
<!-- Node6 -->
<g id="Node000006" class="node">
<title>Node6</title>
<g id="a_Node000006"><a xlink:href="_final_i_i_i_8cpp.html" target="_top" xlink:title=" ">
<polygon fill="white" stroke="#666666" points="729.62,-186 541.12,-186 541.12,-144.25 729.62,-144.25 729.62,-186"/>
<text text-anchor="start" x="549.12" y="-172.5" font-family="Helvetica,sans-Serif" font-size="10.00">/Users/hoff/Retro/virtualc64</text>
<text text-anchor="start" x="549.12" y="-161.25" font-family="Helvetica,sans-Serif" font-size="10.00">/Emulator/Cartridges/CustomCartridges</text>
<text text-anchor="middle" x="635.38" y="-150" font-family="Helvetica,sans-Serif" font-size="10.00">/FinalIII.cpp</text>
</a>
</g>
</g>
<!-- Node3&#45;&gt;Node6 -->
<g id="edge6_Node000003_Node000006" class="edge">
<title>Node3&#45;&gt;Node6</title>
<g id="a_edge6_Node000003_Node000006"><a xlink:title=" ">
<path fill="none" stroke="#63b8ff" d="M2047.8,-239.95C1775.65,-234.11 993.79,-215.21 739.38,-186 736.27,-185.64 733.12,-185.25 729.94,-184.82"/>
<polygon fill="#63b8ff" stroke="#63b8ff" points="2047.63,-243.45 2057.7,-240.16 2047.78,-236.45 2047.63,-243.45"/>
</a>
</g>
</g>
<!-- Node7 -->
<g id="Node000007" class="node">
<title>Node7</title>
<g id="a_Node000007"><a xlink:href="_game_killer_8cpp.html" target="_top" xlink:title=" ">
<polygon fill="white" stroke="#666666" points="936.62,-186 748.12,-186 748.12,-144.25 936.62,-144.25 936.62,-186"/>
<text text-anchor="start" x="756.12" y="-172.5" font-family="Helvetica,sans-Serif" font-size="10.00">/Users/hoff/Retro/virtualc64</text>
<text text-anchor="start" x="756.12" y="-161.25" font-family="Helvetica,sans-Serif" font-size="10.00">/Emulator/Cartridges/CustomCartridges</text>
<text text-anchor="middle" x="842.38" y="-150" font-family="Helvetica,sans-Serif" font-size="10.00">/GameKiller.cpp</text>
</a>
</g>
</g>
<!-- Node3&#45;&gt;Node7 -->
<g id="edge7_Node000003_Node000007" class="edge">
<title>Node3&#45;&gt;Node7</title>
<g id="a_edge7_Node000003_Node000007"><a xlink:title=" ">
<path fill="none" stroke="#63b8ff" d="M2047.46,-242.07C1844.48,-241.48 1353.45,-234.64 945.38,-186 942.57,-185.67 939.73,-185.3 936.87,-184.91"/>
<polygon fill="#63b8ff" stroke="#63b8ff" points="2047.43,-245.57 2057.44,-242.1 2047.45,-238.57 2047.43,-245.57"/>
</a>
</g>
</g>
<!-- Node8 -->
<g id="Node000008" class="node">
<title>Node8</title>
<g id="a_Node000008"><a xlink:href="_c64_8cpp.html" target="_top" xlink:title=" ">
<polygon fill="white" stroke="#666666" points="1110.5,-180.38 954.25,-180.38 954.25,-149.88 1110.5,-149.88 1110.5,-180.38"/>
<text text-anchor="start" x="962.25" y="-166.88" font-family="Helvetica,sans-Serif" font-size="10.00">/Users/hoff/Retro/virtualc64</text>
<text text-anchor="middle" x="1032.38" y="-155.62" font-family="Helvetica,sans-Serif" font-size="10.00">/Emulator/Components/C64.cpp</text>
</a>
</g>
</g>
<!-- Node3&#45;&gt;Node8 -->
<g id="edge8_Node000003_Node000008" class="edge">
<title>Node3&#45;&gt;Node8</title>
<g id="a_edge8_Node000003_Node000008"><a xlink:title=" ">
<path fill="none" stroke="#63b8ff" d="M2047.8,-241.98C1866.83,-241.01 1459.38,-233.21 1120.38,-186 1110.91,-184.68 1100.96,-182.86 1091.3,-180.86"/>
<polygon fill="#63b8ff" stroke="#63b8ff" points="2047.6,-245.48 2057.61,-242.02 2047.63,-238.48 2047.6,-245.48"/>
</a>
</g>
</g>
<!-- Node9 -->
<g id="Node000009" class="node">
<title>Node9</title>
<g id="a_Node000009"><a xlink:href="_c_i_a_8cpp.html" target="_top" xlink:title=" ">
<polygon fill="white" stroke="#666666" points="1265.75,-186 1129,-186 1129,-144.25 1265.75,-144.25 1265.75,-186"/>
<text text-anchor="start" x="1137" y="-172.5" font-family="Helvetica,sans-Serif" font-size="10.00">/Users/hoff/Retro/virtualc64</text>
<text text-anchor="start" x="1137" y="-161.25" font-family="Helvetica,sans-Serif" font-size="10.00">/Emulator/Components/CIA</text>
<text text-anchor="middle" x="1197.38" y="-150" font-family="Helvetica,sans-Serif" font-size="10.00">/CIA.cpp</text>
</a>
</g>
</g>
<!-- Node3&#45;&gt;Node9 -->
<g id="edge9_Node000003_Node000009" class="edge">
<title>Node3&#45;&gt;Node9</title>
<g id="a_edge9_Node000003_Node000009"><a xlink:title=" ">
<path fill="none" stroke="#63b8ff" d="M2047.68,-241.59C1887.45,-239.82 1553.06,-230.53 1274.38,-186 1271.65,-185.56 1268.88,-185.08 1266.09,-184.54"/>
<polygon fill="#63b8ff" stroke="#63b8ff" points="2047.37,-245.09 2057.4,-241.69 2047.44,-238.09 2047.37,-245.09"/>
</a>
</g>
</g>
<!-- Node10 -->
<g id="Node000010" class="node">
<title>Node10</title>
<g id="a_Node000010"><a xlink:href="_c_p_u_8cpp.html" target="_top" xlink:title=" ">
<polygon fill="white" stroke="#666666" points="1425,-186 1283.75,-186 1283.75,-144.25 1425,-144.25 1425,-186"/>
<text text-anchor="start" x="1291.75" y="-172.5" font-family="Helvetica,sans-Serif" font-size="10.00">/Users/hoff/Retro/virtualc64</text>
<text text-anchor="start" x="1291.75" y="-161.25" font-family="Helvetica,sans-Serif" font-size="10.00">/Emulator/Components/CPU</text>
<text text-anchor="middle" x="1354.38" y="-150" font-family="Helvetica,sans-Serif" font-size="10.00">/CPU.cpp</text>
</a>
</g>
</g>
<!-- Node3&#45;&gt;Node10 -->
<g id="edge10_Node000003_Node000010" class="edge">
<title>Node3&#45;&gt;Node10</title>
<g id="a_edge10_Node000003_Node000010"><a xlink:title=" ">
<path fill="none" stroke="#63b8ff" d="M2047.8,-239.36C1911.48,-234.61 1652.18,-221.4 1434.38,-186 1431.41,-185.52 1428.39,-184.98 1425.35,-184.4"/>
<polygon fill="#63b8ff" stroke="#63b8ff" points="2047.38,-242.85 2057.49,-239.69 2047.62,-235.85 2047.38,-242.85"/>
</a>
</g>
</g>
<!-- Node11 -->
<g id="Node000011" class="node">
<title>Node11</title>
<g id="a_Node000011"><a xlink:href="_emulator_8cpp.html" target="_top" xlink:title=" ">
<polygon fill="white" stroke="#666666" points="1619.62,-180.38 1443.12,-180.38 1443.12,-149.88 1619.62,-149.88 1619.62,-180.38"/>
<text text-anchor="start" x="1451.12" y="-166.88" font-family="Helvetica,sans-Serif" font-size="10.00">/Users/hoff/Retro/virtualc64</text>
<text text-anchor="middle" x="1531.38" y="-155.62" font-family="Helvetica,sans-Serif" font-size="10.00">/Emulator/Components/Emulator.cpp</text>
</a>
</g>
</g>
<!-- Node3&#45;&gt;Node11 -->
<g id="edge11_Node000003_Node000011" class="edge">
<title>Node3&#45;&gt;Node11</title>
<g id="a_edge11_Node000003_Node000011"><a xlink:title=" ">
<path fill="none" stroke="#63b8ff" d="M2047.93,-234.28C1944.56,-225.35 1774.12,-208.8 1628.38,-186 1618.86,-184.51 1608.87,-182.72 1599.07,-180.84"/>
<polygon fill="#63b8ff" stroke="#63b8ff" points="2047.5,-237.76 2057.76,-235.13 2048.1,-230.79 2047.5,-237.76"/>
</a>
</g>
</g>
<!-- Node12 -->
<g id="Node000012" class="node">
<title>Node12</title>
<g id="a_Node000012"><a xlink:href="_power_supply_8cpp.html" target="_top" xlink:title=" ">
<polygon fill="white" stroke="#666666" points="1805.5,-186 1637.25,-186 1637.25,-144.25 1805.5,-144.25 1805.5,-186"/>
<text text-anchor="start" x="1645.25" y="-172.5" font-family="Helvetica,sans-Serif" font-size="10.00">/Users/hoff/Retro/virtualc64</text>
<text text-anchor="start" x="1645.25" y="-161.25" font-family="Helvetica,sans-Serif" font-size="10.00">/Emulator/Components/LogicBoard</text>
<text text-anchor="middle" x="1721.38" y="-150" font-family="Helvetica,sans-Serif" font-size="10.00">/PowerSupply.cpp</text>
</a>
</g>
</g>
<!-- Node3&#45;&gt;Node12 -->
<g id="edge12_Node000003_Node000012" class="edge">
<title>Node3&#45;&gt;Node12</title>
<g id="a_edge12_Node000003_Node000012"><a xlink:title=" ">
<path fill="none" stroke="#63b8ff" d="M2047.78,-226.72C1982.39,-215.99 1893.45,-200.92 1815.38,-186 1812.26,-185.41 1809.09,-184.79 1805.89,-184.16"/>
<polygon fill="#63b8ff" stroke="#63b8ff" points="2046.96,-230.13 2057.39,-228.29 2048.09,-223.22 2046.96,-230.13"/>
</a>
</g>
</g>
<!-- Node13 -->
<g id="Node000013" class="node">
<title>Node13</title>
<g id="a_Node000013"><a xlink:href="_c64_memory_8cpp.html" target="_top" xlink:title=" ">
<polygon fill="white" stroke="#666666" points="1978.75,-186 1824,-186 1824,-144.25 1978.75,-144.25 1978.75,-186"/>
<text text-anchor="start" x="1832" y="-172.5" font-family="Helvetica,sans-Serif" font-size="10.00">/Users/hoff/Retro/virtualc64</text>
<text text-anchor="start" x="1832" y="-161.25" font-family="Helvetica,sans-Serif" font-size="10.00">/Emulator/Components/Memory</text>
<text text-anchor="middle" x="1901.38" y="-150" font-family="Helvetica,sans-Serif" font-size="10.00">/C64Memory.cpp</text>
</a>
</g>
</g>
<!-- Node3&#45;&gt;Node13 -->
<g id="edge13_Node000003_Node000013" class="edge">
<title>Node3&#45;&gt;Node13</title>
<g id="a_edge13_Node000003_Node000013"><a xlink:title=" ">
<path fill="none" stroke="#63b8ff" d="M2084.85,-223.79C2049.01,-212.53 2002.83,-198.01 1965.77,-186.37"/>
<polygon fill="#63b8ff" stroke="#63b8ff" points="2083.59,-227.07 2094.18,-226.73 2085.69,-220.39 2083.59,-227.07"/>
</a>
</g>
</g>
<!-- Node14 -->
<g id="Node000014" class="node">
<title>Node14</title>
<g id="a_Node000014"><a xlink:href="_muxer_8cpp.html" target="_top" xlink:title=" ">
<polygon fill="white" stroke="#666666" points="2133.75,-186 1997,-186 1997,-144.25 2133.75,-144.25 2133.75,-186"/>
<text text-anchor="start" x="2005" y="-172.5" font-family="Helvetica,sans-Serif" font-size="10.00">/Users/hoff/Retro/virtualc64</text>
<text text-anchor="start" x="2005" y="-161.25" font-family="Helvetica,sans-Serif" font-size="10.00">/Emulator/Components/SID</text>
<text text-anchor="middle" x="2065.38" y="-150" font-family="Helvetica,sans-Serif" font-size="10.00">/Muxer.cpp</text>
</a>
</g>
</g>
<!-- Node3&#45;&gt;Node14 -->
<g id="edge14_Node000003_Node000014" class="edge">
<title>Node3&#45;&gt;Node14</title>
<g id="a_edge14_Node000003_Node000014"><a xlink:title=" ">
<path fill="none" stroke="#63b8ff" d="M2119.49,-219.37C2108.87,-208.91 2096.33,-196.58 2086,-186.41"/>
<polygon fill="#63b8ff" stroke="#63b8ff" points="2116.87,-221.69 2126.45,-226.21 2121.78,-216.7 2116.87,-221.69"/>
</a>
</g>
</g>
<!-- Node15 -->
<g id="Node000015" class="node">
<title>Node15</title>
<g id="a_Node000015"><a xlink:href="_s_i_d_8cpp.html" target="_top" xlink:title=" ">
<polygon fill="white" stroke="#666666" points="2288.75,-186 2152,-186 2152,-144.25 2288.75,-144.25 2288.75,-186"/>
<text text-anchor="start" x="2160" y="-172.5" font-family="Helvetica,sans-Serif" font-size="10.00">/Users/hoff/Retro/virtualc64</text>
<text text-anchor="start" x="2160" y="-161.25" font-family="Helvetica,sans-Serif" font-size="10.00">/Emulator/Components/SID</text>
<text text-anchor="middle" x="2220.38" y="-150" font-family="Helvetica,sans-Serif" font-size="10.00">/SID.cpp</text>
</a>
</g>
</g>
<!-- Node3&#45;&gt;Node15 -->
<g id="edge15_Node000003_Node000015" class="edge">
<title>Node3&#45;&gt;Node15</title>
<g id="a_edge15_Node000003_Node000015"><a xlink:title=" ">
<path fill="none" stroke="#63b8ff" d="M2165.55,-219.37C2176.32,-208.91 2189.02,-196.58 2199.49,-186.41"/>
<polygon fill="#63b8ff" stroke="#63b8ff" points="2163.24,-216.74 2158.5,-226.22 2168.11,-221.76 2163.24,-216.74"/>
</a>
</g>
</g>
<!-- Node16 -->
<g id="Node000016" class="node">
<title>Node16</title>
<g id="a_Node000016"><a xlink:href="_dma_debugger_8cpp.html" target="_top" xlink:title=" ">
<polygon fill="white" stroke="#666666" points="2449.75,-186 2307,-186 2307,-144.25 2449.75,-144.25 2449.75,-186"/>
<text text-anchor="start" x="2315" y="-172.5" font-family="Helvetica,sans-Serif" font-size="10.00">/Users/hoff/Retro/virtualc64</text>
<text text-anchor="start" x="2315" y="-161.25" font-family="Helvetica,sans-Serif" font-size="10.00">/Emulator/Components/VICII</text>
<text text-anchor="middle" x="2378.38" y="-150" font-family="Helvetica,sans-Serif" font-size="10.00">/DmaDebugger.cpp</text>
</a>
</g>
</g>
<!-- Node3&#45;&gt;Node16 -->
<g id="edge16_Node000003_Node000016" class="edge">
<title>Node3&#45;&gt;Node16</title>
<g id="a_edge16_Node000003_Node000016"><a xlink:title=" ">
<path fill="none" stroke="#63b8ff" d="M2198.7,-223.79C2233.8,-212.53 2279.02,-198.01 2315.32,-186.37"/>
<polygon fill="#63b8ff" stroke="#63b8ff" points="2198.05,-220.33 2189.6,-226.72 2200.19,-226.99 2198.05,-220.33"/>
</a>
</g>
</g>
<!-- Node17 -->
<g id="Node000017" class="node">
<title>Node17</title>
<g id="a_Node000017"><a xlink:href="_v_i_c_i_i_8cpp.html" target="_top" xlink:title=" ">
<polygon fill="white" stroke="#666666" points="2610.75,-186 2468,-186 2468,-144.25 2610.75,-144.25 2610.75,-186"/>
<text text-anchor="start" x="2476" y="-172.5" font-family="Helvetica,sans-Serif" font-size="10.00">/Users/hoff/Retro/virtualc64</text>
<text text-anchor="start" x="2476" y="-161.25" font-family="Helvetica,sans-Serif" font-size="10.00">/Emulator/Components/VICII</text>
<text text-anchor="middle" x="2539.38" y="-150" font-family="Helvetica,sans-Serif" font-size="10.00">/VICII.cpp</text>
</a>
</g>
</g>
<!-- Node3&#45;&gt;Node17 -->
<g id="edge17_Node000003_Node000017" class="edge">
<title>Node3&#45;&gt;Node17</title>
<g id="a_edge17_Node000003_Node000017"><a xlink:title=" ">
<path fill="none" stroke="#63b8ff" d="M2219.3,-224.94C2224.39,-223.92 2229.45,-222.93 2234.38,-222 2333.47,-203.35 2359.55,-206.03 2458.38,-186 2461.5,-185.37 2464.68,-184.7 2467.89,-184"/>
<polygon fill="#63b8ff" stroke="#63b8ff" points="2218.7,-221.49 2209.61,-226.92 2220.1,-228.35 2218.7,-221.49"/>
</a>
</g>
</g>
<!-- Node18 -->
<g id="Node000018" class="node">
<title>Node18</title>
<g id="a_Node000018"><a xlink:href="_regression_tester_8cpp.html" target="_top" xlink:title=" ">
<polygon fill="white" stroke="#666666" points="2790.12,-186 2628.62,-186 2628.62,-144.25 2790.12,-144.25 2790.12,-186"/>
<text text-anchor="start" x="2636.62" y="-172.5" font-family="Helvetica,sans-Serif" font-size="10.00">/Users/hoff/Retro/virtualc64</text>
<text text-anchor="start" x="2636.62" y="-161.25" font-family="Helvetica,sans-Serif" font-size="10.00">/Emulator/Misc/RegressionTester</text>
<text text-anchor="middle" x="2709.38" y="-150" font-family="Helvetica,sans-Serif" font-size="10.00">/RegressionTester.cpp</text>
</a>
</g>
</g>
<!-- Node3&#45;&gt;Node18 -->
<g id="edge18_Node000003_Node000018" class="edge">
<title>Node3&#45;&gt;Node18</title>
<g id="a_edge18_Node000003_Node000018"><a xlink:title=" ">
<path fill="none" stroke="#63b8ff" d="M2216.42,-225.08C2222.48,-223.95 2228.52,-222.9 2234.38,-222 2404.22,-195.81 2449.59,-212.58 2619.38,-186 2622.38,-185.53 2625.43,-185.02 2628.51,-184.48"/>
<polygon fill="#63b8ff" stroke="#63b8ff" points="2216.17,-221.56 2207.02,-226.9 2217.51,-228.43 2216.17,-221.56"/>
</a>
</g>
</g>
<!-- Node19 -->
<g id="Node000019" class="node">
<title>Node19</title>
<g id="a_Node000019"><a xlink:href="_interpreter_8cpp.html" target="_top" xlink:title=" ">
<polygon fill="white" stroke="#666666" points="2944.75,-186 2808,-186 2808,-144.25 2944.75,-144.25 2944.75,-186"/>
<text text-anchor="start" x="2816" y="-172.5" font-family="Helvetica,sans-Serif" font-size="10.00">/Users/hoff/Retro/virtualc64</text>
<text text-anchor="start" x="2816" y="-161.25" font-family="Helvetica,sans-Serif" font-size="10.00">/Emulator/Misc/RetroShell</text>
<text text-anchor="middle" x="2876.38" y="-150" font-family="Helvetica,sans-Serif" font-size="10.00">/Interpreter.cpp</text>
</a>
</g>
</g>
<!-- Node3&#45;&gt;Node19 -->
<g id="edge19_Node000003_Node000019" class="edge">
<title>Node3&#45;&gt;Node19</title>
<g id="a_edge19_Node000003_Node000019"><a xlink:title=" ">
<path fill="none" stroke="#63b8ff" d="M2215.77,-225C2222.04,-223.87 2228.31,-222.84 2234.38,-222 2483.6,-187.34 2550.89,-225.62 2799.38,-186 2802.1,-185.57 2804.87,-185.08 2807.66,-184.55"/>
<polygon fill="#63b8ff" stroke="#63b8ff" points="2215.16,-221.55 2205.99,-226.86 2216.47,-228.43 2215.16,-221.55"/>
</a>
</g>
</g>
<!-- Node20 -->
<g id="Node000020" class="node">
<title>Node20</title>
<g id="a_Node000020"><a xlink:href="_interpreter_cmds_8cpp.html" target="_top" xlink:title=" ">
<polygon fill="white" stroke="#666666" points="3099.75,-186 2963,-186 2963,-144.25 3099.75,-144.25 3099.75,-186"/>
<text text-anchor="start" x="2971" y="-172.5" font-family="Helvetica,sans-Serif" font-size="10.00">/Users/hoff/Retro/virtualc64</text>
<text text-anchor="start" x="2971" y="-161.25" font-family="Helvetica,sans-Serif" font-size="10.00">/Emulator/Misc/RetroShell</text>
<text text-anchor="middle" x="3031.38" y="-150" font-family="Helvetica,sans-Serif" font-size="10.00">/InterpreterCmds.cpp</text>
</a>
</g>
</g>
<!-- Node3&#45;&gt;Node20 -->
<g id="edge20_Node000003_Node000020" class="edge">
<title>Node3&#45;&gt;Node20</title>
<g id="a_edge20_Node000003_Node000020"><a xlink:title=" ">
<path fill="none" stroke="#63b8ff" d="M2214.64,-225.11C2221.29,-223.92 2227.94,-222.85 2234.38,-222 2551.57,-180.08 2637,-233.74 2953.38,-186 2956.41,-185.54 2959.51,-185.01 2962.62,-184.44"/>
<polygon fill="#63b8ff" stroke="#63b8ff" points="2214.16,-221.64 2204.98,-226.94 2215.46,-228.51 2214.16,-221.64"/>
</a>
</g>
</g>
<!-- Node21 -->
<g id="Node000021" class="node">
<title>Node21</title>
<g id="a_Node000021"><a xlink:href="_interpreter_debug_cmds_8cpp.html" target="_top" xlink:title=" ">
<polygon fill="white" stroke="#666666" points="3254.75,-186 3118,-186 3118,-144.25 3254.75,-144.25 3254.75,-186"/>
<text text-anchor="start" x="3126" y="-172.5" font-family="Helvetica,sans-Serif" font-size="10.00">/Users/hoff/Retro/virtualc64</text>
<text text-anchor="start" x="3126" y="-161.25" font-family="Helvetica,sans-Serif" font-size="10.00">/Emulator/Misc/RetroShell</text>
<text text-anchor="middle" x="3186.38" y="-150" font-family="Helvetica,sans-Serif" font-size="10.00">/InterpreterDebugCmds.cpp</text>
</a>
</g>
</g>
<!-- Node3&#45;&gt;Node21 -->
<g id="edge21_Node000003_Node000021" class="edge">
<title>Node3&#45;&gt;Node21</title>
<g id="a_edge21_Node000003_Node000021"><a xlink:title=" ">
<path fill="none" stroke="#63b8ff" d="M2214.63,-225.05C2221.28,-223.87 2227.94,-222.82 2234.38,-222 2620.02,-172.77 2723.7,-242.3 3108.38,-186 3111.42,-185.55 3114.51,-185.04 3117.63,-184.47"/>
<polygon fill="#63b8ff" stroke="#63b8ff" points="2214.15,-221.58 2204.97,-226.86 2215.45,-228.45 2214.15,-221.58"/>
</a>
</g>
</g>
<!-- Node22 -->
<g id="Node000022" class="node">
<title>Node22</title>
<g id="a_Node000022"><a xlink:href="_datasette_8cpp.html" target="_top" xlink:title=" ">
<polygon fill="white" stroke="#666666" points="3428.12,-186 3272.62,-186 3272.62,-144.25 3428.12,-144.25 3428.12,-186"/>
<text text-anchor="start" x="3280.62" y="-172.5" font-family="Helvetica,sans-Serif" font-size="10.00">/Users/hoff/Retro/virtualc64</text>
<text text-anchor="start" x="3280.62" y="-161.25" font-family="Helvetica,sans-Serif" font-size="10.00">/Emulator/Peripherals/Datasette</text>
<text text-anchor="middle" x="3350.38" y="-150" font-family="Helvetica,sans-Serif" font-size="10.00">/Datasette.cpp</text>
</a>
</g>
</g>
<!-- Node3&#45;&gt;Node22 -->
<g id="edge22_Node000003_Node000022" class="edge">
<title>Node3&#45;&gt;Node22</title>
<g id="a_edge22_Node000003_Node000022"><a xlink:title=" ">
<path fill="none" stroke="#63b8ff" d="M2213.81,-225.15C2220.73,-223.92 2227.67,-222.83 2234.38,-222 2688.48,-165.46 2809.61,-245.22 3263.38,-186 3266.29,-185.62 3269.26,-185.19 3272.25,-184.71"/>
<polygon fill="#63b8ff" stroke="#63b8ff" points="2213.65,-221.62 2204.47,-226.91 2214.95,-228.5 2213.65,-221.62"/>
</a>
</g>
</g>
<!-- Node23 -->
<g id="Node000023" class="node">
<title>Node23</title>
<g id="a_Node000023"><a xlink:href="_drive_8cpp.html" target="_top" xlink:title=" ">
<polygon fill="white" stroke="#666666" points="3582.75,-186 3446,-186 3446,-144.25 3582.75,-144.25 3582.75,-186"/>
<text text-anchor="start" x="3454" y="-172.5" font-family="Helvetica,sans-Serif" font-size="10.00">/Users/hoff/Retro/virtualc64</text>
<text text-anchor="start" x="3454" y="-161.25" font-family="Helvetica,sans-Serif" font-size="10.00">/Emulator/Peripherals/Drive</text>
<text text-anchor="middle" x="3514.38" y="-150" font-family="Helvetica,sans-Serif" font-size="10.00">/Drive.cpp</text>
</a>
</g>
</g>
<!-- Node3&#45;&gt;Node23 -->
<g id="edge23_Node000003_Node000023" class="edge">
<title>Node3&#45;&gt;Node23</title>
<g id="a_edge23_Node000003_Node000023"><a xlink:title=" ">
<path fill="none" stroke="#63b8ff" d="M2213.81,-225.11C2220.73,-223.89 2227.67,-222.82 2234.38,-222 2765.35,-157.25 2907.8,-261.31 3437.38,-186 3440.11,-185.61 3442.89,-185.16 3445.68,-184.66"/>
<polygon fill="#63b8ff" stroke="#63b8ff" points="2213.65,-221.58 2204.47,-226.86 2214.94,-228.46 2213.65,-221.58"/>
</a>
</g>
</g>
<!-- Node24 -->
<g id="Node000024" class="node">
<title>Node24</title>
<g id="a_Node000024"><a xlink:href="_drive_memory_8cpp.html" target="_top" xlink:title=" ">
<polygon fill="white" stroke="#666666" points="3737.75,-186 3601,-186 3601,-144.25 3737.75,-144.25 3737.75,-186"/>
<text text-anchor="start" x="3609" y="-172.5" font-family="Helvetica,sans-Serif" font-size="10.00">/Users/hoff/Retro/virtualc64</text>
<text text-anchor="start" x="3609" y="-161.25" font-family="Helvetica,sans-Serif" font-size="10.00">/Emulator/Peripherals/Drive</text>
<text text-anchor="middle" x="3669.38" y="-150" font-family="Helvetica,sans-Serif" font-size="10.00">/DriveMemory.cpp</text>
</a>
</g>
</g>
<!-- Node3&#45;&gt;Node24 -->
<g id="edge24_Node000003_Node000024" class="edge">
<title>Node3&#45;&gt;Node24</title>
<g id="a_edge24_Node000003_Node000024"><a xlink:title=" ">
<path fill="none" stroke="#63b8ff" d="M2213.73,-225.1C2220.67,-223.88 2227.64,-222.81 2234.38,-222 2833.39,-149.99 2993.79,-269 3591.38,-186 3594.42,-185.58 3597.52,-185.08 3600.64,-184.52"/>
<polygon fill="#63b8ff" stroke="#63b8ff" points="2213.15,-221.65 2203.97,-226.93 2214.44,-228.53 2213.15,-221.65"/>
</a>
</g>
</g>
<!-- Node25 -->
<g id="Node000025" class="node">
<title>Node25</title>
<g id="a_Node000025"><a xlink:href="_joystick_8cpp.html" target="_top" xlink:title=" ">
<polygon fill="white" stroke="#666666" points="3905.12,-186 3755.62,-186 3755.62,-144.25 3905.12,-144.25 3905.12,-186"/>
<text text-anchor="start" x="3763.62" y="-172.5" font-family="Helvetica,sans-Serif" font-size="10.00">/Users/hoff/Retro/virtualc64</text>
<text text-anchor="start" x="3763.62" y="-161.25" font-family="Helvetica,sans-Serif" font-size="10.00">/Emulator/Peripherals/Joystick</text>
<text text-anchor="middle" x="3830.38" y="-150" font-family="Helvetica,sans-Serif" font-size="10.00">/Joystick.cpp</text>
</a>
</g>
</g>
<!-- Node3&#45;&gt;Node25 -->
<g id="edge25_Node000003_Node000025" class="edge">
<title>Node3&#45;&gt;Node25</title>
<g id="a_edge25_Node000003_Node000025"><a xlink:title=" ">
<path fill="none" stroke="#63b8ff" d="M2213.72,-225.08C2220.67,-223.86 2227.64,-222.8 2234.38,-222 2901.87,-142.68 3079.69,-271.85 3746.38,-186 3749.35,-185.62 3752.37,-185.17 3755.41,-184.68"/>
<polygon fill="#63b8ff" stroke="#63b8ff" points="2213.15,-221.63 2203.96,-226.91 2214.44,-228.51 2213.15,-221.63"/>
</a>
</g>
</g>
<!-- Node26 -->
<g id="Node000026" class="node">
<title>Node26</title>
<g id="a_Node000026"><a xlink:href="_mouse_8cpp.html" target="_top" xlink:title=" ">
<polygon fill="white" stroke="#666666" points="4065.38,-186 3923.38,-186 3923.38,-144.25 4065.38,-144.25 4065.38,-186"/>
<text text-anchor="start" x="3931.38" y="-172.5" font-family="Helvetica,sans-Serif" font-size="10.00">/Users/hoff/Retro/virtualc64</text>
<text text-anchor="start" x="3931.38" y="-161.25" font-family="Helvetica,sans-Serif" font-size="10.00">/Emulator/Peripherals/Mouse</text>
<text text-anchor="middle" x="3994.38" y="-150" font-family="Helvetica,sans-Serif" font-size="10.00">/Mouse.cpp</text>
</a>
</g>
</g>
<!-- Node3&#45;&gt;Node26 -->
<g id="edge26_Node000003_Node000026" class="edge">
<title>Node3&#45;&gt;Node26</title>
<g id="a_edge26_Node000003_Node000026"><a xlink:title=" ">
<path fill="none" stroke="#63b8ff" d="M2213.72,-225.07C2220.67,-223.85 2227.64,-222.79 2234.38,-222 2976.1,-134.75 3174.08,-284.64 3914.38,-186 3917.21,-185.62 3920.09,-185.18 3923,-184.69"/>
<polygon fill="#63b8ff" stroke="#63b8ff" points="2213.15,-221.61 2203.96,-226.89 2214.43,-228.49 2213.15,-221.61"/>
</a>
</g>
</g>
<!-- Node27 -->
<g id="Node000027" class="node">
<title>Node27</title>
<g id="a_Node000027"><a xlink:href="_virtual_c64_8h.html" target="_top" xlink:title=" ">
<polygon fill="white" stroke="#666666" points="4219.75,-180.38 4083,-180.38 4083,-149.88 4219.75,-149.88 4219.75,-180.38"/>
<text text-anchor="start" x="4091" y="-166.88" font-family="Helvetica,sans-Serif" font-size="10.00">/Users/hoff/Retro/virtualc64</text>
<text text-anchor="middle" x="4151.38" y="-155.62" font-family="Helvetica,sans-Serif" font-size="10.00">/Emulator/VirtualC64.h</text>
</a>
</g>
</g>
<!-- Node3&#45;&gt;Node27 -->
<g id="edge27_Node000003_Node000027" class="edge">
<title>Node3&#45;&gt;Node27</title>
<g id="a_edge27_Node000003_Node000027"><a xlink:title=" ">
<path fill="none" stroke="#63b8ff" d="M2213.72,-225.05C2220.67,-223.84 2227.64,-222.79 2234.38,-222 2640.59,-174.6 3669.19,-241.48 4074.38,-186 4083.13,-184.8 4092.32,-182.96 4101.18,-180.87"/>
<polygon fill="#63b8ff" stroke="#63b8ff" points="2213.15,-221.6 2203.96,-226.87 2214.43,-228.48 2213.15,-221.6"/>
</a>
</g>
</g>
<!-- Node28 -->
<g id="Node000028" class="node">
<title>Node28</title>
<g id="a_Node000028"><a xlink:href="_headless_8h.html" target="_top" xlink:title=" ">
<polygon fill="white" stroke="#666666" points="3987.75,-102.62 3851,-102.62 3851,-72.12 3987.75,-72.12 3987.75,-102.62"/>
<text text-anchor="start" x="3859" y="-89.12" font-family="Helvetica,sans-Serif" font-size="10.00">/Users/hoff/Retro/virtualc64</text>
<text text-anchor="middle" x="3919.38" y="-77.88" font-family="Helvetica,sans-Serif" font-size="10.00">/Emulator/Headless.h</text>
</a>
</g>
</g>
<!-- Node27&#45;&gt;Node28 -->
<g id="edge28_Node000027_Node000028" class="edge">
<title>Node27&#45;&gt;Node28</title>
<g id="a_edge28_Node000027_Node000028"><a xlink:title=" ">
<path fill="none" stroke="#63b8ff" d="M4095.66,-145.93C4055.41,-132.79 4001.76,-115.27 3964.26,-103.03"/>
<polygon fill="#63b8ff" stroke="#63b8ff" points="4094.34,-149.18 4104.93,-148.96 4096.51,-142.53 4094.34,-149.18"/>
</a>
</g>
</g>
<!-- Node30 -->
<g id="Node000030" class="node">
<title>Node30</title>
<g id="a_Node000030"><a xlink:href="_script_8cpp.html" target="_top" xlink:title=" ">
<polygon fill="white" stroke="#666666" points="4142.75,-102.62 4006,-102.62 4006,-72.12 4142.75,-72.12 4142.75,-102.62"/>
<text text-anchor="start" x="4014" y="-89.12" font-family="Helvetica,sans-Serif" font-size="10.00">/Users/hoff/Retro/virtualc64</text>
<text text-anchor="middle" x="4074.38" y="-77.88" font-family="Helvetica,sans-Serif" font-size="10.00">/Emulator/Media/Script.cpp</text>
</a>
</g>
</g>
<!-- Node27&#45;&gt;Node30 -->
<g id="edge30_Node000027_Node000030" class="edge">
<title>Node27&#45;&gt;Node30</title>
<g id="a_edge30_Node000027_Node000030"><a xlink:title=" ">
<path fill="none" stroke="#63b8ff" d="M4128.63,-141.75C4115.88,-129.21 4100.35,-113.93 4089.18,-102.94"/>
<polygon fill="#63b8ff" stroke="#63b8ff" points="4125.87,-143.94 4135.45,-148.46 4130.78,-138.95 4125.87,-143.94"/>
</a>
</g>
</g>
<!-- Node31 -->
<g id="Node000031" class="node">
<title>Node31</title>
<g id="a_Node000031"><a xlink:href="_retro_shell_8cpp.html" target="_top" xlink:title=" ">
<polygon fill="white" stroke="#666666" points="4297.75,-108.25 4161,-108.25 4161,-66.5 4297.75,-66.5 4297.75,-108.25"/>
<text text-anchor="start" x="4169" y="-94.75" font-family="Helvetica,sans-Serif" font-size="10.00">/Users/hoff/Retro/virtualc64</text>
<text text-anchor="start" x="4169" y="-83.5" font-family="Helvetica,sans-Serif" font-size="10.00">/Emulator/Misc/RetroShell</text>
<text text-anchor="middle" x="4229.38" y="-72.25" font-family="Helvetica,sans-Serif" font-size="10.00">/RetroShell.cpp</text>
</a>
</g>
</g>
<!-- Node27&#45;&gt;Node31 -->
<g id="edge31_Node000027_Node000031" class="edge">
<title>Node27&#45;&gt;Node31</title>
<g id="a_edge31_Node000027_Node000031"><a xlink:title=" ">
<path fill="none" stroke="#63b8ff" d="M4174.55,-141.62C4185.32,-131.16 4198.02,-118.83 4208.49,-108.66"/>
<polygon fill="#63b8ff" stroke="#63b8ff" points="4172.24,-138.99 4167.5,-148.47 4177.11,-144.01 4172.24,-138.99"/>
</a>
</g>
</g>
<!-- Node32 -->
<g id="Node000032" class="node">
<title>Node32</title>
<g id="a_Node000032"><a xlink:href="_virtual_c64_8cpp.html" target="_top" xlink:title=" ">
<polygon fill="white" stroke="#666666" points="4452.75,-102.62 4316,-102.62 4316,-72.12 4452.75,-72.12 4452.75,-102.62"/>
<text text-anchor="start" x="4324" y="-89.12" font-family="Helvetica,sans-Serif" font-size="10.00">/Users/hoff/Retro/virtualc64</text>
<text text-anchor="middle" x="4384.38" y="-77.88" font-family="Helvetica,sans-Serif" font-size="10.00">/Emulator/VirtualC64.cpp</text>
</a>
</g>
</g>
<!-- Node27&#45;&gt;Node32 -->
<g id="edge32_Node000027_Node000032" class="edge">
<title>Node27&#45;&gt;Node32</title>
<g id="a_edge32_Node000027_Node000032"><a xlink:title=" ">
<path fill="none" stroke="#63b8ff" d="M4207.33,-145.93C4247.75,-132.79 4301.63,-115.27 4339.3,-103.03"/>
<polygon fill="#63b8ff" stroke="#63b8ff" points="4206.44,-142.54 4198.02,-148.96 4208.61,-149.2 4206.44,-142.54"/>
</a>
</g>
</g>
<!-- Node29 -->
<g id="Node000029" class="node">
<title>Node29</title>
<g id="a_Node000029"><a xlink:href="_headless_8cpp.html" target="_top" xlink:title=" ">
<polygon fill="white" stroke="#666666" points="3987.75,-30.5 3851,-30.5 3851,0 3987.75,0 3987.75,-30.5"/>
<text text-anchor="start" x="3859" y="-17" font-family="Helvetica,sans-Serif" font-size="10.00">/Users/hoff/Retro/virtualc64</text>
<text text-anchor="middle" x="3919.38" y="-5.75" font-family="Helvetica,sans-Serif" font-size="10.00">/Emulator/Headless.cpp</text>
</a>
</g>
</g>
<!-- Node28&#45;&gt;Node29 -->
<g id="edge29_Node000028_Node000029" class="edge">
<title>Node28&#45;&gt;Node29</title>
<g id="a_edge29_Node000028_Node000029"><a xlink:title=" ">
<path fill="none" stroke="#63b8ff" d="M3919.38,-60.4C3919.38,-50.39 3919.38,-39.31 3919.38,-30.76"/>
<polygon fill="#63b8ff" stroke="#63b8ff" points="3915.88,-60.33 3919.38,-70.33 3922.88,-60.33 3915.88,-60.33"/>
</a>
</g>
</g>
</g>
</svg>
