<?xml version="1.0" encoding="UTF-8" standalone="no"?>
<!DOCTYPE svg PUBLIC "-//W3C//DTD SVG 1.1//EN"
 "http://www.w3.org/Graphics/SVG/1.1/DTD/svg11.dtd">
<!-- Generated by graphviz version 10.0.1 (20240210.2158)
 -->
<!-- Title: /Users/hoff/Retro/virtualc64/Emulator/Utilities/IOUtils.cpp Pages: 1 -->
<svg width="896pt" height="260pt"
 viewBox="0.00 0.00 895.50 259.50" xmlns="http://www.w3.org/2000/svg" xmlns:xlink="http://www.w3.org/1999/xlink">
<g id="graph0" class="graph" transform="scale(1 1) rotate(0) translate(4 255.5)">
<title>/Users/hoff/Retro/virtualc64/Emulator/Utilities/IOUtils.cpp</title>
<!-- Node1 -->
<g id="Node000001" class="node">
<title>Node1</title>
<g id="a_Node000001"><a xlink:title=" ">
<polygon fill="#999999" stroke="#666666" points="755.88,-251.5 609.38,-251.5 609.38,-221 755.88,-221 755.88,-251.5"/>
<text text-anchor="start" x="617.38" y="-238" font-family="Helvetica,sans-Serif" font-size="10.00">/Users/hoff/Retro/virtualc64</text>
<text text-anchor="middle" x="682.62" y="-226.75" font-family="Helvetica,sans-Serif" font-size="10.00">/Emulator/Utilities/IOUtils.cpp</text>
</a>
</g>
</g>
<!-- Node2 -->
<g id="Node000002" class="node">
<title>Node2</title>
<g id="a_Node000002"><a xlink:href="config_8h.html" target="_top" xlink:title=" ">
<polygon fill="white" stroke="#666666" points="116.88,-185 66.38,-185 66.38,-165.75 116.88,-165.75 116.88,-185"/>
<text text-anchor="middle" x="91.62" y="-171.5" font-family="Helvetica,sans-Serif" font-size="10.00">config.h</text>
</a>
</g>
</g>
<!-- Node1&#45;&gt;Node2 -->
<g id="edge1_Node000001_Node000002" class="edge">
<title>Node1&#45;&gt;Node2</title>
<g id="a_edge1_Node000001_Node000002"><a xlink:title=" ">
<path fill="none" stroke="#63b8ff" d="M608.97,-227.91C481.52,-215.22 224.32,-189.59 128.61,-180.06"/>
<polygon fill="#63b8ff" stroke="#63b8ff" points="129.04,-176.59 118.75,-179.08 128.35,-183.55 129.04,-176.59"/>
</a>
</g>
</g>
<!-- Node3 -->
<g id="Node000003" class="node">
<title>Node3</title>
<g id="a_Node000003"><a xlink:title=" ">
<polygon fill="#e0e0e0" stroke="#999999" points="51.25,-129.75 0,-129.75 0,-110.5 51.25,-110.5 51.25,-129.75"/>
<text text-anchor="middle" x="25.62" y="-116.25" font-family="Helvetica,sans-Serif" font-size="10.00">assert.h</text>
</a>
</g>
</g>
<!-- Node1&#45;&gt;Node3 -->
<g id="edge19_Node000001_Node000003" class="edge">
<title>Node1&#45;&gt;Node3</title>
<g id="a_edge19_Node000001_Node000003"><a xlink:title=" ">
<path fill="none" stroke="#63b8ff" d="M608.89,-224.4C543.75,-214.66 446.25,-199.66 361.62,-185 252.8,-166.14 124.72,-140.97 62.83,-128.61"/>
<polygon fill="#63b8ff" stroke="#63b8ff" points="63.69,-125.21 53.2,-126.68 62.32,-132.08 63.69,-125.21"/>
</a>
</g>
</g>
<!-- Node4 -->
<g id="Node000004" class="node">
<title>Node4</title>
<g id="a_Node000004"><a xlink:href="_i_o_utils_8h.html" target="_top" xlink:title=" ">
<polygon fill="white" stroke="#666666" points="426.12,-185 371.12,-185 371.12,-165.75 426.12,-165.75 426.12,-185"/>
<text text-anchor="middle" x="398.62" y="-171.5" font-family="Helvetica,sans-Serif" font-size="10.00">IOUtils.h</text>
</a>
</g>
</g>
<!-- Node1&#45;&gt;Node4 -->
<g id="edge3_Node000001_Node000004" class="edge">
<title>Node1&#45;&gt;Node4</title>
<g id="a_edge3_Node000001_Node000004"><a xlink:title=" ">
<path fill="none" stroke="#63b8ff" d="M611.69,-220.55C556.64,-209.13 482.4,-193.74 437.65,-184.47"/>
<polygon fill="#63b8ff" stroke="#63b8ff" points="438.38,-181.04 427.88,-182.44 436.96,-187.9 438.38,-181.04"/>
</a>
</g>
</g>
<!-- Node10 -->
<g id="Node000010" class="node">
<title>Node10</title>
<g id="a_Node000010"><a xlink:title=" ">
<polygon fill="#e0e0e0" stroke="#999999" points="227.12,-74.5 184.12,-74.5 184.12,-55.25 227.12,-55.25 227.12,-74.5"/>
<text text-anchor="middle" x="205.62" y="-61" font-family="Helvetica,sans-Serif" font-size="10.00">vector</text>
</a>
</g>
</g>
<!-- Node1&#45;&gt;Node10 -->
<g id="edge20_Node000001_Node000010" class="edge">
<title>Node1&#45;&gt;Node10</title>
<g id="a_edge20_Node000001_Node000010"><a xlink:title=" ">
<path fill="none" stroke="#63b8ff" d="M694.28,-220.52C713.1,-194.87 745.29,-141.78 716.62,-110.5 684.36,-75.3 347.46,-67.76 239.04,-66.24"/>
<polygon fill="#63b8ff" stroke="#63b8ff" points="239.11,-62.74 229.06,-66.11 239.02,-69.74 239.11,-62.74"/>
</a>
</g>
</g>
<!-- Node13 -->
<g id="Node000013" class="node">
<title>Node13</title>
<g id="a_Node000013"><a xlink:title=" ">
<polygon fill="#e0e0e0" stroke="#999999" points="707.12,-129.75 658.12,-129.75 658.12,-110.5 707.12,-110.5 707.12,-129.75"/>
<text text-anchor="middle" x="682.62" y="-116.25" font-family="Helvetica,sans-Serif" font-size="10.00">fstream</text>
</a>
</g>
</g>
<!-- Node1&#45;&gt;Node13 -->
<g id="edge21_Node000001_Node000013" class="edge">
<title>Node1&#45;&gt;Node13</title>
<g id="a_edge21_Node000001_Node000013"><a xlink:title=" ">
<path fill="none" stroke="#63b8ff" d="M682.62,-220.8C682.62,-200.75 682.62,-164.4 682.62,-141.57"/>
<polygon fill="#63b8ff" stroke="#63b8ff" points="686.13,-141.71 682.63,-131.71 679.13,-141.71 686.13,-141.71"/>
</a>
</g>
</g>
<!-- Node18 -->
<g id="Node000018" class="node">
<title>Node18</title>
<g id="a_Node000018"><a xlink:title=" ">
<polygon fill="#e0e0e0" stroke="#999999" points="819.5,-185 763.75,-185 763.75,-165.75 819.5,-165.75 819.5,-185"/>
<text text-anchor="middle" x="791.62" y="-171.5" font-family="Helvetica,sans-Serif" font-size="10.00">algorithm</text>
</a>
</g>
</g>
<!-- Node1&#45;&gt;Node18 -->
<g id="edge22_Node000001_Node000018" class="edge">
<title>Node1&#45;&gt;Node18</title>
<g id="a_edge22_Node000001_Node000018"><a xlink:title=" ">
<path fill="none" stroke="#63b8ff" d="M709.85,-220.55C726.77,-211.41 748.41,-199.72 765.18,-190.66"/>
<polygon fill="#63b8ff" stroke="#63b8ff" points="766.44,-193.96 773.58,-186.12 763.12,-187.8 766.44,-193.96"/>
</a>
</g>
</g>
<!-- Node19 -->
<g id="Node000019" class="node">
<title>Node19</title>
<g id="a_Node000019"><a xlink:title=" ">
<polygon fill="#e0e0e0" stroke="#999999" points="887.5,-185 837.75,-185 837.75,-165.75 887.5,-165.75 887.5,-185"/>
<text text-anchor="middle" x="862.62" y="-171.5" font-family="Helvetica,sans-Serif" font-size="10.00">iomanip</text>
</a>
</g>
</g>
<!-- Node1&#45;&gt;Node19 -->
<g id="edge23_Node000001_Node000019" class="edge">
<title>Node1&#45;&gt;Node19</title>
<g id="a_edge23_Node000001_Node000019"><a xlink:title=" ">
<path fill="none" stroke="#63b8ff" d="M727.58,-220.55C758.19,-210.53 798.17,-197.46 826.67,-188.14"/>
<polygon fill="#63b8ff" stroke="#63b8ff" points="827.51,-191.54 835.92,-185.11 825.33,-184.89 827.51,-191.54"/>
</a>
</g>
</g>
<!-- Node2&#45;&gt;Node3 -->
<g id="edge2_Node000002_Node000003" class="edge">
<title>Node2&#45;&gt;Node3</title>
<g id="a_edge2_Node000002_Node000003"><a xlink:title=" ">
<path fill="none" stroke="#63b8ff" d="M80.43,-165.34C70.89,-157.65 56.95,-146.4 45.52,-137.18"/>
<polygon fill="#63b8ff" stroke="#63b8ff" points="47.81,-134.53 37.83,-130.98 43.42,-139.98 47.81,-134.53"/>
</a>
</g>
</g>
<!-- Node5 -->
<g id="Node000005" class="node">
<title>Node5</title>
<g id="a_Node000005"><a xlink:href="_types_8h.html" target="_top" xlink:title=" ">
<polygon fill="white" stroke="#666666" points="135.88,-74.5 85.38,-74.5 85.38,-55.25 135.88,-55.25 135.88,-74.5"/>
<text text-anchor="middle" x="110.62" y="-61" font-family="Helvetica,sans-Serif" font-size="10.00">Types.h</text>
</a>
</g>
</g>
<!-- Node4&#45;&gt;Node5 -->
<g id="edge4_Node000004_Node000005" class="edge">
<title>Node4&#45;&gt;Node5</title>
<g id="a_edge4_Node000004_Node000005"><a xlink:title=" ">
<path fill="none" stroke="#63b8ff" d="M370.79,-172.28C299.8,-166.67 116.33,-150.29 98.62,-129.75 88.04,-117.48 93.11,-98.87 99.6,-84.9"/>
<polygon fill="#63b8ff" stroke="#63b8ff" points="102.59,-86.73 104.13,-76.24 96.39,-83.48 102.59,-86.73"/>
</a>
</g>
</g>
<!-- Node9 -->
<g id="Node000009" class="node">
<title>Node9</title>
<g id="a_Node000009"><a xlink:href="_string_utils_8h.html" target="_top" xlink:title=" ">
<polygon fill="white" stroke="#666666" points="177.62,-129.75 107.62,-129.75 107.62,-110.5 177.62,-110.5 177.62,-129.75"/>
<text text-anchor="middle" x="142.62" y="-116.25" font-family="Helvetica,sans-Serif" font-size="10.00">StringUtils.h</text>
</a>
</g>
</g>
<!-- Node4&#45;&gt;Node9 -->
<g id="edge8_Node000004_Node000009" class="edge">
<title>Node4&#45;&gt;Node9</title>
<g id="a_edge8_Node000004_Node000009"><a xlink:title=" ">
<path fill="none" stroke="#63b8ff" d="M370.74,-168.57C327.04,-159.48 241.93,-141.78 188.93,-130.76"/>
<polygon fill="#63b8ff" stroke="#63b8ff" points="189.8,-127.36 179.29,-128.75 188.37,-134.22 189.8,-127.36"/>
</a>
</g>
</g>
<!-- Node4&#45;&gt;Node10 -->
<g id="edge18_Node000004_Node000010" class="edge">
<title>Node4&#45;&gt;Node10</title>
<g id="a_edge18_Node000004_Node000010"><a xlink:title=" ">
<path fill="none" stroke="#63b8ff" d="M370.83,-175.19C332.73,-174.75 264.5,-168.14 224.62,-129.75 212.88,-118.45 208.31,-100.24 206.57,-86.15"/>
<polygon fill="#63b8ff" stroke="#63b8ff" points="210.06,-85.88 205.77,-76.2 203.08,-86.44 210.06,-85.88"/>
</a>
</g>
</g>
<!-- Node11 -->
<g id="Node000011" class="node">
<title>Node11</title>
<g id="a_Node000011"><a xlink:title=" ">
<polygon fill="#e0e0e0" stroke="#999999" points="277.12,-129.75 234.12,-129.75 234.12,-110.5 277.12,-110.5 277.12,-129.75"/>
<text text-anchor="middle" x="255.62" y="-116.25" font-family="Helvetica,sans-Serif" font-size="10.00">fcntl.h</text>
</a>
</g>
</g>
<!-- Node4&#45;&gt;Node11 -->
<g id="edge11_Node000004_Node000011" class="edge">
<title>Node4&#45;&gt;Node11</title>
<g id="a_edge11_Node000004_Node000011"><a xlink:title=" ">
<path fill="none" stroke="#63b8ff" d="M374.37,-165.34C350.52,-156.46 313.99,-142.86 287.74,-133.08"/>
<polygon fill="#63b8ff" stroke="#63b8ff" points="289.2,-129.89 278.61,-129.68 286.76,-136.45 289.2,-129.89"/>
</a>
</g>
</g>
<!-- Node12 -->
<g id="Node000012" class="node">
<title>Node12</title>
<g id="a_Node000012"><a xlink:title=" ">
<polygon fill="#e0e0e0" stroke="#999999" points="356.12,-129.75 295.12,-129.75 295.12,-110.5 356.12,-110.5 356.12,-129.75"/>
<text text-anchor="middle" x="325.62" y="-116.25" font-family="Helvetica,sans-Serif" font-size="10.00">filesystem</text>
</a>
</g>
</g>
<!-- Node4&#45;&gt;Node12 -->
<g id="edge12_Node000004_Node000012" class="edge">
<title>Node4&#45;&gt;Node12</title>
<g id="a_edge12_Node000004_Node000012"><a xlink:title=" ">
<path fill="none" stroke="#63b8ff" d="M386.24,-165.34C375.48,-157.49 359.65,-145.95 346.87,-136.62"/>
<polygon fill="#63b8ff" stroke="#63b8ff" points="349.19,-133.98 339.05,-130.92 345.06,-139.64 349.19,-133.98"/>
</a>
</g>
</g>
<!-- Node4&#45;&gt;Node13 -->
<g id="edge13_Node000004_Node000013" class="edge">
<title>Node4&#45;&gt;Node13</title>
<g id="a_edge13_Node000004_Node000013"><a xlink:title=" ">
<path fill="none" stroke="#63b8ff" d="M426.25,-170.2C470.68,-163.33 560.99,-148.72 646.59,-130.28"/>
<polygon fill="#63b8ff" stroke="#63b8ff" points="647.31,-133.71 656.33,-128.16 645.82,-126.87 647.31,-133.71"/>
</a>
</g>
</g>
<!-- Node14 -->
<g id="Node000014" class="node">
<title>Node14</title>
<g id="a_Node000014"><a xlink:title=" ">
<polygon fill="#e0e0e0" stroke="#999999" points="422.75,-129.75 374.5,-129.75 374.5,-110.5 422.75,-110.5 422.75,-129.75"/>
<text text-anchor="middle" x="398.62" y="-116.25" font-family="Helvetica,sans-Serif" font-size="10.00">istream</text>
</a>
</g>
</g>
<!-- Node4&#45;&gt;Node14 -->
<g id="edge14_Node000004_Node000014" class="edge">
<title>Node4&#45;&gt;Node14</title>
<g id="a_edge14_Node000004_Node000014"><a xlink:title=" ">
<path fill="none" stroke="#63b8ff" d="M398.62,-165.58C398.62,-159.07 398.62,-149.92 398.62,-141.62"/>
<polygon fill="#63b8ff" stroke="#63b8ff" points="402.13,-141.62 398.63,-131.62 395.13,-141.62 402.13,-141.62"/>
</a>
</g>
</g>
<!-- Node15 -->
<g id="Node000015" class="node">
<title>Node15</title>
<g id="a_Node000015"><a xlink:title=" ">
<polygon fill="#e0e0e0" stroke="#999999" points="494.38,-129.75 440.88,-129.75 440.88,-110.5 494.38,-110.5 494.38,-129.75"/>
<text text-anchor="middle" x="467.62" y="-116.25" font-family="Helvetica,sans-Serif" font-size="10.00">iostream</text>
</a>
</g>
</g>
<!-- Node4&#45;&gt;Node15 -->
<g id="edge15_Node000004_Node000015" class="edge">
<title>Node4&#45;&gt;Node15</title>
<g id="a_edge15_Node000004_Node000015"><a xlink:title=" ">
<path fill="none" stroke="#63b8ff" d="M410.33,-165.34C420.4,-157.57 435.17,-146.17 447.19,-136.9"/>
<polygon fill="#63b8ff" stroke="#63b8ff" points="449.12,-139.83 454.89,-130.95 444.84,-134.29 449.12,-139.83"/>
</a>
</g>
</g>
<!-- Node16 -->
<g id="Node000016" class="node">
<title>Node16</title>
<g id="a_Node000016"><a xlink:title=" ">
<polygon fill="#e0e0e0" stroke="#999999" points="563.25,-129.75 512,-129.75 512,-110.5 563.25,-110.5 563.25,-129.75"/>
<text text-anchor="middle" x="537.62" y="-116.25" font-family="Helvetica,sans-Serif" font-size="10.00">sstream</text>
</a>
</g>
</g>
<!-- Node4&#45;&gt;Node16 -->
<g id="edge16_Node000004_Node000016" class="edge">
<title>Node4&#45;&gt;Node16</title>
<g id="a_edge16_Node000004_Node000016"><a xlink:title=" ">
<path fill="none" stroke="#63b8ff" d="M422.2,-165.34C444.47,-156.81 478.12,-143.92 503.35,-134.26"/>
<polygon fill="#63b8ff" stroke="#63b8ff" points="504.43,-137.59 512.52,-130.74 501.93,-131.05 504.43,-137.59"/>
</a>
</g>
</g>
<!-- Node17 -->
<g id="Node000017" class="node">
<title>Node17</title>
<g id="a_Node000017"><a xlink:title=" ">
<polygon fill="#e0e0e0" stroke="#999999" points="640.38,-129.75 580.88,-129.75 580.88,-110.5 640.38,-110.5 640.38,-129.75"/>
<text text-anchor="middle" x="610.62" y="-116.25" font-family="Helvetica,sans-Serif" font-size="10.00">sys/stat.h</text>
</a>
</g>
</g>
<!-- Node4&#45;&gt;Node17 -->
<g id="edge17_Node000004_Node000017" class="edge">
<title>Node4&#45;&gt;Node17</title>
<g id="a_edge17_Node000004_Node000017"><a xlink:title=" ">
<path fill="none" stroke="#63b8ff" d="M426.34,-167.41C462.84,-158.25 527.31,-142.05 569.5,-131.45"/>
<polygon fill="#63b8ff" stroke="#63b8ff" points="570.19,-134.89 579.04,-129.06 568.49,-128.1 570.19,-134.89"/>
</a>
</g>
</g>
<!-- Node6 -->
<g id="Node000006" class="node">
<title>Node6</title>
<g id="a_Node000006"><a xlink:title=" ">
<polygon fill="#e0e0e0" stroke="#999999" points="68.12,-19.25 1.12,-19.25 1.12,0 68.12,0 68.12,-19.25"/>
<text text-anchor="middle" x="34.62" y="-5.75" font-family="Helvetica,sans-Serif" font-size="10.00">sys/types.h</text>
</a>
</g>
</g>
<!-- Node5&#45;&gt;Node6 -->
<g id="edge5_Node000005_Node000006" class="edge">
<title>Node5&#45;&gt;Node6</title>
<g id="a_edge5_Node000005_Node000006"><a xlink:title=" ">
<path fill="none" stroke="#63b8ff" d="M97.73,-54.84C86.6,-47.04 70.25,-35.59 56.99,-26.29"/>
<polygon fill="#63b8ff" stroke="#63b8ff" points="59.02,-23.44 48.82,-20.57 55,-29.18 59.02,-23.44"/>
</a>
</g>
</g>
<!-- Node7 -->
<g id="Node000007" class="node">
<title>Node7</title>
<g id="a_Node000007"><a xlink:title=" ">
<polygon fill="#e0e0e0" stroke="#999999" points="134.75,-19.25 86.5,-19.25 86.5,0 134.75,0 134.75,-19.25"/>
<text text-anchor="middle" x="110.62" y="-5.75" font-family="Helvetica,sans-Serif" font-size="10.00">stdint.h</text>
</a>
</g>
</g>
<!-- Node5&#45;&gt;Node7 -->
<g id="edge6_Node000005_Node000007" class="edge">
<title>Node5&#45;&gt;Node7</title>
<g id="a_edge6_Node000005_Node000007"><a xlink:title=" ">
<path fill="none" stroke="#63b8ff" d="M110.62,-55.08C110.62,-48.57 110.62,-39.42 110.62,-31.12"/>
<polygon fill="#63b8ff" stroke="#63b8ff" points="114.13,-31.12 110.63,-21.12 107.13,-31.12 114.13,-31.12"/>
</a>
</g>
</g>
<!-- Node8 -->
<g id="Node000008" class="node">
<title>Node8</title>
<g id="a_Node000008"><a xlink:title=" ">
<polygon fill="#e0e0e0" stroke="#999999" points="208.5,-19.25 152.75,-19.25 152.75,0 208.5,0 208.5,-19.25"/>
<text text-anchor="middle" x="180.62" y="-5.75" font-family="Helvetica,sans-Serif" font-size="10.00">stdbool.h</text>
</a>
</g>
</g>
<!-- Node5&#45;&gt;Node8 -->
<g id="edge7_Node000005_Node000008" class="edge">
<title>Node5&#45;&gt;Node8</title>
<g id="a_edge7_Node000005_Node000008"><a xlink:title=" ">
<path fill="none" stroke="#63b8ff" d="M122.5,-54.84C132.72,-47.07 147.7,-35.67 159.89,-26.4"/>
<polygon fill="#63b8ff" stroke="#63b8ff" points="161.88,-29.28 167.72,-20.44 157.64,-23.71 161.88,-29.28"/>
</a>
</g>
</g>
<!-- Node9&#45;&gt;Node5 -->
<g id="edge9_Node000009_Node000005" class="edge">
<title>Node9&#45;&gt;Node5</title>
<g id="a_edge9_Node000009_Node000005"><a xlink:title=" ">
<path fill="none" stroke="#63b8ff" d="M137.34,-110.33C133.15,-103.36 127.15,-93.37 121.89,-84.62"/>
<polygon fill="#63b8ff" stroke="#63b8ff" points="124.95,-82.93 116.8,-76.16 118.95,-86.53 124.95,-82.93"/>
</a>
</g>
</g>
<!-- Node9&#45;&gt;Node10 -->
<g id="edge10_Node000009_Node000010" class="edge">
<title>Node9&#45;&gt;Node10</title>
<g id="a_edge10_Node000009_Node000010"><a xlink:title=" ">
<path fill="none" stroke="#63b8ff" d="M153.31,-110.09C162.33,-102.47 175.46,-91.37 186.31,-82.2"/>
<polygon fill="#63b8ff" stroke="#63b8ff" points="188.56,-84.88 193.94,-75.75 184.04,-79.53 188.56,-84.88"/>
</a>
</g>
</g>
</g>
</svg>
