<?xml version="1.0" encoding="UTF-8" standalone="no"?>
<!DOCTYPE svg PUBLIC "-//W3C//DTD SVG 1.1//EN"
 "http://www.w3.org/Graphics/SVG/1.1/DTD/svg11.dtd">
<!-- Generated by graphviz version 10.0.1 (20240210.2158)
 -->
<!-- Title: /Users/hoff/Retro/virtualc64/Emulator/Peripherals/Joystick/JoystickTypes.h Pages: 1 -->
<svg width="1069pt" height="494pt"
 viewBox="0.00 0.00 1069.43 493.75" xmlns="http://www.w3.org/2000/svg" xmlns:xlink="http://www.w3.org/1999/xlink">
<g id="graph0" class="graph" transform="scale(1 1) rotate(0) translate(4 489.75)">
<title>/Users/hoff/Retro/virtualc64/Emulator/Peripherals/Joystick/JoystickTypes.h</title>
<!-- Node1 -->
<g id="Node000001" class="node">
<title>Node1</title>
<g id="a_Node000001"><a xlink:title=" ">
<polygon fill="#999999" stroke="#666666" points="741.18,-485.75 591.68,-485.75 591.68,-444 741.18,-444 741.18,-485.75"/>
<text text-anchor="start" x="599.68" y="-472.25" font-family="Helvetica,sans-Serif" font-size="10.00">/Users/hoff/Retro/virtualc64</text>
<text text-anchor="start" x="599.68" y="-461" font-family="Helvetica,sans-Serif" font-size="10.00">/Emulator/Peripherals/Joystick</text>
<text text-anchor="middle" x="666.43" y="-449.75" font-family="Helvetica,sans-Serif" font-size="10.00">/JoystickTypes.h</text>
</a>
</g>
</g>
<!-- Node2 -->
<g id="Node000002" class="node">
<title>Node2</title>
<g id="a_Node000002"><a xlink:href="_cmd_queue_types_8h.html" target="_top" xlink:title=" ">
<polygon fill="white" stroke="#666666" points="535.68,-402.38 365.18,-402.38 365.18,-371.88 535.68,-371.88 535.68,-402.38"/>
<text text-anchor="start" x="373.18" y="-388.88" font-family="Helvetica,sans-Serif" font-size="10.00">/Users/hoff/Retro/virtualc64</text>
<text text-anchor="middle" x="450.43" y="-377.62" font-family="Helvetica,sans-Serif" font-size="10.00">/Emulator/Base/CmdQueueTypes.h</text>
</a>
</g>
</g>
<!-- Node1&#45;&gt;Node2 -->
<g id="edge1_Node000001_Node000002" class="edge">
<title>Node1&#45;&gt;Node2</title>
<g id="a_edge1_Node000001_Node000002"><a xlink:title=" ">
<path fill="none" stroke="#63b8ff" d="M598.01,-439.88C563.33,-427.72 522.34,-413.34 492.37,-402.83"/>
<polygon fill="#63b8ff" stroke="#63b8ff" points="596.52,-443.07 607.12,-443.07 598.84,-436.46 596.52,-443.07"/>
</a>
</g>
</g>
<!-- Node12 -->
<g id="Node000012" class="node">
<title>Node12</title>
<g id="a_Node000012"><a xlink:href="_virtual_c64_types_8h.html" target="_top" xlink:title=" ">
<polygon fill="white" stroke="#666666" points="646.05,-324.62 504.8,-324.62 504.8,-294.12 646.05,-294.12 646.05,-324.62"/>
<text text-anchor="start" x="512.8" y="-311.12" font-family="Helvetica,sans-Serif" font-size="10.00">/Users/hoff/Retro/virtualc64</text>
<text text-anchor="middle" x="575.43" y="-299.88" font-family="Helvetica,sans-Serif" font-size="10.00">/Emulator/VirtualC64Types.h</text>
</a>
</g>
</g>
<!-- Node1&#45;&gt;Node12 -->
<g id="edge29_Node000001_Node000012" class="edge">
<title>Node1&#45;&gt;Node12</title>
<g id="a_edge29_Node000001_Node000012"><a xlink:title=" ">
<path fill="none" stroke="#63b8ff" d="M610.77,-437.32C599.62,-429.44 589.25,-419.7 582.43,-408 567.28,-382.02 569.74,-345.29 572.69,-325.1"/>
<polygon fill="#63b8ff" stroke="#63b8ff" points="608.7,-440.15 618.98,-442.68 612.52,-434.29 608.7,-440.15"/>
</a>
</g>
</g>
<!-- Node16 -->
<g id="Node000016" class="node">
<title>Node16</title>
<g id="a_Node000016"><a xlink:href="_joystick_8h_source.html" target="_top" xlink:title=" ">
<polygon fill="white" stroke="#666666" points="741.18,-408 591.68,-408 591.68,-366.25 741.18,-366.25 741.18,-408"/>
<text text-anchor="start" x="599.68" y="-394.5" font-family="Helvetica,sans-Serif" font-size="10.00">/Users/hoff/Retro/virtualc64</text>
<text text-anchor="start" x="599.68" y="-383.25" font-family="Helvetica,sans-Serif" font-size="10.00">/Emulator/Peripherals/Joystick</text>
<text text-anchor="middle" x="666.43" y="-372" font-family="Helvetica,sans-Serif" font-size="10.00">/Joystick.h</text>
</a>
</g>
</g>
<!-- Node1&#45;&gt;Node16 -->
<g id="edge22_Node000001_Node000016" class="edge">
<title>Node1&#45;&gt;Node16</title>
<g id="a_edge22_Node000001_Node000016"><a xlink:title=" ">
<path fill="none" stroke="#63b8ff" d="M666.43,-432.25C666.43,-424.21 666.43,-415.79 666.43,-408.48"/>
<polygon fill="#63b8ff" stroke="#63b8ff" points="662.93,-432.06 666.43,-442.06 669.93,-432.06 662.93,-432.06"/>
</a>
</g>
</g>
<!-- Node17 -->
<g id="Node000017" class="node">
<title>Node17</title>
<g id="a_Node000017"><a xlink:href="_mouse_8h_source.html" target="_top" xlink:title=" ">
<polygon fill="white" stroke="#666666" points="1061.43,-408 919.43,-408 919.43,-366.25 1061.43,-366.25 1061.43,-408"/>
<text text-anchor="start" x="927.43" y="-394.5" font-family="Helvetica,sans-Serif" font-size="10.00">/Users/hoff/Retro/virtualc64</text>
<text text-anchor="start" x="927.43" y="-383.25" font-family="Helvetica,sans-Serif" font-size="10.00">/Emulator/Peripherals/Mouse</text>
<text text-anchor="middle" x="990.43" y="-372" font-family="Helvetica,sans-Serif" font-size="10.00">/Mouse.h</text>
</a>
</g>
</g>
<!-- Node1&#45;&gt;Node17 -->
<g id="edge24_Node000001_Node000017" class="edge">
<title>Node1&#45;&gt;Node17</title>
<g id="a_edge24_Node000001_Node000017"><a xlink:title=" ">
<path fill="none" stroke="#63b8ff" d="M752.54,-444.56C799.3,-433.97 858.09,-420.49 910.43,-408 913.35,-407.3 916.33,-406.59 919.35,-405.86"/>
<polygon fill="#63b8ff" stroke="#63b8ff" points="751.99,-441.1 743.01,-446.72 753.54,-447.92 751.99,-441.1"/>
</a>
</g>
</g>
<!-- Node18 -->
<g id="Node000018" class="node">
<title>Node18</title>
<g id="a_Node000018"><a xlink:href="_paddle_8h_source.html" target="_top" xlink:title=" ">
<polygon fill="white" stroke="#666666" points="901.8,-408 759.05,-408 759.05,-366.25 901.8,-366.25 901.8,-408"/>
<text text-anchor="start" x="767.05" y="-394.5" font-family="Helvetica,sans-Serif" font-size="10.00">/Users/hoff/Retro/virtualc64</text>
<text text-anchor="start" x="767.05" y="-383.25" font-family="Helvetica,sans-Serif" font-size="10.00">/Emulator/Peripherals/Paddle</text>
<text text-anchor="middle" x="830.43" y="-372" font-family="Helvetica,sans-Serif" font-size="10.00">/Paddle.h</text>
</a>
</g>
</g>
<!-- Node1&#45;&gt;Node18 -->
<g id="edge27_Node000001_Node000018" class="edge">
<title>Node1&#45;&gt;Node18</title>
<g id="a_edge27_Node000001_Node000018"><a xlink:title=" ">
<path fill="none" stroke="#63b8ff" d="M720.59,-438.86C741.93,-429 766.12,-417.83 786.36,-408.48"/>
<polygon fill="#63b8ff" stroke="#63b8ff" points="719.36,-435.57 711.75,-442.94 722.3,-441.92 719.36,-435.57"/>
</a>
</g>
</g>
<!-- Node3 -->
<g id="Node000003" class="node">
<title>Node3</title>
<g id="a_Node000003"><a xlink:href="_cmd_queue_8h.html" target="_top" xlink:title=" ">
<polygon fill="white" stroke="#666666" points="280.55,-324.62 136.3,-324.62 136.3,-294.12 280.55,-294.12 280.55,-324.62"/>
<text text-anchor="start" x="144.3" y="-311.12" font-family="Helvetica,sans-Serif" font-size="10.00">/Users/hoff/Retro/virtualc64</text>
<text text-anchor="middle" x="208.43" y="-299.88" font-family="Helvetica,sans-Serif" font-size="10.00">/Emulator/Base/CmdQueue.h</text>
</a>
</g>
</g>
<!-- Node2&#45;&gt;Node3 -->
<g id="edge2_Node000002_Node000003" class="edge">
<title>Node2&#45;&gt;Node3</title>
<g id="a_edge2_Node000002_Node000003"><a xlink:title=" ">
<path fill="none" stroke="#63b8ff" d="M392.58,-368.02C350.57,-354.87 294.45,-337.3 255.25,-325.03"/>
<polygon fill="#63b8ff" stroke="#63b8ff" points="391.45,-371.33 402.04,-370.98 393.54,-364.65 391.45,-371.33"/>
</a>
</g>
</g>
<!-- Node7 -->
<g id="Node000007" class="node">
<title>Node7</title>
<g id="a_Node000007"><a xlink:href="_drive_8h_source.html" target="_top" xlink:title=" ">
<polygon fill="white" stroke="#666666" points="476.8,-174.75 340.05,-174.75 340.05,-133 476.8,-133 476.8,-174.75"/>
<text text-anchor="start" x="348.05" y="-161.25" font-family="Helvetica,sans-Serif" font-size="10.00">/Users/hoff/Retro/virtualc64</text>
<text text-anchor="start" x="348.05" y="-150" font-family="Helvetica,sans-Serif" font-size="10.00">/Emulator/Peripherals/Drive</text>
<text text-anchor="middle" x="408.43" y="-138.75" font-family="Helvetica,sans-Serif" font-size="10.00">/Drive.h</text>
</a>
</g>
</g>
<!-- Node2&#45;&gt;Node7 -->
<g id="edge17_Node000002_Node000007" class="edge">
<title>Node2&#45;&gt;Node7</title>
<g id="a_edge17_Node000002_Node000007"><a xlink:title=" ">
<path fill="none" stroke="#63b8ff" d="M446.02,-360.28C440.15,-326.05 429.34,-263.81 419.43,-210.75 417.21,-198.89 414.61,-185.65 412.49,-175.03"/>
<polygon fill="#63b8ff" stroke="#63b8ff" points="442.56,-360.8 447.7,-370.07 449.46,-359.62 442.56,-360.8"/>
</a>
</g>
</g>
<!-- Node10 -->
<g id="Node000010" class="node">
<title>Node10</title>
<g id="a_Node000010"><a xlink:href="_control_port_8h_source.html" target="_top" xlink:title=" ">
<polygon fill="white" stroke="#666666" points="806.8,-330.25 664.05,-330.25 664.05,-288.5 806.8,-288.5 806.8,-330.25"/>
<text text-anchor="start" x="672.05" y="-316.75" font-family="Helvetica,sans-Serif" font-size="10.00">/Users/hoff/Retro/virtualc64</text>
<text text-anchor="start" x="672.05" y="-305.5" font-family="Helvetica,sans-Serif" font-size="10.00">/Emulator/Components/Ports</text>
<text text-anchor="middle" x="735.43" y="-294.25" font-family="Helvetica,sans-Serif" font-size="10.00">/ControlPort.h</text>
</a>
</g>
</g>
<!-- Node2&#45;&gt;Node10 -->
<g id="edge13_Node000002_Node000010" class="edge">
<title>Node2&#45;&gt;Node10</title>
<g id="a_edge13_Node000002_Node000010"><a xlink:title=" ">
<path fill="none" stroke="#63b8ff" d="M516.61,-368.53C560.71,-356.81 618.63,-341.42 663.81,-329.41"/>
<polygon fill="#63b8ff" stroke="#63b8ff" points="515.95,-365.09 507.18,-371.04 517.74,-371.85 515.95,-365.09"/>
</a>
</g>
</g>
<!-- Node11 -->
<g id="Node000011" class="node">
<title>Node11</title>
<g id="a_Node000011"><a xlink:href="_expansion_port_8h_source.html" target="_top" xlink:title=" ">
<polygon fill="white" stroke="#666666" points="637.8,-174.75 495.05,-174.75 495.05,-133 637.8,-133 637.8,-174.75"/>
<text text-anchor="start" x="503.05" y="-161.25" font-family="Helvetica,sans-Serif" font-size="10.00">/Users/hoff/Retro/virtualc64</text>
<text text-anchor="start" x="503.05" y="-150" font-family="Helvetica,sans-Serif" font-size="10.00">/Emulator/Components/Ports</text>
<text text-anchor="middle" x="566.43" y="-138.75" font-family="Helvetica,sans-Serif" font-size="10.00">/ExpansionPort.h</text>
</a>
</g>
</g>
<!-- Node2&#45;&gt;Node11 -->
<g id="edge15_Node000002_Node000011" class="edge">
<title>Node2&#45;&gt;Node11</title>
<g id="a_edge15_Node000002_Node000011"><a xlink:title=" ">
<path fill="none" stroke="#63b8ff" d="M461.49,-361.12C470.37,-341.28 483.32,-312.94 495.43,-288.5 515.61,-247.78 540.94,-201.07 555.24,-175.06"/>
<polygon fill="#63b8ff" stroke="#63b8ff" points="458.37,-359.51 457.5,-370.07 464.77,-362.36 458.37,-359.51"/>
</a>
</g>
</g>
<!-- Node2&#45;&gt;Node12 -->
<g id="edge18_Node000002_Node000012" class="edge">
<title>Node2&#45;&gt;Node12</title>
<g id="a_edge18_Node000002_Node000012"><a xlink:title=" ">
<path fill="none" stroke="#63b8ff" d="M484.14,-365.69C505.39,-352.82 532.31,-336.5 551.4,-324.94"/>
<polygon fill="#63b8ff" stroke="#63b8ff" points="482.56,-362.56 475.82,-370.74 486.19,-368.55 482.56,-362.56"/>
</a>
</g>
</g>
<!-- Node4 -->
<g id="Node000004" class="node">
<title>Node4</title>
<g id="a_Node000004"><a xlink:href="_c_p_u_8h_source.html" target="_top" xlink:title=" ">
<polygon fill="white" stroke="#666666" points="410.55,-246.88 236.3,-246.88 236.3,-216.38 410.55,-216.38 410.55,-246.88"/>
<text text-anchor="start" x="244.3" y="-233.38" font-family="Helvetica,sans-Serif" font-size="10.00">/Users/hoff/Retro/virtualc64</text>
<text text-anchor="middle" x="323.43" y="-222.12" font-family="Helvetica,sans-Serif" font-size="10.00">/Emulator/Components/CPU/CPU.h</text>
</a>
</g>
</g>
<!-- Node3&#45;&gt;Node4 -->
<g id="edge3_Node000003_Node000004" class="edge">
<title>Node3&#45;&gt;Node4</title>
<g id="a_edge3_Node000003_Node000004"><a xlink:title=" ">
<path fill="none" stroke="#63b8ff" d="M239.98,-287.59C259.44,-274.77 283.92,-258.65 301.32,-247.19"/>
<polygon fill="#63b8ff" stroke="#63b8ff" points="238.29,-284.51 231.87,-292.94 242.14,-290.36 238.29,-284.51"/>
</a>
</g>
</g>
<!-- Node6 -->
<g id="Node000006" class="node">
<title>Node6</title>
<g id="a_Node000006"><a xlink:href="_emulator_8h_source.html" target="_top" xlink:title=" ">
<polygon fill="white" stroke="#666666" points="237.43,-30.5 71.43,-30.5 71.43,0 237.43,0 237.43,-30.5"/>
<text text-anchor="start" x="79.43" y="-17" font-family="Helvetica,sans-Serif" font-size="10.00">/Users/hoff/Retro/virtualc64</text>
<text text-anchor="middle" x="154.43" y="-5.75" font-family="Helvetica,sans-Serif" font-size="10.00">/Emulator/Components/Emulator.h</text>
</a>
</g>
</g>
<!-- Node3&#45;&gt;Node6 -->
<g id="edge8_Node000003_Node000006" class="edge">
<title>Node3&#45;&gt;Node6</title>
<g id="a_edge8_Node000003_Node000006"><a xlink:title=" ">
<path fill="none" stroke="#63b8ff" d="M124.85,-294.42C79.16,-284.91 29.13,-270.73 15.43,-252.5 -43.47,-174.13 82.43,-68.91 133.85,-30.8"/>
<polygon fill="#63b8ff" stroke="#63b8ff" points="124.06,-297.83 134.55,-296.38 125.44,-290.97 124.06,-297.83"/>
</a>
</g>
</g>
<!-- Node8 -->
<g id="Node000008" class="node">
<title>Node8</title>
<g id="a_Node000008"><a xlink:href="_datasette_8h_source.html" target="_top" xlink:title=" ">
<polygon fill="white" stroke="#666666" points="180.18,-252.5 24.68,-252.5 24.68,-210.75 180.18,-210.75 180.18,-252.5"/>
<text text-anchor="start" x="32.68" y="-239" font-family="Helvetica,sans-Serif" font-size="10.00">/Users/hoff/Retro/virtualc64</text>
<text text-anchor="start" x="32.68" y="-227.75" font-family="Helvetica,sans-Serif" font-size="10.00">/Emulator/Peripherals/Datasette</text>
<text text-anchor="middle" x="102.43" y="-216.5" font-family="Helvetica,sans-Serif" font-size="10.00">/Datasette.h</text>
</a>
</g>
</g>
<!-- Node3&#45;&gt;Node8 -->
<g id="edge9_Node000003_Node000008" class="edge">
<title>Node3&#45;&gt;Node8</title>
<g id="a_edge9_Node000003_Node000008"><a xlink:title=" ">
<path fill="none" stroke="#63b8ff" d="M178.66,-287.1C163.67,-276.39 145.6,-263.48 130.82,-252.91"/>
<polygon fill="#63b8ff" stroke="#63b8ff" points="176.59,-289.92 186.76,-292.89 180.66,-284.23 176.59,-289.92"/>
</a>
</g>
</g>
<!-- Node9 -->
<g id="Node000009" class="node">
<title>Node9</title>
<g id="a_Node000009"><a xlink:href="_keyboard_8h_source.html" target="_top" xlink:title=" ">
<polygon fill="white" stroke="#666666" points="284.43,-174.75 130.43,-174.75 130.43,-133 284.43,-133 284.43,-174.75"/>
<text text-anchor="start" x="138.43" y="-161.25" font-family="Helvetica,sans-Serif" font-size="10.00">/Users/hoff/Retro/virtualc64</text>
<text text-anchor="start" x="138.43" y="-150" font-family="Helvetica,sans-Serif" font-size="10.00">/Emulator/Peripherals/Keyboard</text>
<text text-anchor="middle" x="207.43" y="-138.75" font-family="Helvetica,sans-Serif" font-size="10.00">/Keyboard.h</text>
</a>
</g>
</g>
<!-- Node3&#45;&gt;Node9 -->
<g id="edge11_Node000003_Node000009" class="edge">
<title>Node3&#45;&gt;Node9</title>
<g id="a_edge11_Node000003_Node000009"><a xlink:title=" ">
<path fill="none" stroke="#63b8ff" d="M208.26,-282.32C208.06,-252.02 207.74,-202.63 207.56,-175.08"/>
<polygon fill="#63b8ff" stroke="#63b8ff" points="204.76,-282.17 208.32,-292.14 211.76,-282.12 204.76,-282.17"/>
</a>
</g>
</g>
<!-- Node5 -->
<g id="Node000005" class="node">
<title>Node5</title>
<g id="a_Node000005"><a xlink:href="_c64_8h_source.html" target="_top" xlink:title=" ">
<polygon fill="white" stroke="#666666" points="433.3,-97 287.55,-97 287.55,-66.5 433.3,-66.5 433.3,-97"/>
<text text-anchor="start" x="295.55" y="-83.5" font-family="Helvetica,sans-Serif" font-size="10.00">/Users/hoff/Retro/virtualc64</text>
<text text-anchor="middle" x="360.43" y="-72.25" font-family="Helvetica,sans-Serif" font-size="10.00">/Emulator/Components/C64.h</text>
</a>
</g>
</g>
<!-- Node4&#45;&gt;Node5 -->
<g id="edge4_Node000004_Node000005" class="edge">
<title>Node4&#45;&gt;Node5</title>
<g id="a_edge4_Node000004_Node000005"><a xlink:title=" ">
<path fill="none" stroke="#63b8ff" d="M322.49,-204.72C322.49,-184.7 324.08,-156.53 331.43,-133 335.45,-120.12 343.21,-106.95 349.69,-97.33"/>
<polygon fill="#63b8ff" stroke="#63b8ff" points="318.99,-204.56 322.64,-214.51 325.99,-204.46 318.99,-204.56"/>
</a>
</g>
</g>
<!-- Node4&#45;&gt;Node7 -->
<g id="edge6_Node000004_Node000007" class="edge">
<title>Node4&#45;&gt;Node7</title>
<g id="a_edge6_Node000004_Node000007"><a xlink:title=" ">
<path fill="none" stroke="#63b8ff" d="M348.34,-208.43C360.14,-197.91 374.15,-185.43 385.66,-175.16"/>
<polygon fill="#63b8ff" stroke="#63b8ff" points="346.08,-205.75 340.95,-215.01 350.74,-210.97 346.08,-205.75"/>
</a>
</g>
</g>
<!-- Node5&#45;&gt;Node6 -->
<g id="edge5_Node000005_Node000006" class="edge">
<title>Node5&#45;&gt;Node6</title>
<g id="a_edge5_Node000005_Node000006"><a xlink:title=" ">
<path fill="none" stroke="#63b8ff" d="M302.44,-62.59C270.45,-52.58 231.25,-40.3 201.23,-30.9"/>
<polygon fill="#63b8ff" stroke="#63b8ff" points="301.39,-65.93 311.98,-65.58 303.48,-59.25 301.39,-65.93"/>
</a>
</g>
</g>
<!-- Node7&#45;&gt;Node5 -->
<g id="edge7_Node000007_Node000005" class="edge">
<title>Node7&#45;&gt;Node5</title>
<g id="a_edge7_Node000007_Node000005"><a xlink:title=" ">
<path fill="none" stroke="#63b8ff" d="M388.08,-123.15C381.93,-114.17 375.46,-104.71 370.32,-97.2"/>
<polygon fill="#63b8ff" stroke="#63b8ff" points="385.15,-125.07 393.69,-131.34 390.93,-121.11 385.15,-125.07"/>
</a>
</g>
</g>
<!-- Node8&#45;&gt;Node5 -->
<g id="edge10_Node000008_Node000005" class="edge">
<title>Node8&#45;&gt;Node5</title>
<g id="a_edge10_Node000008_Node000005"><a xlink:title=" ">
<path fill="none" stroke="#63b8ff" d="M100.15,-198.99C100.41,-177.57 104.54,-150.15 121.43,-133 144.27,-109.82 225.64,-96.37 287.15,-89.32"/>
<polygon fill="#63b8ff" stroke="#63b8ff" points="96.65,-199.04 100.34,-208.97 103.65,-198.91 96.65,-199.04"/>
</a>
</g>
</g>
<!-- Node9&#45;&gt;Node5 -->
<g id="edge12_Node000009_Node000005" class="edge">
<title>Node9&#45;&gt;Node5</title>
<g id="a_edge12_Node000009_Node000005"><a xlink:title=" ">
<path fill="none" stroke="#63b8ff" d="M262.02,-127.86C284.26,-117.66 309.21,-106.22 328.42,-97.42"/>
<polygon fill="#63b8ff" stroke="#63b8ff" points="260.69,-124.61 253.06,-131.96 263.61,-130.98 260.69,-124.61"/>
</a>
</g>
</g>
<!-- Node10&#45;&gt;Node5 -->
<g id="edge14_Node000010_Node000005" class="edge">
<title>Node10&#45;&gt;Node5</title>
<g id="a_edge14_Node000010_Node000005"><a xlink:title=" ">
<path fill="none" stroke="#63b8ff" d="M705.13,-279.93C697.57,-271.65 690.04,-262.21 684.43,-252.5 656.55,-204.24 688.39,-169.68 646.43,-133 615.45,-105.92 507.68,-92.94 433.65,-87.09"/>
<polygon fill="#63b8ff" stroke="#63b8ff" points="702.45,-282.19 711.89,-287 707.51,-277.36 702.45,-282.19"/>
</a>
</g>
</g>
<!-- Node11&#45;&gt;Node5 -->
<g id="edge16_Node000011_Node000005" class="edge">
<title>Node11&#45;&gt;Node5</title>
<g id="a_edge16_Node000011_Node000005"><a xlink:title=" ">
<path fill="none" stroke="#63b8ff" d="M496.17,-128.96C465.42,-118.49 430.32,-106.54 403.52,-97.42"/>
<polygon fill="#63b8ff" stroke="#63b8ff" points="494.82,-132.19 505.41,-132.1 497.07,-125.57 494.82,-132.19"/>
</a>
</g>
</g>
<!-- Node13 -->
<g id="Node000013" class="node">
<title>Node13</title>
<g id="a_Node000013"><a xlink:href="_virtual_c64_8h.html" target="_top" xlink:title=" ">
<polygon fill="white" stroke="#666666" points="829.8,-246.88 693.05,-246.88 693.05,-216.38 829.8,-216.38 829.8,-246.88"/>
<text text-anchor="start" x="701.05" y="-233.38" font-family="Helvetica,sans-Serif" font-size="10.00">/Users/hoff/Retro/virtualc64</text>
<text text-anchor="middle" x="761.43" y="-222.12" font-family="Helvetica,sans-Serif" font-size="10.00">/Emulator/VirtualC64.h</text>
</a>
</g>
</g>
<!-- Node12&#45;&gt;Node13 -->
<g id="edge19_Node000012_Node000013" class="edge">
<title>Node12&#45;&gt;Node13</title>
<g id="a_edge19_Node000012_Node000013"><a xlink:title=" ">
<path fill="none" stroke="#63b8ff" d="M621.74,-289.51C653.78,-276.46 695.8,-259.35 725.36,-247.31"/>
<polygon fill="#63b8ff" stroke="#63b8ff" points="620.63,-286.19 612.69,-293.2 623.28,-292.67 620.63,-286.19"/>
</a>
</g>
</g>
<!-- Node14 -->
<g id="Node000014" class="node">
<title>Node14</title>
<g id="a_Node000014"><a xlink:href="_headless_8h_source.html" target="_top" xlink:title=" ">
<polygon fill="white" stroke="#666666" points="829.8,-169.12 693.05,-169.12 693.05,-138.62 829.8,-138.62 829.8,-169.12"/>
<text text-anchor="start" x="701.05" y="-155.62" font-family="Helvetica,sans-Serif" font-size="10.00">/Users/hoff/Retro/virtualc64</text>
<text text-anchor="middle" x="761.43" y="-144.38" font-family="Helvetica,sans-Serif" font-size="10.00">/Emulator/Headless.h</text>
</a>
</g>
</g>
<!-- Node13&#45;&gt;Node14 -->
<g id="edge20_Node000013_Node000014" class="edge">
<title>Node13&#45;&gt;Node14</title>
<g id="a_edge20_Node000013_Node000014"><a xlink:title=" ">
<path fill="none" stroke="#63b8ff" d="M761.43,-204.6C761.43,-192.84 761.43,-179.38 761.43,-169.44"/>
<polygon fill="#63b8ff" stroke="#63b8ff" points="757.93,-204.51 761.43,-214.51 764.93,-204.51 757.93,-204.51"/>
</a>
</g>
</g>
<!-- Node15 -->
<g id="Node000015" class="node">
<title>Node15</title>
<g id="a_Node000015"><a xlink:href="_headless_8cpp.html" target="_top" xlink:title=" ">
<polygon fill="white" stroke="#666666" points="829.8,-97 693.05,-97 693.05,-66.5 829.8,-66.5 829.8,-97"/>
<text text-anchor="start" x="701.05" y="-83.5" font-family="Helvetica,sans-Serif" font-size="10.00">/Users/hoff/Retro/virtualc64</text>
<text text-anchor="middle" x="761.43" y="-72.25" font-family="Helvetica,sans-Serif" font-size="10.00">/Emulator/Headless.cpp</text>
</a>
</g>
</g>
<!-- Node14&#45;&gt;Node15 -->
<g id="edge21_Node000014_Node000015" class="edge">
<title>Node14&#45;&gt;Node15</title>
<g id="a_edge21_Node000014_Node000015"><a xlink:title=" ">
<path fill="none" stroke="#63b8ff" d="M761.43,-126.9C761.43,-116.89 761.43,-105.81 761.43,-97.26"/>
<polygon fill="#63b8ff" stroke="#63b8ff" points="757.93,-126.83 761.43,-136.83 764.93,-126.83 757.93,-126.83"/>
</a>
</g>
</g>
<!-- Node16&#45;&gt;Node10 -->
<g id="edge23_Node000016_Node000010" class="edge">
<title>Node16&#45;&gt;Node10</title>
<g id="a_edge23_Node000016_Node000010"><a xlink:title=" ">
<path fill="none" stroke="#63b8ff" d="M692.45,-357.56C700.58,-348.64 709.38,-338.97 716.89,-330.73"/>
<polygon fill="#63b8ff" stroke="#63b8ff" points="690.09,-354.96 685.94,-364.71 695.26,-359.67 690.09,-354.96"/>
</a>
</g>
</g>
<!-- Node17&#45;&gt;Node5 -->
<g id="edge25_Node000017_Node000005" class="edge">
<title>Node17&#45;&gt;Node5</title>
<g id="a_edge25_Node000017_Node000005"><a xlink:title=" ">
<path fill="none" stroke="#63b8ff" d="M981.83,-355.16C964.72,-299.96 920.76,-185.47 838.43,-133 805.09,-111.75 559.19,-94.43 433.69,-86.86"/>
<polygon fill="#63b8ff" stroke="#63b8ff" points="978.42,-355.97 984.64,-364.54 985.12,-353.96 978.42,-355.97"/>
</a>
</g>
</g>
<!-- Node17&#45;&gt;Node10 -->
<g id="edge26_Node000017_Node000010" class="edge">
<title>Node17&#45;&gt;Node10</title>
<g id="a_edge26_Node000017_Node000010"><a xlink:title=" ">
<path fill="none" stroke="#63b8ff" d="M911.15,-362.57C876.81,-352.37 836.99,-340.55 803.95,-330.73"/>
<polygon fill="#63b8ff" stroke="#63b8ff" points="910.06,-365.9 920.64,-365.39 912.05,-359.19 910.06,-365.9"/>
</a>
</g>
</g>
<!-- Node18&#45;&gt;Node10 -->
<g id="edge28_Node000018_Node000010" class="edge">
<title>Node18&#45;&gt;Node10</title>
<g id="a_edge28_Node000018_Node000010"><a xlink:title=" ">
<path fill="none" stroke="#63b8ff" d="M795.99,-358.66C784.42,-349.44 771.72,-339.31 760.96,-330.73"/>
<polygon fill="#63b8ff" stroke="#63b8ff" points="793.79,-361.38 803.79,-364.88 798.15,-355.91 793.79,-361.38"/>
</a>
</g>
</g>
</g>
</svg>
