<?xml version="1.0" encoding="UTF-8" standalone="no"?>
<!DOCTYPE svg PUBLIC "-//W3C//DTD SVG 1.1//EN"
 "http://www.w3.org/Graphics/SVG/1.1/DTD/svg11.dtd">
<!-- Generated by graphviz version 10.0.1 (20240210.2158)
 -->
<!-- Title: /Users/hoff/Retro/virtualc64/Emulator/Peripherals/Joystick/JoystickTypes.h Pages: 1 -->
<svg width="930pt" height="549pt"
 viewBox="0.00 0.00 930.12 549.00" xmlns="http://www.w3.org/2000/svg" xmlns:xlink="http://www.w3.org/1999/xlink">
<g id="graph0" class="graph" transform="scale(1 1) rotate(0) translate(4 545)">
<title>/Users/hoff/Retro/virtualc64/Emulator/Peripherals/Joystick/JoystickTypes.h</title>
<!-- Node1 -->
<g id="Node000001" class="node">
<title>Node1</title>
<g id="a_Node000001"><a xlink:title=" ">
<polygon fill="#999999" stroke="#666666" points="782.24,-541 632.74,-541 632.74,-499.25 782.24,-499.25 782.24,-541"/>
<text text-anchor="start" x="640.74" y="-527.5" font-family="Helvetica,sans-Serif" font-size="10.00">/Users/hoff/Retro/virtualc64</text>
<text text-anchor="start" x="640.74" y="-516.25" font-family="Helvetica,sans-Serif" font-size="10.00">/Emulator/Peripherals/Joystick</text>
<text text-anchor="middle" x="707.49" y="-505" font-family="Helvetica,sans-Serif" font-size="10.00">/JoystickTypes.h</text>
</a>
</g>
</g>
<!-- Node2 -->
<g id="Node000002" class="node">
<title>Node2</title>
<g id="a_Node000002"><a xlink:href="_cmd_queue_types_8h.html" target="_top" xlink:title=" ">
<polygon fill="white" stroke="#666666" points="532.74,-457.62 362.24,-457.62 362.24,-427.12 532.74,-427.12 532.74,-457.62"/>
<text text-anchor="start" x="370.24" y="-444.12" font-family="Helvetica,sans-Serif" font-size="10.00">/Users/hoff/Retro/virtualc64</text>
<text text-anchor="middle" x="447.49" y="-432.88" font-family="Helvetica,sans-Serif" font-size="10.00">/Emulator/Base/CmdQueueTypes.h</text>
</a>
</g>
</g>
<!-- Node1&#45;&gt;Node2 -->
<g id="edge1_Node000001_Node000002" class="edge">
<title>Node1&#45;&gt;Node2</title>
<g id="a_edge1_Node000001_Node000002"><a xlink:title=" ">
<path fill="none" stroke="#63b8ff" d="M627.02,-495.68C584.89,-483.4 534.6,-468.75 497.98,-458.08"/>
<polygon fill="#63b8ff" stroke="#63b8ff" points="625.79,-498.97 636.37,-498.4 627.74,-492.24 625.79,-498.97"/>
</a>
</g>
</g>
<!-- Node13 -->
<g id="Node000013" class="node">
<title>Node13</title>
<g id="a_Node000013"><a xlink:href="_virtual_c64_types_8h.html" target="_top" xlink:title=" ">
<polygon fill="white" stroke="#666666" points="922.12,-379.88 780.87,-379.88 780.87,-349.38 922.12,-349.38 922.12,-379.88"/>
<text text-anchor="start" x="788.87" y="-366.38" font-family="Helvetica,sans-Serif" font-size="10.00">/Users/hoff/Retro/virtualc64</text>
<text text-anchor="middle" x="851.49" y="-355.12" font-family="Helvetica,sans-Serif" font-size="10.00">/Emulator/VirtualC64Types.h</text>
</a>
</g>
</g>
<!-- Node1&#45;&gt;Node13 -->
<g id="edge24_Node000001_Node000013" class="edge">
<title>Node1&#45;&gt;Node13</title>
<g id="a_edge24_Node000001_Node000013"><a xlink:title=" ">
<path fill="none" stroke="#63b8ff" d="M793.73,-509.61C822.6,-501.84 851.88,-487.95 869.49,-463.25 887.3,-438.27 871.64,-400.83 860.45,-380.33"/>
<polygon fill="#63b8ff" stroke="#63b8ff" points="793.07,-506.17 784.19,-511.94 794.73,-512.97 793.07,-506.17"/>
</a>
</g>
</g>
<!-- Node14 -->
<g id="Node000014" class="node">
<title>Node14</title>
<g id="a_Node000014"><a xlink:href="_joystick_8h_source.html" target="_top" xlink:title=" ">
<polygon fill="white" stroke="#666666" points="700.24,-463.25 550.74,-463.25 550.74,-421.5 700.24,-421.5 700.24,-463.25"/>
<text text-anchor="start" x="558.74" y="-449.75" font-family="Helvetica,sans-Serif" font-size="10.00">/Users/hoff/Retro/virtualc64</text>
<text text-anchor="start" x="558.74" y="-438.5" font-family="Helvetica,sans-Serif" font-size="10.00">/Emulator/Peripherals/Joystick</text>
<text text-anchor="middle" x="625.49" y="-427.25" font-family="Helvetica,sans-Serif" font-size="10.00">/Joystick.h</text>
</a>
</g>
</g>
<!-- Node1&#45;&gt;Node14 -->
<g id="edge19_Node000001_Node000014" class="edge">
<title>Node1&#45;&gt;Node14</title>
<g id="a_edge19_Node000001_Node000014"><a xlink:title=" ">
<path fill="none" stroke="#63b8ff" d="M677.17,-491.11C667.34,-482.03 656.64,-472.14 647.53,-463.73"/>
<polygon fill="#63b8ff" stroke="#63b8ff" points="674.69,-493.58 684.41,-497.8 679.44,-488.44 674.69,-493.58"/>
</a>
</g>
</g>
<!-- Node15 -->
<g id="Node000015" class="node">
<title>Node15</title>
<g id="a_Node000015"><a xlink:href="_mouse_8h_source.html" target="_top" xlink:title=" ">
<polygon fill="white" stroke="#666666" points="860.49,-463.25 718.49,-463.25 718.49,-421.5 860.49,-421.5 860.49,-463.25"/>
<text text-anchor="start" x="726.49" y="-449.75" font-family="Helvetica,sans-Serif" font-size="10.00">/Users/hoff/Retro/virtualc64</text>
<text text-anchor="start" x="726.49" y="-438.5" font-family="Helvetica,sans-Serif" font-size="10.00">/Emulator/Peripherals/Mouse</text>
<text text-anchor="middle" x="789.49" y="-427.25" font-family="Helvetica,sans-Serif" font-size="10.00">/Mouse.h</text>
</a>
</g>
</g>
<!-- Node1&#45;&gt;Node15 -->
<g id="edge21_Node000001_Node000015" class="edge">
<title>Node1&#45;&gt;Node15</title>
<g id="a_edge21_Node000001_Node000015"><a xlink:title=" ">
<path fill="none" stroke="#63b8ff" d="M737.82,-491.11C747.64,-482.03 758.35,-472.14 767.46,-463.73"/>
<polygon fill="#63b8ff" stroke="#63b8ff" points="735.55,-488.44 730.58,-497.8 740.3,-493.58 735.55,-488.44"/>
</a>
</g>
</g>
<!-- Node3 -->
<g id="Node000003" class="node">
<title>Node3</title>
<g id="a_Node000003"><a xlink:href="_cmd_queue_8h.html" target="_top" xlink:title=" ">
<polygon fill="white" stroke="#666666" points="254.62,-379.88 110.37,-379.88 110.37,-349.38 254.62,-349.38 254.62,-379.88"/>
<text text-anchor="start" x="118.37" y="-366.38" font-family="Helvetica,sans-Serif" font-size="10.00">/Users/hoff/Retro/virtualc64</text>
<text text-anchor="middle" x="182.49" y="-355.12" font-family="Helvetica,sans-Serif" font-size="10.00">/Emulator/Base/CmdQueue.h</text>
</a>
</g>
</g>
<!-- Node2&#45;&gt;Node3 -->
<g id="edge2_Node000002_Node000003" class="edge">
<title>Node2&#45;&gt;Node3</title>
<g id="a_edge2_Node000002_Node000003"><a xlink:title=" ">
<path fill="none" stroke="#63b8ff" d="M385.03,-423.52C338.93,-410.34 276.96,-392.63 233.76,-380.28"/>
<polygon fill="#63b8ff" stroke="#63b8ff" points="384.05,-426.88 394.63,-426.26 385.98,-420.15 384.05,-426.88"/>
</a>
</g>
</g>
<!-- Node10 -->
<g id="Node000010" class="node">
<title>Node10</title>
<g id="a_Node000010"><a xlink:href="_control_port_8h_source.html" target="_top" xlink:title=" ">
<polygon fill="white" stroke="#666666" points="717.62,-385.5 549.37,-385.5 549.37,-343.75 717.62,-343.75 717.62,-385.5"/>
<text text-anchor="start" x="557.37" y="-372" font-family="Helvetica,sans-Serif" font-size="10.00">/Users/hoff/Retro/virtualc64</text>
<text text-anchor="start" x="557.37" y="-360.75" font-family="Helvetica,sans-Serif" font-size="10.00">/Emulator/Components/LogicBoard</text>
<text text-anchor="middle" x="633.49" y="-349.5" font-family="Helvetica,sans-Serif" font-size="10.00">/ControlPort.h</text>
</a>
</g>
</g>
<!-- Node2&#45;&gt;Node10 -->
<g id="edge11_Node000002_Node000010" class="edge">
<title>Node2&#45;&gt;Node10</title>
<g id="a_edge11_Node000002_Node000010"><a xlink:title=" ">
<path fill="none" stroke="#63b8ff" d="M493.83,-422.51C521.16,-411.37 555.76,-397.28 583.68,-385.91"/>
<polygon fill="#63b8ff" stroke="#63b8ff" points="492.7,-419.19 484.76,-426.2 495.34,-425.67 492.7,-419.19"/>
</a>
</g>
</g>
<!-- Node11 -->
<g id="Node000011" class="node">
<title>Node11</title>
<g id="a_Node000011"><a xlink:href="_expansion_port_8h_source.html" target="_top" xlink:title=" ">
<polygon fill="white" stroke="#666666" points="531.62,-307.75 363.37,-307.75 363.37,-266 531.62,-266 531.62,-307.75"/>
<text text-anchor="start" x="371.37" y="-294.25" font-family="Helvetica,sans-Serif" font-size="10.00">/Users/hoff/Retro/virtualc64</text>
<text text-anchor="start" x="371.37" y="-283" font-family="Helvetica,sans-Serif" font-size="10.00">/Emulator/Components/LogicBoard</text>
<text text-anchor="middle" x="447.49" y="-271.75" font-family="Helvetica,sans-Serif" font-size="10.00">/ExpansionPort.h</text>
</a>
</g>
</g>
<!-- Node2&#45;&gt;Node11 -->
<g id="edge13_Node000002_Node000011" class="edge">
<title>Node2&#45;&gt;Node11</title>
<g id="a_edge13_Node000002_Node000011"><a xlink:title=" ">
<path fill="none" stroke="#63b8ff" d="M447.49,-415.32C447.49,-385.02 447.49,-335.63 447.49,-308.08"/>
<polygon fill="#63b8ff" stroke="#63b8ff" points="443.99,-415.14 447.49,-425.14 450.99,-415.14 443.99,-415.14"/>
</a>
</g>
</g>
<!-- Node12 -->
<g id="Node000012" class="node">
<title>Node12</title>
<g id="a_Node000012"><a xlink:href="_drive_8h_source.html" target="_top" xlink:title=" ">
<polygon fill="white" stroke="#666666" points="686.87,-307.75 550.12,-307.75 550.12,-266 686.87,-266 686.87,-307.75"/>
<text text-anchor="start" x="558.12" y="-294.25" font-family="Helvetica,sans-Serif" font-size="10.00">/Users/hoff/Retro/virtualc64</text>
<text text-anchor="start" x="558.12" y="-283" font-family="Helvetica,sans-Serif" font-size="10.00">/Emulator/Peripherals/Drive</text>
<text text-anchor="middle" x="618.49" y="-271.75" font-family="Helvetica,sans-Serif" font-size="10.00">/Drive.h</text>
</a>
</g>
</g>
<!-- Node2&#45;&gt;Node12 -->
<g id="edge15_Node000002_Node000012" class="edge">
<title>Node2&#45;&gt;Node12</title>
<g id="a_edge15_Node000002_Node000012"><a xlink:title=" ">
<path fill="none" stroke="#63b8ff" d="M467.31,-418.22C485.41,-397.65 513.41,-367.3 540.49,-343.75 555.2,-330.96 572.76,-318.19 587.49,-308.1"/>
<polygon fill="#63b8ff" stroke="#63b8ff" points="464.88,-415.67 460.95,-425.51 470.16,-420.27 464.88,-415.67"/>
</a>
</g>
</g>
<!-- Node2&#45;&gt;Node13 -->
<g id="edge17_Node000002_Node000013" class="edge">
<title>Node2&#45;&gt;Node13</title>
<g id="a_edge17_Node000002_Node000013"><a xlink:title=" ">
<path fill="none" stroke="#63b8ff" d="M527.25,-424.34C532.07,-423.36 536.84,-422.41 541.49,-421.5 623.34,-405.48 717.68,-388.71 780.59,-377.78"/>
<polygon fill="#63b8ff" stroke="#63b8ff" points="526.56,-420.91 517.47,-426.34 527.96,-427.77 526.56,-420.91"/>
</a>
</g>
</g>
<!-- Node4 -->
<g id="Node000004" class="node">
<title>Node4</title>
<g id="a_Node000004"><a xlink:href="_emulator_8h_source.html" target="_top" xlink:title=" ">
<polygon fill="white" stroke="#666666" points="615.49,-163.5 449.49,-163.5 449.49,-133 615.49,-133 615.49,-163.5"/>
<text text-anchor="start" x="457.49" y="-150" font-family="Helvetica,sans-Serif" font-size="10.00">/Users/hoff/Retro/virtualc64</text>
<text text-anchor="middle" x="532.49" y="-138.75" font-family="Helvetica,sans-Serif" font-size="10.00">/Emulator/Components/Emulator.h</text>
</a>
</g>
</g>
<!-- Node3&#45;&gt;Node4 -->
<g id="edge3_Node000003_Node000004" class="edge">
<title>Node3&#45;&gt;Node4</title>
<g id="a_edge3_Node000003_Node000004"><a xlink:title=" ">
<path fill="none" stroke="#63b8ff" d="M98.6,-357.62C64.97,-350.59 29.32,-336.31 8.49,-307.75 -2.44,-292.76 -3.11,-280.48 8.49,-266 62.79,-198.28 315.44,-167.3 449.08,-155.45"/>
<polygon fill="#63b8ff" stroke="#63b8ff" points="97.94,-361.06 108.42,-359.46 99.23,-354.18 97.94,-361.06"/>
</a>
</g>
</g>
<!-- Node7 -->
<g id="Node000007" class="node">
<title>Node7</title>
<g id="a_Node000007"><a xlink:href="_datasette_8h_source.html" target="_top" xlink:title=" ">
<polygon fill="white" stroke="#666666" points="173.24,-307.75 17.74,-307.75 17.74,-266 173.24,-266 173.24,-307.75"/>
<text text-anchor="start" x="25.74" y="-294.25" font-family="Helvetica,sans-Serif" font-size="10.00">/Users/hoff/Retro/virtualc64</text>
<text text-anchor="start" x="25.74" y="-283" font-family="Helvetica,sans-Serif" font-size="10.00">/Emulator/Peripherals/Datasette</text>
<text text-anchor="middle" x="95.49" y="-271.75" font-family="Helvetica,sans-Serif" font-size="10.00">/Datasette.h</text>
</a>
</g>
</g>
<!-- Node3&#45;&gt;Node7 -->
<g id="edge6_Node000003_Node000007" class="edge">
<title>Node3&#45;&gt;Node7</title>
<g id="a_edge6_Node000003_Node000007"><a xlink:title=" ">
<path fill="none" stroke="#63b8ff" d="M157.35,-341.73C145.2,-331.15 130.7,-318.53 118.79,-308.16"/>
<polygon fill="#63b8ff" stroke="#63b8ff" points="154.74,-344.1 164.58,-348.03 159.33,-338.82 154.74,-344.1"/>
</a>
</g>
</g>
<!-- Node9 -->
<g id="Node000009" class="node">
<title>Node9</title>
<g id="a_Node000009"><a xlink:href="_keyboard_8h_source.html" target="_top" xlink:title=" ">
<polygon fill="white" stroke="#666666" points="345.49,-307.75 191.49,-307.75 191.49,-266 345.49,-266 345.49,-307.75"/>
<text text-anchor="start" x="199.49" y="-294.25" font-family="Helvetica,sans-Serif" font-size="10.00">/Users/hoff/Retro/virtualc64</text>
<text text-anchor="start" x="199.49" y="-283" font-family="Helvetica,sans-Serif" font-size="10.00">/Emulator/Peripherals/Keyboard</text>
<text text-anchor="middle" x="268.49" y="-271.75" font-family="Helvetica,sans-Serif" font-size="10.00">/Keyboard.h</text>
</a>
</g>
</g>
<!-- Node3&#45;&gt;Node9 -->
<g id="edge9_Node000003_Node000009" class="edge">
<title>Node3&#45;&gt;Node9</title>
<g id="a_edge9_Node000003_Node000009"><a xlink:title=" ">
<path fill="none" stroke="#63b8ff" d="M207.7,-341.43C219.64,-330.91 233.81,-318.43 245.46,-308.16"/>
<polygon fill="#63b8ff" stroke="#63b8ff" points="205.4,-338.78 200.21,-348.02 210.03,-344.04 205.4,-338.78"/>
</a>
</g>
</g>
<!-- Node5 -->
<g id="Node000005" class="node">
<title>Node5</title>
<g id="a_Node000005"><a xlink:href="_virtual_c64_8h.html" target="_top" xlink:title=" ">
<polygon fill="white" stroke="#666666" points="786.87,-97 650.12,-97 650.12,-66.5 786.87,-66.5 786.87,-97"/>
<text text-anchor="start" x="658.12" y="-83.5" font-family="Helvetica,sans-Serif" font-size="10.00">/Users/hoff/Retro/virtualc64</text>
<text text-anchor="middle" x="718.49" y="-72.25" font-family="Helvetica,sans-Serif" font-size="10.00">/Emulator/VirtualC64.h</text>
</a>
</g>
</g>
<!-- Node4&#45;&gt;Node5 -->
<g id="edge4_Node000004_Node000005" class="edge">
<title>Node4&#45;&gt;Node5</title>
<g id="a_edge4_Node000004_Node000005"><a xlink:title=" ">
<path fill="none" stroke="#63b8ff" d="M585.38,-128.91C614.13,-118.94 649.21,-106.78 676.13,-97.44"/>
<polygon fill="#63b8ff" stroke="#63b8ff" points="584.43,-125.53 576.13,-132.12 586.73,-132.15 584.43,-125.53"/>
</a>
</g>
</g>
<!-- Node6 -->
<g id="Node000006" class="node">
<title>Node6</title>
<g id="a_Node000006"><a xlink:href="_headless_8h_source.html" target="_top" xlink:title=" ">
<polygon fill="white" stroke="#666666" points="786.87,-30.5 650.12,-30.5 650.12,0 786.87,0 786.87,-30.5"/>
<text text-anchor="start" x="658.12" y="-17" font-family="Helvetica,sans-Serif" font-size="10.00">/Users/hoff/Retro/virtualc64</text>
<text text-anchor="middle" x="718.49" y="-5.75" font-family="Helvetica,sans-Serif" font-size="10.00">/Emulator/Headless.h</text>
</a>
</g>
</g>
<!-- Node5&#45;&gt;Node6 -->
<g id="edge5_Node000005_Node000006" class="edge">
<title>Node5&#45;&gt;Node6</title>
<g id="a_edge5_Node000005_Node000006"><a xlink:title=" ">
<path fill="none" stroke="#63b8ff" d="M718.49,-54.81C718.49,-46.64 718.49,-37.91 718.49,-30.83"/>
<polygon fill="#63b8ff" stroke="#63b8ff" points="714.99,-54.6 718.49,-64.6 721.99,-54.6 714.99,-54.6"/>
</a>
</g>
</g>
<!-- Node8 -->
<g id="Node000008" class="node">
<title>Node8</title>
<g id="a_Node000008"><a xlink:href="_c64_8h_source.html" target="_top" xlink:title=" ">
<polygon fill="white" stroke="#666666" points="605.37,-230 459.62,-230 459.62,-199.5 605.37,-199.5 605.37,-230"/>
<text text-anchor="start" x="467.62" y="-216.5" font-family="Helvetica,sans-Serif" font-size="10.00">/Users/hoff/Retro/virtualc64</text>
<text text-anchor="middle" x="532.49" y="-205.25" font-family="Helvetica,sans-Serif" font-size="10.00">/Emulator/Components/C64.h</text>
</a>
</g>
</g>
<!-- Node7&#45;&gt;Node8 -->
<g id="edge7_Node000007_Node000008" class="edge">
<title>Node7&#45;&gt;Node8</title>
<g id="a_edge7_Node000007_Node000008"><a xlink:title=" ">
<path fill="none" stroke="#63b8ff" d="M184.97,-265.61C285.49,-247.28 390.69,-233.08 459.14,-224.5"/>
<polygon fill="#63b8ff" stroke="#63b8ff" points="184.37,-262.16 175.17,-267.42 185.64,-269.05 184.37,-262.16"/>
</a>
</g>
</g>
<!-- Node8&#45;&gt;Node4 -->
<g id="edge8_Node000008_Node000004" class="edge">
<title>Node8&#45;&gt;Node4</title>
<g id="a_edge8_Node000008_Node000004"><a xlink:title=" ">
<path fill="none" stroke="#63b8ff" d="M532.49,-187.81C532.49,-179.64 532.49,-170.91 532.49,-163.83"/>
<polygon fill="#63b8ff" stroke="#63b8ff" points="528.99,-187.6 532.49,-197.6 535.99,-187.6 528.99,-187.6"/>
</a>
</g>
</g>
<!-- Node9&#45;&gt;Node8 -->
<g id="edge10_Node000009_Node000008" class="edge">
<title>Node9&#45;&gt;Node8</title>
<g id="a_edge10_Node000009_Node000008"><a xlink:title=" ">
<path fill="none" stroke="#63b8ff" d="M355.96,-262.64C395.97,-252.01 442.17,-239.74 477.27,-230.42"/>
<polygon fill="#63b8ff" stroke="#63b8ff" points="355.08,-259.25 346.32,-265.2 356.88,-266.02 355.08,-259.25"/>
</a>
</g>
</g>
<!-- Node10&#45;&gt;Node8 -->
<g id="edge12_Node000010_Node000008" class="edge">
<title>Node10&#45;&gt;Node8</title>
<g id="a_edge12_Node000010_Node000008"><a xlink:title=" ">
<path fill="none" stroke="#63b8ff" d="M674.35,-335.8C682.91,-327.83 690.77,-318.37 695.49,-307.75 703.04,-290.8 706.51,-280.93 695.49,-266 674.83,-238.01 638.8,-225.12 605.85,-219.38"/>
<polygon fill="#63b8ff" stroke="#63b8ff" points="672.11,-333.12 666.8,-342.28 676.67,-338.43 672.11,-333.12"/>
</a>
</g>
</g>
<!-- Node11&#45;&gt;Node8 -->
<g id="edge14_Node000011_Node000008" class="edge">
<title>Node11&#45;&gt;Node8</title>
<g id="a_edge14_Node000011_Node000008"><a xlink:title=" ">
<path fill="none" stroke="#63b8ff" d="M480.7,-258.48C492.29,-248.92 504.86,-238.55 514.71,-230.42"/>
<polygon fill="#63b8ff" stroke="#63b8ff" points="478.73,-255.57 473.25,-264.63 483.19,-260.96 478.73,-255.57"/>
</a>
</g>
</g>
<!-- Node12&#45;&gt;Node8 -->
<g id="edge16_Node000012_Node000008" class="edge">
<title>Node12&#45;&gt;Node8</title>
<g id="a_edge16_Node000012_Node000008"><a xlink:title=" ">
<path fill="none" stroke="#63b8ff" d="M584.9,-258.48C573.17,-248.92 560.45,-238.55 550.49,-230.42"/>
<polygon fill="#63b8ff" stroke="#63b8ff" points="582.48,-261.03 592.45,-264.64 586.91,-255.6 582.48,-261.03"/>
</a>
</g>
</g>
<!-- Node13&#45;&gt;Node5 -->
<g id="edge18_Node000013_Node000005" class="edge">
<title>Node13&#45;&gt;Node5</title>
<g id="a_edge18_Node000013_Node000005"><a xlink:title=" ">
<path fill="none" stroke="#63b8ff" d="M839.66,-338.63C812.59,-281.46 746.84,-142.61 725.39,-97.31"/>
<polygon fill="#63b8ff" stroke="#63b8ff" points="836.44,-340.01 843.88,-347.55 842.77,-337.02 836.44,-340.01"/>
</a>
</g>
</g>
<!-- Node14&#45;&gt;Node10 -->
<g id="edge20_Node000014_Node000010" class="edge">
<title>Node14&#45;&gt;Node10</title>
<g id="a_edge20_Node000014_Node000010"><a xlink:title=" ">
<path fill="none" stroke="#63b8ff" d="M628.83,-409.75C629.68,-401.71 630.57,-393.29 631.34,-385.98"/>
<polygon fill="#63b8ff" stroke="#63b8ff" points="625.37,-409.26 627.8,-419.57 632.33,-409.99 625.37,-409.26"/>
</a>
</g>
</g>
<!-- Node15&#45;&gt;Node8 -->
<g id="edge22_Node000015_Node000008" class="edge">
<title>Node15&#45;&gt;Node8</title>
<g id="a_edge22_Node000015_Node000008"><a xlink:title=" ">
<path fill="none" stroke="#63b8ff" d="M779.45,-410.28C764.38,-365.42 735.25,-285.75 712.49,-266 682.96,-240.38 641.35,-227.74 605.58,-221.55"/>
<polygon fill="#63b8ff" stroke="#63b8ff" points="776.1,-411.32 782.58,-419.71 782.75,-409.11 776.1,-411.32"/>
</a>
</g>
</g>
<!-- Node15&#45;&gt;Node10 -->
<g id="edge23_Node000015_Node000010" class="edge">
<title>Node15&#45;&gt;Node10</title>
<g id="a_edge23_Node000015_Node000010"><a xlink:title=" ">
<path fill="none" stroke="#63b8ff" d="M737.42,-416.09C717.26,-406.3 694.49,-395.24 675.41,-385.98"/>
<polygon fill="#63b8ff" stroke="#63b8ff" points="735.8,-419.19 746.33,-420.41 738.86,-412.9 735.8,-419.19"/>
</a>
</g>
</g>
</g>
</svg>
