<?xml version="1.0" encoding="UTF-8" standalone="no"?>
<!DOCTYPE svg PUBLIC "-//W3C//DTD SVG 1.1//EN"
 "http://www.w3.org/Graphics/SVG/1.1/DTD/svg11.dtd">
<!-- Generated by graphviz version 10.0.1 (20240210.2158)
 -->
<!-- Title: /Users/hoff/Retro/virtualc64/Emulator/Peripherals/Joystick/JoystickTypes.h Pages: 1 -->
<svg width="930pt" height="616pt"
 viewBox="0.00 0.00 930.12 615.50" xmlns="http://www.w3.org/2000/svg" xmlns:xlink="http://www.w3.org/1999/xlink">
<g id="graph0" class="graph" transform="scale(1 1) rotate(0) translate(4 611.5)">
<title>/Users/hoff/Retro/virtualc64/Emulator/Peripherals/Joystick/JoystickTypes.h</title>
<!-- Node1 -->
<g id="Node000001" class="node">
<title>Node1</title>
<g id="a_Node000001"><a xlink:title=" ">
<polygon fill="#999999" stroke="#666666" points="782.24,-607.5 632.74,-607.5 632.74,-565.75 782.24,-565.75 782.24,-607.5"/>
<text text-anchor="start" x="640.74" y="-594" font-family="Helvetica,sans-Serif" font-size="10.00">/Users/hoff/Retro/virtualc64</text>
<text text-anchor="start" x="640.74" y="-582.75" font-family="Helvetica,sans-Serif" font-size="10.00">/Emulator/Peripherals/Joystick</text>
<text text-anchor="middle" x="707.49" y="-571.5" font-family="Helvetica,sans-Serif" font-size="10.00">/JoystickTypes.h</text>
</a>
</g>
</g>
<!-- Node2 -->
<g id="Node000002" class="node">
<title>Node2</title>
<g id="a_Node000002"><a xlink:href="_cmd_queue_types_8h.html" target="_top" xlink:title=" ">
<polygon fill="white" stroke="#666666" points="532.74,-524.12 362.24,-524.12 362.24,-493.62 532.74,-493.62 532.74,-524.12"/>
<text text-anchor="start" x="370.24" y="-510.62" font-family="Helvetica,sans-Serif" font-size="10.00">/Users/hoff/Retro/virtualc64</text>
<text text-anchor="middle" x="447.49" y="-499.38" font-family="Helvetica,sans-Serif" font-size="10.00">/Emulator/Base/CmdQueueTypes.h</text>
</a>
</g>
</g>
<!-- Node1&#45;&gt;Node2 -->
<g id="edge1_Node000001_Node000002" class="edge">
<title>Node1&#45;&gt;Node2</title>
<g id="a_edge1_Node000001_Node000002"><a xlink:title=" ">
<path fill="none" stroke="#63b8ff" d="M627.02,-562.18C584.89,-549.9 534.6,-535.25 497.98,-524.58"/>
<polygon fill="#63b8ff" stroke="#63b8ff" points="625.79,-565.47 636.37,-564.9 627.74,-558.74 625.79,-565.47"/>
</a>
</g>
</g>
<!-- Node14 -->
<g id="Node000014" class="node">
<title>Node14</title>
<g id="a_Node000014"><a xlink:href="_virtual_c64_types_8h.html" target="_top" xlink:title=" ">
<polygon fill="white" stroke="#666666" points="922.12,-446.38 780.87,-446.38 780.87,-415.88 922.12,-415.88 922.12,-446.38"/>
<text text-anchor="start" x="788.87" y="-432.88" font-family="Helvetica,sans-Serif" font-size="10.00">/Users/hoff/Retro/virtualc64</text>
<text text-anchor="middle" x="851.49" y="-421.62" font-family="Helvetica,sans-Serif" font-size="10.00">/Emulator/VirtualC64Types.h</text>
</a>
</g>
</g>
<!-- Node1&#45;&gt;Node14 -->
<g id="edge25_Node000001_Node000014" class="edge">
<title>Node1&#45;&gt;Node14</title>
<g id="a_edge25_Node000001_Node000014"><a xlink:title=" ">
<path fill="none" stroke="#63b8ff" d="M793.73,-576.11C822.6,-568.34 851.88,-554.45 869.49,-529.75 887.3,-504.77 871.64,-467.33 860.45,-446.83"/>
<polygon fill="#63b8ff" stroke="#63b8ff" points="793.07,-572.67 784.19,-578.44 794.73,-579.47 793.07,-572.67"/>
</a>
</g>
</g>
<!-- Node15 -->
<g id="Node000015" class="node">
<title>Node15</title>
<g id="a_Node000015"><a xlink:href="_joystick_8h_source.html" target="_top" xlink:title=" ">
<polygon fill="white" stroke="#666666" points="700.24,-529.75 550.74,-529.75 550.74,-488 700.24,-488 700.24,-529.75"/>
<text text-anchor="start" x="558.74" y="-516.25" font-family="Helvetica,sans-Serif" font-size="10.00">/Users/hoff/Retro/virtualc64</text>
<text text-anchor="start" x="558.74" y="-505" font-family="Helvetica,sans-Serif" font-size="10.00">/Emulator/Peripherals/Joystick</text>
<text text-anchor="middle" x="625.49" y="-493.75" font-family="Helvetica,sans-Serif" font-size="10.00">/Joystick.h</text>
</a>
</g>
</g>
<!-- Node1&#45;&gt;Node15 -->
<g id="edge20_Node000001_Node000015" class="edge">
<title>Node1&#45;&gt;Node15</title>
<g id="a_edge20_Node000001_Node000015"><a xlink:title=" ">
<path fill="none" stroke="#63b8ff" d="M677.17,-557.61C667.34,-548.53 656.64,-538.64 647.53,-530.23"/>
<polygon fill="#63b8ff" stroke="#63b8ff" points="674.69,-560.08 684.41,-564.3 679.44,-554.94 674.69,-560.08"/>
</a>
</g>
</g>
<!-- Node16 -->
<g id="Node000016" class="node">
<title>Node16</title>
<g id="a_Node000016"><a xlink:href="_mouse_8h_source.html" target="_top" xlink:title=" ">
<polygon fill="white" stroke="#666666" points="860.49,-529.75 718.49,-529.75 718.49,-488 860.49,-488 860.49,-529.75"/>
<text text-anchor="start" x="726.49" y="-516.25" font-family="Helvetica,sans-Serif" font-size="10.00">/Users/hoff/Retro/virtualc64</text>
<text text-anchor="start" x="726.49" y="-505" font-family="Helvetica,sans-Serif" font-size="10.00">/Emulator/Peripherals/Mouse</text>
<text text-anchor="middle" x="789.49" y="-493.75" font-family="Helvetica,sans-Serif" font-size="10.00">/Mouse.h</text>
</a>
</g>
</g>
<!-- Node1&#45;&gt;Node16 -->
<g id="edge22_Node000001_Node000016" class="edge">
<title>Node1&#45;&gt;Node16</title>
<g id="a_edge22_Node000001_Node000016"><a xlink:title=" ">
<path fill="none" stroke="#63b8ff" d="M737.82,-557.61C747.64,-548.53 758.35,-538.64 767.46,-530.23"/>
<polygon fill="#63b8ff" stroke="#63b8ff" points="735.55,-554.94 730.58,-564.3 740.3,-560.08 735.55,-554.94"/>
</a>
</g>
</g>
<!-- Node3 -->
<g id="Node000003" class="node">
<title>Node3</title>
<g id="a_Node000003"><a xlink:href="_cmd_queue_8h.html" target="_top" xlink:title=" ">
<polygon fill="white" stroke="#666666" points="254.62,-446.38 110.37,-446.38 110.37,-415.88 254.62,-415.88 254.62,-446.38"/>
<text text-anchor="start" x="118.37" y="-432.88" font-family="Helvetica,sans-Serif" font-size="10.00">/Users/hoff/Retro/virtualc64</text>
<text text-anchor="middle" x="182.49" y="-421.62" font-family="Helvetica,sans-Serif" font-size="10.00">/Emulator/Base/CmdQueue.h</text>
</a>
</g>
</g>
<!-- Node2&#45;&gt;Node3 -->
<g id="edge2_Node000002_Node000003" class="edge">
<title>Node2&#45;&gt;Node3</title>
<g id="a_edge2_Node000002_Node000003"><a xlink:title=" ">
<path fill="none" stroke="#63b8ff" d="M385.03,-490.02C338.93,-476.84 276.96,-459.13 233.76,-446.78"/>
<polygon fill="#63b8ff" stroke="#63b8ff" points="384.05,-493.38 394.63,-492.76 385.98,-486.65 384.05,-493.38"/>
</a>
</g>
</g>
<!-- Node11 -->
<g id="Node000011" class="node">
<title>Node11</title>
<g id="a_Node000011"><a xlink:href="_control_port_8h_source.html" target="_top" xlink:title=" ">
<polygon fill="white" stroke="#666666" points="717.62,-452 549.37,-452 549.37,-410.25 717.62,-410.25 717.62,-452"/>
<text text-anchor="start" x="557.37" y="-438.5" font-family="Helvetica,sans-Serif" font-size="10.00">/Users/hoff/Retro/virtualc64</text>
<text text-anchor="start" x="557.37" y="-427.25" font-family="Helvetica,sans-Serif" font-size="10.00">/Emulator/Components/LogicBoard</text>
<text text-anchor="middle" x="633.49" y="-416" font-family="Helvetica,sans-Serif" font-size="10.00">/ControlPort.h</text>
</a>
</g>
</g>
<!-- Node2&#45;&gt;Node11 -->
<g id="edge12_Node000002_Node000011" class="edge">
<title>Node2&#45;&gt;Node11</title>
<g id="a_edge12_Node000002_Node000011"><a xlink:title=" ">
<path fill="none" stroke="#63b8ff" d="M493.83,-489.01C521.16,-477.87 555.76,-463.78 583.68,-452.41"/>
<polygon fill="#63b8ff" stroke="#63b8ff" points="492.7,-485.69 484.76,-492.7 495.34,-492.17 492.7,-485.69"/>
</a>
</g>
</g>
<!-- Node12 -->
<g id="Node000012" class="node">
<title>Node12</title>
<g id="a_Node000012"><a xlink:href="_expansion_port_8h_source.html" target="_top" xlink:title=" ">
<polygon fill="white" stroke="#666666" points="531.62,-374.25 363.37,-374.25 363.37,-332.5 531.62,-332.5 531.62,-374.25"/>
<text text-anchor="start" x="371.37" y="-360.75" font-family="Helvetica,sans-Serif" font-size="10.00">/Users/hoff/Retro/virtualc64</text>
<text text-anchor="start" x="371.37" y="-349.5" font-family="Helvetica,sans-Serif" font-size="10.00">/Emulator/Components/LogicBoard</text>
<text text-anchor="middle" x="447.49" y="-338.25" font-family="Helvetica,sans-Serif" font-size="10.00">/ExpansionPort.h</text>
</a>
</g>
</g>
<!-- Node2&#45;&gt;Node12 -->
<g id="edge14_Node000002_Node000012" class="edge">
<title>Node2&#45;&gt;Node12</title>
<g id="a_edge14_Node000002_Node000012"><a xlink:title=" ">
<path fill="none" stroke="#63b8ff" d="M447.49,-481.82C447.49,-451.52 447.49,-402.13 447.49,-374.58"/>
<polygon fill="#63b8ff" stroke="#63b8ff" points="443.99,-481.64 447.49,-491.64 450.99,-481.64 443.99,-481.64"/>
</a>
</g>
</g>
<!-- Node13 -->
<g id="Node000013" class="node">
<title>Node13</title>
<g id="a_Node000013"><a xlink:href="_drive_8h_source.html" target="_top" xlink:title=" ">
<polygon fill="white" stroke="#666666" points="686.87,-374.25 550.12,-374.25 550.12,-332.5 686.87,-332.5 686.87,-374.25"/>
<text text-anchor="start" x="558.12" y="-360.75" font-family="Helvetica,sans-Serif" font-size="10.00">/Users/hoff/Retro/virtualc64</text>
<text text-anchor="start" x="558.12" y="-349.5" font-family="Helvetica,sans-Serif" font-size="10.00">/Emulator/Peripherals/Drive</text>
<text text-anchor="middle" x="618.49" y="-338.25" font-family="Helvetica,sans-Serif" font-size="10.00">/Drive.h</text>
</a>
</g>
</g>
<!-- Node2&#45;&gt;Node13 -->
<g id="edge16_Node000002_Node000013" class="edge">
<title>Node2&#45;&gt;Node13</title>
<g id="a_edge16_Node000002_Node000013"><a xlink:title=" ">
<path fill="none" stroke="#63b8ff" d="M467.31,-484.72C485.41,-464.15 513.41,-433.8 540.49,-410.25 555.2,-397.46 572.76,-384.69 587.49,-374.6"/>
<polygon fill="#63b8ff" stroke="#63b8ff" points="464.88,-482.17 460.95,-492.01 470.16,-486.77 464.88,-482.17"/>
</a>
</g>
</g>
<!-- Node2&#45;&gt;Node14 -->
<g id="edge18_Node000002_Node000014" class="edge">
<title>Node2&#45;&gt;Node14</title>
<g id="a_edge18_Node000002_Node000014"><a xlink:title=" ">
<path fill="none" stroke="#63b8ff" d="M527.25,-490.84C532.07,-489.86 536.84,-488.91 541.49,-488 623.34,-471.98 717.68,-455.21 780.59,-444.28"/>
<polygon fill="#63b8ff" stroke="#63b8ff" points="526.56,-487.41 517.47,-492.84 527.96,-494.27 526.56,-487.41"/>
</a>
</g>
</g>
<!-- Node4 -->
<g id="Node000004" class="node">
<title>Node4</title>
<g id="a_Node000004"><a xlink:href="_emulator_8h_source.html" target="_top" xlink:title=" ">
<polygon fill="white" stroke="#666666" points="615.49,-230 449.49,-230 449.49,-199.5 615.49,-199.5 615.49,-230"/>
<text text-anchor="start" x="457.49" y="-216.5" font-family="Helvetica,sans-Serif" font-size="10.00">/Users/hoff/Retro/virtualc64</text>
<text text-anchor="middle" x="532.49" y="-205.25" font-family="Helvetica,sans-Serif" font-size="10.00">/Emulator/Components/Emulator.h</text>
</a>
</g>
</g>
<!-- Node3&#45;&gt;Node4 -->
<g id="edge3_Node000003_Node000004" class="edge">
<title>Node3&#45;&gt;Node4</title>
<g id="a_edge3_Node000003_Node000004"><a xlink:title=" ">
<path fill="none" stroke="#63b8ff" d="M98.6,-424.12C64.97,-417.09 29.32,-402.81 8.49,-374.25 -2.44,-359.26 -3.11,-346.98 8.49,-332.5 62.79,-264.78 315.44,-233.8 449.08,-221.95"/>
<polygon fill="#63b8ff" stroke="#63b8ff" points="97.94,-427.56 108.42,-425.96 99.23,-420.68 97.94,-427.56"/>
</a>
</g>
</g>
<!-- Node8 -->
<g id="Node000008" class="node">
<title>Node8</title>
<g id="a_Node000008"><a xlink:href="_datasette_8h_source.html" target="_top" xlink:title=" ">
<polygon fill="white" stroke="#666666" points="173.24,-374.25 17.74,-374.25 17.74,-332.5 173.24,-332.5 173.24,-374.25"/>
<text text-anchor="start" x="25.74" y="-360.75" font-family="Helvetica,sans-Serif" font-size="10.00">/Users/hoff/Retro/virtualc64</text>
<text text-anchor="start" x="25.74" y="-349.5" font-family="Helvetica,sans-Serif" font-size="10.00">/Emulator/Peripherals/Datasette</text>
<text text-anchor="middle" x="95.49" y="-338.25" font-family="Helvetica,sans-Serif" font-size="10.00">/Datasette.h</text>
</a>
</g>
</g>
<!-- Node3&#45;&gt;Node8 -->
<g id="edge7_Node000003_Node000008" class="edge">
<title>Node3&#45;&gt;Node8</title>
<g id="a_edge7_Node000003_Node000008"><a xlink:title=" ">
<path fill="none" stroke="#63b8ff" d="M157.35,-408.23C145.2,-397.65 130.7,-385.03 118.79,-374.66"/>
<polygon fill="#63b8ff" stroke="#63b8ff" points="154.74,-410.6 164.58,-414.53 159.33,-405.32 154.74,-410.6"/>
</a>
</g>
</g>
<!-- Node10 -->
<g id="Node000010" class="node">
<title>Node10</title>
<g id="a_Node000010"><a xlink:href="_keyboard_8h_source.html" target="_top" xlink:title=" ">
<polygon fill="white" stroke="#666666" points="345.49,-374.25 191.49,-374.25 191.49,-332.5 345.49,-332.5 345.49,-374.25"/>
<text text-anchor="start" x="199.49" y="-360.75" font-family="Helvetica,sans-Serif" font-size="10.00">/Users/hoff/Retro/virtualc64</text>
<text text-anchor="start" x="199.49" y="-349.5" font-family="Helvetica,sans-Serif" font-size="10.00">/Emulator/Peripherals/Keyboard</text>
<text text-anchor="middle" x="268.49" y="-338.25" font-family="Helvetica,sans-Serif" font-size="10.00">/Keyboard.h</text>
</a>
</g>
</g>
<!-- Node3&#45;&gt;Node10 -->
<g id="edge10_Node000003_Node000010" class="edge">
<title>Node3&#45;&gt;Node10</title>
<g id="a_edge10_Node000003_Node000010"><a xlink:title=" ">
<path fill="none" stroke="#63b8ff" d="M207.7,-407.93C219.64,-397.41 233.81,-384.93 245.46,-374.66"/>
<polygon fill="#63b8ff" stroke="#63b8ff" points="205.4,-405.28 200.21,-414.52 210.03,-410.54 205.4,-405.28"/>
</a>
</g>
</g>
<!-- Node5 -->
<g id="Node000005" class="node">
<title>Node5</title>
<g id="a_Node000005"><a xlink:href="_virtual_c64_8h.html" target="_top" xlink:title=" ">
<polygon fill="white" stroke="#666666" points="786.87,-163.5 650.12,-163.5 650.12,-133 786.87,-133 786.87,-163.5"/>
<text text-anchor="start" x="658.12" y="-150" font-family="Helvetica,sans-Serif" font-size="10.00">/Users/hoff/Retro/virtualc64</text>
<text text-anchor="middle" x="718.49" y="-138.75" font-family="Helvetica,sans-Serif" font-size="10.00">/Emulator/VirtualC64.h</text>
</a>
</g>
</g>
<!-- Node4&#45;&gt;Node5 -->
<g id="edge4_Node000004_Node000005" class="edge">
<title>Node4&#45;&gt;Node5</title>
<g id="a_edge4_Node000004_Node000005"><a xlink:title=" ">
<path fill="none" stroke="#63b8ff" d="M585.38,-195.41C614.13,-185.44 649.21,-173.28 676.13,-163.94"/>
<polygon fill="#63b8ff" stroke="#63b8ff" points="584.43,-192.03 576.13,-198.62 586.73,-198.65 584.43,-192.03"/>
</a>
</g>
</g>
<!-- Node6 -->
<g id="Node000006" class="node">
<title>Node6</title>
<g id="a_Node000006"><a xlink:href="_headless_8h_source.html" target="_top" xlink:title=" ">
<polygon fill="white" stroke="#666666" points="786.87,-97 650.12,-97 650.12,-66.5 786.87,-66.5 786.87,-97"/>
<text text-anchor="start" x="658.12" y="-83.5" font-family="Helvetica,sans-Serif" font-size="10.00">/Users/hoff/Retro/virtualc64</text>
<text text-anchor="middle" x="718.49" y="-72.25" font-family="Helvetica,sans-Serif" font-size="10.00">/Emulator/Headless.h</text>
</a>
</g>
</g>
<!-- Node5&#45;&gt;Node6 -->
<g id="edge5_Node000005_Node000006" class="edge">
<title>Node5&#45;&gt;Node6</title>
<g id="a_edge5_Node000005_Node000006"><a xlink:title=" ">
<path fill="none" stroke="#63b8ff" d="M718.49,-121.31C718.49,-113.14 718.49,-104.41 718.49,-97.33"/>
<polygon fill="#63b8ff" stroke="#63b8ff" points="714.99,-121.1 718.49,-131.1 721.99,-121.1 714.99,-121.1"/>
</a>
</g>
</g>
<!-- Node7 -->
<g id="Node000007" class="node">
<title>Node7</title>
<g id="a_Node000007"><a xlink:href="_headless_8cpp.html" target="_top" xlink:title=" ">
<polygon fill="white" stroke="#666666" points="786.87,-30.5 650.12,-30.5 650.12,0 786.87,0 786.87,-30.5"/>
<text text-anchor="start" x="658.12" y="-17" font-family="Helvetica,sans-Serif" font-size="10.00">/Users/hoff/Retro/virtualc64</text>
<text text-anchor="middle" x="718.49" y="-5.75" font-family="Helvetica,sans-Serif" font-size="10.00">/Emulator/Headless.cpp</text>
</a>
</g>
</g>
<!-- Node6&#45;&gt;Node7 -->
<g id="edge6_Node000006_Node000007" class="edge">
<title>Node6&#45;&gt;Node7</title>
<g id="a_edge6_Node000006_Node000007"><a xlink:title=" ">
<path fill="none" stroke="#63b8ff" d="M718.49,-54.81C718.49,-46.64 718.49,-37.91 718.49,-30.83"/>
<polygon fill="#63b8ff" stroke="#63b8ff" points="714.99,-54.6 718.49,-64.6 721.99,-54.6 714.99,-54.6"/>
</a>
</g>
</g>
<!-- Node9 -->
<g id="Node000009" class="node">
<title>Node9</title>
<g id="a_Node000009"><a xlink:href="_c64_8h_source.html" target="_top" xlink:title=" ">
<polygon fill="white" stroke="#666666" points="605.37,-296.5 459.62,-296.5 459.62,-266 605.37,-266 605.37,-296.5"/>
<text text-anchor="start" x="467.62" y="-283" font-family="Helvetica,sans-Serif" font-size="10.00">/Users/hoff/Retro/virtualc64</text>
<text text-anchor="middle" x="532.49" y="-271.75" font-family="Helvetica,sans-Serif" font-size="10.00">/Emulator/Components/C64.h</text>
</a>
</g>
</g>
<!-- Node8&#45;&gt;Node9 -->
<g id="edge8_Node000008_Node000009" class="edge">
<title>Node8&#45;&gt;Node9</title>
<g id="a_edge8_Node000008_Node000009"><a xlink:title=" ">
<path fill="none" stroke="#63b8ff" d="M184.97,-332.11C285.49,-313.78 390.69,-299.58 459.14,-291"/>
<polygon fill="#63b8ff" stroke="#63b8ff" points="184.37,-328.66 175.17,-333.92 185.64,-335.55 184.37,-328.66"/>
</a>
</g>
</g>
<!-- Node9&#45;&gt;Node4 -->
<g id="edge9_Node000009_Node000004" class="edge">
<title>Node9&#45;&gt;Node4</title>
<g id="a_edge9_Node000009_Node000004"><a xlink:title=" ">
<path fill="none" stroke="#63b8ff" d="M532.49,-254.31C532.49,-246.14 532.49,-237.41 532.49,-230.33"/>
<polygon fill="#63b8ff" stroke="#63b8ff" points="528.99,-254.1 532.49,-264.1 535.99,-254.1 528.99,-254.1"/>
</a>
</g>
</g>
<!-- Node10&#45;&gt;Node9 -->
<g id="edge11_Node000010_Node000009" class="edge">
<title>Node10&#45;&gt;Node9</title>
<g id="a_edge11_Node000010_Node000009"><a xlink:title=" ">
<path fill="none" stroke="#63b8ff" d="M355.96,-329.14C395.97,-318.51 442.17,-306.24 477.27,-296.92"/>
<polygon fill="#63b8ff" stroke="#63b8ff" points="355.08,-325.75 346.32,-331.7 356.88,-332.52 355.08,-325.75"/>
</a>
</g>
</g>
<!-- Node11&#45;&gt;Node9 -->
<g id="edge13_Node000011_Node000009" class="edge">
<title>Node11&#45;&gt;Node9</title>
<g id="a_edge13_Node000011_Node000009"><a xlink:title=" ">
<path fill="none" stroke="#63b8ff" d="M674.35,-402.3C682.91,-394.33 690.77,-384.87 695.49,-374.25 703.04,-357.3 706.51,-347.43 695.49,-332.5 674.83,-304.51 638.8,-291.62 605.85,-285.88"/>
<polygon fill="#63b8ff" stroke="#63b8ff" points="672.11,-399.62 666.8,-408.78 676.67,-404.93 672.11,-399.62"/>
</a>
</g>
</g>
<!-- Node12&#45;&gt;Node9 -->
<g id="edge15_Node000012_Node000009" class="edge">
<title>Node12&#45;&gt;Node9</title>
<g id="a_edge15_Node000012_Node000009"><a xlink:title=" ">
<path fill="none" stroke="#63b8ff" d="M480.7,-324.98C492.29,-315.42 504.86,-305.05 514.71,-296.92"/>
<polygon fill="#63b8ff" stroke="#63b8ff" points="478.73,-322.07 473.25,-331.13 483.19,-327.46 478.73,-322.07"/>
</a>
</g>
</g>
<!-- Node13&#45;&gt;Node9 -->
<g id="edge17_Node000013_Node000009" class="edge">
<title>Node13&#45;&gt;Node9</title>
<g id="a_edge17_Node000013_Node000009"><a xlink:title=" ">
<path fill="none" stroke="#63b8ff" d="M584.9,-324.98C573.17,-315.42 560.45,-305.05 550.49,-296.92"/>
<polygon fill="#63b8ff" stroke="#63b8ff" points="582.48,-327.53 592.45,-331.14 586.91,-322.1 582.48,-327.53"/>
</a>
</g>
</g>
<!-- Node14&#45;&gt;Node5 -->
<g id="edge19_Node000014_Node000005" class="edge">
<title>Node14&#45;&gt;Node5</title>
<g id="a_edge19_Node000014_Node000005"><a xlink:title=" ">
<path fill="none" stroke="#63b8ff" d="M839.66,-405.13C812.59,-347.96 746.84,-209.11 725.39,-163.81"/>
<polygon fill="#63b8ff" stroke="#63b8ff" points="836.44,-406.51 843.88,-414.05 842.77,-403.52 836.44,-406.51"/>
</a>
</g>
</g>
<!-- Node15&#45;&gt;Node11 -->
<g id="edge21_Node000015_Node000011" class="edge">
<title>Node15&#45;&gt;Node11</title>
<g id="a_edge21_Node000015_Node000011"><a xlink:title=" ">
<path fill="none" stroke="#63b8ff" d="M628.83,-476.25C629.68,-468.21 630.57,-459.79 631.34,-452.48"/>
<polygon fill="#63b8ff" stroke="#63b8ff" points="625.37,-475.76 627.8,-486.07 632.33,-476.49 625.37,-475.76"/>
</a>
</g>
</g>
<!-- Node16&#45;&gt;Node9 -->
<g id="edge23_Node000016_Node000009" class="edge">
<title>Node16&#45;&gt;Node9</title>
<g id="a_edge23_Node000016_Node000009"><a xlink:title=" ">
<path fill="none" stroke="#63b8ff" d="M779.45,-476.78C764.38,-431.92 735.25,-352.25 712.49,-332.5 682.96,-306.88 641.35,-294.24 605.58,-288.05"/>
<polygon fill="#63b8ff" stroke="#63b8ff" points="776.1,-477.82 782.58,-486.21 782.75,-475.61 776.1,-477.82"/>
</a>
</g>
</g>
<!-- Node16&#45;&gt;Node11 -->
<g id="edge24_Node000016_Node000011" class="edge">
<title>Node16&#45;&gt;Node11</title>
<g id="a_edge24_Node000016_Node000011"><a xlink:title=" ">
<path fill="none" stroke="#63b8ff" d="M737.42,-482.59C717.26,-472.8 694.49,-461.74 675.41,-452.48"/>
<polygon fill="#63b8ff" stroke="#63b8ff" points="735.8,-485.69 746.33,-486.91 738.86,-479.4 735.8,-485.69"/>
</a>
</g>
</g>
</g>
</svg>
