<?xml version="1.0" encoding="UTF-8" standalone="no"?>
<!DOCTYPE svg PUBLIC "-//W3C//DTD SVG 1.1//EN"
 "http://www.w3.org/Graphics/SVG/1.1/DTD/svg11.dtd">
<!-- Generated by graphviz version 10.0.1 (20240210.2158)
 -->
<!-- Title: /Users/hoff/Retro/virtualc64/Emulator/Peripherals/Joystick/Joystick.h Pages: 1 -->
<svg width="1431pt" height="658pt"
 viewBox="0.00 0.00 1431.12 657.50" xmlns="http://www.w3.org/2000/svg" xmlns:xlink="http://www.w3.org/1999/xlink">
<g id="graph0" class="graph" transform="scale(1 1) rotate(0) translate(4 653.5)">
<title>/Users/hoff/Retro/virtualc64/Emulator/Peripherals/Joystick/Joystick.h</title>
<!-- Node1 -->
<g id="Node000001" class="node">
<title>Node1</title>
<g id="a_Node000001"><a xlink:title=" ">
<polygon fill="#999999" stroke="#666666" points="1326.75,-649.5 1177.25,-649.5 1177.25,-607.75 1326.75,-607.75 1326.75,-649.5"/>
<text text-anchor="start" x="1185.25" y="-636" font-family="Helvetica,sans-Serif" font-size="10.00">/Users/hoff/Retro/virtualc64</text>
<text text-anchor="start" x="1185.25" y="-624.75" font-family="Helvetica,sans-Serif" font-size="10.00">/Emulator/Peripherals/Joystick</text>
<text text-anchor="middle" x="1252" y="-613.5" font-family="Helvetica,sans-Serif" font-size="10.00">/Joystick.h</text>
</a>
</g>
</g>
<!-- Node2 -->
<g id="Node000002" class="node">
<title>Node2</title>
<g id="a_Node000002"><a xlink:href="_joystick_types_8h.html" target="_top" xlink:title=" ">
<polygon fill="white" stroke="#666666" points="1332.62,-240.25 1245.38,-240.25 1245.38,-221 1332.62,-221 1332.62,-240.25"/>
<text text-anchor="middle" x="1289" y="-226.75" font-family="Helvetica,sans-Serif" font-size="10.00">JoystickTypes.h</text>
</a>
</g>
</g>
<!-- Node1&#45;&gt;Node2 -->
<g id="edge1_Node000001_Node000002" class="edge">
<title>Node1&#45;&gt;Node2</title>
<g id="a_edge1_Node000001_Node000002"><a xlink:title=" ">
<path fill="none" stroke="#63b8ff" d="M1262.31,-607.44C1273.25,-584.1 1289,-544.21 1289,-507.88 1289,-507.88 1289,-507.88 1289,-340.12 1289,-309.41 1289,-273.8 1289,-251.99"/>
<polygon fill="#63b8ff" stroke="#63b8ff" points="1292.5,-252.14 1289,-242.14 1285.5,-252.14 1292.5,-252.14"/>
</a>
</g>
</g>
<!-- Node10 -->
<g id="Node000010" class="node">
<title>Node10</title>
<g id="a_Node000010"><a xlink:href="_sub_component_8h.html" target="_top" xlink:title=" ">
<polygon fill="white" stroke="#666666" points="1260.88,-571.75 1169.12,-571.75 1169.12,-552.5 1260.88,-552.5 1260.88,-571.75"/>
<text text-anchor="middle" x="1215" y="-558.25" font-family="Helvetica,sans-Serif" font-size="10.00">SubComponent.h</text>
</a>
</g>
</g>
<!-- Node1&#45;&gt;Node10 -->
<g id="edge9_Node000001_Node000010" class="edge">
<title>Node1&#45;&gt;Node10</title>
<g id="a_edge9_Node000001_Node000010"><a xlink:title=" ">
<path fill="none" stroke="#63b8ff" d="M1240.5,-607.57C1235.83,-599.43 1230.47,-590.08 1225.87,-582.07"/>
<polygon fill="#63b8ff" stroke="#63b8ff" points="1228.97,-580.44 1220.96,-573.51 1222.9,-583.92 1228.97,-580.44"/>
</a>
</g>
</g>
<!-- Node3 -->
<g id="Node000003" class="node">
<title>Node3</title>
<g id="a_Node000003"><a xlink:href="_aliases_8h.html" target="_top" xlink:title=" ">
<polygon fill="white" stroke="#666666" points="1177.25,-185 1120.75,-185 1120.75,-165.75 1177.25,-165.75 1177.25,-185"/>
<text text-anchor="middle" x="1149" y="-171.5" font-family="Helvetica,sans-Serif" font-size="10.00">Aliases.h</text>
</a>
</g>
</g>
<!-- Node2&#45;&gt;Node3 -->
<g id="edge2_Node000002_Node000003" class="edge">
<title>Node2&#45;&gt;Node3</title>
<g id="a_edge2_Node000002_Node000003"><a xlink:title=" ">
<path fill="none" stroke="#63b8ff" d="M1265.25,-220.59C1242.83,-212.06 1208.94,-199.17 1183.53,-189.51"/>
<polygon fill="#63b8ff" stroke="#63b8ff" points="1184.87,-186.27 1174.28,-185.99 1182.38,-192.82 1184.87,-186.27"/>
</a>
</g>
</g>
<!-- Node9 -->
<g id="Node000009" class="node">
<title>Node9</title>
<g id="a_Node000009"><a xlink:href="_reflection_8h.html" target="_top" xlink:title=" ">
<polygon fill="white" stroke="#666666" points="1077.25,-185 1008.75,-185 1008.75,-165.75 1077.25,-165.75 1077.25,-185"/>
<text text-anchor="middle" x="1043" y="-171.5" font-family="Helvetica,sans-Serif" font-size="10.00">Reflection.h</text>
</a>
</g>
</g>
<!-- Node2&#45;&gt;Node9 -->
<g id="edge8_Node000002_Node000009" class="edge">
<title>Node2&#45;&gt;Node9</title>
<g id="a_edge8_Node000002_Node000009"><a xlink:title=" ">
<path fill="none" stroke="#63b8ff" d="M1246.99,-220.53C1202.97,-211 1134.02,-196.08 1088.67,-186.26"/>
<polygon fill="#63b8ff" stroke="#63b8ff" points="1089.67,-182.9 1079.16,-184.2 1088.19,-189.74 1089.67,-182.9"/>
</a>
</g>
</g>
<!-- Node4 -->
<g id="Node000004" class="node">
<title>Node4</title>
<g id="a_Node000004"><a xlink:href="_macros_8h.html" target="_top" xlink:title=" ">
<polygon fill="white" stroke="#666666" points="894.25,-129.75 837.75,-129.75 837.75,-110.5 894.25,-110.5 894.25,-129.75"/>
<text text-anchor="middle" x="866" y="-116.25" font-family="Helvetica,sans-Serif" font-size="10.00">Macros.h</text>
</a>
</g>
</g>
<!-- Node3&#45;&gt;Node4 -->
<g id="edge3_Node000003_Node000004" class="edge">
<title>Node3&#45;&gt;Node4</title>
<g id="a_edge3_Node000003_Node000004"><a xlink:title=" ">
<path fill="none" stroke="#63b8ff" d="M1120.31,-168.98C1069.43,-159.4 963.34,-139.44 905.57,-128.57"/>
<polygon fill="#63b8ff" stroke="#63b8ff" points="906.31,-125.15 895.84,-126.74 905.02,-132.03 906.31,-125.15"/>
</a>
</g>
</g>
<!-- Node5 -->
<g id="Node000005" class="node">
<title>Node5</title>
<g id="a_Node000005"><a xlink:href="_types_8h.html" target="_top" xlink:title=" ">
<polygon fill="white" stroke="#666666" points="304.25,-74.5 253.75,-74.5 253.75,-55.25 304.25,-55.25 304.25,-74.5"/>
<text text-anchor="middle" x="279" y="-61" font-family="Helvetica,sans-Serif" font-size="10.00">Types.h</text>
</a>
</g>
</g>
<!-- Node4&#45;&gt;Node5 -->
<g id="edge4_Node000004_Node000005" class="edge">
<title>Node4&#45;&gt;Node5</title>
<g id="a_edge4_Node000004_Node000005"><a xlink:title=" ">
<path fill="none" stroke="#63b8ff" d="M837.29,-116.52C740.23,-107.72 424.34,-79.06 315.92,-69.22"/>
<polygon fill="#63b8ff" stroke="#63b8ff" points="316.41,-65.75 306.13,-68.34 315.78,-72.73 316.41,-65.75"/>
</a>
</g>
</g>
<!-- Node6 -->
<g id="Node000006" class="node">
<title>Node6</title>
<g id="a_Node000006"><a xlink:title=" ">
<polygon fill="#e0e0e0" stroke="#999999" points="236.5,-19.25 169.5,-19.25 169.5,0 236.5,0 236.5,-19.25"/>
<text text-anchor="middle" x="203" y="-5.75" font-family="Helvetica,sans-Serif" font-size="10.00">sys/types.h</text>
</a>
</g>
</g>
<!-- Node5&#45;&gt;Node6 -->
<g id="edge5_Node000005_Node000006" class="edge">
<title>Node5&#45;&gt;Node6</title>
<g id="a_edge5_Node000005_Node000006"><a xlink:title=" ">
<path fill="none" stroke="#63b8ff" d="M266.11,-54.84C254.97,-47.04 238.63,-35.59 225.36,-26.29"/>
<polygon fill="#63b8ff" stroke="#63b8ff" points="227.39,-23.44 217.2,-20.57 223.38,-29.18 227.39,-23.44"/>
</a>
</g>
</g>
<!-- Node7 -->
<g id="Node000007" class="node">
<title>Node7</title>
<g id="a_Node000007"><a xlink:title=" ">
<polygon fill="#e0e0e0" stroke="#999999" points="303.12,-19.25 254.88,-19.25 254.88,0 303.12,0 303.12,-19.25"/>
<text text-anchor="middle" x="279" y="-5.75" font-family="Helvetica,sans-Serif" font-size="10.00">stdint.h</text>
</a>
</g>
</g>
<!-- Node5&#45;&gt;Node7 -->
<g id="edge6_Node000005_Node000007" class="edge">
<title>Node5&#45;&gt;Node7</title>
<g id="a_edge6_Node000005_Node000007"><a xlink:title=" ">
<path fill="none" stroke="#63b8ff" d="M279,-55.08C279,-48.57 279,-39.42 279,-31.12"/>
<polygon fill="#63b8ff" stroke="#63b8ff" points="282.5,-31.12 279,-21.12 275.5,-31.12 282.5,-31.12"/>
</a>
</g>
</g>
<!-- Node8 -->
<g id="Node000008" class="node">
<title>Node8</title>
<g id="a_Node000008"><a xlink:title=" ">
<polygon fill="#e0e0e0" stroke="#999999" points="376.88,-19.25 321.12,-19.25 321.12,0 376.88,0 376.88,-19.25"/>
<text text-anchor="middle" x="349" y="-5.75" font-family="Helvetica,sans-Serif" font-size="10.00">stdbool.h</text>
</a>
</g>
</g>
<!-- Node5&#45;&gt;Node8 -->
<g id="edge7_Node000005_Node000008" class="edge">
<title>Node5&#45;&gt;Node8</title>
<g id="a_edge7_Node000005_Node000008"><a xlink:title=" ">
<path fill="none" stroke="#63b8ff" d="M290.87,-54.84C301.09,-47.07 316.07,-35.67 328.26,-26.4"/>
<polygon fill="#63b8ff" stroke="#63b8ff" points="330.26,-29.28 336.1,-20.44 326.02,-23.71 330.26,-29.28"/>
</a>
</g>
</g>
<!-- Node11 -->
<g id="Node000011" class="node">
<title>Node11</title>
<g id="a_Node000011"><a xlink:href="_core_component_8h.html" target="_top" xlink:title=" ">
<polygon fill="white" stroke="#666666" points="793.75,-516.5 698.25,-516.5 698.25,-497.25 793.75,-497.25 793.75,-516.5"/>
<text text-anchor="middle" x="746" y="-503" font-family="Helvetica,sans-Serif" font-size="10.00">CoreComponent.h</text>
</a>
</g>
</g>
<!-- Node10&#45;&gt;Node11 -->
<g id="edge10_Node000010_Node000011" class="edge">
<title>Node10&#45;&gt;Node11</title>
<g id="a_edge10_Node000010_Node000011"><a xlink:title=" ">
<path fill="none" stroke="#63b8ff" d="M1168.75,-555.87C1083.12,-546.15 900.01,-525.36 805.37,-514.62"/>
<polygon fill="#63b8ff" stroke="#63b8ff" points="805.83,-511.15 795.5,-513.5 805.04,-518.1 805.83,-511.15"/>
</a>
</g>
</g>
<!-- Node43 -->
<g id="Node000043" class="node">
<title>Node43</title>
<g id="a_Node000043"><a xlink:href="_c_p_u_types_8h.html" target="_top" xlink:title=" ">
<polygon fill="white" stroke="#666666" points="1423.12,-240.25 1350.88,-240.25 1350.88,-221 1423.12,-221 1423.12,-240.25"/>
<text text-anchor="middle" x="1387" y="-226.75" font-family="Helvetica,sans-Serif" font-size="10.00">CPUTypes.h</text>
</a>
</g>
</g>
<!-- Node10&#45;&gt;Node43 -->
<g id="edge63_Node000010_Node000043" class="edge">
<title>Node10&#45;&gt;Node43</title>
<g id="a_edge63_Node000010_Node000043"><a xlink:title=" ">
<path fill="none" stroke="#63b8ff" d="M1220.16,-552.17C1230.11,-534.02 1251,-491.33 1251,-452.62 1251,-452.62 1251,-452.62 1251,-395.38 1251,-327.02 1322,-271.95 1361.4,-246.66"/>
<polygon fill="#63b8ff" stroke="#63b8ff" points="1363.21,-249.66 1369.85,-241.4 1359.51,-243.72 1363.21,-249.66"/>
</a>
</g>
</g>
<!-- Node12 -->
<g id="Node000012" class="node">
<title>Node12</title>
<g id="a_Node000012"><a xlink:href="_emulator_types_8h.html" target="_top" xlink:title=" ">
<polygon fill="white" stroke="#666666" points="1123.75,-295.5 1034.25,-295.5 1034.25,-276.25 1123.75,-276.25 1123.75,-295.5"/>
<text text-anchor="middle" x="1079" y="-282" font-family="Helvetica,sans-Serif" font-size="10.00">EmulatorTypes.h</text>
</a>
</g>
</g>
<!-- Node11&#45;&gt;Node12 -->
<g id="edge11_Node000011_Node000012" class="edge">
<title>Node11&#45;&gt;Node12</title>
<g id="a_edge11_Node000011_Node000012"><a xlink:title=" ">
<path fill="none" stroke="#63b8ff" d="M793.85,-502.26C836.51,-497.47 899.67,-486.44 949,-461.25 1014.74,-427.68 1039.68,-416.62 1073,-350.75 1079.86,-337.19 1081.11,-319.95 1080.78,-306.79"/>
<polygon fill="#63b8ff" stroke="#63b8ff" points="1084.3,-306.97 1080.21,-297.2 1077.31,-307.39 1084.3,-306.97"/>
</a>
</g>
</g>
<!-- Node13 -->
<g id="Node000013" class="node">
<title>Node13</title>
<g id="a_Node000013"><a xlink:href="_thread_types_8h.html" target="_top" xlink:title=" ">
<polygon fill="white" stroke="#666666" points="1189.25,-240.25 1108.75,-240.25 1108.75,-221 1189.25,-221 1189.25,-240.25"/>
<text text-anchor="middle" x="1149" y="-226.75" font-family="Helvetica,sans-Serif" font-size="10.00">ThreadTypes.h</text>
</a>
</g>
</g>
<!-- Node11&#45;&gt;Node13 -->
<g id="edge61_Node000011_Node000013" class="edge">
<title>Node11&#45;&gt;Node13</title>
<g id="a_edge61_Node000011_Node000013"><a xlink:title=" ">
<path fill="none" stroke="#63b8ff" d="M794.17,-503.16C901.71,-495.77 1152,-470.7 1152,-397.38 1152,-397.38 1152,-397.38 1152,-340.12 1152,-309.39 1150.78,-273.79 1149.9,-251.99"/>
<polygon fill="#63b8ff" stroke="#63b8ff" points="1153.4,-251.98 1149.48,-242.14 1146.41,-252.28 1153.4,-251.98"/>
</a>
</g>
</g>
<!-- Node14 -->
<g id="Node000014" class="node">
<title>Node14</title>
<g id="a_Node000014"><a xlink:href="_core_object_8h.html" target="_top" xlink:title=" ">
<polygon fill="white" stroke="#666666" points="849.88,-350.75 776.12,-350.75 776.12,-331.5 849.88,-331.5 849.88,-350.75"/>
<text text-anchor="middle" x="813" y="-337.25" font-family="Helvetica,sans-Serif" font-size="10.00">CoreObject.h</text>
</a>
</g>
</g>
<!-- Node11&#45;&gt;Node14 -->
<g id="edge17_Node000011_Node000014" class="edge">
<title>Node11&#45;&gt;Node14</title>
<g id="a_edge17_Node000011_Node000014"><a xlink:title=" ">
<path fill="none" stroke="#63b8ff" d="M748.13,-496.93C753.11,-476.7 766.53,-426.16 785,-386.75 789.27,-377.65 795.03,-368.14 800.21,-360.25"/>
<polygon fill="#63b8ff" stroke="#63b8ff" points="802.94,-362.47 805.68,-352.24 797.15,-358.53 802.94,-362.47"/>
</a>
</g>
</g>
<!-- Node21 -->
<g id="Node000021" class="node">
<title>Node21</title>
<g id="a_Node000021"><a xlink:href="_synchronizable_8h.html" target="_top" xlink:title=" ">
<polygon fill="white" stroke="#666666" points="736.5,-406 645.5,-406 645.5,-386.75 736.5,-386.75 736.5,-406"/>
<text text-anchor="middle" x="691" y="-392.5" font-family="Helvetica,sans-Serif" font-size="10.00">Synchronizable.h</text>
</a>
</g>
</g>
<!-- Node11&#45;&gt;Node21 -->
<g id="edge27_Node000011_Node000021" class="edge">
<title>Node11&#45;&gt;Node21</title>
<g id="a_edge27_Node000011_Node000021"><a xlink:title=" ">
<path fill="none" stroke="#63b8ff" d="M741.5,-497C732.64,-479.51 712.74,-440.27 700.74,-416.59"/>
<polygon fill="#63b8ff" stroke="#63b8ff" points="703.89,-415.06 696.25,-407.73 697.65,-418.23 703.89,-415.06"/>
</a>
</g>
</g>
<!-- Node22 -->
<g id="Node000022" class="node">
<title>Node22</title>
<g id="a_Node000022"><a xlink:href="_concurrency_8h.html" target="_top" xlink:title=" ">
<polygon fill="white" stroke="#666666" points="580.12,-350.75 501.88,-350.75 501.88,-331.5 580.12,-331.5 580.12,-350.75"/>
<text text-anchor="middle" x="541" y="-337.25" font-family="Helvetica,sans-Serif" font-size="10.00">Concurrency.h</text>
</a>
</g>
</g>
<!-- Node11&#45;&gt;Node22 -->
<g id="edge58_Node000011_Node000022" class="edge">
<title>Node11&#45;&gt;Node22</title>
<g id="a_edge58_Node000011_Node000022"><a xlink:title=" ">
<path fill="none" stroke="#63b8ff" d="M734.69,-496.84C701.44,-470.28 603.69,-392.2 561.16,-358.23"/>
<polygon fill="#63b8ff" stroke="#63b8ff" points="563.46,-355.59 553.46,-352.08 559.09,-361.05 563.46,-355.59"/>
</a>
</g>
</g>
<!-- Node27 -->
<g id="Node000027" class="node">
<title>Node27</title>
<g id="a_Node000027"><a xlink:href="_serializable_8h.html" target="_top" xlink:title=" ">
<polygon fill="white" stroke="#666666" points="589.25,-461.25 514.75,-461.25 514.75,-442 589.25,-442 589.25,-461.25"/>
<text text-anchor="middle" x="552" y="-447.75" font-family="Helvetica,sans-Serif" font-size="10.00">Serializable.h</text>
</a>
</g>
</g>
<!-- Node11&#45;&gt;Node27 -->
<g id="edge34_Node000011_Node000027" class="edge">
<title>Node11&#45;&gt;Node27</title>
<g id="a_edge34_Node000011_Node000027"><a xlink:title=" ">
<path fill="none" stroke="#63b8ff" d="M713.09,-496.84C680.9,-488.01 631.66,-474.49 596.1,-464.73"/>
<polygon fill="#63b8ff" stroke="#63b8ff" points="597.1,-461.37 586.53,-462.1 595.25,-468.13 597.1,-461.37"/>
</a>
</g>
</g>
<!-- Node28 -->
<g id="Node000028" class="node">
<title>Node28</title>
<g id="a_Node000028"><a xlink:href="_configurable_8h.html" target="_top" xlink:title=" ">
<polygon fill="white" stroke="#666666" points="939.5,-461.25 860.5,-461.25 860.5,-442 939.5,-442 939.5,-461.25"/>
<text text-anchor="middle" x="900" y="-447.75" font-family="Helvetica,sans-Serif" font-size="10.00">Configurable.h</text>
</a>
</g>
</g>
<!-- Node11&#45;&gt;Node28 -->
<g id="edge35_Node000011_Node000028" class="edge">
<title>Node11&#45;&gt;Node28</title>
<g id="a_edge35_Node000011_Node000028"><a xlink:title=" ">
<path fill="none" stroke="#63b8ff" d="M772.12,-496.84C797.12,-488.2 835.08,-475.07 863.15,-465.37"/>
<polygon fill="#63b8ff" stroke="#63b8ff" points="864.01,-468.77 872.32,-462.2 861.72,-462.16 864.01,-468.77"/>
</a>
</g>
</g>
<!-- Node33 -->
<g id="Node000033" class="node">
<title>Node33</title>
<g id="a_Node000033"><a xlink:title=" ">
<polygon fill="#e0e0e0" stroke="#999999" points="155.5,-185 112.5,-185 112.5,-165.75 155.5,-165.75 155.5,-185"/>
<text text-anchor="middle" x="134" y="-171.5" font-family="Helvetica,sans-Serif" font-size="10.00">vector</text>
</a>
</g>
</g>
<!-- Node11&#45;&gt;Node33 -->
<g id="edge62_Node000011_Node000033" class="edge">
<title>Node11&#45;&gt;Node33</title>
<g id="a_edge62_Node000011_Node000033"><a xlink:title=" ">
<path fill="none" stroke="#63b8ff" d="M697.91,-503.97C532.93,-496.8 0,-468.17 0,-397.38 0,-397.38 0,-397.38 0,-284.88 0,-232.86 61.73,-201.47 101.4,-186.67"/>
<polygon fill="#63b8ff" stroke="#63b8ff" points="102.49,-190 110.75,-183.36 100.15,-183.4 102.49,-190"/>
</a>
</g>
</g>
<!-- Node41 -->
<g id="Node000041" class="node">
<title>Node41</title>
<g id="a_Node000041"><a xlink:href="_suspendable_8h.html" target="_top" xlink:title=" ">
<polygon fill="white" stroke="#666666" points="496.25,-461.25 415.75,-461.25 415.75,-442 496.25,-442 496.25,-461.25"/>
<text text-anchor="middle" x="456" y="-447.75" font-family="Helvetica,sans-Serif" font-size="10.00">Suspendable.h</text>
</a>
</g>
</g>
<!-- Node11&#45;&gt;Node41 -->
<g id="edge59_Node000011_Node000041" class="edge">
<title>Node11&#45;&gt;Node41</title>
<g id="a_edge59_Node000011_Node000041"><a xlink:title=" ">
<path fill="none" stroke="#63b8ff" d="M697.79,-497.02C645.16,-487.36 561.23,-471.95 507.38,-462.06"/>
<polygon fill="#63b8ff" stroke="#63b8ff" points="508.33,-458.67 497.86,-460.31 507.06,-465.56 508.33,-458.67"/>
</a>
</g>
</g>
<!-- Node12&#45;&gt;Node3 -->
<g id="edge12_Node000012_Node000003" class="edge">
<title>Node12&#45;&gt;Node3</title>
<g id="a_edge12_Node000012_Node000003"><a xlink:title=" ">
<path fill="none" stroke="#63b8ff" d="M1080.43,-275.99C1082.83,-263.05 1088.58,-238.63 1100,-221 1107.13,-209.99 1117.63,-199.94 1127.08,-192.17"/>
<polygon fill="#63b8ff" stroke="#63b8ff" points="1129.08,-195.05 1134.82,-186.15 1124.78,-189.53 1129.08,-195.05"/>
</a>
</g>
</g>
<!-- Node12&#45;&gt;Node9 -->
<g id="edge13_Node000012_Node000009" class="edge">
<title>Node12&#45;&gt;Node9</title>
<g id="a_edge13_Node000012_Node000009"><a xlink:title=" ">
<path fill="none" stroke="#63b8ff" d="M1076.05,-276C1070.31,-258.67 1057.47,-219.98 1049.59,-196.24"/>
<polygon fill="#63b8ff" stroke="#63b8ff" points="1052.93,-195.2 1046.46,-186.81 1046.29,-197.41 1052.93,-195.2"/>
</a>
</g>
</g>
<!-- Node12&#45;&gt;Node13 -->
<g id="edge14_Node000012_Node000013" class="edge">
<title>Node12&#45;&gt;Node13</title>
<g id="a_edge14_Node000012_Node000013"><a xlink:title=" ">
<path fill="none" stroke="#63b8ff" d="M1090.87,-275.84C1101.09,-268.07 1116.07,-256.67 1128.26,-247.4"/>
<polygon fill="#63b8ff" stroke="#63b8ff" points="1130.26,-250.28 1136.1,-241.44 1126.02,-244.71 1130.26,-250.28"/>
</a>
</g>
</g>
<!-- Node13&#45;&gt;Node3 -->
<g id="edge15_Node000013_Node000003" class="edge">
<title>Node13&#45;&gt;Node3</title>
<g id="a_edge15_Node000013_Node000003"><a xlink:title=" ">
<path fill="none" stroke="#63b8ff" d="M1149,-220.83C1149,-214.32 1149,-205.17 1149,-196.87"/>
<polygon fill="#63b8ff" stroke="#63b8ff" points="1152.5,-196.87 1149,-186.87 1145.5,-196.87 1152.5,-196.87"/>
</a>
</g>
</g>
<!-- Node13&#45;&gt;Node9 -->
<g id="edge16_Node000013_Node000009" class="edge">
<title>Node13&#45;&gt;Node9</title>
<g id="a_edge16_Node000013_Node000009"><a xlink:title=" ">
<path fill="none" stroke="#63b8ff" d="M1131.02,-220.59C1114.65,-212.37 1090.21,-200.09 1071.24,-190.56"/>
<polygon fill="#63b8ff" stroke="#63b8ff" points="1072.93,-187.49 1062.42,-186.13 1069.79,-193.75 1072.93,-187.49"/>
</a>
</g>
</g>
<!-- Node15 -->
<g id="Node000015" class="node">
<title>Node15</title>
<g id="a_Node000015"><a xlink:href="_error_8h.html" target="_top" xlink:title=" ">
<polygon fill="white" stroke="#666666" points="837.25,-295.5 792.75,-295.5 792.75,-276.25 837.25,-276.25 837.25,-295.5"/>
<text text-anchor="middle" x="815" y="-282" font-family="Helvetica,sans-Serif" font-size="10.00">Error.h</text>
</a>
</g>
</g>
<!-- Node14&#45;&gt;Node15 -->
<g id="edge18_Node000014_Node000015" class="edge">
<title>Node14&#45;&gt;Node15</title>
<g id="a_edge18_Node000014_Node000015"><a xlink:title=" ">
<path fill="none" stroke="#63b8ff" d="M813.33,-331.33C813.58,-324.74 813.93,-315.46 814.24,-307.07"/>
<polygon fill="#63b8ff" stroke="#63b8ff" points="817.73,-307.5 814.61,-297.37 810.73,-307.23 817.73,-307.5"/>
</a>
</g>
</g>
<!-- Node19 -->
<g id="Node000019" class="node">
<title>Node19</title>
<g id="a_Node000019"><a xlink:href="_inspectable_8h.html" target="_top" xlink:title=" ">
<polygon fill="white" stroke="#666666" points="774.25,-295.5 699.75,-295.5 699.75,-276.25 774.25,-276.25 774.25,-295.5"/>
<text text-anchor="middle" x="737" y="-282" font-family="Helvetica,sans-Serif" font-size="10.00">Inspectable.h</text>
</a>
</g>
</g>
<!-- Node14&#45;&gt;Node19 -->
<g id="edge25_Node000014_Node000019" class="edge">
<title>Node14&#45;&gt;Node19</title>
<g id="a_edge25_Node000014_Node000019"><a xlink:title=" ">
<path fill="none" stroke="#63b8ff" d="M800.11,-331.09C788.97,-323.29 772.63,-311.84 759.36,-302.54"/>
<polygon fill="#63b8ff" stroke="#63b8ff" points="761.39,-299.69 751.2,-296.82 757.38,-305.43 761.39,-299.69"/>
</a>
</g>
</g>
<!-- Node16 -->
<g id="Node000016" class="node">
<title>Node16</title>
<g id="a_Node000016"><a xlink:href="_error_types_8h.html" target="_top" xlink:title=" ">
<polygon fill="white" stroke="#666666" points="938.75,-240.25 867.25,-240.25 867.25,-221 938.75,-221 938.75,-240.25"/>
<text text-anchor="middle" x="903" y="-226.75" font-family="Helvetica,sans-Serif" font-size="10.00">ErrorTypes.h</text>
</a>
</g>
</g>
<!-- Node15&#45;&gt;Node16 -->
<g id="edge19_Node000015_Node000016" class="edge">
<title>Node15&#45;&gt;Node16</title>
<g id="a_edge19_Node000015_Node000016"><a xlink:title=" ">
<path fill="none" stroke="#63b8ff" d="M829.93,-275.84C843.2,-267.81 862.87,-255.91 878.45,-246.48"/>
<polygon fill="#63b8ff" stroke="#63b8ff" points="879.96,-249.66 886.7,-241.49 876.34,-243.67 879.96,-249.66"/>
</a>
</g>
</g>
<!-- Node17 -->
<g id="Node000017" class="node">
<title>Node17</title>
<g id="a_Node000017"><a xlink:href="_exception_8h.html" target="_top" xlink:title=" ">
<polygon fill="white" stroke="#666666" points="848.88,-240.25 781.12,-240.25 781.12,-221 848.88,-221 848.88,-240.25"/>
<text text-anchor="middle" x="815" y="-226.75" font-family="Helvetica,sans-Serif" font-size="10.00">Exception.h</text>
</a>
</g>
</g>
<!-- Node15&#45;&gt;Node17 -->
<g id="edge22_Node000015_Node000017" class="edge">
<title>Node15&#45;&gt;Node17</title>
<g id="a_edge22_Node000015_Node000017"><a xlink:title=" ">
<path fill="none" stroke="#63b8ff" d="M815,-276.08C815,-269.57 815,-260.42 815,-252.12"/>
<polygon fill="#63b8ff" stroke="#63b8ff" points="818.5,-252.12 815,-242.12 811.5,-252.12 818.5,-252.12"/>
</a>
</g>
</g>
<!-- Node16&#45;&gt;Node3 -->
<g id="edge20_Node000016_Node000003" class="edge">
<title>Node16&#45;&gt;Node3</title>
<g id="a_edge20_Node000016_Node000003"><a xlink:title=" ">
<path fill="none" stroke="#63b8ff" d="M939.03,-221.82C984.53,-211.98 1062.52,-195.1 1109.57,-184.91"/>
<polygon fill="#63b8ff" stroke="#63b8ff" points="1110.02,-188.39 1119.06,-182.86 1108.54,-181.55 1110.02,-188.39"/>
</a>
</g>
</g>
<!-- Node16&#45;&gt;Node9 -->
<g id="edge21_Node000016_Node000009" class="edge">
<title>Node16&#45;&gt;Node9</title>
<g id="a_edge21_Node000016_Node000009"><a xlink:title=" ">
<path fill="none" stroke="#63b8ff" d="M926.75,-220.59C949.17,-212.06 983.06,-199.17 1008.47,-189.51"/>
<polygon fill="#63b8ff" stroke="#63b8ff" points="1009.62,-192.82 1017.72,-185.99 1007.13,-186.27 1009.62,-192.82"/>
</a>
</g>
</g>
<!-- Node17&#45;&gt;Node5 -->
<g id="edge23_Node000017_Node000005" class="edge">
<title>Node17&#45;&gt;Node5</title>
<g id="a_edge23_Node000017_Node000005"><a xlink:title=" ">
<path fill="none" stroke="#63b8ff" d="M785.42,-220.59C693.92,-192.63 415.62,-107.61 315.43,-77"/>
<polygon fill="#63b8ff" stroke="#63b8ff" points="316.7,-73.73 306.11,-74.16 314.65,-80.43 316.7,-73.73"/>
</a>
</g>
</g>
<!-- Node18 -->
<g id="Node000018" class="node">
<title>Node18</title>
<g id="a_Node000018"><a xlink:title=" ">
<polygon fill="#e0e0e0" stroke="#999999" points="844,-185 786,-185 786,-165.75 844,-165.75 844,-185"/>
<text text-anchor="middle" x="815" y="-171.5" font-family="Helvetica,sans-Serif" font-size="10.00">exception</text>
</a>
</g>
</g>
<!-- Node17&#45;&gt;Node18 -->
<g id="edge24_Node000017_Node000018" class="edge">
<title>Node17&#45;&gt;Node18</title>
<g id="a_edge24_Node000017_Node000018"><a xlink:title=" ">
<path fill="none" stroke="#63b8ff" d="M815,-220.83C815,-214.32 815,-205.17 815,-196.87"/>
<polygon fill="#63b8ff" stroke="#63b8ff" points="818.5,-196.87 815,-186.87 811.5,-196.87 818.5,-196.87"/>
</a>
</g>
</g>
<!-- Node20 -->
<g id="Node000020" class="node">
<title>Node20</title>
<g id="a_Node000020"><a xlink:title=" ">
<polygon fill="#e0e0e0" stroke="#999999" points="762.75,-240.25 709.25,-240.25 709.25,-221 762.75,-221 762.75,-240.25"/>
<text text-anchor="middle" x="736" y="-226.75" font-family="Helvetica,sans-Serif" font-size="10.00">iostream</text>
</a>
</g>
</g>
<!-- Node19&#45;&gt;Node20 -->
<g id="edge26_Node000019_Node000020" class="edge">
<title>Node19&#45;&gt;Node20</title>
<g id="a_edge26_Node000019_Node000020"><a xlink:title=" ">
<path fill="none" stroke="#63b8ff" d="M736.83,-276.08C736.71,-269.57 736.54,-260.42 736.38,-252.12"/>
<polygon fill="#63b8ff" stroke="#63b8ff" points="739.88,-252.05 736.2,-242.12 732.89,-252.19 739.88,-252.05"/>
</a>
</g>
</g>
<!-- Node21&#45;&gt;Node22 -->
<g id="edge28_Node000021_Node000022" class="edge">
<title>Node21&#45;&gt;Node22</title>
<g id="a_edge28_Node000021_Node000022"><a xlink:title=" ">
<path fill="none" stroke="#63b8ff" d="M665.55,-386.34C641.31,-377.74 604.57,-364.69 577.26,-355"/>
<polygon fill="#63b8ff" stroke="#63b8ff" points="578.59,-351.76 568,-351.71 576.25,-358.35 578.59,-351.76"/>
</a>
</g>
</g>
<!-- Node23 -->
<g id="Node000023" class="node">
<title>Node23</title>
<g id="a_Node000023"><a xlink:href="_chrono_8h.html" target="_top" xlink:title=" ">
<polygon fill="white" stroke="#666666" points="113.88,-295.5 58.12,-295.5 58.12,-276.25 113.88,-276.25 113.88,-295.5"/>
<text text-anchor="middle" x="86" y="-282" font-family="Helvetica,sans-Serif" font-size="10.00">Chrono.h</text>
</a>
</g>
</g>
<!-- Node22&#45;&gt;Node23 -->
<g id="edge29_Node000022_Node000023" class="edge">
<title>Node22&#45;&gt;Node23</title>
<g id="a_edge29_Node000022_Node000023"><a xlink:title=" ">
<path fill="none" stroke="#63b8ff" d="M501.42,-335.49C415.31,-325.41 211.8,-301.6 125.64,-291.51"/>
<polygon fill="#63b8ff" stroke="#63b8ff" points="126.13,-288.05 115.79,-290.36 125.31,-295 126.13,-288.05"/>
</a>
</g>
</g>
<!-- Node25 -->
<g id="Node000025" class="node">
<title>Node25</title>
<g id="a_Node000025"><a xlink:title=" ">
<polygon fill="#e0e0e0" stroke="#999999" points="415.5,-295.5 372.5,-295.5 372.5,-276.25 415.5,-276.25 415.5,-295.5"/>
<text text-anchor="middle" x="394" y="-282" font-family="Helvetica,sans-Serif" font-size="10.00">thread</text>
</a>
</g>
</g>
<!-- Node22&#45;&gt;Node25 -->
<g id="edge32_Node000022_Node000025" class="edge">
<title>Node22&#45;&gt;Node25</title>
<g id="a_edge32_Node000022_Node000025"><a xlink:title=" ">
<path fill="none" stroke="#63b8ff" d="M516.06,-331.09C491.3,-322.12 453.22,-308.33 426.18,-298.53"/>
<polygon fill="#63b8ff" stroke="#63b8ff" points="427.72,-295.37 417.12,-295.25 425.33,-301.95 427.72,-295.37"/>
</a>
</g>
</g>
<!-- Node26 -->
<g id="Node000026" class="node">
<title>Node26</title>
<g id="a_Node000026"><a xlink:title=" ">
<polygon fill="#e0e0e0" stroke="#999999" points="474.38,-295.5 433.62,-295.5 433.62,-276.25 474.38,-276.25 474.38,-295.5"/>
<text text-anchor="middle" x="454" y="-282" font-family="Helvetica,sans-Serif" font-size="10.00">future</text>
</a>
</g>
</g>
<!-- Node22&#45;&gt;Node26 -->
<g id="edge33_Node000022_Node000026" class="edge">
<title>Node22&#45;&gt;Node26</title>
<g id="a_edge33_Node000022_Node000026"><a xlink:title=" ">
<path fill="none" stroke="#63b8ff" d="M526.24,-331.09C513.12,-323.06 493.68,-311.16 478.27,-301.73"/>
<polygon fill="#63b8ff" stroke="#63b8ff" points="480.48,-298.98 470.12,-296.74 476.82,-304.95 480.48,-298.98"/>
</a>
</g>
</g>
<!-- Node23&#45;&gt;Node5 -->
<g id="edge30_Node000023_Node000005" class="edge">
<title>Node23&#45;&gt;Node5</title>
<g id="a_edge30_Node000023_Node000005"><a xlink:title=" ">
<path fill="none" stroke="#63b8ff" d="M77.14,-275.97C66.15,-263.79 49.71,-241.16 57,-221 67.87,-190.95 78.49,-186.24 103,-165.75 148.51,-127.7 210.54,-96.4 247.51,-79.49"/>
<polygon fill="#63b8ff" stroke="#63b8ff" points="248.62,-82.83 256.3,-75.54 245.75,-76.45 248.62,-82.83"/>
</a>
</g>
</g>
<!-- Node24 -->
<g id="Node000024" class="node">
<title>Node24</title>
<g id="a_Node000024"><a xlink:title=" ">
<polygon fill="#e0e0e0" stroke="#999999" points="106,-240.25 66,-240.25 66,-221 106,-221 106,-240.25"/>
<text text-anchor="middle" x="86" y="-226.75" font-family="Helvetica,sans-Serif" font-size="10.00">ctime</text>
</a>
</g>
</g>
<!-- Node23&#45;&gt;Node24 -->
<g id="edge31_Node000023_Node000024" class="edge">
<title>Node23&#45;&gt;Node24</title>
<g id="a_edge31_Node000023_Node000024"><a xlink:title=" ">
<path fill="none" stroke="#63b8ff" d="M86,-276.08C86,-269.57 86,-260.42 86,-252.12"/>
<polygon fill="#63b8ff" stroke="#63b8ff" points="89.5,-252.12 86,-242.12 82.5,-252.12 89.5,-252.12"/>
</a>
</g>
</g>
<!-- Node28&#45;&gt;Node9 -->
<g id="edge39_Node000028_Node000009" class="edge">
<title>Node28&#45;&gt;Node9</title>
<g id="a_edge39_Node000028_Node000009"><a xlink:title=" ">
<path fill="none" stroke="#63b8ff" d="M908.69,-441.6C916.72,-432.95 928.63,-419.28 937,-406 960.96,-367.99 1014.35,-244 1034.81,-195.79"/>
<polygon fill="#63b8ff" stroke="#63b8ff" points="1038,-197.24 1038.67,-186.66 1031.55,-194.51 1038,-197.24"/>
</a>
</g>
</g>
<!-- Node29 -->
<g id="Node000029" class="node">
<title>Node29</title>
<g id="a_Node000029"><a xlink:href="_option_types_8h.html" target="_top" xlink:title=" ">
<polygon fill="white" stroke="#666666" points="1063.5,-350.75 984.5,-350.75 984.5,-331.5 1063.5,-331.5 1063.5,-350.75"/>
<text text-anchor="middle" x="1024" y="-337.25" font-family="Helvetica,sans-Serif" font-size="10.00">OptionTypes.h</text>
</a>
</g>
</g>
<!-- Node28&#45;&gt;Node29 -->
<g id="edge36_Node000028_Node000029" class="edge">
<title>Node28&#45;&gt;Node29</title>
<g id="a_edge36_Node000028_Node000029"><a xlink:title=" ">
<path fill="none" stroke="#63b8ff" d="M917.1,-441.65C931.92,-433.45 953.51,-420.42 970,-406 985.68,-392.29 1000.74,-373.89 1010.96,-360.36"/>
<polygon fill="#63b8ff" stroke="#63b8ff" points="1013.75,-362.47 1016.85,-352.34 1008.11,-358.33 1013.75,-362.47"/>
</a>
</g>
</g>
<!-- Node30 -->
<g id="Node000030" class="node">
<title>Node30</title>
<g id="a_Node000030"><a xlink:href="_defaults_8h.html" target="_top" xlink:title=" ">
<polygon fill="white" stroke="#666666" points="854.5,-406 793.5,-406 793.5,-386.75 854.5,-386.75 854.5,-406"/>
<text text-anchor="middle" x="824" y="-392.5" font-family="Helvetica,sans-Serif" font-size="10.00">Defaults.h</text>
</a>
</g>
</g>
<!-- Node28&#45;&gt;Node30 -->
<g id="edge40_Node000028_Node000030" class="edge">
<title>Node28&#45;&gt;Node30</title>
<g id="a_edge40_Node000028_Node000030"><a xlink:title=" ">
<path fill="none" stroke="#63b8ff" d="M887.11,-441.59C875.97,-433.79 859.63,-422.34 846.36,-413.04"/>
<polygon fill="#63b8ff" stroke="#63b8ff" points="848.39,-410.19 838.2,-407.32 844.38,-415.93 848.39,-410.19"/>
</a>
</g>
</g>
<!-- Node40 -->
<g id="Node000040" class="node">
<title>Node40</title>
<g id="a_Node000040"><a xlink:title=" ">
<polygon fill="#e0e0e0" stroke="#999999" points="927.88,-406 872.12,-406 872.12,-386.75 927.88,-386.75 927.88,-406"/>
<text text-anchor="middle" x="900" y="-392.5" font-family="Helvetica,sans-Serif" font-size="10.00">algorithm</text>
</a>
</g>
</g>
<!-- Node28&#45;&gt;Node40 -->
<g id="edge57_Node000028_Node000040" class="edge">
<title>Node28&#45;&gt;Node40</title>
<g id="a_edge57_Node000028_Node000040"><a xlink:title=" ">
<path fill="none" stroke="#63b8ff" d="M900,-441.83C900,-435.32 900,-426.17 900,-417.87"/>
<polygon fill="#63b8ff" stroke="#63b8ff" points="903.5,-417.87 900,-407.87 896.5,-417.87 903.5,-417.87"/>
</a>
</g>
</g>
<!-- Node29&#45;&gt;Node3 -->
<g id="edge37_Node000029_Node000003" class="edge">
<title>Node29&#45;&gt;Node3</title>
<g id="a_edge37_Node000029_Node000003"><a xlink:title=" ">
<path fill="none" stroke="#63b8ff" d="M1063.62,-331.45C1106.98,-319.46 1173.59,-293.05 1198,-240.25 1206.43,-222.01 1189.94,-204.11 1173.85,-191.92"/>
<polygon fill="#63b8ff" stroke="#63b8ff" points="1176.06,-189.19 1165.86,-186.31 1172.04,-194.92 1176.06,-189.19"/>
</a>
</g>
</g>
<!-- Node29&#45;&gt;Node9 -->
<g id="edge38_Node000029_Node000009" class="edge">
<title>Node29&#45;&gt;Node9</title>
<g id="a_edge38_Node000029_Node000009"><a xlink:title=" ">
<path fill="none" stroke="#63b8ff" d="M1023.68,-331C1023.35,-318.58 1023.11,-295.68 1025,-276.25 1027.71,-248.35 1034.01,-216.56 1038.38,-196.49"/>
<polygon fill="#63b8ff" stroke="#63b8ff" points="1041.76,-197.39 1040.53,-186.87 1034.93,-195.87 1041.76,-197.39"/>
</a>
</g>
</g>
<!-- Node30&#45;&gt;Node14 -->
<g id="edge41_Node000030_Node000014" class="edge">
<title>Node30&#45;&gt;Node14</title>
<g id="a_edge41_Node000030_Node000014"><a xlink:title=" ">
<path fill="none" stroke="#63b8ff" d="M822.18,-386.58C820.82,-379.99 818.9,-370.71 817.17,-362.32"/>
<polygon fill="#63b8ff" stroke="#63b8ff" points="820.61,-361.68 815.16,-352.59 813.76,-363.09 820.61,-361.68"/>
</a>
</g>
</g>
<!-- Node30&#45;&gt;Node22 -->
<g id="edge43_Node000030_Node000022" class="edge">
<title>Node30&#45;&gt;Node22</title>
<g id="a_edge43_Node000030_Node000022"><a xlink:title=" ">
<path fill="none" stroke="#63b8ff" d="M793.18,-389.57C744.69,-380.45 650.12,-362.66 591.57,-351.64"/>
<polygon fill="#63b8ff" stroke="#63b8ff" points="592.33,-348.22 581.86,-349.81 591.04,-355.1 592.33,-348.22"/>
</a>
</g>
</g>
<!-- Node30&#45;&gt;Node29 -->
<g id="edge42_Node000030_Node000029" class="edge">
<title>Node30&#45;&gt;Node29</title>
<g id="a_edge42_Node000030_Node000029"><a xlink:title=" ">
<path fill="none" stroke="#63b8ff" d="M854.81,-387.17C888.02,-378.33 941.2,-364.17 979.07,-354.09"/>
<polygon fill="#63b8ff" stroke="#63b8ff" points="979.58,-357.58 988.34,-351.62 977.77,-350.81 979.58,-357.58"/>
</a>
</g>
</g>
<!-- Node31 -->
<g id="Node000031" class="node">
<title>Node31</title>
<g id="a_Node000031"><a xlink:href="_i_o_utils_8h.html" target="_top" xlink:title=" ">
<polygon fill="white" stroke="#666666" points="547.5,-295.5 492.5,-295.5 492.5,-276.25 547.5,-276.25 547.5,-295.5"/>
<text text-anchor="middle" x="520" y="-282" font-family="Helvetica,sans-Serif" font-size="10.00">IOUtils.h</text>
</a>
</g>
</g>
<!-- Node30&#45;&gt;Node31 -->
<g id="edge44_Node000030_Node000031" class="edge">
<title>Node30&#45;&gt;Node31</title>
<g id="a_edge44_Node000030_Node000031"><a xlink:title=" ">
<path fill="none" stroke="#63b8ff" d="M798.6,-386.31C744.62,-367.04 618.32,-321.97 556.04,-299.74"/>
<polygon fill="#63b8ff" stroke="#63b8ff" points="557.56,-296.56 546.96,-296.5 555.2,-303.16 557.56,-296.56"/>
</a>
</g>
</g>
<!-- Node31&#45;&gt;Node5 -->
<g id="edge45_Node000031_Node000005" class="edge">
<title>Node31&#45;&gt;Node5</title>
<g id="a_edge45_Node000031_Node000005"><a xlink:title=" ">
<path fill="none" stroke="#63b8ff" d="M492.16,-278.21C489.07,-277.53 485.97,-276.86 483,-276.25 437.9,-267.02 308.59,-275.52 279,-240.25 241.93,-196.06 260.04,-121.05 271.73,-85.58"/>
<polygon fill="#63b8ff" stroke="#63b8ff" points="275,-86.82 274.99,-76.23 268.39,-84.52 275,-86.82"/>
</a>
</g>
</g>
<!-- Node31&#45;&gt;Node20 -->
<g id="edge53_Node000031_Node000020" class="edge">
<title>Node31&#45;&gt;Node20</title>
<g id="a_edge53_Node000031_Node000020"><a xlink:title=" ">
<path fill="none" stroke="#63b8ff" d="M547.8,-278.02C586,-268.61 654.87,-251.63 697.86,-241.03"/>
<polygon fill="#63b8ff" stroke="#63b8ff" points="698.65,-244.44 707.52,-238.65 696.97,-237.64 698.65,-244.44"/>
</a>
</g>
</g>
<!-- Node32 -->
<g id="Node000032" class="node">
<title>Node32</title>
<g id="a_Node000032"><a xlink:href="_string_utils_8h.html" target="_top" xlink:title=" ">
<polygon fill="white" stroke="#666666" points="232,-240.25 162,-240.25 162,-221 232,-221 232,-240.25"/>
<text text-anchor="middle" x="197" y="-226.75" font-family="Helvetica,sans-Serif" font-size="10.00">StringUtils.h</text>
</a>
</g>
</g>
<!-- Node31&#45;&gt;Node32 -->
<g id="edge46_Node000031_Node000032" class="edge">
<title>Node31&#45;&gt;Node32</title>
<g id="a_edge46_Node000031_Node000032"><a xlink:title=" ">
<path fill="none" stroke="#63b8ff" d="M492.17,-278.14C489.08,-277.47 485.98,-276.82 483,-276.25 378.37,-256.14 351.14,-257.49 246,-240.25 245.17,-240.11 244.33,-239.98 243.49,-239.84"/>
<polygon fill="#63b8ff" stroke="#63b8ff" points="244.25,-236.41 233.8,-238.2 243.08,-243.32 244.25,-236.41"/>
</a>
</g>
</g>
<!-- Node31&#45;&gt;Node33 -->
<g id="edge56_Node000031_Node000033" class="edge">
<title>Node31&#45;&gt;Node33</title>
<g id="a_edge56_Node000031_Node000033"><a xlink:title=" ">
<path fill="none" stroke="#63b8ff" d="M492.19,-278.01C489.1,-277.36 485.99,-276.76 483,-276.25 410.28,-263.85 209.65,-287.5 153,-240.25 140.36,-229.7 135.9,-211.14 134.43,-196.74"/>
<polygon fill="#63b8ff" stroke="#63b8ff" points="137.94,-196.75 133.87,-186.97 130.95,-197.15 137.94,-196.75"/>
</a>
</g>
</g>
<!-- Node34 -->
<g id="Node000034" class="node">
<title>Node34</title>
<g id="a_Node000034"><a xlink:title=" ">
<polygon fill="#e0e0e0" stroke="#999999" points="398.5,-240.25 355.5,-240.25 355.5,-221 398.5,-221 398.5,-240.25"/>
<text text-anchor="middle" x="377" y="-226.75" font-family="Helvetica,sans-Serif" font-size="10.00">fcntl.h</text>
</a>
</g>
</g>
<!-- Node31&#45;&gt;Node34 -->
<g id="edge49_Node000031_Node000034" class="edge">
<title>Node31&#45;&gt;Node34</title>
<g id="a_edge49_Node000031_Node000034"><a xlink:title=" ">
<path fill="none" stroke="#63b8ff" d="M495.74,-275.84C471.9,-266.96 435.36,-253.36 409.12,-243.58"/>
<polygon fill="#63b8ff" stroke="#63b8ff" points="410.58,-240.39 399.98,-240.18 408.13,-246.95 410.58,-240.39"/>
</a>
</g>
</g>
<!-- Node35 -->
<g id="Node000035" class="node">
<title>Node35</title>
<g id="a_Node000035"><a xlink:title=" ">
<polygon fill="#e0e0e0" stroke="#999999" points="477.5,-240.25 416.5,-240.25 416.5,-221 477.5,-221 477.5,-240.25"/>
<text text-anchor="middle" x="447" y="-226.75" font-family="Helvetica,sans-Serif" font-size="10.00">filesystem</text>
</a>
</g>
</g>
<!-- Node31&#45;&gt;Node35 -->
<g id="edge50_Node000031_Node000035" class="edge">
<title>Node31&#45;&gt;Node35</title>
<g id="a_edge50_Node000031_Node000035"><a xlink:title=" ">
<path fill="none" stroke="#63b8ff" d="M507.62,-275.84C496.85,-267.99 481.03,-256.45 468.25,-247.12"/>
<polygon fill="#63b8ff" stroke="#63b8ff" points="470.56,-244.48 460.42,-241.42 466.44,-250.14 470.56,-244.48"/>
</a>
</g>
</g>
<!-- Node36 -->
<g id="Node000036" class="node">
<title>Node36</title>
<g id="a_Node000036"><a xlink:title=" ">
<polygon fill="#e0e0e0" stroke="#999999" points="337.5,-240.25 288.5,-240.25 288.5,-221 337.5,-221 337.5,-240.25"/>
<text text-anchor="middle" x="313" y="-226.75" font-family="Helvetica,sans-Serif" font-size="10.00">fstream</text>
</a>
</g>
</g>
<!-- Node31&#45;&gt;Node36 -->
<g id="edge51_Node000031_Node000036" class="edge">
<title>Node31&#45;&gt;Node36</title>
<g id="a_edge51_Node000031_Node000036"><a xlink:title=" ">
<path fill="none" stroke="#63b8ff" d="M492.27,-277.8C460,-269.57 404.83,-255.46 348.72,-240.95"/>
<polygon fill="#63b8ff" stroke="#63b8ff" points="349.89,-237.63 339.33,-238.52 348.13,-244.41 349.89,-237.63"/>
</a>
</g>
</g>
<!-- Node37 -->
<g id="Node000037" class="node">
<title>Node37</title>
<g id="a_Node000037"><a xlink:title=" ">
<polygon fill="#e0e0e0" stroke="#999999" points="544.12,-240.25 495.88,-240.25 495.88,-221 544.12,-221 544.12,-240.25"/>
<text text-anchor="middle" x="520" y="-226.75" font-family="Helvetica,sans-Serif" font-size="10.00">istream</text>
</a>
</g>
</g>
<!-- Node31&#45;&gt;Node37 -->
<g id="edge52_Node000031_Node000037" class="edge">
<title>Node31&#45;&gt;Node37</title>
<g id="a_edge52_Node000031_Node000037"><a xlink:title=" ">
<path fill="none" stroke="#63b8ff" d="M520,-276.08C520,-269.57 520,-260.42 520,-252.12"/>
<polygon fill="#63b8ff" stroke="#63b8ff" points="523.5,-252.12 520,-242.12 516.5,-252.12 523.5,-252.12"/>
</a>
</g>
</g>
<!-- Node38 -->
<g id="Node000038" class="node">
<title>Node38</title>
<g id="a_Node000038"><a xlink:title=" ">
<polygon fill="#e0e0e0" stroke="#999999" points="613.62,-240.25 562.38,-240.25 562.38,-221 613.62,-221 613.62,-240.25"/>
<text text-anchor="middle" x="588" y="-226.75" font-family="Helvetica,sans-Serif" font-size="10.00">sstream</text>
</a>
</g>
</g>
<!-- Node31&#45;&gt;Node38 -->
<g id="edge54_Node000031_Node000038" class="edge">
<title>Node31&#45;&gt;Node38</title>
<g id="a_edge54_Node000031_Node000038"><a xlink:title=" ">
<path fill="none" stroke="#63b8ff" d="M531.54,-275.84C541.46,-268.07 556.01,-256.67 567.86,-247.4"/>
<polygon fill="#63b8ff" stroke="#63b8ff" points="569.73,-250.38 575.44,-241.46 565.41,-244.87 569.73,-250.38"/>
</a>
</g>
</g>
<!-- Node39 -->
<g id="Node000039" class="node">
<title>Node39</title>
<g id="a_Node000039"><a xlink:title=" ">
<polygon fill="#e0e0e0" stroke="#999999" points="690.75,-240.25 631.25,-240.25 631.25,-221 690.75,-221 690.75,-240.25"/>
<text text-anchor="middle" x="661" y="-226.75" font-family="Helvetica,sans-Serif" font-size="10.00">sys/stat.h</text>
</a>
</g>
</g>
<!-- Node31&#45;&gt;Node39 -->
<g id="edge55_Node000031_Node000039" class="edge">
<title>Node31&#45;&gt;Node39</title>
<g id="a_edge55_Node000031_Node000039"><a xlink:title=" ">
<path fill="none" stroke="#63b8ff" d="M543.92,-275.84C566.5,-267.31 600.64,-254.42 626.23,-244.76"/>
<polygon fill="#63b8ff" stroke="#63b8ff" points="627.43,-248.04 635.55,-241.24 624.96,-241.5 627.43,-248.04"/>
</a>
</g>
</g>
<!-- Node32&#45;&gt;Node5 -->
<g id="edge47_Node000032_Node000005" class="edge">
<title>Node32&#45;&gt;Node5</title>
<g id="a_edge47_Node000032_Node000005"><a xlink:title=" ">
<path fill="none" stroke="#63b8ff" d="M199.85,-220.61C206.48,-200.25 224.03,-149.46 246,-110.5 251.19,-101.29 257.99,-91.78 264.07,-83.92"/>
<polygon fill="#63b8ff" stroke="#63b8ff" points="266.76,-86.17 270.26,-76.17 261.29,-81.8 266.76,-86.17"/>
</a>
</g>
</g>
<!-- Node32&#45;&gt;Node33 -->
<g id="edge48_Node000032_Node000033" class="edge">
<title>Node32&#45;&gt;Node33</title>
<g id="a_edge48_Node000032_Node000033"><a xlink:title=" ">
<path fill="none" stroke="#63b8ff" d="M186.31,-220.59C177.3,-212.97 164.17,-201.87 153.32,-192.7"/>
<polygon fill="#63b8ff" stroke="#63b8ff" points="155.58,-190.03 145.69,-186.25 151.06,-195.38 155.58,-190.03"/>
</a>
</g>
</g>
<!-- Node42 -->
<g id="Node000042" class="node">
<title>Node42</title>
<g id="a_Node000042"><a xlink:title=" ">
<polygon fill="#e0e0e0" stroke="#999999" points="477.12,-406 434.88,-406 434.88,-386.75 477.12,-386.75 477.12,-406"/>
<text text-anchor="middle" x="456" y="-392.5" font-family="Helvetica,sans-Serif" font-size="10.00">cstdio</text>
</a>
</g>
</g>
<!-- Node41&#45;&gt;Node42 -->
<g id="edge60_Node000041_Node000042" class="edge">
<title>Node41&#45;&gt;Node42</title>
<g id="a_edge60_Node000041_Node000042"><a xlink:title=" ">
<path fill="none" stroke="#63b8ff" d="M456,-441.83C456,-435.32 456,-426.17 456,-417.87"/>
<polygon fill="#63b8ff" stroke="#63b8ff" points="459.5,-417.87 456,-407.87 452.5,-417.87 459.5,-417.87"/>
</a>
</g>
</g>
<!-- Node43&#45;&gt;Node3 -->
<g id="edge64_Node000043_Node000003" class="edge">
<title>Node43&#45;&gt;Node3</title>
<g id="a_edge64_Node000043_Node000003"><a xlink:title=" ">
<path fill="none" stroke="#63b8ff" d="M1350.59,-221.48C1306.87,-211.7 1233.79,-195.35 1188.67,-185.25"/>
<polygon fill="#63b8ff" stroke="#63b8ff" points="1189.56,-181.86 1179.03,-183.09 1188.03,-188.69 1189.56,-181.86"/>
</a>
</g>
</g>
<!-- Node43&#45;&gt;Node9 -->
<g id="edge65_Node000043_Node000009" class="edge">
<title>Node43&#45;&gt;Node9</title>
<g id="a_edge65_Node000043_Node000009"><a xlink:title=" ">
<path fill="none" stroke="#63b8ff" d="M1350.67,-222.53C1347.74,-222 1344.82,-221.48 1342,-221 1252.51,-205.75 1147.45,-190.74 1088.72,-182.6"/>
<polygon fill="#63b8ff" stroke="#63b8ff" points="1089.49,-179.17 1079.1,-181.27 1088.53,-186.11 1089.49,-179.17"/>
</a>
</g>
</g>
<!-- Node44 -->
<g id="Node000044" class="node">
<title>Node44</title>
<g id="a_Node000044"><a xlink:href="_peddle_types_8h.html" target="_top" xlink:title=" ">
<polygon fill="white" stroke="#666666" points="1164.25,-129.75 1083.75,-129.75 1083.75,-110.5 1164.25,-110.5 1164.25,-129.75"/>
<text text-anchor="middle" x="1124" y="-116.25" font-family="Helvetica,sans-Serif" font-size="10.00">PeddleTypes.h</text>
</a>
</g>
</g>
<!-- Node43&#45;&gt;Node44 -->
<g id="edge66_Node000043_Node000044" class="edge">
<title>Node43&#45;&gt;Node44</title>
<g id="a_edge66_Node000043_Node000044"><a xlink:title=" ">
<path fill="none" stroke="#63b8ff" d="M1365.03,-220.56C1318.71,-201.45 1210.87,-156.96 1156.53,-134.54"/>
<polygon fill="#63b8ff" stroke="#63b8ff" points="1158.07,-131.4 1147.49,-130.82 1155.4,-137.87 1158.07,-131.4"/>
</a>
</g>
</g>
<!-- Node44&#45;&gt;Node5 -->
<g id="edge67_Node000044_Node000005" class="edge">
<title>Node44&#45;&gt;Node5</title>
<g id="a_edge67_Node000044_Node000005"><a xlink:title=" ">
<path fill="none" stroke="#63b8ff" d="M1083.53,-116.57C939.59,-107.5 453.69,-76.88 315.78,-68.19"/>
<polygon fill="#63b8ff" stroke="#63b8ff" points="316.33,-64.72 306.13,-67.58 315.89,-71.71 316.33,-64.72"/>
</a>
</g>
</g>
</g>
</svg>
