<?xml version="1.0" encoding="UTF-8" standalone="no"?>
<!DOCTYPE svg PUBLIC "-//W3C//DTD SVG 1.1//EN"
 "http://www.w3.org/Graphics/SVG/1.1/DTD/svg11.dtd">
<!-- Generated by graphviz version 10.0.1 (20240210.2158)
 -->
<!-- Title: /Users/hoff/Retro/virtualc64/Emulator/Media/Media.h Pages: 1 -->
<svg width="647pt" height="646pt"
 viewBox="0.00 0.00 646.50 646.25" xmlns="http://www.w3.org/2000/svg" xmlns:xlink="http://www.w3.org/1999/xlink">
<g id="graph0" class="graph" transform="scale(1 1) rotate(0) translate(4 642.25)">
<title>/Users/hoff/Retro/virtualc64/Emulator/Media/Media.h</title>
<!-- Node1 -->
<g id="Node000001" class="node">
<title>Node1</title>
<g id="a_Node000001"><a xlink:title=" ">
<polygon fill="#999999" stroke="#666666" points="369.5,-638.25 232.75,-638.25 232.75,-607.75 369.5,-607.75 369.5,-638.25"/>
<text text-anchor="start" x="240.75" y="-624.75" font-family="Helvetica,sans-Serif" font-size="10.00">/Users/hoff/Retro/virtualc64</text>
<text text-anchor="middle" x="301.12" y="-613.5" font-family="Helvetica,sans-Serif" font-size="10.00">/Emulator/Media/Media.h</text>
</a>
</g>
</g>
<!-- Node2 -->
<g id="Node000002" class="node">
<title>Node2</title>
<g id="a_Node000002"><a xlink:href="_c_r_t_file_8h.html" target="_top" xlink:title=" ">
<polygon fill="white" stroke="#666666" points="82.62,-516.5 21.63,-516.5 21.63,-497.25 82.62,-497.25 82.62,-516.5"/>
<text text-anchor="middle" x="52.12" y="-503" font-family="Helvetica,sans-Serif" font-size="10.00">CRTFile.h</text>
</a>
</g>
</g>
<!-- Node1&#45;&gt;Node2 -->
<g id="edge1_Node000001_Node000002" class="edge">
<title>Node1&#45;&gt;Node2</title>
<g id="a_edge1_Node000001_Node000002"><a xlink:title=" ">
<path fill="none" stroke="#63b8ff" d="M232.5,-608.75C199.96,-600.79 161.27,-588.83 129.12,-571.75 105.75,-559.33 82.92,-539.07 68.27,-524.7"/>
<polygon fill="#63b8ff" stroke="#63b8ff" points="70.87,-522.34 61.34,-517.71 65.9,-527.27 70.87,-522.34"/>
</a>
</g>
</g>
<!-- Node26 -->
<g id="Node000026" class="node">
<title>Node26</title>
<g id="a_Node000026"><a xlink:href="_d64_file_8h.html" target="_top" xlink:title=" ">
<polygon fill="white" stroke="#666666" points="261.12,-516.5 203.12,-516.5 203.12,-497.25 261.12,-497.25 261.12,-516.5"/>
<text text-anchor="middle" x="232.12" y="-503" font-family="Helvetica,sans-Serif" font-size="10.00">D64File.h</text>
</a>
</g>
</g>
<!-- Node1&#45;&gt;Node26 -->
<g id="edge33_Node000001_Node000026" class="edge">
<title>Node1&#45;&gt;Node26</title>
<g id="a_edge33_Node000001_Node000026"><a xlink:title=" ">
<path fill="none" stroke="#63b8ff" d="M232.51,-617.43C201.15,-611.49 166.7,-598.72 147.12,-571.75 130.86,-549.33 162.87,-531.24 192.15,-520.12"/>
<polygon fill="#63b8ff" stroke="#63b8ff" points="193.06,-523.51 201.3,-516.85 190.7,-516.92 193.06,-523.51"/>
</a>
</g>
</g>
<!-- Node27 -->
<g id="Node000027" class="node">
<title>Node27</title>
<g id="a_Node000027"><a xlink:href="_folder_8h.html" target="_top" xlink:title=" ">
<polygon fill="white" stroke="#666666" points="437.38,-571.75 386.88,-571.75 386.88,-552.5 437.38,-552.5 437.38,-571.75"/>
<text text-anchor="middle" x="412.12" y="-558.25" font-family="Helvetica,sans-Serif" font-size="10.00">Folder.h</text>
</a>
</g>
</g>
<!-- Node1&#45;&gt;Node27 -->
<g id="edge35_Node000001_Node000027" class="edge">
<title>Node1&#45;&gt;Node27</title>
<g id="a_edge35_Node000001_Node000027"><a xlink:title=" ">
<path fill="none" stroke="#63b8ff" d="M328.85,-607.3C346.08,-598.16 368.12,-586.47 385.2,-577.41"/>
<polygon fill="#63b8ff" stroke="#63b8ff" points="386.57,-580.64 393.77,-572.86 383.29,-574.46 386.57,-580.64"/>
</a>
</g>
</g>
<!-- Node29 -->
<g id="Node000029" class="node">
<title>Node29</title>
<g id="a_Node000029"><a xlink:href="_p00_file_8h.html" target="_top" xlink:title=" ">
<polygon fill="white" stroke="#666666" points="213.75,-571.75 156.5,-571.75 156.5,-552.5 213.75,-552.5 213.75,-571.75"/>
<text text-anchor="middle" x="185.12" y="-558.25" font-family="Helvetica,sans-Serif" font-size="10.00">P00File.h</text>
</a>
</g>
</g>
<!-- Node1&#45;&gt;Node29 -->
<g id="edge38_Node000001_Node000029" class="edge">
<title>Node1&#45;&gt;Node29</title>
<g id="a_edge38_Node000001_Node000029"><a xlink:title=" ">
<path fill="none" stroke="#63b8ff" d="M272.15,-607.3C254.06,-598.11 230.9,-586.36 213.01,-577.28"/>
<polygon fill="#63b8ff" stroke="#63b8ff" points="214.77,-574.24 204.26,-572.84 211.6,-580.49 214.77,-574.24"/>
</a>
</g>
</g>
<!-- Node30 -->
<g id="Node000030" class="node">
<title>Node30</title>
<g id="a_Node000030"><a xlink:href="_p_r_g_file_8h.html" target="_top" xlink:title=" ">
<polygon fill="white" stroke="#666666" points="294,-571.75 232.25,-571.75 232.25,-552.5 294,-552.5 294,-571.75"/>
<text text-anchor="middle" x="263.12" y="-558.25" font-family="Helvetica,sans-Serif" font-size="10.00">PRGFile.h</text>
</a>
</g>
</g>
<!-- Node1&#45;&gt;Node30 -->
<g id="edge40_Node000001_Node000030" class="edge">
<title>Node1&#45;&gt;Node30</title>
<g id="a_edge40_Node000001_Node000030"><a xlink:title=" ">
<path fill="none" stroke="#63b8ff" d="M291.73,-607.45C286.72,-599.69 280.51,-590.06 275.15,-581.76"/>
<polygon fill="#63b8ff" stroke="#63b8ff" points="278.17,-579.98 269.8,-573.47 272.29,-583.77 278.17,-579.98"/>
</a>
</g>
</g>
<!-- Node31 -->
<g id="Node000031" class="node">
<title>Node31</title>
<g id="a_Node000031"><a xlink:href="_rom_file_8h.html" target="_top" xlink:title=" ">
<polygon fill="white" stroke="#666666" points="172.62,-516.5 111.62,-516.5 111.62,-497.25 172.62,-497.25 172.62,-516.5"/>
<text text-anchor="middle" x="142.12" y="-503" font-family="Helvetica,sans-Serif" font-size="10.00">RomFile.h</text>
</a>
</g>
</g>
<!-- Node1&#45;&gt;Node31 -->
<g id="edge42_Node000001_Node000031" class="edge">
<title>Node1&#45;&gt;Node31</title>
<g id="a_edge42_Node000001_Node000031"><a xlink:title=" ">
<path fill="none" stroke="#63b8ff" d="M232.36,-618.95C198.54,-613.54 160.52,-600.79 139.12,-571.75 129.86,-559.17 131.69,-541.11 135.21,-527.4"/>
<polygon fill="#63b8ff" stroke="#63b8ff" points="138.46,-528.76 138.07,-518.17 131.77,-526.69 138.46,-528.76"/>
</a>
</g>
</g>
<!-- Node33 -->
<g id="Node000033" class="node">
<title>Node33</title>
<g id="a_Node000033"><a xlink:href="_script_8h.html" target="_top" xlink:title=" ">
<polygon fill="white" stroke="#666666" points="589,-571.75 539.25,-571.75 539.25,-552.5 589,-552.5 589,-571.75"/>
<text text-anchor="middle" x="564.12" y="-558.25" font-family="Helvetica,sans-Serif" font-size="10.00">Script.h</text>
</a>
</g>
</g>
<!-- Node1&#45;&gt;Node33 -->
<g id="edge47_Node000001_Node000033" class="edge">
<title>Node1&#45;&gt;Node33</title>
<g id="a_edge47_Node000001_Node000033"><a xlink:title=" ">
<path fill="none" stroke="#63b8ff" d="M369.9,-607.52C412.77,-598.35 469.36,-585.99 527.94,-572.21"/>
<polygon fill="#63b8ff" stroke="#63b8ff" points="528.5,-575.68 537.42,-569.97 526.89,-568.86 528.5,-575.68"/>
</a>
</g>
</g>
<!-- Node34 -->
<g id="Node000034" class="node">
<title>Node34</title>
<g id="a_Node000034"><a xlink:href="_snapshot_8h.html" target="_top" xlink:title=" ">
<polygon fill="white" stroke="#666666" points="520.88,-571.75 455.38,-571.75 455.38,-552.5 520.88,-552.5 520.88,-571.75"/>
<text text-anchor="middle" x="488.12" y="-558.25" font-family="Helvetica,sans-Serif" font-size="10.00">Snapshot.h</text>
</a>
</g>
</g>
<!-- Node1&#45;&gt;Node34 -->
<g id="edge49_Node000001_Node000034" class="edge">
<title>Node1&#45;&gt;Node34</title>
<g id="a_edge49_Node000001_Node000034"><a xlink:title=" ">
<path fill="none" stroke="#63b8ff" d="M347.83,-607.3C378.81,-597.54 419.04,-584.88 448.46,-575.61"/>
<polygon fill="#63b8ff" stroke="#63b8ff" points="449.24,-579.04 457.73,-572.7 447.14,-572.36 449.24,-579.04"/>
</a>
</g>
</g>
<!-- Node36 -->
<g id="Node000036" class="node">
<title>Node36</title>
<g id="a_Node000036"><a xlink:href="_t64_file_8h.html" target="_top" xlink:title=" ">
<polygon fill="white" stroke="#666666" points="368.38,-571.75 311.88,-571.75 311.88,-552.5 368.38,-552.5 368.38,-571.75"/>
<text text-anchor="middle" x="340.12" y="-558.25" font-family="Helvetica,sans-Serif" font-size="10.00">T64File.h</text>
</a>
</g>
</g>
<!-- Node1&#45;&gt;Node36 -->
<g id="edge52_Node000001_Node000036" class="edge">
<title>Node1&#45;&gt;Node36</title>
<g id="a_edge52_Node000001_Node000036"><a xlink:title=" ">
<path fill="none" stroke="#63b8ff" d="M310.77,-607.45C315.9,-599.69 322.28,-590.06 327.78,-581.76"/>
<polygon fill="#63b8ff" stroke="#63b8ff" points="330.67,-583.73 333.28,-573.46 324.84,-579.87 330.67,-583.73"/>
</a>
</g>
</g>
<!-- Node37 -->
<g id="Node000037" class="node">
<title>Node37</title>
<g id="a_Node000037"><a xlink:href="_t_a_p_file_8h.html" target="_top" xlink:title=" ">
<polygon fill="white" stroke="#666666" points="638.5,-516.5 579.75,-516.5 579.75,-497.25 638.5,-497.25 638.5,-516.5"/>
<text text-anchor="middle" x="609.12" y="-503" font-family="Helvetica,sans-Serif" font-size="10.00">TAPFile.h</text>
</a>
</g>
</g>
<!-- Node1&#45;&gt;Node37 -->
<g id="edge54_Node000001_Node000037" class="edge">
<title>Node1&#45;&gt;Node37</title>
<g id="a_edge54_Node000001_Node000037"><a xlink:title=" ">
<path fill="none" stroke="#63b8ff" d="M369.87,-619.34C447.42,-614.86 566.83,-602.95 598.12,-571.75 609.47,-560.44 611.6,-541.97 611.25,-527.79"/>
<polygon fill="#63b8ff" stroke="#63b8ff" points="614.77,-527.96 610.59,-518.23 607.79,-528.45 614.77,-527.96"/>
</a>
</g>
</g>
<!-- Node3 -->
<g id="Node000003" class="node">
<title>Node3</title>
<g id="a_Node000003"><a xlink:href="_cartridge_types_8h.html" target="_top" xlink:title=" ">
<polygon fill="white" stroke="#666666" points="90.25,-240.25 0,-240.25 0,-221 90.25,-221 90.25,-240.25"/>
<text text-anchor="middle" x="45.12" y="-226.75" font-family="Helvetica,sans-Serif" font-size="10.00">CartridgeTypes.h</text>
</a>
</g>
</g>
<!-- Node2&#45;&gt;Node3 -->
<g id="edge2_Node000002_Node000003" class="edge">
<title>Node2&#45;&gt;Node3</title>
<g id="a_edge2_Node000002_Node000003"><a xlink:title=" ">
<path fill="none" stroke="#63b8ff" d="M51.43,-496.88C50.06,-478.3 47.12,-434.33 47.12,-397.38 47.12,-397.38 47.12,-397.38 47.12,-340.12 47.12,-309.4 46.31,-273.79 45.72,-251.99"/>
<polygon fill="#63b8ff" stroke="#63b8ff" points="49.23,-252.04 45.45,-242.14 42.23,-252.23 49.23,-252.04"/>
</a>
</g>
</g>
<!-- Node11 -->
<g id="Node000011" class="node">
<title>Node11</title>
<g id="a_Node000011"><a xlink:href="_any_file_8h.html" target="_top" xlink:title=" ">
<polygon fill="white" stroke="#666666" points="360.75,-461.25 303.5,-461.25 303.5,-442 360.75,-442 360.75,-461.25"/>
<text text-anchor="middle" x="332.12" y="-447.75" font-family="Helvetica,sans-Serif" font-size="10.00">AnyFile.h</text>
</a>
</g>
</g>
<!-- Node2&#45;&gt;Node11 -->
<g id="edge10_Node000002_Node000011" class="edge">
<title>Node2&#45;&gt;Node11</title>
<g id="a_edge10_Node000002_Node000011"><a xlink:title=" ">
<path fill="none" stroke="#63b8ff" d="M82.89,-500.02C133.93,-490.32 236.05,-470.9 292.44,-460.17"/>
<polygon fill="#63b8ff" stroke="#63b8ff" points="292.75,-463.68 301.92,-458.37 291.45,-456.8 292.75,-463.68"/>
</a>
</g>
</g>
<!-- Node4 -->
<g id="Node000004" class="node">
<title>Node4</title>
<g id="a_Node000004"><a xlink:href="_aliases_8h.html" target="_top" xlink:title=" ">
<polygon fill="white" stroke="#666666" points="174.38,-185 117.88,-185 117.88,-165.75 174.38,-165.75 174.38,-185"/>
<text text-anchor="middle" x="146.12" y="-171.5" font-family="Helvetica,sans-Serif" font-size="10.00">Aliases.h</text>
</a>
</g>
</g>
<!-- Node3&#45;&gt;Node4 -->
<g id="edge3_Node000003_Node000004" class="edge">
<title>Node3&#45;&gt;Node4</title>
<g id="a_edge3_Node000003_Node000004"><a xlink:title=" ">
<path fill="none" stroke="#63b8ff" d="M62.26,-220.59C77.78,-212.41 100.93,-200.21 118.97,-190.69"/>
<polygon fill="#63b8ff" stroke="#63b8ff" points="120.36,-193.92 127.57,-186.16 117.09,-187.73 120.36,-193.92"/>
</a>
</g>
</g>
<!-- Node10 -->
<g id="Node000010" class="node">
<title>Node10</title>
<g id="a_Node000010"><a xlink:href="_reflection_8h.html" target="_top" xlink:title=" ">
<polygon fill="white" stroke="#666666" points="261.38,-185 192.88,-185 192.88,-165.75 261.38,-165.75 261.38,-185"/>
<text text-anchor="middle" x="227.12" y="-171.5" font-family="Helvetica,sans-Serif" font-size="10.00">Reflection.h</text>
</a>
</g>
</g>
<!-- Node3&#45;&gt;Node10 -->
<g id="edge9_Node000003_Node000010" class="edge">
<title>Node3&#45;&gt;Node10</title>
<g id="a_edge9_Node000003_Node000010"><a xlink:title=" ">
<path fill="none" stroke="#63b8ff" d="M76,-220.59C106.07,-211.79 151.99,-198.36 185.32,-188.61"/>
<polygon fill="#63b8ff" stroke="#63b8ff" points="186.03,-192.04 194.65,-185.88 184.07,-185.33 186.03,-192.04"/>
</a>
</g>
</g>
<!-- Node5 -->
<g id="Node000005" class="node">
<title>Node5</title>
<g id="a_Node000005"><a xlink:href="_macros_8h.html" target="_top" xlink:title=" ">
<polygon fill="white" stroke="#666666" points="281.38,-129.75 224.88,-129.75 224.88,-110.5 281.38,-110.5 281.38,-129.75"/>
<text text-anchor="middle" x="253.12" y="-116.25" font-family="Helvetica,sans-Serif" font-size="10.00">Macros.h</text>
</a>
</g>
</g>
<!-- Node4&#45;&gt;Node5 -->
<g id="edge4_Node000004_Node000005" class="edge">
<title>Node4&#45;&gt;Node5</title>
<g id="a_edge4_Node000004_Node000005"><a xlink:title=" ">
<path fill="none" stroke="#63b8ff" d="M164.28,-165.34C180.8,-157.12 205.47,-144.84 224.62,-135.31"/>
<polygon fill="#63b8ff" stroke="#63b8ff" points="226.14,-138.47 233.53,-130.88 223.02,-132.2 226.14,-138.47"/>
</a>
</g>
</g>
<!-- Node6 -->
<g id="Node000006" class="node">
<title>Node6</title>
<g id="a_Node000006"><a xlink:href="_types_8h.html" target="_top" xlink:title=" ">
<polygon fill="white" stroke="#666666" points="469.38,-74.5 418.88,-74.5 418.88,-55.25 469.38,-55.25 469.38,-74.5"/>
<text text-anchor="middle" x="444.12" y="-61" font-family="Helvetica,sans-Serif" font-size="10.00">Types.h</text>
</a>
</g>
</g>
<!-- Node5&#45;&gt;Node6 -->
<g id="edge5_Node000005_Node000006" class="edge">
<title>Node5&#45;&gt;Node6</title>
<g id="a_edge5_Node000005_Node000006"><a xlink:title=" ">
<path fill="none" stroke="#63b8ff" d="M281.72,-111.15C315.29,-101.79 371.04,-86.25 407.69,-76.03"/>
<polygon fill="#63b8ff" stroke="#63b8ff" points="408.25,-79.51 416.94,-73.45 406.37,-72.77 408.25,-79.51"/>
</a>
</g>
</g>
<!-- Node7 -->
<g id="Node000007" class="node">
<title>Node7</title>
<g id="a_Node000007"><a xlink:title=" ">
<polygon fill="#e0e0e0" stroke="#999999" points="401.62,-19.25 334.62,-19.25 334.62,0 401.62,0 401.62,-19.25"/>
<text text-anchor="middle" x="368.12" y="-5.75" font-family="Helvetica,sans-Serif" font-size="10.00">sys/types.h</text>
</a>
</g>
</g>
<!-- Node6&#45;&gt;Node7 -->
<g id="edge6_Node000006_Node000007" class="edge">
<title>Node6&#45;&gt;Node7</title>
<g id="a_edge6_Node000006_Node000007"><a xlink:title=" ">
<path fill="none" stroke="#63b8ff" d="M431.23,-54.84C420.1,-47.04 403.75,-35.59 390.49,-26.29"/>
<polygon fill="#63b8ff" stroke="#63b8ff" points="392.52,-23.44 382.32,-20.57 388.5,-29.18 392.52,-23.44"/>
</a>
</g>
</g>
<!-- Node8 -->
<g id="Node000008" class="node">
<title>Node8</title>
<g id="a_Node000008"><a xlink:title=" ">
<polygon fill="#e0e0e0" stroke="#999999" points="468.25,-19.25 420,-19.25 420,0 468.25,0 468.25,-19.25"/>
<text text-anchor="middle" x="444.12" y="-5.75" font-family="Helvetica,sans-Serif" font-size="10.00">stdint.h</text>
</a>
</g>
</g>
<!-- Node6&#45;&gt;Node8 -->
<g id="edge7_Node000006_Node000008" class="edge">
<title>Node6&#45;&gt;Node8</title>
<g id="a_edge7_Node000006_Node000008"><a xlink:title=" ">
<path fill="none" stroke="#63b8ff" d="M444.12,-55.08C444.12,-48.57 444.12,-39.42 444.12,-31.12"/>
<polygon fill="#63b8ff" stroke="#63b8ff" points="447.63,-31.12 444.13,-21.12 440.63,-31.12 447.63,-31.12"/>
</a>
</g>
</g>
<!-- Node9 -->
<g id="Node000009" class="node">
<title>Node9</title>
<g id="a_Node000009"><a xlink:title=" ">
<polygon fill="#e0e0e0" stroke="#999999" points="542,-19.25 486.25,-19.25 486.25,0 542,0 542,-19.25"/>
<text text-anchor="middle" x="514.12" y="-5.75" font-family="Helvetica,sans-Serif" font-size="10.00">stdbool.h</text>
</a>
</g>
</g>
<!-- Node6&#45;&gt;Node9 -->
<g id="edge8_Node000006_Node000009" class="edge">
<title>Node6&#45;&gt;Node9</title>
<g id="a_edge8_Node000006_Node000009"><a xlink:title=" ">
<path fill="none" stroke="#63b8ff" d="M456,-54.84C466.22,-47.07 481.2,-35.67 493.39,-26.4"/>
<polygon fill="#63b8ff" stroke="#63b8ff" points="495.38,-29.28 501.22,-20.44 491.14,-23.71 495.38,-29.28"/>
</a>
</g>
</g>
<!-- Node12 -->
<g id="Node000012" class="node">
<title>Node12</title>
<g id="a_Node000012"><a xlink:href="_core_object_8h.html" target="_top" xlink:title=" ">
<polygon fill="white" stroke="#666666" points="396,-350.75 322.25,-350.75 322.25,-331.5 396,-331.5 396,-350.75"/>
<text text-anchor="middle" x="359.12" y="-337.25" font-family="Helvetica,sans-Serif" font-size="10.00">CoreObject.h</text>
</a>
</g>
</g>
<!-- Node11&#45;&gt;Node12 -->
<g id="edge11_Node000011_Node000012" class="edge">
<title>Node11&#45;&gt;Node12</title>
<g id="a_edge11_Node000011_Node000012"><a xlink:title=" ">
<path fill="none" stroke="#63b8ff" d="M334.33,-441.75C338.65,-424.42 348.27,-385.73 354.18,-361.99"/>
<polygon fill="#63b8ff" stroke="#63b8ff" points="357.5,-363.14 356.52,-352.6 350.71,-361.45 357.5,-363.14"/>
</a>
</g>
</g>
<!-- Node19 -->
<g id="Node000019" class="node">
<title>Node19</title>
<g id="a_Node000019"><a xlink:href="_file_types_8h.html" target="_top" xlink:title=" ">
<polygon fill="white" stroke="#666666" points="260.25,-240.25 194,-240.25 194,-221 260.25,-221 260.25,-240.25"/>
<text text-anchor="middle" x="227.12" y="-226.75" font-family="Helvetica,sans-Serif" font-size="10.00">FileTypes.h</text>
</a>
</g>
</g>
<!-- Node11&#45;&gt;Node19 -->
<g id="edge21_Node000011_Node000019" class="edge">
<title>Node11&#45;&gt;Node19</title>
<g id="a_edge21_Node000011_Node000019"><a xlink:title=" ">
<path fill="none" stroke="#63b8ff" d="M303.3,-443.16C284.15,-436.62 260.22,-425.11 247.12,-406 214.6,-358.54 219.17,-286.23 223.81,-251.55"/>
<polygon fill="#63b8ff" stroke="#63b8ff" points="227.21,-252.49 225.23,-242.08 220.29,-251.45 227.21,-252.49"/>
</a>
</g>
</g>
<!-- Node20 -->
<g id="Node000020" class="node">
<title>Node20</title>
<g id="a_Node000020"><a xlink:href="_p_e_t_name_8h.html" target="_top" xlink:title=" ">
<polygon fill="white" stroke="#666666" points="501.12,-406 431.12,-406 431.12,-386.75 501.12,-386.75 501.12,-406"/>
<text text-anchor="middle" x="466.12" y="-392.5" font-family="Helvetica,sans-Serif" font-size="10.00">PETName.h</text>
</a>
</g>
</g>
<!-- Node11&#45;&gt;Node20 -->
<g id="edge24_Node000011_Node000020" class="edge">
<title>Node11&#45;&gt;Node20</title>
<g id="a_edge24_Node000011_Node000020"><a xlink:title=" ">
<path fill="none" stroke="#63b8ff" d="M354.86,-441.59C376.22,-433.1 408.47,-420.29 432.75,-410.64"/>
<polygon fill="#63b8ff" stroke="#63b8ff" points="433.88,-413.96 441.88,-407.01 431.29,-407.45 433.88,-413.96"/>
</a>
</g>
</g>
<!-- Node24 -->
<g id="Node000024" class="node">
<title>Node24</title>
<g id="a_Node000024"><a xlink:title=" ">
<polygon fill="#e0e0e0" stroke="#999999" points="412.75,-406 361.5,-406 361.5,-386.75 412.75,-386.75 412.75,-406"/>
<text text-anchor="middle" x="387.12" y="-392.5" font-family="Helvetica,sans-Serif" font-size="10.00">sstream</text>
</a>
</g>
</g>
<!-- Node11&#45;&gt;Node24 -->
<g id="edge31_Node000011_Node000024" class="edge">
<title>Node11&#45;&gt;Node24</title>
<g id="a_edge31_Node000011_Node000024"><a xlink:title=" ">
<path fill="none" stroke="#63b8ff" d="M341.21,-441.83C348.96,-434.32 360.34,-423.31 369.82,-414.13"/>
<polygon fill="#63b8ff" stroke="#63b8ff" points="372.01,-416.88 376.76,-407.41 367.14,-411.85 372.01,-416.88"/>
</a>
</g>
</g>
<!-- Node25 -->
<g id="Node000025" class="node">
<title>Node25</title>
<g id="a_Node000025"><a xlink:title=" ">
<polygon fill="#e0e0e0" stroke="#999999" points="304.62,-406 255.62,-406 255.62,-386.75 304.62,-386.75 304.62,-406"/>
<text text-anchor="middle" x="280.12" y="-392.5" font-family="Helvetica,sans-Serif" font-size="10.00">fstream</text>
</a>
</g>
</g>
<!-- Node11&#45;&gt;Node25 -->
<g id="edge32_Node000011_Node000025" class="edge">
<title>Node11&#45;&gt;Node25</title>
<g id="a_edge32_Node000011_Node000025"><a xlink:title=" ">
<path fill="none" stroke="#63b8ff" d="M323.54,-441.83C316.28,-434.4 305.67,-423.54 296.76,-414.41"/>
<polygon fill="#63b8ff" stroke="#63b8ff" points="299.45,-412.15 289.96,-407.44 294.44,-417.04 299.45,-412.15"/>
</a>
</g>
</g>
<!-- Node13 -->
<g id="Node000013" class="node">
<title>Node13</title>
<g id="a_Node000013"><a xlink:href="_error_8h.html" target="_top" xlink:title=" ">
<polygon fill="white" stroke="#666666" points="408.38,-295.5 363.88,-295.5 363.88,-276.25 408.38,-276.25 408.38,-295.5"/>
<text text-anchor="middle" x="386.12" y="-282" font-family="Helvetica,sans-Serif" font-size="10.00">Error.h</text>
</a>
</g>
</g>
<!-- Node12&#45;&gt;Node13 -->
<g id="edge12_Node000012_Node000013" class="edge">
<title>Node12&#45;&gt;Node13</title>
<g id="a_edge12_Node000012_Node000013"><a xlink:title=" ">
<path fill="none" stroke="#63b8ff" d="M363.58,-331.33C367.08,-324.44 372.07,-314.59 376.47,-305.91"/>
<polygon fill="#63b8ff" stroke="#63b8ff" points="379.48,-307.71 380.89,-297.21 373.24,-304.55 379.48,-307.71"/>
</a>
</g>
</g>
<!-- Node17 -->
<g id="Node000017" class="node">
<title>Node17</title>
<g id="a_Node000017"><a xlink:href="_inspectable_8h.html" target="_top" xlink:title=" ">
<polygon fill="white" stroke="#666666" points="344.38,-295.5 269.88,-295.5 269.88,-276.25 344.38,-276.25 344.38,-295.5"/>
<text text-anchor="middle" x="307.12" y="-282" font-family="Helvetica,sans-Serif" font-size="10.00">Inspectable.h</text>
</a>
</g>
</g>
<!-- Node12&#45;&gt;Node17 -->
<g id="edge19_Node000012_Node000017" class="edge">
<title>Node12&#45;&gt;Node17</title>
<g id="a_edge19_Node000012_Node000017"><a xlink:title=" ">
<path fill="none" stroke="#63b8ff" d="M350.54,-331.33C343.28,-323.9 332.67,-313.04 323.76,-303.91"/>
<polygon fill="#63b8ff" stroke="#63b8ff" points="326.45,-301.65 316.96,-296.94 321.44,-306.54 326.45,-301.65"/>
</a>
</g>
</g>
<!-- Node14 -->
<g id="Node000014" class="node">
<title>Node14</title>
<g id="a_Node000014"><a xlink:href="_error_types_8h.html" target="_top" xlink:title=" ">
<polygon fill="white" stroke="#666666" points="421.88,-240.25 350.38,-240.25 350.38,-221 421.88,-221 421.88,-240.25"/>
<text text-anchor="middle" x="386.12" y="-226.75" font-family="Helvetica,sans-Serif" font-size="10.00">ErrorTypes.h</text>
</a>
</g>
</g>
<!-- Node13&#45;&gt;Node14 -->
<g id="edge13_Node000013_Node000014" class="edge">
<title>Node13&#45;&gt;Node14</title>
<g id="a_edge13_Node000013_Node000014"><a xlink:title=" ">
<path fill="none" stroke="#63b8ff" d="M386.12,-276.08C386.12,-269.57 386.12,-260.42 386.12,-252.12"/>
<polygon fill="#63b8ff" stroke="#63b8ff" points="389.63,-252.12 386.13,-242.12 382.63,-252.12 389.63,-252.12"/>
</a>
</g>
</g>
<!-- Node15 -->
<g id="Node000015" class="node">
<title>Node15</title>
<g id="a_Node000015"><a xlink:href="_exception_8h.html" target="_top" xlink:title=" ">
<polygon fill="white" stroke="#666666" points="508,-240.25 440.25,-240.25 440.25,-221 508,-221 508,-240.25"/>
<text text-anchor="middle" x="474.12" y="-226.75" font-family="Helvetica,sans-Serif" font-size="10.00">Exception.h</text>
</a>
</g>
</g>
<!-- Node13&#45;&gt;Node15 -->
<g id="edge16_Node000013_Node000015" class="edge">
<title>Node13&#45;&gt;Node15</title>
<g id="a_edge16_Node000013_Node000015"><a xlink:title=" ">
<path fill="none" stroke="#63b8ff" d="M401.05,-275.84C414.33,-267.81 433.99,-255.91 449.58,-246.48"/>
<polygon fill="#63b8ff" stroke="#63b8ff" points="451.09,-249.66 457.83,-241.49 447.46,-243.67 451.09,-249.66"/>
</a>
</g>
</g>
<!-- Node14&#45;&gt;Node4 -->
<g id="edge14_Node000014_Node000004" class="edge">
<title>Node14&#45;&gt;Node4</title>
<g id="a_edge14_Node000014_Node000004"><a xlink:title=" ">
<path fill="none" stroke="#63b8ff" d="M349.99,-221.71C311.77,-213.32 249.42,-199.6 185.8,-185.37"/>
<polygon fill="#63b8ff" stroke="#63b8ff" points="186.75,-181.99 176.23,-183.22 185.23,-188.82 186.75,-181.99"/>
</a>
</g>
</g>
<!-- Node14&#45;&gt;Node10 -->
<g id="edge15_Node000014_Node000010" class="edge">
<title>Node14&#45;&gt;Node10</title>
<g id="a_edge15_Node000014_Node000010"><a xlink:title=" ">
<path fill="none" stroke="#63b8ff" d="M359.15,-220.59C333.23,-211.91 293.81,-198.71 264.79,-188.99"/>
<polygon fill="#63b8ff" stroke="#63b8ff" points="266.26,-185.79 255.66,-185.93 264.04,-192.43 266.26,-185.79"/>
</a>
</g>
</g>
<!-- Node15&#45;&gt;Node6 -->
<g id="edge17_Node000015_Node000006" class="edge">
<title>Node15&#45;&gt;Node6</title>
<g id="a_edge17_Node000015_Node000006"><a xlink:title=" ">
<path fill="none" stroke="#63b8ff" d="M461.22,-220.71C450.89,-212.71 437.16,-199.97 431.12,-185 417.81,-151.99 428.1,-109.89 436.39,-85.6"/>
<polygon fill="#63b8ff" stroke="#63b8ff" points="439.62,-86.96 439.78,-76.36 433.05,-84.55 439.62,-86.96"/>
</a>
</g>
</g>
<!-- Node16 -->
<g id="Node000016" class="node">
<title>Node16</title>
<g id="a_Node000016"><a xlink:title=" ">
<polygon fill="#e0e0e0" stroke="#999999" points="498.12,-185 440.12,-185 440.12,-165.75 498.12,-165.75 498.12,-185"/>
<text text-anchor="middle" x="469.12" y="-171.5" font-family="Helvetica,sans-Serif" font-size="10.00">exception</text>
</a>
</g>
</g>
<!-- Node15&#45;&gt;Node16 -->
<g id="edge18_Node000015_Node000016" class="edge">
<title>Node15&#45;&gt;Node16</title>
<g id="a_edge18_Node000015_Node000016"><a xlink:title=" ">
<path fill="none" stroke="#63b8ff" d="M473.3,-220.83C472.68,-214.24 471.81,-204.96 471.02,-196.57"/>
<polygon fill="#63b8ff" stroke="#63b8ff" points="474.53,-196.5 470.11,-186.87 467.56,-197.15 474.53,-196.5"/>
</a>
</g>
</g>
<!-- Node18 -->
<g id="Node000018" class="node">
<title>Node18</title>
<g id="a_Node000018"><a xlink:title=" ">
<polygon fill="#e0e0e0" stroke="#999999" points="331.88,-240.25 278.38,-240.25 278.38,-221 331.88,-221 331.88,-240.25"/>
<text text-anchor="middle" x="305.12" y="-226.75" font-family="Helvetica,sans-Serif" font-size="10.00">iostream</text>
</a>
</g>
</g>
<!-- Node17&#45;&gt;Node18 -->
<g id="edge20_Node000017_Node000018" class="edge">
<title>Node17&#45;&gt;Node18</title>
<g id="a_edge20_Node000017_Node000018"><a xlink:title=" ">
<path fill="none" stroke="#63b8ff" d="M306.79,-276.08C306.55,-269.49 306.2,-260.21 305.88,-251.82"/>
<polygon fill="#63b8ff" stroke="#63b8ff" points="309.39,-251.98 305.52,-242.12 302.4,-252.25 309.39,-251.98"/>
</a>
</g>
</g>
<!-- Node19&#45;&gt;Node4 -->
<g id="edge22_Node000019_Node000004" class="edge">
<title>Node19&#45;&gt;Node4</title>
<g id="a_edge22_Node000019_Node000004"><a xlink:title=" ">
<path fill="none" stroke="#63b8ff" d="M213.38,-220.59C201.4,-212.71 183.75,-201.11 169.54,-191.77"/>
<polygon fill="#63b8ff" stroke="#63b8ff" points="171.48,-188.85 161.2,-186.28 167.63,-194.7 171.48,-188.85"/>
</a>
</g>
</g>
<!-- Node19&#45;&gt;Node10 -->
<g id="edge23_Node000019_Node000010" class="edge">
<title>Node19&#45;&gt;Node10</title>
<g id="a_edge23_Node000019_Node000010"><a xlink:title=" ">
<path fill="none" stroke="#63b8ff" d="M227.12,-220.83C227.12,-214.32 227.12,-205.17 227.12,-196.87"/>
<polygon fill="#63b8ff" stroke="#63b8ff" points="230.63,-196.87 227.13,-186.87 223.63,-196.87 230.63,-196.87"/>
</a>
</g>
</g>
<!-- Node20&#45;&gt;Node12 -->
<g id="edge25_Node000020_Node000012" class="edge">
<title>Node20&#45;&gt;Node12</title>
<g id="a_edge25_Node000020_Node000012"><a xlink:title=" ">
<path fill="none" stroke="#63b8ff" d="M447.97,-386.34C431.45,-378.12 406.78,-365.84 387.63,-356.31"/>
<polygon fill="#63b8ff" stroke="#63b8ff" points="389.23,-353.2 378.72,-351.88 386.11,-359.47 389.23,-353.2"/>
</a>
</g>
</g>
<!-- Node21 -->
<g id="Node000021" class="node">
<title>Node21</title>
<g id="a_Node000021"><a xlink:href="_mem_utils_8h.html" target="_top" xlink:title=" ">
<polygon fill="white" stroke="#666666" points="582.25,-185 516,-185 516,-165.75 582.25,-165.75 582.25,-185"/>
<text text-anchor="middle" x="549.12" y="-171.5" font-family="Helvetica,sans-Serif" font-size="10.00">MemUtils.h</text>
</a>
</g>
</g>
<!-- Node20&#45;&gt;Node21 -->
<g id="edge26_Node000020_Node000021" class="edge">
<title>Node20&#45;&gt;Node21</title>
<g id="a_edge26_Node000020_Node000021"><a xlink:title=" ">
<path fill="none" stroke="#63b8ff" d="M469.48,-386.52C481.76,-354.12 524.42,-241.55 541.74,-195.87"/>
<polygon fill="#63b8ff" stroke="#63b8ff" points="545.01,-197.11 545.28,-186.52 538.46,-194.63 545.01,-197.11"/>
</a>
</g>
</g>
<!-- Node21&#45;&gt;Node6 -->
<g id="edge27_Node000021_Node000006" class="edge">
<title>Node21&#45;&gt;Node6</title>
<g id="a_edge27_Node000021_Node000006"><a xlink:title=" ">
<path fill="none" stroke="#63b8ff" d="M547.14,-165.57C543.77,-152.28 535.81,-126.93 521.12,-110.5 509.44,-97.43 492.99,-87.18 478.29,-79.82"/>
<polygon fill="#63b8ff" stroke="#63b8ff" points="479.9,-76.7 469.36,-75.61 476.92,-83.04 479.9,-76.7"/>
</a>
</g>
</g>
<!-- Node22 -->
<g id="Node000022" class="node">
<title>Node22</title>
<g id="a_Node000022"><a xlink:href="_checksum_8h.html" target="_top" xlink:title=" ">
<polygon fill="white" stroke="#666666" points="511.88,-129.75 440.38,-129.75 440.38,-110.5 511.88,-110.5 511.88,-129.75"/>
<text text-anchor="middle" x="476.12" y="-116.25" font-family="Helvetica,sans-Serif" font-size="10.00">Checksum.h</text>
</a>
</g>
</g>
<!-- Node21&#45;&gt;Node22 -->
<g id="edge28_Node000021_Node000022" class="edge">
<title>Node21&#45;&gt;Node22</title>
<g id="a_edge28_Node000021_Node000022"><a xlink:title=" ">
<path fill="none" stroke="#63b8ff" d="M536.74,-165.34C525.98,-157.49 510.15,-145.95 497.37,-136.62"/>
<polygon fill="#63b8ff" stroke="#63b8ff" points="499.69,-133.98 489.55,-130.92 495.56,-139.64 499.69,-133.98"/>
</a>
</g>
</g>
<!-- Node23 -->
<g id="Node000023" class="node">
<title>Node23</title>
<g id="a_Node000023"><a xlink:title=" ">
<polygon fill="#e0e0e0" stroke="#999999" points="596.52,-129.75 567.73,-129.75 567.73,-110.5 596.52,-110.5 596.52,-129.75"/>
<text text-anchor="middle" x="582.12" y="-116.25" font-family="Helvetica,sans-Serif" font-size="10.00">bit</text>
</a>
</g>
</g>
<!-- Node21&#45;&gt;Node23 -->
<g id="edge30_Node000021_Node000023" class="edge">
<title>Node21&#45;&gt;Node23</title>
<g id="a_edge30_Node000021_Node000023"><a xlink:title=" ">
<path fill="none" stroke="#63b8ff" d="M554.57,-165.58C558.9,-158.61 565.09,-148.62 570.51,-139.87"/>
<polygon fill="#63b8ff" stroke="#63b8ff" points="573.47,-141.74 575.76,-131.4 567.52,-138.05 573.47,-141.74"/>
</a>
</g>
</g>
<!-- Node22&#45;&gt;Node6 -->
<g id="edge29_Node000022_Node000006" class="edge">
<title>Node22&#45;&gt;Node6</title>
<g id="a_edge29_Node000022_Node000006"><a xlink:title=" ">
<path fill="none" stroke="#63b8ff" d="M470.84,-110.33C466.65,-103.36 460.65,-93.37 455.39,-84.62"/>
<polygon fill="#63b8ff" stroke="#63b8ff" points="458.45,-82.93 450.3,-76.16 452.45,-86.53 458.45,-82.93"/>
</a>
</g>
</g>
<!-- Node26&#45;&gt;Node11 -->
<g id="edge34_Node000026_Node000011" class="edge">
<title>Node26&#45;&gt;Node11</title>
<g id="a_edge34_Node000026_Node000011"><a xlink:title=" ">
<path fill="none" stroke="#63b8ff" d="M249.09,-496.84C264.39,-488.69 287.16,-476.57 304.99,-467.08"/>
<polygon fill="#63b8ff" stroke="#63b8ff" points="306.56,-470.2 313.74,-462.41 303.27,-464.02 306.56,-470.2"/>
</a>
</g>
</g>
<!-- Node28 -->
<g id="Node000028" class="node">
<title>Node28</title>
<g id="a_Node000028"><a xlink:href="_any_collection_8h.html" target="_top" xlink:title=" ">
<polygon fill="white" stroke="#666666" points="373.62,-516.5 288.62,-516.5 288.62,-497.25 373.62,-497.25 373.62,-516.5"/>
<text text-anchor="middle" x="331.12" y="-503" font-family="Helvetica,sans-Serif" font-size="10.00">AnyCollection.h</text>
</a>
</g>
</g>
<!-- Node27&#45;&gt;Node28 -->
<g id="edge36_Node000027_Node000028" class="edge">
<title>Node27&#45;&gt;Node28</title>
<g id="a_edge36_Node000027_Node000028"><a xlink:title=" ">
<path fill="none" stroke="#63b8ff" d="M398.38,-552.09C386.4,-544.21 368.75,-532.61 354.54,-523.27"/>
<polygon fill="#63b8ff" stroke="#63b8ff" points="356.48,-520.35 346.2,-517.78 352.63,-526.2 356.48,-520.35"/>
</a>
</g>
</g>
<!-- Node28&#45;&gt;Node11 -->
<g id="edge37_Node000028_Node000011" class="edge">
<title>Node28&#45;&gt;Node11</title>
<g id="a_edge37_Node000028_Node000011"><a xlink:title=" ">
<path fill="none" stroke="#63b8ff" d="M331.29,-497.08C331.41,-490.57 331.58,-481.42 331.74,-473.12"/>
<polygon fill="#63b8ff" stroke="#63b8ff" points="335.24,-473.19 331.93,-463.12 328.24,-473.05 335.24,-473.19"/>
</a>
</g>
</g>
<!-- Node29&#45;&gt;Node28 -->
<g id="edge39_Node000029_Node000028" class="edge">
<title>Node29&#45;&gt;Node28</title>
<g id="a_edge39_Node000029_Node000028"><a xlink:title=" ">
<path fill="none" stroke="#63b8ff" d="M209.89,-552.09C233.38,-543.52 268.94,-530.56 295.48,-520.88"/>
<polygon fill="#63b8ff" stroke="#63b8ff" points="296.62,-524.19 304.81,-517.47 294.22,-517.61 296.62,-524.19"/>
</a>
</g>
</g>
<!-- Node30&#45;&gt;Node28 -->
<g id="edge41_Node000030_Node000028" class="edge">
<title>Node30&#45;&gt;Node28</title>
<g id="a_edge41_Node000030_Node000028"><a xlink:title=" ">
<path fill="none" stroke="#63b8ff" d="M274.66,-552.09C284.59,-544.32 299.14,-532.92 310.98,-523.65"/>
<polygon fill="#63b8ff" stroke="#63b8ff" points="312.85,-526.63 318.57,-517.71 308.54,-521.12 312.85,-526.63"/>
</a>
</g>
</g>
<!-- Node31&#45;&gt;Node11 -->
<g id="edge43_Node000031_Node000011" class="edge">
<title>Node31&#45;&gt;Node11</title>
<g id="a_edge43_Node000031_Node000011"><a xlink:title=" ">
<path fill="none" stroke="#63b8ff" d="M173.07,-497.2C205.53,-488.11 256.64,-473.78 292.13,-463.83"/>
<polygon fill="#63b8ff" stroke="#63b8ff" points="292.92,-467.25 301.6,-461.18 291.03,-460.51 292.92,-467.25"/>
</a>
</g>
</g>
<!-- Node32 -->
<g id="Node000032" class="node">
<title>Node32</title>
<g id="a_Node000032"><a xlink:href="_c64_types_8h.html" target="_top" xlink:title=" ">
<polygon fill="white" stroke="#666666" points="176.38,-240.25 107.88,-240.25 107.88,-221 176.38,-221 176.38,-240.25"/>
<text text-anchor="middle" x="142.12" y="-226.75" font-family="Helvetica,sans-Serif" font-size="10.00">C64Types.h</text>
</a>
</g>
</g>
<!-- Node31&#45;&gt;Node32 -->
<g id="edge44_Node000031_Node000032" class="edge">
<title>Node31&#45;&gt;Node32</title>
<g id="a_edge44_Node000031_Node000032"><a xlink:title=" ">
<path fill="none" stroke="#63b8ff" d="M142.12,-496.87C142.12,-478.28 142.12,-434.3 142.12,-397.38 142.12,-397.38 142.12,-397.38 142.12,-340.12 142.12,-309.41 142.12,-273.8 142.12,-251.99"/>
<polygon fill="#63b8ff" stroke="#63b8ff" points="145.63,-252.14 142.13,-242.14 138.63,-252.14 145.63,-252.14"/>
</a>
</g>
</g>
<!-- Node32&#45;&gt;Node4 -->
<g id="edge45_Node000032_Node000004" class="edge">
<title>Node32&#45;&gt;Node4</title>
<g id="a_edge45_Node000032_Node000004"><a xlink:title=" ">
<path fill="none" stroke="#63b8ff" d="M142.79,-220.83C143.28,-214.24 143.98,-204.96 144.61,-196.57"/>
<polygon fill="#63b8ff" stroke="#63b8ff" points="148.08,-197.1 145.34,-186.87 141.1,-196.58 148.08,-197.1"/>
</a>
</g>
</g>
<!-- Node32&#45;&gt;Node10 -->
<g id="edge46_Node000032_Node000010" class="edge">
<title>Node32&#45;&gt;Node10</title>
<g id="a_edge46_Node000032_Node000010"><a xlink:title=" ">
<path fill="none" stroke="#63b8ff" d="M156.54,-220.59C169.24,-212.64 188,-200.89 202.98,-191.5"/>
<polygon fill="#63b8ff" stroke="#63b8ff" points="204.74,-194.53 211.35,-186.26 201.02,-188.6 204.74,-194.53"/>
</a>
</g>
</g>
<!-- Node33&#45;&gt;Node11 -->
<g id="edge48_Node000033_Node000011" class="edge">
<title>Node33&#45;&gt;Node11</title>
<g id="a_edge48_Node000033_Node000011"><a xlink:title=" ">
<path fill="none" stroke="#63b8ff" d="M556.25,-552.33C543.48,-538.6 516.87,-512.09 489.12,-497.25 451.91,-477.34 404.86,-465.49 372.01,-459.07"/>
<polygon fill="#63b8ff" stroke="#63b8ff" points="372.98,-455.69 362.51,-457.29 371.7,-462.57 372.98,-455.69"/>
</a>
</g>
</g>
<!-- Node34&#45;&gt;Node11 -->
<g id="edge50_Node000034_Node000011" class="edge">
<title>Node34&#45;&gt;Node11</title>
<g id="a_edge50_Node000034_Node000011"><a xlink:title=" ">
<path fill="none" stroke="#63b8ff" d="M488.14,-552.43C487.69,-538.84 484.83,-512.52 470.12,-497.25 444.58,-470.71 403.15,-459.93 372.35,-455.56"/>
<polygon fill="#63b8ff" stroke="#63b8ff" points="372.97,-452.11 362.62,-454.37 372.12,-459.06 372.97,-452.11"/>
</a>
</g>
</g>
<!-- Node35 -->
<g id="Node000035" class="node">
<title>Node35</title>
<g id="a_Node000035"><a xlink:href="_constants_8h.html" target="_top" xlink:title=" ">
<polygon fill="white" stroke="#666666" points="460.75,-516.5 391.5,-516.5 391.5,-497.25 460.75,-497.25 460.75,-516.5"/>
<text text-anchor="middle" x="426.12" y="-503" font-family="Helvetica,sans-Serif" font-size="10.00">Constants.h</text>
</a>
</g>
</g>
<!-- Node34&#45;&gt;Node35 -->
<g id="edge51_Node000034_Node000035" class="edge">
<title>Node34&#45;&gt;Node35</title>
<g id="a_edge51_Node000034_Node000035"><a xlink:title=" ">
<path fill="none" stroke="#63b8ff" d="M477.61,-552.09C468.74,-544.47 455.81,-533.37 445.14,-524.2"/>
<polygon fill="#63b8ff" stroke="#63b8ff" points="447.5,-521.62 437.64,-517.76 442.94,-526.93 447.5,-521.62"/>
</a>
</g>
</g>
<!-- Node36&#45;&gt;Node28 -->
<g id="edge53_Node000036_Node000028" class="edge">
<title>Node36&#45;&gt;Node28</title>
<g id="a_edge53_Node000036_Node000028"><a xlink:title=" ">
<path fill="none" stroke="#63b8ff" d="M338.64,-552.33C337.53,-545.74 335.96,-536.46 334.54,-528.07"/>
<polygon fill="#63b8ff" stroke="#63b8ff" points="338.01,-527.63 332.9,-518.35 331.11,-528.8 338.01,-527.63"/>
</a>
</g>
</g>
<!-- Node37&#45;&gt;Node11 -->
<g id="edge55_Node000037_Node000011" class="edge">
<title>Node37&#45;&gt;Node11</title>
<g id="a_edge55_Node000037_Node000011"><a xlink:title=" ">
<path fill="none" stroke="#63b8ff" d="M579.48,-500.18C529.58,-490.58 428.73,-471.2 372.44,-460.38"/>
<polygon fill="#63b8ff" stroke="#63b8ff" points="373.11,-456.94 362.63,-458.49 371.79,-463.81 373.11,-456.94"/>
</a>
</g>
</g>
</g>
</svg>
