<?xml version="1.0" encoding="UTF-8" standalone="no"?>
<!DOCTYPE svg PUBLIC "-//W3C//DTD SVG 1.1//EN"
 "http://www.w3.org/Graphics/SVG/1.1/DTD/svg11.dtd">
<!-- Generated by graphviz version 10.0.1 (20240210.2158)
 -->
<!-- Title: /Users/hoff/Retro/virtualc64/Emulator/Utilities/MemUtils.cpp Pages: 1 -->
<svg width="889pt" height="260pt"
 viewBox="0.00 0.00 889.38 259.50" xmlns="http://www.w3.org/2000/svg" xmlns:xlink="http://www.w3.org/1999/xlink">
<g id="graph0" class="graph" transform="scale(1 1) rotate(0) translate(4 255.5)">
<title>/Users/hoff/Retro/virtualc64/Emulator/Utilities/MemUtils.cpp</title>
<!-- Node1 -->
<g id="Node000001" class="node">
<title>Node1</title>
<g id="a_Node000001"><a xlink:title=" ">
<polygon fill="#999999" stroke="#666666" points="259.5,-251.5 101.75,-251.5 101.75,-221 259.5,-221 259.5,-251.5"/>
<text text-anchor="start" x="109.75" y="-238" font-family="Helvetica,sans-Serif" font-size="10.00">/Users/hoff/Retro/virtualc64</text>
<text text-anchor="middle" x="180.62" y="-226.75" font-family="Helvetica,sans-Serif" font-size="10.00">/Emulator/Utilities/MemUtils.cpp</text>
</a>
</g>
</g>
<!-- Node2 -->
<g id="Node000002" class="node">
<title>Node2</title>
<g id="a_Node000002"><a xlink:href="config_8h.html" target="_top" xlink:title=" ">
<polygon fill="white" stroke="#666666" points="71.88,-185 21.38,-185 21.38,-165.75 71.88,-165.75 71.88,-185"/>
<text text-anchor="middle" x="46.62" y="-171.5" font-family="Helvetica,sans-Serif" font-size="10.00">config.h</text>
</a>
</g>
</g>
<!-- Node1&#45;&gt;Node2 -->
<g id="edge1_Node000001_Node000002" class="edge">
<title>Node1&#45;&gt;Node2</title>
<g id="a_edge1_Node000001_Node000002"><a xlink:title=" ">
<path fill="none" stroke="#63b8ff" d="M147.16,-220.55C125.87,-211.19 98.49,-199.16 77.68,-190.02"/>
<polygon fill="#63b8ff" stroke="#63b8ff" points="79.12,-186.83 68.56,-186.01 76.31,-193.24 79.12,-186.83"/>
</a>
</g>
</g>
<!-- Node4 -->
<g id="Node000004" class="node">
<title>Node4</title>
<g id="a_Node000004"><a xlink:href="_mem_utils_8h.html" target="_top" xlink:title=" ">
<polygon fill="white" stroke="#666666" points="176.75,-185 110.5,-185 110.5,-165.75 176.75,-165.75 176.75,-185"/>
<text text-anchor="middle" x="143.62" y="-171.5" font-family="Helvetica,sans-Serif" font-size="10.00">MemUtils.h</text>
</a>
</g>
</g>
<!-- Node1&#45;&gt;Node4 -->
<g id="edge3_Node000001_Node000004" class="edge">
<title>Node1&#45;&gt;Node4</title>
<g id="a_edge3_Node000001_Node000004"><a xlink:title=" ">
<path fill="none" stroke="#63b8ff" d="M171.48,-220.7C166.6,-212.94 160.55,-203.31 155.34,-195.01"/>
<polygon fill="#63b8ff" stroke="#63b8ff" points="158.42,-193.34 150.13,-186.73 152.49,-197.06 158.42,-193.34"/>
</a>
</g>
</g>
<!-- Node11 -->
<g id="Node000011" class="node">
<title>Node11</title>
<g id="a_Node000011"><a xlink:title=" ">
<polygon fill="#e0e0e0" stroke="#999999" points="242.75,-185 194.5,-185 194.5,-165.75 242.75,-165.75 242.75,-185"/>
<text text-anchor="middle" x="218.62" y="-171.5" font-family="Helvetica,sans-Serif" font-size="10.00">string.h</text>
</a>
</g>
</g>
<!-- Node1&#45;&gt;Node11 -->
<g id="edge11_Node000001_Node000011" class="edge">
<title>Node1&#45;&gt;Node11</title>
<g id="a_edge11_Node000001_Node000011"><a xlink:title=" ">
<path fill="none" stroke="#63b8ff" d="M190.02,-220.7C195.03,-212.94 201.24,-203.31 206.6,-195.01"/>
<polygon fill="#63b8ff" stroke="#63b8ff" points="209.46,-197.02 211.95,-186.72 203.58,-193.23 209.46,-197.02"/>
</a>
</g>
</g>
<!-- Node12 -->
<g id="Node000012" class="node">
<title>Node12</title>
<g id="a_Node000012"><a xlink:href="_i_o_utils_8h.html" target="_top" xlink:title=" ">
<polygon fill="white" stroke="#666666" points="527.12,-185 472.12,-185 472.12,-165.75 527.12,-165.75 527.12,-185"/>
<text text-anchor="middle" x="499.62" y="-171.5" font-family="Helvetica,sans-Serif" font-size="10.00">IOUtils.h</text>
</a>
</g>
</g>
<!-- Node1&#45;&gt;Node12 -->
<g id="edge12_Node000001_Node000012" class="edge">
<title>Node1&#45;&gt;Node12</title>
<g id="a_edge12_Node000001_Node000012"><a xlink:title=" ">
<path fill="none" stroke="#63b8ff" d="M259.89,-220.62C323.78,-208.83 410.89,-192.75 460.6,-183.58"/>
<polygon fill="#63b8ff" stroke="#63b8ff" points="461.12,-187.04 470.32,-181.78 459.85,-180.16 461.12,-187.04"/>
</a>
</g>
</g>
<!-- Node3 -->
<g id="Node000003" class="node">
<title>Node3</title>
<g id="a_Node000003"><a xlink:title=" ">
<polygon fill="#e0e0e0" stroke="#999999" points="51.25,-129.75 0,-129.75 0,-110.5 51.25,-110.5 51.25,-129.75"/>
<text text-anchor="middle" x="25.62" y="-116.25" font-family="Helvetica,sans-Serif" font-size="10.00">assert.h</text>
</a>
</g>
</g>
<!-- Node2&#45;&gt;Node3 -->
<g id="edge2_Node000002_Node000003" class="edge">
<title>Node2&#45;&gt;Node3</title>
<g id="a_edge2_Node000002_Node000003"><a xlink:title=" ">
<path fill="none" stroke="#63b8ff" d="M43.16,-165.58C40.5,-158.84 36.73,-149.27 33.36,-140.74"/>
<polygon fill="#63b8ff" stroke="#63b8ff" points="36.65,-139.54 29.72,-131.52 30.14,-142.1 36.65,-139.54"/>
</a>
</g>
</g>
<!-- Node5 -->
<g id="Node000005" class="node">
<title>Node5</title>
<g id="a_Node000005"><a xlink:href="_types_8h.html" target="_top" xlink:title=" ">
<polygon fill="white" stroke="#666666" points="250.88,-74.5 200.38,-74.5 200.38,-55.25 250.88,-55.25 250.88,-74.5"/>
<text text-anchor="middle" x="225.62" y="-61" font-family="Helvetica,sans-Serif" font-size="10.00">Types.h</text>
</a>
</g>
</g>
<!-- Node4&#45;&gt;Node5 -->
<g id="edge4_Node000004_Node000005" class="edge">
<title>Node4&#45;&gt;Node5</title>
<g id="a_edge4_Node000004_Node000005"><a xlink:title=" ">
<path fill="none" stroke="#63b8ff" d="M129.14,-165.27C111.27,-152.87 84.82,-129.98 98.62,-110.5 118.9,-81.88 159.05,-71.48 188.81,-67.77"/>
<polygon fill="#63b8ff" stroke="#63b8ff" points="188.94,-71.28 198.53,-66.78 188.22,-64.32 188.94,-71.28"/>
</a>
</g>
</g>
<!-- Node9 -->
<g id="Node000009" class="node">
<title>Node9</title>
<g id="a_Node000009"><a xlink:href="_checksum_8h.html" target="_top" xlink:title=" ">
<polygon fill="white" stroke="#666666" points="179.38,-129.75 107.88,-129.75 107.88,-110.5 179.38,-110.5 179.38,-129.75"/>
<text text-anchor="middle" x="143.62" y="-116.25" font-family="Helvetica,sans-Serif" font-size="10.00">Checksum.h</text>
</a>
</g>
</g>
<!-- Node4&#45;&gt;Node9 -->
<g id="edge8_Node000004_Node000009" class="edge">
<title>Node4&#45;&gt;Node9</title>
<g id="a_edge8_Node000004_Node000009"><a xlink:title=" ">
<path fill="none" stroke="#63b8ff" d="M143.62,-165.58C143.62,-159.07 143.62,-149.92 143.62,-141.62"/>
<polygon fill="#63b8ff" stroke="#63b8ff" points="147.13,-141.62 143.63,-131.62 140.13,-141.62 147.13,-141.62"/>
</a>
</g>
</g>
<!-- Node10 -->
<g id="Node000010" class="node">
<title>Node10</title>
<g id="a_Node000010"><a xlink:title=" ">
<polygon fill="#e0e0e0" stroke="#999999" points="226.03,-129.75 197.22,-129.75 197.22,-110.5 226.03,-110.5 226.03,-129.75"/>
<text text-anchor="middle" x="211.62" y="-116.25" font-family="Helvetica,sans-Serif" font-size="10.00">bit</text>
</a>
</g>
</g>
<!-- Node4&#45;&gt;Node10 -->
<g id="edge10_Node000004_Node000010" class="edge">
<title>Node4&#45;&gt;Node10</title>
<g id="a_edge10_Node000004_Node000010"><a xlink:title=" ">
<path fill="none" stroke="#63b8ff" d="M155.16,-165.34C165.09,-157.57 179.64,-146.17 191.48,-136.9"/>
<polygon fill="#63b8ff" stroke="#63b8ff" points="193.35,-139.88 199.07,-130.96 189.04,-134.37 193.35,-139.88"/>
</a>
</g>
</g>
<!-- Node6 -->
<g id="Node000006" class="node">
<title>Node6</title>
<g id="a_Node000006"><a xlink:title=" ">
<polygon fill="#e0e0e0" stroke="#999999" points="183.12,-19.25 116.12,-19.25 116.12,0 183.12,0 183.12,-19.25"/>
<text text-anchor="middle" x="149.62" y="-5.75" font-family="Helvetica,sans-Serif" font-size="10.00">sys/types.h</text>
</a>
</g>
</g>
<!-- Node5&#45;&gt;Node6 -->
<g id="edge5_Node000005_Node000006" class="edge">
<title>Node5&#45;&gt;Node6</title>
<g id="a_edge5_Node000005_Node000006"><a xlink:title=" ">
<path fill="none" stroke="#63b8ff" d="M212.73,-54.84C201.6,-47.04 185.25,-35.59 171.99,-26.29"/>
<polygon fill="#63b8ff" stroke="#63b8ff" points="174.02,-23.44 163.82,-20.57 170,-29.18 174.02,-23.44"/>
</a>
</g>
</g>
<!-- Node7 -->
<g id="Node000007" class="node">
<title>Node7</title>
<g id="a_Node000007"><a xlink:title=" ">
<polygon fill="#e0e0e0" stroke="#999999" points="249.75,-19.25 201.5,-19.25 201.5,0 249.75,0 249.75,-19.25"/>
<text text-anchor="middle" x="225.62" y="-5.75" font-family="Helvetica,sans-Serif" font-size="10.00">stdint.h</text>
</a>
</g>
</g>
<!-- Node5&#45;&gt;Node7 -->
<g id="edge6_Node000005_Node000007" class="edge">
<title>Node5&#45;&gt;Node7</title>
<g id="a_edge6_Node000005_Node000007"><a xlink:title=" ">
<path fill="none" stroke="#63b8ff" d="M225.62,-55.08C225.62,-48.57 225.62,-39.42 225.62,-31.12"/>
<polygon fill="#63b8ff" stroke="#63b8ff" points="229.13,-31.12 225.63,-21.12 222.13,-31.12 229.13,-31.12"/>
</a>
</g>
</g>
<!-- Node8 -->
<g id="Node000008" class="node">
<title>Node8</title>
<g id="a_Node000008"><a xlink:title=" ">
<polygon fill="#e0e0e0" stroke="#999999" points="323.5,-19.25 267.75,-19.25 267.75,0 323.5,0 323.5,-19.25"/>
<text text-anchor="middle" x="295.62" y="-5.75" font-family="Helvetica,sans-Serif" font-size="10.00">stdbool.h</text>
</a>
</g>
</g>
<!-- Node5&#45;&gt;Node8 -->
<g id="edge7_Node000005_Node000008" class="edge">
<title>Node5&#45;&gt;Node8</title>
<g id="a_edge7_Node000005_Node000008"><a xlink:title=" ">
<path fill="none" stroke="#63b8ff" d="M237.5,-54.84C247.72,-47.07 262.7,-35.67 274.89,-26.4"/>
<polygon fill="#63b8ff" stroke="#63b8ff" points="276.88,-29.28 282.72,-20.44 272.64,-23.71 276.88,-29.28"/>
</a>
</g>
</g>
<!-- Node9&#45;&gt;Node5 -->
<g id="edge9_Node000009_Node000005" class="edge">
<title>Node9&#45;&gt;Node5</title>
<g id="a_edge9_Node000009_Node000005"><a xlink:title=" ">
<path fill="none" stroke="#63b8ff" d="M157.54,-110.09C169.79,-102.14 187.88,-90.39 202.34,-81"/>
<polygon fill="#63b8ff" stroke="#63b8ff" points="203.9,-84.16 210.38,-75.78 200.08,-78.29 203.9,-84.16"/>
</a>
</g>
</g>
<!-- Node12&#45;&gt;Node5 -->
<g id="edge13_Node000012_Node000005" class="edge">
<title>Node12&#45;&gt;Node5</title>
<g id="a_edge13_Node000012_Node000005"><a xlink:title=" ">
<path fill="none" stroke="#63b8ff" d="M471.77,-175.17C426.47,-175.16 335.54,-169.66 272.62,-129.75 255.58,-118.94 242.64,-99.56 234.7,-84.97"/>
<polygon fill="#63b8ff" stroke="#63b8ff" points="237.95,-83.65 230.3,-76.32 231.71,-86.82 237.95,-83.65"/>
</a>
</g>
</g>
<!-- Node13 -->
<g id="Node000013" class="node">
<title>Node13</title>
<g id="a_Node000013"><a xlink:href="_string_utils_8h.html" target="_top" xlink:title=" ">
<polygon fill="white" stroke="#666666" points="351.62,-129.75 281.62,-129.75 281.62,-110.5 351.62,-110.5 351.62,-129.75"/>
<text text-anchor="middle" x="316.62" y="-116.25" font-family="Helvetica,sans-Serif" font-size="10.00">StringUtils.h</text>
</a>
</g>
</g>
<!-- Node12&#45;&gt;Node13 -->
<g id="edge14_Node000012_Node000013" class="edge">
<title>Node12&#45;&gt;Node13</title>
<g id="a_edge14_Node000012_Node000013"><a xlink:title=" ">
<path fill="none" stroke="#63b8ff" d="M471.83,-166.29C441.7,-157.52 393.26,-143.42 358.51,-133.31"/>
<polygon fill="#63b8ff" stroke="#63b8ff" points="359.78,-130.04 349.2,-130.6 357.83,-136.76 359.78,-130.04"/>
</a>
</g>
</g>
<!-- Node14 -->
<g id="Node000014" class="node">
<title>Node14</title>
<g id="a_Node000014"><a xlink:title=" ">
<polygon fill="#e0e0e0" stroke="#999999" points="366.12,-74.5 323.12,-74.5 323.12,-55.25 366.12,-55.25 366.12,-74.5"/>
<text text-anchor="middle" x="344.62" y="-61" font-family="Helvetica,sans-Serif" font-size="10.00">vector</text>
</a>
</g>
</g>
<!-- Node12&#45;&gt;Node14 -->
<g id="edge24_Node000012_Node000014" class="edge">
<title>Node12&#45;&gt;Node14</title>
<g id="a_edge24_Node000012_Node000014"><a xlink:title=" ">
<path fill="none" stroke="#63b8ff" d="M472,-165.76C450.88,-158.34 421.74,-146.21 399.62,-129.75 382.43,-116.95 366.91,-97.89 356.77,-83.92"/>
<polygon fill="#63b8ff" stroke="#63b8ff" points="359.87,-82.24 351.27,-76.05 354.13,-86.25 359.87,-82.24"/>
</a>
</g>
</g>
<!-- Node15 -->
<g id="Node000015" class="node">
<title>Node15</title>
<g id="a_Node000015"><a xlink:title=" ">
<polygon fill="#e0e0e0" stroke="#999999" points="451.12,-129.75 408.12,-129.75 408.12,-110.5 451.12,-110.5 451.12,-129.75"/>
<text text-anchor="middle" x="429.62" y="-116.25" font-family="Helvetica,sans-Serif" font-size="10.00">fcntl.h</text>
</a>
</g>
</g>
<!-- Node12&#45;&gt;Node15 -->
<g id="edge17_Node000012_Node000015" class="edge">
<title>Node12&#45;&gt;Node15</title>
<g id="a_edge17_Node000012_Node000015"><a xlink:title=" ">
<path fill="none" stroke="#63b8ff" d="M487.75,-165.34C477.53,-157.57 462.55,-146.17 450.36,-136.9"/>
<polygon fill="#63b8ff" stroke="#63b8ff" points="452.61,-134.21 442.53,-130.94 448.37,-139.78 452.61,-134.21"/>
</a>
</g>
</g>
<!-- Node16 -->
<g id="Node000016" class="node">
<title>Node16</title>
<g id="a_Node000016"><a xlink:title=" ">
<polygon fill="#e0e0e0" stroke="#999999" points="530.12,-129.75 469.12,-129.75 469.12,-110.5 530.12,-110.5 530.12,-129.75"/>
<text text-anchor="middle" x="499.62" y="-116.25" font-family="Helvetica,sans-Serif" font-size="10.00">filesystem</text>
</a>
</g>
</g>
<!-- Node12&#45;&gt;Node16 -->
<g id="edge18_Node000012_Node000016" class="edge">
<title>Node12&#45;&gt;Node16</title>
<g id="a_edge18_Node000012_Node000016"><a xlink:title=" ">
<path fill="none" stroke="#63b8ff" d="M499.62,-165.58C499.62,-159.07 499.62,-149.92 499.62,-141.62"/>
<polygon fill="#63b8ff" stroke="#63b8ff" points="503.13,-141.62 499.63,-131.62 496.13,-141.62 503.13,-141.62"/>
</a>
</g>
</g>
<!-- Node17 -->
<g id="Node000017" class="node">
<title>Node17</title>
<g id="a_Node000017"><a xlink:title=" ">
<polygon fill="#e0e0e0" stroke="#999999" points="597.12,-129.75 548.12,-129.75 548.12,-110.5 597.12,-110.5 597.12,-129.75"/>
<text text-anchor="middle" x="572.62" y="-116.25" font-family="Helvetica,sans-Serif" font-size="10.00">fstream</text>
</a>
</g>
</g>
<!-- Node12&#45;&gt;Node17 -->
<g id="edge19_Node000012_Node000017" class="edge">
<title>Node12&#45;&gt;Node17</title>
<g id="a_edge19_Node000012_Node000017"><a xlink:title=" ">
<path fill="none" stroke="#63b8ff" d="M512.01,-165.34C522.77,-157.49 538.6,-145.95 551.38,-136.62"/>
<polygon fill="#63b8ff" stroke="#63b8ff" points="553.19,-139.64 559.2,-130.92 549.06,-133.98 553.19,-139.64"/>
</a>
</g>
</g>
<!-- Node18 -->
<g id="Node000018" class="node">
<title>Node18</title>
<g id="a_Node000018"><a xlink:title=" ">
<polygon fill="#e0e0e0" stroke="#999999" points="663.75,-129.75 615.5,-129.75 615.5,-110.5 663.75,-110.5 663.75,-129.75"/>
<text text-anchor="middle" x="639.62" y="-116.25" font-family="Helvetica,sans-Serif" font-size="10.00">istream</text>
</a>
</g>
</g>
<!-- Node12&#45;&gt;Node18 -->
<g id="edge20_Node000012_Node000018" class="edge">
<title>Node12&#45;&gt;Node18</title>
<g id="a_edge20_Node000012_Node000018"><a xlink:title=" ">
<path fill="none" stroke="#63b8ff" d="M523.37,-165.34C545.8,-156.81 579.69,-143.92 605.1,-134.26"/>
<polygon fill="#63b8ff" stroke="#63b8ff" points="606.24,-137.57 614.34,-130.74 603.75,-131.02 606.24,-137.57"/>
</a>
</g>
</g>
<!-- Node19 -->
<g id="Node000019" class="node">
<title>Node19</title>
<g id="a_Node000019"><a xlink:title=" ">
<polygon fill="#e0e0e0" stroke="#999999" points="735.38,-129.75 681.88,-129.75 681.88,-110.5 735.38,-110.5 735.38,-129.75"/>
<text text-anchor="middle" x="708.62" y="-116.25" font-family="Helvetica,sans-Serif" font-size="10.00">iostream</text>
</a>
</g>
</g>
<!-- Node12&#45;&gt;Node19 -->
<g id="edge21_Node000012_Node000019" class="edge">
<title>Node12&#45;&gt;Node19</title>
<g id="a_edge21_Node000012_Node000019"><a xlink:title=" ">
<path fill="none" stroke="#63b8ff" d="M527.38,-167.3C564.12,-157.94 629.07,-141.39 670.43,-130.86"/>
<polygon fill="#63b8ff" stroke="#63b8ff" points="671.13,-134.29 679.95,-128.43 669.4,-127.51 671.13,-134.29"/>
</a>
</g>
</g>
<!-- Node20 -->
<g id="Node000020" class="node">
<title>Node20</title>
<g id="a_Node000020"><a xlink:title=" ">
<polygon fill="#e0e0e0" stroke="#999999" points="804.25,-129.75 753,-129.75 753,-110.5 804.25,-110.5 804.25,-129.75"/>
<text text-anchor="middle" x="778.62" y="-116.25" font-family="Helvetica,sans-Serif" font-size="10.00">sstream</text>
</a>
</g>
</g>
<!-- Node12&#45;&gt;Node20 -->
<g id="edge22_Node000012_Node000020" class="edge">
<title>Node12&#45;&gt;Node20</title>
<g id="a_edge22_Node000012_Node000020"><a xlink:title=" ">
<path fill="none" stroke="#63b8ff" d="M527.3,-169.97C570.87,-162.89 658.32,-148.15 741.5,-130.32"/>
<polygon fill="#63b8ff" stroke="#63b8ff" points="742.17,-133.76 751.2,-128.22 740.69,-126.92 742.17,-133.76"/>
</a>
</g>
</g>
<!-- Node21 -->
<g id="Node000021" class="node">
<title>Node21</title>
<g id="a_Node000021"><a xlink:title=" ">
<polygon fill="#e0e0e0" stroke="#999999" points="881.38,-129.75 821.88,-129.75 821.88,-110.5 881.38,-110.5 881.38,-129.75"/>
<text text-anchor="middle" x="851.62" y="-116.25" font-family="Helvetica,sans-Serif" font-size="10.00">sys/stat.h</text>
</a>
</g>
</g>
<!-- Node12&#45;&gt;Node21 -->
<g id="edge23_Node000012_Node000021" class="edge">
<title>Node12&#45;&gt;Node21</title>
<g id="a_edge23_Node000012_Node000021"><a xlink:title=" ">
<path fill="none" stroke="#63b8ff" d="M527.47,-171.2C580.59,-164.97 700.27,-150.13 810.11,-130.29"/>
<polygon fill="#63b8ff" stroke="#63b8ff" points="810.69,-133.74 819.9,-128.5 809.43,-126.85 810.69,-133.74"/>
</a>
</g>
</g>
<!-- Node13&#45;&gt;Node5 -->
<g id="edge15_Node000013_Node000005" class="edge">
<title>Node13&#45;&gt;Node5</title>
<g id="a_edge15_Node000013_Node000005"><a xlink:title=" ">
<path fill="none" stroke="#63b8ff" d="M301.19,-110.09C287.46,-102.06 267.13,-90.16 251.01,-80.73"/>
<polygon fill="#63b8ff" stroke="#63b8ff" points="252.84,-77.75 242.44,-75.72 249.31,-83.79 252.84,-77.75"/>
</a>
</g>
</g>
<!-- Node13&#45;&gt;Node14 -->
<g id="edge16_Node000013_Node000014" class="edge">
<title>Node13&#45;&gt;Node14</title>
<g id="a_edge16_Node000013_Node000014"><a xlink:title=" ">
<path fill="none" stroke="#63b8ff" d="M321.25,-110.33C324.87,-103.44 330.05,-93.59 334.62,-84.91"/>
<polygon fill="#63b8ff" stroke="#63b8ff" points="337.64,-86.68 339.2,-76.2 331.44,-83.42 337.64,-86.68"/>
</a>
</g>
</g>
</g>
</svg>
