<?xml version="1.0" encoding="UTF-8" standalone="no"?>
<!DOCTYPE svg PUBLIC "-//W3C//DTD SVG 1.1//EN"
 "http://www.w3.org/Graphics/SVG/1.1/DTD/svg11.dtd">
<!-- Generated by graphviz version 10.0.1 (20240210.2158)
 -->
<!-- Title: /Users/hoff/Retro/virtualc64/Emulator/Components/Memory/MemoryTypes.h Pages: 1 -->
<svg width="422pt" height="394pt"
 viewBox="0.00 0.00 422.00 393.50" xmlns="http://www.w3.org/2000/svg" xmlns:xlink="http://www.w3.org/1999/xlink">
<g id="graph0" class="graph" transform="scale(1 1) rotate(0) translate(4 389.5)">
<title>/Users/hoff/Retro/virtualc64/Emulator/Components/Memory/MemoryTypes.h</title>
<!-- Node1 -->
<g id="Node000001" class="node">
<title>Node1</title>
<g id="a_Node000001"><a xlink:title=" ">
<polygon fill="#999999" stroke="#666666" points="321.75,-385.5 167,-385.5 167,-343.75 321.75,-343.75 321.75,-385.5"/>
<text text-anchor="start" x="175" y="-372" font-family="Helvetica,sans-Serif" font-size="10.00">/Users/hoff/Retro/virtualc64</text>
<text text-anchor="start" x="175" y="-360.75" font-family="Helvetica,sans-Serif" font-size="10.00">/Emulator/Components/Memory</text>
<text text-anchor="middle" x="244.38" y="-349.5" font-family="Helvetica,sans-Serif" font-size="10.00">/MemoryTypes.h</text>
</a>
</g>
</g>
<!-- Node2 -->
<g id="Node000002" class="node">
<title>Node2</title>
<g id="a_Node000002"><a xlink:href="_c64_memory_8h_source.html" target="_top" xlink:title=" ">
<polygon fill="white" stroke="#666666" points="154.75,-307.75 0,-307.75 0,-266 154.75,-266 154.75,-307.75"/>
<text text-anchor="start" x="8" y="-294.25" font-family="Helvetica,sans-Serif" font-size="10.00">/Users/hoff/Retro/virtualc64</text>
<text text-anchor="start" x="8" y="-283" font-family="Helvetica,sans-Serif" font-size="10.00">/Emulator/Components/Memory</text>
<text text-anchor="middle" x="77.38" y="-271.75" font-family="Helvetica,sans-Serif" font-size="10.00">/C64Memory.h</text>
</a>
</g>
</g>
<!-- Node1&#45;&gt;Node2 -->
<g id="edge1_Node000001_Node000002" class="edge">
<title>Node1&#45;&gt;Node2</title>
<g id="a_edge1_Node000001_Node000002"><a xlink:title=" ">
<path fill="none" stroke="#63b8ff" d="M189.22,-338.61C167.49,-328.75 142.86,-317.58 122.25,-308.23"/>
<polygon fill="#63b8ff" stroke="#63b8ff" points="187.69,-341.76 198.24,-342.7 190.58,-335.38 187.69,-341.76"/>
</a>
</g>
</g>
<!-- Node7 -->
<g id="Node000007" class="node">
<title>Node7</title>
<g id="a_Node000007"><a xlink:href="_v_i_c_i_i_8h_source.html" target="_top" xlink:title=" ">
<polygon fill="white" stroke="#666666" points="315.75,-307.75 173,-307.75 173,-266 315.75,-266 315.75,-307.75"/>
<text text-anchor="start" x="181" y="-294.25" font-family="Helvetica,sans-Serif" font-size="10.00">/Users/hoff/Retro/virtualc64</text>
<text text-anchor="start" x="181" y="-283" font-family="Helvetica,sans-Serif" font-size="10.00">/Emulator/Components/VICII</text>
<text text-anchor="middle" x="244.38" y="-271.75" font-family="Helvetica,sans-Serif" font-size="10.00">/VICII.h</text>
</a>
</g>
</g>
<!-- Node1&#45;&gt;Node7 -->
<g id="edge6_Node000001_Node000007" class="edge">
<title>Node1&#45;&gt;Node7</title>
<g id="a_edge6_Node000001_Node000007"><a xlink:title=" ">
<path fill="none" stroke="#63b8ff" d="M244.38,-332C244.38,-323.96 244.38,-315.54 244.38,-308.23"/>
<polygon fill="#63b8ff" stroke="#63b8ff" points="240.88,-331.81 244.38,-341.81 247.88,-331.81 240.88,-331.81"/>
</a>
</g>
</g>
<!-- Node8 -->
<g id="Node000008" class="node">
<title>Node8</title>
<g id="a_Node000008"><a xlink:href="_virtual_c64_types_8h.html" target="_top" xlink:title=" ">
<polygon fill="white" stroke="#666666" points="414,-230 272.75,-230 272.75,-199.5 414,-199.5 414,-230"/>
<text text-anchor="start" x="280.75" y="-216.5" font-family="Helvetica,sans-Serif" font-size="10.00">/Users/hoff/Retro/virtualc64</text>
<text text-anchor="middle" x="343.38" y="-205.25" font-family="Helvetica,sans-Serif" font-size="10.00">/Emulator/VirtualC64Types.h</text>
</a>
</g>
</g>
<!-- Node1&#45;&gt;Node8 -->
<g id="edge8_Node000001_Node000008" class="edge">
<title>Node1&#45;&gt;Node8</title>
<g id="a_edge8_Node000001_Node000008"><a xlink:title=" ">
<path fill="none" stroke="#63b8ff" d="M294.73,-337.13C305.98,-329.07 316.8,-319.25 324.38,-307.75 340.07,-283.91 343.19,-249.67 343.59,-230.39"/>
<polygon fill="#63b8ff" stroke="#63b8ff" points="292.86,-334.17 286.5,-342.64 296.76,-339.99 292.86,-334.17"/>
</a>
</g>
</g>
<!-- Node3 -->
<g id="Node000003" class="node">
<title>Node3</title>
<g id="a_Node000003"><a xlink:href="_c64_8h_source.html" target="_top" xlink:title=" ">
<polygon fill="white" stroke="#666666" points="254.25,-230 108.5,-230 108.5,-199.5 254.25,-199.5 254.25,-230"/>
<text text-anchor="start" x="116.5" y="-216.5" font-family="Helvetica,sans-Serif" font-size="10.00">/Users/hoff/Retro/virtualc64</text>
<text text-anchor="middle" x="181.38" y="-205.25" font-family="Helvetica,sans-Serif" font-size="10.00">/Emulator/Components/C64.h</text>
</a>
</g>
</g>
<!-- Node2&#45;&gt;Node3 -->
<g id="edge2_Node000002_Node000003" class="edge">
<title>Node2&#45;&gt;Node3</title>
<g id="a_edge2_Node000002_Node000003"><a xlink:title=" ">
<path fill="none" stroke="#63b8ff" d="M116.75,-259.32C131.28,-249.53 147.21,-238.79 159.62,-230.42"/>
<polygon fill="#63b8ff" stroke="#63b8ff" points="115.05,-256.25 108.71,-264.75 118.96,-262.06 115.05,-256.25"/>
</a>
</g>
</g>
<!-- Node4 -->
<g id="Node000004" class="node">
<title>Node4</title>
<g id="a_Node000004"><a xlink:href="_emulator_8h_source.html" target="_top" xlink:title=" ">
<polygon fill="white" stroke="#666666" points="289.38,-163.5 123.38,-163.5 123.38,-133 289.38,-133 289.38,-163.5"/>
<text text-anchor="start" x="131.38" y="-150" font-family="Helvetica,sans-Serif" font-size="10.00">/Users/hoff/Retro/virtualc64</text>
<text text-anchor="middle" x="206.38" y="-138.75" font-family="Helvetica,sans-Serif" font-size="10.00">/Emulator/Components/Emulator.h</text>
</a>
</g>
</g>
<!-- Node3&#45;&gt;Node4 -->
<g id="edge3_Node000003_Node000004" class="edge">
<title>Node3&#45;&gt;Node4</title>
<g id="a_edge3_Node000003_Node000004"><a xlink:title=" ">
<path fill="none" stroke="#63b8ff" d="M191.1,-188.66C194.36,-180.25 197.88,-171.16 200.72,-163.83"/>
<polygon fill="#63b8ff" stroke="#63b8ff" points="187.95,-187.11 187.59,-197.7 194.47,-189.64 187.95,-187.11"/>
</a>
</g>
</g>
<!-- Node5 -->
<g id="Node000005" class="node">
<title>Node5</title>
<g id="a_Node000005"><a xlink:href="_virtual_c64_8h.html" target="_top" xlink:title=" ">
<polygon fill="white" stroke="#666666" points="329.75,-97 193,-97 193,-66.5 329.75,-66.5 329.75,-97"/>
<text text-anchor="start" x="201" y="-83.5" font-family="Helvetica,sans-Serif" font-size="10.00">/Users/hoff/Retro/virtualc64</text>
<text text-anchor="middle" x="261.38" y="-72.25" font-family="Helvetica,sans-Serif" font-size="10.00">/Emulator/VirtualC64.h</text>
</a>
</g>
</g>
<!-- Node4&#45;&gt;Node5 -->
<g id="edge4_Node000004_Node000005" class="edge">
<title>Node4&#45;&gt;Node5</title>
<g id="a_edge4_Node000004_Node000005"><a xlink:title=" ">
<path fill="none" stroke="#63b8ff" d="M226.09,-124.13C233.71,-115.19 242.2,-105.24 248.94,-97.33"/>
<polygon fill="#63b8ff" stroke="#63b8ff" points="223.66,-121.58 219.84,-131.46 228.99,-126.12 223.66,-121.58"/>
</a>
</g>
</g>
<!-- Node6 -->
<g id="Node000006" class="node">
<title>Node6</title>
<g id="a_Node000006"><a xlink:href="_headless_8h_source.html" target="_top" xlink:title=" ">
<polygon fill="white" stroke="#666666" points="329.75,-30.5 193,-30.5 193,0 329.75,0 329.75,-30.5"/>
<text text-anchor="start" x="201" y="-17" font-family="Helvetica,sans-Serif" font-size="10.00">/Users/hoff/Retro/virtualc64</text>
<text text-anchor="middle" x="261.38" y="-5.75" font-family="Helvetica,sans-Serif" font-size="10.00">/Emulator/Headless.h</text>
</a>
</g>
</g>
<!-- Node5&#45;&gt;Node6 -->
<g id="edge5_Node000005_Node000006" class="edge">
<title>Node5&#45;&gt;Node6</title>
<g id="a_edge5_Node000005_Node000006"><a xlink:title=" ">
<path fill="none" stroke="#63b8ff" d="M261.38,-54.81C261.38,-46.64 261.38,-37.91 261.38,-30.83"/>
<polygon fill="#63b8ff" stroke="#63b8ff" points="257.88,-54.6 261.38,-64.6 264.88,-54.6 257.88,-54.6"/>
</a>
</g>
</g>
<!-- Node7&#45;&gt;Node3 -->
<g id="edge7_Node000007_Node000003" class="edge">
<title>Node7&#45;&gt;Node3</title>
<g id="a_edge7_Node000007_Node000003"><a xlink:title=" ">
<path fill="none" stroke="#63b8ff" d="M218.7,-257.29C210.33,-247.98 201.39,-238.03 194.36,-230.2"/>
<polygon fill="#63b8ff" stroke="#63b8ff" points="215.85,-259.37 225.14,-264.47 221.06,-254.69 215.85,-259.37"/>
</a>
</g>
</g>
<!-- Node8&#45;&gt;Node5 -->
<g id="edge9_Node000008_Node000005" class="edge">
<title>Node8&#45;&gt;Node5</title>
<g id="a_edge9_Node000008_Node000005"><a xlink:title=" ">
<path fill="none" stroke="#63b8ff" d="M330.8,-189.32C322.17,-173.05 310.2,-151.38 298.38,-133 290.4,-120.61 280.46,-107.2 272.89,-97.35"/>
<polygon fill="#63b8ff" stroke="#63b8ff" points="327.5,-190.56 335.24,-197.79 333.7,-187.31 327.5,-190.56"/>
</a>
</g>
</g>
</g>
</svg>
