<?xml version="1.0" encoding="UTF-8" standalone="no"?>
<!DOCTYPE svg PUBLIC "-//W3C//DTD SVG 1.1//EN"
 "http://www.w3.org/Graphics/SVG/1.1/DTD/svg11.dtd">
<!-- Generated by graphviz version 10.0.1 (20240210.2158)
 -->
<!-- Title: /Users/hoff/Retro/virtualc64/Emulator/Components/Memory/MemoryTypes.h Pages: 1 -->
<svg width="574pt" height="338pt"
 viewBox="0.00 0.00 574.23 338.25" xmlns="http://www.w3.org/2000/svg" xmlns:xlink="http://www.w3.org/1999/xlink">
<g id="graph0" class="graph" transform="scale(1 1) rotate(0) translate(4 334.25)">
<title>/Users/hoff/Retro/virtualc64/Emulator/Components/Memory/MemoryTypes.h</title>
<!-- Node1 -->
<g id="Node000001" class="node">
<title>Node1</title>
<g id="a_Node000001"><a xlink:title=" ">
<polygon fill="#999999" stroke="#666666" points="338.23,-330.25 183.48,-330.25 183.48,-288.5 338.23,-288.5 338.23,-330.25"/>
<text text-anchor="start" x="191.48" y="-316.75" font-family="Helvetica,sans-Serif" font-size="10.00">/Users/hoff/Retro/virtualc64</text>
<text text-anchor="start" x="191.48" y="-305.5" font-family="Helvetica,sans-Serif" font-size="10.00">/Emulator/Components/Memory</text>
<text text-anchor="middle" x="260.85" y="-294.25" font-family="Helvetica,sans-Serif" font-size="10.00">/MemoryTypes.h</text>
</a>
</g>
</g>
<!-- Node2 -->
<g id="Node000002" class="node">
<title>Node2</title>
<g id="a_Node000002"><a xlink:href="_c64_memory_8h_source.html" target="_top" xlink:title=" ">
<polygon fill="white" stroke="#666666" points="171.23,-174.75 16.48,-174.75 16.48,-133 171.23,-133 171.23,-174.75"/>
<text text-anchor="start" x="24.48" y="-161.25" font-family="Helvetica,sans-Serif" font-size="10.00">/Users/hoff/Retro/virtualc64</text>
<text text-anchor="start" x="24.48" y="-150" font-family="Helvetica,sans-Serif" font-size="10.00">/Emulator/Components/Memory</text>
<text text-anchor="middle" x="93.85" y="-138.75" font-family="Helvetica,sans-Serif" font-size="10.00">/C64Memory.h</text>
</a>
</g>
</g>
<!-- Node1&#45;&gt;Node2 -->
<g id="edge1_Node000001_Node000002" class="edge">
<title>Node1&#45;&gt;Node2</title>
<g id="a_edge1_Node000001_Node000002"><a xlink:title=" ">
<path fill="none" stroke="#63b8ff" d="M171.6,-300.39C107.28,-292.58 28.35,-278.02 7.85,-252.5 -3.77,-238.03 -1,-227.06 7.85,-210.75 16.09,-195.57 30.43,-183.87 45.07,-175.2"/>
<polygon fill="#63b8ff" stroke="#63b8ff" points="171.17,-303.87 181.51,-301.55 171.99,-296.91 171.17,-303.87"/>
</a>
</g>
</g>
<!-- Node5 -->
<g id="Node000005" class="node">
<title>Node5</title>
<g id="a_Node000005"><a xlink:href="_heatmap_8h_source.html" target="_top" xlink:title=" ">
<polygon fill="white" stroke="#666666" points="171.23,-252.5 16.48,-252.5 16.48,-210.75 171.23,-210.75 171.23,-252.5"/>
<text text-anchor="start" x="24.48" y="-239" font-family="Helvetica,sans-Serif" font-size="10.00">/Users/hoff/Retro/virtualc64</text>
<text text-anchor="start" x="24.48" y="-227.75" font-family="Helvetica,sans-Serif" font-size="10.00">/Emulator/Components/Memory</text>
<text text-anchor="middle" x="93.85" y="-216.5" font-family="Helvetica,sans-Serif" font-size="10.00">/Heatmap.h</text>
</a>
</g>
</g>
<!-- Node1&#45;&gt;Node5 -->
<g id="edge4_Node000001_Node000005" class="edge">
<title>Node1&#45;&gt;Node5</title>
<g id="a_edge4_Node000001_Node000005"><a xlink:title=" ">
<path fill="none" stroke="#63b8ff" d="M205.69,-283.36C183.97,-273.5 159.33,-262.33 138.73,-252.98"/>
<polygon fill="#63b8ff" stroke="#63b8ff" points="204.17,-286.51 214.72,-287.45 207.06,-280.13 204.17,-286.51"/>
</a>
</g>
</g>
<!-- Node6 -->
<g id="Node000006" class="node">
<title>Node6</title>
<g id="a_Node000006"><a xlink:href="_v_i_c_i_i_8h_source.html" target="_top" xlink:title=" ">
<polygon fill="white" stroke="#666666" points="332.23,-252.5 189.48,-252.5 189.48,-210.75 332.23,-210.75 332.23,-252.5"/>
<text text-anchor="start" x="197.48" y="-239" font-family="Helvetica,sans-Serif" font-size="10.00">/Users/hoff/Retro/virtualc64</text>
<text text-anchor="start" x="197.48" y="-227.75" font-family="Helvetica,sans-Serif" font-size="10.00">/Emulator/Components/VICII</text>
<text text-anchor="middle" x="260.85" y="-216.5" font-family="Helvetica,sans-Serif" font-size="10.00">/VICII.h</text>
</a>
</g>
</g>
<!-- Node1&#45;&gt;Node6 -->
<g id="edge6_Node000001_Node000006" class="edge">
<title>Node1&#45;&gt;Node6</title>
<g id="a_edge6_Node000001_Node000006"><a xlink:title=" ">
<path fill="none" stroke="#63b8ff" d="M260.85,-276.75C260.85,-268.71 260.85,-260.29 260.85,-252.98"/>
<polygon fill="#63b8ff" stroke="#63b8ff" points="257.35,-276.56 260.85,-286.56 264.35,-276.56 257.35,-276.56"/>
</a>
</g>
</g>
<!-- Node7 -->
<g id="Node000007" class="node">
<title>Node7</title>
<g id="a_Node000007"><a xlink:href="_rom_file_8h_source.html" target="_top" xlink:title=" ">
<polygon fill="white" stroke="#666666" points="411.23,-169.12 274.48,-169.12 274.48,-138.62 411.23,-138.62 411.23,-169.12"/>
<text text-anchor="start" x="282.48" y="-155.62" font-family="Helvetica,sans-Serif" font-size="10.00">/Users/hoff/Retro/virtualc64</text>
<text text-anchor="middle" x="342.85" y="-144.38" font-family="Helvetica,sans-Serif" font-size="10.00">/Emulator/Media/RomFile.h</text>
</a>
</g>
</g>
<!-- Node1&#45;&gt;Node7 -->
<g id="edge8_Node000001_Node000007" class="edge">
<title>Node1&#45;&gt;Node7</title>
<g id="a_edge8_Node000001_Node000007"><a xlink:title=" ">
<path fill="none" stroke="#63b8ff" d="M314.33,-281.6C324.93,-273.73 334.67,-264.06 340.85,-252.5 354.99,-226.04 350.53,-189.5 346.44,-169.47"/>
<polygon fill="#63b8ff" stroke="#63b8ff" points="312.41,-278.68 306.12,-287.21 316.35,-284.46 312.41,-278.68"/>
</a>
</g>
</g>
<!-- Node8 -->
<g id="Node000008" class="node">
<title>Node8</title>
<g id="a_Node000008"><a xlink:href="_virtual_c64_types_8h.html" target="_top" xlink:title=" ">
<polygon fill="white" stroke="#666666" points="555.48,-246.88 414.23,-246.88 414.23,-216.38 555.48,-216.38 555.48,-246.88"/>
<text text-anchor="start" x="422.23" y="-233.38" font-family="Helvetica,sans-Serif" font-size="10.00">/Users/hoff/Retro/virtualc64</text>
<text text-anchor="middle" x="484.85" y="-222.12" font-family="Helvetica,sans-Serif" font-size="10.00">/Emulator/VirtualC64Types.h</text>
</a>
</g>
</g>
<!-- Node1&#45;&gt;Node8 -->
<g id="edge10_Node000001_Node000008" class="edge">
<title>Node1&#45;&gt;Node8</title>
<g id="a_edge10_Node000001_Node000008"><a xlink:title=" ">
<path fill="none" stroke="#63b8ff" d="M331.34,-284.54C367.4,-272.34 410.14,-257.89 441.36,-247.33"/>
<polygon fill="#63b8ff" stroke="#63b8ff" points="330.66,-281.07 322.31,-287.59 332.91,-287.7 330.66,-281.07"/>
</a>
</g>
</g>
<!-- Node3 -->
<g id="Node000003" class="node">
<title>Node3</title>
<g id="a_Node000003"><a xlink:href="_c64_8h_source.html" target="_top" xlink:title=" ">
<polygon fill="white" stroke="#666666" points="319.73,-97 173.98,-97 173.98,-66.5 319.73,-66.5 319.73,-97"/>
<text text-anchor="start" x="181.98" y="-83.5" font-family="Helvetica,sans-Serif" font-size="10.00">/Users/hoff/Retro/virtualc64</text>
<text text-anchor="middle" x="246.85" y="-72.25" font-family="Helvetica,sans-Serif" font-size="10.00">/Emulator/Components/C64.h</text>
</a>
</g>
</g>
<!-- Node2&#45;&gt;Node3 -->
<g id="edge2_Node000002_Node000003" class="edge">
<title>Node2&#45;&gt;Node3</title>
<g id="a_edge2_Node000002_Node000003"><a xlink:title=" ">
<path fill="none" stroke="#63b8ff" d="M148.44,-127.86C170.69,-117.66 195.63,-106.22 214.84,-97.42"/>
<polygon fill="#63b8ff" stroke="#63b8ff" points="147.11,-124.61 139.48,-131.96 150.03,-130.98 147.11,-124.61"/>
</a>
</g>
</g>
<!-- Node4 -->
<g id="Node000004" class="node">
<title>Node4</title>
<g id="a_Node000004"><a xlink:href="_emulator_8h_source.html" target="_top" xlink:title=" ">
<polygon fill="white" stroke="#666666" points="329.85,-30.5 163.85,-30.5 163.85,0 329.85,0 329.85,-30.5"/>
<text text-anchor="start" x="171.85" y="-17" font-family="Helvetica,sans-Serif" font-size="10.00">/Users/hoff/Retro/virtualc64</text>
<text text-anchor="middle" x="246.85" y="-5.75" font-family="Helvetica,sans-Serif" font-size="10.00">/Emulator/Components/Emulator.h</text>
</a>
</g>
</g>
<!-- Node3&#45;&gt;Node4 -->
<g id="edge3_Node000003_Node000004" class="edge">
<title>Node3&#45;&gt;Node4</title>
<g id="a_edge3_Node000003_Node000004"><a xlink:title=" ">
<path fill="none" stroke="#63b8ff" d="M246.85,-54.81C246.85,-46.64 246.85,-37.91 246.85,-30.83"/>
<polygon fill="#63b8ff" stroke="#63b8ff" points="243.35,-54.6 246.85,-64.6 250.35,-54.6 243.35,-54.6"/>
</a>
</g>
</g>
<!-- Node5&#45;&gt;Node2 -->
<g id="edge5_Node000005_Node000002" class="edge">
<title>Node5&#45;&gt;Node2</title>
<g id="a_edge5_Node000005_Node000002"><a xlink:title=" ">
<path fill="none" stroke="#63b8ff" d="M93.85,-199C93.85,-190.96 93.85,-182.54 93.85,-175.23"/>
<polygon fill="#63b8ff" stroke="#63b8ff" points="90.35,-198.81 93.85,-208.81 97.35,-198.81 90.35,-198.81"/>
</a>
</g>
</g>
<!-- Node6&#45;&gt;Node3 -->
<g id="edge7_Node000006_Node000003" class="edge">
<title>Node6&#45;&gt;Node3</title>
<g id="a_edge7_Node000006_Node000003"><a xlink:title=" ">
<path fill="none" stroke="#63b8ff" d="M257.87,-199.19C254.9,-167.81 250.47,-120.98 248.24,-97.41"/>
<polygon fill="#63b8ff" stroke="#63b8ff" points="254.36,-199.24 258.79,-208.87 261.33,-198.58 254.36,-199.24"/>
</a>
</g>
</g>
<!-- Node7&#45;&gt;Node3 -->
<g id="edge9_Node000007_Node000003" class="edge">
<title>Node7&#45;&gt;Node3</title>
<g id="a_edge9_Node000007_Node000003"><a xlink:title=" ">
<path fill="none" stroke="#63b8ff" d="M313.93,-131.75C298.68,-120.61 280.35,-107.22 266.72,-97.26"/>
<polygon fill="#63b8ff" stroke="#63b8ff" points="311.6,-134.38 321.74,-137.45 315.73,-128.73 311.6,-134.38"/>
</a>
</g>
</g>
<!-- Node9 -->
<g id="Node000009" class="node">
<title>Node9</title>
<g id="a_Node000009"><a xlink:href="_virtual_c64_8h.html" target="_top" xlink:title=" ">
<polygon fill="white" stroke="#666666" points="566.23,-169.12 429.48,-169.12 429.48,-138.62 566.23,-138.62 566.23,-169.12"/>
<text text-anchor="start" x="437.48" y="-155.62" font-family="Helvetica,sans-Serif" font-size="10.00">/Users/hoff/Retro/virtualc64</text>
<text text-anchor="middle" x="497.85" y="-144.38" font-family="Helvetica,sans-Serif" font-size="10.00">/Emulator/VirtualC64.h</text>
</a>
</g>
</g>
<!-- Node8&#45;&gt;Node9 -->
<g id="edge11_Node000008_Node000009" class="edge">
<title>Node8&#45;&gt;Node9</title>
<g id="a_edge11_Node000008_Node000009"><a xlink:title=" ">
<path fill="none" stroke="#63b8ff" d="M489.25,-204.97C491.29,-193.12 493.63,-179.49 495.35,-169.44"/>
<polygon fill="#63b8ff" stroke="#63b8ff" points="485.85,-204.08 487.61,-214.53 492.75,-205.26 485.85,-204.08"/>
</a>
</g>
</g>
<!-- Node10 -->
<g id="Node000010" class="node">
<title>Node10</title>
<g id="a_Node000010"><a xlink:href="_headless_8h_source.html" target="_top" xlink:title=" ">
<polygon fill="white" stroke="#666666" points="566.23,-97 429.48,-97 429.48,-66.5 566.23,-66.5 566.23,-97"/>
<text text-anchor="start" x="437.48" y="-83.5" font-family="Helvetica,sans-Serif" font-size="10.00">/Users/hoff/Retro/virtualc64</text>
<text text-anchor="middle" x="497.85" y="-72.25" font-family="Helvetica,sans-Serif" font-size="10.00">/Emulator/Headless.h</text>
</a>
</g>
</g>
<!-- Node9&#45;&gt;Node10 -->
<g id="edge12_Node000009_Node000010" class="edge">
<title>Node9&#45;&gt;Node10</title>
<g id="a_edge12_Node000009_Node000010"><a xlink:title=" ">
<path fill="none" stroke="#63b8ff" d="M497.85,-126.9C497.85,-116.89 497.85,-105.81 497.85,-97.26"/>
<polygon fill="#63b8ff" stroke="#63b8ff" points="494.35,-126.83 497.85,-136.83 501.35,-126.83 494.35,-126.83"/>
</a>
</g>
</g>
<!-- Node11 -->
<g id="Node000011" class="node">
<title>Node11</title>
<g id="a_Node000011"><a xlink:href="_headless_8cpp.html" target="_top" xlink:title=" ">
<polygon fill="white" stroke="#666666" points="566.23,-30.5 429.48,-30.5 429.48,0 566.23,0 566.23,-30.5"/>
<text text-anchor="start" x="437.48" y="-17" font-family="Helvetica,sans-Serif" font-size="10.00">/Users/hoff/Retro/virtualc64</text>
<text text-anchor="middle" x="497.85" y="-5.75" font-family="Helvetica,sans-Serif" font-size="10.00">/Emulator/Headless.cpp</text>
</a>
</g>
</g>
<!-- Node10&#45;&gt;Node11 -->
<g id="edge13_Node000010_Node000011" class="edge">
<title>Node10&#45;&gt;Node11</title>
<g id="a_edge13_Node000010_Node000011"><a xlink:title=" ">
<path fill="none" stroke="#63b8ff" d="M497.85,-54.81C497.85,-46.64 497.85,-37.91 497.85,-30.83"/>
<polygon fill="#63b8ff" stroke="#63b8ff" points="494.35,-54.6 497.85,-64.6 501.35,-54.6 494.35,-54.6"/>
</a>
</g>
</g>
</g>
</svg>
