<?xml version="1.0" encoding="UTF-8" standalone="no"?>
<!DOCTYPE svg PUBLIC "-//W3C//DTD SVG 1.1//EN"
 "http://www.w3.org/Graphics/SVG/1.1/DTD/svg11.dtd">
<!-- Generated by graphviz version 10.0.1 (20240210.2158)
 -->
<!-- Title: /Users/hoff/Retro/virtualc64/Emulator/Components/Memory/MemoryTypes.h Pages: 1 -->
<svg width="422pt" height="460pt"
 viewBox="0.00 0.00 422.00 460.00" xmlns="http://www.w3.org/2000/svg" xmlns:xlink="http://www.w3.org/1999/xlink">
<g id="graph0" class="graph" transform="scale(1 1) rotate(0) translate(4 456)">
<title>/Users/hoff/Retro/virtualc64/Emulator/Components/Memory/MemoryTypes.h</title>
<!-- Node1 -->
<g id="Node000001" class="node">
<title>Node1</title>
<g id="a_Node000001"><a xlink:title=" ">
<polygon fill="#999999" stroke="#666666" points="321.75,-452 167,-452 167,-410.25 321.75,-410.25 321.75,-452"/>
<text text-anchor="start" x="175" y="-438.5" font-family="Helvetica,sans-Serif" font-size="10.00">/Users/hoff/Retro/virtualc64</text>
<text text-anchor="start" x="175" y="-427.25" font-family="Helvetica,sans-Serif" font-size="10.00">/Emulator/Components/Memory</text>
<text text-anchor="middle" x="244.38" y="-416" font-family="Helvetica,sans-Serif" font-size="10.00">/MemoryTypes.h</text>
</a>
</g>
</g>
<!-- Node2 -->
<g id="Node000002" class="node">
<title>Node2</title>
<g id="a_Node000002"><a xlink:href="_c64_memory_8h_source.html" target="_top" xlink:title=" ">
<polygon fill="white" stroke="#666666" points="154.75,-374.25 0,-374.25 0,-332.5 154.75,-332.5 154.75,-374.25"/>
<text text-anchor="start" x="8" y="-360.75" font-family="Helvetica,sans-Serif" font-size="10.00">/Users/hoff/Retro/virtualc64</text>
<text text-anchor="start" x="8" y="-349.5" font-family="Helvetica,sans-Serif" font-size="10.00">/Emulator/Components/Memory</text>
<text text-anchor="middle" x="77.38" y="-338.25" font-family="Helvetica,sans-Serif" font-size="10.00">/C64Memory.h</text>
</a>
</g>
</g>
<!-- Node1&#45;&gt;Node2 -->
<g id="edge1_Node000001_Node000002" class="edge">
<title>Node1&#45;&gt;Node2</title>
<g id="a_edge1_Node000001_Node000002"><a xlink:title=" ">
<path fill="none" stroke="#63b8ff" d="M189.22,-405.11C167.49,-395.25 142.86,-384.08 122.25,-374.73"/>
<polygon fill="#63b8ff" stroke="#63b8ff" points="187.69,-408.26 198.24,-409.2 190.58,-401.88 187.69,-408.26"/>
</a>
</g>
</g>
<!-- Node8 -->
<g id="Node000008" class="node">
<title>Node8</title>
<g id="a_Node000008"><a xlink:href="_v_i_c_i_i_8h_source.html" target="_top" xlink:title=" ">
<polygon fill="white" stroke="#666666" points="315.75,-374.25 173,-374.25 173,-332.5 315.75,-332.5 315.75,-374.25"/>
<text text-anchor="start" x="181" y="-360.75" font-family="Helvetica,sans-Serif" font-size="10.00">/Users/hoff/Retro/virtualc64</text>
<text text-anchor="start" x="181" y="-349.5" font-family="Helvetica,sans-Serif" font-size="10.00">/Emulator/Components/VICII</text>
<text text-anchor="middle" x="244.38" y="-338.25" font-family="Helvetica,sans-Serif" font-size="10.00">/VICII.h</text>
</a>
</g>
</g>
<!-- Node1&#45;&gt;Node8 -->
<g id="edge7_Node000001_Node000008" class="edge">
<title>Node1&#45;&gt;Node8</title>
<g id="a_edge7_Node000001_Node000008"><a xlink:title=" ">
<path fill="none" stroke="#63b8ff" d="M244.38,-398.5C244.38,-390.46 244.38,-382.04 244.38,-374.73"/>
<polygon fill="#63b8ff" stroke="#63b8ff" points="240.88,-398.31 244.38,-408.31 247.88,-398.31 240.88,-398.31"/>
</a>
</g>
</g>
<!-- Node9 -->
<g id="Node000009" class="node">
<title>Node9</title>
<g id="a_Node000009"><a xlink:href="_virtual_c64_types_8h.html" target="_top" xlink:title=" ">
<polygon fill="white" stroke="#666666" points="414,-296.5 272.75,-296.5 272.75,-266 414,-266 414,-296.5"/>
<text text-anchor="start" x="280.75" y="-283" font-family="Helvetica,sans-Serif" font-size="10.00">/Users/hoff/Retro/virtualc64</text>
<text text-anchor="middle" x="343.38" y="-271.75" font-family="Helvetica,sans-Serif" font-size="10.00">/Emulator/VirtualC64Types.h</text>
</a>
</g>
</g>
<!-- Node1&#45;&gt;Node9 -->
<g id="edge9_Node000001_Node000009" class="edge">
<title>Node1&#45;&gt;Node9</title>
<g id="a_edge9_Node000001_Node000009"><a xlink:title=" ">
<path fill="none" stroke="#63b8ff" d="M294.73,-403.63C305.98,-395.57 316.8,-385.75 324.38,-374.25 340.07,-350.41 343.19,-316.17 343.59,-296.89"/>
<polygon fill="#63b8ff" stroke="#63b8ff" points="292.86,-400.67 286.5,-409.14 296.76,-406.49 292.86,-400.67"/>
</a>
</g>
</g>
<!-- Node3 -->
<g id="Node000003" class="node">
<title>Node3</title>
<g id="a_Node000003"><a xlink:href="_c64_8h_source.html" target="_top" xlink:title=" ">
<polygon fill="white" stroke="#666666" points="254.25,-296.5 108.5,-296.5 108.5,-266 254.25,-266 254.25,-296.5"/>
<text text-anchor="start" x="116.5" y="-283" font-family="Helvetica,sans-Serif" font-size="10.00">/Users/hoff/Retro/virtualc64</text>
<text text-anchor="middle" x="181.38" y="-271.75" font-family="Helvetica,sans-Serif" font-size="10.00">/Emulator/Components/C64.h</text>
</a>
</g>
</g>
<!-- Node2&#45;&gt;Node3 -->
<g id="edge2_Node000002_Node000003" class="edge">
<title>Node2&#45;&gt;Node3</title>
<g id="a_edge2_Node000002_Node000003"><a xlink:title=" ">
<path fill="none" stroke="#63b8ff" d="M116.75,-325.82C131.28,-316.03 147.21,-305.29 159.62,-296.92"/>
<polygon fill="#63b8ff" stroke="#63b8ff" points="115.05,-322.75 108.71,-331.25 118.96,-328.56 115.05,-322.75"/>
</a>
</g>
</g>
<!-- Node4 -->
<g id="Node000004" class="node">
<title>Node4</title>
<g id="a_Node000004"><a xlink:href="_emulator_8h_source.html" target="_top" xlink:title=" ">
<polygon fill="white" stroke="#666666" points="289.38,-230 123.38,-230 123.38,-199.5 289.38,-199.5 289.38,-230"/>
<text text-anchor="start" x="131.38" y="-216.5" font-family="Helvetica,sans-Serif" font-size="10.00">/Users/hoff/Retro/virtualc64</text>
<text text-anchor="middle" x="206.38" y="-205.25" font-family="Helvetica,sans-Serif" font-size="10.00">/Emulator/Components/Emulator.h</text>
</a>
</g>
</g>
<!-- Node3&#45;&gt;Node4 -->
<g id="edge3_Node000003_Node000004" class="edge">
<title>Node3&#45;&gt;Node4</title>
<g id="a_edge3_Node000003_Node000004"><a xlink:title=" ">
<path fill="none" stroke="#63b8ff" d="M191.1,-255.16C194.36,-246.75 197.88,-237.66 200.72,-230.33"/>
<polygon fill="#63b8ff" stroke="#63b8ff" points="187.95,-253.61 187.59,-264.2 194.47,-256.14 187.95,-253.61"/>
</a>
</g>
</g>
<!-- Node5 -->
<g id="Node000005" class="node">
<title>Node5</title>
<g id="a_Node000005"><a xlink:href="_virtual_c64_8h.html" target="_top" xlink:title=" ">
<polygon fill="white" stroke="#666666" points="329.75,-163.5 193,-163.5 193,-133 329.75,-133 329.75,-163.5"/>
<text text-anchor="start" x="201" y="-150" font-family="Helvetica,sans-Serif" font-size="10.00">/Users/hoff/Retro/virtualc64</text>
<text text-anchor="middle" x="261.38" y="-138.75" font-family="Helvetica,sans-Serif" font-size="10.00">/Emulator/VirtualC64.h</text>
</a>
</g>
</g>
<!-- Node4&#45;&gt;Node5 -->
<g id="edge4_Node000004_Node000005" class="edge">
<title>Node4&#45;&gt;Node5</title>
<g id="a_edge4_Node000004_Node000005"><a xlink:title=" ">
<path fill="none" stroke="#63b8ff" d="M226.09,-190.63C233.71,-181.69 242.2,-171.74 248.94,-163.83"/>
<polygon fill="#63b8ff" stroke="#63b8ff" points="223.66,-188.08 219.84,-197.96 228.99,-192.62 223.66,-188.08"/>
</a>
</g>
</g>
<!-- Node6 -->
<g id="Node000006" class="node">
<title>Node6</title>
<g id="a_Node000006"><a xlink:href="_headless_8h_source.html" target="_top" xlink:title=" ">
<polygon fill="white" stroke="#666666" points="329.75,-97 193,-97 193,-66.5 329.75,-66.5 329.75,-97"/>
<text text-anchor="start" x="201" y="-83.5" font-family="Helvetica,sans-Serif" font-size="10.00">/Users/hoff/Retro/virtualc64</text>
<text text-anchor="middle" x="261.38" y="-72.25" font-family="Helvetica,sans-Serif" font-size="10.00">/Emulator/Headless.h</text>
</a>
</g>
</g>
<!-- Node5&#45;&gt;Node6 -->
<g id="edge5_Node000005_Node000006" class="edge">
<title>Node5&#45;&gt;Node6</title>
<g id="a_edge5_Node000005_Node000006"><a xlink:title=" ">
<path fill="none" stroke="#63b8ff" d="M261.38,-121.31C261.38,-113.14 261.38,-104.41 261.38,-97.33"/>
<polygon fill="#63b8ff" stroke="#63b8ff" points="257.88,-121.1 261.38,-131.1 264.88,-121.1 257.88,-121.1"/>
</a>
</g>
</g>
<!-- Node7 -->
<g id="Node000007" class="node">
<title>Node7</title>
<g id="a_Node000007"><a xlink:href="_headless_8cpp.html" target="_top" xlink:title=" ">
<polygon fill="white" stroke="#666666" points="329.75,-30.5 193,-30.5 193,0 329.75,0 329.75,-30.5"/>
<text text-anchor="start" x="201" y="-17" font-family="Helvetica,sans-Serif" font-size="10.00">/Users/hoff/Retro/virtualc64</text>
<text text-anchor="middle" x="261.38" y="-5.75" font-family="Helvetica,sans-Serif" font-size="10.00">/Emulator/Headless.cpp</text>
</a>
</g>
</g>
<!-- Node6&#45;&gt;Node7 -->
<g id="edge6_Node000006_Node000007" class="edge">
<title>Node6&#45;&gt;Node7</title>
<g id="a_edge6_Node000006_Node000007"><a xlink:title=" ">
<path fill="none" stroke="#63b8ff" d="M261.38,-54.81C261.38,-46.64 261.38,-37.91 261.38,-30.83"/>
<polygon fill="#63b8ff" stroke="#63b8ff" points="257.88,-54.6 261.38,-64.6 264.88,-54.6 257.88,-54.6"/>
</a>
</g>
</g>
<!-- Node8&#45;&gt;Node3 -->
<g id="edge8_Node000008_Node000003" class="edge">
<title>Node8&#45;&gt;Node3</title>
<g id="a_edge8_Node000008_Node000003"><a xlink:title=" ">
<path fill="none" stroke="#63b8ff" d="M218.7,-323.79C210.33,-314.48 201.39,-304.53 194.36,-296.7"/>
<polygon fill="#63b8ff" stroke="#63b8ff" points="215.85,-325.87 225.14,-330.97 221.06,-321.19 215.85,-325.87"/>
</a>
</g>
</g>
<!-- Node9&#45;&gt;Node5 -->
<g id="edge10_Node000009_Node000005" class="edge">
<title>Node9&#45;&gt;Node5</title>
<g id="a_edge10_Node000009_Node000005"><a xlink:title=" ">
<path fill="none" stroke="#63b8ff" d="M330.8,-255.82C322.17,-239.55 310.2,-217.88 298.38,-199.5 290.4,-187.11 280.46,-173.7 272.89,-163.85"/>
<polygon fill="#63b8ff" stroke="#63b8ff" points="327.5,-257.06 335.24,-264.29 333.7,-253.81 327.5,-257.06"/>
</a>
</g>
</g>
</g>
</svg>
