<?xml version="1.0" encoding="UTF-8" standalone="no"?>
<!DOCTYPE svg PUBLIC "-//W3C//DTD SVG 1.1//EN"
 "http://www.w3.org/Graphics/SVG/1.1/DTD/svg11.dtd">
<!-- Generated by graphviz version 10.0.1 (20240210.2158)
 -->
<!-- Title: /Users/hoff/Retro/virtualc64/Emulator/Peripherals/Monitor/MonitorTypes.h Pages: 1 -->
<svg width="473pt" height="327pt"
 viewBox="0.00 0.00 473.00 327.00" xmlns="http://www.w3.org/2000/svg" xmlns:xlink="http://www.w3.org/1999/xlink">
<g id="graph0" class="graph" transform="scale(1 1) rotate(0) translate(4 323)">
<title>/Users/hoff/Retro/virtualc64/Emulator/Peripherals/Monitor/MonitorTypes.h</title>
<!-- Node1 -->
<g id="Node000001" class="node">
<title>Node1</title>
<g id="a_Node000001"><a xlink:title=" ">
<polygon fill="#999999" stroke="#666666" points="305.88,-319 160.88,-319 160.88,-277.25 305.88,-277.25 305.88,-319"/>
<text text-anchor="start" x="168.88" y="-305.5" font-family="Helvetica,sans-Serif" font-size="10.00">/Users/hoff/Retro/virtualc64</text>
<text text-anchor="start" x="168.88" y="-294.25" font-family="Helvetica,sans-Serif" font-size="10.00">/Emulator/Peripherals/Monitor</text>
<text text-anchor="middle" x="233.38" y="-283" font-family="Helvetica,sans-Serif" font-size="10.00">/MonitorTypes.h</text>
</a>
</g>
</g>
<!-- Node2 -->
<g id="Node000002" class="node">
<title>Node2</title>
<g id="a_Node000002"><a xlink:href="_v_i_c_i_i_8h_source.html" target="_top" xlink:title=" ">
<polygon fill="white" stroke="#666666" points="142.75,-241.25 0,-241.25 0,-199.5 142.75,-199.5 142.75,-241.25"/>
<text text-anchor="start" x="8" y="-227.75" font-family="Helvetica,sans-Serif" font-size="10.00">/Users/hoff/Retro/virtualc64</text>
<text text-anchor="start" x="8" y="-216.5" font-family="Helvetica,sans-Serif" font-size="10.00">/Emulator/Components/VICII</text>
<text text-anchor="middle" x="71.38" y="-205.25" font-family="Helvetica,sans-Serif" font-size="10.00">/VICII.h</text>
</a>
</g>
</g>
<!-- Node1&#45;&gt;Node2 -->
<g id="edge1_Node000001_Node000002" class="edge">
<title>Node1&#45;&gt;Node2</title>
<g id="a_edge1_Node000001_Node000002"><a xlink:title=" ">
<path fill="none" stroke="#63b8ff" d="M179.58,-271.97C158.58,-262.15 134.81,-251.04 114.91,-241.73"/>
<polygon fill="#63b8ff" stroke="#63b8ff" points="178.05,-275.12 188.59,-276.18 181.01,-268.78 178.05,-275.12"/>
</a>
</g>
</g>
<!-- Node5 -->
<g id="Node000005" class="node">
<title>Node5</title>
<g id="a_Node000005"><a xlink:href="_monitor_8h_source.html" target="_top" xlink:title=" ">
<polygon fill="white" stroke="#666666" points="305.88,-241.25 160.88,-241.25 160.88,-199.5 305.88,-199.5 305.88,-241.25"/>
<text text-anchor="start" x="168.88" y="-227.75" font-family="Helvetica,sans-Serif" font-size="10.00">/Users/hoff/Retro/virtualc64</text>
<text text-anchor="start" x="168.88" y="-216.5" font-family="Helvetica,sans-Serif" font-size="10.00">/Emulator/Peripherals/Monitor</text>
<text text-anchor="middle" x="233.38" y="-205.25" font-family="Helvetica,sans-Serif" font-size="10.00">/Monitor.h</text>
</a>
</g>
</g>
<!-- Node1&#45;&gt;Node5 -->
<g id="edge4_Node000001_Node000005" class="edge">
<title>Node1&#45;&gt;Node5</title>
<g id="a_edge4_Node000001_Node000005"><a xlink:title=" ">
<path fill="none" stroke="#63b8ff" d="M233.38,-265.5C233.38,-257.46 233.38,-249.04 233.38,-241.73"/>
<polygon fill="#63b8ff" stroke="#63b8ff" points="229.88,-265.31 233.38,-275.31 236.88,-265.31 229.88,-265.31"/>
</a>
</g>
</g>
<!-- Node6 -->
<g id="Node000006" class="node">
<title>Node6</title>
<g id="a_Node000006"><a xlink:href="_virtual_c64_types_8h.html" target="_top" xlink:title=" ">
<polygon fill="white" stroke="#666666" points="465,-235.62 323.75,-235.62 323.75,-205.12 465,-205.12 465,-235.62"/>
<text text-anchor="start" x="331.75" y="-222.12" font-family="Helvetica,sans-Serif" font-size="10.00">/Users/hoff/Retro/virtualc64</text>
<text text-anchor="middle" x="394.38" y="-210.88" font-family="Helvetica,sans-Serif" font-size="10.00">/Emulator/VirtualC64Types.h</text>
</a>
</g>
</g>
<!-- Node1&#45;&gt;Node6 -->
<g id="edge6_Node000001_Node000006" class="edge">
<title>Node1&#45;&gt;Node6</title>
<g id="a_edge6_Node000001_Node000006"><a xlink:title=" ">
<path fill="none" stroke="#63b8ff" d="M286.73,-272.02C312.06,-260.11 341.45,-246.28 363.11,-236.08"/>
<polygon fill="#63b8ff" stroke="#63b8ff" points="285.45,-268.76 277.89,-276.18 288.43,-275.09 285.45,-268.76"/>
</a>
</g>
</g>
<!-- Node3 -->
<g id="Node000003" class="node">
<title>Node3</title>
<g id="a_Node000003"><a xlink:href="_c64_8h_source.html" target="_top" xlink:title=" ">
<polygon fill="white" stroke="#666666" points="221.25,-163.5 75.5,-163.5 75.5,-133 221.25,-133 221.25,-163.5"/>
<text text-anchor="start" x="83.5" y="-150" font-family="Helvetica,sans-Serif" font-size="10.00">/Users/hoff/Retro/virtualc64</text>
<text text-anchor="middle" x="148.38" y="-138.75" font-family="Helvetica,sans-Serif" font-size="10.00">/Emulator/Components/C64.h</text>
</a>
</g>
</g>
<!-- Node2&#45;&gt;Node3 -->
<g id="edge2_Node000002_Node000003" class="edge">
<title>Node2&#45;&gt;Node3</title>
<g id="a_edge2_Node000002_Node000003"><a xlink:title=" ">
<path fill="none" stroke="#63b8ff" d="M102.13,-191.36C112.54,-181.88 123.74,-171.69 132.51,-163.7"/>
<polygon fill="#63b8ff" stroke="#63b8ff" points="99.8,-188.75 94.77,-198.07 104.52,-193.93 99.8,-188.75"/>
</a>
</g>
</g>
<!-- Node4 -->
<g id="Node000004" class="node">
<title>Node4</title>
<g id="a_Node000004"><a xlink:href="_emulator_8h_source.html" target="_top" xlink:title=" ">
<polygon fill="white" stroke="#666666" points="231.38,-97 65.38,-97 65.38,-66.5 231.38,-66.5 231.38,-97"/>
<text text-anchor="start" x="73.38" y="-83.5" font-family="Helvetica,sans-Serif" font-size="10.00">/Users/hoff/Retro/virtualc64</text>
<text text-anchor="middle" x="148.38" y="-72.25" font-family="Helvetica,sans-Serif" font-size="10.00">/Emulator/Components/Emulator.h</text>
</a>
</g>
</g>
<!-- Node3&#45;&gt;Node4 -->
<g id="edge3_Node000003_Node000004" class="edge">
<title>Node3&#45;&gt;Node4</title>
<g id="a_edge3_Node000003_Node000004"><a xlink:title=" ">
<path fill="none" stroke="#63b8ff" d="M148.38,-121.31C148.38,-113.14 148.38,-104.41 148.38,-97.33"/>
<polygon fill="#63b8ff" stroke="#63b8ff" points="144.88,-121.1 148.38,-131.1 151.88,-121.1 144.88,-121.1"/>
</a>
</g>
</g>
<!-- Node5&#45;&gt;Node3 -->
<g id="edge5_Node000005_Node000003" class="edge">
<title>Node5&#45;&gt;Node3</title>
<g id="a_edge5_Node000005_Node000003"><a xlink:title=" ">
<path fill="none" stroke="#63b8ff" d="M200.17,-191.98C188.58,-182.42 176.01,-172.05 166.16,-163.92"/>
<polygon fill="#63b8ff" stroke="#63b8ff" points="197.68,-194.46 207.62,-198.13 202.14,-189.07 197.68,-194.46"/>
</a>
</g>
</g>
<!-- Node7 -->
<g id="Node000007" class="node">
<title>Node7</title>
<g id="a_Node000007"><a xlink:href="_virtual_c64_8h.html" target="_top" xlink:title=" ">
<polygon fill="white" stroke="#666666" points="462.75,-163.5 326,-163.5 326,-133 462.75,-133 462.75,-163.5"/>
<text text-anchor="start" x="334" y="-150" font-family="Helvetica,sans-Serif" font-size="10.00">/Users/hoff/Retro/virtualc64</text>
<text text-anchor="middle" x="394.38" y="-138.75" font-family="Helvetica,sans-Serif" font-size="10.00">/Emulator/VirtualC64.h</text>
</a>
</g>
</g>
<!-- Node6&#45;&gt;Node7 -->
<g id="edge7_Node000006_Node000007" class="edge">
<title>Node6&#45;&gt;Node7</title>
<g id="a_edge7_Node000006_Node000007"><a xlink:title=" ">
<path fill="none" stroke="#63b8ff" d="M394.38,-193.4C394.38,-183.39 394.38,-172.31 394.38,-163.76"/>
<polygon fill="#63b8ff" stroke="#63b8ff" points="390.88,-193.33 394.38,-203.33 397.88,-193.33 390.88,-193.33"/>
</a>
</g>
</g>
<!-- Node8 -->
<g id="Node000008" class="node">
<title>Node8</title>
<g id="a_Node000008"><a xlink:href="_headless_8h_source.html" target="_top" xlink:title=" ">
<polygon fill="white" stroke="#666666" points="462.75,-97 326,-97 326,-66.5 462.75,-66.5 462.75,-97"/>
<text text-anchor="start" x="334" y="-83.5" font-family="Helvetica,sans-Serif" font-size="10.00">/Users/hoff/Retro/virtualc64</text>
<text text-anchor="middle" x="394.38" y="-72.25" font-family="Helvetica,sans-Serif" font-size="10.00">/Emulator/Headless.h</text>
</a>
</g>
</g>
<!-- Node7&#45;&gt;Node8 -->
<g id="edge8_Node000007_Node000008" class="edge">
<title>Node7&#45;&gt;Node8</title>
<g id="a_edge8_Node000007_Node000008"><a xlink:title=" ">
<path fill="none" stroke="#63b8ff" d="M394.38,-121.31C394.38,-113.14 394.38,-104.41 394.38,-97.33"/>
<polygon fill="#63b8ff" stroke="#63b8ff" points="390.88,-121.1 394.38,-131.1 397.88,-121.1 390.88,-121.1"/>
</a>
</g>
</g>
<!-- Node9 -->
<g id="Node000009" class="node">
<title>Node9</title>
<g id="a_Node000009"><a xlink:href="_headless_8cpp.html" target="_top" xlink:title=" ">
<polygon fill="white" stroke="#666666" points="462.75,-30.5 326,-30.5 326,0 462.75,0 462.75,-30.5"/>
<text text-anchor="start" x="334" y="-17" font-family="Helvetica,sans-Serif" font-size="10.00">/Users/hoff/Retro/virtualc64</text>
<text text-anchor="middle" x="394.38" y="-5.75" font-family="Helvetica,sans-Serif" font-size="10.00">/Emulator/Headless.cpp</text>
</a>
</g>
</g>
<!-- Node8&#45;&gt;Node9 -->
<g id="edge9_Node000008_Node000009" class="edge">
<title>Node8&#45;&gt;Node9</title>
<g id="a_edge9_Node000008_Node000009"><a xlink:title=" ">
<path fill="none" stroke="#63b8ff" d="M394.38,-54.81C394.38,-46.64 394.38,-37.91 394.38,-30.83"/>
<polygon fill="#63b8ff" stroke="#63b8ff" points="390.88,-54.6 394.38,-64.6 397.88,-54.6 390.88,-54.6"/>
</a>
</g>
</g>
</g>
</svg>
