<?xml version="1.0" encoding="UTF-8" standalone="no"?>
<!DOCTYPE svg PUBLIC "-//W3C//DTD SVG 1.1//EN"
 "http://www.w3.org/Graphics/SVG/1.1/DTD/svg11.dtd">
<!-- Generated by graphviz version 10.0.1 (20240210.2158)
 -->
<!-- Title: /Users/hoff/Retro/virtualc64/Emulator/Peripherals/Mouse/MouseTypes.h Pages: 1 -->
<svg width="375pt" height="338pt"
 viewBox="0.00 0.00 374.62 338.25" xmlns="http://www.w3.org/2000/svg" xmlns:xlink="http://www.w3.org/1999/xlink">
<g id="graph0" class="graph" transform="scale(1 1) rotate(0) translate(4 334.25)">
<title>/Users/hoff/Retro/virtualc64/Emulator/Peripherals/Mouse/MouseTypes.h</title>
<!-- Node1 -->
<g id="Node000001" class="node">
<title>Node1</title>
<g id="a_Node000001"><a xlink:title=" ">
<polygon fill="#999999" stroke="#666666" points="287,-330.25 145,-330.25 145,-288.5 287,-288.5 287,-330.25"/>
<text text-anchor="start" x="153" y="-316.75" font-family="Helvetica,sans-Serif" font-size="10.00">/Users/hoff/Retro/virtualc64</text>
<text text-anchor="start" x="153" y="-305.5" font-family="Helvetica,sans-Serif" font-size="10.00">/Emulator/Peripherals/Mouse</text>
<text text-anchor="middle" x="216" y="-294.25" font-family="Helvetica,sans-Serif" font-size="10.00">/MouseTypes.h</text>
</a>
</g>
</g>
<!-- Node2 -->
<g id="Node000002" class="node">
<title>Node2</title>
<g id="a_Node000002"><a xlink:href="_mouse_8h_source.html" target="_top" xlink:title=" ">
<polygon fill="white" stroke="#666666" points="207,-252.5 65,-252.5 65,-210.75 207,-210.75 207,-252.5"/>
<text text-anchor="start" x="73" y="-239" font-family="Helvetica,sans-Serif" font-size="10.00">/Users/hoff/Retro/virtualc64</text>
<text text-anchor="start" x="73" y="-227.75" font-family="Helvetica,sans-Serif" font-size="10.00">/Emulator/Peripherals/Mouse</text>
<text text-anchor="middle" x="136" y="-216.5" font-family="Helvetica,sans-Serif" font-size="10.00">/Mouse.h</text>
</a>
</g>
</g>
<!-- Node1&#45;&gt;Node2 -->
<g id="edge1_Node000001_Node000002" class="edge">
<title>Node1&#45;&gt;Node2</title>
<g id="a_edge1_Node000001_Node000002"><a xlink:title=" ">
<path fill="none" stroke="#63b8ff" d="M186.42,-280.36C176.83,-271.28 166.38,-261.39 157.5,-252.98"/>
<polygon fill="#63b8ff" stroke="#63b8ff" points="183.79,-282.7 193.46,-287.03 188.61,-277.62 183.79,-282.7"/>
</a>
</g>
</g>
<!-- Node6 -->
<g id="Node000006" class="node">
<title>Node6</title>
<g id="a_Node000006"><a xlink:href="_virtual_c64_types_8h.html" target="_top" xlink:title=" ">
<polygon fill="white" stroke="#666666" points="366.62,-246.88 225.38,-246.88 225.38,-216.38 366.62,-216.38 366.62,-246.88"/>
<text text-anchor="start" x="233.38" y="-233.38" font-family="Helvetica,sans-Serif" font-size="10.00">/Users/hoff/Retro/virtualc64</text>
<text text-anchor="middle" x="296" y="-222.12" font-family="Helvetica,sans-Serif" font-size="10.00">/Emulator/VirtualC64Types.h</text>
</a>
</g>
</g>
<!-- Node1&#45;&gt;Node6 -->
<g id="edge6_Node000001_Node000006" class="edge">
<title>Node1&#45;&gt;Node6</title>
<g id="a_edge6_Node000001_Node000006"><a xlink:title=" ">
<path fill="none" stroke="#63b8ff" d="M245.77,-280.19C257.61,-268.98 270.73,-256.55 280.59,-247.21"/>
<polygon fill="#63b8ff" stroke="#63b8ff" points="243.39,-277.62 238.54,-287.03 248.21,-282.7 243.39,-277.62"/>
</a>
</g>
</g>
<!-- Node3 -->
<g id="Node000003" class="node">
<title>Node3</title>
<g id="a_Node000003"><a xlink:href="_c64_8h_source.html" target="_top" xlink:title=" ">
<polygon fill="white" stroke="#666666" points="155.88,-97 10.12,-97 10.12,-66.5 155.88,-66.5 155.88,-97"/>
<text text-anchor="start" x="18.12" y="-83.5" font-family="Helvetica,sans-Serif" font-size="10.00">/Users/hoff/Retro/virtualc64</text>
<text text-anchor="middle" x="83" y="-72.25" font-family="Helvetica,sans-Serif" font-size="10.00">/Emulator/Components/C64.h</text>
</a>
</g>
</g>
<!-- Node2&#45;&gt;Node3 -->
<g id="edge2_Node000002_Node000003" class="edge">
<title>Node2&#45;&gt;Node3</title>
<g id="a_edge2_Node000002_Node000003"><a xlink:title=" ">
<path fill="none" stroke="#63b8ff" d="M83,-203.83C72.55,-195.96 62.97,-186.29 57,-174.75 43.8,-149.25 60.32,-116.2 72.41,-97.45"/>
<polygon fill="#63b8ff" stroke="#63b8ff" points="80.89,-206.62 91.1,-209.43 84.87,-200.86 80.89,-206.62"/>
</a>
</g>
</g>
<!-- Node5 -->
<g id="Node000005" class="node">
<title>Node5</title>
<g id="a_Node000005"><a xlink:href="_control_port_8h_source.html" target="_top" xlink:title=" ">
<polygon fill="white" stroke="#666666" points="208.38,-174.75 65.62,-174.75 65.62,-133 208.38,-133 208.38,-174.75"/>
<text text-anchor="start" x="73.62" y="-161.25" font-family="Helvetica,sans-Serif" font-size="10.00">/Users/hoff/Retro/virtualc64</text>
<text text-anchor="start" x="73.62" y="-150" font-family="Helvetica,sans-Serif" font-size="10.00">/Emulator/Components/Ports</text>
<text text-anchor="middle" x="137" y="-138.75" font-family="Helvetica,sans-Serif" font-size="10.00">/ControlPort.h</text>
</a>
</g>
</g>
<!-- Node2&#45;&gt;Node5 -->
<g id="edge4_Node000002_Node000005" class="edge">
<title>Node2&#45;&gt;Node5</title>
<g id="a_edge4_Node000002_Node000005"><a xlink:title=" ">
<path fill="none" stroke="#63b8ff" d="M136.42,-199C136.52,-190.96 136.63,-182.54 136.73,-175.23"/>
<polygon fill="#63b8ff" stroke="#63b8ff" points="132.92,-198.77 136.29,-208.81 139.92,-198.86 132.92,-198.77"/>
</a>
</g>
</g>
<!-- Node4 -->
<g id="Node000004" class="node">
<title>Node4</title>
<g id="a_Node000004"><a xlink:href="_emulator_8h_source.html" target="_top" xlink:title=" ">
<polygon fill="white" stroke="#666666" points="166,-30.5 0,-30.5 0,0 166,0 166,-30.5"/>
<text text-anchor="start" x="8" y="-17" font-family="Helvetica,sans-Serif" font-size="10.00">/Users/hoff/Retro/virtualc64</text>
<text text-anchor="middle" x="83" y="-5.75" font-family="Helvetica,sans-Serif" font-size="10.00">/Emulator/Components/Emulator.h</text>
</a>
</g>
</g>
<!-- Node3&#45;&gt;Node4 -->
<g id="edge3_Node000003_Node000004" class="edge">
<title>Node3&#45;&gt;Node4</title>
<g id="a_edge3_Node000003_Node000004"><a xlink:title=" ">
<path fill="none" stroke="#63b8ff" d="M83,-54.81C83,-46.64 83,-37.91 83,-30.83"/>
<polygon fill="#63b8ff" stroke="#63b8ff" points="79.5,-54.6 83,-64.6 86.5,-54.6 79.5,-54.6"/>
</a>
</g>
</g>
<!-- Node5&#45;&gt;Node3 -->
<g id="edge5_Node000005_Node000003" class="edge">
<title>Node5&#45;&gt;Node3</title>
<g id="a_edge5_Node000005_Node000003"><a xlink:title=" ">
<path fill="none" stroke="#63b8ff" d="M114.55,-123.72C107.5,-114.57 100.03,-104.87 94.13,-97.2"/>
<polygon fill="#63b8ff" stroke="#63b8ff" points="111.58,-125.61 120.46,-131.39 117.13,-121.33 111.58,-125.61"/>
</a>
</g>
</g>
<!-- Node7 -->
<g id="Node000007" class="node">
<title>Node7</title>
<g id="a_Node000007"><a xlink:href="_virtual_c64_8h.html" target="_top" xlink:title=" ">
<polygon fill="white" stroke="#666666" points="364.38,-169.12 227.62,-169.12 227.62,-138.62 364.38,-138.62 364.38,-169.12"/>
<text text-anchor="start" x="235.62" y="-155.62" font-family="Helvetica,sans-Serif" font-size="10.00">/Users/hoff/Retro/virtualc64</text>
<text text-anchor="middle" x="296" y="-144.38" font-family="Helvetica,sans-Serif" font-size="10.00">/Emulator/VirtualC64.h</text>
</a>
</g>
</g>
<!-- Node6&#45;&gt;Node7 -->
<g id="edge7_Node000006_Node000007" class="edge">
<title>Node6&#45;&gt;Node7</title>
<g id="a_edge7_Node000006_Node000007"><a xlink:title=" ">
<path fill="none" stroke="#63b8ff" d="M296,-204.6C296,-192.84 296,-179.38 296,-169.44"/>
<polygon fill="#63b8ff" stroke="#63b8ff" points="292.5,-204.51 296,-214.51 299.5,-204.51 292.5,-204.51"/>
</a>
</g>
</g>
<!-- Node8 -->
<g id="Node000008" class="node">
<title>Node8</title>
<g id="a_Node000008"><a xlink:href="_headless_8h_source.html" target="_top" xlink:title=" ">
<polygon fill="white" stroke="#666666" points="364.38,-97 227.62,-97 227.62,-66.5 364.38,-66.5 364.38,-97"/>
<text text-anchor="start" x="235.62" y="-83.5" font-family="Helvetica,sans-Serif" font-size="10.00">/Users/hoff/Retro/virtualc64</text>
<text text-anchor="middle" x="296" y="-72.25" font-family="Helvetica,sans-Serif" font-size="10.00">/Emulator/Headless.h</text>
</a>
</g>
</g>
<!-- Node7&#45;&gt;Node8 -->
<g id="edge8_Node000007_Node000008" class="edge">
<title>Node7&#45;&gt;Node8</title>
<g id="a_edge8_Node000007_Node000008"><a xlink:title=" ">
<path fill="none" stroke="#63b8ff" d="M296,-126.9C296,-116.89 296,-105.81 296,-97.26"/>
<polygon fill="#63b8ff" stroke="#63b8ff" points="292.5,-126.83 296,-136.83 299.5,-126.83 292.5,-126.83"/>
</a>
</g>
</g>
<!-- Node9 -->
<g id="Node000009" class="node">
<title>Node9</title>
<g id="a_Node000009"><a xlink:href="_headless_8cpp.html" target="_top" xlink:title=" ">
<polygon fill="white" stroke="#666666" points="364.38,-30.5 227.62,-30.5 227.62,0 364.38,0 364.38,-30.5"/>
<text text-anchor="start" x="235.62" y="-17" font-family="Helvetica,sans-Serif" font-size="10.00">/Users/hoff/Retro/virtualc64</text>
<text text-anchor="middle" x="296" y="-5.75" font-family="Helvetica,sans-Serif" font-size="10.00">/Emulator/Headless.cpp</text>
</a>
</g>
</g>
<!-- Node8&#45;&gt;Node9 -->
<g id="edge9_Node000008_Node000009" class="edge">
<title>Node8&#45;&gt;Node9</title>
<g id="a_edge9_Node000008_Node000009"><a xlink:title=" ">
<path fill="none" stroke="#63b8ff" d="M296,-54.81C296,-46.64 296,-37.91 296,-30.83"/>
<polygon fill="#63b8ff" stroke="#63b8ff" points="292.5,-54.6 296,-64.6 299.5,-54.6 292.5,-54.6"/>
</a>
</g>
</g>
</g>
</svg>
