<?xml version="1.0" encoding="UTF-8" standalone="no"?>
<!DOCTYPE svg PUBLIC "-//W3C//DTD SVG 1.1//EN"
 "http://www.w3.org/Graphics/SVG/1.1/DTD/svg11.dtd">
<!-- Generated by graphviz version 10.0.1 (20240210.2158)
 -->
<!-- Title: /Users/hoff/Retro/virtualc64/Emulator/Peripherals/Mouse/MouseTypes.h Pages: 1 -->
<svg width="352pt" height="538pt"
 viewBox="0.00 0.00 351.64 537.75" xmlns="http://www.w3.org/2000/svg" xmlns:xlink="http://www.w3.org/1999/xlink">
<g id="graph0" class="graph" transform="scale(1 1) rotate(0) translate(4 533.75)">
<title>/Users/hoff/Retro/virtualc64/Emulator/Peripherals/Mouse/MouseTypes.h</title>
<!-- Node1 -->
<g id="Node000001" class="node">
<title>Node1</title>
<g id="a_Node000001"><a xlink:title=" ">
<polygon fill="#999999" stroke="#666666" points="220.01,-529.75 78.01,-529.75 78.01,-488 220.01,-488 220.01,-529.75"/>
<text text-anchor="start" x="86.01" y="-516.25" font-family="Helvetica,sans-Serif" font-size="10.00">/Users/hoff/Retro/virtualc64</text>
<text text-anchor="start" x="86.01" y="-505" font-family="Helvetica,sans-Serif" font-size="10.00">/Emulator/Peripherals/Mouse</text>
<text text-anchor="middle" x="149.01" y="-493.75" font-family="Helvetica,sans-Serif" font-size="10.00">/MouseTypes.h</text>
</a>
</g>
</g>
<!-- Node2 -->
<g id="Node000002" class="node">
<title>Node2</title>
<g id="a_Node000002"><a xlink:href="_mouse_8h_source.html" target="_top" xlink:title=" ">
<polygon fill="white" stroke="#666666" points="171.01,-452 29.01,-452 29.01,-410.25 171.01,-410.25 171.01,-452"/>
<text text-anchor="start" x="37.01" y="-438.5" font-family="Helvetica,sans-Serif" font-size="10.00">/Users/hoff/Retro/virtualc64</text>
<text text-anchor="start" x="37.01" y="-427.25" font-family="Helvetica,sans-Serif" font-size="10.00">/Emulator/Peripherals/Mouse</text>
<text text-anchor="middle" x="100.01" y="-416" font-family="Helvetica,sans-Serif" font-size="10.00">/Mouse.h</text>
</a>
</g>
</g>
<!-- Node1&#45;&gt;Node2 -->
<g id="edge1_Node000001_Node000002" class="edge">
<title>Node1&#45;&gt;Node2</title>
<g id="a_edge1_Node000001_Node000002"><a xlink:title=" ">
<path fill="none" stroke="#63b8ff" d="M129.64,-477.93C124.12,-469.39 118.24,-460.3 113.18,-452.48"/>
<polygon fill="#63b8ff" stroke="#63b8ff" points="126.69,-479.81 135.06,-486.3 132.57,-476.01 126.69,-479.81"/>
</a>
</g>
</g>
<!-- Node9 -->
<g id="Node000009" class="node">
<title>Node9</title>
<g id="a_Node000009"><a xlink:href="_virtual_c64_types_8h.html" target="_top" xlink:title=" ">
<polygon fill="white" stroke="#666666" points="343.64,-368.62 202.39,-368.62 202.39,-338.12 343.64,-338.12 343.64,-368.62"/>
<text text-anchor="start" x="210.39" y="-355.12" font-family="Helvetica,sans-Serif" font-size="10.00">/Users/hoff/Retro/virtualc64</text>
<text text-anchor="middle" x="273.01" y="-343.88" font-family="Helvetica,sans-Serif" font-size="10.00">/Emulator/VirtualC64Types.h</text>
</a>
</g>
</g>
<!-- Node1&#45;&gt;Node9 -->
<g id="edge9_Node000001_Node000009" class="edge">
<title>Node1&#45;&gt;Node9</title>
<g id="a_edge9_Node000001_Node000009"><a xlink:title=" ">
<path fill="none" stroke="#63b8ff" d="M172.24,-479.13C198.69,-446.38 240.88,-394.16 261.25,-368.94"/>
<polygon fill="#63b8ff" stroke="#63b8ff" points="169.74,-476.65 166.18,-486.63 175.18,-481.05 169.74,-476.65"/>
</a>
</g>
</g>
<!-- Node3 -->
<g id="Node000003" class="node">
<title>Node3</title>
<g id="a_Node000003"><a xlink:href="_c64_8h_source.html" target="_top" xlink:title=" ">
<polygon fill="white" stroke="#666666" points="172.89,-296.5 27.14,-296.5 27.14,-266 172.89,-266 172.89,-296.5"/>
<text text-anchor="start" x="35.14" y="-283" font-family="Helvetica,sans-Serif" font-size="10.00">/Users/hoff/Retro/virtualc64</text>
<text text-anchor="middle" x="100.01" y="-271.75" font-family="Helvetica,sans-Serif" font-size="10.00">/Emulator/Components/C64.h</text>
</a>
</g>
</g>
<!-- Node2&#45;&gt;Node3 -->
<g id="edge2_Node000002_Node000003" class="edge">
<title>Node2&#45;&gt;Node3</title>
<g id="a_edge2_Node000002_Node000003"><a xlink:title=" ">
<path fill="none" stroke="#63b8ff" d="M36.32,-404.01C24.59,-396.21 13.89,-386.41 7.01,-374.25 -2.12,-358.1 -2.49,-348.44 7.01,-332.5 16.88,-315.95 34.3,-304.52 51.42,-296.8"/>
<polygon fill="#63b8ff" stroke="#63b8ff" points="34.24,-406.84 44.6,-409.04 37.88,-400.86 34.24,-406.84"/>
</a>
</g>
</g>
<!-- Node8 -->
<g id="Node000008" class="node">
<title>Node8</title>
<g id="a_Node000008"><a xlink:href="_control_port_8h_source.html" target="_top" xlink:title=" ">
<polygon fill="white" stroke="#666666" points="184.14,-374.25 15.89,-374.25 15.89,-332.5 184.14,-332.5 184.14,-374.25"/>
<text text-anchor="start" x="23.89" y="-360.75" font-family="Helvetica,sans-Serif" font-size="10.00">/Users/hoff/Retro/virtualc64</text>
<text text-anchor="start" x="23.89" y="-349.5" font-family="Helvetica,sans-Serif" font-size="10.00">/Emulator/Components/LogicBoard</text>
<text text-anchor="middle" x="100.01" y="-338.25" font-family="Helvetica,sans-Serif" font-size="10.00">/ControlPort.h</text>
</a>
</g>
</g>
<!-- Node2&#45;&gt;Node8 -->
<g id="edge7_Node000002_Node000008" class="edge">
<title>Node2&#45;&gt;Node8</title>
<g id="a_edge7_Node000002_Node000008"><a xlink:title=" ">
<path fill="none" stroke="#63b8ff" d="M100.01,-398.5C100.01,-390.46 100.01,-382.04 100.01,-374.73"/>
<polygon fill="#63b8ff" stroke="#63b8ff" points="96.51,-398.31 100.01,-408.31 103.51,-398.31 96.51,-398.31"/>
</a>
</g>
</g>
<!-- Node4 -->
<g id="Node000004" class="node">
<title>Node4</title>
<g id="a_Node000004"><a xlink:href="_emulator_8h_source.html" target="_top" xlink:title=" ">
<polygon fill="white" stroke="#666666" points="214.01,-230 48.01,-230 48.01,-199.5 214.01,-199.5 214.01,-230"/>
<text text-anchor="start" x="56.01" y="-216.5" font-family="Helvetica,sans-Serif" font-size="10.00">/Users/hoff/Retro/virtualc64</text>
<text text-anchor="middle" x="131.01" y="-205.25" font-family="Helvetica,sans-Serif" font-size="10.00">/Emulator/Components/Emulator.h</text>
</a>
</g>
</g>
<!-- Node3&#45;&gt;Node4 -->
<g id="edge3_Node000003_Node000004" class="edge">
<title>Node3&#45;&gt;Node4</title>
<g id="a_edge3_Node000003_Node000004"><a xlink:title=" ">
<path fill="none" stroke="#63b8ff" d="M111.94,-255.44C116.02,-246.96 120.44,-237.74 124.01,-230.33"/>
<polygon fill="#63b8ff" stroke="#63b8ff" points="108.88,-253.72 107.7,-264.25 115.19,-256.75 108.88,-253.72"/>
</a>
</g>
</g>
<!-- Node5 -->
<g id="Node000005" class="node">
<title>Node5</title>
<g id="a_Node000005"><a xlink:href="_virtual_c64_8h.html" target="_top" xlink:title=" ">
<polygon fill="white" stroke="#666666" points="254.39,-163.5 117.64,-163.5 117.64,-133 254.39,-133 254.39,-163.5"/>
<text text-anchor="start" x="125.64" y="-150" font-family="Helvetica,sans-Serif" font-size="10.00">/Users/hoff/Retro/virtualc64</text>
<text text-anchor="middle" x="186.01" y="-138.75" font-family="Helvetica,sans-Serif" font-size="10.00">/Emulator/VirtualC64.h</text>
</a>
</g>
</g>
<!-- Node4&#45;&gt;Node5 -->
<g id="edge4_Node000004_Node000005" class="edge">
<title>Node4&#45;&gt;Node5</title>
<g id="a_edge4_Node000004_Node000005"><a xlink:title=" ">
<path fill="none" stroke="#63b8ff" d="M150.73,-190.63C158.35,-181.69 166.84,-171.74 173.58,-163.83"/>
<polygon fill="#63b8ff" stroke="#63b8ff" points="148.3,-188.08 144.48,-197.96 153.63,-192.62 148.3,-188.08"/>
</a>
</g>
</g>
<!-- Node6 -->
<g id="Node000006" class="node">
<title>Node6</title>
<g id="a_Node000006"><a xlink:href="_headless_8h_source.html" target="_top" xlink:title=" ">
<polygon fill="white" stroke="#666666" points="254.39,-97 117.64,-97 117.64,-66.5 254.39,-66.5 254.39,-97"/>
<text text-anchor="start" x="125.64" y="-83.5" font-family="Helvetica,sans-Serif" font-size="10.00">/Users/hoff/Retro/virtualc64</text>
<text text-anchor="middle" x="186.01" y="-72.25" font-family="Helvetica,sans-Serif" font-size="10.00">/Emulator/Headless.h</text>
</a>
</g>
</g>
<!-- Node5&#45;&gt;Node6 -->
<g id="edge5_Node000005_Node000006" class="edge">
<title>Node5&#45;&gt;Node6</title>
<g id="a_edge5_Node000005_Node000006"><a xlink:title=" ">
<path fill="none" stroke="#63b8ff" d="M186.01,-121.31C186.01,-113.14 186.01,-104.41 186.01,-97.33"/>
<polygon fill="#63b8ff" stroke="#63b8ff" points="182.51,-121.1 186.01,-131.1 189.51,-121.1 182.51,-121.1"/>
</a>
</g>
</g>
<!-- Node7 -->
<g id="Node000007" class="node">
<title>Node7</title>
<g id="a_Node000007"><a xlink:href="_headless_8cpp.html" target="_top" xlink:title=" ">
<polygon fill="white" stroke="#666666" points="254.39,-30.5 117.64,-30.5 117.64,0 254.39,0 254.39,-30.5"/>
<text text-anchor="start" x="125.64" y="-17" font-family="Helvetica,sans-Serif" font-size="10.00">/Users/hoff/Retro/virtualc64</text>
<text text-anchor="middle" x="186.01" y="-5.75" font-family="Helvetica,sans-Serif" font-size="10.00">/Emulator/Headless.cpp</text>
</a>
</g>
</g>
<!-- Node6&#45;&gt;Node7 -->
<g id="edge6_Node000006_Node000007" class="edge">
<title>Node6&#45;&gt;Node7</title>
<g id="a_edge6_Node000006_Node000007"><a xlink:title=" ">
<path fill="none" stroke="#63b8ff" d="M186.01,-54.81C186.01,-46.64 186.01,-37.91 186.01,-30.83"/>
<polygon fill="#63b8ff" stroke="#63b8ff" points="182.51,-54.6 186.01,-64.6 189.51,-54.6 182.51,-54.6"/>
</a>
</g>
</g>
<!-- Node8&#45;&gt;Node3 -->
<g id="edge8_Node000008_Node000003" class="edge">
<title>Node8&#45;&gt;Node3</title>
<g id="a_edge8_Node000008_Node000003"><a xlink:title=" ">
<path fill="none" stroke="#63b8ff" d="M100.01,-320.63C100.01,-312.27 100.01,-303.65 100.01,-296.7"/>
<polygon fill="#63b8ff" stroke="#63b8ff" points="96.51,-320.58 100.01,-330.58 103.51,-320.58 96.51,-320.58"/>
</a>
</g>
</g>
<!-- Node9&#45;&gt;Node5 -->
<g id="edge10_Node000009_Node000005" class="edge">
<title>Node9&#45;&gt;Node5</title>
<g id="a_edge10_Node000009_Node000005"><a xlink:title=" ">
<path fill="none" stroke="#63b8ff" d="M267.28,-326.71C259.73,-295.51 244.79,-241.8 223.01,-199.5 216.37,-186.59 206.54,-173.43 198.69,-163.82"/>
<polygon fill="#63b8ff" stroke="#63b8ff" points="263.86,-327.45 269.56,-336.39 270.68,-325.85 263.86,-327.45"/>
</a>
</g>
</g>
</g>
</svg>
