<?xml version="1.0" encoding="UTF-8" standalone="no"?>
<!DOCTYPE svg PUBLIC "-//W3C//DTD SVG 1.1//EN"
 "http://www.w3.org/Graphics/SVG/1.1/DTD/svg11.dtd">
<!-- Generated by graphviz version 10.0.1 (20240210.2158)
 -->
<!-- Title: /Users/hoff/Retro/virtualc64/Emulator/Peripherals/Mouse/MouseTypes.h Pages: 1 -->
<svg width="352pt" height="471pt"
 viewBox="0.00 0.00 351.64 471.25" xmlns="http://www.w3.org/2000/svg" xmlns:xlink="http://www.w3.org/1999/xlink">
<g id="graph0" class="graph" transform="scale(1 1) rotate(0) translate(4 467.25)">
<title>/Users/hoff/Retro/virtualc64/Emulator/Peripherals/Mouse/MouseTypes.h</title>
<!-- Node1 -->
<g id="Node000001" class="node">
<title>Node1</title>
<g id="a_Node000001"><a xlink:title=" ">
<polygon fill="#999999" stroke="#666666" points="220.01,-463.25 78.01,-463.25 78.01,-421.5 220.01,-421.5 220.01,-463.25"/>
<text text-anchor="start" x="86.01" y="-449.75" font-family="Helvetica,sans-Serif" font-size="10.00">/Users/hoff/Retro/virtualc64</text>
<text text-anchor="start" x="86.01" y="-438.5" font-family="Helvetica,sans-Serif" font-size="10.00">/Emulator/Peripherals/Mouse</text>
<text text-anchor="middle" x="149.01" y="-427.25" font-family="Helvetica,sans-Serif" font-size="10.00">/MouseTypes.h</text>
</a>
</g>
</g>
<!-- Node2 -->
<g id="Node000002" class="node">
<title>Node2</title>
<g id="a_Node000002"><a xlink:href="_mouse_8h_source.html" target="_top" xlink:title=" ">
<polygon fill="white" stroke="#666666" points="171.01,-385.5 29.01,-385.5 29.01,-343.75 171.01,-343.75 171.01,-385.5"/>
<text text-anchor="start" x="37.01" y="-372" font-family="Helvetica,sans-Serif" font-size="10.00">/Users/hoff/Retro/virtualc64</text>
<text text-anchor="start" x="37.01" y="-360.75" font-family="Helvetica,sans-Serif" font-size="10.00">/Emulator/Peripherals/Mouse</text>
<text text-anchor="middle" x="100.01" y="-349.5" font-family="Helvetica,sans-Serif" font-size="10.00">/Mouse.h</text>
</a>
</g>
</g>
<!-- Node1&#45;&gt;Node2 -->
<g id="edge1_Node000001_Node000002" class="edge">
<title>Node1&#45;&gt;Node2</title>
<g id="a_edge1_Node000001_Node000002"><a xlink:title=" ">
<path fill="none" stroke="#63b8ff" d="M129.64,-411.43C124.12,-402.89 118.24,-393.8 113.18,-385.98"/>
<polygon fill="#63b8ff" stroke="#63b8ff" points="126.69,-413.31 135.06,-419.8 132.57,-409.51 126.69,-413.31"/>
</a>
</g>
</g>
<!-- Node8 -->
<g id="Node000008" class="node">
<title>Node8</title>
<g id="a_Node000008"><a xlink:href="_virtual_c64_types_8h.html" target="_top" xlink:title=" ">
<polygon fill="white" stroke="#666666" points="343.64,-302.12 202.39,-302.12 202.39,-271.62 343.64,-271.62 343.64,-302.12"/>
<text text-anchor="start" x="210.39" y="-288.62" font-family="Helvetica,sans-Serif" font-size="10.00">/Users/hoff/Retro/virtualc64</text>
<text text-anchor="middle" x="273.01" y="-277.38" font-family="Helvetica,sans-Serif" font-size="10.00">/Emulator/VirtualC64Types.h</text>
</a>
</g>
</g>
<!-- Node1&#45;&gt;Node8 -->
<g id="edge8_Node000001_Node000008" class="edge">
<title>Node1&#45;&gt;Node8</title>
<g id="a_edge8_Node000001_Node000008"><a xlink:title=" ">
<path fill="none" stroke="#63b8ff" d="M172.24,-412.63C198.69,-379.88 240.88,-327.66 261.25,-302.44"/>
<polygon fill="#63b8ff" stroke="#63b8ff" points="169.74,-410.15 166.18,-420.13 175.18,-414.55 169.74,-410.15"/>
</a>
</g>
</g>
<!-- Node3 -->
<g id="Node000003" class="node">
<title>Node3</title>
<g id="a_Node000003"><a xlink:href="_c64_8h_source.html" target="_top" xlink:title=" ">
<polygon fill="white" stroke="#666666" points="172.89,-230 27.14,-230 27.14,-199.5 172.89,-199.5 172.89,-230"/>
<text text-anchor="start" x="35.14" y="-216.5" font-family="Helvetica,sans-Serif" font-size="10.00">/Users/hoff/Retro/virtualc64</text>
<text text-anchor="middle" x="100.01" y="-205.25" font-family="Helvetica,sans-Serif" font-size="10.00">/Emulator/Components/C64.h</text>
</a>
</g>
</g>
<!-- Node2&#45;&gt;Node3 -->
<g id="edge2_Node000002_Node000003" class="edge">
<title>Node2&#45;&gt;Node3</title>
<g id="a_edge2_Node000002_Node000003"><a xlink:title=" ">
<path fill="none" stroke="#63b8ff" d="M36.32,-337.51C24.59,-329.71 13.89,-319.91 7.01,-307.75 -2.12,-291.6 -2.49,-281.94 7.01,-266 16.88,-249.45 34.3,-238.02 51.42,-230.3"/>
<polygon fill="#63b8ff" stroke="#63b8ff" points="34.24,-340.34 44.6,-342.54 37.88,-334.36 34.24,-340.34"/>
</a>
</g>
</g>
<!-- Node7 -->
<g id="Node000007" class="node">
<title>Node7</title>
<g id="a_Node000007"><a xlink:href="_control_port_8h_source.html" target="_top" xlink:title=" ">
<polygon fill="white" stroke="#666666" points="184.14,-307.75 15.89,-307.75 15.89,-266 184.14,-266 184.14,-307.75"/>
<text text-anchor="start" x="23.89" y="-294.25" font-family="Helvetica,sans-Serif" font-size="10.00">/Users/hoff/Retro/virtualc64</text>
<text text-anchor="start" x="23.89" y="-283" font-family="Helvetica,sans-Serif" font-size="10.00">/Emulator/Components/LogicBoard</text>
<text text-anchor="middle" x="100.01" y="-271.75" font-family="Helvetica,sans-Serif" font-size="10.00">/ControlPort.h</text>
</a>
</g>
</g>
<!-- Node2&#45;&gt;Node7 -->
<g id="edge6_Node000002_Node000007" class="edge">
<title>Node2&#45;&gt;Node7</title>
<g id="a_edge6_Node000002_Node000007"><a xlink:title=" ">
<path fill="none" stroke="#63b8ff" d="M100.01,-332C100.01,-323.96 100.01,-315.54 100.01,-308.23"/>
<polygon fill="#63b8ff" stroke="#63b8ff" points="96.51,-331.81 100.01,-341.81 103.51,-331.81 96.51,-331.81"/>
</a>
</g>
</g>
<!-- Node4 -->
<g id="Node000004" class="node">
<title>Node4</title>
<g id="a_Node000004"><a xlink:href="_emulator_8h_source.html" target="_top" xlink:title=" ">
<polygon fill="white" stroke="#666666" points="214.01,-163.5 48.01,-163.5 48.01,-133 214.01,-133 214.01,-163.5"/>
<text text-anchor="start" x="56.01" y="-150" font-family="Helvetica,sans-Serif" font-size="10.00">/Users/hoff/Retro/virtualc64</text>
<text text-anchor="middle" x="131.01" y="-138.75" font-family="Helvetica,sans-Serif" font-size="10.00">/Emulator/Components/Emulator.h</text>
</a>
</g>
</g>
<!-- Node3&#45;&gt;Node4 -->
<g id="edge3_Node000003_Node000004" class="edge">
<title>Node3&#45;&gt;Node4</title>
<g id="a_edge3_Node000003_Node000004"><a xlink:title=" ">
<path fill="none" stroke="#63b8ff" d="M111.94,-188.94C116.02,-180.46 120.44,-171.24 124.01,-163.83"/>
<polygon fill="#63b8ff" stroke="#63b8ff" points="108.88,-187.22 107.7,-197.75 115.19,-190.25 108.88,-187.22"/>
</a>
</g>
</g>
<!-- Node5 -->
<g id="Node000005" class="node">
<title>Node5</title>
<g id="a_Node000005"><a xlink:href="_virtual_c64_8h.html" target="_top" xlink:title=" ">
<polygon fill="white" stroke="#666666" points="254.39,-97 117.64,-97 117.64,-66.5 254.39,-66.5 254.39,-97"/>
<text text-anchor="start" x="125.64" y="-83.5" font-family="Helvetica,sans-Serif" font-size="10.00">/Users/hoff/Retro/virtualc64</text>
<text text-anchor="middle" x="186.01" y="-72.25" font-family="Helvetica,sans-Serif" font-size="10.00">/Emulator/VirtualC64.h</text>
</a>
</g>
</g>
<!-- Node4&#45;&gt;Node5 -->
<g id="edge4_Node000004_Node000005" class="edge">
<title>Node4&#45;&gt;Node5</title>
<g id="a_edge4_Node000004_Node000005"><a xlink:title=" ">
<path fill="none" stroke="#63b8ff" d="M150.73,-124.13C158.35,-115.19 166.84,-105.24 173.58,-97.33"/>
<polygon fill="#63b8ff" stroke="#63b8ff" points="148.3,-121.58 144.48,-131.46 153.63,-126.12 148.3,-121.58"/>
</a>
</g>
</g>
<!-- Node6 -->
<g id="Node000006" class="node">
<title>Node6</title>
<g id="a_Node000006"><a xlink:href="_headless_8h_source.html" target="_top" xlink:title=" ">
<polygon fill="white" stroke="#666666" points="254.39,-30.5 117.64,-30.5 117.64,0 254.39,0 254.39,-30.5"/>
<text text-anchor="start" x="125.64" y="-17" font-family="Helvetica,sans-Serif" font-size="10.00">/Users/hoff/Retro/virtualc64</text>
<text text-anchor="middle" x="186.01" y="-5.75" font-family="Helvetica,sans-Serif" font-size="10.00">/Emulator/Headless.h</text>
</a>
</g>
</g>
<!-- Node5&#45;&gt;Node6 -->
<g id="edge5_Node000005_Node000006" class="edge">
<title>Node5&#45;&gt;Node6</title>
<g id="a_edge5_Node000005_Node000006"><a xlink:title=" ">
<path fill="none" stroke="#63b8ff" d="M186.01,-54.81C186.01,-46.64 186.01,-37.91 186.01,-30.83"/>
<polygon fill="#63b8ff" stroke="#63b8ff" points="182.51,-54.6 186.01,-64.6 189.51,-54.6 182.51,-54.6"/>
</a>
</g>
</g>
<!-- Node7&#45;&gt;Node3 -->
<g id="edge7_Node000007_Node000003" class="edge">
<title>Node7&#45;&gt;Node3</title>
<g id="a_edge7_Node000007_Node000003"><a xlink:title=" ">
<path fill="none" stroke="#63b8ff" d="M100.01,-254.13C100.01,-245.77 100.01,-237.15 100.01,-230.2"/>
<polygon fill="#63b8ff" stroke="#63b8ff" points="96.51,-254.08 100.01,-264.08 103.51,-254.08 96.51,-254.08"/>
</a>
</g>
</g>
<!-- Node8&#45;&gt;Node5 -->
<g id="edge9_Node000008_Node000005" class="edge">
<title>Node8&#45;&gt;Node5</title>
<g id="a_edge9_Node000008_Node000005"><a xlink:title=" ">
<path fill="none" stroke="#63b8ff" d="M267.28,-260.21C259.73,-229.01 244.79,-175.3 223.01,-133 216.37,-120.09 206.54,-106.93 198.69,-97.32"/>
<polygon fill="#63b8ff" stroke="#63b8ff" points="263.86,-260.95 269.56,-269.89 270.68,-259.35 263.86,-260.95"/>
</a>
</g>
</g>
</g>
</svg>
