<?xml version="1.0" encoding="UTF-8" standalone="no"?>
<!DOCTYPE svg PUBLIC "-//W3C//DTD SVG 1.1//EN"
 "http://www.w3.org/Graphics/SVG/1.1/DTD/svg11.dtd">
<!-- Generated by graphviz version 10.0.1 (20240210.2158)
 -->
<!-- Title: /Users/hoff/Retro/virtualc64/Emulator/Base/MsgQueue.h Pages: 1 -->
<svg width="643pt" height="425pt"
 viewBox="0.00 0.00 642.50 425.25" xmlns="http://www.w3.org/2000/svg" xmlns:xlink="http://www.w3.org/1999/xlink">
<g id="graph0" class="graph" transform="scale(1 1) rotate(0) translate(4 421.25)">
<title>/Users/hoff/Retro/virtualc64/Emulator/Base/MsgQueue.h</title>
<!-- Node1 -->
<g id="Node000001" class="node">
<title>Node1</title>
<g id="a_Node000001"><a xlink:title=" ">
<polygon fill="#999999" stroke="#666666" points="459.88,-417.25 317.88,-417.25 317.88,-386.75 459.88,-386.75 459.88,-417.25"/>
<text text-anchor="start" x="325.88" y="-403.75" font-family="Helvetica,sans-Serif" font-size="10.00">/Users/hoff/Retro/virtualc64</text>
<text text-anchor="middle" x="388.88" y="-392.5" font-family="Helvetica,sans-Serif" font-size="10.00">/Emulator/Base/MsgQueue.h</text>
</a>
</g>
</g>
<!-- Node2 -->
<g id="Node000002" class="node">
<title>Node2</title>
<g id="a_Node000002"><a xlink:href="_msg_queue_types_8h.html" target="_top" xlink:title=" ">
<polygon fill="white" stroke="#666666" points="97.75,-240.25 0,-240.25 0,-221 97.75,-221 97.75,-240.25"/>
<text text-anchor="middle" x="48.88" y="-226.75" font-family="Helvetica,sans-Serif" font-size="10.00">MsgQueueTypes.h</text>
</a>
</g>
</g>
<!-- Node1&#45;&gt;Node2 -->
<g id="edge1_Node000001_Node000002" class="edge">
<title>Node1&#45;&gt;Node2</title>
<g id="a_edge1_Node000001_Node000002"><a xlink:title=" ">
<path fill="none" stroke="#63b8ff" d="M353,-386.33C329.91,-376.68 299.37,-363.51 272.88,-350.75 199.86,-315.59 116.1,-269.44 74.75,-246.26"/>
<polygon fill="#63b8ff" stroke="#63b8ff" points="76.7,-243.34 66.27,-241.49 73.27,-249.44 76.7,-243.34"/>
</a>
</g>
</g>
<!-- Node10 -->
<g id="Node000010" class="node">
<title>Node10</title>
<g id="a_Node000010"><a xlink:href="_core_object_8h.html" target="_top" xlink:title=" ">
<polygon fill="white" stroke="#666666" points="355.75,-350.75 282,-350.75 282,-331.5 355.75,-331.5 355.75,-350.75"/>
<text text-anchor="middle" x="318.88" y="-337.25" font-family="Helvetica,sans-Serif" font-size="10.00">CoreObject.h</text>
</a>
</g>
</g>
<!-- Node1&#45;&gt;Node10 -->
<g id="edge9_Node000001_Node000010" class="edge">
<title>Node1&#45;&gt;Node10</title>
<g id="a_edge9_Node000001_Node000010"><a xlink:title=" ">
<path fill="none" stroke="#63b8ff" d="M371.57,-386.45C361.53,-378 348.85,-367.33 338.44,-358.58"/>
<polygon fill="#63b8ff" stroke="#63b8ff" points="340.73,-355.93 330.82,-352.18 336.22,-361.29 340.73,-355.93"/>
</a>
</g>
</g>
<!-- Node17 -->
<g id="Node000017" class="node">
<title>Node17</title>
<g id="a_Node000017"><a xlink:href="_synchronizable_8h.html" target="_top" xlink:title=" ">
<polygon fill="white" stroke="#666666" points="474.38,-350.75 383.38,-350.75 383.38,-331.5 474.38,-331.5 474.38,-350.75"/>
<text text-anchor="middle" x="428.88" y="-337.25" font-family="Helvetica,sans-Serif" font-size="10.00">Synchronizable.h</text>
</a>
</g>
</g>
<!-- Node1&#45;&gt;Node17 -->
<g id="edge19_Node000001_Node000017" class="edge">
<title>Node1&#45;&gt;Node17</title>
<g id="a_edge19_Node000001_Node000017"><a xlink:title=" ">
<path fill="none" stroke="#63b8ff" d="M398.76,-386.45C404.09,-378.6 410.72,-368.85 416.4,-360.49"/>
<polygon fill="#63b8ff" stroke="#63b8ff" points="419.13,-362.69 421.86,-352.45 413.34,-358.76 419.13,-362.69"/>
</a>
</g>
</g>
<!-- Node23 -->
<g id="Node000023" class="node">
<title>Node23</title>
<g id="a_Node000023"><a xlink:href="_ring_buffer_8h.html" target="_top" xlink:title=" ">
<polygon fill="white" stroke="#666666" points="601.88,-350.75 531.88,-350.75 531.88,-331.5 601.88,-331.5 601.88,-350.75"/>
<text text-anchor="middle" x="566.88" y="-337.25" font-family="Helvetica,sans-Serif" font-size="10.00">RingBuffer.h</text>
</a>
</g>
</g>
<!-- Node1&#45;&gt;Node23 -->
<g id="edge26_Node000001_Node000023" class="edge">
<title>Node1&#45;&gt;Node23</title>
<g id="a_edge26_Node000001_Node000023"><a xlink:title=" ">
<path fill="none" stroke="#63b8ff" d="M433.33,-386.3C462.7,-376.58 500.77,-363.99 528.75,-354.73"/>
<polygon fill="#63b8ff" stroke="#63b8ff" points="529.48,-358.18 537.88,-351.72 527.28,-351.53 529.48,-358.18"/>
</a>
</g>
</g>
<!-- Node3 -->
<g id="Node000003" class="node">
<title>Node3</title>
<g id="a_Node000003"><a xlink:href="_aliases_8h.html" target="_top" xlink:title=" ">
<polygon fill="white" stroke="#666666" points="180.12,-185 123.62,-185 123.62,-165.75 180.12,-165.75 180.12,-185"/>
<text text-anchor="middle" x="151.88" y="-171.5" font-family="Helvetica,sans-Serif" font-size="10.00">Aliases.h</text>
</a>
</g>
</g>
<!-- Node2&#45;&gt;Node3 -->
<g id="edge2_Node000002_Node000003" class="edge">
<title>Node2&#45;&gt;Node3</title>
<g id="a_edge2_Node000002_Node000003"><a xlink:title=" ">
<path fill="none" stroke="#63b8ff" d="M66.35,-220.59C82.18,-212.41 105.78,-200.21 124.18,-190.69"/>
<polygon fill="#63b8ff" stroke="#63b8ff" points="125.7,-193.85 132.97,-186.15 122.48,-187.63 125.7,-193.85"/>
</a>
</g>
</g>
<!-- Node9 -->
<g id="Node000009" class="node">
<title>Node9</title>
<g id="a_Node000009"><a xlink:href="_reflection_8h.html" target="_top" xlink:title=" ">
<polygon fill="white" stroke="#666666" points="94.12,-185 25.62,-185 25.62,-165.75 94.12,-165.75 94.12,-185"/>
<text text-anchor="middle" x="59.88" y="-171.5" font-family="Helvetica,sans-Serif" font-size="10.00">Reflection.h</text>
</a>
</g>
</g>
<!-- Node2&#45;&gt;Node9 -->
<g id="edge8_Node000002_Node000009" class="edge">
<title>Node2&#45;&gt;Node9</title>
<g id="a_edge8_Node000002_Node000009"><a xlink:title=" ">
<path fill="none" stroke="#63b8ff" d="M50.69,-220.83C52.05,-214.24 53.97,-204.96 55.7,-196.57"/>
<polygon fill="#63b8ff" stroke="#63b8ff" points="59.12,-197.34 57.71,-186.84 52.26,-195.93 59.12,-197.34"/>
</a>
</g>
</g>
<!-- Node4 -->
<g id="Node000004" class="node">
<title>Node4</title>
<g id="a_Node000004"><a xlink:href="_macros_8h.html" target="_top" xlink:title=" ">
<polygon fill="white" stroke="#666666" points="224.12,-129.75 167.62,-129.75 167.62,-110.5 224.12,-110.5 224.12,-129.75"/>
<text text-anchor="middle" x="195.88" y="-116.25" font-family="Helvetica,sans-Serif" font-size="10.00">Macros.h</text>
</a>
</g>
</g>
<!-- Node3&#45;&gt;Node4 -->
<g id="edge3_Node000003_Node000004" class="edge">
<title>Node3&#45;&gt;Node4</title>
<g id="a_edge3_Node000003_Node000004"><a xlink:title=" ">
<path fill="none" stroke="#63b8ff" d="M159.14,-165.58C165.16,-158.3 173.89,-147.73 181.33,-138.73"/>
<polygon fill="#63b8ff" stroke="#63b8ff" points="183.82,-141.21 187.49,-131.28 178.42,-136.76 183.82,-141.21"/>
</a>
</g>
</g>
<!-- Node5 -->
<g id="Node000005" class="node">
<title>Node5</title>
<g id="a_Node000005"><a xlink:href="_types_8h.html" target="_top" xlink:title=" ">
<polygon fill="white" stroke="#666666" points="369.12,-74.5 318.62,-74.5 318.62,-55.25 369.12,-55.25 369.12,-74.5"/>
<text text-anchor="middle" x="343.88" y="-61" font-family="Helvetica,sans-Serif" font-size="10.00">Types.h</text>
</a>
</g>
</g>
<!-- Node4&#45;&gt;Node5 -->
<g id="edge4_Node000004_Node000005" class="edge">
<title>Node4&#45;&gt;Node5</title>
<g id="a_edge4_Node000004_Node000005"><a xlink:title=" ">
<path fill="none" stroke="#63b8ff" d="M220.98,-110.09C244.9,-101.49 281.16,-88.44 308.1,-78.75"/>
<polygon fill="#63b8ff" stroke="#63b8ff" points="309,-82.14 317.22,-75.46 306.63,-75.56 309,-82.14"/>
</a>
</g>
</g>
<!-- Node6 -->
<g id="Node000006" class="node">
<title>Node6</title>
<g id="a_Node000006"><a xlink:title=" ">
<polygon fill="#e0e0e0" stroke="#999999" points="301.38,-19.25 234.38,-19.25 234.38,0 301.38,0 301.38,-19.25"/>
<text text-anchor="middle" x="267.88" y="-5.75" font-family="Helvetica,sans-Serif" font-size="10.00">sys/types.h</text>
</a>
</g>
</g>
<!-- Node5&#45;&gt;Node6 -->
<g id="edge5_Node000005_Node000006" class="edge">
<title>Node5&#45;&gt;Node6</title>
<g id="a_edge5_Node000005_Node000006"><a xlink:title=" ">
<path fill="none" stroke="#63b8ff" d="M330.98,-54.84C319.85,-47.04 303.5,-35.59 290.24,-26.29"/>
<polygon fill="#63b8ff" stroke="#63b8ff" points="292.27,-23.44 282.07,-20.57 288.25,-29.18 292.27,-23.44"/>
</a>
</g>
</g>
<!-- Node7 -->
<g id="Node000007" class="node">
<title>Node7</title>
<g id="a_Node000007"><a xlink:title=" ">
<polygon fill="#e0e0e0" stroke="#999999" points="368,-19.25 319.75,-19.25 319.75,0 368,0 368,-19.25"/>
<text text-anchor="middle" x="343.88" y="-5.75" font-family="Helvetica,sans-Serif" font-size="10.00">stdint.h</text>
</a>
</g>
</g>
<!-- Node5&#45;&gt;Node7 -->
<g id="edge6_Node000005_Node000007" class="edge">
<title>Node5&#45;&gt;Node7</title>
<g id="a_edge6_Node000005_Node000007"><a xlink:title=" ">
<path fill="none" stroke="#63b8ff" d="M343.88,-55.08C343.88,-48.57 343.88,-39.42 343.88,-31.12"/>
<polygon fill="#63b8ff" stroke="#63b8ff" points="347.38,-31.12 343.88,-21.12 340.38,-31.12 347.38,-31.12"/>
</a>
</g>
</g>
<!-- Node8 -->
<g id="Node000008" class="node">
<title>Node8</title>
<g id="a_Node000008"><a xlink:title=" ">
<polygon fill="#e0e0e0" stroke="#999999" points="441.75,-19.25 386,-19.25 386,0 441.75,0 441.75,-19.25"/>
<text text-anchor="middle" x="413.88" y="-5.75" font-family="Helvetica,sans-Serif" font-size="10.00">stdbool.h</text>
</a>
</g>
</g>
<!-- Node5&#45;&gt;Node8 -->
<g id="edge7_Node000005_Node000008" class="edge">
<title>Node5&#45;&gt;Node8</title>
<g id="a_edge7_Node000005_Node000008"><a xlink:title=" ">
<path fill="none" stroke="#63b8ff" d="M355.75,-54.84C365.97,-47.07 380.95,-35.67 393.14,-26.4"/>
<polygon fill="#63b8ff" stroke="#63b8ff" points="395.13,-29.28 400.97,-20.44 390.89,-23.71 395.13,-29.28"/>
</a>
</g>
</g>
<!-- Node11 -->
<g id="Node000011" class="node">
<title>Node11</title>
<g id="a_Node000011"><a xlink:href="_error_8h.html" target="_top" xlink:title=" ">
<polygon fill="white" stroke="#666666" points="262.12,-295.5 217.62,-295.5 217.62,-276.25 262.12,-276.25 262.12,-295.5"/>
<text text-anchor="middle" x="239.88" y="-282" font-family="Helvetica,sans-Serif" font-size="10.00">Error.h</text>
</a>
</g>
</g>
<!-- Node10&#45;&gt;Node11 -->
<g id="edge10_Node000010_Node000011" class="edge">
<title>Node10&#45;&gt;Node11</title>
<g id="a_edge10_Node000010_Node000011"><a xlink:title=" ">
<path fill="none" stroke="#63b8ff" d="M305.47,-331.09C293.78,-323.21 276.57,-311.61 262.71,-302.27"/>
<polygon fill="#63b8ff" stroke="#63b8ff" points="264.85,-299.49 254.6,-296.8 260.93,-305.29 264.85,-299.49"/>
</a>
</g>
</g>
<!-- Node15 -->
<g id="Node000015" class="node">
<title>Node15</title>
<g id="a_Node000015"><a xlink:href="_inspectable_8h.html" target="_top" xlink:title=" ">
<polygon fill="white" stroke="#666666" points="356.12,-295.5 281.62,-295.5 281.62,-276.25 356.12,-276.25 356.12,-295.5"/>
<text text-anchor="middle" x="318.88" y="-282" font-family="Helvetica,sans-Serif" font-size="10.00">Inspectable.h</text>
</a>
</g>
</g>
<!-- Node10&#45;&gt;Node15 -->
<g id="edge17_Node000010_Node000015" class="edge">
<title>Node10&#45;&gt;Node15</title>
<g id="a_edge17_Node000010_Node000015"><a xlink:title=" ">
<path fill="none" stroke="#63b8ff" d="M318.88,-331.33C318.88,-324.82 318.88,-315.67 318.88,-307.37"/>
<polygon fill="#63b8ff" stroke="#63b8ff" points="322.38,-307.37 318.88,-297.37 315.38,-307.37 322.38,-307.37"/>
</a>
</g>
</g>
<!-- Node12 -->
<g id="Node000012" class="node">
<title>Node12</title>
<g id="a_Node000012"><a xlink:href="_error_types_8h.html" target="_top" xlink:title=" ">
<polygon fill="white" stroke="#666666" points="187.62,-240.25 116.12,-240.25 116.12,-221 187.62,-221 187.62,-240.25"/>
<text text-anchor="middle" x="151.88" y="-226.75" font-family="Helvetica,sans-Serif" font-size="10.00">ErrorTypes.h</text>
</a>
</g>
</g>
<!-- Node11&#45;&gt;Node12 -->
<g id="edge11_Node000011_Node000012" class="edge">
<title>Node11&#45;&gt;Node12</title>
<g id="a_edge11_Node000011_Node000012"><a xlink:title=" ">
<path fill="none" stroke="#63b8ff" d="M224.95,-275.84C211.67,-267.81 192.01,-255.91 176.42,-246.48"/>
<polygon fill="#63b8ff" stroke="#63b8ff" points="178.54,-243.67 168.17,-241.49 174.91,-249.66 178.54,-243.67"/>
</a>
</g>
</g>
<!-- Node13 -->
<g id="Node000013" class="node">
<title>Node13</title>
<g id="a_Node000013"><a xlink:href="_exception_8h.html" target="_top" xlink:title=" ">
<polygon fill="white" stroke="#666666" points="273.75,-240.25 206,-240.25 206,-221 273.75,-221 273.75,-240.25"/>
<text text-anchor="middle" x="239.88" y="-226.75" font-family="Helvetica,sans-Serif" font-size="10.00">Exception.h</text>
</a>
</g>
</g>
<!-- Node11&#45;&gt;Node13 -->
<g id="edge14_Node000011_Node000013" class="edge">
<title>Node11&#45;&gt;Node13</title>
<g id="a_edge14_Node000011_Node000013"><a xlink:title=" ">
<path fill="none" stroke="#63b8ff" d="M239.88,-276.08C239.88,-269.57 239.88,-260.42 239.88,-252.12"/>
<polygon fill="#63b8ff" stroke="#63b8ff" points="243.38,-252.12 239.88,-242.12 236.38,-252.12 243.38,-252.12"/>
</a>
</g>
</g>
<!-- Node12&#45;&gt;Node3 -->
<g id="edge12_Node000012_Node000003" class="edge">
<title>Node12&#45;&gt;Node3</title>
<g id="a_edge12_Node000012_Node000003"><a xlink:title=" ">
<path fill="none" stroke="#63b8ff" d="M151.88,-220.83C151.88,-214.32 151.88,-205.17 151.88,-196.87"/>
<polygon fill="#63b8ff" stroke="#63b8ff" points="155.38,-196.87 151.88,-186.87 148.38,-196.87 155.38,-196.87"/>
</a>
</g>
</g>
<!-- Node12&#45;&gt;Node9 -->
<g id="edge13_Node000012_Node000009" class="edge">
<title>Node12&#45;&gt;Node9</title>
<g id="a_edge13_Node000012_Node000009"><a xlink:title=" ">
<path fill="none" stroke="#63b8ff" d="M136.27,-220.59C122.26,-212.48 101.44,-200.43 85.07,-190.96"/>
<polygon fill="#63b8ff" stroke="#63b8ff" points="87.28,-188.19 76.87,-186.21 83.77,-194.25 87.28,-188.19"/>
</a>
</g>
</g>
<!-- Node13&#45;&gt;Node5 -->
<g id="edge15_Node000013_Node000005" class="edge">
<title>Node13&#45;&gt;Node5</title>
<g id="a_edge15_Node000013_Node000005"><a xlink:title=" ">
<path fill="none" stroke="#63b8ff" d="M248.03,-220.77C255.88,-212.03 267.87,-198.1 276.88,-185 299.98,-151.39 322.26,-109.22 334.41,-85.13"/>
<polygon fill="#63b8ff" stroke="#63b8ff" points="337.52,-86.73 338.84,-76.22 331.25,-83.61 337.52,-86.73"/>
</a>
</g>
</g>
<!-- Node14 -->
<g id="Node000014" class="node">
<title>Node14</title>
<g id="a_Node000014"><a xlink:title=" ">
<polygon fill="#e0e0e0" stroke="#999999" points="267.88,-185 209.88,-185 209.88,-165.75 267.88,-165.75 267.88,-185"/>
<text text-anchor="middle" x="238.88" y="-171.5" font-family="Helvetica,sans-Serif" font-size="10.00">exception</text>
</a>
</g>
</g>
<!-- Node13&#45;&gt;Node14 -->
<g id="edge16_Node000013_Node000014" class="edge">
<title>Node13&#45;&gt;Node14</title>
<g id="a_edge16_Node000013_Node000014"><a xlink:title=" ">
<path fill="none" stroke="#63b8ff" d="M239.71,-220.83C239.59,-214.32 239.42,-205.17 239.26,-196.87"/>
<polygon fill="#63b8ff" stroke="#63b8ff" points="242.76,-196.8 239.07,-186.87 235.76,-196.94 242.76,-196.8"/>
</a>
</g>
</g>
<!-- Node16 -->
<g id="Node000016" class="node">
<title>Node16</title>
<g id="a_Node000016"><a xlink:title=" ">
<polygon fill="#e0e0e0" stroke="#999999" points="345.62,-240.25 292.12,-240.25 292.12,-221 345.62,-221 345.62,-240.25"/>
<text text-anchor="middle" x="318.88" y="-226.75" font-family="Helvetica,sans-Serif" font-size="10.00">iostream</text>
</a>
</g>
</g>
<!-- Node15&#45;&gt;Node16 -->
<g id="edge18_Node000015_Node000016" class="edge">
<title>Node15&#45;&gt;Node16</title>
<g id="a_edge18_Node000015_Node000016"><a xlink:title=" ">
<path fill="none" stroke="#63b8ff" d="M318.88,-276.08C318.88,-269.57 318.88,-260.42 318.88,-252.12"/>
<polygon fill="#63b8ff" stroke="#63b8ff" points="322.38,-252.12 318.88,-242.12 315.38,-252.12 322.38,-252.12"/>
</a>
</g>
</g>
<!-- Node18 -->
<g id="Node000018" class="node">
<title>Node18</title>
<g id="a_Node000018"><a xlink:href="_concurrency_8h.html" target="_top" xlink:title=" ">
<polygon fill="white" stroke="#666666" points="478,-295.5 399.75,-295.5 399.75,-276.25 478,-276.25 478,-295.5"/>
<text text-anchor="middle" x="438.88" y="-282" font-family="Helvetica,sans-Serif" font-size="10.00">Concurrency.h</text>
</a>
</g>
</g>
<!-- Node17&#45;&gt;Node18 -->
<g id="edge20_Node000017_Node000018" class="edge">
<title>Node17&#45;&gt;Node18</title>
<g id="a_edge20_Node000017_Node000018"><a xlink:title=" ">
<path fill="none" stroke="#63b8ff" d="M430.53,-331.33C431.76,-324.74 433.51,-315.46 435.08,-307.07"/>
<polygon fill="#63b8ff" stroke="#63b8ff" points="438.5,-307.82 436.91,-297.35 431.62,-306.53 438.5,-307.82"/>
</a>
</g>
</g>
<!-- Node19 -->
<g id="Node000019" class="node">
<title>Node19</title>
<g id="a_Node000019"><a xlink:href="_chrono_8h.html" target="_top" xlink:title=" ">
<polygon fill="white" stroke="#666666" points="419.75,-240.25 364,-240.25 364,-221 419.75,-221 419.75,-240.25"/>
<text text-anchor="middle" x="391.88" y="-226.75" font-family="Helvetica,sans-Serif" font-size="10.00">Chrono.h</text>
</a>
</g>
</g>
<!-- Node18&#45;&gt;Node19 -->
<g id="edge21_Node000018_Node000019" class="edge">
<title>Node18&#45;&gt;Node19</title>
<g id="a_edge21_Node000018_Node000019"><a xlink:title=" ">
<path fill="none" stroke="#63b8ff" d="M431.11,-276.08C424.69,-268.8 415.36,-258.23 407.41,-249.23"/>
<polygon fill="#63b8ff" stroke="#63b8ff" points="410.05,-246.93 400.81,-241.74 404.8,-251.56 410.05,-246.93"/>
</a>
</g>
</g>
<!-- Node21 -->
<g id="Node000021" class="node">
<title>Node21</title>
<g id="a_Node000021"><a xlink:title=" ">
<polygon fill="#e0e0e0" stroke="#999999" points="480.38,-240.25 437.38,-240.25 437.38,-221 480.38,-221 480.38,-240.25"/>
<text text-anchor="middle" x="458.88" y="-226.75" font-family="Helvetica,sans-Serif" font-size="10.00">thread</text>
</a>
</g>
</g>
<!-- Node18&#45;&gt;Node21 -->
<g id="edge24_Node000018_Node000021" class="edge">
<title>Node18&#45;&gt;Node21</title>
<g id="a_edge24_Node000018_Node000021"><a xlink:title=" ">
<path fill="none" stroke="#63b8ff" d="M442.18,-276.08C444.71,-269.34 448.3,-259.77 451.51,-251.24"/>
<polygon fill="#63b8ff" stroke="#63b8ff" points="454.73,-252.62 454.97,-242.03 448.18,-250.16 454.73,-252.62"/>
</a>
</g>
</g>
<!-- Node22 -->
<g id="Node000022" class="node">
<title>Node22</title>
<g id="a_Node000022"><a xlink:title=" ">
<polygon fill="#e0e0e0" stroke="#999999" points="539.25,-240.25 498.5,-240.25 498.5,-221 539.25,-221 539.25,-240.25"/>
<text text-anchor="middle" x="518.88" y="-226.75" font-family="Helvetica,sans-Serif" font-size="10.00">future</text>
</a>
</g>
</g>
<!-- Node18&#45;&gt;Node22 -->
<g id="edge25_Node000018_Node000022" class="edge">
<title>Node18&#45;&gt;Node22</title>
<g id="a_edge25_Node000018_Node000022"><a xlink:title=" ">
<path fill="none" stroke="#63b8ff" d="M452.45,-275.84C464.28,-267.96 481.71,-256.36 495.75,-247.02"/>
<polygon fill="#63b8ff" stroke="#63b8ff" points="497.59,-250 503.98,-241.54 493.71,-244.17 497.59,-250"/>
</a>
</g>
</g>
<!-- Node19&#45;&gt;Node5 -->
<g id="edge22_Node000019_Node000005" class="edge">
<title>Node19&#45;&gt;Node5</title>
<g id="a_edge22_Node000019_Node000005"><a xlink:title=" ">
<path fill="none" stroke="#63b8ff" d="M389.29,-220.82C381.84,-195.39 360.14,-121.35 349.66,-85.62"/>
<polygon fill="#63b8ff" stroke="#63b8ff" points="353.07,-84.79 346.89,-76.17 346.35,-86.76 353.07,-84.79"/>
</a>
</g>
</g>
<!-- Node20 -->
<g id="Node000020" class="node">
<title>Node20</title>
<g id="a_Node000020"><a xlink:title=" ">
<polygon fill="#e0e0e0" stroke="#999999" points="363.88,-185 323.88,-185 323.88,-165.75 363.88,-165.75 363.88,-185"/>
<text text-anchor="middle" x="343.88" y="-171.5" font-family="Helvetica,sans-Serif" font-size="10.00">ctime</text>
</a>
</g>
</g>
<!-- Node19&#45;&gt;Node20 -->
<g id="edge23_Node000019_Node000020" class="edge">
<title>Node19&#45;&gt;Node20</title>
<g id="a_edge23_Node000019_Node000020"><a xlink:title=" ">
<path fill="none" stroke="#63b8ff" d="M383.95,-220.83C377.32,-213.48 367.66,-202.76 359.49,-193.69"/>
<polygon fill="#63b8ff" stroke="#63b8ff" points="362.28,-191.57 352.99,-186.48 357.08,-196.25 362.28,-191.57"/>
</a>
</g>
</g>
<!-- Node23&#45;&gt;Node5 -->
<g id="edge27_Node000023_Node000005" class="edge">
<title>Node23&#45;&gt;Node5</title>
<g id="a_edge27_Node000023_Node000005"><a xlink:title=" ">
<path fill="none" stroke="#63b8ff" d="M566.88,-331.12C566.88,-312.53 566.88,-268.55 566.88,-231.62 566.88,-231.62 566.88,-231.62 566.88,-174.38 566.88,-92.67 444.33,-72.48 380.93,-67.5"/>
<polygon fill="#63b8ff" stroke="#63b8ff" points="381.18,-64.01 370.97,-66.82 380.7,-70.99 381.18,-64.01"/>
</a>
</g>
</g>
<!-- Node24 -->
<g id="Node000024" class="node">
<title>Node24</title>
<g id="a_Node000024"><a xlink:title=" ">
<polygon fill="#e0e0e0" stroke="#999999" points="634.5,-295.5 595.25,-295.5 595.25,-276.25 634.5,-276.25 634.5,-295.5"/>
<text text-anchor="middle" x="614.88" y="-282" font-family="Helvetica,sans-Serif" font-size="10.00">utility</text>
</a>
</g>
</g>
<!-- Node23&#45;&gt;Node24 -->
<g id="edge28_Node000023_Node000024" class="edge">
<title>Node23&#45;&gt;Node24</title>
<g id="a_edge28_Node000023_Node000024"><a xlink:title=" ">
<path fill="none" stroke="#63b8ff" d="M574.8,-331.33C581.43,-323.98 591.09,-313.26 599.26,-304.19"/>
<polygon fill="#63b8ff" stroke="#63b8ff" points="601.67,-306.75 605.76,-296.98 596.47,-302.07 601.67,-306.75"/>
</a>
</g>
</g>
</g>
</svg>
