<?xml version="1.0" encoding="UTF-8" standalone="no"?>
<!DOCTYPE svg PUBLIC "-//W3C//DTD SVG 1.1//EN"
 "http://www.w3.org/Graphics/SVG/1.1/DTD/svg11.dtd">
<!-- Generated by graphviz version 10.0.1 (20240210.2158)
 -->
<!-- Title: /Users/hoff/Retro/virtualc64/Emulator/Base/MsgQueue.cpp Pages: 1 -->
<svg width="584pt" height="481pt"
 viewBox="0.00 0.00 584.38 480.50" xmlns="http://www.w3.org/2000/svg" xmlns:xlink="http://www.w3.org/1999/xlink">
<g id="graph0" class="graph" transform="scale(1 1) rotate(0) translate(4 476.5)">
<title>/Users/hoff/Retro/virtualc64/Emulator/Base/MsgQueue.cpp</title>
<!-- Node1 -->
<g id="Node000001" class="node">
<title>Node1</title>
<g id="a_Node000001"><a xlink:title=" ">
<polygon fill="#999999" stroke="#666666" points="217.75,-472.5 65.25,-472.5 65.25,-442 217.75,-442 217.75,-472.5"/>
<text text-anchor="start" x="73.25" y="-459" font-family="Helvetica,sans-Serif" font-size="10.00">/Users/hoff/Retro/virtualc64</text>
<text text-anchor="middle" x="141.5" y="-447.75" font-family="Helvetica,sans-Serif" font-size="10.00">/Emulator/Base/MsgQueue.cpp</text>
</a>
</g>
</g>
<!-- Node2 -->
<g id="Node000002" class="node">
<title>Node2</title>
<g id="a_Node000002"><a xlink:href="config_8h.html" target="_top" xlink:title=" ">
<polygon fill="white" stroke="#666666" points="127.75,-406 77.25,-406 77.25,-386.75 127.75,-386.75 127.75,-406"/>
<text text-anchor="middle" x="102.5" y="-392.5" font-family="Helvetica,sans-Serif" font-size="10.00">config.h</text>
</a>
</g>
</g>
<!-- Node1&#45;&gt;Node2 -->
<g id="edge1_Node000001_Node000002" class="edge">
<title>Node1&#45;&gt;Node2</title>
<g id="a_edge1_Node000001_Node000002"><a xlink:title=" ">
<path fill="none" stroke="#63b8ff" d="M131.86,-441.7C126.72,-433.94 120.34,-424.31 114.85,-416.01"/>
<polygon fill="#63b8ff" stroke="#63b8ff" points="117.79,-414.12 109.35,-407.71 111.95,-417.98 117.79,-414.12"/>
</a>
</g>
</g>
<!-- Node4 -->
<g id="Node000004" class="node">
<title>Node4</title>
<g id="a_Node000004"><a xlink:href="_msg_queue_8h.html" target="_top" xlink:title=" ">
<polygon fill="white" stroke="#666666" points="271.25,-406 199.75,-406 199.75,-386.75 271.25,-386.75 271.25,-406"/>
<text text-anchor="middle" x="235.5" y="-392.5" font-family="Helvetica,sans-Serif" font-size="10.00">MsgQueue.h</text>
</a>
</g>
</g>
<!-- Node1&#45;&gt;Node4 -->
<g id="edge3_Node000001_Node000004" class="edge">
<title>Node1&#45;&gt;Node4</title>
<g id="a_edge3_Node000001_Node000004"><a xlink:title=" ">
<path fill="none" stroke="#63b8ff" d="M164.74,-441.7C178.91,-432.82 197,-421.49 211.34,-412.51"/>
<polygon fill="#63b8ff" stroke="#63b8ff" points="213.11,-415.53 219.73,-407.25 209.39,-409.6 213.11,-415.53"/>
</a>
</g>
</g>
<!-- Node3 -->
<g id="Node000003" class="node">
<title>Node3</title>
<g id="a_Node000003"><a xlink:title=" ">
<polygon fill="#e0e0e0" stroke="#999999" points="73.12,-350.75 21.88,-350.75 21.88,-331.5 73.12,-331.5 73.12,-350.75"/>
<text text-anchor="middle" x="47.5" y="-337.25" font-family="Helvetica,sans-Serif" font-size="10.00">assert.h</text>
</a>
</g>
</g>
<!-- Node2&#45;&gt;Node3 -->
<g id="edge2_Node000002_Node000003" class="edge">
<title>Node2&#45;&gt;Node3</title>
<g id="a_edge2_Node000002_Node000003"><a xlink:title=" ">
<path fill="none" stroke="#63b8ff" d="M93.42,-386.58C85.66,-379.07 74.29,-368.06 64.8,-358.88"/>
<polygon fill="#63b8ff" stroke="#63b8ff" points="67.49,-356.6 57.87,-352.16 62.62,-361.63 67.49,-356.6"/>
</a>
</g>
</g>
<!-- Node5 -->
<g id="Node000005" class="node">
<title>Node5</title>
<g id="a_Node000005"><a xlink:href="_msg_queue_types_8h.html" target="_top" xlink:title=" ">
<polygon fill="white" stroke="#666666" points="328.38,-240.25 230.62,-240.25 230.62,-221 328.38,-221 328.38,-240.25"/>
<text text-anchor="middle" x="279.5" y="-226.75" font-family="Helvetica,sans-Serif" font-size="10.00">MsgQueueTypes.h</text>
</a>
</g>
</g>
<!-- Node4&#45;&gt;Node5 -->
<g id="edge4_Node000004_Node000005" class="edge">
<title>Node4&#45;&gt;Node5</title>
<g id="a_edge4_Node000004_Node000005"><a xlink:title=" ">
<path fill="none" stroke="#63b8ff" d="M248.7,-386.52C259.27,-378.58 273.31,-365.85 279.5,-350.75 292.86,-318.16 288.45,-276.21 283.99,-251.78"/>
<polygon fill="#63b8ff" stroke="#63b8ff" points="287.47,-251.33 282.05,-242.22 280.61,-252.72 287.47,-251.33"/>
</a>
</g>
</g>
<!-- Node13 -->
<g id="Node000013" class="node">
<title>Node13</title>
<g id="a_Node000013"><a xlink:href="_core_object_8h.html" target="_top" xlink:title=" ">
<polygon fill="white" stroke="#666666" points="410.38,-350.75 336.62,-350.75 336.62,-331.5 410.38,-331.5 410.38,-350.75"/>
<text text-anchor="middle" x="373.5" y="-337.25" font-family="Helvetica,sans-Serif" font-size="10.00">CoreObject.h</text>
</a>
</g>
</g>
<!-- Node4&#45;&gt;Node13 -->
<g id="edge12_Node000004_Node000013" class="edge">
<title>Node4&#45;&gt;Node13</title>
<g id="a_edge12_Node000004_Node000013"><a xlink:title=" ">
<path fill="none" stroke="#63b8ff" d="M258.91,-386.34C281.02,-377.81 314.42,-364.92 339.47,-355.26"/>
<polygon fill="#63b8ff" stroke="#63b8ff" points="340.49,-358.61 348.56,-351.75 337.97,-352.08 340.49,-358.61"/>
</a>
</g>
</g>
<!-- Node20 -->
<g id="Node000020" class="node">
<title>Node20</title>
<g id="a_Node000020"><a xlink:href="_synchronizable_8h.html" target="_top" xlink:title=" ">
<polygon fill="white" stroke="#666666" points="182,-350.75 91,-350.75 91,-331.5 182,-331.5 182,-350.75"/>
<text text-anchor="middle" x="136.5" y="-337.25" font-family="Helvetica,sans-Serif" font-size="10.00">Synchronizable.h</text>
</a>
</g>
</g>
<!-- Node4&#45;&gt;Node20 -->
<g id="edge22_Node000004_Node000020" class="edge">
<title>Node4&#45;&gt;Node20</title>
<g id="a_edge22_Node000004_Node000020"><a xlink:title=" ">
<path fill="none" stroke="#63b8ff" d="M218.71,-386.34C203.49,-378.16 180.8,-365.96 163.12,-356.44"/>
<polygon fill="#63b8ff" stroke="#63b8ff" points="165.17,-353.57 154.71,-351.92 161.86,-359.74 165.17,-353.57"/>
</a>
</g>
</g>
<!-- Node26 -->
<g id="Node000026" class="node">
<title>Node26</title>
<g id="a_Node000026"><a xlink:href="_ring_buffer_8h.html" target="_top" xlink:title=" ">
<polygon fill="white" stroke="#666666" points="270.5,-350.75 200.5,-350.75 200.5,-331.5 270.5,-331.5 270.5,-350.75"/>
<text text-anchor="middle" x="235.5" y="-337.25" font-family="Helvetica,sans-Serif" font-size="10.00">RingBuffer.h</text>
</a>
</g>
</g>
<!-- Node4&#45;&gt;Node26 -->
<g id="edge29_Node000004_Node000026" class="edge">
<title>Node4&#45;&gt;Node26</title>
<g id="a_edge29_Node000004_Node000026"><a xlink:title=" ">
<path fill="none" stroke="#63b8ff" d="M235.5,-386.58C235.5,-380.07 235.5,-370.92 235.5,-362.62"/>
<polygon fill="#63b8ff" stroke="#63b8ff" points="239,-362.62 235.5,-352.62 232,-362.62 239,-362.62"/>
</a>
</g>
</g>
<!-- Node6 -->
<g id="Node000006" class="node">
<title>Node6</title>
<g id="a_Node000006"><a xlink:href="_aliases_8h.html" target="_top" xlink:title=" ">
<polygon fill="white" stroke="#666666" points="388.75,-185 332.25,-185 332.25,-165.75 388.75,-165.75 388.75,-185"/>
<text text-anchor="middle" x="360.5" y="-171.5" font-family="Helvetica,sans-Serif" font-size="10.00">Aliases.h</text>
</a>
</g>
</g>
<!-- Node5&#45;&gt;Node6 -->
<g id="edge5_Node000005_Node000006" class="edge">
<title>Node5&#45;&gt;Node6</title>
<g id="a_edge5_Node000005_Node000006"><a xlink:title=" ">
<path fill="none" stroke="#63b8ff" d="M293.24,-220.59C305.23,-212.71 322.87,-201.11 337.08,-191.77"/>
<polygon fill="#63b8ff" stroke="#63b8ff" points="338.99,-194.7 345.43,-186.28 335.15,-188.85 338.99,-194.7"/>
</a>
</g>
</g>
<!-- Node12 -->
<g id="Node000012" class="node">
<title>Node12</title>
<g id="a_Node000012"><a xlink:href="_reflection_8h.html" target="_top" xlink:title=" ">
<polygon fill="white" stroke="#666666" points="313.75,-185 245.25,-185 245.25,-165.75 313.75,-165.75 313.75,-185"/>
<text text-anchor="middle" x="279.5" y="-171.5" font-family="Helvetica,sans-Serif" font-size="10.00">Reflection.h</text>
</a>
</g>
</g>
<!-- Node5&#45;&gt;Node12 -->
<g id="edge11_Node000005_Node000012" class="edge">
<title>Node5&#45;&gt;Node12</title>
<g id="a_edge11_Node000005_Node000012"><a xlink:title=" ">
<path fill="none" stroke="#63b8ff" d="M279.5,-220.83C279.5,-214.32 279.5,-205.17 279.5,-196.87"/>
<polygon fill="#63b8ff" stroke="#63b8ff" points="283,-196.87 279.5,-186.87 276,-196.87 283,-196.87"/>
</a>
</g>
</g>
<!-- Node7 -->
<g id="Node000007" class="node">
<title>Node7</title>
<g id="a_Node000007"><a xlink:href="_macros_8h.html" target="_top" xlink:title=" ">
<polygon fill="white" stroke="#666666" points="388.75,-129.75 332.25,-129.75 332.25,-110.5 388.75,-110.5 388.75,-129.75"/>
<text text-anchor="middle" x="360.5" y="-116.25" font-family="Helvetica,sans-Serif" font-size="10.00">Macros.h</text>
</a>
</g>
</g>
<!-- Node6&#45;&gt;Node7 -->
<g id="edge6_Node000006_Node000007" class="edge">
<title>Node6&#45;&gt;Node7</title>
<g id="a_edge6_Node000006_Node000007"><a xlink:title=" ">
<path fill="none" stroke="#63b8ff" d="M360.5,-165.58C360.5,-159.07 360.5,-149.92 360.5,-141.62"/>
<polygon fill="#63b8ff" stroke="#63b8ff" points="364,-141.62 360.5,-131.62 357,-141.62 364,-141.62"/>
</a>
</g>
</g>
<!-- Node8 -->
<g id="Node000008" class="node">
<title>Node8</title>
<g id="a_Node000008"><a xlink:href="_types_8h.html" target="_top" xlink:title=" ">
<polygon fill="white" stroke="#666666" points="306.75,-74.5 256.25,-74.5 256.25,-55.25 306.75,-55.25 306.75,-74.5"/>
<text text-anchor="middle" x="281.5" y="-61" font-family="Helvetica,sans-Serif" font-size="10.00">Types.h</text>
</a>
</g>
</g>
<!-- Node7&#45;&gt;Node8 -->
<g id="edge7_Node000007_Node000008" class="edge">
<title>Node7&#45;&gt;Node8</title>
<g id="a_edge7_Node000007_Node000008"><a xlink:title=" ">
<path fill="none" stroke="#63b8ff" d="M347.1,-110.09C335.41,-102.21 318.2,-90.61 304.34,-81.27"/>
<polygon fill="#63b8ff" stroke="#63b8ff" points="306.47,-78.49 296.22,-75.8 302.56,-84.29 306.47,-78.49"/>
</a>
</g>
</g>
<!-- Node9 -->
<g id="Node000009" class="node">
<title>Node9</title>
<g id="a_Node000009"><a xlink:title=" ">
<polygon fill="#e0e0e0" stroke="#999999" points="239,-19.25 172,-19.25 172,0 239,0 239,-19.25"/>
<text text-anchor="middle" x="205.5" y="-5.75" font-family="Helvetica,sans-Serif" font-size="10.00">sys/types.h</text>
</a>
</g>
</g>
<!-- Node8&#45;&gt;Node9 -->
<g id="edge8_Node000008_Node000009" class="edge">
<title>Node8&#45;&gt;Node9</title>
<g id="a_edge8_Node000008_Node000009"><a xlink:title=" ">
<path fill="none" stroke="#63b8ff" d="M268.61,-54.84C257.47,-47.04 241.13,-35.59 227.86,-26.29"/>
<polygon fill="#63b8ff" stroke="#63b8ff" points="229.89,-23.44 219.7,-20.57 225.88,-29.18 229.89,-23.44"/>
</a>
</g>
</g>
<!-- Node10 -->
<g id="Node000010" class="node">
<title>Node10</title>
<g id="a_Node000010"><a xlink:title=" ">
<polygon fill="#e0e0e0" stroke="#999999" points="305.62,-19.25 257.38,-19.25 257.38,0 305.62,0 305.62,-19.25"/>
<text text-anchor="middle" x="281.5" y="-5.75" font-family="Helvetica,sans-Serif" font-size="10.00">stdint.h</text>
</a>
</g>
</g>
<!-- Node8&#45;&gt;Node10 -->
<g id="edge9_Node000008_Node000010" class="edge">
<title>Node8&#45;&gt;Node10</title>
<g id="a_edge9_Node000008_Node000010"><a xlink:title=" ">
<path fill="none" stroke="#63b8ff" d="M281.5,-55.08C281.5,-48.57 281.5,-39.42 281.5,-31.12"/>
<polygon fill="#63b8ff" stroke="#63b8ff" points="285,-31.12 281.5,-21.12 278,-31.12 285,-31.12"/>
</a>
</g>
</g>
<!-- Node11 -->
<g id="Node000011" class="node">
<title>Node11</title>
<g id="a_Node000011"><a xlink:title=" ">
<polygon fill="#e0e0e0" stroke="#999999" points="379.38,-19.25 323.62,-19.25 323.62,0 379.38,0 379.38,-19.25"/>
<text text-anchor="middle" x="351.5" y="-5.75" font-family="Helvetica,sans-Serif" font-size="10.00">stdbool.h</text>
</a>
</g>
</g>
<!-- Node8&#45;&gt;Node11 -->
<g id="edge10_Node000008_Node000011" class="edge">
<title>Node8&#45;&gt;Node11</title>
<g id="a_edge10_Node000008_Node000011"><a xlink:title=" ">
<path fill="none" stroke="#63b8ff" d="M293.37,-54.84C303.59,-47.07 318.57,-35.67 330.76,-26.4"/>
<polygon fill="#63b8ff" stroke="#63b8ff" points="332.76,-29.28 338.6,-20.44 328.52,-23.71 332.76,-29.28"/>
</a>
</g>
</g>
<!-- Node14 -->
<g id="Node000014" class="node">
<title>Node14</title>
<g id="a_Node000014"><a xlink:href="_error_8h.html" target="_top" xlink:title=" ">
<polygon fill="white" stroke="#666666" points="476.75,-295.5 432.25,-295.5 432.25,-276.25 476.75,-276.25 476.75,-295.5"/>
<text text-anchor="middle" x="454.5" y="-282" font-family="Helvetica,sans-Serif" font-size="10.00">Error.h</text>
</a>
</g>
</g>
<!-- Node13&#45;&gt;Node14 -->
<g id="edge13_Node000013_Node000014" class="edge">
<title>Node13&#45;&gt;Node14</title>
<g id="a_edge13_Node000013_Node000014"><a xlink:title=" ">
<path fill="none" stroke="#63b8ff" d="M387.24,-331.09C399.23,-323.21 416.87,-311.61 431.08,-302.27"/>
<polygon fill="#63b8ff" stroke="#63b8ff" points="432.99,-305.2 439.43,-296.78 429.15,-299.35 432.99,-305.2"/>
</a>
</g>
</g>
<!-- Node18 -->
<g id="Node000018" class="node">
<title>Node18</title>
<g id="a_Node000018"><a xlink:href="_inspectable_8h.html" target="_top" xlink:title=" ">
<polygon fill="white" stroke="#666666" points="410.75,-295.5 336.25,-295.5 336.25,-276.25 410.75,-276.25 410.75,-295.5"/>
<text text-anchor="middle" x="373.5" y="-282" font-family="Helvetica,sans-Serif" font-size="10.00">Inspectable.h</text>
</a>
</g>
</g>
<!-- Node13&#45;&gt;Node18 -->
<g id="edge20_Node000013_Node000018" class="edge">
<title>Node13&#45;&gt;Node18</title>
<g id="a_edge20_Node000013_Node000018"><a xlink:title=" ">
<path fill="none" stroke="#63b8ff" d="M373.5,-331.33C373.5,-324.82 373.5,-315.67 373.5,-307.37"/>
<polygon fill="#63b8ff" stroke="#63b8ff" points="377,-307.37 373.5,-297.37 370,-307.37 377,-307.37"/>
</a>
</g>
</g>
<!-- Node15 -->
<g id="Node000015" class="node">
<title>Node15</title>
<g id="a_Node000015"><a xlink:href="_error_types_8h.html" target="_top" xlink:title=" ">
<polygon fill="white" stroke="#666666" points="490.25,-240.25 418.75,-240.25 418.75,-221 490.25,-221 490.25,-240.25"/>
<text text-anchor="middle" x="454.5" y="-226.75" font-family="Helvetica,sans-Serif" font-size="10.00">ErrorTypes.h</text>
</a>
</g>
</g>
<!-- Node14&#45;&gt;Node15 -->
<g id="edge14_Node000014_Node000015" class="edge">
<title>Node14&#45;&gt;Node15</title>
<g id="a_edge14_Node000014_Node000015"><a xlink:title=" ">
<path fill="none" stroke="#63b8ff" d="M454.5,-276.08C454.5,-269.57 454.5,-260.42 454.5,-252.12"/>
<polygon fill="#63b8ff" stroke="#63b8ff" points="458,-252.12 454.5,-242.12 451,-252.12 458,-252.12"/>
</a>
</g>
</g>
<!-- Node16 -->
<g id="Node000016" class="node">
<title>Node16</title>
<g id="a_Node000016"><a xlink:href="_exception_8h.html" target="_top" xlink:title=" ">
<polygon fill="white" stroke="#666666" points="576.38,-240.25 508.62,-240.25 508.62,-221 576.38,-221 576.38,-240.25"/>
<text text-anchor="middle" x="542.5" y="-226.75" font-family="Helvetica,sans-Serif" font-size="10.00">Exception.h</text>
</a>
</g>
</g>
<!-- Node14&#45;&gt;Node16 -->
<g id="edge17_Node000014_Node000016" class="edge">
<title>Node14&#45;&gt;Node16</title>
<g id="a_edge17_Node000014_Node000016"><a xlink:title=" ">
<path fill="none" stroke="#63b8ff" d="M469.43,-275.84C482.7,-267.81 502.37,-255.91 517.95,-246.48"/>
<polygon fill="#63b8ff" stroke="#63b8ff" points="519.46,-249.66 526.2,-241.49 515.84,-243.67 519.46,-249.66"/>
</a>
</g>
</g>
<!-- Node15&#45;&gt;Node6 -->
<g id="edge15_Node000015_Node000006" class="edge">
<title>Node15&#45;&gt;Node6</title>
<g id="a_edge15_Node000015_Node000006"><a xlink:title=" ">
<path fill="none" stroke="#63b8ff" d="M438.55,-220.59C424.24,-212.48 402.97,-200.43 386.25,-190.96"/>
<polygon fill="#63b8ff" stroke="#63b8ff" points="388.27,-188.08 377.84,-186.2 384.82,-194.17 388.27,-188.08"/>
</a>
</g>
</g>
<!-- Node15&#45;&gt;Node12 -->
<g id="edge16_Node000015_Node000012" class="edge">
<title>Node15&#45;&gt;Node12</title>
<g id="a_edge16_Node000015_Node000012"><a xlink:title=" ">
<path fill="none" stroke="#63b8ff" d="M424.81,-220.59C396.03,-211.83 352.13,-198.48 320.12,-188.73"/>
<polygon fill="#63b8ff" stroke="#63b8ff" points="321.37,-185.46 310.78,-185.89 319.33,-192.15 321.37,-185.46"/>
</a>
</g>
</g>
<!-- Node16&#45;&gt;Node8 -->
<g id="edge18_Node000016_Node000008" class="edge">
<title>Node16&#45;&gt;Node8</title>
<g id="a_edge18_Node000016_Node000008"><a xlink:title=" ">
<path fill="none" stroke="#63b8ff" d="M533.78,-220.7C512.34,-199.19 454.65,-143.79 397.5,-110.5 372.34,-95.85 341.48,-84.24 317.92,-76.54"/>
<polygon fill="#63b8ff" stroke="#63b8ff" points="319.03,-73.22 308.44,-73.54 316.91,-79.9 319.03,-73.22"/>
</a>
</g>
</g>
<!-- Node17 -->
<g id="Node000017" class="node">
<title>Node17</title>
<g id="a_Node000017"><a xlink:title=" ">
<polygon fill="#e0e0e0" stroke="#999999" points="571.5,-185 513.5,-185 513.5,-165.75 571.5,-165.75 571.5,-185"/>
<text text-anchor="middle" x="542.5" y="-171.5" font-family="Helvetica,sans-Serif" font-size="10.00">exception</text>
</a>
</g>
</g>
<!-- Node16&#45;&gt;Node17 -->
<g id="edge19_Node000016_Node000017" class="edge">
<title>Node16&#45;&gt;Node17</title>
<g id="a_edge19_Node000016_Node000017"><a xlink:title=" ">
<path fill="none" stroke="#63b8ff" d="M542.5,-220.83C542.5,-214.32 542.5,-205.17 542.5,-196.87"/>
<polygon fill="#63b8ff" stroke="#63b8ff" points="546,-196.87 542.5,-186.87 539,-196.87 546,-196.87"/>
</a>
</g>
</g>
<!-- Node19 -->
<g id="Node000019" class="node">
<title>Node19</title>
<g id="a_Node000019"><a xlink:title=" ">
<polygon fill="#e0e0e0" stroke="#999999" points="400.25,-240.25 346.75,-240.25 346.75,-221 400.25,-221 400.25,-240.25"/>
<text text-anchor="middle" x="373.5" y="-226.75" font-family="Helvetica,sans-Serif" font-size="10.00">iostream</text>
</a>
</g>
</g>
<!-- Node18&#45;&gt;Node19 -->
<g id="edge21_Node000018_Node000019" class="edge">
<title>Node18&#45;&gt;Node19</title>
<g id="a_edge21_Node000018_Node000019"><a xlink:title=" ">
<path fill="none" stroke="#63b8ff" d="M373.5,-276.08C373.5,-269.57 373.5,-260.42 373.5,-252.12"/>
<polygon fill="#63b8ff" stroke="#63b8ff" points="377,-252.12 373.5,-242.12 370,-252.12 377,-252.12"/>
</a>
</g>
</g>
<!-- Node21 -->
<g id="Node000021" class="node">
<title>Node21</title>
<g id="a_Node000021"><a xlink:href="_concurrency_8h.html" target="_top" xlink:title=" ">
<polygon fill="white" stroke="#666666" points="151.62,-295.5 73.38,-295.5 73.38,-276.25 151.62,-276.25 151.62,-295.5"/>
<text text-anchor="middle" x="112.5" y="-282" font-family="Helvetica,sans-Serif" font-size="10.00">Concurrency.h</text>
</a>
</g>
</g>
<!-- Node20&#45;&gt;Node21 -->
<g id="edge23_Node000020_Node000021" class="edge">
<title>Node20&#45;&gt;Node21</title>
<g id="a_edge23_Node000020_Node000021"><a xlink:title=" ">
<path fill="none" stroke="#63b8ff" d="M132.54,-331.33C129.46,-324.51 125.09,-314.81 121.21,-306.2"/>
<polygon fill="#63b8ff" stroke="#63b8ff" points="124.47,-304.92 117.17,-297.24 118.09,-307.79 124.47,-304.92"/>
</a>
</g>
</g>
<!-- Node22 -->
<g id="Node000022" class="node">
<title>Node22</title>
<g id="a_Node000022"><a xlink:href="_chrono_8h.html" target="_top" xlink:title=" ">
<polygon fill="white" stroke="#666666" points="116.38,-240.25 60.62,-240.25 60.62,-221 116.38,-221 116.38,-240.25"/>
<text text-anchor="middle" x="88.5" y="-226.75" font-family="Helvetica,sans-Serif" font-size="10.00">Chrono.h</text>
</a>
</g>
</g>
<!-- Node21&#45;&gt;Node22 -->
<g id="edge24_Node000021_Node000022" class="edge">
<title>Node21&#45;&gt;Node22</title>
<g id="a_edge24_Node000021_Node000022"><a xlink:title=" ">
<path fill="none" stroke="#63b8ff" d="M108.54,-276.08C105.46,-269.26 101.09,-259.56 97.21,-250.95"/>
<polygon fill="#63b8ff" stroke="#63b8ff" points="100.47,-249.67 93.17,-241.99 94.09,-252.54 100.47,-249.67"/>
</a>
</g>
</g>
<!-- Node24 -->
<g id="Node000024" class="node">
<title>Node24</title>
<g id="a_Node000024"><a xlink:title=" ">
<polygon fill="#e0e0e0" stroke="#999999" points="43,-240.25 0,-240.25 0,-221 43,-221 43,-240.25"/>
<text text-anchor="middle" x="21.5" y="-226.75" font-family="Helvetica,sans-Serif" font-size="10.00">thread</text>
</a>
</g>
</g>
<!-- Node21&#45;&gt;Node24 -->
<g id="edge27_Node000021_Node000024" class="edge">
<title>Node21&#45;&gt;Node24</title>
<g id="a_edge27_Node000021_Node000024"><a xlink:title=" ">
<path fill="none" stroke="#63b8ff" d="M97.06,-275.84C83.34,-267.81 63,-255.91 46.88,-246.48"/>
<polygon fill="#63b8ff" stroke="#63b8ff" points="48.72,-243.5 38.32,-241.47 45.18,-249.54 48.72,-243.5"/>
</a>
</g>
</g>
<!-- Node25 -->
<g id="Node000025" class="node">
<title>Node25</title>
<g id="a_Node000025"><a xlink:title=" ">
<polygon fill="#e0e0e0" stroke="#999999" points="174.88,-240.25 134.12,-240.25 134.12,-221 174.88,-221 174.88,-240.25"/>
<text text-anchor="middle" x="154.5" y="-226.75" font-family="Helvetica,sans-Serif" font-size="10.00">future</text>
</a>
</g>
</g>
<!-- Node21&#45;&gt;Node25 -->
<g id="edge28_Node000021_Node000025" class="edge">
<title>Node21&#45;&gt;Node25</title>
<g id="a_edge28_Node000021_Node000025"><a xlink:title=" ">
<path fill="none" stroke="#63b8ff" d="M119.44,-276.08C125.12,-268.88 133.34,-258.46 140.39,-249.51"/>
<polygon fill="#63b8ff" stroke="#63b8ff" points="143.03,-251.82 146.48,-241.8 137.54,-247.48 143.03,-251.82"/>
</a>
</g>
</g>
<!-- Node22&#45;&gt;Node8 -->
<g id="edge25_Node000022_Node000008" class="edge">
<title>Node22&#45;&gt;Node8</title>
<g id="a_edge25_Node000022_Node000008"><a xlink:title=" ">
<path fill="none" stroke="#63b8ff" d="M89.28,-220.53C90.82,-207.32 95.22,-182.57 107.5,-165.75 141.69,-118.92 204.98,-90.77 245.08,-76.8"/>
<polygon fill="#63b8ff" stroke="#63b8ff" points="246.17,-80.12 254.54,-73.63 243.95,-73.49 246.17,-80.12"/>
</a>
</g>
</g>
<!-- Node23 -->
<g id="Node000023" class="node">
<title>Node23</title>
<g id="a_Node000023"><a xlink:title=" ">
<polygon fill="#e0e0e0" stroke="#999999" points="156.5,-185 116.5,-185 116.5,-165.75 156.5,-165.75 156.5,-185"/>
<text text-anchor="middle" x="136.5" y="-171.5" font-family="Helvetica,sans-Serif" font-size="10.00">ctime</text>
</a>
</g>
</g>
<!-- Node22&#45;&gt;Node23 -->
<g id="edge26_Node000022_Node000023" class="edge">
<title>Node22&#45;&gt;Node23</title>
<g id="a_edge26_Node000022_Node000023"><a xlink:title=" ">
<path fill="none" stroke="#63b8ff" d="M96.43,-220.83C103.06,-213.48 112.72,-202.76 120.89,-193.69"/>
<polygon fill="#63b8ff" stroke="#63b8ff" points="123.29,-196.25 127.39,-186.48 118.09,-191.57 123.29,-196.25"/>
</a>
</g>
</g>
<!-- Node26&#45;&gt;Node8 -->
<g id="edge30_Node000026_Node000008" class="edge">
<title>Node26&#45;&gt;Node8</title>
<g id="a_edge30_Node000026_Node000008"><a xlink:title=" ">
<path fill="none" stroke="#63b8ff" d="M230.77,-331.12C221.65,-312.88 202.5,-270.02 202.5,-231.62 202.5,-231.62 202.5,-231.62 202.5,-174.38 202.5,-135.46 236.12,-101.15 259.49,-81.99"/>
<polygon fill="#63b8ff" stroke="#63b8ff" points="261.55,-84.82 267.26,-75.9 257.23,-79.31 261.55,-84.82"/>
</a>
</g>
</g>
<!-- Node27 -->
<g id="Node000027" class="node">
<title>Node27</title>
<g id="a_Node000027"><a xlink:title=" ">
<polygon fill="#e0e0e0" stroke="#999999" points="270.12,-295.5 230.88,-295.5 230.88,-276.25 270.12,-276.25 270.12,-295.5"/>
<text text-anchor="middle" x="250.5" y="-282" font-family="Helvetica,sans-Serif" font-size="10.00">utility</text>
</a>
</g>
</g>
<!-- Node26&#45;&gt;Node27 -->
<g id="edge31_Node000026_Node000027" class="edge">
<title>Node26&#45;&gt;Node27</title>
<g id="a_edge31_Node000026_Node000027"><a xlink:title=" ">
<path fill="none" stroke="#63b8ff" d="M237.98,-331.33C239.85,-324.67 242.51,-315.24 244.89,-306.78"/>
<polygon fill="#63b8ff" stroke="#63b8ff" points="248.22,-307.89 247.56,-297.32 241.48,-305.99 248.22,-307.89"/>
</a>
</g>
</g>
</g>
</svg>
