<?xml version="1.0" encoding="UTF-8" standalone="no"?>
<!DOCTYPE svg PUBLIC "-//W3C//DTD SVG 1.1//EN"
 "http://www.w3.org/Graphics/SVG/1.1/DTD/svg11.dtd">
<!-- Generated by graphviz version 10.0.1 (20240210.2158)
 -->
<!-- Title: /Users/hoff/Retro/virtualc64/Emulator/Base/MsgQueueTypes.h Pages: 1 -->
<svg width="329pt" height="305pt"
 viewBox="0.00 0.00 328.62 304.50" xmlns="http://www.w3.org/2000/svg" xmlns:xlink="http://www.w3.org/1999/xlink">
<g id="graph0" class="graph" transform="scale(1 1) rotate(0) translate(4 300.5)">
<title>/Users/hoff/Retro/virtualc64/Emulator/Base/MsgQueueTypes.h</title>
<!-- Node1 -->
<g id="Node000001" class="node">
<title>Node1</title>
<g id="a_Node000001"><a xlink:title=" ">
<polygon fill="#999999" stroke="#666666" points="253.12,-296.5 84.88,-296.5 84.88,-266 253.12,-266 253.12,-296.5"/>
<text text-anchor="start" x="92.88" y="-283" font-family="Helvetica,sans-Serif" font-size="10.00">/Users/hoff/Retro/virtualc64</text>
<text text-anchor="middle" x="169" y="-271.75" font-family="Helvetica,sans-Serif" font-size="10.00">/Emulator/Base/MsgQueueTypes.h</text>
</a>
</g>
</g>
<!-- Node2 -->
<g id="Node000002" class="node">
<title>Node2</title>
<g id="a_Node000002"><a xlink:href="_msg_queue_8h_source.html" target="_top" xlink:title=" ">
<polygon fill="white" stroke="#666666" points="160,-230 18,-230 18,-199.5 160,-199.5 160,-230"/>
<text text-anchor="start" x="26" y="-216.5" font-family="Helvetica,sans-Serif" font-size="10.00">/Users/hoff/Retro/virtualc64</text>
<text text-anchor="middle" x="89" y="-205.25" font-family="Helvetica,sans-Serif" font-size="10.00">/Emulator/Base/MsgQueue.h</text>
</a>
</g>
</g>
<!-- Node1&#45;&gt;Node2 -->
<g id="edge1_Node000001_Node000002" class="edge">
<title>Node1&#45;&gt;Node2</title>
<g id="a_edge1_Node000001_Node000002"><a xlink:title=" ">
<path fill="none" stroke="#63b8ff" d="M142.05,-258.52C130.53,-249.23 117.4,-238.65 107.08,-230.33"/>
<polygon fill="#63b8ff" stroke="#63b8ff" points="139.69,-261.11 149.67,-264.66 144.08,-255.66 139.69,-261.11"/>
</a>
</g>
</g>
<!-- Node5 -->
<g id="Node000005" class="node">
<title>Node5</title>
<g id="a_Node000005"><a xlink:href="_virtual_c64_types_8h.html" target="_top" xlink:title=" ">
<polygon fill="white" stroke="#666666" points="320.62,-230 179.38,-230 179.38,-199.5 320.62,-199.5 320.62,-230"/>
<text text-anchor="start" x="187.38" y="-216.5" font-family="Helvetica,sans-Serif" font-size="10.00">/Users/hoff/Retro/virtualc64</text>
<text text-anchor="middle" x="250" y="-205.25" font-family="Helvetica,sans-Serif" font-size="10.00">/Emulator/VirtualC64Types.h</text>
</a>
</g>
</g>
<!-- Node1&#45;&gt;Node5 -->
<g id="edge4_Node000001_Node000005" class="edge">
<title>Node1&#45;&gt;Node5</title>
<g id="a_edge4_Node000001_Node000005"><a xlink:title=" ">
<path fill="none" stroke="#63b8ff" d="M196.29,-258.52C207.95,-249.23 221.25,-238.65 231.69,-230.33"/>
<polygon fill="#63b8ff" stroke="#63b8ff" points="194.21,-255.7 188.56,-264.67 198.57,-261.18 194.21,-255.7"/>
</a>
</g>
</g>
<!-- Node3 -->
<g id="Node000003" class="node">
<title>Node3</title>
<g id="a_Node000003"><a xlink:href="_c64_8h_source.html" target="_top" xlink:title=" ">
<polygon fill="white" stroke="#666666" points="159.88,-163.5 14.12,-163.5 14.12,-133 159.88,-133 159.88,-163.5"/>
<text text-anchor="start" x="22.12" y="-150" font-family="Helvetica,sans-Serif" font-size="10.00">/Users/hoff/Retro/virtualc64</text>
<text text-anchor="middle" x="87" y="-138.75" font-family="Helvetica,sans-Serif" font-size="10.00">/Emulator/Components/C64.h</text>
</a>
</g>
</g>
<!-- Node2&#45;&gt;Node3 -->
<g id="edge2_Node000002_Node000003" class="edge">
<title>Node2&#45;&gt;Node3</title>
<g id="a_edge2_Node000002_Node000003"><a xlink:title=" ">
<path fill="none" stroke="#63b8ff" d="M88.2,-187.81C87.94,-179.64 87.67,-170.91 87.45,-163.83"/>
<polygon fill="#63b8ff" stroke="#63b8ff" points="84.69,-187.71 88.5,-197.6 91.69,-187.5 84.69,-187.71"/>
</a>
</g>
</g>
<!-- Node4 -->
<g id="Node000004" class="node">
<title>Node4</title>
<g id="a_Node000004"><a xlink:href="_emulator_8h_source.html" target="_top" xlink:title=" ">
<polygon fill="white" stroke="#666666" points="166,-97 0,-97 0,-66.5 166,-66.5 166,-97"/>
<text text-anchor="start" x="8" y="-83.5" font-family="Helvetica,sans-Serif" font-size="10.00">/Users/hoff/Retro/virtualc64</text>
<text text-anchor="middle" x="83" y="-72.25" font-family="Helvetica,sans-Serif" font-size="10.00">/Emulator/Components/Emulator.h</text>
</a>
</g>
</g>
<!-- Node3&#45;&gt;Node4 -->
<g id="edge3_Node000003_Node000004" class="edge">
<title>Node3&#45;&gt;Node4</title>
<g id="a_edge3_Node000003_Node000004"><a xlink:title=" ">
<path fill="none" stroke="#63b8ff" d="M85.39,-121.31C84.88,-113.14 84.34,-104.41 83.9,-97.33"/>
<polygon fill="#63b8ff" stroke="#63b8ff" points="81.89,-121.34 86,-131.1 88.87,-120.91 81.89,-121.34"/>
</a>
</g>
</g>
<!-- Node6 -->
<g id="Node000006" class="node">
<title>Node6</title>
<g id="a_Node000006"><a xlink:href="_virtual_c64_8h.html" target="_top" xlink:title=" ">
<polygon fill="white" stroke="#666666" points="319.38,-163.5 182.62,-163.5 182.62,-133 319.38,-133 319.38,-163.5"/>
<text text-anchor="start" x="190.62" y="-150" font-family="Helvetica,sans-Serif" font-size="10.00">/Users/hoff/Retro/virtualc64</text>
<text text-anchor="middle" x="251" y="-138.75" font-family="Helvetica,sans-Serif" font-size="10.00">/Emulator/VirtualC64.h</text>
</a>
</g>
</g>
<!-- Node5&#45;&gt;Node6 -->
<g id="edge5_Node000005_Node000006" class="edge">
<title>Node5&#45;&gt;Node6</title>
<g id="a_edge5_Node000005_Node000006"><a xlink:title=" ">
<path fill="none" stroke="#63b8ff" d="M250.4,-187.81C250.53,-179.64 250.66,-170.91 250.77,-163.83"/>
<polygon fill="#63b8ff" stroke="#63b8ff" points="246.91,-187.55 250.25,-197.6 253.91,-187.66 246.91,-187.55"/>
</a>
</g>
</g>
<!-- Node7 -->
<g id="Node000007" class="node">
<title>Node7</title>
<g id="a_Node000007"><a xlink:href="_headless_8h_source.html" target="_top" xlink:title=" ">
<polygon fill="white" stroke="#666666" points="320.38,-97 183.62,-97 183.62,-66.5 320.38,-66.5 320.38,-97"/>
<text text-anchor="start" x="191.62" y="-83.5" font-family="Helvetica,sans-Serif" font-size="10.00">/Users/hoff/Retro/virtualc64</text>
<text text-anchor="middle" x="252" y="-72.25" font-family="Helvetica,sans-Serif" font-size="10.00">/Emulator/Headless.h</text>
</a>
</g>
</g>
<!-- Node6&#45;&gt;Node7 -->
<g id="edge6_Node000006_Node000007" class="edge">
<title>Node6&#45;&gt;Node7</title>
<g id="a_edge6_Node000006_Node000007"><a xlink:title=" ">
<path fill="none" stroke="#63b8ff" d="M251.4,-121.31C251.53,-113.14 251.66,-104.41 251.77,-97.33"/>
<polygon fill="#63b8ff" stroke="#63b8ff" points="247.91,-121.05 251.25,-131.1 254.91,-121.16 247.91,-121.05"/>
</a>
</g>
</g>
<!-- Node8 -->
<g id="Node000008" class="node">
<title>Node8</title>
<g id="a_Node000008"><a xlink:href="_headless_8cpp.html" target="_top" xlink:title=" ">
<polygon fill="white" stroke="#666666" points="320.38,-30.5 183.62,-30.5 183.62,0 320.38,0 320.38,-30.5"/>
<text text-anchor="start" x="191.62" y="-17" font-family="Helvetica,sans-Serif" font-size="10.00">/Users/hoff/Retro/virtualc64</text>
<text text-anchor="middle" x="252" y="-5.75" font-family="Helvetica,sans-Serif" font-size="10.00">/Emulator/Headless.cpp</text>
</a>
</g>
</g>
<!-- Node7&#45;&gt;Node8 -->
<g id="edge7_Node000007_Node000008" class="edge">
<title>Node7&#45;&gt;Node8</title>
<g id="a_edge7_Node000007_Node000008"><a xlink:title=" ">
<path fill="none" stroke="#63b8ff" d="M252,-54.81C252,-46.64 252,-37.91 252,-30.83"/>
<polygon fill="#63b8ff" stroke="#63b8ff" points="248.5,-54.6 252,-64.6 255.5,-54.6 248.5,-54.6"/>
</a>
</g>
</g>
</g>
</svg>
