<?xml version="1.0" encoding="UTF-8" standalone="no"?>
<!DOCTYPE svg PUBLIC "-//W3C//DTD SVG 1.1//EN"
 "http://www.w3.org/Graphics/SVG/1.1/DTD/svg11.dtd">
<!-- Generated by graphviz version 10.0.1 (20240210.2158)
 -->
<!-- Title: /Users/hoff/Retro/virtualc64/Emulator/Components/VICII/Recorder/NamedPipe.cpp Pages: 1 -->
<svg width="753pt" height="271pt"
 viewBox="0.00 0.00 753.38 270.75" xmlns="http://www.w3.org/2000/svg" xmlns:xlink="http://www.w3.org/1999/xlink">
<g id="graph0" class="graph" transform="scale(1 1) rotate(0) translate(4 266.75)">
<title>/Users/hoff/Retro/virtualc64/Emulator/Components/VICII/Recorder/NamedPipe.cpp</title>
<!-- Node1 -->
<g id="Node000001" class="node">
<title>Node1</title>
<g id="a_Node000001"><a xlink:title=" ">
<polygon fill="#999999" stroke="#666666" points="332,-262.75 189.25,-262.75 189.25,-221 332,-221 332,-262.75"/>
<text text-anchor="start" x="197.25" y="-249.25" font-family="Helvetica,sans-Serif" font-size="10.00">/Users/hoff/Retro/virtualc64</text>
<text text-anchor="start" x="197.25" y="-238" font-family="Helvetica,sans-Serif" font-size="10.00">/Emulator/Components/VICII</text>
<text text-anchor="middle" x="260.62" y="-226.75" font-family="Helvetica,sans-Serif" font-size="10.00">/Recorder/NamedPipe.cpp</text>
</a>
</g>
</g>
<!-- Node2 -->
<g id="Node000002" class="node">
<title>Node2</title>
<g id="a_Node000002"><a xlink:href="config_8h.html" target="_top" xlink:title=" ">
<polygon fill="white" stroke="#666666" points="111.88,-185 61.38,-185 61.38,-165.75 111.88,-165.75 111.88,-185"/>
<text text-anchor="middle" x="86.62" y="-171.5" font-family="Helvetica,sans-Serif" font-size="10.00">config.h</text>
</a>
</g>
</g>
<!-- Node1&#45;&gt;Node2 -->
<g id="edge1_Node000001_Node000002" class="edge">
<title>Node1&#45;&gt;Node2</title>
<g id="a_edge1_Node000001_Node000002"><a xlink:title=" ">
<path fill="none" stroke="#63b8ff" d="M206.05,-220.64C178.39,-210.39 145.63,-198.25 121.43,-189.28"/>
<polygon fill="#63b8ff" stroke="#63b8ff" points="122.97,-186.11 112.38,-185.92 120.54,-192.68 122.97,-186.11"/>
</a>
</g>
</g>
<!-- Node4 -->
<g id="Node000004" class="node">
<title>Node4</title>
<g id="a_Node000004"><a xlink:href="_named_pipe_8h.html" target="_top" xlink:title=" ">
<polygon fill="white" stroke="#666666" points="257.25,-185 182,-185 182,-165.75 257.25,-165.75 257.25,-185"/>
<text text-anchor="middle" x="219.62" y="-171.5" font-family="Helvetica,sans-Serif" font-size="10.00">NamedPipe.h</text>
</a>
</g>
</g>
<!-- Node1&#45;&gt;Node4 -->
<g id="edge3_Node000001_Node000004" class="edge">
<title>Node1&#45;&gt;Node4</title>
<g id="a_edge3_Node000001_Node000004"><a xlink:title=" ">
<path fill="none" stroke="#63b8ff" d="M247.88,-220.82C242.65,-212.59 236.63,-203.12 231.49,-195.04"/>
<polygon fill="#63b8ff" stroke="#63b8ff" points="234.52,-193.28 226.2,-186.72 228.61,-197.04 234.52,-193.28"/>
</a>
</g>
</g>
<!-- Node9 -->
<g id="Node000009" class="node">
<title>Node9</title>
<g id="a_Node000009"><a xlink:href="_i_o_utils_8h.html" target="_top" xlink:title=" ">
<polygon fill="white" stroke="#666666" points="356.12,-185 301.12,-185 301.12,-165.75 356.12,-165.75 356.12,-185"/>
<text text-anchor="middle" x="328.62" y="-171.5" font-family="Helvetica,sans-Serif" font-size="10.00">IOUtils.h</text>
</a>
</g>
</g>
<!-- Node1&#45;&gt;Node9 -->
<g id="edge8_Node000001_Node000009" class="edge">
<title>Node1&#45;&gt;Node9</title>
<g id="a_edge8_Node000001_Node000009"><a xlink:title=" ">
<path fill="none" stroke="#63b8ff" d="M281.77,-220.82C291.12,-211.94 302.01,-201.62 310.93,-193.16"/>
<polygon fill="#63b8ff" stroke="#63b8ff" points="313.12,-195.91 317.96,-186.49 308.3,-190.83 313.12,-195.91"/>
</a>
</g>
</g>
<!-- Node19 -->
<g id="Node000019" class="node">
<title>Node19</title>
<g id="a_Node000019"><a xlink:title=" ">
<polygon fill="#e0e0e0" stroke="#999999" points="424.88,-185 374.38,-185 374.38,-165.75 424.88,-165.75 424.88,-185"/>
<text text-anchor="middle" x="399.62" y="-171.5" font-family="Helvetica,sans-Serif" font-size="10.00">unistd.h</text>
</a>
</g>
</g>
<!-- Node1&#45;&gt;Node19 -->
<g id="edge21_Node000001_Node000019" class="edge">
<title>Node1&#45;&gt;Node19</title>
<g id="a_edge21_Node000001_Node000019"><a xlink:title=" ">
<path fill="none" stroke="#63b8ff" d="M304.22,-220.64C325.62,-210.71 350.84,-199.01 369.97,-190.13"/>
<polygon fill="#63b8ff" stroke="#63b8ff" points="371.22,-193.42 378.81,-186.03 368.27,-187.07 371.22,-193.42"/>
</a>
</g>
</g>
<!-- Node3 -->
<g id="Node000003" class="node">
<title>Node3</title>
<g id="a_Node000003"><a xlink:title=" ">
<polygon fill="#e0e0e0" stroke="#999999" points="51.25,-129.75 0,-129.75 0,-110.5 51.25,-110.5 51.25,-129.75"/>
<text text-anchor="middle" x="25.62" y="-116.25" font-family="Helvetica,sans-Serif" font-size="10.00">assert.h</text>
</a>
</g>
</g>
<!-- Node2&#45;&gt;Node3 -->
<g id="edge2_Node000002_Node000003" class="edge">
<title>Node2&#45;&gt;Node3</title>
<g id="a_edge2_Node000002_Node000003"><a xlink:title=" ">
<path fill="none" stroke="#63b8ff" d="M76.28,-165.34C67.55,-157.72 54.84,-146.62 44.33,-137.45"/>
<polygon fill="#63b8ff" stroke="#63b8ff" points="46.8,-134.96 36.96,-131.02 42.19,-140.23 46.8,-134.96"/>
</a>
</g>
</g>
<!-- Node5 -->
<g id="Node000005" class="node">
<title>Node5</title>
<g id="a_Node000005"><a xlink:href="_types_8h.html" target="_top" xlink:title=" ">
<polygon fill="white" stroke="#666666" points="142.88,-74.5 92.38,-74.5 92.38,-55.25 142.88,-55.25 142.88,-74.5"/>
<text text-anchor="middle" x="117.62" y="-61" font-family="Helvetica,sans-Serif" font-size="10.00">Types.h</text>
</a>
</g>
</g>
<!-- Node4&#45;&gt;Node5 -->
<g id="edge4_Node000004_Node000005" class="edge">
<title>Node4&#45;&gt;Node5</title>
<g id="a_edge4_Node000004_Node000005"><a xlink:title=" ">
<path fill="none" stroke="#63b8ff" d="M181.7,-170.78C155,-166.05 121.03,-155.1 103.62,-129.75 94.59,-116.59 99.7,-98.61 106.15,-85.08"/>
<polygon fill="#63b8ff" stroke="#63b8ff" points="109.22,-86.76 110.88,-76.3 103.06,-83.45 109.22,-86.76"/>
</a>
</g>
</g>
<!-- Node6 -->
<g id="Node000006" class="node">
<title>Node6</title>
<g id="a_Node000006"><a xlink:title=" ">
<polygon fill="#e0e0e0" stroke="#999999" points="75.12,-19.25 8.12,-19.25 8.12,0 75.12,0 75.12,-19.25"/>
<text text-anchor="middle" x="41.62" y="-5.75" font-family="Helvetica,sans-Serif" font-size="10.00">sys/types.h</text>
</a>
</g>
</g>
<!-- Node5&#45;&gt;Node6 -->
<g id="edge5_Node000005_Node000006" class="edge">
<title>Node5&#45;&gt;Node6</title>
<g id="a_edge5_Node000005_Node000006"><a xlink:title=" ">
<path fill="none" stroke="#63b8ff" d="M104.73,-54.84C93.6,-47.04 77.25,-35.59 63.99,-26.29"/>
<polygon fill="#63b8ff" stroke="#63b8ff" points="66.02,-23.44 55.82,-20.57 62,-29.18 66.02,-23.44"/>
</a>
</g>
</g>
<!-- Node7 -->
<g id="Node000007" class="node">
<title>Node7</title>
<g id="a_Node000007"><a xlink:title=" ">
<polygon fill="#e0e0e0" stroke="#999999" points="141.75,-19.25 93.5,-19.25 93.5,0 141.75,0 141.75,-19.25"/>
<text text-anchor="middle" x="117.62" y="-5.75" font-family="Helvetica,sans-Serif" font-size="10.00">stdint.h</text>
</a>
</g>
</g>
<!-- Node5&#45;&gt;Node7 -->
<g id="edge6_Node000005_Node000007" class="edge">
<title>Node5&#45;&gt;Node7</title>
<g id="a_edge6_Node000005_Node000007"><a xlink:title=" ">
<path fill="none" stroke="#63b8ff" d="M117.62,-55.08C117.62,-48.57 117.62,-39.42 117.62,-31.12"/>
<polygon fill="#63b8ff" stroke="#63b8ff" points="121.13,-31.12 117.63,-21.12 114.13,-31.12 121.13,-31.12"/>
</a>
</g>
</g>
<!-- Node8 -->
<g id="Node000008" class="node">
<title>Node8</title>
<g id="a_Node000008"><a xlink:title=" ">
<polygon fill="#e0e0e0" stroke="#999999" points="215.5,-19.25 159.75,-19.25 159.75,0 215.5,0 215.5,-19.25"/>
<text text-anchor="middle" x="187.62" y="-5.75" font-family="Helvetica,sans-Serif" font-size="10.00">stdbool.h</text>
</a>
</g>
</g>
<!-- Node5&#45;&gt;Node8 -->
<g id="edge7_Node000005_Node000008" class="edge">
<title>Node5&#45;&gt;Node8</title>
<g id="a_edge7_Node000005_Node000008"><a xlink:title=" ">
<path fill="none" stroke="#63b8ff" d="M129.5,-54.84C139.72,-47.07 154.7,-35.67 166.89,-26.4"/>
<polygon fill="#63b8ff" stroke="#63b8ff" points="168.88,-29.28 174.72,-20.44 164.64,-23.71 168.88,-29.28"/>
</a>
</g>
</g>
<!-- Node9&#45;&gt;Node5 -->
<g id="edge9_Node000009_Node000005" class="edge">
<title>Node9&#45;&gt;Node5</title>
<g id="a_edge9_Node000009_Node000005"><a xlink:title=" ">
<path fill="none" stroke="#63b8ff" d="M300.87,-169.51C250.61,-160.48 148.59,-141.01 136.62,-129.75 124.63,-118.47 120.1,-99.99 118.44,-85.8"/>
<polygon fill="#63b8ff" stroke="#63b8ff" points="121.96,-85.95 117.72,-76.24 114.98,-86.47 121.96,-85.95"/>
</a>
</g>
</g>
<!-- Node10 -->
<g id="Node000010" class="node">
<title>Node10</title>
<g id="a_Node000010"><a xlink:href="_string_utils_8h.html" target="_top" xlink:title=" ">
<polygon fill="white" stroke="#666666" points="215.62,-129.75 145.62,-129.75 145.62,-110.5 215.62,-110.5 215.62,-129.75"/>
<text text-anchor="middle" x="180.62" y="-116.25" font-family="Helvetica,sans-Serif" font-size="10.00">StringUtils.h</text>
</a>
</g>
</g>
<!-- Node9&#45;&gt;Node10 -->
<g id="edge10_Node000009_Node000010" class="edge">
<title>Node9&#45;&gt;Node10</title>
<g id="a_edge10_Node000009_Node000010"><a xlink:title=" ">
<path fill="none" stroke="#63b8ff" d="M303.52,-165.34C279.6,-156.74 243.34,-143.69 216.4,-134"/>
<polygon fill="#63b8ff" stroke="#63b8ff" points="217.87,-130.81 207.28,-130.71 215.5,-137.39 217.87,-130.81"/>
</a>
</g>
</g>
<!-- Node11 -->
<g id="Node000011" class="node">
<title>Node11</title>
<g id="a_Node000011"><a xlink:title=" ">
<polygon fill="#e0e0e0" stroke="#999999" points="234.12,-74.5 191.12,-74.5 191.12,-55.25 234.12,-55.25 234.12,-74.5"/>
<text text-anchor="middle" x="212.62" y="-61" font-family="Helvetica,sans-Serif" font-size="10.00">vector</text>
</a>
</g>
</g>
<!-- Node9&#45;&gt;Node11 -->
<g id="edge20_Node000009_Node000011" class="edge">
<title>Node9&#45;&gt;Node11</title>
<g id="a_edge20_Node000009_Node000011"><a xlink:title=" ">
<path fill="none" stroke="#63b8ff" d="M312.7,-165.28C298.92,-157 278.86,-143.92 263.62,-129.75 248.72,-115.89 234.51,-97.5 224.89,-84.02"/>
<polygon fill="#63b8ff" stroke="#63b8ff" points="227.94,-82.28 219.36,-76.06 222.19,-86.27 227.94,-82.28"/>
</a>
</g>
</g>
<!-- Node12 -->
<g id="Node000012" class="node">
<title>Node12</title>
<g id="a_Node000012"><a xlink:title=" ">
<polygon fill="#e0e0e0" stroke="#999999" points="315.12,-129.75 272.12,-129.75 272.12,-110.5 315.12,-110.5 315.12,-129.75"/>
<text text-anchor="middle" x="293.62" y="-116.25" font-family="Helvetica,sans-Serif" font-size="10.00">fcntl.h</text>
</a>
</g>
</g>
<!-- Node9&#45;&gt;Node12 -->
<g id="edge13_Node000009_Node000012" class="edge">
<title>Node9&#45;&gt;Node12</title>
<g id="a_edge13_Node000009_Node000012"><a xlink:title=" ">
<path fill="none" stroke="#63b8ff" d="M322.85,-165.58C318.21,-158.53 311.55,-148.4 305.76,-139.58"/>
<polygon fill="#63b8ff" stroke="#63b8ff" points="308.78,-137.81 300.36,-131.37 302.93,-141.65 308.78,-137.81"/>
</a>
</g>
</g>
<!-- Node13 -->
<g id="Node000013" class="node">
<title>Node13</title>
<g id="a_Node000013"><a xlink:title=" ">
<polygon fill="#e0e0e0" stroke="#999999" points="394.12,-129.75 333.12,-129.75 333.12,-110.5 394.12,-110.5 394.12,-129.75"/>
<text text-anchor="middle" x="363.62" y="-116.25" font-family="Helvetica,sans-Serif" font-size="10.00">filesystem</text>
</a>
</g>
</g>
<!-- Node9&#45;&gt;Node13 -->
<g id="edge14_Node000009_Node000013" class="edge">
<title>Node9&#45;&gt;Node13</title>
<g id="a_edge14_Node000009_Node000013"><a xlink:title=" ">
<path fill="none" stroke="#63b8ff" d="M334.4,-165.58C339.04,-158.53 345.7,-148.4 351.49,-139.58"/>
<polygon fill="#63b8ff" stroke="#63b8ff" points="354.32,-141.65 356.89,-131.37 348.47,-137.81 354.32,-141.65"/>
</a>
</g>
</g>
<!-- Node14 -->
<g id="Node000014" class="node">
<title>Node14</title>
<g id="a_Node000014"><a xlink:title=" ">
<polygon fill="#e0e0e0" stroke="#999999" points="461.12,-129.75 412.12,-129.75 412.12,-110.5 461.12,-110.5 461.12,-129.75"/>
<text text-anchor="middle" x="436.62" y="-116.25" font-family="Helvetica,sans-Serif" font-size="10.00">fstream</text>
</a>
</g>
</g>
<!-- Node9&#45;&gt;Node14 -->
<g id="edge15_Node000009_Node000014" class="edge">
<title>Node9&#45;&gt;Node14</title>
<g id="a_edge15_Node000009_Node000014"><a xlink:title=" ">
<path fill="none" stroke="#63b8ff" d="M346.95,-165.34C363.7,-157.08 388.76,-144.73 408.13,-135.18"/>
<polygon fill="#63b8ff" stroke="#63b8ff" points="409.44,-138.43 416.86,-130.87 406.34,-132.15 409.44,-138.43"/>
</a>
</g>
</g>
<!-- Node15 -->
<g id="Node000015" class="node">
<title>Node15</title>
<g id="a_Node000015"><a xlink:title=" ">
<polygon fill="#e0e0e0" stroke="#999999" points="527.75,-129.75 479.5,-129.75 479.5,-110.5 527.75,-110.5 527.75,-129.75"/>
<text text-anchor="middle" x="503.62" y="-116.25" font-family="Helvetica,sans-Serif" font-size="10.00">istream</text>
</a>
</g>
</g>
<!-- Node9&#45;&gt;Node15 -->
<g id="edge16_Node000009_Node000015" class="edge">
<title>Node9&#45;&gt;Node15</title>
<g id="a_edge16_Node000009_Node000015"><a xlink:title=" ">
<path fill="none" stroke="#63b8ff" d="M356.35,-165.94C386.61,-156.73 435.14,-141.96 468.16,-131.92"/>
<polygon fill="#63b8ff" stroke="#63b8ff" points="469.14,-135.28 477.68,-129.02 467.1,-128.58 469.14,-135.28"/>
</a>
</g>
</g>
<!-- Node16 -->
<g id="Node000016" class="node">
<title>Node16</title>
<g id="a_Node000016"><a xlink:title=" ">
<polygon fill="#e0e0e0" stroke="#999999" points="599.38,-129.75 545.88,-129.75 545.88,-110.5 599.38,-110.5 599.38,-129.75"/>
<text text-anchor="middle" x="572.62" y="-116.25" font-family="Helvetica,sans-Serif" font-size="10.00">iostream</text>
</a>
</g>
</g>
<!-- Node9&#45;&gt;Node16 -->
<g id="edge17_Node000009_Node000016" class="edge">
<title>Node9&#45;&gt;Node16</title>
<g id="a_edge17_Node000009_Node000016"><a xlink:title=" ">
<path fill="none" stroke="#63b8ff" d="M356.49,-167.81C359.57,-167.11 362.66,-166.41 365.62,-165.75 438.04,-149.69 459,-147.02 534.49,-130.18"/>
<polygon fill="#63b8ff" stroke="#63b8ff" points="535.05,-133.64 544.04,-128.04 533.52,-126.81 535.05,-133.64"/>
</a>
</g>
</g>
<!-- Node17 -->
<g id="Node000017" class="node">
<title>Node17</title>
<g id="a_Node000017"><a xlink:title=" ">
<polygon fill="#e0e0e0" stroke="#999999" points="668.25,-129.75 617,-129.75 617,-110.5 668.25,-110.5 668.25,-129.75"/>
<text text-anchor="middle" x="642.62" y="-116.25" font-family="Helvetica,sans-Serif" font-size="10.00">sstream</text>
</a>
</g>
</g>
<!-- Node9&#45;&gt;Node17 -->
<g id="edge18_Node000009_Node000017" class="edge">
<title>Node9&#45;&gt;Node17</title>
<g id="a_edge18_Node000009_Node000017"><a xlink:title=" ">
<path fill="none" stroke="#63b8ff" d="M356.45,-167.63C359.54,-166.96 362.64,-166.32 365.62,-165.75 469.32,-146.02 499.58,-150.84 605.51,-130.21"/>
<polygon fill="#63b8ff" stroke="#63b8ff" points="606.09,-133.66 615.21,-128.28 604.72,-126.8 606.09,-133.66"/>
</a>
</g>
</g>
<!-- Node18 -->
<g id="Node000018" class="node">
<title>Node18</title>
<g id="a_Node000018"><a xlink:title=" ">
<polygon fill="#e0e0e0" stroke="#999999" points="745.38,-129.75 685.88,-129.75 685.88,-110.5 745.38,-110.5 745.38,-129.75"/>
<text text-anchor="middle" x="715.62" y="-116.25" font-family="Helvetica,sans-Serif" font-size="10.00">sys/stat.h</text>
</a>
</g>
</g>
<!-- Node9&#45;&gt;Node18 -->
<g id="edge19_Node000009_Node000018" class="edge">
<title>Node9&#45;&gt;Node18</title>
<g id="a_edge19_Node000009_Node000018"><a xlink:title=" ">
<path fill="none" stroke="#63b8ff" d="M356.44,-167.53C359.53,-166.88 362.64,-166.27 365.62,-165.75 499.53,-142.5 538.01,-152.66 674.12,-130.19"/>
<polygon fill="#63b8ff" stroke="#63b8ff" points="674.63,-133.66 683.91,-128.55 673.47,-126.76 674.63,-133.66"/>
</a>
</g>
</g>
<!-- Node10&#45;&gt;Node5 -->
<g id="edge11_Node000010_Node000005" class="edge">
<title>Node10&#45;&gt;Node5</title>
<g id="a_edge11_Node000010_Node000005"><a xlink:title=" ">
<path fill="none" stroke="#63b8ff" d="M169.94,-110.09C160.92,-102.47 147.79,-91.37 136.94,-82.2"/>
<polygon fill="#63b8ff" stroke="#63b8ff" points="139.21,-79.53 129.31,-75.75 134.69,-84.88 139.21,-79.53"/>
</a>
</g>
</g>
<!-- Node10&#45;&gt;Node11 -->
<g id="edge12_Node000010_Node000011" class="edge">
<title>Node10&#45;&gt;Node11</title>
<g id="a_edge12_Node000010_Node000011"><a xlink:title=" ">
<path fill="none" stroke="#63b8ff" d="M185.91,-110.33C190.1,-103.36 196.1,-93.37 201.36,-84.62"/>
<polygon fill="#63b8ff" stroke="#63b8ff" points="204.3,-86.53 206.45,-76.16 198.3,-82.93 204.3,-86.53"/>
</a>
</g>
</g>
</g>
</svg>
