<?xml version="1.0" encoding="UTF-8" standalone="no"?>
<!DOCTYPE svg PUBLIC "-//W3C//DTD SVG 1.1//EN"
 "http://www.w3.org/Graphics/SVG/1.1/DTD/svg11.dtd">
<!-- Generated by graphviz version 10.0.1 (20240210.2158)
 -->
<!-- Title: /Users/hoff/Retro/virtualc64/Emulator/Peripherals/Mouse/NeosMouse.h Pages: 1 -->
<svg width="1308pt" height="658pt"
 viewBox="0.00 0.00 1307.93 657.50" xmlns="http://www.w3.org/2000/svg" xmlns:xlink="http://www.w3.org/1999/xlink">
<g id="graph0" class="graph" transform="scale(1 1) rotate(0) translate(4 653.5)">
<title>/Users/hoff/Retro/virtualc64/Emulator/Peripherals/Mouse/NeosMouse.h</title>
<!-- Node1 -->
<g id="Node000001" class="node">
<title>Node1</title>
<g id="a_Node000001"><a xlink:title=" ">
<polygon fill="#999999" stroke="#666666" points="932.81,-649.5 790.81,-649.5 790.81,-607.75 932.81,-607.75 932.81,-649.5"/>
<text text-anchor="start" x="798.81" y="-636" font-family="Helvetica,sans-Serif" font-size="10.00">/Users/hoff/Retro/virtualc64</text>
<text text-anchor="start" x="798.81" y="-624.75" font-family="Helvetica,sans-Serif" font-size="10.00">/Emulator/Peripherals/Mouse</text>
<text text-anchor="middle" x="861.81" y="-613.5" font-family="Helvetica,sans-Serif" font-size="10.00">/NeosMouse.h</text>
</a>
</g>
</g>
<!-- Node2 -->
<g id="Node000002" class="node">
<title>Node2</title>
<g id="a_Node000002"><a xlink:href="_sub_component_8h.html" target="_top" xlink:title=" ">
<polygon fill="white" stroke="#666666" points="907.68,-571.75 815.93,-571.75 815.93,-552.5 907.68,-552.5 907.68,-571.75"/>
<text text-anchor="middle" x="861.81" y="-558.25" font-family="Helvetica,sans-Serif" font-size="10.00">SubComponent.h</text>
</a>
</g>
</g>
<!-- Node1&#45;&gt;Node2 -->
<g id="edge1_Node000001_Node000002" class="edge">
<title>Node1&#45;&gt;Node2</title>
<g id="a_edge1_Node000001_Node000002"><a xlink:title=" ">
<path fill="none" stroke="#63b8ff" d="M861.81,-607.57C861.81,-599.9 861.81,-591.14 861.81,-583.45"/>
<polygon fill="#63b8ff" stroke="#63b8ff" points="865.31,-583.71 861.81,-573.71 858.31,-583.71 865.31,-583.71"/>
</a>
</g>
</g>
<!-- Node3 -->
<g id="Node000003" class="node">
<title>Node3</title>
<g id="a_Node000003"><a xlink:href="_core_component_8h.html" target="_top" xlink:title=" ">
<polygon fill="white" stroke="#666666" points="608.56,-516.5 513.06,-516.5 513.06,-497.25 608.56,-497.25 608.56,-516.5"/>
<text text-anchor="middle" x="560.81" y="-503" font-family="Helvetica,sans-Serif" font-size="10.00">CoreComponent.h</text>
</a>
</g>
</g>
<!-- Node2&#45;&gt;Node3 -->
<g id="edge2_Node000002_Node000003" class="edge">
<title>Node2&#45;&gt;Node3</title>
<g id="a_edge2_Node000002_Node000003"><a xlink:title=" ">
<path fill="none" stroke="#63b8ff" d="M815.43,-552.92C762.95,-543.64 677.32,-528.49 620.04,-518.35"/>
<polygon fill="#63b8ff" stroke="#63b8ff" points="620.92,-514.96 610.47,-516.66 619.7,-521.85 620.92,-514.96"/>
</a>
</g>
</g>
<!-- Node42 -->
<g id="Node000042" class="node">
<title>Node42</title>
<g id="a_Node000042"><a xlink:href="_c_p_u_types_8h.html" target="_top" xlink:title=" ">
<polygon fill="white" stroke="#666666" points="1299.93,-240.25 1227.68,-240.25 1227.68,-221 1299.93,-221 1299.93,-240.25"/>
<text text-anchor="middle" x="1263.81" y="-226.75" font-family="Helvetica,sans-Serif" font-size="10.00">CPUTypes.h</text>
</a>
</g>
</g>
<!-- Node2&#45;&gt;Node42 -->
<g id="edge60_Node000002_Node000042" class="edge">
<title>Node2&#45;&gt;Node42</title>
<g id="a_edge60_Node000002_Node000042"><a xlink:title=" ">
<path fill="none" stroke="#63b8ff" d="M907.84,-557.99C1010.62,-549.72 1249.81,-522.92 1249.81,-452.62 1249.81,-452.62 1249.81,-452.62 1249.81,-340.12 1249.81,-309.01 1255.54,-273.28 1259.67,-251.59"/>
<polygon fill="#63b8ff" stroke="#63b8ff" points="1263.05,-252.55 1261.56,-242.06 1256.18,-251.19 1263.05,-252.55"/>
</a>
</g>
</g>
<!-- Node4 -->
<g id="Node000004" class="node">
<title>Node4</title>
<g id="a_Node000004"><a xlink:href="_emulator_types_8h.html" target="_top" xlink:title=" ">
<polygon fill="white" stroke="#666666" points="1214.56,-295.5 1125.06,-295.5 1125.06,-276.25 1214.56,-276.25 1214.56,-295.5"/>
<text text-anchor="middle" x="1169.81" y="-282" font-family="Helvetica,sans-Serif" font-size="10.00">EmulatorTypes.h</text>
</a>
</g>
</g>
<!-- Node3&#45;&gt;Node4 -->
<g id="edge3_Node000003_Node000004" class="edge">
<title>Node3&#45;&gt;Node4</title>
<g id="a_edge3_Node000003_Node000004"><a xlink:title=" ">
<path fill="none" stroke="#63b8ff" d="M608.59,-506.1C747.52,-506.25 1143.94,-503 1182.81,-461.25 1222.56,-418.54 1195.29,-341.67 1179.23,-306.01"/>
<polygon fill="#63b8ff" stroke="#63b8ff" points="1182.58,-304.9 1175.16,-297.34 1176.25,-307.88 1182.58,-304.9"/>
</a>
</g>
</g>
<!-- Node12 -->
<g id="Node000012" class="node">
<title>Node12</title>
<g id="a_Node000012"><a xlink:href="_thread_types_8h.html" target="_top" xlink:title=" ">
<polygon fill="white" stroke="#666666" points="1172.06,-240.25 1091.56,-240.25 1091.56,-221 1172.06,-221 1172.06,-240.25"/>
<text text-anchor="middle" x="1131.81" y="-226.75" font-family="Helvetica,sans-Serif" font-size="10.00">ThreadTypes.h</text>
</a>
</g>
</g>
<!-- Node3&#45;&gt;Node12 -->
<g id="edge58_Node000003_Node000012" class="edge">
<title>Node3&#45;&gt;Node12</title>
<g id="a_edge58_Node000003_Node000012"><a xlink:title=" ">
<path fill="none" stroke="#63b8ff" d="M608.8,-500.49C683.25,-490.57 829.39,-464.8 938.81,-406 1016.62,-364.19 1088.2,-284.46 1117.64,-249.18"/>
<polygon fill="#63b8ff" stroke="#63b8ff" points="1120.19,-251.59 1123.84,-241.64 1114.78,-247.14 1120.19,-251.59"/>
</a>
</g>
</g>
<!-- Node13 -->
<g id="Node000013" class="node">
<title>Node13</title>
<g id="a_Node000013"><a xlink:href="_core_object_8h.html" target="_top" xlink:title=" ">
<polygon fill="white" stroke="#666666" points="506.68,-350.75 432.93,-350.75 432.93,-331.5 506.68,-331.5 506.68,-350.75"/>
<text text-anchor="middle" x="469.81" y="-337.25" font-family="Helvetica,sans-Serif" font-size="10.00">CoreObject.h</text>
</a>
</g>
</g>
<!-- Node3&#45;&gt;Node13 -->
<g id="edge14_Node000003_Node000013" class="edge">
<title>Node3&#45;&gt;Node13</title>
<g id="a_edge14_Node000003_Node000013"><a xlink:title=" ">
<path fill="none" stroke="#63b8ff" d="M555.91,-497.07C541.66,-471.42 499.91,-396.3 480.26,-360.94"/>
<polygon fill="#63b8ff" stroke="#63b8ff" points="483.38,-359.34 475.46,-352.3 477.26,-362.74 483.38,-359.34"/>
</a>
</g>
</g>
<!-- Node20 -->
<g id="Node000020" class="node">
<title>Node20</title>
<g id="a_Node000020"><a xlink:href="_synchronizable_8h.html" target="_top" xlink:title=" ">
<polygon fill="white" stroke="#666666" points="350.31,-406 259.31,-406 259.31,-386.75 350.31,-386.75 350.31,-406"/>
<text text-anchor="middle" x="304.81" y="-392.5" font-family="Helvetica,sans-Serif" font-size="10.00">Synchronizable.h</text>
</a>
</g>
</g>
<!-- Node3&#45;&gt;Node20 -->
<g id="edge24_Node000003_Node000020" class="edge">
<title>Node3&#45;&gt;Node20</title>
<g id="a_edge24_Node000003_Node000020"><a xlink:title=" ">
<path fill="none" stroke="#63b8ff" d="M512.83,-502.82C471.3,-498.41 410.83,-487.62 364.81,-461.25 345.07,-449.94 327.92,-430.06 317.07,-415.47"/>
<polygon fill="#63b8ff" stroke="#63b8ff" points="320.14,-413.74 311.49,-407.62 314.43,-417.8 320.14,-413.74"/>
</a>
</g>
</g>
<!-- Node21 -->
<g id="Node000021" class="node">
<title>Node21</title>
<g id="a_Node000021"><a xlink:href="_concurrency_8h.html" target="_top" xlink:title=" ">
<polygon fill="white" stroke="#666666" points="279.93,-350.75 201.68,-350.75 201.68,-331.5 279.93,-331.5 279.93,-350.75"/>
<text text-anchor="middle" x="240.81" y="-337.25" font-family="Helvetica,sans-Serif" font-size="10.00">Concurrency.h</text>
</a>
</g>
</g>
<!-- Node3&#45;&gt;Node21 -->
<g id="edge55_Node000003_Node000021" class="edge">
<title>Node3&#45;&gt;Node21</title>
<g id="a_edge55_Node000003_Node000021"><a xlink:title=" ">
<path fill="none" stroke="#63b8ff" d="M512.59,-501.46C466.2,-496.02 394.78,-484.49 336.81,-461.25 294.29,-444.21 274.62,-444.5 249.81,-406 241.53,-393.16 239.52,-375.87 239.45,-362.51"/>
<polygon fill="#63b8ff" stroke="#63b8ff" points="242.94,-362.82 239.78,-352.7 235.94,-362.58 242.94,-362.82"/>
</a>
</g>
</g>
<!-- Node26 -->
<g id="Node000026" class="node">
<title>Node26</title>
<g id="a_Node000026"><a xlink:href="_serializable_8h.html" target="_top" xlink:title=" ">
<polygon fill="white" stroke="#666666" points="203.06,-461.25 128.56,-461.25 128.56,-442 203.06,-442 203.06,-461.25"/>
<text text-anchor="middle" x="165.81" y="-447.75" font-family="Helvetica,sans-Serif" font-size="10.00">Serializable.h</text>
</a>
</g>
</g>
<!-- Node3&#45;&gt;Node26 -->
<g id="edge31_Node000003_Node000026" class="edge">
<title>Node3&#45;&gt;Node26</title>
<g id="a_edge31_Node000003_Node000026"><a xlink:title=" ">
<path fill="none" stroke="#63b8ff" d="M512.58,-500.21C445.97,-492.26 322.08,-476.97 216.81,-461.25 216.13,-461.15 215.44,-461.05 214.75,-460.94"/>
<polygon fill="#63b8ff" stroke="#63b8ff" points="215.3,-457.48 204.88,-459.38 214.21,-464.4 215.3,-457.48"/>
</a>
</g>
</g>
<!-- Node27 -->
<g id="Node000027" class="node">
<title>Node27</title>
<g id="a_Node000027"><a xlink:href="_configurable_8h.html" target="_top" xlink:title=" ">
<polygon fill="white" stroke="#666666" points="687.31,-461.25 608.31,-461.25 608.31,-442 687.31,-442 687.31,-461.25"/>
<text text-anchor="middle" x="647.81" y="-447.75" font-family="Helvetica,sans-Serif" font-size="10.00">Configurable.h</text>
</a>
</g>
</g>
<!-- Node3&#45;&gt;Node27 -->
<g id="edge32_Node000003_Node000027" class="edge">
<title>Node3&#45;&gt;Node27</title>
<g id="a_edge32_Node000003_Node000027"><a xlink:title=" ">
<path fill="none" stroke="#63b8ff" d="M575.56,-496.84C588.69,-488.81 608.13,-476.91 623.54,-467.48"/>
<polygon fill="#63b8ff" stroke="#63b8ff" points="624.98,-470.7 631.68,-462.49 621.33,-464.73 624.98,-470.7"/>
</a>
</g>
</g>
<!-- Node32 -->
<g id="Node000032" class="node">
<title>Node32</title>
<g id="a_Node000032"><a xlink:title=" ">
<polygon fill="#e0e0e0" stroke="#999999" points="347.31,-185 304.31,-185 304.31,-165.75 347.31,-165.75 347.31,-185"/>
<text text-anchor="middle" x="325.81" y="-171.5" font-family="Helvetica,sans-Serif" font-size="10.00">vector</text>
</a>
</g>
</g>
<!-- Node3&#45;&gt;Node32 -->
<g id="edge59_Node000003_Node000032" class="edge">
<title>Node3&#45;&gt;Node32</title>
<g id="a_edge59_Node000003_Node000032"><a xlink:title=" ">
<path fill="none" stroke="#63b8ff" d="M552.78,-497.07C521.87,-463.64 406.45,-343.17 288.81,-276.25 246.29,-252.07 213.18,-280.09 184.81,-240.25 155.94,-199.72 242.59,-184.4 292.76,-179.03"/>
<polygon fill="#63b8ff" stroke="#63b8ff" points="292.93,-182.53 302.54,-178.07 292.24,-175.56 292.93,-182.53"/>
</a>
</g>
</g>
<!-- Node40 -->
<g id="Node000040" class="node">
<title>Node40</title>
<g id="a_Node000040"><a xlink:href="_suspendable_8h.html" target="_top" xlink:title=" ">
<polygon fill="white" stroke="#666666" points="1174.06,-461.25 1093.56,-461.25 1093.56,-442 1174.06,-442 1174.06,-461.25"/>
<text text-anchor="middle" x="1133.81" y="-447.75" font-family="Helvetica,sans-Serif" font-size="10.00">Suspendable.h</text>
</a>
</g>
</g>
<!-- Node3&#45;&gt;Node40 -->
<g id="edge56_Node000003_Node000040" class="edge">
<title>Node3&#45;&gt;Node40</title>
<g id="a_edge56_Node000003_Node000040"><a xlink:title=" ">
<path fill="none" stroke="#63b8ff" d="M608.87,-502.91C700.62,-497 907.01,-482.45 1079.81,-461.25 1080.48,-461.17 1081.17,-461.08 1081.85,-460.99"/>
<polygon fill="#63b8ff" stroke="#63b8ff" points="1082.23,-464.48 1091.66,-459.65 1081.28,-457.54 1082.23,-464.48"/>
</a>
</g>
</g>
<!-- Node5 -->
<g id="Node000005" class="node">
<title>Node5</title>
<g id="a_Node000005"><a xlink:href="_aliases_8h.html" target="_top" xlink:title=" ">
<polygon fill="white" stroke="#666666" points="1144.06,-185 1087.56,-185 1087.56,-165.75 1144.06,-165.75 1144.06,-185"/>
<text text-anchor="middle" x="1115.81" y="-171.5" font-family="Helvetica,sans-Serif" font-size="10.00">Aliases.h</text>
</a>
</g>
</g>
<!-- Node4&#45;&gt;Node5 -->
<g id="edge4_Node000004_Node000005" class="edge">
<title>Node4&#45;&gt;Node5</title>
<g id="a_edge4_Node000004_Node000005"><a xlink:title=" ">
<path fill="none" stroke="#63b8ff" d="M1174.63,-276.07C1180.97,-263.22 1190.24,-238.92 1180.81,-221 1173.93,-207.94 1161.32,-197.97 1149.02,-190.8"/>
<polygon fill="#63b8ff" stroke="#63b8ff" points="1150.71,-187.73 1140.23,-186.13 1147.43,-193.91 1150.71,-187.73"/>
</a>
</g>
</g>
<!-- Node11 -->
<g id="Node000011" class="node">
<title>Node11</title>
<g id="a_Node000011"><a xlink:href="_reflection_8h.html" target="_top" xlink:title=" ">
<polygon fill="white" stroke="#666666" points="1038.06,-185 969.56,-185 969.56,-165.75 1038.06,-165.75 1038.06,-185"/>
<text text-anchor="middle" x="1003.81" y="-171.5" font-family="Helvetica,sans-Serif" font-size="10.00">Reflection.h</text>
</a>
</g>
</g>
<!-- Node4&#45;&gt;Node11 -->
<g id="edge10_Node000004_Node000011" class="edge">
<title>Node4&#45;&gt;Node11</title>
<g id="a_edge10_Node000004_Node000011"><a xlink:title=" ">
<path fill="none" stroke="#63b8ff" d="M1149.46,-275.9C1131.4,-267.59 1104.57,-254.42 1082.81,-240.25 1060.77,-225.91 1037.61,-206.61 1022.11,-192.99"/>
<polygon fill="#63b8ff" stroke="#63b8ff" points="1024.45,-190.39 1014.65,-186.35 1019.79,-195.62 1024.45,-190.39"/>
</a>
</g>
</g>
<!-- Node4&#45;&gt;Node12 -->
<g id="edge11_Node000004_Node000012" class="edge">
<title>Node4&#45;&gt;Node12</title>
<g id="a_edge11_Node000004_Node000012"><a xlink:title=" ">
<path fill="none" stroke="#63b8ff" d="M1163.53,-276.08C1158.45,-268.96 1151.11,-258.68 1144.77,-249.8"/>
<polygon fill="#63b8ff" stroke="#63b8ff" points="1147.75,-247.95 1139.1,-241.84 1142.06,-252.01 1147.75,-247.95"/>
</a>
</g>
</g>
<!-- Node6 -->
<g id="Node000006" class="node">
<title>Node6</title>
<g id="a_Node000006"><a xlink:href="_macros_8h.html" target="_top" xlink:title=" ">
<polygon fill="white" stroke="#666666" points="794.06,-129.75 737.56,-129.75 737.56,-110.5 794.06,-110.5 794.06,-129.75"/>
<text text-anchor="middle" x="765.81" y="-116.25" font-family="Helvetica,sans-Serif" font-size="10.00">Macros.h</text>
</a>
</g>
</g>
<!-- Node5&#45;&gt;Node6 -->
<g id="edge5_Node000005_Node000006" class="edge">
<title>Node5&#45;&gt;Node6</title>
<g id="a_edge5_Node000005_Node000006"><a xlink:title=" ">
<path fill="none" stroke="#63b8ff" d="M1087.16,-170.02C1024.84,-160.54 876.8,-138.01 805.52,-127.17"/>
<polygon fill="#63b8ff" stroke="#63b8ff" points="806.26,-123.74 795.85,-125.7 805.21,-130.66 806.26,-123.74"/>
</a>
</g>
</g>
<!-- Node7 -->
<g id="Node000007" class="node">
<title>Node7</title>
<g id="a_Node000007"><a xlink:href="_types_8h.html" target="_top" xlink:title=" ">
<polygon fill="white" stroke="#666666" points="351.06,-74.5 300.56,-74.5 300.56,-55.25 351.06,-55.25 351.06,-74.5"/>
<text text-anchor="middle" x="325.81" y="-61" font-family="Helvetica,sans-Serif" font-size="10.00">Types.h</text>
</a>
</g>
</g>
<!-- Node6&#45;&gt;Node7 -->
<g id="edge6_Node000006_Node000007" class="edge">
<title>Node6&#45;&gt;Node7</title>
<g id="a_edge6_Node000006_Node000007"><a xlink:title=" ">
<path fill="none" stroke="#63b8ff" d="M737.28,-115.67C660.34,-106.36 448.63,-80.74 362.74,-70.34"/>
<polygon fill="#63b8ff" stroke="#63b8ff" points="363.33,-66.89 352.98,-69.16 362.49,-73.84 363.33,-66.89"/>
</a>
</g>
</g>
<!-- Node8 -->
<g id="Node000008" class="node">
<title>Node8</title>
<g id="a_Node000008"><a xlink:title=" ">
<polygon fill="#e0e0e0" stroke="#999999" points="283.31,-19.25 216.31,-19.25 216.31,0 283.31,0 283.31,-19.25"/>
<text text-anchor="middle" x="249.81" y="-5.75" font-family="Helvetica,sans-Serif" font-size="10.00">sys/types.h</text>
</a>
</g>
</g>
<!-- Node7&#45;&gt;Node8 -->
<g id="edge7_Node000007_Node000008" class="edge">
<title>Node7&#45;&gt;Node8</title>
<g id="a_edge7_Node000007_Node000008"><a xlink:title=" ">
<path fill="none" stroke="#63b8ff" d="M312.91,-54.84C301.78,-47.04 285.43,-35.59 272.17,-26.29"/>
<polygon fill="#63b8ff" stroke="#63b8ff" points="274.2,-23.44 264,-20.57 270.18,-29.18 274.2,-23.44"/>
</a>
</g>
</g>
<!-- Node9 -->
<g id="Node000009" class="node">
<title>Node9</title>
<g id="a_Node000009"><a xlink:title=" ">
<polygon fill="#e0e0e0" stroke="#999999" points="349.93,-19.25 301.68,-19.25 301.68,0 349.93,0 349.93,-19.25"/>
<text text-anchor="middle" x="325.81" y="-5.75" font-family="Helvetica,sans-Serif" font-size="10.00">stdint.h</text>
</a>
</g>
</g>
<!-- Node7&#45;&gt;Node9 -->
<g id="edge8_Node000007_Node000009" class="edge">
<title>Node7&#45;&gt;Node9</title>
<g id="a_edge8_Node000007_Node000009"><a xlink:title=" ">
<path fill="none" stroke="#63b8ff" d="M325.81,-55.08C325.81,-48.57 325.81,-39.42 325.81,-31.12"/>
<polygon fill="#63b8ff" stroke="#63b8ff" points="329.31,-31.12 325.81,-21.12 322.31,-31.12 329.31,-31.12"/>
</a>
</g>
</g>
<!-- Node10 -->
<g id="Node000010" class="node">
<title>Node10</title>
<g id="a_Node000010"><a xlink:title=" ">
<polygon fill="#e0e0e0" stroke="#999999" points="423.68,-19.25 367.93,-19.25 367.93,0 423.68,0 423.68,-19.25"/>
<text text-anchor="middle" x="395.81" y="-5.75" font-family="Helvetica,sans-Serif" font-size="10.00">stdbool.h</text>
</a>
</g>
</g>
<!-- Node7&#45;&gt;Node10 -->
<g id="edge9_Node000007_Node000010" class="edge">
<title>Node7&#45;&gt;Node10</title>
<g id="a_edge9_Node000007_Node000010"><a xlink:title=" ">
<path fill="none" stroke="#63b8ff" d="M337.68,-54.84C347.9,-47.07 362.88,-35.67 375.07,-26.4"/>
<polygon fill="#63b8ff" stroke="#63b8ff" points="377.06,-29.28 382.9,-20.44 372.82,-23.71 377.06,-29.28"/>
</a>
</g>
</g>
<!-- Node12&#45;&gt;Node5 -->
<g id="edge12_Node000012_Node000005" class="edge">
<title>Node12&#45;&gt;Node5</title>
<g id="a_edge12_Node000012_Node000005"><a xlink:title=" ">
<path fill="none" stroke="#63b8ff" d="M1129.16,-220.83C1127.16,-214.17 1124.33,-204.74 1121.79,-196.28"/>
<polygon fill="#63b8ff" stroke="#63b8ff" points="1125.17,-195.38 1118.94,-186.81 1118.47,-197.39 1125.17,-195.38"/>
</a>
</g>
</g>
<!-- Node12&#45;&gt;Node11 -->
<g id="edge13_Node000012_Node000011" class="edge">
<title>Node12&#45;&gt;Node11</title>
<g id="a_edge13_Node000012_Node000011"><a xlink:title=" ">
<path fill="none" stroke="#63b8ff" d="M1110.09,-220.59C1089.77,-212.14 1059.16,-199.4 1036,-189.77"/>
<polygon fill="#63b8ff" stroke="#63b8ff" points="1037.6,-186.64 1027.02,-186.03 1034.91,-193.11 1037.6,-186.64"/>
</a>
</g>
</g>
<!-- Node14 -->
<g id="Node000014" class="node">
<title>Node14</title>
<g id="a_Node000014"><a xlink:href="_error_8h.html" target="_top" xlink:title=" ">
<polygon fill="white" stroke="#666666" points="488.06,-295.5 443.56,-295.5 443.56,-276.25 488.06,-276.25 488.06,-295.5"/>
<text text-anchor="middle" x="465.81" y="-282" font-family="Helvetica,sans-Serif" font-size="10.00">Error.h</text>
</a>
</g>
</g>
<!-- Node13&#45;&gt;Node14 -->
<g id="edge15_Node000013_Node000014" class="edge">
<title>Node13&#45;&gt;Node14</title>
<g id="a_edge15_Node000013_Node000014"><a xlink:title=" ">
<path fill="none" stroke="#63b8ff" d="M469.15,-331.33C468.65,-324.74 467.95,-315.46 467.32,-307.07"/>
<polygon fill="#63b8ff" stroke="#63b8ff" points="470.83,-307.08 466.59,-297.37 463.85,-307.6 470.83,-307.08"/>
</a>
</g>
</g>
<!-- Node18 -->
<g id="Node000018" class="node">
<title>Node18</title>
<g id="a_Node000018"><a xlink:href="_inspectable_8h.html" target="_top" xlink:title=" ">
<polygon fill="white" stroke="#666666" points="423.06,-295.5 348.56,-295.5 348.56,-276.25 423.06,-276.25 423.06,-295.5"/>
<text text-anchor="middle" x="385.81" y="-282" font-family="Helvetica,sans-Serif" font-size="10.00">Inspectable.h</text>
</a>
</g>
</g>
<!-- Node13&#45;&gt;Node18 -->
<g id="edge22_Node000013_Node000018" class="edge">
<title>Node13&#45;&gt;Node18</title>
<g id="a_edge22_Node000013_Node000018"><a xlink:title=" ">
<path fill="none" stroke="#63b8ff" d="M455.56,-331.09C443.01,-323.14 424.47,-311.39 409.66,-302"/>
<polygon fill="#63b8ff" stroke="#63b8ff" points="411.72,-299.16 401.4,-296.76 407.98,-305.07 411.72,-299.16"/>
</a>
</g>
</g>
<!-- Node15 -->
<g id="Node000015" class="node">
<title>Node15</title>
<g id="a_Node000015"><a xlink:href="_error_types_8h.html" target="_top" xlink:title=" ">
<polygon fill="white" stroke="#666666" points="501.56,-240.25 430.06,-240.25 430.06,-221 501.56,-221 501.56,-240.25"/>
<text text-anchor="middle" x="465.81" y="-226.75" font-family="Helvetica,sans-Serif" font-size="10.00">ErrorTypes.h</text>
</a>
</g>
</g>
<!-- Node14&#45;&gt;Node15 -->
<g id="edge16_Node000014_Node000015" class="edge">
<title>Node14&#45;&gt;Node15</title>
<g id="a_edge16_Node000014_Node000015"><a xlink:title=" ">
<path fill="none" stroke="#63b8ff" d="M465.81,-276.08C465.81,-269.57 465.81,-260.42 465.81,-252.12"/>
<polygon fill="#63b8ff" stroke="#63b8ff" points="469.31,-252.12 465.81,-242.12 462.31,-252.12 469.31,-252.12"/>
</a>
</g>
</g>
<!-- Node16 -->
<g id="Node000016" class="node">
<title>Node16</title>
<g id="a_Node000016"><a xlink:href="_exception_8h.html" target="_top" xlink:title=" ">
<polygon fill="white" stroke="#666666" points="137.68,-240.25 69.93,-240.25 69.93,-221 137.68,-221 137.68,-240.25"/>
<text text-anchor="middle" x="103.81" y="-226.75" font-family="Helvetica,sans-Serif" font-size="10.00">Exception.h</text>
</a>
</g>
</g>
<!-- Node14&#45;&gt;Node16 -->
<g id="edge19_Node000014_Node000016" class="edge">
<title>Node14&#45;&gt;Node16</title>
<g id="a_edge19_Node000014_Node000016"><a xlink:title=" ">
<path fill="none" stroke="#63b8ff" d="M443.21,-278.76C439.42,-277.85 435.51,-276.97 431.81,-276.25 378.68,-265.93 226.2,-246.64 149.31,-237.17"/>
<polygon fill="#63b8ff" stroke="#63b8ff" points="149.94,-233.72 139.59,-235.97 149.09,-240.67 149.94,-233.72"/>
</a>
</g>
</g>
<!-- Node15&#45;&gt;Node5 -->
<g id="edge17_Node000015_Node000005" class="edge">
<title>Node15&#45;&gt;Node5</title>
<g id="a_edge17_Node000015_Node000005"><a xlink:title=" ">
<path fill="none" stroke="#63b8ff" d="M501.76,-222.19C504.48,-221.75 507.18,-221.34 509.81,-221 746.98,-189.93 808.7,-207.84 1046.81,-185 1056.29,-184.09 1066.48,-182.92 1076.05,-181.74"/>
<polygon fill="#63b8ff" stroke="#63b8ff" points="1076.33,-185.23 1085.81,-180.5 1075.45,-178.29 1076.33,-185.23"/>
</a>
</g>
</g>
<!-- Node15&#45;&gt;Node11 -->
<g id="edge18_Node000015_Node000011" class="edge">
<title>Node15&#45;&gt;Node11</title>
<g id="a_edge18_Node000015_Node000011"><a xlink:title=" ">
<path fill="none" stroke="#63b8ff" d="M501.77,-222.26C504.49,-221.8 507.19,-221.37 509.81,-221 673.83,-197.58 870.35,-184.16 957.86,-178.93"/>
<polygon fill="#63b8ff" stroke="#63b8ff" points="957.94,-182.43 967.72,-178.35 957.53,-175.45 957.94,-182.43"/>
</a>
</g>
</g>
<!-- Node16&#45;&gt;Node7 -->
<g id="edge20_Node000016_Node000007" class="edge">
<title>Node16&#45;&gt;Node7</title>
<g id="a_edge20_Node000016_Node000007"><a xlink:title=" ">
<path fill="none" stroke="#63b8ff" d="M115.59,-220.51C141.69,-200.36 206.46,-150.64 261.81,-110.5 275.34,-100.68 290.7,-89.96 302.98,-81.48"/>
<polygon fill="#63b8ff" stroke="#63b8ff" points="304.96,-84.37 311.22,-75.82 301,-78.6 304.96,-84.37"/>
</a>
</g>
</g>
<!-- Node17 -->
<g id="Node000017" class="node">
<title>Node17</title>
<g id="a_Node000017"><a xlink:title=" ">
<polygon fill="#e0e0e0" stroke="#999999" points="132.81,-185 74.81,-185 74.81,-165.75 132.81,-165.75 132.81,-185"/>
<text text-anchor="middle" x="103.81" y="-171.5" font-family="Helvetica,sans-Serif" font-size="10.00">exception</text>
</a>
</g>
</g>
<!-- Node16&#45;&gt;Node17 -->
<g id="edge21_Node000016_Node000017" class="edge">
<title>Node16&#45;&gt;Node17</title>
<g id="a_edge21_Node000016_Node000017"><a xlink:title=" ">
<path fill="none" stroke="#63b8ff" d="M103.81,-220.83C103.81,-214.32 103.81,-205.17 103.81,-196.87"/>
<polygon fill="#63b8ff" stroke="#63b8ff" points="107.31,-196.87 103.81,-186.87 100.31,-196.87 107.31,-196.87"/>
</a>
</g>
</g>
<!-- Node19 -->
<g id="Node000019" class="node">
<title>Node19</title>
<g id="a_Node000019"><a xlink:title=" ">
<polygon fill="#e0e0e0" stroke="#999999" points="247.56,-240.25 194.06,-240.25 194.06,-221 247.56,-221 247.56,-240.25"/>
<text text-anchor="middle" x="220.81" y="-226.75" font-family="Helvetica,sans-Serif" font-size="10.00">iostream</text>
</a>
</g>
</g>
<!-- Node18&#45;&gt;Node19 -->
<g id="edge23_Node000018_Node000019" class="edge">
<title>Node18&#45;&gt;Node19</title>
<g id="a_edge23_Node000018_Node000019"><a xlink:title=" ">
<path fill="none" stroke="#63b8ff" d="M357.82,-275.84C330.47,-267.02 288.65,-253.52 258.41,-243.76"/>
<polygon fill="#63b8ff" stroke="#63b8ff" points="259.87,-240.55 249.28,-240.81 257.72,-247.22 259.87,-240.55"/>
</a>
</g>
</g>
<!-- Node20&#45;&gt;Node21 -->
<g id="edge25_Node000020_Node000021" class="edge">
<title>Node20&#45;&gt;Node21</title>
<g id="a_edge25_Node000020_Node000021"><a xlink:title=" ">
<path fill="none" stroke="#63b8ff" d="M293.95,-386.34C284.7,-378.65 271.18,-367.4 260.1,-358.18"/>
<polygon fill="#63b8ff" stroke="#63b8ff" points="262.59,-355.7 252.67,-351.99 258.11,-361.08 262.59,-355.7"/>
</a>
</g>
</g>
<!-- Node22 -->
<g id="Node000022" class="node">
<title>Node22</title>
<g id="a_Node000022"><a xlink:href="_chrono_8h.html" target="_top" xlink:title=" ">
<polygon fill="white" stroke="#666666" points="59.68,-295.5 3.93,-295.5 3.93,-276.25 59.68,-276.25 59.68,-295.5"/>
<text text-anchor="middle" x="31.81" y="-282" font-family="Helvetica,sans-Serif" font-size="10.00">Chrono.h</text>
</a>
</g>
</g>
<!-- Node21&#45;&gt;Node22 -->
<g id="edge26_Node000021_Node000022" class="edge">
<title>Node21&#45;&gt;Node22</title>
<g id="a_edge26_Node000021_Node000022"><a xlink:title=" ">
<path fill="none" stroke="#63b8ff" d="M205.35,-331.09C168.04,-321.59 109.47,-306.66 70.86,-296.83"/>
<polygon fill="#63b8ff" stroke="#63b8ff" points="72.07,-293.52 61.51,-294.44 70.34,-300.3 72.07,-293.52"/>
</a>
</g>
</g>
<!-- Node24 -->
<g id="Node000024" class="node">
<title>Node24</title>
<g id="a_Node000024"><a xlink:title=" ">
<polygon fill="#e0e0e0" stroke="#999999" points="280.31,-295.5 237.31,-295.5 237.31,-276.25 280.31,-276.25 280.31,-295.5"/>
<text text-anchor="middle" x="258.81" y="-282" font-family="Helvetica,sans-Serif" font-size="10.00">thread</text>
</a>
</g>
</g>
<!-- Node21&#45;&gt;Node24 -->
<g id="edge29_Node000021_Node000024" class="edge">
<title>Node21&#45;&gt;Node24</title>
<g id="a_edge29_Node000021_Node000024"><a xlink:title=" ">
<path fill="none" stroke="#63b8ff" d="M243.78,-331.33C246.06,-324.59 249.29,-315.02 252.18,-306.49"/>
<polygon fill="#63b8ff" stroke="#63b8ff" points="255.4,-307.89 255.28,-297.29 248.77,-305.65 255.4,-307.89"/>
</a>
</g>
</g>
<!-- Node25 -->
<g id="Node000025" class="node">
<title>Node25</title>
<g id="a_Node000025"><a xlink:title=" ">
<polygon fill="#e0e0e0" stroke="#999999" points="219.18,-295.5 178.43,-295.5 178.43,-276.25 219.18,-276.25 219.18,-295.5"/>
<text text-anchor="middle" x="198.81" y="-282" font-family="Helvetica,sans-Serif" font-size="10.00">future</text>
</a>
</g>
</g>
<!-- Node21&#45;&gt;Node25 -->
<g id="edge30_Node000021_Node000025" class="edge">
<title>Node21&#45;&gt;Node25</title>
<g id="a_edge30_Node000021_Node000025"><a xlink:title=" ">
<path fill="none" stroke="#63b8ff" d="M233.87,-331.33C228.19,-324.13 219.97,-313.71 212.91,-304.76"/>
<polygon fill="#63b8ff" stroke="#63b8ff" points="215.77,-302.73 206.83,-297.05 210.27,-307.07 215.77,-302.73"/>
</a>
</g>
</g>
<!-- Node22&#45;&gt;Node7 -->
<g id="edge27_Node000022_Node000007" class="edge">
<title>Node22&#45;&gt;Node7</title>
<g id="a_edge27_Node000022_Node000007"><a xlink:title=" ">
<path fill="none" stroke="#63b8ff" d="M22.49,-275.78C10.98,-263.39 -6.04,-240.52 2.81,-221 18.18,-187.08 33.93,-185 65.81,-165.75 139.69,-121.13 236.95,-90.17 289.06,-75.52"/>
<polygon fill="#63b8ff" stroke="#63b8ff" points="289.92,-78.92 298.62,-72.88 288.05,-72.17 289.92,-78.92"/>
</a>
</g>
</g>
<!-- Node23 -->
<g id="Node000023" class="node">
<title>Node23</title>
<g id="a_Node000023"><a xlink:title=" ">
<polygon fill="#e0e0e0" stroke="#999999" points="51.81,-240.25 11.81,-240.25 11.81,-221 51.81,-221 51.81,-240.25"/>
<text text-anchor="middle" x="31.81" y="-226.75" font-family="Helvetica,sans-Serif" font-size="10.00">ctime</text>
</a>
</g>
</g>
<!-- Node22&#45;&gt;Node23 -->
<g id="edge28_Node000022_Node000023" class="edge">
<title>Node22&#45;&gt;Node23</title>
<g id="a_edge28_Node000022_Node000023"><a xlink:title=" ">
<path fill="none" stroke="#63b8ff" d="M31.81,-276.08C31.81,-269.57 31.81,-260.42 31.81,-252.12"/>
<polygon fill="#63b8ff" stroke="#63b8ff" points="35.31,-252.12 31.81,-242.12 28.31,-252.12 35.31,-252.12"/>
</a>
</g>
</g>
<!-- Node27&#45;&gt;Node11 -->
<g id="edge36_Node000027_Node000011" class="edge">
<title>Node27&#45;&gt;Node11</title>
<g id="a_edge36_Node000027_Node000011"><a xlink:title=" ">
<path fill="none" stroke="#63b8ff" d="M687.47,-446.45C777.16,-435.92 987.81,-404.55 987.81,-342.12 987.81,-342.12 987.81,-342.12 987.81,-284.88 987.81,-253.68 994.36,-217.97 999.08,-196.3"/>
<polygon fill="#63b8ff" stroke="#63b8ff" points="1002.44,-197.31 1001.25,-186.79 995.61,-195.76 1002.44,-197.31"/>
</a>
</g>
</g>
<!-- Node28 -->
<g id="Node000028" class="node">
<title>Node28</title>
<g id="a_Node000028"><a xlink:href="_option_types_8h.html" target="_top" xlink:title=" ">
<polygon fill="white" stroke="#666666" points="897.31,-350.75 818.31,-350.75 818.31,-331.5 897.31,-331.5 897.31,-350.75"/>
<text text-anchor="middle" x="857.81" y="-337.25" font-family="Helvetica,sans-Serif" font-size="10.00">OptionTypes.h</text>
</a>
</g>
</g>
<!-- Node27&#45;&gt;Node28 -->
<g id="edge33_Node000027_Node000028" class="edge">
<title>Node27&#45;&gt;Node28</title>
<g id="a_edge33_Node000027_Node000028"><a xlink:title=" ">
<path fill="none" stroke="#63b8ff" d="M665.35,-441.56C701.87,-422.69 786.3,-379.07 830.19,-356.4"/>
<polygon fill="#63b8ff" stroke="#63b8ff" points="831.54,-359.63 838.82,-351.93 828.33,-353.42 831.54,-359.63"/>
</a>
</g>
</g>
<!-- Node29 -->
<g id="Node000029" class="node">
<title>Node29</title>
<g id="a_Node000029"><a xlink:href="_defaults_8h.html" target="_top" xlink:title=" ">
<polygon fill="white" stroke="#666666" points="586.31,-406 525.31,-406 525.31,-386.75 586.31,-386.75 586.31,-406"/>
<text text-anchor="middle" x="555.81" y="-392.5" font-family="Helvetica,sans-Serif" font-size="10.00">Defaults.h</text>
</a>
</g>
</g>
<!-- Node27&#45;&gt;Node29 -->
<g id="edge37_Node000027_Node000029" class="edge">
<title>Node27&#45;&gt;Node29</title>
<g id="a_edge37_Node000027_Node000029"><a xlink:title=" ">
<path fill="none" stroke="#63b8ff" d="M632.2,-441.59C618.19,-433.48 597.37,-421.43 581,-411.96"/>
<polygon fill="#63b8ff" stroke="#63b8ff" points="583.21,-409.19 572.8,-407.21 579.7,-415.25 583.21,-409.19"/>
</a>
</g>
</g>
<!-- Node39 -->
<g id="Node000039" class="node">
<title>Node39</title>
<g id="a_Node000039"><a xlink:title=" ">
<polygon fill="#e0e0e0" stroke="#999999" points="675.68,-406 619.93,-406 619.93,-386.75 675.68,-386.75 675.68,-406"/>
<text text-anchor="middle" x="647.81" y="-392.5" font-family="Helvetica,sans-Serif" font-size="10.00">algorithm</text>
</a>
</g>
</g>
<!-- Node27&#45;&gt;Node39 -->
<g id="edge54_Node000027_Node000039" class="edge">
<title>Node27&#45;&gt;Node39</title>
<g id="a_edge54_Node000027_Node000039"><a xlink:title=" ">
<path fill="none" stroke="#63b8ff" d="M647.81,-441.83C647.81,-435.32 647.81,-426.17 647.81,-417.87"/>
<polygon fill="#63b8ff" stroke="#63b8ff" points="651.31,-417.87 647.81,-407.87 644.31,-417.87 651.31,-417.87"/>
</a>
</g>
</g>
<!-- Node28&#45;&gt;Node5 -->
<g id="edge34_Node000028_Node000005" class="edge">
<title>Node28&#45;&gt;Node5</title>
<g id="a_edge34_Node000028_Node000005"><a xlink:title=" ">
<path fill="none" stroke="#63b8ff" d="M872.04,-331.09C914.33,-304.25 1039.51,-224.8 1092.11,-191.42"/>
<polygon fill="#63b8ff" stroke="#63b8ff" points="1093.77,-194.51 1100.33,-186.2 1090.02,-188.6 1093.77,-194.51"/>
</a>
</g>
</g>
<!-- Node28&#45;&gt;Node11 -->
<g id="edge35_Node000028_Node000011" class="edge">
<title>Node28&#45;&gt;Node11</title>
<g id="a_edge35_Node000028_Node000011"><a xlink:title=" ">
<path fill="none" stroke="#63b8ff" d="M865.66,-331.32C888.93,-305.22 957.83,-227.94 988.63,-193.39"/>
<polygon fill="#63b8ff" stroke="#63b8ff" points="990.87,-196.15 994.91,-186.35 985.64,-191.49 990.87,-196.15"/>
</a>
</g>
</g>
<!-- Node29&#45;&gt;Node13 -->
<g id="edge38_Node000029_Node000013" class="edge">
<title>Node29&#45;&gt;Node13</title>
<g id="a_edge38_Node000029_Node000013"><a xlink:title=" ">
<path fill="none" stroke="#63b8ff" d="M541.22,-386.34C528.37,-378.39 509.39,-366.64 494.23,-357.25"/>
<polygon fill="#63b8ff" stroke="#63b8ff" points="496.1,-354.29 485.75,-352 492.41,-360.24 496.1,-354.29"/>
</a>
</g>
</g>
<!-- Node29&#45;&gt;Node21 -->
<g id="edge40_Node000029_Node000021" class="edge">
<title>Node29&#45;&gt;Node21</title>
<g id="a_edge40_Node000029_Node000021"><a xlink:title=" ">
<path fill="none" stroke="#63b8ff" d="M525.03,-390.17C470.66,-380.98 357.16,-361.79 291.22,-350.65"/>
<polygon fill="#63b8ff" stroke="#63b8ff" points="292.21,-347.27 281.77,-349.05 291.04,-354.17 292.21,-347.27"/>
</a>
</g>
</g>
<!-- Node29&#45;&gt;Node28 -->
<g id="edge39_Node000029_Node000028" class="edge">
<title>Node29&#45;&gt;Node28</title>
<g id="a_edge39_Node000029_Node000028"><a xlink:title=" ">
<path fill="none" stroke="#63b8ff" d="M586.71,-389.93C638.65,-380.77 743.93,-362.2 806.92,-351.1"/>
<polygon fill="#63b8ff" stroke="#63b8ff" points="807.44,-354.56 816.68,-349.38 806.22,-347.67 807.44,-354.56"/>
</a>
</g>
</g>
<!-- Node30 -->
<g id="Node000030" class="node">
<title>Node30</title>
<g id="a_Node000030"><a xlink:href="_i_o_utils_8h.html" target="_top" xlink:title=" ">
<polygon fill="white" stroke="#666666" points="583.31,-295.5 528.31,-295.5 528.31,-276.25 583.31,-276.25 583.31,-295.5"/>
<text text-anchor="middle" x="555.81" y="-282" font-family="Helvetica,sans-Serif" font-size="10.00">IOUtils.h</text>
</a>
</g>
</g>
<!-- Node29&#45;&gt;Node30 -->
<g id="edge41_Node000029_Node000030" class="edge">
<title>Node29&#45;&gt;Node30</title>
<g id="a_edge41_Node000029_Node000030"><a xlink:title=" ">
<path fill="none" stroke="#63b8ff" d="M555.81,-386.5C555.81,-369.25 555.81,-330.83 555.81,-307.06"/>
<polygon fill="#63b8ff" stroke="#63b8ff" points="559.31,-307.39 555.81,-297.39 552.31,-307.39 559.31,-307.39"/>
</a>
</g>
</g>
<!-- Node30&#45;&gt;Node7 -->
<g id="edge42_Node000030_Node000007" class="edge">
<title>Node30&#45;&gt;Node7</title>
<g id="a_edge42_Node000030_Node000007"><a xlink:title=" ">
<path fill="none" stroke="#63b8ff" d="M528.04,-280.33C467.43,-270.31 328,-246.69 319.81,-240.25 273.61,-203.92 300.88,-122.51 316.79,-85.21"/>
<polygon fill="#63b8ff" stroke="#63b8ff" points="319.96,-86.7 320.84,-76.14 313.57,-83.85 319.96,-86.7"/>
</a>
</g>
</g>
<!-- Node30&#45;&gt;Node19 -->
<g id="edge50_Node000030_Node000019" class="edge">
<title>Node30&#45;&gt;Node19</title>
<g id="a_edge50_Node000030_Node000019"><a xlink:title=" ">
<path fill="none" stroke="#63b8ff" d="M528.05,-280.75C459.87,-270.62 287.78,-244.95 261.81,-240.25 260.8,-240.07 259.79,-239.88 258.77,-239.69"/>
<polygon fill="#63b8ff" stroke="#63b8ff" points="259.64,-236.3 249.15,-237.8 258.29,-243.16 259.64,-236.3"/>
</a>
</g>
</g>
<!-- Node31 -->
<g id="Node000031" class="node">
<title>Node31</title>
<g id="a_Node000031"><a xlink:href="_string_utils_8h.html" target="_top" xlink:title=" ">
<polygon fill="white" stroke="#666666" points="411.81,-240.25 341.81,-240.25 341.81,-221 411.81,-221 411.81,-240.25"/>
<text text-anchor="middle" x="376.81" y="-226.75" font-family="Helvetica,sans-Serif" font-size="10.00">StringUtils.h</text>
</a>
</g>
</g>
<!-- Node30&#45;&gt;Node31 -->
<g id="edge43_Node000030_Node000031" class="edge">
<title>Node30&#45;&gt;Node31</title>
<g id="a_edge43_Node000030_Node000031"><a xlink:title=" ">
<path fill="none" stroke="#63b8ff" d="M527.84,-276.55C498.42,-267.8 451.81,-253.94 418.15,-243.92"/>
<polygon fill="#63b8ff" stroke="#63b8ff" points="419.31,-240.62 408.72,-241.12 417.31,-247.33 419.31,-240.62"/>
</a>
</g>
</g>
<!-- Node30&#45;&gt;Node32 -->
<g id="edge53_Node000030_Node000032" class="edge">
<title>Node30&#45;&gt;Node32</title>
<g id="a_edge53_Node000030_Node000032"><a xlink:title=" ">
<path fill="none" stroke="#63b8ff" d="M528.11,-280.23C469.85,-270.33 339.42,-247.48 332.81,-240.25 322.2,-228.66 321.14,-210.48 322.34,-196.48"/>
<polygon fill="#63b8ff" stroke="#63b8ff" points="325.81,-196.97 323.67,-186.6 318.87,-196.04 325.81,-196.97"/>
</a>
</g>
</g>
<!-- Node33 -->
<g id="Node000033" class="node">
<title>Node33</title>
<g id="a_Node000033"><a xlink:title=" ">
<polygon fill="#e0e0e0" stroke="#999999" points="562.31,-240.25 519.31,-240.25 519.31,-221 562.31,-221 562.31,-240.25"/>
<text text-anchor="middle" x="540.81" y="-226.75" font-family="Helvetica,sans-Serif" font-size="10.00">fcntl.h</text>
</a>
</g>
</g>
<!-- Node30&#45;&gt;Node33 -->
<g id="edge46_Node000030_Node000033" class="edge">
<title>Node30&#45;&gt;Node33</title>
<g id="a_edge46_Node000030_Node000033"><a xlink:title=" ">
<path fill="none" stroke="#63b8ff" d="M553.33,-276.08C551.45,-269.42 548.8,-259.99 546.41,-251.53"/>
<polygon fill="#63b8ff" stroke="#63b8ff" points="549.83,-250.74 543.75,-242.07 543.09,-252.64 549.83,-250.74"/>
</a>
</g>
</g>
<!-- Node34 -->
<g id="Node000034" class="node">
<title>Node34</title>
<g id="a_Node000034"><a xlink:title=" ">
<polygon fill="#e0e0e0" stroke="#999999" points="641.31,-240.25 580.31,-240.25 580.31,-221 641.31,-221 641.31,-240.25"/>
<text text-anchor="middle" x="610.81" y="-226.75" font-family="Helvetica,sans-Serif" font-size="10.00">filesystem</text>
</a>
</g>
</g>
<!-- Node30&#45;&gt;Node34 -->
<g id="edge47_Node000030_Node000034" class="edge">
<title>Node30&#45;&gt;Node34</title>
<g id="a_edge47_Node000030_Node000034"><a xlink:title=" ">
<path fill="none" stroke="#63b8ff" d="M564.89,-276.08C572.64,-268.57 584.02,-257.56 593.5,-248.38"/>
<polygon fill="#63b8ff" stroke="#63b8ff" points="595.69,-251.13 600.44,-241.66 590.82,-246.1 595.69,-251.13"/>
</a>
</g>
</g>
<!-- Node35 -->
<g id="Node000035" class="node">
<title>Node35</title>
<g id="a_Node000035"><a xlink:title=" ">
<polygon fill="#e0e0e0" stroke="#999999" points="708.31,-240.25 659.31,-240.25 659.31,-221 708.31,-221 708.31,-240.25"/>
<text text-anchor="middle" x="683.81" y="-226.75" font-family="Helvetica,sans-Serif" font-size="10.00">fstream</text>
</a>
</g>
</g>
<!-- Node30&#45;&gt;Node35 -->
<g id="edge48_Node000030_Node000035" class="edge">
<title>Node30&#45;&gt;Node35</title>
<g id="a_edge48_Node000030_Node000035"><a xlink:title=" ">
<path fill="none" stroke="#63b8ff" d="M577.52,-275.84C597.84,-267.39 628.45,-254.65 651.61,-245.02"/>
<polygon fill="#63b8ff" stroke="#63b8ff" points="652.7,-248.36 660.59,-241.28 650.01,-241.89 652.7,-248.36"/>
</a>
</g>
</g>
<!-- Node36 -->
<g id="Node000036" class="node">
<title>Node36</title>
<g id="a_Node000036"><a xlink:title=" ">
<polygon fill="#e0e0e0" stroke="#999999" points="774.93,-240.25 726.68,-240.25 726.68,-221 774.93,-221 774.93,-240.25"/>
<text text-anchor="middle" x="750.81" y="-226.75" font-family="Helvetica,sans-Serif" font-size="10.00">istream</text>
</a>
</g>
</g>
<!-- Node30&#45;&gt;Node36 -->
<g id="edge49_Node000030_Node000036" class="edge">
<title>Node30&#45;&gt;Node36</title>
<g id="a_edge49_Node000030_Node000036"><a xlink:title=" ">
<path fill="none" stroke="#63b8ff" d="M583.74,-277.25C618.39,-267.79 677.48,-251.65 715.3,-241.32"/>
<polygon fill="#63b8ff" stroke="#63b8ff" points="716.12,-244.72 724.85,-238.71 714.28,-237.97 716.12,-244.72"/>
</a>
</g>
</g>
<!-- Node37 -->
<g id="Node000037" class="node">
<title>Node37</title>
<g id="a_Node000037"><a xlink:title=" ">
<polygon fill="#e0e0e0" stroke="#999999" points="844.43,-240.25 793.18,-240.25 793.18,-221 844.43,-221 844.43,-240.25"/>
<text text-anchor="middle" x="818.81" y="-226.75" font-family="Helvetica,sans-Serif" font-size="10.00">sstream</text>
</a>
</g>
</g>
<!-- Node30&#45;&gt;Node37 -->
<g id="edge51_Node000030_Node000037" class="edge">
<title>Node30&#45;&gt;Node37</title>
<g id="a_edge51_Node000030_Node000037"><a xlink:title=" ">
<path fill="none" stroke="#63b8ff" d="M583.62,-279.88C624.73,-272.4 704.35,-257.54 781.92,-240.58"/>
<polygon fill="#63b8ff" stroke="#63b8ff" points="782.35,-244.07 791.37,-238.5 780.85,-237.23 782.35,-244.07"/>
</a>
</g>
</g>
<!-- Node38 -->
<g id="Node000038" class="node">
<title>Node38</title>
<g id="a_Node000038"><a xlink:title=" ">
<polygon fill="#e0e0e0" stroke="#999999" points="921.56,-240.25 862.06,-240.25 862.06,-221 921.56,-221 921.56,-240.25"/>
<text text-anchor="middle" x="891.81" y="-226.75" font-family="Helvetica,sans-Serif" font-size="10.00">sys/stat.h</text>
</a>
</g>
</g>
<!-- Node30&#45;&gt;Node38 -->
<g id="edge52_Node000030_Node000038" class="edge">
<title>Node30&#45;&gt;Node38</title>
<g id="a_edge52_Node000030_Node000038"><a xlink:title=" ">
<path fill="none" stroke="#63b8ff" d="M583.45,-281.44C634.36,-274.95 746.58,-259.97 850.27,-240.81"/>
<polygon fill="#63b8ff" stroke="#63b8ff" points="850.89,-244.26 860.08,-238.98 849.61,-237.38 850.89,-244.26"/>
</a>
</g>
</g>
<!-- Node31&#45;&gt;Node7 -->
<g id="edge44_Node000031_Node000007" class="edge">
<title>Node31&#45;&gt;Node7</title>
<g id="a_edge44_Node000031_Node000007"><a xlink:title=" ">
<path fill="none" stroke="#63b8ff" d="M374.06,-220.82C366.14,-195.39 343.08,-121.35 331.96,-85.62"/>
<polygon fill="#63b8ff" stroke="#63b8ff" points="335.33,-84.67 329.01,-76.17 328.64,-86.76 335.33,-84.67"/>
</a>
</g>
</g>
<!-- Node31&#45;&gt;Node32 -->
<g id="edge45_Node000031_Node000032" class="edge">
<title>Node31&#45;&gt;Node32</title>
<g id="a_edge45_Node000031_Node000032"><a xlink:title=" ">
<path fill="none" stroke="#63b8ff" d="M368.38,-220.83C361.27,-213.4 350.86,-202.54 342.12,-193.41"/>
<polygon fill="#63b8ff" stroke="#63b8ff" points="344.9,-191.25 335.46,-186.45 339.85,-196.1 344.9,-191.25"/>
</a>
</g>
</g>
<!-- Node41 -->
<g id="Node000041" class="node">
<title>Node41</title>
<g id="a_Node000041"><a xlink:title=" ">
<polygon fill="#e0e0e0" stroke="#999999" points="1154.93,-406 1112.68,-406 1112.68,-386.75 1154.93,-386.75 1154.93,-406"/>
<text text-anchor="middle" x="1133.81" y="-392.5" font-family="Helvetica,sans-Serif" font-size="10.00">cstdio</text>
</a>
</g>
</g>
<!-- Node40&#45;&gt;Node41 -->
<g id="edge57_Node000040_Node000041" class="edge">
<title>Node40&#45;&gt;Node41</title>
<g id="a_edge57_Node000040_Node000041"><a xlink:title=" ">
<path fill="none" stroke="#63b8ff" d="M1133.81,-441.83C1133.81,-435.32 1133.81,-426.17 1133.81,-417.87"/>
<polygon fill="#63b8ff" stroke="#63b8ff" points="1137.31,-417.87 1133.81,-407.87 1130.31,-417.87 1137.31,-417.87"/>
</a>
</g>
</g>
<!-- Node42&#45;&gt;Node5 -->
<g id="edge61_Node000042_Node000005" class="edge">
<title>Node42&#45;&gt;Node5</title>
<g id="a_edge61_Node000042_Node000005"><a xlink:title=" ">
<path fill="none" stroke="#63b8ff" d="M1238.7,-220.59C1214.78,-211.99 1178.52,-198.94 1151.58,-189.25"/>
<polygon fill="#63b8ff" stroke="#63b8ff" points="1153.05,-186.06 1142.46,-185.96 1150.68,-192.64 1153.05,-186.06"/>
</a>
</g>
</g>
<!-- Node42&#45;&gt;Node11 -->
<g id="edge62_Node000042_Node000011" class="edge">
<title>Node42&#45;&gt;Node11</title>
<g id="a_edge62_Node000042_Node000011"><a xlink:title=" ">
<path fill="none" stroke="#63b8ff" d="M1227.38,-222.16C1180.83,-212.63 1100.24,-196.13 1049.59,-185.75"/>
<polygon fill="#63b8ff" stroke="#63b8ff" points="1050.31,-182.33 1039.81,-183.75 1048.9,-189.18 1050.31,-182.33"/>
</a>
</g>
</g>
<!-- Node43 -->
<g id="Node000043" class="node">
<title>Node43</title>
<g id="a_Node000043"><a xlink:href="_peddle_types_8h.html" target="_top" xlink:title=" ">
<polygon fill="white" stroke="#666666" points="1071.06,-129.75 990.56,-129.75 990.56,-110.5 1071.06,-110.5 1071.06,-129.75"/>
<text text-anchor="middle" x="1030.81" y="-116.25" font-family="Helvetica,sans-Serif" font-size="10.00">PeddleTypes.h</text>
</a>
</g>
</g>
<!-- Node42&#45;&gt;Node43 -->
<g id="edge63_Node000042_Node000043" class="edge">
<title>Node42&#45;&gt;Node43</title>
<g id="a_edge63_Node000042_Node000043"><a xlink:title=" ">
<path fill="none" stroke="#63b8ff" d="M1249.86,-220.55C1229.22,-207.37 1189.08,-182.67 1152.81,-165.75 1126.16,-153.32 1095.02,-141.98 1070.87,-133.84"/>
<polygon fill="#63b8ff" stroke="#63b8ff" points="1072,-130.53 1061.4,-130.7 1069.79,-137.17 1072,-130.53"/>
</a>
</g>
</g>
<!-- Node43&#45;&gt;Node7 -->
<g id="edge64_Node000043_Node000007" class="edge">
<title>Node43&#45;&gt;Node7</title>
<g id="a_edge64_Node000043_Node000007"><a xlink:title=" ">
<path fill="none" stroke="#63b8ff" d="M990.11,-116.05C864.38,-106.55 483.34,-77.77 362.79,-68.67"/>
<polygon fill="#63b8ff" stroke="#63b8ff" points="363.06,-65.18 352.82,-67.92 362.53,-72.16 363.06,-65.18"/>
</a>
</g>
</g>
</g>
</svg>
