<?xml version="1.0" encoding="UTF-8" standalone="no"?>
<!DOCTYPE svg PUBLIC "-//W3C//DTD SVG 1.1//EN"
 "http://www.w3.org/Graphics/SVG/1.1/DTD/svg11.dtd">
<!-- Generated by graphviz version 10.0.1 (20240210.2158)
 -->
<!-- Title: /Users/hoff/Retro/virtualc64/Emulator/Base/Option.h Pages: 1 -->
<svg width="672pt" height="116pt"
 viewBox="0.00 0.00 672.38 116.25" xmlns="http://www.w3.org/2000/svg" xmlns:xlink="http://www.w3.org/1999/xlink">
<g id="graph0" class="graph" transform="scale(1 1) rotate(0) translate(4 112.25)">
<title>/Users/hoff/Retro/virtualc64/Emulator/Base/Option.h</title>
<!-- Node1 -->
<g id="Node000001" class="node">
<title>Node1</title>
<g id="a_Node000001"><a xlink:title=" ">
<polygon fill="#999999" stroke="#666666" points="401.38,-108.25 264.62,-108.25 264.62,-77.75 401.38,-77.75 401.38,-108.25"/>
<text text-anchor="start" x="272.62" y="-94.75" font-family="Helvetica,sans-Serif" font-size="10.00">/Users/hoff/Retro/virtualc64</text>
<text text-anchor="middle" x="333" y="-83.5" font-family="Helvetica,sans-Serif" font-size="10.00">/Emulator/Base/Option.h</text>
</a>
</g>
</g>
<!-- Node2 -->
<g id="Node000002" class="node">
<title>Node2</title>
<g id="a_Node000002"><a xlink:href="_configurable_8cpp.html" target="_top" xlink:title=" ">
<polygon fill="white" stroke="#666666" points="160,-36.12 0,-36.12 0,-5.62 160,-5.62 160,-36.12"/>
<text text-anchor="start" x="8" y="-22.62" font-family="Helvetica,sans-Serif" font-size="10.00">/Users/hoff/Retro/virtualc64</text>
<text text-anchor="middle" x="80" y="-11.38" font-family="Helvetica,sans-Serif" font-size="10.00">/Emulator/Base/Configurable.cpp</text>
</a>
</g>
</g>
<!-- Node1&#45;&gt;Node2 -->
<g id="edge1_Node000001_Node000002" class="edge">
<title>Node1&#45;&gt;Node2</title>
<g id="a_edge1_Node000001_Node000002"><a xlink:title=" ">
<path fill="none" stroke="#63b8ff" d="M269,-74.26C226.95,-62.61 172.59,-47.54 132.97,-36.56"/>
<polygon fill="#63b8ff" stroke="#63b8ff" points="267.93,-77.6 278.5,-76.9 269.8,-70.85 267.93,-77.6"/>
</a>
</g>
</g>
<!-- Node3 -->
<g id="Node000003" class="node">
<title>Node3</title>
<g id="a_Node000003"><a xlink:href="_option_8cpp.html" target="_top" xlink:title=" ">
<polygon fill="white" stroke="#666666" points="314.38,-36.12 177.62,-36.12 177.62,-5.62 314.38,-5.62 314.38,-36.12"/>
<text text-anchor="start" x="185.62" y="-22.62" font-family="Helvetica,sans-Serif" font-size="10.00">/Users/hoff/Retro/virtualc64</text>
<text text-anchor="middle" x="246" y="-11.38" font-family="Helvetica,sans-Serif" font-size="10.00">/Emulator/Base/Option.cpp</text>
</a>
</g>
</g>
<!-- Node1&#45;&gt;Node3 -->
<g id="edge2_Node000001_Node000003" class="edge">
<title>Node1&#45;&gt;Node3</title>
<g id="a_edge2_Node000001_Node000003"><a xlink:title=" ">
<path fill="none" stroke="#63b8ff" d="M306.4,-70.56C292.65,-59.48 276.25,-46.25 264,-36.39"/>
<polygon fill="#63b8ff" stroke="#63b8ff" points="303.81,-72.97 313.8,-76.52 308.21,-67.52 303.81,-72.97"/>
</a>
</g>
</g>
<!-- Node4 -->
<g id="Node000004" class="node">
<title>Node4</title>
<g id="a_Node000004"><a xlink:href="_emulator_8cpp.html" target="_top" xlink:title=" ">
<polygon fill="white" stroke="#666666" points="509.25,-36.12 332.75,-36.12 332.75,-5.62 509.25,-5.62 509.25,-36.12"/>
<text text-anchor="start" x="340.75" y="-22.62" font-family="Helvetica,sans-Serif" font-size="10.00">/Users/hoff/Retro/virtualc64</text>
<text text-anchor="middle" x="421" y="-11.38" font-family="Helvetica,sans-Serif" font-size="10.00">/Emulator/Components/Emulator.cpp</text>
</a>
</g>
</g>
<!-- Node1&#45;&gt;Node4 -->
<g id="edge3_Node000001_Node000004" class="edge">
<title>Node1&#45;&gt;Node4</title>
<g id="a_edge3_Node000001_Node000004"><a xlink:title=" ">
<path fill="none" stroke="#63b8ff" d="M359.91,-70.56C373.81,-59.48 390.41,-46.25 402.79,-36.39"/>
<polygon fill="#63b8ff" stroke="#63b8ff" points="358.06,-67.56 352.42,-76.53 362.42,-73.03 358.06,-67.56"/>
</a>
</g>
</g>
<!-- Node5 -->
<g id="Node000005" class="node">
<title>Node5</title>
<g id="a_Node000005"><a xlink:href="_interpreter_cmds_8cpp.html" target="_top" xlink:title=" ">
<polygon fill="white" stroke="#666666" points="664.38,-41.75 527.62,-41.75 527.62,0 664.38,0 664.38,-41.75"/>
<text text-anchor="start" x="535.62" y="-28.25" font-family="Helvetica,sans-Serif" font-size="10.00">/Users/hoff/Retro/virtualc64</text>
<text text-anchor="start" x="535.62" y="-17" font-family="Helvetica,sans-Serif" font-size="10.00">/Emulator/Misc/RetroShell</text>
<text text-anchor="middle" x="596" y="-5.75" font-family="Helvetica,sans-Serif" font-size="10.00">/InterpreterCmds.cpp</text>
</a>
</g>
</g>
<!-- Node1&#45;&gt;Node5 -->
<g id="edge4_Node000001_Node000005" class="edge">
<title>Node1&#45;&gt;Node5</title>
<g id="a_edge4_Node000001_Node000005"><a xlink:title=" ">
<path fill="none" stroke="#63b8ff" d="M399.14,-74.36C438.28,-63.93 487.79,-50.73 527.36,-40.18"/>
<polygon fill="#63b8ff" stroke="#63b8ff" points="398.36,-70.95 389.6,-76.91 400.16,-77.71 398.36,-70.95"/>
</a>
</g>
</g>
</g>
</svg>
