<?xml version="1.0" encoding="UTF-8" standalone="no"?>
<!DOCTYPE svg PUBLIC "-//W3C//DTD SVG 1.1//EN"
 "http://www.w3.org/Graphics/SVG/1.1/DTD/svg11.dtd">
<!-- Generated by graphviz version 10.0.1 (20240210.2158)
 -->
<!-- Title: /Users/hoff/Retro/virtualc64/Emulator/Base/Option.cpp Pages: 1 -->
<svg width="1387pt" height="425pt"
 viewBox="0.00 0.00 1387.00 425.25" xmlns="http://www.w3.org/2000/svg" xmlns:xlink="http://www.w3.org/1999/xlink">
<g id="graph0" class="graph" transform="scale(1 1) rotate(0) translate(4 421.25)">
<title>/Users/hoff/Retro/virtualc64/Emulator/Base/Option.cpp</title>
<!-- Node1 -->
<g id="Node000001" class="node">
<title>Node1</title>
<g id="a_Node000001"><a xlink:title=" ">
<polygon fill="#999999" stroke="#666666" points="629.12,-417.25 492.38,-417.25 492.38,-386.75 629.12,-386.75 629.12,-417.25"/>
<text text-anchor="start" x="500.38" y="-403.75" font-family="Helvetica,sans-Serif" font-size="10.00">/Users/hoff/Retro/virtualc64</text>
<text text-anchor="middle" x="560.75" y="-392.5" font-family="Helvetica,sans-Serif" font-size="10.00">/Emulator/Base/Option.cpp</text>
</a>
</g>
</g>
<!-- Node2 -->
<g id="Node000002" class="node">
<title>Node2</title>
<g id="a_Node000002"><a xlink:href="config_8h.html" target="_top" xlink:title=" ">
<polygon fill="white" stroke="#666666" points="147,-350.75 96.5,-350.75 96.5,-331.5 147,-331.5 147,-350.75"/>
<text text-anchor="middle" x="121.75" y="-337.25" font-family="Helvetica,sans-Serif" font-size="10.00">config.h</text>
</a>
</g>
</g>
<!-- Node1&#45;&gt;Node2 -->
<g id="edge1_Node000001_Node000002" class="edge">
<title>Node1&#45;&gt;Node2</title>
<g id="a_edge1_Node000001_Node000002"><a xlink:title=" ">
<path fill="none" stroke="#63b8ff" d="M492.16,-391.8C398.04,-379.18 232.19,-356.94 158.65,-347.07"/>
<polygon fill="#63b8ff" stroke="#63b8ff" points="159.13,-343.61 148.75,-345.75 158.2,-350.54 159.13,-343.61"/>
</a>
</g>
</g>
<!-- Node4 -->
<g id="Node000004" class="node">
<title>Node4</title>
<g id="a_Node000004"><a xlink:href="_option_8h.html" target="_top" xlink:title=" ">
<polygon fill="white" stroke="#666666" points="1318.12,-295.5 1265.38,-295.5 1265.38,-276.25 1318.12,-276.25 1318.12,-295.5"/>
<text text-anchor="middle" x="1291.75" y="-282" font-family="Helvetica,sans-Serif" font-size="10.00">Option.h</text>
</a>
</g>
</g>
<!-- Node1&#45;&gt;Node4 -->
<g id="edge3_Node000001_Node000004" class="edge">
<title>Node1&#45;&gt;Node4</title>
<g id="a_edge3_Node000001_Node000004"><a xlink:title=" ">
<path fill="none" stroke="#63b8ff" d="M629.28,-397.46C724.79,-391.74 903.06,-378.22 1052.75,-350.75 1125.14,-337.47 1207.71,-313.34 1254.4,-298.85"/>
<polygon fill="#63b8ff" stroke="#63b8ff" points="1255.24,-302.25 1263.74,-295.92 1253.15,-295.57 1255.24,-302.25"/>
</a>
</g>
</g>
<!-- Node16 -->
<g id="Node000016" class="node">
<title>Node16</title>
<g id="a_Node000016"><a xlink:href="_emulator_types_8h.html" target="_top" xlink:title=" ">
<polygon fill="white" stroke="#666666" points="1149.5,-295.5 1060,-295.5 1060,-276.25 1149.5,-276.25 1149.5,-295.5"/>
<text text-anchor="middle" x="1104.75" y="-282" font-family="Helvetica,sans-Serif" font-size="10.00">EmulatorTypes.h</text>
</a>
</g>
</g>
<!-- Node1&#45;&gt;Node16 -->
<g id="edge17_Node000001_Node000016" class="edge">
<title>Node1&#45;&gt;Node16</title>
<g id="a_edge17_Node000001_Node000016"><a xlink:title=" ">
<path fill="none" stroke="#63b8ff" d="M629.44,-398.13C740.26,-392.73 953.12,-378.97 1022.75,-350.75 1048.75,-340.21 1073.42,-318.91 1088.78,-303.81"/>
<polygon fill="#63b8ff" stroke="#63b8ff" points="1091.11,-306.43 1095.63,-296.84 1086.12,-301.52 1091.11,-306.43"/>
</a>
</g>
</g>
<!-- Node18 -->
<g id="Node000018" class="node">
<title>Node18</title>
<g id="a_Node000018"><a xlink:href="_v_i_c_i_i_types_8h.html" target="_top" xlink:title=" ">
<polygon fill="white" stroke="#666666" points="681.62,-350.75 607.88,-350.75 607.88,-331.5 681.62,-331.5 681.62,-350.75"/>
<text text-anchor="middle" x="644.75" y="-337.25" font-family="Helvetica,sans-Serif" font-size="10.00">VICIITypes.h</text>
</a>
</g>
</g>
<!-- Node1&#45;&gt;Node18 -->
<g id="edge23_Node000001_Node000018" class="edge">
<title>Node1&#45;&gt;Node18</title>
<g id="a_edge23_Node000001_Node000018"><a xlink:title=" ">
<path fill="none" stroke="#63b8ff" d="M581.51,-386.45C593.93,-377.74 609.72,-366.68 622.41,-357.78"/>
<polygon fill="#63b8ff" stroke="#63b8ff" points="624.38,-360.68 630.56,-352.07 620.36,-354.94 624.38,-360.68"/>
</a>
</g>
</g>
<!-- Node22 -->
<g id="Node000022" class="node">
<title>Node22</title>
<g id="a_Node000022"><a xlink:href="_datasette_types_8h.html" target="_top" xlink:title=" ">
<polygon fill="white" stroke="#666666" points="869.38,-240.25 776.12,-240.25 776.12,-221 869.38,-221 869.38,-240.25"/>
<text text-anchor="middle" x="822.75" y="-226.75" font-family="Helvetica,sans-Serif" font-size="10.00">DatasetteTypes.h</text>
</a>
</g>
</g>
<!-- Node1&#45;&gt;Node22 -->
<g id="edge34_Node000001_Node000022" class="edge">
<title>Node1&#45;&gt;Node22</title>
<g id="a_edge34_Node000001_Node000022"><a xlink:title=" ">
<path fill="none" stroke="#63b8ff" d="M629.34,-395.18C693.05,-385.7 784.54,-360.82 828.75,-295.5 837.54,-282.52 834.85,-264.5 830.64,-250.91"/>
<polygon fill="#63b8ff" stroke="#63b8ff" points="834.03,-249.97 827.33,-241.77 827.45,-252.36 834.03,-249.97"/>
</a>
</g>
</g>
<!-- Node23 -->
<g id="Node000023" class="node">
<title>Node23</title>
<g id="a_Node000023"><a xlink:href="_memory_types_8h.html" target="_top" xlink:title=" ">
<polygon fill="white" stroke="#666666" points="973.62,-240.25 887.88,-240.25 887.88,-221 973.62,-221 973.62,-240.25"/>
<text text-anchor="middle" x="930.75" y="-226.75" font-family="Helvetica,sans-Serif" font-size="10.00">MemoryTypes.h</text>
</a>
</g>
</g>
<!-- Node1&#45;&gt;Node23 -->
<g id="edge37_Node000001_Node000023" class="edge">
<title>Node1&#45;&gt;Node23</title>
<g id="a_edge37_Node000001_Node000023"><a xlink:title=" ">
<path fill="none" stroke="#63b8ff" d="M629.58,-395.45C677.89,-389.39 742.86,-376.81 794.75,-350.75 845.96,-325.03 893.3,-275.4 916.24,-249.05"/>
<polygon fill="#63b8ff" stroke="#63b8ff" points="918.74,-251.52 922.57,-241.64 913.42,-246.97 918.74,-251.52"/>
</a>
</g>
</g>
<!-- Node24 -->
<g id="Node000024" class="node">
<title>Node24</title>
<g id="a_Node000024"><a xlink:href="_s_i_d_types_8h.html" target="_top" xlink:title=" ">
<polygon fill="white" stroke="#666666" points="1059.62,-240.25 991.88,-240.25 991.88,-221 1059.62,-221 1059.62,-240.25"/>
<text text-anchor="middle" x="1025.75" y="-226.75" font-family="Helvetica,sans-Serif" font-size="10.00">SIDTypes.h</text>
</a>
</g>
</g>
<!-- Node1&#45;&gt;Node24 -->
<g id="edge40_Node000001_Node000024" class="edge">
<title>Node1&#45;&gt;Node24</title>
<g id="a_edge40_Node000001_Node000024"><a xlink:title=" ">
<path fill="none" stroke="#63b8ff" d="M629.52,-394.52C683.86,-387.85 760.93,-374.89 824.75,-350.75 895.54,-323.98 969.91,-272.95 1005.04,-247.25"/>
<polygon fill="#63b8ff" stroke="#63b8ff" points="1007.09,-250.09 1013.04,-241.32 1002.92,-244.46 1007.09,-250.09"/>
</a>
</g>
</g>
<!-- Node25 -->
<g id="Node000025" class="node">
<title>Node25</title>
<g id="a_Node000025"><a xlink:href="_c_i_a_types_8h.html" target="_top" xlink:title=" ">
<polygon fill="white" stroke="#666666" points="208.88,-295.5 142.62,-295.5 142.62,-276.25 208.88,-276.25 208.88,-295.5"/>
<text text-anchor="middle" x="175.75" y="-282" font-family="Helvetica,sans-Serif" font-size="10.00">CIATypes.h</text>
</a>
</g>
</g>
<!-- Node1&#45;&gt;Node25 -->
<g id="edge43_Node000001_Node000025" class="edge">
<title>Node1&#45;&gt;Node25</title>
<g id="a_edge43_Node000001_Node000025"><a xlink:title=" ">
<path fill="none" stroke="#63b8ff" d="M492.07,-387.06C450.05,-377.98 395.39,-365.16 347.75,-350.75 298.09,-335.73 242,-313.97 207.76,-300.12"/>
<polygon fill="#63b8ff" stroke="#63b8ff" points="209.43,-297.02 198.85,-296.49 206.79,-303.51 209.43,-297.02"/>
</a>
</g>
</g>
<!-- Node27 -->
<g id="Node000027" class="node">
<title>Node27</title>
<g id="a_Node000027"><a xlink:href="_drive_types_8h.html" target="_top" xlink:title=" ">
<polygon fill="white" stroke="#666666" points="330.62,-295.5 256.88,-295.5 256.88,-276.25 330.62,-276.25 330.62,-295.5"/>
<text text-anchor="middle" x="293.75" y="-282" font-family="Helvetica,sans-Serif" font-size="10.00">DriveTypes.h</text>
</a>
</g>
</g>
<!-- Node1&#45;&gt;Node27 -->
<g id="edge48_Node000001_Node000027" class="edge">
<title>Node1&#45;&gt;Node27</title>
<g id="a_edge48_Node000001_Node000027"><a xlink:title=" ">
<path fill="none" stroke="#63b8ff" d="M491.96,-387.71C457.78,-379.62 416.47,-367.55 381.75,-350.75 355.51,-338.05 328.91,-317.43 311.93,-303.07"/>
<polygon fill="#63b8ff" stroke="#63b8ff" points="314.55,-300.71 304.7,-296.81 309.97,-306 314.55,-300.71"/>
</a>
</g>
</g>
<!-- Node28 -->
<g id="Node000028" class="node">
<title>Node28</title>
<g id="a_Node000028"><a xlink:href="_par_cable_types_8h.html" target="_top" xlink:title=" ">
<polygon fill="white" stroke="#666666" points="295.25,-240.25 204.25,-240.25 204.25,-221 295.25,-221 295.25,-240.25"/>
<text text-anchor="middle" x="249.75" y="-226.75" font-family="Helvetica,sans-Serif" font-size="10.00">ParCableTypes.h</text>
</a>
</g>
</g>
<!-- Node1&#45;&gt;Node28 -->
<g id="edge54_Node000001_Node000028" class="edge">
<title>Node1&#45;&gt;Node28</title>
<g id="a_edge54_Node000001_Node000028"><a xlink:title=" ">
<path fill="none" stroke="#63b8ff" d="M535.8,-386.34C495.12,-362.56 411.78,-314.4 339.75,-276.25 319.71,-265.64 296.81,-254.29 279.13,-245.7"/>
<polygon fill="#63b8ff" stroke="#63b8ff" points="280.75,-242.6 270.23,-241.39 277.7,-248.9 280.75,-242.6"/>
</a>
</g>
</g>
<!-- Node29 -->
<g id="Node000029" class="node">
<title>Node29</title>
<g id="a_Node000029"><a xlink:href="_power_supply_types_8h.html" target="_top" xlink:title=" ">
<polygon fill="white" stroke="#666666" points="421.88,-240.25 313.62,-240.25 313.62,-221 421.88,-221 421.88,-240.25"/>
<text text-anchor="middle" x="367.75" y="-226.75" font-family="Helvetica,sans-Serif" font-size="10.00">PowerSupplyTypes.h</text>
</a>
</g>
</g>
<!-- Node1&#45;&gt;Node29 -->
<g id="edge55_Node000001_Node000029" class="edge">
<title>Node1&#45;&gt;Node29</title>
<g id="a_edge55_Node000001_Node000029"><a xlink:title=" ">
<path fill="none" stroke="#63b8ff" d="M543.96,-386.27C508.11,-354.81 424.3,-281.25 386.65,-248.21"/>
<polygon fill="#63b8ff" stroke="#63b8ff" points="389.09,-245.7 379.27,-241.73 384.48,-250.96 389.09,-245.7"/>
</a>
</g>
</g>
<!-- Node30 -->
<g id="Node000030" class="node">
<title>Node30</title>
<g id="a_Node000030"><a xlink:href="_mouse_types_8h.html" target="_top" xlink:title=" ">
<polygon fill="white" stroke="#666666" points="519.62,-240.25 439.88,-240.25 439.88,-221 519.62,-221 519.62,-240.25"/>
<text text-anchor="middle" x="479.75" y="-226.75" font-family="Helvetica,sans-Serif" font-size="10.00">MouseTypes.h</text>
</a>
</g>
</g>
<!-- Node1&#45;&gt;Node30 -->
<g id="edge58_Node000001_Node000030" class="edge">
<title>Node1&#45;&gt;Node30</title>
<g id="a_edge58_Node000001_Node000030"><a xlink:title=" ">
<path fill="none" stroke="#63b8ff" d="M553.7,-386.27C539.04,-355.61 505.26,-284.97 488.92,-250.81"/>
<polygon fill="#63b8ff" stroke="#63b8ff" points="492.23,-249.61 484.76,-242.1 485.92,-252.63 492.23,-249.61"/>
</a>
</g>
</g>
<!-- Node3 -->
<g id="Node000003" class="node">
<title>Node3</title>
<g id="a_Node000003"><a xlink:title=" ">
<polygon fill="#e0e0e0" stroke="#999999" points="124.38,-295.5 73.12,-295.5 73.12,-276.25 124.38,-276.25 124.38,-295.5"/>
<text text-anchor="middle" x="98.75" y="-282" font-family="Helvetica,sans-Serif" font-size="10.00">assert.h</text>
</a>
</g>
</g>
<!-- Node2&#45;&gt;Node3 -->
<g id="edge2_Node000002_Node000003" class="edge">
<title>Node2&#45;&gt;Node3</title>
<g id="a_edge2_Node000002_Node000003"><a xlink:title=" ">
<path fill="none" stroke="#63b8ff" d="M117.95,-331.33C115.01,-324.51 110.81,-314.81 107.1,-306.2"/>
<polygon fill="#63b8ff" stroke="#63b8ff" points="110.41,-305.04 103.23,-297.25 103.98,-307.82 110.41,-305.04"/>
</a>
</g>
</g>
<!-- Node5 -->
<g id="Node000005" class="node">
<title>Node5</title>
<g id="a_Node000005"><a xlink:href="_option_types_8h.html" target="_top" xlink:title=" ">
<polygon fill="white" stroke="#666666" points="1331.25,-240.25 1252.25,-240.25 1252.25,-221 1331.25,-221 1331.25,-240.25"/>
<text text-anchor="middle" x="1291.75" y="-226.75" font-family="Helvetica,sans-Serif" font-size="10.00">OptionTypes.h</text>
</a>
</g>
</g>
<!-- Node4&#45;&gt;Node5 -->
<g id="edge4_Node000004_Node000005" class="edge">
<title>Node4&#45;&gt;Node5</title>
<g id="a_edge4_Node000004_Node000005"><a xlink:title=" ">
<path fill="none" stroke="#63b8ff" d="M1291.75,-276.08C1291.75,-269.57 1291.75,-260.42 1291.75,-252.12"/>
<polygon fill="#63b8ff" stroke="#63b8ff" points="1295.25,-252.12 1291.75,-242.12 1288.25,-252.12 1295.25,-252.12"/>
</a>
</g>
</g>
<!-- Node13 -->
<g id="Node000013" class="node">
<title>Node13</title>
<g id="a_Node000013"><a xlink:href="_parser_8h.html" target="_top" xlink:title=" ">
<polygon fill="white" stroke="#666666" points="1157.75,-185 1105.75,-185 1105.75,-165.75 1157.75,-165.75 1157.75,-185"/>
<text text-anchor="middle" x="1131.75" y="-171.5" font-family="Helvetica,sans-Serif" font-size="10.00">Parser.h</text>
</a>
</g>
</g>
<!-- Node4&#45;&gt;Node13 -->
<g id="edge12_Node000004_Node000013" class="edge">
<title>Node4&#45;&gt;Node13</title>
<g id="a_edge12_Node000004_Node000013"><a xlink:title=" ">
<path fill="none" stroke="#63b8ff" d="M1318.59,-276.56C1349.51,-265.61 1393.67,-244.92 1373.75,-221 1348.19,-190.29 1230.81,-180.64 1169.41,-177.66"/>
<polygon fill="#63b8ff" stroke="#63b8ff" points="1169.58,-174.16 1159.44,-177.22 1169.27,-181.16 1169.58,-174.16"/>
</a>
</g>
</g>
<!-- Node6 -->
<g id="Node000006" class="node">
<title>Node6</title>
<g id="a_Node000006"><a xlink:href="_aliases_8h.html" target="_top" xlink:title=" ">
<polygon fill="white" stroke="#666666" points="694,-185 637.5,-185 637.5,-165.75 694,-165.75 694,-185"/>
<text text-anchor="middle" x="665.75" y="-171.5" font-family="Helvetica,sans-Serif" font-size="10.00">Aliases.h</text>
</a>
</g>
</g>
<!-- Node5&#45;&gt;Node6 -->
<g id="edge5_Node000005_Node000006" class="edge">
<title>Node5&#45;&gt;Node6</title>
<g id="a_edge5_Node000005_Node000006"><a xlink:title=" ">
<path fill="none" stroke="#63b8ff" d="M1251.92,-225.47C1237.12,-223.98 1220.17,-222.34 1204.75,-221 991.62,-202.45 937.39,-208.49 724.75,-185 718.51,-184.31 711.92,-183.46 705.49,-182.57"/>
<polygon fill="#63b8ff" stroke="#63b8ff" points="706.1,-179.13 695.7,-181.16 705.1,-186.05 706.1,-179.13"/>
</a>
</g>
</g>
<!-- Node12 -->
<g id="Node000012" class="node">
<title>Node12</title>
<g id="a_Node000012"><a xlink:href="_reflection_8h.html" target="_top" xlink:title=" ">
<polygon fill="white" stroke="#666666" points="802,-185 733.5,-185 733.5,-165.75 802,-165.75 802,-185"/>
<text text-anchor="middle" x="767.75" y="-171.5" font-family="Helvetica,sans-Serif" font-size="10.00">Reflection.h</text>
</a>
</g>
</g>
<!-- Node5&#45;&gt;Node12 -->
<g id="edge11_Node000005_Node000012" class="edge">
<title>Node5&#45;&gt;Node12</title>
<g id="a_edge11_Node000005_Node000012"><a xlink:title=" ">
<path fill="none" stroke="#63b8ff" d="M1251.98,-222.98C1247.19,-222.27 1242.36,-221.59 1237.75,-221 1082.79,-201.29 898.07,-186.19 813.78,-179.77"/>
<polygon fill="#63b8ff" stroke="#63b8ff" points="814.07,-176.28 803.84,-179.01 813.55,-183.26 814.07,-176.28"/>
</a>
</g>
</g>
<!-- Node7 -->
<g id="Node000007" class="node">
<title>Node7</title>
<g id="a_Node000007"><a xlink:href="_macros_8h.html" target="_top" xlink:title=" ">
<polygon fill="white" stroke="#666666" points="1017,-129.75 960.5,-129.75 960.5,-110.5 1017,-110.5 1017,-129.75"/>
<text text-anchor="middle" x="988.75" y="-116.25" font-family="Helvetica,sans-Serif" font-size="10.00">Macros.h</text>
</a>
</g>
</g>
<!-- Node6&#45;&gt;Node7 -->
<g id="edge6_Node000006_Node000007" class="edge">
<title>Node6&#45;&gt;Node7</title>
<g id="a_edge6_Node000006_Node000007"><a xlink:title=" ">
<path fill="none" stroke="#63b8ff" d="M694.41,-169.65C752.24,-160.12 882.95,-138.57 948.99,-127.68"/>
<polygon fill="#63b8ff" stroke="#63b8ff" points="949.36,-131.17 958.66,-126.09 948.22,-124.26 949.36,-131.17"/>
</a>
</g>
</g>
<!-- Node8 -->
<g id="Node000008" class="node">
<title>Node8</title>
<g id="a_Node000008"><a xlink:href="_types_8h.html" target="_top" xlink:title=" ">
<polygon fill="white" stroke="#666666" points="1087,-74.5 1036.5,-74.5 1036.5,-55.25 1087,-55.25 1087,-74.5"/>
<text text-anchor="middle" x="1061.75" y="-61" font-family="Helvetica,sans-Serif" font-size="10.00">Types.h</text>
</a>
</g>
</g>
<!-- Node7&#45;&gt;Node8 -->
<g id="edge7_Node000007_Node000008" class="edge">
<title>Node7&#45;&gt;Node8</title>
<g id="a_edge7_Node000007_Node000008"><a xlink:title=" ">
<path fill="none" stroke="#63b8ff" d="M1001.13,-110.09C1011.9,-102.24 1027.72,-90.7 1040.5,-81.37"/>
<polygon fill="#63b8ff" stroke="#63b8ff" points="1042.31,-84.39 1048.33,-75.67 1038.19,-78.73 1042.31,-84.39"/>
</a>
</g>
</g>
<!-- Node9 -->
<g id="Node000009" class="node">
<title>Node9</title>
<g id="a_Node000009"><a xlink:title=" ">
<polygon fill="#e0e0e0" stroke="#999999" points="1019.25,-19.25 952.25,-19.25 952.25,0 1019.25,0 1019.25,-19.25"/>
<text text-anchor="middle" x="985.75" y="-5.75" font-family="Helvetica,sans-Serif" font-size="10.00">sys/types.h</text>
</a>
</g>
</g>
<!-- Node8&#45;&gt;Node9 -->
<g id="edge8_Node000008_Node000009" class="edge">
<title>Node8&#45;&gt;Node9</title>
<g id="a_edge8_Node000008_Node000009"><a xlink:title=" ">
<path fill="none" stroke="#63b8ff" d="M1048.86,-54.84C1037.72,-47.04 1021.38,-35.59 1008.11,-26.29"/>
<polygon fill="#63b8ff" stroke="#63b8ff" points="1010.14,-23.44 999.95,-20.57 1006.13,-29.18 1010.14,-23.44"/>
</a>
</g>
</g>
<!-- Node10 -->
<g id="Node000010" class="node">
<title>Node10</title>
<g id="a_Node000010"><a xlink:title=" ">
<polygon fill="#e0e0e0" stroke="#999999" points="1085.88,-19.25 1037.62,-19.25 1037.62,0 1085.88,0 1085.88,-19.25"/>
<text text-anchor="middle" x="1061.75" y="-5.75" font-family="Helvetica,sans-Serif" font-size="10.00">stdint.h</text>
</a>
</g>
</g>
<!-- Node8&#45;&gt;Node10 -->
<g id="edge9_Node000008_Node000010" class="edge">
<title>Node8&#45;&gt;Node10</title>
<g id="a_edge9_Node000008_Node000010"><a xlink:title=" ">
<path fill="none" stroke="#63b8ff" d="M1061.75,-55.08C1061.75,-48.57 1061.75,-39.42 1061.75,-31.12"/>
<polygon fill="#63b8ff" stroke="#63b8ff" points="1065.25,-31.12 1061.75,-21.12 1058.25,-31.12 1065.25,-31.12"/>
</a>
</g>
</g>
<!-- Node11 -->
<g id="Node000011" class="node">
<title>Node11</title>
<g id="a_Node000011"><a xlink:title=" ">
<polygon fill="#e0e0e0" stroke="#999999" points="1159.62,-19.25 1103.88,-19.25 1103.88,0 1159.62,0 1159.62,-19.25"/>
<text text-anchor="middle" x="1131.75" y="-5.75" font-family="Helvetica,sans-Serif" font-size="10.00">stdbool.h</text>
</a>
</g>
</g>
<!-- Node8&#45;&gt;Node11 -->
<g id="edge10_Node000008_Node000011" class="edge">
<title>Node8&#45;&gt;Node11</title>
<g id="a_edge10_Node000008_Node000011"><a xlink:title=" ">
<path fill="none" stroke="#63b8ff" d="M1073.62,-54.84C1083.84,-47.07 1098.82,-35.67 1111.01,-26.4"/>
<polygon fill="#63b8ff" stroke="#63b8ff" points="1113.01,-29.28 1118.85,-20.44 1108.77,-23.71 1113.01,-29.28"/>
</a>
</g>
</g>
<!-- Node13&#45;&gt;Node8 -->
<g id="edge13_Node000013_Node000008" class="edge">
<title>Node13&#45;&gt;Node8</title>
<g id="a_edge13_Node000013_Node000008"><a xlink:title=" ">
<path fill="none" stroke="#63b8ff" d="M1121.06,-165.35C1111.58,-156.92 1097.88,-143.58 1088.75,-129.75 1079.61,-115.9 1072.49,-98.45 1067.86,-85.29"/>
<polygon fill="#63b8ff" stroke="#63b8ff" points="1071.27,-84.46 1064.8,-76.08 1064.63,-86.67 1071.27,-84.46"/>
</a>
</g>
</g>
<!-- Node14 -->
<g id="Node000014" class="node">
<title>Node14</title>
<g id="a_Node000014"><a xlink:href="_exception_8h.html" target="_top" xlink:title=" ">
<polygon fill="white" stroke="#666666" points="1165.62,-129.75 1097.88,-129.75 1097.88,-110.5 1165.62,-110.5 1165.62,-129.75"/>
<text text-anchor="middle" x="1131.75" y="-116.25" font-family="Helvetica,sans-Serif" font-size="10.00">Exception.h</text>
</a>
</g>
</g>
<!-- Node13&#45;&gt;Node14 -->
<g id="edge14_Node000013_Node000014" class="edge">
<title>Node13&#45;&gt;Node14</title>
<g id="a_edge14_Node000013_Node000014"><a xlink:title=" ">
<path fill="none" stroke="#63b8ff" d="M1131.75,-165.58C1131.75,-159.07 1131.75,-149.92 1131.75,-141.62"/>
<polygon fill="#63b8ff" stroke="#63b8ff" points="1135.25,-141.62 1131.75,-131.62 1128.25,-141.62 1135.25,-141.62"/>
</a>
</g>
</g>
<!-- Node14&#45;&gt;Node8 -->
<g id="edge15_Node000014_Node000008" class="edge">
<title>Node14&#45;&gt;Node8</title>
<g id="a_edge15_Node000014_Node000008"><a xlink:title=" ">
<path fill="none" stroke="#63b8ff" d="M1119.88,-110.09C1109.66,-102.32 1094.68,-90.92 1082.49,-81.65"/>
<polygon fill="#63b8ff" stroke="#63b8ff" points="1084.73,-78.96 1074.65,-75.69 1080.49,-84.53 1084.73,-78.96"/>
</a>
</g>
</g>
<!-- Node15 -->
<g id="Node000015" class="node">
<title>Node15</title>
<g id="a_Node000015"><a xlink:title=" ">
<polygon fill="#e0e0e0" stroke="#999999" points="1162.75,-74.5 1104.75,-74.5 1104.75,-55.25 1162.75,-55.25 1162.75,-74.5"/>
<text text-anchor="middle" x="1133.75" y="-61" font-family="Helvetica,sans-Serif" font-size="10.00">exception</text>
</a>
</g>
</g>
<!-- Node14&#45;&gt;Node15 -->
<g id="edge16_Node000014_Node000015" class="edge">
<title>Node14&#45;&gt;Node15</title>
<g id="a_edge16_Node000014_Node000015"><a xlink:title=" ">
<path fill="none" stroke="#63b8ff" d="M1132.08,-110.33C1132.33,-103.74 1132.68,-94.46 1132.99,-86.07"/>
<polygon fill="#63b8ff" stroke="#63b8ff" points="1136.48,-86.5 1133.36,-76.37 1129.48,-86.23 1136.48,-86.5"/>
</a>
</g>
</g>
<!-- Node16&#45;&gt;Node6 -->
<g id="edge18_Node000016_Node000006" class="edge">
<title>Node16&#45;&gt;Node6</title>
<g id="a_edge18_Node000016_Node000006"><a xlink:title=" ">
<path fill="none" stroke="#63b8ff" d="M1102.59,-276.07C1098.58,-261.83 1088.54,-233.99 1068.75,-221 1004.5,-178.82 801.01,-194.56 724.75,-185 718.52,-184.22 711.94,-183.32 705.51,-182.41"/>
<polygon fill="#63b8ff" stroke="#63b8ff" points="706.12,-178.97 695.72,-181 705.12,-185.89 706.12,-178.97"/>
</a>
</g>
</g>
<!-- Node16&#45;&gt;Node12 -->
<g id="edge19_Node000016_Node000012" class="edge">
<title>Node16&#45;&gt;Node12</title>
<g id="a_edge19_Node000016_Node000012"><a xlink:title=" ">
<path fill="none" stroke="#63b8ff" d="M1149.75,-282.98C1211.34,-279.33 1316.97,-268.95 1340.75,-240.25 1346.21,-233.66 1346.56,-227.28 1340.75,-221 1322.91,-201.71 946.49,-183.95 813.66,-178.26"/>
<polygon fill="#63b8ff" stroke="#63b8ff" points="813.97,-174.77 803.83,-177.85 813.67,-181.77 813.97,-174.77"/>
</a>
</g>
</g>
<!-- Node17 -->
<g id="Node000017" class="node">
<title>Node17</title>
<g id="a_Node000017"><a xlink:href="_thread_types_8h.html" target="_top" xlink:title=" ">
<polygon fill="white" stroke="#666666" points="1196,-240.25 1115.5,-240.25 1115.5,-221 1196,-221 1196,-240.25"/>
<text text-anchor="middle" x="1155.75" y="-226.75" font-family="Helvetica,sans-Serif" font-size="10.00">ThreadTypes.h</text>
</a>
</g>
</g>
<!-- Node16&#45;&gt;Node17 -->
<g id="edge20_Node000016_Node000017" class="edge">
<title>Node16&#45;&gt;Node17</title>
<g id="a_edge20_Node000016_Node000017"><a xlink:title=" ">
<path fill="none" stroke="#63b8ff" d="M1113.17,-276.08C1120.29,-268.65 1130.69,-257.79 1139.44,-248.66"/>
<polygon fill="#63b8ff" stroke="#63b8ff" points="1141.71,-251.35 1146.1,-241.7 1136.65,-246.5 1141.71,-251.35"/>
</a>
</g>
</g>
<!-- Node17&#45;&gt;Node6 -->
<g id="edge21_Node000017_Node000006" class="edge">
<title>Node17&#45;&gt;Node6</title>
<g id="a_edge21_Node000017_Node000006"><a xlink:title=" ">
<path fill="none" stroke="#63b8ff" d="M1115.1,-222.85C1110.6,-222.18 1106.08,-221.55 1101.75,-221 934.78,-199.72 891.85,-205.18 724.75,-185 718.52,-184.25 711.93,-183.37 705.5,-182.46"/>
<polygon fill="#63b8ff" stroke="#63b8ff" points="706.12,-179.02 695.72,-181.05 705.11,-185.94 706.12,-179.02"/>
</a>
</g>
</g>
<!-- Node17&#45;&gt;Node12 -->
<g id="edge22_Node000017_Node000012" class="edge">
<title>Node17&#45;&gt;Node12</title>
<g id="a_edge22_Node000017_Node000012"><a xlink:title=" ">
<path fill="none" stroke="#63b8ff" d="M1115.08,-223.01C1110.58,-222.32 1106.07,-221.63 1101.75,-221 999.03,-205.94 878.23,-190.31 813.77,-182.15"/>
<polygon fill="#63b8ff" stroke="#63b8ff" points="814.27,-178.68 803.91,-180.9 813.39,-185.63 814.27,-178.68"/>
</a>
</g>
</g>
<!-- Node18&#45;&gt;Node6 -->
<g id="edge24_Node000018_Node000006" class="edge">
<title>Node18&#45;&gt;Node6</title>
<g id="a_edge24_Node000018_Node000006"><a xlink:title=" ">
<path fill="none" stroke="#63b8ff" d="M616.07,-331.03C589.64,-320.85 556.02,-302.31 566.75,-276.25 581.94,-239.34 618.1,-208.84 642.26,-191.62"/>
<polygon fill="#63b8ff" stroke="#63b8ff" points="643.97,-194.69 650.22,-186.13 640,-188.92 643.97,-194.69"/>
</a>
</g>
</g>
<!-- Node18&#45;&gt;Node12 -->
<g id="edge25_Node000018_Node000012" class="edge">
<title>Node18&#45;&gt;Node12</title>
<g id="a_edge25_Node000018_Node000012"><a xlink:title=" ">
<path fill="none" stroke="#63b8ff" d="M681.72,-334.18C805.22,-314.25 1196.21,-250.45 1204.75,-240.25 1255.96,-179.1 935.34,-175.16 813.41,-175.82"/>
<polygon fill="#63b8ff" stroke="#63b8ff" points="813.74,-172.32 803.76,-175.89 813.79,-179.32 813.74,-172.32"/>
</a>
</g>
</g>
<!-- Node19 -->
<g id="Node000019" class="node">
<title>Node19</title>
<g id="a_Node000019"><a xlink:href="_serializable_8h.html" target="_top" xlink:title=" ">
<polygon fill="white" stroke="#666666" points="650,-295.5 575.5,-295.5 575.5,-276.25 650,-276.25 650,-295.5"/>
<text text-anchor="middle" x="612.75" y="-282" font-family="Helvetica,sans-Serif" font-size="10.00">Serializable.h</text>
</a>
</g>
</g>
<!-- Node18&#45;&gt;Node19 -->
<g id="edge26_Node000018_Node000019" class="edge">
<title>Node18&#45;&gt;Node19</title>
<g id="a_edge26_Node000018_Node000019"><a xlink:title=" ">
<path fill="none" stroke="#63b8ff" d="M639.47,-331.33C635.28,-324.36 629.27,-314.37 624.02,-305.62"/>
<polygon fill="#63b8ff" stroke="#63b8ff" points="627.08,-303.93 618.93,-297.16 621.08,-307.53 627.08,-303.93"/>
</a>
</g>
</g>
<!-- Node20 -->
<g id="Node000020" class="node">
<title>Node20</title>
<g id="a_Node000020"><a xlink:href="_bus_types_8h.html" target="_top" xlink:title=" ">
<polygon fill="white" stroke="#666666" points="719.62,-240.25 651.88,-240.25 651.88,-221 719.62,-221 719.62,-240.25"/>
<text text-anchor="middle" x="685.75" y="-226.75" font-family="Helvetica,sans-Serif" font-size="10.00">BusTypes.h</text>
</a>
</g>
</g>
<!-- Node18&#45;&gt;Node20 -->
<g id="edge27_Node000018_Node000020" class="edge">
<title>Node18&#45;&gt;Node20</title>
<g id="a_edge27_Node000018_Node000020"><a xlink:title=" ">
<path fill="none" stroke="#63b8ff" d="M648.11,-331.25C654.68,-313.84 669.41,-274.87 678.37,-251.16"/>
<polygon fill="#63b8ff" stroke="#63b8ff" points="681.55,-252.63 681.81,-242.04 675,-250.16 681.55,-252.63"/>
</a>
</g>
</g>
<!-- Node21 -->
<g id="Node000021" class="node">
<title>Node21</title>
<g id="a_Node000021"><a xlink:href="_dma_debugger_types_8h.html" target="_top" xlink:title=" ">
<polygon fill="white" stroke="#666666" points="819.5,-295.5 706,-295.5 706,-276.25 819.5,-276.25 819.5,-295.5"/>
<text text-anchor="middle" x="762.75" y="-282" font-family="Helvetica,sans-Serif" font-size="10.00">DmaDebuggerTypes.h</text>
</a>
</g>
</g>
<!-- Node18&#45;&gt;Node21 -->
<g id="edge30_Node000018_Node000021" class="edge">
<title>Node18&#45;&gt;Node21</title>
<g id="a_edge30_Node000018_Node000021"><a xlink:title=" ">
<path fill="none" stroke="#63b8ff" d="M664.77,-331.09C683.24,-322.75 710.96,-310.25 732.2,-300.66"/>
<polygon fill="#63b8ff" stroke="#63b8ff" points="733.58,-303.88 741.26,-296.58 730.7,-297.5 733.58,-303.88"/>
</a>
</g>
</g>
<!-- Node20&#45;&gt;Node6 -->
<g id="edge28_Node000020_Node000006" class="edge">
<title>Node20&#45;&gt;Node6</title>
<g id="a_edge28_Node000020_Node000006"><a xlink:title=" ">
<path fill="none" stroke="#63b8ff" d="M682.45,-220.83C679.92,-214.09 676.32,-204.52 673.12,-195.99"/>
<polygon fill="#63b8ff" stroke="#63b8ff" points="676.45,-194.91 669.66,-186.78 669.9,-197.37 676.45,-194.91"/>
</a>
</g>
</g>
<!-- Node20&#45;&gt;Node12 -->
<g id="edge29_Node000020_Node000012" class="edge">
<title>Node20&#45;&gt;Node12</title>
<g id="a_edge29_Node000020_Node000012"><a xlink:title=" ">
<path fill="none" stroke="#63b8ff" d="M699.66,-220.59C711.91,-212.64 730,-200.89 744.46,-191.5"/>
<polygon fill="#63b8ff" stroke="#63b8ff" points="746.02,-194.66 752.5,-186.28 742.21,-188.79 746.02,-194.66"/>
</a>
</g>
</g>
<!-- Node21&#45;&gt;Node6 -->
<g id="edge31_Node000021_Node000006" class="edge">
<title>Node21&#45;&gt;Node6</title>
<g id="a_edge31_Node000021_Node000006"><a xlink:title=" ">
<path fill="none" stroke="#63b8ff" d="M705.67,-277.96C682.15,-271.99 657.08,-260.87 642.75,-240.25 633.01,-226.23 641.65,-207.63 651,-194.12"/>
<polygon fill="#63b8ff" stroke="#63b8ff" points="653.5,-196.6 656.76,-186.52 647.92,-192.37 653.5,-196.6"/>
</a>
</g>
</g>
<!-- Node21&#45;&gt;Node12 -->
<g id="edge32_Node000021_Node000012" class="edge">
<title>Node21&#45;&gt;Node12</title>
<g id="a_edge32_Node000021_Node000012"><a xlink:title=" ">
<path fill="none" stroke="#63b8ff" d="M763.16,-276C763.95,-258.75 765.72,-220.33 766.82,-196.56"/>
<polygon fill="#63b8ff" stroke="#63b8ff" points="770.3,-197.04 767.27,-186.89 763.31,-196.72 770.3,-197.04"/>
</a>
</g>
</g>
<!-- Node21&#45;&gt;Node20 -->
<g id="edge33_Node000021_Node000020" class="edge">
<title>Node21&#45;&gt;Node20</title>
<g id="a_edge33_Node000021_Node000020"><a xlink:title=" ">
<path fill="none" stroke="#63b8ff" d="M749.69,-275.84C738.29,-267.96 721.52,-256.36 708.01,-247.02"/>
<polygon fill="#63b8ff" stroke="#63b8ff" points="710.34,-244.37 700.12,-241.56 706.35,-250.13 710.34,-244.37"/>
</a>
</g>
</g>
<!-- Node22&#45;&gt;Node6 -->
<g id="edge35_Node000022_Node000006" class="edge">
<title>Node22&#45;&gt;Node6</title>
<g id="a_edge35_Node000022_Node000006"><a xlink:title=" ">
<path fill="none" stroke="#63b8ff" d="M796.12,-220.59C770.63,-211.95 731.94,-198.82 703.32,-189.12"/>
<polygon fill="#63b8ff" stroke="#63b8ff" points="704.54,-185.84 693.95,-185.94 702.29,-192.47 704.54,-185.84"/>
</a>
</g>
</g>
<!-- Node22&#45;&gt;Node12 -->
<g id="edge36_Node000022_Node000012" class="edge">
<title>Node22&#45;&gt;Node12</title>
<g id="a_edge36_Node000022_Node000012"><a xlink:title=" ">
<path fill="none" stroke="#63b8ff" d="M813.67,-220.83C805.91,-213.32 794.54,-202.31 785.05,-193.13"/>
<polygon fill="#63b8ff" stroke="#63b8ff" points="787.74,-190.85 778.12,-186.41 782.87,-195.88 787.74,-190.85"/>
</a>
</g>
</g>
<!-- Node23&#45;&gt;Node6 -->
<g id="edge38_Node000023_Node000006" class="edge">
<title>Node23&#45;&gt;Node6</title>
<g id="a_edge38_Node000023_Node000006"><a xlink:title=" ">
<path fill="none" stroke="#63b8ff" d="M887.58,-220.95C837.07,-210.8 754.15,-194.14 705.27,-184.32"/>
<polygon fill="#63b8ff" stroke="#63b8ff" points="706.18,-180.93 695.68,-182.39 704.8,-187.79 706.18,-180.93"/>
</a>
</g>
</g>
<!-- Node23&#45;&gt;Node12 -->
<g id="edge39_Node000023_Node000012" class="edge">
<title>Node23&#45;&gt;Node12</title>
<g id="a_edge39_Node000023_Node000012"><a xlink:title=" ">
<path fill="none" stroke="#63b8ff" d="M903.1,-220.59C876.52,-211.91 836.11,-198.71 806.36,-188.99"/>
<polygon fill="#63b8ff" stroke="#63b8ff" points="807.57,-185.7 796.98,-185.92 805.39,-192.35 807.57,-185.7"/>
</a>
</g>
</g>
<!-- Node24&#45;&gt;Node6 -->
<g id="edge41_Node000024_Node000006" class="edge">
<title>Node24&#45;&gt;Node6</title>
<g id="a_edge41_Node000024_Node000006"><a xlink:title=" ">
<path fill="none" stroke="#63b8ff" d="M991.52,-222.57C988.56,-222.02 985.6,-221.48 982.75,-221 868.61,-201.61 839.36,-201.37 724.75,-185 718.54,-184.11 711.96,-183.16 705.53,-182.23"/>
<polygon fill="#63b8ff" stroke="#63b8ff" points="706.15,-178.78 695.75,-180.8 705.14,-185.71 706.15,-178.78"/>
</a>
</g>
</g>
<!-- Node24&#45;&gt;Node12 -->
<g id="edge42_Node000024_Node000012" class="edge">
<title>Node24&#45;&gt;Node12</title>
<g id="a_edge42_Node000024_Node000012"><a xlink:title=" ">
<path fill="none" stroke="#63b8ff" d="M991.49,-222.55C945.61,-213.09 864.11,-196.26 813.16,-185.75"/>
<polygon fill="#63b8ff" stroke="#63b8ff" points="814.14,-182.38 803.63,-183.78 812.72,-189.23 814.14,-182.38"/>
</a>
</g>
</g>
<!-- Node25&#45;&gt;Node6 -->
<g id="edge44_Node000025_Node000006" class="edge">
<title>Node25&#45;&gt;Node6</title>
<g id="a_edge44_Node000025_Node000006"><a xlink:title=" ">
<path fill="none" stroke="#63b8ff" d="M174.11,-275.91C172.12,-261.95 170.7,-235.14 185.75,-221 217.57,-191.11 516.37,-180.3 625.82,-177.32"/>
<polygon fill="#63b8ff" stroke="#63b8ff" points="625.59,-180.83 635.5,-177.07 625.41,-173.83 625.59,-180.83"/>
</a>
</g>
</g>
<!-- Node25&#45;&gt;Node12 -->
<g id="edge45_Node000025_Node000012" class="edge">
<title>Node25&#45;&gt;Node12</title>
<g id="a_edge45_Node000025_Node000012"><a xlink:title=" ">
<path fill="none" stroke="#63b8ff" d="M175.47,-276.18C175.54,-262.08 177.97,-234.47 194.75,-221 238.88,-185.59 646.45,-190.72 702.75,-185 708.91,-184.37 715.38,-183.62 721.76,-182.83"/>
<polygon fill="#63b8ff" stroke="#63b8ff" points="722.08,-186.32 731.55,-181.57 721.18,-179.38 722.08,-186.32"/>
</a>
</g>
</g>
<!-- Node26 -->
<g id="Node000026" class="node">
<title>Node26</title>
<g id="a_Node000026"><a xlink:href="_t_o_d_types_8h.html" target="_top" xlink:title=" ">
<polygon fill="white" stroke="#666666" points="71.5,-240.25 0,-240.25 0,-221 71.5,-221 71.5,-240.25"/>
<text text-anchor="middle" x="35.75" y="-226.75" font-family="Helvetica,sans-Serif" font-size="10.00">TODTypes.h</text>
</a>
</g>
</g>
<!-- Node25&#45;&gt;Node26 -->
<g id="edge46_Node000025_Node000026" class="edge">
<title>Node25&#45;&gt;Node26</title>
<g id="a_edge46_Node000025_Node000026"><a xlink:title=" ">
<path fill="none" stroke="#63b8ff" d="M152,-275.84C129.58,-267.31 95.69,-254.42 70.28,-244.76"/>
<polygon fill="#63b8ff" stroke="#63b8ff" points="71.62,-241.52 61.03,-241.24 69.13,-248.07 71.62,-241.52"/>
</a>
</g>
</g>
<!-- Node26&#45;&gt;Node6 -->
<g id="edge47_Node000026_Node000006" class="edge">
<title>Node26&#45;&gt;Node6</title>
<g id="a_edge47_Node000026_Node000006"><a xlink:title=" ">
<path fill="none" stroke="#63b8ff" d="M71.74,-223C76.44,-222.26 81.2,-221.57 85.75,-221 288.06,-195.82 531.95,-182.61 626.05,-178.14"/>
<polygon fill="#63b8ff" stroke="#63b8ff" points="625.95,-181.65 635.78,-177.69 625.63,-174.66 625.95,-181.65"/>
</a>
</g>
</g>
<!-- Node27&#45;&gt;Node6 -->
<g id="edge49_Node000027_Node000006" class="edge">
<title>Node27&#45;&gt;Node6</title>
<g id="a_edge49_Node000027_Node000006"><a xlink:title=" ">
<path fill="none" stroke="#63b8ff" d="M256.51,-275.86C219.73,-265.28 172.04,-245.96 194.75,-221 223.52,-189.38 517.01,-179.67 625.62,-177.15"/>
<polygon fill="#63b8ff" stroke="#63b8ff" points="625.6,-180.66 635.52,-176.93 625.44,-173.66 625.6,-180.66"/>
</a>
</g>
</g>
<!-- Node27&#45;&gt;Node12 -->
<g id="edge50_Node000027_Node000012" class="edge">
<title>Node27&#45;&gt;Node12</title>
<g id="a_edge50_Node000027_Node000012"><a xlink:title=" ">
<path fill="none" stroke="#63b8ff" d="M330.96,-278.68C377.45,-270.74 459.32,-256.1 528.75,-240.25 598.33,-224.37 678.29,-202.19 725.83,-188.58"/>
<polygon fill="#63b8ff" stroke="#63b8ff" points="726.51,-192.03 735.16,-185.9 724.58,-185.3 726.51,-192.03"/>
</a>
</g>
</g>
<!-- Node27&#45;&gt;Node28 -->
<g id="edge51_Node000027_Node000028" class="edge">
<title>Node27&#45;&gt;Node28</title>
<g id="a_edge51_Node000027_Node000028"><a xlink:title=" ">
<path fill="none" stroke="#63b8ff" d="M286.48,-276.08C280.47,-268.8 271.74,-258.23 264.29,-249.23"/>
<polygon fill="#63b8ff" stroke="#63b8ff" points="267.21,-247.26 258.14,-241.78 261.81,-251.71 267.21,-247.26"/>
</a>
</g>
</g>
<!-- Node28&#45;&gt;Node6 -->
<g id="edge52_Node000028_Node000006" class="edge">
<title>Node28&#45;&gt;Node6</title>
<g id="a_edge52_Node000028_Node000006"><a xlink:title=" ">
<path fill="none" stroke="#63b8ff" d="M295.65,-222.31C298.73,-221.86 301.78,-221.42 304.75,-221 421.27,-204.67 559.4,-188.47 625.97,-180.86"/>
<polygon fill="#63b8ff" stroke="#63b8ff" points="626.12,-184.37 635.66,-179.76 625.33,-177.41 626.12,-184.37"/>
</a>
</g>
</g>
<!-- Node28&#45;&gt;Node12 -->
<g id="edge53_Node000028_Node000012" class="edge">
<title>Node28&#45;&gt;Node12</title>
<g id="a_edge53_Node000028_Node000012"><a xlink:title=" ">
<path fill="none" stroke="#63b8ff" d="M295.63,-222.2C298.72,-221.77 301.78,-221.37 304.75,-221 481.02,-199.23 526.23,-204.69 702.75,-185 708.9,-184.31 715.37,-183.53 721.75,-182.72"/>
<polygon fill="#63b8ff" stroke="#63b8ff" points="722.07,-186.21 731.54,-181.45 721.17,-179.27 722.07,-186.21"/>
</a>
</g>
</g>
<!-- Node29&#45;&gt;Node6 -->
<g id="edge56_Node000029_Node000006" class="edge">
<title>Node29&#45;&gt;Node6</title>
<g id="a_edge56_Node000029_Node000006"><a xlink:title=" ">
<path fill="none" stroke="#63b8ff" d="M418.64,-220.53C477.34,-210.04 572.6,-193.02 626.08,-183.46"/>
<polygon fill="#63b8ff" stroke="#63b8ff" points="626.42,-186.96 635.65,-181.75 625.19,-180.07 626.42,-186.96"/>
</a>
</g>
</g>
<!-- Node29&#45;&gt;Node12 -->
<g id="edge57_Node000029_Node000012" class="edge">
<title>Node29&#45;&gt;Node12</title>
<g id="a_edge57_Node000029_Node000012"><a xlink:title=" ">
<path fill="none" stroke="#63b8ff" d="M422.04,-222.18C424.99,-221.78 427.91,-221.38 430.75,-221 551.6,-204.73 581.86,-201.02 702.75,-185 708.89,-184.19 715.35,-183.33 721.72,-182.48"/>
<polygon fill="#63b8ff" stroke="#63b8ff" points="722.05,-185.97 731.5,-181.19 721.13,-179.03 722.05,-185.97"/>
</a>
</g>
</g>
<!-- Node30&#45;&gt;Node6 -->
<g id="edge59_Node000030_Node000006" class="edge">
<title>Node30&#45;&gt;Node6</title>
<g id="a_edge59_Node000030_Node000006"><a xlink:title=" ">
<path fill="none" stroke="#63b8ff" d="M511.3,-220.59C542.96,-211.53 591.82,-197.54 626.09,-187.73"/>
<polygon fill="#63b8ff" stroke="#63b8ff" points="627,-191.11 635.65,-184.99 625.07,-184.38 627,-191.11"/>
</a>
</g>
</g>
<!-- Node30&#45;&gt;Node12 -->
<g id="edge60_Node000030_Node000012" class="edge">
<title>Node30&#45;&gt;Node12</title>
<g id="a_edge60_Node000030_Node000012"><a xlink:title=" ">
<path fill="none" stroke="#63b8ff" d="M520.1,-222.16C573.14,-212.36 666.1,-195.17 721.79,-184.87"/>
<polygon fill="#63b8ff" stroke="#63b8ff" points="722.4,-188.32 731.59,-183.06 721.12,-181.44 722.4,-188.32"/>
</a>
</g>
</g>
</g>
</svg>
