<?xml version="1.0" encoding="UTF-8" standalone="no"?>
<!DOCTYPE svg PUBLIC "-//W3C//DTD SVG 1.1//EN"
 "http://www.w3.org/Graphics/SVG/1.1/DTD/svg11.dtd">
<!-- Generated by graphviz version 10.0.1 (20240210.2158)
 -->
<!-- Title: /Users/hoff/Retro/virtualc64/Emulator/Base/OptionTypes.h Pages: 1 -->
<svg width="158pt" height="94pt"
 viewBox="0.00 0.00 158.00 93.75" xmlns="http://www.w3.org/2000/svg" xmlns:xlink="http://www.w3.org/1999/xlink">
<g id="graph0" class="graph" transform="scale(1 1) rotate(0) translate(4 89.75)">
<title>/Users/hoff/Retro/virtualc64/Emulator/Base/OptionTypes.h</title>
<!-- Node1 -->
<g id="Node000001" class="node">
<title>Node1</title>
<g id="a_Node000001"><a xlink:title=" ">
<polygon fill="#999999" stroke="#666666" points="149.5,-85.75 0,-85.75 0,-55.25 149.5,-55.25 149.5,-85.75"/>
<text text-anchor="start" x="8" y="-72.25" font-family="Helvetica,sans-Serif" font-size="10.00">/Users/hoff/Retro/virtualc64</text>
<text text-anchor="middle" x="74.75" y="-61" font-family="Helvetica,sans-Serif" font-size="10.00">/Emulator/Base/OptionTypes.h</text>
</a>
</g>
</g>
<!-- Node2 -->
<g id="Node000002" class="node">
<title>Node2</title>
<g id="a_Node000002"><a xlink:title=" ">
<polygon fill="#e0e0e0" stroke="#999999" points="63,-19.25 6.5,-19.25 6.5,0 63,0 63,-19.25"/>
<text text-anchor="middle" x="34.75" y="-5.75" font-family="Helvetica,sans-Serif" font-size="10.00">Aliases.h</text>
</a>
</g>
</g>
<!-- Node1&#45;&gt;Node2 -->
<g id="edge1_Node000001_Node000002" class="edge">
<title>Node1&#45;&gt;Node2</title>
<g id="a_edge1_Node000001_Node000002"><a xlink:title=" ">
<path fill="none" stroke="#63b8ff" d="M64.86,-54.95C59.53,-47.1 52.9,-37.35 47.22,-28.99"/>
<polygon fill="#63b8ff" stroke="#63b8ff" points="50.28,-27.26 41.77,-20.95 44.49,-31.19 50.28,-27.26"/>
</a>
</g>
</g>
<!-- Node3 -->
<g id="Node000003" class="node">
<title>Node3</title>
<g id="a_Node000003"><a xlink:title=" ">
<polygon fill="#e0e0e0" stroke="#999999" points="150,-19.25 81.5,-19.25 81.5,0 150,0 150,-19.25"/>
<text text-anchor="middle" x="115.75" y="-5.75" font-family="Helvetica,sans-Serif" font-size="10.00">Reflection.h</text>
</a>
</g>
</g>
<!-- Node1&#45;&gt;Node3 -->
<g id="edge2_Node000001_Node000003" class="edge">
<title>Node1&#45;&gt;Node3</title>
<g id="a_edge2_Node000001_Node000003"><a xlink:title=" ">
<path fill="none" stroke="#63b8ff" d="M84.88,-54.95C90.35,-47.1 97.14,-37.35 102.96,-28.99"/>
<polygon fill="#63b8ff" stroke="#63b8ff" points="105.72,-31.15 108.56,-20.94 99.98,-27.15 105.72,-31.15"/>
</a>
</g>
</g>
</g>
</svg>
