<?xml version="1.0" encoding="UTF-8" standalone="no"?>
<!DOCTYPE svg PUBLIC "-//W3C//DTD SVG 1.1//EN"
 "http://www.w3.org/Graphics/SVG/1.1/DTD/svg11.dtd">
<!-- Generated by graphviz version 10.0.1 (20240210.2158)
 -->
<!-- Title: /Users/hoff/Retro/virtualc64/Emulator/Base/Option.h Pages: 1 -->
<svg width="839pt" height="471pt"
 viewBox="0.00 0.00 838.76 471.25" xmlns="http://www.w3.org/2000/svg" xmlns:xlink="http://www.w3.org/1999/xlink">
<g id="graph0" class="graph" transform="scale(1 1) rotate(0) translate(4 467.25)">
<title>/Users/hoff/Retro/virtualc64/Emulator/Base/Option.h</title>
<!-- Node1 -->
<g id="Node000001" class="node">
<title>Node1</title>
<g id="a_Node000001"><a xlink:title=" ">
<polygon fill="#999999" stroke="#666666" points="603.76,-463.25 467.01,-463.25 467.01,-432.75 603.76,-432.75 603.76,-463.25"/>
<text text-anchor="start" x="475.01" y="-449.75" font-family="Helvetica,sans-Serif" font-size="10.00">/Users/hoff/Retro/virtualc64</text>
<text text-anchor="middle" x="535.39" y="-438.5" font-family="Helvetica,sans-Serif" font-size="10.00">/Emulator/Base/Option.h</text>
</a>
</g>
</g>
<!-- Node2 -->
<g id="Node000002" class="node">
<title>Node2</title>
<g id="a_Node000002"><a xlink:href="_cmd_queue_types_8h.html" target="_top" xlink:title=" ">
<polygon fill="white" stroke="#666666" points="620.64,-396.75 450.14,-396.75 450.14,-366.25 620.64,-366.25 620.64,-396.75"/>
<text text-anchor="start" x="458.14" y="-383.25" font-family="Helvetica,sans-Serif" font-size="10.00">/Users/hoff/Retro/virtualc64</text>
<text text-anchor="middle" x="535.39" y="-372" font-family="Helvetica,sans-Serif" font-size="10.00">/Emulator/Base/CmdQueueTypes.h</text>
</a>
</g>
</g>
<!-- Node1&#45;&gt;Node2 -->
<g id="edge1_Node000001_Node000002" class="edge">
<title>Node1&#45;&gt;Node2</title>
<g id="a_edge1_Node000001_Node000002"><a xlink:title=" ">
<path fill="none" stroke="#63b8ff" d="M535.39,-421.06C535.39,-412.89 535.39,-404.16 535.39,-397.08"/>
<polygon fill="#63b8ff" stroke="#63b8ff" points="531.89,-420.85 535.39,-430.85 538.89,-420.85 531.89,-420.85"/>
</a>
</g>
</g>
<!-- Node3 -->
<g id="Node000003" class="node">
<title>Node3</title>
<g id="a_Node000003"><a xlink:href="_cmd_queue_8h.html" target="_top" xlink:title=" ">
<polygon fill="white" stroke="#666666" points="278.51,-324.62 134.26,-324.62 134.26,-294.12 278.51,-294.12 278.51,-324.62"/>
<text text-anchor="start" x="142.26" y="-311.12" font-family="Helvetica,sans-Serif" font-size="10.00">/Users/hoff/Retro/virtualc64</text>
<text text-anchor="middle" x="206.39" y="-299.88" font-family="Helvetica,sans-Serif" font-size="10.00">/Emulator/Base/CmdQueue.h</text>
</a>
</g>
</g>
<!-- Node2&#45;&gt;Node3 -->
<g id="edge2_Node000002_Node000003" class="edge">
<title>Node2&#45;&gt;Node3</title>
<g id="a_edge2_Node000002_Node000003"><a xlink:title=" ">
<path fill="none" stroke="#63b8ff" d="M455.31,-363.43C400.31,-351.71 328.04,-336.3 275.55,-325.12"/>
<polygon fill="#63b8ff" stroke="#63b8ff" points="454.43,-366.82 464.94,-365.48 455.89,-359.98 454.43,-366.82"/>
</a>
</g>
</g>
<!-- Node7 -->
<g id="Node000007" class="node">
<title>Node7</title>
<g id="a_Node000007"><a xlink:href="_drive_8h_source.html" target="_top" xlink:title=" ">
<polygon fill="white" stroke="#666666" points="477.76,-174.75 341.01,-174.75 341.01,-133 477.76,-133 477.76,-174.75"/>
<text text-anchor="start" x="349.01" y="-161.25" font-family="Helvetica,sans-Serif" font-size="10.00">/Users/hoff/Retro/virtualc64</text>
<text text-anchor="start" x="349.01" y="-150" font-family="Helvetica,sans-Serif" font-size="10.00">/Emulator/Peripherals/Drive</text>
<text text-anchor="middle" x="409.39" y="-138.75" font-family="Helvetica,sans-Serif" font-size="10.00">/Drive.h</text>
</a>
</g>
</g>
<!-- Node2&#45;&gt;Node7 -->
<g id="edge17_Node000002_Node000007" class="edge">
<title>Node2&#45;&gt;Node7</title>
<g id="a_edge17_Node000002_Node000007"><a xlink:title=" ">
<path fill="none" stroke="#63b8ff" d="M490.47,-360.34C477.51,-352.59 464.44,-342.58 455.39,-330.25 437.13,-305.38 419.87,-215.79 412.78,-175.16"/>
<polygon fill="#63b8ff" stroke="#63b8ff" points="488.53,-363.27 498.97,-365.09 491.94,-357.16 488.53,-363.27"/>
</a>
</g>
</g>
<!-- Node10 -->
<g id="Node000010" class="node">
<title>Node10</title>
<g id="a_Node000010"><a xlink:href="_control_port_8h_source.html" target="_top" xlink:title=" ">
<polygon fill="white" stroke="#666666" points="675.76,-174.75 533.01,-174.75 533.01,-133 675.76,-133 675.76,-174.75"/>
<text text-anchor="start" x="541.01" y="-161.25" font-family="Helvetica,sans-Serif" font-size="10.00">/Users/hoff/Retro/virtualc64</text>
<text text-anchor="start" x="541.01" y="-150" font-family="Helvetica,sans-Serif" font-size="10.00">/Emulator/Components/Ports</text>
<text text-anchor="middle" x="604.39" y="-138.75" font-family="Helvetica,sans-Serif" font-size="10.00">/ControlPort.h</text>
</a>
</g>
</g>
<!-- Node2&#45;&gt;Node10 -->
<g id="edge13_Node000002_Node000010" class="edge">
<title>Node2&#45;&gt;Node10</title>
<g id="a_edge13_Node000002_Node000010"><a xlink:title=" ">
<path fill="none" stroke="#63b8ff" d="M584.35,-360.4C596.67,-352.85 608.38,-342.94 615.39,-330.25 643.06,-280.19 624.3,-209.38 612.27,-175.07"/>
<polygon fill="#63b8ff" stroke="#63b8ff" points="582.76,-357.28 575.73,-365.21 586.17,-363.39 582.76,-357.28"/>
</a>
</g>
</g>
<!-- Node11 -->
<g id="Node000011" class="node">
<title>Node11</title>
<g id="a_Node000011"><a xlink:href="_expansion_port_8h_source.html" target="_top" xlink:title=" ">
<polygon fill="white" stroke="#666666" points="606.76,-330.25 464.01,-330.25 464.01,-288.5 606.76,-288.5 606.76,-330.25"/>
<text text-anchor="start" x="472.01" y="-316.75" font-family="Helvetica,sans-Serif" font-size="10.00">/Users/hoff/Retro/virtualc64</text>
<text text-anchor="start" x="472.01" y="-305.5" font-family="Helvetica,sans-Serif" font-size="10.00">/Emulator/Components/Ports</text>
<text text-anchor="middle" x="535.39" y="-294.25" font-family="Helvetica,sans-Serif" font-size="10.00">/ExpansionPort.h</text>
</a>
</g>
</g>
<!-- Node2&#45;&gt;Node11 -->
<g id="edge15_Node000002_Node000011" class="edge">
<title>Node2&#45;&gt;Node11</title>
<g id="a_edge15_Node000002_Node000011"><a xlink:title=" ">
<path fill="none" stroke="#63b8ff" d="M535.39,-354.72C535.39,-346.81 535.39,-338.23 535.39,-330.74"/>
<polygon fill="#63b8ff" stroke="#63b8ff" points="531.89,-354.46 535.39,-364.46 538.89,-354.46 531.89,-354.46"/>
</a>
</g>
</g>
<!-- Node12 -->
<g id="Node000012" class="node">
<title>Node12</title>
<g id="a_Node000012"><a xlink:href="_virtual_c64_types_8h.html" target="_top" xlink:title=" ">
<polygon fill="white" stroke="#666666" points="811.01,-324.62 669.76,-324.62 669.76,-294.12 811.01,-294.12 811.01,-324.62"/>
<text text-anchor="start" x="677.76" y="-311.12" font-family="Helvetica,sans-Serif" font-size="10.00">/Users/hoff/Retro/virtualc64</text>
<text text-anchor="middle" x="740.39" y="-299.88" font-family="Helvetica,sans-Serif" font-size="10.00">/Emulator/VirtualC64Types.h</text>
</a>
</g>
</g>
<!-- Node2&#45;&gt;Node12 -->
<g id="edge18_Node000002_Node000012" class="edge">
<title>Node2&#45;&gt;Node12</title>
<g id="a_edge18_Node000002_Node000012"><a xlink:title=" ">
<path fill="none" stroke="#63b8ff" d="M588.99,-362.16C622.81,-350.59 665.91,-335.85 697.47,-325.06"/>
<polygon fill="#63b8ff" stroke="#63b8ff" points="588.12,-358.76 579.79,-365.31 590.39,-365.38 588.12,-358.76"/>
</a>
</g>
</g>
<!-- Node4 -->
<g id="Node000004" class="node">
<title>Node4</title>
<g id="a_Node000004"><a xlink:href="_c_p_u_8h_source.html" target="_top" xlink:title=" ">
<polygon fill="white" stroke="#666666" points="408.51,-246.88 234.26,-246.88 234.26,-216.38 408.51,-216.38 408.51,-246.88"/>
<text text-anchor="start" x="242.26" y="-233.38" font-family="Helvetica,sans-Serif" font-size="10.00">/Users/hoff/Retro/virtualc64</text>
<text text-anchor="middle" x="321.39" y="-222.12" font-family="Helvetica,sans-Serif" font-size="10.00">/Emulator/Components/CPU/CPU.h</text>
</a>
</g>
</g>
<!-- Node3&#45;&gt;Node4 -->
<g id="edge3_Node000003_Node000004" class="edge">
<title>Node3&#45;&gt;Node4</title>
<g id="a_edge3_Node000003_Node000004"><a xlink:title=" ">
<path fill="none" stroke="#63b8ff" d="M237.94,-287.59C257.4,-274.77 281.88,-258.65 299.28,-247.19"/>
<polygon fill="#63b8ff" stroke="#63b8ff" points="236.25,-284.51 229.82,-292.94 240.1,-290.36 236.25,-284.51"/>
</a>
</g>
</g>
<!-- Node6 -->
<g id="Node000006" class="node">
<title>Node6</title>
<g id="a_Node000006"><a xlink:href="_emulator_8h_source.html" target="_top" xlink:title=" ">
<polygon fill="white" stroke="#666666" points="237.39,-30.5 71.39,-30.5 71.39,0 237.39,0 237.39,-30.5"/>
<text text-anchor="start" x="79.39" y="-17" font-family="Helvetica,sans-Serif" font-size="10.00">/Users/hoff/Retro/virtualc64</text>
<text text-anchor="middle" x="154.39" y="-5.75" font-family="Helvetica,sans-Serif" font-size="10.00">/Emulator/Components/Emulator.h</text>
</a>
</g>
</g>
<!-- Node3&#45;&gt;Node6 -->
<g id="edge8_Node000003_Node000006" class="edge">
<title>Node3&#45;&gt;Node6</title>
<g id="a_edge8_Node000003_Node000006"><a xlink:title=" ">
<path fill="none" stroke="#63b8ff" d="M122.94,-294.16C77.92,-284.61 28.86,-270.48 15.39,-252.5 -43.4,-174.05 82.43,-68.88 133.82,-30.79"/>
<polygon fill="#63b8ff" stroke="#63b8ff" points="121.99,-297.54 132.49,-296.12 123.4,-290.68 121.99,-297.54"/>
</a>
</g>
</g>
<!-- Node8 -->
<g id="Node000008" class="node">
<title>Node8</title>
<g id="a_Node000008"><a xlink:href="_datasette_8h_source.html" target="_top" xlink:title=" ">
<polygon fill="white" stroke="#666666" points="285.14,-174.75 129.64,-174.75 129.64,-133 285.14,-133 285.14,-174.75"/>
<text text-anchor="start" x="137.64" y="-161.25" font-family="Helvetica,sans-Serif" font-size="10.00">/Users/hoff/Retro/virtualc64</text>
<text text-anchor="start" x="137.64" y="-150" font-family="Helvetica,sans-Serif" font-size="10.00">/Emulator/Peripherals/Datasette</text>
<text text-anchor="middle" x="207.39" y="-138.75" font-family="Helvetica,sans-Serif" font-size="10.00">/Datasette.h</text>
</a>
</g>
</g>
<!-- Node3&#45;&gt;Node8 -->
<g id="edge9_Node000003_Node000008" class="edge">
<title>Node3&#45;&gt;Node8</title>
<g id="a_edge9_Node000003_Node000008"><a xlink:title=" ">
<path fill="none" stroke="#63b8ff" d="M206.56,-282.32C206.75,-252.02 207.08,-202.63 207.26,-175.08"/>
<polygon fill="#63b8ff" stroke="#63b8ff" points="203.06,-282.12 206.49,-292.14 210.06,-282.17 203.06,-282.12"/>
</a>
</g>
</g>
<!-- Node9 -->
<g id="Node000009" class="node">
<title>Node9</title>
<g id="a_Node000009"><a xlink:href="_keyboard_8h_source.html" target="_top" xlink:title=" ">
<polygon fill="white" stroke="#666666" points="178.39,-252.5 24.39,-252.5 24.39,-210.75 178.39,-210.75 178.39,-252.5"/>
<text text-anchor="start" x="32.39" y="-239" font-family="Helvetica,sans-Serif" font-size="10.00">/Users/hoff/Retro/virtualc64</text>
<text text-anchor="start" x="32.39" y="-227.75" font-family="Helvetica,sans-Serif" font-size="10.00">/Emulator/Peripherals/Keyboard</text>
<text text-anchor="middle" x="101.39" y="-216.5" font-family="Helvetica,sans-Serif" font-size="10.00">/Keyboard.h</text>
</a>
</g>
</g>
<!-- Node3&#45;&gt;Node9 -->
<g id="edge11_Node000003_Node000009" class="edge">
<title>Node3&#45;&gt;Node9</title>
<g id="a_edge11_Node000003_Node000009"><a xlink:title=" ">
<path fill="none" stroke="#63b8ff" d="M176.9,-287.1C162.05,-276.39 144.15,-263.48 129.51,-252.91"/>
<polygon fill="#63b8ff" stroke="#63b8ff" points="174.76,-289.87 184.92,-292.88 178.85,-284.19 174.76,-289.87"/>
</a>
</g>
</g>
<!-- Node5 -->
<g id="Node000005" class="node">
<title>Node5</title>
<g id="a_Node000005"><a xlink:href="_c64_8h_source.html" target="_top" xlink:title=" ">
<polygon fill="white" stroke="#666666" points="386.26,-97 240.51,-97 240.51,-66.5 386.26,-66.5 386.26,-97"/>
<text text-anchor="start" x="248.51" y="-83.5" font-family="Helvetica,sans-Serif" font-size="10.00">/Users/hoff/Retro/virtualc64</text>
<text text-anchor="middle" x="313.39" y="-72.25" font-family="Helvetica,sans-Serif" font-size="10.00">/Emulator/Components/C64.h</text>
</a>
</g>
</g>
<!-- Node4&#45;&gt;Node5 -->
<g id="edge4_Node000004_Node000005" class="edge">
<title>Node4&#45;&gt;Node5</title>
<g id="a_edge4_Node000004_Node000005"><a xlink:title=" ">
<path fill="none" stroke="#63b8ff" d="M319.98,-204.67C318.3,-173.52 315.53,-122.39 314.18,-97.41"/>
<polygon fill="#63b8ff" stroke="#63b8ff" points="316.47,-204.6 320.51,-214.39 323.46,-204.22 316.47,-204.6"/>
</a>
</g>
</g>
<!-- Node4&#45;&gt;Node7 -->
<g id="edge6_Node000004_Node000007" class="edge">
<title>Node4&#45;&gt;Node7</title>
<g id="a_edge6_Node000004_Node000007"><a xlink:title=" ">
<path fill="none" stroke="#63b8ff" d="M346.82,-208.73C359.11,-198.15 373.78,-185.53 385.82,-175.16"/>
<polygon fill="#63b8ff" stroke="#63b8ff" points="344.8,-205.86 339.5,-215.03 349.36,-211.16 344.8,-205.86"/>
</a>
</g>
</g>
<!-- Node5&#45;&gt;Node6 -->
<g id="edge5_Node000005_Node000006" class="edge">
<title>Node5&#45;&gt;Node6</title>
<g id="a_edge5_Node000005_Node000006"><a xlink:title=" ">
<path fill="none" stroke="#63b8ff" d="M266.88,-61.88C242.55,-52.01 213.21,-40.11 190.6,-30.94"/>
<polygon fill="#63b8ff" stroke="#63b8ff" points="265.32,-65.03 275.91,-65.54 267.95,-58.54 265.32,-65.03"/>
</a>
</g>
</g>
<!-- Node7&#45;&gt;Node5 -->
<g id="edge7_Node000007_Node000005" class="edge">
<title>Node7&#45;&gt;Node5</title>
<g id="a_edge7_Node000007_Node000005"><a xlink:title=" ">
<path fill="none" stroke="#63b8ff" d="M372.66,-126.04C359.35,-116.32 344.82,-105.71 333.47,-97.42"/>
<polygon fill="#63b8ff" stroke="#63b8ff" points="370.26,-128.63 380.4,-131.7 374.39,-122.97 370.26,-128.63"/>
</a>
</g>
</g>
<!-- Node8&#45;&gt;Node5 -->
<g id="edge10_Node000008_Node000005" class="edge">
<title>Node8&#45;&gt;Node5</title>
<g id="a_edge10_Node000008_Node000005"><a xlink:title=" ">
<path fill="none" stroke="#63b8ff" d="M247.52,-126.32C262.33,-116.53 278.57,-105.79 291.21,-97.42"/>
<polygon fill="#63b8ff" stroke="#63b8ff" points="245.72,-123.32 239.31,-131.76 249.58,-129.16 245.72,-123.32"/>
</a>
</g>
</g>
<!-- Node9&#45;&gt;Node5 -->
<g id="edge12_Node000009_Node000005" class="edge">
<title>Node9&#45;&gt;Node5</title>
<g id="a_edge12_Node000009_Node000005"><a xlink:title=" ">
<path fill="none" stroke="#63b8ff" d="M99.37,-198.86C99.79,-177.6 104.01,-150.44 120.39,-133 136.92,-115.4 192.75,-102.06 240.13,-93.56"/>
<polygon fill="#63b8ff" stroke="#63b8ff" points="95.87,-198.78 99.47,-208.75 102.87,-198.71 95.87,-198.78"/>
</a>
</g>
</g>
<!-- Node10&#45;&gt;Node5 -->
<g id="edge14_Node000010_Node000005" class="edge">
<title>Node10&#45;&gt;Node5</title>
<g id="a_edge14_Node000010_Node000005"><a xlink:title=" ">
<path fill="none" stroke="#63b8ff" d="M521.76,-132.96C474.84,-121.66 417.12,-107.75 374.33,-97.44"/>
<polygon fill="#63b8ff" stroke="#63b8ff" points="520.82,-136.34 531.36,-135.28 522.46,-129.53 520.82,-136.34"/>
</a>
</g>
</g>
<!-- Node11&#45;&gt;Node5 -->
<g id="edge16_Node000011_Node000005" class="edge">
<title>Node11&#45;&gt;Node5</title>
<g id="a_edge16_Node000011_Node000005"><a xlink:title=" ">
<path fill="none" stroke="#63b8ff" d="M535.39,-276.79C533.64,-237.73 524.7,-171.71 486.39,-133 460.21,-106.55 420.98,-93.83 386.5,-87.79"/>
<polygon fill="#63b8ff" stroke="#63b8ff" points="531.89,-276.81 535.68,-286.7 538.88,-276.6 531.89,-276.81"/>
</a>
</g>
</g>
<!-- Node13 -->
<g id="Node000013" class="node">
<title>Node13</title>
<g id="a_Node000013"><a xlink:href="_virtual_c64_8h.html" target="_top" xlink:title=" ">
<polygon fill="white" stroke="#666666" points="822.76,-246.88 686.01,-246.88 686.01,-216.38 822.76,-216.38 822.76,-246.88"/>
<text text-anchor="start" x="694.01" y="-233.38" font-family="Helvetica,sans-Serif" font-size="10.00">/Users/hoff/Retro/virtualc64</text>
<text text-anchor="middle" x="754.39" y="-222.12" font-family="Helvetica,sans-Serif" font-size="10.00">/Emulator/VirtualC64.h</text>
</a>
</g>
</g>
<!-- Node12&#45;&gt;Node13 -->
<g id="edge19_Node000012_Node000013" class="edge">
<title>Node12&#45;&gt;Node13</title>
<g id="a_edge19_Node000012_Node000013"><a xlink:title=" ">
<path fill="none" stroke="#63b8ff" d="M745.13,-282.72C747.32,-270.87 749.84,-257.24 751.7,-247.19"/>
<polygon fill="#63b8ff" stroke="#63b8ff" points="741.74,-281.81 743.36,-292.28 748.62,-283.08 741.74,-281.81"/>
</a>
</g>
</g>
<!-- Node14 -->
<g id="Node000014" class="node">
<title>Node14</title>
<g id="a_Node000014"><a xlink:href="_headless_8h_source.html" target="_top" xlink:title=" ">
<polygon fill="white" stroke="#666666" points="830.76,-169.12 694.01,-169.12 694.01,-138.62 830.76,-138.62 830.76,-169.12"/>
<text text-anchor="start" x="702.01" y="-155.62" font-family="Helvetica,sans-Serif" font-size="10.00">/Users/hoff/Retro/virtualc64</text>
<text text-anchor="middle" x="762.39" y="-144.38" font-family="Helvetica,sans-Serif" font-size="10.00">/Emulator/Headless.h</text>
</a>
</g>
</g>
<!-- Node13&#45;&gt;Node14 -->
<g id="edge20_Node000013_Node000014" class="edge">
<title>Node13&#45;&gt;Node14</title>
<g id="a_edge20_Node000013_Node000014"><a xlink:title=" ">
<path fill="none" stroke="#63b8ff" d="M757.14,-204.6C758.38,-192.84 759.8,-179.38 760.85,-169.44"/>
<polygon fill="#63b8ff" stroke="#63b8ff" points="753.66,-204.2 756.09,-214.51 760.62,-204.94 753.66,-204.2"/>
</a>
</g>
</g>
<!-- Node15 -->
<g id="Node000015" class="node">
<title>Node15</title>
<g id="a_Node000015"><a xlink:href="_headless_8cpp.html" target="_top" xlink:title=" ">
<polygon fill="white" stroke="#666666" points="830.76,-97 694.01,-97 694.01,-66.5 830.76,-66.5 830.76,-97"/>
<text text-anchor="start" x="702.01" y="-83.5" font-family="Helvetica,sans-Serif" font-size="10.00">/Users/hoff/Retro/virtualc64</text>
<text text-anchor="middle" x="762.39" y="-72.25" font-family="Helvetica,sans-Serif" font-size="10.00">/Emulator/Headless.cpp</text>
</a>
</g>
</g>
<!-- Node14&#45;&gt;Node15 -->
<g id="edge21_Node000014_Node000015" class="edge">
<title>Node14&#45;&gt;Node15</title>
<g id="a_edge21_Node000014_Node000015"><a xlink:title=" ">
<path fill="none" stroke="#63b8ff" d="M762.39,-126.9C762.39,-116.89 762.39,-105.81 762.39,-97.26"/>
<polygon fill="#63b8ff" stroke="#63b8ff" points="758.89,-126.83 762.39,-136.83 765.89,-126.83 758.89,-126.83"/>
</a>
</g>
</g>
</g>
</svg>
