<?xml version="1.0" encoding="UTF-8" standalone="no"?>
<!DOCTYPE svg PUBLIC "-//W3C//DTD SVG 1.1//EN"
 "http://www.w3.org/Graphics/SVG/1.1/DTD/svg11.dtd">
<!-- Generated by graphviz version 10.0.1 (20240210.2158)
 -->
<!-- Title: /Users/hoff/Retro/virtualc64/Emulator/Base/Option.h Pages: 1 -->
<svg width="331pt" height="260pt"
 viewBox="0.00 0.00 331.38 259.50" xmlns="http://www.w3.org/2000/svg" xmlns:xlink="http://www.w3.org/1999/xlink">
<g id="graph0" class="graph" transform="scale(1 1) rotate(0) translate(4 255.5)">
<title>/Users/hoff/Retro/virtualc64/Emulator/Base/Option.h</title>
<!-- Node1 -->
<g id="Node000001" class="node">
<title>Node1</title>
<g id="a_Node000001"><a xlink:title=" ">
<polygon fill="#999999" stroke="#666666" points="235.88,-251.5 99.12,-251.5 99.12,-221 235.88,-221 235.88,-251.5"/>
<text text-anchor="start" x="107.12" y="-238" font-family="Helvetica,sans-Serif" font-size="10.00">/Users/hoff/Retro/virtualc64</text>
<text text-anchor="middle" x="167.5" y="-226.75" font-family="Helvetica,sans-Serif" font-size="10.00">/Emulator/Base/Option.h</text>
</a>
</g>
</g>
<!-- Node2 -->
<g id="Node000002" class="node">
<title>Node2</title>
<g id="a_Node000002"><a xlink:href="_option_types_8h.html" target="_top" xlink:title=" ">
<polygon fill="white" stroke="#666666" points="119,-185 40,-185 40,-165.75 119,-165.75 119,-185"/>
<text text-anchor="middle" x="79.5" y="-171.5" font-family="Helvetica,sans-Serif" font-size="10.00">OptionTypes.h</text>
</a>
</g>
</g>
<!-- Node1&#45;&gt;Node2 -->
<g id="edge1_Node000001_Node000002" class="edge">
<title>Node1&#45;&gt;Node2</title>
<g id="a_edge1_Node000001_Node000002"><a xlink:title=" ">
<path fill="none" stroke="#63b8ff" d="M145.75,-220.7C132.61,-211.9 115.87,-200.71 102.51,-191.77"/>
<polygon fill="#63b8ff" stroke="#63b8ff" points="104.58,-188.94 94.32,-186.29 100.69,-194.76 104.58,-188.94"/>
</a>
</g>
</g>
<!-- Node12 -->
<g id="Node000012" class="node">
<title>Node12</title>
<g id="a_Node000012"><a xlink:href="_parser_8h_source.html" target="_top" xlink:title=" ">
<polygon fill="white" stroke="#666666" points="193.5,-185 141.5,-185 141.5,-165.75 193.5,-165.75 193.5,-185"/>
<text text-anchor="middle" x="167.5" y="-171.5" font-family="Helvetica,sans-Serif" font-size="10.00">Parser.h</text>
</a>
</g>
</g>
<!-- Node1&#45;&gt;Node12 -->
<g id="edge11_Node000001_Node000012" class="edge">
<title>Node1&#45;&gt;Node12</title>
<g id="a_edge11_Node000001_Node000012"><a xlink:title=" ">
<path fill="none" stroke="#63b8ff" d="M167.5,-220.7C167.5,-213.46 167.5,-204.59 167.5,-196.69"/>
<polygon fill="#63b8ff" stroke="#63b8ff" points="171,-196.96 167.5,-186.96 164,-196.96 171,-196.96"/>
</a>
</g>
</g>
<!-- Node15 -->
<g id="Node000015" class="node">
<title>Node15</title>
<g id="a_Node000015"><a xlink:title=" ">
<polygon fill="#e0e0e0" stroke="#999999" points="263.12,-185 211.88,-185 211.88,-165.75 263.12,-165.75 263.12,-185"/>
<text text-anchor="middle" x="237.5" y="-171.5" font-family="Helvetica,sans-Serif" font-size="10.00">memory</text>
</a>
</g>
</g>
<!-- Node1&#45;&gt;Node15 -->
<g id="edge17_Node000001_Node000015" class="edge">
<title>Node1&#45;&gt;Node15</title>
<g id="a_edge17_Node000001_Node000015"><a xlink:title=" ">
<path fill="none" stroke="#63b8ff" d="M184.8,-220.7C194.85,-212.25 207.53,-201.58 217.93,-192.83"/>
<polygon fill="#63b8ff" stroke="#63b8ff" points="220.15,-195.54 225.55,-186.43 215.64,-190.18 220.15,-195.54"/>
</a>
</g>
</g>
<!-- Node3 -->
<g id="Node000003" class="node">
<title>Node3</title>
<g id="a_Node000003"><a xlink:href="_reflection_8h_source.html" target="_top" xlink:title=" ">
<polygon fill="white" stroke="#666666" points="105.75,-129.75 37.25,-129.75 37.25,-110.5 105.75,-110.5 105.75,-129.75"/>
<text text-anchor="middle" x="71.5" y="-116.25" font-family="Helvetica,sans-Serif" font-size="10.00">Reflection.h</text>
</a>
</g>
</g>
<!-- Node2&#45;&gt;Node3 -->
<g id="edge2_Node000002_Node000003" class="edge">
<title>Node2&#45;&gt;Node3</title>
<g id="a_edge2_Node000002_Node000003"><a xlink:title=" ">
<path fill="none" stroke="#63b8ff" d="M78.18,-165.58C77.19,-158.99 75.79,-149.71 74.53,-141.32"/>
<polygon fill="#63b8ff" stroke="#63b8ff" points="78.02,-140.97 73.07,-131.61 71.1,-142.01 78.02,-140.97"/>
</a>
</g>
</g>
<!-- Node4 -->
<g id="Node000004" class="node">
<title>Node4</title>
<g id="a_Node000004"><a xlink:href="_types_8h_source.html" target="_top" xlink:title=" ">
<polygon fill="white" stroke="#666666" points="196.75,-74.5 146.25,-74.5 146.25,-55.25 196.75,-55.25 196.75,-74.5"/>
<text text-anchor="middle" x="171.5" y="-61" font-family="Helvetica,sans-Serif" font-size="10.00">Types.h</text>
</a>
</g>
</g>
<!-- Node3&#45;&gt;Node4 -->
<g id="edge3_Node000003_Node000004" class="edge">
<title>Node3&#45;&gt;Node4</title>
<g id="a_edge3_Node000003_Node000004"><a xlink:title=" ">
<path fill="none" stroke="#63b8ff" d="M88.46,-110.09C103.76,-101.94 126.53,-89.82 144.36,-80.33"/>
<polygon fill="#63b8ff" stroke="#63b8ff" points="145.94,-83.45 153.12,-75.66 142.65,-77.27 145.94,-83.45"/>
</a>
</g>
</g>
<!-- Node10 -->
<g id="Node000010" class="node">
<title>Node10</title>
<g id="a_Node000010"><a xlink:title=" ">
<polygon fill="#e0e0e0" stroke="#999999" points="128.5,-74.5 70.5,-74.5 70.5,-55.25 128.5,-55.25 128.5,-74.5"/>
<text text-anchor="middle" x="99.5" y="-61" font-family="Helvetica,sans-Serif" font-size="10.00">functional</text>
</a>
</g>
</g>
<!-- Node3&#45;&gt;Node10 -->
<g id="edge9_Node000003_Node000010" class="edge">
<title>Node3&#45;&gt;Node10</title>
<g id="a_edge9_Node000003_Node000010"><a xlink:title=" ">
<path fill="none" stroke="#63b8ff" d="M76.12,-110.33C79.75,-103.44 84.93,-93.59 89.49,-84.91"/>
<polygon fill="#63b8ff" stroke="#63b8ff" points="92.52,-86.68 94.07,-76.2 86.32,-83.42 92.52,-86.68"/>
</a>
</g>
</g>
<!-- Node11 -->
<g id="Node000011" class="node">
<title>Node11</title>
<g id="a_Node000011"><a xlink:title=" ">
<polygon fill="#e0e0e0" stroke="#999999" points="52.88,-74.5 18.12,-74.5 18.12,-55.25 52.88,-55.25 52.88,-74.5"/>
<text text-anchor="middle" x="35.5" y="-61" font-family="Helvetica,sans-Serif" font-size="10.00">map</text>
</a>
</g>
</g>
<!-- Node3&#45;&gt;Node11 -->
<g id="edge10_Node000003_Node000011" class="edge">
<title>Node3&#45;&gt;Node11</title>
<g id="a_edge10_Node000003_Node000011"><a xlink:title=" ">
<path fill="none" stroke="#63b8ff" d="M65.56,-110.33C60.79,-103.28 53.94,-93.15 47.98,-84.33"/>
<polygon fill="#63b8ff" stroke="#63b8ff" points="50.92,-82.44 42.42,-76.11 45.12,-86.36 50.92,-82.44"/>
</a>
</g>
</g>
<!-- Node5 -->
<g id="Node000005" class="node">
<title>Node5</title>
<g id="a_Node000005"><a xlink:title=" ">
<polygon fill="#e0e0e0" stroke="#999999" points="67,-19.25 0,-19.25 0,0 67,0 67,-19.25"/>
<text text-anchor="middle" x="33.5" y="-5.75" font-family="Helvetica,sans-Serif" font-size="10.00">sys/types.h</text>
</a>
</g>
</g>
<!-- Node4&#45;&gt;Node5 -->
<g id="edge4_Node000004_Node000005" class="edge">
<title>Node4&#45;&gt;Node5</title>
<g id="a_edge4_Node000004_Node000005"><a xlink:title=" ">
<path fill="none" stroke="#63b8ff" d="M148.09,-54.84C125.98,-46.31 92.58,-33.42 67.53,-23.76"/>
<polygon fill="#63b8ff" stroke="#63b8ff" points="69.03,-20.58 58.44,-20.25 66.51,-27.11 69.03,-20.58"/>
</a>
</g>
</g>
<!-- Node6 -->
<g id="Node000006" class="node">
<title>Node6</title>
<g id="a_Node000006"><a xlink:title=" ">
<polygon fill="#e0e0e0" stroke="#999999" points="133.62,-19.25 85.38,-19.25 85.38,0 133.62,0 133.62,-19.25"/>
<text text-anchor="middle" x="109.5" y="-5.75" font-family="Helvetica,sans-Serif" font-size="10.00">stdint.h</text>
</a>
</g>
</g>
<!-- Node4&#45;&gt;Node6 -->
<g id="edge5_Node000004_Node000006" class="edge">
<title>Node4&#45;&gt;Node6</title>
<g id="a_edge5_Node000004_Node000006"><a xlink:title=" ">
<path fill="none" stroke="#63b8ff" d="M160.98,-54.84C152.11,-47.22 139.19,-36.12 128.51,-26.95"/>
<polygon fill="#63b8ff" stroke="#63b8ff" points="130.88,-24.37 121.01,-20.51 126.32,-29.68 130.88,-24.37"/>
</a>
</g>
</g>
<!-- Node7 -->
<g id="Node000007" class="node">
<title>Node7</title>
<g id="a_Node000007"><a xlink:title=" ">
<polygon fill="#e0e0e0" stroke="#999999" points="191.5,-19.25 151.5,-19.25 151.5,0 191.5,0 191.5,-19.25"/>
<text text-anchor="middle" x="171.5" y="-5.75" font-family="Helvetica,sans-Serif" font-size="10.00">string</text>
</a>
</g>
</g>
<!-- Node4&#45;&gt;Node7 -->
<g id="edge6_Node000004_Node000007" class="edge">
<title>Node4&#45;&gt;Node7</title>
<g id="a_edge6_Node000004_Node000007"><a xlink:title=" ">
<path fill="none" stroke="#63b8ff" d="M171.5,-55.08C171.5,-48.57 171.5,-39.42 171.5,-31.12"/>
<polygon fill="#63b8ff" stroke="#63b8ff" points="175,-31.12 171.5,-21.12 168,-31.12 175,-31.12"/>
</a>
</g>
</g>
<!-- Node8 -->
<g id="Node000008" class="node">
<title>Node8</title>
<g id="a_Node000008"><a xlink:title=" ">
<polygon fill="#e0e0e0" stroke="#999999" points="255.12,-19.25 209.88,-19.25 209.88,0 255.12,0 255.12,-19.25"/>
<text text-anchor="middle" x="232.5" y="-5.75" font-family="Helvetica,sans-Serif" font-size="10.00">cstring</text>
</a>
</g>
</g>
<!-- Node4&#45;&gt;Node8 -->
<g id="edge7_Node000004_Node000008" class="edge">
<title>Node4&#45;&gt;Node8</title>
<g id="a_edge7_Node000004_Node000008"><a xlink:title=" ">
<path fill="none" stroke="#63b8ff" d="M181.85,-54.84C190.58,-47.22 203.29,-36.12 213.8,-26.95"/>
<polygon fill="#63b8ff" stroke="#63b8ff" points="215.93,-29.73 221.16,-20.52 211.33,-24.46 215.93,-29.73"/>
</a>
</g>
</g>
<!-- Node9 -->
<g id="Node000009" class="node">
<title>Node9</title>
<g id="a_Node000009"><a xlink:title=" ">
<polygon fill="#e0e0e0" stroke="#999999" points="323.38,-19.25 273.62,-19.25 273.62,0 323.38,0 323.38,-19.25"/>
<text text-anchor="middle" x="298.5" y="-5.75" font-family="Helvetica,sans-Serif" font-size="10.00">optional</text>
</a>
</g>
</g>
<!-- Node4&#45;&gt;Node9 -->
<g id="edge8_Node000004_Node000009" class="edge">
<title>Node4&#45;&gt;Node9</title>
<g id="a_edge8_Node000004_Node000009"><a xlink:title=" ">
<path fill="none" stroke="#63b8ff" d="M193.04,-54.84C213.11,-46.43 243.3,-33.77 266.25,-24.15"/>
<polygon fill="#63b8ff" stroke="#63b8ff" points="267.59,-27.38 275.45,-20.29 264.88,-20.93 267.59,-27.38"/>
</a>
</g>
</g>
<!-- Node12&#45;&gt;Node4 -->
<g id="edge12_Node000012_Node000004" class="edge">
<title>Node12&#45;&gt;Node4</title>
<g id="a_edge12_Node000012_Node000004"><a xlink:title=" ">
<path fill="none" stroke="#63b8ff" d="M167.83,-165.5C168.46,-148.25 169.88,-109.83 170.76,-86.06"/>
<polygon fill="#63b8ff" stroke="#63b8ff" points="174.24,-86.51 171.11,-76.39 167.25,-86.25 174.24,-86.51"/>
</a>
</g>
</g>
<!-- Node12&#45;&gt;Node10 -->
<g id="edge16_Node000012_Node000010" class="edge">
<title>Node12&#45;&gt;Node10</title>
<g id="a_edge16_Node000012_Node000010"><a xlink:title=" ">
<path fill="none" stroke="#63b8ff" d="M161.94,-165.5C150.88,-147.85 125.93,-108.05 111.14,-84.45"/>
<polygon fill="#63b8ff" stroke="#63b8ff" points="114.22,-82.77 105.95,-76.16 108.29,-86.49 114.22,-82.77"/>
</a>
</g>
</g>
<!-- Node13 -->
<g id="Node000013" class="node">
<title>Node13</title>
<g id="a_Node000013"><a xlink:href="_exception_8h_source.html" target="_top" xlink:title=" ">
<polygon fill="white" stroke="#666666" points="267.38,-129.75 199.62,-129.75 199.62,-110.5 267.38,-110.5 267.38,-129.75"/>
<text text-anchor="middle" x="233.5" y="-116.25" font-family="Helvetica,sans-Serif" font-size="10.00">Exception.h</text>
</a>
</g>
</g>
<!-- Node12&#45;&gt;Node13 -->
<g id="edge13_Node000012_Node000013" class="edge">
<title>Node12&#45;&gt;Node13</title>
<g id="a_edge13_Node000012_Node000013"><a xlink:title=" ">
<path fill="none" stroke="#63b8ff" d="M178.7,-165.34C188.24,-157.65 202.17,-146.4 213.61,-137.18"/>
<polygon fill="#63b8ff" stroke="#63b8ff" points="215.71,-139.98 221.29,-130.98 211.31,-134.53 215.71,-139.98"/>
</a>
</g>
</g>
<!-- Node13&#45;&gt;Node4 -->
<g id="edge14_Node000013_Node000004" class="edge">
<title>Node13&#45;&gt;Node4</title>
<g id="a_edge14_Node000013_Node000004"><a xlink:title=" ">
<path fill="none" stroke="#63b8ff" d="M222.98,-110.09C214.11,-102.47 201.19,-91.37 190.51,-82.2"/>
<polygon fill="#63b8ff" stroke="#63b8ff" points="192.88,-79.62 183.01,-75.76 188.32,-84.93 192.88,-79.62"/>
</a>
</g>
</g>
<!-- Node14 -->
<g id="Node000014" class="node">
<title>Node14</title>
<g id="a_Node000014"><a xlink:title=" ">
<polygon fill="#e0e0e0" stroke="#999999" points="272.5,-74.5 214.5,-74.5 214.5,-55.25 272.5,-55.25 272.5,-74.5"/>
<text text-anchor="middle" x="243.5" y="-61" font-family="Helvetica,sans-Serif" font-size="10.00">exception</text>
</a>
</g>
</g>
<!-- Node13&#45;&gt;Node14 -->
<g id="edge15_Node000013_Node000014" class="edge">
<title>Node13&#45;&gt;Node14</title>
<g id="a_edge15_Node000013_Node000014"><a xlink:title=" ">
<path fill="none" stroke="#63b8ff" d="M235.15,-110.33C236.39,-103.74 238.13,-94.46 239.71,-86.07"/>
<polygon fill="#63b8ff" stroke="#63b8ff" points="243.13,-86.82 241.53,-76.35 236.25,-85.53 243.13,-86.82"/>
</a>
</g>
</g>
</g>
</svg>
