<?xml version="1.0" encoding="UTF-8" standalone="no"?>
<!DOCTYPE svg PUBLIC "-//W3C//DTD SVG 1.1//EN"
 "http://www.w3.org/Graphics/SVG/1.1/DTD/svg11.dtd">
<!-- Generated by graphviz version 10.0.1 (20240210.2158)
 -->
<!-- Title: /Users/hoff/Retro/virtualc64/Emulator/Base/Option.h Pages: 1 -->
<svg width="229pt" height="315pt"
 viewBox="0.00 0.00 229.12 314.75" xmlns="http://www.w3.org/2000/svg" xmlns:xlink="http://www.w3.org/1999/xlink">
<g id="graph0" class="graph" transform="scale(1 1) rotate(0) translate(4 310.75)">
<title>/Users/hoff/Retro/virtualc64/Emulator/Base/Option.h</title>
<!-- Node1 -->
<g id="Node000001" class="node">
<title>Node1</title>
<g id="a_Node000001"><a xlink:title=" ">
<polygon fill="#999999" stroke="#666666" points="211.62,-306.75 74.88,-306.75 74.88,-276.25 211.62,-276.25 211.62,-306.75"/>
<text text-anchor="start" x="82.88" y="-293.25" font-family="Helvetica,sans-Serif" font-size="10.00">/Users/hoff/Retro/virtualc64</text>
<text text-anchor="middle" x="143.25" y="-282" font-family="Helvetica,sans-Serif" font-size="10.00">/Emulator/Base/Option.h</text>
</a>
</g>
</g>
<!-- Node2 -->
<g id="Node000002" class="node">
<title>Node2</title>
<g id="a_Node000002"><a xlink:href="_option_types_8h.html" target="_top" xlink:title=" ">
<polygon fill="white" stroke="#666666" points="148.75,-240.25 69.75,-240.25 69.75,-221 148.75,-221 148.75,-240.25"/>
<text text-anchor="middle" x="109.25" y="-226.75" font-family="Helvetica,sans-Serif" font-size="10.00">OptionTypes.h</text>
</a>
</g>
</g>
<!-- Node1&#45;&gt;Node2 -->
<g id="edge1_Node000001_Node000002" class="edge">
<title>Node1&#45;&gt;Node2</title>
<g id="a_edge1_Node000001_Node000002"><a xlink:title=" ">
<path fill="none" stroke="#63b8ff" d="M134.85,-275.95C130.42,-268.28 124.93,-258.77 120.17,-250.54"/>
<polygon fill="#63b8ff" stroke="#63b8ff" points="123.28,-248.92 115.25,-242.01 117.22,-252.42 123.28,-248.92"/>
</a>
</g>
</g>
<!-- Node10 -->
<g id="Node000010" class="node">
<title>Node10</title>
<g id="a_Node000010"><a xlink:href="_parser_8h_source.html" target="_top" xlink:title=" ">
<polygon fill="white" stroke="#666666" points="213.25,-185 161.25,-185 161.25,-165.75 213.25,-165.75 213.25,-185"/>
<text text-anchor="middle" x="187.25" y="-171.5" font-family="Helvetica,sans-Serif" font-size="10.00">Parser.h</text>
</a>
</g>
</g>
<!-- Node1&#45;&gt;Node10 -->
<g id="edge9_Node000001_Node000010" class="edge">
<title>Node1&#45;&gt;Node10</title>
<g id="a_edge9_Node000001_Node000010"><a xlink:title=" ">
<path fill="none" stroke="#63b8ff" d="M148.82,-276.05C156.62,-255.81 170.83,-218.97 179.61,-196.19"/>
<polygon fill="#63b8ff" stroke="#63b8ff" points="182.88,-197.45 183.21,-186.86 176.34,-194.93 182.88,-197.45"/>
</a>
</g>
</g>
<!-- Node3 -->
<g id="Node000003" class="node">
<title>Node3</title>
<g id="a_Node000003"><a xlink:href="_aliases_8h_source.html" target="_top" xlink:title=" ">
<polygon fill="white" stroke="#666666" points="56.5,-185 0,-185 0,-165.75 56.5,-165.75 56.5,-185"/>
<text text-anchor="middle" x="28.25" y="-171.5" font-family="Helvetica,sans-Serif" font-size="10.00">Aliases.h</text>
</a>
</g>
</g>
<!-- Node2&#45;&gt;Node3 -->
<g id="edge2_Node000002_Node000003" class="edge">
<title>Node2&#45;&gt;Node3</title>
<g id="a_edge2_Node000002_Node000003"><a xlink:title=" ">
<path fill="none" stroke="#63b8ff" d="M95.51,-220.59C83.52,-212.71 65.88,-201.11 51.67,-191.77"/>
<polygon fill="#63b8ff" stroke="#63b8ff" points="53.6,-188.85 43.32,-186.28 49.76,-194.7 53.6,-188.85"/>
</a>
</g>
</g>
<!-- Node9 -->
<g id="Node000009" class="node">
<title>Node9</title>
<g id="a_Node000009"><a xlink:href="_reflection_8h_source.html" target="_top" xlink:title=" ">
<polygon fill="white" stroke="#666666" points="143.5,-185 75,-185 75,-165.75 143.5,-165.75 143.5,-185"/>
<text text-anchor="middle" x="109.25" y="-171.5" font-family="Helvetica,sans-Serif" font-size="10.00">Reflection.h</text>
</a>
</g>
</g>
<!-- Node2&#45;&gt;Node9 -->
<g id="edge8_Node000002_Node000009" class="edge">
<title>Node2&#45;&gt;Node9</title>
<g id="a_edge8_Node000002_Node000009"><a xlink:title=" ">
<path fill="none" stroke="#63b8ff" d="M109.25,-220.83C109.25,-214.32 109.25,-205.17 109.25,-196.87"/>
<polygon fill="#63b8ff" stroke="#63b8ff" points="112.75,-196.87 109.25,-186.87 105.75,-196.87 112.75,-196.87"/>
</a>
</g>
</g>
<!-- Node4 -->
<g id="Node000004" class="node">
<title>Node4</title>
<g id="a_Node000004"><a xlink:href="_macros_8h_source.html" target="_top" xlink:title=" ">
<polygon fill="white" stroke="#666666" points="72.5,-129.75 16,-129.75 16,-110.5 72.5,-110.5 72.5,-129.75"/>
<text text-anchor="middle" x="44.25" y="-116.25" font-family="Helvetica,sans-Serif" font-size="10.00">Macros.h</text>
</a>
</g>
</g>
<!-- Node3&#45;&gt;Node4 -->
<g id="edge3_Node000003_Node000004" class="edge">
<title>Node3&#45;&gt;Node4</title>
<g id="a_edge3_Node000003_Node000004"><a xlink:title=" ">
<path fill="none" stroke="#63b8ff" d="M30.89,-165.58C32.89,-158.92 35.73,-149.49 38.27,-141.03"/>
<polygon fill="#63b8ff" stroke="#63b8ff" points="41.59,-142.14 41.11,-131.56 34.89,-140.13 41.59,-142.14"/>
</a>
</g>
</g>
<!-- Node5 -->
<g id="Node000005" class="node">
<title>Node5</title>
<g id="a_Node000005"><a xlink:href="_types_8h_source.html" target="_top" xlink:title=" ">
<polygon fill="white" stroke="#666666" points="142.5,-74.5 92,-74.5 92,-55.25 142.5,-55.25 142.5,-74.5"/>
<text text-anchor="middle" x="117.25" y="-61" font-family="Helvetica,sans-Serif" font-size="10.00">Types.h</text>
</a>
</g>
</g>
<!-- Node4&#45;&gt;Node5 -->
<g id="edge4_Node000004_Node000005" class="edge">
<title>Node4&#45;&gt;Node5</title>
<g id="a_edge4_Node000004_Node000005"><a xlink:title=" ">
<path fill="none" stroke="#63b8ff" d="M56.63,-110.09C67.4,-102.24 83.22,-90.7 96,-81.37"/>
<polygon fill="#63b8ff" stroke="#63b8ff" points="97.81,-84.39 103.83,-75.67 93.69,-78.73 97.81,-84.39"/>
</a>
</g>
</g>
<!-- Node6 -->
<g id="Node000006" class="node">
<title>Node6</title>
<g id="a_Node000006"><a xlink:title=" ">
<polygon fill="#e0e0e0" stroke="#999999" points="74.75,-19.25 7.75,-19.25 7.75,0 74.75,0 74.75,-19.25"/>
<text text-anchor="middle" x="41.25" y="-5.75" font-family="Helvetica,sans-Serif" font-size="10.00">sys/types.h</text>
</a>
</g>
</g>
<!-- Node5&#45;&gt;Node6 -->
<g id="edge5_Node000005_Node000006" class="edge">
<title>Node5&#45;&gt;Node6</title>
<g id="a_edge5_Node000005_Node000006"><a xlink:title=" ">
<path fill="none" stroke="#63b8ff" d="M104.36,-54.84C93.22,-47.04 76.88,-35.59 63.61,-26.29"/>
<polygon fill="#63b8ff" stroke="#63b8ff" points="65.64,-23.44 55.45,-20.57 61.63,-29.18 65.64,-23.44"/>
</a>
</g>
</g>
<!-- Node7 -->
<g id="Node000007" class="node">
<title>Node7</title>
<g id="a_Node000007"><a xlink:title=" ">
<polygon fill="#e0e0e0" stroke="#999999" points="141.38,-19.25 93.12,-19.25 93.12,0 141.38,0 141.38,-19.25"/>
<text text-anchor="middle" x="117.25" y="-5.75" font-family="Helvetica,sans-Serif" font-size="10.00">stdint.h</text>
</a>
</g>
</g>
<!-- Node5&#45;&gt;Node7 -->
<g id="edge6_Node000005_Node000007" class="edge">
<title>Node5&#45;&gt;Node7</title>
<g id="a_edge6_Node000005_Node000007"><a xlink:title=" ">
<path fill="none" stroke="#63b8ff" d="M117.25,-55.08C117.25,-48.57 117.25,-39.42 117.25,-31.12"/>
<polygon fill="#63b8ff" stroke="#63b8ff" points="120.75,-31.12 117.25,-21.12 113.75,-31.12 120.75,-31.12"/>
</a>
</g>
</g>
<!-- Node8 -->
<g id="Node000008" class="node">
<title>Node8</title>
<g id="a_Node000008"><a xlink:title=" ">
<polygon fill="#e0e0e0" stroke="#999999" points="215.12,-19.25 159.38,-19.25 159.38,0 215.12,0 215.12,-19.25"/>
<text text-anchor="middle" x="187.25" y="-5.75" font-family="Helvetica,sans-Serif" font-size="10.00">stdbool.h</text>
</a>
</g>
</g>
<!-- Node5&#45;&gt;Node8 -->
<g id="edge7_Node000005_Node000008" class="edge">
<title>Node5&#45;&gt;Node8</title>
<g id="a_edge7_Node000005_Node000008"><a xlink:title=" ">
<path fill="none" stroke="#63b8ff" d="M129.12,-54.84C139.34,-47.07 154.32,-35.67 166.51,-26.4"/>
<polygon fill="#63b8ff" stroke="#63b8ff" points="168.51,-29.28 174.35,-20.44 164.27,-23.71 168.51,-29.28"/>
</a>
</g>
</g>
<!-- Node10&#45;&gt;Node5 -->
<g id="edge10_Node000010_Node000005" class="edge">
<title>Node10&#45;&gt;Node5</title>
<g id="a_edge10_Node000010_Node000005"><a xlink:title=" ">
<path fill="none" stroke="#63b8ff" d="M176.56,-165.35C167.08,-156.92 153.38,-143.58 144.25,-129.75 135.11,-115.9 127.99,-98.45 123.36,-85.29"/>
<polygon fill="#63b8ff" stroke="#63b8ff" points="126.77,-84.46 120.3,-76.08 120.13,-86.67 126.77,-84.46"/>
</a>
</g>
</g>
<!-- Node11 -->
<g id="Node000011" class="node">
<title>Node11</title>
<g id="a_Node000011"><a xlink:href="_exception_8h_source.html" target="_top" xlink:title=" ">
<polygon fill="white" stroke="#666666" points="221.12,-129.75 153.38,-129.75 153.38,-110.5 221.12,-110.5 221.12,-129.75"/>
<text text-anchor="middle" x="187.25" y="-116.25" font-family="Helvetica,sans-Serif" font-size="10.00">Exception.h</text>
</a>
</g>
</g>
<!-- Node10&#45;&gt;Node11 -->
<g id="edge11_Node000010_Node000011" class="edge">
<title>Node10&#45;&gt;Node11</title>
<g id="a_edge11_Node000010_Node000011"><a xlink:title=" ">
<path fill="none" stroke="#63b8ff" d="M187.25,-165.58C187.25,-159.07 187.25,-149.92 187.25,-141.62"/>
<polygon fill="#63b8ff" stroke="#63b8ff" points="190.75,-141.62 187.25,-131.62 183.75,-141.62 190.75,-141.62"/>
</a>
</g>
</g>
<!-- Node11&#45;&gt;Node5 -->
<g id="edge12_Node000011_Node000005" class="edge">
<title>Node11&#45;&gt;Node5</title>
<g id="a_edge12_Node000011_Node000005"><a xlink:title=" ">
<path fill="none" stroke="#63b8ff" d="M175.38,-110.09C165.16,-102.32 150.18,-90.92 137.99,-81.65"/>
<polygon fill="#63b8ff" stroke="#63b8ff" points="140.23,-78.96 130.15,-75.69 135.99,-84.53 140.23,-78.96"/>
</a>
</g>
</g>
<!-- Node12 -->
<g id="Node000012" class="node">
<title>Node12</title>
<g id="a_Node000012"><a xlink:title=" ">
<polygon fill="#e0e0e0" stroke="#999999" points="218.25,-74.5 160.25,-74.5 160.25,-55.25 218.25,-55.25 218.25,-74.5"/>
<text text-anchor="middle" x="189.25" y="-61" font-family="Helvetica,sans-Serif" font-size="10.00">exception</text>
</a>
</g>
</g>
<!-- Node11&#45;&gt;Node12 -->
<g id="edge13_Node000011_Node000012" class="edge">
<title>Node11&#45;&gt;Node12</title>
<g id="a_edge13_Node000011_Node000012"><a xlink:title=" ">
<path fill="none" stroke="#63b8ff" d="M187.58,-110.33C187.83,-103.74 188.18,-94.46 188.49,-86.07"/>
<polygon fill="#63b8ff" stroke="#63b8ff" points="191.98,-86.5 188.86,-76.37 184.98,-86.23 191.98,-86.5"/>
</a>
</g>
</g>
</g>
</svg>
