<?xml version="1.0" encoding="UTF-8" standalone="no"?>
<!DOCTYPE svg PUBLIC "-//W3C//DTD SVG 1.1//EN"
 "http://www.w3.org/Graphics/SVG/1.1/DTD/svg11.dtd">
<!-- Generated by graphviz version 10.0.1 (20240210.2158)
 -->
<!-- Title: /Users/hoff/Retro/virtualc64/Emulator/Media/P00File.cpp Pages: 1 -->
<svg width="1141pt" height="646pt"
 viewBox="0.00 0.00 1141.00 646.25" xmlns="http://www.w3.org/2000/svg" xmlns:xlink="http://www.w3.org/1999/xlink">
<g id="graph0" class="graph" transform="scale(1 1) rotate(0) translate(4 642.25)">
<title>/Users/hoff/Retro/virtualc64/Emulator/Media/P00File.cpp</title>
<!-- Node1 -->
<g id="Node000001" class="node">
<title>Node1</title>
<g id="a_Node000001"><a xlink:title=" ">
<polygon fill="#999999" stroke="#666666" points="583.58,-638.25 441.58,-638.25 441.58,-607.75 583.58,-607.75 583.58,-638.25"/>
<text text-anchor="start" x="449.58" y="-624.75" font-family="Helvetica,sans-Serif" font-size="10.00">/Users/hoff/Retro/virtualc64</text>
<text text-anchor="middle" x="512.58" y="-613.5" font-family="Helvetica,sans-Serif" font-size="10.00">/Emulator/Media/P00File.cpp</text>
</a>
</g>
</g>
<!-- Node2 -->
<g id="Node000002" class="node">
<title>Node2</title>
<g id="a_Node000002"><a xlink:href="config_8h.html" target="_top" xlink:title=" ">
<polygon fill="white" stroke="#666666" points="359.83,-571.75 309.33,-571.75 309.33,-552.5 359.83,-552.5 359.83,-571.75"/>
<text text-anchor="middle" x="334.58" y="-558.25" font-family="Helvetica,sans-Serif" font-size="10.00">config.h</text>
</a>
</g>
</g>
<!-- Node1&#45;&gt;Node2 -->
<g id="edge1_Node000001_Node000002" class="edge">
<title>Node1&#45;&gt;Node2</title>
<g id="a_edge1_Node000001_Node000002"><a xlink:title=" ">
<path fill="none" stroke="#63b8ff" d="M468.13,-607.3C438.13,-597.37 399.03,-584.44 370.9,-575.14"/>
<polygon fill="#63b8ff" stroke="#63b8ff" points="372.36,-571.93 361.77,-572.12 370.16,-578.58 372.36,-571.93"/>
</a>
</g>
</g>
<!-- Node4 -->
<g id="Node000004" class="node">
<title>Node4</title>
<g id="a_Node000004"><a xlink:href="_p00_file_8h.html" target="_top" xlink:title=" ">
<polygon fill="white" stroke="#666666" points="582.21,-571.75 524.96,-571.75 524.96,-552.5 582.21,-552.5 582.21,-571.75"/>
<text text-anchor="middle" x="553.58" y="-558.25" font-family="Helvetica,sans-Serif" font-size="10.00">P00File.h</text>
</a>
</g>
</g>
<!-- Node1&#45;&gt;Node4 -->
<g id="edge3_Node000001_Node000004" class="edge">
<title>Node1&#45;&gt;Node4</title>
<g id="a_edge3_Node000001_Node000004"><a xlink:title=" ">
<path fill="none" stroke="#63b8ff" d="M522.72,-607.45C528.18,-599.6 534.98,-589.85 540.8,-581.49"/>
<polygon fill="#63b8ff" stroke="#63b8ff" points="543.56,-583.65 546.4,-573.44 537.81,-579.65 543.56,-583.65"/>
</a>
</g>
</g>
<!-- Node28 -->
<g id="Node000028" class="node">
<title>Node28</title>
<g id="a_Node000028"><a xlink:href="_file_system_8h.html" target="_top" xlink:title=" ">
<polygon fill="white" stroke="#666666" points="504.46,-571.75 430.71,-571.75 430.71,-552.5 504.46,-552.5 504.46,-571.75"/>
<text text-anchor="middle" x="467.58" y="-558.25" font-family="Helvetica,sans-Serif" font-size="10.00">FileSystem.h</text>
</a>
</g>
</g>
<!-- Node1&#45;&gt;Node28 -->
<g id="edge33_Node000001_Node000028" class="edge">
<title>Node1&#45;&gt;Node28</title>
<g id="a_edge33_Node000001_Node000028"><a xlink:title=" ">
<path fill="none" stroke="#63b8ff" d="M501.46,-607.45C495.4,-599.52 487.84,-589.63 481.41,-581.21"/>
<polygon fill="#63b8ff" stroke="#63b8ff" points="484.29,-579.22 475.44,-573.4 478.73,-583.47 484.29,-579.22"/>
</a>
</g>
</g>
<!-- Node36 -->
<g id="Node000036" class="node">
<title>Node36</title>
<g id="a_Node000036"><a xlink:href="_i_o_utils_8h.html" target="_top" xlink:title=" ">
<polygon fill="white" stroke="#666666" points="751.08,-461.25 696.08,-461.25 696.08,-442 751.08,-442 751.08,-461.25"/>
<text text-anchor="middle" x="723.58" y="-447.75" font-family="Helvetica,sans-Serif" font-size="10.00">IOUtils.h</text>
</a>
</g>
</g>
<!-- Node1&#45;&gt;Node36 -->
<g id="edge70_Node000001_Node000036" class="edge">
<title>Node1&#45;&gt;Node36</title>
<g id="a_edge70_Node000001_Node000036"><a xlink:title=" ">
<path fill="none" stroke="#63b8ff" d="M537.85,-607.41C553.73,-597.89 574.38,-584.84 591.58,-571.75 635.56,-538.29 682.58,-493.38 706.88,-469.39"/>
<polygon fill="#63b8ff" stroke="#63b8ff" points="709.06,-472.16 713.69,-462.62 704.13,-467.19 709.06,-472.16"/>
</a>
</g>
</g>
<!-- Node3 -->
<g id="Node000003" class="node">
<title>Node3</title>
<g id="a_Node000003"><a xlink:title=" ">
<polygon fill="#e0e0e0" stroke="#999999" points="305.21,-516.5 253.96,-516.5 253.96,-497.25 305.21,-497.25 305.21,-516.5"/>
<text text-anchor="middle" x="279.58" y="-503" font-family="Helvetica,sans-Serif" font-size="10.00">assert.h</text>
</a>
</g>
</g>
<!-- Node2&#45;&gt;Node3 -->
<g id="edge2_Node000002_Node000003" class="edge">
<title>Node2&#45;&gt;Node3</title>
<g id="a_edge2_Node000002_Node000003"><a xlink:title=" ">
<path fill="none" stroke="#63b8ff" d="M325.5,-552.33C317.75,-544.82 306.37,-533.81 296.89,-524.63"/>
<polygon fill="#63b8ff" stroke="#63b8ff" points="299.57,-522.35 289.95,-517.91 294.7,-527.38 299.57,-522.35"/>
</a>
</g>
</g>
<!-- Node5 -->
<g id="Node000005" class="node">
<title>Node5</title>
<g id="a_Node000005"><a xlink:href="_any_collection_8h.html" target="_top" xlink:title=" ">
<polygon fill="white" stroke="#666666" points="599.08,-516.5 514.08,-516.5 514.08,-497.25 599.08,-497.25 599.08,-516.5"/>
<text text-anchor="middle" x="556.58" y="-503" font-family="Helvetica,sans-Serif" font-size="10.00">AnyCollection.h</text>
</a>
</g>
</g>
<!-- Node4&#45;&gt;Node5 -->
<g id="edge4_Node000004_Node000005" class="edge">
<title>Node4&#45;&gt;Node5</title>
<g id="a_edge4_Node000004_Node000005"><a xlink:title=" ">
<path fill="none" stroke="#63b8ff" d="M554.08,-552.33C554.45,-545.74 554.97,-536.46 555.45,-528.07"/>
<polygon fill="#63b8ff" stroke="#63b8ff" points="558.92,-528.55 555.99,-518.37 551.94,-528.16 558.92,-528.55"/>
</a>
</g>
</g>
<!-- Node6 -->
<g id="Node000006" class="node">
<title>Node6</title>
<g id="a_Node000006"><a xlink:href="_any_file_8h.html" target="_top" xlink:title=" ">
<polygon fill="white" stroke="#666666" points="514.21,-461.25 456.96,-461.25 456.96,-442 514.21,-442 514.21,-461.25"/>
<text text-anchor="middle" x="485.58" y="-447.75" font-family="Helvetica,sans-Serif" font-size="10.00">AnyFile.h</text>
</a>
</g>
</g>
<!-- Node5&#45;&gt;Node6 -->
<g id="edge5_Node000005_Node000006" class="edge">
<title>Node5&#45;&gt;Node6</title>
<g id="a_edge5_Node000005_Node000006"><a xlink:title=" ">
<path fill="none" stroke="#63b8ff" d="M544.54,-496.84C534.17,-489.07 518.98,-477.67 506.62,-468.4"/>
<polygon fill="#63b8ff" stroke="#63b8ff" points="508.76,-465.63 498.66,-462.43 504.56,-471.23 508.76,-465.63"/>
</a>
</g>
</g>
<!-- Node7 -->
<g id="Node000007" class="node">
<title>Node7</title>
<g id="a_Node000007"><a xlink:href="_core_object_8h.html" target="_top" xlink:title=" ">
<polygon fill="white" stroke="#666666" points="291.46,-350.75 217.71,-350.75 217.71,-331.5 291.46,-331.5 291.46,-350.75"/>
<text text-anchor="middle" x="254.58" y="-337.25" font-family="Helvetica,sans-Serif" font-size="10.00">CoreObject.h</text>
</a>
</g>
</g>
<!-- Node6&#45;&gt;Node7 -->
<g id="edge6_Node000006_Node000007" class="edge">
<title>Node6&#45;&gt;Node7</title>
<g id="a_edge6_Node000006_Node000007"><a xlink:title=" ">
<path fill="none" stroke="#63b8ff" d="M456.52,-447.35C407.43,-441.3 310.88,-427.06 284.58,-406 270.83,-394.99 263.07,-376.21 258.9,-361.85"/>
<polygon fill="#63b8ff" stroke="#63b8ff" points="262.4,-361.41 256.56,-352.57 255.61,-363.12 262.4,-361.41"/>
</a>
</g>
</g>
<!-- Node21 -->
<g id="Node000021" class="node">
<title>Node21</title>
<g id="a_Node000021"><a xlink:href="_file_types_8h.html" target="_top" xlink:title=" ">
<polygon fill="white" stroke="#666666" points="538.71,-240.25 472.46,-240.25 472.46,-221 538.71,-221 538.71,-240.25"/>
<text text-anchor="middle" x="505.58" y="-226.75" font-family="Helvetica,sans-Serif" font-size="10.00">FileTypes.h</text>
</a>
</g>
</g>
<!-- Node6&#45;&gt;Node21 -->
<g id="edge21_Node000006_Node000021" class="edge">
<title>Node6&#45;&gt;Node21</title>
<g id="a_edge21_Node000006_Node000021"><a xlink:title=" ">
<path fill="none" stroke="#63b8ff" d="M486.39,-441.77C489.34,-409.51 499.54,-297.76 503.75,-251.71"/>
<polygon fill="#63b8ff" stroke="#63b8ff" points="507.22,-252.14 504.65,-241.86 500.25,-251.5 507.22,-252.14"/>
</a>
</g>
</g>
<!-- Node22 -->
<g id="Node000022" class="node">
<title>Node22</title>
<g id="a_Node000022"><a xlink:href="_p_e_t_name_8h.html" target="_top" xlink:title=" ">
<polygon fill="white" stroke="#666666" points="237.58,-406 167.58,-406 167.58,-386.75 237.58,-386.75 237.58,-406"/>
<text text-anchor="middle" x="202.58" y="-392.5" font-family="Helvetica,sans-Serif" font-size="10.00">PETName.h</text>
</a>
</g>
</g>
<!-- Node6&#45;&gt;Node22 -->
<g id="edge24_Node000006_Node000022" class="edge">
<title>Node6&#45;&gt;Node22</title>
<g id="a_edge24_Node000006_Node000022"><a xlink:title=" ">
<path fill="none" stroke="#63b8ff" d="M456.63,-445.18C407.63,-435.96 307.97,-417.2 249.09,-406.13"/>
<polygon fill="#63b8ff" stroke="#63b8ff" points="249.84,-402.71 239.37,-404.3 248.55,-409.59 249.84,-402.71"/>
</a>
</g>
</g>
<!-- Node26 -->
<g id="Node000026" class="node">
<title>Node26</title>
<g id="a_Node000026"><a xlink:title=" ">
<polygon fill="#e0e0e0" stroke="#999999" points="632.21,-406 580.96,-406 580.96,-386.75 632.21,-386.75 632.21,-406"/>
<text text-anchor="middle" x="606.58" y="-392.5" font-family="Helvetica,sans-Serif" font-size="10.00">sstream</text>
</a>
</g>
</g>
<!-- Node6&#45;&gt;Node26 -->
<g id="edge31_Node000006_Node000026" class="edge">
<title>Node6&#45;&gt;Node26</title>
<g id="a_edge31_Node000006_Node000026"><a xlink:title=" ">
<path fill="none" stroke="#63b8ff" d="M506.11,-441.59C525.14,-433.22 553.73,-420.63 575.56,-411.03"/>
<polygon fill="#63b8ff" stroke="#63b8ff" points="576.83,-414.29 584.57,-407.06 574.01,-407.89 576.83,-414.29"/>
</a>
</g>
</g>
<!-- Node27 -->
<g id="Node000027" class="node">
<title>Node27</title>
<g id="a_Node000027"><a xlink:title=" ">
<polygon fill="#e0e0e0" stroke="#999999" points="563.08,-406 514.08,-406 514.08,-386.75 563.08,-386.75 563.08,-406"/>
<text text-anchor="middle" x="538.58" y="-392.5" font-family="Helvetica,sans-Serif" font-size="10.00">fstream</text>
</a>
</g>
</g>
<!-- Node6&#45;&gt;Node27 -->
<g id="edge32_Node000006_Node000027" class="edge">
<title>Node6&#45;&gt;Node27</title>
<g id="a_edge32_Node000006_Node000027"><a xlink:title=" ">
<path fill="none" stroke="#63b8ff" d="M494.34,-441.83C501.73,-434.4 512.54,-423.54 521.63,-414.41"/>
<polygon fill="#63b8ff" stroke="#63b8ff" points="524,-416.99 528.57,-407.43 519.04,-412.05 524,-416.99"/>
</a>
</g>
</g>
<!-- Node8 -->
<g id="Node000008" class="node">
<title>Node8</title>
<g id="a_Node000008"><a xlink:href="_error_8h.html" target="_top" xlink:title=" ">
<polygon fill="white" stroke="#666666" points="237.83,-295.5 193.33,-295.5 193.33,-276.25 237.83,-276.25 237.83,-295.5"/>
<text text-anchor="middle" x="215.58" y="-282" font-family="Helvetica,sans-Serif" font-size="10.00">Error.h</text>
</a>
</g>
</g>
<!-- Node7&#45;&gt;Node8 -->
<g id="edge7_Node000007_Node000008" class="edge">
<title>Node7&#45;&gt;Node8</title>
<g id="a_edge7_Node000007_Node000008"><a xlink:title=" ">
<path fill="none" stroke="#63b8ff" d="M248.14,-331.33C242.92,-324.21 235.4,-313.93 228.89,-305.05"/>
<polygon fill="#63b8ff" stroke="#63b8ff" points="231.79,-303.08 223.06,-297.08 226.14,-307.22 231.79,-303.08"/>
</a>
</g>
</g>
<!-- Node19 -->
<g id="Node000019" class="node">
<title>Node19</title>
<g id="a_Node000019"><a xlink:href="_inspectable_8h.html" target="_top" xlink:title=" ">
<polygon fill="white" stroke="#666666" points="439.83,-295.5 365.33,-295.5 365.33,-276.25 439.83,-276.25 439.83,-295.5"/>
<text text-anchor="middle" x="402.58" y="-282" font-family="Helvetica,sans-Serif" font-size="10.00">Inspectable.h</text>
</a>
</g>
</g>
<!-- Node7&#45;&gt;Node19 -->
<g id="edge19_Node000007_Node000019" class="edge">
<title>Node7&#45;&gt;Node19</title>
<g id="a_edge19_Node000007_Node000019"><a xlink:title=" ">
<path fill="none" stroke="#63b8ff" d="M279.69,-331.09C303.61,-322.49 339.87,-309.44 366.81,-299.75"/>
<polygon fill="#63b8ff" stroke="#63b8ff" points="367.71,-303.14 375.93,-296.46 365.34,-296.56 367.71,-303.14"/>
</a>
</g>
</g>
<!-- Node9 -->
<g id="Node000009" class="node">
<title>Node9</title>
<g id="a_Node000009"><a xlink:href="_error_types_8h.html" target="_top" xlink:title=" ">
<polygon fill="white" stroke="#666666" points="365.33,-240.25 293.83,-240.25 293.83,-221 365.33,-221 365.33,-240.25"/>
<text text-anchor="middle" x="329.58" y="-226.75" font-family="Helvetica,sans-Serif" font-size="10.00">ErrorTypes.h</text>
</a>
</g>
</g>
<!-- Node8&#45;&gt;Node9 -->
<g id="edge8_Node000008_Node000009" class="edge">
<title>Node8&#45;&gt;Node9</title>
<g id="a_edge8_Node000008_Node000009"><a xlink:title=" ">
<path fill="none" stroke="#63b8ff" d="M234.92,-275.84C252.69,-267.54 279.3,-255.11 299.79,-245.54"/>
<polygon fill="#63b8ff" stroke="#63b8ff" points="301.2,-248.75 308.78,-241.34 298.24,-242.4 301.2,-248.75"/>
</a>
</g>
</g>
<!-- Node17 -->
<g id="Node000017" class="node">
<title>Node17</title>
<g id="a_Node000017"><a xlink:href="_exception_8h.html" target="_top" xlink:title=" ">
<polygon fill="white" stroke="#666666" points="199.46,-240.25 131.71,-240.25 131.71,-221 199.46,-221 199.46,-240.25"/>
<text text-anchor="middle" x="165.58" y="-226.75" font-family="Helvetica,sans-Serif" font-size="10.00">Exception.h</text>
</a>
</g>
</g>
<!-- Node8&#45;&gt;Node17 -->
<g id="edge16_Node000008_Node000017" class="edge">
<title>Node8&#45;&gt;Node17</title>
<g id="a_edge16_Node000008_Node000017"><a xlink:title=" ">
<path fill="none" stroke="#63b8ff" d="M207.33,-276.08C200.42,-268.73 190.36,-258.01 181.84,-248.94"/>
<polygon fill="#63b8ff" stroke="#63b8ff" points="184.45,-246.61 175.06,-241.71 179.35,-251.4 184.45,-246.61"/>
</a>
</g>
</g>
<!-- Node10 -->
<g id="Node000010" class="node">
<title>Node10</title>
<g id="a_Node000010"><a xlink:href="_aliases_8h.html" target="_top" xlink:title=" ">
<polygon fill="white" stroke="#666666" points="357.83,-185 301.33,-185 301.33,-165.75 357.83,-165.75 357.83,-185"/>
<text text-anchor="middle" x="329.58" y="-171.5" font-family="Helvetica,sans-Serif" font-size="10.00">Aliases.h</text>
</a>
</g>
</g>
<!-- Node9&#45;&gt;Node10 -->
<g id="edge9_Node000009_Node000010" class="edge">
<title>Node9&#45;&gt;Node10</title>
<g id="a_edge9_Node000009_Node000010"><a xlink:title=" ">
<path fill="none" stroke="#63b8ff" d="M329.58,-220.83C329.58,-214.32 329.58,-205.17 329.58,-196.87"/>
<polygon fill="#63b8ff" stroke="#63b8ff" points="333.08,-196.87 329.58,-186.87 326.08,-196.87 333.08,-196.87"/>
</a>
</g>
</g>
<!-- Node16 -->
<g id="Node000016" class="node">
<title>Node16</title>
<g id="a_Node000016"><a xlink:href="_reflection_8h.html" target="_top" xlink:title=" ">
<polygon fill="white" stroke="#666666" points="495.83,-185 427.33,-185 427.33,-165.75 495.83,-165.75 495.83,-185"/>
<text text-anchor="middle" x="461.58" y="-171.5" font-family="Helvetica,sans-Serif" font-size="10.00">Reflection.h</text>
</a>
</g>
</g>
<!-- Node9&#45;&gt;Node16 -->
<g id="edge15_Node000009_Node000016" class="edge">
<title>Node9&#45;&gt;Node16</title>
<g id="a_edge15_Node000009_Node000016"><a xlink:title=" ">
<path fill="none" stroke="#63b8ff" d="M351.98,-220.59C373.02,-212.1 404.79,-199.29 428.71,-189.64"/>
<polygon fill="#63b8ff" stroke="#63b8ff" points="429.71,-193.01 437.68,-186.02 427.09,-186.51 429.71,-193.01"/>
</a>
</g>
</g>
<!-- Node11 -->
<g id="Node000011" class="node">
<title>Node11</title>
<g id="a_Node000011"><a xlink:href="_macros_8h.html" target="_top" xlink:title=" ">
<polygon fill="white" stroke="#666666" points="319.83,-129.75 263.33,-129.75 263.33,-110.5 319.83,-110.5 319.83,-129.75"/>
<text text-anchor="middle" x="291.58" y="-116.25" font-family="Helvetica,sans-Serif" font-size="10.00">Macros.h</text>
</a>
</g>
</g>
<!-- Node10&#45;&gt;Node11 -->
<g id="edge10_Node000010_Node000011" class="edge">
<title>Node10&#45;&gt;Node11</title>
<g id="a_edge10_Node000010_Node000011"><a xlink:title=" ">
<path fill="none" stroke="#63b8ff" d="M323.31,-165.58C318.22,-158.46 310.89,-148.18 304.55,-139.3"/>
<polygon fill="#63b8ff" stroke="#63b8ff" points="307.53,-137.45 298.87,-131.34 301.83,-141.51 307.53,-137.45"/>
</a>
</g>
</g>
<!-- Node12 -->
<g id="Node000012" class="node">
<title>Node12</title>
<g id="a_Node000012"><a xlink:href="_types_8h.html" target="_top" xlink:title=" ">
<polygon fill="white" stroke="#666666" points="222.83,-74.5 172.33,-74.5 172.33,-55.25 222.83,-55.25 222.83,-74.5"/>
<text text-anchor="middle" x="197.58" y="-61" font-family="Helvetica,sans-Serif" font-size="10.00">Types.h</text>
</a>
</g>
</g>
<!-- Node11&#45;&gt;Node12 -->
<g id="edge11_Node000011_Node000012" class="edge">
<title>Node11&#45;&gt;Node12</title>
<g id="a_edge11_Node000011_Node000012"><a xlink:title=" ">
<path fill="none" stroke="#63b8ff" d="M275.64,-110.09C261.32,-101.98 240.05,-89.93 223.33,-80.46"/>
<polygon fill="#63b8ff" stroke="#63b8ff" points="225.35,-77.58 214.92,-75.7 221.9,-83.67 225.35,-77.58"/>
</a>
</g>
</g>
<!-- Node13 -->
<g id="Node000013" class="node">
<title>Node13</title>
<g id="a_Node000013"><a xlink:title=" ">
<polygon fill="#e0e0e0" stroke="#999999" points="155.08,-19.25 88.08,-19.25 88.08,0 155.08,0 155.08,-19.25"/>
<text text-anchor="middle" x="121.58" y="-5.75" font-family="Helvetica,sans-Serif" font-size="10.00">sys/types.h</text>
</a>
</g>
</g>
<!-- Node12&#45;&gt;Node13 -->
<g id="edge12_Node000012_Node000013" class="edge">
<title>Node12&#45;&gt;Node13</title>
<g id="a_edge12_Node000012_Node000013"><a xlink:title=" ">
<path fill="none" stroke="#63b8ff" d="M184.69,-54.84C173.55,-47.04 157.21,-35.59 143.95,-26.29"/>
<polygon fill="#63b8ff" stroke="#63b8ff" points="145.98,-23.44 135.78,-20.57 141.96,-29.18 145.98,-23.44"/>
</a>
</g>
</g>
<!-- Node14 -->
<g id="Node000014" class="node">
<title>Node14</title>
<g id="a_Node000014"><a xlink:title=" ">
<polygon fill="#e0e0e0" stroke="#999999" points="221.71,-19.25 173.46,-19.25 173.46,0 221.71,0 221.71,-19.25"/>
<text text-anchor="middle" x="197.58" y="-5.75" font-family="Helvetica,sans-Serif" font-size="10.00">stdint.h</text>
</a>
</g>
</g>
<!-- Node12&#45;&gt;Node14 -->
<g id="edge13_Node000012_Node000014" class="edge">
<title>Node12&#45;&gt;Node14</title>
<g id="a_edge13_Node000012_Node000014"><a xlink:title=" ">
<path fill="none" stroke="#63b8ff" d="M197.58,-55.08C197.58,-48.57 197.58,-39.42 197.58,-31.12"/>
<polygon fill="#63b8ff" stroke="#63b8ff" points="201.08,-31.12 197.58,-21.12 194.08,-31.12 201.08,-31.12"/>
</a>
</g>
</g>
<!-- Node15 -->
<g id="Node000015" class="node">
<title>Node15</title>
<g id="a_Node000015"><a xlink:title=" ">
<polygon fill="#e0e0e0" stroke="#999999" points="295.46,-19.25 239.71,-19.25 239.71,0 295.46,0 295.46,-19.25"/>
<text text-anchor="middle" x="267.58" y="-5.75" font-family="Helvetica,sans-Serif" font-size="10.00">stdbool.h</text>
</a>
</g>
</g>
<!-- Node12&#45;&gt;Node15 -->
<g id="edge14_Node000012_Node000015" class="edge">
<title>Node12&#45;&gt;Node15</title>
<g id="a_edge14_Node000012_Node000015"><a xlink:title=" ">
<path fill="none" stroke="#63b8ff" d="M209.46,-54.84C219.68,-47.07 234.66,-35.67 246.85,-26.4"/>
<polygon fill="#63b8ff" stroke="#63b8ff" points="248.84,-29.28 254.68,-20.44 244.6,-23.71 248.84,-29.28"/>
</a>
</g>
</g>
<!-- Node17&#45;&gt;Node12 -->
<g id="edge17_Node000017_Node000012" class="edge">
<title>Node17&#45;&gt;Node12</title>
<g id="a_edge17_Node000017_Node000012"><a xlink:title=" ">
<path fill="none" stroke="#63b8ff" d="M167.3,-220.82C172.27,-195.39 186.74,-121.35 193.72,-85.62"/>
<polygon fill="#63b8ff" stroke="#63b8ff" points="197.08,-86.69 195.56,-76.21 190.21,-85.35 197.08,-86.69"/>
</a>
</g>
</g>
<!-- Node18 -->
<g id="Node000018" class="node">
<title>Node18</title>
<g id="a_Node000018"><a xlink:title=" ">
<polygon fill="#e0e0e0" stroke="#999999" points="283.58,-185 225.58,-185 225.58,-165.75 283.58,-165.75 283.58,-185"/>
<text text-anchor="middle" x="254.58" y="-171.5" font-family="Helvetica,sans-Serif" font-size="10.00">exception</text>
</a>
</g>
</g>
<!-- Node17&#45;&gt;Node18 -->
<g id="edge18_Node000017_Node000018" class="edge">
<title>Node17&#45;&gt;Node18</title>
<g id="a_edge18_Node000017_Node000018"><a xlink:title=" ">
<path fill="none" stroke="#63b8ff" d="M180.68,-220.59C194.11,-212.56 213.99,-200.66 229.76,-191.23"/>
<polygon fill="#63b8ff" stroke="#63b8ff" points="231.33,-194.37 238.11,-186.23 227.73,-188.36 231.33,-194.37"/>
</a>
</g>
</g>
<!-- Node20 -->
<g id="Node000020" class="node">
<title>Node20</title>
<g id="a_Node000020"><a xlink:title=" ">
<polygon fill="#e0e0e0" stroke="#999999" points="659.33,-240.25 605.83,-240.25 605.83,-221 659.33,-221 659.33,-240.25"/>
<text text-anchor="middle" x="632.58" y="-226.75" font-family="Helvetica,sans-Serif" font-size="10.00">iostream</text>
</a>
</g>
</g>
<!-- Node19&#45;&gt;Node20 -->
<g id="edge20_Node000019_Node000020" class="edge">
<title>Node19&#45;&gt;Node20</title>
<g id="a_edge20_Node000019_Node000020"><a xlink:title=" ">
<path fill="none" stroke="#63b8ff" d="M440.31,-276.14C482.92,-266.28 551.87,-250.31 594.59,-240.42"/>
<polygon fill="#63b8ff" stroke="#63b8ff" points="595.21,-243.87 604.16,-238.2 593.63,-237.05 595.21,-243.87"/>
</a>
</g>
</g>
<!-- Node21&#45;&gt;Node10 -->
<g id="edge22_Node000021_Node000010" class="edge">
<title>Node21&#45;&gt;Node10</title>
<g id="a_edge22_Node000021_Node000010"><a xlink:title=" ">
<path fill="none" stroke="#63b8ff" d="M475.73,-220.59C446.34,-211.7 401.29,-198.07 368.98,-188.29"/>
<polygon fill="#63b8ff" stroke="#63b8ff" points="370.16,-184.99 359.57,-185.45 368.13,-191.69 370.16,-184.99"/>
</a>
</g>
</g>
<!-- Node21&#45;&gt;Node16 -->
<g id="edge23_Node000021_Node000016" class="edge">
<title>Node21&#45;&gt;Node16</title>
<g id="a_edge23_Node000021_Node000016"><a xlink:title=" ">
<path fill="none" stroke="#63b8ff" d="M498.32,-220.83C492.3,-213.55 483.57,-202.98 476.13,-193.98"/>
<polygon fill="#63b8ff" stroke="#63b8ff" points="479.04,-192.01 469.97,-186.53 473.64,-196.46 479.04,-192.01"/>
</a>
</g>
</g>
<!-- Node22&#45;&gt;Node7 -->
<g id="edge25_Node000022_Node000007" class="edge">
<title>Node22&#45;&gt;Node7</title>
<g id="a_edge25_Node000022_Node000007"><a xlink:title=" ">
<path fill="none" stroke="#63b8ff" d="M211.17,-386.58C218.43,-379.15 229.04,-368.29 237.95,-359.16"/>
<polygon fill="#63b8ff" stroke="#63b8ff" points="240.27,-361.79 244.75,-352.19 235.26,-356.9 240.27,-361.79"/>
</a>
</g>
</g>
<!-- Node23 -->
<g id="Node000023" class="node">
<title>Node23</title>
<g id="a_Node000023"><a xlink:href="_mem_utils_8h.html" target="_top" xlink:title=" ">
<polygon fill="white" stroke="#666666" points="146.71,-185 80.46,-185 80.46,-165.75 146.71,-165.75 146.71,-185"/>
<text text-anchor="middle" x="113.58" y="-171.5" font-family="Helvetica,sans-Serif" font-size="10.00">MemUtils.h</text>
</a>
</g>
</g>
<!-- Node22&#45;&gt;Node23 -->
<g id="edge26_Node000022_Node000023" class="edge">
<title>Node22&#45;&gt;Node23</title>
<g id="a_edge26_Node000022_Node000023"><a xlink:title=" ">
<path fill="none" stroke="#63b8ff" d="M196.57,-386.41C181.39,-363.31 141.42,-299.44 122.58,-240.25 118.05,-226 115.8,-209.24 114.68,-196.47"/>
<polygon fill="#63b8ff" stroke="#63b8ff" points="118.19,-196.5 114,-186.77 111.21,-196.99 118.19,-196.5"/>
</a>
</g>
</g>
<!-- Node23&#45;&gt;Node12 -->
<g id="edge27_Node000023_Node000012" class="edge">
<title>Node23&#45;&gt;Node12</title>
<g id="a_edge27_Node000023_Node000012"><a xlink:title=" ">
<path fill="none" stroke="#63b8ff" d="M114.37,-165.28C115.91,-152.08 120.33,-127.34 132.58,-110.5 141.74,-97.92 155.57,-87.72 168.12,-80.26"/>
<polygon fill="#63b8ff" stroke="#63b8ff" points="169.45,-83.53 176.48,-75.61 166.04,-77.41 169.45,-83.53"/>
</a>
</g>
</g>
<!-- Node24 -->
<g id="Node000024" class="node">
<title>Node24</title>
<g id="a_Node000024"><a xlink:href="_checksum_8h.html" target="_top" xlink:title=" ">
<polygon fill="white" stroke="#666666" points="85.33,-129.75 13.83,-129.75 13.83,-110.5 85.33,-110.5 85.33,-129.75"/>
<text text-anchor="middle" x="49.58" y="-116.25" font-family="Helvetica,sans-Serif" font-size="10.00">Checksum.h</text>
</a>
</g>
</g>
<!-- Node23&#45;&gt;Node24 -->
<g id="edge28_Node000023_Node000024" class="edge">
<title>Node23&#45;&gt;Node24</title>
<g id="a_edge28_Node000023_Node000024"><a xlink:title=" ">
<path fill="none" stroke="#63b8ff" d="M102.73,-165.34C93.48,-157.65 79.96,-146.4 68.87,-137.18"/>
<polygon fill="#63b8ff" stroke="#63b8ff" points="71.37,-134.7 61.44,-130.99 66.89,-140.08 71.37,-134.7"/>
</a>
</g>
</g>
<!-- Node25 -->
<g id="Node000025" class="node">
<title>Node25</title>
<g id="a_Node000025"><a xlink:title=" ">
<polygon fill="#e0e0e0" stroke="#999999" points="169.98,-129.75 141.18,-129.75 141.18,-110.5 169.98,-110.5 169.98,-129.75"/>
<text text-anchor="middle" x="155.58" y="-116.25" font-family="Helvetica,sans-Serif" font-size="10.00">bit</text>
</a>
</g>
</g>
<!-- Node23&#45;&gt;Node25 -->
<g id="edge30_Node000023_Node000025" class="edge">
<title>Node23&#45;&gt;Node25</title>
<g id="a_edge30_Node000023_Node000025"><a xlink:title=" ">
<path fill="none" stroke="#63b8ff" d="M120.52,-165.58C126.2,-158.38 134.42,-147.96 141.48,-139.01"/>
<polygon fill="#63b8ff" stroke="#63b8ff" points="144.12,-141.32 147.56,-131.3 138.62,-136.98 144.12,-141.32"/>
</a>
</g>
</g>
<!-- Node24&#45;&gt;Node12 -->
<g id="edge29_Node000024_Node000012" class="edge">
<title>Node24&#45;&gt;Node12</title>
<g id="a_edge29_Node000024_Node000012"><a xlink:title=" ">
<path fill="none" stroke="#63b8ff" d="M74.69,-110.09C98.61,-101.49 134.87,-88.44 161.81,-78.75"/>
<polygon fill="#63b8ff" stroke="#63b8ff" points="162.71,-82.14 170.93,-75.46 160.34,-75.56 162.71,-82.14"/>
</a>
</g>
</g>
<!-- Node28&#45;&gt;Node5 -->
<g id="edge55_Node000028_Node000005" class="edge">
<title>Node28&#45;&gt;Node5</title>
<g id="a_edge55_Node000028_Node000005"><a xlink:title=" ">
<path fill="none" stroke="#63b8ff" d="M482.68,-552.09C496.11,-544.06 515.99,-532.16 531.76,-522.73"/>
<polygon fill="#63b8ff" stroke="#63b8ff" points="533.33,-525.87 540.11,-517.73 529.73,-519.86 533.33,-525.87"/>
</a>
</g>
</g>
<!-- Node29 -->
<g id="Node000029" class="node">
<title>Node29</title>
<g id="a_Node000029"><a xlink:href="_f_s_descriptors_8h.html" target="_top" xlink:title=" ">
<polygon fill="white" stroke="#666666" points="381.21,-406 293.96,-406 293.96,-386.75 381.21,-386.75 381.21,-406"/>
<text text-anchor="middle" x="337.58" y="-392.5" font-family="Helvetica,sans-Serif" font-size="10.00">FSDescriptors.h</text>
</a>
</g>
</g>
<!-- Node28&#45;&gt;Node29 -->
<g id="edge34_Node000028_Node000029" class="edge">
<title>Node28&#45;&gt;Node29</title>
<g id="a_edge34_Node000028_Node000029"><a xlink:title=" ">
<path fill="none" stroke="#63b8ff" d="M459.34,-552.05C451.32,-543.14 438.87,-529.09 428.58,-516.5 400.03,-481.57 368.42,-439.32 350.99,-415.69"/>
<polygon fill="#63b8ff" stroke="#63b8ff" points="353.87,-413.7 345.13,-407.72 348.23,-417.85 353.87,-413.7"/>
</a>
</g>
</g>
<!-- Node32 -->
<g id="Node000032" class="node">
<title>Node32</title>
<g id="a_Node000032"><a xlink:href="_f_s_block_8h.html" target="_top" xlink:title=" ">
<polygon fill="white" stroke="#666666" points="233.46,-461.25 171.71,-461.25 171.71,-442 233.46,-442 233.46,-461.25"/>
<text text-anchor="middle" x="202.58" y="-447.75" font-family="Helvetica,sans-Serif" font-size="10.00">FSBlock.h</text>
</a>
</g>
</g>
<!-- Node28&#45;&gt;Node32 -->
<g id="edge42_Node000028_Node000032" class="edge">
<title>Node28&#45;&gt;Node32</title>
<g id="a_edge42_Node000028_Node000032"><a xlink:title=" ">
<path fill="none" stroke="#63b8ff" d="M446.34,-552.13C416.84,-539.66 361.76,-516.49 314.58,-497.25 288.39,-486.56 258.63,-474.72 236.38,-465.92"/>
<polygon fill="#63b8ff" stroke="#63b8ff" points="237.79,-462.72 227.2,-462.3 235.22,-469.23 237.79,-462.72"/>
</a>
</g>
</g>
<!-- Node34 -->
<g id="Node000034" class="node">
<title>Node34</title>
<g id="a_Node000034"><a xlink:href="_f_s_dir_entry_8h.html" target="_top" xlink:title=" ">
<polygon fill="white" stroke="#666666" points="343.33,-461.25 271.83,-461.25 271.83,-442 343.33,-442 343.33,-461.25"/>
<text text-anchor="middle" x="307.58" y="-447.75" font-family="Helvetica,sans-Serif" font-size="10.00">FSDirEntry.h</text>
</a>
</g>
</g>
<!-- Node28&#45;&gt;Node34 -->
<g id="edge49_Node000028_Node000034" class="edge">
<title>Node28&#45;&gt;Node34</title>
<g id="a_edge49_Node000028_Node000034"><a xlink:title=" ">
<path fill="none" stroke="#63b8ff" d="M452.21,-552.04C437.49,-543.24 414.75,-529.37 395.58,-516.5 372.05,-500.69 345.84,-481.45 328.19,-468.24"/>
<polygon fill="#63b8ff" stroke="#63b8ff" points="330.65,-465.71 320.55,-462.49 326.44,-471.3 330.65,-465.71"/>
</a>
</g>
</g>
<!-- Node35 -->
<g id="Node000035" class="node">
<title>Node35</title>
<g id="a_Node000035"><a xlink:href="_d64_file_8h.html" target="_top" xlink:title=" ">
<polygon fill="white" stroke="#666666" points="495.58,-516.5 437.58,-516.5 437.58,-497.25 495.58,-497.25 495.58,-516.5"/>
<text text-anchor="middle" x="466.58" y="-503" font-family="Helvetica,sans-Serif" font-size="10.00">D64File.h</text>
</a>
</g>
</g>
<!-- Node28&#45;&gt;Node35 -->
<g id="edge53_Node000028_Node000035" class="edge">
<title>Node28&#45;&gt;Node35</title>
<g id="a_edge53_Node000028_Node000035"><a xlink:title=" ">
<path fill="none" stroke="#63b8ff" d="M467.42,-552.33C467.3,-545.82 467.12,-536.67 466.97,-528.37"/>
<polygon fill="#63b8ff" stroke="#63b8ff" points="470.47,-528.3 466.78,-518.37 463.47,-528.44 470.47,-528.3"/>
</a>
</g>
</g>
<!-- Node28&#45;&gt;Node36 -->
<g id="edge56_Node000028_Node000036" class="edge">
<title>Node28&#45;&gt;Node36</title>
<g id="a_edge56_Node000028_Node000036"><a xlink:title=" ">
<path fill="none" stroke="#63b8ff" d="M503.06,-552.03C532.01,-544.1 573.68,-531.53 608.58,-516.5 641.51,-502.32 677.29,-481.51 700.05,-467.54"/>
<polygon fill="#63b8ff" stroke="#63b8ff" points="701.6,-470.7 708.25,-462.45 697.9,-464.75 701.6,-470.7"/>
</a>
</g>
</g>
<!-- Node38 -->
<g id="Node000038" class="node">
<title>Node38</title>
<g id="a_Node000038"><a xlink:title=" ">
<polygon fill="#e0e0e0" stroke="#999999" points="1106.08,-350.75 1063.08,-350.75 1063.08,-331.5 1106.08,-331.5 1106.08,-350.75"/>
<text text-anchor="middle" x="1084.58" y="-337.25" font-family="Helvetica,sans-Serif" font-size="10.00">vector</text>
</a>
</g>
</g>
<!-- Node28&#45;&gt;Node38 -->
<g id="edge69_Node000028_Node000038" class="edge">
<title>Node28&#45;&gt;Node38</title>
<g id="a_edge69_Node000028_Node000038"><a xlink:title=" ">
<path fill="none" stroke="#63b8ff" d="M504.69,-553.74C641.19,-526.4 1108.59,-431.23 1128.58,-406 1141.14,-390.15 1123.82,-370.91 1107.36,-357.72"/>
<polygon fill="#63b8ff" stroke="#63b8ff" points="1109.81,-355.18 1099.71,-351.98 1105.6,-360.78 1109.81,-355.18"/>
</a>
</g>
</g>
<!-- Node29&#45;&gt;Node7 -->
<g id="edge35_Node000029_Node000007" class="edge">
<title>Node29&#45;&gt;Node7</title>
<g id="a_edge35_Node000029_Node000007"><a xlink:title=" ">
<path fill="none" stroke="#63b8ff" d="M323.5,-386.34C311.1,-378.39 292.79,-366.64 278.16,-357.25"/>
<polygon fill="#63b8ff" stroke="#63b8ff" points="280.31,-354.47 270.01,-352.02 276.53,-360.37 280.31,-354.47"/>
</a>
</g>
</g>
<!-- Node30 -->
<g id="Node000030" class="node">
<title>Node30</title>
<g id="a_Node000030"><a xlink:href="_disk_types_8h.html" target="_top" xlink:title=" ">
<polygon fill="white" stroke="#666666" points="453.96,-240.25 383.21,-240.25 383.21,-221 453.96,-221 453.96,-240.25"/>
<text text-anchor="middle" x="418.58" y="-226.75" font-family="Helvetica,sans-Serif" font-size="10.00">DiskTypes.h</text>
</a>
</g>
</g>
<!-- Node29&#45;&gt;Node30 -->
<g id="edge36_Node000029_Node000030" class="edge">
<title>Node29&#45;&gt;Node30</title>
<g id="a_edge36_Node000029_Node000030"><a xlink:title=" ">
<path fill="none" stroke="#63b8ff" d="M336.8,-386.52C335.39,-365.61 334.38,-312.26 356.58,-276.25 364.36,-263.64 377.16,-253.54 389.11,-246.15"/>
<polygon fill="#63b8ff" stroke="#63b8ff" points="390.57,-249.35 397.51,-241.35 387.09,-243.28 390.57,-249.35"/>
</a>
</g>
</g>
<!-- Node31 -->
<g id="Node000031" class="node">
<title>Node31</title>
<g id="a_Node000031"><a xlink:href="_f_s_types_8h.html" target="_top" xlink:title=" ">
<polygon fill="white" stroke="#666666" points="441.21,-350.75 377.96,-350.75 377.96,-331.5 441.21,-331.5 441.21,-350.75"/>
<text text-anchor="middle" x="409.58" y="-337.25" font-family="Helvetica,sans-Serif" font-size="10.00">FSTypes.h</text>
</a>
</g>
</g>
<!-- Node29&#45;&gt;Node31 -->
<g id="edge39_Node000029_Node000031" class="edge">
<title>Node29&#45;&gt;Node31</title>
<g id="a_edge39_Node000029_Node000031"><a xlink:title=" ">
<path fill="none" stroke="#63b8ff" d="M349.8,-386.34C360.41,-378.49 376.02,-366.95 388.63,-357.62"/>
<polygon fill="#63b8ff" stroke="#63b8ff" points="390.37,-360.69 396.33,-351.92 386.21,-355.06 390.37,-360.69"/>
</a>
</g>
</g>
<!-- Node30&#45;&gt;Node10 -->
<g id="edge37_Node000030_Node000010" class="edge">
<title>Node30&#45;&gt;Node10</title>
<g id="a_edge37_Node000030_Node000010"><a xlink:title=" ">
<path fill="none" stroke="#63b8ff" d="M403.49,-220.59C390.06,-212.56 370.17,-200.66 354.41,-191.23"/>
<polygon fill="#63b8ff" stroke="#63b8ff" points="356.43,-188.36 346.05,-186.23 352.84,-194.37 356.43,-188.36"/>
</a>
</g>
</g>
<!-- Node30&#45;&gt;Node16 -->
<g id="edge38_Node000030_Node000016" class="edge">
<title>Node30&#45;&gt;Node16</title>
<g id="a_edge38_Node000030_Node000016"><a xlink:title=" ">
<path fill="none" stroke="#63b8ff" d="M425.68,-220.83C431.5,-213.63 439.92,-203.21 447.14,-194.26"/>
<polygon fill="#63b8ff" stroke="#63b8ff" points="449.82,-196.52 453.38,-186.54 444.37,-192.12 449.82,-196.52"/>
</a>
</g>
</g>
<!-- Node31&#45;&gt;Node10 -->
<g id="edge40_Node000031_Node000010" class="edge">
<title>Node31&#45;&gt;Node10</title>
<g id="a_edge40_Node000031_Node000010"><a xlink:title=" ">
<path fill="none" stroke="#63b8ff" d="M389.3,-331.1C359.84,-316.73 306.38,-285.56 284.58,-240.25 276.16,-222.74 291.26,-204.82 306.19,-192.44"/>
<polygon fill="#63b8ff" stroke="#63b8ff" points="308.24,-195.27 314.05,-186.42 303.98,-189.72 308.24,-195.27"/>
</a>
</g>
</g>
<!-- Node31&#45;&gt;Node16 -->
<g id="edge41_Node000031_Node000016" class="edge">
<title>Node31&#45;&gt;Node16</title>
<g id="a_edge41_Node000031_Node000016"><a xlink:title=" ">
<path fill="none" stroke="#63b8ff" d="M433.54,-331.02C466.28,-317.1 523.64,-287.13 547.58,-240.25 559.49,-216.93 532.28,-199.94 505.39,-189.37"/>
<polygon fill="#63b8ff" stroke="#63b8ff" points="506.8,-186.16 496.2,-186.02 504.4,-192.73 506.8,-186.16"/>
</a>
</g>
</g>
<!-- Node32&#45;&gt;Node7 -->
<g id="edge47_Node000032_Node000007" class="edge">
<title>Node32&#45;&gt;Node7</title>
<g id="a_edge47_Node000032_Node000007"><a xlink:title=" ">
<path fill="none" stroke="#63b8ff" d="M188.64,-441.66C171.41,-429.43 145.84,-406.73 158.58,-386.75 169.36,-369.86 188.36,-359.26 206.63,-352.66"/>
<polygon fill="#63b8ff" stroke="#63b8ff" points="207.66,-356.01 216.09,-349.6 205.5,-349.35 207.66,-356.01"/>
</a>
</g>
</g>
<!-- Node32&#45;&gt;Node22 -->
<g id="edge48_Node000032_Node000022" class="edge">
<title>Node32&#45;&gt;Node22</title>
<g id="a_edge48_Node000032_Node000022"><a xlink:title=" ">
<path fill="none" stroke="#63b8ff" d="M202.58,-441.83C202.58,-435.32 202.58,-426.17 202.58,-417.87"/>
<polygon fill="#63b8ff" stroke="#63b8ff" points="206.08,-417.87 202.58,-407.87 199.08,-417.87 206.08,-417.87"/>
</a>
</g>
</g>
<!-- Node32&#45;&gt;Node31 -->
<g id="edge43_Node000032_Node000031" class="edge">
<title>Node32&#45;&gt;Node31</title>
<g id="a_edge43_Node000032_Node000031"><a xlink:title=" ">
<path fill="none" stroke="#63b8ff" d="M233.71,-445C284.13,-435.62 379.19,-416.77 390.58,-406 402.55,-394.69 407.08,-376.21 408.75,-362.04"/>
<polygon fill="#63b8ff" stroke="#63b8ff" points="412.21,-362.72 409.48,-352.48 405.23,-362.18 412.21,-362.72"/>
</a>
</g>
</g>
<!-- Node33 -->
<g id="Node000033" class="node">
<title>Node33</title>
<g id="a_Node000033"><a xlink:href="_buffer_8h.html" target="_top" xlink:title=" ">
<polygon fill="white" stroke="#666666" points="62.46,-185 12.71,-185 12.71,-165.75 62.46,-165.75 62.46,-185"/>
<text text-anchor="middle" x="37.58" y="-171.5" font-family="Helvetica,sans-Serif" font-size="10.00">Buffer.h</text>
</a>
</g>
</g>
<!-- Node32&#45;&gt;Node33 -->
<g id="edge44_Node000032_Node000033" class="edge">
<title>Node32&#45;&gt;Node33</title>
<g id="a_edge44_Node000032_Node000033"><a xlink:title=" ">
<path fill="none" stroke="#63b8ff" d="M171.46,-443.36C126.99,-430.91 50.58,-400.97 50.58,-342.12 50.58,-342.12 50.58,-342.12 50.58,-284.88 50.58,-253.94 45.31,-218.39 41.48,-196.65"/>
<polygon fill="#63b8ff" stroke="#63b8ff" points="44.92,-196.02 39.67,-186.82 38.04,-197.29 44.92,-196.02"/>
</a>
</g>
</g>
<!-- Node33&#45;&gt;Node12 -->
<g id="edge45_Node000033_Node000012" class="edge">
<title>Node33&#45;&gt;Node12</title>
<g id="a_edge45_Node000033_Node000012"><a xlink:title=" ">
<path fill="none" stroke="#63b8ff" d="M26.89,-165.48C12.6,-152.52 -9.4,-128.09 4.58,-110.5 23.71,-86.45 110.15,-74.23 160.63,-69.05"/>
<polygon fill="#63b8ff" stroke="#63b8ff" points="160.91,-72.54 170.52,-68.08 160.22,-65.57 160.91,-72.54"/>
</a>
</g>
</g>
<!-- Node33&#45;&gt;Node24 -->
<g id="edge46_Node000033_Node000024" class="edge">
<title>Node33&#45;&gt;Node24</title>
<g id="a_edge46_Node000033_Node000024"><a xlink:title=" ">
<path fill="none" stroke="#63b8ff" d="M39.57,-165.58C41.05,-158.99 43.14,-149.71 45.03,-141.32"/>
<polygon fill="#63b8ff" stroke="#63b8ff" points="48.44,-142.11 47.23,-131.59 41.61,-140.57 48.44,-142.11"/>
</a>
</g>
</g>
<!-- Node34&#45;&gt;Node10 -->
<g id="edge50_Node000034_Node000010" class="edge">
<title>Node34&#45;&gt;Node10</title>
<g id="a_edge50_Node000034_Node000010"><a xlink:title=" ">
<path fill="none" stroke="#63b8ff" d="M271.67,-444.88C232.06,-437.73 172.13,-424.2 158.58,-406 153.47,-399.14 157.6,-395.25 158.58,-386.75 164.4,-336.63 156.12,-317.91 184.58,-276.25 212.67,-235.14 263.71,-205.91 297.13,-190.09"/>
<polygon fill="#63b8ff" stroke="#63b8ff" points="298.3,-193.4 305.93,-186.06 295.38,-187.04 298.3,-193.4"/>
</a>
</g>
</g>
<!-- Node34&#45;&gt;Node22 -->
<g id="edge52_Node000034_Node000022" class="edge">
<title>Node34&#45;&gt;Node22</title>
<g id="a_edge52_Node000034_Node000022"><a xlink:title=" ">
<path fill="none" stroke="#63b8ff" d="M289.77,-441.59C273.56,-433.37 249.35,-421.09 230.55,-411.56"/>
<polygon fill="#63b8ff" stroke="#63b8ff" points="232.33,-408.54 221.83,-407.14 229.17,-414.78 232.33,-408.54"/>
</a>
</g>
</g>
<!-- Node34&#45;&gt;Node31 -->
<g id="edge51_Node000034_Node000031" class="edge">
<title>Node34&#45;&gt;Node31</title>
<g id="a_edge51_Node000034_Node000031"><a xlink:title=" ">
<path fill="none" stroke="#63b8ff" d="M343.83,-447.33C370.77,-442.76 405.81,-431.88 423.58,-406 432.62,-392.84 427.51,-374.86 421.06,-361.33"/>
<polygon fill="#63b8ff" stroke="#63b8ff" points="424.15,-359.7 416.33,-352.55 417.99,-363.01 424.15,-359.7"/>
</a>
</g>
</g>
<!-- Node35&#45;&gt;Node6 -->
<g id="edge54_Node000035_Node000006" class="edge">
<title>Node35&#45;&gt;Node6</title>
<g id="a_edge54_Node000035_Node000006"><a xlink:title=" ">
<path fill="none" stroke="#63b8ff" d="M469.72,-497.08C472.13,-490.34 475.54,-480.77 478.58,-472.24"/>
<polygon fill="#63b8ff" stroke="#63b8ff" points="481.81,-473.63 481.87,-463.03 475.21,-471.28 481.81,-473.63"/>
</a>
</g>
</g>
<!-- Node36&#45;&gt;Node12 -->
<g id="edge57_Node000036_Node000012" class="edge">
<title>Node36&#45;&gt;Node12</title>
<g id="a_edge57_Node000036_Node000012"><a xlink:title=" ">
<path fill="none" stroke="#63b8ff" d="M720,-441.5C713.09,-423.04 698.58,-379.82 698.58,-342.12 698.58,-342.12 698.58,-342.12 698.58,-174.38 698.58,-79.4 350.3,-67.37 234.51,-66"/>
<polygon fill="#63b8ff" stroke="#63b8ff" points="234.66,-62.5 224.63,-65.9 234.6,-69.5 234.66,-62.5"/>
</a>
</g>
</g>
<!-- Node36&#45;&gt;Node20 -->
<g id="edge65_Node000036_Node000020" class="edge">
<title>Node36&#45;&gt;Node20</title>
<g id="a_edge65_Node000036_Node000020"><a xlink:title=" ">
<path fill="none" stroke="#63b8ff" d="M713.59,-441.63C704.79,-433.21 692.24,-419.87 684.58,-406 656.04,-354.24 641.44,-285 635.65,-251.47"/>
<polygon fill="#63b8ff" stroke="#63b8ff" points="639.17,-251.28 634.1,-241.98 632.26,-252.41 639.17,-251.28"/>
</a>
</g>
</g>
<!-- Node36&#45;&gt;Node26 -->
<g id="edge66_Node000036_Node000026" class="edge">
<title>Node36&#45;&gt;Node26</title>
<g id="a_edge66_Node000036_Node000026"><a xlink:title=" ">
<path fill="none" stroke="#63b8ff" d="M703.74,-441.59C685.41,-433.25 657.94,-420.75 636.88,-411.16"/>
<polygon fill="#63b8ff" stroke="#63b8ff" points="638.46,-408.04 627.91,-407.08 635.56,-414.41 638.46,-408.04"/>
</a>
</g>
</g>
<!-- Node36&#45;&gt;Node27 -->
<g id="edge63_Node000036_Node000027" class="edge">
<title>Node36&#45;&gt;Node27</title>
<g id="a_edge63_Node000036_Node000027"><a xlink:title=" ">
<path fill="none" stroke="#63b8ff" d="M695.89,-442.65C663.51,-433.33 609.84,-417.88 574.34,-407.67"/>
<polygon fill="#63b8ff" stroke="#63b8ff" points="575.53,-404.37 564.95,-404.97 573.6,-411.1 575.53,-404.37"/>
</a>
</g>
</g>
<!-- Node37 -->
<g id="Node000037" class="node">
<title>Node37</title>
<g id="a_Node000037"><a xlink:href="_string_utils_8h.html" target="_top" xlink:title=" ">
<polygon fill="white" stroke="#666666" points="1119.58,-406 1049.58,-406 1049.58,-386.75 1119.58,-386.75 1119.58,-406"/>
<text text-anchor="middle" x="1084.58" y="-392.5" font-family="Helvetica,sans-Serif" font-size="10.00">StringUtils.h</text>
</a>
</g>
</g>
<!-- Node36&#45;&gt;Node37 -->
<g id="edge58_Node000036_Node000037" class="edge">
<title>Node36&#45;&gt;Node37</title>
<g id="a_edge58_Node000036_Node000037"><a xlink:title=" ">
<path fill="none" stroke="#63b8ff" d="M751.22,-447.24C804.6,-440.6 925.83,-424.99 1038.34,-406.3"/>
<polygon fill="#63b8ff" stroke="#63b8ff" points="1038.77,-409.77 1048.06,-404.67 1037.62,-402.87 1038.77,-409.77"/>
</a>
</g>
</g>
<!-- Node36&#45;&gt;Node38 -->
<g id="edge68_Node000036_Node000038" class="edge">
<title>Node36&#45;&gt;Node38</title>
<g id="a_edge68_Node000036_Node000038"><a xlink:title=" ">
<path fill="none" stroke="#63b8ff" d="M751.43,-442.75C779.04,-434.63 822.34,-421.07 858.58,-406 876.06,-398.73 878.81,-393.26 896.58,-386.75 949.4,-367.41 1013.67,-354.26 1051.74,-347.49"/>
<polygon fill="#63b8ff" stroke="#63b8ff" points="1051.92,-351.01 1061.18,-345.85 1050.73,-344.11 1051.92,-351.01"/>
</a>
</g>
</g>
<!-- Node39 -->
<g id="Node000039" class="node">
<title>Node39</title>
<g id="a_Node000039"><a xlink:title=" ">
<polygon fill="#e0e0e0" stroke="#999999" points="770.08,-406 727.08,-406 727.08,-386.75 770.08,-386.75 770.08,-406"/>
<text text-anchor="middle" x="748.58" y="-392.5" font-family="Helvetica,sans-Serif" font-size="10.00">fcntl.h</text>
</a>
</g>
</g>
<!-- Node36&#45;&gt;Node39 -->
<g id="edge61_Node000036_Node000039" class="edge">
<title>Node36&#45;&gt;Node39</title>
<g id="a_edge61_Node000036_Node000039"><a xlink:title=" ">
<path fill="none" stroke="#63b8ff" d="M727.71,-441.83C730.91,-435.01 735.47,-425.31 739.51,-416.7"/>
<polygon fill="#63b8ff" stroke="#63b8ff" points="742.64,-418.27 743.72,-407.73 736.3,-415.29 742.64,-418.27"/>
</a>
</g>
</g>
<!-- Node40 -->
<g id="Node000040" class="node">
<title>Node40</title>
<g id="a_Node000040"><a xlink:title=" ">
<polygon fill="#e0e0e0" stroke="#999999" points="849.08,-406 788.08,-406 788.08,-386.75 849.08,-386.75 849.08,-406"/>
<text text-anchor="middle" x="818.58" y="-392.5" font-family="Helvetica,sans-Serif" font-size="10.00">filesystem</text>
</a>
</g>
</g>
<!-- Node36&#45;&gt;Node40 -->
<g id="edge62_Node000036_Node000040" class="edge">
<title>Node36&#45;&gt;Node40</title>
<g id="a_edge62_Node000036_Node000040"><a xlink:title=" ">
<path fill="none" stroke="#63b8ff" d="M739.7,-441.59C754.17,-433.48 775.66,-421.43 792.56,-411.96"/>
<polygon fill="#63b8ff" stroke="#63b8ff" points="794.06,-415.14 801.07,-407.19 790.63,-409.03 794.06,-415.14"/>
</a>
</g>
</g>
<!-- Node41 -->
<g id="Node000041" class="node">
<title>Node41</title>
<g id="a_Node000041"><a xlink:title=" ">
<polygon fill="#e0e0e0" stroke="#999999" points="953.71,-406 905.46,-406 905.46,-386.75 953.71,-386.75 953.71,-406"/>
<text text-anchor="middle" x="929.58" y="-392.5" font-family="Helvetica,sans-Serif" font-size="10.00">istream</text>
</a>
</g>
</g>
<!-- Node36&#45;&gt;Node41 -->
<g id="edge64_Node000036_Node000041" class="edge">
<title>Node36&#45;&gt;Node41</title>
<g id="a_edge64_Node000036_Node000041"><a xlink:title=" ">
<path fill="none" stroke="#63b8ff" d="M751.37,-443.44C788.33,-433.89 853.71,-416.99 894.17,-406.53"/>
<polygon fill="#63b8ff" stroke="#63b8ff" points="894.86,-409.97 903.66,-404.08 893.1,-403.19 894.86,-409.97"/>
</a>
</g>
</g>
<!-- Node42 -->
<g id="Node000042" class="node">
<title>Node42</title>
<g id="a_Node000042"><a xlink:title=" ">
<polygon fill="#e0e0e0" stroke="#999999" points="1031.33,-406 971.83,-406 971.83,-386.75 1031.33,-386.75 1031.33,-406"/>
<text text-anchor="middle" x="1001.58" y="-392.5" font-family="Helvetica,sans-Serif" font-size="10.00">sys/stat.h</text>
</a>
</g>
</g>
<!-- Node36&#45;&gt;Node42 -->
<g id="edge67_Node000036_Node000042" class="edge">
<title>Node36&#45;&gt;Node42</title>
<g id="a_edge67_Node000036_Node000042"><a xlink:title=" ">
<path fill="none" stroke="#63b8ff" d="M751.24,-445.77C793.86,-438.22 878.41,-422.97 960.13,-406.45"/>
<polygon fill="#63b8ff" stroke="#63b8ff" points="960.79,-409.88 969.89,-404.46 959.39,-403.02 960.79,-409.88"/>
</a>
</g>
</g>
<!-- Node37&#45;&gt;Node12 -->
<g id="edge59_Node000037_Node000012" class="edge">
<title>Node37&#45;&gt;Node12</title>
<g id="a_edge59_Node000037_Node000012"><a xlink:title=" ">
<path fill="none" stroke="#63b8ff" d="M1056.07,-386.36C1001.05,-368.11 885.58,-325.24 885.58,-286.88 885.58,-286.88 885.58,-286.88 885.58,-174.38 885.58,-92.41 792.57,-128.39 712.58,-110.5 536.69,-71.15 319.81,-66.08 234.51,-65.72"/>
<polygon fill="#63b8ff" stroke="#63b8ff" points="234.66,-62.22 224.65,-65.7 234.64,-69.22 234.66,-62.22"/>
</a>
</g>
</g>
<!-- Node37&#45;&gt;Node38 -->
<g id="edge60_Node000037_Node000038" class="edge">
<title>Node37&#45;&gt;Node38</title>
<g id="a_edge60_Node000037_Node000038"><a xlink:title=" ">
<path fill="none" stroke="#63b8ff" d="M1084.58,-386.58C1084.58,-380.07 1084.58,-370.92 1084.58,-362.62"/>
<polygon fill="#63b8ff" stroke="#63b8ff" points="1088.08,-362.62 1084.58,-352.62 1081.08,-362.62 1088.08,-362.62"/>
</a>
</g>
</g>
</g>
</svg>
