<?xml version="1.0" encoding="UTF-8" standalone="no"?>
<!DOCTYPE svg PUBLIC "-//W3C//DTD SVG 1.1//EN"
 "http://www.w3.org/Graphics/SVG/1.1/DTD/svg11.dtd">
<!-- Generated by graphviz version 10.0.1 (20240210.2158)
 -->
<!-- Title: /Users/hoff/Retro/virtualc64/Emulator/Media/PETName.h Pages: 1 -->
<svg width="364pt" height="425pt"
 viewBox="0.00 0.00 363.65 425.25" xmlns="http://www.w3.org/2000/svg" xmlns:xlink="http://www.w3.org/1999/xlink">
<g id="graph0" class="graph" transform="scale(1 1) rotate(0) translate(4 421.25)">
<title>/Users/hoff/Retro/virtualc64/Emulator/Media/PETName.h</title>
<!-- Node1 -->
<g id="Node000001" class="node">
<title>Node1</title>
<g id="a_Node000001"><a xlink:title=" ">
<polygon fill="#999999" stroke="#666666" points="351.38,-417.25 207.12,-417.25 207.12,-386.75 351.38,-386.75 351.38,-417.25"/>
<text text-anchor="start" x="215.12" y="-403.75" font-family="Helvetica,sans-Serif" font-size="10.00">/Users/hoff/Retro/virtualc64</text>
<text text-anchor="middle" x="279.25" y="-392.5" font-family="Helvetica,sans-Serif" font-size="10.00">/Emulator/Media/PETName.h</text>
</a>
</g>
</g>
<!-- Node2 -->
<g id="Node000002" class="node">
<title>Node2</title>
<g id="a_Node000002"><a xlink:href="_core_object_8h.html" target="_top" xlink:title=" ">
<polygon fill="white" stroke="#666666" points="284.12,-350.75 210.38,-350.75 210.38,-331.5 284.12,-331.5 284.12,-350.75"/>
<text text-anchor="middle" x="247.25" y="-337.25" font-family="Helvetica,sans-Serif" font-size="10.00">CoreObject.h</text>
</a>
</g>
</g>
<!-- Node1&#45;&gt;Node2 -->
<g id="edge1_Node000001_Node000002" class="edge">
<title>Node1&#45;&gt;Node2</title>
<g id="a_edge1_Node000001_Node000002"><a xlink:title=" ">
<path fill="none" stroke="#63b8ff" d="M271.34,-386.45C267.22,-378.86 262.12,-369.49 257.68,-361.32"/>
<polygon fill="#63b8ff" stroke="#63b8ff" points="260.76,-359.65 252.91,-352.53 254.61,-362.99 260.76,-359.65"/>
</a>
</g>
</g>
<!-- Node16 -->
<g id="Node000016" class="node">
<title>Node16</title>
<g id="a_Node000016"><a xlink:href="_mem_utils_8h.html" target="_top" xlink:title=" ">
<polygon fill="white" stroke="#666666" points="344.38,-185 278.12,-185 278.12,-165.75 344.38,-165.75 344.38,-185"/>
<text text-anchor="middle" x="311.25" y="-171.5" font-family="Helvetica,sans-Serif" font-size="10.00">MemUtils.h</text>
</a>
</g>
</g>
<!-- Node1&#45;&gt;Node16 -->
<g id="edge16_Node000001_Node000016" class="edge">
<title>Node1&#45;&gt;Node16</title>
<g id="a_edge16_Node000001_Node000016"><a xlink:title=" ">
<path fill="none" stroke="#63b8ff" d="M283.95,-386.64C287.04,-376.67 290.92,-363.03 293.25,-350.75 303.71,-295.56 308.44,-229.31 310.27,-196.64"/>
<polygon fill="#63b8ff" stroke="#63b8ff" points="313.76,-196.84 310.79,-186.67 306.77,-196.48 313.76,-196.84"/>
</a>
</g>
</g>
<!-- Node3 -->
<g id="Node000003" class="node">
<title>Node3</title>
<g id="a_Node000003"><a xlink:href="_error_8h.html" target="_top" xlink:title=" ">
<polygon fill="white" stroke="#666666" points="191.5,-295.5 147,-295.5 147,-276.25 191.5,-276.25 191.5,-295.5"/>
<text text-anchor="middle" x="169.25" y="-282" font-family="Helvetica,sans-Serif" font-size="10.00">Error.h</text>
</a>
</g>
</g>
<!-- Node2&#45;&gt;Node3 -->
<g id="edge2_Node000002_Node000003" class="edge">
<title>Node2&#45;&gt;Node3</title>
<g id="a_edge2_Node000002_Node000003"><a xlink:title=" ">
<path fill="none" stroke="#63b8ff" d="M234.02,-331.09C222.48,-323.21 205.48,-311.61 191.8,-302.27"/>
<polygon fill="#63b8ff" stroke="#63b8ff" points="194.03,-299.55 183.8,-296.81 190.08,-305.33 194.03,-299.55"/>
</a>
</g>
</g>
<!-- Node14 -->
<g id="Node000014" class="node">
<title>Node14</title>
<g id="a_Node000014"><a xlink:href="_inspectable_8h.html" target="_top" xlink:title=" ">
<polygon fill="white" stroke="#666666" points="284.5,-295.5 210,-295.5 210,-276.25 284.5,-276.25 284.5,-295.5"/>
<text text-anchor="middle" x="247.25" y="-282" font-family="Helvetica,sans-Serif" font-size="10.00">Inspectable.h</text>
</a>
</g>
</g>
<!-- Node2&#45;&gt;Node14 -->
<g id="edge14_Node000002_Node000014" class="edge">
<title>Node2&#45;&gt;Node14</title>
<g id="a_edge14_Node000002_Node000014"><a xlink:title=" ">
<path fill="none" stroke="#63b8ff" d="M247.25,-331.33C247.25,-324.82 247.25,-315.67 247.25,-307.37"/>
<polygon fill="#63b8ff" stroke="#63b8ff" points="250.75,-307.37 247.25,-297.37 243.75,-307.37 250.75,-307.37"/>
</a>
</g>
</g>
<!-- Node4 -->
<g id="Node000004" class="node">
<title>Node4</title>
<g id="a_Node000004"><a xlink:href="_error_types_8h.html" target="_top" xlink:title=" ">
<polygon fill="white" stroke="#666666" points="119,-240.25 47.5,-240.25 47.5,-221 119,-221 119,-240.25"/>
<text text-anchor="middle" x="83.25" y="-226.75" font-family="Helvetica,sans-Serif" font-size="10.00">ErrorTypes.h</text>
</a>
</g>
</g>
<!-- Node3&#45;&gt;Node4 -->
<g id="edge3_Node000003_Node000004" class="edge">
<title>Node3&#45;&gt;Node4</title>
<g id="a_edge3_Node000003_Node000004"><a xlink:title=" ">
<path fill="none" stroke="#63b8ff" d="M154.66,-275.84C141.81,-267.89 122.84,-256.14 107.68,-246.75"/>
<polygon fill="#63b8ff" stroke="#63b8ff" points="109.54,-243.79 99.2,-241.5 105.86,-249.74 109.54,-243.79"/>
</a>
</g>
</g>
<!-- Node12 -->
<g id="Node000012" class="node">
<title>Node12</title>
<g id="a_Node000012"><a xlink:href="_exception_8h.html" target="_top" xlink:title=" ">
<polygon fill="white" stroke="#666666" points="205.12,-240.25 137.38,-240.25 137.38,-221 205.12,-221 205.12,-240.25"/>
<text text-anchor="middle" x="171.25" y="-226.75" font-family="Helvetica,sans-Serif" font-size="10.00">Exception.h</text>
</a>
</g>
</g>
<!-- Node3&#45;&gt;Node12 -->
<g id="edge11_Node000003_Node000012" class="edge">
<title>Node3&#45;&gt;Node12</title>
<g id="a_edge11_Node000003_Node000012"><a xlink:title=" ">
<path fill="none" stroke="#63b8ff" d="M169.58,-276.08C169.83,-269.49 170.18,-260.21 170.49,-251.82"/>
<polygon fill="#63b8ff" stroke="#63b8ff" points="173.98,-252.25 170.86,-242.12 166.98,-251.98 173.98,-252.25"/>
</a>
</g>
</g>
<!-- Node5 -->
<g id="Node000005" class="node">
<title>Node5</title>
<g id="a_Node000005"><a xlink:href="_aliases_8h.html" target="_top" xlink:title=" ">
<polygon fill="white" stroke="#666666" points="56.5,-185 0,-185 0,-165.75 56.5,-165.75 56.5,-185"/>
<text text-anchor="middle" x="28.25" y="-171.5" font-family="Helvetica,sans-Serif" font-size="10.00">Aliases.h</text>
</a>
</g>
</g>
<!-- Node4&#45;&gt;Node5 -->
<g id="edge4_Node000004_Node000005" class="edge">
<title>Node4&#45;&gt;Node5</title>
<g id="a_edge4_Node000004_Node000005"><a xlink:title=" ">
<path fill="none" stroke="#63b8ff" d="M74.17,-220.83C66.41,-213.32 55.04,-202.31 45.55,-193.13"/>
<polygon fill="#63b8ff" stroke="#63b8ff" points="48.24,-190.85 38.62,-186.41 43.37,-195.88 48.24,-190.85"/>
</a>
</g>
</g>
<!-- Node11 -->
<g id="Node000011" class="node">
<title>Node11</title>
<g id="a_Node000011"><a xlink:href="_reflection_8h.html" target="_top" xlink:title=" ">
<polygon fill="white" stroke="#666666" points="143.5,-185 75,-185 75,-165.75 143.5,-165.75 143.5,-185"/>
<text text-anchor="middle" x="109.25" y="-171.5" font-family="Helvetica,sans-Serif" font-size="10.00">Reflection.h</text>
</a>
</g>
</g>
<!-- Node4&#45;&gt;Node11 -->
<g id="edge10_Node000004_Node000011" class="edge">
<title>Node4&#45;&gt;Node11</title>
<g id="a_edge10_Node000004_Node000011"><a xlink:title=" ">
<path fill="none" stroke="#63b8ff" d="M87.54,-220.83C90.87,-214.01 95.61,-204.31 99.81,-195.7"/>
<polygon fill="#63b8ff" stroke="#63b8ff" points="102.96,-197.24 104.2,-186.72 96.67,-194.17 102.96,-197.24"/>
</a>
</g>
</g>
<!-- Node6 -->
<g id="Node000006" class="node">
<title>Node6</title>
<g id="a_Node000006"><a xlink:href="_macros_8h.html" target="_top" xlink:title=" ">
<polygon fill="white" stroke="#666666" points="100.5,-129.75 44,-129.75 44,-110.5 100.5,-110.5 100.5,-129.75"/>
<text text-anchor="middle" x="72.25" y="-116.25" font-family="Helvetica,sans-Serif" font-size="10.00">Macros.h</text>
</a>
</g>
</g>
<!-- Node5&#45;&gt;Node6 -->
<g id="edge5_Node000005_Node000006" class="edge">
<title>Node5&#45;&gt;Node6</title>
<g id="a_edge5_Node000005_Node000006"><a xlink:title=" ">
<path fill="none" stroke="#63b8ff" d="M35.52,-165.58C41.53,-158.3 50.26,-147.73 57.71,-138.73"/>
<polygon fill="#63b8ff" stroke="#63b8ff" points="60.19,-141.21 63.86,-131.28 54.79,-136.76 60.19,-141.21"/>
</a>
</g>
</g>
<!-- Node7 -->
<g id="Node000007" class="node">
<title>Node7</title>
<g id="a_Node000007"><a xlink:href="_types_8h.html" target="_top" xlink:title=" ">
<polygon fill="white" stroke="#666666" points="215.5,-74.5 165,-74.5 165,-55.25 215.5,-55.25 215.5,-74.5"/>
<text text-anchor="middle" x="190.25" y="-61" font-family="Helvetica,sans-Serif" font-size="10.00">Types.h</text>
</a>
</g>
</g>
<!-- Node6&#45;&gt;Node7 -->
<g id="edge6_Node000006_Node000007" class="edge">
<title>Node6&#45;&gt;Node7</title>
<g id="a_edge6_Node000006_Node000007"><a xlink:title=" ">
<path fill="none" stroke="#63b8ff" d="M92.27,-110.09C110.74,-101.75 138.46,-89.25 159.7,-79.66"/>
<polygon fill="#63b8ff" stroke="#63b8ff" points="161.08,-82.88 168.76,-75.58 158.2,-76.5 161.08,-82.88"/>
</a>
</g>
</g>
<!-- Node8 -->
<g id="Node000008" class="node">
<title>Node8</title>
<g id="a_Node000008"><a xlink:title=" ">
<polygon fill="#e0e0e0" stroke="#999999" points="147.75,-19.25 80.75,-19.25 80.75,0 147.75,0 147.75,-19.25"/>
<text text-anchor="middle" x="114.25" y="-5.75" font-family="Helvetica,sans-Serif" font-size="10.00">sys/types.h</text>
</a>
</g>
</g>
<!-- Node7&#45;&gt;Node8 -->
<g id="edge7_Node000007_Node000008" class="edge">
<title>Node7&#45;&gt;Node8</title>
<g id="a_edge7_Node000007_Node000008"><a xlink:title=" ">
<path fill="none" stroke="#63b8ff" d="M177.36,-54.84C166.22,-47.04 149.88,-35.59 136.61,-26.29"/>
<polygon fill="#63b8ff" stroke="#63b8ff" points="138.64,-23.44 128.45,-20.57 134.63,-29.18 138.64,-23.44"/>
</a>
</g>
</g>
<!-- Node9 -->
<g id="Node000009" class="node">
<title>Node9</title>
<g id="a_Node000009"><a xlink:title=" ">
<polygon fill="#e0e0e0" stroke="#999999" points="214.38,-19.25 166.12,-19.25 166.12,0 214.38,0 214.38,-19.25"/>
<text text-anchor="middle" x="190.25" y="-5.75" font-family="Helvetica,sans-Serif" font-size="10.00">stdint.h</text>
</a>
</g>
</g>
<!-- Node7&#45;&gt;Node9 -->
<g id="edge8_Node000007_Node000009" class="edge">
<title>Node7&#45;&gt;Node9</title>
<g id="a_edge8_Node000007_Node000009"><a xlink:title=" ">
<path fill="none" stroke="#63b8ff" d="M190.25,-55.08C190.25,-48.57 190.25,-39.42 190.25,-31.12"/>
<polygon fill="#63b8ff" stroke="#63b8ff" points="193.75,-31.12 190.25,-21.12 186.75,-31.12 193.75,-31.12"/>
</a>
</g>
</g>
<!-- Node10 -->
<g id="Node000010" class="node">
<title>Node10</title>
<g id="a_Node000010"><a xlink:title=" ">
<polygon fill="#e0e0e0" stroke="#999999" points="288.12,-19.25 232.38,-19.25 232.38,0 288.12,0 288.12,-19.25"/>
<text text-anchor="middle" x="260.25" y="-5.75" font-family="Helvetica,sans-Serif" font-size="10.00">stdbool.h</text>
</a>
</g>
</g>
<!-- Node7&#45;&gt;Node10 -->
<g id="edge9_Node000007_Node000010" class="edge">
<title>Node7&#45;&gt;Node10</title>
<g id="a_edge9_Node000007_Node000010"><a xlink:title=" ">
<path fill="none" stroke="#63b8ff" d="M202.12,-54.84C212.34,-47.07 227.32,-35.67 239.51,-26.4"/>
<polygon fill="#63b8ff" stroke="#63b8ff" points="241.51,-29.28 247.35,-20.44 237.27,-23.71 241.51,-29.28"/>
</a>
</g>
</g>
<!-- Node12&#45;&gt;Node7 -->
<g id="edge12_Node000012_Node000007" class="edge">
<title>Node12&#45;&gt;Node7</title>
<g id="a_edge12_Node000012_Node000007"><a xlink:title=" ">
<path fill="none" stroke="#63b8ff" d="M172.27,-220.82C175.21,-195.5 183.74,-122 187.9,-86.09"/>
<polygon fill="#63b8ff" stroke="#63b8ff" points="191.37,-86.56 189.05,-76.23 184.42,-85.76 191.37,-86.56"/>
</a>
</g>
</g>
<!-- Node13 -->
<g id="Node000013" class="node">
<title>Node13</title>
<g id="a_Node000013"><a xlink:title=" ">
<polygon fill="#e0e0e0" stroke="#999999" points="257.25,-185 199.25,-185 199.25,-165.75 257.25,-165.75 257.25,-185"/>
<text text-anchor="middle" x="228.25" y="-171.5" font-family="Helvetica,sans-Serif" font-size="10.00">exception</text>
</a>
</g>
</g>
<!-- Node12&#45;&gt;Node13 -->
<g id="edge13_Node000012_Node000013" class="edge">
<title>Node12&#45;&gt;Node13</title>
<g id="a_edge13_Node000012_Node000013"><a xlink:title=" ">
<path fill="none" stroke="#63b8ff" d="M180.92,-220.59C188.99,-213.05 200.72,-202.1 210.47,-192.98"/>
<polygon fill="#63b8ff" stroke="#63b8ff" points="212.7,-195.69 217.62,-186.31 207.92,-190.58 212.7,-195.69"/>
</a>
</g>
</g>
<!-- Node15 -->
<g id="Node000015" class="node">
<title>Node15</title>
<g id="a_Node000015"><a xlink:title=" ">
<polygon fill="#e0e0e0" stroke="#999999" points="277,-240.25 223.5,-240.25 223.5,-221 277,-221 277,-240.25"/>
<text text-anchor="middle" x="250.25" y="-226.75" font-family="Helvetica,sans-Serif" font-size="10.00">iostream</text>
</a>
</g>
</g>
<!-- Node14&#45;&gt;Node15 -->
<g id="edge15_Node000014_Node000015" class="edge">
<title>Node14&#45;&gt;Node15</title>
<g id="a_edge15_Node000014_Node000015"><a xlink:title=" ">
<path fill="none" stroke="#63b8ff" d="M247.75,-276.08C248.12,-269.49 248.64,-260.21 249.11,-251.82"/>
<polygon fill="#63b8ff" stroke="#63b8ff" points="252.59,-252.3 249.66,-242.12 245.6,-251.91 252.59,-252.3"/>
</a>
</g>
</g>
<!-- Node16&#45;&gt;Node7 -->
<g id="edge17_Node000016_Node000007" class="edge">
<title>Node16&#45;&gt;Node7</title>
<g id="a_edge17_Node000016_Node000007"><a xlink:title=" ">
<path fill="none" stroke="#63b8ff" d="M286.51,-165.27C268.73,-157.79 245.03,-145.82 228.25,-129.75 215,-117.06 204.74,-98.76 198.25,-85"/>
<polygon fill="#63b8ff" stroke="#63b8ff" points="201.56,-83.83 194.3,-76.11 195.16,-86.67 201.56,-83.83"/>
</a>
</g>
</g>
<!-- Node17 -->
<g id="Node000017" class="node">
<title>Node17</title>
<g id="a_Node000017"><a xlink:href="_checksum_8h.html" target="_top" xlink:title=" ">
<polygon fill="white" stroke="#666666" points="309,-129.75 237.5,-129.75 237.5,-110.5 309,-110.5 309,-129.75"/>
<text text-anchor="middle" x="273.25" y="-116.25" font-family="Helvetica,sans-Serif" font-size="10.00">Checksum.h</text>
</a>
</g>
</g>
<!-- Node16&#45;&gt;Node17 -->
<g id="edge18_Node000016_Node000017" class="edge">
<title>Node16&#45;&gt;Node17</title>
<g id="a_edge18_Node000016_Node000017"><a xlink:title=" ">
<path fill="none" stroke="#63b8ff" d="M304.98,-165.58C299.89,-158.46 292.55,-148.18 286.22,-139.3"/>
<polygon fill="#63b8ff" stroke="#63b8ff" points="289.2,-137.45 280.54,-131.34 283.5,-141.51 289.2,-137.45"/>
</a>
</g>
</g>
<!-- Node18 -->
<g id="Node000018" class="node">
<title>Node18</title>
<g id="a_Node000018"><a xlink:title=" ">
<polygon fill="#e0e0e0" stroke="#999999" points="355.65,-129.75 326.85,-129.75 326.85,-110.5 355.65,-110.5 355.65,-129.75"/>
<text text-anchor="middle" x="341.25" y="-116.25" font-family="Helvetica,sans-Serif" font-size="10.00">bit</text>
</a>
</g>
</g>
<!-- Node16&#45;&gt;Node18 -->
<g id="edge20_Node000016_Node000018" class="edge">
<title>Node16&#45;&gt;Node18</title>
<g id="a_edge20_Node000016_Node000018"><a xlink:title=" ">
<path fill="none" stroke="#63b8ff" d="M316.2,-165.58C320.13,-158.61 325.76,-148.62 330.69,-139.87"/>
<polygon fill="#63b8ff" stroke="#63b8ff" points="333.59,-141.86 335.45,-131.43 327.49,-138.42 333.59,-141.86"/>
</a>
</g>
</g>
<!-- Node17&#45;&gt;Node7 -->
<g id="edge19_Node000017_Node000007" class="edge">
<title>Node17&#45;&gt;Node7</title>
<g id="a_edge19_Node000017_Node000007"><a xlink:title=" ">
<path fill="none" stroke="#63b8ff" d="M259.17,-110.09C246.77,-102.14 228.46,-90.39 213.82,-81"/>
<polygon fill="#63b8ff" stroke="#63b8ff" points="215.98,-78.22 205.67,-75.77 212.2,-84.12 215.98,-78.22"/>
</a>
</g>
</g>
</g>
</svg>
