<?xml version="1.0" encoding="UTF-8" standalone="no"?>
<!DOCTYPE svg PUBLIC "-//W3C//DTD SVG 1.1//EN"
 "http://www.w3.org/Graphics/SVG/1.1/DTD/svg11.dtd">
<!-- Generated by graphviz version 10.0.1 (20240210.2158)
 -->
<!-- Title: /Users/hoff/Retro/virtualc64/Emulator/Peripherals/Paddle/PaddleTypes.h Pages: 1 -->
<svg width="330pt" height="338pt"
 viewBox="0.00 0.00 329.62 338.25" xmlns="http://www.w3.org/2000/svg" xmlns:xlink="http://www.w3.org/1999/xlink">
<g id="graph0" class="graph" transform="scale(1 1) rotate(0) translate(4 334.25)">
<title>/Users/hoff/Retro/virtualc64/Emulator/Peripherals/Paddle/PaddleTypes.h</title>
<!-- Node1 -->
<g id="Node000001" class="node">
<title>Node1</title>
<g id="a_Node000001"><a xlink:title=" ">
<polygon fill="#999999" stroke="#666666" points="241.38,-330.25 98.62,-330.25 98.62,-288.5 241.38,-288.5 241.38,-330.25"/>
<text text-anchor="start" x="106.62" y="-316.75" font-family="Helvetica,sans-Serif" font-size="10.00">/Users/hoff/Retro/virtualc64</text>
<text text-anchor="start" x="106.62" y="-305.5" font-family="Helvetica,sans-Serif" font-size="10.00">/Emulator/Peripherals/Paddle</text>
<text text-anchor="middle" x="170" y="-294.25" font-family="Helvetica,sans-Serif" font-size="10.00">/PaddleTypes.h</text>
</a>
</g>
</g>
<!-- Node2 -->
<g id="Node000002" class="node">
<title>Node2</title>
<g id="a_Node000002"><a xlink:href="_paddle_8h_source.html" target="_top" xlink:title=" ">
<polygon fill="white" stroke="#666666" points="161.38,-252.5 18.62,-252.5 18.62,-210.75 161.38,-210.75 161.38,-252.5"/>
<text text-anchor="start" x="26.62" y="-239" font-family="Helvetica,sans-Serif" font-size="10.00">/Users/hoff/Retro/virtualc64</text>
<text text-anchor="start" x="26.62" y="-227.75" font-family="Helvetica,sans-Serif" font-size="10.00">/Emulator/Peripherals/Paddle</text>
<text text-anchor="middle" x="90" y="-216.5" font-family="Helvetica,sans-Serif" font-size="10.00">/Paddle.h</text>
</a>
</g>
</g>
<!-- Node1&#45;&gt;Node2 -->
<g id="edge1_Node000001_Node000002" class="edge">
<title>Node1&#45;&gt;Node2</title>
<g id="a_edge1_Node000001_Node000002"><a xlink:title=" ">
<path fill="none" stroke="#63b8ff" d="M140.42,-280.36C130.83,-271.28 120.38,-261.39 111.5,-252.98"/>
<polygon fill="#63b8ff" stroke="#63b8ff" points="137.79,-282.7 147.46,-287.03 142.61,-277.62 137.79,-282.7"/>
</a>
</g>
</g>
<!-- Node6 -->
<g id="Node000006" class="node">
<title>Node6</title>
<g id="a_Node000006"><a xlink:href="_virtual_c64_types_8h.html" target="_top" xlink:title=" ">
<polygon fill="white" stroke="#666666" points="321.62,-246.88 180.38,-246.88 180.38,-216.38 321.62,-216.38 321.62,-246.88"/>
<text text-anchor="start" x="188.38" y="-233.38" font-family="Helvetica,sans-Serif" font-size="10.00">/Users/hoff/Retro/virtualc64</text>
<text text-anchor="middle" x="251" y="-222.12" font-family="Helvetica,sans-Serif" font-size="10.00">/Emulator/VirtualC64Types.h</text>
</a>
</g>
</g>
<!-- Node1&#45;&gt;Node6 -->
<g id="edge5_Node000001_Node000006" class="edge">
<title>Node1&#45;&gt;Node6</title>
<g id="a_edge5_Node000001_Node000006"><a xlink:title=" ">
<path fill="none" stroke="#63b8ff" d="M199.79,-280.51C211.87,-269.22 225.32,-256.64 235.4,-247.21"/>
<polygon fill="#63b8ff" stroke="#63b8ff" points="197.73,-277.65 192.81,-287.04 202.51,-282.77 197.73,-277.65"/>
</a>
</g>
</g>
<!-- Node3 -->
<g id="Node000003" class="node">
<title>Node3</title>
<g id="a_Node000003"><a xlink:href="_control_port_8h_source.html" target="_top" xlink:title=" ">
<polygon fill="white" stroke="#666666" points="160.38,-174.75 17.62,-174.75 17.62,-133 160.38,-133 160.38,-174.75"/>
<text text-anchor="start" x="25.62" y="-161.25" font-family="Helvetica,sans-Serif" font-size="10.00">/Users/hoff/Retro/virtualc64</text>
<text text-anchor="start" x="25.62" y="-150" font-family="Helvetica,sans-Serif" font-size="10.00">/Emulator/Components/Ports</text>
<text text-anchor="middle" x="89" y="-138.75" font-family="Helvetica,sans-Serif" font-size="10.00">/ControlPort.h</text>
</a>
</g>
</g>
<!-- Node2&#45;&gt;Node3 -->
<g id="edge2_Node000002_Node000003" class="edge">
<title>Node2&#45;&gt;Node3</title>
<g id="a_edge2_Node000002_Node000003"><a xlink:title=" ">
<path fill="none" stroke="#63b8ff" d="M89.58,-199C89.48,-190.96 89.37,-182.54 89.27,-175.23"/>
<polygon fill="#63b8ff" stroke="#63b8ff" points="86.08,-198.86 89.71,-208.81 93.08,-198.77 86.08,-198.86"/>
</a>
</g>
</g>
<!-- Node4 -->
<g id="Node000004" class="node">
<title>Node4</title>
<g id="a_Node000004"><a xlink:href="_c64_8h_source.html" target="_top" xlink:title=" ">
<polygon fill="white" stroke="#666666" points="159.88,-97 14.12,-97 14.12,-66.5 159.88,-66.5 159.88,-97"/>
<text text-anchor="start" x="22.12" y="-83.5" font-family="Helvetica,sans-Serif" font-size="10.00">/Users/hoff/Retro/virtualc64</text>
<text text-anchor="middle" x="87" y="-72.25" font-family="Helvetica,sans-Serif" font-size="10.00">/Emulator/Components/C64.h</text>
</a>
</g>
</g>
<!-- Node3&#45;&gt;Node4 -->
<g id="edge3_Node000003_Node000004" class="edge">
<title>Node3&#45;&gt;Node4</title>
<g id="a_edge3_Node000003_Node000004"><a xlink:title=" ">
<path fill="none" stroke="#63b8ff" d="M88.09,-121.13C87.86,-112.77 87.61,-104.15 87.41,-97.2"/>
<polygon fill="#63b8ff" stroke="#63b8ff" points="84.59,-121.18 88.38,-131.08 91.59,-120.98 84.59,-121.18"/>
</a>
</g>
</g>
<!-- Node5 -->
<g id="Node000005" class="node">
<title>Node5</title>
<g id="a_Node000005"><a xlink:href="_emulator_8h_source.html" target="_top" xlink:title=" ">
<polygon fill="white" stroke="#666666" points="166,-30.5 0,-30.5 0,0 166,0 166,-30.5"/>
<text text-anchor="start" x="8" y="-17" font-family="Helvetica,sans-Serif" font-size="10.00">/Users/hoff/Retro/virtualc64</text>
<text text-anchor="middle" x="83" y="-5.75" font-family="Helvetica,sans-Serif" font-size="10.00">/Emulator/Components/Emulator.h</text>
</a>
</g>
</g>
<!-- Node4&#45;&gt;Node5 -->
<g id="edge4_Node000004_Node000005" class="edge">
<title>Node4&#45;&gt;Node5</title>
<g id="a_edge4_Node000004_Node000005"><a xlink:title=" ">
<path fill="none" stroke="#63b8ff" d="M85.39,-54.81C84.88,-46.64 84.34,-37.91 83.9,-30.83"/>
<polygon fill="#63b8ff" stroke="#63b8ff" points="81.89,-54.84 86,-64.6 88.87,-54.41 81.89,-54.84"/>
</a>
</g>
</g>
<!-- Node7 -->
<g id="Node000007" class="node">
<title>Node7</title>
<g id="a_Node000007"><a xlink:href="_virtual_c64_8h.html" target="_top" xlink:title=" ">
<polygon fill="white" stroke="#666666" points="319.38,-169.12 182.62,-169.12 182.62,-138.62 319.38,-138.62 319.38,-169.12"/>
<text text-anchor="start" x="190.62" y="-155.62" font-family="Helvetica,sans-Serif" font-size="10.00">/Users/hoff/Retro/virtualc64</text>
<text text-anchor="middle" x="251" y="-144.38" font-family="Helvetica,sans-Serif" font-size="10.00">/Emulator/VirtualC64.h</text>
</a>
</g>
</g>
<!-- Node6&#45;&gt;Node7 -->
<g id="edge6_Node000006_Node000007" class="edge">
<title>Node6&#45;&gt;Node7</title>
<g id="a_edge6_Node000006_Node000007"><a xlink:title=" ">
<path fill="none" stroke="#63b8ff" d="M251,-204.6C251,-192.84 251,-179.38 251,-169.44"/>
<polygon fill="#63b8ff" stroke="#63b8ff" points="247.5,-204.51 251,-214.51 254.5,-204.51 247.5,-204.51"/>
</a>
</g>
</g>
<!-- Node8 -->
<g id="Node000008" class="node">
<title>Node8</title>
<g id="a_Node000008"><a xlink:href="_headless_8h_source.html" target="_top" xlink:title=" ">
<polygon fill="white" stroke="#666666" points="319.38,-97 182.62,-97 182.62,-66.5 319.38,-66.5 319.38,-97"/>
<text text-anchor="start" x="190.62" y="-83.5" font-family="Helvetica,sans-Serif" font-size="10.00">/Users/hoff/Retro/virtualc64</text>
<text text-anchor="middle" x="251" y="-72.25" font-family="Helvetica,sans-Serif" font-size="10.00">/Emulator/Headless.h</text>
</a>
</g>
</g>
<!-- Node7&#45;&gt;Node8 -->
<g id="edge7_Node000007_Node000008" class="edge">
<title>Node7&#45;&gt;Node8</title>
<g id="a_edge7_Node000007_Node000008"><a xlink:title=" ">
<path fill="none" stroke="#63b8ff" d="M251,-126.9C251,-116.89 251,-105.81 251,-97.26"/>
<polygon fill="#63b8ff" stroke="#63b8ff" points="247.5,-126.83 251,-136.83 254.5,-126.83 247.5,-126.83"/>
</a>
</g>
</g>
<!-- Node9 -->
<g id="Node000009" class="node">
<title>Node9</title>
<g id="a_Node000009"><a xlink:href="_headless_8cpp.html" target="_top" xlink:title=" ">
<polygon fill="white" stroke="#666666" points="320.38,-30.5 183.62,-30.5 183.62,0 320.38,0 320.38,-30.5"/>
<text text-anchor="start" x="191.62" y="-17" font-family="Helvetica,sans-Serif" font-size="10.00">/Users/hoff/Retro/virtualc64</text>
<text text-anchor="middle" x="252" y="-5.75" font-family="Helvetica,sans-Serif" font-size="10.00">/Emulator/Headless.cpp</text>
</a>
</g>
</g>
<!-- Node8&#45;&gt;Node9 -->
<g id="edge8_Node000008_Node000009" class="edge">
<title>Node8&#45;&gt;Node9</title>
<g id="a_edge8_Node000008_Node000009"><a xlink:title=" ">
<path fill="none" stroke="#63b8ff" d="M251.4,-54.81C251.53,-46.64 251.66,-37.91 251.77,-30.83"/>
<polygon fill="#63b8ff" stroke="#63b8ff" points="247.91,-54.55 251.25,-64.6 254.91,-54.66 247.91,-54.55"/>
</a>
</g>
</g>
</g>
</svg>
