<?xml version="1.0" encoding="UTF-8" standalone="no"?>
<!DOCTYPE svg PUBLIC "-//W3C//DTD SVG 1.1//EN"
 "http://www.w3.org/Graphics/SVG/1.1/DTD/svg11.dtd">
<!-- Generated by graphviz version 10.0.1 (20240210.2158)
 -->
<!-- Title: /Users/hoff/Retro/virtualc64/Emulator/Peripherals/Drive/ParCableTypes.h Pages: 1 -->
<svg width="1481pt" height="572pt"
 viewBox="0.00 0.00 1480.62 571.50" xmlns="http://www.w3.org/2000/svg" xmlns:xlink="http://www.w3.org/1999/xlink">
<g id="graph0" class="graph" transform="scale(1 1) rotate(0) translate(4 567.5)">
<title>/Users/hoff/Retro/virtualc64/Emulator/Peripherals/Drive/ParCableTypes.h</title>
<!-- Node1 -->
<g id="Node000001" class="node">
<title>Node1</title>
<g id="a_Node000001"><a xlink:title=" ">
<polygon fill="#999999" stroke="#666666" points="648.08,-563.5 511.33,-563.5 511.33,-521.75 648.08,-521.75 648.08,-563.5"/>
<text text-anchor="start" x="519.33" y="-550" font-family="Helvetica,sans-Serif" font-size="10.00">/Users/hoff/Retro/virtualc64</text>
<text text-anchor="start" x="519.33" y="-538.75" font-family="Helvetica,sans-Serif" font-size="10.00">/Emulator/Peripherals/Drive</text>
<text text-anchor="middle" x="579.7" y="-527.5" font-family="Helvetica,sans-Serif" font-size="10.00">/ParCableTypes.h</text>
</a>
</g>
</g>
<!-- Node2 -->
<g id="Node000002" class="node">
<title>Node2</title>
<g id="a_Node000002"><a xlink:href="_drive_types_8h.html" target="_top" xlink:title=" ">
<polygon fill="white" stroke="#666666" points="648.08,-485.75 511.33,-485.75 511.33,-444 648.08,-444 648.08,-485.75"/>
<text text-anchor="start" x="519.33" y="-472.25" font-family="Helvetica,sans-Serif" font-size="10.00">/Users/hoff/Retro/virtualc64</text>
<text text-anchor="start" x="519.33" y="-461" font-family="Helvetica,sans-Serif" font-size="10.00">/Emulator/Peripherals/Drive</text>
<text text-anchor="middle" x="579.7" y="-449.75" font-family="Helvetica,sans-Serif" font-size="10.00">/DriveTypes.h</text>
</a>
</g>
</g>
<!-- Node1&#45;&gt;Node2 -->
<g id="edge1_Node000001_Node000002" class="edge">
<title>Node1&#45;&gt;Node2</title>
<g id="a_edge1_Node000001_Node000002"><a xlink:title=" ">
<path fill="none" stroke="#63b8ff" d="M579.7,-510C579.7,-501.96 579.7,-493.54 579.7,-486.23"/>
<polygon fill="#63b8ff" stroke="#63b8ff" points="576.2,-509.81 579.7,-519.81 583.2,-509.81 576.2,-509.81"/>
</a>
</g>
</g>
<!-- Node12 -->
<g id="Node000012" class="node">
<title>Node12</title>
<g id="a_Node000012"><a xlink:href="_virtual_c64_types_8h.html" target="_top" xlink:title=" ">
<polygon fill="white" stroke="#666666" points="173.33,-246.88 32.08,-246.88 32.08,-216.38 173.33,-216.38 173.33,-246.88"/>
<text text-anchor="start" x="40.08" y="-233.38" font-family="Helvetica,sans-Serif" font-size="10.00">/Users/hoff/Retro/virtualc64</text>
<text text-anchor="middle" x="102.7" y="-222.12" font-family="Helvetica,sans-Serif" font-size="10.00">/Emulator/VirtualC64Types.h</text>
</a>
</g>
</g>
<!-- Node1&#45;&gt;Node12 -->
<g id="edge41_Node000001_Node000012" class="edge">
<title>Node1&#45;&gt;Node12</title>
<g id="a_edge41_Node000001_Node000012"><a xlink:title=" ">
<path fill="none" stroke="#63b8ff" d="M499.74,-525.74C353.45,-494.67 53.4,-420.92 6.7,-330.25 -1.79,-313.75 -2.55,-304.59 6.7,-288.5 17.76,-269.27 38.25,-256.05 57.48,-247.31"/>
<polygon fill="#63b8ff" stroke="#63b8ff" points="498.87,-529.13 509.37,-527.77 500.31,-522.28 498.87,-529.13"/>
</a>
</g>
</g>
<!-- Node22 -->
<g id="Node000022" class="node">
<title>Node22</title>
<g id="a_Node000022"><a xlink:href="_par_cable_8h_source.html" target="_top" xlink:title=" ">
<polygon fill="white" stroke="#666666" points="1004.08,-408 867.33,-408 867.33,-366.25 1004.08,-366.25 1004.08,-408"/>
<text text-anchor="start" x="875.33" y="-394.5" font-family="Helvetica,sans-Serif" font-size="10.00">/Users/hoff/Retro/virtualc64</text>
<text text-anchor="start" x="875.33" y="-383.25" font-family="Helvetica,sans-Serif" font-size="10.00">/Emulator/Peripherals/Drive</text>
<text text-anchor="middle" x="935.7" y="-372" font-family="Helvetica,sans-Serif" font-size="10.00">/ParCable.h</text>
</a>
</g>
</g>
<!-- Node1&#45;&gt;Node22 -->
<g id="edge40_Node000001_Node000022" class="edge">
<title>Node1&#45;&gt;Node22</title>
<g id="a_edge40_Node000001_Node000022"><a xlink:title=" ">
<path fill="none" stroke="#63b8ff" d="M636.99,-516.92C706.91,-486.78 823.8,-436.37 888.69,-408.4"/>
<polygon fill="#63b8ff" stroke="#63b8ff" points="635.8,-513.63 628,-520.8 638.57,-520.05 635.8,-513.63"/>
</a>
</g>
</g>
<!-- Node3 -->
<g id="Node000003" class="node">
<title>Node3</title>
<g id="a_Node000003"><a xlink:href="_f_s_types_8h.html" target="_top" xlink:title=" ">
<polygon fill="white" stroke="#666666" points="811.7,-324.62 645.7,-324.62 645.7,-294.12 811.7,-294.12 811.7,-324.62"/>
<text text-anchor="start" x="653.7" y="-311.12" font-family="Helvetica,sans-Serif" font-size="10.00">/Users/hoff/Retro/virtualc64</text>
<text text-anchor="middle" x="728.7" y="-299.88" font-family="Helvetica,sans-Serif" font-size="10.00">/Emulator/FileSystems/FSTypes.h</text>
</a>
</g>
</g>
<!-- Node2&#45;&gt;Node3 -->
<g id="edge2_Node000002_Node000003" class="edge">
<title>Node2&#45;&gt;Node3</title>
<g id="a_edge2_Node000002_Node000003"><a xlink:title=" ">
<path fill="none" stroke="#63b8ff" d="M606.8,-435.96C638.52,-403.28 689.88,-350.37 714.56,-324.94"/>
<polygon fill="#63b8ff" stroke="#63b8ff" points="604.69,-433.11 600.24,-442.72 609.71,-437.98 604.69,-433.11"/>
</a>
</g>
</g>
<!-- Node11 -->
<g id="Node000011" class="node">
<title>Node11</title>
<g id="a_Node000011"><a xlink:href="_drive_8h_source.html" target="_top" xlink:title=" ">
<polygon fill="white" stroke="#666666" points="610.08,-174.75 473.33,-174.75 473.33,-133 610.08,-133 610.08,-174.75"/>
<text text-anchor="start" x="481.33" y="-161.25" font-family="Helvetica,sans-Serif" font-size="10.00">/Users/hoff/Retro/virtualc64</text>
<text text-anchor="start" x="481.33" y="-150" font-family="Helvetica,sans-Serif" font-size="10.00">/Emulator/Peripherals/Drive</text>
<text text-anchor="middle" x="541.7" y="-138.75" font-family="Helvetica,sans-Serif" font-size="10.00">/Drive.h</text>
</a>
</g>
</g>
<!-- Node2&#45;&gt;Node11 -->
<g id="edge33_Node000002_Node000011" class="edge">
<title>Node2&#45;&gt;Node11</title>
<g id="a_edge33_Node000002_Node000011"><a xlink:title=" ">
<path fill="none" stroke="#63b8ff" d="M575.83,-432.37C568.04,-369.05 550.68,-227.91 544.2,-175.22"/>
<polygon fill="#63b8ff" stroke="#63b8ff" points="572.33,-432.6 577.02,-442.1 579.28,-431.75 572.33,-432.6"/>
</a>
</g>
</g>
<!-- Node2&#45;&gt;Node12 -->
<g id="edge39_Node000002_Node000012" class="edge">
<title>Node2&#45;&gt;Node12</title>
<g id="a_edge39_Node000002_Node000012"><a xlink:title=" ">
<path fill="none" stroke="#63b8ff" d="M499.87,-452.62C415.91,-437.31 283.75,-403.01 193.7,-330.25 175.3,-315.38 176.59,-306.02 160.7,-288.5 147.37,-273.79 130.98,-258.21 119.03,-247.25"/>
<polygon fill="#63b8ff" stroke="#63b8ff" points="499.18,-456.05 509.64,-454.34 500.4,-449.16 499.18,-456.05"/>
</a>
</g>
</g>
<!-- Node16 -->
<g id="Node000016" class="node">
<title>Node16</title>
<g id="a_Node000016"><a xlink:href="_d64_file_8h_source.html" target="_top" xlink:title=" ">
<polygon fill="white" stroke="#666666" points="1443.08,-246.88 1306.33,-246.88 1306.33,-216.38 1443.08,-216.38 1443.08,-246.88"/>
<text text-anchor="start" x="1314.33" y="-233.38" font-family="Helvetica,sans-Serif" font-size="10.00">/Users/hoff/Retro/virtualc64</text>
<text text-anchor="middle" x="1374.7" y="-222.12" font-family="Helvetica,sans-Serif" font-size="10.00">/Emulator/Media/D64File.h</text>
</a>
</g>
</g>
<!-- Node2&#45;&gt;Node16 -->
<g id="edge18_Node000002_Node000016" class="edge">
<title>Node2&#45;&gt;Node16</title>
<g id="a_edge18_Node000002_Node000016"><a xlink:title=" ">
<path fill="none" stroke="#63b8ff" d="M644.05,-439.65C700.27,-418.89 784.32,-388.85 858.7,-366.25 881,-359.47 1187.88,-280.58 1317.53,-247.29"/>
<polygon fill="#63b8ff" stroke="#63b8ff" points="643.11,-436.26 634.95,-443.02 645.54,-442.83 643.11,-436.26"/>
</a>
</g>
</g>
<!-- Node17 -->
<g id="Node000017" class="node">
<title>Node17</title>
<g id="a_Node000017"><a xlink:href="_g64_file_8h_source.html" target="_top" xlink:title=" ">
<polygon fill="white" stroke="#666666" points="152.08,-324.62 15.33,-324.62 15.33,-294.12 152.08,-294.12 152.08,-324.62"/>
<text text-anchor="start" x="23.33" y="-311.12" font-family="Helvetica,sans-Serif" font-size="10.00">/Users/hoff/Retro/virtualc64</text>
<text text-anchor="middle" x="83.7" y="-299.88" font-family="Helvetica,sans-Serif" font-size="10.00">/Emulator/Media/G64File.h</text>
</a>
</g>
</g>
<!-- Node2&#45;&gt;Node17 -->
<g id="edge21_Node000002_Node000017" class="edge">
<title>Node2&#45;&gt;Node17</title>
<g id="a_edge21_Node000002_Node000017"><a xlink:title=" ">
<path fill="none" stroke="#63b8ff" d="M499.47,-459.9C395.66,-453.59 221.51,-438.72 165.7,-408 130.22,-388.47 103.56,-346.97 91.25,-324.9"/>
<polygon fill="#63b8ff" stroke="#63b8ff" points="499.14,-463.38 509.33,-460.48 499.55,-456.39 499.14,-463.38"/>
</a>
</g>
</g>
<!-- Node18 -->
<g id="Node000018" class="node">
<title>Node18</title>
<g id="a_Node000018"><a xlink:href="_disk_types_8h_source.html" target="_top" xlink:title=" ">
<polygon fill="white" stroke="#666666" points="497.08,-408 360.33,-408 360.33,-366.25 497.08,-366.25 497.08,-408"/>
<text text-anchor="start" x="368.33" y="-394.5" font-family="Helvetica,sans-Serif" font-size="10.00">/Users/hoff/Retro/virtualc64</text>
<text text-anchor="start" x="368.33" y="-383.25" font-family="Helvetica,sans-Serif" font-size="10.00">/Emulator/Peripherals/Drive</text>
<text text-anchor="middle" x="428.7" y="-372" font-family="Helvetica,sans-Serif" font-size="10.00">/DiskTypes.h</text>
</a>
</g>
</g>
<!-- Node2&#45;&gt;Node18 -->
<g id="edge23_Node000002_Node000018" class="edge">
<title>Node2&#45;&gt;Node18</title>
<g id="a_edge23_Node000002_Node000018"><a xlink:title=" ">
<path fill="none" stroke="#63b8ff" d="M529.03,-438.45C509.58,-428.7 487.66,-417.7 469.28,-408.48"/>
<polygon fill="#63b8ff" stroke="#63b8ff" points="527.38,-441.54 537.88,-442.9 530.51,-435.28 527.38,-441.54"/>
</a>
</g>
</g>
<!-- Node21 -->
<g id="Node000021" class="node">
<title>Node21</title>
<g id="a_Node000021"><a xlink:href="_drive_memory_8h_source.html" target="_top" xlink:title=" ">
<polygon fill="white" stroke="#666666" points="706.08,-252.5 569.33,-252.5 569.33,-210.75 706.08,-210.75 706.08,-252.5"/>
<text text-anchor="start" x="577.33" y="-239" font-family="Helvetica,sans-Serif" font-size="10.00">/Users/hoff/Retro/virtualc64</text>
<text text-anchor="start" x="577.33" y="-227.75" font-family="Helvetica,sans-Serif" font-size="10.00">/Emulator/Peripherals/Drive</text>
<text text-anchor="middle" x="637.7" y="-216.5" font-family="Helvetica,sans-Serif" font-size="10.00">/DriveMemory.h</text>
</a>
</g>
</g>
<!-- Node2&#45;&gt;Node21 -->
<g id="edge34_Node000002_Node000021" class="edge">
<title>Node2&#45;&gt;Node21</title>
<g id="a_edge34_Node000002_Node000021"><a xlink:title=" ">
<path fill="none" stroke="#63b8ff" d="M587.5,-432.78C599.58,-384.63 622.47,-293.36 632.63,-252.86"/>
<polygon fill="#63b8ff" stroke="#63b8ff" points="584.15,-431.74 585.12,-442.29 590.94,-433.44 584.15,-431.74"/>
</a>
</g>
</g>
<!-- Node2&#45;&gt;Node22 -->
<g id="edge37_Node000002_Node000022" class="edge">
<title>Node2&#45;&gt;Node22</title>
<g id="a_edge37_Node000002_Node000022"><a xlink:title=" ">
<path fill="none" stroke="#63b8ff" d="M659.57,-448.39C714.31,-437.58 788.54,-422.54 853.7,-408 857.99,-407.04 862.4,-406.04 866.84,-405.01"/>
<polygon fill="#63b8ff" stroke="#63b8ff" points="659.16,-444.9 650.02,-450.27 660.51,-451.77 659.16,-444.9"/>
</a>
</g>
</g>
<!-- Node4 -->
<g id="Node000004" class="node">
<title>Node4</title>
<g id="a_Node000004"><a xlink:href="_f_s_block_8h_source.html" target="_top" xlink:title=" ">
<polygon fill="white" stroke="#666666" points="1287.95,-246.88 1123.45,-246.88 1123.45,-216.38 1287.95,-216.38 1287.95,-246.88"/>
<text text-anchor="start" x="1131.45" y="-233.38" font-family="Helvetica,sans-Serif" font-size="10.00">/Users/hoff/Retro/virtualc64</text>
<text text-anchor="middle" x="1205.7" y="-222.12" font-family="Helvetica,sans-Serif" font-size="10.00">/Emulator/FileSystems/FSBlock.h</text>
</a>
</g>
</g>
<!-- Node3&#45;&gt;Node4 -->
<g id="edge3_Node000003_Node000004" class="edge">
<title>Node3&#45;&gt;Node4</title>
<g id="a_edge3_Node000003_Node000004"><a xlink:title=" ">
<path fill="none" stroke="#63b8ff" d="M808.43,-291.52C814.26,-290.45 820.07,-289.43 825.7,-288.5 953.42,-267.49 987.12,-274.33 1114.7,-252.5 1123.47,-251 1132.67,-249.23 1141.71,-247.37"/>
<polygon fill="#63b8ff" stroke="#63b8ff" points="807.87,-288.07 798.69,-293.36 809.17,-294.94 807.87,-288.07"/>
</a>
</g>
</g>
<!-- Node8 -->
<g id="Node000008" class="node">
<title>Node8</title>
<g id="a_Node000008"><a xlink:href="_f_s_descriptors_8h_source.html" target="_top" xlink:title=" ">
<polygon fill="white" stroke="#666666" points="913.7,-246.88 723.7,-246.88 723.7,-216.38 913.7,-216.38 913.7,-246.88"/>
<text text-anchor="start" x="731.7" y="-233.38" font-family="Helvetica,sans-Serif" font-size="10.00">/Users/hoff/Retro/virtualc64</text>
<text text-anchor="middle" x="818.7" y="-222.12" font-family="Helvetica,sans-Serif" font-size="10.00">/Emulator/FileSystems/FSDescriptors.h</text>
</a>
</g>
</g>
<!-- Node3&#45;&gt;Node8 -->
<g id="edge7_Node000003_Node000008" class="edge">
<title>Node3&#45;&gt;Node8</title>
<g id="a_edge7_Node000003_Node000008"><a xlink:title=" ">
<path fill="none" stroke="#63b8ff" d="M754.44,-286.71C769.5,-274.04 788.09,-258.39 801.4,-247.19"/>
<polygon fill="#63b8ff" stroke="#63b8ff" points="752.61,-283.68 747.21,-292.8 757.12,-289.03 752.61,-283.68"/>
</a>
</g>
</g>
<!-- Node9 -->
<g id="Node000009" class="node">
<title>Node9</title>
<g id="a_Node000009"><a xlink:href="_f_s_dir_entry_8h_source.html" target="_top" xlink:title=" ">
<polygon fill="white" stroke="#666666" points="1105.83,-246.88 931.58,-246.88 931.58,-216.38 1105.83,-216.38 1105.83,-246.88"/>
<text text-anchor="start" x="939.58" y="-233.38" font-family="Helvetica,sans-Serif" font-size="10.00">/Users/hoff/Retro/virtualc64</text>
<text text-anchor="middle" x="1018.7" y="-222.12" font-family="Helvetica,sans-Serif" font-size="10.00">/Emulator/FileSystems/FSDirEntry.h</text>
</a>
</g>
</g>
<!-- Node3&#45;&gt;Node9 -->
<g id="edge9_Node000003_Node000009" class="edge">
<title>Node3&#45;&gt;Node9</title>
<g id="a_edge9_Node000003_Node000009"><a xlink:title=" ">
<path fill="none" stroke="#63b8ff" d="M795.79,-290.85C846.36,-277.64 914.92,-259.73 962.6,-247.28"/>
<polygon fill="#63b8ff" stroke="#63b8ff" points="795.22,-287.38 786.42,-293.3 796.98,-294.16 795.22,-287.38"/>
</a>
</g>
</g>
<!-- Node10 -->
<g id="Node000010" class="node">
<title>Node10</title>
<g id="a_Node000010"><a xlink:href="_disk_8h_source.html" target="_top" xlink:title=" ">
<polygon fill="white" stroke="#666666" points="513.45,-246.88 345.95,-246.88 345.95,-216.38 513.45,-216.38 513.45,-246.88"/>
<text text-anchor="start" x="353.95" y="-233.38" font-family="Helvetica,sans-Serif" font-size="10.00">/Users/hoff/Retro/virtualc64</text>
<text text-anchor="middle" x="429.7" y="-222.12" font-family="Helvetica,sans-Serif" font-size="10.00">/Emulator/Peripherals/Drive/Disk.h</text>
</a>
</g>
</g>
<!-- Node3&#45;&gt;Node10 -->
<g id="edge11_Node000003_Node000010" class="edge">
<title>Node3&#45;&gt;Node10</title>
<g id="a_edge11_Node000003_Node000010"><a xlink:title=" ">
<path fill="none" stroke="#63b8ff" d="M659.55,-290.86C607.5,-277.67 536.95,-259.8 487.8,-247.34"/>
<polygon fill="#63b8ff" stroke="#63b8ff" points="658.68,-294.24 669.23,-293.31 660.4,-287.46 658.68,-294.24"/>
</a>
</g>
</g>
<!-- Node3&#45;&gt;Node12 -->
<g id="edge14_Node000003_Node000012" class="edge">
<title>Node3&#45;&gt;Node12</title>
<g id="a_edge14_Node000003_Node000012"><a xlink:title=" ">
<path fill="none" stroke="#63b8ff" d="M634.1,-302.77C524.78,-295.36 339.77,-279.91 182.7,-252.5 174.52,-251.07 165.95,-249.27 157.57,-247.34"/>
<polygon fill="#63b8ff" stroke="#63b8ff" points="633.69,-306.25 643.9,-303.43 634.16,-299.27 633.69,-306.25"/>
</a>
</g>
</g>
<!-- Node5 -->
<g id="Node000005" class="node">
<title>Node5</title>
<g id="a_Node000005"><a xlink:href="_file_system_8h_source.html" target="_top" xlink:title=" ">
<polygon fill="white" stroke="#666666" points="1106.95,-169.12 930.45,-169.12 930.45,-138.62 1106.95,-138.62 1106.95,-169.12"/>
<text text-anchor="start" x="938.45" y="-155.62" font-family="Helvetica,sans-Serif" font-size="10.00">/Users/hoff/Retro/virtualc64</text>
<text text-anchor="middle" x="1018.7" y="-144.38" font-family="Helvetica,sans-Serif" font-size="10.00">/Emulator/FileSystems/FileSystem.h</text>
</a>
</g>
</g>
<!-- Node4&#45;&gt;Node5 -->
<g id="edge4_Node000004_Node000005" class="edge">
<title>Node4&#45;&gt;Node5</title>
<g id="a_edge4_Node000004_Node000005"><a xlink:title=" ">
<path fill="none" stroke="#63b8ff" d="M1159.14,-211.76C1126.93,-198.71 1084.68,-181.6 1054.97,-169.56"/>
<polygon fill="#63b8ff" stroke="#63b8ff" points="1157.66,-214.94 1168.24,-215.45 1160.29,-208.45 1157.66,-214.94"/>
</a>
</g>
</g>
<!-- Node6 -->
<g id="Node000006" class="node">
<title>Node6</title>
<g id="a_Node000006"><a xlink:href="_c64_8h_source.html" target="_top" xlink:title=" ">
<polygon fill="white" stroke="#666666" points="966.58,-97 820.83,-97 820.83,-66.5 966.58,-66.5 966.58,-97"/>
<text text-anchor="start" x="828.83" y="-83.5" font-family="Helvetica,sans-Serif" font-size="10.00">/Users/hoff/Retro/virtualc64</text>
<text text-anchor="middle" x="893.7" y="-72.25" font-family="Helvetica,sans-Serif" font-size="10.00">/Emulator/Components/C64.h</text>
</a>
</g>
</g>
<!-- Node5&#45;&gt;Node6 -->
<g id="edge5_Node000005_Node000006" class="edge">
<title>Node5&#45;&gt;Node6</title>
<g id="a_edge5_Node000005_Node000006"><a xlink:title=" ">
<path fill="none" stroke="#63b8ff" d="M982.48,-132.56C962.46,-121.32 938.03,-107.62 919.87,-97.43"/>
<polygon fill="#63b8ff" stroke="#63b8ff" points="980.74,-135.59 991.18,-137.43 984.17,-129.49 980.74,-135.59"/>
</a>
</g>
</g>
<!-- Node7 -->
<g id="Node000007" class="node">
<title>Node7</title>
<g id="a_Node000007"><a xlink:href="_emulator_8h_source.html" target="_top" xlink:title=" ">
<polygon fill="white" stroke="#666666" points="976.7,-30.5 810.7,-30.5 810.7,0 976.7,0 976.7,-30.5"/>
<text text-anchor="start" x="818.7" y="-17" font-family="Helvetica,sans-Serif" font-size="10.00">/Users/hoff/Retro/virtualc64</text>
<text text-anchor="middle" x="893.7" y="-5.75" font-family="Helvetica,sans-Serif" font-size="10.00">/Emulator/Components/Emulator.h</text>
</a>
</g>
</g>
<!-- Node6&#45;&gt;Node7 -->
<g id="edge6_Node000006_Node000007" class="edge">
<title>Node6&#45;&gt;Node7</title>
<g id="a_edge6_Node000006_Node000007"><a xlink:title=" ">
<path fill="none" stroke="#63b8ff" d="M893.7,-54.81C893.7,-46.64 893.7,-37.91 893.7,-30.83"/>
<polygon fill="#63b8ff" stroke="#63b8ff" points="890.2,-54.6 893.7,-64.6 897.2,-54.6 890.2,-54.6"/>
</a>
</g>
</g>
<!-- Node8&#45;&gt;Node5 -->
<g id="edge8_Node000008_Node000005" class="edge">
<title>Node8&#45;&gt;Node5</title>
<g id="a_edge8_Node000008_Node000005"><a xlink:title=" ">
<path fill="none" stroke="#63b8ff" d="M867.6,-212.1C902.17,-199.01 947.86,-181.71 979.92,-169.56"/>
<polygon fill="#63b8ff" stroke="#63b8ff" points="866.79,-208.67 858.68,-215.48 869.27,-215.21 866.79,-208.67"/>
</a>
</g>
</g>
<!-- Node9&#45;&gt;Node5 -->
<g id="edge10_Node000009_Node000005" class="edge">
<title>Node9&#45;&gt;Node5</title>
<g id="a_edge10_Node000009_Node000005"><a xlink:title=" ">
<path fill="none" stroke="#63b8ff" d="M1018.7,-204.6C1018.7,-192.84 1018.7,-179.38 1018.7,-169.44"/>
<polygon fill="#63b8ff" stroke="#63b8ff" points="1015.2,-204.51 1018.7,-214.51 1022.2,-204.51 1015.2,-204.51"/>
</a>
</g>
</g>
<!-- Node10&#45;&gt;Node11 -->
<g id="edge12_Node000010_Node000011" class="edge">
<title>Node10&#45;&gt;Node11</title>
<g id="a_edge12_Node000010_Node000011"><a xlink:title=" ">
<path fill="none" stroke="#63b8ff" d="M460.71,-209.65C476.63,-198.89 495.93,-185.83 511.71,-175.16"/>
<polygon fill="#63b8ff" stroke="#63b8ff" points="458.87,-206.67 452.55,-215.17 462.79,-212.47 458.87,-206.67"/>
</a>
</g>
</g>
<!-- Node11&#45;&gt;Node6 -->
<g id="edge13_Node000011_Node000006" class="edge">
<title>Node11&#45;&gt;Node6</title>
<g id="a_edge13_Node000011_Node000006"><a xlink:title=" ">
<path fill="none" stroke="#63b8ff" d="M621.69,-136.94C681.48,-125.03 762.57,-108.87 820.62,-97.31"/>
<polygon fill="#63b8ff" stroke="#63b8ff" points="621.01,-133.51 611.89,-138.89 622.38,-140.37 621.01,-133.51"/>
</a>
</g>
</g>
<!-- Node13 -->
<g id="Node000013" class="node">
<title>Node13</title>
<g id="a_Node000013"><a xlink:href="_virtual_c64_8h.html" target="_top" xlink:title=" ">
<polygon fill="white" stroke="#666666" points="171.08,-169.12 34.33,-169.12 34.33,-138.62 171.08,-138.62 171.08,-169.12"/>
<text text-anchor="start" x="42.33" y="-155.62" font-family="Helvetica,sans-Serif" font-size="10.00">/Users/hoff/Retro/virtualc64</text>
<text text-anchor="middle" x="102.7" y="-144.38" font-family="Helvetica,sans-Serif" font-size="10.00">/Emulator/VirtualC64.h</text>
</a>
</g>
</g>
<!-- Node12&#45;&gt;Node13 -->
<g id="edge15_Node000012_Node000013" class="edge">
<title>Node12&#45;&gt;Node13</title>
<g id="a_edge15_Node000012_Node000013"><a xlink:title=" ">
<path fill="none" stroke="#63b8ff" d="M102.7,-204.6C102.7,-192.84 102.7,-179.38 102.7,-169.44"/>
<polygon fill="#63b8ff" stroke="#63b8ff" points="99.2,-204.51 102.7,-214.51 106.2,-204.51 99.2,-204.51"/>
</a>
</g>
</g>
<!-- Node14 -->
<g id="Node000014" class="node">
<title>Node14</title>
<g id="a_Node000014"><a xlink:href="_headless_8h_source.html" target="_top" xlink:title=" ">
<polygon fill="white" stroke="#666666" points="171.08,-97 34.33,-97 34.33,-66.5 171.08,-66.5 171.08,-97"/>
<text text-anchor="start" x="42.33" y="-83.5" font-family="Helvetica,sans-Serif" font-size="10.00">/Users/hoff/Retro/virtualc64</text>
<text text-anchor="middle" x="102.7" y="-72.25" font-family="Helvetica,sans-Serif" font-size="10.00">/Emulator/Headless.h</text>
</a>
</g>
</g>
<!-- Node13&#45;&gt;Node14 -->
<g id="edge16_Node000013_Node000014" class="edge">
<title>Node13&#45;&gt;Node14</title>
<g id="a_edge16_Node000013_Node000014"><a xlink:title=" ">
<path fill="none" stroke="#63b8ff" d="M102.7,-126.9C102.7,-116.89 102.7,-105.81 102.7,-97.26"/>
<polygon fill="#63b8ff" stroke="#63b8ff" points="99.2,-126.83 102.7,-136.83 106.2,-126.83 99.2,-126.83"/>
</a>
</g>
</g>
<!-- Node15 -->
<g id="Node000015" class="node">
<title>Node15</title>
<g id="a_Node000015"><a xlink:href="_headless_8cpp.html" target="_top" xlink:title=" ">
<polygon fill="white" stroke="#666666" points="171.08,-30.5 34.33,-30.5 34.33,0 171.08,0 171.08,-30.5"/>
<text text-anchor="start" x="42.33" y="-17" font-family="Helvetica,sans-Serif" font-size="10.00">/Users/hoff/Retro/virtualc64</text>
<text text-anchor="middle" x="102.7" y="-5.75" font-family="Helvetica,sans-Serif" font-size="10.00">/Emulator/Headless.cpp</text>
</a>
</g>
</g>
<!-- Node14&#45;&gt;Node15 -->
<g id="edge17_Node000014_Node000015" class="edge">
<title>Node14&#45;&gt;Node15</title>
<g id="a_edge17_Node000014_Node000015"><a xlink:title=" ">
<path fill="none" stroke="#63b8ff" d="M102.7,-54.81C102.7,-46.64 102.7,-37.91 102.7,-30.83"/>
<polygon fill="#63b8ff" stroke="#63b8ff" points="99.2,-54.6 102.7,-64.6 106.2,-54.6 99.2,-54.6"/>
</a>
</g>
</g>
<!-- Node16&#45;&gt;Node5 -->
<g id="edge20_Node000016_Node000005" class="edge">
<title>Node16&#45;&gt;Node5</title>
<g id="a_edge20_Node000016_Node000005"><a xlink:title=" ">
<path fill="none" stroke="#63b8ff" d="M1307.53,-213.28C1303.87,-212.4 1300.24,-211.56 1296.7,-210.75 1229.74,-195.5 1153.21,-180.28 1097.42,-169.58"/>
<polygon fill="#63b8ff" stroke="#63b8ff" points="1306.53,-216.64 1317.08,-215.59 1308.18,-209.83 1306.53,-216.64"/>
</a>
</g>
</g>
<!-- Node16&#45;&gt;Node6 -->
<g id="edge19_Node000016_Node000006" class="edge">
<title>Node16&#45;&gt;Node6</title>
<g id="a_edge19_Node000016_Node000006"><a xlink:title=" ">
<path fill="none" stroke="#63b8ff" d="M1330.1,-211.66C1279,-190.44 1192.4,-156.02 1115.7,-133 1066.69,-118.29 1010.45,-105.61 966.85,-96.66"/>
<polygon fill="#63b8ff" stroke="#63b8ff" points="1328.48,-214.77 1339.05,-215.4 1331.17,-208.31 1328.48,-214.77"/>
</a>
</g>
</g>
<!-- Node17&#45;&gt;Node6 -->
<g id="edge22_Node000017_Node000006" class="edge">
<title>Node17&#45;&gt;Node6</title>
<g id="a_edge22_Node000017_Node000006"><a xlink:title=" ">
<path fill="none" stroke="#63b8ff" d="M50.88,-286.96C39.78,-277.81 28.68,-266.09 22.7,-252.5 14.42,-233.69 14.99,-143.92 25.7,-133 53.37,-104.8 616.4,-89.11 820.57,-84.34"/>
<polygon fill="#63b8ff" stroke="#63b8ff" points="48.43,-289.49 58.49,-292.81 52.7,-283.94 48.43,-289.49"/>
</a>
</g>
</g>
<!-- Node18&#45;&gt;Node8 -->
<g id="edge24_Node000018_Node000008" class="edge">
<title>Node18&#45;&gt;Node8</title>
<g id="a_edge24_Node000018_Node000008"><a xlink:title=" ">
<path fill="none" stroke="#63b8ff" d="M477.6,-360.77C519.22,-339.78 580.95,-310.02 636.7,-288.5 678.64,-272.31 727.38,-257.56 763.87,-247.28"/>
<polygon fill="#63b8ff" stroke="#63b8ff" points="476.16,-357.58 468.82,-365.23 479.32,-363.83 476.16,-357.58"/>
</a>
</g>
</g>
<!-- Node18&#45;&gt;Node10 -->
<g id="edge25_Node000018_Node000010" class="edge">
<title>Node18&#45;&gt;Node10</title>
<g id="a_edge25_Node000018_Node000010"><a xlink:title=" ">
<path fill="none" stroke="#63b8ff" d="M428.91,-354.82C429.12,-321.97 429.45,-271.76 429.61,-247.19"/>
<polygon fill="#63b8ff" stroke="#63b8ff" points="425.41,-354.52 428.84,-364.54 432.41,-354.57 425.41,-354.52"/>
</a>
</g>
</g>
<!-- Node18&#45;&gt;Node12 -->
<g id="edge32_Node000018_Node000012" class="edge">
<title>Node18&#45;&gt;Node12</title>
<g id="a_edge32_Node000018_Node000012"><a xlink:title=" ">
<path fill="none" stroke="#63b8ff" d="M349.19,-372.14C313.2,-363.56 271.1,-350.26 236.7,-330.25 213.68,-316.85 214.73,-304.85 193.7,-288.5 173.5,-272.8 148.64,-257.79 130,-247.29"/>
<polygon fill="#63b8ff" stroke="#63b8ff" points="348.15,-375.49 358.68,-374.31 349.71,-368.67 348.15,-375.49"/>
</a>
</g>
</g>
<!-- Node19 -->
<g id="Node000019" class="node">
<title>Node19</title>
<g id="a_Node000019"><a xlink:href="_disk_analyzer_8h_source.html" target="_top" xlink:title=" ">
<polygon fill="white" stroke="#666666" points="328.08,-252.5 191.33,-252.5 191.33,-210.75 328.08,-210.75 328.08,-252.5"/>
<text text-anchor="start" x="199.33" y="-239" font-family="Helvetica,sans-Serif" font-size="10.00">/Users/hoff/Retro/virtualc64</text>
<text text-anchor="start" x="199.33" y="-227.75" font-family="Helvetica,sans-Serif" font-size="10.00">/Emulator/Peripherals/Drive</text>
<text text-anchor="middle" x="259.7" y="-216.5" font-family="Helvetica,sans-Serif" font-size="10.00">/DiskAnalyzer.h</text>
</a>
</g>
</g>
<!-- Node18&#45;&gt;Node19 -->
<g id="edge26_Node000018_Node000019" class="edge">
<title>Node18&#45;&gt;Node19</title>
<g id="a_edge26_Node000018_Node000019"><a xlink:title=" ">
<path fill="none" stroke="#63b8ff" d="M423.19,-355.07C418.01,-333.97 408.32,-306.69 390.7,-288.5 373.84,-271.09 350.7,-258.83 328.54,-250.31"/>
<polygon fill="#63b8ff" stroke="#63b8ff" points="419.72,-355.57 425.3,-364.58 426.55,-354.06 419.72,-355.57"/>
</a>
</g>
</g>
<!-- Node20 -->
<g id="Node000020" class="node">
<title>Node20</title>
<g id="a_Node000020"><a xlink:href="_disk_analyzer_types_8h_source.html" target="_top" xlink:title=" ">
<polygon fill="white" stroke="#666666" points="382.08,-330.25 245.33,-330.25 245.33,-288.5 382.08,-288.5 382.08,-330.25"/>
<text text-anchor="start" x="253.33" y="-316.75" font-family="Helvetica,sans-Serif" font-size="10.00">/Users/hoff/Retro/virtualc64</text>
<text text-anchor="start" x="253.33" y="-305.5" font-family="Helvetica,sans-Serif" font-size="10.00">/Emulator/Peripherals/Drive</text>
<text text-anchor="middle" x="313.7" y="-294.25" font-family="Helvetica,sans-Serif" font-size="10.00">/DiskAnalyzerTypes.h</text>
</a>
</g>
</g>
<!-- Node18&#45;&gt;Node20 -->
<g id="edge28_Node000018_Node000020" class="edge">
<title>Node18&#45;&gt;Node20</title>
<g id="a_edge28_Node000018_Node000020"><a xlink:title=" ">
<path fill="none" stroke="#63b8ff" d="M388.67,-359.76C374.22,-350.24 358.15,-339.65 344.6,-330.73"/>
<polygon fill="#63b8ff" stroke="#63b8ff" points="386.34,-362.41 396.62,-364.99 390.19,-356.57 386.34,-362.41"/>
</a>
</g>
</g>
<!-- Node19&#45;&gt;Node11 -->
<g id="edge27_Node000019_Node000011" class="edge">
<title>Node19&#45;&gt;Node11</title>
<g id="a_edge27_Node000019_Node000011"><a xlink:title=" ">
<path fill="none" stroke="#63b8ff" d="M339.41,-209.22C381.6,-197.88 432.88,-184.11 473.26,-173.26"/>
<polygon fill="#63b8ff" stroke="#63b8ff" points="338.54,-205.82 329.79,-211.8 340.35,-212.58 338.54,-205.82"/>
</a>
</g>
</g>
<!-- Node20&#45;&gt;Node10 -->
<g id="edge29_Node000020_Node000010" class="edge">
<title>Node20&#45;&gt;Node10</title>
<g id="a_edge29_Node000020_Node000010"><a xlink:title=" ">
<path fill="none" stroke="#63b8ff" d="M354.38,-281.81C372.17,-270.19 392.36,-257.01 407.36,-247.21"/>
<polygon fill="#63b8ff" stroke="#63b8ff" points="352.51,-278.85 346.05,-287.25 356.34,-284.71 352.51,-278.85"/>
</a>
</g>
</g>
<!-- Node20&#45;&gt;Node12 -->
<g id="edge31_Node000020_Node000012" class="edge">
<title>Node20&#45;&gt;Node12</title>
<g id="a_edge31_Node000020_Node000012"><a xlink:title=" ">
<path fill="none" stroke="#63b8ff" d="M246.42,-284.22C212.65,-272.1 172.82,-257.8 143.67,-247.33"/>
<polygon fill="#63b8ff" stroke="#63b8ff" points="245.14,-287.48 255.73,-287.56 247.5,-280.89 245.14,-287.48"/>
</a>
</g>
</g>
<!-- Node20&#45;&gt;Node19 -->
<g id="edge30_Node000020_Node000019" class="edge">
<title>Node20&#45;&gt;Node19</title>
<g id="a_edge30_Node000020_Node000019"><a xlink:title=" ">
<path fill="none" stroke="#63b8ff" d="M292.55,-278.7C286.41,-270.09 279.85,-260.88 274.21,-252.98"/>
<polygon fill="#63b8ff" stroke="#63b8ff" points="289.7,-280.73 298.35,-286.84 295.4,-276.67 289.7,-280.73"/>
</a>
</g>
</g>
<!-- Node21&#45;&gt;Node6 -->
<g id="edge35_Node000021_Node000006" class="edge">
<title>Node21&#45;&gt;Node6</title>
<g id="a_edge35_Node000021_Node000006"><a xlink:title=" ">
<path fill="none" stroke="#63b8ff" d="M682.4,-204.81C736.29,-173.68 825.01,-122.43 868.32,-97.41"/>
<polygon fill="#63b8ff" stroke="#63b8ff" points="680.98,-201.58 674.07,-209.62 684.48,-207.65 680.98,-201.58"/>
</a>
</g>
</g>
<!-- Node21&#45;&gt;Node11 -->
<g id="edge36_Node000021_Node000011" class="edge">
<title>Node21&#45;&gt;Node11</title>
<g id="a_edge36_Node000021_Node000011"><a xlink:title=" ">
<path fill="none" stroke="#63b8ff" d="M603.25,-203.44C591.46,-194.14 578.48,-183.9 567.5,-175.23"/>
<polygon fill="#63b8ff" stroke="#63b8ff" points="600.77,-205.94 610.79,-209.39 605.1,-200.45 600.77,-205.94"/>
</a>
</g>
</g>
<!-- Node22&#45;&gt;Node6 -->
<g id="edge38_Node000022_Node000006" class="edge">
<title>Node22&#45;&gt;Node6</title>
<g id="a_edge38_Node000022_Node000006"><a xlink:title=" ">
<path fill="none" stroke="#63b8ff" d="M1015.81,-386.36C1187.2,-384.01 1565,-362.06 1451.7,-210.75 1394.07,-133.78 1104.76,-100.04 966.93,-88.15"/>
<polygon fill="#63b8ff" stroke="#63b8ff" points="1015.8,-382.86 1005.84,-386.47 1015.88,-389.86 1015.8,-382.86"/>
</a>
</g>
</g>
</g>
</svg>
