<?xml version="1.0" encoding="UTF-8" standalone="no"?>
<!DOCTYPE svg PUBLIC "-//W3C//DTD SVG 1.1//EN"
 "http://www.w3.org/Graphics/SVG/1.1/DTD/svg11.dtd">
<!-- Generated by graphviz version 10.0.1 (20240210.2158)
 -->
<!-- Title: /Users/hoff/Retro/virtualc64/Emulator/Peripherals/Drive/ParCableTypes.h Pages: 1 -->
<svg width="497pt" height="616pt"
 viewBox="0.00 0.00 497.00 615.50" xmlns="http://www.w3.org/2000/svg" xmlns:xlink="http://www.w3.org/1999/xlink">
<g id="graph0" class="graph" transform="scale(1 1) rotate(0) translate(4 611.5)">
<title>/Users/hoff/Retro/virtualc64/Emulator/Peripherals/Drive/ParCableTypes.h</title>
<!-- Node1 -->
<g id="Node000001" class="node">
<title>Node1</title>
<g id="a_Node000001"><a xlink:title=" ">
<polygon fill="#999999" stroke="#666666" points="316.75,-607.5 180,-607.5 180,-565.75 316.75,-565.75 316.75,-607.5"/>
<text text-anchor="start" x="188" y="-594" font-family="Helvetica,sans-Serif" font-size="10.00">/Users/hoff/Retro/virtualc64</text>
<text text-anchor="start" x="188" y="-582.75" font-family="Helvetica,sans-Serif" font-size="10.00">/Emulator/Peripherals/Drive</text>
<text text-anchor="middle" x="248.38" y="-571.5" font-family="Helvetica,sans-Serif" font-size="10.00">/ParCableTypes.h</text>
</a>
</g>
</g>
<!-- Node2 -->
<g id="Node000002" class="node">
<title>Node2</title>
<g id="a_Node000002"><a xlink:href="_drive_types_8h.html" target="_top" xlink:title=" ">
<polygon fill="white" stroke="#666666" points="316.75,-529.75 180,-529.75 180,-488 316.75,-488 316.75,-529.75"/>
<text text-anchor="start" x="188" y="-516.25" font-family="Helvetica,sans-Serif" font-size="10.00">/Users/hoff/Retro/virtualc64</text>
<text text-anchor="start" x="188" y="-505" font-family="Helvetica,sans-Serif" font-size="10.00">/Emulator/Peripherals/Drive</text>
<text text-anchor="middle" x="248.38" y="-493.75" font-family="Helvetica,sans-Serif" font-size="10.00">/DriveTypes.h</text>
</a>
</g>
</g>
<!-- Node1&#45;&gt;Node2 -->
<g id="edge1_Node000001_Node000002" class="edge">
<title>Node1&#45;&gt;Node2</title>
<g id="a_edge1_Node000001_Node000002"><a xlink:title=" ">
<path fill="none" stroke="#63b8ff" d="M248.38,-554C248.38,-545.96 248.38,-537.54 248.38,-530.23"/>
<polygon fill="#63b8ff" stroke="#63b8ff" points="244.88,-553.81 248.38,-563.81 251.88,-553.81 244.88,-553.81"/>
</a>
</g>
</g>
<!-- Node10 -->
<g id="Node000010" class="node">
<title>Node10</title>
<g id="a_Node000010"><a xlink:href="_par_cable_8h_source.html" target="_top" xlink:title=" ">
<polygon fill="white" stroke="#666666" points="136.75,-452 0,-452 0,-410.25 136.75,-410.25 136.75,-452"/>
<text text-anchor="start" x="8" y="-438.5" font-family="Helvetica,sans-Serif" font-size="10.00">/Users/hoff/Retro/virtualc64</text>
<text text-anchor="start" x="8" y="-427.25" font-family="Helvetica,sans-Serif" font-size="10.00">/Emulator/Peripherals/Drive</text>
<text text-anchor="middle" x="68.38" y="-416" font-family="Helvetica,sans-Serif" font-size="10.00">/ParCable.h</text>
</a>
</g>
</g>
<!-- Node1&#45;&gt;Node10 -->
<g id="edge15_Node000001_Node000010" class="edge">
<title>Node1&#45;&gt;Node10</title>
<g id="a_edge15_Node000001_Node000010"><a xlink:title=" ">
<path fill="none" stroke="#63b8ff" d="M209.26,-558.75C196.88,-549.85 183.32,-539.67 171.38,-529.75 141.05,-504.56 108.4,-472.72 88.17,-452.39"/>
<polygon fill="#63b8ff" stroke="#63b8ff" points="207.03,-561.46 217.21,-564.4 211.09,-555.75 207.03,-561.46"/>
</a>
</g>
</g>
<!-- Node11 -->
<g id="Node000011" class="node">
<title>Node11</title>
<g id="a_Node000011"><a xlink:href="_virtual_c64_types_8h.html" target="_top" xlink:title=" ">
<polygon fill="white" stroke="#666666" points="489,-446.38 347.75,-446.38 347.75,-415.88 489,-415.88 489,-446.38"/>
<text text-anchor="start" x="355.75" y="-432.88" font-family="Helvetica,sans-Serif" font-size="10.00">/Users/hoff/Retro/virtualc64</text>
<text text-anchor="middle" x="418.38" y="-421.62" font-family="Helvetica,sans-Serif" font-size="10.00">/Emulator/VirtualC64Types.h</text>
</a>
</g>
</g>
<!-- Node1&#45;&gt;Node11 -->
<g id="edge16_Node000001_Node000011" class="edge">
<title>Node1&#45;&gt;Node11</title>
<g id="a_edge16_Node000001_Node000011"><a xlink:title=" ">
<path fill="none" stroke="#63b8ff" d="M288.12,-558.88C300.42,-550.05 313.78,-539.89 325.38,-529.75 356.38,-502.62 388.71,-466.65 405.89,-446.82"/>
<polygon fill="#63b8ff" stroke="#63b8ff" points="286.35,-555.85 280.2,-564.48 290.39,-561.57 286.35,-555.85"/>
</a>
</g>
</g>
<!-- Node3 -->
<g id="Node000003" class="node">
<title>Node3</title>
<g id="a_Node000003"><a xlink:href="_drive_8h_source.html" target="_top" xlink:title=" ">
<polygon fill="white" stroke="#666666" points="387.75,-374.25 251,-374.25 251,-332.5 387.75,-332.5 387.75,-374.25"/>
<text text-anchor="start" x="259" y="-360.75" font-family="Helvetica,sans-Serif" font-size="10.00">/Users/hoff/Retro/virtualc64</text>
<text text-anchor="start" x="259" y="-349.5" font-family="Helvetica,sans-Serif" font-size="10.00">/Emulator/Peripherals/Drive</text>
<text text-anchor="middle" x="319.38" y="-338.25" font-family="Helvetica,sans-Serif" font-size="10.00">/Drive.h</text>
</a>
</g>
</g>
<!-- Node2&#45;&gt;Node3 -->
<g id="edge2_Node000002_Node000003" class="edge">
<title>Node2&#45;&gt;Node3</title>
<g id="a_edge2_Node000002_Node000003"><a xlink:title=" ">
<path fill="none" stroke="#63b8ff" d="M280.45,-479.49C288.01,-471.32 295.33,-461.9 300.38,-452 312.99,-427.23 317.25,-395 318.68,-374.49"/>
<polygon fill="#63b8ff" stroke="#63b8ff" points="278.12,-476.87 273.62,-486.46 283.12,-481.77 278.12,-476.87"/>
</a>
</g>
</g>
<!-- Node9 -->
<g id="Node000009" class="node">
<title>Node9</title>
<g id="a_Node000009"><a xlink:href="_drive_memory_8h_source.html" target="_top" xlink:title=" ">
<polygon fill="white" stroke="#666666" points="291.75,-452 155,-452 155,-410.25 291.75,-410.25 291.75,-452"/>
<text text-anchor="start" x="163" y="-438.5" font-family="Helvetica,sans-Serif" font-size="10.00">/Users/hoff/Retro/virtualc64</text>
<text text-anchor="start" x="163" y="-427.25" font-family="Helvetica,sans-Serif" font-size="10.00">/Emulator/Peripherals/Drive</text>
<text text-anchor="middle" x="223.38" y="-416" font-family="Helvetica,sans-Serif" font-size="10.00">/DriveMemory.h</text>
</a>
</g>
</g>
<!-- Node2&#45;&gt;Node9 -->
<g id="edge8_Node000002_Node000009" class="edge">
<title>Node2&#45;&gt;Node9</title>
<g id="a_edge8_Node000002_Node000009"><a xlink:title=" ">
<path fill="none" stroke="#63b8ff" d="M238.12,-476.81C235.41,-468.61 232.56,-459.96 230.09,-452.48"/>
<polygon fill="#63b8ff" stroke="#63b8ff" points="234.74,-477.74 241.2,-486.14 241.39,-475.54 234.74,-477.74"/>
</a>
</g>
</g>
<!-- Node2&#45;&gt;Node10 -->
<g id="edge11_Node000002_Node000010" class="edge">
<title>Node2&#45;&gt;Node10</title>
<g id="a_edge11_Node000002_Node000010"><a xlink:title=" ">
<path fill="none" stroke="#63b8ff" d="M189.56,-483.13C165.99,-473.2 139.16,-461.91 116.74,-452.48"/>
<polygon fill="#63b8ff" stroke="#63b8ff" points="188.17,-486.34 198.74,-486.99 190.88,-479.88 188.17,-486.34"/>
</a>
</g>
</g>
<!-- Node2&#45;&gt;Node11 -->
<g id="edge13_Node000002_Node000011" class="edge">
<title>Node2&#45;&gt;Node11</title>
<g id="a_edge13_Node000002_Node000011"><a xlink:title=" ">
<path fill="none" stroke="#63b8ff" d="M304.35,-482.93C331.18,-470.98 362.39,-457.07 385.37,-446.83"/>
<polygon fill="#63b8ff" stroke="#63b8ff" points="303.02,-479.69 295.31,-486.96 305.87,-486.09 303.02,-479.69"/>
</a>
</g>
</g>
<!-- Node4 -->
<g id="Node000004" class="node">
<title>Node4</title>
<g id="a_Node000004"><a xlink:href="_c64_8h_source.html" target="_top" xlink:title=" ">
<polygon fill="white" stroke="#666666" points="316.25,-296.5 170.5,-296.5 170.5,-266 316.25,-266 316.25,-296.5"/>
<text text-anchor="start" x="178.5" y="-283" font-family="Helvetica,sans-Serif" font-size="10.00">/Users/hoff/Retro/virtualc64</text>
<text text-anchor="middle" x="243.38" y="-271.75" font-family="Helvetica,sans-Serif" font-size="10.00">/Emulator/Components/C64.h</text>
</a>
</g>
</g>
<!-- Node3&#45;&gt;Node4 -->
<g id="edge3_Node000003_Node000004" class="edge">
<title>Node3&#45;&gt;Node4</title>
<g id="a_edge3_Node000003_Node000004"><a xlink:title=" ">
<path fill="none" stroke="#63b8ff" d="M289.02,-324.36C278.74,-314.88 267.69,-304.69 259.04,-296.7"/>
<polygon fill="#63b8ff" stroke="#63b8ff" points="286.56,-326.86 296.28,-331.07 291.3,-321.71 286.56,-326.86"/>
</a>
</g>
</g>
<!-- Node5 -->
<g id="Node000005" class="node">
<title>Node5</title>
<g id="a_Node000005"><a xlink:href="_emulator_8h_source.html" target="_top" xlink:title=" ">
<polygon fill="white" stroke="#666666" points="348.38,-230 182.38,-230 182.38,-199.5 348.38,-199.5 348.38,-230"/>
<text text-anchor="start" x="190.38" y="-216.5" font-family="Helvetica,sans-Serif" font-size="10.00">/Users/hoff/Retro/virtualc64</text>
<text text-anchor="middle" x="265.38" y="-205.25" font-family="Helvetica,sans-Serif" font-size="10.00">/Emulator/Components/Emulator.h</text>
</a>
</g>
</g>
<!-- Node4&#45;&gt;Node5 -->
<g id="edge4_Node000004_Node000005" class="edge">
<title>Node4&#45;&gt;Node5</title>
<g id="a_edge4_Node000004_Node000005"><a xlink:title=" ">
<path fill="none" stroke="#63b8ff" d="M252.03,-254.88C254.87,-246.55 257.93,-237.58 260.4,-230.33"/>
<polygon fill="#63b8ff" stroke="#63b8ff" points="248.77,-253.59 248.86,-264.18 255.4,-255.85 248.77,-253.59"/>
</a>
</g>
</g>
<!-- Node6 -->
<g id="Node000006" class="node">
<title>Node6</title>
<g id="a_Node000006"><a xlink:href="_virtual_c64_8h.html" target="_top" xlink:title=" ">
<polygon fill="white" stroke="#666666" points="388.75,-163.5 252,-163.5 252,-133 388.75,-133 388.75,-163.5"/>
<text text-anchor="start" x="260" y="-150" font-family="Helvetica,sans-Serif" font-size="10.00">/Users/hoff/Retro/virtualc64</text>
<text text-anchor="middle" x="320.38" y="-138.75" font-family="Helvetica,sans-Serif" font-size="10.00">/Emulator/VirtualC64.h</text>
</a>
</g>
</g>
<!-- Node5&#45;&gt;Node6 -->
<g id="edge5_Node000005_Node000006" class="edge">
<title>Node5&#45;&gt;Node6</title>
<g id="a_edge5_Node000005_Node000006"><a xlink:title=" ">
<path fill="none" stroke="#63b8ff" d="M285.09,-190.63C292.71,-181.69 301.2,-171.74 307.94,-163.83"/>
<polygon fill="#63b8ff" stroke="#63b8ff" points="282.66,-188.08 278.84,-197.96 287.99,-192.62 282.66,-188.08"/>
</a>
</g>
</g>
<!-- Node7 -->
<g id="Node000007" class="node">
<title>Node7</title>
<g id="a_Node000007"><a xlink:href="_headless_8h_source.html" target="_top" xlink:title=" ">
<polygon fill="white" stroke="#666666" points="388.75,-97 252,-97 252,-66.5 388.75,-66.5 388.75,-97"/>
<text text-anchor="start" x="260" y="-83.5" font-family="Helvetica,sans-Serif" font-size="10.00">/Users/hoff/Retro/virtualc64</text>
<text text-anchor="middle" x="320.38" y="-72.25" font-family="Helvetica,sans-Serif" font-size="10.00">/Emulator/Headless.h</text>
</a>
</g>
</g>
<!-- Node6&#45;&gt;Node7 -->
<g id="edge6_Node000006_Node000007" class="edge">
<title>Node6&#45;&gt;Node7</title>
<g id="a_edge6_Node000006_Node000007"><a xlink:title=" ">
<path fill="none" stroke="#63b8ff" d="M320.38,-121.31C320.38,-113.14 320.38,-104.41 320.38,-97.33"/>
<polygon fill="#63b8ff" stroke="#63b8ff" points="316.88,-121.1 320.38,-131.1 323.88,-121.1 316.88,-121.1"/>
</a>
</g>
</g>
<!-- Node8 -->
<g id="Node000008" class="node">
<title>Node8</title>
<g id="a_Node000008"><a xlink:href="_headless_8cpp.html" target="_top" xlink:title=" ">
<polygon fill="white" stroke="#666666" points="388.75,-30.5 252,-30.5 252,0 388.75,0 388.75,-30.5"/>
<text text-anchor="start" x="260" y="-17" font-family="Helvetica,sans-Serif" font-size="10.00">/Users/hoff/Retro/virtualc64</text>
<text text-anchor="middle" x="320.38" y="-5.75" font-family="Helvetica,sans-Serif" font-size="10.00">/Emulator/Headless.cpp</text>
</a>
</g>
</g>
<!-- Node7&#45;&gt;Node8 -->
<g id="edge7_Node000007_Node000008" class="edge">
<title>Node7&#45;&gt;Node8</title>
<g id="a_edge7_Node000007_Node000008"><a xlink:title=" ">
<path fill="none" stroke="#63b8ff" d="M320.38,-54.81C320.38,-46.64 320.38,-37.91 320.38,-30.83"/>
<polygon fill="#63b8ff" stroke="#63b8ff" points="316.88,-54.6 320.38,-64.6 323.88,-54.6 316.88,-54.6"/>
</a>
</g>
</g>
<!-- Node9&#45;&gt;Node3 -->
<g id="edge10_Node000009_Node000003" class="edge">
<title>Node9&#45;&gt;Node3</title>
<g id="a_edge10_Node000009_Node000003"><a xlink:title=" ">
<path fill="none" stroke="#63b8ff" d="M257.83,-402.94C269.62,-393.64 282.59,-383.4 293.58,-374.73"/>
<polygon fill="#63b8ff" stroke="#63b8ff" points="255.97,-399.95 250.29,-408.89 260.31,-405.44 255.97,-399.95"/>
</a>
</g>
</g>
<!-- Node9&#45;&gt;Node4 -->
<g id="edge9_Node000009_Node000004" class="edge">
<title>Node9&#45;&gt;Node4</title>
<g id="a_edge9_Node000009_Node000004"><a xlink:title=" ">
<path fill="none" stroke="#63b8ff" d="M227.63,-398.69C231.87,-367.31 238.2,-320.48 241.39,-296.91"/>
<polygon fill="#63b8ff" stroke="#63b8ff" points="224.19,-397.99 226.32,-408.37 231.13,-398.93 224.19,-397.99"/>
</a>
</g>
</g>
<!-- Node10&#45;&gt;Node4 -->
<g id="edge12_Node000010_Node000004" class="edge">
<title>Node10&#45;&gt;Node4</title>
<g id="a_edge12_Node000010_Node000004"><a xlink:title=" ">
<path fill="none" stroke="#63b8ff" d="M100.78,-402.74C137.77,-371.48 196.91,-321.51 226.02,-296.91"/>
<polygon fill="#63b8ff" stroke="#63b8ff" points="98.88,-399.77 93.5,-408.9 103.39,-405.12 98.88,-399.77"/>
</a>
</g>
</g>
<!-- Node11&#45;&gt;Node6 -->
<g id="edge14_Node000011_Node000006" class="edge">
<title>Node11&#45;&gt;Node6</title>
<g id="a_edge14_Node000011_Node000006"><a xlink:title=" ">
<path fill="none" stroke="#63b8ff" d="M415.01,-404.33C408.53,-360.4 391.84,-269.06 357.38,-199.5 350.93,-186.49 341.1,-173.33 333.18,-163.75"/>
<polygon fill="#63b8ff" stroke="#63b8ff" points="411.53,-404.73 416.39,-414.15 418.46,-403.76 411.53,-404.73"/>
</a>
</g>
</g>
</g>
</svg>
