<?xml version="1.0" encoding="UTF-8" standalone="no"?>
<!DOCTYPE svg PUBLIC "-//W3C//DTD SVG 1.1//EN"
 "http://www.w3.org/Graphics/SVG/1.1/DTD/svg11.dtd">
<!-- Generated by graphviz version 10.0.1 (20240210.2158)
 -->
<!-- Title: /Users/hoff/Retro/virtualc64/Emulator/Peripherals/Drive/ParCable.h Pages: 1 -->
<svg width="1472pt" height="658pt"
 viewBox="0.00 0.00 1472.12 657.50" xmlns="http://www.w3.org/2000/svg" xmlns:xlink="http://www.w3.org/1999/xlink">
<g id="graph0" class="graph" transform="scale(1 1) rotate(0) translate(4 653.5)">
<title>/Users/hoff/Retro/virtualc64/Emulator/Peripherals/Drive/ParCable.h</title>
<!-- Node1 -->
<g id="Node000001" class="node">
<title>Node1</title>
<g id="a_Node000001"><a xlink:title=" ">
<polygon fill="#999999" stroke="#666666" points="1420.38,-649.5 1283.62,-649.5 1283.62,-607.75 1420.38,-607.75 1420.38,-649.5"/>
<text text-anchor="start" x="1291.62" y="-636" font-family="Helvetica,sans-Serif" font-size="10.00">/Users/hoff/Retro/virtualc64</text>
<text text-anchor="start" x="1291.62" y="-624.75" font-family="Helvetica,sans-Serif" font-size="10.00">/Emulator/Peripherals/Drive</text>
<text text-anchor="middle" x="1352" y="-613.5" font-family="Helvetica,sans-Serif" font-size="10.00">/ParCable.h</text>
</a>
</g>
</g>
<!-- Node2 -->
<g id="Node000002" class="node">
<title>Node2</title>
<g id="a_Node000002"><a xlink:href="_par_cable_types_8h.html" target="_top" xlink:title=" ">
<polygon fill="white" stroke="#666666" points="1297.5,-240.25 1206.5,-240.25 1206.5,-221 1297.5,-221 1297.5,-240.25"/>
<text text-anchor="middle" x="1252" y="-226.75" font-family="Helvetica,sans-Serif" font-size="10.00">ParCableTypes.h</text>
</a>
</g>
</g>
<!-- Node1&#45;&gt;Node2 -->
<g id="edge1_Node000001_Node000002" class="edge">
<title>Node1&#45;&gt;Node2</title>
<g id="a_edge1_Node000001_Node000002"><a xlink:title=" ">
<path fill="none" stroke="#63b8ff" d="M1362.59,-607.48C1373.83,-584.16 1390,-544.3 1390,-507.88 1390,-507.88 1390,-507.88 1390,-340.12 1390,-290.57 1334.33,-260.2 1293.71,-244.63"/>
<polygon fill="#63b8ff" stroke="#63b8ff" points="1294.99,-241.37 1284.39,-241.23 1292.59,-247.94 1294.99,-241.37"/>
</a>
</g>
</g>
<!-- Node10 -->
<g id="Node000010" class="node">
<title>Node10</title>
<g id="a_Node000010"><a xlink:href="_drive_types_8h.html" target="_top" xlink:title=" ">
<polygon fill="white" stroke="#666666" points="1305.88,-295.5 1232.12,-295.5 1232.12,-276.25 1305.88,-276.25 1305.88,-295.5"/>
<text text-anchor="middle" x="1269" y="-282" font-family="Helvetica,sans-Serif" font-size="10.00">DriveTypes.h</text>
</a>
</g>
</g>
<!-- Node1&#45;&gt;Node10 -->
<g id="edge9_Node000001_Node000010" class="edge">
<title>Node1&#45;&gt;Node10</title>
<g id="a_edge9_Node000001_Node000010"><a xlink:title=" ">
<path fill="none" stroke="#63b8ff" d="M1352,-607.28C1352,-583.46 1352,-542.8 1352,-507.88 1352,-507.88 1352,-507.88 1352,-395.38 1352,-355.59 1316.37,-321.36 1291.8,-302.49"/>
<polygon fill="#63b8ff" stroke="#63b8ff" points="1294.06,-299.81 1283.93,-296.7 1289.91,-305.45 1294.06,-299.81"/>
</a>
</g>
</g>
<!-- Node11 -->
<g id="Node000011" class="node">
<title>Node11</title>
<g id="a_Node000011"><a xlink:href="_sub_component_8h.html" target="_top" xlink:title=" ">
<polygon fill="white" stroke="#666666" points="1323.88,-571.75 1232.12,-571.75 1232.12,-552.5 1323.88,-552.5 1323.88,-571.75"/>
<text text-anchor="middle" x="1278" y="-558.25" font-family="Helvetica,sans-Serif" font-size="10.00">SubComponent.h</text>
</a>
</g>
</g>
<!-- Node1&#45;&gt;Node11 -->
<g id="edge13_Node000001_Node000011" class="edge">
<title>Node1&#45;&gt;Node11</title>
<g id="a_edge13_Node000001_Node000011"><a xlink:title=" ">
<path fill="none" stroke="#63b8ff" d="M1328.99,-607.57C1318.7,-598.6 1306.72,-588.16 1296.96,-579.65"/>
<polygon fill="#63b8ff" stroke="#63b8ff" points="1299.39,-577.12 1289.55,-573.19 1294.79,-582.4 1299.39,-577.12"/>
</a>
</g>
</g>
<!-- Node3 -->
<g id="Node000003" class="node">
<title>Node3</title>
<g id="a_Node000003"><a xlink:href="_aliases_8h.html" target="_top" xlink:title=" ">
<polygon fill="white" stroke="#666666" points="1224.25,-185 1167.75,-185 1167.75,-165.75 1224.25,-165.75 1224.25,-185"/>
<text text-anchor="middle" x="1196" y="-171.5" font-family="Helvetica,sans-Serif" font-size="10.00">Aliases.h</text>
</a>
</g>
</g>
<!-- Node2&#45;&gt;Node3 -->
<g id="edge2_Node000002_Node000003" class="edge">
<title>Node2&#45;&gt;Node3</title>
<g id="a_edge2_Node000002_Node000003"><a xlink:title=" ">
<path fill="none" stroke="#63b8ff" d="M1242.5,-220.59C1234.57,-213.05 1223.05,-202.1 1213.46,-192.98"/>
<polygon fill="#63b8ff" stroke="#63b8ff" points="1216.11,-190.67 1206.46,-186.32 1211.29,-195.74 1216.11,-190.67"/>
</a>
</g>
</g>
<!-- Node9 -->
<g id="Node000009" class="node">
<title>Node9</title>
<g id="a_Node000009"><a xlink:href="_reflection_8h.html" target="_top" xlink:title=" ">
<polygon fill="white" stroke="#666666" points="1065.25,-185 996.75,-185 996.75,-165.75 1065.25,-165.75 1065.25,-185"/>
<text text-anchor="middle" x="1031" y="-171.5" font-family="Helvetica,sans-Serif" font-size="10.00">Reflection.h</text>
</a>
</g>
</g>
<!-- Node2&#45;&gt;Node9 -->
<g id="edge8_Node000002_Node000009" class="edge">
<title>Node2&#45;&gt;Node9</title>
<g id="a_edge8_Node000002_Node000009"><a xlink:title=" ">
<path fill="none" stroke="#63b8ff" d="M1214.26,-220.53C1176.17,-211.35 1117.32,-197.17 1076.63,-187.37"/>
<polygon fill="#63b8ff" stroke="#63b8ff" points="1077.69,-184.02 1067.14,-185.08 1076.05,-190.83 1077.69,-184.02"/>
</a>
</g>
</g>
<!-- Node4 -->
<g id="Node000004" class="node">
<title>Node4</title>
<g id="a_Node000004"><a xlink:href="_macros_8h.html" target="_top" xlink:title=" ">
<polygon fill="white" stroke="#666666" points="939.25,-129.75 882.75,-129.75 882.75,-110.5 939.25,-110.5 939.25,-129.75"/>
<text text-anchor="middle" x="911" y="-116.25" font-family="Helvetica,sans-Serif" font-size="10.00">Macros.h</text>
</a>
</g>
</g>
<!-- Node3&#45;&gt;Node4 -->
<g id="edge3_Node000003_Node000004" class="edge">
<title>Node3&#45;&gt;Node4</title>
<g id="a_edge3_Node000003_Node000004"><a xlink:title=" ">
<path fill="none" stroke="#63b8ff" d="M1167.37,-169.03C1116.15,-159.46 1008.79,-139.4 950.57,-128.52"/>
<polygon fill="#63b8ff" stroke="#63b8ff" points="951.57,-125.15 941.1,-126.75 950.29,-132.03 951.57,-125.15"/>
</a>
</g>
</g>
<!-- Node5 -->
<g id="Node000005" class="node">
<title>Node5</title>
<g id="a_Node000005"><a xlink:href="_types_8h.html" target="_top" xlink:title=" ">
<polygon fill="white" stroke="#666666" points="540.25,-74.5 489.75,-74.5 489.75,-55.25 540.25,-55.25 540.25,-74.5"/>
<text text-anchor="middle" x="515" y="-61" font-family="Helvetica,sans-Serif" font-size="10.00">Types.h</text>
</a>
</g>
</g>
<!-- Node4&#45;&gt;Node5 -->
<g id="edge4_Node000004_Node000005" class="edge">
<title>Node4&#45;&gt;Node5</title>
<g id="a_edge4_Node000004_Node000005"><a xlink:title=" ">
<path fill="none" stroke="#63b8ff" d="M882.52,-115.3C812.18,-105.84 630.26,-81.37 551.85,-70.83"/>
<polygon fill="#63b8ff" stroke="#63b8ff" points="552.5,-67.39 542.13,-69.52 551.57,-74.32 552.5,-67.39"/>
</a>
</g>
</g>
<!-- Node6 -->
<g id="Node000006" class="node">
<title>Node6</title>
<g id="a_Node000006"><a xlink:title=" ">
<polygon fill="#e0e0e0" stroke="#999999" points="472.5,-19.25 405.5,-19.25 405.5,0 472.5,0 472.5,-19.25"/>
<text text-anchor="middle" x="439" y="-5.75" font-family="Helvetica,sans-Serif" font-size="10.00">sys/types.h</text>
</a>
</g>
</g>
<!-- Node5&#45;&gt;Node6 -->
<g id="edge5_Node000005_Node000006" class="edge">
<title>Node5&#45;&gt;Node6</title>
<g id="a_edge5_Node000005_Node000006"><a xlink:title=" ">
<path fill="none" stroke="#63b8ff" d="M502.11,-54.84C490.97,-47.04 474.63,-35.59 461.36,-26.29"/>
<polygon fill="#63b8ff" stroke="#63b8ff" points="463.39,-23.44 453.2,-20.57 459.38,-29.18 463.39,-23.44"/>
</a>
</g>
</g>
<!-- Node7 -->
<g id="Node000007" class="node">
<title>Node7</title>
<g id="a_Node000007"><a xlink:title=" ">
<polygon fill="#e0e0e0" stroke="#999999" points="539.12,-19.25 490.88,-19.25 490.88,0 539.12,0 539.12,-19.25"/>
<text text-anchor="middle" x="515" y="-5.75" font-family="Helvetica,sans-Serif" font-size="10.00">stdint.h</text>
</a>
</g>
</g>
<!-- Node5&#45;&gt;Node7 -->
<g id="edge6_Node000005_Node000007" class="edge">
<title>Node5&#45;&gt;Node7</title>
<g id="a_edge6_Node000005_Node000007"><a xlink:title=" ">
<path fill="none" stroke="#63b8ff" d="M515,-55.08C515,-48.57 515,-39.42 515,-31.12"/>
<polygon fill="#63b8ff" stroke="#63b8ff" points="518.5,-31.12 515,-21.12 511.5,-31.12 518.5,-31.12"/>
</a>
</g>
</g>
<!-- Node8 -->
<g id="Node000008" class="node">
<title>Node8</title>
<g id="a_Node000008"><a xlink:title=" ">
<polygon fill="#e0e0e0" stroke="#999999" points="612.88,-19.25 557.12,-19.25 557.12,0 612.88,0 612.88,-19.25"/>
<text text-anchor="middle" x="585" y="-5.75" font-family="Helvetica,sans-Serif" font-size="10.00">stdbool.h</text>
</a>
</g>
</g>
<!-- Node5&#45;&gt;Node8 -->
<g id="edge7_Node000005_Node000008" class="edge">
<title>Node5&#45;&gt;Node8</title>
<g id="a_edge7_Node000005_Node000008"><a xlink:title=" ">
<path fill="none" stroke="#63b8ff" d="M526.87,-54.84C537.09,-47.07 552.07,-35.67 564.26,-26.4"/>
<polygon fill="#63b8ff" stroke="#63b8ff" points="566.26,-29.28 572.1,-20.44 562.02,-23.71 566.26,-29.28"/>
</a>
</g>
</g>
<!-- Node10&#45;&gt;Node2 -->
<g id="edge12_Node000010_Node000002" class="edge">
<title>Node10&#45;&gt;Node2</title>
<g id="a_edge12_Node000010_Node000002"><a xlink:title=" ">
<path fill="none" stroke="#63b8ff" d="M1266.19,-276.08C1264.06,-269.42 1261.06,-259.99 1258.36,-251.53"/>
<polygon fill="#63b8ff" stroke="#63b8ff" points="1261.7,-250.51 1255.33,-242.05 1255.04,-252.64 1261.7,-250.51"/>
</a>
</g>
</g>
<!-- Node10&#45;&gt;Node3 -->
<g id="edge10_Node000010_Node000003" class="edge">
<title>Node10&#45;&gt;Node3</title>
<g id="a_edge10_Node000010_Node000003"><a xlink:title=" ">
<path fill="none" stroke="#63b8ff" d="M1281.28,-275.79C1296.73,-263.21 1319.79,-239.92 1307,-221 1291.12,-197.5 1260.59,-186.37 1235.56,-181.1"/>
<polygon fill="#63b8ff" stroke="#63b8ff" points="1236.48,-177.71 1226.01,-179.35 1235.21,-184.6 1236.48,-177.71"/>
</a>
</g>
</g>
<!-- Node10&#45;&gt;Node9 -->
<g id="edge11_Node000010_Node000009" class="edge">
<title>Node10&#45;&gt;Node9</title>
<g id="a_edge11_Node000010_Node000009"><a xlink:title=" ">
<path fill="none" stroke="#63b8ff" d="M1249.12,-275.81C1207.47,-256.82 1110.83,-212.77 1061.36,-190.22"/>
<polygon fill="#63b8ff" stroke="#63b8ff" points="1062.92,-187.08 1052.37,-186.12 1060.02,-193.45 1062.92,-187.08"/>
</a>
</g>
</g>
<!-- Node12 -->
<g id="Node000012" class="node">
<title>Node12</title>
<g id="a_Node000012"><a xlink:href="_core_component_8h.html" target="_top" xlink:title=" ">
<polygon fill="white" stroke="#666666" points="838.75,-516.5 743.25,-516.5 743.25,-497.25 838.75,-497.25 838.75,-516.5"/>
<text text-anchor="middle" x="791" y="-503" font-family="Helvetica,sans-Serif" font-size="10.00">CoreComponent.h</text>
</a>
</g>
</g>
<!-- Node11&#45;&gt;Node12 -->
<g id="edge14_Node000011_Node000012" class="edge">
<title>Node11&#45;&gt;Node12</title>
<g id="a_edge14_Node000011_Node000012"><a xlink:title=" ">
<path fill="none" stroke="#63b8ff" d="M1231.75,-556.07C1142.9,-546.35 948.51,-525.1 850.3,-514.36"/>
<polygon fill="#63b8ff" stroke="#63b8ff" points="850.92,-510.91 840.6,-513.3 850.16,-517.86 850.92,-510.91"/>
</a>
</g>
</g>
<!-- Node44 -->
<g id="Node000044" class="node">
<title>Node44</title>
<g id="a_Node000044"><a xlink:href="_c_p_u_types_8h.html" target="_top" xlink:title=" ">
<polygon fill="white" stroke="#666666" points="1464.12,-240.25 1391.88,-240.25 1391.88,-221 1464.12,-221 1464.12,-240.25"/>
<text text-anchor="middle" x="1428" y="-226.75" font-family="Helvetica,sans-Serif" font-size="10.00">CPUTypes.h</text>
</a>
</g>
</g>
<!-- Node11&#45;&gt;Node44 -->
<g id="edge67_Node000011_Node000044" class="edge">
<title>Node11&#45;&gt;Node44</title>
<g id="a_edge67_Node000011_Node000044"><a xlink:title=" ">
<path fill="none" stroke="#63b8ff" d="M1282.01,-552.31C1301.97,-508.47 1390.73,-313.49 1419.19,-250.98"/>
<polygon fill="#63b8ff" stroke="#63b8ff" points="1422.32,-252.55 1423.28,-242 1415.95,-249.65 1422.32,-252.55"/>
</a>
</g>
</g>
<!-- Node13 -->
<g id="Node000013" class="node">
<title>Node13</title>
<g id="a_Node000013"><a xlink:href="_emulator_types_8h.html" target="_top" xlink:title=" ">
<polygon fill="white" stroke="#666666" points="1087.75,-295.5 998.25,-295.5 998.25,-276.25 1087.75,-276.25 1087.75,-295.5"/>
<text text-anchor="middle" x="1043" y="-282" font-family="Helvetica,sans-Serif" font-size="10.00">EmulatorTypes.h</text>
</a>
</g>
</g>
<!-- Node12&#45;&gt;Node13 -->
<g id="edge15_Node000012_Node000013" class="edge">
<title>Node12&#45;&gt;Node13</title>
<g id="a_edge15_Node000012_Node000013"><a xlink:title=" ">
<path fill="none" stroke="#63b8ff" d="M839.22,-502.45C898.11,-497.26 992.98,-485.36 1018,-461.25 1060.16,-420.62 1053.24,-343.25 1047.08,-306.81"/>
<polygon fill="#63b8ff" stroke="#63b8ff" points="1050.57,-306.42 1045.29,-297.24 1043.69,-307.71 1050.57,-306.42"/>
</a>
</g>
</g>
<!-- Node14 -->
<g id="Node000014" class="node">
<title>Node14</title>
<g id="a_Node000014"><a xlink:href="_thread_types_8h.html" target="_top" xlink:title=" ">
<polygon fill="white" stroke="#666666" points="1112.25,-240.25 1031.75,-240.25 1031.75,-221 1112.25,-221 1112.25,-240.25"/>
<text text-anchor="middle" x="1072" y="-226.75" font-family="Helvetica,sans-Serif" font-size="10.00">ThreadTypes.h</text>
</a>
</g>
</g>
<!-- Node12&#45;&gt;Node14 -->
<g id="edge65_Node000012_Node000014" class="edge">
<title>Node12&#45;&gt;Node14</title>
<g id="a_edge65_Node000012_Node000014"><a xlink:title=" ">
<path fill="none" stroke="#63b8ff" d="M838.86,-504.45C890.46,-501.31 973.94,-491.5 1039,-461.25 1079.32,-442.5 1116,-441.84 1116,-397.38 1116,-397.38 1116,-397.38 1116,-340.12 1116,-306.54 1097.68,-271.12 1084.68,-250.22"/>
<polygon fill="#63b8ff" stroke="#63b8ff" points="1087.7,-248.44 1079.32,-241.96 1081.83,-252.26 1087.7,-248.44"/>
</a>
</g>
</g>
<!-- Node15 -->
<g id="Node000015" class="node">
<title>Node15</title>
<g id="a_Node000015"><a xlink:href="_core_object_8h.html" target="_top" xlink:title=" ">
<polygon fill="white" stroke="#666666" points="796.88,-350.75 723.12,-350.75 723.12,-331.5 796.88,-331.5 796.88,-350.75"/>
<text text-anchor="middle" x="760" y="-337.25" font-family="Helvetica,sans-Serif" font-size="10.00">CoreObject.h</text>
</a>
</g>
</g>
<!-- Node12&#45;&gt;Node15 -->
<g id="edge21_Node000012_Node000015" class="edge">
<title>Node12&#45;&gt;Node15</title>
<g id="a_edge21_Node000012_Node000015"><a xlink:title=" ">
<path fill="none" stroke="#63b8ff" d="M784.74,-496.78C773.51,-479.84 750.34,-441.93 742,-406 738.49,-390.88 743.66,-373.98 749.35,-361.36"/>
<polygon fill="#63b8ff" stroke="#63b8ff" points="752.44,-363.01 753.8,-352.51 746.18,-359.87 752.44,-363.01"/>
</a>
</g>
</g>
<!-- Node22 -->
<g id="Node000022" class="node">
<title>Node22</title>
<g id="a_Node000022"><a xlink:href="_synchronizable_8h.html" target="_top" xlink:title=" ">
<polygon fill="white" stroke="#666666" points="694.5,-406 603.5,-406 603.5,-386.75 694.5,-386.75 694.5,-406"/>
<text text-anchor="middle" x="649" y="-392.5" font-family="Helvetica,sans-Serif" font-size="10.00">Synchronizable.h</text>
</a>
</g>
</g>
<!-- Node12&#45;&gt;Node22 -->
<g id="edge31_Node000012_Node000022" class="edge">
<title>Node12&#45;&gt;Node22</title>
<g id="a_edge31_Node000012_Node000022"><a xlink:title=" ">
<path fill="none" stroke="#63b8ff" d="M770.36,-496.9C753.09,-488.88 728.24,-476.11 709,-461.25 691.56,-447.78 674.65,-429.11 663.25,-415.43"/>
<polygon fill="#63b8ff" stroke="#63b8ff" points="665.97,-413.23 656.95,-407.67 660.53,-417.64 665.97,-413.23"/>
</a>
</g>
</g>
<!-- Node23 -->
<g id="Node000023" class="node">
<title>Node23</title>
<g id="a_Node000023"><a xlink:href="_concurrency_8h.html" target="_top" xlink:title=" ">
<polygon fill="white" stroke="#666666" points="542.12,-350.75 463.88,-350.75 463.88,-331.5 542.12,-331.5 542.12,-350.75"/>
<text text-anchor="middle" x="503" y="-337.25" font-family="Helvetica,sans-Serif" font-size="10.00">Concurrency.h</text>
</a>
</g>
</g>
<!-- Node12&#45;&gt;Node23 -->
<g id="edge62_Node000012_Node000023" class="edge">
<title>Node12&#45;&gt;Node23</title>
<g id="a_edge62_Node000012_Node000023"><a xlink:title=" ">
<path fill="none" stroke="#63b8ff" d="M766.29,-496.83C744.28,-488.48 711.42,-475.27 684,-461.25 642.21,-439.87 633.23,-431.77 594,-406 569.77,-390.08 542.65,-370.86 524.37,-357.68"/>
<polygon fill="#63b8ff" stroke="#63b8ff" points="526.58,-354.96 516.42,-351.93 522.47,-360.63 526.58,-354.96"/>
</a>
</g>
</g>
<!-- Node28 -->
<g id="Node000028" class="node">
<title>Node28</title>
<g id="a_Node000028"><a xlink:href="_serializable_8h.html" target="_top" xlink:title=" ">
<polygon fill="white" stroke="#666666" points="547.25,-461.25 472.75,-461.25 472.75,-442 547.25,-442 547.25,-461.25"/>
<text text-anchor="middle" x="510" y="-447.75" font-family="Helvetica,sans-Serif" font-size="10.00">Serializable.h</text>
</a>
</g>
</g>
<!-- Node12&#45;&gt;Node28 -->
<g id="edge38_Node000012_Node000028" class="edge">
<title>Node12&#45;&gt;Node28</title>
<g id="a_edge38_Node000012_Node000028"><a xlink:title=" ">
<path fill="none" stroke="#63b8ff" d="M743.01,-496.78C691.57,-487.03 610.34,-471.64 558.65,-461.84"/>
<polygon fill="#63b8ff" stroke="#63b8ff" points="559.41,-458.43 548.94,-460 558.11,-465.3 559.41,-458.43"/>
</a>
</g>
</g>
<!-- Node29 -->
<g id="Node000029" class="node">
<title>Node29</title>
<g id="a_Node000029"><a xlink:href="_configurable_8h.html" target="_top" xlink:title=" ">
<polygon fill="white" stroke="#666666" points="897.5,-461.25 818.5,-461.25 818.5,-442 897.5,-442 897.5,-461.25"/>
<text text-anchor="middle" x="858" y="-447.75" font-family="Helvetica,sans-Serif" font-size="10.00">Configurable.h</text>
</a>
</g>
</g>
<!-- Node12&#45;&gt;Node29 -->
<g id="edge39_Node000012_Node000029" class="edge">
<title>Node12&#45;&gt;Node29</title>
<g id="a_edge39_Node000012_Node000029"><a xlink:title=" ">
<path fill="none" stroke="#63b8ff" d="M802.37,-496.84C812.05,-489.15 826.2,-477.9 837.81,-468.68"/>
<polygon fill="#63b8ff" stroke="#63b8ff" points="839.97,-471.43 845.62,-462.47 835.61,-465.95 839.97,-471.43"/>
</a>
</g>
</g>
<!-- Node34 -->
<g id="Node000034" class="node">
<title>Node34</title>
<g id="a_Node000034"><a xlink:title=" ">
<polygon fill="#e0e0e0" stroke="#999999" points="117.5,-185 74.5,-185 74.5,-165.75 117.5,-165.75 117.5,-185"/>
<text text-anchor="middle" x="96" y="-171.5" font-family="Helvetica,sans-Serif" font-size="10.00">vector</text>
</a>
</g>
</g>
<!-- Node12&#45;&gt;Node34 -->
<g id="edge66_Node000012_Node000034" class="edge">
<title>Node12&#45;&gt;Node34</title>
<g id="a_edge66_Node000012_Node000034"><a xlink:title=" ">
<path fill="none" stroke="#63b8ff" d="M743.01,-504.38C571.63,-498.39 0,-472.79 0,-397.38 0,-397.38 0,-397.38 0,-284.88 0,-255.26 0.67,-244.26 19,-221 30.5,-206.41 48.18,-195.68 63.71,-188.4"/>
<polygon fill="#63b8ff" stroke="#63b8ff" points="64.85,-191.72 72.62,-184.52 62.05,-185.3 64.85,-191.72"/>
</a>
</g>
</g>
<!-- Node42 -->
<g id="Node000042" class="node">
<title>Node42</title>
<g id="a_Node000042"><a xlink:href="_suspendable_8h.html" target="_top" xlink:title=" ">
<polygon fill="white" stroke="#666666" points="1009.25,-461.25 928.75,-461.25 928.75,-442 1009.25,-442 1009.25,-461.25"/>
<text text-anchor="middle" x="969" y="-447.75" font-family="Helvetica,sans-Serif" font-size="10.00">Suspendable.h</text>
</a>
</g>
</g>
<!-- Node12&#45;&gt;Node42 -->
<g id="edge63_Node000012_Node000042" class="edge">
<title>Node12&#45;&gt;Node42</title>
<g id="a_edge63_Node000012_Node000042"><a xlink:title=" ">
<path fill="none" stroke="#63b8ff" d="M821.2,-496.84C850.48,-488.08 895.12,-474.73 927.69,-464.98"/>
<polygon fill="#63b8ff" stroke="#63b8ff" points="928.63,-468.36 937.21,-462.14 926.62,-461.65 928.63,-468.36"/>
</a>
</g>
</g>
<!-- Node13&#45;&gt;Node3 -->
<g id="edge16_Node000013_Node000003" class="edge">
<title>Node13&#45;&gt;Node3</title>
<g id="a_edge16_Node000013_Node000003"><a xlink:title=" ">
<path fill="none" stroke="#63b8ff" d="M1060.92,-275.85C1077.11,-267.41 1101.34,-254.06 1121,-240.25 1141.86,-225.59 1163.85,-206.35 1178.59,-192.83"/>
<polygon fill="#63b8ff" stroke="#63b8ff" points="1180.7,-195.64 1185.65,-186.27 1175.94,-190.52 1180.7,-195.64"/>
</a>
</g>
</g>
<!-- Node13&#45;&gt;Node9 -->
<g id="edge17_Node000013_Node000009" class="edge">
<title>Node13&#45;&gt;Node9</title>
<g id="a_edge17_Node000013_Node000009"><a xlink:title=" ">
<path fill="none" stroke="#63b8ff" d="M1037.68,-276.03C1032.77,-267.29 1025.81,-253.37 1023,-240.25 1019.88,-225.66 1022.19,-208.92 1025.11,-196.23"/>
<polygon fill="#63b8ff" stroke="#63b8ff" points="1028.49,-197.16 1027.68,-186.6 1021.72,-195.36 1028.49,-197.16"/>
</a>
</g>
</g>
<!-- Node13&#45;&gt;Node14 -->
<g id="edge18_Node000013_Node000014" class="edge">
<title>Node13&#45;&gt;Node14</title>
<g id="a_edge18_Node000013_Node000014"><a xlink:title=" ">
<path fill="none" stroke="#63b8ff" d="M1047.79,-276.08C1051.54,-269.19 1056.91,-259.34 1061.63,-250.66"/>
<polygon fill="#63b8ff" stroke="#63b8ff" points="1064.67,-252.39 1066.38,-241.94 1058.53,-249.05 1064.67,-252.39"/>
</a>
</g>
</g>
<!-- Node14&#45;&gt;Node3 -->
<g id="edge19_Node000014_Node000003" class="edge">
<title>Node14&#45;&gt;Node3</title>
<g id="a_edge19_Node000014_Node000003"><a xlink:title=" ">
<path fill="none" stroke="#63b8ff" d="M1093.03,-220.59C1112.63,-212.18 1142.11,-199.52 1164.51,-189.9"/>
<polygon fill="#63b8ff" stroke="#63b8ff" points="1165.66,-193.21 1173.47,-186.05 1162.9,-186.78 1165.66,-193.21"/>
</a>
</g>
</g>
<!-- Node14&#45;&gt;Node9 -->
<g id="edge20_Node000014_Node000009" class="edge">
<title>Node14&#45;&gt;Node9</title>
<g id="a_edge20_Node000014_Node000009"><a xlink:title=" ">
<path fill="none" stroke="#63b8ff" d="M1065.23,-220.83C1059.68,-213.63 1051.66,-203.21 1044.77,-194.26"/>
<polygon fill="#63b8ff" stroke="#63b8ff" points="1047.71,-192.35 1038.84,-186.56 1042.17,-196.62 1047.71,-192.35"/>
</a>
</g>
</g>
<!-- Node16 -->
<g id="Node000016" class="node">
<title>Node16</title>
<g id="a_Node000016"><a xlink:href="_error_8h.html" target="_top" xlink:title=" ">
<polygon fill="white" stroke="#666666" points="798.25,-295.5 753.75,-295.5 753.75,-276.25 798.25,-276.25 798.25,-295.5"/>
<text text-anchor="middle" x="776" y="-282" font-family="Helvetica,sans-Serif" font-size="10.00">Error.h</text>
</a>
</g>
</g>
<!-- Node15&#45;&gt;Node16 -->
<g id="edge22_Node000015_Node000016" class="edge">
<title>Node15&#45;&gt;Node16</title>
<g id="a_edge22_Node000015_Node000016"><a xlink:title=" ">
<path fill="none" stroke="#63b8ff" d="M762.64,-331.33C764.64,-324.67 767.48,-315.24 770.02,-306.78"/>
<polygon fill="#63b8ff" stroke="#63b8ff" points="773.34,-307.89 772.86,-297.31 766.64,-305.88 773.34,-307.89"/>
</a>
</g>
</g>
<!-- Node20 -->
<g id="Node000020" class="node">
<title>Node20</title>
<g id="a_Node000020"><a xlink:href="_inspectable_8h.html" target="_top" xlink:title=" ">
<polygon fill="white" stroke="#666666" points="735.25,-295.5 660.75,-295.5 660.75,-276.25 735.25,-276.25 735.25,-295.5"/>
<text text-anchor="middle" x="698" y="-282" font-family="Helvetica,sans-Serif" font-size="10.00">Inspectable.h</text>
</a>
</g>
</g>
<!-- Node15&#45;&gt;Node20 -->
<g id="edge29_Node000015_Node000020" class="edge">
<title>Node15&#45;&gt;Node20</title>
<g id="a_edge29_Node000015_Node000020"><a xlink:title=" ">
<path fill="none" stroke="#63b8ff" d="M749.48,-331.09C740.61,-323.47 727.69,-312.37 717.01,-303.2"/>
<polygon fill="#63b8ff" stroke="#63b8ff" points="719.38,-300.62 709.51,-296.76 714.82,-305.93 719.38,-300.62"/>
</a>
</g>
</g>
<!-- Node17 -->
<g id="Node000017" class="node">
<title>Node17</title>
<g id="a_Node000017"><a xlink:href="_error_types_8h.html" target="_top" xlink:title=" ">
<polygon fill="white" stroke="#666666" points="899.75,-240.25 828.25,-240.25 828.25,-221 899.75,-221 899.75,-240.25"/>
<text text-anchor="middle" x="864" y="-226.75" font-family="Helvetica,sans-Serif" font-size="10.00">ErrorTypes.h</text>
</a>
</g>
</g>
<!-- Node16&#45;&gt;Node17 -->
<g id="edge23_Node000016_Node000017" class="edge">
<title>Node16&#45;&gt;Node17</title>
<g id="a_edge23_Node000016_Node000017"><a xlink:title=" ">
<path fill="none" stroke="#63b8ff" d="M790.93,-275.84C804.2,-267.81 823.87,-255.91 839.45,-246.48"/>
<polygon fill="#63b8ff" stroke="#63b8ff" points="840.96,-249.66 847.7,-241.49 837.34,-243.67 840.96,-249.66"/>
</a>
</g>
</g>
<!-- Node18 -->
<g id="Node000018" class="node">
<title>Node18</title>
<g id="a_Node000018"><a xlink:href="_exception_8h.html" target="_top" xlink:title=" ">
<polygon fill="white" stroke="#666666" points="809.88,-240.25 742.12,-240.25 742.12,-221 809.88,-221 809.88,-240.25"/>
<text text-anchor="middle" x="776" y="-226.75" font-family="Helvetica,sans-Serif" font-size="10.00">Exception.h</text>
</a>
</g>
</g>
<!-- Node16&#45;&gt;Node18 -->
<g id="edge26_Node000016_Node000018" class="edge">
<title>Node16&#45;&gt;Node18</title>
<g id="a_edge26_Node000016_Node000018"><a xlink:title=" ">
<path fill="none" stroke="#63b8ff" d="M776,-276.08C776,-269.57 776,-260.42 776,-252.12"/>
<polygon fill="#63b8ff" stroke="#63b8ff" points="779.5,-252.12 776,-242.12 772.5,-252.12 779.5,-252.12"/>
</a>
</g>
</g>
<!-- Node17&#45;&gt;Node3 -->
<g id="edge24_Node000017_Node000003" class="edge">
<title>Node17&#45;&gt;Node3</title>
<g id="a_edge24_Node000017_Node000003"><a xlink:title=" ">
<path fill="none" stroke="#63b8ff" d="M900.16,-223.82C962.94,-213.76 1091.6,-193.12 1156.58,-182.7"/>
<polygon fill="#63b8ff" stroke="#63b8ff" points="1156.76,-186.21 1166.08,-181.17 1155.65,-179.3 1156.76,-186.21"/>
</a>
</g>
</g>
<!-- Node17&#45;&gt;Node9 -->
<g id="edge25_Node000017_Node000009" class="edge">
<title>Node17&#45;&gt;Node9</title>
<g id="a_edge25_Node000017_Node000009"><a xlink:title=" ">
<path fill="none" stroke="#63b8ff" d="M892.33,-220.59C919.68,-211.87 961.32,-198.59 991.84,-188.86"/>
<polygon fill="#63b8ff" stroke="#63b8ff" points="992.63,-192.28 1001.09,-185.91 990.5,-185.62 992.63,-192.28"/>
</a>
</g>
</g>
<!-- Node18&#45;&gt;Node5 -->
<g id="edge27_Node000018_Node000005" class="edge">
<title>Node18&#45;&gt;Node5</title>
<g id="a_edge27_Node000018_Node000005"><a xlink:title=" ">
<path fill="none" stroke="#63b8ff" d="M761.6,-220.59C718.82,-193.75 592.19,-114.3 538.98,-80.92"/>
<polygon fill="#63b8ff" stroke="#63b8ff" points="540.97,-78.04 530.64,-75.69 537.25,-83.97 540.97,-78.04"/>
</a>
</g>
</g>
<!-- Node19 -->
<g id="Node000019" class="node">
<title>Node19</title>
<g id="a_Node000019"><a xlink:title=" ">
<polygon fill="#e0e0e0" stroke="#999999" points="805,-185 747,-185 747,-165.75 805,-165.75 805,-185"/>
<text text-anchor="middle" x="776" y="-171.5" font-family="Helvetica,sans-Serif" font-size="10.00">exception</text>
</a>
</g>
</g>
<!-- Node18&#45;&gt;Node19 -->
<g id="edge28_Node000018_Node000019" class="edge">
<title>Node18&#45;&gt;Node19</title>
<g id="a_edge28_Node000018_Node000019"><a xlink:title=" ">
<path fill="none" stroke="#63b8ff" d="M776,-220.83C776,-214.32 776,-205.17 776,-196.87"/>
<polygon fill="#63b8ff" stroke="#63b8ff" points="779.5,-196.87 776,-186.87 772.5,-196.87 779.5,-196.87"/>
</a>
</g>
</g>
<!-- Node21 -->
<g id="Node000021" class="node">
<title>Node21</title>
<g id="a_Node000021"><a xlink:title=" ">
<polygon fill="#e0e0e0" stroke="#999999" points="723.75,-240.25 670.25,-240.25 670.25,-221 723.75,-221 723.75,-240.25"/>
<text text-anchor="middle" x="697" y="-226.75" font-family="Helvetica,sans-Serif" font-size="10.00">iostream</text>
</a>
</g>
</g>
<!-- Node20&#45;&gt;Node21 -->
<g id="edge30_Node000020_Node000021" class="edge">
<title>Node20&#45;&gt;Node21</title>
<g id="a_edge30_Node000020_Node000021"><a xlink:title=" ">
<path fill="none" stroke="#63b8ff" d="M697.83,-276.08C697.71,-269.57 697.54,-260.42 697.38,-252.12"/>
<polygon fill="#63b8ff" stroke="#63b8ff" points="700.88,-252.05 697.2,-242.12 693.89,-252.19 700.88,-252.05"/>
</a>
</g>
</g>
<!-- Node22&#45;&gt;Node23 -->
<g id="edge32_Node000022_Node000023" class="edge">
<title>Node22&#45;&gt;Node23</title>
<g id="a_edge32_Node000022_Node000023"><a xlink:title=" ">
<path fill="none" stroke="#63b8ff" d="M624.23,-386.34C600.74,-377.77 565.19,-364.81 538.65,-355.13"/>
<polygon fill="#63b8ff" stroke="#63b8ff" points="539.9,-351.86 529.31,-351.72 537.51,-358.44 539.9,-351.86"/>
</a>
</g>
</g>
<!-- Node24 -->
<g id="Node000024" class="node">
<title>Node24</title>
<g id="a_Node000024"><a xlink:href="_chrono_8h.html" target="_top" xlink:title=" ">
<polygon fill="white" stroke="#666666" points="83.88,-295.5 28.12,-295.5 28.12,-276.25 83.88,-276.25 83.88,-295.5"/>
<text text-anchor="middle" x="56" y="-282" font-family="Helvetica,sans-Serif" font-size="10.00">Chrono.h</text>
</a>
</g>
</g>
<!-- Node23&#45;&gt;Node24 -->
<g id="edge33_Node000023_Node000024" class="edge">
<title>Node23&#45;&gt;Node24</title>
<g id="a_edge33_Node000023_Node000024"><a xlink:title=" ">
<path fill="none" stroke="#63b8ff" d="M463.72,-335.45C379.08,-325.36 180.28,-301.68 95.47,-291.58"/>
<polygon fill="#63b8ff" stroke="#63b8ff" points="96.13,-288.13 85.78,-290.42 95.3,-295.08 96.13,-288.13"/>
</a>
</g>
</g>
<!-- Node26 -->
<g id="Node000026" class="node">
<title>Node26</title>
<g id="a_Node000026"><a xlink:title=" ">
<polygon fill="#e0e0e0" stroke="#999999" points="391.5,-295.5 348.5,-295.5 348.5,-276.25 391.5,-276.25 391.5,-295.5"/>
<text text-anchor="middle" x="370" y="-282" font-family="Helvetica,sans-Serif" font-size="10.00">thread</text>
</a>
</g>
</g>
<!-- Node23&#45;&gt;Node26 -->
<g id="edge36_Node000023_Node000026" class="edge">
<title>Node23&#45;&gt;Node26</title>
<g id="a_edge36_Node000023_Node000026"><a xlink:title=" ">
<path fill="none" stroke="#63b8ff" d="M480.44,-331.09C458.97,-322.5 426.45,-309.48 402.25,-299.79"/>
<polygon fill="#63b8ff" stroke="#63b8ff" points="403.78,-296.63 393.19,-296.16 401.18,-303.13 403.78,-296.63"/>
</a>
</g>
</g>
<!-- Node27 -->
<g id="Node000027" class="node">
<title>Node27</title>
<g id="a_Node000027"><a xlink:title=" ">
<polygon fill="#e0e0e0" stroke="#999999" points="450.38,-295.5 409.62,-295.5 409.62,-276.25 450.38,-276.25 450.38,-295.5"/>
<text text-anchor="middle" x="430" y="-282" font-family="Helvetica,sans-Serif" font-size="10.00">future</text>
</a>
</g>
</g>
<!-- Node23&#45;&gt;Node27 -->
<g id="edge37_Node000023_Node000027" class="edge">
<title>Node23&#45;&gt;Node27</title>
<g id="a_edge37_Node000023_Node000027"><a xlink:title=" ">
<path fill="none" stroke="#63b8ff" d="M490.62,-331.09C479.85,-323.24 464.03,-311.7 451.25,-302.37"/>
<polygon fill="#63b8ff" stroke="#63b8ff" points="453.56,-299.73 443.42,-296.67 449.44,-305.39 453.56,-299.73"/>
</a>
</g>
</g>
<!-- Node24&#45;&gt;Node5 -->
<g id="edge34_Node000024_Node000005" class="edge">
<title>Node24&#45;&gt;Node5</title>
<g id="a_edge34_Node000024_Node000005"><a xlink:title=" ">
<path fill="none" stroke="#63b8ff" d="M44.71,-275.87C31.23,-263.94 11.41,-241.97 19,-221 29.87,-190.95 37.72,-182.38 65,-165.75 201.12,-82.77 397.87,-68.46 478.48,-66.19"/>
<polygon fill="#63b8ff" stroke="#63b8ff" points="478.08,-69.7 487.99,-65.97 477.92,-62.7 478.08,-69.7"/>
</a>
</g>
</g>
<!-- Node25 -->
<g id="Node000025" class="node">
<title>Node25</title>
<g id="a_Node000025"><a xlink:title=" ">
<polygon fill="#e0e0e0" stroke="#999999" points="68,-240.25 28,-240.25 28,-221 68,-221 68,-240.25"/>
<text text-anchor="middle" x="48" y="-226.75" font-family="Helvetica,sans-Serif" font-size="10.00">ctime</text>
</a>
</g>
</g>
<!-- Node24&#45;&gt;Node25 -->
<g id="edge35_Node000024_Node000025" class="edge">
<title>Node24&#45;&gt;Node25</title>
<g id="a_edge35_Node000024_Node000025"><a xlink:title=" ">
<path fill="none" stroke="#63b8ff" d="M54.68,-276.08C53.69,-269.49 52.29,-260.21 51.03,-251.82"/>
<polygon fill="#63b8ff" stroke="#63b8ff" points="54.52,-251.47 49.57,-242.11 47.6,-252.51 54.52,-251.47"/>
</a>
</g>
</g>
<!-- Node29&#45;&gt;Node9 -->
<g id="edge43_Node000029_Node000009" class="edge">
<title>Node29&#45;&gt;Node9</title>
<g id="a_edge43_Node000029_Node000009"><a xlink:title=" ">
<path fill="none" stroke="#63b8ff" d="M866.24,-441.83C874.16,-433.13 886.19,-419.24 895,-406 915.71,-374.89 916.08,-364.29 934,-331.5 961.11,-281.89 965.8,-268.14 997,-221 1003.04,-211.88 1010.32,-202.17 1016.6,-194.14"/>
<polygon fill="#63b8ff" stroke="#63b8ff" points="1019.17,-196.53 1022.66,-186.53 1013.69,-192.17 1019.17,-196.53"/>
</a>
</g>
</g>
<!-- Node30 -->
<g id="Node000030" class="node">
<title>Node30</title>
<g id="a_Node000030"><a xlink:href="_option_types_8h.html" target="_top" xlink:title=" ">
<polygon fill="white" stroke="#666666" points="1021.5,-350.75 942.5,-350.75 942.5,-331.5 1021.5,-331.5 1021.5,-350.75"/>
<text text-anchor="middle" x="982" y="-337.25" font-family="Helvetica,sans-Serif" font-size="10.00">OptionTypes.h</text>
</a>
</g>
</g>
<!-- Node29&#45;&gt;Node30 -->
<g id="edge40_Node000029_Node000030" class="edge">
<title>Node29&#45;&gt;Node30</title>
<g id="a_edge40_Node000029_Node000030"><a xlink:title=" ">
<path fill="none" stroke="#63b8ff" d="M875.1,-441.65C889.92,-433.45 911.51,-420.42 928,-406 943.68,-392.29 958.74,-373.89 968.96,-360.36"/>
<polygon fill="#63b8ff" stroke="#63b8ff" points="971.75,-362.47 974.85,-352.34 966.11,-358.33 971.75,-362.47"/>
</a>
</g>
</g>
<!-- Node31 -->
<g id="Node000031" class="node">
<title>Node31</title>
<g id="a_Node000031"><a xlink:href="_defaults_8h.html" target="_top" xlink:title=" ">
<polygon fill="white" stroke="#666666" points="812.5,-406 751.5,-406 751.5,-386.75 812.5,-386.75 812.5,-406"/>
<text text-anchor="middle" x="782" y="-392.5" font-family="Helvetica,sans-Serif" font-size="10.00">Defaults.h</text>
</a>
</g>
</g>
<!-- Node29&#45;&gt;Node31 -->
<g id="edge44_Node000029_Node000031" class="edge">
<title>Node29&#45;&gt;Node31</title>
<g id="a_edge44_Node000029_Node000031"><a xlink:title=" ">
<path fill="none" stroke="#63b8ff" d="M845.11,-441.59C833.97,-433.79 817.63,-422.34 804.36,-413.04"/>
<polygon fill="#63b8ff" stroke="#63b8ff" points="806.39,-410.19 796.2,-407.32 802.38,-415.93 806.39,-410.19"/>
</a>
</g>
</g>
<!-- Node41 -->
<g id="Node000041" class="node">
<title>Node41</title>
<g id="a_Node000041"><a xlink:title=" ">
<polygon fill="#e0e0e0" stroke="#999999" points="885.88,-406 830.12,-406 830.12,-386.75 885.88,-386.75 885.88,-406"/>
<text text-anchor="middle" x="858" y="-392.5" font-family="Helvetica,sans-Serif" font-size="10.00">algorithm</text>
</a>
</g>
</g>
<!-- Node29&#45;&gt;Node41 -->
<g id="edge61_Node000029_Node000041" class="edge">
<title>Node29&#45;&gt;Node41</title>
<g id="a_edge61_Node000029_Node000041"><a xlink:title=" ">
<path fill="none" stroke="#63b8ff" d="M858,-441.83C858,-435.32 858,-426.17 858,-417.87"/>
<polygon fill="#63b8ff" stroke="#63b8ff" points="861.5,-417.87 858,-407.87 854.5,-417.87 861.5,-417.87"/>
</a>
</g>
</g>
<!-- Node30&#45;&gt;Node3 -->
<g id="edge41_Node000030_Node000003" class="edge">
<title>Node30&#45;&gt;Node3</title>
<g id="a_edge41_Node000030_Node000003"><a xlink:title=" ">
<path fill="none" stroke="#63b8ff" d="M1021.97,-340.61C1101.37,-340.66 1274.78,-336.01 1315,-295.5 1338.43,-271.9 1341.19,-248.16 1322,-221 1302.61,-193.56 1264.85,-182.89 1235.7,-178.79"/>
<polygon fill="#63b8ff" stroke="#63b8ff" points="1236.46,-175.35 1226.12,-177.66 1235.64,-182.3 1236.46,-175.35"/>
</a>
</g>
</g>
<!-- Node30&#45;&gt;Node9 -->
<g id="edge42_Node000030_Node000009" class="edge">
<title>Node30&#45;&gt;Node9</title>
<g id="a_edge42_Node000030_Node000009"><a xlink:title=" ">
<path fill="none" stroke="#63b8ff" d="M982.17,-331.3C982.58,-318.84 984.02,-295.47 989,-276.25 996.57,-247.03 1011.16,-215.19 1020.99,-195.5"/>
<polygon fill="#63b8ff" stroke="#63b8ff" points="1024.01,-197.27 1025.45,-186.77 1017.78,-194.09 1024.01,-197.27"/>
</a>
</g>
</g>
<!-- Node31&#45;&gt;Node15 -->
<g id="edge45_Node000031_Node000015" class="edge">
<title>Node31&#45;&gt;Node15</title>
<g id="a_edge45_Node000031_Node000015"><a xlink:title=" ">
<path fill="none" stroke="#63b8ff" d="M778.37,-386.58C775.58,-379.84 771.63,-370.27 768.1,-361.74"/>
<polygon fill="#63b8ff" stroke="#63b8ff" points="771.34,-360.41 764.29,-352.51 764.87,-363.09 771.34,-360.41"/>
</a>
</g>
</g>
<!-- Node31&#45;&gt;Node23 -->
<g id="edge47_Node000031_Node000023" class="edge">
<title>Node31&#45;&gt;Node23</title>
<g id="a_edge47_Node000031_Node000023"><a xlink:title=" ">
<path fill="none" stroke="#63b8ff" d="M751.08,-389.47C703.33,-380.36 611.16,-362.77 553.6,-351.78"/>
<polygon fill="#63b8ff" stroke="#63b8ff" points="554.54,-348.4 544.06,-349.96 553.23,-355.27 554.54,-348.4"/>
</a>
</g>
</g>
<!-- Node31&#45;&gt;Node30 -->
<g id="edge46_Node000031_Node000030" class="edge">
<title>Node31&#45;&gt;Node30</title>
<g id="a_edge46_Node000031_Node000030"><a xlink:title=" ">
<path fill="none" stroke="#63b8ff" d="M812.81,-387.17C846.02,-378.33 899.2,-364.17 937.07,-354.09"/>
<polygon fill="#63b8ff" stroke="#63b8ff" points="937.58,-357.58 946.34,-351.62 935.77,-350.81 937.58,-357.58"/>
</a>
</g>
</g>
<!-- Node32 -->
<g id="Node000032" class="node">
<title>Node32</title>
<g id="a_Node000032"><a xlink:href="_i_o_utils_8h.html" target="_top" xlink:title=" ">
<polygon fill="white" stroke="#666666" points="523.5,-295.5 468.5,-295.5 468.5,-276.25 523.5,-276.25 523.5,-295.5"/>
<text text-anchor="middle" x="496" y="-282" font-family="Helvetica,sans-Serif" font-size="10.00">IOUtils.h</text>
</a>
</g>
</g>
<!-- Node31&#45;&gt;Node32 -->
<g id="edge48_Node000031_Node000032" class="edge">
<title>Node31&#45;&gt;Node32</title>
<g id="a_edge48_Node000031_Node000032"><a xlink:title=" ">
<path fill="none" stroke="#63b8ff" d="M758.11,-386.31C707.53,-367.12 589.48,-322.34 530.63,-300.01"/>
<polygon fill="#63b8ff" stroke="#63b8ff" points="532.03,-296.8 521.44,-296.53 529.55,-303.35 532.03,-296.8"/>
</a>
</g>
</g>
<!-- Node32&#45;&gt;Node5 -->
<g id="edge49_Node000032_Node000005" class="edge">
<title>Node32&#45;&gt;Node5</title>
<g id="a_edge49_Node000032_Node000005"><a xlink:title=" ">
<path fill="none" stroke="#63b8ff" d="M496.77,-276.02C499.57,-243.76 509.26,-132.01 513.26,-85.96"/>
<polygon fill="#63b8ff" stroke="#63b8ff" points="516.73,-86.37 514.11,-76.11 509.76,-85.77 516.73,-86.37"/>
</a>
</g>
</g>
<!-- Node32&#45;&gt;Node21 -->
<g id="edge57_Node000032_Node000021" class="edge">
<title>Node32&#45;&gt;Node21</title>
<g id="a_edge57_Node000032_Node000021"><a xlink:title=" ">
<path fill="none" stroke="#63b8ff" d="M523.95,-277.47C559.1,-268.16 619.59,-252.13 658.94,-241.71"/>
<polygon fill="#63b8ff" stroke="#63b8ff" points="659.7,-245.13 668.47,-239.18 657.91,-238.36 659.7,-245.13"/>
</a>
</g>
</g>
<!-- Node33 -->
<g id="Node000033" class="node">
<title>Node33</title>
<g id="a_Node000033"><a xlink:href="_string_utils_8h.html" target="_top" xlink:title=" ">
<polygon fill="white" stroke="#666666" points="194,-240.25 124,-240.25 124,-221 194,-221 194,-240.25"/>
<text text-anchor="middle" x="159" y="-226.75" font-family="Helvetica,sans-Serif" font-size="10.00">StringUtils.h</text>
</a>
</g>
</g>
<!-- Node32&#45;&gt;Node33 -->
<g id="edge50_Node000032_Node000033" class="edge">
<title>Node32&#45;&gt;Node33</title>
<g id="a_edge50_Node000032_Node000033"><a xlink:title=" ">
<path fill="none" stroke="#63b8ff" d="M468.18,-278.11C465.09,-277.44 461.98,-276.81 459,-276.25 349.58,-255.85 318.25,-259.07 205.23,-240.53"/>
<polygon fill="#63b8ff" stroke="#63b8ff" points="205.97,-237.11 195.53,-238.92 204.82,-244.01 205.97,-237.11"/>
</a>
</g>
</g>
<!-- Node32&#45;&gt;Node34 -->
<g id="edge60_Node000032_Node000034" class="edge">
<title>Node32&#45;&gt;Node34</title>
<g id="a_edge60_Node000032_Node000034"><a xlink:title=" ">
<path fill="none" stroke="#63b8ff" d="M468.19,-278C465.1,-277.35 461.99,-276.75 459,-276.25 383.2,-263.5 174.13,-289.35 115,-240.25 102.33,-229.73 97.88,-211.17 96.42,-196.75"/>
<polygon fill="#63b8ff" stroke="#63b8ff" points="99.92,-196.76 95.86,-186.97 92.94,-197.16 99.92,-196.76"/>
</a>
</g>
</g>
<!-- Node35 -->
<g id="Node000035" class="node">
<title>Node35</title>
<g id="a_Node000035"><a xlink:title=" ">
<polygon fill="#e0e0e0" stroke="#999999" points="467.5,-240.25 424.5,-240.25 424.5,-221 467.5,-221 467.5,-240.25"/>
<text text-anchor="middle" x="446" y="-226.75" font-family="Helvetica,sans-Serif" font-size="10.00">fcntl.h</text>
</a>
</g>
</g>
<!-- Node32&#45;&gt;Node35 -->
<g id="edge53_Node000032_Node000035" class="edge">
<title>Node32&#45;&gt;Node35</title>
<g id="a_edge53_Node000032_Node000035"><a xlink:title=" ">
<path fill="none" stroke="#63b8ff" d="M487.74,-276.08C480.84,-268.73 470.78,-258.01 462.26,-248.94"/>
<polygon fill="#63b8ff" stroke="#63b8ff" points="464.87,-246.61 455.47,-241.71 459.77,-251.4 464.87,-246.61"/>
</a>
</g>
</g>
<!-- Node36 -->
<g id="Node000036" class="node">
<title>Node36</title>
<g id="a_Node000036"><a xlink:title=" ">
<polygon fill="#e0e0e0" stroke="#999999" points="585.5,-240.25 524.5,-240.25 524.5,-221 585.5,-221 585.5,-240.25"/>
<text text-anchor="middle" x="555" y="-226.75" font-family="Helvetica,sans-Serif" font-size="10.00">filesystem</text>
</a>
</g>
</g>
<!-- Node32&#45;&gt;Node36 -->
<g id="edge54_Node000032_Node000036" class="edge">
<title>Node32&#45;&gt;Node36</title>
<g id="a_edge54_Node000032_Node000036"><a xlink:title=" ">
<path fill="none" stroke="#63b8ff" d="M506.01,-275.84C514.37,-268.3 526.5,-257.35 536.6,-248.23"/>
<polygon fill="#63b8ff" stroke="#63b8ff" points="538.94,-250.84 544.02,-241.54 534.25,-245.64 538.94,-250.84"/>
</a>
</g>
</g>
<!-- Node37 -->
<g id="Node000037" class="node">
<title>Node37</title>
<g id="a_Node000037"><a xlink:title=" ">
<polygon fill="#e0e0e0" stroke="#999999" points="652.5,-240.25 603.5,-240.25 603.5,-221 652.5,-221 652.5,-240.25"/>
<text text-anchor="middle" x="628" y="-226.75" font-family="Helvetica,sans-Serif" font-size="10.00">fstream</text>
</a>
</g>
</g>
<!-- Node32&#45;&gt;Node37 -->
<g id="edge55_Node000032_Node000037" class="edge">
<title>Node32&#45;&gt;Node37</title>
<g id="a_edge55_Node000032_Node000037"><a xlink:title=" ">
<path fill="none" stroke="#63b8ff" d="M518.39,-275.84C539.44,-267.35 571.2,-254.54 595.12,-244.89"/>
<polygon fill="#63b8ff" stroke="#63b8ff" points="596.13,-248.26 604.09,-241.27 593.51,-241.76 596.13,-248.26"/>
</a>
</g>
</g>
<!-- Node38 -->
<g id="Node000038" class="node">
<title>Node38</title>
<g id="a_Node000038"><a xlink:title=" ">
<polygon fill="#e0e0e0" stroke="#999999" points="260.12,-240.25 211.88,-240.25 211.88,-221 260.12,-221 260.12,-240.25"/>
<text text-anchor="middle" x="236" y="-226.75" font-family="Helvetica,sans-Serif" font-size="10.00">istream</text>
</a>
</g>
</g>
<!-- Node32&#45;&gt;Node38 -->
<g id="edge56_Node000032_Node000038" class="edge">
<title>Node32&#45;&gt;Node38</title>
<g id="a_edge56_Node000032_Node000038"><a xlink:title=" ">
<path fill="none" stroke="#63b8ff" d="M468.15,-278.25C465.06,-277.56 461.97,-276.88 459,-276.25 378.36,-259.22 354.76,-259.11 271.48,-240.68"/>
<polygon fill="#63b8ff" stroke="#63b8ff" points="272.46,-237.32 261.94,-238.55 270.93,-244.15 272.46,-237.32"/>
</a>
</g>
</g>
<!-- Node39 -->
<g id="Node000039" class="node">
<title>Node39</title>
<g id="a_Node000039"><a xlink:title=" ">
<polygon fill="#e0e0e0" stroke="#999999" points="329.62,-240.25 278.38,-240.25 278.38,-221 329.62,-221 329.62,-240.25"/>
<text text-anchor="middle" x="304" y="-226.75" font-family="Helvetica,sans-Serif" font-size="10.00">sstream</text>
</a>
</g>
</g>
<!-- Node32&#45;&gt;Node39 -->
<g id="edge58_Node000032_Node000039" class="edge">
<title>Node32&#45;&gt;Node39</title>
<g id="a_edge58_Node000032_Node000039"><a xlink:title=" ">
<path fill="none" stroke="#63b8ff" d="M468.08,-277.13C434.53,-267.83 378.11,-252.18 340.97,-241.88"/>
<polygon fill="#63b8ff" stroke="#63b8ff" points="342.13,-238.57 331.56,-239.27 340.26,-245.31 342.13,-238.57"/>
</a>
</g>
</g>
<!-- Node40 -->
<g id="Node000040" class="node">
<title>Node40</title>
<g id="a_Node000040"><a xlink:title=" ">
<polygon fill="#e0e0e0" stroke="#999999" points="406.75,-240.25 347.25,-240.25 347.25,-221 406.75,-221 406.75,-240.25"/>
<text text-anchor="middle" x="377" y="-226.75" font-family="Helvetica,sans-Serif" font-size="10.00">sys/stat.h</text>
</a>
</g>
</g>
<!-- Node32&#45;&gt;Node40 -->
<g id="edge59_Node000032_Node000040" class="edge">
<title>Node32&#45;&gt;Node40</title>
<g id="a_edge59_Node000032_Node000040"><a xlink:title=" ">
<path fill="none" stroke="#63b8ff" d="M475.81,-275.84C457.09,-267.47 428.98,-254.88 407.52,-245.28"/>
<polygon fill="#63b8ff" stroke="#63b8ff" points="409.22,-242.21 398.67,-241.32 406.37,-248.6 409.22,-242.21"/>
</a>
</g>
</g>
<!-- Node33&#45;&gt;Node5 -->
<g id="edge51_Node000033_Node000005" class="edge">
<title>Node33&#45;&gt;Node5</title>
<g id="a_edge51_Node000033_Node000005"><a xlink:title=" ">
<path fill="none" stroke="#63b8ff" d="M178.65,-220.59C237.73,-193.41 414.05,-112.31 484.97,-79.69"/>
<polygon fill="#63b8ff" stroke="#63b8ff" points="486.42,-82.88 494.04,-75.52 483.49,-76.52 486.42,-82.88"/>
</a>
</g>
</g>
<!-- Node33&#45;&gt;Node34 -->
<g id="edge52_Node000033_Node000034" class="edge">
<title>Node33&#45;&gt;Node34</title>
<g id="a_edge52_Node000033_Node000034"><a xlink:title=" ">
<path fill="none" stroke="#63b8ff" d="M148.31,-220.59C139.3,-212.97 126.17,-201.87 115.32,-192.7"/>
<polygon fill="#63b8ff" stroke="#63b8ff" points="117.58,-190.03 107.69,-186.25 113.06,-195.38 117.58,-190.03"/>
</a>
</g>
</g>
<!-- Node43 -->
<g id="Node000043" class="node">
<title>Node43</title>
<g id="a_Node000043"><a xlink:title=" ">
<polygon fill="#e0e0e0" stroke="#999999" points="1022.12,-406 979.88,-406 979.88,-386.75 1022.12,-386.75 1022.12,-406"/>
<text text-anchor="middle" x="1001" y="-392.5" font-family="Helvetica,sans-Serif" font-size="10.00">cstdio</text>
</a>
</g>
</g>
<!-- Node42&#45;&gt;Node43 -->
<g id="edge64_Node000042_Node000043" class="edge">
<title>Node42&#45;&gt;Node43</title>
<g id="a_edge64_Node000042_Node000043"><a xlink:title=" ">
<path fill="none" stroke="#63b8ff" d="M974.28,-441.83C978.47,-434.86 984.48,-424.87 989.73,-416.12"/>
<polygon fill="#63b8ff" stroke="#63b8ff" points="992.67,-418.03 994.82,-407.66 986.67,-414.43 992.67,-418.03"/>
</a>
</g>
</g>
<!-- Node44&#45;&gt;Node3 -->
<g id="edge68_Node000044_Node000003" class="edge">
<title>Node44&#45;&gt;Node3</title>
<g id="a_edge68_Node000044_Node000003"><a xlink:title=" ">
<path fill="none" stroke="#63b8ff" d="M1391.49,-221.25C1349.09,-211.51 1279.38,-195.51 1235.67,-185.48"/>
<polygon fill="#63b8ff" stroke="#63b8ff" points="1236.62,-182.11 1226.09,-183.28 1235.05,-188.93 1236.62,-182.11"/>
</a>
</g>
</g>
<!-- Node44&#45;&gt;Node9 -->
<g id="edge69_Node000044_Node000009" class="edge">
<title>Node44&#45;&gt;Node9</title>
<g id="a_edge69_Node000044_Node000009"><a xlink:title=" ">
<path fill="none" stroke="#63b8ff" d="M1391.72,-224.76C1319.2,-215.03 1156.49,-193.21 1076.77,-182.51"/>
<polygon fill="#63b8ff" stroke="#63b8ff" points="1077.51,-179.08 1067.14,-181.22 1076.58,-186.02 1077.51,-179.08"/>
</a>
</g>
</g>
<!-- Node45 -->
<g id="Node000045" class="node">
<title>Node45</title>
<g id="a_Node000045"><a xlink:href="_peddle_types_8h.html" target="_top" xlink:title=" ">
<polygon fill="white" stroke="#666666" points="1195.25,-129.75 1114.75,-129.75 1114.75,-110.5 1195.25,-110.5 1195.25,-129.75"/>
<text text-anchor="middle" x="1155" y="-116.25" font-family="Helvetica,sans-Serif" font-size="10.00">PeddleTypes.h</text>
</a>
</g>
</g>
<!-- Node44&#45;&gt;Node45 -->
<g id="edge70_Node000044_Node000045" class="edge">
<title>Node44&#45;&gt;Node45</title>
<g id="a_edge70_Node000044_Node000045"><a xlink:title=" ">
<path fill="none" stroke="#63b8ff" d="M1405.19,-220.56C1357.02,-201.41 1244.7,-156.78 1188.41,-134.4"/>
<polygon fill="#63b8ff" stroke="#63b8ff" points="1189.93,-131.24 1179.34,-130.8 1187.34,-137.74 1189.93,-131.24"/>
</a>
</g>
</g>
<!-- Node45&#45;&gt;Node5 -->
<g id="edge71_Node000045_Node000005" class="edge">
<title>Node45&#45;&gt;Node5</title>
<g id="a_edge71_Node000045_Node000005"><a xlink:title=" ">
<path fill="none" stroke="#63b8ff" d="M1114.48,-115.75C998.09,-106.07 664,-78.27 552.06,-68.96"/>
<polygon fill="#63b8ff" stroke="#63b8ff" points="552.49,-65.48 542.24,-68.14 551.91,-72.46 552.49,-65.48"/>
</a>
</g>
</g>
</g>
</svg>
