<?xml version="1.0" encoding="UTF-8" standalone="no"?>
<!DOCTYPE svg PUBLIC "-//W3C//DTD SVG 1.1//EN"
 "http://www.w3.org/Graphics/SVG/1.1/DTD/svg11.dtd">
<!-- Generated by graphviz version 10.0.1 (20240210.2158)
 -->
<!-- Title: /Users/hoff/Retro/virtualc64/Emulator/Peripherals/Drive/ParCableTypes.h Pages: 1 -->
<svg width="497pt" height="549pt"
 viewBox="0.00 0.00 497.00 549.00" xmlns="http://www.w3.org/2000/svg" xmlns:xlink="http://www.w3.org/1999/xlink">
<g id="graph0" class="graph" transform="scale(1 1) rotate(0) translate(4 545)">
<title>/Users/hoff/Retro/virtualc64/Emulator/Peripherals/Drive/ParCableTypes.h</title>
<!-- Node1 -->
<g id="Node000001" class="node">
<title>Node1</title>
<g id="a_Node000001"><a xlink:title=" ">
<polygon fill="#999999" stroke="#666666" points="316.75,-541 180,-541 180,-499.25 316.75,-499.25 316.75,-541"/>
<text text-anchor="start" x="188" y="-527.5" font-family="Helvetica,sans-Serif" font-size="10.00">/Users/hoff/Retro/virtualc64</text>
<text text-anchor="start" x="188" y="-516.25" font-family="Helvetica,sans-Serif" font-size="10.00">/Emulator/Peripherals/Drive</text>
<text text-anchor="middle" x="248.38" y="-505" font-family="Helvetica,sans-Serif" font-size="10.00">/ParCableTypes.h</text>
</a>
</g>
</g>
<!-- Node2 -->
<g id="Node000002" class="node">
<title>Node2</title>
<g id="a_Node000002"><a xlink:href="_drive_types_8h.html" target="_top" xlink:title=" ">
<polygon fill="white" stroke="#666666" points="316.75,-463.25 180,-463.25 180,-421.5 316.75,-421.5 316.75,-463.25"/>
<text text-anchor="start" x="188" y="-449.75" font-family="Helvetica,sans-Serif" font-size="10.00">/Users/hoff/Retro/virtualc64</text>
<text text-anchor="start" x="188" y="-438.5" font-family="Helvetica,sans-Serif" font-size="10.00">/Emulator/Peripherals/Drive</text>
<text text-anchor="middle" x="248.38" y="-427.25" font-family="Helvetica,sans-Serif" font-size="10.00">/DriveTypes.h</text>
</a>
</g>
</g>
<!-- Node1&#45;&gt;Node2 -->
<g id="edge1_Node000001_Node000002" class="edge">
<title>Node1&#45;&gt;Node2</title>
<g id="a_edge1_Node000001_Node000002"><a xlink:title=" ">
<path fill="none" stroke="#63b8ff" d="M248.38,-487.5C248.38,-479.46 248.38,-471.04 248.38,-463.73"/>
<polygon fill="#63b8ff" stroke="#63b8ff" points="244.88,-487.31 248.38,-497.31 251.88,-487.31 244.88,-487.31"/>
</a>
</g>
</g>
<!-- Node9 -->
<g id="Node000009" class="node">
<title>Node9</title>
<g id="a_Node000009"><a xlink:href="_par_cable_8h_source.html" target="_top" xlink:title=" ">
<polygon fill="white" stroke="#666666" points="136.75,-385.5 0,-385.5 0,-343.75 136.75,-343.75 136.75,-385.5"/>
<text text-anchor="start" x="8" y="-372" font-family="Helvetica,sans-Serif" font-size="10.00">/Users/hoff/Retro/virtualc64</text>
<text text-anchor="start" x="8" y="-360.75" font-family="Helvetica,sans-Serif" font-size="10.00">/Emulator/Peripherals/Drive</text>
<text text-anchor="middle" x="68.38" y="-349.5" font-family="Helvetica,sans-Serif" font-size="10.00">/ParCable.h</text>
</a>
</g>
</g>
<!-- Node1&#45;&gt;Node9 -->
<g id="edge14_Node000001_Node000009" class="edge">
<title>Node1&#45;&gt;Node9</title>
<g id="a_edge14_Node000001_Node000009"><a xlink:title=" ">
<path fill="none" stroke="#63b8ff" d="M209.26,-492.25C196.88,-483.35 183.32,-473.17 171.38,-463.25 141.05,-438.06 108.4,-406.22 88.17,-385.89"/>
<polygon fill="#63b8ff" stroke="#63b8ff" points="207.03,-494.96 217.21,-497.9 211.09,-489.25 207.03,-494.96"/>
</a>
</g>
</g>
<!-- Node10 -->
<g id="Node000010" class="node">
<title>Node10</title>
<g id="a_Node000010"><a xlink:href="_virtual_c64_types_8h.html" target="_top" xlink:title=" ">
<polygon fill="white" stroke="#666666" points="489,-379.88 347.75,-379.88 347.75,-349.38 489,-349.38 489,-379.88"/>
<text text-anchor="start" x="355.75" y="-366.38" font-family="Helvetica,sans-Serif" font-size="10.00">/Users/hoff/Retro/virtualc64</text>
<text text-anchor="middle" x="418.38" y="-355.12" font-family="Helvetica,sans-Serif" font-size="10.00">/Emulator/VirtualC64Types.h</text>
</a>
</g>
</g>
<!-- Node1&#45;&gt;Node10 -->
<g id="edge15_Node000001_Node000010" class="edge">
<title>Node1&#45;&gt;Node10</title>
<g id="a_edge15_Node000001_Node000010"><a xlink:title=" ">
<path fill="none" stroke="#63b8ff" d="M288.12,-492.38C300.42,-483.55 313.78,-473.39 325.38,-463.25 356.38,-436.12 388.71,-400.15 405.89,-380.32"/>
<polygon fill="#63b8ff" stroke="#63b8ff" points="286.35,-489.35 280.2,-497.98 290.39,-495.07 286.35,-489.35"/>
</a>
</g>
</g>
<!-- Node3 -->
<g id="Node000003" class="node">
<title>Node3</title>
<g id="a_Node000003"><a xlink:href="_drive_8h_source.html" target="_top" xlink:title=" ">
<polygon fill="white" stroke="#666666" points="387.75,-307.75 251,-307.75 251,-266 387.75,-266 387.75,-307.75"/>
<text text-anchor="start" x="259" y="-294.25" font-family="Helvetica,sans-Serif" font-size="10.00">/Users/hoff/Retro/virtualc64</text>
<text text-anchor="start" x="259" y="-283" font-family="Helvetica,sans-Serif" font-size="10.00">/Emulator/Peripherals/Drive</text>
<text text-anchor="middle" x="319.38" y="-271.75" font-family="Helvetica,sans-Serif" font-size="10.00">/Drive.h</text>
</a>
</g>
</g>
<!-- Node2&#45;&gt;Node3 -->
<g id="edge2_Node000002_Node000003" class="edge">
<title>Node2&#45;&gt;Node3</title>
<g id="a_edge2_Node000002_Node000003"><a xlink:title=" ">
<path fill="none" stroke="#63b8ff" d="M280.45,-412.99C288.01,-404.82 295.33,-395.4 300.38,-385.5 312.99,-360.73 317.25,-328.5 318.68,-307.99"/>
<polygon fill="#63b8ff" stroke="#63b8ff" points="278.12,-410.37 273.62,-419.96 283.12,-415.27 278.12,-410.37"/>
</a>
</g>
</g>
<!-- Node8 -->
<g id="Node000008" class="node">
<title>Node8</title>
<g id="a_Node000008"><a xlink:href="_drive_memory_8h_source.html" target="_top" xlink:title=" ">
<polygon fill="white" stroke="#666666" points="291.75,-385.5 155,-385.5 155,-343.75 291.75,-343.75 291.75,-385.5"/>
<text text-anchor="start" x="163" y="-372" font-family="Helvetica,sans-Serif" font-size="10.00">/Users/hoff/Retro/virtualc64</text>
<text text-anchor="start" x="163" y="-360.75" font-family="Helvetica,sans-Serif" font-size="10.00">/Emulator/Peripherals/Drive</text>
<text text-anchor="middle" x="223.38" y="-349.5" font-family="Helvetica,sans-Serif" font-size="10.00">/DriveMemory.h</text>
</a>
</g>
</g>
<!-- Node2&#45;&gt;Node8 -->
<g id="edge7_Node000002_Node000008" class="edge">
<title>Node2&#45;&gt;Node8</title>
<g id="a_edge7_Node000002_Node000008"><a xlink:title=" ">
<path fill="none" stroke="#63b8ff" d="M238.12,-410.31C235.41,-402.11 232.56,-393.46 230.09,-385.98"/>
<polygon fill="#63b8ff" stroke="#63b8ff" points="234.74,-411.24 241.2,-419.64 241.39,-409.04 234.74,-411.24"/>
</a>
</g>
</g>
<!-- Node2&#45;&gt;Node9 -->
<g id="edge10_Node000002_Node000009" class="edge">
<title>Node2&#45;&gt;Node9</title>
<g id="a_edge10_Node000002_Node000009"><a xlink:title=" ">
<path fill="none" stroke="#63b8ff" d="M189.56,-416.63C165.99,-406.7 139.16,-395.41 116.74,-385.98"/>
<polygon fill="#63b8ff" stroke="#63b8ff" points="188.17,-419.84 198.74,-420.49 190.88,-413.38 188.17,-419.84"/>
</a>
</g>
</g>
<!-- Node2&#45;&gt;Node10 -->
<g id="edge12_Node000002_Node000010" class="edge">
<title>Node2&#45;&gt;Node10</title>
<g id="a_edge12_Node000002_Node000010"><a xlink:title=" ">
<path fill="none" stroke="#63b8ff" d="M304.35,-416.43C331.18,-404.48 362.39,-390.57 385.37,-380.33"/>
<polygon fill="#63b8ff" stroke="#63b8ff" points="303.02,-413.19 295.31,-420.46 305.87,-419.59 303.02,-413.19"/>
</a>
</g>
</g>
<!-- Node4 -->
<g id="Node000004" class="node">
<title>Node4</title>
<g id="a_Node000004"><a xlink:href="_c64_8h_source.html" target="_top" xlink:title=" ">
<polygon fill="white" stroke="#666666" points="316.25,-230 170.5,-230 170.5,-199.5 316.25,-199.5 316.25,-230"/>
<text text-anchor="start" x="178.5" y="-216.5" font-family="Helvetica,sans-Serif" font-size="10.00">/Users/hoff/Retro/virtualc64</text>
<text text-anchor="middle" x="243.38" y="-205.25" font-family="Helvetica,sans-Serif" font-size="10.00">/Emulator/Components/C64.h</text>
</a>
</g>
</g>
<!-- Node3&#45;&gt;Node4 -->
<g id="edge3_Node000003_Node000004" class="edge">
<title>Node3&#45;&gt;Node4</title>
<g id="a_edge3_Node000003_Node000004"><a xlink:title=" ">
<path fill="none" stroke="#63b8ff" d="M289.02,-257.86C278.74,-248.38 267.69,-238.19 259.04,-230.2"/>
<polygon fill="#63b8ff" stroke="#63b8ff" points="286.56,-260.36 296.28,-264.57 291.3,-255.21 286.56,-260.36"/>
</a>
</g>
</g>
<!-- Node5 -->
<g id="Node000005" class="node">
<title>Node5</title>
<g id="a_Node000005"><a xlink:href="_emulator_8h_source.html" target="_top" xlink:title=" ">
<polygon fill="white" stroke="#666666" points="348.38,-163.5 182.38,-163.5 182.38,-133 348.38,-133 348.38,-163.5"/>
<text text-anchor="start" x="190.38" y="-150" font-family="Helvetica,sans-Serif" font-size="10.00">/Users/hoff/Retro/virtualc64</text>
<text text-anchor="middle" x="265.38" y="-138.75" font-family="Helvetica,sans-Serif" font-size="10.00">/Emulator/Components/Emulator.h</text>
</a>
</g>
</g>
<!-- Node4&#45;&gt;Node5 -->
<g id="edge4_Node000004_Node000005" class="edge">
<title>Node4&#45;&gt;Node5</title>
<g id="a_edge4_Node000004_Node000005"><a xlink:title=" ">
<path fill="none" stroke="#63b8ff" d="M252.03,-188.38C254.87,-180.05 257.93,-171.08 260.4,-163.83"/>
<polygon fill="#63b8ff" stroke="#63b8ff" points="248.77,-187.09 248.86,-197.68 255.4,-189.35 248.77,-187.09"/>
</a>
</g>
</g>
<!-- Node6 -->
<g id="Node000006" class="node">
<title>Node6</title>
<g id="a_Node000006"><a xlink:href="_virtual_c64_8h.html" target="_top" xlink:title=" ">
<polygon fill="white" stroke="#666666" points="388.75,-97 252,-97 252,-66.5 388.75,-66.5 388.75,-97"/>
<text text-anchor="start" x="260" y="-83.5" font-family="Helvetica,sans-Serif" font-size="10.00">/Users/hoff/Retro/virtualc64</text>
<text text-anchor="middle" x="320.38" y="-72.25" font-family="Helvetica,sans-Serif" font-size="10.00">/Emulator/VirtualC64.h</text>
</a>
</g>
</g>
<!-- Node5&#45;&gt;Node6 -->
<g id="edge5_Node000005_Node000006" class="edge">
<title>Node5&#45;&gt;Node6</title>
<g id="a_edge5_Node000005_Node000006"><a xlink:title=" ">
<path fill="none" stroke="#63b8ff" d="M285.09,-124.13C292.71,-115.19 301.2,-105.24 307.94,-97.33"/>
<polygon fill="#63b8ff" stroke="#63b8ff" points="282.66,-121.58 278.84,-131.46 287.99,-126.12 282.66,-121.58"/>
</a>
</g>
</g>
<!-- Node7 -->
<g id="Node000007" class="node">
<title>Node7</title>
<g id="a_Node000007"><a xlink:href="_headless_8h_source.html" target="_top" xlink:title=" ">
<polygon fill="white" stroke="#666666" points="388.75,-30.5 252,-30.5 252,0 388.75,0 388.75,-30.5"/>
<text text-anchor="start" x="260" y="-17" font-family="Helvetica,sans-Serif" font-size="10.00">/Users/hoff/Retro/virtualc64</text>
<text text-anchor="middle" x="320.38" y="-5.75" font-family="Helvetica,sans-Serif" font-size="10.00">/Emulator/Headless.h</text>
</a>
</g>
</g>
<!-- Node6&#45;&gt;Node7 -->
<g id="edge6_Node000006_Node000007" class="edge">
<title>Node6&#45;&gt;Node7</title>
<g id="a_edge6_Node000006_Node000007"><a xlink:title=" ">
<path fill="none" stroke="#63b8ff" d="M320.38,-54.81C320.38,-46.64 320.38,-37.91 320.38,-30.83"/>
<polygon fill="#63b8ff" stroke="#63b8ff" points="316.88,-54.6 320.38,-64.6 323.88,-54.6 316.88,-54.6"/>
</a>
</g>
</g>
<!-- Node8&#45;&gt;Node3 -->
<g id="edge9_Node000008_Node000003" class="edge">
<title>Node8&#45;&gt;Node3</title>
<g id="a_edge9_Node000008_Node000003"><a xlink:title=" ">
<path fill="none" stroke="#63b8ff" d="M257.83,-336.44C269.62,-327.14 282.59,-316.9 293.58,-308.23"/>
<polygon fill="#63b8ff" stroke="#63b8ff" points="255.97,-333.45 250.29,-342.39 260.31,-338.94 255.97,-333.45"/>
</a>
</g>
</g>
<!-- Node8&#45;&gt;Node4 -->
<g id="edge8_Node000008_Node000004" class="edge">
<title>Node8&#45;&gt;Node4</title>
<g id="a_edge8_Node000008_Node000004"><a xlink:title=" ">
<path fill="none" stroke="#63b8ff" d="M227.63,-332.19C231.87,-300.81 238.2,-253.98 241.39,-230.41"/>
<polygon fill="#63b8ff" stroke="#63b8ff" points="224.19,-331.49 226.32,-341.87 231.13,-332.43 224.19,-331.49"/>
</a>
</g>
</g>
<!-- Node9&#45;&gt;Node4 -->
<g id="edge11_Node000009_Node000004" class="edge">
<title>Node9&#45;&gt;Node4</title>
<g id="a_edge11_Node000009_Node000004"><a xlink:title=" ">
<path fill="none" stroke="#63b8ff" d="M100.78,-336.24C137.77,-304.98 196.91,-255.01 226.02,-230.41"/>
<polygon fill="#63b8ff" stroke="#63b8ff" points="98.88,-333.27 93.5,-342.4 103.39,-338.62 98.88,-333.27"/>
</a>
</g>
</g>
<!-- Node10&#45;&gt;Node6 -->
<g id="edge13_Node000010_Node000006" class="edge">
<title>Node10&#45;&gt;Node6</title>
<g id="a_edge13_Node000010_Node000006"><a xlink:title=" ">
<path fill="none" stroke="#63b8ff" d="M415.01,-337.83C408.53,-293.9 391.84,-202.56 357.38,-133 350.93,-119.99 341.1,-106.83 333.18,-97.25"/>
<polygon fill="#63b8ff" stroke="#63b8ff" points="411.53,-338.23 416.39,-347.65 418.46,-337.26 411.53,-338.23"/>
</a>
</g>
</g>
</g>
</svg>
