<?xml version="1.0" encoding="UTF-8" standalone="no"?>
<!DOCTYPE svg PUBLIC "-//W3C//DTD SVG 1.1//EN"
 "http://www.w3.org/Graphics/SVG/1.1/DTD/svg11.dtd">
<!-- Generated by graphviz version 10.0.1 (20240210.2158)
 -->
<!-- Title: /Users/hoff/Retro/virtualc64/Emulator/Components/CPU/Peddle/PeddleConfig.h Pages: 1 -->
<svg width="149pt" height="160pt"
 viewBox="0.00 0.00 149.25 160.25" xmlns="http://www.w3.org/2000/svg" xmlns:xlink="http://www.w3.org/1999/xlink">
<g id="graph0" class="graph" transform="scale(1 1) rotate(0) translate(4 156.25)">
<title>/Users/hoff/Retro/virtualc64/Emulator/Components/CPU/Peddle/PeddleConfig.h</title>
<!-- Node1 -->
<g id="Node000001" class="node">
<title>Node1</title>
<g id="a_Node000001"><a xlink:title=" ">
<polygon fill="#999999" stroke="#666666" points="141.25,-152.25 0,-152.25 0,-110.5 141.25,-110.5 141.25,-152.25"/>
<text text-anchor="start" x="8" y="-138.75" font-family="Helvetica,sans-Serif" font-size="10.00">/Users/hoff/Retro/virtualc64</text>
<text text-anchor="start" x="8" y="-127.5" font-family="Helvetica,sans-Serif" font-size="10.00">/Emulator/Components/CPU</text>
<text text-anchor="middle" x="70.62" y="-116.25" font-family="Helvetica,sans-Serif" font-size="10.00">/Peddle/PeddleConfig.h</text>
</a>
</g>
</g>
<!-- Node2 -->
<g id="Node000002" class="node">
<title>Node2</title>
<g id="a_Node000002"><a xlink:href="config_8h.html" target="_top" xlink:title=" ">
<polygon fill="white" stroke="#666666" points="95.88,-74.5 45.38,-74.5 45.38,-55.25 95.88,-55.25 95.88,-74.5"/>
<text text-anchor="middle" x="70.62" y="-61" font-family="Helvetica,sans-Serif" font-size="10.00">config.h</text>
</a>
</g>
</g>
<!-- Node1&#45;&gt;Node2 -->
<g id="edge1_Node000001_Node000002" class="edge">
<title>Node1&#45;&gt;Node2</title>
<g id="a_edge1_Node000001_Node000002"><a xlink:title=" ">
<path fill="none" stroke="#63b8ff" d="M70.62,-110.32C70.62,-102.65 70.62,-93.89 70.62,-86.2"/>
<polygon fill="#63b8ff" stroke="#63b8ff" points="74.13,-86.46 70.63,-76.46 67.13,-86.46 74.13,-86.46"/>
</a>
</g>
</g>
<!-- Node3 -->
<g id="Node000003" class="node">
<title>Node3</title>
<g id="a_Node000003"><a xlink:title=" ">
<polygon fill="#e0e0e0" stroke="#999999" points="96.25,-19.25 45,-19.25 45,0 96.25,0 96.25,-19.25"/>
<text text-anchor="middle" x="70.62" y="-5.75" font-family="Helvetica,sans-Serif" font-size="10.00">assert.h</text>
</a>
</g>
</g>
<!-- Node2&#45;&gt;Node3 -->
<g id="edge2_Node000002_Node000003" class="edge">
<title>Node2&#45;&gt;Node3</title>
<g id="a_edge2_Node000002_Node000003"><a xlink:title=" ">
<path fill="none" stroke="#63b8ff" d="M70.62,-55.08C70.62,-48.57 70.62,-39.42 70.62,-31.12"/>
<polygon fill="#63b8ff" stroke="#63b8ff" points="74.13,-31.12 70.63,-21.12 67.13,-31.12 74.13,-31.12"/>
</a>
</g>
</g>
</g>
</svg>
