<?xml version="1.0" encoding="UTF-8" standalone="no"?>
<!DOCTYPE svg PUBLIC "-//W3C//DTD SVG 1.1//EN"
 "http://www.w3.org/Graphics/SVG/1.1/DTD/svg11.dtd">
<!-- Generated by graphviz version 10.0.1 (20240210.2158)
 -->
<!-- Title: /Users/hoff/Retro/virtualc64/Emulator/Components/LogicBoard/PowerSupply.h Pages: 1 -->
<svg width="1434pt" height="658pt"
 viewBox="0.00 0.00 1433.89 657.50" xmlns="http://www.w3.org/2000/svg" xmlns:xlink="http://www.w3.org/1999/xlink">
<g id="graph0" class="graph" transform="scale(1 1) rotate(0) translate(4 653.5)">
<title>/Users/hoff/Retro/virtualc64/Emulator/Components/LogicBoard/PowerSupply.h</title>
<!-- Node1 -->
<g id="Node000001" class="node">
<title>Node1</title>
<g id="a_Node000001"><a xlink:title=" ">
<polygon fill="#999999" stroke="#666666" points="1087.89,-649.5 919.64,-649.5 919.64,-607.75 1087.89,-607.75 1087.89,-649.5"/>
<text text-anchor="start" x="927.64" y="-636" font-family="Helvetica,sans-Serif" font-size="10.00">/Users/hoff/Retro/virtualc64</text>
<text text-anchor="start" x="927.64" y="-624.75" font-family="Helvetica,sans-Serif" font-size="10.00">/Emulator/Components/LogicBoard</text>
<text text-anchor="middle" x="1003.76" y="-613.5" font-family="Helvetica,sans-Serif" font-size="10.00">/PowerSupply.h</text>
</a>
</g>
</g>
<!-- Node2 -->
<g id="Node000002" class="node">
<title>Node2</title>
<g id="a_Node000002"><a xlink:href="_power_supply_types_8h.html" target="_top" xlink:title=" ">
<polygon fill="white" stroke="#666666" points="1335.89,-240.25 1227.64,-240.25 1227.64,-221 1335.89,-221 1335.89,-240.25"/>
<text text-anchor="middle" x="1281.76" y="-226.75" font-family="Helvetica,sans-Serif" font-size="10.00">PowerSupplyTypes.h</text>
</a>
</g>
</g>
<!-- Node1&#45;&gt;Node2 -->
<g id="edge1_Node000001_Node000002" class="edge">
<title>Node1&#45;&gt;Node2</title>
<g id="a_edge1_Node000001_Node000002"><a xlink:title=" ">
<path fill="none" stroke="#63b8ff" d="M1088.34,-624.71C1168.18,-616.89 1275.76,-590.94 1275.76,-507.88 1275.76,-507.88 1275.76,-507.88 1275.76,-340.12 1275.76,-309.36 1278.2,-273.76 1279.97,-251.97"/>
<polygon fill="#63b8ff" stroke="#63b8ff" points="1283.44,-252.39 1280.8,-242.13 1276.47,-251.79 1283.44,-252.39"/>
</a>
</g>
</g>
<!-- Node10 -->
<g id="Node000010" class="node">
<title>Node10</title>
<g id="a_Node000010"><a xlink:href="_sub_component_8h.html" target="_top" xlink:title=" ">
<polygon fill="white" stroke="#666666" points="1049.64,-571.75 957.89,-571.75 957.89,-552.5 1049.64,-552.5 1049.64,-571.75"/>
<text text-anchor="middle" x="1003.76" y="-558.25" font-family="Helvetica,sans-Serif" font-size="10.00">SubComponent.h</text>
</a>
</g>
</g>
<!-- Node1&#45;&gt;Node10 -->
<g id="edge9_Node000001_Node000010" class="edge">
<title>Node1&#45;&gt;Node10</title>
<g id="a_edge9_Node000001_Node000010"><a xlink:title=" ">
<path fill="none" stroke="#63b8ff" d="M1003.76,-607.57C1003.76,-599.9 1003.76,-591.14 1003.76,-583.45"/>
<polygon fill="#63b8ff" stroke="#63b8ff" points="1007.26,-583.71 1003.76,-573.71 1000.26,-583.71 1007.26,-583.71"/>
</a>
</g>
</g>
<!-- Node23 -->
<g id="Node000023" class="node">
<title>Node23</title>
<g id="a_Node000023"><a xlink:href="_chrono_8h.html" target="_top" xlink:title=" ">
<polygon fill="white" stroke="#666666" points="58.64,-295.5 2.89,-295.5 2.89,-276.25 58.64,-276.25 58.64,-295.5"/>
<text text-anchor="middle" x="30.76" y="-282" font-family="Helvetica,sans-Serif" font-size="10.00">Chrono.h</text>
</a>
</g>
</g>
<!-- Node1&#45;&gt;Node23 -->
<g id="edge68_Node000001_Node000023" class="edge">
<title>Node1&#45;&gt;Node23</title>
<g id="a_edge68_Node000001_Node000023"><a xlink:title=" ">
<path fill="none" stroke="#63b8ff" d="M919.54,-626.04C683.17,-620.48 30.76,-597.07 30.76,-507.88 30.76,-507.88 30.76,-507.88 30.76,-395.38 30.76,-364.66 30.76,-329.05 30.76,-307.24"/>
<polygon fill="#63b8ff" stroke="#63b8ff" points="34.26,-307.39 30.76,-297.39 27.26,-307.39 34.26,-307.39"/>
</a>
</g>
</g>
<!-- Node3 -->
<g id="Node000003" class="node">
<title>Node3</title>
<g id="a_Node000003"><a xlink:href="_aliases_8h.html" target="_top" xlink:title=" ">
<polygon fill="white" stroke="#666666" points="1162.01,-185 1105.51,-185 1105.51,-165.75 1162.01,-165.75 1162.01,-185"/>
<text text-anchor="middle" x="1133.76" y="-171.5" font-family="Helvetica,sans-Serif" font-size="10.00">Aliases.h</text>
</a>
</g>
</g>
<!-- Node2&#45;&gt;Node3 -->
<g id="edge2_Node000002_Node000003" class="edge">
<title>Node2&#45;&gt;Node3</title>
<g id="a_edge2_Node000002_Node000003"><a xlink:title=" ">
<path fill="none" stroke="#63b8ff" d="M1256.66,-220.59C1232.74,-211.99 1196.48,-198.94 1169.54,-189.25"/>
<polygon fill="#63b8ff" stroke="#63b8ff" points="1171.01,-186.06 1160.42,-185.96 1168.64,-192.64 1171.01,-186.06"/>
</a>
</g>
</g>
<!-- Node9 -->
<g id="Node000009" class="node">
<title>Node9</title>
<g id="a_Node000009"><a xlink:href="_reflection_8h.html" target="_top" xlink:title=" ">
<polygon fill="white" stroke="#666666" points="1087.01,-185 1018.51,-185 1018.51,-165.75 1087.01,-165.75 1087.01,-185"/>
<text text-anchor="middle" x="1052.76" y="-171.5" font-family="Helvetica,sans-Serif" font-size="10.00">Reflection.h</text>
</a>
</g>
</g>
<!-- Node2&#45;&gt;Node9 -->
<g id="edge8_Node000002_Node000009" class="edge">
<title>Node2&#45;&gt;Node9</title>
<g id="a_edge8_Node000002_Node000009"><a xlink:title=" ">
<path fill="none" stroke="#63b8ff" d="M1242.66,-220.53C1202.64,-211.23 1140.5,-196.78 1098.29,-186.96"/>
<polygon fill="#63b8ff" stroke="#63b8ff" points="1099.22,-183.59 1088.69,-184.73 1097.64,-190.4 1099.22,-183.59"/>
</a>
</g>
</g>
<!-- Node4 -->
<g id="Node000004" class="node">
<title>Node4</title>
<g id="a_Node000004"><a xlink:href="_macros_8h.html" target="_top" xlink:title=" ">
<polygon fill="white" stroke="#666666" points="852.01,-129.75 795.51,-129.75 795.51,-110.5 852.01,-110.5 852.01,-129.75"/>
<text text-anchor="middle" x="823.76" y="-116.25" font-family="Helvetica,sans-Serif" font-size="10.00">Macros.h</text>
</a>
</g>
</g>
<!-- Node3&#45;&gt;Node4 -->
<g id="edge3_Node000003_Node000004" class="edge">
<title>Node3&#45;&gt;Node4</title>
<g id="a_edge3_Node000003_Node000004"><a xlink:title=" ">
<path fill="none" stroke="#63b8ff" d="M1105.17,-167.69C1102,-167.01 1098.82,-166.35 1095.76,-165.75 1013.68,-149.72 916.89,-134.77 863.74,-126.91"/>
<polygon fill="#63b8ff" stroke="#63b8ff" points="864.35,-123.46 853.95,-125.47 863.33,-130.39 864.35,-123.46"/>
</a>
</g>
</g>
<!-- Node5 -->
<g id="Node000005" class="node">
<title>Node5</title>
<g id="a_Node000005"><a xlink:href="_types_8h.html" target="_top" xlink:title=" ">
<polygon fill="white" stroke="#666666" points="229.01,-74.5 178.51,-74.5 178.51,-55.25 229.01,-55.25 229.01,-74.5"/>
<text text-anchor="middle" x="203.76" y="-61" font-family="Helvetica,sans-Serif" font-size="10.00">Types.h</text>
</a>
</g>
</g>
<!-- Node4&#45;&gt;Node5 -->
<g id="edge4_Node000004_Node000005" class="edge">
<title>Node4&#45;&gt;Node5</title>
<g id="a_edge4_Node000004_Node000005"><a xlink:title=" ">
<path fill="none" stroke="#63b8ff" d="M795.1,-116.66C694,-107.98 354.01,-78.78 240.79,-69.06"/>
<polygon fill="#63b8ff" stroke="#63b8ff" points="241.11,-65.57 230.85,-68.2 240.51,-72.54 241.11,-65.57"/>
</a>
</g>
</g>
<!-- Node6 -->
<g id="Node000006" class="node">
<title>Node6</title>
<g id="a_Node000006"><a xlink:title=" ">
<polygon fill="#e0e0e0" stroke="#999999" points="161.26,-19.25 94.26,-19.25 94.26,0 161.26,0 161.26,-19.25"/>
<text text-anchor="middle" x="127.76" y="-5.75" font-family="Helvetica,sans-Serif" font-size="10.00">sys/types.h</text>
</a>
</g>
</g>
<!-- Node5&#45;&gt;Node6 -->
<g id="edge5_Node000005_Node000006" class="edge">
<title>Node5&#45;&gt;Node6</title>
<g id="a_edge5_Node000005_Node000006"><a xlink:title=" ">
<path fill="none" stroke="#63b8ff" d="M190.87,-54.84C179.73,-47.04 163.39,-35.59 150.13,-26.29"/>
<polygon fill="#63b8ff" stroke="#63b8ff" points="152.16,-23.44 141.96,-20.57 148.14,-29.18 152.16,-23.44"/>
</a>
</g>
</g>
<!-- Node7 -->
<g id="Node000007" class="node">
<title>Node7</title>
<g id="a_Node000007"><a xlink:title=" ">
<polygon fill="#e0e0e0" stroke="#999999" points="227.89,-19.25 179.64,-19.25 179.64,0 227.89,0 227.89,-19.25"/>
<text text-anchor="middle" x="203.76" y="-5.75" font-family="Helvetica,sans-Serif" font-size="10.00">stdint.h</text>
</a>
</g>
</g>
<!-- Node5&#45;&gt;Node7 -->
<g id="edge6_Node000005_Node000007" class="edge">
<title>Node5&#45;&gt;Node7</title>
<g id="a_edge6_Node000005_Node000007"><a xlink:title=" ">
<path fill="none" stroke="#63b8ff" d="M203.76,-55.08C203.76,-48.57 203.76,-39.42 203.76,-31.12"/>
<polygon fill="#63b8ff" stroke="#63b8ff" points="207.26,-31.12 203.76,-21.12 200.26,-31.12 207.26,-31.12"/>
</a>
</g>
</g>
<!-- Node8 -->
<g id="Node000008" class="node">
<title>Node8</title>
<g id="a_Node000008"><a xlink:title=" ">
<polygon fill="#e0e0e0" stroke="#999999" points="301.64,-19.25 245.89,-19.25 245.89,0 301.64,0 301.64,-19.25"/>
<text text-anchor="middle" x="273.76" y="-5.75" font-family="Helvetica,sans-Serif" font-size="10.00">stdbool.h</text>
</a>
</g>
</g>
<!-- Node5&#45;&gt;Node8 -->
<g id="edge7_Node000005_Node000008" class="edge">
<title>Node5&#45;&gt;Node8</title>
<g id="a_edge7_Node000005_Node000008"><a xlink:title=" ">
<path fill="none" stroke="#63b8ff" d="M215.64,-54.84C225.86,-47.07 240.84,-35.67 253.03,-26.4"/>
<polygon fill="#63b8ff" stroke="#63b8ff" points="255.02,-29.28 260.86,-20.44 250.78,-23.71 255.02,-29.28"/>
</a>
</g>
</g>
<!-- Node11 -->
<g id="Node000011" class="node">
<title>Node11</title>
<g id="a_Node000011"><a xlink:href="_core_component_8h.html" target="_top" xlink:title=" ">
<polygon fill="white" stroke="#666666" points="853.51,-516.5 758.01,-516.5 758.01,-497.25 853.51,-497.25 853.51,-516.5"/>
<text text-anchor="middle" x="805.76" y="-503" font-family="Helvetica,sans-Serif" font-size="10.00">CoreComponent.h</text>
</a>
</g>
</g>
<!-- Node10&#45;&gt;Node11 -->
<g id="edge10_Node000010_Node000011" class="edge">
<title>Node10&#45;&gt;Node11</title>
<g id="a_edge10_Node000010_Node000011"><a xlink:title=" ">
<path fill="none" stroke="#63b8ff" d="M970.18,-552.09C937.18,-543.22 886.64,-529.62 850.3,-519.85"/>
<polygon fill="#63b8ff" stroke="#63b8ff" points="851.54,-516.56 840.98,-517.35 849.73,-523.32 851.54,-516.56"/>
</a>
</g>
</g>
<!-- Node43 -->
<g id="Node000043" class="node">
<title>Node43</title>
<g id="a_Node000043"><a xlink:href="_c_p_u_types_8h.html" target="_top" xlink:title=" ">
<polygon fill="white" stroke="#666666" points="1425.89,-240.25 1353.64,-240.25 1353.64,-221 1425.89,-221 1425.89,-240.25"/>
<text text-anchor="middle" x="1389.76" y="-226.75" font-family="Helvetica,sans-Serif" font-size="10.00">CPUTypes.h</text>
</a>
</g>
</g>
<!-- Node10&#45;&gt;Node43 -->
<g id="edge63_Node000010_Node000043" class="edge">
<title>Node10&#45;&gt;Node43</title>
<g id="a_edge63_Node000010_Node000043"><a xlink:title=" ">
<path fill="none" stroke="#63b8ff" d="M1049.99,-559.68C1118.19,-554.8 1237.76,-534.57 1237.76,-452.62 1237.76,-452.62 1237.76,-452.62 1237.76,-395.38 1237.76,-323.89 1316.55,-270.46 1360.67,-246.14"/>
<polygon fill="#63b8ff" stroke="#63b8ff" points="1362.31,-249.23 1369.48,-241.44 1359.01,-243.06 1362.31,-249.23"/>
</a>
</g>
</g>
<!-- Node12 -->
<g id="Node000012" class="node">
<title>Node12</title>
<g id="a_Node000012"><a xlink:href="_emulator_types_8h.html" target="_top" xlink:title=" ">
<polygon fill="white" stroke="#666666" points="1217.51,-295.5 1128.01,-295.5 1128.01,-276.25 1217.51,-276.25 1217.51,-295.5"/>
<text text-anchor="middle" x="1172.76" y="-282" font-family="Helvetica,sans-Serif" font-size="10.00">EmulatorTypes.h</text>
</a>
</g>
</g>
<!-- Node11&#45;&gt;Node12 -->
<g id="edge11_Node000011_Node000012" class="edge">
<title>Node11&#45;&gt;Node12</title>
<g id="a_edge11_Node000011_Node000012"><a xlink:title=" ">
<path fill="none" stroke="#63b8ff" d="M853.85,-503.12C945.52,-497.41 1138.04,-482.94 1158.76,-461.25 1198.93,-419.21 1186.85,-342.54 1178.21,-306.54"/>
<polygon fill="#63b8ff" stroke="#63b8ff" points="1181.65,-305.89 1175.76,-297.09 1174.88,-307.64 1181.65,-305.89"/>
</a>
</g>
</g>
<!-- Node13 -->
<g id="Node000013" class="node">
<title>Node13</title>
<g id="a_Node000013"><a xlink:href="_thread_types_8h.html" target="_top" xlink:title=" ">
<polygon fill="white" stroke="#666666" points="1134.01,-240.25 1053.51,-240.25 1053.51,-221 1134.01,-221 1134.01,-240.25"/>
<text text-anchor="middle" x="1093.76" y="-226.75" font-family="Helvetica,sans-Serif" font-size="10.00">ThreadTypes.h</text>
</a>
</g>
</g>
<!-- Node11&#45;&gt;Node13 -->
<g id="edge61_Node000011_Node000013" class="edge">
<title>Node11&#45;&gt;Node13</title>
<g id="a_edge61_Node000011_Node000013"><a xlink:title=" ">
<path fill="none" stroke="#63b8ff" d="M837.63,-496.8C861.51,-489.23 894.45,-477.13 920.76,-461.25 984.82,-422.58 1004.8,-412.01 1047.76,-350.75 1069.65,-319.54 1082.89,-276.51 1089.22,-251.62"/>
<polygon fill="#63b8ff" stroke="#63b8ff" points="1092.56,-252.72 1091.5,-242.18 1085.75,-251.08 1092.56,-252.72"/>
</a>
</g>
</g>
<!-- Node14 -->
<g id="Node000014" class="node">
<title>Node14</title>
<g id="a_Node000014"><a xlink:href="_core_object_8h.html" target="_top" xlink:title=" ">
<polygon fill="white" stroke="#666666" points="805.64,-350.75 731.89,-350.75 731.89,-331.5 805.64,-331.5 805.64,-350.75"/>
<text text-anchor="middle" x="768.76" y="-337.25" font-family="Helvetica,sans-Serif" font-size="10.00">CoreObject.h</text>
</a>
</g>
</g>
<!-- Node11&#45;&gt;Node14 -->
<g id="edge17_Node000011_Node000014" class="edge">
<title>Node11&#45;&gt;Node14</title>
<g id="a_edge17_Node000011_Node000014"><a xlink:title=" ">
<path fill="none" stroke="#63b8ff" d="M799.92,-497C789.21,-480.13 766.79,-441.91 758.76,-406 755.46,-391.22 758.41,-374.29 761.95,-361.57"/>
<polygon fill="#63b8ff" stroke="#63b8ff" points="765.2,-362.9 764.87,-352.31 758.52,-360.79 765.2,-362.9"/>
</a>
</g>
</g>
<!-- Node21 -->
<g id="Node000021" class="node">
<title>Node21</title>
<g id="a_Node000021"><a xlink:href="_synchronizable_8h.html" target="_top" xlink:title=" ">
<polygon fill="white" stroke="#666666" points="188.26,-406 97.26,-406 97.26,-386.75 188.26,-386.75 188.26,-406"/>
<text text-anchor="middle" x="142.76" y="-392.5" font-family="Helvetica,sans-Serif" font-size="10.00">Synchronizable.h</text>
</a>
</g>
</g>
<!-- Node11&#45;&gt;Node21 -->
<g id="edge27_Node000011_Node000021" class="edge">
<title>Node11&#45;&gt;Node21</title>
<g id="a_edge27_Node000011_Node000021"><a xlink:title=" ">
<path fill="none" stroke="#63b8ff" d="M757.74,-504.32C623.74,-499.7 252.32,-484.9 202.76,-461.25 182.01,-451.35 164.85,-430.88 154.27,-415.77"/>
<polygon fill="#63b8ff" stroke="#63b8ff" points="157.32,-414.02 148.88,-407.62 151.48,-417.89 157.32,-414.02"/>
</a>
</g>
</g>
<!-- Node22 -->
<g id="Node000022" class="node">
<title>Node22</title>
<g id="a_Node000022"><a xlink:href="_concurrency_8h.html" target="_top" xlink:title=" ">
<polygon fill="white" stroke="#666666" points="159.89,-350.75 81.64,-350.75 81.64,-331.5 159.89,-331.5 159.89,-350.75"/>
<text text-anchor="middle" x="120.76" y="-337.25" font-family="Helvetica,sans-Serif" font-size="10.00">Concurrency.h</text>
</a>
</g>
</g>
<!-- Node11&#45;&gt;Node22 -->
<g id="edge58_Node000011_Node000022" class="edge">
<title>Node11&#45;&gt;Node22</title>
<g id="a_edge58_Node000011_Node000022"><a xlink:title=" ">
<path fill="none" stroke="#63b8ff" d="M757.97,-505.55C630.01,-504.2 282.06,-497.23 173.76,-461.25 130.65,-446.93 109.54,-445.87 87.76,-406 79.11,-390.16 90.77,-371.83 102.55,-358.88"/>
<polygon fill="#63b8ff" stroke="#63b8ff" points="104.86,-361.52 109.41,-351.95 99.89,-356.59 104.86,-361.52"/>
</a>
</g>
</g>
<!-- Node27 -->
<g id="Node000027" class="node">
<title>Node27</title>
<g id="a_Node000027"><a xlink:href="_serializable_8h.html" target="_top" xlink:title=" ">
<polygon fill="white" stroke="#666666" points="712.01,-461.25 637.51,-461.25 637.51,-442 712.01,-442 712.01,-461.25"/>
<text text-anchor="middle" x="674.76" y="-447.75" font-family="Helvetica,sans-Serif" font-size="10.00">Serializable.h</text>
</a>
</g>
</g>
<!-- Node11&#45;&gt;Node27 -->
<g id="edge34_Node000011_Node000027" class="edge">
<title>Node11&#45;&gt;Node27</title>
<g id="a_edge34_Node000011_Node000027"><a xlink:title=" ">
<path fill="none" stroke="#63b8ff" d="M783.54,-496.84C762.75,-488.39 731.41,-475.65 707.71,-466.02"/>
<polygon fill="#63b8ff" stroke="#63b8ff" points="709.08,-462.8 698.5,-462.27 706.44,-469.28 709.08,-462.8"/>
</a>
</g>
</g>
<!-- Node28 -->
<g id="Node000028" class="node">
<title>Node28</title>
<g id="a_Node000028"><a xlink:href="_configurable_8h.html" target="_top" xlink:title=" ">
<polygon fill="white" stroke="#666666" points="911.26,-461.25 832.26,-461.25 832.26,-442 911.26,-442 911.26,-461.25"/>
<text text-anchor="middle" x="871.76" y="-447.75" font-family="Helvetica,sans-Serif" font-size="10.00">Configurable.h</text>
</a>
</g>
</g>
<!-- Node11&#45;&gt;Node28 -->
<g id="edge35_Node000011_Node000028" class="edge">
<title>Node11&#45;&gt;Node28</title>
<g id="a_edge35_Node000011_Node000028"><a xlink:title=" ">
<path fill="none" stroke="#63b8ff" d="M816.96,-496.84C826.5,-489.15 840.44,-477.9 851.87,-468.68"/>
<polygon fill="#63b8ff" stroke="#63b8ff" points="853.97,-471.48 859.55,-462.48 849.57,-466.03 853.97,-471.48"/>
</a>
</g>
</g>
<!-- Node33 -->
<g id="Node000033" class="node">
<title>Node33</title>
<g id="a_Node000033"><a xlink:title=" ">
<polygon fill="#e0e0e0" stroke="#999999" points="226.26,-185 183.26,-185 183.26,-165.75 226.26,-165.75 226.26,-185"/>
<text text-anchor="middle" x="204.76" y="-171.5" font-family="Helvetica,sans-Serif" font-size="10.00">vector</text>
</a>
</g>
</g>
<!-- Node11&#45;&gt;Node33 -->
<g id="edge62_Node000011_Node000033" class="edge">
<title>Node11&#45;&gt;Node33</title>
<g id="a_edge62_Node000011_Node000033"><a xlink:title=" ">
<path fill="none" stroke="#63b8ff" d="M757.79,-497.2C721.6,-489.85 671.11,-477.83 628.76,-461.25 437.83,-386.48 352.73,-399.67 223.76,-240.25 213.62,-227.72 208.89,-209.9 206.69,-196.27"/>
<polygon fill="#63b8ff" stroke="#63b8ff" points="210.2,-196.18 205.48,-186.7 203.26,-197.06 210.2,-196.18"/>
</a>
</g>
</g>
<!-- Node41 -->
<g id="Node000041" class="node">
<title>Node41</title>
<g id="a_Node000041"><a xlink:href="_suspendable_8h.html" target="_top" xlink:title=" ">
<polygon fill="white" stroke="#666666" points="1150.01,-461.25 1069.51,-461.25 1069.51,-442 1150.01,-442 1150.01,-461.25"/>
<text text-anchor="middle" x="1109.76" y="-447.75" font-family="Helvetica,sans-Serif" font-size="10.00">Suspendable.h</text>
</a>
</g>
</g>
<!-- Node11&#45;&gt;Node41 -->
<g id="edge59_Node000011_Node000041" class="edge">
<title>Node11&#45;&gt;Node41</title>
<g id="a_edge59_Node000011_Node000041"><a xlink:title=" ">
<path fill="none" stroke="#63b8ff" d="M853.93,-497.44C909.54,-487.7 1000.65,-471.74 1057.81,-461.73"/>
<polygon fill="#63b8ff" stroke="#63b8ff" points="1058.38,-465.18 1067.63,-460.01 1057.17,-458.28 1058.38,-465.18"/>
</a>
</g>
</g>
<!-- Node12&#45;&gt;Node3 -->
<g id="edge12_Node000012_Node000003" class="edge">
<title>Node12&#45;&gt;Node3</title>
<g id="a_edge12_Node000012_Node000003"><a xlink:title=" ">
<path fill="none" stroke="#63b8ff" d="M1175.46,-275.81C1178.75,-263.07 1183.05,-239.37 1175.76,-221 1171.44,-210.11 1163.06,-200.32 1154.92,-192.72"/>
<polygon fill="#63b8ff" stroke="#63b8ff" points="1157.39,-190.22 1147.52,-186.35 1152.82,-195.53 1157.39,-190.22"/>
</a>
</g>
</g>
<!-- Node12&#45;&gt;Node9 -->
<g id="edge13_Node000012_Node000009" class="edge">
<title>Node12&#45;&gt;Node9</title>
<g id="a_edge13_Node000012_Node000009"><a xlink:title=" ">
<path fill="none" stroke="#63b8ff" d="M1170.6,-275.94C1166.94,-262.5 1158.36,-236.93 1142.76,-221 1129.02,-206.96 1109.95,-196.64 1092.9,-189.48"/>
<polygon fill="#63b8ff" stroke="#63b8ff" points="1094.61,-186.39 1084.02,-185.98 1092.04,-192.9 1094.61,-186.39"/>
</a>
</g>
</g>
<!-- Node12&#45;&gt;Node13 -->
<g id="edge14_Node000012_Node000013" class="edge">
<title>Node12&#45;&gt;Node13</title>
<g id="a_edge14_Node000012_Node000013"><a xlink:title=" ">
<path fill="none" stroke="#63b8ff" d="M1159.36,-275.84C1147.67,-267.96 1130.46,-256.36 1116.6,-247.02"/>
<polygon fill="#63b8ff" stroke="#63b8ff" points="1118.73,-244.24 1108.49,-241.55 1114.82,-250.04 1118.73,-244.24"/>
</a>
</g>
</g>
<!-- Node13&#45;&gt;Node3 -->
<g id="edge15_Node000013_Node000003" class="edge">
<title>Node13&#45;&gt;Node3</title>
<g id="a_edge15_Node000013_Node000003"><a xlink:title=" ">
<path fill="none" stroke="#63b8ff" d="M1100.37,-220.83C1105.72,-213.71 1113.44,-203.43 1120.11,-194.55"/>
<polygon fill="#63b8ff" stroke="#63b8ff" points="1122.9,-196.67 1126.11,-186.57 1117.3,-192.46 1122.9,-196.67"/>
</a>
</g>
</g>
<!-- Node13&#45;&gt;Node9 -->
<g id="edge16_Node000013_Node000009" class="edge">
<title>Node13&#45;&gt;Node9</title>
<g id="a_edge16_Node000013_Node000009"><a xlink:title=" ">
<path fill="none" stroke="#63b8ff" d="M1086.99,-220.83C1081.45,-213.63 1073.42,-203.21 1066.54,-194.26"/>
<polygon fill="#63b8ff" stroke="#63b8ff" points="1069.48,-192.35 1060.6,-186.56 1063.93,-196.62 1069.48,-192.35"/>
</a>
</g>
</g>
<!-- Node15 -->
<g id="Node000015" class="node">
<title>Node15</title>
<g id="a_Node000015"><a xlink:href="_error_8h.html" target="_top" xlink:title=" ">
<polygon fill="white" stroke="#666666" points="820.01,-295.5 775.51,-295.5 775.51,-276.25 820.01,-276.25 820.01,-295.5"/>
<text text-anchor="middle" x="797.76" y="-282" font-family="Helvetica,sans-Serif" font-size="10.00">Error.h</text>
</a>
</g>
</g>
<!-- Node14&#45;&gt;Node15 -->
<g id="edge18_Node000014_Node000015" class="edge">
<title>Node14&#45;&gt;Node15</title>
<g id="a_edge18_Node000014_Node000015"><a xlink:title=" ">
<path fill="none" stroke="#63b8ff" d="M773.55,-331.33C777.31,-324.44 782.67,-314.59 787.4,-305.91"/>
<polygon fill="#63b8ff" stroke="#63b8ff" points="790.44,-307.64 792.15,-297.19 784.29,-304.3 790.44,-307.64"/>
</a>
</g>
</g>
<!-- Node19 -->
<g id="Node000019" class="node">
<title>Node19</title>
<g id="a_Node000019"><a xlink:href="_inspectable_8h.html" target="_top" xlink:title=" ">
<polygon fill="white" stroke="#666666" points="756.01,-295.5 681.51,-295.5 681.51,-276.25 756.01,-276.25 756.01,-295.5"/>
<text text-anchor="middle" x="718.76" y="-282" font-family="Helvetica,sans-Serif" font-size="10.00">Inspectable.h</text>
</a>
</g>
</g>
<!-- Node14&#45;&gt;Node19 -->
<g id="edge25_Node000014_Node000019" class="edge">
<title>Node14&#45;&gt;Node19</title>
<g id="a_edge25_Node000014_Node000019"><a xlink:title=" ">
<path fill="none" stroke="#63b8ff" d="M760.51,-331.33C753.6,-323.98 743.54,-313.26 735.02,-304.19"/>
<polygon fill="#63b8ff" stroke="#63b8ff" points="737.63,-301.86 728.24,-296.96 732.53,-306.65 737.63,-301.86"/>
</a>
</g>
</g>
<!-- Node16 -->
<g id="Node000016" class="node">
<title>Node16</title>
<g id="a_Node000016"><a xlink:href="_error_types_8h.html" target="_top" xlink:title=" ">
<polygon fill="white" stroke="#666666" points="921.51,-240.25 850.01,-240.25 850.01,-221 921.51,-221 921.51,-240.25"/>
<text text-anchor="middle" x="885.76" y="-226.75" font-family="Helvetica,sans-Serif" font-size="10.00">ErrorTypes.h</text>
</a>
</g>
</g>
<!-- Node15&#45;&gt;Node16 -->
<g id="edge19_Node000015_Node000016" class="edge">
<title>Node15&#45;&gt;Node16</title>
<g id="a_edge19_Node000015_Node000016"><a xlink:title=" ">
<path fill="none" stroke="#63b8ff" d="M812.69,-275.84C825.97,-267.81 845.63,-255.91 861.22,-246.48"/>
<polygon fill="#63b8ff" stroke="#63b8ff" points="862.72,-249.66 869.47,-241.49 859.1,-243.67 862.72,-249.66"/>
</a>
</g>
</g>
<!-- Node17 -->
<g id="Node000017" class="node">
<title>Node17</title>
<g id="a_Node000017"><a xlink:href="_exception_8h.html" target="_top" xlink:title=" ">
<polygon fill="white" stroke="#666666" points="831.64,-240.25 763.89,-240.25 763.89,-221 831.64,-221 831.64,-240.25"/>
<text text-anchor="middle" x="797.76" y="-226.75" font-family="Helvetica,sans-Serif" font-size="10.00">Exception.h</text>
</a>
</g>
</g>
<!-- Node15&#45;&gt;Node17 -->
<g id="edge22_Node000015_Node000017" class="edge">
<title>Node15&#45;&gt;Node17</title>
<g id="a_edge22_Node000015_Node000017"><a xlink:title=" ">
<path fill="none" stroke="#63b8ff" d="M797.76,-276.08C797.76,-269.57 797.76,-260.42 797.76,-252.12"/>
<polygon fill="#63b8ff" stroke="#63b8ff" points="801.26,-252.12 797.76,-242.12 794.26,-252.12 801.26,-252.12"/>
</a>
</g>
</g>
<!-- Node16&#45;&gt;Node3 -->
<g id="edge20_Node000016_Node000003" class="edge">
<title>Node16&#45;&gt;Node3</title>
<g id="a_edge20_Node000016_Node000003"><a xlink:title=" ">
<path fill="none" stroke="#63b8ff" d="M921.84,-222.12C961.49,-213.83 1027.37,-199.96 1094.01,-185.36"/>
<polygon fill="#63b8ff" stroke="#63b8ff" points="1094.64,-188.8 1103.66,-183.24 1093.14,-181.97 1094.64,-188.8"/>
</a>
</g>
</g>
<!-- Node16&#45;&gt;Node9 -->
<g id="edge21_Node000016_Node000009" class="edge">
<title>Node16&#45;&gt;Node9</title>
<g id="a_edge21_Node000016_Node000009"><a xlink:title=" ">
<path fill="none" stroke="#63b8ff" d="M914.09,-220.59C941.44,-211.87 983.09,-198.59 1013.6,-188.86"/>
<polygon fill="#63b8ff" stroke="#63b8ff" points="1014.39,-192.28 1022.85,-185.91 1012.26,-185.62 1014.39,-192.28"/>
</a>
</g>
</g>
<!-- Node17&#45;&gt;Node5 -->
<g id="edge23_Node000017_Node000005" class="edge">
<title>Node17&#45;&gt;Node5</title>
<g id="a_edge23_Node000017_Node000005"><a xlink:title=" ">
<path fill="none" stroke="#63b8ff" d="M764.98,-220.59C662.32,-192.29 347.46,-105.49 240.09,-75.89"/>
<polygon fill="#63b8ff" stroke="#63b8ff" points="241.22,-72.57 230.65,-73.29 239.36,-79.32 241.22,-72.57"/>
</a>
</g>
</g>
<!-- Node18 -->
<g id="Node000018" class="node">
<title>Node18</title>
<g id="a_Node000018"><a xlink:title=" ">
<polygon fill="#e0e0e0" stroke="#999999" points="826.76,-185 768.76,-185 768.76,-165.75 826.76,-165.75 826.76,-185"/>
<text text-anchor="middle" x="797.76" y="-171.5" font-family="Helvetica,sans-Serif" font-size="10.00">exception</text>
</a>
</g>
</g>
<!-- Node17&#45;&gt;Node18 -->
<g id="edge24_Node000017_Node000018" class="edge">
<title>Node17&#45;&gt;Node18</title>
<g id="a_edge24_Node000017_Node000018"><a xlink:title=" ">
<path fill="none" stroke="#63b8ff" d="M797.76,-220.83C797.76,-214.32 797.76,-205.17 797.76,-196.87"/>
<polygon fill="#63b8ff" stroke="#63b8ff" points="801.26,-196.87 797.76,-186.87 794.26,-196.87 801.26,-196.87"/>
</a>
</g>
</g>
<!-- Node20 -->
<g id="Node000020" class="node">
<title>Node20</title>
<g id="a_Node000020"><a xlink:title=" ">
<polygon fill="#e0e0e0" stroke="#999999" points="745.51,-240.25 692.01,-240.25 692.01,-221 745.51,-221 745.51,-240.25"/>
<text text-anchor="middle" x="718.76" y="-226.75" font-family="Helvetica,sans-Serif" font-size="10.00">iostream</text>
</a>
</g>
</g>
<!-- Node19&#45;&gt;Node20 -->
<g id="edge26_Node000019_Node000020" class="edge">
<title>Node19&#45;&gt;Node20</title>
<g id="a_edge26_Node000019_Node000020"><a xlink:title=" ">
<path fill="none" stroke="#63b8ff" d="M718.76,-276.08C718.76,-269.57 718.76,-260.42 718.76,-252.12"/>
<polygon fill="#63b8ff" stroke="#63b8ff" points="722.26,-252.12 718.76,-242.12 715.26,-252.12 722.26,-252.12"/>
</a>
</g>
</g>
<!-- Node21&#45;&gt;Node22 -->
<g id="edge28_Node000021_Node000022" class="edge">
<title>Node21&#45;&gt;Node22</title>
<g id="a_edge28_Node000021_Node000022"><a xlink:title=" ">
<path fill="none" stroke="#63b8ff" d="M139.13,-386.58C136.35,-379.84 132.39,-370.27 128.87,-361.74"/>
<polygon fill="#63b8ff" stroke="#63b8ff" points="132.11,-360.41 125.05,-352.51 125.64,-363.09 132.11,-360.41"/>
</a>
</g>
</g>
<!-- Node22&#45;&gt;Node23 -->
<g id="edge29_Node000022_Node000023" class="edge">
<title>Node22&#45;&gt;Node23</title>
<g id="a_edge29_Node000022_Node000023"><a xlink:title=" ">
<path fill="none" stroke="#63b8ff" d="M105.5,-331.09C91.92,-323.06 71.81,-311.16 55.87,-301.73"/>
<polygon fill="#63b8ff" stroke="#63b8ff" points="57.8,-298.8 47.41,-296.72 54.23,-304.83 57.8,-298.8"/>
</a>
</g>
</g>
<!-- Node25 -->
<g id="Node000025" class="node">
<title>Node25</title>
<g id="a_Node000025"><a xlink:title=" ">
<polygon fill="#e0e0e0" stroke="#999999" points="122.26,-295.5 79.26,-295.5 79.26,-276.25 122.26,-276.25 122.26,-295.5"/>
<text text-anchor="middle" x="100.76" y="-282" font-family="Helvetica,sans-Serif" font-size="10.00">thread</text>
</a>
</g>
</g>
<!-- Node22&#45;&gt;Node25 -->
<g id="edge32_Node000022_Node000025" class="edge">
<title>Node22&#45;&gt;Node25</title>
<g id="a_edge32_Node000022_Node000025"><a xlink:title=" ">
<path fill="none" stroke="#63b8ff" d="M117.46,-331.33C114.93,-324.59 111.34,-315.02 108.13,-306.49"/>
<polygon fill="#63b8ff" stroke="#63b8ff" points="111.46,-305.41 104.67,-297.28 104.91,-307.87 111.46,-305.41"/>
</a>
</g>
</g>
<!-- Node26 -->
<g id="Node000026" class="node">
<title>Node26</title>
<g id="a_Node000026"><a xlink:title=" ">
<polygon fill="#e0e0e0" stroke="#999999" points="181.14,-295.5 140.39,-295.5 140.39,-276.25 181.14,-276.25 181.14,-295.5"/>
<text text-anchor="middle" x="160.76" y="-282" font-family="Helvetica,sans-Serif" font-size="10.00">future</text>
</a>
</g>
</g>
<!-- Node22&#45;&gt;Node26 -->
<g id="edge33_Node000022_Node000026" class="edge">
<title>Node22&#45;&gt;Node26</title>
<g id="a_edge33_Node000022_Node000026"><a xlink:title=" ">
<path fill="none" stroke="#63b8ff" d="M127.37,-331.33C132.72,-324.21 140.44,-313.93 147.11,-305.05"/>
<polygon fill="#63b8ff" stroke="#63b8ff" points="149.9,-307.17 153.11,-297.07 144.3,-302.96 149.9,-307.17"/>
</a>
</g>
</g>
<!-- Node23&#45;&gt;Node5 -->
<g id="edge30_Node000023_Node000005" class="edge">
<title>Node23&#45;&gt;Node5</title>
<g id="a_edge30_Node000023_Node000005"><a xlink:title=" ">
<path fill="none" stroke="#63b8ff" d="M22.55,-275.76C15.48,-267.27 5.81,-253.89 1.76,-240.25 -0.67,-232.05 -0.43,-229.27 1.76,-221 16.25,-166.35 20.86,-146.12 64.76,-110.5 94.13,-86.67 136.48,-75.46 166.7,-70.26"/>
<polygon fill="#63b8ff" stroke="#63b8ff" points="167.2,-73.72 176.54,-68.72 166.12,-66.8 167.2,-73.72"/>
</a>
</g>
</g>
<!-- Node24 -->
<g id="Node000024" class="node">
<title>Node24</title>
<g id="a_Node000024"><a xlink:title=" ">
<polygon fill="#e0e0e0" stroke="#999999" points="50.76,-240.25 10.76,-240.25 10.76,-221 50.76,-221 50.76,-240.25"/>
<text text-anchor="middle" x="30.76" y="-226.75" font-family="Helvetica,sans-Serif" font-size="10.00">ctime</text>
</a>
</g>
</g>
<!-- Node23&#45;&gt;Node24 -->
<g id="edge31_Node000023_Node000024" class="edge">
<title>Node23&#45;&gt;Node24</title>
<g id="a_edge31_Node000023_Node000024"><a xlink:title=" ">
<path fill="none" stroke="#63b8ff" d="M30.76,-276.08C30.76,-269.57 30.76,-260.42 30.76,-252.12"/>
<polygon fill="#63b8ff" stroke="#63b8ff" points="34.26,-252.12 30.76,-242.12 27.26,-252.12 34.26,-252.12"/>
</a>
</g>
</g>
<!-- Node28&#45;&gt;Node9 -->
<g id="edge39_Node000028_Node000009" class="edge">
<title>Node28&#45;&gt;Node9</title>
<g id="a_edge39_Node000028_Node000009"><a xlink:title=" ">
<path fill="none" stroke="#63b8ff" d="M881.17,-441.69C889.86,-433.11 902.74,-419.49 911.76,-406 962.5,-330.16 945.18,-293.36 1000.76,-221 1009.11,-210.13 1020.47,-200.01 1030.45,-192.16"/>
<polygon fill="#63b8ff" stroke="#63b8ff" points="1032.35,-195.11 1038.24,-186.3 1028.14,-189.52 1032.35,-195.11"/>
</a>
</g>
</g>
<!-- Node29 -->
<g id="Node000029" class="node">
<title>Node29</title>
<g id="a_Node000029"><a xlink:href="_option_types_8h.html" target="_top" xlink:title=" ">
<polygon fill="white" stroke="#666666" points="1038.26,-350.75 959.26,-350.75 959.26,-331.5 1038.26,-331.5 1038.26,-350.75"/>
<text text-anchor="middle" x="998.76" y="-337.25" font-family="Helvetica,sans-Serif" font-size="10.00">OptionTypes.h</text>
</a>
</g>
</g>
<!-- Node28&#45;&gt;Node29 -->
<g id="edge36_Node000028_Node000029" class="edge">
<title>Node28&#45;&gt;Node29</title>
<g id="a_edge36_Node000028_Node000029"><a xlink:title=" ">
<path fill="none" stroke="#63b8ff" d="M889.94,-441.63C905.4,-433.5 927.74,-420.6 944.76,-406 960.58,-392.44 975.62,-374.02 985.8,-360.45"/>
<polygon fill="#63b8ff" stroke="#63b8ff" points="988.6,-362.54 991.67,-352.4 982.95,-358.41 988.6,-362.54"/>
</a>
</g>
</g>
<!-- Node30 -->
<g id="Node000030" class="node">
<title>Node30</title>
<g id="a_Node000030"><a xlink:href="_defaults_8h.html" target="_top" xlink:title=" ">
<polygon fill="white" stroke="#666666" points="902.26,-406 841.26,-406 841.26,-386.75 902.26,-386.75 902.26,-406"/>
<text text-anchor="middle" x="871.76" y="-392.5" font-family="Helvetica,sans-Serif" font-size="10.00">Defaults.h</text>
</a>
</g>
</g>
<!-- Node28&#45;&gt;Node30 -->
<g id="edge40_Node000028_Node000030" class="edge">
<title>Node28&#45;&gt;Node30</title>
<g id="a_edge40_Node000028_Node000030"><a xlink:title=" ">
<path fill="none" stroke="#63b8ff" d="M871.76,-441.83C871.76,-435.32 871.76,-426.17 871.76,-417.87"/>
<polygon fill="#63b8ff" stroke="#63b8ff" points="875.26,-417.87 871.76,-407.87 868.26,-417.87 875.26,-417.87"/>
</a>
</g>
</g>
<!-- Node40 -->
<g id="Node000040" class="node">
<title>Node40</title>
<g id="a_Node000040"><a xlink:title=" ">
<polygon fill="#e0e0e0" stroke="#999999" points="823.64,-406 767.89,-406 767.89,-386.75 823.64,-386.75 823.64,-406"/>
<text text-anchor="middle" x="795.76" y="-392.5" font-family="Helvetica,sans-Serif" font-size="10.00">algorithm</text>
</a>
</g>
</g>
<!-- Node28&#45;&gt;Node40 -->
<g id="edge57_Node000028_Node000040" class="edge">
<title>Node28&#45;&gt;Node40</title>
<g id="a_edge57_Node000028_Node000040"><a xlink:title=" ">
<path fill="none" stroke="#63b8ff" d="M858.87,-441.59C847.73,-433.79 831.39,-422.34 818.13,-413.04"/>
<polygon fill="#63b8ff" stroke="#63b8ff" points="820.16,-410.19 809.96,-407.32 816.14,-415.93 820.16,-410.19"/>
</a>
</g>
</g>
<!-- Node29&#45;&gt;Node3 -->
<g id="edge37_Node000029_Node000003" class="edge">
<title>Node29&#45;&gt;Node3</title>
<g id="a_edge37_Node000029_Node000003"><a xlink:title=" ">
<path fill="none" stroke="#63b8ff" d="M1001.27,-331.29C1008.38,-306.7 1029.19,-238.15 1044.76,-221 1058.14,-206.27 1077.48,-195.76 1094.72,-188.66"/>
<polygon fill="#63b8ff" stroke="#63b8ff" points="1095.61,-192.07 1103.69,-185.22 1093.1,-185.53 1095.61,-192.07"/>
</a>
</g>
</g>
<!-- Node29&#45;&gt;Node9 -->
<g id="edge38_Node000029_Node000009" class="edge">
<title>Node29&#45;&gt;Node9</title>
<g id="a_edge38_Node000029_Node000009"><a xlink:title=" ">
<path fill="none" stroke="#63b8ff" d="M997.91,-331.27C996.33,-310.8 994.49,-259.08 1011.76,-221 1016.56,-210.42 1024.85,-200.66 1032.73,-192.99"/>
<polygon fill="#63b8ff" stroke="#63b8ff" points="1035.05,-195.6 1040.11,-186.29 1030.35,-190.42 1035.05,-195.6"/>
</a>
</g>
</g>
<!-- Node30&#45;&gt;Node14 -->
<g id="edge41_Node000030_Node000014" class="edge">
<title>Node30&#45;&gt;Node14</title>
<g id="a_edge41_Node000030_Node000014"><a xlink:title=" ">
<path fill="none" stroke="#63b8ff" d="M854.29,-386.34C838.46,-378.16 814.86,-365.96 796.46,-356.44"/>
<polygon fill="#63b8ff" stroke="#63b8ff" points="798.16,-353.38 787.67,-351.9 794.94,-359.6 798.16,-353.38"/>
</a>
</g>
</g>
<!-- Node30&#45;&gt;Node22 -->
<g id="edge43_Node000030_Node000022" class="edge">
<title>Node30&#45;&gt;Node22</title>
<g id="a_edge43_Node000030_Node000022"><a xlink:title=" ">
<path fill="none" stroke="#63b8ff" d="M841.19,-388.14C838.35,-387.61 835.51,-387.14 832.76,-386.75 586.74,-352.05 289.07,-344.33 171.78,-342.61"/>
<polygon fill="#63b8ff" stroke="#63b8ff" points="171.91,-339.12 161.86,-342.48 171.81,-346.12 171.91,-339.12"/>
</a>
</g>
</g>
<!-- Node30&#45;&gt;Node29 -->
<g id="edge42_Node000030_Node000029" class="edge">
<title>Node30&#45;&gt;Node29</title>
<g id="a_edge42_Node000030_Node000029"><a xlink:title=" ">
<path fill="none" stroke="#63b8ff" d="M893.31,-386.34C913.38,-377.93 943.57,-365.27 966.51,-355.65"/>
<polygon fill="#63b8ff" stroke="#63b8ff" points="967.85,-358.88 975.72,-351.79 965.14,-352.43 967.85,-358.88"/>
</a>
</g>
</g>
<!-- Node31 -->
<g id="Node000031" class="node">
<title>Node31</title>
<g id="a_Node000031"><a xlink:href="_i_o_utils_8h.html" target="_top" xlink:title=" ">
<polygon fill="white" stroke="#666666" points="499.26,-295.5 444.26,-295.5 444.26,-276.25 499.26,-276.25 499.26,-295.5"/>
<text text-anchor="middle" x="471.76" y="-282" font-family="Helvetica,sans-Serif" font-size="10.00">IOUtils.h</text>
</a>
</g>
</g>
<!-- Node30&#45;&gt;Node31 -->
<g id="edge44_Node000030_Node000031" class="edge">
<title>Node30&#45;&gt;Node31</title>
<g id="a_edge44_Node000030_Node000031"><a xlink:title=" ">
<path fill="none" stroke="#63b8ff" d="M841.04,-387.04C769.12,-367.53 589.9,-318.92 510.58,-297.41"/>
<polygon fill="#63b8ff" stroke="#63b8ff" points="511.66,-294.07 501.09,-294.83 509.83,-300.83 511.66,-294.07"/>
</a>
</g>
</g>
<!-- Node31&#45;&gt;Node5 -->
<g id="edge45_Node000031_Node000005" class="edge">
<title>Node31&#45;&gt;Node5</title>
<g id="a_edge45_Node000031_Node000005"><a xlink:title=" ">
<path fill="none" stroke="#63b8ff" d="M443.87,-283.64C361.02,-279.7 120.72,-266.11 97.76,-240.25 51.72,-188.39 138.07,-113.88 181.26,-81.69"/>
<polygon fill="#63b8ff" stroke="#63b8ff" points="183.25,-84.57 189.27,-75.85 179.12,-78.92 183.25,-84.57"/>
</a>
</g>
</g>
<!-- Node31&#45;&gt;Node20 -->
<g id="edge53_Node000031_Node000020" class="edge">
<title>Node31&#45;&gt;Node20</title>
<g id="a_edge53_Node000031_Node000020"><a xlink:title=" ">
<path fill="none" stroke="#63b8ff" d="M499.61,-279.33C538.22,-271.57 610.44,-256.82 680.83,-240.87"/>
<polygon fill="#63b8ff" stroke="#63b8ff" points="681.2,-244.37 690.18,-238.74 679.65,-237.55 681.2,-244.37"/>
</a>
</g>
</g>
<!-- Node32 -->
<g id="Node000032" class="node">
<title>Node32</title>
<g id="a_Node000032"><a xlink:href="_string_utils_8h.html" target="_top" xlink:title=" ">
<polygon fill="white" stroke="#666666" points="176.76,-240.25 106.76,-240.25 106.76,-221 176.76,-221 176.76,-240.25"/>
<text text-anchor="middle" x="141.76" y="-226.75" font-family="Helvetica,sans-Serif" font-size="10.00">StringUtils.h</text>
</a>
</g>
</g>
<!-- Node31&#45;&gt;Node32 -->
<g id="edge46_Node000031_Node000032" class="edge">
<title>Node31&#45;&gt;Node32</title>
<g id="a_edge46_Node000031_Node000032"><a xlink:title=" ">
<path fill="none" stroke="#63b8ff" d="M443.91,-280.38C387.17,-271.22 257.67,-250.33 188.06,-239.1"/>
<polygon fill="#63b8ff" stroke="#63b8ff" points="188.94,-235.69 178.51,-237.55 187.82,-242.6 188.94,-235.69"/>
</a>
</g>
</g>
<!-- Node31&#45;&gt;Node33 -->
<g id="edge56_Node000031_Node000033" class="edge">
<title>Node31&#45;&gt;Node33</title>
<g id="a_edge56_Node000031_Node000033"><a xlink:title=" ">
<path fill="none" stroke="#63b8ff" d="M499.52,-279.93C540.92,-271.42 611.21,-251.86 583.76,-221 560.93,-195.32 326.13,-181.95 237.97,-177.81"/>
<polygon fill="#63b8ff" stroke="#63b8ff" points="238.2,-174.32 228.05,-177.35 237.88,-181.31 238.2,-174.32"/>
</a>
</g>
</g>
<!-- Node34 -->
<g id="Node000034" class="node">
<title>Node34</title>
<g id="a_Node000034"><a xlink:title=" ">
<polygon fill="#e0e0e0" stroke="#999999" points="674.26,-240.25 631.26,-240.25 631.26,-221 674.26,-221 674.26,-240.25"/>
<text text-anchor="middle" x="652.76" y="-226.75" font-family="Helvetica,sans-Serif" font-size="10.00">fcntl.h</text>
</a>
</g>
</g>
<!-- Node31&#45;&gt;Node34 -->
<g id="edge49_Node000031_Node000034" class="edge">
<title>Node31&#45;&gt;Node34</title>
<g id="a_edge49_Node000031_Node000034"><a xlink:title=" ">
<path fill="none" stroke="#63b8ff" d="M499.65,-276.67C532.08,-267.13 585.55,-251.4 619.95,-241.28"/>
<polygon fill="#63b8ff" stroke="#63b8ff" points="620.77,-244.69 629.37,-238.51 618.79,-237.97 620.77,-244.69"/>
</a>
</g>
</g>
<!-- Node35 -->
<g id="Node000035" class="node">
<title>Node35</title>
<g id="a_Node000035"><a xlink:title=" ">
<polygon fill="#e0e0e0" stroke="#999999" points="294.26,-240.25 233.26,-240.25 233.26,-221 294.26,-221 294.26,-240.25"/>
<text text-anchor="middle" x="263.76" y="-226.75" font-family="Helvetica,sans-Serif" font-size="10.00">filesystem</text>
</a>
</g>
</g>
<!-- Node31&#45;&gt;Node35 -->
<g id="edge50_Node000031_Node000035" class="edge">
<title>Node31&#45;&gt;Node35</title>
<g id="a_edge50_Node000031_Node000035"><a xlink:title=" ">
<path fill="none" stroke="#63b8ff" d="M444.14,-277.8C408.69,-268.73 346.84,-252.89 305.6,-242.33"/>
<polygon fill="#63b8ff" stroke="#63b8ff" points="306.57,-238.97 296.01,-239.88 304.83,-245.75 306.57,-238.97"/>
</a>
</g>
</g>
<!-- Node36 -->
<g id="Node000036" class="node">
<title>Node36</title>
<g id="a_Node000036"><a xlink:title=" ">
<polygon fill="#e0e0e0" stroke="#999999" points="361.26,-240.25 312.26,-240.25 312.26,-221 361.26,-221 361.26,-240.25"/>
<text text-anchor="middle" x="336.76" y="-226.75" font-family="Helvetica,sans-Serif" font-size="10.00">fstream</text>
</a>
</g>
</g>
<!-- Node31&#45;&gt;Node36 -->
<g id="edge51_Node000031_Node000036" class="edge">
<title>Node31&#45;&gt;Node36</title>
<g id="a_edge51_Node000031_Node000036"><a xlink:title=" ">
<path fill="none" stroke="#63b8ff" d="M448.86,-275.84C427.33,-267.35 394.85,-254.54 370.39,-244.89"/>
<polygon fill="#63b8ff" stroke="#63b8ff" points="371.77,-241.67 361.18,-241.26 369.2,-248.18 371.77,-241.67"/>
</a>
</g>
</g>
<!-- Node37 -->
<g id="Node000037" class="node">
<title>Node37</title>
<g id="a_Node000037"><a xlink:title=" ">
<polygon fill="#e0e0e0" stroke="#999999" points="427.89,-240.25 379.64,-240.25 379.64,-221 427.89,-221 427.89,-240.25"/>
<text text-anchor="middle" x="403.76" y="-226.75" font-family="Helvetica,sans-Serif" font-size="10.00">istream</text>
</a>
</g>
</g>
<!-- Node31&#45;&gt;Node37 -->
<g id="edge52_Node000031_Node000037" class="edge">
<title>Node31&#45;&gt;Node37</title>
<g id="a_edge52_Node000031_Node000037"><a xlink:title=" ">
<path fill="none" stroke="#63b8ff" d="M460.23,-275.84C450.3,-268.07 435.75,-256.67 423.91,-247.4"/>
<polygon fill="#63b8ff" stroke="#63b8ff" points="426.35,-244.87 416.32,-241.46 422.04,-250.38 426.35,-244.87"/>
</a>
</g>
</g>
<!-- Node38 -->
<g id="Node000038" class="node">
<title>Node38</title>
<g id="a_Node000038"><a xlink:title=" ">
<polygon fill="#e0e0e0" stroke="#999999" points="497.39,-240.25 446.14,-240.25 446.14,-221 497.39,-221 497.39,-240.25"/>
<text text-anchor="middle" x="471.76" y="-226.75" font-family="Helvetica,sans-Serif" font-size="10.00">sstream</text>
</a>
</g>
</g>
<!-- Node31&#45;&gt;Node38 -->
<g id="edge54_Node000031_Node000038" class="edge">
<title>Node31&#45;&gt;Node38</title>
<g id="a_edge54_Node000031_Node000038"><a xlink:title=" ">
<path fill="none" stroke="#63b8ff" d="M471.76,-276.08C471.76,-269.57 471.76,-260.42 471.76,-252.12"/>
<polygon fill="#63b8ff" stroke="#63b8ff" points="475.26,-252.12 471.76,-242.12 468.26,-252.12 475.26,-252.12"/>
</a>
</g>
</g>
<!-- Node39 -->
<g id="Node000039" class="node">
<title>Node39</title>
<g id="a_Node000039"><a xlink:title=" ">
<polygon fill="#e0e0e0" stroke="#999999" points="574.51,-240.25 515.01,-240.25 515.01,-221 574.51,-221 574.51,-240.25"/>
<text text-anchor="middle" x="544.76" y="-226.75" font-family="Helvetica,sans-Serif" font-size="10.00">sys/stat.h</text>
</a>
</g>
</g>
<!-- Node31&#45;&gt;Node39 -->
<g id="edge55_Node000031_Node000039" class="edge">
<title>Node31&#45;&gt;Node39</title>
<g id="a_edge55_Node000031_Node000039"><a xlink:title=" ">
<path fill="none" stroke="#63b8ff" d="M484.15,-275.84C494.91,-267.99 510.73,-256.45 523.52,-247.12"/>
<polygon fill="#63b8ff" stroke="#63b8ff" points="525.32,-250.14 531.34,-241.42 521.2,-244.48 525.32,-250.14"/>
</a>
</g>
</g>
<!-- Node32&#45;&gt;Node5 -->
<g id="edge47_Node000032_Node000005" class="edge">
<title>Node32&#45;&gt;Node5</title>
<g id="a_edge47_Node000032_Node000005"><a xlink:title=" ">
<path fill="none" stroke="#63b8ff" d="M145.1,-220.82C154.77,-195.28 183,-120.7 196.46,-85.15"/>
<polygon fill="#63b8ff" stroke="#63b8ff" points="199.61,-86.73 199.88,-76.14 193.06,-84.25 199.61,-86.73"/>
</a>
</g>
</g>
<!-- Node32&#45;&gt;Node33 -->
<g id="edge48_Node000032_Node000033" class="edge">
<title>Node32&#45;&gt;Node33</title>
<g id="a_edge48_Node000032_Node000033"><a xlink:title=" ">
<path fill="none" stroke="#63b8ff" d="M152.45,-220.59C161.47,-212.97 174.6,-201.87 185.45,-192.7"/>
<polygon fill="#63b8ff" stroke="#63b8ff" points="187.7,-195.38 193.08,-186.25 183.18,-190.03 187.7,-195.38"/>
</a>
</g>
</g>
<!-- Node42 -->
<g id="Node000042" class="node">
<title>Node42</title>
<g id="a_Node000042"><a xlink:title=" ">
<polygon fill="#e0e0e0" stroke="#999999" points="1130.89,-406 1088.64,-406 1088.64,-386.75 1130.89,-386.75 1130.89,-406"/>
<text text-anchor="middle" x="1109.76" y="-392.5" font-family="Helvetica,sans-Serif" font-size="10.00">cstdio</text>
</a>
</g>
</g>
<!-- Node41&#45;&gt;Node42 -->
<g id="edge60_Node000041_Node000042" class="edge">
<title>Node41&#45;&gt;Node42</title>
<g id="a_edge60_Node000041_Node000042"><a xlink:title=" ">
<path fill="none" stroke="#63b8ff" d="M1109.76,-441.83C1109.76,-435.32 1109.76,-426.17 1109.76,-417.87"/>
<polygon fill="#63b8ff" stroke="#63b8ff" points="1113.26,-417.87 1109.76,-407.87 1106.26,-417.87 1113.26,-417.87"/>
</a>
</g>
</g>
<!-- Node43&#45;&gt;Node3 -->
<g id="edge64_Node000043_Node000003" class="edge">
<title>Node43&#45;&gt;Node3</title>
<g id="a_edge64_Node000043_Node000003"><a xlink:title=" ">
<path fill="none" stroke="#63b8ff" d="M1353.36,-222.05C1305.69,-212.14 1222.43,-194.82 1173.27,-184.59"/>
<polygon fill="#63b8ff" stroke="#63b8ff" points="1174.13,-181.2 1163.63,-182.59 1172.7,-188.05 1174.13,-181.2"/>
</a>
</g>
</g>
<!-- Node43&#45;&gt;Node9 -->
<g id="edge65_Node000043_Node000009" class="edge">
<title>Node43&#45;&gt;Node9</title>
<g id="a_edge65_Node000043_Node000009"><a xlink:title=" ">
<path fill="none" stroke="#63b8ff" d="M1353.44,-222.52C1350.51,-221.99 1347.59,-221.48 1344.76,-221 1238.47,-203.11 1208.47,-203.66 1098.57,-185.22"/>
<polygon fill="#63b8ff" stroke="#63b8ff" points="1099.26,-181.79 1088.81,-183.57 1098.09,-188.69 1099.26,-181.79"/>
</a>
</g>
</g>
<!-- Node44 -->
<g id="Node000044" class="node">
<title>Node44</title>
<g id="a_Node000044"><a xlink:href="_peddle_types_8h.html" target="_top" xlink:title=" ">
<polygon fill="white" stroke="#666666" points="1130.01,-129.75 1049.51,-129.75 1049.51,-110.5 1130.01,-110.5 1130.01,-129.75"/>
<text text-anchor="middle" x="1089.76" y="-116.25" font-family="Helvetica,sans-Serif" font-size="10.00">PeddleTypes.h</text>
</a>
</g>
</g>
<!-- Node43&#45;&gt;Node44 -->
<g id="edge66_Node000043_Node000044" class="edge">
<title>Node43&#45;&gt;Node44</title>
<g id="a_edge66_Node000043_Node000044"><a xlink:title=" ">
<path fill="none" stroke="#63b8ff" d="M1364.7,-220.56C1311.54,-201.33 1187.31,-156.4 1125.71,-134.12"/>
<polygon fill="#63b8ff" stroke="#63b8ff" points="1126.98,-130.86 1116.39,-130.75 1124.6,-137.45 1126.98,-130.86"/>
</a>
</g>
</g>
<!-- Node44&#45;&gt;Node5 -->
<g id="edge67_Node000044_Node000005" class="edge">
<title>Node44&#45;&gt;Node5</title>
<g id="a_edge67_Node000044_Node000005"><a xlink:title=" ">
<path fill="none" stroke="#63b8ff" d="M1049.1,-116.68C899.71,-107.7 382.49,-76.62 240.23,-68.07"/>
<polygon fill="#63b8ff" stroke="#63b8ff" points="240.84,-64.6 230.65,-67.49 240.42,-71.58 240.84,-64.6"/>
</a>
</g>
</g>
</g>
</svg>
