<?xml version="1.0" encoding="UTF-8" standalone="no"?>
<!DOCTYPE svg PUBLIC "-//W3C//DTD SVG 1.1//EN"
 "http://www.w3.org/Graphics/SVG/1.1/DTD/svg11.dtd">
<!-- Generated by graphviz version 10.0.1 (20240210.2158)
 -->
<!-- Title: /Users/hoff/Retro/virtualc64/Emulator/Components/VICII/Recorder/Recorder.h Pages: 1 -->
<svg width="1440pt" height="658pt"
 viewBox="0.00 0.00 1439.86 657.50" xmlns="http://www.w3.org/2000/svg" xmlns:xlink="http://www.w3.org/1999/xlink">
<g id="graph0" class="graph" transform="scale(1 1) rotate(0) translate(4 653.5)">
<title>/Users/hoff/Retro/virtualc64/Emulator/Components/VICII/Recorder/Recorder.h</title>
<!-- Node1 -->
<g id="Node000001" class="node">
<title>Node1</title>
<g id="a_Node000001"><a xlink:title=" ">
<polygon fill="#999999" stroke="#666666" points="614.61,-649.5 471.86,-649.5 471.86,-607.75 614.61,-607.75 614.61,-649.5"/>
<text text-anchor="start" x="479.86" y="-636" font-family="Helvetica,sans-Serif" font-size="10.00">/Users/hoff/Retro/virtualc64</text>
<text text-anchor="start" x="479.86" y="-624.75" font-family="Helvetica,sans-Serif" font-size="10.00">/Emulator/Components/VICII</text>
<text text-anchor="middle" x="543.23" y="-613.5" font-family="Helvetica,sans-Serif" font-size="10.00">/Recorder/Recorder.h</text>
</a>
</g>
</g>
<!-- Node2 -->
<g id="Node000002" class="node">
<title>Node2</title>
<g id="a_Node000002"><a xlink:href="_sub_component_8h.html" target="_top" xlink:title=" ">
<polygon fill="white" stroke="#666666" points="726.11,-571.75 634.36,-571.75 634.36,-552.5 726.11,-552.5 726.11,-571.75"/>
<text text-anchor="middle" x="680.23" y="-558.25" font-family="Helvetica,sans-Serif" font-size="10.00">SubComponent.h</text>
</a>
</g>
</g>
<!-- Node1&#45;&gt;Node2 -->
<g id="edge1_Node000001_Node000002" class="edge">
<title>Node1&#45;&gt;Node2</title>
<g id="a_edge1_Node000001_Node000002"><a xlink:title=" ">
<path fill="none" stroke="#63b8ff" d="M586.2,-607.39C607.2,-597.51 631.92,-585.87 650.75,-577.01"/>
<polygon fill="#63b8ff" stroke="#63b8ff" points="652.15,-580.22 659.71,-572.79 649.17,-573.88 652.15,-580.22"/>
</a>
</g>
</g>
<!-- Node22 -->
<g id="Node000022" class="node">
<title>Node22</title>
<g id="a_Node000022"><a xlink:href="_chrono_8h.html" target="_top" xlink:title=" ">
<polygon fill="white" stroke="#666666" points="511.11,-295.5 455.36,-295.5 455.36,-276.25 511.11,-276.25 511.11,-295.5"/>
<text text-anchor="middle" x="483.23" y="-282" font-family="Helvetica,sans-Serif" font-size="10.00">Chrono.h</text>
</a>
</g>
</g>
<!-- Node1&#45;&gt;Node22 -->
<g id="edge65_Node000001_Node000022" class="edge">
<title>Node1&#45;&gt;Node22</title>
<g id="a_edge65_Node000001_Node000022"><a xlink:title=" ">
<path fill="none" stroke="#63b8ff" d="M471.64,-614.54C443.85,-606.31 413.63,-593.04 392.23,-571.75 370.74,-550.36 368.23,-538.2 368.23,-507.88 368.23,-507.88 368.23,-507.88 368.23,-395.38 368.23,-349.73 416.76,-317.6 450.77,-300.69"/>
<polygon fill="#63b8ff" stroke="#63b8ff" points="451.89,-304.03 459.42,-296.58 448.88,-297.71 451.89,-304.03"/>
</a>
</g>
</g>
<!-- Node44 -->
<g id="Node000044" class="node">
<title>Node44</title>
<g id="a_Node000044"><a xlink:href="_f_fmpeg_8h.html" target="_top" xlink:title=" ">
<polygon fill="white" stroke="#666666" points="753.36,-240.25 693.11,-240.25 693.11,-221 753.36,-221 753.36,-240.25"/>
<text text-anchor="middle" x="723.23" y="-226.75" font-family="Helvetica,sans-Serif" font-size="10.00">FFmpeg.h</text>
</a>
</g>
</g>
<!-- Node1&#45;&gt;Node44 -->
<g id="edge66_Node000001_Node000044" class="edge">
<title>Node1&#45;&gt;Node44</title>
<g id="a_edge66_Node000001_Node000044"><a xlink:title=" ">
<path fill="none" stroke="#63b8ff" d="M531.65,-607.27C513.57,-572.79 482.54,-500.89 501.23,-442 532.19,-344.46 642.35,-274.55 694.92,-245.95"/>
<polygon fill="#63b8ff" stroke="#63b8ff" points="696.4,-249.13 703.59,-241.35 693.11,-242.95 696.4,-249.13"/>
</a>
</g>
</g>
<!-- Node45 -->
<g id="Node000045" class="node">
<title>Node45</title>
<g id="a_Node000045"><a xlink:href="_named_pipe_8h.html" target="_top" xlink:title=" ">
<polygon fill="white" stroke="#666666" points="1431.86,-516.5 1356.61,-516.5 1356.61,-497.25 1431.86,-497.25 1431.86,-516.5"/>
<text text-anchor="middle" x="1394.23" y="-503" font-family="Helvetica,sans-Serif" font-size="10.00">NamedPipe.h</text>
</a>
</g>
</g>
<!-- Node1&#45;&gt;Node45 -->
<g id="edge69_Node000001_Node000045" class="edge">
<title>Node1&#45;&gt;Node45</title>
<g id="a_edge69_Node000001_Node000045"><a xlink:title=" ">
<path fill="none" stroke="#63b8ff" d="M615.06,-617.52C783.79,-593.77 1202.03,-534.92 1345.23,-514.77"/>
<polygon fill="#63b8ff" stroke="#63b8ff" points="1345.33,-518.29 1354.75,-513.43 1344.36,-511.36 1345.33,-518.29"/>
</a>
</g>
</g>
<!-- Node3 -->
<g id="Node000003" class="node">
<title>Node3</title>
<g id="a_Node000003"><a xlink:href="_core_component_8h.html" target="_top" xlink:title=" ">
<polygon fill="white" stroke="#666666" points="727.98,-516.5 632.48,-516.5 632.48,-497.25 727.98,-497.25 727.98,-516.5"/>
<text text-anchor="middle" x="680.23" y="-503" font-family="Helvetica,sans-Serif" font-size="10.00">CoreComponent.h</text>
</a>
</g>
</g>
<!-- Node2&#45;&gt;Node3 -->
<g id="edge2_Node000002_Node000003" class="edge">
<title>Node2&#45;&gt;Node3</title>
<g id="a_edge2_Node000002_Node000003"><a xlink:title=" ">
<path fill="none" stroke="#63b8ff" d="M680.23,-552.33C680.23,-545.82 680.23,-536.67 680.23,-528.37"/>
<polygon fill="#63b8ff" stroke="#63b8ff" points="683.73,-528.37 680.23,-518.37 676.73,-528.37 683.73,-528.37"/>
</a>
</g>
</g>
<!-- Node42 -->
<g id="Node000042" class="node">
<title>Node42</title>
<g id="a_Node000042"><a xlink:href="_c_p_u_types_8h.html" target="_top" xlink:title=" ">
<polygon fill="white" stroke="#666666" points="1379.36,-240.25 1307.11,-240.25 1307.11,-221 1379.36,-221 1379.36,-240.25"/>
<text text-anchor="middle" x="1343.23" y="-226.75" font-family="Helvetica,sans-Serif" font-size="10.00">CPUTypes.h</text>
</a>
</g>
</g>
<!-- Node2&#45;&gt;Node42 -->
<g id="edge60_Node000002_Node000042" class="edge">
<title>Node2&#45;&gt;Node42</title>
<g id="a_edge60_Node000002_Node000042"><a xlink:title=" ">
<path fill="none" stroke="#63b8ff" d="M726.48,-557.95C870.63,-547.43 1302.23,-511.06 1302.23,-452.62 1302.23,-452.62 1302.23,-452.62 1302.23,-340.12 1302.23,-306.84 1319.33,-271.3 1331.44,-250.3"/>
<polygon fill="#63b8ff" stroke="#63b8ff" points="1334.41,-252.15 1336.58,-241.78 1328.42,-248.53 1334.41,-252.15"/>
</a>
</g>
</g>
<!-- Node4 -->
<g id="Node000004" class="node">
<title>Node4</title>
<g id="a_Node000004"><a xlink:href="_emulator_types_8h.html" target="_top" xlink:title=" ">
<polygon fill="white" stroke="#666666" points="1260.98,-295.5 1171.48,-295.5 1171.48,-276.25 1260.98,-276.25 1260.98,-295.5"/>
<text text-anchor="middle" x="1216.23" y="-282" font-family="Helvetica,sans-Serif" font-size="10.00">EmulatorTypes.h</text>
</a>
</g>
</g>
<!-- Node3&#45;&gt;Node4 -->
<g id="edge3_Node000003_Node000004" class="edge">
<title>Node3&#45;&gt;Node4</title>
<g id="a_edge3_Node000003_Node000004"><a xlink:title=" ">
<path fill="none" stroke="#63b8ff" d="M728.42,-504.31C842.89,-500.18 1124.08,-487.46 1157.23,-461.25 1205.23,-423.31 1214.44,-344.61 1216.03,-307.32"/>
<polygon fill="#63b8ff" stroke="#63b8ff" points="1219.52,-307.59 1216.28,-297.5 1212.52,-307.41 1219.52,-307.59"/>
</a>
</g>
</g>
<!-- Node12 -->
<g id="Node000012" class="node">
<title>Node12</title>
<g id="a_Node000012"><a xlink:href="_thread_types_8h.html" target="_top" xlink:title=" ">
<polygon fill="white" stroke="#666666" points="1251.48,-240.25 1170.98,-240.25 1170.98,-221 1251.48,-221 1251.48,-240.25"/>
<text text-anchor="middle" x="1211.23" y="-226.75" font-family="Helvetica,sans-Serif" font-size="10.00">ThreadTypes.h</text>
</a>
</g>
</g>
<!-- Node3&#45;&gt;Node12 -->
<g id="edge58_Node000003_Node000012" class="edge">
<title>Node3&#45;&gt;Node12</title>
<g id="a_edge58_Node000003_Node000012"><a xlink:title=" ">
<path fill="none" stroke="#63b8ff" d="M728.47,-504.73C847.06,-500.62 1143.23,-481.9 1143.23,-397.38 1143.23,-397.38 1143.23,-397.38 1143.23,-340.12 1143.23,-310.51 1146.48,-301.33 1162.23,-276.25 1169.12,-265.29 1179.41,-255.34 1188.79,-247.64"/>
<polygon fill="#63b8ff" stroke="#63b8ff" points="1190.75,-250.54 1196.51,-241.65 1186.46,-245.01 1190.75,-250.54"/>
</a>
</g>
</g>
<!-- Node13 -->
<g id="Node000013" class="node">
<title>Node13</title>
<g id="a_Node000013"><a xlink:href="_core_object_8h.html" target="_top" xlink:title=" ">
<polygon fill="white" stroke="#666666" points="873.11,-350.75 799.36,-350.75 799.36,-331.5 873.11,-331.5 873.11,-350.75"/>
<text text-anchor="middle" x="836.23" y="-337.25" font-family="Helvetica,sans-Serif" font-size="10.00">CoreObject.h</text>
</a>
</g>
</g>
<!-- Node3&#45;&gt;Node13 -->
<g id="edge14_Node000003_Node000013" class="edge">
<title>Node3&#45;&gt;Node13</title>
<g id="a_edge14_Node000003_Node000013"><a xlink:title=" ">
<path fill="none" stroke="#63b8ff" d="M692.25,-496.98C702.93,-488.62 718.48,-475.34 729.23,-461.25 751.78,-431.7 742.33,-414.34 767.23,-386.75 778.35,-374.43 793.62,-364.09 806.96,-356.48"/>
<polygon fill="#63b8ff" stroke="#63b8ff" points="808.24,-359.76 815.36,-351.92 804.9,-353.61 808.24,-359.76"/>
</a>
</g>
</g>
<!-- Node20 -->
<g id="Node000020" class="node">
<title>Node20</title>
<g id="a_Node000020"><a xlink:href="_synchronizable_8h.html" target="_top" xlink:title=" ">
<polygon fill="white" stroke="#666666" points="640.73,-406 549.73,-406 549.73,-386.75 640.73,-386.75 640.73,-406"/>
<text text-anchor="middle" x="595.23" y="-392.5" font-family="Helvetica,sans-Serif" font-size="10.00">Synchronizable.h</text>
</a>
</g>
</g>
<!-- Node3&#45;&gt;Node20 -->
<g id="edge24_Node000003_Node000020" class="edge">
<title>Node3&#45;&gt;Node20</title>
<g id="a_edge24_Node000003_Node000020"><a xlink:title=" ">
<path fill="none" stroke="#63b8ff" d="M668.35,-496.87C657.76,-488.44 642.27,-475.11 631.23,-461.25 620.19,-447.39 610.51,-429.71 603.98,-416.47"/>
<polygon fill="#63b8ff" stroke="#63b8ff" points="607.19,-415.08 599.74,-407.55 600.87,-418.08 607.19,-415.08"/>
</a>
</g>
</g>
<!-- Node21 -->
<g id="Node000021" class="node">
<title>Node21</title>
<g id="a_Node000021"><a xlink:href="_concurrency_8h.html" target="_top" xlink:title=" ">
<polygon fill="white" stroke="#666666" points="512.36,-350.75 434.11,-350.75 434.11,-331.5 512.36,-331.5 512.36,-350.75"/>
<text text-anchor="middle" x="473.23" y="-337.25" font-family="Helvetica,sans-Serif" font-size="10.00">Concurrency.h</text>
</a>
</g>
</g>
<!-- Node3&#45;&gt;Node21 -->
<g id="edge55_Node000003_Node000021" class="edge">
<title>Node3&#45;&gt;Node21</title>
<g id="a_edge55_Node000003_Node000021"><a xlink:title=" ">
<path fill="none" stroke="#63b8ff" d="M632.06,-499.58C585.47,-492.52 519.34,-479.6 501.23,-461.25 475.07,-434.74 471.61,-388.67 472.03,-362.27"/>
<polygon fill="#63b8ff" stroke="#63b8ff" points="475.51,-362.69 472.4,-352.57 468.52,-362.42 475.51,-362.69"/>
</a>
</g>
</g>
<!-- Node26 -->
<g id="Node000026" class="node">
<title>Node26</title>
<g id="a_Node000026"><a xlink:href="_serializable_8h.html" target="_top" xlink:title=" ">
<polygon fill="white" stroke="#666666" points="584.48,-461.25 509.98,-461.25 509.98,-442 584.48,-442 584.48,-461.25"/>
<text text-anchor="middle" x="547.23" y="-447.75" font-family="Helvetica,sans-Serif" font-size="10.00">Serializable.h</text>
</a>
</g>
</g>
<!-- Node3&#45;&gt;Node26 -->
<g id="edge31_Node000003_Node000026" class="edge">
<title>Node3&#45;&gt;Node26</title>
<g id="a_edge31_Node000003_Node000026"><a xlink:title=" ">
<path fill="none" stroke="#63b8ff" d="M657.67,-496.84C636.46,-488.35 604.46,-475.54 580.36,-465.89"/>
<polygon fill="#63b8ff" stroke="#63b8ff" points="581.89,-462.73 571.31,-462.27 579.29,-469.23 581.89,-462.73"/>
</a>
</g>
</g>
<!-- Node27 -->
<g id="Node000027" class="node">
<title>Node27</title>
<g id="a_Node000027"><a xlink:href="_configurable_8h.html" target="_top" xlink:title=" ">
<polygon fill="white" stroke="#666666" points="919.73,-461.25 840.73,-461.25 840.73,-442 919.73,-442 919.73,-461.25"/>
<text text-anchor="middle" x="880.23" y="-447.75" font-family="Helvetica,sans-Serif" font-size="10.00">Configurable.h</text>
</a>
</g>
</g>
<!-- Node3&#45;&gt;Node27 -->
<g id="edge32_Node000003_Node000027" class="edge">
<title>Node3&#45;&gt;Node27</title>
<g id="a_edge32_Node000003_Node000027"><a xlink:title=" ">
<path fill="none" stroke="#63b8ff" d="M714.16,-496.84C747.49,-487.97 798.54,-474.37 835.25,-464.6"/>
<polygon fill="#63b8ff" stroke="#63b8ff" points="835.91,-468.05 844.68,-462.09 834.11,-461.28 835.91,-468.05"/>
</a>
</g>
</g>
<!-- Node32 -->
<g id="Node000032" class="node">
<title>Node32</title>
<g id="a_Node000032"><a xlink:title=" ">
<polygon fill="#e0e0e0" stroke="#999999" points="156.73,-185 113.73,-185 113.73,-165.75 156.73,-165.75 156.73,-185"/>
<text text-anchor="middle" x="135.23" y="-171.5" font-family="Helvetica,sans-Serif" font-size="10.00">vector</text>
</a>
</g>
</g>
<!-- Node3&#45;&gt;Node32 -->
<g id="edge59_Node000003_Node000032" class="edge">
<title>Node3&#45;&gt;Node32</title>
<g id="a_edge59_Node000003_Node000032"><a xlink:title=" ">
<path fill="none" stroke="#63b8ff" d="M632.03,-499.8C591.42,-493.54 532.4,-481.74 484.23,-461.25 319.41,-391.15 246.59,-389.28 147.23,-240.25 138.69,-227.44 135.85,-210.15 135.05,-196.79"/>
<polygon fill="#63b8ff" stroke="#63b8ff" points="138.56,-196.89 134.83,-186.97 131.56,-197.04 138.56,-196.89"/>
</a>
</g>
</g>
<!-- Node40 -->
<g id="Node000040" class="node">
<title>Node40</title>
<g id="a_Node000040"><a xlink:href="_suspendable_8h.html" target="_top" xlink:title=" ">
<polygon fill="white" stroke="#666666" points="720.48,-461.25 639.98,-461.25 639.98,-442 720.48,-442 720.48,-461.25"/>
<text text-anchor="middle" x="680.23" y="-447.75" font-family="Helvetica,sans-Serif" font-size="10.00">Suspendable.h</text>
</a>
</g>
</g>
<!-- Node3&#45;&gt;Node40 -->
<g id="edge56_Node000003_Node000040" class="edge">
<title>Node3&#45;&gt;Node40</title>
<g id="a_edge56_Node000003_Node000040"><a xlink:title=" ">
<path fill="none" stroke="#63b8ff" d="M680.23,-497.08C680.23,-490.57 680.23,-481.42 680.23,-473.12"/>
<polygon fill="#63b8ff" stroke="#63b8ff" points="683.73,-473.12 680.23,-463.12 676.73,-473.12 683.73,-473.12"/>
</a>
</g>
</g>
<!-- Node5 -->
<g id="Node000005" class="node">
<title>Node5</title>
<g id="a_Node000005"><a xlink:href="_aliases_8h.html" target="_top" xlink:title=" ">
<polygon fill="white" stroke="#666666" points="1208.48,-185 1151.98,-185 1151.98,-165.75 1208.48,-165.75 1208.48,-185"/>
<text text-anchor="middle" x="1180.23" y="-171.5" font-family="Helvetica,sans-Serif" font-size="10.00">Aliases.h</text>
</a>
</g>
</g>
<!-- Node4&#45;&gt;Node5 -->
<g id="edge4_Node000004_Node000005" class="edge">
<title>Node4&#45;&gt;Node5</title>
<g id="a_edge4_Node000004_Node000005"><a xlink:title=" ">
<path fill="none" stroke="#63b8ff" d="M1230.24,-275.84C1247.22,-263.71 1272.17,-241.32 1260.23,-221 1251.27,-205.73 1234.97,-195.31 1219.42,-188.4"/>
<polygon fill="#63b8ff" stroke="#63b8ff" points="1220.86,-185.2 1210.27,-184.72 1218.25,-191.7 1220.86,-185.2"/>
</a>
</g>
</g>
<!-- Node11 -->
<g id="Node000011" class="node">
<title>Node11</title>
<g id="a_Node000011"><a xlink:href="_reflection_8h.html" target="_top" xlink:title=" ">
<polygon fill="white" stroke="#666666" points="1117.48,-185 1048.98,-185 1048.98,-165.75 1117.48,-165.75 1117.48,-185"/>
<text text-anchor="middle" x="1083.23" y="-171.5" font-family="Helvetica,sans-Serif" font-size="10.00">Reflection.h</text>
</a>
</g>
</g>
<!-- Node4&#45;&gt;Node11 -->
<g id="edge10_Node000004_Node000011" class="edge">
<title>Node4&#45;&gt;Node11</title>
<g id="a_edge10_Node000004_Node000011"><a xlink:title=" ">
<path fill="none" stroke="#63b8ff" d="M1205.35,-276C1182.94,-257.72 1131.38,-215.65 1102.95,-192.46"/>
<polygon fill="#63b8ff" stroke="#63b8ff" points="1105.4,-189.94 1095.44,-186.33 1100.98,-195.37 1105.4,-189.94"/>
</a>
</g>
</g>
<!-- Node4&#45;&gt;Node12 -->
<g id="edge11_Node000004_Node000012" class="edge">
<title>Node4&#45;&gt;Node12</title>
<g id="a_edge11_Node000004_Node000012"><a xlink:title=" ">
<path fill="none" stroke="#63b8ff" d="M1215.41,-276.08C1214.79,-269.49 1213.92,-260.21 1213.13,-251.82"/>
<polygon fill="#63b8ff" stroke="#63b8ff" points="1216.64,-251.75 1212.22,-242.12 1209.67,-252.4 1216.64,-251.75"/>
</a>
</g>
</g>
<!-- Node6 -->
<g id="Node000006" class="node">
<title>Node6</title>
<g id="a_Node000006"><a xlink:href="_macros_8h.html" target="_top" xlink:title=" ">
<polygon fill="white" stroke="#666666" points="1042.48,-129.75 985.98,-129.75 985.98,-110.5 1042.48,-110.5 1042.48,-129.75"/>
<text text-anchor="middle" x="1014.23" y="-116.25" font-family="Helvetica,sans-Serif" font-size="10.00">Macros.h</text>
</a>
</g>
</g>
<!-- Node5&#45;&gt;Node6 -->
<g id="edge5_Node000005_Node000006" class="edge">
<title>Node5&#45;&gt;Node6</title>
<g id="a_edge5_Node000005_Node000006"><a xlink:title=" ">
<path fill="none" stroke="#63b8ff" d="M1152.07,-165.34C1124.89,-156.62 1083.49,-143.34 1053.16,-133.61"/>
<polygon fill="#63b8ff" stroke="#63b8ff" points="1054.56,-130.39 1043.97,-130.66 1052.42,-137.05 1054.56,-130.39"/>
</a>
</g>
</g>
<!-- Node7 -->
<g id="Node000007" class="node">
<title>Node7</title>
<g id="a_Node000007"><a xlink:href="_types_8h.html" target="_top" xlink:title=" ">
<polygon fill="white" stroke="#666666" points="797.48,-74.5 746.98,-74.5 746.98,-55.25 797.48,-55.25 797.48,-74.5"/>
<text text-anchor="middle" x="772.23" y="-61" font-family="Helvetica,sans-Serif" font-size="10.00">Types.h</text>
</a>
</g>
</g>
<!-- Node6&#45;&gt;Node7 -->
<g id="edge6_Node000006_Node000007" class="edge">
<title>Node6&#45;&gt;Node7</title>
<g id="a_edge6_Node000006_Node000007"><a xlink:title=" ">
<path fill="none" stroke="#63b8ff" d="M985.52,-112.81C941.57,-103.14 857.62,-84.66 809.18,-74.01"/>
<polygon fill="#63b8ff" stroke="#63b8ff" points="809.96,-70.59 799.44,-71.86 808.46,-77.43 809.96,-70.59"/>
</a>
</g>
</g>
<!-- Node8 -->
<g id="Node000008" class="node">
<title>Node8</title>
<g id="a_Node000008"><a xlink:title=" ">
<polygon fill="#e0e0e0" stroke="#999999" points="729.73,-19.25 662.73,-19.25 662.73,0 729.73,0 729.73,-19.25"/>
<text text-anchor="middle" x="696.23" y="-5.75" font-family="Helvetica,sans-Serif" font-size="10.00">sys/types.h</text>
</a>
</g>
</g>
<!-- Node7&#45;&gt;Node8 -->
<g id="edge7_Node000007_Node000008" class="edge">
<title>Node7&#45;&gt;Node8</title>
<g id="a_edge7_Node000007_Node000008"><a xlink:title=" ">
<path fill="none" stroke="#63b8ff" d="M759.34,-54.84C748.2,-47.04 731.86,-35.59 718.59,-26.29"/>
<polygon fill="#63b8ff" stroke="#63b8ff" points="720.63,-23.44 710.43,-20.57 716.61,-29.18 720.63,-23.44"/>
</a>
</g>
</g>
<!-- Node9 -->
<g id="Node000009" class="node">
<title>Node9</title>
<g id="a_Node000009"><a xlink:title=" ">
<polygon fill="#e0e0e0" stroke="#999999" points="796.36,-19.25 748.11,-19.25 748.11,0 796.36,0 796.36,-19.25"/>
<text text-anchor="middle" x="772.23" y="-5.75" font-family="Helvetica,sans-Serif" font-size="10.00">stdint.h</text>
</a>
</g>
</g>
<!-- Node7&#45;&gt;Node9 -->
<g id="edge8_Node000007_Node000009" class="edge">
<title>Node7&#45;&gt;Node9</title>
<g id="a_edge8_Node000007_Node000009"><a xlink:title=" ">
<path fill="none" stroke="#63b8ff" d="M772.23,-55.08C772.23,-48.57 772.23,-39.42 772.23,-31.12"/>
<polygon fill="#63b8ff" stroke="#63b8ff" points="775.73,-31.12 772.23,-21.12 768.73,-31.12 775.73,-31.12"/>
</a>
</g>
</g>
<!-- Node10 -->
<g id="Node000010" class="node">
<title>Node10</title>
<g id="a_Node000010"><a xlink:title=" ">
<polygon fill="#e0e0e0" stroke="#999999" points="870.11,-19.25 814.36,-19.25 814.36,0 870.11,0 870.11,-19.25"/>
<text text-anchor="middle" x="842.23" y="-5.75" font-family="Helvetica,sans-Serif" font-size="10.00">stdbool.h</text>
</a>
</g>
</g>
<!-- Node7&#45;&gt;Node10 -->
<g id="edge9_Node000007_Node000010" class="edge">
<title>Node7&#45;&gt;Node10</title>
<g id="a_edge9_Node000007_Node000010"><a xlink:title=" ">
<path fill="none" stroke="#63b8ff" d="M784.11,-54.84C794.33,-47.07 809.3,-35.67 821.5,-26.4"/>
<polygon fill="#63b8ff" stroke="#63b8ff" points="823.49,-29.28 829.33,-20.44 819.25,-23.71 823.49,-29.28"/>
</a>
</g>
</g>
<!-- Node12&#45;&gt;Node5 -->
<g id="edge12_Node000012_Node000005" class="edge">
<title>Node12&#45;&gt;Node5</title>
<g id="a_edge12_Node000012_Node000005"><a xlink:title=" ">
<path fill="none" stroke="#63b8ff" d="M1206.11,-220.83C1202.05,-213.86 1196.24,-203.87 1191.15,-195.12"/>
<polygon fill="#63b8ff" stroke="#63b8ff" points="1194.28,-193.55 1186.22,-186.67 1188.23,-197.07 1194.28,-193.55"/>
</a>
</g>
</g>
<!-- Node12&#45;&gt;Node11 -->
<g id="edge13_Node000012_Node000011" class="edge">
<title>Node12&#45;&gt;Node11</title>
<g id="a_edge13_Node000012_Node000011"><a xlink:title=" ">
<path fill="none" stroke="#63b8ff" d="M1189.52,-220.59C1169.2,-212.14 1138.59,-199.4 1115.43,-189.77"/>
<polygon fill="#63b8ff" stroke="#63b8ff" points="1117.03,-186.64 1106.45,-186.03 1114.34,-193.11 1117.03,-186.64"/>
</a>
</g>
</g>
<!-- Node14 -->
<g id="Node000014" class="node">
<title>Node14</title>
<g id="a_Node000014"><a xlink:href="_error_8h.html" target="_top" xlink:title=" ">
<polygon fill="white" stroke="#666666" points="899.48,-295.5 854.98,-295.5 854.98,-276.25 899.48,-276.25 899.48,-295.5"/>
<text text-anchor="middle" x="877.23" y="-282" font-family="Helvetica,sans-Serif" font-size="10.00">Error.h</text>
</a>
</g>
</g>
<!-- Node13&#45;&gt;Node14 -->
<g id="edge15_Node000013_Node000014" class="edge">
<title>Node13&#45;&gt;Node14</title>
<g id="a_edge15_Node000013_Node000014"><a xlink:title=" ">
<path fill="none" stroke="#63b8ff" d="M843,-331.33C848.55,-324.13 856.57,-313.71 863.46,-304.76"/>
<polygon fill="#63b8ff" stroke="#63b8ff" points="866.06,-307.12 869.39,-297.06 860.52,-302.85 866.06,-307.12"/>
</a>
</g>
</g>
<!-- Node18 -->
<g id="Node000018" class="node">
<title>Node18</title>
<g id="a_Node000018"><a xlink:href="_inspectable_8h.html" target="_top" xlink:title=" ">
<polygon fill="white" stroke="#666666" points="835.48,-295.5 760.98,-295.5 760.98,-276.25 835.48,-276.25 835.48,-295.5"/>
<text text-anchor="middle" x="798.23" y="-282" font-family="Helvetica,sans-Serif" font-size="10.00">Inspectable.h</text>
</a>
</g>
</g>
<!-- Node13&#45;&gt;Node18 -->
<g id="edge22_Node000013_Node000018" class="edge">
<title>Node13&#45;&gt;Node18</title>
<g id="a_edge22_Node000013_Node000018"><a xlink:title=" ">
<path fill="none" stroke="#63b8ff" d="M829.96,-331.33C824.87,-324.21 817.54,-313.93 811.2,-305.05"/>
<polygon fill="#63b8ff" stroke="#63b8ff" points="814.18,-303.2 805.52,-297.09 808.48,-307.26 814.18,-303.2"/>
</a>
</g>
</g>
<!-- Node15 -->
<g id="Node000015" class="node">
<title>Node15</title>
<g id="a_Node000015"><a xlink:href="_error_types_8h.html" target="_top" xlink:title=" ">
<polygon fill="white" stroke="#666666" points="1038.98,-240.25 967.48,-240.25 967.48,-221 1038.98,-221 1038.98,-240.25"/>
<text text-anchor="middle" x="1003.23" y="-226.75" font-family="Helvetica,sans-Serif" font-size="10.00">ErrorTypes.h</text>
</a>
</g>
</g>
<!-- Node14&#45;&gt;Node15 -->
<g id="edge16_Node000014_Node000015" class="edge">
<title>Node14&#45;&gt;Node15</title>
<g id="a_edge16_Node000014_Node000015"><a xlink:title=" ">
<path fill="none" stroke="#63b8ff" d="M898.61,-275.84C918.52,-267.43 948.47,-254.77 971.23,-245.15"/>
<polygon fill="#63b8ff" stroke="#63b8ff" points="972.51,-248.41 980.36,-241.29 969.79,-241.96 972.51,-248.41"/>
</a>
</g>
</g>
<!-- Node16 -->
<g id="Node000016" class="node">
<title>Node16</title>
<g id="a_Node000016"><a xlink:href="_exception_8h.html" target="_top" xlink:title=" ">
<polygon fill="white" stroke="#666666" points="911.11,-240.25 843.36,-240.25 843.36,-221 911.11,-221 911.11,-240.25"/>
<text text-anchor="middle" x="877.23" y="-226.75" font-family="Helvetica,sans-Serif" font-size="10.00">Exception.h</text>
</a>
</g>
</g>
<!-- Node14&#45;&gt;Node16 -->
<g id="edge19_Node000014_Node000016" class="edge">
<title>Node14&#45;&gt;Node16</title>
<g id="a_edge19_Node000014_Node000016"><a xlink:title=" ">
<path fill="none" stroke="#63b8ff" d="M877.23,-276.08C877.23,-269.57 877.23,-260.42 877.23,-252.12"/>
<polygon fill="#63b8ff" stroke="#63b8ff" points="880.73,-252.12 877.23,-242.12 873.73,-252.12 880.73,-252.12"/>
</a>
</g>
</g>
<!-- Node15&#45;&gt;Node5 -->
<g id="edge17_Node000015_Node000005" class="edge">
<title>Node15&#45;&gt;Node5</title>
<g id="a_edge17_Node000015_Node000005"><a xlink:title=" ">
<path fill="none" stroke="#63b8ff" d="M1033.26,-220.59C1062.82,-211.7 1108.12,-198.07 1140.62,-188.29"/>
<polygon fill="#63b8ff" stroke="#63b8ff" points="1141.51,-191.68 1150.08,-185.45 1139.5,-184.98 1141.51,-191.68"/>
</a>
</g>
</g>
<!-- Node15&#45;&gt;Node11 -->
<g id="edge18_Node000015_Node000011" class="edge">
<title>Node15&#45;&gt;Node11</title>
<g id="a_edge18_Node000015_Node000011"><a xlink:title=" ">
<path fill="none" stroke="#63b8ff" d="M1016.8,-220.59C1028.64,-212.71 1046.07,-201.11 1060.1,-191.77"/>
<polygon fill="#63b8ff" stroke="#63b8ff" points="1061.95,-194.75 1068.34,-186.29 1058.07,-188.92 1061.95,-194.75"/>
</a>
</g>
</g>
<!-- Node16&#45;&gt;Node7 -->
<g id="edge20_Node000016_Node000007" class="edge">
<title>Node16&#45;&gt;Node7</title>
<g id="a_edge20_Node000016_Node000007"><a xlink:title=" ">
<path fill="none" stroke="#63b8ff" d="M868.83,-220.81C860.75,-212.1 848.43,-198.19 839.23,-185 815.91,-151.55 793.7,-109.32 781.63,-85.17"/>
<polygon fill="#63b8ff" stroke="#63b8ff" points="784.79,-83.67 777.22,-76.25 778.51,-86.77 784.79,-83.67"/>
</a>
</g>
</g>
<!-- Node17 -->
<g id="Node000017" class="node">
<title>Node17</title>
<g id="a_Node000017"><a xlink:title=" ">
<polygon fill="#e0e0e0" stroke="#999999" points="906.23,-185 848.23,-185 848.23,-165.75 906.23,-165.75 906.23,-185"/>
<text text-anchor="middle" x="877.23" y="-171.5" font-family="Helvetica,sans-Serif" font-size="10.00">exception</text>
</a>
</g>
</g>
<!-- Node16&#45;&gt;Node17 -->
<g id="edge21_Node000016_Node000017" class="edge">
<title>Node16&#45;&gt;Node17</title>
<g id="a_edge21_Node000016_Node000017"><a xlink:title=" ">
<path fill="none" stroke="#63b8ff" d="M877.23,-220.83C877.23,-214.32 877.23,-205.17 877.23,-196.87"/>
<polygon fill="#63b8ff" stroke="#63b8ff" points="880.73,-196.87 877.23,-186.87 873.73,-196.87 880.73,-196.87"/>
</a>
</g>
</g>
<!-- Node19 -->
<g id="Node000019" class="node">
<title>Node19</title>
<g id="a_Node000019"><a xlink:title=" ">
<polygon fill="#e0e0e0" stroke="#999999" points="824.98,-240.25 771.48,-240.25 771.48,-221 824.98,-221 824.98,-240.25"/>
<text text-anchor="middle" x="798.23" y="-226.75" font-family="Helvetica,sans-Serif" font-size="10.00">iostream</text>
</a>
</g>
</g>
<!-- Node18&#45;&gt;Node19 -->
<g id="edge23_Node000018_Node000019" class="edge">
<title>Node18&#45;&gt;Node19</title>
<g id="a_edge23_Node000018_Node000019"><a xlink:title=" ">
<path fill="none" stroke="#63b8ff" d="M798.23,-276.08C798.23,-269.57 798.23,-260.42 798.23,-252.12"/>
<polygon fill="#63b8ff" stroke="#63b8ff" points="801.73,-252.12 798.23,-242.12 794.73,-252.12 801.73,-252.12"/>
</a>
</g>
</g>
<!-- Node20&#45;&gt;Node21 -->
<g id="edge25_Node000020_Node000021" class="edge">
<title>Node20&#45;&gt;Node21</title>
<g id="a_edge25_Node000020_Node000021"><a xlink:title=" ">
<path fill="none" stroke="#63b8ff" d="M574.54,-386.34C555.35,-377.97 526.52,-365.38 504.52,-355.78"/>
<polygon fill="#63b8ff" stroke="#63b8ff" points="505.98,-352.6 495.42,-351.81 503.18,-359.02 505.98,-352.6"/>
</a>
</g>
</g>
<!-- Node21&#45;&gt;Node22 -->
<g id="edge26_Node000021_Node000022" class="edge">
<title>Node21&#45;&gt;Node22</title>
<g id="a_edge26_Node000021_Node000022"><a xlink:title=" ">
<path fill="none" stroke="#63b8ff" d="M474.88,-331.33C476.12,-324.74 477.87,-315.46 479.44,-307.07"/>
<polygon fill="#63b8ff" stroke="#63b8ff" points="482.86,-307.82 481.27,-297.35 475.98,-306.53 482.86,-307.82"/>
</a>
</g>
</g>
<!-- Node24 -->
<g id="Node000024" class="node">
<title>Node24</title>
<g id="a_Node000024"><a xlink:title=" ">
<polygon fill="#e0e0e0" stroke="#999999" points="363.73,-295.5 320.73,-295.5 320.73,-276.25 363.73,-276.25 363.73,-295.5"/>
<text text-anchor="middle" x="342.23" y="-282" font-family="Helvetica,sans-Serif" font-size="10.00">thread</text>
</a>
</g>
</g>
<!-- Node21&#45;&gt;Node24 -->
<g id="edge29_Node000021_Node000024" class="edge">
<title>Node21&#45;&gt;Node24</title>
<g id="a_edge29_Node000021_Node000024"><a xlink:title=" ">
<path fill="none" stroke="#63b8ff" d="M451.01,-331.09C430.09,-322.59 398.5,-309.75 374.75,-300.09"/>
<polygon fill="#63b8ff" stroke="#63b8ff" points="376.11,-296.87 365.53,-296.34 373.48,-303.35 376.11,-296.87"/>
</a>
</g>
</g>
<!-- Node25 -->
<g id="Node000025" class="node">
<title>Node25</title>
<g id="a_Node000025"><a xlink:title=" ">
<polygon fill="#e0e0e0" stroke="#999999" points="302.61,-295.5 261.86,-295.5 261.86,-276.25 302.61,-276.25 302.61,-295.5"/>
<text text-anchor="middle" x="282.23" y="-282" font-family="Helvetica,sans-Serif" font-size="10.00">future</text>
</a>
</g>
</g>
<!-- Node21&#45;&gt;Node25 -->
<g id="edge30_Node000021_Node000025" class="edge">
<title>Node21&#45;&gt;Node25</title>
<g id="a_edge30_Node000021_Node000025"><a xlink:title=" ">
<path fill="none" stroke="#63b8ff" d="M439.36,-331.01C408.85,-322.75 362.5,-310.09 313.88,-296.22"/>
<polygon fill="#63b8ff" stroke="#63b8ff" points="314.85,-292.85 304.27,-293.47 312.92,-299.58 314.85,-292.85"/>
</a>
</g>
</g>
<!-- Node22&#45;&gt;Node7 -->
<g id="edge27_Node000022_Node000007" class="edge">
<title>Node22&#45;&gt;Node7</title>
<g id="a_edge27_Node000022_Node000007"><a xlink:title=" ">
<path fill="none" stroke="#63b8ff" d="M511.5,-275.79C533.21,-268.12 563.41,-255.88 587.23,-240.25 659.08,-193.12 728.65,-116.82 757.85,-82.98"/>
<polygon fill="#63b8ff" stroke="#63b8ff" points="760.17,-85.65 764,-75.77 754.85,-81.1 760.17,-85.65"/>
</a>
</g>
</g>
<!-- Node23 -->
<g id="Node000023" class="node">
<title>Node23</title>
<g id="a_Node000023"><a xlink:title=" ">
<polygon fill="#e0e0e0" stroke="#999999" points="675.23,-240.25 635.23,-240.25 635.23,-221 675.23,-221 675.23,-240.25"/>
<text text-anchor="middle" x="655.23" y="-226.75" font-family="Helvetica,sans-Serif" font-size="10.00">ctime</text>
</a>
</g>
</g>
<!-- Node22&#45;&gt;Node23 -->
<g id="edge28_Node000022_Node000023" class="edge">
<title>Node22&#45;&gt;Node23</title>
<g id="a_edge28_Node000022_Node000023"><a xlink:title=" ">
<path fill="none" stroke="#63b8ff" d="M511.25,-276.2C542.25,-266.61 592.05,-251.19 624.2,-241.23"/>
<polygon fill="#63b8ff" stroke="#63b8ff" points="624.82,-244.71 633.34,-238.4 622.75,-238.02 624.82,-244.71"/>
</a>
</g>
</g>
<!-- Node27&#45;&gt;Node11 -->
<g id="edge36_Node000027_Node000011" class="edge">
<title>Node27&#45;&gt;Node11</title>
<g id="a_edge36_Node000027_Node000011"><a xlink:title=" ">
<path fill="none" stroke="#63b8ff" d="M890.5,-441.68C899.53,-433.29 912.41,-419.98 920.23,-406 934.69,-380.15 939.23,-371.74 939.23,-342.12 939.23,-342.12 939.23,-342.12 939.23,-284.88 939.23,-255.26 937.86,-242.5 958.23,-221 978.97,-199.12 1011.15,-187.95 1037.67,-182.26"/>
<polygon fill="#63b8ff" stroke="#63b8ff" points="1037.99,-185.76 1047.15,-180.42 1036.67,-178.88 1037.99,-185.76"/>
</a>
</g>
</g>
<!-- Node28 -->
<g id="Node000028" class="node">
<title>Node28</title>
<g id="a_Node000028"><a xlink:href="_option_types_8h.html" target="_top" xlink:title=" ">
<polygon fill="white" stroke="#666666" points="1076.73,-350.75 997.73,-350.75 997.73,-331.5 1076.73,-331.5 1076.73,-350.75"/>
<text text-anchor="middle" x="1037.23" y="-337.25" font-family="Helvetica,sans-Serif" font-size="10.00">OptionTypes.h</text>
</a>
</g>
</g>
<!-- Node27&#45;&gt;Node28 -->
<g id="edge33_Node000027_Node000028" class="edge">
<title>Node27&#45;&gt;Node28</title>
<g id="a_edge33_Node000027_Node000028"><a xlink:title=" ">
<path fill="none" stroke="#63b8ff" d="M896.19,-441.5C911.18,-432.78 934.1,-419.07 953.23,-406 975.74,-390.62 1000.46,-371.54 1017.22,-358.26"/>
<polygon fill="#63b8ff" stroke="#63b8ff" points="1019.27,-361.1 1024.91,-352.12 1014.91,-355.62 1019.27,-361.1"/>
</a>
</g>
</g>
<!-- Node29 -->
<g id="Node000029" class="node">
<title>Node29</title>
<g id="a_Node000029"><a xlink:href="_defaults_8h.html" target="_top" xlink:title=" ">
<polygon fill="white" stroke="#666666" points="910.73,-406 849.73,-406 849.73,-386.75 910.73,-386.75 910.73,-406"/>
<text text-anchor="middle" x="880.23" y="-392.5" font-family="Helvetica,sans-Serif" font-size="10.00">Defaults.h</text>
</a>
</g>
</g>
<!-- Node27&#45;&gt;Node29 -->
<g id="edge37_Node000027_Node000029" class="edge">
<title>Node27&#45;&gt;Node29</title>
<g id="a_edge37_Node000027_Node000029"><a xlink:title=" ">
<path fill="none" stroke="#63b8ff" d="M880.23,-441.83C880.23,-435.32 880.23,-426.17 880.23,-417.87"/>
<polygon fill="#63b8ff" stroke="#63b8ff" points="883.73,-417.87 880.23,-407.87 876.73,-417.87 883.73,-417.87"/>
</a>
</g>
</g>
<!-- Node39 -->
<g id="Node000039" class="node">
<title>Node39</title>
<g id="a_Node000039"><a xlink:title=" ">
<polygon fill="#e0e0e0" stroke="#999999" points="832.11,-406 776.36,-406 776.36,-386.75 832.11,-386.75 832.11,-406"/>
<text text-anchor="middle" x="804.23" y="-392.5" font-family="Helvetica,sans-Serif" font-size="10.00">algorithm</text>
</a>
</g>
</g>
<!-- Node27&#45;&gt;Node39 -->
<g id="edge54_Node000027_Node000039" class="edge">
<title>Node27&#45;&gt;Node39</title>
<g id="a_edge54_Node000027_Node000039"><a xlink:title=" ">
<path fill="none" stroke="#63b8ff" d="M867.34,-441.59C856.2,-433.79 839.86,-422.34 826.59,-413.04"/>
<polygon fill="#63b8ff" stroke="#63b8ff" points="828.63,-410.19 818.43,-407.32 824.61,-415.93 828.63,-410.19"/>
</a>
</g>
</g>
<!-- Node28&#45;&gt;Node5 -->
<g id="edge34_Node000028_Node000005" class="edge">
<title>Node28&#45;&gt;Node5</title>
<g id="a_edge34_Node000028_Node000005"><a xlink:title=" ">
<path fill="none" stroke="#63b8ff" d="M1044.92,-331.32C1067.62,-305.33 1134.63,-228.59 1164.98,-193.84"/>
<polygon fill="#63b8ff" stroke="#63b8ff" points="1167.57,-196.2 1171.51,-186.36 1162.3,-191.59 1167.57,-196.2"/>
</a>
</g>
</g>
<!-- Node28&#45;&gt;Node11 -->
<g id="edge35_Node000028_Node000011" class="edge">
<title>Node28&#45;&gt;Node11</title>
<g id="a_edge35_Node000028_Node000011"><a xlink:title=" ">
<path fill="none" stroke="#63b8ff" d="M1039.71,-331.32C1046.85,-305.89 1067.65,-231.85 1077.69,-196.12"/>
<polygon fill="#63b8ff" stroke="#63b8ff" points="1081,-197.25 1080.34,-186.68 1074.26,-195.36 1081,-197.25"/>
</a>
</g>
</g>
<!-- Node29&#45;&gt;Node13 -->
<g id="edge38_Node000029_Node000013" class="edge">
<title>Node29&#45;&gt;Node13</title>
<g id="a_edge38_Node000029_Node000013"><a xlink:title=" ">
<path fill="none" stroke="#63b8ff" d="M872.97,-386.58C866.95,-379.3 858.22,-368.73 850.78,-359.73"/>
<polygon fill="#63b8ff" stroke="#63b8ff" points="853.69,-357.76 844.62,-352.28 848.29,-362.21 853.69,-357.76"/>
</a>
</g>
</g>
<!-- Node29&#45;&gt;Node21 -->
<g id="edge40_Node000029_Node000021" class="edge">
<title>Node29&#45;&gt;Node21</title>
<g id="a_edge40_Node000029_Node000021"><a xlink:title=" ">
<path fill="none" stroke="#63b8ff" d="M849.63,-388.31C846.8,-387.75 843.97,-387.22 841.23,-386.75 728.56,-367.51 595.09,-353.48 523.92,-346.7"/>
<polygon fill="#63b8ff" stroke="#63b8ff" points="524.42,-343.23 514.13,-345.78 523.76,-350.2 524.42,-343.23"/>
</a>
</g>
</g>
<!-- Node29&#45;&gt;Node28 -->
<g id="edge39_Node000029_Node000028" class="edge">
<title>Node29&#45;&gt;Node28</title>
<g id="a_edge39_Node000029_Node000028"><a xlink:title=" ">
<path fill="none" stroke="#63b8ff" d="M906.87,-386.34C932.35,-377.7 971.04,-364.57 999.66,-354.87"/>
<polygon fill="#63b8ff" stroke="#63b8ff" points="1000.69,-358.22 1009.04,-351.69 998.44,-351.59 1000.69,-358.22"/>
</a>
</g>
</g>
<!-- Node30 -->
<g id="Node000030" class="node">
<title>Node30</title>
<g id="a_Node000030"><a xlink:href="_i_o_utils_8h.html" target="_top" xlink:title=" ">
<polygon fill="white" stroke="#666666" points="436.73,-295.5 381.73,-295.5 381.73,-276.25 436.73,-276.25 436.73,-295.5"/>
<text text-anchor="middle" x="409.23" y="-282" font-family="Helvetica,sans-Serif" font-size="10.00">IOUtils.h</text>
</a>
</g>
</g>
<!-- Node29&#45;&gt;Node30 -->
<g id="edge41_Node000029_Node000030" class="edge">
<title>Node29&#45;&gt;Node30</title>
<g id="a_edge41_Node000029_Node000030"><a xlink:title=" ">
<path fill="none" stroke="#63b8ff" d="M849.44,-388.32C779.98,-372.4 605.52,-332.37 447.94,-295.89"/>
<polygon fill="#63b8ff" stroke="#63b8ff" points="449.12,-292.57 438.59,-293.72 447.54,-299.39 449.12,-292.57"/>
</a>
</g>
</g>
<!-- Node30&#45;&gt;Node7 -->
<g id="edge42_Node000030_Node000007" class="edge">
<title>Node30&#45;&gt;Node7</title>
<g id="a_edge42_Node000030_Node000007"><a xlink:title=" ">
<path fill="none" stroke="#63b8ff" d="M381.43,-277.98C378.34,-277.34 375.23,-276.74 372.23,-276.25 290.42,-262.78 -33.93,-295.12 3.23,-221 51.92,-123.9 115.31,-134.59 221.23,-110.5 410.91,-67.37 645.63,-64.56 735.17,-65.26"/>
<polygon fill="#63b8ff" stroke="#63b8ff" points="735.03,-68.76 745.07,-65.36 735.1,-61.76 735.03,-68.76"/>
</a>
</g>
</g>
<!-- Node30&#45;&gt;Node19 -->
<g id="edge50_Node000030_Node000019" class="edge">
<title>Node30&#45;&gt;Node19</title>
<g id="a_edge50_Node000030_Node000019"><a xlink:title=" ">
<path fill="none" stroke="#63b8ff" d="M437.04,-278.03C440.13,-277.38 443.24,-276.77 446.23,-276.25 581.98,-252.78 621.05,-264.15 760.11,-240.41"/>
<polygon fill="#63b8ff" stroke="#63b8ff" points="760.44,-243.9 769.69,-238.74 759.24,-237.01 760.44,-243.9"/>
</a>
</g>
</g>
<!-- Node31 -->
<g id="Node000031" class="node">
<title>Node31</title>
<g id="a_Node000031"><a xlink:href="_string_utils_8h.html" target="_top" xlink:title=" ">
<polygon fill="white" stroke="#666666" points="82.23,-240.25 12.23,-240.25 12.23,-221 82.23,-221 82.23,-240.25"/>
<text text-anchor="middle" x="47.23" y="-226.75" font-family="Helvetica,sans-Serif" font-size="10.00">StringUtils.h</text>
</a>
</g>
</g>
<!-- Node30&#45;&gt;Node31 -->
<g id="edge43_Node000030_Node000031" class="edge">
<title>Node30&#45;&gt;Node31</title>
<g id="a_edge43_Node000030_Node000031"><a xlink:title=" ">
<path fill="none" stroke="#63b8ff" d="M381.41,-278.1C378.32,-277.43 375.22,-276.8 372.23,-276.25 273.64,-258.03 156.96,-243.77 93.69,-236.63"/>
<polygon fill="#63b8ff" stroke="#63b8ff" points="94.34,-233.18 84.02,-235.55 93.57,-240.14 94.34,-233.18"/>
</a>
</g>
</g>
<!-- Node30&#45;&gt;Node32 -->
<g id="edge53_Node000030_Node000032" class="edge">
<title>Node30&#45;&gt;Node32</title>
<g id="a_edge53_Node000030_Node000032"><a xlink:title=" ">
<path fill="none" stroke="#63b8ff" d="M381.39,-278.21C378.3,-277.52 375.21,-276.86 372.23,-276.25 281.6,-257.74 241.43,-295.5 167.23,-240.25 152.93,-229.6 144.6,-210.77 140.05,-196.31"/>
<polygon fill="#63b8ff" stroke="#63b8ff" points="143.49,-195.63 137.46,-186.92 136.74,-197.49 143.49,-195.63"/>
</a>
</g>
</g>
<!-- Node33 -->
<g id="Node000033" class="node">
<title>Node33</title>
<g id="a_Node000033"><a xlink:title=" ">
<polygon fill="#e0e0e0" stroke="#999999" points="499.73,-240.25 456.73,-240.25 456.73,-221 499.73,-221 499.73,-240.25"/>
<text text-anchor="middle" x="478.23" y="-226.75" font-family="Helvetica,sans-Serif" font-size="10.00">fcntl.h</text>
</a>
</g>
</g>
<!-- Node30&#45;&gt;Node33 -->
<g id="edge46_Node000030_Node000033" class="edge">
<title>Node30&#45;&gt;Node33</title>
<g id="a_edge46_Node000030_Node000033"><a xlink:title=" ">
<path fill="none" stroke="#63b8ff" d="M420.94,-275.84C431.01,-268.07 445.77,-256.67 457.79,-247.4"/>
<polygon fill="#63b8ff" stroke="#63b8ff" points="459.72,-250.33 465.5,-241.45 455.45,-244.79 459.72,-250.33"/>
</a>
</g>
</g>
<!-- Node34 -->
<g id="Node000034" class="node">
<title>Node34</title>
<g id="a_Node000034"><a xlink:title=" ">
<polygon fill="#e0e0e0" stroke="#999999" points="578.73,-240.25 517.73,-240.25 517.73,-221 578.73,-221 578.73,-240.25"/>
<text text-anchor="middle" x="548.23" y="-226.75" font-family="Helvetica,sans-Serif" font-size="10.00">filesystem</text>
</a>
</g>
</g>
<!-- Node30&#45;&gt;Node34 -->
<g id="edge47_Node000030_Node000034" class="edge">
<title>Node30&#45;&gt;Node34</title>
<g id="a_edge47_Node000030_Node000034"><a xlink:title=" ">
<path fill="none" stroke="#63b8ff" d="M432.81,-275.84C455.08,-267.31 488.72,-254.42 513.95,-244.76"/>
<polygon fill="#63b8ff" stroke="#63b8ff" points="515.04,-248.09 523.12,-241.24 512.53,-241.55 515.04,-248.09"/>
</a>
</g>
</g>
<!-- Node35 -->
<g id="Node000035" class="node">
<title>Node35</title>
<g id="a_Node000035"><a xlink:title=" ">
<polygon fill="#e0e0e0" stroke="#999999" points="225.73,-240.25 176.73,-240.25 176.73,-221 225.73,-221 225.73,-240.25"/>
<text text-anchor="middle" x="201.23" y="-226.75" font-family="Helvetica,sans-Serif" font-size="10.00">fstream</text>
</a>
</g>
</g>
<!-- Node30&#45;&gt;Node35 -->
<g id="edge48_Node000030_Node000035" class="edge">
<title>Node30&#45;&gt;Node35</title>
<g id="a_edge48_Node000030_Node000035"><a xlink:title=" ">
<path fill="none" stroke="#63b8ff" d="M381.61,-277.8C344.42,-268.28 278.18,-251.32 237.15,-240.82"/>
<polygon fill="#63b8ff" stroke="#63b8ff" points="238.06,-237.44 227.51,-238.35 236.33,-244.22 238.06,-237.44"/>
</a>
</g>
</g>
<!-- Node36 -->
<g id="Node000036" class="node">
<title>Node36</title>
<g id="a_Node000036"><a xlink:title=" ">
<polygon fill="#e0e0e0" stroke="#999999" points="292.36,-240.25 244.11,-240.25 244.11,-221 292.36,-221 292.36,-240.25"/>
<text text-anchor="middle" x="268.23" y="-226.75" font-family="Helvetica,sans-Serif" font-size="10.00">istream</text>
</a>
</g>
</g>
<!-- Node30&#45;&gt;Node36 -->
<g id="edge49_Node000030_Node000036" class="edge">
<title>Node30&#45;&gt;Node36</title>
<g id="a_edge49_Node000030_Node000036"><a xlink:title=" ">
<path fill="none" stroke="#63b8ff" d="M385.31,-275.84C362.73,-267.31 328.6,-254.42 303,-244.76"/>
<polygon fill="#63b8ff" stroke="#63b8ff" points="304.28,-241.5 293.68,-241.24 301.8,-248.04 304.28,-241.5"/>
</a>
</g>
</g>
<!-- Node37 -->
<g id="Node000037" class="node">
<title>Node37</title>
<g id="a_Node000037"><a xlink:title=" ">
<polygon fill="#e0e0e0" stroke="#999999" points="361.86,-240.25 310.61,-240.25 310.61,-221 361.86,-221 361.86,-240.25"/>
<text text-anchor="middle" x="336.23" y="-226.75" font-family="Helvetica,sans-Serif" font-size="10.00">sstream</text>
</a>
</g>
</g>
<!-- Node30&#45;&gt;Node37 -->
<g id="edge51_Node000030_Node000037" class="edge">
<title>Node30&#45;&gt;Node37</title>
<g id="a_edge51_Node000030_Node000037"><a xlink:title=" ">
<path fill="none" stroke="#63b8ff" d="M396.85,-275.84C386.09,-267.99 370.26,-256.45 357.48,-247.12"/>
<polygon fill="#63b8ff" stroke="#63b8ff" points="359.8,-244.48 349.66,-241.42 355.67,-250.14 359.8,-244.48"/>
</a>
</g>
</g>
<!-- Node38 -->
<g id="Node000038" class="node">
<title>Node38</title>
<g id="a_Node000038"><a xlink:title=" ">
<polygon fill="#e0e0e0" stroke="#999999" points="438.98,-240.25 379.48,-240.25 379.48,-221 438.98,-221 438.98,-240.25"/>
<text text-anchor="middle" x="409.23" y="-226.75" font-family="Helvetica,sans-Serif" font-size="10.00">sys/stat.h</text>
</a>
</g>
</g>
<!-- Node30&#45;&gt;Node38 -->
<g id="edge52_Node000030_Node000038" class="edge">
<title>Node30&#45;&gt;Node38</title>
<g id="a_edge52_Node000030_Node000038"><a xlink:title=" ">
<path fill="none" stroke="#63b8ff" d="M409.23,-276.08C409.23,-269.57 409.23,-260.42 409.23,-252.12"/>
<polygon fill="#63b8ff" stroke="#63b8ff" points="412.73,-252.12 409.23,-242.12 405.73,-252.12 412.73,-252.12"/>
</a>
</g>
</g>
<!-- Node31&#45;&gt;Node7 -->
<g id="edge44_Node000031_Node000007" class="edge">
<title>Node31&#45;&gt;Node7</title>
<g id="a_edge44_Node000031_Node000007"><a xlink:title=" ">
<path fill="none" stroke="#63b8ff" d="M52.23,-220.86C60.84,-206.65 79.91,-178.89 104.23,-165.75 215.31,-105.74 612.14,-76.02 735.42,-68.09"/>
<polygon fill="#63b8ff" stroke="#63b8ff" points="735.54,-71.59 745.3,-67.47 735.09,-64.61 735.54,-71.59"/>
</a>
</g>
</g>
<!-- Node31&#45;&gt;Node32 -->
<g id="edge45_Node000031_Node000032" class="edge">
<title>Node31&#45;&gt;Node32</title>
<g id="a_edge45_Node000031_Node000032"><a xlink:title=" ">
<path fill="none" stroke="#63b8ff" d="M62.16,-220.59C75.44,-212.56 95.1,-200.66 110.69,-191.23"/>
<polygon fill="#63b8ff" stroke="#63b8ff" points="112.19,-194.41 118.94,-186.24 108.57,-188.42 112.19,-194.41"/>
</a>
</g>
</g>
<!-- Node41 -->
<g id="Node000041" class="node">
<title>Node41</title>
<g id="a_Node000041"><a xlink:title=" ">
<polygon fill="#e0e0e0" stroke="#999999" points="701.36,-406 659.11,-406 659.11,-386.75 701.36,-386.75 701.36,-406"/>
<text text-anchor="middle" x="680.23" y="-392.5" font-family="Helvetica,sans-Serif" font-size="10.00">cstdio</text>
</a>
</g>
</g>
<!-- Node40&#45;&gt;Node41 -->
<g id="edge57_Node000040_Node000041" class="edge">
<title>Node40&#45;&gt;Node41</title>
<g id="a_edge57_Node000040_Node000041"><a xlink:title=" ">
<path fill="none" stroke="#63b8ff" d="M680.23,-441.83C680.23,-435.32 680.23,-426.17 680.23,-417.87"/>
<polygon fill="#63b8ff" stroke="#63b8ff" points="683.73,-417.87 680.23,-407.87 676.73,-417.87 683.73,-417.87"/>
</a>
</g>
</g>
<!-- Node42&#45;&gt;Node5 -->
<g id="edge61_Node000042_Node000005" class="edge">
<title>Node42&#45;&gt;Node5</title>
<g id="a_edge61_Node000042_Node000005"><a xlink:title=" ">
<path fill="none" stroke="#63b8ff" d="M1315.58,-220.59C1289,-211.91 1248.6,-198.71 1218.85,-188.99"/>
<polygon fill="#63b8ff" stroke="#63b8ff" points="1220.05,-185.7 1209.46,-185.92 1217.88,-192.35 1220.05,-185.7"/>
</a>
</g>
</g>
<!-- Node42&#45;&gt;Node11 -->
<g id="edge62_Node000042_Node000011" class="edge">
<title>Node42&#45;&gt;Node11</title>
<g id="a_edge62_Node000042_Node000011"><a xlink:title=" ">
<path fill="none" stroke="#63b8ff" d="M1306.81,-222.16C1260.26,-212.63 1179.67,-196.13 1129.02,-185.75"/>
<polygon fill="#63b8ff" stroke="#63b8ff" points="1129.74,-182.33 1119.24,-183.75 1128.33,-189.18 1129.74,-182.33"/>
</a>
</g>
</g>
<!-- Node43 -->
<g id="Node000043" class="node">
<title>Node43</title>
<g id="a_Node000043"><a xlink:href="_peddle_types_8h.html" target="_top" xlink:title=" ">
<polygon fill="white" stroke="#666666" points="1260.48,-129.75 1179.98,-129.75 1179.98,-110.5 1260.48,-110.5 1260.48,-129.75"/>
<text text-anchor="middle" x="1220.23" y="-116.25" font-family="Helvetica,sans-Serif" font-size="10.00">PeddleTypes.h</text>
</a>
</g>
</g>
<!-- Node42&#45;&gt;Node43 -->
<g id="edge63_Node000042_Node000043" class="edge">
<title>Node42&#45;&gt;Node43</title>
<g id="a_edge63_Node000042_Node000043"><a xlink:title=" ">
<path fill="none" stroke="#63b8ff" d="M1333.17,-220.75C1312.54,-202.55 1265.18,-160.77 1238.81,-137.51"/>
<polygon fill="#63b8ff" stroke="#63b8ff" points="1241.39,-135.12 1231.57,-131.13 1236.76,-140.37 1241.39,-135.12"/>
</a>
</g>
</g>
<!-- Node43&#45;&gt;Node7 -->
<g id="edge64_Node000043_Node000007" class="edge">
<title>Node43&#45;&gt;Node7</title>
<g id="a_edge64_Node000043_Node000007"><a xlink:title=" ">
<path fill="none" stroke="#63b8ff" d="M1179.69,-114.31C1093.36,-104.04 892.51,-80.17 809.33,-70.28"/>
<polygon fill="#63b8ff" stroke="#63b8ff" points="809.79,-66.81 799.45,-69.11 808.96,-73.77 809.79,-66.81"/>
</a>
</g>
</g>
<!-- Node44&#45;&gt;Node7 -->
<g id="edge67_Node000044_Node000007" class="edge">
<title>Node44&#45;&gt;Node7</title>
<g id="a_edge67_Node000044_Node000007"><a xlink:title=" ">
<path fill="none" stroke="#63b8ff" d="M725.87,-220.82C733.48,-195.39 755.63,-121.35 766.32,-85.62"/>
<polygon fill="#63b8ff" stroke="#63b8ff" points="769.64,-86.76 769.15,-76.17 762.93,-84.75 769.64,-86.76"/>
</a>
</g>
</g>
<!-- Node44&#45;&gt;Node32 -->
<g id="edge68_Node000044_Node000032" class="edge">
<title>Node44&#45;&gt;Node32</title>
<g id="a_edge68_Node000044_Node000032"><a xlink:title=" ">
<path fill="none" stroke="#63b8ff" d="M692.65,-222.45C689.81,-221.91 686.98,-221.41 684.23,-221 490.03,-191.77 254.1,-180.72 168.37,-177.49"/>
<polygon fill="#63b8ff" stroke="#63b8ff" points="168.7,-174 158.58,-177.13 168.44,-181 168.7,-174"/>
</a>
</g>
</g>
<!-- Node45&#45;&gt;Node7 -->
<g id="edge70_Node000045_Node000007" class="edge">
<title>Node45&#45;&gt;Node7</title>
<g id="a_edge70_Node000045_Node000007"><a xlink:title=" ">
<path fill="none" stroke="#63b8ff" d="M1396.04,-496.92C1399.61,-478.41 1407.23,-434.56 1407.23,-397.38 1407.23,-397.38 1407.23,-397.38 1407.23,-174.38 1407.23,-106.79 1334.52,-127.97 1269.23,-110.5 1182.28,-87.23 909.02,-72.33 809.2,-67.55"/>
<polygon fill="#63b8ff" stroke="#63b8ff" points="809.58,-64.06 799.43,-67.09 809.25,-71.06 809.58,-64.06"/>
</a>
</g>
</g>
</g>
</svg>
