<?xml version="1.0" encoding="UTF-8" standalone="no"?>
<!DOCTYPE svg PUBLIC "-//W3C//DTD SVG 1.1//EN"
 "http://www.w3.org/Graphics/SVG/1.1/DTD/svg11.dtd">
<!-- Generated by graphviz version 10.0.1 (20240210.2158)
 -->
<!-- Title: /Users/hoff/Retro/virtualc64/Emulator/Misc/Recorder/RecorderTypes.h Pages: 1 -->
<svg width="342pt" height="316pt"
 viewBox="0.00 0.00 342.12 315.75" xmlns="http://www.w3.org/2000/svg" xmlns:xlink="http://www.w3.org/1999/xlink">
<g id="graph0" class="graph" transform="scale(1 1) rotate(0) translate(4 311.75)">
<title>/Users/hoff/Retro/virtualc64/Emulator/Misc/Recorder/RecorderTypes.h</title>
<!-- Node1 -->
<g id="Node000001" class="node">
<title>Node1</title>
<g id="a_Node000001"><a xlink:title=" ">
<polygon fill="#999999" stroke="#666666" points="259.25,-307.75 91.75,-307.75 91.75,-266 259.25,-266 259.25,-307.75"/>
<text text-anchor="start" x="99.75" y="-294.25" font-family="Helvetica,sans-Serif" font-size="10.00">/Users/hoff/Retro/virtualc64</text>
<text text-anchor="start" x="99.75" y="-283" font-family="Helvetica,sans-Serif" font-size="10.00">/Emulator/Misc/Recorder/Recorder</text>
<text text-anchor="middle" x="175.5" y="-271.75" font-family="Helvetica,sans-Serif" font-size="10.00">Types.h</text>
</a>
</g>
</g>
<!-- Node2 -->
<g id="Node000002" class="node">
<title>Node2</title>
<g id="a_Node000002"><a xlink:href="_recorder_8h_source.html" target="_top" xlink:title=" ">
<polygon fill="white" stroke="#666666" points="175,-230 0,-230 0,-199.5 175,-199.5 175,-230"/>
<text text-anchor="start" x="8" y="-216.5" font-family="Helvetica,sans-Serif" font-size="10.00">/Users/hoff/Retro/virtualc64</text>
<text text-anchor="middle" x="87.5" y="-205.25" font-family="Helvetica,sans-Serif" font-size="10.00">/Emulator/Misc/Recorder/Recorder.h</text>
</a>
</g>
</g>
<!-- Node1&#45;&gt;Node2 -->
<g id="edge1_Node000001_Node000002" class="edge">
<title>Node1&#45;&gt;Node2</title>
<g id="a_edge1_Node000001_Node000002"><a xlink:title=" ">
<path fill="none" stroke="#63b8ff" d="M141.13,-258.48C129.12,-248.92 116.11,-238.55 105.91,-230.42"/>
<polygon fill="#63b8ff" stroke="#63b8ff" points="138.86,-261.15 148.86,-264.65 143.22,-255.68 138.86,-261.15"/>
</a>
</g>
</g>
<!-- Node5 -->
<g id="Node000005" class="node">
<title>Node5</title>
<g id="a_Node000005"><a xlink:href="_virtual_c64_types_8h.html" target="_top" xlink:title=" ">
<polygon fill="white" stroke="#666666" points="334.12,-230 192.88,-230 192.88,-199.5 334.12,-199.5 334.12,-230"/>
<text text-anchor="start" x="200.88" y="-216.5" font-family="Helvetica,sans-Serif" font-size="10.00">/Users/hoff/Retro/virtualc64</text>
<text text-anchor="middle" x="263.5" y="-205.25" font-family="Helvetica,sans-Serif" font-size="10.00">/Emulator/VirtualC64Types.h</text>
</a>
</g>
</g>
<!-- Node1&#45;&gt;Node5 -->
<g id="edge4_Node000001_Node000005" class="edge">
<title>Node1&#45;&gt;Node5</title>
<g id="a_edge4_Node000001_Node000005"><a xlink:title=" ">
<path fill="none" stroke="#63b8ff" d="M209.87,-258.48C221.88,-248.92 234.89,-238.55 245.09,-230.42"/>
<polygon fill="#63b8ff" stroke="#63b8ff" points="207.78,-255.68 202.14,-264.65 212.14,-261.15 207.78,-255.68"/>
</a>
</g>
</g>
<!-- Node3 -->
<g id="Node000003" class="node">
<title>Node3</title>
<g id="a_Node000003"><a xlink:href="_c64_8h_source.html" target="_top" xlink:title=" ">
<polygon fill="white" stroke="#666666" points="160.38,-163.5 14.62,-163.5 14.62,-133 160.38,-133 160.38,-163.5"/>
<text text-anchor="start" x="22.62" y="-150" font-family="Helvetica,sans-Serif" font-size="10.00">/Users/hoff/Retro/virtualc64</text>
<text text-anchor="middle" x="87.5" y="-138.75" font-family="Helvetica,sans-Serif" font-size="10.00">/Emulator/Components/C64.h</text>
</a>
</g>
</g>
<!-- Node2&#45;&gt;Node3 -->
<g id="edge2_Node000002_Node000003" class="edge">
<title>Node2&#45;&gt;Node3</title>
<g id="a_edge2_Node000002_Node000003"><a xlink:title=" ">
<path fill="none" stroke="#63b8ff" d="M87.5,-187.81C87.5,-179.64 87.5,-170.91 87.5,-163.83"/>
<polygon fill="#63b8ff" stroke="#63b8ff" points="84,-187.6 87.5,-197.6 91,-187.6 84,-187.6"/>
</a>
</g>
</g>
<!-- Node4 -->
<g id="Node000004" class="node">
<title>Node4</title>
<g id="a_Node000004"><a xlink:href="_emulator_8h_source.html" target="_top" xlink:title=" ">
<polygon fill="white" stroke="#666666" points="170.5,-97 4.5,-97 4.5,-66.5 170.5,-66.5 170.5,-97"/>
<text text-anchor="start" x="12.5" y="-83.5" font-family="Helvetica,sans-Serif" font-size="10.00">/Users/hoff/Retro/virtualc64</text>
<text text-anchor="middle" x="87.5" y="-72.25" font-family="Helvetica,sans-Serif" font-size="10.00">/Emulator/Components/Emulator.h</text>
</a>
</g>
</g>
<!-- Node3&#45;&gt;Node4 -->
<g id="edge3_Node000003_Node000004" class="edge">
<title>Node3&#45;&gt;Node4</title>
<g id="a_edge3_Node000003_Node000004"><a xlink:title=" ">
<path fill="none" stroke="#63b8ff" d="M87.5,-121.31C87.5,-113.14 87.5,-104.41 87.5,-97.33"/>
<polygon fill="#63b8ff" stroke="#63b8ff" points="84,-121.1 87.5,-131.1 91,-121.1 84,-121.1"/>
</a>
</g>
</g>
<!-- Node6 -->
<g id="Node000006" class="node">
<title>Node6</title>
<g id="a_Node000006"><a xlink:href="_virtual_c64_8h.html" target="_top" xlink:title=" ">
<polygon fill="white" stroke="#666666" points="331.88,-163.5 195.12,-163.5 195.12,-133 331.88,-133 331.88,-163.5"/>
<text text-anchor="start" x="203.12" y="-150" font-family="Helvetica,sans-Serif" font-size="10.00">/Users/hoff/Retro/virtualc64</text>
<text text-anchor="middle" x="263.5" y="-138.75" font-family="Helvetica,sans-Serif" font-size="10.00">/Emulator/VirtualC64.h</text>
</a>
</g>
</g>
<!-- Node5&#45;&gt;Node6 -->
<g id="edge5_Node000005_Node000006" class="edge">
<title>Node5&#45;&gt;Node6</title>
<g id="a_edge5_Node000005_Node000006"><a xlink:title=" ">
<path fill="none" stroke="#63b8ff" d="M263.5,-187.81C263.5,-179.64 263.5,-170.91 263.5,-163.83"/>
<polygon fill="#63b8ff" stroke="#63b8ff" points="260,-187.6 263.5,-197.6 267,-187.6 260,-187.6"/>
</a>
</g>
</g>
<!-- Node7 -->
<g id="Node000007" class="node">
<title>Node7</title>
<g id="a_Node000007"><a xlink:href="_headless_8h_source.html" target="_top" xlink:title=" ">
<polygon fill="white" stroke="#666666" points="331.88,-97 195.12,-97 195.12,-66.5 331.88,-66.5 331.88,-97"/>
<text text-anchor="start" x="203.12" y="-83.5" font-family="Helvetica,sans-Serif" font-size="10.00">/Users/hoff/Retro/virtualc64</text>
<text text-anchor="middle" x="263.5" y="-72.25" font-family="Helvetica,sans-Serif" font-size="10.00">/Emulator/Headless.h</text>
</a>
</g>
</g>
<!-- Node6&#45;&gt;Node7 -->
<g id="edge6_Node000006_Node000007" class="edge">
<title>Node6&#45;&gt;Node7</title>
<g id="a_edge6_Node000006_Node000007"><a xlink:title=" ">
<path fill="none" stroke="#63b8ff" d="M263.5,-121.31C263.5,-113.14 263.5,-104.41 263.5,-97.33"/>
<polygon fill="#63b8ff" stroke="#63b8ff" points="260,-121.1 263.5,-131.1 267,-121.1 260,-121.1"/>
</a>
</g>
</g>
<!-- Node8 -->
<g id="Node000008" class="node">
<title>Node8</title>
<g id="a_Node000008"><a xlink:href="_headless_8cpp.html" target="_top" xlink:title=" ">
<polygon fill="white" stroke="#666666" points="331.88,-30.5 195.12,-30.5 195.12,0 331.88,0 331.88,-30.5"/>
<text text-anchor="start" x="203.12" y="-17" font-family="Helvetica,sans-Serif" font-size="10.00">/Users/hoff/Retro/virtualc64</text>
<text text-anchor="middle" x="263.5" y="-5.75" font-family="Helvetica,sans-Serif" font-size="10.00">/Emulator/Headless.cpp</text>
</a>
</g>
</g>
<!-- Node7&#45;&gt;Node8 -->
<g id="edge7_Node000007_Node000008" class="edge">
<title>Node7&#45;&gt;Node8</title>
<g id="a_edge7_Node000007_Node000008"><a xlink:title=" ">
<path fill="none" stroke="#63b8ff" d="M263.5,-54.81C263.5,-46.64 263.5,-37.91 263.5,-30.83"/>
<polygon fill="#63b8ff" stroke="#63b8ff" points="260,-54.6 263.5,-64.6 267,-54.6 260,-54.6"/>
</a>
</g>
</g>
</g>
</svg>
