<?xml version="1.0" encoding="UTF-8" standalone="no"?>
<!DOCTYPE svg PUBLIC "-//W3C//DTD SVG 1.1//EN"
 "http://www.w3.org/Graphics/SVG/1.1/DTD/svg11.dtd">
<!-- Generated by graphviz version 10.0.1 (20240210.2158)
 -->
<!-- Title: /Users/hoff/Retro/virtualc64/Emulator/Misc/RetroShell/RetroShellTypes.h Pages: 1 -->
<svg width="333pt" height="216pt"
 viewBox="0.00 0.00 332.88 215.50" xmlns="http://www.w3.org/2000/svg" xmlns:xlink="http://www.w3.org/1999/xlink">
<g id="graph0" class="graph" transform="scale(1 1) rotate(0) translate(4 211.5)">
<title>/Users/hoff/Retro/virtualc64/Emulator/Misc/RetroShell/RetroShellTypes.h</title>
<!-- Node1 -->
<g id="Node000001" class="node">
<title>Node1</title>
<g id="a_Node000001"><a xlink:title=" ">
<polygon fill="#999999" stroke="#666666" points="311.88,-207.5 175.12,-207.5 175.12,-165.75 311.88,-165.75 311.88,-207.5"/>
<text text-anchor="start" x="183.12" y="-194" font-family="Helvetica,sans-Serif" font-size="10.00">/Users/hoff/Retro/virtualc64</text>
<text text-anchor="start" x="183.12" y="-182.75" font-family="Helvetica,sans-Serif" font-size="10.00">/Emulator/Misc/RetroShell</text>
<text text-anchor="middle" x="243.5" y="-171.5" font-family="Helvetica,sans-Serif" font-size="10.00">/RetroShellTypes.h</text>
</a>
</g>
</g>
<!-- Node2 -->
<g id="Node000002" class="node">
<title>Node2</title>
<g id="a_Node000002"><a xlink:href="_reflection_8h_source.html" target="_top" xlink:title=" ">
<polygon fill="white" stroke="#666666" points="277.75,-129.75 209.25,-129.75 209.25,-110.5 277.75,-110.5 277.75,-129.75"/>
<text text-anchor="middle" x="243.5" y="-116.25" font-family="Helvetica,sans-Serif" font-size="10.00">Reflection.h</text>
</a>
</g>
</g>
<!-- Node1&#45;&gt;Node2 -->
<g id="edge1_Node000001_Node000002" class="edge">
<title>Node1&#45;&gt;Node2</title>
<g id="a_edge1_Node000001_Node000002"><a xlink:title=" ">
<path fill="none" stroke="#63b8ff" d="M243.5,-165.57C243.5,-157.9 243.5,-149.14 243.5,-141.45"/>
<polygon fill="#63b8ff" stroke="#63b8ff" points="247,-141.71 243.5,-131.71 240,-141.71 247,-141.71"/>
</a>
</g>
</g>
<!-- Node3 -->
<g id="Node000003" class="node">
<title>Node3</title>
<g id="a_Node000003"><a xlink:href="_types_8h_source.html" target="_top" xlink:title=" ">
<polygon fill="white" stroke="#666666" points="196.75,-74.5 146.25,-74.5 146.25,-55.25 196.75,-55.25 196.75,-74.5"/>
<text text-anchor="middle" x="171.5" y="-61" font-family="Helvetica,sans-Serif" font-size="10.00">Types.h</text>
</a>
</g>
</g>
<!-- Node2&#45;&gt;Node3 -->
<g id="edge2_Node000002_Node000003" class="edge">
<title>Node2&#45;&gt;Node3</title>
<g id="a_edge2_Node000002_Node000003"><a xlink:title=" ">
<path fill="none" stroke="#63b8ff" d="M231.29,-110.09C220.67,-102.24 205.06,-90.7 192.46,-81.37"/>
<polygon fill="#63b8ff" stroke="#63b8ff" points="194.87,-78.81 184.75,-75.67 190.71,-84.44 194.87,-78.81"/>
</a>
</g>
</g>
<!-- Node9 -->
<g id="Node000009" class="node">
<title>Node9</title>
<g id="a_Node000009"><a xlink:title=" ">
<polygon fill="#e0e0e0" stroke="#999999" points="272.5,-74.5 214.5,-74.5 214.5,-55.25 272.5,-55.25 272.5,-74.5"/>
<text text-anchor="middle" x="243.5" y="-61" font-family="Helvetica,sans-Serif" font-size="10.00">functional</text>
</a>
</g>
</g>
<!-- Node2&#45;&gt;Node9 -->
<g id="edge8_Node000002_Node000009" class="edge">
<title>Node2&#45;&gt;Node9</title>
<g id="a_edge8_Node000002_Node000009"><a xlink:title=" ">
<path fill="none" stroke="#63b8ff" d="M243.5,-110.33C243.5,-103.82 243.5,-94.67 243.5,-86.37"/>
<polygon fill="#63b8ff" stroke="#63b8ff" points="247,-86.37 243.5,-76.37 240,-86.37 247,-86.37"/>
</a>
</g>
</g>
<!-- Node10 -->
<g id="Node000010" class="node">
<title>Node10</title>
<g id="a_Node000010"><a xlink:title=" ">
<polygon fill="#e0e0e0" stroke="#999999" points="324.88,-74.5 290.12,-74.5 290.12,-55.25 324.88,-55.25 324.88,-74.5"/>
<text text-anchor="middle" x="307.5" y="-61" font-family="Helvetica,sans-Serif" font-size="10.00">map</text>
</a>
</g>
</g>
<!-- Node2&#45;&gt;Node10 -->
<g id="edge9_Node000002_Node000010" class="edge">
<title>Node2&#45;&gt;Node10</title>
<g id="a_edge9_Node000002_Node000010"><a xlink:title=" ">
<path fill="none" stroke="#63b8ff" d="M254.36,-110.09C263.61,-102.4 277.12,-91.15 288.21,-81.93"/>
<polygon fill="#63b8ff" stroke="#63b8ff" points="290.19,-84.83 295.64,-75.74 285.71,-79.45 290.19,-84.83"/>
</a>
</g>
</g>
<!-- Node4 -->
<g id="Node000004" class="node">
<title>Node4</title>
<g id="a_Node000004"><a xlink:title=" ">
<polygon fill="#e0e0e0" stroke="#999999" points="67,-19.25 0,-19.25 0,0 67,0 67,-19.25"/>
<text text-anchor="middle" x="33.5" y="-5.75" font-family="Helvetica,sans-Serif" font-size="10.00">sys/types.h</text>
</a>
</g>
</g>
<!-- Node3&#45;&gt;Node4 -->
<g id="edge3_Node000003_Node000004" class="edge">
<title>Node3&#45;&gt;Node4</title>
<g id="a_edge3_Node000003_Node000004"><a xlink:title=" ">
<path fill="none" stroke="#63b8ff" d="M148.09,-54.84C125.98,-46.31 92.58,-33.42 67.53,-23.76"/>
<polygon fill="#63b8ff" stroke="#63b8ff" points="69.03,-20.58 58.44,-20.25 66.51,-27.11 69.03,-20.58"/>
</a>
</g>
</g>
<!-- Node5 -->
<g id="Node000005" class="node">
<title>Node5</title>
<g id="a_Node000005"><a xlink:title=" ">
<polygon fill="#e0e0e0" stroke="#999999" points="133.62,-19.25 85.38,-19.25 85.38,0 133.62,0 133.62,-19.25"/>
<text text-anchor="middle" x="109.5" y="-5.75" font-family="Helvetica,sans-Serif" font-size="10.00">stdint.h</text>
</a>
</g>
</g>
<!-- Node3&#45;&gt;Node5 -->
<g id="edge4_Node000003_Node000005" class="edge">
<title>Node3&#45;&gt;Node5</title>
<g id="a_edge4_Node000003_Node000005"><a xlink:title=" ">
<path fill="none" stroke="#63b8ff" d="M160.98,-54.84C152.11,-47.22 139.19,-36.12 128.51,-26.95"/>
<polygon fill="#63b8ff" stroke="#63b8ff" points="130.88,-24.37 121.01,-20.51 126.32,-29.68 130.88,-24.37"/>
</a>
</g>
</g>
<!-- Node6 -->
<g id="Node000006" class="node">
<title>Node6</title>
<g id="a_Node000006"><a xlink:title=" ">
<polygon fill="#e0e0e0" stroke="#999999" points="191.5,-19.25 151.5,-19.25 151.5,0 191.5,0 191.5,-19.25"/>
<text text-anchor="middle" x="171.5" y="-5.75" font-family="Helvetica,sans-Serif" font-size="10.00">string</text>
</a>
</g>
</g>
<!-- Node3&#45;&gt;Node6 -->
<g id="edge5_Node000003_Node000006" class="edge">
<title>Node3&#45;&gt;Node6</title>
<g id="a_edge5_Node000003_Node000006"><a xlink:title=" ">
<path fill="none" stroke="#63b8ff" d="M171.5,-55.08C171.5,-48.57 171.5,-39.42 171.5,-31.12"/>
<polygon fill="#63b8ff" stroke="#63b8ff" points="175,-31.12 171.5,-21.12 168,-31.12 175,-31.12"/>
</a>
</g>
</g>
<!-- Node7 -->
<g id="Node000007" class="node">
<title>Node7</title>
<g id="a_Node000007"><a xlink:title=" ">
<polygon fill="#e0e0e0" stroke="#999999" points="255.12,-19.25 209.88,-19.25 209.88,0 255.12,0 255.12,-19.25"/>
<text text-anchor="middle" x="232.5" y="-5.75" font-family="Helvetica,sans-Serif" font-size="10.00">cstring</text>
</a>
</g>
</g>
<!-- Node3&#45;&gt;Node7 -->
<g id="edge6_Node000003_Node000007" class="edge">
<title>Node3&#45;&gt;Node7</title>
<g id="a_edge6_Node000003_Node000007"><a xlink:title=" ">
<path fill="none" stroke="#63b8ff" d="M181.85,-54.84C190.58,-47.22 203.29,-36.12 213.8,-26.95"/>
<polygon fill="#63b8ff" stroke="#63b8ff" points="215.93,-29.73 221.16,-20.52 211.33,-24.46 215.93,-29.73"/>
</a>
</g>
</g>
<!-- Node8 -->
<g id="Node000008" class="node">
<title>Node8</title>
<g id="a_Node000008"><a xlink:title=" ">
<polygon fill="#e0e0e0" stroke="#999999" points="323.38,-19.25 273.62,-19.25 273.62,0 323.38,0 323.38,-19.25"/>
<text text-anchor="middle" x="298.5" y="-5.75" font-family="Helvetica,sans-Serif" font-size="10.00">optional</text>
</a>
</g>
</g>
<!-- Node3&#45;&gt;Node8 -->
<g id="edge7_Node000003_Node000008" class="edge">
<title>Node3&#45;&gt;Node8</title>
<g id="a_edge7_Node000003_Node000008"><a xlink:title=" ">
<path fill="none" stroke="#63b8ff" d="M193.04,-54.84C213.11,-46.43 243.3,-33.77 266.25,-24.15"/>
<polygon fill="#63b8ff" stroke="#63b8ff" points="267.59,-27.38 275.45,-20.29 264.88,-20.93 267.59,-27.38"/>
</a>
</g>
</g>
</g>
</svg>
