<?xml version="1.0" encoding="UTF-8" standalone="no"?>
<!DOCTYPE svg PUBLIC "-//W3C//DTD SVG 1.1//EN"
 "http://www.w3.org/Graphics/SVG/1.1/DTD/svg11.dtd">
<!-- Generated by graphviz version 10.0.1 (20240210.2158)
 -->
<!-- Title: /Users/hoff/Retro/virtualc64/Emulator/Misc/RetroShell/RetroShellTypes.h Pages: 1 -->
<svg width="328pt" height="327pt"
 viewBox="0.00 0.00 328.38 327.00" xmlns="http://www.w3.org/2000/svg" xmlns:xlink="http://www.w3.org/1999/xlink">
<g id="graph0" class="graph" transform="scale(1 1) rotate(0) translate(4 323)">
<title>/Users/hoff/Retro/virtualc64/Emulator/Misc/RetroShell/RetroShellTypes.h</title>
<!-- Node1 -->
<g id="Node000001" class="node">
<title>Node1</title>
<g id="a_Node000001"><a xlink:title=" ">
<polygon fill="#999999" stroke="#666666" points="234.38,-319 97.62,-319 97.62,-277.25 234.38,-277.25 234.38,-319"/>
<text text-anchor="start" x="105.62" y="-305.5" font-family="Helvetica,sans-Serif" font-size="10.00">/Users/hoff/Retro/virtualc64</text>
<text text-anchor="start" x="105.62" y="-294.25" font-family="Helvetica,sans-Serif" font-size="10.00">/Emulator/Misc/RetroShell</text>
<text text-anchor="middle" x="166" y="-283" font-family="Helvetica,sans-Serif" font-size="10.00">/RetroShellTypes.h</text>
</a>
</g>
</g>
<!-- Node2 -->
<g id="Node000002" class="node">
<title>Node2</title>
<g id="a_Node000002"><a xlink:href="_retro_shell_8h_source.html" target="_top" xlink:title=" ">
<polygon fill="white" stroke="#666666" points="156.38,-241.25 19.62,-241.25 19.62,-199.5 156.38,-199.5 156.38,-241.25"/>
<text text-anchor="start" x="27.62" y="-227.75" font-family="Helvetica,sans-Serif" font-size="10.00">/Users/hoff/Retro/virtualc64</text>
<text text-anchor="start" x="27.62" y="-216.5" font-family="Helvetica,sans-Serif" font-size="10.00">/Emulator/Misc/RetroShell</text>
<text text-anchor="middle" x="88" y="-205.25" font-family="Helvetica,sans-Serif" font-size="10.00">/RetroShell.h</text>
</a>
</g>
</g>
<!-- Node1&#45;&gt;Node2 -->
<g id="edge1_Node000001_Node000002" class="edge">
<title>Node1&#45;&gt;Node2</title>
<g id="a_edge1_Node000001_Node000002"><a xlink:title=" ">
<path fill="none" stroke="#63b8ff" d="M136.87,-268.84C127.6,-259.84 117.54,-250.06 108.96,-241.73"/>
<polygon fill="#63b8ff" stroke="#63b8ff" points="134.4,-271.31 144.01,-275.77 139.28,-266.29 134.4,-271.31"/>
</a>
</g>
</g>
<!-- Node5 -->
<g id="Node000005" class="node">
<title>Node5</title>
<g id="a_Node000005"><a xlink:href="_virtual_c64_types_8h.html" target="_top" xlink:title=" ">
<polygon fill="white" stroke="#666666" points="317.62,-235.62 176.38,-235.62 176.38,-205.12 317.62,-205.12 317.62,-235.62"/>
<text text-anchor="start" x="184.38" y="-222.12" font-family="Helvetica,sans-Serif" font-size="10.00">/Users/hoff/Retro/virtualc64</text>
<text text-anchor="middle" x="247" y="-210.88" font-family="Helvetica,sans-Serif" font-size="10.00">/Emulator/VirtualC64Types.h</text>
</a>
</g>
</g>
<!-- Node1&#45;&gt;Node5 -->
<g id="edge4_Node000001_Node000005" class="edge">
<title>Node1&#45;&gt;Node5</title>
<g id="a_edge4_Node000001_Node000005"><a xlink:title=" ">
<path fill="none" stroke="#63b8ff" d="M195.79,-269.26C207.87,-257.97 221.32,-245.39 231.4,-235.96"/>
<polygon fill="#63b8ff" stroke="#63b8ff" points="193.73,-266.4 188.81,-275.79 198.51,-271.52 193.73,-266.4"/>
</a>
</g>
</g>
<!-- Node3 -->
<g id="Node000003" class="node">
<title>Node3</title>
<g id="a_Node000003"><a xlink:href="_c64_8h_source.html" target="_top" xlink:title=" ">
<polygon fill="white" stroke="#666666" points="157.88,-163.5 12.12,-163.5 12.12,-133 157.88,-133 157.88,-163.5"/>
<text text-anchor="start" x="20.12" y="-150" font-family="Helvetica,sans-Serif" font-size="10.00">/Users/hoff/Retro/virtualc64</text>
<text text-anchor="middle" x="85" y="-138.75" font-family="Helvetica,sans-Serif" font-size="10.00">/Emulator/Components/C64.h</text>
</a>
</g>
</g>
<!-- Node2&#45;&gt;Node3 -->
<g id="edge2_Node000002_Node000003" class="edge">
<title>Node2&#45;&gt;Node3</title>
<g id="a_edge2_Node000002_Node000003"><a xlink:title=" ">
<path fill="none" stroke="#63b8ff" d="M86.64,-187.63C86.28,-179.27 85.92,-170.65 85.62,-163.7"/>
<polygon fill="#63b8ff" stroke="#63b8ff" points="83.14,-187.74 87.07,-197.58 90.14,-187.44 83.14,-187.74"/>
</a>
</g>
</g>
<!-- Node4 -->
<g id="Node000004" class="node">
<title>Node4</title>
<g id="a_Node000004"><a xlink:href="_emulator_8h_source.html" target="_top" xlink:title=" ">
<polygon fill="white" stroke="#666666" points="166,-97 0,-97 0,-66.5 166,-66.5 166,-97"/>
<text text-anchor="start" x="8" y="-83.5" font-family="Helvetica,sans-Serif" font-size="10.00">/Users/hoff/Retro/virtualc64</text>
<text text-anchor="middle" x="83" y="-72.25" font-family="Helvetica,sans-Serif" font-size="10.00">/Emulator/Components/Emulator.h</text>
</a>
</g>
</g>
<!-- Node3&#45;&gt;Node4 -->
<g id="edge3_Node000003_Node000004" class="edge">
<title>Node3&#45;&gt;Node4</title>
<g id="a_edge3_Node000003_Node000004"><a xlink:title=" ">
<path fill="none" stroke="#63b8ff" d="M84.2,-121.31C83.94,-113.14 83.67,-104.41 83.45,-97.33"/>
<polygon fill="#63b8ff" stroke="#63b8ff" points="80.69,-121.21 84.5,-131.1 87.69,-121 80.69,-121.21"/>
</a>
</g>
</g>
<!-- Node6 -->
<g id="Node000006" class="node">
<title>Node6</title>
<g id="a_Node000006"><a xlink:href="_virtual_c64_8h.html" target="_top" xlink:title=" ">
<polygon fill="white" stroke="#666666" points="317.38,-163.5 180.62,-163.5 180.62,-133 317.38,-133 317.38,-163.5"/>
<text text-anchor="start" x="188.62" y="-150" font-family="Helvetica,sans-Serif" font-size="10.00">/Users/hoff/Retro/virtualc64</text>
<text text-anchor="middle" x="249" y="-138.75" font-family="Helvetica,sans-Serif" font-size="10.00">/Emulator/VirtualC64.h</text>
</a>
</g>
</g>
<!-- Node5&#45;&gt;Node6 -->
<g id="edge5_Node000005_Node000006" class="edge">
<title>Node5&#45;&gt;Node6</title>
<g id="a_edge5_Node000005_Node000006"><a xlink:title=" ">
<path fill="none" stroke="#63b8ff" d="M247.74,-193.4C248.03,-183.39 248.34,-172.31 248.59,-163.76"/>
<polygon fill="#63b8ff" stroke="#63b8ff" points="244.24,-193.24 247.46,-203.33 251.24,-193.44 244.24,-193.24"/>
</a>
</g>
</g>
<!-- Node7 -->
<g id="Node000007" class="node">
<title>Node7</title>
<g id="a_Node000007"><a xlink:href="_headless_8h_source.html" target="_top" xlink:title=" ">
<polygon fill="white" stroke="#666666" points="320.38,-97 183.62,-97 183.62,-66.5 320.38,-66.5 320.38,-97"/>
<text text-anchor="start" x="191.62" y="-83.5" font-family="Helvetica,sans-Serif" font-size="10.00">/Users/hoff/Retro/virtualc64</text>
<text text-anchor="middle" x="252" y="-72.25" font-family="Helvetica,sans-Serif" font-size="10.00">/Emulator/Headless.h</text>
</a>
</g>
</g>
<!-- Node6&#45;&gt;Node7 -->
<g id="edge6_Node000006_Node000007" class="edge">
<title>Node6&#45;&gt;Node7</title>
<g id="a_edge6_Node000006_Node000007"><a xlink:title=" ">
<path fill="none" stroke="#63b8ff" d="M250.21,-121.31C250.59,-113.14 250.99,-104.41 251.32,-97.33"/>
<polygon fill="#63b8ff" stroke="#63b8ff" points="246.72,-120.95 249.75,-131.1 253.71,-121.28 246.72,-120.95"/>
</a>
</g>
</g>
<!-- Node8 -->
<g id="Node000008" class="node">
<title>Node8</title>
<g id="a_Node000008"><a xlink:href="_headless_8cpp.html" target="_top" xlink:title=" ">
<polygon fill="white" stroke="#666666" points="320.38,-30.5 183.62,-30.5 183.62,0 320.38,0 320.38,-30.5"/>
<text text-anchor="start" x="191.62" y="-17" font-family="Helvetica,sans-Serif" font-size="10.00">/Users/hoff/Retro/virtualc64</text>
<text text-anchor="middle" x="252" y="-5.75" font-family="Helvetica,sans-Serif" font-size="10.00">/Emulator/Headless.cpp</text>
</a>
</g>
</g>
<!-- Node7&#45;&gt;Node8 -->
<g id="edge7_Node000007_Node000008" class="edge">
<title>Node7&#45;&gt;Node8</title>
<g id="a_edge7_Node000007_Node000008"><a xlink:title=" ">
<path fill="none" stroke="#63b8ff" d="M252,-54.81C252,-46.64 252,-37.91 252,-30.83"/>
<polygon fill="#63b8ff" stroke="#63b8ff" points="248.5,-54.6 252,-64.6 255.5,-54.6 248.5,-54.6"/>
</a>
</g>
</g>
</g>
</svg>
