<?xml version="1.0" encoding="UTF-8" standalone="no"?>
<!DOCTYPE svg PUBLIC "-//W3C//DTD SVG 1.1//EN"
 "http://www.w3.org/Graphics/SVG/1.1/DTD/svg11.dtd">
<!-- Generated by graphviz version 10.0.1 (20240210.2158)
 -->
<!-- Title: /Users/hoff/Retro/virtualc64/Emulator/Media/RomFile.h Pages: 1 -->
<svg width="465pt" height="536pt"
 viewBox="0.00 0.00 465.00 535.75" xmlns="http://www.w3.org/2000/svg" xmlns:xlink="http://www.w3.org/1999/xlink">
<g id="graph0" class="graph" transform="scale(1 1) rotate(0) translate(4 531.75)">
<title>/Users/hoff/Retro/virtualc64/Emulator/Media/RomFile.h</title>
<!-- Node1 -->
<g id="Node000001" class="node">
<title>Node1</title>
<g id="a_Node000001"><a xlink:title=" ">
<polygon fill="#999999" stroke="#666666" points="374.12,-527.75 237.38,-527.75 237.38,-497.25 374.12,-497.25 374.12,-527.75"/>
<text text-anchor="start" x="245.38" y="-514.25" font-family="Helvetica,sans-Serif" font-size="10.00">/Users/hoff/Retro/virtualc64</text>
<text text-anchor="middle" x="305.75" y="-503" font-family="Helvetica,sans-Serif" font-size="10.00">/Emulator/Media/RomFile.h</text>
</a>
</g>
</g>
<!-- Node2 -->
<g id="Node000002" class="node">
<title>Node2</title>
<g id="a_Node000002"><a xlink:href="_any_file_8h.html" target="_top" xlink:title=" ">
<polygon fill="white" stroke="#666666" points="280.38,-461.25 223.12,-461.25 223.12,-442 280.38,-442 280.38,-461.25"/>
<text text-anchor="middle" x="251.75" y="-447.75" font-family="Helvetica,sans-Serif" font-size="10.00">AnyFile.h</text>
</a>
</g>
</g>
<!-- Node1&#45;&gt;Node2 -->
<g id="edge1_Node000001_Node000002" class="edge">
<title>Node1&#45;&gt;Node2</title>
<g id="a_edge1_Node000001_Node000002"><a xlink:title=" ">
<path fill="none" stroke="#63b8ff" d="M292.4,-496.95C284.97,-488.84 275.67,-478.7 267.84,-470.16"/>
<polygon fill="#63b8ff" stroke="#63b8ff" points="270.44,-467.82 261.1,-462.82 265.28,-472.55 270.44,-467.82"/>
</a>
</g>
</g>
<!-- Node24 -->
<g id="Node000024" class="node">
<title>Node24</title>
<g id="a_Node000024"><a xlink:href="_c64_types_8h.html" target="_top" xlink:title=" ">
<polygon fill="white" stroke="#666666" points="457,-240.25 388.5,-240.25 388.5,-221 457,-221 457,-240.25"/>
<text text-anchor="middle" x="422.75" y="-226.75" font-family="Helvetica,sans-Serif" font-size="10.00">C64Types.h</text>
</a>
</g>
</g>
<!-- Node1&#45;&gt;Node24 -->
<g id="edge29_Node000001_Node000024" class="edge">
<title>Node1&#45;&gt;Node24</title>
<g id="a_edge29_Node000001_Node000024"><a xlink:title=" ">
<path fill="none" stroke="#63b8ff" d="M329.22,-496.9C356.77,-477.74 398.75,-441.34 398.75,-397.38 398.75,-397.38 398.75,-397.38 398.75,-340.12 398.75,-308.37 408.67,-272.59 415.76,-251.09"/>
<polygon fill="#63b8ff" stroke="#63b8ff" points="418.97,-252.51 418.92,-241.91 412.35,-250.23 418.97,-252.51"/>
</a>
</g>
</g>
<!-- Node3 -->
<g id="Node000003" class="node">
<title>Node3</title>
<g id="a_Node000003"><a xlink:href="_core_object_8h.html" target="_top" xlink:title=" ">
<polygon fill="white" stroke="#666666" points="256.62,-350.75 182.88,-350.75 182.88,-331.5 256.62,-331.5 256.62,-350.75"/>
<text text-anchor="middle" x="219.75" y="-337.25" font-family="Helvetica,sans-Serif" font-size="10.00">CoreObject.h</text>
</a>
</g>
</g>
<!-- Node2&#45;&gt;Node3 -->
<g id="edge2_Node000002_Node000003" class="edge">
<title>Node2&#45;&gt;Node3</title>
<g id="a_edge2_Node000002_Node000003"><a xlink:title=" ">
<path fill="none" stroke="#63b8ff" d="M256.54,-441.62C262.59,-428.95 271.37,-405.33 263.75,-386.75 259.15,-375.54 250.23,-365.64 241.62,-358.03"/>
<polygon fill="#63b8ff" stroke="#63b8ff" points="244.09,-355.53 234.12,-351.93 239.67,-360.96 244.09,-355.53"/>
</a>
</g>
</g>
<!-- Node17 -->
<g id="Node000017" class="node">
<title>Node17</title>
<g id="a_Node000017"><a xlink:href="_file_types_8h.html" target="_top" xlink:title=" ">
<polygon fill="white" stroke="#666666" points="370.88,-240.25 304.62,-240.25 304.62,-221 370.88,-221 370.88,-240.25"/>
<text text-anchor="middle" x="337.75" y="-226.75" font-family="Helvetica,sans-Serif" font-size="10.00">FileTypes.h</text>
</a>
</g>
</g>
<!-- Node2&#45;&gt;Node17 -->
<g id="edge17_Node000002_Node000017" class="edge">
<title>Node2&#45;&gt;Node17</title>
<g id="a_edge17_Node000002_Node000017"><a xlink:title=" ">
<path fill="none" stroke="#63b8ff" d="M257.94,-441.72C263.85,-432.93 272.72,-418.97 278.75,-406 303.84,-352.04 323.65,-284.32 332.58,-251.41"/>
<polygon fill="#63b8ff" stroke="#63b8ff" points="335.88,-252.62 335.07,-242.06 329.11,-250.82 335.88,-252.62"/>
</a>
</g>
</g>
<!-- Node18 -->
<g id="Node000018" class="node">
<title>Node18</title>
<g id="a_Node000018"><a xlink:href="_p_e_t_name_8h.html" target="_top" xlink:title=" ">
<polygon fill="white" stroke="#666666" points="254.75,-406 184.75,-406 184.75,-386.75 254.75,-386.75 254.75,-406"/>
<text text-anchor="middle" x="219.75" y="-392.5" font-family="Helvetica,sans-Serif" font-size="10.00">PETName.h</text>
</a>
</g>
</g>
<!-- Node2&#45;&gt;Node18 -->
<g id="edge20_Node000002_Node000018" class="edge">
<title>Node2&#45;&gt;Node18</title>
<g id="a_edge20_Node000002_Node000018"><a xlink:title=" ">
<path fill="none" stroke="#63b8ff" d="M246.47,-441.83C242.28,-434.86 236.27,-424.87 231.02,-416.12"/>
<polygon fill="#63b8ff" stroke="#63b8ff" points="234.08,-414.43 225.93,-407.66 228.08,-418.03 234.08,-414.43"/>
</a>
</g>
</g>
<!-- Node22 -->
<g id="Node000022" class="node">
<title>Node22</title>
<g id="a_Node000022"><a xlink:title=" ">
<polygon fill="#e0e0e0" stroke="#999999" points="99.38,-406 48.12,-406 48.12,-386.75 99.38,-386.75 99.38,-406"/>
<text text-anchor="middle" x="73.75" y="-392.5" font-family="Helvetica,sans-Serif" font-size="10.00">sstream</text>
</a>
</g>
</g>
<!-- Node2&#45;&gt;Node22 -->
<g id="edge27_Node000002_Node000022" class="edge">
<title>Node2&#45;&gt;Node22</title>
<g id="a_edge27_Node000002_Node000022"><a xlink:title=" ">
<path fill="none" stroke="#63b8ff" d="M222.76,-441.95C192.13,-432.79 143.77,-418.32 110.49,-408.37"/>
<polygon fill="#63b8ff" stroke="#63b8ff" points="111.87,-405.12 101.28,-405.61 109.86,-411.83 111.87,-405.12"/>
</a>
</g>
</g>
<!-- Node23 -->
<g id="Node000023" class="node">
<title>Node23</title>
<g id="a_Node000023"><a xlink:title=" ">
<polygon fill="#e0e0e0" stroke="#999999" points="166.25,-406 117.25,-406 117.25,-386.75 166.25,-386.75 166.25,-406"/>
<text text-anchor="middle" x="141.75" y="-392.5" font-family="Helvetica,sans-Serif" font-size="10.00">fstream</text>
</a>
</g>
</g>
<!-- Node2&#45;&gt;Node23 -->
<g id="edge28_Node000002_Node000023" class="edge">
<title>Node2&#45;&gt;Node23</title>
<g id="a_edge28_Node000002_Node000023"><a xlink:title=" ">
<path fill="none" stroke="#63b8ff" d="M233.09,-441.59C216.02,-433.33 190.51,-420.98 170.78,-411.43"/>
<polygon fill="#63b8ff" stroke="#63b8ff" points="172.39,-408.32 161.86,-407.11 169.34,-414.62 172.39,-408.32"/>
</a>
</g>
</g>
<!-- Node4 -->
<g id="Node000004" class="node">
<title>Node4</title>
<g id="a_Node000004"><a xlink:href="_error_8h.html" target="_top" xlink:title=" ">
<polygon fill="white" stroke="#666666" points="242,-295.5 197.5,-295.5 197.5,-276.25 242,-276.25 242,-295.5"/>
<text text-anchor="middle" x="219.75" y="-282" font-family="Helvetica,sans-Serif" font-size="10.00">Error.h</text>
</a>
</g>
</g>
<!-- Node3&#45;&gt;Node4 -->
<g id="edge3_Node000003_Node000004" class="edge">
<title>Node3&#45;&gt;Node4</title>
<g id="a_edge3_Node000003_Node000004"><a xlink:title=" ">
<path fill="none" stroke="#63b8ff" d="M219.75,-331.33C219.75,-324.82 219.75,-315.67 219.75,-307.37"/>
<polygon fill="#63b8ff" stroke="#63b8ff" points="223.25,-307.37 219.75,-297.37 216.25,-307.37 223.25,-307.37"/>
</a>
</g>
</g>
<!-- Node15 -->
<g id="Node000015" class="node">
<title>Node15</title>
<g id="a_Node000015"><a xlink:href="_inspectable_8h.html" target="_top" xlink:title=" ">
<polygon fill="white" stroke="#666666" points="163,-295.5 88.5,-295.5 88.5,-276.25 163,-276.25 163,-295.5"/>
<text text-anchor="middle" x="125.75" y="-282" font-family="Helvetica,sans-Serif" font-size="10.00">Inspectable.h</text>
</a>
</g>
</g>
<!-- Node3&#45;&gt;Node15 -->
<g id="edge15_Node000003_Node000015" class="edge">
<title>Node3&#45;&gt;Node15</title>
<g id="a_edge15_Node000003_Node000015"><a xlink:title=" ">
<path fill="none" stroke="#63b8ff" d="M203.8,-331.09C189.49,-322.98 168.22,-310.93 151.5,-301.46"/>
<polygon fill="#63b8ff" stroke="#63b8ff" points="153.52,-298.58 143.09,-296.7 150.07,-304.67 153.52,-298.58"/>
</a>
</g>
</g>
<!-- Node5 -->
<g id="Node000005" class="node">
<title>Node5</title>
<g id="a_Node000005"><a xlink:href="_error_types_8h.html" target="_top" xlink:title=" ">
<polygon fill="white" stroke="#666666" points="286.5,-240.25 215,-240.25 215,-221 286.5,-221 286.5,-240.25"/>
<text text-anchor="middle" x="250.75" y="-226.75" font-family="Helvetica,sans-Serif" font-size="10.00">ErrorTypes.h</text>
</a>
</g>
</g>
<!-- Node4&#45;&gt;Node5 -->
<g id="edge4_Node000004_Node000005" class="edge">
<title>Node4&#45;&gt;Node5</title>
<g id="a_edge4_Node000004_Node000005"><a xlink:title=" ">
<path fill="none" stroke="#63b8ff" d="M224.87,-276.08C228.93,-269.11 234.74,-259.12 239.84,-250.37"/>
<polygon fill="#63b8ff" stroke="#63b8ff" points="242.75,-252.32 244.76,-241.92 236.7,-248.8 242.75,-252.32"/>
</a>
</g>
</g>
<!-- Node13 -->
<g id="Node000013" class="node">
<title>Node13</title>
<g id="a_Node000013"><a xlink:href="_exception_8h.html" target="_top" xlink:title=" ">
<polygon fill="white" stroke="#666666" points="196.62,-240.25 128.88,-240.25 128.88,-221 196.62,-221 196.62,-240.25"/>
<text text-anchor="middle" x="162.75" y="-226.75" font-family="Helvetica,sans-Serif" font-size="10.00">Exception.h</text>
</a>
</g>
</g>
<!-- Node4&#45;&gt;Node13 -->
<g id="edge12_Node000004_Node000013" class="edge">
<title>Node4&#45;&gt;Node13</title>
<g id="a_edge12_Node000004_Node000013"><a xlink:title=" ">
<path fill="none" stroke="#63b8ff" d="M210.08,-275.84C202.01,-268.3 190.28,-257.35 180.53,-248.23"/>
<polygon fill="#63b8ff" stroke="#63b8ff" points="183.08,-245.83 173.38,-241.56 178.3,-250.94 183.08,-245.83"/>
</a>
</g>
</g>
<!-- Node6 -->
<g id="Node000006" class="node">
<title>Node6</title>
<g id="a_Node000006"><a xlink:href="_aliases_8h.html" target="_top" xlink:title=" ">
<polygon fill="white" stroke="#666666" points="366,-185 309.5,-185 309.5,-165.75 366,-165.75 366,-185"/>
<text text-anchor="middle" x="337.75" y="-171.5" font-family="Helvetica,sans-Serif" font-size="10.00">Aliases.h</text>
</a>
</g>
</g>
<!-- Node5&#45;&gt;Node6 -->
<g id="edge5_Node000005_Node000006" class="edge">
<title>Node5&#45;&gt;Node6</title>
<g id="a_edge5_Node000005_Node000006"><a xlink:title=" ">
<path fill="none" stroke="#63b8ff" d="M265.51,-220.59C278.63,-212.56 298.07,-200.66 313.48,-191.23"/>
<polygon fill="#63b8ff" stroke="#63b8ff" points="314.93,-194.45 321.63,-186.24 311.27,-188.48 314.93,-194.45"/>
</a>
</g>
</g>
<!-- Node12 -->
<g id="Node000012" class="node">
<title>Node12</title>
<g id="a_Node000012"><a xlink:href="_reflection_8h.html" target="_top" xlink:title=" ">
<polygon fill="white" stroke="#666666" points="291,-185 222.5,-185 222.5,-165.75 291,-165.75 291,-185"/>
<text text-anchor="middle" x="256.75" y="-171.5" font-family="Helvetica,sans-Serif" font-size="10.00">Reflection.h</text>
</a>
</g>
</g>
<!-- Node5&#45;&gt;Node12 -->
<g id="edge11_Node000005_Node000012" class="edge">
<title>Node5&#45;&gt;Node12</title>
<g id="a_edge11_Node000005_Node000012"><a xlink:title=" ">
<path fill="none" stroke="#63b8ff" d="M251.74,-220.83C252.48,-214.24 253.53,-204.96 254.47,-196.57"/>
<polygon fill="#63b8ff" stroke="#63b8ff" points="257.93,-197.19 255.57,-186.86 250.97,-196.41 257.93,-197.19"/>
</a>
</g>
</g>
<!-- Node7 -->
<g id="Node000007" class="node">
<title>Node7</title>
<g id="a_Node000007"><a xlink:href="_macros_8h.html" target="_top" xlink:title=" ">
<polygon fill="white" stroke="#666666" points="311,-129.75 254.5,-129.75 254.5,-110.5 311,-110.5 311,-129.75"/>
<text text-anchor="middle" x="282.75" y="-116.25" font-family="Helvetica,sans-Serif" font-size="10.00">Macros.h</text>
</a>
</g>
</g>
<!-- Node6&#45;&gt;Node7 -->
<g id="edge6_Node000006_Node000007" class="edge">
<title>Node6&#45;&gt;Node7</title>
<g id="a_edge6_Node000006_Node000007"><a xlink:title=" ">
<path fill="none" stroke="#63b8ff" d="M328.67,-165.58C320.91,-158.07 309.54,-147.06 300.05,-137.88"/>
<polygon fill="#63b8ff" stroke="#63b8ff" points="302.74,-135.6 293.12,-131.16 297.87,-140.63 302.74,-135.6"/>
</a>
</g>
</g>
<!-- Node8 -->
<g id="Node000008" class="node">
<title>Node8</title>
<g id="a_Node000008"><a xlink:href="_types_8h.html" target="_top" xlink:title=" ">
<polygon fill="white" stroke="#666666" points="167,-74.5 116.5,-74.5 116.5,-55.25 167,-55.25 167,-74.5"/>
<text text-anchor="middle" x="141.75" y="-61" font-family="Helvetica,sans-Serif" font-size="10.00">Types.h</text>
</a>
</g>
</g>
<!-- Node7&#45;&gt;Node8 -->
<g id="edge7_Node000007_Node000008" class="edge">
<title>Node7&#45;&gt;Node8</title>
<g id="a_edge7_Node000007_Node000008"><a xlink:title=" ">
<path fill="none" stroke="#63b8ff" d="M258.83,-110.09C236.25,-101.56 202.11,-88.67 176.52,-79.01"/>
<polygon fill="#63b8ff" stroke="#63b8ff" points="177.79,-75.75 167.2,-75.49 175.32,-82.29 177.79,-75.75"/>
</a>
</g>
</g>
<!-- Node9 -->
<g id="Node000009" class="node">
<title>Node9</title>
<g id="a_Node000009"><a xlink:title=" ">
<polygon fill="#e0e0e0" stroke="#999999" points="99.25,-19.25 32.25,-19.25 32.25,0 99.25,0 99.25,-19.25"/>
<text text-anchor="middle" x="65.75" y="-5.75" font-family="Helvetica,sans-Serif" font-size="10.00">sys/types.h</text>
</a>
</g>
</g>
<!-- Node8&#45;&gt;Node9 -->
<g id="edge8_Node000008_Node000009" class="edge">
<title>Node8&#45;&gt;Node9</title>
<g id="a_edge8_Node000008_Node000009"><a xlink:title=" ">
<path fill="none" stroke="#63b8ff" d="M128.86,-54.84C117.72,-47.04 101.38,-35.59 88.11,-26.29"/>
<polygon fill="#63b8ff" stroke="#63b8ff" points="90.14,-23.44 79.95,-20.57 86.13,-29.18 90.14,-23.44"/>
</a>
</g>
</g>
<!-- Node10 -->
<g id="Node000010" class="node">
<title>Node10</title>
<g id="a_Node000010"><a xlink:title=" ">
<polygon fill="#e0e0e0" stroke="#999999" points="165.88,-19.25 117.62,-19.25 117.62,0 165.88,0 165.88,-19.25"/>
<text text-anchor="middle" x="141.75" y="-5.75" font-family="Helvetica,sans-Serif" font-size="10.00">stdint.h</text>
</a>
</g>
</g>
<!-- Node8&#45;&gt;Node10 -->
<g id="edge9_Node000008_Node000010" class="edge">
<title>Node8&#45;&gt;Node10</title>
<g id="a_edge9_Node000008_Node000010"><a xlink:title=" ">
<path fill="none" stroke="#63b8ff" d="M141.75,-55.08C141.75,-48.57 141.75,-39.42 141.75,-31.12"/>
<polygon fill="#63b8ff" stroke="#63b8ff" points="145.25,-31.12 141.75,-21.12 138.25,-31.12 145.25,-31.12"/>
</a>
</g>
</g>
<!-- Node11 -->
<g id="Node000011" class="node">
<title>Node11</title>
<g id="a_Node000011"><a xlink:title=" ">
<polygon fill="#e0e0e0" stroke="#999999" points="239.62,-19.25 183.88,-19.25 183.88,0 239.62,0 239.62,-19.25"/>
<text text-anchor="middle" x="211.75" y="-5.75" font-family="Helvetica,sans-Serif" font-size="10.00">stdbool.h</text>
</a>
</g>
</g>
<!-- Node8&#45;&gt;Node11 -->
<g id="edge10_Node000008_Node000011" class="edge">
<title>Node8&#45;&gt;Node11</title>
<g id="a_edge10_Node000008_Node000011"><a xlink:title=" ">
<path fill="none" stroke="#63b8ff" d="M153.62,-54.84C163.84,-47.07 178.82,-35.67 191.01,-26.4"/>
<polygon fill="#63b8ff" stroke="#63b8ff" points="193.01,-29.28 198.85,-20.44 188.77,-23.71 193.01,-29.28"/>
</a>
</g>
</g>
<!-- Node13&#45;&gt;Node8 -->
<g id="edge13_Node000013_Node000008" class="edge">
<title>Node13&#45;&gt;Node8</title>
<g id="a_edge13_Node000013_Node000008"><a xlink:title=" ">
<path fill="none" stroke="#63b8ff" d="M164.4,-220.79C167.8,-200.8 174.5,-150.7 164.75,-110.5 162.57,-101.52 158.25,-92.32 153.94,-84.63"/>
<polygon fill="#63b8ff" stroke="#63b8ff" points="157.03,-82.97 148.85,-76.23 151.04,-86.6 157.03,-82.97"/>
</a>
</g>
</g>
<!-- Node14 -->
<g id="Node000014" class="node">
<title>Node14</title>
<g id="a_Node000014"><a xlink:title=" ">
<polygon fill="#e0e0e0" stroke="#999999" points="155.75,-185 97.75,-185 97.75,-165.75 155.75,-165.75 155.75,-185"/>
<text text-anchor="middle" x="126.75" y="-171.5" font-family="Helvetica,sans-Serif" font-size="10.00">exception</text>
</a>
</g>
</g>
<!-- Node13&#45;&gt;Node14 -->
<g id="edge14_Node000013_Node000014" class="edge">
<title>Node13&#45;&gt;Node14</title>
<g id="a_edge14_Node000013_Node000014"><a xlink:title=" ">
<path fill="none" stroke="#63b8ff" d="M156.81,-220.83C152.04,-213.78 145.19,-203.65 139.23,-194.83"/>
<polygon fill="#63b8ff" stroke="#63b8ff" points="142.17,-192.94 133.67,-186.61 136.37,-196.86 142.17,-192.94"/>
</a>
</g>
</g>
<!-- Node16 -->
<g id="Node000016" class="node">
<title>Node16</title>
<g id="a_Node000016"><a xlink:title=" ">
<polygon fill="#e0e0e0" stroke="#999999" points="110.5,-240.25 57,-240.25 57,-221 110.5,-221 110.5,-240.25"/>
<text text-anchor="middle" x="83.75" y="-226.75" font-family="Helvetica,sans-Serif" font-size="10.00">iostream</text>
</a>
</g>
</g>
<!-- Node15&#45;&gt;Node16 -->
<g id="edge16_Node000015_Node000016" class="edge">
<title>Node15&#45;&gt;Node16</title>
<g id="a_edge16_Node000015_Node000016"><a xlink:title=" ">
<path fill="none" stroke="#63b8ff" d="M118.81,-276.08C113.13,-268.88 104.91,-258.46 97.86,-249.51"/>
<polygon fill="#63b8ff" stroke="#63b8ff" points="100.71,-247.48 91.77,-241.8 95.22,-251.82 100.71,-247.48"/>
</a>
</g>
</g>
<!-- Node17&#45;&gt;Node6 -->
<g id="edge18_Node000017_Node000006" class="edge">
<title>Node17&#45;&gt;Node6</title>
<g id="a_edge18_Node000017_Node000006"><a xlink:title=" ">
<path fill="none" stroke="#63b8ff" d="M337.75,-220.83C337.75,-214.32 337.75,-205.17 337.75,-196.87"/>
<polygon fill="#63b8ff" stroke="#63b8ff" points="341.25,-196.87 337.75,-186.87 334.25,-196.87 341.25,-196.87"/>
</a>
</g>
</g>
<!-- Node17&#45;&gt;Node12 -->
<g id="edge19_Node000017_Node000012" class="edge">
<title>Node17&#45;&gt;Node12</title>
<g id="a_edge19_Node000017_Node000012"><a xlink:title=" ">
<path fill="none" stroke="#63b8ff" d="M324.01,-220.59C312.02,-212.71 294.38,-201.11 280.17,-191.77"/>
<polygon fill="#63b8ff" stroke="#63b8ff" points="282.1,-188.85 271.82,-186.28 278.26,-194.7 282.1,-188.85"/>
</a>
</g>
</g>
<!-- Node18&#45;&gt;Node3 -->
<g id="edge21_Node000018_Node000003" class="edge">
<title>Node18&#45;&gt;Node3</title>
<g id="a_edge21_Node000018_Node000003"><a xlink:title=" ">
<path fill="none" stroke="#63b8ff" d="M219.75,-386.58C219.75,-380.07 219.75,-370.92 219.75,-362.62"/>
<polygon fill="#63b8ff" stroke="#63b8ff" points="223.25,-362.62 219.75,-352.62 216.25,-362.62 223.25,-362.62"/>
</a>
</g>
</g>
<!-- Node19 -->
<g id="Node000019" class="node">
<title>Node19</title>
<g id="a_Node000019"><a xlink:href="_mem_utils_8h.html" target="_top" xlink:title=" ">
<polygon fill="white" stroke="#666666" points="73.88,-185 7.62,-185 7.62,-165.75 73.88,-165.75 73.88,-185"/>
<text text-anchor="middle" x="40.75" y="-171.5" font-family="Helvetica,sans-Serif" font-size="10.00">MemUtils.h</text>
</a>
</g>
</g>
<!-- Node18&#45;&gt;Node19 -->
<g id="edge22_Node000018_Node000019" class="edge">
<title>Node18&#45;&gt;Node19</title>
<g id="a_edge22_Node000018_Node000019"><a xlink:title=" ">
<path fill="none" stroke="#63b8ff" d="M202.45,-386.27C174.09,-370.69 117.12,-336.58 79.75,-295.5 60.66,-274.51 56.6,-267.21 47.75,-240.25 43.11,-226.1 41.4,-209.34 40.83,-196.53"/>
<polygon fill="#63b8ff" stroke="#63b8ff" points="44.34,-196.73 40.61,-186.81 37.34,-196.89 44.34,-196.73"/>
</a>
</g>
</g>
<!-- Node19&#45;&gt;Node8 -->
<g id="edge23_Node000019_Node000008" class="edge">
<title>Node19&#45;&gt;Node8</title>
<g id="a_edge23_Node000019_Node000008"><a xlink:title=" ">
<path fill="none" stroke="#63b8ff" d="M49.02,-165.5C65.74,-147.53 103.83,-106.61 125.64,-83.19"/>
<polygon fill="#63b8ff" stroke="#63b8ff" points="128.09,-85.69 132.34,-75.98 122.96,-80.92 128.09,-85.69"/>
</a>
</g>
</g>
<!-- Node20 -->
<g id="Node000020" class="node">
<title>Node20</title>
<g id="a_Node000020"><a xlink:href="_checksum_8h.html" target="_top" xlink:title=" ">
<polygon fill="white" stroke="#666666" points="71.5,-129.75 0,-129.75 0,-110.5 71.5,-110.5 71.5,-129.75"/>
<text text-anchor="middle" x="35.75" y="-116.25" font-family="Helvetica,sans-Serif" font-size="10.00">Checksum.h</text>
</a>
</g>
</g>
<!-- Node19&#45;&gt;Node20 -->
<g id="edge24_Node000019_Node000020" class="edge">
<title>Node19&#45;&gt;Node20</title>
<g id="a_edge24_Node000019_Node000020"><a xlink:title=" ">
<path fill="none" stroke="#63b8ff" d="M39.92,-165.58C39.31,-158.99 38.43,-149.71 37.65,-141.32"/>
<polygon fill="#63b8ff" stroke="#63b8ff" points="41.15,-141.25 36.74,-131.62 34.19,-141.9 41.15,-141.25"/>
</a>
</g>
</g>
<!-- Node21 -->
<g id="Node000021" class="node">
<title>Node21</title>
<g id="a_Node000021"><a xlink:title=" ">
<polygon fill="#e0e0e0" stroke="#999999" points="156.15,-129.75 127.35,-129.75 127.35,-110.5 156.15,-110.5 156.15,-129.75"/>
<text text-anchor="middle" x="141.75" y="-116.25" font-family="Helvetica,sans-Serif" font-size="10.00">bit</text>
</a>
</g>
</g>
<!-- Node19&#45;&gt;Node21 -->
<g id="edge26_Node000019_Node000021" class="edge">
<title>Node19&#45;&gt;Node21</title>
<g id="a_edge26_Node000019_Node000021"><a xlink:title=" ">
<path fill="none" stroke="#63b8ff" d="M57.88,-165.34C74.16,-156.76 98.81,-143.76 117.18,-134.08"/>
<polygon fill="#63b8ff" stroke="#63b8ff" points="118.61,-137.28 125.82,-129.52 115.34,-131.09 118.61,-137.28"/>
</a>
</g>
</g>
<!-- Node20&#45;&gt;Node8 -->
<g id="edge25_Node000020_Node000008" class="edge">
<title>Node20&#45;&gt;Node8</title>
<g id="a_edge25_Node000020_Node000008"><a xlink:title=" ">
<path fill="none" stroke="#63b8ff" d="M53.73,-110.09C70.1,-101.87 94.54,-89.59 113.51,-80.06"/>
<polygon fill="#63b8ff" stroke="#63b8ff" points="114.96,-83.25 122.33,-75.63 111.82,-76.99 114.96,-83.25"/>
</a>
</g>
</g>
<!-- Node24&#45;&gt;Node6 -->
<g id="edge30_Node000024_Node000006" class="edge">
<title>Node24&#45;&gt;Node6</title>
<g id="a_edge30_Node000024_Node000006"><a xlink:title=" ">
<path fill="none" stroke="#63b8ff" d="M408.33,-220.59C395.63,-212.64 376.88,-200.89 361.89,-191.5"/>
<polygon fill="#63b8ff" stroke="#63b8ff" points="363.85,-188.6 353.52,-186.26 360.14,-194.53 363.85,-188.6"/>
</a>
</g>
</g>
<!-- Node24&#45;&gt;Node12 -->
<g id="edge31_Node000024_Node000012" class="edge">
<title>Node24&#45;&gt;Node12</title>
<g id="a_edge31_Node000024_Node000012"><a xlink:title=" ">
<path fill="none" stroke="#63b8ff" d="M394.59,-220.59C367.4,-211.87 326.01,-198.59 295.68,-188.86"/>
<polygon fill="#63b8ff" stroke="#63b8ff" points="297.08,-185.64 286.49,-185.91 294.94,-192.3 297.08,-185.64"/>
</a>
</g>
</g>
</g>
</svg>
