<?xml version="1.0" encoding="UTF-8" standalone="no"?>
<!DOCTYPE svg PUBLIC "-//W3C//DTD SVG 1.1//EN"
 "http://www.w3.org/Graphics/SVG/1.1/DTD/svg11.dtd">
<!-- Generated by graphviz version 10.0.1 (20240210.2158)
 -->
<!-- Title: /Users/hoff/Retro/virtualc64/Emulator/Components/SID/SIDTypes.h Pages: 1 -->
<svg width="537pt" height="483pt"
 viewBox="0.00 0.00 537.00 482.50" xmlns="http://www.w3.org/2000/svg" xmlns:xlink="http://www.w3.org/1999/xlink">
<g id="graph0" class="graph" transform="scale(1 1) rotate(0) translate(4 478.5)">
<title>/Users/hoff/Retro/virtualc64/Emulator/Components/SID/SIDTypes.h</title>
<!-- Node1 -->
<g id="Node000001" class="node">
<title>Node1</title>
<g id="a_Node000001"><a xlink:title=" ">
<polygon fill="#999999" stroke="#666666" points="331.75,-474.5 195,-474.5 195,-432.75 331.75,-432.75 331.75,-474.5"/>
<text text-anchor="start" x="203" y="-461" font-family="Helvetica,sans-Serif" font-size="10.00">/Users/hoff/Retro/virtualc64</text>
<text text-anchor="start" x="203" y="-449.75" font-family="Helvetica,sans-Serif" font-size="10.00">/Emulator/Components/SID</text>
<text text-anchor="middle" x="263.38" y="-438.5" font-family="Helvetica,sans-Serif" font-size="10.00">/SIDTypes.h</text>
</a>
</g>
</g>
<!-- Node2 -->
<g id="Node000002" class="node">
<title>Node2</title>
<g id="a_Node000002"><a xlink:href="_audio_port_8h_source.html" target="_top" xlink:title=" ">
<polygon fill="white" stroke="#666666" points="142.75,-396.75 0,-396.75 0,-355 142.75,-355 142.75,-396.75"/>
<text text-anchor="start" x="8" y="-383.25" font-family="Helvetica,sans-Serif" font-size="10.00">/Users/hoff/Retro/virtualc64</text>
<text text-anchor="start" x="8" y="-372" font-family="Helvetica,sans-Serif" font-size="10.00">/Emulator/Components/Ports</text>
<text text-anchor="middle" x="71.38" y="-360.75" font-family="Helvetica,sans-Serif" font-size="10.00">/AudioPort.h</text>
</a>
</g>
</g>
<!-- Node1&#45;&gt;Node2 -->
<g id="edge1_Node000001_Node000002" class="edge">
<title>Node1&#45;&gt;Node2</title>
<g id="a_edge1_Node000001_Node000002"><a xlink:title=" ">
<path fill="none" stroke="#63b8ff" d="M201.32,-428.14C176.01,-418.16 147.09,-406.75 122.97,-397.23"/>
<polygon fill="#63b8ff" stroke="#63b8ff" points="199.93,-431.36 210.51,-431.77 202.5,-424.84 199.93,-431.36"/>
</a>
</g>
</g>
<!-- Node5 -->
<g id="Node000005" class="node">
<title>Node5</title>
<g id="a_Node000005"><a xlink:href="_re_s_i_d_8h_source.html" target="_top" xlink:title=" ">
<polygon fill="white" stroke="#666666" points="331.75,-319 195,-319 195,-277.25 331.75,-277.25 331.75,-319"/>
<text text-anchor="start" x="203" y="-305.5" font-family="Helvetica,sans-Serif" font-size="10.00">/Users/hoff/Retro/virtualc64</text>
<text text-anchor="start" x="203" y="-294.25" font-family="Helvetica,sans-Serif" font-size="10.00">/Emulator/Components/SID</text>
<text text-anchor="middle" x="263.38" y="-283" font-family="Helvetica,sans-Serif" font-size="10.00">/ReSID.h</text>
</a>
</g>
</g>
<!-- Node1&#45;&gt;Node5 -->
<g id="edge9_Node000001_Node000005" class="edge">
<title>Node1&#45;&gt;Node5</title>
<g id="a_edge9_Node000001_Node000005"><a xlink:title=" ">
<path fill="none" stroke="#63b8ff" d="M263.38,-421.26C263.38,-390.71 263.38,-345.17 263.38,-319.2"/>
<polygon fill="#63b8ff" stroke="#63b8ff" points="259.88,-421.04 263.38,-431.04 266.88,-421.04 259.88,-421.04"/>
</a>
</g>
</g>
<!-- Node6 -->
<g id="Node000006" class="node">
<title>Node6</title>
<g id="a_Node000006"><a xlink:href="sid_8h_source.html" target="_top" xlink:title=" ">
<polygon fill="white" stroke="#666666" points="361,-241.25 195.75,-241.25 195.75,-210.75 361,-210.75 361,-241.25"/>
<text text-anchor="start" x="203.75" y="-227.75" font-family="Helvetica,sans-Serif" font-size="10.00">/Users/hoff/Retro/virtualc64</text>
<text text-anchor="middle" x="278.38" y="-216.5" font-family="Helvetica,sans-Serif" font-size="10.00">/Emulator/Components/SID/SID.h</text>
</a>
</g>
</g>
<!-- Node1&#45;&gt;Node6 -->
<g id="edge10_Node000001_Node000006" class="edge">
<title>Node1&#45;&gt;Node6</title>
<g id="a_edge10_Node000001_Node000006"><a xlink:title=" ">
<path fill="none" stroke="#63b8ff" d="M286.43,-423.21C305.1,-397.39 329.95,-357.99 340.38,-319 345.17,-301.07 348.36,-294 340.38,-277.25 333.16,-262.12 318.92,-250.06 305.9,-241.56"/>
<polygon fill="#63b8ff" stroke="#63b8ff" points="283.66,-421.07 280.52,-431.19 289.29,-425.23 283.66,-421.07"/>
</a>
</g>
</g>
<!-- Node7 -->
<g id="Node000007" class="node">
<title>Node7</title>
<g id="a_Node000007"><a xlink:href="_s_i_d_bridge_8h_source.html" target="_top" xlink:title=" ">
<polygon fill="white" stroke="#666666" points="235.75,-174.75 99,-174.75 99,-133 235.75,-133 235.75,-174.75"/>
<text text-anchor="start" x="107" y="-161.25" font-family="Helvetica,sans-Serif" font-size="10.00">/Users/hoff/Retro/virtualc64</text>
<text text-anchor="start" x="107" y="-150" font-family="Helvetica,sans-Serif" font-size="10.00">/Emulator/Components/SID</text>
<text text-anchor="middle" x="167.38" y="-138.75" font-family="Helvetica,sans-Serif" font-size="10.00">/SIDBridge.h</text>
</a>
</g>
</g>
<!-- Node1&#45;&gt;Node7 -->
<g id="edge11_Node000001_Node000007" class="edge">
<title>Node1&#45;&gt;Node7</title>
<g id="a_edge11_Node000001_Node000007"><a xlink:title=" ">
<path fill="none" stroke="#63b8ff" d="M241.76,-423.33C223.77,-397.31 199.11,-357.55 186.38,-319 169.91,-269.16 167.28,-206.71 167.11,-175.14"/>
<polygon fill="#63b8ff" stroke="#63b8ff" points="238.8,-425.2 247.42,-431.35 244.52,-421.16 238.8,-425.2"/>
</a>
</g>
</g>
<!-- Node8 -->
<g id="Node000008" class="node">
<title>Node8</title>
<g id="a_Node000008"><a xlink:href="_virtual_c64_types_8h.html" target="_top" xlink:title=" ">
<polygon fill="white" stroke="#666666" points="529,-391.12 387.75,-391.12 387.75,-360.62 529,-360.62 529,-391.12"/>
<text text-anchor="start" x="395.75" y="-377.62" font-family="Helvetica,sans-Serif" font-size="10.00">/Users/hoff/Retro/virtualc64</text>
<text text-anchor="middle" x="458.38" y="-366.38" font-family="Helvetica,sans-Serif" font-size="10.00">/Emulator/VirtualC64Types.h</text>
</a>
</g>
</g>
<!-- Node1&#45;&gt;Node8 -->
<g id="edge12_Node000001_Node000008" class="edge">
<title>Node1&#45;&gt;Node8</title>
<g id="a_edge12_Node000001_Node000008"><a xlink:title=" ">
<path fill="none" stroke="#63b8ff" d="M326.36,-428.16C357.4,-416.1 393.8,-401.96 420.51,-391.58"/>
<polygon fill="#63b8ff" stroke="#63b8ff" points="325.1,-424.89 317.04,-431.78 327.63,-431.42 325.1,-424.89"/>
</a>
</g>
</g>
<!-- Node3 -->
<g id="Node000003" class="node">
<title>Node3</title>
<g id="a_Node000003"><a xlink:href="_c64_8h_source.html" target="_top" xlink:title=" ">
<polygon fill="white" stroke="#666666" points="192.25,-97 46.5,-97 46.5,-66.5 192.25,-66.5 192.25,-97"/>
<text text-anchor="start" x="54.5" y="-83.5" font-family="Helvetica,sans-Serif" font-size="10.00">/Users/hoff/Retro/virtualc64</text>
<text text-anchor="middle" x="119.38" y="-72.25" font-family="Helvetica,sans-Serif" font-size="10.00">/Emulator/Components/C64.h</text>
</a>
</g>
</g>
<!-- Node2&#45;&gt;Node3 -->
<g id="edge2_Node000002_Node000003" class="edge">
<title>Node2&#45;&gt;Node3</title>
<g id="a_edge2_Node000002_Node000003"><a xlink:title=" ">
<path fill="none" stroke="#63b8ff" d="M69.49,-343.32C67.64,-296.34 67.81,-205.72 90.38,-133 94.38,-120.11 102.13,-106.95 108.62,-97.33"/>
<polygon fill="#63b8ff" stroke="#63b8ff" points="65.98,-343.22 69.93,-353.05 72.97,-342.9 65.98,-343.22"/>
</a>
</g>
</g>
<!-- Node2&#45;&gt;Node5 -->
<g id="edge4_Node000002_Node000005" class="edge">
<title>Node2&#45;&gt;Node5</title>
<g id="a_edge4_Node000002_Node000005"><a xlink:title=" ">
<path fill="none" stroke="#63b8ff" d="M133.43,-350.39C158.74,-340.41 187.66,-329 211.78,-319.48"/>
<polygon fill="#63b8ff" stroke="#63b8ff" points="132.25,-347.09 124.24,-354.02 134.82,-353.61 132.25,-347.09"/>
</a>
</g>
</g>
<!-- Node2&#45;&gt;Node7 -->
<g id="edge8_Node000002_Node000007" class="edge">
<title>Node2&#45;&gt;Node7</title>
<g id="a_edge8_Node000002_Node000007"><a xlink:title=" ">
<path fill="none" stroke="#63b8ff" d="M84.8,-344.11C104.75,-298.4 141.66,-213.81 158.54,-175.13"/>
<polygon fill="#63b8ff" stroke="#63b8ff" points="81.63,-342.62 80.84,-353.19 88.05,-345.42 81.63,-342.62"/>
</a>
</g>
</g>
<!-- Node4 -->
<g id="Node000004" class="node">
<title>Node4</title>
<g id="a_Node000004"><a xlink:href="_emulator_8h_source.html" target="_top" xlink:title=" ">
<polygon fill="white" stroke="#666666" points="202.38,-30.5 36.38,-30.5 36.38,0 202.38,0 202.38,-30.5"/>
<text text-anchor="start" x="44.38" y="-17" font-family="Helvetica,sans-Serif" font-size="10.00">/Users/hoff/Retro/virtualc64</text>
<text text-anchor="middle" x="119.38" y="-5.75" font-family="Helvetica,sans-Serif" font-size="10.00">/Emulator/Components/Emulator.h</text>
</a>
</g>
</g>
<!-- Node3&#45;&gt;Node4 -->
<g id="edge3_Node000003_Node000004" class="edge">
<title>Node3&#45;&gt;Node4</title>
<g id="a_edge3_Node000003_Node000004"><a xlink:title=" ">
<path fill="none" stroke="#63b8ff" d="M119.38,-54.81C119.38,-46.64 119.38,-37.91 119.38,-30.83"/>
<polygon fill="#63b8ff" stroke="#63b8ff" points="115.88,-54.6 119.38,-64.6 122.88,-54.6 115.88,-54.6"/>
</a>
</g>
</g>
<!-- Node5&#45;&gt;Node6 -->
<g id="edge5_Node000005_Node000006" class="edge">
<title>Node5&#45;&gt;Node6</title>
<g id="a_edge5_Node000005_Node000006"><a xlink:title=" ">
<path fill="none" stroke="#63b8ff" d="M270.1,-265.67C271.91,-257.22 273.78,-248.48 275.28,-241.45"/>
<polygon fill="#63b8ff" stroke="#63b8ff" points="266.7,-264.85 268.03,-275.36 273.54,-266.32 266.7,-264.85"/>
</a>
</g>
</g>
<!-- Node6&#45;&gt;Node7 -->
<g id="edge6_Node000006_Node000007" class="edge">
<title>Node6&#45;&gt;Node7</title>
<g id="a_edge6_Node000006_Node000007"><a xlink:title=" ">
<path fill="none" stroke="#63b8ff" d="M245.5,-204.23C230.95,-195.04 213.91,-184.27 199.45,-175.14"/>
<polygon fill="#63b8ff" stroke="#63b8ff" points="243.5,-207.11 253.83,-209.49 247.24,-201.19 243.5,-207.11"/>
</a>
</g>
</g>
<!-- Node7&#45;&gt;Node3 -->
<g id="edge7_Node000007_Node000003" class="edge">
<title>Node7&#45;&gt;Node3</title>
<g id="a_edge7_Node000007_Node000003"><a xlink:title=" ">
<path fill="none" stroke="#63b8ff" d="M147.03,-123.15C140.88,-114.17 134.4,-104.71 129.27,-97.2"/>
<polygon fill="#63b8ff" stroke="#63b8ff" points="144.1,-125.07 152.64,-131.34 149.88,-121.11 144.1,-125.07"/>
</a>
</g>
</g>
<!-- Node9 -->
<g id="Node000009" class="node">
<title>Node9</title>
<g id="a_Node000009"><a xlink:href="_virtual_c64_8h.html" target="_top" xlink:title=" ">
<polygon fill="white" stroke="#666666" points="526.75,-313.38 390,-313.38 390,-282.88 526.75,-282.88 526.75,-313.38"/>
<text text-anchor="start" x="398" y="-299.88" font-family="Helvetica,sans-Serif" font-size="10.00">/Users/hoff/Retro/virtualc64</text>
<text text-anchor="middle" x="458.38" y="-288.62" font-family="Helvetica,sans-Serif" font-size="10.00">/Emulator/VirtualC64.h</text>
</a>
</g>
</g>
<!-- Node8&#45;&gt;Node9 -->
<g id="edge13_Node000008_Node000009" class="edge">
<title>Node8&#45;&gt;Node9</title>
<g id="a_edge13_Node000008_Node000009"><a xlink:title=" ">
<path fill="none" stroke="#63b8ff" d="M458.38,-348.85C458.38,-337.09 458.38,-323.63 458.38,-313.69"/>
<polygon fill="#63b8ff" stroke="#63b8ff" points="454.88,-348.76 458.38,-358.76 461.88,-348.76 454.88,-348.76"/>
</a>
</g>
</g>
<!-- Node10 -->
<g id="Node000010" class="node">
<title>Node10</title>
<g id="a_Node000010"><a xlink:href="_headless_8h_source.html" target="_top" xlink:title=" ">
<polygon fill="white" stroke="#666666" points="526.75,-241.25 390,-241.25 390,-210.75 526.75,-210.75 526.75,-241.25"/>
<text text-anchor="start" x="398" y="-227.75" font-family="Helvetica,sans-Serif" font-size="10.00">/Users/hoff/Retro/virtualc64</text>
<text text-anchor="middle" x="458.38" y="-216.5" font-family="Helvetica,sans-Serif" font-size="10.00">/Emulator/Headless.h</text>
</a>
</g>
</g>
<!-- Node9&#45;&gt;Node10 -->
<g id="edge14_Node000009_Node000010" class="edge">
<title>Node9&#45;&gt;Node10</title>
<g id="a_edge14_Node000009_Node000010"><a xlink:title=" ">
<path fill="none" stroke="#63b8ff" d="M458.38,-271.15C458.38,-261.14 458.38,-250.06 458.38,-241.51"/>
<polygon fill="#63b8ff" stroke="#63b8ff" points="454.88,-271.08 458.38,-281.08 461.88,-271.08 454.88,-271.08"/>
</a>
</g>
</g>
<!-- Node11 -->
<g id="Node000011" class="node">
<title>Node11</title>
<g id="a_Node000011"><a xlink:href="_headless_8cpp.html" target="_top" xlink:title=" ">
<polygon fill="white" stroke="#666666" points="526.75,-169.12 390,-169.12 390,-138.62 526.75,-138.62 526.75,-169.12"/>
<text text-anchor="start" x="398" y="-155.62" font-family="Helvetica,sans-Serif" font-size="10.00">/Users/hoff/Retro/virtualc64</text>
<text text-anchor="middle" x="458.38" y="-144.38" font-family="Helvetica,sans-Serif" font-size="10.00">/Emulator/Headless.cpp</text>
</a>
</g>
</g>
<!-- Node10&#45;&gt;Node11 -->
<g id="edge15_Node000010_Node000011" class="edge">
<title>Node10&#45;&gt;Node11</title>
<g id="a_edge15_Node000010_Node000011"><a xlink:title=" ">
<path fill="none" stroke="#63b8ff" d="M458.38,-199.02C458.38,-189.01 458.38,-177.94 458.38,-169.39"/>
<polygon fill="#63b8ff" stroke="#63b8ff" points="454.88,-198.96 458.38,-208.96 461.88,-198.96 454.88,-198.96"/>
</a>
</g>
</g>
</g>
</svg>
