<?xml version="1.0" encoding="UTF-8" standalone="no"?>
<!DOCTYPE svg PUBLIC "-//W3C//DTD SVG 1.1//EN"
 "http://www.w3.org/Graphics/SVG/1.1/DTD/svg11.dtd">
<!-- Generated by graphviz version 10.0.1 (20240210.2158)
 -->
<!-- Title: /Users/hoff/Retro/virtualc64/Emulator/Components/SID/SIDStreams.h Pages: 1 -->
<svg width="446pt" height="326pt"
 viewBox="0.00 0.00 446.12 326.00" xmlns="http://www.w3.org/2000/svg" xmlns:xlink="http://www.w3.org/1999/xlink">
<g id="graph0" class="graph" transform="scale(1 1) rotate(0) translate(4 322)">
<title>/Users/hoff/Retro/virtualc64/Emulator/Components/SID/SIDStreams.h</title>
<!-- Node1 -->
<g id="Node000001" class="node">
<title>Node1</title>
<g id="a_Node000001"><a xlink:title=" ">
<polygon fill="#999999" stroke="#666666" points="287.25,-318 150.5,-318 150.5,-276.25 287.25,-276.25 287.25,-318"/>
<text text-anchor="start" x="158.5" y="-304.5" font-family="Helvetica,sans-Serif" font-size="10.00">/Users/hoff/Retro/virtualc64</text>
<text text-anchor="start" x="158.5" y="-293.25" font-family="Helvetica,sans-Serif" font-size="10.00">/Emulator/Components/SID</text>
<text text-anchor="middle" x="218.88" y="-282" font-family="Helvetica,sans-Serif" font-size="10.00">/SIDStreams.h</text>
</a>
</g>
</g>
<!-- Node2 -->
<g id="Node000002" class="node">
<title>Node2</title>
<g id="a_Node000002"><a xlink:href="_concurrency_8h.html" target="_top" xlink:title=" ">
<polygon fill="white" stroke="#666666" points="158,-240.25 79.75,-240.25 79.75,-221 158,-221 158,-240.25"/>
<text text-anchor="middle" x="118.88" y="-226.75" font-family="Helvetica,sans-Serif" font-size="10.00">Concurrency.h</text>
</a>
</g>
</g>
<!-- Node1&#45;&gt;Node2 -->
<g id="edge1_Node000001_Node000002" class="edge">
<title>Node1&#45;&gt;Node2</title>
<g id="a_edge1_Node000001_Node000002"><a xlink:title=" ">
<path fill="none" stroke="#63b8ff" d="M187.51,-275.89C172.9,-266.47 155.82,-255.46 142.35,-246.77"/>
<polygon fill="#63b8ff" stroke="#63b8ff" points="144.43,-243.94 134.13,-241.46 140.64,-249.83 144.43,-243.94"/>
</a>
</g>
</g>
<!-- Node11 -->
<g id="Node000011" class="node">
<title>Node11</title>
<g id="a_Node000011"><a xlink:href="_ring_buffer_8h.html" target="_top" xlink:title=" ">
<polygon fill="white" stroke="#666666" points="253.88,-240.25 183.88,-240.25 183.88,-221 253.88,-221 253.88,-240.25"/>
<text text-anchor="middle" x="218.88" y="-226.75" font-family="Helvetica,sans-Serif" font-size="10.00">RingBuffer.h</text>
</a>
</g>
</g>
<!-- Node1&#45;&gt;Node11 -->
<g id="edge10_Node000001_Node000011" class="edge">
<title>Node1&#45;&gt;Node11</title>
<g id="a_edge10_Node000001_Node000011"><a xlink:title=" ">
<path fill="none" stroke="#63b8ff" d="M218.88,-276.07C218.88,-268.4 218.88,-259.64 218.88,-251.95"/>
<polygon fill="#63b8ff" stroke="#63b8ff" points="222.38,-252.21 218.88,-242.21 215.38,-252.21 222.38,-252.21"/>
</a>
</g>
</g>
<!-- Node13 -->
<g id="Node000013" class="node">
<title>Node13</title>
<g id="a_Node000013"><a xlink:href="_volume_8h.html" target="_top" xlink:title=" ">
<polygon fill="white" stroke="#666666" points="345.5,-240.25 288.25,-240.25 288.25,-221 345.5,-221 345.5,-240.25"/>
<text text-anchor="middle" x="316.88" y="-226.75" font-family="Helvetica,sans-Serif" font-size="10.00">Volume.h</text>
</a>
</g>
</g>
<!-- Node1&#45;&gt;Node13 -->
<g id="edge13_Node000001_Node000013" class="edge">
<title>Node1&#45;&gt;Node13</title>
<g id="a_edge13_Node000001_Node000013"><a xlink:title=" ">
<path fill="none" stroke="#63b8ff" d="M249.61,-275.89C263.93,-266.47 280.67,-255.46 293.87,-246.77"/>
<polygon fill="#63b8ff" stroke="#63b8ff" points="295.48,-249.9 301.91,-241.48 291.63,-244.05 295.48,-249.9"/>
</a>
</g>
</g>
<!-- Node3 -->
<g id="Node000003" class="node">
<title>Node3</title>
<g id="a_Node000003"><a xlink:href="_chrono_8h.html" target="_top" xlink:title=" ">
<polygon fill="white" stroke="#666666" points="55.75,-185 0,-185 0,-165.75 55.75,-165.75 55.75,-185"/>
<text text-anchor="middle" x="27.88" y="-171.5" font-family="Helvetica,sans-Serif" font-size="10.00">Chrono.h</text>
</a>
</g>
</g>
<!-- Node2&#45;&gt;Node3 -->
<g id="edge2_Node000002_Node000003" class="edge">
<title>Node2&#45;&gt;Node3</title>
<g id="a_edge2_Node000002_Node000003"><a xlink:title=" ">
<path fill="none" stroke="#63b8ff" d="M103.44,-220.59C89.71,-212.56 69.38,-200.66 53.26,-191.23"/>
<polygon fill="#63b8ff" stroke="#63b8ff" points="55.09,-188.25 44.69,-186.22 51.56,-194.29 55.09,-188.25"/>
</a>
</g>
</g>
<!-- Node9 -->
<g id="Node000009" class="node">
<title>Node9</title>
<g id="a_Node000009"><a xlink:title=" ">
<polygon fill="#e0e0e0" stroke="#999999" points="116.38,-185 73.38,-185 73.38,-165.75 116.38,-165.75 116.38,-185"/>
<text text-anchor="middle" x="94.88" y="-171.5" font-family="Helvetica,sans-Serif" font-size="10.00">thread</text>
</a>
</g>
</g>
<!-- Node2&#45;&gt;Node9 -->
<g id="edge8_Node000002_Node000009" class="edge">
<title>Node2&#45;&gt;Node9</title>
<g id="a_edge8_Node000002_Node000009"><a xlink:title=" ">
<path fill="none" stroke="#63b8ff" d="M114.91,-220.83C111.84,-214.01 107.46,-204.31 103.59,-195.7"/>
<polygon fill="#63b8ff" stroke="#63b8ff" points="106.85,-194.42 99.55,-186.74 100.46,-197.29 106.85,-194.42"/>
</a>
</g>
</g>
<!-- Node10 -->
<g id="Node000010" class="node">
<title>Node10</title>
<g id="a_Node000010"><a xlink:title=" ">
<polygon fill="#e0e0e0" stroke="#999999" points="175.25,-185 134.5,-185 134.5,-165.75 175.25,-165.75 175.25,-185"/>
<text text-anchor="middle" x="154.88" y="-171.5" font-family="Helvetica,sans-Serif" font-size="10.00">future</text>
</a>
</g>
</g>
<!-- Node2&#45;&gt;Node10 -->
<g id="edge9_Node000002_Node000010" class="edge">
<title>Node2&#45;&gt;Node10</title>
<g id="a_edge9_Node000002_Node000010"><a xlink:title=" ">
<path fill="none" stroke="#63b8ff" d="M124.82,-220.83C129.59,-213.78 136.44,-203.65 142.4,-194.83"/>
<polygon fill="#63b8ff" stroke="#63b8ff" points="145.25,-196.86 147.95,-186.61 139.45,-192.94 145.25,-196.86"/>
</a>
</g>
</g>
<!-- Node4 -->
<g id="Node000004" class="node">
<title>Node4</title>
<g id="a_Node000004"><a xlink:href="_types_8h.html" target="_top" xlink:title=" ">
<polygon fill="white" stroke="#666666" points="228.12,-74.5 177.62,-74.5 177.62,-55.25 228.12,-55.25 228.12,-74.5"/>
<text text-anchor="middle" x="202.88" y="-61" font-family="Helvetica,sans-Serif" font-size="10.00">Types.h</text>
</a>
</g>
</g>
<!-- Node3&#45;&gt;Node4 -->
<g id="edge3_Node000003_Node000004" class="edge">
<title>Node3&#45;&gt;Node4</title>
<g id="a_edge3_Node000003_Node000004"><a xlink:title=" ">
<path fill="none" stroke="#63b8ff" d="M27.95,-165.61C28.55,-151.92 31.74,-125.47 46.88,-110.5 78.63,-79.08 130.9,-69.46 166.09,-66.69"/>
<polygon fill="#63b8ff" stroke="#63b8ff" points="166.04,-70.2 175.8,-66.09 165.6,-63.22 166.04,-70.2"/>
</a>
</g>
</g>
<!-- Node8 -->
<g id="Node000008" class="node">
<title>Node8</title>
<g id="a_Node000008"><a xlink:title=" ">
<polygon fill="#e0e0e0" stroke="#999999" points="95.88,-129.75 55.88,-129.75 55.88,-110.5 95.88,-110.5 95.88,-129.75"/>
<text text-anchor="middle" x="75.88" y="-116.25" font-family="Helvetica,sans-Serif" font-size="10.00">ctime</text>
</a>
</g>
</g>
<!-- Node3&#45;&gt;Node8 -->
<g id="edge7_Node000003_Node000008" class="edge">
<title>Node3&#45;&gt;Node8</title>
<g id="a_edge7_Node000003_Node000008"><a xlink:title=" ">
<path fill="none" stroke="#63b8ff" d="M35.8,-165.58C42.43,-158.23 52.09,-147.51 60.26,-138.44"/>
<polygon fill="#63b8ff" stroke="#63b8ff" points="62.67,-141 66.76,-131.23 57.47,-136.32 62.67,-141"/>
</a>
</g>
</g>
<!-- Node5 -->
<g id="Node000005" class="node">
<title>Node5</title>
<g id="a_Node000005"><a xlink:title=" ">
<polygon fill="#e0e0e0" stroke="#999999" points="160.38,-19.25 93.38,-19.25 93.38,0 160.38,0 160.38,-19.25"/>
<text text-anchor="middle" x="126.88" y="-5.75" font-family="Helvetica,sans-Serif" font-size="10.00">sys/types.h</text>
</a>
</g>
</g>
<!-- Node4&#45;&gt;Node5 -->
<g id="edge4_Node000004_Node000005" class="edge">
<title>Node4&#45;&gt;Node5</title>
<g id="a_edge4_Node000004_Node000005"><a xlink:title=" ">
<path fill="none" stroke="#63b8ff" d="M189.98,-54.84C178.85,-47.04 162.5,-35.59 149.24,-26.29"/>
<polygon fill="#63b8ff" stroke="#63b8ff" points="151.27,-23.44 141.07,-20.57 147.25,-29.18 151.27,-23.44"/>
</a>
</g>
</g>
<!-- Node6 -->
<g id="Node000006" class="node">
<title>Node6</title>
<g id="a_Node000006"><a xlink:title=" ">
<polygon fill="#e0e0e0" stroke="#999999" points="227,-19.25 178.75,-19.25 178.75,0 227,0 227,-19.25"/>
<text text-anchor="middle" x="202.88" y="-5.75" font-family="Helvetica,sans-Serif" font-size="10.00">stdint.h</text>
</a>
</g>
</g>
<!-- Node4&#45;&gt;Node6 -->
<g id="edge5_Node000004_Node000006" class="edge">
<title>Node4&#45;&gt;Node6</title>
<g id="a_edge5_Node000004_Node000006"><a xlink:title=" ">
<path fill="none" stroke="#63b8ff" d="M202.88,-55.08C202.88,-48.57 202.88,-39.42 202.88,-31.12"/>
<polygon fill="#63b8ff" stroke="#63b8ff" points="206.38,-31.12 202.88,-21.12 199.38,-31.12 206.38,-31.12"/>
</a>
</g>
</g>
<!-- Node7 -->
<g id="Node000007" class="node">
<title>Node7</title>
<g id="a_Node000007"><a xlink:title=" ">
<polygon fill="#e0e0e0" stroke="#999999" points="300.75,-19.25 245,-19.25 245,0 300.75,0 300.75,-19.25"/>
<text text-anchor="middle" x="272.88" y="-5.75" font-family="Helvetica,sans-Serif" font-size="10.00">stdbool.h</text>
</a>
</g>
</g>
<!-- Node4&#45;&gt;Node7 -->
<g id="edge6_Node000004_Node000007" class="edge">
<title>Node4&#45;&gt;Node7</title>
<g id="a_edge6_Node000004_Node000007"><a xlink:title=" ">
<path fill="none" stroke="#63b8ff" d="M214.75,-54.84C224.97,-47.07 239.95,-35.67 252.14,-26.4"/>
<polygon fill="#63b8ff" stroke="#63b8ff" points="254.13,-29.28 259.97,-20.44 249.89,-23.71 254.13,-29.28"/>
</a>
</g>
</g>
<!-- Node11&#45;&gt;Node4 -->
<g id="edge11_Node000011_Node000004" class="edge">
<title>Node11&#45;&gt;Node4</title>
<g id="a_edge11_Node000011_Node000004"><a xlink:title=" ">
<path fill="none" stroke="#63b8ff" d="M218.01,-220.82C215.54,-195.5 208.36,-122 204.85,-86.09"/>
<polygon fill="#63b8ff" stroke="#63b8ff" points="208.34,-85.84 203.89,-76.23 201.38,-86.52 208.34,-85.84"/>
</a>
</g>
</g>
<!-- Node12 -->
<g id="Node000012" class="node">
<title>Node12</title>
<g id="a_Node000012"><a xlink:title=" ">
<polygon fill="#e0e0e0" stroke="#999999" points="270.5,-185 231.25,-185 231.25,-165.75 270.5,-165.75 270.5,-185"/>
<text text-anchor="middle" x="250.88" y="-171.5" font-family="Helvetica,sans-Serif" font-size="10.00">utility</text>
</a>
</g>
</g>
<!-- Node11&#45;&gt;Node12 -->
<g id="edge12_Node000011_Node000012" class="edge">
<title>Node11&#45;&gt;Node12</title>
<g id="a_edge12_Node000011_Node000012"><a xlink:title=" ">
<path fill="none" stroke="#63b8ff" d="M224.16,-220.83C228.35,-213.86 234.35,-203.87 239.61,-195.12"/>
<polygon fill="#63b8ff" stroke="#63b8ff" points="242.55,-197.03 244.7,-186.66 236.55,-193.43 242.55,-197.03"/>
</a>
</g>
</g>
<!-- Node14 -->
<g id="Node000014" class="node">
<title>Node14</title>
<g id="a_Node000014"><a xlink:href="_aliases_8h.html" target="_top" xlink:title=" ">
<polygon fill="white" stroke="#666666" points="345.12,-185 288.62,-185 288.62,-165.75 345.12,-165.75 345.12,-185"/>
<text text-anchor="middle" x="316.88" y="-171.5" font-family="Helvetica,sans-Serif" font-size="10.00">Aliases.h</text>
</a>
</g>
</g>
<!-- Node13&#45;&gt;Node14 -->
<g id="edge14_Node000013_Node000014" class="edge">
<title>Node13&#45;&gt;Node14</title>
<g id="a_edge14_Node000013_Node000014"><a xlink:title=" ">
<path fill="none" stroke="#63b8ff" d="M316.88,-220.83C316.88,-214.32 316.88,-205.17 316.88,-196.87"/>
<polygon fill="#63b8ff" stroke="#63b8ff" points="320.38,-196.87 316.88,-186.87 313.38,-196.87 320.38,-196.87"/>
</a>
</g>
</g>
<!-- Node16 -->
<g id="Node000016" class="node">
<title>Node16</title>
<g id="a_Node000016"><a xlink:href="_serializable_8h.html" target="_top" xlink:title=" ">
<polygon fill="white" stroke="#666666" points="438.12,-185 363.62,-185 363.62,-165.75 438.12,-165.75 438.12,-185"/>
<text text-anchor="middle" x="400.88" y="-171.5" font-family="Helvetica,sans-Serif" font-size="10.00">Serializable.h</text>
</a>
</g>
</g>
<!-- Node13&#45;&gt;Node16 -->
<g id="edge17_Node000013_Node000016" class="edge">
<title>Node13&#45;&gt;Node16</title>
<g id="a_edge17_Node000013_Node000016"><a xlink:title=" ">
<path fill="none" stroke="#63b8ff" d="M331.12,-220.59C343.67,-212.64 362.21,-200.89 377.02,-191.5"/>
<polygon fill="#63b8ff" stroke="#63b8ff" points="378.71,-194.57 385.28,-186.26 374.96,-188.66 378.71,-194.57"/>
</a>
</g>
</g>
<!-- Node15 -->
<g id="Node000015" class="node">
<title>Node15</title>
<g id="a_Node000015"><a xlink:href="_macros_8h.html" target="_top" xlink:title=" ">
<polygon fill="white" stroke="#666666" points="316.12,-129.75 259.62,-129.75 259.62,-110.5 316.12,-110.5 316.12,-129.75"/>
<text text-anchor="middle" x="287.88" y="-116.25" font-family="Helvetica,sans-Serif" font-size="10.00">Macros.h</text>
</a>
</g>
</g>
<!-- Node14&#45;&gt;Node15 -->
<g id="edge15_Node000014_Node000015" class="edge">
<title>Node14&#45;&gt;Node15</title>
<g id="a_edge15_Node000014_Node000015"><a xlink:title=" ">
<path fill="none" stroke="#63b8ff" d="M312.09,-165.58C308.33,-158.69 302.97,-148.84 298.24,-140.16"/>
<polygon fill="#63b8ff" stroke="#63b8ff" points="301.35,-138.55 293.49,-131.44 295.2,-141.89 301.35,-138.55"/>
</a>
</g>
</g>
<!-- Node15&#45;&gt;Node4 -->
<g id="edge16_Node000015_Node000004" class="edge">
<title>Node15&#45;&gt;Node4</title>
<g id="a_edge16_Node000015_Node000004"><a xlink:title=" ">
<path fill="none" stroke="#63b8ff" d="M273.46,-110.09C260.76,-102.14 242,-90.39 227.02,-81"/>
<polygon fill="#63b8ff" stroke="#63b8ff" points="228.98,-78.1 218.65,-75.76 225.26,-84.03 228.98,-78.1"/>
</a>
</g>
</g>
</g>
</svg>
