<?xml version="1.0" encoding="UTF-8" standalone="no"?>
<!DOCTYPE svg PUBLIC "-//W3C//DTD SVG 1.1//EN"
 "http://www.w3.org/Graphics/SVG/1.1/DTD/svg11.dtd">
<!-- Generated by graphviz version 10.0.1 (20240210.2158)
 -->
<!-- Title: /Users/hoff/Retro/virtualc64/Emulator/Components/SID/SIDTypes.h Pages: 1 -->
<svg width="520pt" height="616pt"
 viewBox="0.00 0.00 519.50 615.50" xmlns="http://www.w3.org/2000/svg" xmlns:xlink="http://www.w3.org/1999/xlink">
<g id="graph0" class="graph" transform="scale(1 1) rotate(0) translate(4 611.5)">
<title>/Users/hoff/Retro/virtualc64/Emulator/Components/SID/SIDTypes.h</title>
<!-- Node1 -->
<g id="Node000001" class="node">
<title>Node1</title>
<g id="a_Node000001"><a xlink:title=" ">
<polygon fill="#999999" stroke="#666666" points="256.25,-607.5 119.5,-607.5 119.5,-565.75 256.25,-565.75 256.25,-607.5"/>
<text text-anchor="start" x="127.5" y="-594" font-family="Helvetica,sans-Serif" font-size="10.00">/Users/hoff/Retro/virtualc64</text>
<text text-anchor="start" x="127.5" y="-582.75" font-family="Helvetica,sans-Serif" font-size="10.00">/Emulator/Components/SID</text>
<text text-anchor="middle" x="187.88" y="-571.5" font-family="Helvetica,sans-Serif" font-size="10.00">/SIDTypes.h</text>
</a>
</g>
</g>
<!-- Node2 -->
<g id="Node000002" class="node">
<title>Node2</title>
<g id="a_Node000002"><a xlink:href="_muxer_8h_source.html" target="_top" xlink:title=" ">
<polygon fill="white" stroke="#666666" points="256.25,-307.75 119.5,-307.75 119.5,-266 256.25,-266 256.25,-307.75"/>
<text text-anchor="start" x="127.5" y="-294.25" font-family="Helvetica,sans-Serif" font-size="10.00">/Users/hoff/Retro/virtualc64</text>
<text text-anchor="start" x="127.5" y="-283" font-family="Helvetica,sans-Serif" font-size="10.00">/Emulator/Components/SID</text>
<text text-anchor="middle" x="187.88" y="-271.75" font-family="Helvetica,sans-Serif" font-size="10.00">/Muxer.h</text>
</a>
</g>
</g>
<!-- Node1&#45;&gt;Node2 -->
<g id="edge1_Node000001_Node000002" class="edge">
<title>Node1&#45;&gt;Node2</title>
<g id="a_edge1_Node000001_Node000002"><a xlink:title=" ">
<path fill="none" stroke="#63b8ff" d="M108.13,-580.24C73.64,-573.48 36.33,-559.22 14.88,-529.75 -29.61,-468.63 36.69,-405 95.88,-343.75 109.77,-329.37 128.12,-317.25 144.78,-308.01"/>
<polygon fill="#63b8ff" stroke="#63b8ff" points="107.26,-583.64 117.72,-581.92 108.47,-576.75 107.26,-583.64"/>
</a>
</g>
</g>
<!-- Node7 -->
<g id="Node000007" class="node">
<title>Node7</title>
<g id="a_Node000007"><a xlink:href="_re_s_i_d_8h_source.html" target="_top" xlink:title=" ">
<polygon fill="white" stroke="#666666" points="160.25,-529.75 23.5,-529.75 23.5,-488 160.25,-488 160.25,-529.75"/>
<text text-anchor="start" x="31.5" y="-516.25" font-family="Helvetica,sans-Serif" font-size="10.00">/Users/hoff/Retro/virtualc64</text>
<text text-anchor="start" x="31.5" y="-505" font-family="Helvetica,sans-Serif" font-size="10.00">/Emulator/Components/SID</text>
<text text-anchor="middle" x="91.88" y="-493.75" font-family="Helvetica,sans-Serif" font-size="10.00">/ReSID.h</text>
</a>
</g>
</g>
<!-- Node1&#45;&gt;Node7 -->
<g id="edge6_Node000001_Node000007" class="edge">
<title>Node1&#45;&gt;Node7</title>
<g id="a_edge6_Node000001_Node000007"><a xlink:title=" ">
<path fill="none" stroke="#63b8ff" d="M153.42,-558.44C141.63,-549.14 128.66,-538.9 117.67,-530.23"/>
<polygon fill="#63b8ff" stroke="#63b8ff" points="150.94,-560.94 160.96,-564.39 155.28,-555.45 150.94,-560.94"/>
</a>
</g>
</g>
<!-- Node8 -->
<g id="Node000008" class="node">
<title>Node8</title>
<g id="a_Node000008"><a xlink:href="sid_8h_source.html" target="_top" xlink:title=" ">
<polygon fill="white" stroke="#666666" points="270.5,-374.25 105.25,-374.25 105.25,-343.75 270.5,-343.75 270.5,-374.25"/>
<text text-anchor="start" x="113.25" y="-360.75" font-family="Helvetica,sans-Serif" font-size="10.00">/Users/hoff/Retro/virtualc64</text>
<text text-anchor="middle" x="187.88" y="-349.5" font-family="Helvetica,sans-Serif" font-size="10.00">/Emulator/Components/SID/SID.h</text>
</a>
</g>
</g>
<!-- Node1&#45;&gt;Node8 -->
<g id="edge9_Node000001_Node000008" class="edge">
<title>Node1&#45;&gt;Node8</title>
<g id="a_edge9_Node000001_Node000008"><a xlink:title=" ">
<path fill="none" stroke="#63b8ff" d="M187.88,-554.34C187.88,-504.9 187.88,-410.59 187.88,-374.52"/>
<polygon fill="#63b8ff" stroke="#63b8ff" points="184.38,-554.09 187.88,-564.09 191.38,-554.09 184.38,-554.09"/>
</a>
</g>
</g>
<!-- Node9 -->
<g id="Node000009" class="node">
<title>Node9</title>
<g id="a_Node000009"><a xlink:href="_fast_voice_8h_source.html" target="_top" xlink:title=" ">
<polygon fill="white" stroke="#666666" points="352.25,-529.75 215.5,-529.75 215.5,-488 352.25,-488 352.25,-529.75"/>
<text text-anchor="start" x="223.5" y="-516.25" font-family="Helvetica,sans-Serif" font-size="10.00">/Users/hoff/Retro/virtualc64</text>
<text text-anchor="start" x="223.5" y="-505" font-family="Helvetica,sans-Serif" font-size="10.00">/Emulator/Components/SID</text>
<text text-anchor="middle" x="283.88" y="-493.75" font-family="Helvetica,sans-Serif" font-size="10.00">/fastsid/FastVoice.h</text>
</a>
</g>
</g>
<!-- Node1&#45;&gt;Node9 -->
<g id="edge10_Node000001_Node000009" class="edge">
<title>Node1&#45;&gt;Node9</title>
<g id="a_edge10_Node000001_Node000009"><a xlink:title=" ">
<path fill="none" stroke="#63b8ff" d="M222.33,-558.44C234.12,-549.14 247.1,-538.9 258.08,-530.23"/>
<polygon fill="#63b8ff" stroke="#63b8ff" points="220.47,-555.45 214.79,-564.39 224.81,-560.94 220.47,-555.45"/>
</a>
</g>
</g>
<!-- Node11 -->
<g id="Node000011" class="node">
<title>Node11</title>
<g id="a_Node000011"><a xlink:href="_virtual_c64_types_8h.html" target="_top" xlink:title=" ">
<polygon fill="white" stroke="#666666" points="511.5,-446.38 370.25,-446.38 370.25,-415.88 511.5,-415.88 511.5,-446.38"/>
<text text-anchor="start" x="378.25" y="-432.88" font-family="Helvetica,sans-Serif" font-size="10.00">/Users/hoff/Retro/virtualc64</text>
<text text-anchor="middle" x="440.88" y="-421.62" font-family="Helvetica,sans-Serif" font-size="10.00">/Emulator/VirtualC64Types.h</text>
</a>
</g>
</g>
<!-- Node1&#45;&gt;Node11 -->
<g id="edge13_Node000001_Node000011" class="edge">
<title>Node1&#45;&gt;Node11</title>
<g id="a_edge13_Node000001_Node000011"><a xlink:title=" ">
<path fill="none" stroke="#63b8ff" d="M267.2,-570.18C298.24,-561.63 333,-548.75 360.88,-529.75 393.65,-507.41 420.07,-467.86 432.74,-446.6"/>
<polygon fill="#63b8ff" stroke="#63b8ff" points="266.64,-566.71 257.86,-572.64 268.43,-573.48 266.64,-566.71"/>
</a>
</g>
</g>
<!-- Node3 -->
<g id="Node000003" class="node">
<title>Node3</title>
<g id="a_Node000003"><a xlink:href="_c64_8h_source.html" target="_top" xlink:title=" ">
<polygon fill="white" stroke="#666666" points="278.75,-230 133,-230 133,-199.5 278.75,-199.5 278.75,-230"/>
<text text-anchor="start" x="141" y="-216.5" font-family="Helvetica,sans-Serif" font-size="10.00">/Users/hoff/Retro/virtualc64</text>
<text text-anchor="middle" x="205.88" y="-205.25" font-family="Helvetica,sans-Serif" font-size="10.00">/Emulator/Components/C64.h</text>
</a>
</g>
</g>
<!-- Node2&#45;&gt;Node3 -->
<g id="edge2_Node000002_Node000003" class="edge">
<title>Node2&#45;&gt;Node3</title>
<g id="a_edge2_Node000002_Node000003"><a xlink:title=" ">
<path fill="none" stroke="#63b8ff" d="M195.88,-254.71C198.07,-246.17 200.34,-237.31 202.17,-230.2"/>
<polygon fill="#63b8ff" stroke="#63b8ff" points="192.56,-253.57 193.46,-264.13 199.34,-255.31 192.56,-253.57"/>
</a>
</g>
</g>
<!-- Node4 -->
<g id="Node000004" class="node">
<title>Node4</title>
<g id="a_Node000004"><a xlink:href="_emulator_8h_source.html" target="_top" xlink:title=" ">
<polygon fill="white" stroke="#666666" points="323.88,-163.5 157.88,-163.5 157.88,-133 323.88,-133 323.88,-163.5"/>
<text text-anchor="start" x="165.88" y="-150" font-family="Helvetica,sans-Serif" font-size="10.00">/Users/hoff/Retro/virtualc64</text>
<text text-anchor="middle" x="240.88" y="-138.75" font-family="Helvetica,sans-Serif" font-size="10.00">/Emulator/Components/Emulator.h</text>
</a>
</g>
</g>
<!-- Node3&#45;&gt;Node4 -->
<g id="edge3_Node000003_Node000004" class="edge">
<title>Node3&#45;&gt;Node4</title>
<g id="a_edge3_Node000003_Node000004"><a xlink:title=" ">
<path fill="none" stroke="#63b8ff" d="M219.18,-189.23C223.83,-180.66 228.9,-171.32 232.97,-163.83"/>
<polygon fill="#63b8ff" stroke="#63b8ff" points="216.23,-187.32 214.54,-197.78 222.39,-190.66 216.23,-187.32"/>
</a>
</g>
</g>
<!-- Node5 -->
<g id="Node000005" class="node">
<title>Node5</title>
<g id="a_Node000005"><a xlink:href="_virtual_c64_8h.html" target="_top" xlink:title=" ">
<polygon fill="white" stroke="#666666" points="364.25,-97 227.5,-97 227.5,-66.5 364.25,-66.5 364.25,-97"/>
<text text-anchor="start" x="235.5" y="-83.5" font-family="Helvetica,sans-Serif" font-size="10.00">/Users/hoff/Retro/virtualc64</text>
<text text-anchor="middle" x="295.88" y="-72.25" font-family="Helvetica,sans-Serif" font-size="10.00">/Emulator/VirtualC64.h</text>
</a>
</g>
</g>
<!-- Node4&#45;&gt;Node5 -->
<g id="edge4_Node000004_Node000005" class="edge">
<title>Node4&#45;&gt;Node5</title>
<g id="a_edge4_Node000004_Node000005"><a xlink:title=" ">
<path fill="none" stroke="#63b8ff" d="M260.59,-124.13C268.21,-115.19 276.7,-105.24 283.45,-97.33"/>
<polygon fill="#63b8ff" stroke="#63b8ff" points="258.16,-121.58 254.34,-131.46 263.49,-126.12 258.16,-121.58"/>
</a>
</g>
</g>
<!-- Node6 -->
<g id="Node000006" class="node">
<title>Node6</title>
<g id="a_Node000006"><a xlink:href="_headless_8h_source.html" target="_top" xlink:title=" ">
<polygon fill="white" stroke="#666666" points="364.25,-30.5 227.5,-30.5 227.5,0 364.25,0 364.25,-30.5"/>
<text text-anchor="start" x="235.5" y="-17" font-family="Helvetica,sans-Serif" font-size="10.00">/Users/hoff/Retro/virtualc64</text>
<text text-anchor="middle" x="295.88" y="-5.75" font-family="Helvetica,sans-Serif" font-size="10.00">/Emulator/Headless.h</text>
</a>
</g>
</g>
<!-- Node5&#45;&gt;Node6 -->
<g id="edge5_Node000005_Node000006" class="edge">
<title>Node5&#45;&gt;Node6</title>
<g id="a_edge5_Node000005_Node000006"><a xlink:title=" ">
<path fill="none" stroke="#63b8ff" d="M295.88,-54.81C295.88,-46.64 295.88,-37.91 295.88,-30.83"/>
<polygon fill="#63b8ff" stroke="#63b8ff" points="292.38,-54.6 295.88,-64.6 299.38,-54.6 292.38,-54.6"/>
</a>
</g>
</g>
<!-- Node7&#45;&gt;Node8 -->
<g id="edge7_Node000007_Node000008" class="edge">
<title>Node7&#45;&gt;Node8</title>
<g id="a_edge7_Node000007_Node000008"><a xlink:title=" ">
<path fill="none" stroke="#63b8ff" d="M111.22,-478.08C131.58,-446.72 162.79,-398.64 178.36,-374.66"/>
<polygon fill="#63b8ff" stroke="#63b8ff" points="108.36,-476.06 105.85,-486.35 114.23,-479.87 108.36,-476.06"/>
</a>
</g>
</g>
<!-- Node8&#45;&gt;Node2 -->
<g id="edge8_Node000008_Node000002" class="edge">
<title>Node8&#45;&gt;Node2</title>
<g id="a_edge8_Node000008_Node000002"><a xlink:title=" ">
<path fill="none" stroke="#63b8ff" d="M187.88,-332.22C187.88,-324.31 187.88,-315.73 187.88,-308.24"/>
<polygon fill="#63b8ff" stroke="#63b8ff" points="184.38,-331.96 187.88,-341.96 191.38,-331.96 184.38,-331.96"/>
</a>
</g>
</g>
<!-- Node10 -->
<g id="Node000010" class="node">
<title>Node10</title>
<g id="a_Node000010"><a xlink:href="_fast_s_i_d_8h_source.html" target="_top" xlink:title=" ">
<polygon fill="white" stroke="#666666" points="352.25,-452 215.5,-452 215.5,-410.25 352.25,-410.25 352.25,-452"/>
<text text-anchor="start" x="223.5" y="-438.5" font-family="Helvetica,sans-Serif" font-size="10.00">/Users/hoff/Retro/virtualc64</text>
<text text-anchor="start" x="223.5" y="-427.25" font-family="Helvetica,sans-Serif" font-size="10.00">/Emulator/Components/SID</text>
<text text-anchor="middle" x="283.88" y="-416" font-family="Helvetica,sans-Serif" font-size="10.00">/fastsid/FastSID.h</text>
</a>
</g>
</g>
<!-- Node9&#45;&gt;Node10 -->
<g id="edge11_Node000009_Node000010" class="edge">
<title>Node9&#45;&gt;Node10</title>
<g id="a_edge11_Node000009_Node000010"><a xlink:title=" ">
<path fill="none" stroke="#63b8ff" d="M283.88,-476.25C283.88,-468.21 283.88,-459.79 283.88,-452.48"/>
<polygon fill="#63b8ff" stroke="#63b8ff" points="280.38,-476.06 283.88,-486.06 287.38,-476.06 280.38,-476.06"/>
</a>
</g>
</g>
<!-- Node10&#45;&gt;Node8 -->
<g id="edge12_Node000010_Node000008" class="edge">
<title>Node10&#45;&gt;Node8</title>
<g id="a_edge12_Node000010_Node000008"><a xlink:title=" ">
<path fill="none" stroke="#63b8ff" d="M247.15,-403.29C233.84,-393.57 219.3,-382.96 207.96,-374.67"/>
<polygon fill="#63b8ff" stroke="#63b8ff" points="244.75,-405.88 254.89,-408.95 248.88,-400.22 244.75,-405.88"/>
</a>
</g>
</g>
<!-- Node11&#45;&gt;Node5 -->
<g id="edge14_Node000011_Node000005" class="edge">
<title>Node11&#45;&gt;Node5</title>
<g id="a_edge14_Node000011_Node000005"><a xlink:title=" ">
<path fill="none" stroke="#63b8ff" d="M420.87,-406.92C399.87,-380.12 369.88,-333.8 369.88,-287.88 369.88,-287.88 369.88,-287.88 369.88,-213.75 369.88,-166.21 332.47,-120.05 310.85,-97.34"/>
<polygon fill="#63b8ff" stroke="#63b8ff" points="417.89,-408.8 426.9,-414.37 423.33,-404.4 417.89,-408.8"/>
</a>
</g>
</g>
</g>
</svg>
