<?xml version="1.0" encoding="UTF-8" standalone="no"?>
<!DOCTYPE svg PUBLIC "-//W3C//DTD SVG 1.1//EN"
 "http://www.w3.org/Graphics/SVG/1.1/DTD/svg11.dtd">
<!-- Generated by graphviz version 10.0.1 (20240210.2158)
 -->
<!-- Title: /Users/hoff/Retro/virtualc64/Emulator/Components/SID/SIDTypes.h Pages: 1 -->
<svg width="520pt" height="682pt"
 viewBox="0.00 0.00 519.50 682.00" xmlns="http://www.w3.org/2000/svg" xmlns:xlink="http://www.w3.org/1999/xlink">
<g id="graph0" class="graph" transform="scale(1 1) rotate(0) translate(4 678)">
<title>/Users/hoff/Retro/virtualc64/Emulator/Components/SID/SIDTypes.h</title>
<!-- Node1 -->
<g id="Node000001" class="node">
<title>Node1</title>
<g id="a_Node000001"><a xlink:title=" ">
<polygon fill="#999999" stroke="#666666" points="256.25,-674 119.5,-674 119.5,-632.25 256.25,-632.25 256.25,-674"/>
<text text-anchor="start" x="127.5" y="-660.5" font-family="Helvetica,sans-Serif" font-size="10.00">/Users/hoff/Retro/virtualc64</text>
<text text-anchor="start" x="127.5" y="-649.25" font-family="Helvetica,sans-Serif" font-size="10.00">/Emulator/Components/SID</text>
<text text-anchor="middle" x="187.88" y="-638" font-family="Helvetica,sans-Serif" font-size="10.00">/SIDTypes.h</text>
</a>
</g>
</g>
<!-- Node2 -->
<g id="Node000002" class="node">
<title>Node2</title>
<g id="a_Node000002"><a xlink:href="_muxer_8h_source.html" target="_top" xlink:title=" ">
<polygon fill="white" stroke="#666666" points="256.25,-374.25 119.5,-374.25 119.5,-332.5 256.25,-332.5 256.25,-374.25"/>
<text text-anchor="start" x="127.5" y="-360.75" font-family="Helvetica,sans-Serif" font-size="10.00">/Users/hoff/Retro/virtualc64</text>
<text text-anchor="start" x="127.5" y="-349.5" font-family="Helvetica,sans-Serif" font-size="10.00">/Emulator/Components/SID</text>
<text text-anchor="middle" x="187.88" y="-338.25" font-family="Helvetica,sans-Serif" font-size="10.00">/Muxer.h</text>
</a>
</g>
</g>
<!-- Node1&#45;&gt;Node2 -->
<g id="edge1_Node000001_Node000002" class="edge">
<title>Node1&#45;&gt;Node2</title>
<g id="a_edge1_Node000001_Node000002"><a xlink:title=" ">
<path fill="none" stroke="#63b8ff" d="M108.13,-646.74C73.64,-639.98 36.33,-625.72 14.88,-596.25 -29.61,-535.13 36.69,-471.5 95.88,-410.25 109.77,-395.87 128.12,-383.75 144.78,-374.51"/>
<polygon fill="#63b8ff" stroke="#63b8ff" points="107.26,-650.14 117.72,-648.42 108.47,-643.25 107.26,-650.14"/>
</a>
</g>
</g>
<!-- Node8 -->
<g id="Node000008" class="node">
<title>Node8</title>
<g id="a_Node000008"><a xlink:href="_re_s_i_d_8h_source.html" target="_top" xlink:title=" ">
<polygon fill="white" stroke="#666666" points="160.25,-596.25 23.5,-596.25 23.5,-554.5 160.25,-554.5 160.25,-596.25"/>
<text text-anchor="start" x="31.5" y="-582.75" font-family="Helvetica,sans-Serif" font-size="10.00">/Users/hoff/Retro/virtualc64</text>
<text text-anchor="start" x="31.5" y="-571.5" font-family="Helvetica,sans-Serif" font-size="10.00">/Emulator/Components/SID</text>
<text text-anchor="middle" x="91.88" y="-560.25" font-family="Helvetica,sans-Serif" font-size="10.00">/ReSID.h</text>
</a>
</g>
</g>
<!-- Node1&#45;&gt;Node8 -->
<g id="edge7_Node000001_Node000008" class="edge">
<title>Node1&#45;&gt;Node8</title>
<g id="a_edge7_Node000001_Node000008"><a xlink:title=" ">
<path fill="none" stroke="#63b8ff" d="M153.42,-624.94C141.63,-615.64 128.66,-605.4 117.67,-596.73"/>
<polygon fill="#63b8ff" stroke="#63b8ff" points="150.94,-627.44 160.96,-630.89 155.28,-621.95 150.94,-627.44"/>
</a>
</g>
</g>
<!-- Node9 -->
<g id="Node000009" class="node">
<title>Node9</title>
<g id="a_Node000009"><a xlink:href="sid_8h_source.html" target="_top" xlink:title=" ">
<polygon fill="white" stroke="#666666" points="270.5,-440.75 105.25,-440.75 105.25,-410.25 270.5,-410.25 270.5,-440.75"/>
<text text-anchor="start" x="113.25" y="-427.25" font-family="Helvetica,sans-Serif" font-size="10.00">/Users/hoff/Retro/virtualc64</text>
<text text-anchor="middle" x="187.88" y="-416" font-family="Helvetica,sans-Serif" font-size="10.00">/Emulator/Components/SID/SID.h</text>
</a>
</g>
</g>
<!-- Node1&#45;&gt;Node9 -->
<g id="edge10_Node000001_Node000009" class="edge">
<title>Node1&#45;&gt;Node9</title>
<g id="a_edge10_Node000001_Node000009"><a xlink:title=" ">
<path fill="none" stroke="#63b8ff" d="M187.88,-620.84C187.88,-571.4 187.88,-477.09 187.88,-441.02"/>
<polygon fill="#63b8ff" stroke="#63b8ff" points="184.38,-620.59 187.88,-630.59 191.38,-620.59 184.38,-620.59"/>
</a>
</g>
</g>
<!-- Node10 -->
<g id="Node000010" class="node">
<title>Node10</title>
<g id="a_Node000010"><a xlink:href="_fast_voice_8h_source.html" target="_top" xlink:title=" ">
<polygon fill="white" stroke="#666666" points="352.25,-596.25 215.5,-596.25 215.5,-554.5 352.25,-554.5 352.25,-596.25"/>
<text text-anchor="start" x="223.5" y="-582.75" font-family="Helvetica,sans-Serif" font-size="10.00">/Users/hoff/Retro/virtualc64</text>
<text text-anchor="start" x="223.5" y="-571.5" font-family="Helvetica,sans-Serif" font-size="10.00">/Emulator/Components/SID</text>
<text text-anchor="middle" x="283.88" y="-560.25" font-family="Helvetica,sans-Serif" font-size="10.00">/fastsid/FastVoice.h</text>
</a>
</g>
</g>
<!-- Node1&#45;&gt;Node10 -->
<g id="edge11_Node000001_Node000010" class="edge">
<title>Node1&#45;&gt;Node10</title>
<g id="a_edge11_Node000001_Node000010"><a xlink:title=" ">
<path fill="none" stroke="#63b8ff" d="M222.33,-624.94C234.12,-615.64 247.1,-605.4 258.08,-596.73"/>
<polygon fill="#63b8ff" stroke="#63b8ff" points="220.47,-621.95 214.79,-630.89 224.81,-627.44 220.47,-621.95"/>
</a>
</g>
</g>
<!-- Node12 -->
<g id="Node000012" class="node">
<title>Node12</title>
<g id="a_Node000012"><a xlink:href="_virtual_c64_types_8h.html" target="_top" xlink:title=" ">
<polygon fill="white" stroke="#666666" points="511.5,-512.88 370.25,-512.88 370.25,-482.38 511.5,-482.38 511.5,-512.88"/>
<text text-anchor="start" x="378.25" y="-499.38" font-family="Helvetica,sans-Serif" font-size="10.00">/Users/hoff/Retro/virtualc64</text>
<text text-anchor="middle" x="440.88" y="-488.12" font-family="Helvetica,sans-Serif" font-size="10.00">/Emulator/VirtualC64Types.h</text>
</a>
</g>
</g>
<!-- Node1&#45;&gt;Node12 -->
<g id="edge14_Node000001_Node000012" class="edge">
<title>Node1&#45;&gt;Node12</title>
<g id="a_edge14_Node000001_Node000012"><a xlink:title=" ">
<path fill="none" stroke="#63b8ff" d="M267.2,-636.68C298.24,-628.13 333,-615.25 360.88,-596.25 393.65,-573.91 420.07,-534.36 432.74,-513.1"/>
<polygon fill="#63b8ff" stroke="#63b8ff" points="266.64,-633.21 257.86,-639.14 268.43,-639.98 266.64,-633.21"/>
</a>
</g>
</g>
<!-- Node3 -->
<g id="Node000003" class="node">
<title>Node3</title>
<g id="a_Node000003"><a xlink:href="_c64_8h_source.html" target="_top" xlink:title=" ">
<polygon fill="white" stroke="#666666" points="278.75,-296.5 133,-296.5 133,-266 278.75,-266 278.75,-296.5"/>
<text text-anchor="start" x="141" y="-283" font-family="Helvetica,sans-Serif" font-size="10.00">/Users/hoff/Retro/virtualc64</text>
<text text-anchor="middle" x="205.88" y="-271.75" font-family="Helvetica,sans-Serif" font-size="10.00">/Emulator/Components/C64.h</text>
</a>
</g>
</g>
<!-- Node2&#45;&gt;Node3 -->
<g id="edge2_Node000002_Node000003" class="edge">
<title>Node2&#45;&gt;Node3</title>
<g id="a_edge2_Node000002_Node000003"><a xlink:title=" ">
<path fill="none" stroke="#63b8ff" d="M195.88,-321.21C198.07,-312.67 200.34,-303.81 202.17,-296.7"/>
<polygon fill="#63b8ff" stroke="#63b8ff" points="192.56,-320.07 193.46,-330.63 199.34,-321.81 192.56,-320.07"/>
</a>
</g>
</g>
<!-- Node4 -->
<g id="Node000004" class="node">
<title>Node4</title>
<g id="a_Node000004"><a xlink:href="_emulator_8h_source.html" target="_top" xlink:title=" ">
<polygon fill="white" stroke="#666666" points="323.88,-230 157.88,-230 157.88,-199.5 323.88,-199.5 323.88,-230"/>
<text text-anchor="start" x="165.88" y="-216.5" font-family="Helvetica,sans-Serif" font-size="10.00">/Users/hoff/Retro/virtualc64</text>
<text text-anchor="middle" x="240.88" y="-205.25" font-family="Helvetica,sans-Serif" font-size="10.00">/Emulator/Components/Emulator.h</text>
</a>
</g>
</g>
<!-- Node3&#45;&gt;Node4 -->
<g id="edge3_Node000003_Node000004" class="edge">
<title>Node3&#45;&gt;Node4</title>
<g id="a_edge3_Node000003_Node000004"><a xlink:title=" ">
<path fill="none" stroke="#63b8ff" d="M219.18,-255.73C223.83,-247.16 228.9,-237.82 232.97,-230.33"/>
<polygon fill="#63b8ff" stroke="#63b8ff" points="216.23,-253.82 214.54,-264.28 222.39,-257.16 216.23,-253.82"/>
</a>
</g>
</g>
<!-- Node5 -->
<g id="Node000005" class="node">
<title>Node5</title>
<g id="a_Node000005"><a xlink:href="_virtual_c64_8h.html" target="_top" xlink:title=" ">
<polygon fill="white" stroke="#666666" points="364.25,-163.5 227.5,-163.5 227.5,-133 364.25,-133 364.25,-163.5"/>
<text text-anchor="start" x="235.5" y="-150" font-family="Helvetica,sans-Serif" font-size="10.00">/Users/hoff/Retro/virtualc64</text>
<text text-anchor="middle" x="295.88" y="-138.75" font-family="Helvetica,sans-Serif" font-size="10.00">/Emulator/VirtualC64.h</text>
</a>
</g>
</g>
<!-- Node4&#45;&gt;Node5 -->
<g id="edge4_Node000004_Node000005" class="edge">
<title>Node4&#45;&gt;Node5</title>
<g id="a_edge4_Node000004_Node000005"><a xlink:title=" ">
<path fill="none" stroke="#63b8ff" d="M260.59,-190.63C268.21,-181.69 276.7,-171.74 283.45,-163.83"/>
<polygon fill="#63b8ff" stroke="#63b8ff" points="258.16,-188.08 254.34,-197.96 263.49,-192.62 258.16,-188.08"/>
</a>
</g>
</g>
<!-- Node6 -->
<g id="Node000006" class="node">
<title>Node6</title>
<g id="a_Node000006"><a xlink:href="_headless_8h_source.html" target="_top" xlink:title=" ">
<polygon fill="white" stroke="#666666" points="364.25,-97 227.5,-97 227.5,-66.5 364.25,-66.5 364.25,-97"/>
<text text-anchor="start" x="235.5" y="-83.5" font-family="Helvetica,sans-Serif" font-size="10.00">/Users/hoff/Retro/virtualc64</text>
<text text-anchor="middle" x="295.88" y="-72.25" font-family="Helvetica,sans-Serif" font-size="10.00">/Emulator/Headless.h</text>
</a>
</g>
</g>
<!-- Node5&#45;&gt;Node6 -->
<g id="edge5_Node000005_Node000006" class="edge">
<title>Node5&#45;&gt;Node6</title>
<g id="a_edge5_Node000005_Node000006"><a xlink:title=" ">
<path fill="none" stroke="#63b8ff" d="M295.88,-121.31C295.88,-113.14 295.88,-104.41 295.88,-97.33"/>
<polygon fill="#63b8ff" stroke="#63b8ff" points="292.38,-121.1 295.88,-131.1 299.38,-121.1 292.38,-121.1"/>
</a>
</g>
</g>
<!-- Node7 -->
<g id="Node000007" class="node">
<title>Node7</title>
<g id="a_Node000007"><a xlink:href="_headless_8cpp.html" target="_top" xlink:title=" ">
<polygon fill="white" stroke="#666666" points="364.25,-30.5 227.5,-30.5 227.5,0 364.25,0 364.25,-30.5"/>
<text text-anchor="start" x="235.5" y="-17" font-family="Helvetica,sans-Serif" font-size="10.00">/Users/hoff/Retro/virtualc64</text>
<text text-anchor="middle" x="295.88" y="-5.75" font-family="Helvetica,sans-Serif" font-size="10.00">/Emulator/Headless.cpp</text>
</a>
</g>
</g>
<!-- Node6&#45;&gt;Node7 -->
<g id="edge6_Node000006_Node000007" class="edge">
<title>Node6&#45;&gt;Node7</title>
<g id="a_edge6_Node000006_Node000007"><a xlink:title=" ">
<path fill="none" stroke="#63b8ff" d="M295.88,-54.81C295.88,-46.64 295.88,-37.91 295.88,-30.83"/>
<polygon fill="#63b8ff" stroke="#63b8ff" points="292.38,-54.6 295.88,-64.6 299.38,-54.6 292.38,-54.6"/>
</a>
</g>
</g>
<!-- Node8&#45;&gt;Node9 -->
<g id="edge8_Node000008_Node000009" class="edge">
<title>Node8&#45;&gt;Node9</title>
<g id="a_edge8_Node000008_Node000009"><a xlink:title=" ">
<path fill="none" stroke="#63b8ff" d="M111.22,-544.58C131.58,-513.22 162.79,-465.14 178.36,-441.16"/>
<polygon fill="#63b8ff" stroke="#63b8ff" points="108.36,-542.56 105.85,-552.85 114.23,-546.37 108.36,-542.56"/>
</a>
</g>
</g>
<!-- Node9&#45;&gt;Node2 -->
<g id="edge9_Node000009_Node000002" class="edge">
<title>Node9&#45;&gt;Node2</title>
<g id="a_edge9_Node000009_Node000002"><a xlink:title=" ">
<path fill="none" stroke="#63b8ff" d="M187.88,-398.72C187.88,-390.81 187.88,-382.23 187.88,-374.74"/>
<polygon fill="#63b8ff" stroke="#63b8ff" points="184.38,-398.46 187.88,-408.46 191.38,-398.46 184.38,-398.46"/>
</a>
</g>
</g>
<!-- Node11 -->
<g id="Node000011" class="node">
<title>Node11</title>
<g id="a_Node000011"><a xlink:href="_fast_s_i_d_8h_source.html" target="_top" xlink:title=" ">
<polygon fill="white" stroke="#666666" points="352.25,-518.5 215.5,-518.5 215.5,-476.75 352.25,-476.75 352.25,-518.5"/>
<text text-anchor="start" x="223.5" y="-505" font-family="Helvetica,sans-Serif" font-size="10.00">/Users/hoff/Retro/virtualc64</text>
<text text-anchor="start" x="223.5" y="-493.75" font-family="Helvetica,sans-Serif" font-size="10.00">/Emulator/Components/SID</text>
<text text-anchor="middle" x="283.88" y="-482.5" font-family="Helvetica,sans-Serif" font-size="10.00">/fastsid/FastSID.h</text>
</a>
</g>
</g>
<!-- Node10&#45;&gt;Node11 -->
<g id="edge12_Node000010_Node000011" class="edge">
<title>Node10&#45;&gt;Node11</title>
<g id="a_edge12_Node000010_Node000011"><a xlink:title=" ">
<path fill="none" stroke="#63b8ff" d="M283.88,-542.75C283.88,-534.71 283.88,-526.29 283.88,-518.98"/>
<polygon fill="#63b8ff" stroke="#63b8ff" points="280.38,-542.56 283.88,-552.56 287.38,-542.56 280.38,-542.56"/>
</a>
</g>
</g>
<!-- Node11&#45;&gt;Node9 -->
<g id="edge13_Node000011_Node000009" class="edge">
<title>Node11&#45;&gt;Node9</title>
<g id="a_edge13_Node000011_Node000009"><a xlink:title=" ">
<path fill="none" stroke="#63b8ff" d="M247.15,-469.79C233.84,-460.07 219.3,-449.46 207.96,-441.17"/>
<polygon fill="#63b8ff" stroke="#63b8ff" points="244.75,-472.38 254.89,-475.45 248.88,-466.72 244.75,-472.38"/>
</a>
</g>
</g>
<!-- Node12&#45;&gt;Node5 -->
<g id="edge15_Node000012_Node000005" class="edge">
<title>Node12&#45;&gt;Node5</title>
<g id="a_edge15_Node000012_Node000005"><a xlink:title=" ">
<path fill="none" stroke="#63b8ff" d="M420.87,-473.42C399.87,-446.62 369.88,-400.3 369.88,-354.38 369.88,-354.38 369.88,-354.38 369.88,-280.25 369.88,-232.71 332.47,-186.55 310.85,-163.84"/>
<polygon fill="#63b8ff" stroke="#63b8ff" points="417.89,-475.3 426.9,-480.87 423.33,-470.9 417.89,-475.3"/>
</a>
</g>
</g>
</g>
</svg>
