<?xml version="1.0" encoding="UTF-8" standalone="no"?>
<!DOCTYPE svg PUBLIC "-//W3C//DTD SVG 1.1//EN"
 "http://www.w3.org/Graphics/SVG/1.1/DTD/svg11.dtd">
<!-- Generated by graphviz version 10.0.1 (20240210.2158)
 -->
<!-- Title: /Users/hoff/Retro/virtualc64/Emulator/Media/Script.cpp Pages: 1 -->
<svg width="3037pt" height="370pt"
 viewBox="0.00 0.00 3037.38 370.00" xmlns="http://www.w3.org/2000/svg" xmlns:xlink="http://www.w3.org/1999/xlink">
<g id="graph0" class="graph" transform="scale(1 1) rotate(0) translate(4 366)">
<title>/Users/hoff/Retro/virtualc64/Emulator/Media/Script.cpp</title>
<!-- Node1 -->
<g id="Node000001" class="node">
<title>Node1</title>
<g id="a_Node000001"><a xlink:title=" ">
<polygon fill="#999999" stroke="#666666" points="276,-362 139.25,-362 139.25,-331.5 276,-331.5 276,-362"/>
<text text-anchor="start" x="147.25" y="-348.5" font-family="Helvetica,sans-Serif" font-size="10.00">/Users/hoff/Retro/virtualc64</text>
<text text-anchor="middle" x="207.62" y="-337.25" font-family="Helvetica,sans-Serif" font-size="10.00">/Emulator/Media/Script.cpp</text>
</a>
</g>
</g>
<!-- Node2 -->
<g id="Node000002" class="node">
<title>Node2</title>
<g id="a_Node000002"><a xlink:href="config_8h.html" target="_top" xlink:title=" ">
<polygon fill="white" stroke="#666666" points="51.88,-295.5 1.38,-295.5 1.38,-276.25 51.88,-276.25 51.88,-295.5"/>
<text text-anchor="middle" x="26.62" y="-282" font-family="Helvetica,sans-Serif" font-size="10.00">config.h</text>
</a>
</g>
</g>
<!-- Node1&#45;&gt;Node2 -->
<g id="edge1_Node000001_Node000002" class="edge">
<title>Node1&#45;&gt;Node2</title>
<g id="a_edge1_Node000001_Node000002"><a xlink:title=" ">
<path fill="none" stroke="#63b8ff" d="M162.42,-331.05C131.73,-321.06 91.68,-308.03 63.04,-298.72"/>
<polygon fill="#63b8ff" stroke="#63b8ff" points="64.32,-295.45 53.72,-295.69 62.15,-302.11 64.32,-295.45"/>
</a>
</g>
</g>
<!-- Node4 -->
<g id="Node000004" class="node">
<title>Node4</title>
<g id="a_Node000004"><a xlink:href="_script_8h.html" target="_top" xlink:title=" ">
<polygon fill="white" stroke="#666666" points="84.5,-185 34.75,-185 34.75,-165.75 84.5,-165.75 84.5,-185"/>
<text text-anchor="middle" x="59.62" y="-171.5" font-family="Helvetica,sans-Serif" font-size="10.00">Script.h</text>
</a>
</g>
</g>
<!-- Node1&#45;&gt;Node4 -->
<g id="edge3_Node000001_Node000004" class="edge">
<title>Node1&#45;&gt;Node4</title>
<g id="a_edge3_Node000001_Node000004"><a xlink:title=" ">
<path fill="none" stroke="#63b8ff" d="M190.05,-331.22C167.32,-311.91 127.26,-276.03 98.62,-240.25 87.21,-225.98 76.57,-208.12 69.29,-194.91"/>
<polygon fill="#63b8ff" stroke="#63b8ff" points="72.56,-193.59 64.75,-186.43 66.39,-196.89 72.56,-193.59"/>
</a>
</g>
</g>
<!-- Node25 -->
<g id="Node000025" class="node">
<title>Node25</title>
<g id="a_Node000025"><a xlink:title=" ">
<polygon fill="#e0e0e0" stroke="#999999" points="2509.25,-74.5 2458,-74.5 2458,-55.25 2509.25,-55.25 2509.25,-74.5"/>
<text text-anchor="middle" x="2483.62" y="-61" font-family="Helvetica,sans-Serif" font-size="10.00">sstream</text>
</a>
</g>
</g>
<!-- Node1&#45;&gt;Node25 -->
<g id="edge62_Node000001_Node000025" class="edge">
<title>Node1&#45;&gt;Node25</title>
<g id="a_edge62_Node000001_Node000025"><a xlink:title=" ">
<path fill="none" stroke="#63b8ff" d="M276.46,-344.42C676.51,-336.5 2684.62,-293.64 2684.62,-231.62 2684.62,-231.62 2684.62,-231.62 2684.62,-174.38 2684.62,-137.48 2578.41,-96.89 2520.4,-77.47"/>
<polygon fill="#63b8ff" stroke="#63b8ff" points="2521.52,-74.16 2510.93,-74.35 2519.33,-80.81 2521.52,-74.16"/>
</a>
</g>
</g>
<!-- Node27 -->
<g id="Node000027" class="node">
<title>Node27</title>
<g id="a_Node000027"><a xlink:href="_virtual_c64_8h.html" target="_top" xlink:title=" ">
<polygon fill="white" stroke="#666666" points="242.62,-295.5 172.62,-295.5 172.62,-276.25 242.62,-276.25 242.62,-295.5"/>
<text text-anchor="middle" x="207.62" y="-282" font-family="Helvetica,sans-Serif" font-size="10.00">VirtualC64.h</text>
</a>
</g>
</g>
<!-- Node1&#45;&gt;Node27 -->
<g id="edge11_Node000001_Node000027" class="edge">
<title>Node1&#45;&gt;Node27</title>
<g id="a_edge11_Node000001_Node000027"><a xlink:title=" ">
<path fill="none" stroke="#63b8ff" d="M207.62,-331.2C207.62,-323.96 207.62,-315.09 207.62,-307.19"/>
<polygon fill="#63b8ff" stroke="#63b8ff" points="211.13,-307.46 207.63,-297.46 204.13,-307.46 211.13,-307.46"/>
</a>
</g>
</g>
<!-- Node75 -->
<g id="Node000075" class="node">
<title>Node75</title>
<g id="a_Node000075"><a xlink:href="_i_o_utils_8h.html" target="_top" xlink:title=" ">
<polygon fill="white" stroke="#666666" points="2768.12,-129.75 2713.12,-129.75 2713.12,-110.5 2768.12,-110.5 2768.12,-129.75"/>
<text text-anchor="middle" x="2740.62" y="-116.25" font-family="Helvetica,sans-Serif" font-size="10.00">IOUtils.h</text>
</a>
</g>
</g>
<!-- Node1&#45;&gt;Node75 -->
<g id="edge49_Node000001_Node000075" class="edge">
<title>Node1&#45;&gt;Node75</title>
<g id="a_edge49_Node000001_Node000075"><a xlink:title=" ">
<path fill="none" stroke="#63b8ff" d="M276.37,-345.51C672.71,-344 2650.1,-334.52 2698.62,-295.5 2745.29,-257.97 2745.55,-178.41 2742.78,-141.16"/>
<polygon fill="#63b8ff" stroke="#63b8ff" points="2746.29,-141.03 2741.89,-131.39 2739.32,-141.67 2746.29,-141.03"/>
</a>
</g>
</g>
<!-- Node3 -->
<g id="Node000003" class="node">
<title>Node3</title>
<g id="a_Node000003"><a xlink:title=" ">
<polygon fill="#e0e0e0" stroke="#999999" points="51.25,-240.25 0,-240.25 0,-221 51.25,-221 51.25,-240.25"/>
<text text-anchor="middle" x="25.62" y="-226.75" font-family="Helvetica,sans-Serif" font-size="10.00">assert.h</text>
</a>
</g>
</g>
<!-- Node2&#45;&gt;Node3 -->
<g id="edge2_Node000002_Node000003" class="edge">
<title>Node2&#45;&gt;Node3</title>
<g id="a_edge2_Node000002_Node000003"><a xlink:title=" ">
<path fill="none" stroke="#63b8ff" d="M26.46,-276.08C26.34,-269.57 26.17,-260.42 26.01,-252.12"/>
<polygon fill="#63b8ff" stroke="#63b8ff" points="29.51,-252.05 25.82,-242.12 22.51,-252.19 29.51,-252.05"/>
</a>
</g>
</g>
<!-- Node5 -->
<g id="Node000005" class="node">
<title>Node5</title>
<g id="a_Node000005"><a xlink:href="_any_file_8h.html" target="_top" xlink:title=" ">
<polygon fill="white" stroke="#666666" points="1427.25,-129.75 1370,-129.75 1370,-110.5 1427.25,-110.5 1427.25,-129.75"/>
<text text-anchor="middle" x="1398.62" y="-116.25" font-family="Helvetica,sans-Serif" font-size="10.00">AnyFile.h</text>
</a>
</g>
</g>
<!-- Node4&#45;&gt;Node5 -->
<g id="edge4_Node000004_Node000005" class="edge">
<title>Node4&#45;&gt;Node5</title>
<g id="a_edge4_Node000004_Node000005"><a xlink:title=" ">
<path fill="none" stroke="#63b8ff" d="M84.76,-167.36C87.73,-166.72 90.73,-166.16 93.62,-165.75 346.58,-129.77 1165.88,-122.55 1358.03,-121.34"/>
<polygon fill="#63b8ff" stroke="#63b8ff" points="1358.02,-124.84 1368,-121.28 1357.98,-117.84 1358.02,-124.84"/>
</a>
</g>
</g>
<!-- Node6 -->
<g id="Node000006" class="node">
<title>Node6</title>
<g id="a_Node000006"><a xlink:href="_core_object_8h.html" target="_top" xlink:title=" ">
<polygon fill="#fff0f0" stroke="red" points="1436.5,-19.25 1362.75,-19.25 1362.75,0 1436.5,0 1436.5,-19.25"/>
<text text-anchor="middle" x="1399.62" y="-5.75" font-family="Helvetica,sans-Serif" font-size="10.00">CoreObject.h</text>
</a>
</g>
</g>
<!-- Node5&#45;&gt;Node6 -->
<g id="edge5_Node000005_Node000006" class="edge">
<title>Node5&#45;&gt;Node6</title>
<g id="a_edge5_Node000005_Node000006"><a xlink:title=" ">
<path fill="none" stroke="#63b8ff" d="M1395.02,-110.07C1390.54,-97.73 1383.82,-74.91 1386.62,-55.25 1387.81,-46.97 1390.16,-38.07 1392.55,-30.42"/>
<polygon fill="#63b8ff" stroke="#63b8ff" points="1395.81,-31.72 1395.68,-21.12 1389.17,-29.49 1395.81,-31.72"/>
</a>
</g>
</g>
<!-- Node20 -->
<g id="Node000020" class="node">
<title>Node20</title>
<g id="a_Node000020"><a xlink:href="_file_types_8h.html" target="_top" xlink:title=" ">
<polygon fill="#fff0f0" stroke="red" points="1966.75,-74.5 1900.5,-74.5 1900.5,-55.25 1966.75,-55.25 1966.75,-74.5"/>
<text text-anchor="middle" x="1933.62" y="-61" font-family="Helvetica,sans-Serif" font-size="10.00">FileTypes.h</text>
</a>
</g>
</g>
<!-- Node5&#45;&gt;Node20 -->
<g id="edge6_Node000005_Node000020" class="edge">
<title>Node5&#45;&gt;Node20</title>
<g id="a_edge6_Node000005_Node000020"><a xlink:title=" ">
<path fill="none" stroke="#63b8ff" d="M1427.59,-112.13C1430.63,-111.52 1433.68,-110.96 1436.62,-110.5 1602.3,-84.38 1801.63,-72.24 1888.97,-67.88"/>
<polygon fill="#63b8ff" stroke="#63b8ff" points="1888.95,-71.39 1898.77,-67.4 1888.61,-64.39 1888.95,-71.39"/>
</a>
</g>
</g>
<!-- Node21 -->
<g id="Node000021" class="node">
<title>Node21</title>
<g id="a_Node000021"><a xlink:href="_p_e_t_name_8h.html" target="_top" xlink:title=" ">
<polygon fill="#fff0f0" stroke="red" points="1465.62,-74.5 1395.62,-74.5 1395.62,-55.25 1465.62,-55.25 1465.62,-74.5"/>
<text text-anchor="middle" x="1430.62" y="-61" font-family="Helvetica,sans-Serif" font-size="10.00">PETName.h</text>
</a>
</g>
</g>
<!-- Node5&#45;&gt;Node21 -->
<g id="edge7_Node000005_Node000021" class="edge">
<title>Node5&#45;&gt;Node21</title>
<g id="a_edge7_Node000005_Node000021"><a xlink:title=" ">
<path fill="none" stroke="#63b8ff" d="M1403.91,-110.33C1408.1,-103.36 1414.1,-93.37 1419.36,-84.62"/>
<polygon fill="#63b8ff" stroke="#63b8ff" points="1422.3,-86.53 1424.45,-76.16 1416.3,-82.93 1422.3,-86.53"/>
</a>
</g>
</g>
<!-- Node5&#45;&gt;Node25 -->
<g id="edge9_Node000005_Node000025" class="edge">
<title>Node5&#45;&gt;Node25</title>
<g id="a_edge9_Node000005_Node000025"><a xlink:title=" ">
<path fill="none" stroke="#63b8ff" d="M1427.57,-111.97C1430.61,-111.39 1433.67,-110.89 1436.62,-110.5 1873.21,-53.52 1988.25,-115.5 2426.62,-74.5 2432.98,-73.91 2439.7,-73.07 2446.22,-72.16"/>
<polygon fill="#63b8ff" stroke="#63b8ff" points="2446.73,-75.62 2456.1,-70.68 2445.69,-68.7 2446.73,-75.62"/>
</a>
</g>
</g>
<!-- Node26 -->
<g id="Node000026" class="node">
<title>Node26</title>
<g id="a_Node000026"><a xlink:title=" ">
<polygon fill="#e0e0e0" stroke="#999999" points="2418.12,-74.5 2369.12,-74.5 2369.12,-55.25 2418.12,-55.25 2418.12,-74.5"/>
<text text-anchor="middle" x="2393.62" y="-61" font-family="Helvetica,sans-Serif" font-size="10.00">fstream</text>
</a>
</g>
</g>
<!-- Node5&#45;&gt;Node26 -->
<g id="edge10_Node000005_Node000026" class="edge">
<title>Node5&#45;&gt;Node26</title>
<g id="a_edge10_Node000005_Node000026"><a xlink:title=" ">
<path fill="none" stroke="#63b8ff" d="M1427.57,-112C1430.62,-111.42 1433.68,-110.9 1436.62,-110.5 1619.76,-85.65 2206.12,-70.31 2357.62,-66.7"/>
<polygon fill="#63b8ff" stroke="#63b8ff" points="2357.53,-70.21 2367.45,-66.47 2357.37,-63.21 2357.53,-70.21"/>
</a>
</g>
</g>
<!-- Node21&#45;&gt;Node6 -->
<g id="edge8_Node000021_Node000006" class="edge">
<title>Node21&#45;&gt;Node6</title>
<g id="a_edge8_Node000021_Node000006"><a xlink:title=" ">
<path fill="none" stroke="#63b8ff" d="M1425.51,-55.08C1421.45,-48.11 1415.63,-38.12 1410.54,-29.37"/>
<polygon fill="#63b8ff" stroke="#63b8ff" points="1413.67,-27.8 1405.62,-20.92 1407.62,-31.32 1413.67,-27.8"/>
</a>
</g>
</g>
<!-- Node28 -->
<g id="Node000028" class="node">
<title>Node28</title>
<g id="a_Node000028"><a xlink:href="_virtual_c64_types_8h.html" target="_top" xlink:title=" ">
<polygon fill="white" stroke="#666666" points="1489.75,-240.25 1393.5,-240.25 1393.5,-221 1489.75,-221 1489.75,-240.25"/>
<text text-anchor="middle" x="1441.62" y="-226.75" font-family="Helvetica,sans-Serif" font-size="10.00">VirtualC64Types.h</text>
</a>
</g>
</g>
<!-- Node27&#45;&gt;Node28 -->
<g id="edge12_Node000027_Node000028" class="edge">
<title>Node27&#45;&gt;Node28</title>
<g id="a_edge12_Node000027_Node000028"><a xlink:title=" ">
<path fill="none" stroke="#63b8ff" d="M242.9,-283.35C414.63,-275.94 1163.79,-243.61 1381.87,-234.2"/>
<polygon fill="#63b8ff" stroke="#63b8ff" points="1381.71,-237.71 1391.55,-233.79 1381.4,-230.72 1381.71,-237.71"/>
</a>
</g>
</g>
<!-- Node60 -->
<g id="Node000060" class="node">
<title>Node60</title>
<g id="a_Node000060"><a xlink:href="_emulator_8h.html" target="_top" xlink:title=" ">
<polygon fill="#fff0f0" stroke="red" points="238.88,-240.25 176.38,-240.25 176.38,-221 238.88,-221 238.88,-240.25"/>
<text text-anchor="middle" x="207.62" y="-226.75" font-family="Helvetica,sans-Serif" font-size="10.00">Emulator.h</text>
</a>
</g>
</g>
<!-- Node27&#45;&gt;Node60 -->
<g id="edge43_Node000027_Node000060" class="edge">
<title>Node27&#45;&gt;Node60</title>
<g id="a_edge43_Node000027_Node000060"><a xlink:title=" ">
<path fill="none" stroke="#63b8ff" d="M207.62,-276.08C207.62,-269.57 207.62,-260.42 207.62,-252.12"/>
<polygon fill="#63b8ff" stroke="#63b8ff" points="211.13,-252.12 207.63,-242.12 204.13,-252.12 211.13,-252.12"/>
</a>
</g>
</g>
<!-- Node201 -->
<g id="Node000201" class="node">
<title>Node201</title>
<g id="a_Node000201"><a xlink:href="_media_8h.html" target="_top" xlink:title=" ">
<polygon fill="#fff0f0" stroke="red" points="157.88,-240.25 107.38,-240.25 107.38,-221 157.88,-221 157.88,-240.25"/>
<text text-anchor="middle" x="132.62" y="-226.75" font-family="Helvetica,sans-Serif" font-size="10.00">Media.h</text>
</a>
</g>
</g>
<!-- Node27&#45;&gt;Node201 -->
<g id="edge47_Node000027_Node000201" class="edge">
<title>Node27&#45;&gt;Node201</title>
<g id="a_edge47_Node000027_Node000201"><a xlink:title=" ">
<path fill="none" stroke="#63b8ff" d="M194.9,-275.84C183.91,-268.04 167.78,-256.59 154.69,-247.29"/>
<polygon fill="#63b8ff" stroke="#63b8ff" points="156.82,-244.51 146.64,-241.58 152.77,-250.22 156.82,-244.51"/>
</a>
</g>
</g>
<!-- Node28&#45;&gt;Node20 -->
<g id="edge29_Node000028_Node000020" class="edge">
<title>Node28&#45;&gt;Node20</title>
<g id="a_edge29_Node000028_Node000020"><a xlink:title=" ">
<path fill="none" stroke="#63b8ff" d="M1490.1,-228.85C1664.12,-225.85 2248.47,-213.64 2275.62,-185 2364.61,-91.13 2089.73,-71.2 1978.32,-66.99"/>
<polygon fill="#63b8ff" stroke="#63b8ff" points="1978.76,-63.51 1968.64,-66.65 1978.51,-70.5 1978.76,-63.51"/>
</a>
</g>
</g>
<!-- Node29 -->
<g id="Node000029" class="node">
<title>Node29</title>
<g id="a_Node000029"><a xlink:href="_c64_types_8h.html" target="_top" xlink:title=" ">
<polygon fill="#fff0f0" stroke="red" points="1513.88,-129.75 1445.38,-129.75 1445.38,-110.5 1513.88,-110.5 1513.88,-129.75"/>
<text text-anchor="middle" x="1479.62" y="-116.25" font-family="Helvetica,sans-Serif" font-size="10.00">C64Types.h</text>
</a>
</g>
</g>
<!-- Node28&#45;&gt;Node29 -->
<g id="edge13_Node000028_Node000029" class="edge">
<title>Node28&#45;&gt;Node29</title>
<g id="a_edge13_Node000028_Node000029"><a xlink:title=" ">
<path fill="none" stroke="#63b8ff" d="M1440.81,-220.61C1439.99,-207.93 1439.7,-184.3 1446.62,-165.75 1450.28,-155.98 1456.74,-146.49 1462.99,-138.79"/>
<polygon fill="#63b8ff" stroke="#63b8ff" points="1465.63,-141.09 1469.56,-131.25 1460.35,-136.49 1465.63,-141.09"/>
</a>
</g>
</g>
<!-- Node30 -->
<g id="Node000030" class="node">
<title>Node30</title>
<g id="a_Node000030"><a xlink:href="_cartridge_types_8h.html" target="_top" xlink:title=" ">
<polygon fill="#fff0f0" stroke="red" points="1578.75,-185 1488.5,-185 1488.5,-165.75 1578.75,-165.75 1578.75,-185"/>
<text text-anchor="middle" x="1533.62" y="-171.5" font-family="Helvetica,sans-Serif" font-size="10.00">CartridgeTypes.h</text>
</a>
</g>
</g>
<!-- Node28&#45;&gt;Node30 -->
<g id="edge14_Node000028_Node000030" class="edge">
<title>Node28&#45;&gt;Node30</title>
<g id="a_edge14_Node000028_Node000030"><a xlink:title=" ">
<path fill="none" stroke="#63b8ff" d="M1457.23,-220.59C1471.24,-212.48 1492.06,-200.43 1508.43,-190.96"/>
<polygon fill="#63b8ff" stroke="#63b8ff" points="1509.73,-194.25 1516.63,-186.21 1506.22,-188.19 1509.73,-194.25"/>
</a>
</g>
</g>
<!-- Node31 -->
<g id="Node000031" class="node">
<title>Node31</title>
<g id="a_Node000031"><a xlink:href="_c_i_a_types_8h.html" target="_top" xlink:title=" ">
<polygon fill="#fff0f0" stroke="red" points="1662.75,-185 1596.5,-185 1596.5,-165.75 1662.75,-165.75 1662.75,-185"/>
<text text-anchor="middle" x="1629.62" y="-171.5" font-family="Helvetica,sans-Serif" font-size="10.00">CIATypes.h</text>
</a>
</g>
</g>
<!-- Node28&#45;&gt;Node31 -->
<g id="edge15_Node000028_Node000031" class="edge">
<title>Node28&#45;&gt;Node31</title>
<g id="a_edge15_Node000028_Node000031"><a xlink:title=" ">
<path fill="none" stroke="#63b8ff" d="M1473.52,-220.59C1504.71,-211.76 1552.42,-198.24 1586.89,-188.48"/>
<polygon fill="#63b8ff" stroke="#63b8ff" points="1587.45,-191.96 1596.12,-185.86 1585.55,-185.22 1587.45,-191.96"/>
</a>
</g>
</g>
<!-- Node33 -->
<g id="Node000033" class="node">
<title>Node33</title>
<g id="a_Node000033"><a xlink:href="_cmd_queue_types_8h.html" target="_top" xlink:title=" ">
<polygon fill="#fff0f0" stroke="red" points="1908.62,-185 1808.62,-185 1808.62,-165.75 1908.62,-165.75 1908.62,-185"/>
<text text-anchor="middle" x="1858.62" y="-171.5" font-family="Helvetica,sans-Serif" font-size="10.00">CmdQueueTypes.h</text>
</a>
</g>
</g>
<!-- Node28&#45;&gt;Node33 -->
<g id="edge16_Node000028_Node000033" class="edge">
<title>Node28&#45;&gt;Node33</title>
<g id="a_edge16_Node000028_Node000033"><a xlink:title=" ">
<path fill="none" stroke="#63b8ff" d="M1490.17,-223.84C1556.73,-215.85 1680.4,-200.79 1796.96,-185.2"/>
<polygon fill="#63b8ff" stroke="#63b8ff" points="1797.27,-188.69 1806.72,-183.89 1796.34,-181.75 1797.27,-188.69"/>
</a>
</g>
</g>
<!-- Node34 -->
<g id="Node000034" class="node">
<title>Node34</title>
<g id="a_Node000034"><a xlink:href="_joystick_types_8h.html" target="_top" xlink:title=" ">
<polygon fill="#fff0f0" stroke="red" points="1941.25,-129.75 1854,-129.75 1854,-110.5 1941.25,-110.5 1941.25,-129.75"/>
<text text-anchor="middle" x="1897.62" y="-116.25" font-family="Helvetica,sans-Serif" font-size="10.00">JoystickTypes.h</text>
</a>
</g>
</g>
<!-- Node28&#45;&gt;Node34 -->
<g id="edge32_Node000028_Node000034" class="edge">
<title>Node28&#45;&gt;Node34</title>
<g id="a_edge32_Node000028_Node000034"><a xlink:title=" ">
<path fill="none" stroke="#63b8ff" d="M1489.88,-228.7C1605.18,-226 1889.19,-216.22 1917.62,-185 1929.08,-172.42 1920.89,-153.33 1911.77,-139.29"/>
<polygon fill="#63b8ff" stroke="#63b8ff" points="1914.78,-137.47 1906.12,-131.36 1909.08,-141.54 1914.78,-137.47"/>
</a>
</g>
</g>
<!-- Node35 -->
<g id="Node000035" class="node">
<title>Node35</title>
<g id="a_Node000035"><a xlink:href="_control_port_types_8h.html" target="_top" xlink:title=" ">
<polygon fill="#fff0f0" stroke="red" points="2064.62,-185 1964.62,-185 1964.62,-165.75 2064.62,-165.75 2064.62,-185"/>
<text text-anchor="middle" x="2014.62" y="-171.5" font-family="Helvetica,sans-Serif" font-size="10.00">ControlPortTypes.h</text>
</a>
</g>
</g>
<!-- Node28&#45;&gt;Node35 -->
<g id="edge18_Node000028_Node000035" class="edge">
<title>Node28&#45;&gt;Node35</title>
<g id="a_edge18_Node000028_Node000035"><a xlink:title=" ">
<path fill="none" stroke="#63b8ff" d="M1490.12,-226.13C1580.73,-219.43 1781.79,-203.77 1950.62,-185 1951.46,-184.91 1952.3,-184.81 1953.15,-184.72"/>
<polygon fill="#63b8ff" stroke="#63b8ff" points="1953.33,-188.22 1962.84,-183.56 1952.5,-181.27 1953.33,-188.22"/>
</a>
</g>
</g>
<!-- Node36 -->
<g id="Node000036" class="node">
<title>Node36</title>
<g id="a_Node000036"><a xlink:href="_c_p_u_types_8h.html" target="_top" xlink:title=" ">
<polygon fill="#fff0f0" stroke="red" points="2154.75,-185 2082.5,-185 2082.5,-165.75 2154.75,-165.75 2154.75,-185"/>
<text text-anchor="middle" x="2118.62" y="-171.5" font-family="Helvetica,sans-Serif" font-size="10.00">CPUTypes.h</text>
</a>
</g>
</g>
<!-- Node28&#45;&gt;Node36 -->
<g id="edge19_Node000028_Node000036" class="edge">
<title>Node28&#45;&gt;Node36</title>
<g id="a_edge19_Node000028_Node000036"><a xlink:title=" ">
<path fill="none" stroke="#63b8ff" d="M1490.19,-228.16C1594.63,-224.6 1848.51,-213.66 2071.09,-185.17"/>
<polygon fill="#63b8ff" stroke="#63b8ff" points="2071.37,-188.67 2080.83,-183.91 2070.47,-181.72 2071.37,-188.67"/>
</a>
</g>
</g>
<!-- Node38 -->
<g id="Node000038" class="node">
<title>Node38</title>
<g id="a_Node000038"><a xlink:href="_datasette_types_8h.html" target="_top" xlink:title=" ">
<polygon fill="#fff0f0" stroke="red" points="2266.25,-185 2173,-185 2173,-165.75 2266.25,-165.75 2266.25,-185"/>
<text text-anchor="middle" x="2219.62" y="-171.5" font-family="Helvetica,sans-Serif" font-size="10.00">DatasetteTypes.h</text>
</a>
</g>
</g>
<!-- Node28&#45;&gt;Node38 -->
<g id="edge20_Node000028_Node000038" class="edge">
<title>Node28&#45;&gt;Node38</title>
<g id="a_edge20_Node000028_Node000038"><a xlink:title=" ">
<path fill="none" stroke="#63b8ff" d="M1489.91,-228.16C1604.54,-224.36 1902.19,-212.57 2161.46,-185.13"/>
<polygon fill="#63b8ff" stroke="#63b8ff" points="2161.54,-188.64 2171.11,-184.09 2160.79,-181.68 2161.54,-188.64"/>
</a>
</g>
</g>
<!-- Node39 -->
<g id="Node000039" class="node">
<title>Node39</title>
<g id="a_Node000039"><a xlink:href="_disk_types_8h.html" target="_top" xlink:title=" ">
<polygon fill="#fff0f0" stroke="red" points="1715,-129.75 1644.25,-129.75 1644.25,-110.5 1715,-110.5 1715,-129.75"/>
<text text-anchor="middle" x="1679.62" y="-116.25" font-family="Helvetica,sans-Serif" font-size="10.00">DiskTypes.h</text>
</a>
</g>
</g>
<!-- Node28&#45;&gt;Node39 -->
<g id="edge21_Node000028_Node000039" class="edge">
<title>Node28&#45;&gt;Node39</title>
<g id="a_edge21_Node000028_Node000039"><a xlink:title=" ">
<path fill="none" stroke="#63b8ff" d="M1444.39,-220.61C1449.18,-206.58 1460.4,-179.68 1479.62,-165.75 1524.62,-133.16 1589.16,-123.72 1632.64,-121.32"/>
<polygon fill="#63b8ff" stroke="#63b8ff" points="1632.69,-124.82 1642.53,-120.89 1632.38,-117.83 1632.69,-124.82"/>
</a>
</g>
</g>
<!-- Node40 -->
<g id="Node000040" class="node">
<title>Node40</title>
<g id="a_Node000040"><a xlink:href="_disk_analyzer_types_8h.html" target="_top" xlink:title=" ">
<polygon fill="#fff0f0" stroke="red" points="1790.12,-185 1681.12,-185 1681.12,-165.75 1790.12,-165.75 1790.12,-185"/>
<text text-anchor="middle" x="1735.62" y="-171.5" font-family="Helvetica,sans-Serif" font-size="10.00">DiskAnalyzerTypes.h</text>
</a>
</g>
</g>
<!-- Node28&#45;&gt;Node40 -->
<g id="edge22_Node000028_Node000040" class="edge">
<title>Node28&#45;&gt;Node40</title>
<g id="a_edge22_Node000028_Node000040"><a xlink:title=" ">
<path fill="none" stroke="#63b8ff" d="M1490.17,-220.83C1540.57,-211.7 1619.55,-197.4 1674.24,-187.49"/>
<polygon fill="#63b8ff" stroke="#63b8ff" points="1674.82,-190.94 1684.04,-185.72 1673.58,-184.06 1674.82,-190.94"/>
</a>
</g>
</g>
<!-- Node41 -->
<g id="Node000041" class="node">
<title>Node41</title>
<g id="a_Node000041"><a xlink:href="_drive_types_8h.html" target="_top" xlink:title=" ">
<polygon fill="#fff0f0" stroke="red" points="2434.5,-185 2360.75,-185 2360.75,-165.75 2434.5,-165.75 2434.5,-185"/>
<text text-anchor="middle" x="2397.62" y="-171.5" font-family="Helvetica,sans-Serif" font-size="10.00">DriveTypes.h</text>
</a>
</g>
</g>
<!-- Node28&#45;&gt;Node41 -->
<g id="edge24_Node000028_Node000041" class="edge">
<title>Node28&#45;&gt;Node41</title>
<g id="a_edge24_Node000028_Node000041"><a xlink:title=" ">
<path fill="none" stroke="#63b8ff" d="M1489.86,-229.25C1625.31,-227.77 2020.56,-220.48 2346.62,-185 2347.46,-184.91 2348.31,-184.81 2349.16,-184.71"/>
<polygon fill="#63b8ff" stroke="#63b8ff" points="2349.43,-188.21 2358.87,-183.4 2348.49,-181.27 2349.43,-188.21"/>
</a>
</g>
</g>
<!-- Node42 -->
<g id="Node000042" class="node">
<title>Node42</title>
<g id="a_Node000042"><a xlink:href="_par_cable_types_8h.html" target="_top" xlink:title=" ">
<polygon fill="#fff0f0" stroke="red" points="2429.12,-129.75 2338.12,-129.75 2338.12,-110.5 2429.12,-110.5 2429.12,-129.75"/>
<text text-anchor="middle" x="2383.62" y="-116.25" font-family="Helvetica,sans-Serif" font-size="10.00">ParCableTypes.h</text>
</a>
</g>
</g>
<!-- Node28&#45;&gt;Node42 -->
<g id="edge37_Node000028_Node000042" class="edge">
<title>Node28&#45;&gt;Node42</title>
<g id="a_edge37_Node000028_Node000042"><a xlink:title=" ">
<path fill="none" stroke="#63b8ff" d="M1489.98,-228.95C1661.2,-226.29 2232.56,-215.25 2308.62,-185 2333.11,-175.27 2355.28,-154.12 2369.06,-138.82"/>
<polygon fill="#63b8ff" stroke="#63b8ff" points="2371.62,-141.21 2375.51,-131.35 2366.33,-136.63 2371.62,-141.21"/>
</a>
</g>
</g>
<!-- Node43 -->
<g id="Node000043" class="node">
<title>Node43</title>
<g id="a_Node000043"><a xlink:href="_emulator_types_8h.html" target="_top" xlink:title=" ">
<polygon fill="#fff0f0" stroke="red" points="252.38,-185 162.88,-185 162.88,-165.75 252.38,-165.75 252.38,-185"/>
<text text-anchor="middle" x="207.62" y="-171.5" font-family="Helvetica,sans-Serif" font-size="10.00">EmulatorTypes.h</text>
</a>
</g>
</g>
<!-- Node28&#45;&gt;Node43 -->
<g id="edge26_Node000028_Node000043" class="edge">
<title>Node28&#45;&gt;Node43</title>
<g id="a_edge26_Node000028_Node000043"><a xlink:title=" ">
<path fill="none" stroke="#63b8ff" d="M1393.11,-229.94C1233.12,-230.51 707.64,-228.77 264.13,-185.23"/>
<polygon fill="#63b8ff" stroke="#63b8ff" points="264.48,-181.75 254.19,-184.25 263.79,-188.71 264.48,-181.75"/>
</a>
</g>
</g>
<!-- Node8 -->
<g id="Node000008" class="node">
<title>Node8</title>
<g id="a_Node000008"><a xlink:href="_error_types_8h.html" target="_top" xlink:title=" ">
<polygon fill="#fff0f0" stroke="red" points="2524.38,-185 2452.88,-185 2452.88,-165.75 2524.38,-165.75 2524.38,-185"/>
<text text-anchor="middle" x="2488.62" y="-171.5" font-family="Helvetica,sans-Serif" font-size="10.00">ErrorTypes.h</text>
</a>
</g>
</g>
<!-- Node28&#45;&gt;Node8 -->
<g id="edge27_Node000028_Node000008" class="edge">
<title>Node28&#45;&gt;Node8</title>
<g id="a_edge27_Node000028_Node000008"><a xlink:title=" ">
<path fill="none" stroke="#63b8ff" d="M1490.05,-229.95C1633.72,-230.38 2070.08,-227.89 2441.59,-185.03"/>
<polygon fill="#63b8ff" stroke="#63b8ff" points="2441.81,-188.53 2451.33,-183.89 2440.99,-181.58 2441.81,-188.53"/>
</a>
</g>
</g>
<!-- Node45 -->
<g id="Node000045" class="node">
<title>Node45</title>
<g id="a_Node000045"><a xlink:href="_expansion_port_types_8h.html" target="_top" xlink:title=" ">
<polygon fill="#fff0f0" stroke="red" points="2656.75,-185 2542.5,-185 2542.5,-165.75 2656.75,-165.75 2656.75,-185"/>
<text text-anchor="middle" x="2599.62" y="-171.5" font-family="Helvetica,sans-Serif" font-size="10.00">ExpansionPortTypes.h</text>
</a>
</g>
</g>
<!-- Node28&#45;&gt;Node45 -->
<g id="edge28_Node000028_Node000045" class="edge">
<title>Node28&#45;&gt;Node45</title>
<g id="a_edge28_Node000028_Node000045"><a xlink:title=" ">
<path fill="none" stroke="#63b8ff" d="M1490.16,-229.18C1642.11,-227.47 2122.4,-219.58 2530.62,-185.18"/>
<polygon fill="#63b8ff" stroke="#63b8ff" points="2530.89,-188.67 2540.56,-184.33 2530.3,-181.69 2530.89,-188.67"/>
</a>
</g>
</g>
<!-- Node46 -->
<g id="Node000046" class="node">
<title>Node46</title>
<g id="a_Node000046"><a xlink:href="_f_s_types_8h.html" target="_top" xlink:title=" ">
<polygon fill="#fff0f0" stroke="red" points="333.25,-185 270,-185 270,-165.75 333.25,-165.75 333.25,-185"/>
<text text-anchor="middle" x="301.62" y="-171.5" font-family="Helvetica,sans-Serif" font-size="10.00">FSTypes.h</text>
</a>
</g>
</g>
<!-- Node28&#45;&gt;Node46 -->
<g id="edge30_Node000028_Node000046" class="edge">
<title>Node28&#45;&gt;Node46</title>
<g id="a_edge30_Node000028_Node000046"><a xlink:title=" ">
<path fill="none" stroke="#63b8ff" d="M1393.03,-228.73C1211.45,-225.22 572.07,-211.35 344.49,-184.94"/>
<polygon fill="#63b8ff" stroke="#63b8ff" points="345.17,-181.49 334.82,-183.77 344.33,-188.44 345.17,-181.49"/>
</a>
</g>
</g>
<!-- Node47 -->
<g id="Node000047" class="node">
<title>Node47</title>
<g id="a_Node000047"><a xlink:href="_core_component_types_8h.html" target="_top" xlink:title=" ">
<polygon fill="#fff0f0" stroke="red" points="473.5,-185 351.75,-185 351.75,-165.75 473.5,-165.75 473.5,-185"/>
<text text-anchor="middle" x="412.62" y="-171.5" font-family="Helvetica,sans-Serif" font-size="10.00">CoreComponentTypes.h</text>
</a>
</g>
</g>
<!-- Node28&#45;&gt;Node47 -->
<g id="edge31_Node000028_Node000047" class="edge">
<title>Node28&#45;&gt;Node47</title>
<g id="a_edge31_Node000028_Node000047"><a xlink:title=" ">
<path fill="none" stroke="#63b8ff" d="M1393.14,-228.67C1253.76,-225.66 839.79,-214.75 484.95,-185.12"/>
<polygon fill="#63b8ff" stroke="#63b8ff" points="485.45,-181.65 475.19,-184.3 484.86,-188.63 485.45,-181.65"/>
</a>
</g>
</g>
<!-- Node48 -->
<g id="Node000048" class="node">
<title>Node48</title>
<g id="a_Node000048"><a xlink:href="_memory_types_8h.html" target="_top" xlink:title=" ">
<polygon fill="#fff0f0" stroke="red" points="577.5,-185 491.75,-185 491.75,-165.75 577.5,-165.75 577.5,-185"/>
<text text-anchor="middle" x="534.62" y="-171.5" font-family="Helvetica,sans-Serif" font-size="10.00">MemoryTypes.h</text>
</a>
</g>
</g>
<!-- Node28&#45;&gt;Node48 -->
<g id="edge33_Node000028_Node000048" class="edge">
<title>Node28&#45;&gt;Node48</title>
<g id="a_edge33_Node000028_Node000048"><a xlink:title=" ">
<path fill="none" stroke="#63b8ff" d="M1393.26,-229C1264.27,-226.93 901.15,-218.45 589.07,-185.14"/>
<polygon fill="#63b8ff" stroke="#63b8ff" points="589.81,-181.7 579.49,-184.1 589.06,-188.66 589.81,-181.7"/>
</a>
</g>
</g>
<!-- Node49 -->
<g id="Node000049" class="node">
<title>Node49</title>
<g id="a_Node000049"><a xlink:href="_mouse_types_8h.html" target="_top" xlink:title=" ">
<polygon fill="#fff0f0" stroke="red" points="675.5,-185 595.75,-185 595.75,-165.75 675.5,-165.75 675.5,-185"/>
<text text-anchor="middle" x="635.62" y="-171.5" font-family="Helvetica,sans-Serif" font-size="10.00">MouseTypes.h</text>
</a>
</g>
</g>
<!-- Node28&#45;&gt;Node49 -->
<g id="edge34_Node000028_Node000049" class="edge">
<title>Node28&#45;&gt;Node49</title>
<g id="a_edge34_Node000028_Node000049"><a xlink:title=" ">
<path fill="none" stroke="#63b8ff" d="M1393.19,-228.71C1274.55,-226.04 959.81,-216.46 687.26,-185.17"/>
<polygon fill="#63b8ff" stroke="#63b8ff" points="687.79,-181.7 677.45,-184.03 686.98,-188.66 687.79,-181.7"/>
</a>
</g>
</g>
<!-- Node50 -->
<g id="Node000050" class="node">
<title>Node50</title>
<g id="a_Node000050"><a xlink:href="_msg_queue_types_8h.html" target="_top" xlink:title=" ">
<polygon fill="#fff0f0" stroke="red" points="791.5,-185 693.75,-185 693.75,-165.75 791.5,-165.75 791.5,-185"/>
<text text-anchor="middle" x="742.62" y="-171.5" font-family="Helvetica,sans-Serif" font-size="10.00">MsgQueueTypes.h</text>
</a>
</g>
</g>
<!-- Node28&#45;&gt;Node50 -->
<g id="edge35_Node000028_Node000050" class="edge">
<title>Node28&#45;&gt;Node50</title>
<g id="a_edge35_Node000028_Node000050"><a xlink:title=" ">
<path fill="none" stroke="#63b8ff" d="M1393.18,-227.6C1287.76,-222.89 1029.39,-209.81 803.15,-185.31"/>
<polygon fill="#63b8ff" stroke="#63b8ff" points="803.54,-181.83 793.22,-184.23 802.78,-188.79 803.54,-181.83"/>
</a>
</g>
</g>
<!-- Node51 -->
<g id="Node000051" class="node">
<title>Node51</title>
<g id="a_Node000051"><a xlink:href="_option_types_8h.html" target="_top" xlink:title=" ">
<polygon fill="#fff0f0" stroke="red" points="888.12,-185 809.12,-185 809.12,-165.75 888.12,-165.75 888.12,-185"/>
<text text-anchor="middle" x="848.62" y="-171.5" font-family="Helvetica,sans-Serif" font-size="10.00">OptionTypes.h</text>
</a>
</g>
</g>
<!-- Node28&#45;&gt;Node51 -->
<g id="edge36_Node000028_Node000051" class="edge">
<title>Node28&#45;&gt;Node51</title>
<g id="a_edge36_Node000028_Node000051"><a xlink:title=" ">
<path fill="none" stroke="#63b8ff" d="M1393.07,-227.15C1299.65,-222.06 1088.19,-208.97 899.66,-185.13"/>
<polygon fill="#63b8ff" stroke="#63b8ff" points="900.29,-181.69 889.93,-183.89 899.4,-188.63 900.29,-181.69"/>
</a>
</g>
</g>
<!-- Node52 -->
<g id="Node000052" class="node">
<title>Node52</title>
<g id="a_Node000052"><a xlink:href="_power_supply_types_8h.html" target="_top" xlink:title=" ">
<polygon fill="#fff0f0" stroke="red" points="1014.75,-185 906.5,-185 906.5,-165.75 1014.75,-165.75 1014.75,-185"/>
<text text-anchor="middle" x="960.62" y="-171.5" font-family="Helvetica,sans-Serif" font-size="10.00">PowerSupplyTypes.h</text>
</a>
</g>
</g>
<!-- Node28&#45;&gt;Node52 -->
<g id="edge38_Node000028_Node000052" class="edge">
<title>Node28&#45;&gt;Node52</title>
<g id="a_edge38_Node000028_Node000052"><a xlink:title=" ">
<path fill="none" stroke="#63b8ff" d="M1393.3,-224.94C1317.46,-217.48 1165.57,-202.12 1026.52,-185.32"/>
<polygon fill="#63b8ff" stroke="#63b8ff" points="1027.1,-181.87 1016.75,-184.14 1026.26,-188.82 1027.1,-181.87"/>
</a>
</g>
</g>
<!-- Node53 -->
<g id="Node000053" class="node">
<title>Node53</title>
<g id="a_Node000053"><a xlink:href="_retro_shell_types_8h.html" target="_top" xlink:title=" ">
<polygon fill="#fff0f0" stroke="red" points="1128.75,-185 1032.5,-185 1032.5,-165.75 1128.75,-165.75 1128.75,-185"/>
<text text-anchor="middle" x="1080.62" y="-171.5" font-family="Helvetica,sans-Serif" font-size="10.00">RetroShellTypes.h</text>
</a>
</g>
</g>
<!-- Node28&#45;&gt;Node53 -->
<g id="edge39_Node000028_Node000053" class="edge">
<title>Node28&#45;&gt;Node53</title>
<g id="a_edge39_Node000028_Node000053"><a xlink:title=" ">
<path fill="none" stroke="#63b8ff" d="M1393.18,-222.58C1335.46,-214.17 1235.8,-199.61 1140.44,-185.41"/>
<polygon fill="#63b8ff" stroke="#63b8ff" points="1141.04,-181.96 1130.63,-183.95 1140,-188.89 1141.04,-181.96"/>
</a>
</g>
</g>
<!-- Node54 -->
<g id="Node000054" class="node">
<title>Node54</title>
<g id="a_Node000054"><a xlink:href="_s_i_d_types_8h.html" target="_top" xlink:title=" ">
<polygon fill="#fff0f0" stroke="red" points="1214.5,-185 1146.75,-185 1146.75,-165.75 1214.5,-165.75 1214.5,-185"/>
<text text-anchor="middle" x="1180.62" y="-171.5" font-family="Helvetica,sans-Serif" font-size="10.00">SIDTypes.h</text>
</a>
</g>
</g>
<!-- Node28&#45;&gt;Node54 -->
<g id="edge40_Node000028_Node000054" class="edge">
<title>Node28&#45;&gt;Node54</title>
<g id="a_edge40_Node000028_Node000054"><a xlink:title=" ">
<path fill="none" stroke="#63b8ff" d="M1397.05,-220.53C1349.2,-210.77 1273.61,-195.35 1225.6,-185.55"/>
<polygon fill="#63b8ff" stroke="#63b8ff" points="1226.6,-182.18 1216.1,-183.61 1225.2,-189.04 1226.6,-182.18"/>
</a>
</g>
</g>
<!-- Node55 -->
<g id="Node000055" class="node">
<title>Node55</title>
<g id="a_Node000055"><a xlink:href="_v_i_c_i_i_types_8h.html" target="_top" xlink:title=" ">
<polygon fill="#fff0f0" stroke="red" points="1306.5,-185 1232.75,-185 1232.75,-165.75 1306.5,-165.75 1306.5,-185"/>
<text text-anchor="middle" x="1269.62" y="-171.5" font-family="Helvetica,sans-Serif" font-size="10.00">VICIITypes.h</text>
</a>
</g>
</g>
<!-- Node28&#45;&gt;Node55 -->
<g id="edge41_Node000028_Node000055" class="edge">
<title>Node28&#45;&gt;Node55</title>
<g id="a_edge41_Node000028_Node000055"><a xlink:title=" ">
<path fill="none" stroke="#63b8ff" d="M1412.45,-220.59C1384.15,-211.83 1341.01,-198.48 1309.54,-188.73"/>
<polygon fill="#63b8ff" stroke="#63b8ff" points="1310.98,-185.51 1300.39,-185.9 1308.91,-192.2 1310.98,-185.51"/>
</a>
</g>
</g>
<!-- Node59 -->
<g id="Node000059" class="node">
<title>Node59</title>
<g id="a_Node000059"><a xlink:href="_constants_8h.html" target="_top" xlink:title=" ">
<polygon fill="white" stroke="#666666" points="1394.25,-185 1325,-185 1325,-165.75 1394.25,-165.75 1394.25,-185"/>
<text text-anchor="middle" x="1359.62" y="-171.5" font-family="Helvetica,sans-Serif" font-size="10.00">Constants.h</text>
</a>
</g>
</g>
<!-- Node28&#45;&gt;Node59 -->
<g id="edge42_Node000028_Node000059" class="edge">
<title>Node28&#45;&gt;Node59</title>
<g id="a_edge42_Node000028_Node000059"><a xlink:title=" ">
<path fill="none" stroke="#63b8ff" d="M1427.71,-220.59C1415.46,-212.64 1397.37,-200.89 1382.91,-191.5"/>
<polygon fill="#63b8ff" stroke="#63b8ff" points="1385.17,-188.79 1374.87,-186.28 1381.35,-194.66 1385.17,-188.79"/>
</a>
</g>
</g>
<!-- Node33&#45;&gt;Node34 -->
<g id="edge17_Node000033_Node000034" class="edge">
<title>Node33&#45;&gt;Node34</title>
<g id="a_edge17_Node000033_Node000034"><a xlink:title=" ">
<path fill="none" stroke="#63b8ff" d="M1865.07,-165.58C1870.28,-158.46 1877.81,-148.18 1884.32,-139.3"/>
<polygon fill="#63b8ff" stroke="#63b8ff" points="1887.07,-141.47 1890.15,-131.33 1881.42,-137.33 1887.07,-141.47"/>
</a>
</g>
</g>
<!-- Node40&#45;&gt;Node39 -->
<g id="edge23_Node000040_Node000039" class="edge">
<title>Node40&#45;&gt;Node39</title>
<g id="a_edge23_Node000040_Node000039"><a xlink:title=" ">
<path fill="none" stroke="#63b8ff" d="M1726.13,-165.34C1718.19,-157.8 1706.68,-146.85 1697.09,-137.73"/>
<polygon fill="#63b8ff" stroke="#63b8ff" points="1699.74,-135.42 1690.08,-131.07 1694.92,-140.49 1699.74,-135.42"/>
</a>
</g>
</g>
<!-- Node41&#45;&gt;Node42 -->
<g id="edge25_Node000041_Node000042" class="edge">
<title>Node41&#45;&gt;Node42</title>
<g id="a_edge25_Node000041_Node000042"><a xlink:title=" ">
<path fill="none" stroke="#63b8ff" d="M2395.31,-165.58C2393.56,-158.92 2391.08,-149.49 2388.86,-141.03"/>
<polygon fill="#63b8ff" stroke="#63b8ff" points="2392.3,-140.35 2386.37,-131.57 2385.53,-142.13 2392.3,-140.35"/>
</a>
</g>
</g>
<!-- Node60&#45;&gt;Node43 -->
<g id="edge46_Node000060_Node000043" class="edge">
<title>Node60&#45;&gt;Node43</title>
<g id="a_edge46_Node000060_Node000043"><a xlink:title=" ">
<path fill="none" stroke="#63b8ff" d="M207.62,-220.83C207.62,-214.32 207.62,-205.17 207.62,-196.87"/>
<polygon fill="#63b8ff" stroke="#63b8ff" points="211.13,-196.87 207.63,-186.87 204.13,-196.87 211.13,-196.87"/>
</a>
</g>
</g>
<!-- Node61 -->
<g id="Node000061" class="node">
<title>Node61</title>
<g id="a_Node000061"><a xlink:href="_c64_8h.html" target="_top" xlink:title=" ">
<polygon fill="#fff0f0" stroke="red" points="144.75,-185 102.5,-185 102.5,-165.75 144.75,-165.75 144.75,-185"/>
<text text-anchor="middle" x="123.62" y="-171.5" font-family="Helvetica,sans-Serif" font-size="10.00">C64.h</text>
</a>
</g>
</g>
<!-- Node60&#45;&gt;Node61 -->
<g id="edge44_Node000060_Node000061" class="edge">
<title>Node60&#45;&gt;Node61</title>
<g id="a_edge44_Node000060_Node000061"><a xlink:title=" ">
<path fill="none" stroke="#63b8ff" d="M193.38,-220.59C180.83,-212.64 162.29,-200.89 147.48,-191.5"/>
<polygon fill="#63b8ff" stroke="#63b8ff" points="149.54,-188.66 139.22,-186.26 145.79,-194.57 149.54,-188.66"/>
</a>
</g>
</g>
<!-- Node61&#45;&gt;Node29 -->
<g id="edge45_Node000061_Node000029" class="edge">
<title>Node61&#45;&gt;Node29</title>
<g id="a_edge45_Node000061_Node000029"><a xlink:title=" ">
<path fill="none" stroke="#63b8ff" d="M145.11,-167.5C147.95,-166.79 150.84,-166.18 153.62,-165.75 713.6,-78.82 867.79,-192.56 1433.65,-129.87"/>
<polygon fill="#63b8ff" stroke="#63b8ff" points="1433.92,-133.36 1443.47,-128.77 1433.14,-126.41 1433.92,-133.36"/>
</a>
</g>
</g>
<!-- Node201&#45;&gt;Node4 -->
<g id="edge48_Node000201_Node000004" class="edge">
<title>Node201&#45;&gt;Node4</title>
<g id="a_edge48_Node000201_Node000004"><a xlink:title=" ">
<path fill="none" stroke="#63b8ff" d="M120.24,-220.59C109.48,-212.74 93.65,-201.2 80.87,-191.87"/>
<polygon fill="#63b8ff" stroke="#63b8ff" points="83.19,-189.23 73.05,-186.17 79.06,-194.89 83.19,-189.23"/>
</a>
</g>
</g>
<!-- Node75&#45;&gt;Node25 -->
<g id="edge59_Node000075_Node000025" class="edge">
<title>Node75&#45;&gt;Node25</title>
<g id="a_edge59_Node000075_Node000025"><a xlink:title=" ">
<path fill="none" stroke="#63b8ff" d="M2713.07,-113.44C2708.25,-112.45 2703.29,-111.44 2698.62,-110.5 2621.69,-94.95 2599.51,-92.76 2520.57,-75.08"/>
<polygon fill="#63b8ff" stroke="#63b8ff" points="2521.58,-71.73 2511.06,-72.94 2520.04,-78.55 2521.58,-71.73"/>
</a>
</g>
</g>
<!-- Node75&#45;&gt;Node26 -->
<g id="edge56_Node000075_Node000026" class="edge">
<title>Node75&#45;&gt;Node26</title>
<g id="a_edge56_Node000075_Node000026"><a xlink:title=" ">
<path fill="none" stroke="#63b8ff" d="M2712.84,-114.92C2660.93,-107.04 2545.68,-89.53 2448.62,-74.5 2442.48,-73.55 2435.94,-72.53 2429.6,-71.54"/>
<polygon fill="#63b8ff" stroke="#63b8ff" points="2430.45,-68.13 2420.03,-70.04 2429.37,-75.04 2430.45,-68.13"/>
</a>
</g>
</g>
<!-- Node11 -->
<g id="Node000011" class="node">
<title>Node11</title>
<g id="a_Node000011"><a xlink:href="_types_8h.html" target="_top" xlink:title=" ">
<polygon fill="#fff0f0" stroke="red" points="2654.88,-19.25 2604.38,-19.25 2604.38,0 2654.88,0 2654.88,-19.25"/>
<text text-anchor="middle" x="2629.62" y="-5.75" font-family="Helvetica,sans-Serif" font-size="10.00">Types.h</text>
</a>
</g>
</g>
<!-- Node75&#45;&gt;Node11 -->
<g id="edge50_Node000075_Node000011" class="edge">
<title>Node75&#45;&gt;Node11</title>
<g id="a_edge50_Node000075_Node000011"><a xlink:title=" ">
<path fill="none" stroke="#63b8ff" d="M2712.81,-111.19C2684.42,-102.47 2643.2,-87.94 2633.62,-74.5 2624.64,-61.89 2624.25,-44.08 2625.76,-30.47"/>
<polygon fill="#63b8ff" stroke="#63b8ff" points="2629.17,-31.34 2627.26,-20.92 2622.25,-30.26 2629.17,-31.34"/>
</a>
</g>
</g>
<!-- Node76 -->
<g id="Node000076" class="node">
<title>Node76</title>
<g id="a_Node000076"><a xlink:href="_string_utils_8h.html" target="_top" xlink:title=" ">
<polygon fill="white" stroke="#666666" points="2712.62,-74.5 2642.62,-74.5 2642.62,-55.25 2712.62,-55.25 2712.62,-74.5"/>
<text text-anchor="middle" x="2677.62" y="-61" font-family="Helvetica,sans-Serif" font-size="10.00">StringUtils.h</text>
</a>
</g>
</g>
<!-- Node75&#45;&gt;Node76 -->
<g id="edge51_Node000075_Node000076" class="edge">
<title>Node75&#45;&gt;Node76</title>
<g id="a_edge51_Node000075_Node000076"><a xlink:title=" ">
<path fill="none" stroke="#63b8ff" d="M2729.94,-110.09C2720.92,-102.47 2707.79,-91.37 2696.94,-82.2"/>
<polygon fill="#63b8ff" stroke="#63b8ff" points="2699.21,-79.53 2689.31,-75.75 2694.69,-84.88 2699.21,-79.53"/>
</a>
</g>
</g>
<!-- Node77 -->
<g id="Node000077" class="node">
<title>Node77</title>
<g id="a_Node000077"><a xlink:title=" ">
<polygon fill="#e0e0e0" stroke="#999999" points="2746.12,-19.25 2703.12,-19.25 2703.12,0 2746.12,0 2746.12,-19.25"/>
<text text-anchor="middle" x="2724.62" y="-5.75" font-family="Helvetica,sans-Serif" font-size="10.00">vector</text>
</a>
</g>
</g>
<!-- Node75&#45;&gt;Node77 -->
<g id="edge61_Node000075_Node000077" class="edge">
<title>Node75&#45;&gt;Node77</title>
<g id="a_edge61_Node000075_Node000077"><a xlink:title=" ">
<path fill="none" stroke="#63b8ff" d="M2739.32,-110.25C2736.77,-93 2731.11,-54.58 2727.6,-30.81"/>
<polygon fill="#63b8ff" stroke="#63b8ff" points="2731.09,-30.51 2726.17,-21.12 2724.17,-31.53 2731.09,-30.51"/>
</a>
</g>
</g>
<!-- Node78 -->
<g id="Node000078" class="node">
<title>Node78</title>
<g id="a_Node000078"><a xlink:title=" ">
<polygon fill="#e0e0e0" stroke="#999999" points="2812.12,-74.5 2769.12,-74.5 2769.12,-55.25 2812.12,-55.25 2812.12,-74.5"/>
<text text-anchor="middle" x="2790.62" y="-61" font-family="Helvetica,sans-Serif" font-size="10.00">fcntl.h</text>
</a>
</g>
</g>
<!-- Node75&#45;&gt;Node78 -->
<g id="edge54_Node000075_Node000078" class="edge">
<title>Node75&#45;&gt;Node78</title>
<g id="a_edge54_Node000075_Node000078"><a xlink:title=" ">
<path fill="none" stroke="#63b8ff" d="M2748.88,-110.33C2755.79,-102.98 2765.85,-92.26 2774.36,-83.19"/>
<polygon fill="#63b8ff" stroke="#63b8ff" points="2776.86,-85.65 2781.15,-75.96 2771.76,-80.86 2776.86,-85.65"/>
</a>
</g>
</g>
<!-- Node79 -->
<g id="Node000079" class="node">
<title>Node79</title>
<g id="a_Node000079"><a xlink:title=" ">
<polygon fill="#e0e0e0" stroke="#999999" points="2891.12,-74.5 2830.12,-74.5 2830.12,-55.25 2891.12,-55.25 2891.12,-74.5"/>
<text text-anchor="middle" x="2860.62" y="-61" font-family="Helvetica,sans-Serif" font-size="10.00">filesystem</text>
</a>
</g>
</g>
<!-- Node75&#45;&gt;Node79 -->
<g id="edge55_Node000075_Node000079" class="edge">
<title>Node75&#45;&gt;Node79</title>
<g id="a_edge55_Node000075_Node000079"><a xlink:title=" ">
<path fill="none" stroke="#63b8ff" d="M2760.98,-110.09C2779.86,-101.72 2808.21,-89.13 2829.85,-79.53"/>
<polygon fill="#63b8ff" stroke="#63b8ff" points="2831.06,-82.82 2838.79,-75.57 2828.23,-76.42 2831.06,-82.82"/>
</a>
</g>
</g>
<!-- Node80 -->
<g id="Node000080" class="node">
<title>Node80</title>
<g id="a_Node000080"><a xlink:title=" ">
<polygon fill="#e0e0e0" stroke="#999999" points="2957.75,-74.5 2909.5,-74.5 2909.5,-55.25 2957.75,-55.25 2957.75,-74.5"/>
<text text-anchor="middle" x="2933.62" y="-61" font-family="Helvetica,sans-Serif" font-size="10.00">istream</text>
</a>
</g>
</g>
<!-- Node75&#45;&gt;Node80 -->
<g id="edge57_Node000075_Node000080" class="edge">
<title>Node75&#45;&gt;Node80</title>
<g id="a_edge57_Node000075_Node000080"><a xlink:title=" ">
<path fill="none" stroke="#63b8ff" d="M2768.28,-111.5C2802.47,-102.06 2860.73,-85.99 2898.18,-75.66"/>
<polygon fill="#63b8ff" stroke="#63b8ff" points="2898.91,-79.08 2907.62,-73.05 2897.05,-72.34 2898.91,-79.08"/>
</a>
</g>
</g>
<!-- Node19 -->
<g id="Node000019" class="node">
<title>Node19</title>
<g id="a_Node000019"><a xlink:title=" ">
<polygon fill="#e0e0e0" stroke="#999999" points="3029.38,-74.5 2975.88,-74.5 2975.88,-55.25 3029.38,-55.25 3029.38,-74.5"/>
<text text-anchor="middle" x="3002.62" y="-61" font-family="Helvetica,sans-Serif" font-size="10.00">iostream</text>
</a>
</g>
</g>
<!-- Node75&#45;&gt;Node19 -->
<g id="edge58_Node000075_Node000019" class="edge">
<title>Node75&#45;&gt;Node19</title>
<g id="a_edge58_Node000075_Node000019"><a xlink:title=" ">
<path fill="none" stroke="#63b8ff" d="M2768.53,-113.99C2809.37,-106.39 2888.03,-91.45 2964.72,-74.85"/>
<polygon fill="#63b8ff" stroke="#63b8ff" points="2965.02,-78.36 2974.05,-72.81 2963.53,-71.52 2965.02,-78.36"/>
</a>
</g>
</g>
<!-- Node81 -->
<g id="Node000081" class="node">
<title>Node81</title>
<g id="a_Node000081"><a xlink:title=" ">
<polygon fill="#e0e0e0" stroke="#999999" points="2586.38,-74.5 2526.88,-74.5 2526.88,-55.25 2586.38,-55.25 2586.38,-74.5"/>
<text text-anchor="middle" x="2556.62" y="-61" font-family="Helvetica,sans-Serif" font-size="10.00">sys/stat.h</text>
</a>
</g>
</g>
<!-- Node75&#45;&gt;Node81 -->
<g id="edge60_Node000075_Node000081" class="edge">
<title>Node75&#45;&gt;Node81</title>
<g id="a_edge60_Node000075_Node000081"><a xlink:title=" ">
<path fill="none" stroke="#63b8ff" d="M2712.68,-111.04C2682.02,-102.16 2632.51,-87.84 2597.49,-77.7"/>
<polygon fill="#63b8ff" stroke="#63b8ff" points="2598.7,-74.41 2588.12,-74.99 2596.76,-81.13 2598.7,-74.41"/>
</a>
</g>
</g>
<!-- Node76&#45;&gt;Node11 -->
<g id="edge52_Node000076_Node000011" class="edge">
<title>Node76&#45;&gt;Node11</title>
<g id="a_edge52_Node000076_Node000011"><a xlink:title=" ">
<path fill="none" stroke="#63b8ff" d="M2669.7,-55.08C2663.07,-47.73 2653.41,-37.01 2645.24,-27.94"/>
<polygon fill="#63b8ff" stroke="#63b8ff" points="2648.03,-25.82 2638.74,-20.73 2642.83,-30.5 2648.03,-25.82"/>
</a>
</g>
</g>
<!-- Node76&#45;&gt;Node77 -->
<g id="edge53_Node000076_Node000077" class="edge">
<title>Node76&#45;&gt;Node77</title>
<g id="a_edge53_Node000076_Node000077"><a xlink:title=" ">
<path fill="none" stroke="#63b8ff" d="M2685.39,-55.08C2691.81,-47.8 2701.14,-37.23 2709.09,-28.23"/>
<polygon fill="#63b8ff" stroke="#63b8ff" points="2711.7,-30.56 2715.69,-20.74 2706.45,-25.93 2711.7,-30.56"/>
</a>
</g>
</g>
</g>
</svg>
