<?xml version="1.0" encoding="UTF-8" standalone="no"?>
<!DOCTYPE svg PUBLIC "-//W3C//DTD SVG 1.1//EN"
 "http://www.w3.org/Graphics/SVG/1.1/DTD/svg11.dtd">
<!-- Generated by graphviz version 10.0.1 (20240210.2158)
 -->
<!-- Title: /Users/hoff/Retro/virtualc64/Emulator/Media/Script.h Pages: 1 -->
<svg width="610pt" height="316pt"
 viewBox="0.00 0.00 609.75 315.75" xmlns="http://www.w3.org/2000/svg" xmlns:xlink="http://www.w3.org/1999/xlink">
<g id="graph0" class="graph" transform="scale(1 1) rotate(0) translate(4 311.75)">
<title>/Users/hoff/Retro/virtualc64/Emulator/Media/Script.h</title>
<!-- Node1 -->
<g id="Node000001" class="node">
<title>Node1</title>
<g id="a_Node000001"><a xlink:title=" ">
<polygon fill="#999999" stroke="#666666" points="461.75,-307.75 325,-307.75 325,-277.25 461.75,-277.25 461.75,-307.75"/>
<text text-anchor="start" x="333" y="-294.25" font-family="Helvetica,sans-Serif" font-size="10.00">/Users/hoff/Retro/virtualc64</text>
<text text-anchor="middle" x="393.38" y="-283" font-family="Helvetica,sans-Serif" font-size="10.00">/Emulator/Media/Script.h</text>
</a>
</g>
</g>
<!-- Node2 -->
<g id="Node000002" class="node">
<title>Node2</title>
<g id="a_Node000002"><a xlink:href="_any_file_8cpp.html" target="_top" xlink:title=" ">
<polygon fill="white" stroke="#666666" points="307.38,-241.25 165.38,-241.25 165.38,-210.75 307.38,-210.75 307.38,-241.25"/>
<text text-anchor="start" x="173.38" y="-227.75" font-family="Helvetica,sans-Serif" font-size="10.00">/Users/hoff/Retro/virtualc64</text>
<text text-anchor="middle" x="236.38" y="-216.5" font-family="Helvetica,sans-Serif" font-size="10.00">/Emulator/Media/AnyFile.cpp</text>
</a>
</g>
</g>
<!-- Node1&#45;&gt;Node2 -->
<g id="edge1_Node000001_Node000002" class="edge">
<title>Node1&#45;&gt;Node2</title>
<g id="a_edge1_Node000001_Node000002"><a xlink:title=" ">
<path fill="none" stroke="#63b8ff" d="M347.12,-272.5C323.17,-262.66 294.36,-250.82 272.13,-241.69"/>
<polygon fill="#63b8ff" stroke="#63b8ff" points="345.77,-275.73 356.35,-276.29 348.43,-269.25 345.77,-275.73"/>
</a>
</g>
</g>
<!-- Node3 -->
<g id="Node000003" class="node">
<title>Node3</title>
<g id="a_Node000003"><a xlink:href="_media_8h.html" target="_top" xlink:title=" ">
<polygon fill="white" stroke="#666666" points="461.75,-241.25 325,-241.25 325,-210.75 461.75,-210.75 461.75,-241.25"/>
<text text-anchor="start" x="333" y="-227.75" font-family="Helvetica,sans-Serif" font-size="10.00">/Users/hoff/Retro/virtualc64</text>
<text text-anchor="middle" x="393.38" y="-216.5" font-family="Helvetica,sans-Serif" font-size="10.00">/Emulator/Media/Media.h</text>
</a>
</g>
</g>
<!-- Node1&#45;&gt;Node3 -->
<g id="edge2_Node000001_Node000003" class="edge">
<title>Node1&#45;&gt;Node3</title>
<g id="a_edge2_Node000001_Node000003"><a xlink:title=" ">
<path fill="none" stroke="#63b8ff" d="M393.38,-265.56C393.38,-257.39 393.38,-248.66 393.38,-241.58"/>
<polygon fill="#63b8ff" stroke="#63b8ff" points="389.88,-265.35 393.38,-275.35 396.88,-265.35 389.88,-265.35"/>
</a>
</g>
</g>
<!-- Node7 -->
<g id="Node000007" class="node">
<title>Node7</title>
<g id="a_Node000007"><a xlink:href="_script_8cpp.html" target="_top" xlink:title=" ">
<polygon fill="white" stroke="#666666" points="601.75,-102.62 465,-102.62 465,-72.12 601.75,-72.12 601.75,-102.62"/>
<text text-anchor="start" x="473" y="-89.12" font-family="Helvetica,sans-Serif" font-size="10.00">/Users/hoff/Retro/virtualc64</text>
<text text-anchor="middle" x="533.38" y="-77.88" font-family="Helvetica,sans-Serif" font-size="10.00">/Emulator/Media/Script.cpp</text>
</a>
</g>
</g>
<!-- Node1&#45;&gt;Node7 -->
<g id="edge9_Node000001_Node000007" class="edge">
<title>Node1&#45;&gt;Node7</title>
<g id="a_edge9_Node000001_Node000007"><a xlink:title=" ">
<path fill="none" stroke="#63b8ff" d="M434.07,-271.28C446.99,-263.32 460.48,-253.2 470.38,-241.25 506.08,-198.14 523.95,-132.01 530.43,-102.94"/>
<polygon fill="#63b8ff" stroke="#63b8ff" points="432.55,-268.11 425.68,-276.18 436.08,-274.16 432.55,-268.11"/>
</a>
</g>
</g>
<!-- Node4 -->
<g id="Node000004" class="node">
<title>Node4</title>
<g id="a_Node000004"><a xlink:href="_virtual_c64_8h.html" target="_top" xlink:title=" ">
<polygon fill="white" stroke="#666666" points="446.75,-174.75 310,-174.75 310,-144.25 446.75,-144.25 446.75,-174.75"/>
<text text-anchor="start" x="318" y="-161.25" font-family="Helvetica,sans-Serif" font-size="10.00">/Users/hoff/Retro/virtualc64</text>
<text text-anchor="middle" x="378.38" y="-150" font-family="Helvetica,sans-Serif" font-size="10.00">/Emulator/VirtualC64.h</text>
</a>
</g>
</g>
<!-- Node3&#45;&gt;Node4 -->
<g id="edge3_Node000003_Node000004" class="edge">
<title>Node3&#45;&gt;Node4</title>
<g id="a_edge3_Node000003_Node000004"><a xlink:title=" ">
<path fill="none" stroke="#63b8ff" d="M387.41,-199.34C385.49,-191.09 383.43,-182.24 381.77,-175.08"/>
<polygon fill="#63b8ff" stroke="#63b8ff" points="383.95,-199.94 389.63,-208.89 390.77,-198.36 383.95,-199.94"/>
</a>
</g>
</g>
<!-- Node5 -->
<g id="Node000005" class="node">
<title>Node5</title>
<g id="a_Node000005"><a xlink:href="_headless_8h.html" target="_top" xlink:title=" ">
<polygon fill="white" stroke="#666666" points="136.75,-102.62 0,-102.62 0,-72.12 136.75,-72.12 136.75,-102.62"/>
<text text-anchor="start" x="8" y="-89.12" font-family="Helvetica,sans-Serif" font-size="10.00">/Users/hoff/Retro/virtualc64</text>
<text text-anchor="middle" x="68.38" y="-77.88" font-family="Helvetica,sans-Serif" font-size="10.00">/Emulator/Headless.h</text>
</a>
</g>
</g>
<!-- Node4&#45;&gt;Node5 -->
<g id="edge4_Node000004_Node000005" class="edge">
<title>Node4&#45;&gt;Node5</title>
<g id="a_edge4_Node000004_Node000005"><a xlink:title=" ">
<path fill="none" stroke="#63b8ff" d="M298.58,-141.96C253.76,-132.49 196.85,-120.14 146.38,-108.25 139.44,-106.62 132.17,-104.84 124.98,-103.05"/>
<polygon fill="#63b8ff" stroke="#63b8ff" points="297.72,-145.36 308.22,-144 299.16,-138.51 297.72,-145.36"/>
</a>
</g>
</g>
<!-- Node4&#45;&gt;Node7 -->
<g id="edge6_Node000004_Node000007" class="edge">
<title>Node4&#45;&gt;Node7</title>
<g id="a_edge6_Node000004_Node000007"><a xlink:title=" ">
<path fill="none" stroke="#63b8ff" d="M421.25,-139.1C446.44,-127.7 477.79,-113.52 500.92,-103.06"/>
<polygon fill="#63b8ff" stroke="#63b8ff" points="419.92,-135.86 412.25,-143.18 422.8,-142.24 419.92,-135.86"/>
</a>
</g>
</g>
<!-- Node8 -->
<g id="Node000008" class="node">
<title>Node8</title>
<g id="a_Node000008"><a xlink:href="_retro_shell_8cpp.html" target="_top" xlink:title=" ">
<polygon fill="white" stroke="#666666" points="291.75,-108.25 155,-108.25 155,-66.5 291.75,-66.5 291.75,-108.25"/>
<text text-anchor="start" x="163" y="-94.75" font-family="Helvetica,sans-Serif" font-size="10.00">/Users/hoff/Retro/virtualc64</text>
<text text-anchor="start" x="163" y="-83.5" font-family="Helvetica,sans-Serif" font-size="10.00">/Emulator/Misc/RetroShell</text>
<text text-anchor="middle" x="223.38" y="-72.25" font-family="Helvetica,sans-Serif" font-size="10.00">/RetroShell.cpp</text>
</a>
</g>
</g>
<!-- Node4&#45;&gt;Node8 -->
<g id="edge7_Node000004_Node000008" class="edge">
<title>Node4&#45;&gt;Node8</title>
<g id="a_edge7_Node000004_Node000008"><a xlink:title=" ">
<path fill="none" stroke="#63b8ff" d="M335.66,-139.17C314.68,-129.68 289.42,-118.25 268.17,-108.64"/>
<polygon fill="#63b8ff" stroke="#63b8ff" points="333.95,-142.24 344.5,-143.18 336.83,-135.86 333.95,-142.24"/>
</a>
</g>
</g>
<!-- Node9 -->
<g id="Node000009" class="node">
<title>Node9</title>
<g id="a_Node000009"><a xlink:href="_virtual_c64_8cpp.html" target="_top" xlink:title=" ">
<polygon fill="white" stroke="#666666" points="446.75,-102.62 310,-102.62 310,-72.12 446.75,-72.12 446.75,-102.62"/>
<text text-anchor="start" x="318" y="-89.12" font-family="Helvetica,sans-Serif" font-size="10.00">/Users/hoff/Retro/virtualc64</text>
<text text-anchor="middle" x="378.38" y="-77.88" font-family="Helvetica,sans-Serif" font-size="10.00">/Emulator/VirtualC64.cpp</text>
</a>
</g>
</g>
<!-- Node4&#45;&gt;Node9 -->
<g id="edge8_Node000004_Node000009" class="edge">
<title>Node4&#45;&gt;Node9</title>
<g id="a_edge8_Node000004_Node000009"><a xlink:title=" ">
<path fill="none" stroke="#63b8ff" d="M378.38,-132.52C378.38,-122.51 378.38,-111.44 378.38,-102.89"/>
<polygon fill="#63b8ff" stroke="#63b8ff" points="374.88,-132.46 378.38,-142.46 381.88,-132.46 374.88,-132.46"/>
</a>
</g>
</g>
<!-- Node6 -->
<g id="Node000006" class="node">
<title>Node6</title>
<g id="a_Node000006"><a xlink:href="_headless_8cpp.html" target="_top" xlink:title=" ">
<polygon fill="white" stroke="#666666" points="136.75,-30.5 0,-30.5 0,0 136.75,0 136.75,-30.5"/>
<text text-anchor="start" x="8" y="-17" font-family="Helvetica,sans-Serif" font-size="10.00">/Users/hoff/Retro/virtualc64</text>
<text text-anchor="middle" x="68.38" y="-5.75" font-family="Helvetica,sans-Serif" font-size="10.00">/Emulator/Headless.cpp</text>
</a>
</g>
</g>
<!-- Node5&#45;&gt;Node6 -->
<g id="edge5_Node000005_Node000006" class="edge">
<title>Node5&#45;&gt;Node6</title>
<g id="a_edge5_Node000005_Node000006"><a xlink:title=" ">
<path fill="none" stroke="#63b8ff" d="M68.38,-60.4C68.38,-50.39 68.38,-39.31 68.38,-30.76"/>
<polygon fill="#63b8ff" stroke="#63b8ff" points="64.88,-60.33 68.38,-70.33 71.88,-60.33 64.88,-60.33"/>
</a>
</g>
</g>
</g>
</svg>
