<?xml version="1.0" encoding="UTF-8" standalone="no"?>
<!DOCTYPE svg PUBLIC "-//W3C//DTD SVG 1.1//EN"
 "http://www.w3.org/Graphics/SVG/1.1/DTD/svg11.dtd">
<!-- Generated by graphviz version 10.0.1 (20240210.2158)
 -->
<!-- Title: /Users/hoff/Retro/virtualc64/Emulator/Base/Serializable.cpp Pages: 1 -->
<svg width="164pt" height="149pt"
 viewBox="0.00 0.00 164.00 149.00" xmlns="http://www.w3.org/2000/svg" xmlns:xlink="http://www.w3.org/1999/xlink">
<g id="graph0" class="graph" transform="scale(1 1) rotate(0) translate(4 145)">
<title>/Users/hoff/Retro/virtualc64/Emulator/Base/Serializable.cpp</title>
<!-- Node1 -->
<g id="Node000001" class="node">
<title>Node1</title>
<g id="a_Node000001"><a xlink:title=" ">
<polygon fill="#999999" stroke="#666666" points="155.5,-141 0,-141 0,-110.5 155.5,-110.5 155.5,-141"/>
<text text-anchor="start" x="8" y="-127.5" font-family="Helvetica,sans-Serif" font-size="10.00">/Users/hoff/Retro/virtualc64</text>
<text text-anchor="middle" x="77.75" y="-116.25" font-family="Helvetica,sans-Serif" font-size="10.00">/Emulator/Base/Serializable.cpp</text>
</a>
</g>
</g>
<!-- Node2 -->
<g id="Node000002" class="node">
<title>Node2</title>
<g id="a_Node000002"><a xlink:href="config_8h.html" target="_top" xlink:title=" ">
<polygon fill="white" stroke="#666666" points="63,-74.5 12.5,-74.5 12.5,-55.25 63,-55.25 63,-74.5"/>
<text text-anchor="middle" x="37.75" y="-61" font-family="Helvetica,sans-Serif" font-size="10.00">config.h</text>
</a>
</g>
</g>
<!-- Node1&#45;&gt;Node2 -->
<g id="edge1_Node000001_Node000002" class="edge">
<title>Node1&#45;&gt;Node2</title>
<g id="a_edge1_Node000001_Node000002"><a xlink:title=" ">
<path fill="none" stroke="#63b8ff" d="M67.86,-110.2C62.53,-102.35 55.9,-92.6 50.22,-84.24"/>
<polygon fill="#63b8ff" stroke="#63b8ff" points="53.28,-82.51 44.77,-76.2 47.49,-86.44 53.28,-82.51"/>
</a>
</g>
</g>
<!-- Node4 -->
<g id="Node000004" class="node">
<title>Node4</title>
<g id="a_Node000004"><a xlink:href="_serializable_8h.html" target="_top" xlink:title=" ">
<polygon fill="white" stroke="#666666" points="156,-74.5 81.5,-74.5 81.5,-55.25 156,-55.25 156,-74.5"/>
<text text-anchor="middle" x="118.75" y="-61" font-family="Helvetica,sans-Serif" font-size="10.00">Serializable.h</text>
</a>
</g>
</g>
<!-- Node1&#45;&gt;Node4 -->
<g id="edge3_Node000001_Node000004" class="edge">
<title>Node1&#45;&gt;Node4</title>
<g id="a_edge3_Node000001_Node000004"><a xlink:title=" ">
<path fill="none" stroke="#63b8ff" d="M87.88,-110.2C93.35,-102.35 100.14,-92.6 105.96,-84.24"/>
<polygon fill="#63b8ff" stroke="#63b8ff" points="108.72,-86.4 111.56,-76.19 102.98,-82.4 108.72,-86.4"/>
</a>
</g>
</g>
<!-- Node3 -->
<g id="Node000003" class="node">
<title>Node3</title>
<g id="a_Node000003"><a xlink:title=" ">
<polygon fill="#e0e0e0" stroke="#999999" points="63.38,-19.25 12.12,-19.25 12.12,0 63.38,0 63.38,-19.25"/>
<text text-anchor="middle" x="37.75" y="-5.75" font-family="Helvetica,sans-Serif" font-size="10.00">assert.h</text>
</a>
</g>
</g>
<!-- Node2&#45;&gt;Node3 -->
<g id="edge2_Node000002_Node000003" class="edge">
<title>Node2&#45;&gt;Node3</title>
<g id="a_edge2_Node000002_Node000003"><a xlink:title=" ">
<path fill="none" stroke="#63b8ff" d="M37.75,-55.08C37.75,-48.57 37.75,-39.42 37.75,-31.12"/>
<polygon fill="#63b8ff" stroke="#63b8ff" points="41.25,-31.12 37.75,-21.12 34.25,-31.12 41.25,-31.12"/>
</a>
</g>
</g>
</g>
</svg>
