<?xml version="1.0" encoding="UTF-8" standalone="no"?>
<!DOCTYPE svg PUBLIC "-//W3C//DTD SVG 1.1//EN"
 "http://www.w3.org/Graphics/SVG/1.1/DTD/svg11.dtd">
<!-- Generated by graphviz version 10.0.1 (20240210.2158)
 -->
<!-- Title: /Users/hoff/Retro/virtualc64/Emulator/Utilities/StringUtils.cpp Pages: 1 -->
<svg width="227pt" height="204pt"
 viewBox="0.00 0.00 227.12 204.25" xmlns="http://www.w3.org/2000/svg" xmlns:xlink="http://www.w3.org/1999/xlink">
<g id="graph0" class="graph" transform="scale(1 1) rotate(0) translate(4 200.25)">
<title>/Users/hoff/Retro/virtualc64/Emulator/Utilities/StringUtils.cpp</title>
<!-- Node1 -->
<g id="Node000001" class="node">
<title>Node1</title>
<g id="a_Node000001"><a xlink:title=" ">
<polygon fill="#999999" stroke="#666666" points="195.25,-196.25 33.75,-196.25 33.75,-165.75 195.25,-165.75 195.25,-196.25"/>
<text text-anchor="start" x="41.75" y="-182.75" font-family="Helvetica,sans-Serif" font-size="10.00">/Users/hoff/Retro/virtualc64</text>
<text text-anchor="middle" x="114.5" y="-171.5" font-family="Helvetica,sans-Serif" font-size="10.00">/Emulator/Utilities/StringUtils.cpp</text>
</a>
</g>
</g>
<!-- Node2 -->
<g id="Node000002" class="node">
<title>Node2</title>
<g id="a_Node000002"><a xlink:href="config_8h.html" target="_top" xlink:title=" ">
<polygon fill="white" stroke="#666666" points="61.75,-129.75 11.25,-129.75 11.25,-110.5 61.75,-110.5 61.75,-129.75"/>
<text text-anchor="middle" x="36.5" y="-116.25" font-family="Helvetica,sans-Serif" font-size="10.00">config.h</text>
</a>
</g>
</g>
<!-- Node1&#45;&gt;Node2 -->
<g id="edge1_Node000001_Node000002" class="edge">
<title>Node1&#45;&gt;Node2</title>
<g id="a_edge1_Node000001_Node000002"><a xlink:title=" ">
<path fill="none" stroke="#63b8ff" d="M95.22,-165.45C83.8,-156.83 69.32,-145.9 57.6,-137.05"/>
<polygon fill="#63b8ff" stroke="#63b8ff" points="59.82,-134.34 49.73,-131.11 55.61,-139.93 59.82,-134.34"/>
</a>
</g>
</g>
<!-- Node4 -->
<g id="Node000004" class="node">
<title>Node4</title>
<g id="a_Node000004"><a xlink:href="_string_utils_8h.html" target="_top" xlink:title=" ">
<polygon fill="white" stroke="#666666" points="149.5,-129.75 79.5,-129.75 79.5,-110.5 149.5,-110.5 149.5,-129.75"/>
<text text-anchor="middle" x="114.5" y="-116.25" font-family="Helvetica,sans-Serif" font-size="10.00">StringUtils.h</text>
</a>
</g>
</g>
<!-- Node1&#45;&gt;Node4 -->
<g id="edge3_Node000001_Node000004" class="edge">
<title>Node1&#45;&gt;Node4</title>
<g id="a_edge3_Node000001_Node000004"><a xlink:title=" ">
<path fill="none" stroke="#63b8ff" d="M114.5,-165.45C114.5,-158.21 114.5,-149.34 114.5,-141.44"/>
<polygon fill="#63b8ff" stroke="#63b8ff" points="118,-141.71 114.5,-131.71 111,-141.71 118,-141.71"/>
</a>
</g>
</g>
<!-- Node10 -->
<g id="Node000010" class="node">
<title>Node10</title>
<g id="a_Node000010"><a xlink:title=" ">
<polygon fill="#e0e0e0" stroke="#999999" points="219.12,-129.75 167.88,-129.75 167.88,-110.5 219.12,-110.5 219.12,-129.75"/>
<text text-anchor="middle" x="193.5" y="-116.25" font-family="Helvetica,sans-Serif" font-size="10.00">sstream</text>
</a>
</g>
</g>
<!-- Node1&#45;&gt;Node10 -->
<g id="edge9_Node000001_Node000010" class="edge">
<title>Node1&#45;&gt;Node10</title>
<g id="a_edge9_Node000001_Node000010"><a xlink:title=" ">
<path fill="none" stroke="#63b8ff" d="M134.03,-165.45C145.59,-156.83 160.26,-145.9 172.13,-137.05"/>
<polygon fill="#63b8ff" stroke="#63b8ff" points="174.18,-139.89 180.11,-131.11 170,-134.27 174.18,-139.89"/>
</a>
</g>
</g>
<!-- Node3 -->
<g id="Node000003" class="node">
<title>Node3</title>
<g id="a_Node000003"><a xlink:title=" ">
<polygon fill="#e0e0e0" stroke="#999999" points="62.12,-74.5 10.88,-74.5 10.88,-55.25 62.12,-55.25 62.12,-74.5"/>
<text text-anchor="middle" x="36.5" y="-61" font-family="Helvetica,sans-Serif" font-size="10.00">assert.h</text>
</a>
</g>
</g>
<!-- Node2&#45;&gt;Node3 -->
<g id="edge2_Node000002_Node000003" class="edge">
<title>Node2&#45;&gt;Node3</title>
<g id="a_edge2_Node000002_Node000003"><a xlink:title=" ">
<path fill="none" stroke="#63b8ff" d="M36.5,-110.33C36.5,-103.82 36.5,-94.67 36.5,-86.37"/>
<polygon fill="#63b8ff" stroke="#63b8ff" points="40,-86.37 36.5,-76.37 33,-86.37 40,-86.37"/>
</a>
</g>
</g>
<!-- Node5 -->
<g id="Node000005" class="node">
<title>Node5</title>
<g id="a_Node000005"><a xlink:href="_types_8h.html" target="_top" xlink:title=" ">
<polygon fill="white" stroke="#666666" points="134.75,-74.5 84.25,-74.5 84.25,-55.25 134.75,-55.25 134.75,-74.5"/>
<text text-anchor="middle" x="109.5" y="-61" font-family="Helvetica,sans-Serif" font-size="10.00">Types.h</text>
</a>
</g>
</g>
<!-- Node4&#45;&gt;Node5 -->
<g id="edge4_Node000004_Node000005" class="edge">
<title>Node4&#45;&gt;Node5</title>
<g id="a_edge4_Node000004_Node000005"><a xlink:title=" ">
<path fill="none" stroke="#63b8ff" d="M113.67,-110.33C113.06,-103.74 112.18,-94.46 111.4,-86.07"/>
<polygon fill="#63b8ff" stroke="#63b8ff" points="114.9,-86 110.49,-76.37 107.94,-86.65 114.9,-86"/>
</a>
</g>
</g>
<!-- Node9 -->
<g id="Node000009" class="node">
<title>Node9</title>
<g id="a_Node000009"><a xlink:title=" ">
<polygon fill="#e0e0e0" stroke="#999999" points="196,-74.5 153,-74.5 153,-55.25 196,-55.25 196,-74.5"/>
<text text-anchor="middle" x="174.5" y="-61" font-family="Helvetica,sans-Serif" font-size="10.00">vector</text>
</a>
</g>
</g>
<!-- Node4&#45;&gt;Node9 -->
<g id="edge8_Node000004_Node000009" class="edge">
<title>Node4&#45;&gt;Node9</title>
<g id="a_edge8_Node000004_Node000009"><a xlink:title=" ">
<path fill="none" stroke="#63b8ff" d="M124.68,-110.09C133.26,-102.47 145.77,-91.37 156.1,-82.2"/>
<polygon fill="#63b8ff" stroke="#63b8ff" points="158.18,-85.04 163.34,-75.78 153.54,-79.8 158.18,-85.04"/>
</a>
</g>
</g>
<!-- Node6 -->
<g id="Node000006" class="node">
<title>Node6</title>
<g id="a_Node000006"><a xlink:title=" ">
<polygon fill="#e0e0e0" stroke="#999999" points="67,-19.25 0,-19.25 0,0 67,0 67,-19.25"/>
<text text-anchor="middle" x="33.5" y="-5.75" font-family="Helvetica,sans-Serif" font-size="10.00">sys/types.h</text>
</a>
</g>
</g>
<!-- Node5&#45;&gt;Node6 -->
<g id="edge5_Node000005_Node000006" class="edge">
<title>Node5&#45;&gt;Node6</title>
<g id="a_edge5_Node000005_Node000006"><a xlink:title=" ">
<path fill="none" stroke="#63b8ff" d="M96.61,-54.84C85.47,-47.04 69.13,-35.59 55.86,-26.29"/>
<polygon fill="#63b8ff" stroke="#63b8ff" points="57.89,-23.44 47.7,-20.57 53.88,-29.18 57.89,-23.44"/>
</a>
</g>
</g>
<!-- Node7 -->
<g id="Node000007" class="node">
<title>Node7</title>
<g id="a_Node000007"><a xlink:title=" ">
<polygon fill="#e0e0e0" stroke="#999999" points="133.62,-19.25 85.38,-19.25 85.38,0 133.62,0 133.62,-19.25"/>
<text text-anchor="middle" x="109.5" y="-5.75" font-family="Helvetica,sans-Serif" font-size="10.00">stdint.h</text>
</a>
</g>
</g>
<!-- Node5&#45;&gt;Node7 -->
<g id="edge6_Node000005_Node000007" class="edge">
<title>Node5&#45;&gt;Node7</title>
<g id="a_edge6_Node000005_Node000007"><a xlink:title=" ">
<path fill="none" stroke="#63b8ff" d="M109.5,-55.08C109.5,-48.57 109.5,-39.42 109.5,-31.12"/>
<polygon fill="#63b8ff" stroke="#63b8ff" points="113,-31.12 109.5,-21.12 106,-31.12 113,-31.12"/>
</a>
</g>
</g>
<!-- Node8 -->
<g id="Node000008" class="node">
<title>Node8</title>
<g id="a_Node000008"><a xlink:title=" ">
<polygon fill="#e0e0e0" stroke="#999999" points="207.38,-19.25 151.62,-19.25 151.62,0 207.38,0 207.38,-19.25"/>
<text text-anchor="middle" x="179.5" y="-5.75" font-family="Helvetica,sans-Serif" font-size="10.00">stdbool.h</text>
</a>
</g>
</g>
<!-- Node5&#45;&gt;Node8 -->
<g id="edge7_Node000005_Node000008" class="edge">
<title>Node5&#45;&gt;Node8</title>
<g id="a_edge7_Node000005_Node000008"><a xlink:title=" ">
<path fill="none" stroke="#63b8ff" d="M121.37,-54.84C131.59,-47.07 146.57,-35.67 158.76,-26.4"/>
<polygon fill="#63b8ff" stroke="#63b8ff" points="160.76,-29.28 166.6,-20.44 156.52,-23.71 160.76,-29.28"/>
</a>
</g>
</g>
</g>
</svg>
