<?xml version="1.0" encoding="UTF-8" standalone="no"?>
<!DOCTYPE svg PUBLIC "-//W3C//DTD SVG 1.1//EN"
 "http://www.w3.org/Graphics/SVG/1.1/DTD/svg11.dtd">
<!-- Generated by graphviz version 10.0.1 (20240210.2158)
 -->
<!-- Title: /Users/hoff/Retro/virtualc64/Emulator/Base/Suspendable.cpp Pages: 1 -->
<svg width="171pt" height="149pt"
 viewBox="0.00 0.00 171.00 149.00" xmlns="http://www.w3.org/2000/svg" xmlns:xlink="http://www.w3.org/1999/xlink">
<g id="graph0" class="graph" transform="scale(1 1) rotate(0) translate(4 145)">
<title>/Users/hoff/Retro/virtualc64/Emulator/Base/Suspendable.cpp</title>
<!-- Node1 -->
<g id="Node000001" class="node">
<title>Node1</title>
<g id="a_Node000001"><a xlink:title=" ">
<polygon fill="#999999" stroke="#666666" points="161.5,-141 0,-141 0,-110.5 161.5,-110.5 161.5,-141"/>
<text text-anchor="start" x="8" y="-127.5" font-family="Helvetica,sans-Serif" font-size="10.00">/Users/hoff/Retro/virtualc64</text>
<text text-anchor="middle" x="80.75" y="-116.25" font-family="Helvetica,sans-Serif" font-size="10.00">/Emulator/Base/Suspendable.cpp</text>
</a>
</g>
</g>
<!-- Node2 -->
<g id="Node000002" class="node">
<title>Node2</title>
<g id="a_Node000002"><a xlink:href="config_8h.html" target="_top" xlink:title=" ">
<polygon fill="white" stroke="#666666" points="64,-74.5 13.5,-74.5 13.5,-55.25 64,-55.25 64,-74.5"/>
<text text-anchor="middle" x="38.75" y="-61" font-family="Helvetica,sans-Serif" font-size="10.00">config.h</text>
</a>
</g>
</g>
<!-- Node1&#45;&gt;Node2 -->
<g id="edge1_Node000001_Node000002" class="edge">
<title>Node1&#45;&gt;Node2</title>
<g id="a_edge1_Node000001_Node000002"><a xlink:title=" ">
<path fill="none" stroke="#63b8ff" d="M70.37,-110.2C64.77,-102.35 57.81,-92.6 51.85,-84.24"/>
<polygon fill="#63b8ff" stroke="#63b8ff" points="54.76,-82.29 46.1,-76.18 49.06,-86.36 54.76,-82.29"/>
</a>
</g>
</g>
<!-- Node4 -->
<g id="Node000004" class="node">
<title>Node4</title>
<g id="a_Node000004"><a xlink:href="_suspendable_8h.html" target="_top" xlink:title=" ">
<polygon fill="white" stroke="#666666" points="163,-74.5 82.5,-74.5 82.5,-55.25 163,-55.25 163,-74.5"/>
<text text-anchor="middle" x="122.75" y="-61" font-family="Helvetica,sans-Serif" font-size="10.00">Suspendable.h</text>
</a>
</g>
</g>
<!-- Node1&#45;&gt;Node4 -->
<g id="edge3_Node000001_Node000004" class="edge">
<title>Node1&#45;&gt;Node4</title>
<g id="a_edge3_Node000001_Node000004"><a xlink:title=" ">
<path fill="none" stroke="#63b8ff" d="M91.13,-110.2C96.73,-102.35 103.69,-92.6 109.65,-84.24"/>
<polygon fill="#63b8ff" stroke="#63b8ff" points="112.44,-86.36 115.4,-76.18 106.74,-82.29 112.44,-86.36"/>
</a>
</g>
</g>
<!-- Node3 -->
<g id="Node000003" class="node">
<title>Node3</title>
<g id="a_Node000003"><a xlink:title=" ">
<polygon fill="#e0e0e0" stroke="#999999" points="64.38,-19.25 13.12,-19.25 13.12,0 64.38,0 64.38,-19.25"/>
<text text-anchor="middle" x="38.75" y="-5.75" font-family="Helvetica,sans-Serif" font-size="10.00">assert.h</text>
</a>
</g>
</g>
<!-- Node2&#45;&gt;Node3 -->
<g id="edge2_Node000002_Node000003" class="edge">
<title>Node2&#45;&gt;Node3</title>
<g id="a_edge2_Node000002_Node000003"><a xlink:title=" ">
<path fill="none" stroke="#63b8ff" d="M38.75,-55.08C38.75,-48.57 38.75,-39.42 38.75,-31.12"/>
<polygon fill="#63b8ff" stroke="#63b8ff" points="42.25,-31.12 38.75,-21.12 35.25,-31.12 42.25,-31.12"/>
</a>
</g>
</g>
<!-- Node5 -->
<g id="Node000005" class="node">
<title>Node5</title>
<g id="a_Node000005"><a xlink:title=" ">
<polygon fill="#e0e0e0" stroke="#999999" points="143.88,-19.25 101.62,-19.25 101.62,0 143.88,0 143.88,-19.25"/>
<text text-anchor="middle" x="122.75" y="-5.75" font-family="Helvetica,sans-Serif" font-size="10.00">cstdio</text>
</a>
</g>
</g>
<!-- Node4&#45;&gt;Node5 -->
<g id="edge4_Node000004_Node000005" class="edge">
<title>Node4&#45;&gt;Node5</title>
<g id="a_edge4_Node000004_Node000005"><a xlink:title=" ">
<path fill="none" stroke="#63b8ff" d="M122.75,-55.08C122.75,-48.57 122.75,-39.42 122.75,-31.12"/>
<polygon fill="#63b8ff" stroke="#63b8ff" points="126.25,-31.12 122.75,-21.12 119.25,-31.12 126.25,-31.12"/>
</a>
</g>
</g>
</g>
</svg>
