<?xml version="1.0" encoding="UTF-8" standalone="no"?>
<!DOCTYPE svg PUBLIC "-//W3C//DTD SVG 1.1//EN"
 "http://www.w3.org/Graphics/SVG/1.1/DTD/svg11.dtd">
<!-- Generated by graphviz version 10.0.1 (20240210.2158)
 -->
<!-- Title: /Users/hoff/Retro/virtualc64/Emulator/Media/T64File.cpp Pages: 1 -->
<svg width="1131pt" height="646pt"
 viewBox="0.00 0.00 1130.89 646.25" xmlns="http://www.w3.org/2000/svg" xmlns:xlink="http://www.w3.org/1999/xlink">
<g id="graph0" class="graph" transform="scale(1 1) rotate(0) translate(4 642.25)">
<title>/Users/hoff/Retro/virtualc64/Emulator/Media/T64File.cpp</title>
<!-- Node1 -->
<g id="Node000001" class="node">
<title>Node1</title>
<g id="a_Node000001"><a xlink:title=" ">
<polygon fill="#999999" stroke="#666666" points="507.51,-638.25 366.26,-638.25 366.26,-607.75 507.51,-607.75 507.51,-638.25"/>
<text text-anchor="start" x="374.26" y="-624.75" font-family="Helvetica,sans-Serif" font-size="10.00">/Users/hoff/Retro/virtualc64</text>
<text text-anchor="middle" x="436.89" y="-613.5" font-family="Helvetica,sans-Serif" font-size="10.00">/Emulator/Media/T64File.cpp</text>
</a>
</g>
</g>
<!-- Node2 -->
<g id="Node000002" class="node">
<title>Node2</title>
<g id="a_Node000002"><a xlink:href="config_8h.html" target="_top" xlink:title=" ">
<polygon fill="white" stroke="#666666" points="338.14,-571.75 287.64,-571.75 287.64,-552.5 338.14,-552.5 338.14,-571.75"/>
<text text-anchor="middle" x="312.89" y="-558.25" font-family="Helvetica,sans-Serif" font-size="10.00">config.h</text>
</a>
</g>
</g>
<!-- Node1&#45;&gt;Node2 -->
<g id="edge1_Node000001_Node000002" class="edge">
<title>Node1&#45;&gt;Node2</title>
<g id="a_edge1_Node000001_Node000002"><a xlink:title=" ">
<path fill="none" stroke="#63b8ff" d="M405.92,-607.3C386.4,-598.03 361.35,-586.13 342.16,-577.02"/>
<polygon fill="#63b8ff" stroke="#63b8ff" points="343.81,-573.93 333.27,-572.8 340.8,-580.25 343.81,-573.93"/>
</a>
</g>
</g>
<!-- Node4 -->
<g id="Node000004" class="node">
<title>Node4</title>
<g id="a_Node000004"><a xlink:href="_t64_file_8h.html" target="_top" xlink:title=" ">
<polygon fill="white" stroke="#666666" points="465.14,-571.75 408.64,-571.75 408.64,-552.5 465.14,-552.5 465.14,-571.75"/>
<text text-anchor="middle" x="436.89" y="-558.25" font-family="Helvetica,sans-Serif" font-size="10.00">T64File.h</text>
</a>
</g>
</g>
<!-- Node1&#45;&gt;Node4 -->
<g id="edge3_Node000001_Node000004" class="edge">
<title>Node1&#45;&gt;Node4</title>
<g id="a_edge3_Node000001_Node000004"><a xlink:title=" ">
<path fill="none" stroke="#63b8ff" d="M436.89,-607.45C436.89,-600.21 436.89,-591.34 436.89,-583.44"/>
<polygon fill="#63b8ff" stroke="#63b8ff" points="440.39,-583.71 436.89,-573.71 433.39,-583.71 440.39,-583.71"/>
</a>
</g>
</g>
<!-- Node11 -->
<g id="Node000011" class="node">
<title>Node11</title>
<g id="a_Node000011"><a xlink:href="_macros_8h.html" target="_top" xlink:title=" ">
<polygon fill="white" stroke="#666666" points="1012.14,-129.75 955.64,-129.75 955.64,-110.5 1012.14,-110.5 1012.14,-129.75"/>
<text text-anchor="middle" x="983.89" y="-116.25" font-family="Helvetica,sans-Serif" font-size="10.00">Macros.h</text>
</a>
</g>
</g>
<!-- Node1&#45;&gt;Node11 -->
<g id="edge71_Node000001_Node000011" class="edge">
<title>Node1&#45;&gt;Node11</title>
<g id="a_edge71_Node000001_Node000011"><a xlink:title=" ">
<path fill="none" stroke="#63b8ff" d="M507.72,-617.58C682.99,-605.71 1122.89,-569.75 1122.89,-507.88 1122.89,-507.88 1122.89,-507.88 1122.89,-229.62 1122.89,-178.73 1064.26,-148.18 1023.16,-133.01"/>
<polygon fill="#63b8ff" stroke="#63b8ff" points="1024.37,-129.73 1013.78,-129.73 1022.06,-136.34 1024.37,-129.73"/>
</a>
</g>
</g>
<!-- Node28 -->
<g id="Node000028" class="node">
<title>Node28</title>
<g id="a_Node000028"><a xlink:href="_file_system_8h.html" target="_top" xlink:title=" ">
<polygon fill="white" stroke="#666666" points="613.76,-571.75 540.01,-571.75 540.01,-552.5 613.76,-552.5 613.76,-571.75"/>
<text text-anchor="middle" x="576.89" y="-558.25" font-family="Helvetica,sans-Serif" font-size="10.00">FileSystem.h</text>
</a>
</g>
</g>
<!-- Node1&#45;&gt;Node28 -->
<g id="edge33_Node000001_Node000028" class="edge">
<title>Node1&#45;&gt;Node28</title>
<g id="a_edge33_Node000001_Node000028"><a xlink:title=" ">
<path fill="none" stroke="#63b8ff" d="M471.85,-607.3C494.3,-597.85 523.23,-585.69 545.04,-576.52"/>
<polygon fill="#63b8ff" stroke="#63b8ff" points="546.16,-579.84 554.02,-572.74 543.45,-573.39 546.16,-579.84"/>
</a>
</g>
</g>
<!-- Node36 -->
<g id="Node000036" class="node">
<title>Node36</title>
<g id="a_Node000036"><a xlink:href="_i_o_utils_8h.html" target="_top" xlink:title=" ">
<polygon fill="white" stroke="#666666" points="390.39,-461.25 335.39,-461.25 335.39,-442 390.39,-442 390.39,-461.25"/>
<text text-anchor="middle" x="362.89" y="-447.75" font-family="Helvetica,sans-Serif" font-size="10.00">IOUtils.h</text>
</a>
</g>
</g>
<!-- Node1&#45;&gt;Node36 -->
<g id="edge70_Node000001_Node000036" class="edge">
<title>Node1&#45;&gt;Node36</title>
<g id="a_edge70_Node000001_Node000036"><a xlink:title=" ">
<path fill="none" stroke="#63b8ff" d="M424.15,-607.47C416.27,-597.87 406.43,-584.71 399.89,-571.75 383.25,-538.83 372.37,-496.99 366.96,-472.67"/>
<polygon fill="#63b8ff" stroke="#63b8ff" points="370.44,-472.22 364.93,-463.16 363.59,-473.67 370.44,-472.22"/>
</a>
</g>
</g>
<!-- Node3 -->
<g id="Node000003" class="node">
<title>Node3</title>
<g id="a_Node000003"><a xlink:title=" ">
<polygon fill="#e0e0e0" stroke="#999999" points="337.51,-516.5 286.26,-516.5 286.26,-497.25 337.51,-497.25 337.51,-516.5"/>
<text text-anchor="middle" x="311.89" y="-503" font-family="Helvetica,sans-Serif" font-size="10.00">assert.h</text>
</a>
</g>
</g>
<!-- Node2&#45;&gt;Node3 -->
<g id="edge2_Node000002_Node000003" class="edge">
<title>Node2&#45;&gt;Node3</title>
<g id="a_edge2_Node000002_Node000003"><a xlink:title=" ">
<path fill="none" stroke="#63b8ff" d="M312.72,-552.33C312.6,-545.82 312.43,-536.67 312.27,-528.37"/>
<polygon fill="#63b8ff" stroke="#63b8ff" points="315.77,-528.3 312.08,-518.37 308.77,-528.44 315.77,-528.3"/>
</a>
</g>
</g>
<!-- Node5 -->
<g id="Node000005" class="node">
<title>Node5</title>
<g id="a_Node000005"><a xlink:href="_any_collection_8h.html" target="_top" xlink:title=" ">
<polygon fill="white" stroke="#666666" points="479.39,-516.5 394.39,-516.5 394.39,-497.25 479.39,-497.25 479.39,-516.5"/>
<text text-anchor="middle" x="436.89" y="-503" font-family="Helvetica,sans-Serif" font-size="10.00">AnyCollection.h</text>
</a>
</g>
</g>
<!-- Node4&#45;&gt;Node5 -->
<g id="edge4_Node000004_Node000005" class="edge">
<title>Node4&#45;&gt;Node5</title>
<g id="a_edge4_Node000004_Node000005"><a xlink:title=" ">
<path fill="none" stroke="#63b8ff" d="M436.89,-552.33C436.89,-545.82 436.89,-536.67 436.89,-528.37"/>
<polygon fill="#63b8ff" stroke="#63b8ff" points="440.39,-528.37 436.89,-518.37 433.39,-528.37 440.39,-528.37"/>
</a>
</g>
</g>
<!-- Node6 -->
<g id="Node000006" class="node">
<title>Node6</title>
<g id="a_Node000006"><a xlink:href="_any_file_8h.html" target="_top" xlink:title=" ">
<polygon fill="white" stroke="#666666" points="638.51,-461.25 581.26,-461.25 581.26,-442 638.51,-442 638.51,-461.25"/>
<text text-anchor="middle" x="609.89" y="-447.75" font-family="Helvetica,sans-Serif" font-size="10.00">AnyFile.h</text>
</a>
</g>
</g>
<!-- Node5&#45;&gt;Node6 -->
<g id="edge5_Node000005_Node000006" class="edge">
<title>Node5&#45;&gt;Node6</title>
<g id="a_edge5_Node000005_Node000006"><a xlink:title=" ">
<path fill="none" stroke="#63b8ff" d="M466.23,-496.84C494.86,-488.03 538.61,-474.56 570.31,-464.81"/>
<polygon fill="#63b8ff" stroke="#63b8ff" points="571,-468.26 579.53,-461.97 568.94,-461.57 571,-468.26"/>
</a>
</g>
</g>
<!-- Node7 -->
<g id="Node000007" class="node">
<title>Node7</title>
<g id="a_Node000007"><a xlink:href="_core_object_8h.html" target="_top" xlink:title=" ">
<polygon fill="white" stroke="#666666" points="840.76,-350.75 767.01,-350.75 767.01,-331.5 840.76,-331.5 840.76,-350.75"/>
<text text-anchor="middle" x="803.89" y="-337.25" font-family="Helvetica,sans-Serif" font-size="10.00">CoreObject.h</text>
</a>
</g>
</g>
<!-- Node6&#45;&gt;Node7 -->
<g id="edge6_Node000006_Node000007" class="edge">
<title>Node6&#45;&gt;Node7</title>
<g id="a_edge6_Node000006_Node000007"><a xlink:title=" ">
<path fill="none" stroke="#63b8ff" d="M626.09,-441.56C659.62,-422.81 736.84,-379.62 777.59,-356.83"/>
<polygon fill="#63b8ff" stroke="#63b8ff" points="779.25,-359.91 786.27,-351.98 775.83,-353.8 779.25,-359.91"/>
</a>
</g>
</g>
<!-- Node21 -->
<g id="Node000021" class="node">
<title>Node21</title>
<g id="a_Node000021"><a xlink:href="_file_types_8h.html" target="_top" xlink:title=" ">
<polygon fill="white" stroke="#666666" points="803.01,-240.25 736.76,-240.25 736.76,-221 803.01,-221 803.01,-240.25"/>
<text text-anchor="middle" x="769.89" y="-226.75" font-family="Helvetica,sans-Serif" font-size="10.00">FileTypes.h</text>
</a>
</g>
</g>
<!-- Node6&#45;&gt;Node21 -->
<g id="edge21_Node000006_Node000021" class="edge">
<title>Node6&#45;&gt;Node21</title>
<g id="a_edge21_Node000006_Node000021"><a xlink:title=" ">
<path fill="none" stroke="#63b8ff" d="M617.98,-441.67C625.37,-433.07 636.15,-419.44 642.89,-406 669.85,-352.16 643.25,-322.43 681.89,-276.25 693.79,-262.02 711.37,-251.85 727.69,-244.84"/>
<polygon fill="#63b8ff" stroke="#63b8ff" points="728.75,-248.19 736.76,-241.24 726.17,-241.68 728.75,-248.19"/>
</a>
</g>
</g>
<!-- Node22 -->
<g id="Node000022" class="node">
<title>Node22</title>
<g id="a_Node000022"><a xlink:href="_p_e_t_name_8h.html" target="_top" xlink:title=" ">
<polygon fill="white" stroke="#666666" points="836.89,-406 766.89,-406 766.89,-386.75 836.89,-386.75 836.89,-406"/>
<text text-anchor="middle" x="801.89" y="-392.5" font-family="Helvetica,sans-Serif" font-size="10.00">PETName.h</text>
</a>
</g>
</g>
<!-- Node6&#45;&gt;Node22 -->
<g id="edge24_Node000006_Node000022" class="edge">
<title>Node6&#45;&gt;Node22</title>
<g id="a_edge24_Node000006_Node000022"><a xlink:title=" ">
<path fill="none" stroke="#63b8ff" d="M638.63,-442.65C670.3,-433.87 721.58,-419.65 758.22,-409.49"/>
<polygon fill="#63b8ff" stroke="#63b8ff" points="758.92,-412.92 767.62,-406.88 757.05,-406.18 758.92,-412.92"/>
</a>
</g>
</g>
<!-- Node26 -->
<g id="Node000026" class="node">
<title>Node26</title>
<g id="a_Node000026"><a xlink:title=" ">
<polygon fill="#e0e0e0" stroke="#999999" points="567.51,-406 516.26,-406 516.26,-386.75 567.51,-386.75 567.51,-406"/>
<text text-anchor="middle" x="541.89" y="-392.5" font-family="Helvetica,sans-Serif" font-size="10.00">sstream</text>
</a>
</g>
</g>
<!-- Node6&#45;&gt;Node26 -->
<g id="edge31_Node000006_Node000026" class="edge">
<title>Node6&#45;&gt;Node26</title>
<g id="a_edge31_Node000006_Node000026"><a xlink:title=" ">
<path fill="none" stroke="#63b8ff" d="M598.35,-441.59C588.43,-433.82 573.87,-422.42 562.03,-413.15"/>
<polygon fill="#63b8ff" stroke="#63b8ff" points="564.47,-410.62 554.44,-407.21 560.16,-416.13 564.47,-410.62"/>
</a>
</g>
</g>
<!-- Node27 -->
<g id="Node000027" class="node">
<title>Node27</title>
<g id="a_Node000027"><a xlink:title=" ">
<polygon fill="#e0e0e0" stroke="#999999" points="634.39,-406 585.39,-406 585.39,-386.75 634.39,-386.75 634.39,-406"/>
<text text-anchor="middle" x="609.89" y="-392.5" font-family="Helvetica,sans-Serif" font-size="10.00">fstream</text>
</a>
</g>
</g>
<!-- Node6&#45;&gt;Node27 -->
<g id="edge32_Node000006_Node000027" class="edge">
<title>Node6&#45;&gt;Node27</title>
<g id="a_edge32_Node000006_Node000027"><a xlink:title=" ">
<path fill="none" stroke="#63b8ff" d="M609.89,-441.83C609.89,-435.32 609.89,-426.17 609.89,-417.87"/>
<polygon fill="#63b8ff" stroke="#63b8ff" points="613.39,-417.87 609.89,-407.87 606.39,-417.87 613.39,-417.87"/>
</a>
</g>
</g>
<!-- Node8 -->
<g id="Node000008" class="node">
<title>Node8</title>
<g id="a_Node000008"><a xlink:href="_error_8h.html" target="_top" xlink:title=" ">
<polygon fill="white" stroke="#666666" points="828.14,-295.5 783.64,-295.5 783.64,-276.25 828.14,-276.25 828.14,-295.5"/>
<text text-anchor="middle" x="805.89" y="-282" font-family="Helvetica,sans-Serif" font-size="10.00">Error.h</text>
</a>
</g>
</g>
<!-- Node7&#45;&gt;Node8 -->
<g id="edge7_Node000007_Node000008" class="edge">
<title>Node7&#45;&gt;Node8</title>
<g id="a_edge7_Node000007_Node000008"><a xlink:title=" ">
<path fill="none" stroke="#63b8ff" d="M804.22,-331.33C804.46,-324.74 804.81,-315.46 805.13,-307.07"/>
<polygon fill="#63b8ff" stroke="#63b8ff" points="808.61,-307.5 805.49,-297.37 801.62,-307.23 808.61,-307.5"/>
</a>
</g>
</g>
<!-- Node19 -->
<g id="Node000019" class="node">
<title>Node19</title>
<g id="a_Node000019"><a xlink:href="_inspectable_8h.html" target="_top" xlink:title=" ">
<polygon fill="white" stroke="#666666" points="765.14,-295.5 690.64,-295.5 690.64,-276.25 765.14,-276.25 765.14,-295.5"/>
<text text-anchor="middle" x="727.89" y="-282" font-family="Helvetica,sans-Serif" font-size="10.00">Inspectable.h</text>
</a>
</g>
</g>
<!-- Node7&#45;&gt;Node19 -->
<g id="edge19_Node000007_Node000019" class="edge">
<title>Node7&#45;&gt;Node19</title>
<g id="a_edge19_Node000007_Node000019"><a xlink:title=" ">
<path fill="none" stroke="#63b8ff" d="M790.99,-331.09C779.86,-323.29 763.51,-311.84 750.25,-302.54"/>
<polygon fill="#63b8ff" stroke="#63b8ff" points="752.28,-299.69 742.08,-296.82 748.26,-305.43 752.28,-299.69"/>
</a>
</g>
</g>
<!-- Node9 -->
<g id="Node000009" class="node">
<title>Node9</title>
<g id="a_Node000009"><a xlink:href="_error_types_8h.html" target="_top" xlink:title=" ">
<polygon fill="white" stroke="#666666" points="892.64,-240.25 821.14,-240.25 821.14,-221 892.64,-221 892.64,-240.25"/>
<text text-anchor="middle" x="856.89" y="-226.75" font-family="Helvetica,sans-Serif" font-size="10.00">ErrorTypes.h</text>
</a>
</g>
</g>
<!-- Node8&#45;&gt;Node9 -->
<g id="edge8_Node000008_Node000009" class="edge">
<title>Node8&#45;&gt;Node9</title>
<g id="a_edge8_Node000008_Node000009"><a xlink:title=" ">
<path fill="none" stroke="#63b8ff" d="M814.31,-276.08C821.43,-268.65 831.83,-257.79 840.57,-248.66"/>
<polygon fill="#63b8ff" stroke="#63b8ff" points="842.85,-251.35 847.24,-241.7 837.79,-246.5 842.85,-251.35"/>
</a>
</g>
</g>
<!-- Node17 -->
<g id="Node000017" class="node">
<title>Node17</title>
<g id="a_Node000017"><a xlink:href="_exception_8h.html" target="_top" xlink:title=" ">
<polygon fill="white" stroke="#666666" points="718.76,-240.25 651.01,-240.25 651.01,-221 718.76,-221 718.76,-240.25"/>
<text text-anchor="middle" x="684.89" y="-226.75" font-family="Helvetica,sans-Serif" font-size="10.00">Exception.h</text>
</a>
</g>
</g>
<!-- Node8&#45;&gt;Node17 -->
<g id="edge16_Node000008_Node000017" class="edge">
<title>Node8&#45;&gt;Node17</title>
<g id="a_edge16_Node000008_Node000017"><a xlink:title=" ">
<path fill="none" stroke="#63b8ff" d="M785.36,-275.84C766.33,-267.47 737.74,-254.88 715.92,-245.28"/>
<polygon fill="#63b8ff" stroke="#63b8ff" points="717.46,-242.14 706.9,-241.31 714.64,-248.54 717.46,-242.14"/>
</a>
</g>
</g>
<!-- Node10 -->
<g id="Node000010" class="node">
<title>Node10</title>
<g id="a_Node000010"><a xlink:href="_aliases_8h.html" target="_top" xlink:title=" ">
<polygon fill="white" stroke="#666666" points="1012.14,-185 955.64,-185 955.64,-165.75 1012.14,-165.75 1012.14,-185"/>
<text text-anchor="middle" x="983.89" y="-171.5" font-family="Helvetica,sans-Serif" font-size="10.00">Aliases.h</text>
</a>
</g>
</g>
<!-- Node9&#45;&gt;Node10 -->
<g id="edge9_Node000009_Node000010" class="edge">
<title>Node9&#45;&gt;Node10</title>
<g id="a_edge9_Node000009_Node000010"><a xlink:title=" ">
<path fill="none" stroke="#63b8ff" d="M878.43,-220.59C898.5,-212.18 928.69,-199.52 951.63,-189.9"/>
<polygon fill="#63b8ff" stroke="#63b8ff" points="952.97,-193.13 960.84,-186.04 950.27,-186.68 952.97,-193.13"/>
</a>
</g>
</g>
<!-- Node16 -->
<g id="Node000016" class="node">
<title>Node16</title>
<g id="a_Node000016"><a xlink:href="_reflection_8h.html" target="_top" xlink:title=" ">
<polygon fill="white" stroke="#666666" points="914.14,-185 845.64,-185 845.64,-165.75 914.14,-165.75 914.14,-185"/>
<text text-anchor="middle" x="879.89" y="-171.5" font-family="Helvetica,sans-Serif" font-size="10.00">Reflection.h</text>
</a>
</g>
</g>
<!-- Node9&#45;&gt;Node16 -->
<g id="edge15_Node000009_Node000016" class="edge">
<title>Node9&#45;&gt;Node16</title>
<g id="a_edge15_Node000009_Node000016"><a xlink:title=" ">
<path fill="none" stroke="#63b8ff" d="M860.68,-220.83C863.63,-214.01 867.82,-204.31 871.54,-195.7"/>
<polygon fill="#63b8ff" stroke="#63b8ff" points="874.65,-197.32 875.41,-186.75 868.23,-194.54 874.65,-197.32"/>
</a>
</g>
</g>
<!-- Node10&#45;&gt;Node11 -->
<g id="edge10_Node000010_Node000011" class="edge">
<title>Node10&#45;&gt;Node11</title>
<g id="a_edge10_Node000010_Node000011"><a xlink:title=" ">
<path fill="none" stroke="#63b8ff" d="M983.89,-165.58C983.89,-159.07 983.89,-149.92 983.89,-141.62"/>
<polygon fill="#63b8ff" stroke="#63b8ff" points="987.39,-141.62 983.89,-131.62 980.39,-141.62 987.39,-141.62"/>
</a>
</g>
</g>
<!-- Node12 -->
<g id="Node000012" class="node">
<title>Node12</title>
<g id="a_Node000012"><a xlink:href="_types_8h.html" target="_top" xlink:title=" ">
<polygon fill="white" stroke="#666666" points="509.14,-74.5 458.64,-74.5 458.64,-55.25 509.14,-55.25 509.14,-74.5"/>
<text text-anchor="middle" x="483.89" y="-61" font-family="Helvetica,sans-Serif" font-size="10.00">Types.h</text>
</a>
</g>
</g>
<!-- Node11&#45;&gt;Node12 -->
<g id="edge11_Node000011_Node000012" class="edge">
<title>Node11&#45;&gt;Node12</title>
<g id="a_edge11_Node000011_Node000012"><a xlink:title=" ">
<path fill="none" stroke="#63b8ff" d="M955.21,-116.07C869.64,-106.96 616.18,-79.96 520.77,-69.8"/>
<polygon fill="#63b8ff" stroke="#63b8ff" points="521.24,-66.33 510.92,-68.75 520.49,-73.29 521.24,-66.33"/>
</a>
</g>
</g>
<!-- Node13 -->
<g id="Node000013" class="node">
<title>Node13</title>
<g id="a_Node000013"><a xlink:title=" ">
<polygon fill="#e0e0e0" stroke="#999999" points="441.39,-19.25 374.39,-19.25 374.39,0 441.39,0 441.39,-19.25"/>
<text text-anchor="middle" x="407.89" y="-5.75" font-family="Helvetica,sans-Serif" font-size="10.00">sys/types.h</text>
</a>
</g>
</g>
<!-- Node12&#45;&gt;Node13 -->
<g id="edge12_Node000012_Node000013" class="edge">
<title>Node12&#45;&gt;Node13</title>
<g id="a_edge12_Node000012_Node000013"><a xlink:title=" ">
<path fill="none" stroke="#63b8ff" d="M470.99,-54.84C459.86,-47.04 443.51,-35.59 430.25,-26.29"/>
<polygon fill="#63b8ff" stroke="#63b8ff" points="432.28,-23.44 422.08,-20.57 428.26,-29.18 432.28,-23.44"/>
</a>
</g>
</g>
<!-- Node14 -->
<g id="Node000014" class="node">
<title>Node14</title>
<g id="a_Node000014"><a xlink:title=" ">
<polygon fill="#e0e0e0" stroke="#999999" points="508.01,-19.25 459.76,-19.25 459.76,0 508.01,0 508.01,-19.25"/>
<text text-anchor="middle" x="483.89" y="-5.75" font-family="Helvetica,sans-Serif" font-size="10.00">stdint.h</text>
</a>
</g>
</g>
<!-- Node12&#45;&gt;Node14 -->
<g id="edge13_Node000012_Node000014" class="edge">
<title>Node12&#45;&gt;Node14</title>
<g id="a_edge13_Node000012_Node000014"><a xlink:title=" ">
<path fill="none" stroke="#63b8ff" d="M483.89,-55.08C483.89,-48.57 483.89,-39.42 483.89,-31.12"/>
<polygon fill="#63b8ff" stroke="#63b8ff" points="487.39,-31.12 483.89,-21.12 480.39,-31.12 487.39,-31.12"/>
</a>
</g>
</g>
<!-- Node15 -->
<g id="Node000015" class="node">
<title>Node15</title>
<g id="a_Node000015"><a xlink:title=" ">
<polygon fill="#e0e0e0" stroke="#999999" points="581.76,-19.25 526.01,-19.25 526.01,0 581.76,0 581.76,-19.25"/>
<text text-anchor="middle" x="553.89" y="-5.75" font-family="Helvetica,sans-Serif" font-size="10.00">stdbool.h</text>
</a>
</g>
</g>
<!-- Node12&#45;&gt;Node15 -->
<g id="edge14_Node000012_Node000015" class="edge">
<title>Node12&#45;&gt;Node15</title>
<g id="a_edge14_Node000012_Node000015"><a xlink:title=" ">
<path fill="none" stroke="#63b8ff" d="M495.76,-54.84C505.98,-47.07 520.96,-35.67 533.15,-26.4"/>
<polygon fill="#63b8ff" stroke="#63b8ff" points="535.14,-29.28 540.98,-20.44 530.91,-23.71 535.14,-29.28"/>
</a>
</g>
</g>
<!-- Node17&#45;&gt;Node12 -->
<g id="edge17_Node000017_Node000012" class="edge">
<title>Node17&#45;&gt;Node12</title>
<g id="a_edge17_Node000017_Node000012"><a xlink:title=" ">
<path fill="none" stroke="#63b8ff" d="M677.36,-220.74C670.11,-211.97 659.08,-198.03 650.89,-185 631.1,-153.53 640.93,-134.9 612.89,-110.5 586.8,-87.8 548.55,-76.48 520.47,-70.94"/>
<polygon fill="#63b8ff" stroke="#63b8ff" points="521.46,-67.56 510.99,-69.24 520.22,-74.45 521.46,-67.56"/>
</a>
</g>
</g>
<!-- Node18 -->
<g id="Node000018" class="node">
<title>Node18</title>
<g id="a_Node000018"><a xlink:title=" ">
<polygon fill="#e0e0e0" stroke="#999999" points="717.89,-185 659.89,-185 659.89,-165.75 717.89,-165.75 717.89,-185"/>
<text text-anchor="middle" x="688.89" y="-171.5" font-family="Helvetica,sans-Serif" font-size="10.00">exception</text>
</a>
</g>
</g>
<!-- Node17&#45;&gt;Node18 -->
<g id="edge18_Node000017_Node000018" class="edge">
<title>Node17&#45;&gt;Node18</title>
<g id="a_edge18_Node000017_Node000018"><a xlink:title=" ">
<path fill="none" stroke="#63b8ff" d="M685.55,-220.83C686.04,-214.24 686.74,-204.96 687.37,-196.57"/>
<polygon fill="#63b8ff" stroke="#63b8ff" points="690.84,-197.1 688.1,-186.87 683.86,-196.58 690.84,-197.1"/>
</a>
</g>
</g>
<!-- Node20 -->
<g id="Node000020" class="node">
<title>Node20</title>
<g id="a_Node000020"><a xlink:title=" ">
<polygon fill="#e0e0e0" stroke="#999999" points="632.64,-240.25 579.14,-240.25 579.14,-221 632.64,-221 632.64,-240.25"/>
<text text-anchor="middle" x="605.89" y="-226.75" font-family="Helvetica,sans-Serif" font-size="10.00">iostream</text>
</a>
</g>
</g>
<!-- Node19&#45;&gt;Node20 -->
<g id="edge20_Node000019_Node000020" class="edge">
<title>Node19&#45;&gt;Node20</title>
<g id="a_edge20_Node000019_Node000020"><a xlink:title=" ">
<path fill="none" stroke="#63b8ff" d="M707.19,-275.84C688,-267.47 659.17,-254.88 637.17,-245.28"/>
<polygon fill="#63b8ff" stroke="#63b8ff" points="638.64,-242.1 628.07,-241.31 635.84,-248.52 638.64,-242.1"/>
</a>
</g>
</g>
<!-- Node21&#45;&gt;Node10 -->
<g id="edge22_Node000021_Node000010" class="edge">
<title>Node21&#45;&gt;Node10</title>
<g id="a_edge22_Node000021_Node000010"><a xlink:title=" ">
<path fill="none" stroke="#63b8ff" d="M803.32,-221.3C841.39,-211.83 903.52,-196.37 944.06,-186.28"/>
<polygon fill="#63b8ff" stroke="#63b8ff" points="944.81,-189.71 953.67,-183.89 943.12,-182.91 944.81,-189.71"/>
</a>
</g>
</g>
<!-- Node21&#45;&gt;Node16 -->
<g id="edge23_Node000021_Node000016" class="edge">
<title>Node21&#45;&gt;Node16</title>
<g id="a_edge23_Node000021_Node000016"><a xlink:title=" ">
<path fill="none" stroke="#63b8ff" d="M788.55,-220.59C805.61,-212.33 831.13,-199.98 850.86,-190.43"/>
<polygon fill="#63b8ff" stroke="#63b8ff" points="852.3,-193.62 859.77,-186.11 849.25,-187.32 852.3,-193.62"/>
</a>
</g>
</g>
<!-- Node22&#45;&gt;Node7 -->
<g id="edge25_Node000022_Node000007" class="edge">
<title>Node22&#45;&gt;Node7</title>
<g id="a_edge25_Node000022_Node000007"><a xlink:title=" ">
<path fill="none" stroke="#63b8ff" d="M802.22,-386.58C802.46,-379.99 802.81,-370.71 803.13,-362.32"/>
<polygon fill="#63b8ff" stroke="#63b8ff" points="806.61,-362.75 803.49,-352.62 799.62,-362.48 806.61,-362.75"/>
</a>
</g>
</g>
<!-- Node23 -->
<g id="Node000023" class="node">
<title>Node23</title>
<g id="a_Node000023"><a xlink:href="_mem_utils_8h.html" target="_top" xlink:title=" ">
<polygon fill="white" stroke="#666666" points="584.01,-185 517.76,-185 517.76,-165.75 584.01,-165.75 584.01,-185"/>
<text text-anchor="middle" x="550.89" y="-171.5" font-family="Helvetica,sans-Serif" font-size="10.00">MemUtils.h</text>
</a>
</g>
</g>
<!-- Node22&#45;&gt;Node23 -->
<g id="edge26_Node000022_Node000023" class="edge">
<title>Node22&#45;&gt;Node23</title>
<g id="a_edge26_Node000022_Node000023"><a xlink:title=" ">
<path fill="none" stroke="#63b8ff" d="M778.56,-386.25C731.76,-366.76 626.1,-316.49 569.89,-240.25 560.52,-227.55 555.74,-210.25 553.32,-196.85"/>
<polygon fill="#63b8ff" stroke="#63b8ff" points="556.79,-196.37 551.87,-186.99 549.86,-197.39 556.79,-196.37"/>
</a>
</g>
</g>
<!-- Node23&#45;&gt;Node12 -->
<g id="edge27_Node000023_Node000012" class="edge">
<title>Node23&#45;&gt;Node12</title>
<g id="a_edge27_Node000023_Node000012"><a xlink:title=" ">
<path fill="none" stroke="#63b8ff" d="M549.19,-165.56C546.43,-152.69 540.11,-128.38 528.89,-110.5 522.29,-99.99 512.77,-90.07 504.18,-82.27"/>
<polygon fill="#63b8ff" stroke="#63b8ff" points="506.73,-79.85 496.88,-75.96 502.15,-85.15 506.73,-79.85"/>
</a>
</g>
</g>
<!-- Node24 -->
<g id="Node000024" class="node">
<title>Node24</title>
<g id="a_Node000024"><a xlink:href="_checksum_8h.html" target="_top" xlink:title=" ">
<polygon fill="white" stroke="#666666" points="519.64,-129.75 448.14,-129.75 448.14,-110.5 519.64,-110.5 519.64,-129.75"/>
<text text-anchor="middle" x="483.89" y="-116.25" font-family="Helvetica,sans-Serif" font-size="10.00">Checksum.h</text>
</a>
</g>
</g>
<!-- Node23&#45;&gt;Node24 -->
<g id="edge28_Node000023_Node000024" class="edge">
<title>Node23&#45;&gt;Node24</title>
<g id="a_edge28_Node000023_Node000024"><a xlink:title=" ">
<path fill="none" stroke="#63b8ff" d="M539.52,-165.34C529.84,-157.65 515.69,-146.4 504.08,-137.18"/>
<polygon fill="#63b8ff" stroke="#63b8ff" points="506.28,-134.45 496.27,-130.97 501.92,-139.93 506.28,-134.45"/>
</a>
</g>
</g>
<!-- Node25 -->
<g id="Node000025" class="node">
<title>Node25</title>
<g id="a_Node000025"><a xlink:title=" ">
<polygon fill="#e0e0e0" stroke="#999999" points="604.29,-129.75 575.49,-129.75 575.49,-110.5 604.29,-110.5 604.29,-129.75"/>
<text text-anchor="middle" x="589.89" y="-116.25" font-family="Helvetica,sans-Serif" font-size="10.00">bit</text>
</a>
</g>
</g>
<!-- Node23&#45;&gt;Node25 -->
<g id="edge30_Node000023_Node000025" class="edge">
<title>Node23&#45;&gt;Node25</title>
<g id="a_edge30_Node000023_Node000025"><a xlink:title=" ">
<path fill="none" stroke="#63b8ff" d="M557.33,-165.58C562.55,-158.46 570.07,-148.18 576.58,-139.3"/>
<polygon fill="#63b8ff" stroke="#63b8ff" points="579.33,-141.47 582.41,-131.33 573.68,-137.33 579.33,-141.47"/>
</a>
</g>
</g>
<!-- Node24&#45;&gt;Node12 -->
<g id="edge29_Node000024_Node000012" class="edge">
<title>Node24&#45;&gt;Node12</title>
<g id="a_edge29_Node000024_Node000012"><a xlink:title=" ">
<path fill="none" stroke="#63b8ff" d="M483.89,-110.33C483.89,-103.82 483.89,-94.67 483.89,-86.37"/>
<polygon fill="#63b8ff" stroke="#63b8ff" points="487.39,-86.37 483.89,-76.37 480.39,-86.37 487.39,-86.37"/>
</a>
</g>
</g>
<!-- Node28&#45;&gt;Node5 -->
<g id="edge55_Node000028_Node000005" class="edge">
<title>Node28&#45;&gt;Node5</title>
<g id="a_edge55_Node000028_Node000005"><a xlink:title=" ">
<path fill="none" stroke="#63b8ff" d="M553.14,-552.09C530.71,-543.56 496.82,-530.67 471.41,-521.01"/>
<polygon fill="#63b8ff" stroke="#63b8ff" points="472.76,-517.77 462.17,-517.49 470.27,-524.32 472.76,-517.77"/>
</a>
</g>
</g>
<!-- Node29 -->
<g id="Node000029" class="node">
<title>Node29</title>
<g id="a_Node000029"><a xlink:href="_f_s_descriptors_8h.html" target="_top" xlink:title=" ">
<polygon fill="white" stroke="#666666" points="1056.51,-406 969.26,-406 969.26,-386.75 1056.51,-386.75 1056.51,-406"/>
<text text-anchor="middle" x="1012.89" y="-392.5" font-family="Helvetica,sans-Serif" font-size="10.00">FSDescriptors.h</text>
</a>
</g>
</g>
<!-- Node28&#45;&gt;Node29 -->
<g id="edge34_Node000028_Node000029" class="edge">
<title>Node28&#45;&gt;Node29</title>
<g id="a_edge34_Node000028_Node000029"><a xlink:title=" ">
<path fill="none" stroke="#63b8ff" d="M614.11,-558.97C686.11,-553.26 847.21,-532.82 958.89,-461.25 976.99,-449.65 992.22,-430.1 1001.84,-415.68"/>
<polygon fill="#63b8ff" stroke="#63b8ff" points="1004.59,-417.87 1007,-407.55 998.69,-414.11 1004.59,-417.87"/>
</a>
</g>
</g>
<!-- Node32 -->
<g id="Node000032" class="node">
<title>Node32</title>
<g id="a_Node000032"><a xlink:href="_f_s_block_8h.html" target="_top" xlink:title=" ">
<polygon fill="white" stroke="#666666" points="832.76,-461.25 771.01,-461.25 771.01,-442 832.76,-442 832.76,-461.25"/>
<text text-anchor="middle" x="801.89" y="-447.75" font-family="Helvetica,sans-Serif" font-size="10.00">FSBlock.h</text>
</a>
</g>
</g>
<!-- Node28&#45;&gt;Node32 -->
<g id="edge42_Node000028_Node000032" class="edge">
<title>Node28&#45;&gt;Node32</title>
<g id="a_edge42_Node000028_Node000032"><a xlink:title=" ">
<path fill="none" stroke="#63b8ff" d="M595.68,-552.06C634.98,-533.11 726.03,-489.2 772.89,-466.61"/>
<polygon fill="#63b8ff" stroke="#63b8ff" points="774.14,-469.89 781.62,-462.4 771.09,-463.59 774.14,-469.89"/>
</a>
</g>
</g>
<!-- Node34 -->
<g id="Node000034" class="node">
<title>Node34</title>
<g id="a_Node000034"><a xlink:href="_f_s_dir_entry_8h.html" target="_top" xlink:title=" ">
<polygon fill="white" stroke="#666666" points="949.64,-461.25 878.14,-461.25 878.14,-442 949.64,-442 949.64,-461.25"/>
<text text-anchor="middle" x="913.89" y="-447.75" font-family="Helvetica,sans-Serif" font-size="10.00">FSDirEntry.h</text>
</a>
</g>
</g>
<!-- Node28&#45;&gt;Node34 -->
<g id="edge49_Node000028_Node000034" class="edge">
<title>Node28&#45;&gt;Node34</title>
<g id="a_edge49_Node000028_Node000034"><a xlink:title=" ">
<path fill="none" stroke="#63b8ff" d="M605.04,-552.06C665.13,-532.71 806.05,-487.34 874.79,-465.21"/>
<polygon fill="#63b8ff" stroke="#63b8ff" points="875.69,-468.6 884.14,-462.2 873.55,-461.94 875.69,-468.6"/>
</a>
</g>
</g>
<!-- Node35 -->
<g id="Node000035" class="node">
<title>Node35</title>
<g id="a_Node000035"><a xlink:href="_d64_file_8h.html" target="_top" xlink:title=" ">
<polygon fill="white" stroke="#666666" points="636.89,-516.5 578.89,-516.5 578.89,-497.25 636.89,-497.25 636.89,-516.5"/>
<text text-anchor="middle" x="607.89" y="-503" font-family="Helvetica,sans-Serif" font-size="10.00">D64File.h</text>
</a>
</g>
</g>
<!-- Node28&#45;&gt;Node35 -->
<g id="edge53_Node000028_Node000035" class="edge">
<title>Node28&#45;&gt;Node35</title>
<g id="a_edge53_Node000028_Node000035"><a xlink:title=" ">
<path fill="none" stroke="#63b8ff" d="M582.01,-552.33C586.06,-545.36 591.88,-535.37 596.97,-526.62"/>
<polygon fill="#63b8ff" stroke="#63b8ff" points="599.89,-528.57 601.9,-518.17 593.84,-525.05 599.89,-528.57"/>
</a>
</g>
</g>
<!-- Node28&#45;&gt;Node36 -->
<g id="edge56_Node000028_Node000036" class="edge">
<title>Node28&#45;&gt;Node36</title>
<g id="a_edge56_Node000028_Node000036"><a xlink:title=" ">
<path fill="none" stroke="#63b8ff" d="M566.3,-552C550.24,-538.54 518.38,-513.23 487.89,-497.25 460.36,-482.83 427.15,-471.22 401.88,-463.46"/>
<polygon fill="#63b8ff" stroke="#63b8ff" points="402.91,-460.11 392.33,-460.6 400.91,-466.82 402.91,-460.11"/>
</a>
</g>
</g>
<!-- Node38 -->
<g id="Node000038" class="node">
<title>Node38</title>
<g id="a_Node000038"><a xlink:title=" ">
<polygon fill="#e0e0e0" stroke="#999999" points="433.39,-350.75 390.39,-350.75 390.39,-331.5 433.39,-331.5 433.39,-350.75"/>
<text text-anchor="middle" x="411.89" y="-337.25" font-family="Helvetica,sans-Serif" font-size="10.00">vector</text>
</a>
</g>
</g>
<!-- Node28&#45;&gt;Node38 -->
<g id="edge69_Node000028_Node000038" class="edge">
<title>Node28&#45;&gt;Node38</title>
<g id="a_edge69_Node000028_Node000038"><a xlink:title=" ">
<path fill="none" stroke="#63b8ff" d="M570.21,-552.27C545.49,-519.45 458.81,-404.41 425.28,-359.9"/>
<polygon fill="#63b8ff" stroke="#63b8ff" points="428.19,-357.94 419.37,-352.06 422.59,-362.15 428.19,-357.94"/>
</a>
</g>
</g>
<!-- Node29&#45;&gt;Node7 -->
<g id="edge35_Node000029_Node000007" class="edge">
<title>Node29&#45;&gt;Node7</title>
<g id="a_edge35_Node000029_Node000007"><a xlink:title=" ">
<path fill="none" stroke="#63b8ff" d="M977.43,-386.34C942.45,-377.43 888.79,-363.76 850.4,-353.98"/>
<polygon fill="#63b8ff" stroke="#63b8ff" points="851.54,-350.65 840.98,-351.58 849.81,-357.44 851.54,-350.65"/>
</a>
</g>
</g>
<!-- Node30 -->
<g id="Node000030" class="node">
<title>Node30</title>
<g id="a_Node000030"><a xlink:href="_disk_types_8h.html" target="_top" xlink:title=" ">
<polygon fill="white" stroke="#666666" points="1019.26,-240.25 948.51,-240.25 948.51,-221 1019.26,-221 1019.26,-240.25"/>
<text text-anchor="middle" x="983.89" y="-226.75" font-family="Helvetica,sans-Serif" font-size="10.00">DiskTypes.h</text>
</a>
</g>
</g>
<!-- Node29&#45;&gt;Node30 -->
<g id="edge36_Node000029_Node000030" class="edge">
<title>Node29&#45;&gt;Node30</title>
<g id="a_edge36_Node000029_Node000030"><a xlink:title=" ">
<path fill="none" stroke="#63b8ff" d="M1011.33,-386.57C1006.82,-361.14 993.71,-287.1 987.38,-251.37"/>
<polygon fill="#63b8ff" stroke="#63b8ff" points="990.91,-251.2 985.72,-241.96 984.02,-252.42 990.91,-251.2"/>
</a>
</g>
</g>
<!-- Node31 -->
<g id="Node000031" class="node">
<title>Node31</title>
<g id="a_Node000031"><a xlink:href="_f_s_types_8h.html" target="_top" xlink:title=" ">
<polygon fill="white" stroke="#666666" points="972.51,-350.75 909.26,-350.75 909.26,-331.5 972.51,-331.5 972.51,-350.75"/>
<text text-anchor="middle" x="940.89" y="-337.25" font-family="Helvetica,sans-Serif" font-size="10.00">FSTypes.h</text>
</a>
</g>
</g>
<!-- Node29&#45;&gt;Node31 -->
<g id="edge39_Node000029_Node000031" class="edge">
<title>Node29&#45;&gt;Node31</title>
<g id="a_edge39_Node000029_Node000031"><a xlink:title=" ">
<path fill="none" stroke="#63b8ff" d="M1000.67,-386.34C990.06,-378.49 974.45,-366.95 961.84,-357.62"/>
<polygon fill="#63b8ff" stroke="#63b8ff" points="964.26,-355.06 954.14,-351.92 960.1,-360.69 964.26,-355.06"/>
</a>
</g>
</g>
<!-- Node30&#45;&gt;Node10 -->
<g id="edge37_Node000030_Node000010" class="edge">
<title>Node30&#45;&gt;Node10</title>
<g id="a_edge37_Node000030_Node000010"><a xlink:title=" ">
<path fill="none" stroke="#63b8ff" d="M983.89,-220.83C983.89,-214.32 983.89,-205.17 983.89,-196.87"/>
<polygon fill="#63b8ff" stroke="#63b8ff" points="987.39,-196.87 983.89,-186.87 980.39,-196.87 987.39,-196.87"/>
</a>
</g>
</g>
<!-- Node30&#45;&gt;Node16 -->
<g id="edge38_Node000030_Node000016" class="edge">
<title>Node30&#45;&gt;Node16</title>
<g id="a_edge38_Node000030_Node000016"><a xlink:title=" ">
<path fill="none" stroke="#63b8ff" d="M966.24,-220.59C950.26,-212.41 926.43,-200.21 907.85,-190.69"/>
<polygon fill="#63b8ff" stroke="#63b8ff" points="909.46,-187.58 898.96,-186.14 906.27,-193.82 909.46,-187.58"/>
</a>
</g>
</g>
<!-- Node31&#45;&gt;Node10 -->
<g id="edge40_Node000031_Node000010" class="edge">
<title>Node31&#45;&gt;Node10</title>
<g id="a_edge40_Node000031_Node000010"><a xlink:title=" ">
<path fill="none" stroke="#63b8ff" d="M953.15,-331.05C973.34,-315.25 1012.81,-280.52 1027.89,-240.25 1034.55,-222.46 1020.5,-204.87 1006.55,-192.67"/>
<polygon fill="#63b8ff" stroke="#63b8ff" points="1008.78,-189.98 998.79,-186.44 1004.39,-195.43 1008.78,-189.98"/>
</a>
</g>
</g>
<!-- Node31&#45;&gt;Node16 -->
<g id="edge41_Node000031_Node000016" class="edge">
<title>Node31&#45;&gt;Node16</title>
<g id="a_edge41_Node000031_Node000016"><a xlink:title=" ">
<path fill="none" stroke="#63b8ff" d="M938.38,-331C932.74,-310.84 918.24,-261.1 901.89,-221 898.42,-212.51 894.05,-203.39 890.12,-195.62"/>
<polygon fill="#63b8ff" stroke="#63b8ff" points="893.24,-194.03 885.52,-186.77 887.03,-197.26 893.24,-194.03"/>
</a>
</g>
</g>
<!-- Node32&#45;&gt;Node7 -->
<g id="edge47_Node000032_Node000007" class="edge">
<title>Node32&#45;&gt;Node7</title>
<g id="a_edge47_Node000032_Node000007"><a xlink:title=" ">
<path fill="none" stroke="#63b8ff" d="M815.09,-441.77C825.65,-433.83 839.69,-421.1 845.89,-406 853.03,-388.57 839.35,-370.84 825.73,-358.49"/>
<polygon fill="#63b8ff" stroke="#63b8ff" points="828.1,-355.91 818.18,-352.19 823.61,-361.28 828.1,-355.91"/>
</a>
</g>
</g>
<!-- Node32&#45;&gt;Node22 -->
<g id="edge48_Node000032_Node000022" class="edge">
<title>Node32&#45;&gt;Node22</title>
<g id="a_edge48_Node000032_Node000022"><a xlink:title=" ">
<path fill="none" stroke="#63b8ff" d="M801.89,-441.83C801.89,-435.32 801.89,-426.17 801.89,-417.87"/>
<polygon fill="#63b8ff" stroke="#63b8ff" points="805.39,-417.87 801.89,-407.87 798.39,-417.87 805.39,-417.87"/>
</a>
</g>
</g>
<!-- Node32&#45;&gt;Node31 -->
<g id="edge43_Node000032_Node000031" class="edge">
<title>Node32&#45;&gt;Node31</title>
<g id="a_edge43_Node000032_Node000031"><a xlink:title=" ">
<path fill="none" stroke="#63b8ff" d="M813.71,-441.83C825.67,-432.89 844.66,-418.61 860.89,-406 881.65,-389.86 905.14,-371.04 921.26,-358.03"/>
<polygon fill="#63b8ff" stroke="#63b8ff" points="923.08,-361.06 928.65,-352.06 918.68,-355.62 923.08,-361.06"/>
</a>
</g>
</g>
<!-- Node33 -->
<g id="Node000033" class="node">
<title>Node33</title>
<g id="a_Node000033"><a xlink:href="_buffer_8h.html" target="_top" xlink:title=" ">
<polygon fill="white" stroke="#666666" points="499.76,-185 450.01,-185 450.01,-165.75 499.76,-165.75 499.76,-185"/>
<text text-anchor="middle" x="474.89" y="-171.5" font-family="Helvetica,sans-Serif" font-size="10.00">Buffer.h</text>
</a>
</g>
</g>
<!-- Node32&#45;&gt;Node33 -->
<g id="edge44_Node000032_Node000033" class="edge">
<title>Node32&#45;&gt;Node33</title>
<g id="a_edge44_Node000032_Node000033"><a xlink:title=" ">
<path fill="none" stroke="#63b8ff" d="M789.81,-441.62C766.51,-424.21 713.77,-384.67 669.89,-350.75 638.53,-326.51 629.82,-321.48 599.89,-295.5 559.73,-260.65 515.23,-216.92 491.67,-193.33"/>
<polygon fill="#63b8ff" stroke="#63b8ff" points="494.32,-191.03 484.78,-186.41 489.35,-195.97 494.32,-191.03"/>
</a>
</g>
</g>
<!-- Node33&#45;&gt;Node12 -->
<g id="edge45_Node000033_Node000012" class="edge">
<title>Node33&#45;&gt;Node12</title>
<g id="a_edge45_Node000033_Node000012"><a xlink:title=" ">
<path fill="none" stroke="#63b8ff" d="M464.01,-165.62C450.52,-153.62 430.27,-131.18 438.89,-110.5 443.54,-99.34 452.48,-89.55 461.18,-81.99"/>
<polygon fill="#63b8ff" stroke="#63b8ff" points="463.15,-84.9 468.78,-75.92 458.78,-79.43 463.15,-84.9"/>
</a>
</g>
</g>
<!-- Node33&#45;&gt;Node24 -->
<g id="edge46_Node000033_Node000024" class="edge">
<title>Node33&#45;&gt;Node24</title>
<g id="a_edge46_Node000033_Node000024"><a xlink:title=" ">
<path fill="none" stroke="#63b8ff" d="M476.37,-165.58C477.49,-158.99 479.06,-149.71 480.47,-141.32"/>
<polygon fill="#63b8ff" stroke="#63b8ff" points="483.9,-142.05 482.12,-131.6 477,-140.88 483.9,-142.05"/>
</a>
</g>
</g>
<!-- Node34&#45;&gt;Node10 -->
<g id="edge50_Node000034_Node000010" class="edge">
<title>Node34&#45;&gt;Node10</title>
<g id="a_edge50_Node000034_Node000010"><a xlink:title=" ">
<path fill="none" stroke="#63b8ff" d="M950.12,-449.5C984.42,-446.48 1035.11,-436.67 1065.89,-406 1086.87,-385.09 1084.89,-371.74 1084.89,-342.12 1084.89,-342.12 1084.89,-342.12 1084.89,-284.88 1084.89,-241.83 1041.76,-208.71 1011.87,-190.93"/>
<polygon fill="#63b8ff" stroke="#63b8ff" points="1013.68,-187.93 1003.26,-186.03 1010.22,-194.02 1013.68,-187.93"/>
</a>
</g>
</g>
<!-- Node34&#45;&gt;Node22 -->
<g id="edge52_Node000034_Node000022" class="edge">
<title>Node34&#45;&gt;Node22</title>
<g id="a_edge52_Node000034_Node000022"><a xlink:title=" ">
<path fill="none" stroke="#63b8ff" d="M894.89,-441.59C877.43,-433.29 851.29,-420.86 831.16,-411.29"/>
<polygon fill="#63b8ff" stroke="#63b8ff" points="832.88,-408.24 822.35,-407.1 829.87,-414.56 832.88,-408.24"/>
</a>
</g>
</g>
<!-- Node34&#45;&gt;Node31 -->
<g id="edge51_Node000034_Node000031" class="edge">
<title>Node34&#45;&gt;Node31</title>
<g id="a_edge51_Node000034_Node000031"><a xlink:title=" ">
<path fill="none" stroke="#63b8ff" d="M916.1,-441.75C920.41,-424.42 930.04,-385.73 935.94,-361.99"/>
<polygon fill="#63b8ff" stroke="#63b8ff" points="939.26,-363.14 938.28,-352.6 932.47,-361.45 939.26,-363.14"/>
</a>
</g>
</g>
<!-- Node35&#45;&gt;Node6 -->
<g id="edge54_Node000035_Node000006" class="edge">
<title>Node35&#45;&gt;Node6</title>
<g id="a_edge54_Node000035_Node000006"><a xlink:title=" ">
<path fill="none" stroke="#63b8ff" d="M608.22,-497.08C608.46,-490.49 608.81,-481.21 609.13,-472.82"/>
<polygon fill="#63b8ff" stroke="#63b8ff" points="612.61,-473.25 609.49,-463.12 605.62,-472.98 612.61,-473.25"/>
</a>
</g>
</g>
<!-- Node36&#45;&gt;Node12 -->
<g id="edge57_Node000036_Node000012" class="edge">
<title>Node36&#45;&gt;Node12</title>
<g id="a_edge57_Node000036_Node000012"><a xlink:title=" ">
<path fill="none" stroke="#63b8ff" d="M334.93,-450.78C261.79,-450.59 67.14,-446.25 19.89,-406 -2.66,-386.79 0.89,-371.74 0.89,-342.12 0.89,-342.12 0.89,-342.12 0.89,-174.38 0.89,-83.06 333.71,-68.58 446.8,-66.3"/>
<polygon fill="#63b8ff" stroke="#63b8ff" points="446.81,-69.8 456.75,-66.12 446.69,-62.8 446.81,-69.8"/>
</a>
</g>
</g>
<!-- Node36&#45;&gt;Node20 -->
<g id="edge65_Node000036_Node000020" class="edge">
<title>Node36&#45;&gt;Node20</title>
<g id="a_edge65_Node000036_Node000020"><a xlink:title=" ">
<path fill="none" stroke="#63b8ff" d="M372.71,-441.77C409.5,-408.62 539.43,-291.52 587.67,-248.04"/>
<polygon fill="#63b8ff" stroke="#63b8ff" points="589.73,-250.9 594.81,-241.6 585.04,-245.7 589.73,-250.9"/>
</a>
</g>
</g>
<!-- Node36&#45;&gt;Node26 -->
<g id="edge66_Node000036_Node000026" class="edge">
<title>Node36&#45;&gt;Node26</title>
<g id="a_edge66_Node000036_Node000026"><a xlink:title=" ">
<path fill="none" stroke="#63b8ff" d="M390.86,-442.3C421.6,-433.16 471.11,-418.43 505.01,-408.34"/>
<polygon fill="#63b8ff" stroke="#63b8ff" points="505.82,-411.76 514.41,-405.55 503.83,-405.05 505.82,-411.76"/>
</a>
</g>
</g>
<!-- Node36&#45;&gt;Node27 -->
<g id="edge63_Node000036_Node000027" class="edge">
<title>Node36&#45;&gt;Node27</title>
<g id="a_edge63_Node000036_Node000027"><a xlink:title=" ">
<path fill="none" stroke="#63b8ff" d="M390.69,-445.29C429.6,-437.72 502.78,-423.13 574.09,-406.57"/>
<polygon fill="#63b8ff" stroke="#63b8ff" points="574.64,-410.04 583.58,-404.35 573.05,-403.22 574.64,-410.04"/>
</a>
</g>
</g>
<!-- Node37 -->
<g id="Node000037" class="node">
<title>Node37</title>
<g id="a_Node000037"><a xlink:href="_string_utils_8h.html" target="_top" xlink:title=" ">
<polygon fill="white" stroke="#666666" points="305.89,-406 235.89,-406 235.89,-386.75 305.89,-386.75 305.89,-406"/>
<text text-anchor="middle" x="270.89" y="-392.5" font-family="Helvetica,sans-Serif" font-size="10.00">StringUtils.h</text>
</a>
</g>
</g>
<!-- Node36&#45;&gt;Node37 -->
<g id="edge58_Node000036_Node000037" class="edge">
<title>Node36&#45;&gt;Node37</title>
<g id="a_edge58_Node000036_Node000037"><a xlink:title=" ">
<path fill="none" stroke="#63b8ff" d="M347.28,-441.59C333.27,-433.48 312.45,-421.43 296.09,-411.96"/>
<polygon fill="#63b8ff" stroke="#63b8ff" points="298.29,-409.19 287.88,-407.21 294.78,-415.25 298.29,-409.19"/>
</a>
</g>
</g>
<!-- Node36&#45;&gt;Node38 -->
<g id="edge68_Node000036_Node000038" class="edge">
<title>Node36&#45;&gt;Node38</title>
<g id="a_edge68_Node000036_Node000038"><a xlink:title=" ">
<path fill="none" stroke="#63b8ff" d="M370.2,-441.55C376.9,-432.86 386.68,-419.17 392.89,-406 399.54,-391.88 404.46,-374.91 407.62,-362.01"/>
<polygon fill="#63b8ff" stroke="#63b8ff" points="410.96,-363.12 409.78,-352.59 404.13,-361.55 410.96,-363.12"/>
</a>
</g>
</g>
<!-- Node39 -->
<g id="Node000039" class="node">
<title>Node39</title>
<g id="a_Node000039"><a xlink:title=" ">
<polygon fill="#e0e0e0" stroke="#999999" points="72.39,-406 29.39,-406 29.39,-386.75 72.39,-386.75 72.39,-406"/>
<text text-anchor="middle" x="50.89" y="-392.5" font-family="Helvetica,sans-Serif" font-size="10.00">fcntl.h</text>
</a>
</g>
</g>
<!-- Node36&#45;&gt;Node39 -->
<g id="edge61_Node000036_Node000039" class="edge">
<title>Node36&#45;&gt;Node39</title>
<g id="a_edge61_Node000036_Node000039"><a xlink:title=" ">
<path fill="none" stroke="#63b8ff" d="M335.05,-447.37C286.1,-441.41 181.24,-427.54 83.97,-406.47"/>
<polygon fill="#63b8ff" stroke="#63b8ff" points="84.76,-403.06 74.24,-404.33 83.25,-409.9 84.76,-403.06"/>
</a>
</g>
</g>
<!-- Node40 -->
<g id="Node000040" class="node">
<title>Node40</title>
<g id="a_Node000040"><a xlink:title=" ">
<polygon fill="#e0e0e0" stroke="#999999" points="151.39,-406 90.39,-406 90.39,-386.75 151.39,-386.75 151.39,-406"/>
<text text-anchor="middle" x="120.89" y="-392.5" font-family="Helvetica,sans-Serif" font-size="10.00">filesystem</text>
</a>
</g>
</g>
<!-- Node36&#45;&gt;Node40 -->
<g id="edge62_Node000036_Node000040" class="edge">
<title>Node36&#45;&gt;Node40</title>
<g id="a_edge62_Node000036_Node000040"><a xlink:title=" ">
<path fill="none" stroke="#63b8ff" d="M335.13,-444.52C292.86,-435.22 212.06,-417.44 162.68,-406.57"/>
<polygon fill="#63b8ff" stroke="#63b8ff" points="163.74,-403.22 153.22,-404.49 162.23,-410.06 163.74,-403.22"/>
</a>
</g>
</g>
<!-- Node41 -->
<g id="Node000041" class="node">
<title>Node41</title>
<g id="a_Node000041"><a xlink:title=" ">
<polygon fill="#e0e0e0" stroke="#999999" points="218.01,-406 169.76,-406 169.76,-386.75 218.01,-386.75 218.01,-406"/>
<text text-anchor="middle" x="193.89" y="-392.5" font-family="Helvetica,sans-Serif" font-size="10.00">istream</text>
</a>
</g>
</g>
<!-- Node36&#45;&gt;Node41 -->
<g id="edge64_Node000036_Node000041" class="edge">
<title>Node36&#45;&gt;Node41</title>
<g id="a_edge64_Node000036_Node000041"><a xlink:title=" ">
<path fill="none" stroke="#63b8ff" d="M334.98,-441.83C306.01,-432.7 260.6,-418.4 229.16,-408.49"/>
<polygon fill="#63b8ff" stroke="#63b8ff" points="230.3,-405.18 219.71,-405.51 228.2,-411.86 230.3,-405.18"/>
</a>
</g>
</g>
<!-- Node42 -->
<g id="Node000042" class="node">
<title>Node42</title>
<g id="a_Node000042"><a xlink:title=" ">
<polygon fill="#e0e0e0" stroke="#999999" points="383.64,-406 324.14,-406 324.14,-386.75 383.64,-386.75 383.64,-406"/>
<text text-anchor="middle" x="353.89" y="-392.5" font-family="Helvetica,sans-Serif" font-size="10.00">sys/stat.h</text>
</a>
</g>
</g>
<!-- Node36&#45;&gt;Node42 -->
<g id="edge67_Node000036_Node000042" class="edge">
<title>Node36&#45;&gt;Node42</title>
<g id="a_edge67_Node000036_Node000042"><a xlink:title=" ">
<path fill="none" stroke="#63b8ff" d="M361.4,-441.83C360.29,-435.24 358.72,-425.96 357.3,-417.57"/>
<polygon fill="#63b8ff" stroke="#63b8ff" points="360.78,-417.13 355.66,-407.85 353.87,-418.3 360.78,-417.13"/>
</a>
</g>
</g>
<!-- Node37&#45;&gt;Node12 -->
<g id="edge59_Node000037_Node000012" class="edge">
<title>Node37&#45;&gt;Node12</title>
<g id="a_edge59_Node000037_Node000012"><a xlink:title=" ">
<path fill="none" stroke="#63b8ff" d="M277.67,-386.35C290.47,-368.41 316.89,-326.57 316.89,-286.88 316.89,-286.88 316.89,-286.88 316.89,-174.38 316.89,-112.76 397.82,-84.35 447,-72.77"/>
<polygon fill="#63b8ff" stroke="#63b8ff" points="447.67,-76.21 456.68,-70.63 446.16,-69.37 447.67,-76.21"/>
</a>
</g>
</g>
<!-- Node37&#45;&gt;Node38 -->
<g id="edge60_Node000037_Node000038" class="edge">
<title>Node37&#45;&gt;Node38</title>
<g id="a_edge60_Node000037_Node000038"><a xlink:title=" ">
<path fill="none" stroke="#63b8ff" d="M294.81,-386.34C318.08,-377.55 353.6,-364.14 379.42,-354.39"/>
<polygon fill="#63b8ff" stroke="#63b8ff" points="380.64,-357.67 388.75,-350.86 378.16,-351.12 380.64,-357.67"/>
</a>
</g>
</g>
</g>
</svg>
