<?xml version="1.0" encoding="UTF-8" standalone="no"?>
<!DOCTYPE svg PUBLIC "-//W3C//DTD SVG 1.1//EN"
 "http://www.w3.org/Graphics/SVG/1.1/DTD/svg11.dtd">
<!-- Generated by graphviz version 10.0.1 (20240210.2158)
 -->
<!-- Title: /Users/hoff/Retro/virtualc64/Emulator/Media/TAPFile.cpp Pages: 1 -->
<svg width="800pt" height="591pt"
 viewBox="0.00 0.00 800.25 591.00" xmlns="http://www.w3.org/2000/svg" xmlns:xlink="http://www.w3.org/1999/xlink">
<g id="graph0" class="graph" transform="scale(1 1) rotate(0) translate(4 587)">
<title>/Users/hoff/Retro/virtualc64/Emulator/Media/TAPFile.cpp</title>
<!-- Node1 -->
<g id="Node000001" class="node">
<title>Node1</title>
<g id="a_Node000001"><a xlink:title=" ">
<polygon fill="#999999" stroke="#666666" points="258.88,-583 115.38,-583 115.38,-552.5 258.88,-552.5 258.88,-583"/>
<text text-anchor="start" x="123.38" y="-569.5" font-family="Helvetica,sans-Serif" font-size="10.00">/Users/hoff/Retro/virtualc64</text>
<text text-anchor="middle" x="187.12" y="-558.25" font-family="Helvetica,sans-Serif" font-size="10.00">/Emulator/Media/TAPFile.cpp</text>
</a>
</g>
</g>
<!-- Node2 -->
<g id="Node000002" class="node">
<title>Node2</title>
<g id="a_Node000002"><a xlink:href="config_8h.html" target="_top" xlink:title=" ">
<polygon fill="white" stroke="#666666" points="139.38,-516.5 88.88,-516.5 88.88,-497.25 139.38,-497.25 139.38,-516.5"/>
<text text-anchor="middle" x="114.12" y="-503" font-family="Helvetica,sans-Serif" font-size="10.00">config.h</text>
</a>
</g>
</g>
<!-- Node1&#45;&gt;Node2 -->
<g id="edge1_Node000001_Node000002" class="edge">
<title>Node1&#45;&gt;Node2</title>
<g id="a_edge1_Node000001_Node000002"><a xlink:title=" ">
<path fill="none" stroke="#63b8ff" d="M169.08,-552.2C158.5,-543.66 145.11,-532.87 134.2,-524.06"/>
<polygon fill="#63b8ff" stroke="#63b8ff" points="136.54,-521.45 126.56,-517.9 132.14,-526.9 136.54,-521.45"/>
</a>
</g>
</g>
<!-- Node4 -->
<g id="Node000004" class="node">
<title>Node4</title>
<g id="a_Node000004"><a xlink:href="_t_a_p_file_8h.html" target="_top" xlink:title=" ">
<polygon fill="white" stroke="#666666" points="216.5,-516.5 157.75,-516.5 157.75,-497.25 216.5,-497.25 216.5,-516.5"/>
<text text-anchor="middle" x="187.12" y="-503" font-family="Helvetica,sans-Serif" font-size="10.00">TAPFile.h</text>
</a>
</g>
</g>
<!-- Node1&#45;&gt;Node4 -->
<g id="edge3_Node000001_Node000004" class="edge">
<title>Node1&#45;&gt;Node4</title>
<g id="a_edge3_Node000001_Node000004"><a xlink:title=" ">
<path fill="none" stroke="#63b8ff" d="M187.12,-552.2C187.12,-544.96 187.12,-536.09 187.12,-528.19"/>
<polygon fill="#63b8ff" stroke="#63b8ff" points="190.63,-528.46 187.13,-518.46 183.63,-528.46 190.63,-528.46"/>
</a>
</g>
</g>
<!-- Node27 -->
<g id="Node000027" class="node">
<title>Node27</title>
<g id="a_Node000027"><a xlink:href="_i_o_utils_8h.html" target="_top" xlink:title=" ">
<polygon fill="white" stroke="#666666" points="501.62,-461.25 446.62,-461.25 446.62,-442 501.62,-442 501.62,-461.25"/>
<text text-anchor="middle" x="474.12" y="-447.75" font-family="Helvetica,sans-Serif" font-size="10.00">IOUtils.h</text>
</a>
</g>
</g>
<!-- Node1&#45;&gt;Node27 -->
<g id="edge32_Node000001_Node000027" class="edge">
<title>Node1&#45;&gt;Node27</title>
<g id="a_edge32_Node000001_Node000027"><a xlink:title=" ">
<path fill="none" stroke="#63b8ff" d="M224.06,-552.06C280.43,-529.65 387.06,-487.24 441.04,-465.78"/>
<polygon fill="#63b8ff" stroke="#63b8ff" points="442.01,-469.16 450.01,-462.21 439.42,-462.66 442.01,-469.16"/>
</a>
</g>
</g>
<!-- Node3 -->
<g id="Node000003" class="node">
<title>Node3</title>
<g id="a_Node000003"><a xlink:title=" ">
<polygon fill="#e0e0e0" stroke="#999999" points="139.75,-461.25 88.5,-461.25 88.5,-442 139.75,-442 139.75,-461.25"/>
<text text-anchor="middle" x="114.12" y="-447.75" font-family="Helvetica,sans-Serif" font-size="10.00">assert.h</text>
</a>
</g>
</g>
<!-- Node2&#45;&gt;Node3 -->
<g id="edge2_Node000002_Node000003" class="edge">
<title>Node2&#45;&gt;Node3</title>
<g id="a_edge2_Node000002_Node000003"><a xlink:title=" ">
<path fill="none" stroke="#63b8ff" d="M114.12,-497.08C114.12,-490.57 114.12,-481.42 114.12,-473.12"/>
<polygon fill="#63b8ff" stroke="#63b8ff" points="117.63,-473.12 114.13,-463.12 110.63,-473.12 117.63,-473.12"/>
</a>
</g>
</g>
<!-- Node5 -->
<g id="Node000005" class="node">
<title>Node5</title>
<g id="a_Node000005"><a xlink:href="_any_file_8h.html" target="_top" xlink:title=" ">
<polygon fill="white" stroke="#666666" points="214.75,-461.25 157.5,-461.25 157.5,-442 214.75,-442 214.75,-461.25"/>
<text text-anchor="middle" x="186.12" y="-447.75" font-family="Helvetica,sans-Serif" font-size="10.00">AnyFile.h</text>
</a>
</g>
</g>
<!-- Node4&#45;&gt;Node5 -->
<g id="edge4_Node000004_Node000005" class="edge">
<title>Node4&#45;&gt;Node5</title>
<g id="a_edge4_Node000004_Node000005"><a xlink:title=" ">
<path fill="none" stroke="#63b8ff" d="M186.96,-497.08C186.84,-490.57 186.67,-481.42 186.51,-473.12"/>
<polygon fill="#63b8ff" stroke="#63b8ff" points="190.01,-473.05 186.32,-463.12 183.01,-473.19 190.01,-473.05"/>
</a>
</g>
</g>
<!-- Node6 -->
<g id="Node000006" class="node">
<title>Node6</title>
<g id="a_Node000006"><a xlink:href="_core_object_8h.html" target="_top" xlink:title=" ">
<polygon fill="white" stroke="#666666" points="286,-350.75 212.25,-350.75 212.25,-331.5 286,-331.5 286,-350.75"/>
<text text-anchor="middle" x="249.12" y="-337.25" font-family="Helvetica,sans-Serif" font-size="10.00">CoreObject.h</text>
</a>
</g>
</g>
<!-- Node5&#45;&gt;Node6 -->
<g id="edge5_Node000005_Node000006" class="edge">
<title>Node5&#45;&gt;Node6</title>
<g id="a_edge5_Node000005_Node000006"><a xlink:title=" ">
<path fill="none" stroke="#63b8ff" d="M181.86,-441.73C176.3,-428.78 168.4,-404.36 178.12,-386.75 185.64,-373.14 199.24,-363.12 212.54,-356.07"/>
<polygon fill="#63b8ff" stroke="#63b8ff" points="213.7,-359.39 221.19,-351.89 210.66,-353.09 213.7,-359.39"/>
</a>
</g>
</g>
<!-- Node20 -->
<g id="Node000020" class="node">
<title>Node20</title>
<g id="a_Node000020"><a xlink:href="_file_types_8h.html" target="_top" xlink:title=" ">
<polygon fill="white" stroke="#666666" points="66.25,-240.25 0,-240.25 0,-221 66.25,-221 66.25,-240.25"/>
<text text-anchor="middle" x="33.12" y="-226.75" font-family="Helvetica,sans-Serif" font-size="10.00">FileTypes.h</text>
</a>
</g>
</g>
<!-- Node5&#45;&gt;Node20 -->
<g id="edge20_Node000005_Node000020" class="edge">
<title>Node5&#45;&gt;Node20</title>
<g id="a_edge20_Node000005_Node000020"><a xlink:title=" ">
<path fill="none" stroke="#63b8ff" d="M157.03,-442.73C119.7,-432.34 58.9,-414.4 52.12,-406 15.85,-361.04 22.9,-286.96 28.99,-251.61"/>
<polygon fill="#63b8ff" stroke="#63b8ff" points="32.4,-252.42 30.82,-241.95 25.52,-251.12 32.4,-252.42"/>
</a>
</g>
</g>
<!-- Node21 -->
<g id="Node000021" class="node">
<title>Node21</title>
<g id="a_Node000021"><a xlink:href="_p_e_t_name_8h.html" target="_top" xlink:title=" ">
<polygon fill="white" stroke="#666666" points="131.12,-406 61.12,-406 61.12,-386.75 131.12,-386.75 131.12,-406"/>
<text text-anchor="middle" x="96.12" y="-392.5" font-family="Helvetica,sans-Serif" font-size="10.00">PETName.h</text>
</a>
</g>
</g>
<!-- Node5&#45;&gt;Node21 -->
<g id="edge23_Node000005_Node000021" class="edge">
<title>Node5&#45;&gt;Node21</title>
<g id="a_edge23_Node000005_Node000021"><a xlink:title=" ">
<path fill="none" stroke="#63b8ff" d="M170.86,-441.59C157.28,-433.56 137.17,-421.66 121.23,-412.23"/>
<polygon fill="#63b8ff" stroke="#63b8ff" points="123.16,-409.3 112.77,-407.22 119.59,-415.33 123.16,-409.3"/>
</a>
</g>
</g>
<!-- Node25 -->
<g id="Node000025" class="node">
<title>Node25</title>
<g id="a_Node000025"><a xlink:title=" ">
<polygon fill="#e0e0e0" stroke="#999999" points="238.75,-406 187.5,-406 187.5,-386.75 238.75,-386.75 238.75,-406"/>
<text text-anchor="middle" x="213.12" y="-392.5" font-family="Helvetica,sans-Serif" font-size="10.00">sstream</text>
</a>
</g>
</g>
<!-- Node5&#45;&gt;Node25 -->
<g id="edge30_Node000005_Node000025" class="edge">
<title>Node5&#45;&gt;Node25</title>
<g id="a_edge30_Node000005_Node000025"><a xlink:title=" ">
<path fill="none" stroke="#63b8ff" d="M190.58,-441.83C194.08,-434.94 199.07,-425.09 203.47,-416.41"/>
<polygon fill="#63b8ff" stroke="#63b8ff" points="206.48,-418.21 207.89,-407.71 200.24,-415.05 206.48,-418.21"/>
</a>
</g>
</g>
<!-- Node26 -->
<g id="Node000026" class="node">
<title>Node26</title>
<g id="a_Node000026"><a xlink:title=" ">
<polygon fill="#e0e0e0" stroke="#999999" points="305.62,-406 256.62,-406 256.62,-386.75 305.62,-386.75 305.62,-406"/>
<text text-anchor="middle" x="281.12" y="-392.5" font-family="Helvetica,sans-Serif" font-size="10.00">fstream</text>
</a>
</g>
</g>
<!-- Node5&#45;&gt;Node26 -->
<g id="edge31_Node000005_Node000026" class="edge">
<title>Node5&#45;&gt;Node26</title>
<g id="a_edge31_Node000005_Node000026"><a xlink:title=" ">
<path fill="none" stroke="#63b8ff" d="M202.24,-441.59C216.71,-433.48 238.2,-421.43 255.11,-411.96"/>
<polygon fill="#63b8ff" stroke="#63b8ff" points="256.6,-415.14 263.61,-407.19 253.18,-409.03 256.6,-415.14"/>
</a>
</g>
</g>
<!-- Node7 -->
<g id="Node000007" class="node">
<title>Node7</title>
<g id="a_Node000007"><a xlink:href="_error_8h.html" target="_top" xlink:title=" ">
<polygon fill="white" stroke="#666666" points="271.38,-295.5 226.88,-295.5 226.88,-276.25 271.38,-276.25 271.38,-295.5"/>
<text text-anchor="middle" x="249.12" y="-282" font-family="Helvetica,sans-Serif" font-size="10.00">Error.h</text>
</a>
</g>
</g>
<!-- Node6&#45;&gt;Node7 -->
<g id="edge6_Node000006_Node000007" class="edge">
<title>Node6&#45;&gt;Node7</title>
<g id="a_edge6_Node000006_Node000007"><a xlink:title=" ">
<path fill="none" stroke="#63b8ff" d="M249.12,-331.33C249.12,-324.82 249.12,-315.67 249.12,-307.37"/>
<polygon fill="#63b8ff" stroke="#63b8ff" points="252.63,-307.37 249.13,-297.37 245.63,-307.37 252.63,-307.37"/>
</a>
</g>
</g>
<!-- Node18 -->
<g id="Node000018" class="node">
<title>Node18</title>
<g id="a_Node000018"><a xlink:href="_inspectable_8h.html" target="_top" xlink:title=" ">
<polygon fill="white" stroke="#666666" points="374.38,-295.5 299.88,-295.5 299.88,-276.25 374.38,-276.25 374.38,-295.5"/>
<text text-anchor="middle" x="337.12" y="-282" font-family="Helvetica,sans-Serif" font-size="10.00">Inspectable.h</text>
</a>
</g>
</g>
<!-- Node6&#45;&gt;Node18 -->
<g id="edge18_Node000006_Node000018" class="edge">
<title>Node6&#45;&gt;Node18</title>
<g id="a_edge18_Node000006_Node000018"><a xlink:title=" ">
<path fill="none" stroke="#63b8ff" d="M264.05,-331.09C277.33,-323.06 296.99,-311.16 312.58,-301.73"/>
<polygon fill="#63b8ff" stroke="#63b8ff" points="314.09,-304.91 320.83,-296.74 310.46,-298.92 314.09,-304.91"/>
</a>
</g>
</g>
<!-- Node8 -->
<g id="Node000008" class="node">
<title>Node8</title>
<g id="a_Node000008"><a xlink:href="_error_types_8h.html" target="_top" xlink:title=" ">
<polygon fill="white" stroke="#666666" points="155.88,-240.25 84.38,-240.25 84.38,-221 155.88,-221 155.88,-240.25"/>
<text text-anchor="middle" x="120.12" y="-226.75" font-family="Helvetica,sans-Serif" font-size="10.00">ErrorTypes.h</text>
</a>
</g>
</g>
<!-- Node7&#45;&gt;Node8 -->
<g id="edge7_Node000007_Node000008" class="edge">
<title>Node7&#45;&gt;Node8</title>
<g id="a_edge7_Node000007_Node000008"><a xlink:title=" ">
<path fill="none" stroke="#63b8ff" d="M227.24,-275.84C206.76,-267.39 175.91,-254.65 152.57,-245.02"/>
<polygon fill="#63b8ff" stroke="#63b8ff" points="154.09,-241.86 143.51,-241.28 151.42,-248.33 154.09,-241.86"/>
</a>
</g>
</g>
<!-- Node16 -->
<g id="Node000016" class="node">
<title>Node16</title>
<g id="a_Node000016"><a xlink:href="_exception_8h.html" target="_top" xlink:title=" ">
<polygon fill="white" stroke="#666666" points="321,-240.25 253.25,-240.25 253.25,-221 321,-221 321,-240.25"/>
<text text-anchor="middle" x="287.12" y="-226.75" font-family="Helvetica,sans-Serif" font-size="10.00">Exception.h</text>
</a>
</g>
</g>
<!-- Node7&#45;&gt;Node16 -->
<g id="edge15_Node000007_Node000016" class="edge">
<title>Node7&#45;&gt;Node16</title>
<g id="a_edge15_Node000007_Node000016"><a xlink:title=" ">
<path fill="none" stroke="#63b8ff" d="M255.4,-276.08C260.48,-268.96 267.82,-258.68 274.16,-249.8"/>
<polygon fill="#63b8ff" stroke="#63b8ff" points="276.87,-252.01 279.83,-241.84 271.18,-247.95 276.87,-252.01"/>
</a>
</g>
</g>
<!-- Node9 -->
<g id="Node000009" class="node">
<title>Node9</title>
<g id="a_Node000009"><a xlink:href="_aliases_8h.html" target="_top" xlink:title=" ">
<polygon fill="white" stroke="#666666" points="145.38,-185 88.88,-185 88.88,-165.75 145.38,-165.75 145.38,-185"/>
<text text-anchor="middle" x="117.12" y="-171.5" font-family="Helvetica,sans-Serif" font-size="10.00">Aliases.h</text>
</a>
</g>
</g>
<!-- Node8&#45;&gt;Node9 -->
<g id="edge8_Node000008_Node000009" class="edge">
<title>Node8&#45;&gt;Node9</title>
<g id="a_edge8_Node000008_Node000009"><a xlink:title=" ">
<path fill="none" stroke="#63b8ff" d="M119.63,-220.83C119.26,-214.24 118.74,-204.96 118.26,-196.57"/>
<polygon fill="#63b8ff" stroke="#63b8ff" points="121.77,-196.66 117.72,-186.87 114.78,-197.05 121.77,-196.66"/>
</a>
</g>
</g>
<!-- Node15 -->
<g id="Node000015" class="node">
<title>Node15</title>
<g id="a_Node000015"><a xlink:href="_reflection_8h.html" target="_top" xlink:title=" ">
<polygon fill="white" stroke="#666666" points="69.38,-185 0.88,-185 0.88,-165.75 69.38,-165.75 69.38,-185"/>
<text text-anchor="middle" x="35.12" y="-171.5" font-family="Helvetica,sans-Serif" font-size="10.00">Reflection.h</text>
</a>
</g>
</g>
<!-- Node8&#45;&gt;Node15 -->
<g id="edge14_Node000008_Node000015" class="edge">
<title>Node8&#45;&gt;Node15</title>
<g id="a_edge14_Node000008_Node000015"><a xlink:title=" ">
<path fill="none" stroke="#63b8ff" d="M105.71,-220.59C93.01,-212.64 74.25,-200.89 59.27,-191.5"/>
<polygon fill="#63b8ff" stroke="#63b8ff" points="61.23,-188.6 50.9,-186.26 57.51,-194.53 61.23,-188.6"/>
</a>
</g>
</g>
<!-- Node10 -->
<g id="Node000010" class="node">
<title>Node10</title>
<g id="a_Node000010"><a xlink:href="_macros_8h.html" target="_top" xlink:title=" ">
<polygon fill="white" stroke="#666666" points="145.38,-129.75 88.88,-129.75 88.88,-110.5 145.38,-110.5 145.38,-129.75"/>
<text text-anchor="middle" x="117.12" y="-116.25" font-family="Helvetica,sans-Serif" font-size="10.00">Macros.h</text>
</a>
</g>
</g>
<!-- Node9&#45;&gt;Node10 -->
<g id="edge9_Node000009_Node000010" class="edge">
<title>Node9&#45;&gt;Node10</title>
<g id="a_edge9_Node000009_Node000010"><a xlink:title=" ">
<path fill="none" stroke="#63b8ff" d="M117.12,-165.58C117.12,-159.07 117.12,-149.92 117.12,-141.62"/>
<polygon fill="#63b8ff" stroke="#63b8ff" points="120.63,-141.62 117.13,-131.62 113.63,-141.62 120.63,-141.62"/>
</a>
</g>
</g>
<!-- Node11 -->
<g id="Node000011" class="node">
<title>Node11</title>
<g id="a_Node000011"><a xlink:href="_types_8h.html" target="_top" xlink:title=" ">
<polygon fill="white" stroke="#666666" points="317.38,-74.5 266.88,-74.5 266.88,-55.25 317.38,-55.25 317.38,-74.5"/>
<text text-anchor="middle" x="292.12" y="-61" font-family="Helvetica,sans-Serif" font-size="10.00">Types.h</text>
</a>
</g>
</g>
<!-- Node10&#45;&gt;Node11 -->
<g id="edge10_Node000010_Node000011" class="edge">
<title>Node10&#45;&gt;Node11</title>
<g id="a_edge10_Node000010_Node000011"><a xlink:title=" ">
<path fill="none" stroke="#63b8ff" d="M145.63,-110.45C175.61,-101.33 222.88,-86.95 255.57,-77"/>
<polygon fill="#63b8ff" stroke="#63b8ff" points="256.48,-80.38 265.03,-74.12 254.45,-73.68 256.48,-80.38"/>
</a>
</g>
</g>
<!-- Node12 -->
<g id="Node000012" class="node">
<title>Node12</title>
<g id="a_Node000012"><a xlink:title=" ">
<polygon fill="#e0e0e0" stroke="#999999" points="249.62,-19.25 182.62,-19.25 182.62,0 249.62,0 249.62,-19.25"/>
<text text-anchor="middle" x="216.12" y="-5.75" font-family="Helvetica,sans-Serif" font-size="10.00">sys/types.h</text>
</a>
</g>
</g>
<!-- Node11&#45;&gt;Node12 -->
<g id="edge11_Node000011_Node000012" class="edge">
<title>Node11&#45;&gt;Node12</title>
<g id="a_edge11_Node000011_Node000012"><a xlink:title=" ">
<path fill="none" stroke="#63b8ff" d="M279.23,-54.84C268.1,-47.04 251.75,-35.59 238.49,-26.29"/>
<polygon fill="#63b8ff" stroke="#63b8ff" points="240.52,-23.44 230.32,-20.57 236.5,-29.18 240.52,-23.44"/>
</a>
</g>
</g>
<!-- Node13 -->
<g id="Node000013" class="node">
<title>Node13</title>
<g id="a_Node000013"><a xlink:title=" ">
<polygon fill="#e0e0e0" stroke="#999999" points="316.25,-19.25 268,-19.25 268,0 316.25,0 316.25,-19.25"/>
<text text-anchor="middle" x="292.12" y="-5.75" font-family="Helvetica,sans-Serif" font-size="10.00">stdint.h</text>
</a>
</g>
</g>
<!-- Node11&#45;&gt;Node13 -->
<g id="edge12_Node000011_Node000013" class="edge">
<title>Node11&#45;&gt;Node13</title>
<g id="a_edge12_Node000011_Node000013"><a xlink:title=" ">
<path fill="none" stroke="#63b8ff" d="M292.12,-55.08C292.12,-48.57 292.12,-39.42 292.12,-31.12"/>
<polygon fill="#63b8ff" stroke="#63b8ff" points="295.63,-31.12 292.13,-21.12 288.63,-31.12 295.63,-31.12"/>
</a>
</g>
</g>
<!-- Node14 -->
<g id="Node000014" class="node">
<title>Node14</title>
<g id="a_Node000014"><a xlink:title=" ">
<polygon fill="#e0e0e0" stroke="#999999" points="390,-19.25 334.25,-19.25 334.25,0 390,0 390,-19.25"/>
<text text-anchor="middle" x="362.12" y="-5.75" font-family="Helvetica,sans-Serif" font-size="10.00">stdbool.h</text>
</a>
</g>
</g>
<!-- Node11&#45;&gt;Node14 -->
<g id="edge13_Node000011_Node000014" class="edge">
<title>Node11&#45;&gt;Node14</title>
<g id="a_edge13_Node000011_Node000014"><a xlink:title=" ">
<path fill="none" stroke="#63b8ff" d="M304,-54.84C314.22,-47.07 329.2,-35.67 341.39,-26.4"/>
<polygon fill="#63b8ff" stroke="#63b8ff" points="343.38,-29.28 349.22,-20.44 339.14,-23.71 343.38,-29.28"/>
</a>
</g>
</g>
<!-- Node16&#45;&gt;Node11 -->
<g id="edge16_Node000016_Node000011" class="edge">
<title>Node16&#45;&gt;Node11</title>
<g id="a_edge16_Node000016_Node000011"><a xlink:title=" ">
<path fill="none" stroke="#63b8ff" d="M298,-220.63C307.07,-212.4 319.39,-199.36 325.12,-185 334.24,-162.16 327.46,-154.33 328.12,-129.75 328.36,-121.2 330.97,-118.57 328.12,-110.5 324.5,-100.25 317.42,-90.62 310.48,-82.95"/>
<polygon fill="#63b8ff" stroke="#63b8ff" points="313.18,-80.7 303.69,-76 308.18,-85.6 313.18,-80.7"/>
</a>
</g>
</g>
<!-- Node17 -->
<g id="Node000017" class="node">
<title>Node17</title>
<g id="a_Node000017"><a xlink:title=" ">
<polygon fill="#e0e0e0" stroke="#999999" points="316.12,-185 258.12,-185 258.12,-165.75 316.12,-165.75 316.12,-185"/>
<text text-anchor="middle" x="287.12" y="-171.5" font-family="Helvetica,sans-Serif" font-size="10.00">exception</text>
</a>
</g>
</g>
<!-- Node16&#45;&gt;Node17 -->
<g id="edge17_Node000016_Node000017" class="edge">
<title>Node16&#45;&gt;Node17</title>
<g id="a_edge17_Node000016_Node000017"><a xlink:title=" ">
<path fill="none" stroke="#63b8ff" d="M287.12,-220.83C287.12,-214.32 287.12,-205.17 287.12,-196.87"/>
<polygon fill="#63b8ff" stroke="#63b8ff" points="290.63,-196.87 287.13,-186.87 283.63,-196.87 290.63,-196.87"/>
</a>
</g>
</g>
<!-- Node19 -->
<g id="Node000019" class="node">
<title>Node19</title>
<g id="a_Node000019"><a xlink:title=" ">
<polygon fill="#e0e0e0" stroke="#999999" points="414.88,-240.25 361.38,-240.25 361.38,-221 414.88,-221 414.88,-240.25"/>
<text text-anchor="middle" x="388.12" y="-226.75" font-family="Helvetica,sans-Serif" font-size="10.00">iostream</text>
</a>
</g>
</g>
<!-- Node18&#45;&gt;Node19 -->
<g id="edge19_Node000018_Node000019" class="edge">
<title>Node18&#45;&gt;Node19</title>
<g id="a_edge19_Node000018_Node000019"><a xlink:title=" ">
<path fill="none" stroke="#63b8ff" d="M345.55,-276.08C352.66,-268.65 363.07,-257.79 371.81,-248.66"/>
<polygon fill="#63b8ff" stroke="#63b8ff" points="374.08,-251.35 378.47,-241.7 369.03,-246.5 374.08,-251.35"/>
</a>
</g>
</g>
<!-- Node20&#45;&gt;Node9 -->
<g id="edge21_Node000020_Node000009" class="edge">
<title>Node20&#45;&gt;Node9</title>
<g id="a_edge21_Node000020_Node000009"><a xlink:title=" ">
<path fill="none" stroke="#63b8ff" d="M47.37,-220.59C59.92,-212.64 78.46,-200.89 93.27,-191.5"/>
<polygon fill="#63b8ff" stroke="#63b8ff" points="94.96,-194.57 101.53,-186.26 91.21,-188.66 94.96,-194.57"/>
</a>
</g>
</g>
<!-- Node20&#45;&gt;Node15 -->
<g id="edge22_Node000020_Node000015" class="edge">
<title>Node20&#45;&gt;Node15</title>
<g id="a_edge22_Node000020_Node000015"><a xlink:title=" ">
<path fill="none" stroke="#63b8ff" d="M33.46,-220.83C33.7,-214.24 34.05,-204.96 34.37,-196.57"/>
<polygon fill="#63b8ff" stroke="#63b8ff" points="37.85,-197 34.73,-186.87 30.86,-196.73 37.85,-197"/>
</a>
</g>
</g>
<!-- Node21&#45;&gt;Node6 -->
<g id="edge24_Node000021_Node000006" class="edge">
<title>Node21&#45;&gt;Node6</title>
<g id="a_edge24_Node000021_Node000006"><a xlink:title=" ">
<path fill="none" stroke="#63b8ff" d="M122.08,-386.34C146.92,-377.7 184.62,-364.57 212.51,-354.87"/>
<polygon fill="#63b8ff" stroke="#63b8ff" points="213.32,-358.29 221.61,-351.7 211.02,-351.68 213.32,-358.29"/>
</a>
</g>
</g>
<!-- Node22 -->
<g id="Node000022" class="node">
<title>Node22</title>
<g id="a_Node000022"><a xlink:href="_mem_utils_8h.html" target="_top" xlink:title=" ">
<polygon fill="white" stroke="#666666" points="233.25,-185 167,-185 167,-165.75 233.25,-165.75 233.25,-185"/>
<text text-anchor="middle" x="200.12" y="-171.5" font-family="Helvetica,sans-Serif" font-size="10.00">MemUtils.h</text>
</a>
</g>
</g>
<!-- Node21&#45;&gt;Node22 -->
<g id="edge25_Node000021_Node000022" class="edge">
<title>Node21&#45;&gt;Node22</title>
<g id="a_edge25_Node000021_Node000022"><a xlink:title=" ">
<path fill="none" stroke="#63b8ff" d="M100.33,-386.52C115.78,-353.98 169.63,-240.59 191.14,-195.29"/>
<polygon fill="#63b8ff" stroke="#63b8ff" points="194.2,-197 195.33,-186.47 187.88,-194 194.2,-197"/>
</a>
</g>
</g>
<!-- Node22&#45;&gt;Node11 -->
<g id="edge26_Node000022_Node000011" class="edge">
<title>Node22&#45;&gt;Node11</title>
<g id="a_edge26_Node000022_Node000011"><a xlink:title=" ">
<path fill="none" stroke="#63b8ff" d="M195.53,-165.29C189.58,-152.1 181.18,-127.38 192.12,-110.5 206.05,-89.04 232.96,-77.81 255.36,-71.99"/>
<polygon fill="#63b8ff" stroke="#63b8ff" points="256.13,-75.4 265.09,-69.75 254.56,-68.58 256.13,-75.4"/>
</a>
</g>
</g>
<!-- Node23 -->
<g id="Node000023" class="node">
<title>Node23</title>
<g id="a_Node000023"><a xlink:href="_checksum_8h.html" target="_top" xlink:title=" ">
<polygon fill="white" stroke="#666666" points="272.88,-129.75 201.38,-129.75 201.38,-110.5 272.88,-110.5 272.88,-129.75"/>
<text text-anchor="middle" x="237.12" y="-116.25" font-family="Helvetica,sans-Serif" font-size="10.00">Checksum.h</text>
</a>
</g>
</g>
<!-- Node22&#45;&gt;Node23 -->
<g id="edge27_Node000022_Node000023" class="edge">
<title>Node22&#45;&gt;Node23</title>
<g id="a_edge27_Node000022_Node000023"><a xlink:title=" ">
<path fill="none" stroke="#63b8ff" d="M206.23,-165.58C211.19,-158.46 218.33,-148.18 224.5,-139.3"/>
<polygon fill="#63b8ff" stroke="#63b8ff" points="227.19,-141.56 230.02,-131.35 221.44,-137.57 227.19,-141.56"/>
</a>
</g>
</g>
<!-- Node24 -->
<g id="Node000024" class="node">
<title>Node24</title>
<g id="a_Node000024"><a xlink:title=" ">
<polygon fill="#e0e0e0" stroke="#999999" points="319.52,-129.75 290.73,-129.75 290.73,-110.5 319.52,-110.5 319.52,-129.75"/>
<text text-anchor="middle" x="305.12" y="-116.25" font-family="Helvetica,sans-Serif" font-size="10.00">bit</text>
</a>
</g>
</g>
<!-- Node22&#45;&gt;Node24 -->
<g id="edge29_Node000022_Node000024" class="edge">
<title>Node22&#45;&gt;Node24</title>
<g id="a_edge29_Node000022_Node000024"><a xlink:title=" ">
<path fill="none" stroke="#63b8ff" d="M217.94,-165.34C235.04,-156.67 261.02,-143.49 280.18,-133.77"/>
<polygon fill="#63b8ff" stroke="#63b8ff" points="281.6,-136.98 288.94,-129.33 278.43,-130.74 281.6,-136.98"/>
</a>
</g>
</g>
<!-- Node23&#45;&gt;Node11 -->
<g id="edge28_Node000023_Node000011" class="edge">
<title>Node23&#45;&gt;Node11</title>
<g id="a_edge28_Node000023_Node000011"><a xlink:title=" ">
<path fill="none" stroke="#63b8ff" d="M246.21,-110.33C253.96,-102.82 265.34,-91.81 274.82,-82.63"/>
<polygon fill="#63b8ff" stroke="#63b8ff" points="277.01,-85.38 281.76,-75.91 272.14,-80.35 277.01,-85.38"/>
</a>
</g>
</g>
<!-- Node27&#45;&gt;Node11 -->
<g id="edge33_Node000027_Node000011" class="edge">
<title>Node27&#45;&gt;Node11</title>
<g id="a_edge33_Node000027_Node000011"><a xlink:title=" ">
<path fill="none" stroke="#63b8ff" d="M492.18,-441.72C521.23,-425.96 575.12,-390.25 575.12,-342.12 575.12,-342.12 575.12,-342.12 575.12,-174.38 575.12,-122.2 405.29,-85.75 328.75,-71.97"/>
<polygon fill="#63b8ff" stroke="#63b8ff" points="329.68,-68.58 319.23,-70.29 328.47,-75.48 329.68,-68.58"/>
</a>
</g>
</g>
<!-- Node27&#45;&gt;Node19 -->
<g id="edge41_Node000027_Node000019" class="edge">
<title>Node27&#45;&gt;Node19</title>
<g id="a_edge41_Node000027_Node000019"><a xlink:title=" ">
<path fill="none" stroke="#63b8ff" d="M462.22,-441.67C452.17,-433.48 438.16,-420.45 430.12,-406 401.82,-355.08 392.45,-285.45 389.46,-251.65"/>
<polygon fill="#63b8ff" stroke="#63b8ff" points="392.98,-251.78 388.72,-242.08 386,-252.32 392.98,-251.78"/>
</a>
</g>
</g>
<!-- Node27&#45;&gt;Node25 -->
<g id="edge42_Node000027_Node000025" class="edge">
<title>Node27&#45;&gt;Node25</title>
<g id="a_edge42_Node000027_Node000025"><a xlink:title=" ">
<path fill="none" stroke="#63b8ff" d="M446.2,-445.55C405.36,-438.02 326.67,-423.18 249.9,-406.31"/>
<polygon fill="#63b8ff" stroke="#63b8ff" points="251.08,-402.99 240.56,-404.24 249.57,-409.82 251.08,-402.99"/>
</a>
</g>
</g>
<!-- Node27&#45;&gt;Node26 -->
<g id="edge39_Node000027_Node000026" class="edge">
<title>Node27&#45;&gt;Node26</title>
<g id="a_edge39_Node000027_Node000026"><a xlink:title=" ">
<path fill="none" stroke="#63b8ff" d="M446.47,-443C412.37,-433.59 354.34,-417.58 316.88,-407.24"/>
<polygon fill="#63b8ff" stroke="#63b8ff" points="318,-403.92 307.43,-404.63 316.14,-410.67 318,-403.92"/>
</a>
</g>
</g>
<!-- Node28 -->
<g id="Node000028" class="node">
<title>Node28</title>
<g id="a_Node000028"><a xlink:href="_string_utils_8h.html" target="_top" xlink:title=" ">
<polygon fill="white" stroke="#666666" points="509.12,-406 439.12,-406 439.12,-386.75 509.12,-386.75 509.12,-406"/>
<text text-anchor="middle" x="474.12" y="-392.5" font-family="Helvetica,sans-Serif" font-size="10.00">StringUtils.h</text>
</a>
</g>
</g>
<!-- Node27&#45;&gt;Node28 -->
<g id="edge34_Node000027_Node000028" class="edge">
<title>Node27&#45;&gt;Node28</title>
<g id="a_edge34_Node000027_Node000028"><a xlink:title=" ">
<path fill="none" stroke="#63b8ff" d="M474.12,-441.83C474.12,-435.32 474.12,-426.17 474.12,-417.87"/>
<polygon fill="#63b8ff" stroke="#63b8ff" points="477.63,-417.87 474.13,-407.87 470.63,-417.87 477.63,-417.87"/>
</a>
</g>
</g>
<!-- Node29 -->
<g id="Node000029" class="node">
<title>Node29</title>
<g id="a_Node000029"><a xlink:title=" ">
<polygon fill="#e0e0e0" stroke="#999999" points="533.62,-350.75 490.62,-350.75 490.62,-331.5 533.62,-331.5 533.62,-350.75"/>
<text text-anchor="middle" x="512.12" y="-337.25" font-family="Helvetica,sans-Serif" font-size="10.00">vector</text>
</a>
</g>
</g>
<!-- Node27&#45;&gt;Node29 -->
<g id="edge44_Node000027_Node000029" class="edge">
<title>Node27&#45;&gt;Node29</title>
<g id="a_edge44_Node000027_Node000029"><a xlink:title=" ">
<path fill="none" stroke="#63b8ff" d="M487.32,-441.77C497.89,-433.83 511.93,-421.1 518.12,-406 523.83,-392.1 521.85,-375.11 518.71,-362.15"/>
<polygon fill="#63b8ff" stroke="#63b8ff" points="522.1,-361.29 515.97,-352.65 515.38,-363.22 522.1,-361.29"/>
</a>
</g>
</g>
<!-- Node30 -->
<g id="Node000030" class="node">
<title>Node30</title>
<g id="a_Node000030"><a xlink:title=" ">
<polygon fill="#e0e0e0" stroke="#999999" points="646.62,-406 603.62,-406 603.62,-386.75 646.62,-386.75 646.62,-406"/>
<text text-anchor="middle" x="625.12" y="-392.5" font-family="Helvetica,sans-Serif" font-size="10.00">fcntl.h</text>
</a>
</g>
</g>
<!-- Node27&#45;&gt;Node30 -->
<g id="edge37_Node000027_Node000030" class="edge">
<title>Node27&#45;&gt;Node30</title>
<g id="a_edge37_Node000027_Node000030"><a xlink:title=" ">
<path fill="none" stroke="#63b8ff" d="M499.74,-441.59C525.33,-432.57 564.75,-418.67 592.55,-408.86"/>
<polygon fill="#63b8ff" stroke="#63b8ff" points="593.62,-412.2 601.88,-405.57 591.29,-405.6 593.62,-412.2"/>
</a>
</g>
</g>
<!-- Node31 -->
<g id="Node000031" class="node">
<title>Node31</title>
<g id="a_Node000031"><a xlink:title=" ">
<polygon fill="#e0e0e0" stroke="#999999" points="725.62,-406 664.62,-406 664.62,-386.75 725.62,-386.75 725.62,-406"/>
<text text-anchor="middle" x="695.12" y="-392.5" font-family="Helvetica,sans-Serif" font-size="10.00">filesystem</text>
</a>
</g>
</g>
<!-- Node27&#45;&gt;Node31 -->
<g id="edge38_Node000027_Node000031" class="edge">
<title>Node27&#45;&gt;Node31</title>
<g id="a_edge38_Node000027_Node000031"><a xlink:title=" ">
<path fill="none" stroke="#63b8ff" d="M502.11,-443.88C540.26,-434.69 608.88,-418.16 653.19,-407.48"/>
<polygon fill="#63b8ff" stroke="#63b8ff" points="653.8,-410.93 662.7,-405.19 652.16,-404.13 653.8,-410.93"/>
</a>
</g>
</g>
<!-- Node32 -->
<g id="Node000032" class="node">
<title>Node32</title>
<g id="a_Node000032"><a xlink:title=" ">
<polygon fill="#e0e0e0" stroke="#999999" points="792.25,-406 744,-406 744,-386.75 792.25,-386.75 792.25,-406"/>
<text text-anchor="middle" x="768.12" y="-392.5" font-family="Helvetica,sans-Serif" font-size="10.00">istream</text>
</a>
</g>
</g>
<!-- Node27&#45;&gt;Node32 -->
<g id="edge40_Node000027_Node000032" class="edge">
<title>Node27&#45;&gt;Node32</title>
<g id="a_edge40_Node000027_Node000032"><a xlink:title=" ">
<path fill="none" stroke="#63b8ff" d="M502.09,-446.65C548.1,-439.95 642.88,-425.4 732.49,-406.42"/>
<polygon fill="#63b8ff" stroke="#63b8ff" points="733.15,-409.85 742.19,-404.33 731.68,-403.01 733.15,-409.85"/>
</a>
</g>
</g>
<!-- Node33 -->
<g id="Node000033" class="node">
<title>Node33</title>
<g id="a_Node000033"><a xlink:title=" ">
<polygon fill="#e0e0e0" stroke="#999999" points="382.88,-406 323.38,-406 323.38,-386.75 382.88,-386.75 382.88,-406"/>
<text text-anchor="middle" x="353.12" y="-392.5" font-family="Helvetica,sans-Serif" font-size="10.00">sys/stat.h</text>
</a>
</g>
</g>
<!-- Node27&#45;&gt;Node33 -->
<g id="edge43_Node000027_Node000033" class="edge">
<title>Node27&#45;&gt;Node33</title>
<g id="a_edge43_Node000027_Node000033"><a xlink:title=" ">
<path fill="none" stroke="#63b8ff" d="M453.6,-441.59C434.56,-433.22 405.97,-420.63 384.15,-411.03"/>
<polygon fill="#63b8ff" stroke="#63b8ff" points="385.7,-407.89 375.14,-407.06 382.88,-414.29 385.7,-407.89"/>
</a>
</g>
</g>
<!-- Node28&#45;&gt;Node11 -->
<g id="edge35_Node000028_Node000011" class="edge">
<title>Node28&#45;&gt;Node11</title>
<g id="a_edge35_Node000028_Node000011"><a xlink:title=" ">
<path fill="none" stroke="#63b8ff" d="M471.48,-386.47C466.26,-368.05 455.12,-324.36 455.12,-286.88 455.12,-286.88 455.12,-286.88 455.12,-174.38 455.12,-113.95 376.54,-85.13 328.5,-73.15"/>
<polygon fill="#63b8ff" stroke="#63b8ff" points="329.6,-69.82 319.07,-70.94 328,-76.63 329.6,-69.82"/>
</a>
</g>
</g>
<!-- Node28&#45;&gt;Node29 -->
<g id="edge36_Node000028_Node000029" class="edge">
<title>Node28&#45;&gt;Node29</title>
<g id="a_edge36_Node000028_Node000029"><a xlink:title=" ">
<path fill="none" stroke="#63b8ff" d="M480.4,-386.58C485.48,-379.46 492.82,-369.18 499.16,-360.3"/>
<polygon fill="#63b8ff" stroke="#63b8ff" points="501.87,-362.51 504.83,-352.34 496.18,-358.45 501.87,-362.51"/>
</a>
</g>
</g>
</g>
</svg>
