<?xml version="1.0" encoding="UTF-8" standalone="no"?>
<!DOCTYPE svg PUBLIC "-//W3C//DTD SVG 1.1//EN"
 "http://www.w3.org/Graphics/SVG/1.1/DTD/svg11.dtd">
<!-- Generated by graphviz version 10.0.1 (20240210.2158)
 -->
<!-- Title: /Users/hoff/Retro/virtualc64/Emulator/Components/CIA/TOD.h Pages: 1 -->
<svg width="1385pt" height="646pt"
 viewBox="0.00 0.00 1384.87 646.25" xmlns="http://www.w3.org/2000/svg" xmlns:xlink="http://www.w3.org/1999/xlink">
<g id="graph0" class="graph" transform="scale(1 1) rotate(0) translate(4 642.25)">
<title>/Users/hoff/Retro/virtualc64/Emulator/Components/CIA/TOD.h</title>
<!-- Node1 -->
<g id="Node000001" class="node">
<title>Node1</title>
<g id="a_Node000001"><a xlink:title=" ">
<polygon fill="#999999" stroke="#666666" points="169,-638.25 0,-638.25 0,-607.75 169,-607.75 169,-638.25"/>
<text text-anchor="start" x="8" y="-624.75" font-family="Helvetica,sans-Serif" font-size="10.00">/Users/hoff/Retro/virtualc64</text>
<text text-anchor="middle" x="84.5" y="-613.5" font-family="Helvetica,sans-Serif" font-size="10.00">/Emulator/Components/CIA/TOD.h</text>
</a>
</g>
</g>
<!-- Node2 -->
<g id="Node000002" class="node">
<title>Node2</title>
<g id="a_Node000002"><a xlink:href="_t_o_d_types_8h.html" target="_top" xlink:title=" ">
<polygon fill="white" stroke="#666666" points="83.25,-516.5 11.75,-516.5 11.75,-497.25 83.25,-497.25 83.25,-516.5"/>
<text text-anchor="middle" x="47.5" y="-503" font-family="Helvetica,sans-Serif" font-size="10.00">TODTypes.h</text>
</a>
</g>
</g>
<!-- Node1&#45;&gt;Node2 -->
<g id="edge1_Node000001_Node000002" class="edge">
<title>Node1&#45;&gt;Node2</title>
<g id="a_edge1_Node000001_Node000002"><a xlink:title=" ">
<path fill="none" stroke="#63b8ff" d="M79.09,-607.56C75.4,-597.56 70.48,-583.9 66.5,-571.75 61.69,-557.07 56.73,-540.33 53.09,-527.67"/>
<polygon fill="#63b8ff" stroke="#63b8ff" points="56.45,-526.71 50.35,-518.06 49.72,-528.63 56.45,-526.71"/>
</a>
</g>
</g>
<!-- Node9 -->
<g id="Node000009" class="node">
<title>Node9</title>
<g id="a_Node000009"><a xlink:href="_sub_component_8h.html" target="_top" xlink:title=" ">
<polygon fill="white" stroke="#666666" points="167.38,-571.75 75.62,-571.75 75.62,-552.5 167.38,-552.5 167.38,-571.75"/>
<text text-anchor="middle" x="121.5" y="-558.25" font-family="Helvetica,sans-Serif" font-size="10.00">SubComponent.h</text>
</a>
</g>
</g>
<!-- Node1&#45;&gt;Node9 -->
<g id="edge8_Node000001_Node000009" class="edge">
<title>Node1&#45;&gt;Node9</title>
<g id="a_edge8_Node000001_Node000009"><a xlink:title=" ">
<path fill="none" stroke="#63b8ff" d="M93.65,-607.45C98.52,-599.69 104.57,-590.06 109.79,-581.76"/>
<polygon fill="#63b8ff" stroke="#63b8ff" points="112.63,-583.81 114.99,-573.48 106.71,-580.09 112.63,-583.81"/>
</a>
</g>
</g>
<!-- Node3 -->
<g id="Node000003" class="node">
<title>Node3</title>
<g id="a_Node000003"><a xlink:href="_aliases_8h.html" target="_top" xlink:title=" ">
<polygon fill="white" stroke="#666666" points="271.75,-185 215.25,-185 215.25,-165.75 271.75,-165.75 271.75,-185"/>
<text text-anchor="middle" x="243.5" y="-171.5" font-family="Helvetica,sans-Serif" font-size="10.00">Aliases.h</text>
</a>
</g>
</g>
<!-- Node2&#45;&gt;Node3 -->
<g id="edge2_Node000002_Node000003" class="edge">
<title>Node2&#45;&gt;Node3</title>
<g id="a_edge2_Node000002_Node000003"><a xlink:title=" ">
<path fill="none" stroke="#63b8ff" d="M47.5,-496.87C47.5,-478.28 47.5,-434.3 47.5,-397.38 47.5,-397.38 47.5,-397.38 47.5,-284.88 47.5,-255.26 45.12,-241.5 66.5,-221 103.27,-185.74 163.66,-177.17 203.5,-175.67"/>
<polygon fill="#63b8ff" stroke="#63b8ff" points="203.47,-179.17 213.39,-175.45 203.31,-172.17 203.47,-179.17"/>
</a>
</g>
</g>
<!-- Node4 -->
<g id="Node000004" class="node">
<title>Node4</title>
<g id="a_Node000004"><a xlink:href="_macros_8h.html" target="_top" xlink:title=" ">
<polygon fill="white" stroke="#666666" points="693.75,-129.75 637.25,-129.75 637.25,-110.5 693.75,-110.5 693.75,-129.75"/>
<text text-anchor="middle" x="665.5" y="-116.25" font-family="Helvetica,sans-Serif" font-size="10.00">Macros.h</text>
</a>
</g>
</g>
<!-- Node3&#45;&gt;Node4 -->
<g id="edge3_Node000003_Node000004" class="edge">
<title>Node3&#45;&gt;Node4</title>
<g id="a_edge3_Node000003_Node000004"><a xlink:title=" ">
<path fill="none" stroke="#63b8ff" d="M272.17,-170.76C345.7,-161.48 541.1,-136.82 625.62,-126.16"/>
<polygon fill="#63b8ff" stroke="#63b8ff" points="625.8,-129.66 635.28,-124.94 624.93,-122.72 625.8,-129.66"/>
</a>
</g>
</g>
<!-- Node5 -->
<g id="Node000005" class="node">
<title>Node5</title>
<g id="a_Node000005"><a xlink:href="_types_8h.html" target="_top" xlink:title=" ">
<polygon fill="white" stroke="#666666" points="1023.75,-74.5 973.25,-74.5 973.25,-55.25 1023.75,-55.25 1023.75,-74.5"/>
<text text-anchor="middle" x="998.5" y="-61" font-family="Helvetica,sans-Serif" font-size="10.00">Types.h</text>
</a>
</g>
</g>
<!-- Node4&#45;&gt;Node5 -->
<g id="edge4_Node000004_Node000005" class="edge">
<title>Node4&#45;&gt;Node5</title>
<g id="a_edge4_Node000004_Node000005"><a xlink:title=" ">
<path fill="none" stroke="#63b8ff" d="M694.18,-114.54C754.6,-104.88 894.92,-82.44 961.79,-71.75"/>
<polygon fill="#63b8ff" stroke="#63b8ff" points="962.19,-75.23 971.51,-70.19 961.08,-68.31 962.19,-75.23"/>
</a>
</g>
</g>
<!-- Node6 -->
<g id="Node000006" class="node">
<title>Node6</title>
<g id="a_Node000006"><a xlink:title=" ">
<polygon fill="#e0e0e0" stroke="#999999" points="956,-19.25 889,-19.25 889,0 956,0 956,-19.25"/>
<text text-anchor="middle" x="922.5" y="-5.75" font-family="Helvetica,sans-Serif" font-size="10.00">sys/types.h</text>
</a>
</g>
</g>
<!-- Node5&#45;&gt;Node6 -->
<g id="edge5_Node000005_Node000006" class="edge">
<title>Node5&#45;&gt;Node6</title>
<g id="a_edge5_Node000005_Node000006"><a xlink:title=" ">
<path fill="none" stroke="#63b8ff" d="M985.61,-54.84C974.47,-47.04 958.13,-35.59 944.86,-26.29"/>
<polygon fill="#63b8ff" stroke="#63b8ff" points="946.89,-23.44 936.7,-20.57 942.88,-29.18 946.89,-23.44"/>
</a>
</g>
</g>
<!-- Node7 -->
<g id="Node000007" class="node">
<title>Node7</title>
<g id="a_Node000007"><a xlink:title=" ">
<polygon fill="#e0e0e0" stroke="#999999" points="1022.62,-19.25 974.38,-19.25 974.38,0 1022.62,0 1022.62,-19.25"/>
<text text-anchor="middle" x="998.5" y="-5.75" font-family="Helvetica,sans-Serif" font-size="10.00">stdint.h</text>
</a>
</g>
</g>
<!-- Node5&#45;&gt;Node7 -->
<g id="edge6_Node000005_Node000007" class="edge">
<title>Node5&#45;&gt;Node7</title>
<g id="a_edge6_Node000005_Node000007"><a xlink:title=" ">
<path fill="none" stroke="#63b8ff" d="M998.5,-55.08C998.5,-48.57 998.5,-39.42 998.5,-31.12"/>
<polygon fill="#63b8ff" stroke="#63b8ff" points="1002,-31.12 998.5,-21.12 995,-31.12 1002,-31.12"/>
</a>
</g>
</g>
<!-- Node8 -->
<g id="Node000008" class="node">
<title>Node8</title>
<g id="a_Node000008"><a xlink:title=" ">
<polygon fill="#e0e0e0" stroke="#999999" points="1096.38,-19.25 1040.62,-19.25 1040.62,0 1096.38,0 1096.38,-19.25"/>
<text text-anchor="middle" x="1068.5" y="-5.75" font-family="Helvetica,sans-Serif" font-size="10.00">stdbool.h</text>
</a>
</g>
</g>
<!-- Node5&#45;&gt;Node8 -->
<g id="edge7_Node000005_Node000008" class="edge">
<title>Node5&#45;&gt;Node8</title>
<g id="a_edge7_Node000005_Node000008"><a xlink:title=" ">
<path fill="none" stroke="#63b8ff" d="M1010.37,-54.84C1020.59,-47.07 1035.57,-35.67 1047.76,-26.4"/>
<polygon fill="#63b8ff" stroke="#63b8ff" points="1049.76,-29.28 1055.6,-20.44 1045.52,-23.71 1049.76,-29.28"/>
</a>
</g>
</g>
<!-- Node10 -->
<g id="Node000010" class="node">
<title>Node10</title>
<g id="a_Node000010"><a xlink:href="_core_component_8h.html" target="_top" xlink:title=" ">
<polygon fill="white" stroke="#666666" points="523.25,-516.5 427.75,-516.5 427.75,-497.25 523.25,-497.25 523.25,-516.5"/>
<text text-anchor="middle" x="475.5" y="-503" font-family="Helvetica,sans-Serif" font-size="10.00">CoreComponent.h</text>
</a>
</g>
</g>
<!-- Node9&#45;&gt;Node10 -->
<g id="edge9_Node000009_Node000010" class="edge">
<title>Node9&#45;&gt;Node10</title>
<g id="a_edge9_Node000009_Node000010"><a xlink:title=" ">
<path fill="none" stroke="#63b8ff" d="M167.78,-554.16C231.51,-544.58 346.34,-527.3 416.27,-516.79"/>
<polygon fill="#63b8ff" stroke="#63b8ff" points="416.65,-520.27 426.01,-515.32 415.6,-513.35 416.65,-520.27"/>
</a>
</g>
</g>
<!-- Node43 -->
<g id="Node000043" class="node">
<title>Node43</title>
<g id="a_Node000043"><a xlink:href="_c_p_u_types_8h.html" target="_top" xlink:title=" ">
<polygon fill="white" stroke="#666666" points="147.62,-240.25 75.38,-240.25 75.38,-221 147.62,-221 147.62,-240.25"/>
<text text-anchor="middle" x="111.5" y="-226.75" font-family="Helvetica,sans-Serif" font-size="10.00">CPUTypes.h</text>
</a>
</g>
</g>
<!-- Node9&#45;&gt;Node43 -->
<g id="edge62_Node000009_Node000043" class="edge">
<title>Node9&#45;&gt;Node43</title>
<g id="a_edge62_Node000009_Node000043"><a xlink:title=" ">
<path fill="none" stroke="#63b8ff" d="M120.8,-552.13C119.43,-533.55 116.5,-489.58 116.5,-452.62 116.5,-452.62 116.5,-452.62 116.5,-340.12 116.5,-309.37 114.47,-273.77 113,-251.98"/>
<polygon fill="#63b8ff" stroke="#63b8ff" points="116.5,-251.86 112.3,-242.13 109.52,-252.35 116.5,-251.86"/>
</a>
</g>
</g>
<!-- Node11 -->
<g id="Node000011" class="node">
<title>Node11</title>
<g id="a_Node000011"><a xlink:href="_emulator_types_8h.html" target="_top" xlink:title=" ">
<polygon fill="white" stroke="#666666" points="321.25,-295.5 231.75,-295.5 231.75,-276.25 321.25,-276.25 321.25,-295.5"/>
<text text-anchor="middle" x="276.5" y="-282" font-family="Helvetica,sans-Serif" font-size="10.00">EmulatorTypes.h</text>
</a>
</g>
</g>
<!-- Node10&#45;&gt;Node11 -->
<g id="edge10_Node000010_Node000011" class="edge">
<title>Node10&#45;&gt;Node11</title>
<g id="a_edge10_Node000010_Node000011"><a xlink:title=" ">
<path fill="none" stroke="#63b8ff" d="M442.69,-496.85C421.85,-489.83 395.35,-478.35 376.5,-461.25 327.25,-416.57 295.92,-341.8 283.11,-306.49"/>
<polygon fill="#63b8ff" stroke="#63b8ff" points="286.46,-305.47 279.86,-297.18 279.86,-307.78 286.46,-305.47"/>
</a>
</g>
</g>
<!-- Node13 -->
<g id="Node000013" class="node">
<title>Node13</title>
<g id="a_Node000013"><a xlink:href="_thread_types_8h.html" target="_top" xlink:title=" ">
<polygon fill="white" stroke="#666666" points="283.75,-240.25 203.25,-240.25 203.25,-221 283.75,-221 283.75,-240.25"/>
<text text-anchor="middle" x="243.5" y="-226.75" font-family="Helvetica,sans-Serif" font-size="10.00">ThreadTypes.h</text>
</a>
</g>
</g>
<!-- Node10&#45;&gt;Node13 -->
<g id="edge60_Node000010_Node000013" class="edge">
<title>Node10&#45;&gt;Node13</title>
<g id="a_edge60_Node000010_Node000013"><a xlink:title=" ">
<path fill="none" stroke="#63b8ff" d="M427.5,-496.96C349.41,-481.09 203.5,-445.04 203.5,-397.38 203.5,-397.38 203.5,-397.38 203.5,-340.12 203.5,-306.94 220.18,-271.38 231.99,-250.34"/>
<polygon fill="#63b8ff" stroke="#63b8ff" points="234.96,-252.2 237,-241.81 228.92,-248.66 234.96,-252.2"/>
</a>
</g>
</g>
<!-- Node14 -->
<g id="Node000014" class="node">
<title>Node14</title>
<g id="a_Node000014"><a xlink:href="_core_object_8h.html" target="_top" xlink:title=" ">
<polygon fill="white" stroke="#666666" points="617.38,-350.75 543.62,-350.75 543.62,-331.5 617.38,-331.5 617.38,-350.75"/>
<text text-anchor="middle" x="580.5" y="-337.25" font-family="Helvetica,sans-Serif" font-size="10.00">CoreObject.h</text>
</a>
</g>
</g>
<!-- Node10&#45;&gt;Node14 -->
<g id="edge16_Node000010_Node000014" class="edge">
<title>Node10&#45;&gt;Node14</title>
<g id="a_edge16_Node000010_Node000014"><a xlink:title=" ">
<path fill="none" stroke="#63b8ff" d="M434.34,-496.87C415.1,-490.38 393.95,-479.44 382.5,-461.25 377.94,-454.01 379.72,-450.09 382.5,-442 392.6,-412.57 399.73,-404.19 425.5,-386.75 457.45,-365.13 499.9,-353.86 532.29,-348.06"/>
<polygon fill="#63b8ff" stroke="#63b8ff" points="532.52,-351.57 541.81,-346.47 531.37,-344.66 532.52,-351.57"/>
</a>
</g>
</g>
<!-- Node21 -->
<g id="Node000021" class="node">
<title>Node21</title>
<g id="a_Node000021"><a xlink:href="_synchronizable_8h.html" target="_top" xlink:title=" ">
<polygon fill="white" stroke="#666666" points="1120,-406 1029,-406 1029,-386.75 1120,-386.75 1120,-406"/>
<text text-anchor="middle" x="1074.5" y="-392.5" font-family="Helvetica,sans-Serif" font-size="10.00">Synchronizable.h</text>
</a>
</g>
</g>
<!-- Node10&#45;&gt;Node21 -->
<g id="edge26_Node000010_Node000021" class="edge">
<title>Node10&#45;&gt;Node21</title>
<g id="a_edge26_Node000010_Node000021"><a xlink:title=" ">
<path fill="none" stroke="#63b8ff" d="M523.29,-505.26C654.71,-503.14 1014.49,-494.36 1055.5,-461.25 1068.45,-450.79 1072.85,-431.92 1074.21,-417.39"/>
<polygon fill="#63b8ff" stroke="#63b8ff" points="1077.7,-417.73 1074.7,-407.57 1070.71,-417.39 1077.7,-417.73"/>
</a>
</g>
</g>
<!-- Node22 -->
<g id="Node000022" class="node">
<title>Node22</title>
<g id="a_Node000022"><a xlink:href="_concurrency_8h.html" target="_top" xlink:title=" ">
<polygon fill="white" stroke="#666666" points="1150.62,-350.75 1072.38,-350.75 1072.38,-331.5 1150.62,-331.5 1150.62,-350.75"/>
<text text-anchor="middle" x="1111.5" y="-337.25" font-family="Helvetica,sans-Serif" font-size="10.00">Concurrency.h</text>
</a>
</g>
</g>
<!-- Node10&#45;&gt;Node22 -->
<g id="edge57_Node000010_Node000022" class="edge">
<title>Node10&#45;&gt;Node22</title>
<g id="a_edge57_Node000010_Node000022"><a xlink:title=" ">
<path fill="none" stroke="#63b8ff" d="M523.74,-504.24C657.42,-499.45 1026.02,-484.28 1075.5,-461.25 1106.63,-446.76 1116.54,-437.8 1129.5,-406 1135.55,-391.16 1129.71,-373.6 1123.12,-360.65"/>
<polygon fill="#63b8ff" stroke="#63b8ff" points="1126.38,-359.3 1118.4,-352.33 1120.29,-362.75 1126.38,-359.3"/>
</a>
</g>
</g>
<!-- Node27 -->
<g id="Node000027" class="node">
<title>Node27</title>
<g id="a_Node000027"><a xlink:href="_serializable_8h.html" target="_top" xlink:title=" ">
<polygon fill="white" stroke="#666666" points="465.75,-461.25 391.25,-461.25 391.25,-442 465.75,-442 465.75,-461.25"/>
<text text-anchor="middle" x="428.5" y="-447.75" font-family="Helvetica,sans-Serif" font-size="10.00">Serializable.h</text>
</a>
</g>
</g>
<!-- Node10&#45;&gt;Node27 -->
<g id="edge33_Node000010_Node000027" class="edge">
<title>Node10&#45;&gt;Node27</title>
<g id="a_edge33_Node000010_Node000027"><a xlink:title=" ">
<path fill="none" stroke="#63b8ff" d="M467.74,-497.08C461.31,-489.8 451.99,-479.23 444.04,-470.23"/>
<polygon fill="#63b8ff" stroke="#63b8ff" points="446.67,-467.93 437.43,-462.74 441.42,-472.56 446.67,-467.93"/>
</a>
</g>
</g>
<!-- Node28 -->
<g id="Node000028" class="node">
<title>Node28</title>
<g id="a_Node000028"><a xlink:href="_configurable_8h.html" target="_top" xlink:title=" ">
<polygon fill="white" stroke="#666666" points="563,-461.25 484,-461.25 484,-442 563,-442 563,-461.25"/>
<text text-anchor="middle" x="523.5" y="-447.75" font-family="Helvetica,sans-Serif" font-size="10.00">Configurable.h</text>
</a>
</g>
</g>
<!-- Node10&#45;&gt;Node28 -->
<g id="edge34_Node000010_Node000028" class="edge">
<title>Node10&#45;&gt;Node28</title>
<g id="a_edge34_Node000010_Node000028"><a xlink:title=" ">
<path fill="none" stroke="#63b8ff" d="M483.43,-497.08C490.06,-489.73 499.72,-479.01 507.89,-469.94"/>
<polygon fill="#63b8ff" stroke="#63b8ff" points="510.29,-472.5 514.39,-462.73 505.09,-467.82 510.29,-472.5"/>
</a>
</g>
</g>
<!-- Node33 -->
<g id="Node000033" class="node">
<title>Node33</title>
<g id="a_Node000033"><a xlink:title=" ">
<polygon fill="#e0e0e0" stroke="#999999" points="1280,-185 1237,-185 1237,-165.75 1280,-165.75 1280,-185"/>
<text text-anchor="middle" x="1258.5" y="-171.5" font-family="Helvetica,sans-Serif" font-size="10.00">vector</text>
</a>
</g>
</g>
<!-- Node10&#45;&gt;Node33 -->
<g id="edge61_Node000010_Node000033" class="edge">
<title>Node10&#45;&gt;Node33</title>
<g id="a_edge61_Node000010_Node000033"><a xlink:title=" ">
<path fill="none" stroke="#63b8ff" d="M494.98,-496.79C568.37,-462.87 835.86,-342.28 1067.5,-276.25 1150.99,-252.45 1204.05,-307.06 1259.5,-240.25 1269.47,-228.24 1268.17,-210.12 1264.99,-196.25"/>
<polygon fill="#63b8ff" stroke="#63b8ff" points="1268.42,-195.54 1262.34,-186.86 1261.69,-197.44 1268.42,-195.54"/>
</a>
</g>
</g>
<!-- Node41 -->
<g id="Node000041" class="node">
<title>Node41</title>
<g id="a_Node000041"><a xlink:href="_suspendable_8h.html" target="_top" xlink:title=" ">
<polygon fill="white" stroke="#666666" points="1046.75,-461.25 966.25,-461.25 966.25,-442 1046.75,-442 1046.75,-461.25"/>
<text text-anchor="middle" x="1006.5" y="-447.75" font-family="Helvetica,sans-Serif" font-size="10.00">Suspendable.h</text>
</a>
</g>
</g>
<!-- Node10&#45;&gt;Node41 -->
<g id="edge58_Node000010_Node000041" class="edge">
<title>Node10&#45;&gt;Node41</title>
<g id="a_edge58_Node000010_Node000041"><a xlink:title=" ">
<path fill="none" stroke="#63b8ff" d="M523.68,-502.41C609.89,-495.98 796.13,-481.03 952.5,-461.25 953.18,-461.16 953.86,-461.08 954.54,-460.99"/>
<polygon fill="#63b8ff" stroke="#63b8ff" points="954.93,-464.47 964.35,-459.62 953.96,-457.53 954.93,-464.47"/>
</a>
</g>
</g>
<!-- Node11&#45;&gt;Node3 -->
<g id="edge11_Node000011_Node000003" class="edge">
<title>Node11&#45;&gt;Node3</title>
<g id="a_edge11_Node000011_Node000003"><a xlink:title=" ">
<path fill="none" stroke="#63b8ff" d="M243.03,-275.78C225.28,-269.07 205.02,-257.94 194.5,-240.25 184.02,-222.61 201.67,-204.2 218.64,-191.7"/>
<polygon fill="#63b8ff" stroke="#63b8ff" points="220.3,-194.8 226.57,-186.26 216.34,-189.03 220.3,-194.8"/>
</a>
</g>
</g>
<!-- Node12 -->
<g id="Node000012" class="node">
<title>Node12</title>
<g id="a_Node000012"><a xlink:href="_reflection_8h.html" target="_top" xlink:title=" ">
<polygon fill="white" stroke="#666666" points="403.75,-185 335.25,-185 335.25,-165.75 403.75,-165.75 403.75,-185"/>
<text text-anchor="middle" x="369.5" y="-171.5" font-family="Helvetica,sans-Serif" font-size="10.00">Reflection.h</text>
</a>
</g>
</g>
<!-- Node11&#45;&gt;Node12 -->
<g id="edge12_Node000011_Node000012" class="edge">
<title>Node11&#45;&gt;Node12</title>
<g id="a_edge12_Node000011_Node000012"><a xlink:title=" ">
<path fill="none" stroke="#63b8ff" d="M284.11,-276C299.44,-258.11 334.27,-217.47 354.4,-194"/>
<polygon fill="#63b8ff" stroke="#63b8ff" points="356.95,-196.4 360.8,-186.53 351.63,-191.84 356.95,-196.4"/>
</a>
</g>
</g>
<!-- Node11&#45;&gt;Node13 -->
<g id="edge13_Node000011_Node000013" class="edge">
<title>Node11&#45;&gt;Node13</title>
<g id="a_edge13_Node000011_Node000013"><a xlink:title=" ">
<path fill="none" stroke="#63b8ff" d="M271.05,-276.08C266.73,-269.11 260.54,-259.12 255.12,-250.37"/>
<polygon fill="#63b8ff" stroke="#63b8ff" points="258.11,-248.55 249.86,-241.9 252.16,-252.24 258.11,-248.55"/>
</a>
</g>
</g>
<!-- Node13&#45;&gt;Node3 -->
<g id="edge14_Node000013_Node000003" class="edge">
<title>Node13&#45;&gt;Node3</title>
<g id="a_edge14_Node000013_Node000003"><a xlink:title=" ">
<path fill="none" stroke="#63b8ff" d="M243.5,-220.83C243.5,-214.32 243.5,-205.17 243.5,-196.87"/>
<polygon fill="#63b8ff" stroke="#63b8ff" points="247,-196.87 243.5,-186.87 240,-196.87 247,-196.87"/>
</a>
</g>
</g>
<!-- Node13&#45;&gt;Node12 -->
<g id="edge15_Node000013_Node000012" class="edge">
<title>Node13&#45;&gt;Node12</title>
<g id="a_edge15_Node000013_Node000012"><a xlink:title=" ">
<path fill="none" stroke="#63b8ff" d="M264.87,-220.59C284.79,-212.18 314.74,-199.52 337.5,-189.9"/>
<polygon fill="#63b8ff" stroke="#63b8ff" points="338.78,-193.16 346.63,-186.04 336.05,-186.71 338.78,-193.16"/>
</a>
</g>
</g>
<!-- Node15 -->
<g id="Node000015" class="node">
<title>Node15</title>
<g id="a_Node000015"><a xlink:href="_error_8h.html" target="_top" xlink:title=" ">
<polygon fill="white" stroke="#666666" points="599.75,-295.5 555.25,-295.5 555.25,-276.25 599.75,-276.25 599.75,-295.5"/>
<text text-anchor="middle" x="577.5" y="-282" font-family="Helvetica,sans-Serif" font-size="10.00">Error.h</text>
</a>
</g>
</g>
<!-- Node14&#45;&gt;Node15 -->
<g id="edge17_Node000014_Node000015" class="edge">
<title>Node14&#45;&gt;Node15</title>
<g id="a_edge17_Node000014_Node000015"><a xlink:title=" ">
<path fill="none" stroke="#63b8ff" d="M580,-331.33C579.63,-324.74 579.11,-315.46 578.64,-307.07"/>
<polygon fill="#63b8ff" stroke="#63b8ff" points="582.15,-307.16 578.09,-297.37 575.16,-307.55 582.15,-307.16"/>
</a>
</g>
</g>
<!-- Node19 -->
<g id="Node000019" class="node">
<title>Node19</title>
<g id="a_Node000019"><a xlink:href="_inspectable_8h.html" target="_top" xlink:title=" ">
<polygon fill="white" stroke="#666666" points="693.75,-295.5 619.25,-295.5 619.25,-276.25 693.75,-276.25 693.75,-295.5"/>
<text text-anchor="middle" x="656.5" y="-282" font-family="Helvetica,sans-Serif" font-size="10.00">Inspectable.h</text>
</a>
</g>
</g>
<!-- Node14&#45;&gt;Node19 -->
<g id="edge24_Node000014_Node000019" class="edge">
<title>Node14&#45;&gt;Node19</title>
<g id="a_edge24_Node000014_Node000019"><a xlink:title=" ">
<path fill="none" stroke="#63b8ff" d="M593.39,-331.09C604.53,-323.29 620.87,-311.84 634.14,-302.54"/>
<polygon fill="#63b8ff" stroke="#63b8ff" points="636.12,-305.43 642.3,-296.82 632.11,-299.69 636.12,-305.43"/>
</a>
</g>
</g>
<!-- Node16 -->
<g id="Node000016" class="node">
<title>Node16</title>
<g id="a_Node000016"><a xlink:href="_error_types_8h.html" target="_top" xlink:title=" ">
<polygon fill="white" stroke="#666666" points="449.25,-240.25 377.75,-240.25 377.75,-221 449.25,-221 449.25,-240.25"/>
<text text-anchor="middle" x="413.5" y="-226.75" font-family="Helvetica,sans-Serif" font-size="10.00">ErrorTypes.h</text>
</a>
</g>
</g>
<!-- Node15&#45;&gt;Node16 -->
<g id="edge18_Node000015_Node000016" class="edge">
<title>Node15&#45;&gt;Node16</title>
<g id="a_edge18_Node000015_Node000016"><a xlink:title=" ">
<path fill="none" stroke="#63b8ff" d="M555.04,-277.58C528.59,-269 484.22,-254.59 452.2,-244.19"/>
<polygon fill="#63b8ff" stroke="#63b8ff" points="453.47,-240.92 442.88,-241.16 451.31,-247.58 453.47,-240.92"/>
</a>
</g>
</g>
<!-- Node17 -->
<g id="Node000017" class="node">
<title>Node17</title>
<g id="a_Node000017"><a xlink:href="_exception_8h.html" target="_top" xlink:title=" ">
<polygon fill="white" stroke="#666666" points="611.38,-240.25 543.62,-240.25 543.62,-221 611.38,-221 611.38,-240.25"/>
<text text-anchor="middle" x="577.5" y="-226.75" font-family="Helvetica,sans-Serif" font-size="10.00">Exception.h</text>
</a>
</g>
</g>
<!-- Node15&#45;&gt;Node17 -->
<g id="edge21_Node000015_Node000017" class="edge">
<title>Node15&#45;&gt;Node17</title>
<g id="a_edge21_Node000015_Node000017"><a xlink:title=" ">
<path fill="none" stroke="#63b8ff" d="M577.5,-276.08C577.5,-269.57 577.5,-260.42 577.5,-252.12"/>
<polygon fill="#63b8ff" stroke="#63b8ff" points="581,-252.12 577.5,-242.12 574,-252.12 581,-252.12"/>
</a>
</g>
</g>
<!-- Node16&#45;&gt;Node3 -->
<g id="edge19_Node000016_Node000003" class="edge">
<title>Node16&#45;&gt;Node3</title>
<g id="a_edge19_Node000016_Node000003"><a xlink:title=" ">
<path fill="none" stroke="#63b8ff" d="M384.66,-220.59C356.74,-211.84 314.17,-198.51 283.08,-188.77"/>
<polygon fill="#63b8ff" stroke="#63b8ff" points="284.23,-185.47 273.64,-185.82 282.14,-192.15 284.23,-185.47"/>
</a>
</g>
</g>
<!-- Node16&#45;&gt;Node12 -->
<g id="edge20_Node000016_Node000012" class="edge">
<title>Node16&#45;&gt;Node12</title>
<g id="a_edge20_Node000016_Node000012"><a xlink:title=" ">
<path fill="none" stroke="#63b8ff" d="M406.23,-220.83C400.22,-213.55 391.49,-202.98 384.04,-193.98"/>
<polygon fill="#63b8ff" stroke="#63b8ff" points="386.96,-192.01 377.89,-186.53 381.56,-196.46 386.96,-192.01"/>
</a>
</g>
</g>
<!-- Node17&#45;&gt;Node5 -->
<g id="edge22_Node000017_Node000005" class="edge">
<title>Node17&#45;&gt;Node5</title>
<g id="a_edge22_Node000017_Node000005"><a xlink:title=" ">
<path fill="none" stroke="#63b8ff" d="M600.73,-220.59C671.02,-193.25 881.64,-111.33 964.49,-79.1"/>
<polygon fill="#63b8ff" stroke="#63b8ff" points="965.62,-82.42 973.67,-75.53 963.08,-75.9 965.62,-82.42"/>
</a>
</g>
</g>
<!-- Node18 -->
<g id="Node000018" class="node">
<title>Node18</title>
<g id="a_Node000018"><a xlink:title=" ">
<polygon fill="#e0e0e0" stroke="#999999" points="606.5,-185 548.5,-185 548.5,-165.75 606.5,-165.75 606.5,-185"/>
<text text-anchor="middle" x="577.5" y="-171.5" font-family="Helvetica,sans-Serif" font-size="10.00">exception</text>
</a>
</g>
</g>
<!-- Node17&#45;&gt;Node18 -->
<g id="edge23_Node000017_Node000018" class="edge">
<title>Node17&#45;&gt;Node18</title>
<g id="a_edge23_Node000017_Node000018"><a xlink:title=" ">
<path fill="none" stroke="#63b8ff" d="M577.5,-220.83C577.5,-214.32 577.5,-205.17 577.5,-196.87"/>
<polygon fill="#63b8ff" stroke="#63b8ff" points="581,-196.87 577.5,-186.87 574,-196.87 581,-196.87"/>
</a>
</g>
</g>
<!-- Node20 -->
<g id="Node000020" class="node">
<title>Node20</title>
<g id="a_Node000020"><a xlink:title=" ">
<polygon fill="#e0e0e0" stroke="#999999" points="683.25,-240.25 629.75,-240.25 629.75,-221 683.25,-221 683.25,-240.25"/>
<text text-anchor="middle" x="656.5" y="-226.75" font-family="Helvetica,sans-Serif" font-size="10.00">iostream</text>
</a>
</g>
</g>
<!-- Node19&#45;&gt;Node20 -->
<g id="edge25_Node000019_Node000020" class="edge">
<title>Node19&#45;&gt;Node20</title>
<g id="a_edge25_Node000019_Node000020"><a xlink:title=" ">
<path fill="none" stroke="#63b8ff" d="M656.5,-276.08C656.5,-269.57 656.5,-260.42 656.5,-252.12"/>
<polygon fill="#63b8ff" stroke="#63b8ff" points="660,-252.12 656.5,-242.12 653,-252.12 660,-252.12"/>
</a>
</g>
</g>
<!-- Node21&#45;&gt;Node22 -->
<g id="edge27_Node000021_Node000022" class="edge">
<title>Node21&#45;&gt;Node22</title>
<g id="a_edge27_Node000021_Node000022"><a xlink:title=" ">
<path fill="none" stroke="#63b8ff" d="M1080.61,-386.58C1085.56,-379.46 1092.7,-369.18 1098.87,-360.3"/>
<polygon fill="#63b8ff" stroke="#63b8ff" points="1101.56,-362.56 1104.39,-352.35 1095.81,-358.57 1101.56,-362.56"/>
</a>
</g>
</g>
<!-- Node23 -->
<g id="Node000023" class="node">
<title>Node23</title>
<g id="a_Node000023"><a xlink:href="_chrono_8h.html" target="_top" xlink:title=" ">
<polygon fill="white" stroke="#666666" points="1372.38,-295.5 1316.62,-295.5 1316.62,-276.25 1372.38,-276.25 1372.38,-295.5"/>
<text text-anchor="middle" x="1344.5" y="-282" font-family="Helvetica,sans-Serif" font-size="10.00">Chrono.h</text>
</a>
</g>
</g>
<!-- Node22&#45;&gt;Node23 -->
<g id="edge28_Node000022_Node000023" class="edge">
<title>Node22&#45;&gt;Node23</title>
<g id="a_edge28_Node000022_Node000023"><a xlink:title=" ">
<path fill="none" stroke="#63b8ff" d="M1151.03,-331.09C1193.96,-321.28 1262.14,-305.7 1305.05,-295.89"/>
<polygon fill="#63b8ff" stroke="#63b8ff" points="1305.73,-299.33 1314.7,-293.69 1304.17,-292.5 1305.73,-299.33"/>
</a>
</g>
</g>
<!-- Node25 -->
<g id="Node000025" class="node">
<title>Node25</title>
<g id="a_Node000025"><a xlink:title=" ">
<polygon fill="#e0e0e0" stroke="#999999" points="1178,-295.5 1135,-295.5 1135,-276.25 1178,-276.25 1178,-295.5"/>
<text text-anchor="middle" x="1156.5" y="-282" font-family="Helvetica,sans-Serif" font-size="10.00">thread</text>
</a>
</g>
</g>
<!-- Node22&#45;&gt;Node25 -->
<g id="edge31_Node000022_Node000025" class="edge">
<title>Node22&#45;&gt;Node25</title>
<g id="a_edge31_Node000022_Node000025"><a xlink:title=" ">
<path fill="none" stroke="#63b8ff" d="M1118.93,-331.33C1125.08,-324.05 1134.01,-313.48 1141.63,-304.48"/>
<polygon fill="#63b8ff" stroke="#63b8ff" points="1144.15,-306.91 1147.93,-297.02 1138.8,-302.39 1144.15,-306.91"/>
</a>
</g>
</g>
<!-- Node26 -->
<g id="Node000026" class="node">
<title>Node26</title>
<g id="a_Node000026"><a xlink:title=" ">
<polygon fill="#e0e0e0" stroke="#999999" points="1116.88,-295.5 1076.12,-295.5 1076.12,-276.25 1116.88,-276.25 1116.88,-295.5"/>
<text text-anchor="middle" x="1096.5" y="-282" font-family="Helvetica,sans-Serif" font-size="10.00">future</text>
</a>
</g>
</g>
<!-- Node22&#45;&gt;Node26 -->
<g id="edge32_Node000022_Node000026" class="edge">
<title>Node22&#45;&gt;Node26</title>
<g id="a_edge32_Node000022_Node000026"><a xlink:title=" ">
<path fill="none" stroke="#63b8ff" d="M1109.02,-331.33C1107.15,-324.67 1104.49,-315.24 1102.11,-306.78"/>
<polygon fill="#63b8ff" stroke="#63b8ff" points="1105.52,-305.99 1099.44,-297.32 1098.78,-307.89 1105.52,-305.99"/>
</a>
</g>
</g>
<!-- Node23&#45;&gt;Node5 -->
<g id="edge29_Node000023_Node000005" class="edge">
<title>Node23&#45;&gt;Node5</title>
<g id="a_edge29_Node000023_Node000005"><a xlink:title=" ">
<path fill="none" stroke="#63b8ff" d="M1353.8,-276.01C1365.75,-263.51 1383.79,-240.08 1373.5,-221 1352.29,-181.67 1328.61,-187.37 1289.5,-165.75 1237.76,-137.14 1224.18,-130.36 1168.5,-110.5 1123.44,-94.43 1069.81,-81.31 1035.01,-73.55"/>
<polygon fill="#63b8ff" stroke="#63b8ff" points="1035.97,-70.17 1025.45,-71.45 1034.47,-77.01 1035.97,-70.17"/>
</a>
</g>
</g>
<!-- Node24 -->
<g id="Node000024" class="node">
<title>Node24</title>
<g id="a_Node000024"><a xlink:title=" ">
<polygon fill="#e0e0e0" stroke="#999999" points="1364.5,-240.25 1324.5,-240.25 1324.5,-221 1364.5,-221 1364.5,-240.25"/>
<text text-anchor="middle" x="1344.5" y="-226.75" font-family="Helvetica,sans-Serif" font-size="10.00">ctime</text>
</a>
</g>
</g>
<!-- Node23&#45;&gt;Node24 -->
<g id="edge30_Node000023_Node000024" class="edge">
<title>Node23&#45;&gt;Node24</title>
<g id="a_edge30_Node000023_Node000024"><a xlink:title=" ">
<path fill="none" stroke="#63b8ff" d="M1344.5,-276.08C1344.5,-269.57 1344.5,-260.42 1344.5,-252.12"/>
<polygon fill="#63b8ff" stroke="#63b8ff" points="1348,-252.12 1344.5,-242.12 1341,-252.12 1348,-252.12"/>
</a>
</g>
</g>
<!-- Node28&#45;&gt;Node12 -->
<g id="edge38_Node000028_Node000012" class="edge">
<title>Node28&#45;&gt;Node12</title>
<g id="a_edge38_Node000028_Node000012"><a xlink:title=" ">
<path fill="none" stroke="#63b8ff" d="M524.34,-441.94C527.02,-408.94 532.22,-289.83 475.5,-221 460.36,-202.63 436.34,-191.69 414.98,-185.25"/>
<polygon fill="#63b8ff" stroke="#63b8ff" points="416.15,-181.94 405.58,-182.67 414.3,-188.69 416.15,-181.94"/>
</a>
</g>
</g>
<!-- Node29 -->
<g id="Node000029" class="node">
<title>Node29</title>
<g id="a_Node000029"><a xlink:href="_option_types_8h.html" target="_top" xlink:title=" ">
<polygon fill="white" stroke="#666666" points="467,-350.75 388,-350.75 388,-331.5 467,-331.5 467,-350.75"/>
<text text-anchor="middle" x="427.5" y="-337.25" font-family="Helvetica,sans-Serif" font-size="10.00">OptionTypes.h</text>
</a>
</g>
</g>
<!-- Node28&#45;&gt;Node29 -->
<g id="edge35_Node000028_Node000029" class="edge">
<title>Node28&#45;&gt;Node29</title>
<g id="a_edge35_Node000028_Node000029"><a xlink:title=" ">
<path fill="none" stroke="#63b8ff" d="M483.71,-443.26C462.57,-437.1 438.35,-425.97 425.5,-406 417.23,-393.14 418.44,-375.62 421.32,-362.18"/>
<polygon fill="#63b8ff" stroke="#63b8ff" points="424.66,-363.26 423.83,-352.69 417.89,-361.47 424.66,-363.26"/>
</a>
</g>
</g>
<!-- Node30 -->
<g id="Node000030" class="node">
<title>Node30</title>
<g id="a_Node000030"><a xlink:href="_defaults_8h.html" target="_top" xlink:title=" ">
<polygon fill="white" stroke="#666666" points="611,-406 550,-406 550,-386.75 611,-386.75 611,-406"/>
<text text-anchor="middle" x="580.5" y="-392.5" font-family="Helvetica,sans-Serif" font-size="10.00">Defaults.h</text>
</a>
</g>
</g>
<!-- Node28&#45;&gt;Node30 -->
<g id="edge39_Node000028_Node000030" class="edge">
<title>Node28&#45;&gt;Node30</title>
<g id="a_edge39_Node000028_Node000030"><a xlink:title=" ">
<path fill="none" stroke="#63b8ff" d="M533.17,-441.59C541.24,-434.05 552.97,-423.1 562.72,-413.98"/>
<polygon fill="#63b8ff" stroke="#63b8ff" points="564.95,-416.69 569.87,-407.31 560.17,-411.58 564.95,-416.69"/>
</a>
</g>
</g>
<!-- Node40 -->
<g id="Node000040" class="node">
<title>Node40</title>
<g id="a_Node000040"><a xlink:title=" ">
<polygon fill="#e0e0e0" stroke="#999999" points="490.38,-406 434.62,-406 434.62,-386.75 490.38,-386.75 490.38,-406"/>
<text text-anchor="middle" x="462.5" y="-392.5" font-family="Helvetica,sans-Serif" font-size="10.00">algorithm</text>
</a>
</g>
</g>
<!-- Node28&#45;&gt;Node40 -->
<g id="edge56_Node000028_Node000040" class="edge">
<title>Node28&#45;&gt;Node40</title>
<g id="a_edge56_Node000028_Node000040"><a xlink:title=" ">
<path fill="none" stroke="#63b8ff" d="M513.15,-441.59C504.42,-433.97 491.71,-422.87 481.2,-413.7"/>
<polygon fill="#63b8ff" stroke="#63b8ff" points="483.67,-411.21 473.84,-407.27 479.07,-416.48 483.67,-411.21"/>
</a>
</g>
</g>
<!-- Node29&#45;&gt;Node3 -->
<g id="edge36_Node000029_Node000003" class="edge">
<title>Node29&#45;&gt;Node3</title>
<g id="a_edge36_Node000029_Node000003"><a xlink:title=" ">
<path fill="none" stroke="#63b8ff" d="M417.35,-331.09C387.49,-304.52 299.73,-226.41 261.57,-192.45"/>
<polygon fill="#63b8ff" stroke="#63b8ff" points="264.33,-190.22 254.53,-186.19 259.67,-195.45 264.33,-190.22"/>
</a>
</g>
</g>
<!-- Node29&#45;&gt;Node12 -->
<g id="edge37_Node000029_Node000012" class="edge">
<title>Node29&#45;&gt;Node12</title>
<g id="a_edge37_Node000029_Node000012"><a xlink:title=" ">
<path fill="none" stroke="#63b8ff" d="M434.3,-331.05C449.08,-310.14 481.06,-257.55 458.5,-221 448.65,-205.04 431.17,-194.6 414.29,-187.86"/>
<polygon fill="#63b8ff" stroke="#63b8ff" points="415.95,-184.73 405.35,-184.63 413.57,-191.32 415.95,-184.73"/>
</a>
</g>
</g>
<!-- Node30&#45;&gt;Node14 -->
<g id="edge40_Node000030_Node000014" class="edge">
<title>Node30&#45;&gt;Node14</title>
<g id="a_edge40_Node000030_Node000014"><a xlink:title=" ">
<path fill="none" stroke="#63b8ff" d="M580.5,-386.58C580.5,-380.07 580.5,-370.92 580.5,-362.62"/>
<polygon fill="#63b8ff" stroke="#63b8ff" points="584,-362.62 580.5,-352.62 577,-362.62 584,-362.62"/>
</a>
</g>
</g>
<!-- Node30&#45;&gt;Node22 -->
<g id="edge42_Node000030_Node000022" class="edge">
<title>Node30&#45;&gt;Node22</title>
<g id="a_edge42_Node000030_Node000022"><a xlink:title=" ">
<path fill="none" stroke="#63b8ff" d="M611.34,-392.28C699.33,-383.46 952.18,-358.1 1060.86,-347.2"/>
<polygon fill="#63b8ff" stroke="#63b8ff" points="1061.04,-350.7 1070.64,-346.22 1060.35,-343.74 1061.04,-350.7"/>
</a>
</g>
</g>
<!-- Node30&#45;&gt;Node29 -->
<g id="edge41_Node000030_Node000029" class="edge">
<title>Node30&#45;&gt;Node29</title>
<g id="a_edge41_Node000030_Node000029"><a xlink:title=" ">
<path fill="none" stroke="#63b8ff" d="M554.55,-386.34C529.71,-377.7 492,-364.57 464.12,-354.87"/>
<polygon fill="#63b8ff" stroke="#63b8ff" points="465.61,-351.68 455.01,-351.7 463.31,-358.29 465.61,-351.68"/>
</a>
</g>
</g>
<!-- Node31 -->
<g id="Node000031" class="node">
<title>Node31</title>
<g id="a_Node000031"><a xlink:href="_i_o_utils_8h.html" target="_top" xlink:title=" ">
<polygon fill="white" stroke="#666666" points="971,-295.5 916,-295.5 916,-276.25 971,-276.25 971,-295.5"/>
<text text-anchor="middle" x="943.5" y="-282" font-family="Helvetica,sans-Serif" font-size="10.00">IOUtils.h</text>
</a>
</g>
</g>
<!-- Node30&#45;&gt;Node31 -->
<g id="edge43_Node000030_Node000031" class="edge">
<title>Node30&#45;&gt;Node31</title>
<g id="a_edge43_Node000030_Node000031"><a xlink:title=" ">
<path fill="none" stroke="#63b8ff" d="M610.82,-386.31C676.49,-366.68 831.78,-320.27 904.57,-298.51"/>
<polygon fill="#63b8ff" stroke="#63b8ff" points="905.49,-301.89 914.07,-295.67 903.49,-295.18 905.49,-301.89"/>
</a>
</g>
</g>
<!-- Node31&#45;&gt;Node5 -->
<g id="edge44_Node000031_Node000005" class="edge">
<title>Node31&#45;&gt;Node5</title>
<g id="a_edge44_Node000031_Node000005"><a xlink:title=" ">
<path fill="none" stroke="#63b8ff" d="M971.26,-279.51C1017.16,-270.35 1104.74,-251.61 1113.5,-240.25 1156.74,-184.19 1067.14,-112.22 1022.17,-81.21"/>
<polygon fill="#63b8ff" stroke="#63b8ff" points="1024.31,-78.43 1014.07,-75.75 1020.4,-84.24 1024.31,-78.43"/>
</a>
</g>
</g>
<!-- Node31&#45;&gt;Node20 -->
<g id="edge52_Node000031_Node000020" class="edge">
<title>Node31&#45;&gt;Node20</title>
<g id="a_edge52_Node000031_Node000020"><a xlink:title=" ">
<path fill="none" stroke="#63b8ff" d="M915.54,-280.46C870.98,-273.3 780.88,-258.35 694.63,-240.59"/>
<polygon fill="#63b8ff" stroke="#63b8ff" points="695.57,-237.21 685.07,-238.6 694.15,-244.06 695.57,-237.21"/>
</a>
</g>
</g>
<!-- Node32 -->
<g id="Node000032" class="node">
<title>Node32</title>
<g id="a_Node000032"><a xlink:href="_string_utils_8h.html" target="_top" xlink:title=" ">
<polygon fill="white" stroke="#666666" points="1230.5,-240.25 1160.5,-240.25 1160.5,-221 1230.5,-221 1230.5,-240.25"/>
<text text-anchor="middle" x="1195.5" y="-226.75" font-family="Helvetica,sans-Serif" font-size="10.00">StringUtils.h</text>
</a>
</g>
</g>
<!-- Node31&#45;&gt;Node32 -->
<g id="edge45_Node000031_Node000032" class="edge">
<title>Node31&#45;&gt;Node32</title>
<g id="a_edge45_Node000031_Node000032"><a xlink:title=" ">
<path fill="none" stroke="#63b8ff" d="M971.43,-278.97C1014.32,-269.91 1096.88,-252.46 1148.92,-241.47"/>
<polygon fill="#63b8ff" stroke="#63b8ff" points="1149.64,-244.89 1158.7,-239.4 1148.19,-238.04 1149.64,-244.89"/>
</a>
</g>
</g>
<!-- Node31&#45;&gt;Node33 -->
<g id="edge55_Node000031_Node000033" class="edge">
<title>Node31&#45;&gt;Node33</title>
<g id="a_edge55_Node000031_Node000033"><a xlink:title=" ">
<path fill="none" stroke="#63b8ff" d="M971.34,-280.88C1044.53,-270.34 1236.96,-242.46 1239.5,-240.25 1251.93,-229.45 1256.41,-210.92 1257.94,-196.59"/>
<polygon fill="#63b8ff" stroke="#63b8ff" points="1261.41,-197.09 1258.55,-186.89 1254.43,-196.65 1261.41,-197.09"/>
</a>
</g>
</g>
<!-- Node34 -->
<g id="Node000034" class="node">
<title>Node34</title>
<g id="a_Node000034"><a xlink:title=" ">
<polygon fill="#e0e0e0" stroke="#999999" points="822,-240.25 779,-240.25 779,-221 822,-221 822,-240.25"/>
<text text-anchor="middle" x="800.5" y="-226.75" font-family="Helvetica,sans-Serif" font-size="10.00">fcntl.h</text>
</a>
</g>
</g>
<!-- Node31&#45;&gt;Node34 -->
<g id="edge48_Node000031_Node000034" class="edge">
<title>Node31&#45;&gt;Node34</title>
<g id="a_edge48_Node000031_Node000034"><a xlink:title=" ">
<path fill="none" stroke="#63b8ff" d="M919.24,-275.84C895.4,-266.96 858.86,-253.36 832.62,-243.58"/>
<polygon fill="#63b8ff" stroke="#63b8ff" points="834.08,-240.39 823.48,-240.18 831.63,-246.95 834.08,-240.39"/>
</a>
</g>
</g>
<!-- Node35 -->
<g id="Node000035" class="node">
<title>Node35</title>
<g id="a_Node000035"><a xlink:title=" ">
<polygon fill="#e0e0e0" stroke="#999999" points="901,-240.25 840,-240.25 840,-221 901,-221 901,-240.25"/>
<text text-anchor="middle" x="870.5" y="-226.75" font-family="Helvetica,sans-Serif" font-size="10.00">filesystem</text>
</a>
</g>
</g>
<!-- Node31&#45;&gt;Node35 -->
<g id="edge49_Node000031_Node000035" class="edge">
<title>Node31&#45;&gt;Node35</title>
<g id="a_edge49_Node000031_Node000035"><a xlink:title=" ">
<path fill="none" stroke="#63b8ff" d="M931.12,-275.84C920.35,-267.99 904.53,-256.45 891.75,-247.12"/>
<polygon fill="#63b8ff" stroke="#63b8ff" points="894.06,-244.48 883.92,-241.42 889.94,-250.14 894.06,-244.48"/>
</a>
</g>
</g>
<!-- Node36 -->
<g id="Node000036" class="node">
<title>Node36</title>
<g id="a_Node000036"><a xlink:title=" ">
<polygon fill="#e0e0e0" stroke="#999999" points="968,-240.25 919,-240.25 919,-221 968,-221 968,-240.25"/>
<text text-anchor="middle" x="943.5" y="-226.75" font-family="Helvetica,sans-Serif" font-size="10.00">fstream</text>
</a>
</g>
</g>
<!-- Node31&#45;&gt;Node36 -->
<g id="edge50_Node000031_Node000036" class="edge">
<title>Node31&#45;&gt;Node36</title>
<g id="a_edge50_Node000031_Node000036"><a xlink:title=" ">
<path fill="none" stroke="#63b8ff" d="M943.5,-276.08C943.5,-269.57 943.5,-260.42 943.5,-252.12"/>
<polygon fill="#63b8ff" stroke="#63b8ff" points="947,-252.12 943.5,-242.12 940,-252.12 947,-252.12"/>
</a>
</g>
</g>
<!-- Node37 -->
<g id="Node000037" class="node">
<title>Node37</title>
<g id="a_Node000037"><a xlink:title=" ">
<polygon fill="#e0e0e0" stroke="#999999" points="1034.62,-240.25 986.38,-240.25 986.38,-221 1034.62,-221 1034.62,-240.25"/>
<text text-anchor="middle" x="1010.5" y="-226.75" font-family="Helvetica,sans-Serif" font-size="10.00">istream</text>
</a>
</g>
</g>
<!-- Node31&#45;&gt;Node37 -->
<g id="edge51_Node000031_Node000037" class="edge">
<title>Node31&#45;&gt;Node37</title>
<g id="a_edge51_Node000031_Node000037"><a xlink:title=" ">
<path fill="none" stroke="#63b8ff" d="M954.87,-275.84C964.55,-268.15 978.7,-256.9 990.31,-247.68"/>
<polygon fill="#63b8ff" stroke="#63b8ff" points="992.47,-250.43 998.12,-241.47 988.11,-244.95 992.47,-250.43"/>
</a>
</g>
</g>
<!-- Node38 -->
<g id="Node000038" class="node">
<title>Node38</title>
<g id="a_Node000038"><a xlink:title=" ">
<polygon fill="#e0e0e0" stroke="#999999" points="1104.12,-240.25 1052.88,-240.25 1052.88,-221 1104.12,-221 1104.12,-240.25"/>
<text text-anchor="middle" x="1078.5" y="-226.75" font-family="Helvetica,sans-Serif" font-size="10.00">sstream</text>
</a>
</g>
</g>
<!-- Node31&#45;&gt;Node38 -->
<g id="edge53_Node000031_Node000038" class="edge">
<title>Node31&#45;&gt;Node38</title>
<g id="a_edge53_Node000031_Node000038"><a xlink:title=" ">
<path fill="none" stroke="#63b8ff" d="M966.4,-275.84C987.93,-267.35 1020.41,-254.54 1044.88,-244.89"/>
<polygon fill="#63b8ff" stroke="#63b8ff" points="1046.06,-248.18 1054.08,-241.26 1043.49,-241.67 1046.06,-248.18"/>
</a>
</g>
</g>
<!-- Node39 -->
<g id="Node000039" class="node">
<title>Node39</title>
<g id="a_Node000039"><a xlink:title=" ">
<polygon fill="#e0e0e0" stroke="#999999" points="761.25,-240.25 701.75,-240.25 701.75,-221 761.25,-221 761.25,-240.25"/>
<text text-anchor="middle" x="731.5" y="-226.75" font-family="Helvetica,sans-Serif" font-size="10.00">sys/stat.h</text>
</a>
</g>
</g>
<!-- Node31&#45;&gt;Node39 -->
<g id="edge54_Node000031_Node000039" class="edge">
<title>Node31&#45;&gt;Node39</title>
<g id="a_edge54_Node000031_Node000039"><a xlink:title=" ">
<path fill="none" stroke="#63b8ff" d="M915.78,-277.91C879.29,-268.75 814.81,-252.55 772.62,-241.95"/>
<polygon fill="#63b8ff" stroke="#63b8ff" points="773.64,-238.6 763.09,-239.56 771.93,-245.39 773.64,-238.6"/>
</a>
</g>
</g>
<!-- Node32&#45;&gt;Node5 -->
<g id="edge46_Node000032_Node000005" class="edge">
<title>Node32&#45;&gt;Node5</title>
<g id="a_edge46_Node000032_Node000005"><a xlink:title=" ">
<path fill="none" stroke="#63b8ff" d="M1194.44,-220.67C1191.34,-198.6 1180.29,-141.15 1146.5,-110.5 1115.87,-82.72 1068.5,-72.21 1035.63,-68.25"/>
<polygon fill="#63b8ff" stroke="#63b8ff" points="1036.05,-64.78 1025.75,-67.23 1035.33,-71.74 1036.05,-64.78"/>
</a>
</g>
</g>
<!-- Node32&#45;&gt;Node33 -->
<g id="edge47_Node000032_Node000033" class="edge">
<title>Node32&#45;&gt;Node33</title>
<g id="a_edge47_Node000032_Node000033"><a xlink:title=" ">
<path fill="none" stroke="#63b8ff" d="M1206.19,-220.59C1215.2,-212.97 1228.33,-201.87 1239.18,-192.7"/>
<polygon fill="#63b8ff" stroke="#63b8ff" points="1241.44,-195.38 1246.81,-186.25 1236.92,-190.03 1241.44,-195.38"/>
</a>
</g>
</g>
<!-- Node42 -->
<g id="Node000042" class="node">
<title>Node42</title>
<g id="a_Node000042"><a xlink:title=" ">
<polygon fill="#e0e0e0" stroke="#999999" points="1010.62,-406 968.38,-406 968.38,-386.75 1010.62,-386.75 1010.62,-406"/>
<text text-anchor="middle" x="989.5" y="-392.5" font-family="Helvetica,sans-Serif" font-size="10.00">cstdio</text>
</a>
</g>
</g>
<!-- Node41&#45;&gt;Node42 -->
<g id="edge59_Node000041_Node000042" class="edge">
<title>Node41&#45;&gt;Node42</title>
<g id="a_edge59_Node000041_Node000042"><a xlink:title=" ">
<path fill="none" stroke="#63b8ff" d="M1003.69,-441.83C1001.56,-435.17 998.56,-425.74 995.86,-417.28"/>
<polygon fill="#63b8ff" stroke="#63b8ff" points="999.2,-416.26 992.83,-407.8 992.54,-418.39 999.2,-416.26"/>
</a>
</g>
</g>
<!-- Node43&#45;&gt;Node3 -->
<g id="edge63_Node000043_Node000003" class="edge">
<title>Node43&#45;&gt;Node3</title>
<g id="a_edge63_Node000043_Node000003"><a xlink:title=" ">
<path fill="none" stroke="#63b8ff" d="M133.89,-220.59C154.94,-212.1 186.7,-199.29 210.62,-189.64"/>
<polygon fill="#63b8ff" stroke="#63b8ff" points="211.63,-193.01 219.59,-186.02 209.01,-186.51 211.63,-193.01"/>
</a>
</g>
</g>
<!-- Node43&#45;&gt;Node12 -->
<g id="edge64_Node000043_Node000012" class="edge">
<title>Node43&#45;&gt;Node12</title>
<g id="a_edge64_Node000043_Node000012"><a xlink:title=" ">
<path fill="none" stroke="#63b8ff" d="M147.92,-222.11C194.05,-212.59 273.57,-196.17 323.75,-185.82"/>
<polygon fill="#63b8ff" stroke="#63b8ff" points="324.35,-189.27 333.43,-183.82 322.93,-182.41 324.35,-189.27"/>
</a>
</g>
</g>
<!-- Node44 -->
<g id="Node000044" class="node">
<title>Node44</title>
<g id="a_Node000044"><a xlink:href="_peddle_types_8h.html" target="_top" xlink:title=" ">
<polygon fill="white" stroke="#666666" points="332.75,-129.75 252.25,-129.75 252.25,-110.5 332.75,-110.5 332.75,-129.75"/>
<text text-anchor="middle" x="292.5" y="-116.25" font-family="Helvetica,sans-Serif" font-size="10.00">PeddleTypes.h</text>
</a>
</g>
</g>
<!-- Node43&#45;&gt;Node44 -->
<g id="edge65_Node000043_Node000044" class="edge">
<title>Node43&#45;&gt;Node44</title>
<g id="a_edge65_Node000043_Node000044"><a xlink:title=" ">
<path fill="none" stroke="#63b8ff" d="M123.81,-220.69C141.65,-207.9 175.9,-183.9 206.5,-165.75 225.19,-154.67 246.92,-143.4 263.86,-134.97"/>
<polygon fill="#63b8ff" stroke="#63b8ff" points="264.94,-138.34 272.36,-130.78 261.84,-132.06 264.94,-138.34"/>
</a>
</g>
</g>
<!-- Node44&#45;&gt;Node5 -->
<g id="edge66_Node000044_Node000005" class="edge">
<title>Node44&#45;&gt;Node5</title>
<g id="a_edge66_Node000044_Node000005"><a xlink:title=" ">
<path fill="none" stroke="#63b8ff" d="M332.99,-116.07C458.75,-106.59 841.34,-77.73 961.79,-68.64"/>
<polygon fill="#63b8ff" stroke="#63b8ff" points="961.71,-72.16 971.42,-67.92 961.18,-65.18 961.71,-72.16"/>
</a>
</g>
</g>
</g>
</svg>
