<?xml version="1.0" encoding="UTF-8" standalone="no"?>
<!DOCTYPE svg PUBLIC "-//W3C//DTD SVG 1.1//EN"
 "http://www.w3.org/Graphics/SVG/1.1/DTD/svg11.dtd">
<!-- Generated by graphviz version 10.0.1 (20240210.2158)
 -->
<!-- Title: /Users/hoff/Retro/virtualc64/Emulator/Base/Thread.cpp Pages: 1 -->
<svg width="1434pt" height="646pt"
 viewBox="0.00 0.00 1433.62 646.25" xmlns="http://www.w3.org/2000/svg" xmlns:xlink="http://www.w3.org/1999/xlink">
<g id="graph0" class="graph" transform="scale(1 1) rotate(0) translate(4 642.25)">
<title>/Users/hoff/Retro/virtualc64/Emulator/Base/Thread.cpp</title>
<!-- Node1 -->
<g id="Node000001" class="node">
<title>Node1</title>
<g id="a_Node000001"><a xlink:title=" ">
<polygon fill="#999999" stroke="#666666" points="198,-638.25 61.25,-638.25 61.25,-607.75 198,-607.75 198,-638.25"/>
<text text-anchor="start" x="69.25" y="-624.75" font-family="Helvetica,sans-Serif" font-size="10.00">/Users/hoff/Retro/virtualc64</text>
<text text-anchor="middle" x="129.62" y="-613.5" font-family="Helvetica,sans-Serif" font-size="10.00">/Emulator/Base/Thread.cpp</text>
</a>
</g>
</g>
<!-- Node2 -->
<g id="Node000002" class="node">
<title>Node2</title>
<g id="a_Node000002"><a xlink:href="config_8h.html" target="_top" xlink:title=" ">
<polygon fill="white" stroke="#666666" points="51.88,-571.75 1.38,-571.75 1.38,-552.5 51.88,-552.5 51.88,-571.75"/>
<text text-anchor="middle" x="26.62" y="-558.25" font-family="Helvetica,sans-Serif" font-size="10.00">config.h</text>
</a>
</g>
</g>
<!-- Node1&#45;&gt;Node2 -->
<g id="edge1_Node000001_Node000002" class="edge">
<title>Node1&#45;&gt;Node2</title>
<g id="a_edge1_Node000001_Node000002"><a xlink:title=" ">
<path fill="none" stroke="#63b8ff" d="M103.9,-607.3C88.06,-598.24 67.84,-586.69 52.06,-577.66"/>
<polygon fill="#63b8ff" stroke="#63b8ff" points="54.15,-574.83 43.73,-572.91 50.68,-580.91 54.15,-574.83"/>
</a>
</g>
</g>
<!-- Node4 -->
<g id="Node000004" class="node">
<title>Node4</title>
<g id="a_Node000004"><a xlink:href="_thread_8h.html" target="_top" xlink:title=" ">
<polygon fill="white" stroke="#666666" points="206.75,-571.75 152.5,-571.75 152.5,-552.5 206.75,-552.5 206.75,-571.75"/>
<text text-anchor="middle" x="179.62" y="-558.25" font-family="Helvetica,sans-Serif" font-size="10.00">Thread.h</text>
</a>
</g>
</g>
<!-- Node1&#45;&gt;Node4 -->
<g id="edge3_Node000001_Node000004" class="edge">
<title>Node1&#45;&gt;Node4</title>
<g id="a_edge3_Node000001_Node000004"><a xlink:title=" ">
<path fill="none" stroke="#63b8ff" d="M141.98,-607.45C148.79,-599.43 157.3,-589.42 164.5,-580.94"/>
<polygon fill="#63b8ff" stroke="#63b8ff" points="167.13,-583.24 170.94,-573.35 161.8,-578.71 167.13,-583.24"/>
</a>
</g>
</g>
<!-- Node21 -->
<g id="Node000021" class="node">
<title>Node21</title>
<g id="a_Node000021"><a xlink:title=" ">
<polygon fill="#e0e0e0" stroke="#999999" points="811.38,-240.25 757.88,-240.25 757.88,-221 811.38,-221 811.38,-240.25"/>
<text text-anchor="middle" x="784.62" y="-226.75" font-family="Helvetica,sans-Serif" font-size="10.00">iostream</text>
</a>
</g>
</g>
<!-- Node1&#45;&gt;Node21 -->
<g id="edge67_Node000001_Node000021" class="edge">
<title>Node1&#45;&gt;Node21</title>
<g id="a_edge67_Node000001_Node000021"><a xlink:title=" ">
<path fill="none" stroke="#63b8ff" d="M198.38,-618.07C376.04,-607 836.62,-572.1 836.62,-507.88 836.62,-507.88 836.62,-507.88 836.62,-340.12 836.62,-310.51 830.85,-302.75 817.62,-276.25 812.91,-266.79 806.17,-257.25 800.02,-249.43"/>
<polygon fill="#63b8ff" stroke="#63b8ff" points="802.75,-247.24 793.69,-241.74 797.34,-251.69 802.75,-247.24"/>
</a>
</g>
</g>
<!-- Node24 -->
<g id="Node000024" class="node">
<title>Node24</title>
<g id="a_Node000024"><a xlink:href="_chrono_8h.html" target="_top" xlink:title=" ">
<polygon fill="white" stroke="#666666" points="148.5,-295.5 92.75,-295.5 92.75,-276.25 148.5,-276.25 148.5,-295.5"/>
<text text-anchor="middle" x="120.62" y="-282" font-family="Helvetica,sans-Serif" font-size="10.00">Chrono.h</text>
</a>
</g>
</g>
<!-- Node1&#45;&gt;Node24 -->
<g id="edge66_Node000001_Node000024" class="edge">
<title>Node1&#45;&gt;Node24</title>
<g id="a_edge66_Node000001_Node000024"><a xlink:title=" ">
<path fill="none" stroke="#63b8ff" d="M118.53,-607.4C103.8,-586.51 79.62,-546.38 79.62,-507.88 79.62,-507.88 79.62,-507.88 79.62,-395.38 79.62,-362.09 96.72,-326.55 108.83,-305.55"/>
<polygon fill="#63b8ff" stroke="#63b8ff" points="111.8,-307.4 113.97,-297.03 105.81,-303.78 111.8,-307.4"/>
</a>
</g>
</g>
<!-- Node3 -->
<g id="Node000003" class="node">
<title>Node3</title>
<g id="a_Node000003"><a xlink:title=" ">
<polygon fill="#e0e0e0" stroke="#999999" points="51.25,-516.5 0,-516.5 0,-497.25 51.25,-497.25 51.25,-516.5"/>
<text text-anchor="middle" x="25.62" y="-503" font-family="Helvetica,sans-Serif" font-size="10.00">assert.h</text>
</a>
</g>
</g>
<!-- Node2&#45;&gt;Node3 -->
<g id="edge2_Node000002_Node000003" class="edge">
<title>Node2&#45;&gt;Node3</title>
<g id="a_edge2_Node000002_Node000003"><a xlink:title=" ">
<path fill="none" stroke="#63b8ff" d="M26.46,-552.33C26.34,-545.82 26.17,-536.67 26.01,-528.37"/>
<polygon fill="#63b8ff" stroke="#63b8ff" points="29.51,-528.3 25.82,-518.37 22.51,-528.44 29.51,-528.3"/>
</a>
</g>
</g>
<!-- Node5 -->
<g id="Node000005" class="node">
<title>Node5</title>
<g id="a_Node000005"><a xlink:href="_thread_types_8h.html" target="_top" xlink:title=" ">
<polygon fill="white" stroke="#666666" points="411.88,-240.25 331.38,-240.25 331.38,-221 411.88,-221 411.88,-240.25"/>
<text text-anchor="middle" x="371.62" y="-226.75" font-family="Helvetica,sans-Serif" font-size="10.00">ThreadTypes.h</text>
</a>
</g>
</g>
<!-- Node4&#45;&gt;Node5 -->
<g id="edge4_Node000004_Node000005" class="edge">
<title>Node4&#45;&gt;Node5</title>
<g id="a_edge4_Node000004_Node000005"><a xlink:title=" ">
<path fill="none" stroke="#63b8ff" d="M190.83,-552.29C217.75,-530.45 286.51,-470.99 322.62,-406 337.58,-379.09 358.32,-291.33 367.25,-251.55"/>
<polygon fill="#63b8ff" stroke="#63b8ff" points="370.64,-252.45 369.39,-241.93 363.8,-250.94 370.64,-252.45"/>
</a>
</g>
</g>
<!-- Node13 -->
<g id="Node000013" class="node">
<title>Node13</title>
<g id="a_Node000013"><a xlink:href="_core_component_8h.html" target="_top" xlink:title=" ">
<polygon fill="white" stroke="#666666" points="526.38,-516.5 430.88,-516.5 430.88,-497.25 526.38,-497.25 526.38,-516.5"/>
<text text-anchor="middle" x="478.62" y="-503" font-family="Helvetica,sans-Serif" font-size="10.00">CoreComponent.h</text>
</a>
</g>
</g>
<!-- Node4&#45;&gt;Node13 -->
<g id="edge12_Node000004_Node000013" class="edge">
<title>Node4&#45;&gt;Node13</title>
<g id="a_edge12_Node000004_Node000013"><a xlink:title=" ">
<path fill="none" stroke="#63b8ff" d="M207.22,-556.21C255.22,-547.66 355.12,-529.87 419.41,-518.42"/>
<polygon fill="#63b8ff" stroke="#63b8ff" points="419.86,-521.9 429.1,-516.7 418.64,-515 419.86,-521.9"/>
</a>
</g>
</g>
<!-- Node4&#45;&gt;Node24 -->
<g id="edge63_Node000004_Node000024" class="edge">
<title>Node4&#45;&gt;Node24</title>
<g id="a_edge63_Node000004_Node000024"><a xlink:title=" ">
<path fill="none" stroke="#63b8ff" d="M168.18,-552.01C158.48,-543.71 144.86,-530.63 136.62,-516.5 121.7,-490.92 117.62,-482.24 117.62,-452.62 117.62,-452.62 117.62,-452.62 117.62,-395.38 117.62,-364.64 118.84,-329.04 119.73,-307.24"/>
<polygon fill="#63b8ff" stroke="#63b8ff" points="123.22,-307.53 120.14,-297.39 116.22,-307.23 123.22,-307.53"/>
</a>
</g>
</g>
<!-- Node44 -->
<g id="Node000044" class="node">
<title>Node44</title>
<g id="a_Node000044"><a xlink:href="_wakeable_8h.html" target="_top" xlink:title=" ">
<polygon fill="white" stroke="#666666" points="213.12,-516.5 146.12,-516.5 146.12,-497.25 213.12,-497.25 213.12,-516.5"/>
<text text-anchor="middle" x="179.62" y="-503" font-family="Helvetica,sans-Serif" font-size="10.00">Wakeable.h</text>
</a>
</g>
</g>
<!-- Node4&#45;&gt;Node44 -->
<g id="edge64_Node000004_Node000044" class="edge">
<title>Node4&#45;&gt;Node44</title>
<g id="a_edge64_Node000004_Node000044"><a xlink:title=" ">
<path fill="none" stroke="#63b8ff" d="M179.62,-552.33C179.62,-545.82 179.62,-536.67 179.62,-528.37"/>
<polygon fill="#63b8ff" stroke="#63b8ff" points="183.13,-528.37 179.63,-518.37 176.13,-528.37 183.13,-528.37"/>
</a>
</g>
</g>
<!-- Node6 -->
<g id="Node000006" class="node">
<title>Node6</title>
<g id="a_Node000006"><a xlink:href="_aliases_8h.html" target="_top" xlink:title=" ">
<polygon fill="white" stroke="#666666" points="467.88,-185 411.38,-185 411.38,-165.75 467.88,-165.75 467.88,-185"/>
<text text-anchor="middle" x="439.62" y="-171.5" font-family="Helvetica,sans-Serif" font-size="10.00">Aliases.h</text>
</a>
</g>
</g>
<!-- Node5&#45;&gt;Node6 -->
<g id="edge5_Node000005_Node000006" class="edge">
<title>Node5&#45;&gt;Node6</title>
<g id="a_edge5_Node000005_Node000006"><a xlink:title=" ">
<path fill="none" stroke="#63b8ff" d="M383.16,-220.59C393.09,-212.82 407.64,-201.42 419.48,-192.15"/>
<polygon fill="#63b8ff" stroke="#63b8ff" points="421.35,-195.13 427.07,-186.21 417.04,-189.62 421.35,-195.13"/>
</a>
</g>
</g>
<!-- Node12 -->
<g id="Node000012" class="node">
<title>Node12</title>
<g id="a_Node000012"><a xlink:href="_reflection_8h.html" target="_top" xlink:title=" ">
<polygon fill="white" stroke="#666666" points="601.88,-185 533.38,-185 533.38,-165.75 601.88,-165.75 601.88,-185"/>
<text text-anchor="middle" x="567.62" y="-171.5" font-family="Helvetica,sans-Serif" font-size="10.00">Reflection.h</text>
</a>
</g>
</g>
<!-- Node5&#45;&gt;Node12 -->
<g id="edge11_Node000005_Node000012" class="edge">
<title>Node5&#45;&gt;Node12</title>
<g id="a_edge11_Node000005_Node000012"><a xlink:title=" ">
<path fill="none" stroke="#63b8ff" d="M404.87,-220.59C437.54,-211.72 487.57,-198.12 523.54,-188.35"/>
<polygon fill="#63b8ff" stroke="#63b8ff" points="524.02,-191.85 532.75,-185.85 522.18,-185.09 524.02,-191.85"/>
</a>
</g>
</g>
<!-- Node7 -->
<g id="Node000007" class="node">
<title>Node7</title>
<g id="a_Node000007"><a xlink:href="_macros_8h.html" target="_top" xlink:title=" ">
<polygon fill="white" stroke="#666666" points="543.88,-129.75 487.38,-129.75 487.38,-110.5 543.88,-110.5 543.88,-129.75"/>
<text text-anchor="middle" x="515.62" y="-116.25" font-family="Helvetica,sans-Serif" font-size="10.00">Macros.h</text>
</a>
</g>
</g>
<!-- Node6&#45;&gt;Node7 -->
<g id="edge6_Node000006_Node000007" class="edge">
<title>Node6&#45;&gt;Node7</title>
<g id="a_edge6_Node000006_Node000007"><a xlink:title=" ">
<path fill="none" stroke="#63b8ff" d="M452.52,-165.34C463.65,-157.54 480,-146.09 493.26,-136.79"/>
<polygon fill="#63b8ff" stroke="#63b8ff" points="495.25,-139.68 501.43,-131.07 491.23,-133.94 495.25,-139.68"/>
</a>
</g>
</g>
<!-- Node8 -->
<g id="Node000008" class="node">
<title>Node8</title>
<g id="a_Node000008"><a xlink:href="_types_8h.html" target="_top" xlink:title=" ">
<polygon fill="white" stroke="#666666" points="701.88,-74.5 651.38,-74.5 651.38,-55.25 701.88,-55.25 701.88,-74.5"/>
<text text-anchor="middle" x="676.62" y="-61" font-family="Helvetica,sans-Serif" font-size="10.00">Types.h</text>
</a>
</g>
</g>
<!-- Node7&#45;&gt;Node8 -->
<g id="edge7_Node000007_Node000008" class="edge">
<title>Node7&#45;&gt;Node8</title>
<g id="a_edge7_Node000007_Node000008"><a xlink:title=" ">
<path fill="none" stroke="#63b8ff" d="M542.94,-110.09C569.75,-101.22 610.8,-87.65 640.34,-77.88"/>
<polygon fill="#63b8ff" stroke="#63b8ff" points="641.21,-81.27 649.61,-74.81 639.01,-74.63 641.21,-81.27"/>
</a>
</g>
</g>
<!-- Node9 -->
<g id="Node000009" class="node">
<title>Node9</title>
<g id="a_Node000009"><a xlink:title=" ">
<polygon fill="#e0e0e0" stroke="#999999" points="634.12,-19.25 567.12,-19.25 567.12,0 634.12,0 634.12,-19.25"/>
<text text-anchor="middle" x="600.62" y="-5.75" font-family="Helvetica,sans-Serif" font-size="10.00">sys/types.h</text>
</a>
</g>
</g>
<!-- Node8&#45;&gt;Node9 -->
<g id="edge8_Node000008_Node000009" class="edge">
<title>Node8&#45;&gt;Node9</title>
<g id="a_edge8_Node000008_Node000009"><a xlink:title=" ">
<path fill="none" stroke="#63b8ff" d="M663.73,-54.84C652.6,-47.04 636.25,-35.59 622.99,-26.29"/>
<polygon fill="#63b8ff" stroke="#63b8ff" points="625.02,-23.44 614.82,-20.57 621,-29.18 625.02,-23.44"/>
</a>
</g>
</g>
<!-- Node10 -->
<g id="Node000010" class="node">
<title>Node10</title>
<g id="a_Node000010"><a xlink:title=" ">
<polygon fill="#e0e0e0" stroke="#999999" points="700.75,-19.25 652.5,-19.25 652.5,0 700.75,0 700.75,-19.25"/>
<text text-anchor="middle" x="676.62" y="-5.75" font-family="Helvetica,sans-Serif" font-size="10.00">stdint.h</text>
</a>
</g>
</g>
<!-- Node8&#45;&gt;Node10 -->
<g id="edge9_Node000008_Node000010" class="edge">
<title>Node8&#45;&gt;Node10</title>
<g id="a_edge9_Node000008_Node000010"><a xlink:title=" ">
<path fill="none" stroke="#63b8ff" d="M676.62,-55.08C676.62,-48.57 676.62,-39.42 676.62,-31.12"/>
<polygon fill="#63b8ff" stroke="#63b8ff" points="680.13,-31.12 676.63,-21.12 673.13,-31.12 680.13,-31.12"/>
</a>
</g>
</g>
<!-- Node11 -->
<g id="Node000011" class="node">
<title>Node11</title>
<g id="a_Node000011"><a xlink:title=" ">
<polygon fill="#e0e0e0" stroke="#999999" points="774.5,-19.25 718.75,-19.25 718.75,0 774.5,0 774.5,-19.25"/>
<text text-anchor="middle" x="746.62" y="-5.75" font-family="Helvetica,sans-Serif" font-size="10.00">stdbool.h</text>
</a>
</g>
</g>
<!-- Node8&#45;&gt;Node11 -->
<g id="edge10_Node000008_Node000011" class="edge">
<title>Node8&#45;&gt;Node11</title>
<g id="a_edge10_Node000008_Node000011"><a xlink:title=" ">
<path fill="none" stroke="#63b8ff" d="M688.5,-54.84C698.72,-47.07 713.7,-35.67 725.89,-26.4"/>
<polygon fill="#63b8ff" stroke="#63b8ff" points="727.88,-29.28 733.72,-20.44 723.64,-23.71 727.88,-29.28"/>
</a>
</g>
</g>
<!-- Node13&#45;&gt;Node5 -->
<g id="edge61_Node000013_Node000005" class="edge">
<title>Node13&#45;&gt;Node5</title>
<g id="a_edge61_Node000013_Node000005"><a xlink:title=" ">
<path fill="none" stroke="#63b8ff" d="M437.95,-496.87C418.49,-490.35 396.82,-479.39 384.62,-461.25 361.87,-427.41 367.15,-301.4 370.21,-251.83"/>
<polygon fill="#63b8ff" stroke="#63b8ff" points="373.7,-252.22 370.86,-242.01 366.71,-251.76 373.7,-252.22"/>
</a>
</g>
</g>
<!-- Node14 -->
<g id="Node000014" class="node">
<title>Node14</title>
<g id="a_Node000014"><a xlink:href="_emulator_types_8h.html" target="_top" xlink:title=" ">
<polygon fill="white" stroke="#666666" points="537.38,-295.5 447.88,-295.5 447.88,-276.25 537.38,-276.25 537.38,-295.5"/>
<text text-anchor="middle" x="492.62" y="-282" font-family="Helvetica,sans-Serif" font-size="10.00">EmulatorTypes.h</text>
</a>
</g>
</g>
<!-- Node13&#45;&gt;Node14 -->
<g id="edge13_Node000013_Node000014" class="edge">
<title>Node13&#45;&gt;Node14</title>
<g id="a_edge13_Node000013_Node000014"><a xlink:title=" ">
<path fill="none" stroke="#63b8ff" d="M523.27,-496.76C542.84,-490.31 563.97,-479.43 575.62,-461.25 590.27,-438.4 563.48,-429.33 549.62,-406 529.6,-372.27 510.88,-330.42 500.67,-306.36"/>
<polygon fill="#63b8ff" stroke="#63b8ff" points="503.93,-305.09 496.84,-297.22 497.47,-307.79 503.93,-305.09"/>
</a>
</g>
</g>
<!-- Node15 -->
<g id="Node000015" class="node">
<title>Node15</title>
<g id="a_Node000015"><a xlink:href="_core_object_8h.html" target="_top" xlink:title=" ">
<polygon fill="white" stroke="#666666" points="769.5,-350.75 695.75,-350.75 695.75,-331.5 769.5,-331.5 769.5,-350.75"/>
<text text-anchor="middle" x="732.62" y="-337.25" font-family="Helvetica,sans-Serif" font-size="10.00">CoreObject.h</text>
</a>
</g>
</g>
<!-- Node13&#45;&gt;Node15 -->
<g id="edge17_Node000013_Node000015" class="edge">
<title>Node13&#45;&gt;Node15</title>
<g id="a_edge17_Node000013_Node000015"><a xlink:title=" ">
<path fill="none" stroke="#63b8ff" d="M526.68,-501.94C586.35,-496.18 683.69,-483.61 711.62,-461.25 740.64,-438.02 739.57,-389.98 736.15,-362.53"/>
<polygon fill="#63b8ff" stroke="#63b8ff" points="739.62,-362.09 734.68,-352.72 732.7,-363.13 739.62,-362.09"/>
</a>
</g>
</g>
<!-- Node22 -->
<g id="Node000022" class="node">
<title>Node22</title>
<g id="a_Node000022"><a xlink:href="_synchronizable_8h.html" target="_top" xlink:title=" ">
<polygon fill="white" stroke="#666666" points="313.12,-406 222.12,-406 222.12,-386.75 313.12,-386.75 313.12,-406"/>
<text text-anchor="middle" x="267.62" y="-392.5" font-family="Helvetica,sans-Serif" font-size="10.00">Synchronizable.h</text>
</a>
</g>
</g>
<!-- Node13&#45;&gt;Node22 -->
<g id="edge27_Node000013_Node000022" class="edge">
<title>Node13&#45;&gt;Node22</title>
<g id="a_edge27_Node000013_Node000022"><a xlink:title=" ">
<path fill="none" stroke="#63b8ff" d="M443.71,-496.81C417.48,-489.25 381.15,-477.15 351.62,-461.25 327.08,-448.03 302.04,-427.97 285.77,-413.86"/>
<polygon fill="#63b8ff" stroke="#63b8ff" points="288.21,-411.34 278.4,-407.34 283.57,-416.59 288.21,-411.34"/>
</a>
</g>
</g>
<!-- Node23 -->
<g id="Node000023" class="node">
<title>Node23</title>
<g id="a_Node000023"><a xlink:href="_concurrency_8h.html" target="_top" xlink:title=" ">
<polygon fill="white" stroke="#666666" points="232.75,-350.75 154.5,-350.75 154.5,-331.5 232.75,-331.5 232.75,-350.75"/>
<text text-anchor="middle" x="193.62" y="-337.25" font-family="Helvetica,sans-Serif" font-size="10.00">Concurrency.h</text>
</a>
</g>
</g>
<!-- Node13&#45;&gt;Node23 -->
<g id="edge58_Node000013_Node000023" class="edge">
<title>Node13&#45;&gt;Node23</title>
<g id="a_edge58_Node000013_Node000023"><a xlink:title=" ">
<path fill="none" stroke="#63b8ff" d="M430.48,-502.05C369.82,-494.5 266.96,-472.13 212.62,-406 202.39,-393.54 197.67,-375.72 195.49,-362.07"/>
<polygon fill="#63b8ff" stroke="#63b8ff" points="199,-361.97 194.3,-352.47 192.06,-362.83 199,-361.97"/>
</a>
</g>
</g>
<!-- Node28 -->
<g id="Node000028" class="node">
<title>Node28</title>
<g id="a_Node000028"><a xlink:href="_serializable_8h.html" target="_top" xlink:title=" ">
<polygon fill="white" stroke="#666666" points="467.88,-461.25 393.38,-461.25 393.38,-442 467.88,-442 467.88,-461.25"/>
<text text-anchor="middle" x="430.62" y="-447.75" font-family="Helvetica,sans-Serif" font-size="10.00">Serializable.h</text>
</a>
</g>
</g>
<!-- Node13&#45;&gt;Node28 -->
<g id="edge34_Node000013_Node000028" class="edge">
<title>Node13&#45;&gt;Node28</title>
<g id="a_edge34_Node000013_Node000028"><a xlink:title=" ">
<path fill="none" stroke="#63b8ff" d="M470.7,-497.08C464.07,-489.73 454.41,-479.01 446.24,-469.94"/>
<polygon fill="#63b8ff" stroke="#63b8ff" points="449.03,-467.82 439.74,-462.73 443.83,-472.5 449.03,-467.82"/>
</a>
</g>
</g>
<!-- Node29 -->
<g id="Node000029" class="node">
<title>Node29</title>
<g id="a_Node000029"><a xlink:href="_configurable_8h.html" target="_top" xlink:title=" ">
<polygon fill="white" stroke="#666666" points="702.12,-461.25 623.12,-461.25 623.12,-442 702.12,-442 702.12,-461.25"/>
<text text-anchor="middle" x="662.62" y="-447.75" font-family="Helvetica,sans-Serif" font-size="10.00">Configurable.h</text>
</a>
</g>
</g>
<!-- Node13&#45;&gt;Node29 -->
<g id="edge35_Node000013_Node000029" class="edge">
<title>Node13&#45;&gt;Node29</title>
<g id="a_edge35_Node000013_Node000029"><a xlink:title=" ">
<path fill="none" stroke="#63b8ff" d="M509.84,-496.84C540.24,-488.04 586.66,-474.61 620.36,-464.86"/>
<polygon fill="#63b8ff" stroke="#63b8ff" points="621.17,-468.27 629.8,-462.12 619.23,-461.54 621.17,-468.27"/>
</a>
</g>
</g>
<!-- Node34 -->
<g id="Node000034" class="node">
<title>Node34</title>
<g id="a_Node000034"><a xlink:title=" ">
<polygon fill="#e0e0e0" stroke="#999999" points="1409.12,-185 1366.12,-185 1366.12,-165.75 1409.12,-165.75 1409.12,-185"/>
<text text-anchor="middle" x="1387.62" y="-171.5" font-family="Helvetica,sans-Serif" font-size="10.00">vector</text>
</a>
</g>
</g>
<!-- Node13&#45;&gt;Node34 -->
<g id="edge62_Node000013_Node000034" class="edge">
<title>Node13&#45;&gt;Node34</title>
<g id="a_edge62_Node000013_Node000034"><a xlink:title=" ">
<path fill="none" stroke="#63b8ff" d="M526.56,-505.48C719.07,-503.25 1425.62,-488.86 1425.62,-397.38 1425.62,-397.38 1425.62,-397.38 1425.62,-284.88 1425.62,-251.88 1409.78,-216.26 1398.56,-195.16"/>
<polygon fill="#63b8ff" stroke="#63b8ff" points="1401.72,-193.65 1393.8,-186.61 1395.6,-197.05 1401.72,-193.65"/>
</a>
</g>
</g>
<!-- Node42 -->
<g id="Node000042" class="node">
<title>Node42</title>
<g id="a_Node000042"><a xlink:href="_suspendable_8h.html" target="_top" xlink:title=" ">
<polygon fill="white" stroke="#666666" points="566.88,-461.25 486.38,-461.25 486.38,-442 566.88,-442 566.88,-461.25"/>
<text text-anchor="middle" x="526.62" y="-447.75" font-family="Helvetica,sans-Serif" font-size="10.00">Suspendable.h</text>
</a>
</g>
</g>
<!-- Node13&#45;&gt;Node42 -->
<g id="edge59_Node000013_Node000042" class="edge">
<title>Node13&#45;&gt;Node42</title>
<g id="a_edge59_Node000013_Node000042"><a xlink:title=" ">
<path fill="none" stroke="#63b8ff" d="M486.55,-497.08C493.18,-489.73 502.84,-479.01 511.01,-469.94"/>
<polygon fill="#63b8ff" stroke="#63b8ff" points="513.42,-472.5 517.51,-462.73 508.22,-467.82 513.42,-472.5"/>
</a>
</g>
</g>
<!-- Node14&#45;&gt;Node5 -->
<g id="edge16_Node000014_Node000005" class="edge">
<title>Node14&#45;&gt;Node5</title>
<g id="a_edge16_Node000014_Node000005"><a xlink:title=" ">
<path fill="none" stroke="#63b8ff" d="M472.1,-275.84C453.06,-267.47 424.47,-254.88 402.65,-245.28"/>
<polygon fill="#63b8ff" stroke="#63b8ff" points="404.2,-242.14 393.64,-241.31 401.38,-248.54 404.2,-242.14"/>
</a>
</g>
</g>
<!-- Node14&#45;&gt;Node6 -->
<g id="edge14_Node000014_Node000006" class="edge">
<title>Node14&#45;&gt;Node6</title>
<g id="a_edge14_Node000014_Node000006"><a xlink:title=" ">
<path fill="none" stroke="#63b8ff" d="M484.26,-275.97C476.63,-267.4 465.51,-253.8 458.62,-240.25 451.56,-226.34 446.66,-209.35 443.61,-196.39"/>
<polygon fill="#63b8ff" stroke="#63b8ff" points="447.1,-195.95 441.56,-186.92 440.26,-197.43 447.1,-195.95"/>
</a>
</g>
</g>
<!-- Node14&#45;&gt;Node12 -->
<g id="edge15_Node000014_Node000012" class="edge">
<title>Node14&#45;&gt;Node12</title>
<g id="a_edge15_Node000014_Node000012"><a xlink:title=" ">
<path fill="none" stroke="#63b8ff" d="M508.62,-275.89C521.23,-268.03 538.33,-255.5 548.62,-240.25 557.45,-227.17 562.27,-209.89 564.84,-196.61"/>
<polygon fill="#63b8ff" stroke="#63b8ff" points="568.27,-197.28 566.43,-186.85 561.37,-196.16 568.27,-197.28"/>
</a>
</g>
</g>
<!-- Node16 -->
<g id="Node000016" class="node">
<title>Node16</title>
<g id="a_Node000016"><a xlink:href="_error_8h.html" target="_top" xlink:title=" ">
<polygon fill="white" stroke="#666666" points="715.88,-295.5 671.38,-295.5 671.38,-276.25 715.88,-276.25 715.88,-295.5"/>
<text text-anchor="middle" x="693.62" y="-282" font-family="Helvetica,sans-Serif" font-size="10.00">Error.h</text>
</a>
</g>
</g>
<!-- Node15&#45;&gt;Node16 -->
<g id="edge18_Node000015_Node000016" class="edge">
<title>Node15&#45;&gt;Node16</title>
<g id="a_edge18_Node000015_Node000016"><a xlink:title=" ">
<path fill="none" stroke="#63b8ff" d="M726.18,-331.33C720.97,-324.21 713.44,-313.93 706.93,-305.05"/>
<polygon fill="#63b8ff" stroke="#63b8ff" points="709.83,-303.08 701.1,-297.08 704.18,-307.22 709.83,-303.08"/>
</a>
</g>
</g>
<!-- Node20 -->
<g id="Node000020" class="node">
<title>Node20</title>
<g id="a_Node000020"><a xlink:href="_inspectable_8h.html" target="_top" xlink:title=" ">
<polygon fill="white" stroke="#666666" points="808.88,-295.5 734.38,-295.5 734.38,-276.25 808.88,-276.25 808.88,-295.5"/>
<text text-anchor="middle" x="771.62" y="-282" font-family="Helvetica,sans-Serif" font-size="10.00">Inspectable.h</text>
</a>
</g>
</g>
<!-- Node15&#45;&gt;Node20 -->
<g id="edge25_Node000015_Node000020" class="edge">
<title>Node15&#45;&gt;Node20</title>
<g id="a_edge25_Node000015_Node000020"><a xlink:title=" ">
<path fill="none" stroke="#63b8ff" d="M739.07,-331.33C744.28,-324.21 751.81,-313.93 758.32,-305.05"/>
<polygon fill="#63b8ff" stroke="#63b8ff" points="761.07,-307.22 764.15,-297.08 755.42,-303.08 761.07,-307.22"/>
</a>
</g>
</g>
<!-- Node17 -->
<g id="Node000017" class="node">
<title>Node17</title>
<g id="a_Node000017"><a xlink:href="_error_types_8h.html" target="_top" xlink:title=" ">
<polygon fill="white" stroke="#666666" points="539.38,-240.25 467.88,-240.25 467.88,-221 539.38,-221 539.38,-240.25"/>
<text text-anchor="middle" x="503.62" y="-226.75" font-family="Helvetica,sans-Serif" font-size="10.00">ErrorTypes.h</text>
</a>
</g>
</g>
<!-- Node16&#45;&gt;Node17 -->
<g id="edge19_Node000016_Node000017" class="edge">
<title>Node16&#45;&gt;Node17</title>
<g id="a_edge19_Node000016_Node000017"><a xlink:title=" ">
<path fill="none" stroke="#63b8ff" d="M671.08,-278.56C640.58,-270.01 585.52,-254.58 546.89,-243.75"/>
<polygon fill="#63b8ff" stroke="#63b8ff" points="548,-240.43 537.43,-241.1 546.11,-247.17 548,-240.43"/>
</a>
</g>
</g>
<!-- Node18 -->
<g id="Node000018" class="node">
<title>Node18</title>
<g id="a_Node000018"><a xlink:href="_exception_8h.html" target="_top" xlink:title=" ">
<polygon fill="white" stroke="#666666" points="739.5,-240.25 671.75,-240.25 671.75,-221 739.5,-221 739.5,-240.25"/>
<text text-anchor="middle" x="705.62" y="-226.75" font-family="Helvetica,sans-Serif" font-size="10.00">Exception.h</text>
</a>
</g>
</g>
<!-- Node16&#45;&gt;Node18 -->
<g id="edge22_Node000016_Node000018" class="edge">
<title>Node16&#45;&gt;Node18</title>
<g id="a_edge22_Node000016_Node000018"><a xlink:title=" ">
<path fill="none" stroke="#63b8ff" d="M695.61,-276.08C697.09,-269.49 699.18,-260.21 701.07,-251.82"/>
<polygon fill="#63b8ff" stroke="#63b8ff" points="704.48,-252.61 703.27,-242.09 697.65,-251.07 704.48,-252.61"/>
</a>
</g>
</g>
<!-- Node17&#45;&gt;Node6 -->
<g id="edge20_Node000017_Node000006" class="edge">
<title>Node17&#45;&gt;Node6</title>
<g id="a_edge20_Node000017_Node000006"><a xlink:title=" ">
<path fill="none" stroke="#63b8ff" d="M492.77,-220.59C483.52,-212.9 470,-201.65 458.92,-192.43"/>
<polygon fill="#63b8ff" stroke="#63b8ff" points="461.41,-189.95 451.48,-186.24 456.93,-195.33 461.41,-189.95"/>
</a>
</g>
</g>
<!-- Node17&#45;&gt;Node12 -->
<g id="edge21_Node000017_Node000012" class="edge">
<title>Node17&#45;&gt;Node12</title>
<g id="a_edge21_Node000017_Node000012"><a xlink:title=" ">
<path fill="none" stroke="#63b8ff" d="M514.48,-220.59C523.73,-212.9 537.25,-201.65 548.33,-192.43"/>
<polygon fill="#63b8ff" stroke="#63b8ff" points="550.32,-195.33 555.77,-186.24 545.84,-189.95 550.32,-195.33"/>
</a>
</g>
</g>
<!-- Node18&#45;&gt;Node8 -->
<g id="edge23_Node000018_Node000008" class="edge">
<title>Node18&#45;&gt;Node8</title>
<g id="a_edge23_Node000018_Node000008"><a xlink:title=" ">
<path fill="none" stroke="#63b8ff" d="M703.47,-220.77C701.32,-211.79 698.02,-197.48 695.62,-185 689.01,-150.46 682.9,-109.99 679.48,-86.22"/>
<polygon fill="#63b8ff" stroke="#63b8ff" points="682.95,-85.78 678.08,-76.37 676.02,-86.77 682.95,-85.78"/>
</a>
</g>
</g>
<!-- Node19 -->
<g id="Node000019" class="node">
<title>Node19</title>
<g id="a_Node000019"><a xlink:title=" ">
<polygon fill="#e0e0e0" stroke="#999999" points="762.62,-185 704.62,-185 704.62,-165.75 762.62,-165.75 762.62,-185"/>
<text text-anchor="middle" x="733.62" y="-171.5" font-family="Helvetica,sans-Serif" font-size="10.00">exception</text>
</a>
</g>
</g>
<!-- Node18&#45;&gt;Node19 -->
<g id="edge24_Node000018_Node000019" class="edge">
<title>Node18&#45;&gt;Node19</title>
<g id="a_edge24_Node000018_Node000019"><a xlink:title=" ">
<path fill="none" stroke="#63b8ff" d="M710.25,-220.83C713.87,-213.94 719.05,-204.09 723.62,-195.41"/>
<polygon fill="#63b8ff" stroke="#63b8ff" points="726.64,-197.18 728.2,-186.7 720.44,-193.92 726.64,-197.18"/>
</a>
</g>
</g>
<!-- Node20&#45;&gt;Node21 -->
<g id="edge26_Node000020_Node000021" class="edge">
<title>Node20&#45;&gt;Node21</title>
<g id="a_edge26_Node000020_Node000021"><a xlink:title=" ">
<path fill="none" stroke="#63b8ff" d="M773.77,-276.08C775.4,-269.42 777.7,-259.99 779.77,-251.53"/>
<polygon fill="#63b8ff" stroke="#63b8ff" points="783.1,-252.62 782.07,-242.08 776.3,-250.96 783.1,-252.62"/>
</a>
</g>
</g>
<!-- Node22&#45;&gt;Node23 -->
<g id="edge28_Node000022_Node000023" class="edge">
<title>Node22&#45;&gt;Node23</title>
<g id="a_edge28_Node000022_Node000023"><a xlink:title=" ">
<path fill="none" stroke="#63b8ff" d="M255.07,-386.34C244.16,-378.49 228.12,-366.95 215.16,-357.62"/>
<polygon fill="#63b8ff" stroke="#63b8ff" points="217.38,-354.91 207.22,-351.91 213.29,-360.59 217.38,-354.91"/>
</a>
</g>
</g>
<!-- Node23&#45;&gt;Node24 -->
<g id="edge29_Node000023_Node000024" class="edge">
<title>Node23&#45;&gt;Node24</title>
<g id="a_edge29_Node000023_Node000024"><a xlink:title=" ">
<path fill="none" stroke="#63b8ff" d="M181.24,-331.09C170.48,-323.24 154.65,-311.7 141.87,-302.37"/>
<polygon fill="#63b8ff" stroke="#63b8ff" points="144.19,-299.73 134.05,-296.67 140.06,-305.39 144.19,-299.73"/>
</a>
</g>
</g>
<!-- Node26 -->
<g id="Node000026" class="node">
<title>Node26</title>
<g id="a_Node000026"><a xlink:title=" ">
<polygon fill="#e0e0e0" stroke="#999999" points="211.12,-295.5 168.12,-295.5 168.12,-276.25 211.12,-276.25 211.12,-295.5"/>
<text text-anchor="middle" x="189.62" y="-282" font-family="Helvetica,sans-Serif" font-size="10.00">thread</text>
</a>
</g>
</g>
<!-- Node23&#45;&gt;Node26 -->
<g id="edge32_Node000023_Node000026" class="edge">
<title>Node23&#45;&gt;Node26</title>
<g id="a_edge32_Node000023_Node000026"><a xlink:title=" ">
<path fill="none" stroke="#63b8ff" d="M192.96,-331.33C192.47,-324.74 191.77,-315.46 191.14,-307.07"/>
<polygon fill="#63b8ff" stroke="#63b8ff" points="194.65,-307.08 190.41,-297.37 187.67,-307.6 194.65,-307.08"/>
</a>
</g>
</g>
<!-- Node27 -->
<g id="Node000027" class="node">
<title>Node27</title>
<g id="a_Node000027"><a xlink:title=" ">
<polygon fill="#e0e0e0" stroke="#999999" points="270,-295.5 229.25,-295.5 229.25,-276.25 270,-276.25 270,-295.5"/>
<text text-anchor="middle" x="249.62" y="-282" font-family="Helvetica,sans-Serif" font-size="10.00">future</text>
</a>
</g>
</g>
<!-- Node23&#45;&gt;Node27 -->
<g id="edge33_Node000023_Node000027" class="edge">
<title>Node23&#45;&gt;Node27</title>
<g id="a_edge33_Node000023_Node000027"><a xlink:title=" ">
<path fill="none" stroke="#63b8ff" d="M203.12,-331.09C211.06,-323.55 222.57,-312.6 232.16,-303.48"/>
<polygon fill="#63b8ff" stroke="#63b8ff" points="234.33,-306.24 239.17,-296.82 229.51,-301.17 234.33,-306.24"/>
</a>
</g>
</g>
<!-- Node24&#45;&gt;Node8 -->
<g id="edge30_Node000024_Node000008" class="edge">
<title>Node24&#45;&gt;Node8</title>
<g id="a_edge30_Node000024_Node000008"><a xlink:title=" ">
<path fill="none" stroke="#63b8ff" d="M120.76,-276.18C121.45,-262.57 124.77,-236.25 139.62,-221 250.21,-107.5 325.83,-152.52 478.62,-110.5 534.44,-95.15 600.16,-81.12 640.08,-73.04"/>
<polygon fill="#63b8ff" stroke="#63b8ff" points="640.52,-76.53 649.64,-71.13 639.14,-69.66 640.52,-76.53"/>
</a>
</g>
</g>
<!-- Node25 -->
<g id="Node000025" class="node">
<title>Node25</title>
<g id="a_Node000025"><a xlink:title=" ">
<polygon fill="#e0e0e0" stroke="#999999" points="188.62,-240.25 148.62,-240.25 148.62,-221 188.62,-221 188.62,-240.25"/>
<text text-anchor="middle" x="168.62" y="-226.75" font-family="Helvetica,sans-Serif" font-size="10.00">ctime</text>
</a>
</g>
</g>
<!-- Node24&#45;&gt;Node25 -->
<g id="edge31_Node000024_Node000025" class="edge">
<title>Node24&#45;&gt;Node25</title>
<g id="a_edge31_Node000024_Node000025"><a xlink:title=" ">
<path fill="none" stroke="#63b8ff" d="M128.55,-276.08C135.18,-268.73 144.84,-258.01 153.01,-248.94"/>
<polygon fill="#63b8ff" stroke="#63b8ff" points="155.42,-251.5 159.51,-241.73 150.22,-246.82 155.42,-251.5"/>
</a>
</g>
</g>
<!-- Node29&#45;&gt;Node12 -->
<g id="edge39_Node000029_Node000012" class="edge">
<title>Node29&#45;&gt;Node12</title>
<g id="a_edge39_Node000029_Node000012"><a xlink:title=" ">
<path fill="none" stroke="#63b8ff" d="M674.65,-441.51C684.27,-433.39 697.05,-420.58 702.62,-406 705.68,-398.01 705.03,-394.96 702.62,-386.75 690.25,-344.54 612.8,-237.23 581.11,-194.42"/>
<polygon fill="#63b8ff" stroke="#63b8ff" points="584.11,-192.58 575.33,-186.65 578.49,-196.76 584.11,-192.58"/>
</a>
</g>
</g>
<!-- Node30 -->
<g id="Node000030" class="node">
<title>Node30</title>
<g id="a_Node000030"><a xlink:href="_option_types_8h.html" target="_top" xlink:title=" ">
<polygon fill="white" stroke="#666666" points="502.12,-350.75 423.12,-350.75 423.12,-331.5 502.12,-331.5 502.12,-350.75"/>
<text text-anchor="middle" x="462.62" y="-337.25" font-family="Helvetica,sans-Serif" font-size="10.00">OptionTypes.h</text>
</a>
</g>
</g>
<!-- Node29&#45;&gt;Node30 -->
<g id="edge36_Node000029_Node000030" class="edge">
<title>Node29&#45;&gt;Node30</title>
<g id="a_edge36_Node000029_Node000030"><a xlink:title=" ">
<path fill="none" stroke="#63b8ff" d="M633.85,-441.56C610.45,-433.65 576.95,-421.1 549.62,-406 524.58,-392.16 498.45,-372.1 481.45,-358.17"/>
<polygon fill="#63b8ff" stroke="#63b8ff" points="484.09,-355.82 474.17,-352.11 479.61,-361.2 484.09,-355.82"/>
</a>
</g>
</g>
<!-- Node31 -->
<g id="Node000031" class="node">
<title>Node31</title>
<g id="a_Node000031"><a xlink:href="_defaults_8h.html" target="_top" xlink:title=" ">
<polygon fill="white" stroke="#666666" points="693.12,-406 632.12,-406 632.12,-386.75 693.12,-386.75 693.12,-406"/>
<text text-anchor="middle" x="662.62" y="-392.5" font-family="Helvetica,sans-Serif" font-size="10.00">Defaults.h</text>
</a>
</g>
</g>
<!-- Node29&#45;&gt;Node31 -->
<g id="edge40_Node000029_Node000031" class="edge">
<title>Node29&#45;&gt;Node31</title>
<g id="a_edge40_Node000029_Node000031"><a xlink:title=" ">
<path fill="none" stroke="#63b8ff" d="M662.62,-441.83C662.62,-435.32 662.62,-426.17 662.62,-417.87"/>
<polygon fill="#63b8ff" stroke="#63b8ff" points="666.13,-417.87 662.63,-407.87 659.13,-417.87 666.13,-417.87"/>
</a>
</g>
</g>
<!-- Node41 -->
<g id="Node000041" class="node">
<title>Node41</title>
<g id="a_Node000041"><a xlink:title=" ">
<polygon fill="#e0e0e0" stroke="#999999" points="614.5,-406 558.75,-406 558.75,-386.75 614.5,-386.75 614.5,-406"/>
<text text-anchor="middle" x="586.62" y="-392.5" font-family="Helvetica,sans-Serif" font-size="10.00">algorithm</text>
</a>
</g>
</g>
<!-- Node29&#45;&gt;Node41 -->
<g id="edge57_Node000029_Node000041" class="edge">
<title>Node29&#45;&gt;Node41</title>
<g id="a_edge57_Node000029_Node000041"><a xlink:title=" ">
<path fill="none" stroke="#63b8ff" d="M649.73,-441.59C638.6,-433.79 622.25,-422.34 608.99,-413.04"/>
<polygon fill="#63b8ff" stroke="#63b8ff" points="611.02,-410.19 600.82,-407.32 607,-415.93 611.02,-410.19"/>
</a>
</g>
</g>
<!-- Node30&#45;&gt;Node6 -->
<g id="edge37_Node000030_Node000006" class="edge">
<title>Node30&#45;&gt;Node6</title>
<g id="a_edge37_Node000030_Node000006"><a xlink:title=" ">
<path fill="none" stroke="#63b8ff" d="M438.05,-331C404.81,-317.16 346.89,-287.36 322.62,-240.25 305.04,-206.1 359.46,-189.38 399.89,-181.84"/>
<polygon fill="#63b8ff" stroke="#63b8ff" points="400.36,-185.31 409.62,-180.17 399.17,-178.42 400.36,-185.31"/>
</a>
</g>
</g>
<!-- Node30&#45;&gt;Node12 -->
<g id="edge38_Node000030_Node000012" class="edge">
<title>Node30&#45;&gt;Node12</title>
<g id="a_edge38_Node000030_Node000012"><a xlink:title=" ">
<path fill="none" stroke="#63b8ff" d="M490.99,-331.08C509.12,-323.99 531.9,-312.46 546.62,-295.5 570.53,-267.96 571.67,-222.97 569.92,-196.87"/>
<polygon fill="#63b8ff" stroke="#63b8ff" points="573.41,-196.59 569.03,-186.95 566.44,-197.22 573.41,-196.59"/>
</a>
</g>
</g>
<!-- Node31&#45;&gt;Node15 -->
<g id="edge41_Node000031_Node000015" class="edge">
<title>Node31&#45;&gt;Node15</title>
<g id="a_edge41_Node000031_Node000015"><a xlink:title=" ">
<path fill="none" stroke="#63b8ff" d="M674.5,-386.34C684.72,-378.57 699.7,-367.17 711.89,-357.9"/>
<polygon fill="#63b8ff" stroke="#63b8ff" points="713.88,-360.78 719.72,-351.94 709.64,-355.21 713.88,-360.78"/>
</a>
</g>
</g>
<!-- Node31&#45;&gt;Node23 -->
<g id="edge43_Node000031_Node000023" class="edge">
<title>Node31&#45;&gt;Node23</title>
<g id="a_edge43_Node000031_Node000023"><a xlink:title=" ">
<path fill="none" stroke="#63b8ff" d="M632.03,-388.26C629.2,-387.71 626.36,-387.19 623.62,-386.75 487.51,-364.71 325.31,-351.32 244.56,-345.52"/>
<polygon fill="#63b8ff" stroke="#63b8ff" points="244.98,-342.04 234.76,-344.82 244.49,-349.02 244.98,-342.04"/>
</a>
</g>
</g>
<!-- Node31&#45;&gt;Node30 -->
<g id="edge42_Node000031_Node000030" class="edge">
<title>Node31&#45;&gt;Node30</title>
<g id="a_edge42_Node000031_Node000030"><a xlink:title=" ">
<path fill="none" stroke="#63b8ff" d="M631.81,-387.17C598.6,-378.33 545.43,-364.17 507.56,-354.09"/>
<polygon fill="#63b8ff" stroke="#63b8ff" points="508.85,-350.81 498.29,-351.62 507.05,-357.58 508.85,-350.81"/>
</a>
</g>
</g>
<!-- Node32 -->
<g id="Node000032" class="node">
<title>Node32</title>
<g id="a_Node000032"><a xlink:href="_i_o_utils_8h.html" target="_top" xlink:title=" ">
<polygon fill="white" stroke="#666666" points="1083.12,-295.5 1028.12,-295.5 1028.12,-276.25 1083.12,-276.25 1083.12,-295.5"/>
<text text-anchor="middle" x="1055.62" y="-282" font-family="Helvetica,sans-Serif" font-size="10.00">IOUtils.h</text>
</a>
</g>
</g>
<!-- Node31&#45;&gt;Node32 -->
<g id="edge44_Node000031_Node000032" class="edge">
<title>Node31&#45;&gt;Node32</title>
<g id="a_edge44_Node000031_Node000032"><a xlink:title=" ">
<path fill="none" stroke="#63b8ff" d="M693.46,-386.86C764.43,-367.27 939.19,-319.02 1017.08,-297.52"/>
<polygon fill="#63b8ff" stroke="#63b8ff" points="1017.68,-300.98 1026.39,-294.95 1015.82,-294.23 1017.68,-300.98"/>
</a>
</g>
</g>
<!-- Node32&#45;&gt;Node8 -->
<g id="edge45_Node000032_Node000008" class="edge">
<title>Node32&#45;&gt;Node8</title>
<g id="a_edge45_Node000032_Node000008"><a xlink:title=" ">
<path fill="none" stroke="#63b8ff" d="M1027.92,-276.51C1003.29,-268.61 966.65,-255.68 936.62,-240.25 841.75,-191.49 739.53,-115 696.99,-81.96"/>
<polygon fill="#63b8ff" stroke="#63b8ff" points="699.17,-79.22 689.14,-75.82 694.86,-84.74 699.17,-79.22"/>
</a>
</g>
</g>
<!-- Node32&#45;&gt;Node21 -->
<g id="edge53_Node000032_Node000021" class="edge">
<title>Node32&#45;&gt;Node21</title>
<g id="a_edge53_Node000032_Node000021"><a xlink:title=" ">
<path fill="none" stroke="#63b8ff" d="M1027.68,-280.01C985.46,-272.57 902.65,-257.6 822.5,-240.57"/>
<polygon fill="#63b8ff" stroke="#63b8ff" points="823.71,-237.25 813.2,-238.58 822.25,-244.09 823.71,-237.25"/>
</a>
</g>
</g>
<!-- Node33 -->
<g id="Node000033" class="node">
<title>Node33</title>
<g id="a_Node000033"><a xlink:href="_string_utils_8h.html" target="_top" xlink:title=" ">
<polygon fill="white" stroke="#666666" points="1015.62,-240.25 945.62,-240.25 945.62,-221 1015.62,-221 1015.62,-240.25"/>
<text text-anchor="middle" x="980.62" y="-226.75" font-family="Helvetica,sans-Serif" font-size="10.00">StringUtils.h</text>
</a>
</g>
</g>
<!-- Node32&#45;&gt;Node33 -->
<g id="edge46_Node000032_Node000033" class="edge">
<title>Node32&#45;&gt;Node33</title>
<g id="a_edge46_Node000032_Node000033"><a xlink:title=" ">
<path fill="none" stroke="#63b8ff" d="M1042.9,-275.84C1031.91,-268.04 1015.78,-256.59 1002.69,-247.29"/>
<polygon fill="#63b8ff" stroke="#63b8ff" points="1004.82,-244.51 994.64,-241.58 1000.77,-250.22 1004.82,-244.51"/>
</a>
</g>
</g>
<!-- Node32&#45;&gt;Node34 -->
<g id="edge56_Node000032_Node000034" class="edge">
<title>Node32&#45;&gt;Node34</title>
<g id="a_edge56_Node000032_Node000034"><a xlink:title=" ">
<path fill="none" stroke="#63b8ff" d="M1083.37,-284.63C1151.79,-283.47 1326.12,-276.9 1368.62,-240.25 1381.09,-229.5 1385.57,-210.96 1387.09,-196.62"/>
<polygon fill="#63b8ff" stroke="#63b8ff" points="1390.57,-197.1 1387.69,-186.9 1383.58,-196.67 1390.57,-197.1"/>
</a>
</g>
</g>
<!-- Node35 -->
<g id="Node000035" class="node">
<title>Node35</title>
<g id="a_Node000035"><a xlink:title=" ">
<polygon fill="#e0e0e0" stroke="#999999" points="1077.12,-240.25 1034.12,-240.25 1034.12,-221 1077.12,-221 1077.12,-240.25"/>
<text text-anchor="middle" x="1055.62" y="-226.75" font-family="Helvetica,sans-Serif" font-size="10.00">fcntl.h</text>
</a>
</g>
</g>
<!-- Node32&#45;&gt;Node35 -->
<g id="edge49_Node000032_Node000035" class="edge">
<title>Node32&#45;&gt;Node35</title>
<g id="a_edge49_Node000032_Node000035"><a xlink:title=" ">
<path fill="none" stroke="#63b8ff" d="M1055.62,-276.08C1055.62,-269.57 1055.62,-260.42 1055.62,-252.12"/>
<polygon fill="#63b8ff" stroke="#63b8ff" points="1059.13,-252.12 1055.63,-242.12 1052.13,-252.12 1059.13,-252.12"/>
</a>
</g>
</g>
<!-- Node36 -->
<g id="Node000036" class="node">
<title>Node36</title>
<g id="a_Node000036"><a xlink:title=" ">
<polygon fill="#e0e0e0" stroke="#999999" points="1156.12,-240.25 1095.12,-240.25 1095.12,-221 1156.12,-221 1156.12,-240.25"/>
<text text-anchor="middle" x="1125.62" y="-226.75" font-family="Helvetica,sans-Serif" font-size="10.00">filesystem</text>
</a>
</g>
</g>
<!-- Node32&#45;&gt;Node36 -->
<g id="edge50_Node000032_Node000036" class="edge">
<title>Node32&#45;&gt;Node36</title>
<g id="a_edge50_Node000032_Node000036"><a xlink:title=" ">
<path fill="none" stroke="#63b8ff" d="M1067.5,-275.84C1077.72,-268.07 1092.7,-256.67 1104.89,-247.4"/>
<polygon fill="#63b8ff" stroke="#63b8ff" points="1106.88,-250.28 1112.72,-241.44 1102.64,-244.71 1106.88,-250.28"/>
</a>
</g>
</g>
<!-- Node37 -->
<g id="Node000037" class="node">
<title>Node37</title>
<g id="a_Node000037"><a xlink:title=" ">
<polygon fill="#e0e0e0" stroke="#999999" points="1223.12,-240.25 1174.12,-240.25 1174.12,-221 1223.12,-221 1223.12,-240.25"/>
<text text-anchor="middle" x="1198.62" y="-226.75" font-family="Helvetica,sans-Serif" font-size="10.00">fstream</text>
</a>
</g>
</g>
<!-- Node32&#45;&gt;Node37 -->
<g id="edge51_Node000032_Node000037" class="edge">
<title>Node32&#45;&gt;Node37</title>
<g id="a_edge51_Node000032_Node000037"><a xlink:title=" ">
<path fill="none" stroke="#63b8ff" d="M1079.88,-275.84C1102.89,-267.27 1137.72,-254.31 1163.71,-244.63"/>
<polygon fill="#63b8ff" stroke="#63b8ff" points="1164.68,-248 1172.83,-241.23 1162.24,-241.44 1164.68,-248"/>
</a>
</g>
</g>
<!-- Node38 -->
<g id="Node000038" class="node">
<title>Node38</title>
<g id="a_Node000038"><a xlink:title=" ">
<polygon fill="#e0e0e0" stroke="#999999" points="1289.75,-240.25 1241.5,-240.25 1241.5,-221 1289.75,-221 1289.75,-240.25"/>
<text text-anchor="middle" x="1265.62" y="-226.75" font-family="Helvetica,sans-Serif" font-size="10.00">istream</text>
</a>
</g>
</g>
<!-- Node32&#45;&gt;Node38 -->
<g id="edge52_Node000032_Node000038" class="edge">
<title>Node32&#45;&gt;Node38</title>
<g id="a_edge52_Node000032_Node000038"><a xlink:title=" ">
<path fill="none" stroke="#63b8ff" d="M1083.54,-277.92C1116.32,-269.73 1172.63,-255.61 1230.02,-240.9"/>
<polygon fill="#63b8ff" stroke="#63b8ff" points="1230.84,-244.31 1239.66,-238.43 1229.1,-237.53 1230.84,-244.31"/>
</a>
</g>
</g>
<!-- Node39 -->
<g id="Node000039" class="node">
<title>Node39</title>
<g id="a_Node000039"><a xlink:title=" ">
<polygon fill="#e0e0e0" stroke="#999999" points="1359.25,-240.25 1308,-240.25 1308,-221 1359.25,-221 1359.25,-240.25"/>
<text text-anchor="middle" x="1333.62" y="-226.75" font-family="Helvetica,sans-Serif" font-size="10.00">sstream</text>
</a>
</g>
</g>
<!-- Node32&#45;&gt;Node39 -->
<g id="edge54_Node000032_Node000039" class="edge">
<title>Node32&#45;&gt;Node39</title>
<g id="a_edge54_Node000032_Node000039"><a xlink:title=" ">
<path fill="none" stroke="#63b8ff" d="M1083.43,-280.33C1126.74,-273.12 1213.19,-258.27 1296.48,-240.6"/>
<polygon fill="#63b8ff" stroke="#63b8ff" points="1297.15,-244.04 1306.19,-238.52 1295.68,-237.19 1297.15,-244.04"/>
</a>
</g>
</g>
<!-- Node40 -->
<g id="Node000040" class="node">
<title>Node40</title>
<g id="a_Node000040"><a xlink:title=" ">
<polygon fill="#e0e0e0" stroke="#999999" points="889.38,-240.25 829.88,-240.25 829.88,-221 889.38,-221 889.38,-240.25"/>
<text text-anchor="middle" x="859.62" y="-226.75" font-family="Helvetica,sans-Serif" font-size="10.00">sys/stat.h</text>
</a>
</g>
</g>
<!-- Node32&#45;&gt;Node40 -->
<g id="edge55_Node000032_Node000040" class="edge">
<title>Node32&#45;&gt;Node40</title>
<g id="a_edge55_Node000032_Node000040"><a xlink:title=" ">
<path fill="none" stroke="#63b8ff" d="M1027.96,-277.36C994.73,-268.33 938.69,-253.11 900.48,-242.72"/>
<polygon fill="#63b8ff" stroke="#63b8ff" points="901.75,-239.44 891.18,-240.2 899.91,-246.2 901.75,-239.44"/>
</a>
</g>
</g>
<!-- Node33&#45;&gt;Node8 -->
<g id="edge47_Node000033_Node000008" class="edge">
<title>Node33&#45;&gt;Node8</title>
<g id="a_edge47_Node000033_Node000008"><a xlink:title=" ">
<path fill="none" stroke="#63b8ff" d="M979.82,-220.74C977.28,-198.33 967.36,-139.22 931.62,-110.5 898.55,-83.92 775.53,-72.27 713.25,-67.99"/>
<polygon fill="#63b8ff" stroke="#63b8ff" points="713.72,-64.51 703.51,-67.35 713.26,-71.5 713.72,-64.51"/>
</a>
</g>
</g>
<!-- Node33&#45;&gt;Node34 -->
<g id="edge48_Node000033_Node000034" class="edge">
<title>Node33&#45;&gt;Node34</title>
<g id="a_edge48_Node000033_Node000034"><a xlink:title=" ">
<path fill="none" stroke="#63b8ff" d="M1015.96,-222.62C1019.22,-222.04 1022.48,-221.49 1025.62,-221 1146.39,-202 1290.88,-186.28 1354.64,-179.7"/>
<polygon fill="#63b8ff" stroke="#63b8ff" points="1354.83,-183.19 1364.42,-178.69 1354.12,-176.23 1354.83,-183.19"/>
</a>
</g>
</g>
<!-- Node43 -->
<g id="Node000043" class="node">
<title>Node43</title>
<g id="a_Node000043"><a xlink:title=" ">
<polygon fill="#e0e0e0" stroke="#999999" points="464.75,-406 422.5,-406 422.5,-386.75 464.75,-386.75 464.75,-406"/>
<text text-anchor="middle" x="443.62" y="-392.5" font-family="Helvetica,sans-Serif" font-size="10.00">cstdio</text>
</a>
</g>
</g>
<!-- Node42&#45;&gt;Node43 -->
<g id="edge60_Node000042_Node000043" class="edge">
<title>Node42&#45;&gt;Node43</title>
<g id="a_edge60_Node000042_Node000043"><a xlink:title=" ">
<path fill="none" stroke="#63b8ff" d="M512.55,-441.59C500.14,-433.64 481.83,-421.89 467.2,-412.5"/>
<polygon fill="#63b8ff" stroke="#63b8ff" points="469.35,-409.72 459.05,-407.27 465.57,-415.62 469.35,-409.72"/>
</a>
</g>
</g>
<!-- Node44&#45;&gt;Node23 -->
<g id="edge65_Node000044_Node000023" class="edge">
<title>Node44&#45;&gt;Node23</title>
<g id="a_edge65_Node000044_Node000023"><a xlink:title=" ">
<path fill="none" stroke="#63b8ff" d="M178.7,-496.84C176.85,-476.85 173.39,-427.43 179.62,-386.75 180.9,-378.43 183.44,-369.53 186.01,-361.88"/>
<polygon fill="#63b8ff" stroke="#63b8ff" points="189.26,-363.18 189.38,-352.58 182.68,-360.79 189.26,-363.18"/>
</a>
</g>
</g>
</g>
</svg>
