<?xml version="1.0" encoding="UTF-8" standalone="no"?>
<!DOCTYPE svg PUBLIC "-//W3C//DTD SVG 1.1//EN"
 "http://www.w3.org/Graphics/SVG/1.1/DTD/svg11.dtd">
<!-- Generated by graphviz version 10.0.1 (20240210.2158)
 -->
<!-- Title: /Users/hoff/Retro/virtualc64/Emulator/Base/Thread.h Pages: 1 -->
<svg width="214pt" height="172pt"
 viewBox="0.00 0.00 213.88 171.50" xmlns="http://www.w3.org/2000/svg" xmlns:xlink="http://www.w3.org/1999/xlink">
<g id="graph0" class="graph" transform="scale(1 1) rotate(0) translate(4 167.5)">
<title>/Users/hoff/Retro/virtualc64/Emulator/Base/Thread.h</title>
<!-- Node1 -->
<g id="Node000001" class="node">
<title>Node1</title>
<g id="a_Node000001"><a xlink:title=" ">
<polygon fill="#999999" stroke="#666666" points="191.25,-163.5 54.5,-163.5 54.5,-133 191.25,-133 191.25,-163.5"/>
<text text-anchor="start" x="62.5" y="-150" font-family="Helvetica,sans-Serif" font-size="10.00">/Users/hoff/Retro/virtualc64</text>
<text text-anchor="middle" x="122.88" y="-138.75" font-family="Helvetica,sans-Serif" font-size="10.00">/Emulator/Base/Thread.h</text>
</a>
</g>
</g>
<!-- Node2 -->
<g id="Node000002" class="node">
<title>Node2</title>
<g id="a_Node000002"><a xlink:href="_c64_8h_source.html" target="_top" xlink:title=" ">
<polygon fill="white" stroke="#666666" points="145.75,-97 0,-97 0,-66.5 145.75,-66.5 145.75,-97"/>
<text text-anchor="start" x="8" y="-83.5" font-family="Helvetica,sans-Serif" font-size="10.00">/Users/hoff/Retro/virtualc64</text>
<text text-anchor="middle" x="72.88" y="-72.25" font-family="Helvetica,sans-Serif" font-size="10.00">/Emulator/Components/C64.h</text>
</a>
</g>
</g>
<!-- Node1&#45;&gt;Node2 -->
<g id="edge1_Node000001_Node000002" class="edge">
<title>Node1&#45;&gt;Node2</title>
<g id="a_edge1_Node000001_Node000002"><a xlink:title=" ">
<path fill="none" stroke="#63b8ff" d="M104.52,-123.57C97.7,-114.78 90.18,-105.07 84.18,-97.33"/>
<polygon fill="#63b8ff" stroke="#63b8ff" points="101.71,-125.66 110.6,-131.42 107.24,-121.37 101.71,-125.66"/>
</a>
</g>
</g>
<!-- Node3 -->
<g id="Node000003" class="node">
<title>Node3</title>
<g id="a_Node000003"><a xlink:href="_emulator_8h_source.html" target="_top" xlink:title=" ">
<polygon fill="white" stroke="#666666" points="205.88,-30.5 39.88,-30.5 39.88,0 205.88,0 205.88,-30.5"/>
<text text-anchor="start" x="47.88" y="-17" font-family="Helvetica,sans-Serif" font-size="10.00">/Users/hoff/Retro/virtualc64</text>
<text text-anchor="middle" x="122.88" y="-5.75" font-family="Helvetica,sans-Serif" font-size="10.00">/Emulator/Components/Emulator.h</text>
</a>
</g>
</g>
<!-- Node1&#45;&gt;Node3 -->
<g id="edge3_Node000001_Node000003" class="edge">
<title>Node1&#45;&gt;Node3</title>
<g id="a_edge3_Node000001_Node000003"><a xlink:title=" ">
<path fill="none" stroke="#63b8ff" d="M142.03,-123.26C147.25,-115.35 152.19,-106.22 154.88,-97 158.67,-83.99 158.67,-79.51 154.88,-66.5 151.06,-53.39 142.67,-40.44 135.44,-30.97"/>
<polygon fill="#63b8ff" stroke="#63b8ff" points="139.26,-121.12 136.31,-131.29 144.96,-125.18 139.26,-121.12"/>
</a>
</g>
</g>
<!-- Node2&#45;&gt;Node3 -->
<g id="edge2_Node000002_Node000003" class="edge">
<title>Node2&#45;&gt;Node3</title>
<g id="a_edge2_Node000002_Node000003"><a xlink:title=" ">
<path fill="none" stroke="#63b8ff" d="M91.23,-57.07C98.05,-48.28 105.57,-38.57 111.57,-30.83"/>
<polygon fill="#63b8ff" stroke="#63b8ff" points="88.51,-54.87 85.15,-64.92 94.04,-59.16 88.51,-54.87"/>
</a>
</g>
</g>
</g>
</svg>
