<?xml version="1.0" encoding="UTF-8" standalone="no"?>
<!DOCTYPE svg PUBLIC "-//W3C//DTD SVG 1.1//EN"
 "http://www.w3.org/Graphics/SVG/1.1/DTD/svg11.dtd">
<!-- Generated by graphviz version 10.0.1 (20240210.2158)
 -->
<!-- Title: /Users/hoff/Retro/virtualc64/Emulator/Base/Thread.h Pages: 1 -->
<svg width="1183pt" height="591pt"
 viewBox="0.00 0.00 1183.42 591.00" xmlns="http://www.w3.org/2000/svg" xmlns:xlink="http://www.w3.org/1999/xlink">
<g id="graph0" class="graph" transform="scale(1 1) rotate(0) translate(4 587)">
<title>/Users/hoff/Retro/virtualc64/Emulator/Base/Thread.h</title>
<!-- Node1 -->
<g id="Node000001" class="node">
<title>Node1</title>
<g id="a_Node000001"><a xlink:title=" ">
<polygon fill="#999999" stroke="#666666" points="502.55,-583 365.8,-583 365.8,-552.5 502.55,-552.5 502.55,-583"/>
<text text-anchor="start" x="373.8" y="-569.5" font-family="Helvetica,sans-Serif" font-size="10.00">/Users/hoff/Retro/virtualc64</text>
<text text-anchor="middle" x="434.17" y="-558.25" font-family="Helvetica,sans-Serif" font-size="10.00">/Emulator/Base/Thread.h</text>
</a>
</g>
</g>
<!-- Node2 -->
<g id="Node000002" class="node">
<title>Node2</title>
<g id="a_Node000002"><a xlink:href="_thread_types_8h.html" target="_top" xlink:title=" ">
<polygon fill="white" stroke="#666666" points="1175.42,-240.25 1094.92,-240.25 1094.92,-221 1175.42,-221 1175.42,-240.25"/>
<text text-anchor="middle" x="1135.17" y="-226.75" font-family="Helvetica,sans-Serif" font-size="10.00">ThreadTypes.h</text>
</a>
</g>
</g>
<!-- Node1&#45;&gt;Node2 -->
<g id="edge1_Node000001_Node000002" class="edge">
<title>Node1&#45;&gt;Node2</title>
<g id="a_edge1_Node000001_Node000002"><a xlink:title=" ">
<path fill="none" stroke="#63b8ff" d="M503.03,-563.3C686.49,-553.2 1173.17,-520.05 1173.17,-452.62 1173.17,-452.62 1173.17,-452.62 1173.17,-340.12 1173.17,-307.13 1157.33,-271.51 1146.1,-250.41"/>
<polygon fill="#63b8ff" stroke="#63b8ff" points="1149.27,-248.9 1141.35,-241.86 1143.15,-252.3 1149.27,-248.9"/>
</a>
</g>
</g>
<!-- Node10 -->
<g id="Node000010" class="node">
<title>Node10</title>
<g id="a_Node000010"><a xlink:href="_core_component_8h_source.html" target="_top" xlink:title=" ">
<polygon fill="white" stroke="#666666" points="589.92,-516.5 494.42,-516.5 494.42,-497.25 589.92,-497.25 589.92,-516.5"/>
<text text-anchor="middle" x="542.17" y="-503" font-family="Helvetica,sans-Serif" font-size="10.00">CoreComponent.h</text>
</a>
</g>
</g>
<!-- Node1&#45;&gt;Node10 -->
<g id="edge9_Node000001_Node000010" class="edge">
<title>Node1&#45;&gt;Node10</title>
<g id="a_edge9_Node000001_Node000010"><a xlink:title=" ">
<path fill="none" stroke="#63b8ff" d="M461.15,-552.05C477.75,-542.99 498.95,-531.44 515.5,-522.41"/>
<polygon fill="#63b8ff" stroke="#63b8ff" points="517.18,-525.49 524.28,-517.63 513.83,-519.34 517.18,-525.49"/>
</a>
</g>
</g>
<!-- Node21 -->
<g id="Node000021" class="node">
<title>Node21</title>
<g id="a_Node000021"><a xlink:href="_chrono_8h_source.html" target="_top" xlink:title=" ">
<polygon fill="white" stroke="#666666" points="685.05,-295.5 629.3,-295.5 629.3,-276.25 685.05,-276.25 685.05,-295.5"/>
<text text-anchor="middle" x="657.17" y="-282" font-family="Helvetica,sans-Serif" font-size="10.00">Chrono.h</text>
</a>
</g>
</g>
<!-- Node1&#45;&gt;Node21 -->
<g id="edge60_Node000001_Node000021" class="edge">
<title>Node1&#45;&gt;Node21</title>
<g id="a_edge60_Node000001_Node000021"><a xlink:title=" ">
<path fill="none" stroke="#63b8ff" d="M399.21,-552.04C363.16,-534.26 312.17,-500.63 312.17,-452.62 312.17,-452.62 312.17,-452.62 312.17,-395.38 312.17,-364.38 315.36,-350.08 340.17,-331.5 387.94,-295.73 542.3,-305.51 617.95,-295.47"/>
<polygon fill="#63b8ff" stroke="#63b8ff" points="618.11,-298.99 627.46,-294 617.04,-292.07 618.11,-298.99"/>
</a>
</g>
</g>
<!-- Node41 -->
<g id="Node000041" class="node">
<title>Node41</title>
<g id="a_Node000041"><a xlink:href="_wakeable_8h_source.html" target="_top" xlink:title=" ">
<polygon fill="white" stroke="#666666" points="276.67,-516.5 209.67,-516.5 209.67,-497.25 276.67,-497.25 276.67,-516.5"/>
<text text-anchor="middle" x="243.17" y="-503" font-family="Helvetica,sans-Serif" font-size="10.00">Wakeable.h</text>
</a>
</g>
</g>
<!-- Node1&#45;&gt;Node41 -->
<g id="edge61_Node000001_Node000041" class="edge">
<title>Node1&#45;&gt;Node41</title>
<g id="a_edge61_Node000001_Node000041"><a xlink:title=" ">
<path fill="none" stroke="#63b8ff" d="M386.47,-552.05C354.82,-542.29 313.74,-529.63 283.68,-520.36"/>
<polygon fill="#63b8ff" stroke="#63b8ff" points="284.78,-517.04 274.19,-517.44 282.72,-523.73 284.78,-517.04"/>
</a>
</g>
</g>
<!-- Node3 -->
<g id="Node000003" class="node">
<title>Node3</title>
<g id="a_Node000003"><a xlink:href="_aliases_8h_source.html" target="_top" xlink:title=" ">
<polygon fill="white" stroke="#666666" points="1057.42,-185 1000.92,-185 1000.92,-165.75 1057.42,-165.75 1057.42,-185"/>
<text text-anchor="middle" x="1029.17" y="-171.5" font-family="Helvetica,sans-Serif" font-size="10.00">Aliases.h</text>
</a>
</g>
</g>
<!-- Node2&#45;&gt;Node3 -->
<g id="edge2_Node000002_Node000003" class="edge">
<title>Node2&#45;&gt;Node3</title>
<g id="a_edge2_Node000002_Node000003"><a xlink:title=" ">
<path fill="none" stroke="#63b8ff" d="M1117.19,-220.59C1100.82,-212.37 1076.38,-200.09 1057.41,-190.56"/>
<polygon fill="#63b8ff" stroke="#63b8ff" points="1059.1,-187.49 1048.6,-186.13 1055.96,-193.75 1059.1,-187.49"/>
</a>
</g>
</g>
<!-- Node9 -->
<g id="Node000009" class="node">
<title>Node9</title>
<g id="a_Node000009"><a xlink:href="_reflection_8h_source.html" target="_top" xlink:title=" ">
<polygon fill="white" stroke="#666666" points="935.42,-185 866.92,-185 866.92,-165.75 935.42,-165.75 935.42,-185"/>
<text text-anchor="middle" x="901.17" y="-171.5" font-family="Helvetica,sans-Serif" font-size="10.00">Reflection.h</text>
</a>
</g>
</g>
<!-- Node2&#45;&gt;Node9 -->
<g id="edge8_Node000002_Node000009" class="edge">
<title>Node2&#45;&gt;Node9</title>
<g id="a_edge8_Node000002_Node000009"><a xlink:title=" ">
<path fill="none" stroke="#63b8ff" d="M1095.21,-220.53C1053.99,-211.15 989.81,-196.54 946.66,-186.73"/>
<polygon fill="#63b8ff" stroke="#63b8ff" points="947.64,-183.36 937.11,-184.55 946.08,-190.18 947.64,-183.36"/>
</a>
</g>
</g>
<!-- Node4 -->
<g id="Node000004" class="node">
<title>Node4</title>
<g id="a_Node000004"><a xlink:href="_macros_8h_source.html" target="_top" xlink:title=" ">
<polygon fill="white" stroke="#666666" points="952.42,-129.75 895.92,-129.75 895.92,-110.5 952.42,-110.5 952.42,-129.75"/>
<text text-anchor="middle" x="924.17" y="-116.25" font-family="Helvetica,sans-Serif" font-size="10.00">Macros.h</text>
</a>
</g>
</g>
<!-- Node3&#45;&gt;Node4 -->
<g id="edge3_Node000003_Node000004" class="edge">
<title>Node3&#45;&gt;Node4</title>
<g id="a_edge3_Node000003_Node000004"><a xlink:title=" ">
<path fill="none" stroke="#63b8ff" d="M1011.36,-165.34C995.15,-157.12 970.94,-144.84 952.14,-135.31"/>
<polygon fill="#63b8ff" stroke="#63b8ff" points="953.92,-132.29 943.42,-130.89 950.76,-138.53 953.92,-132.29"/>
</a>
</g>
</g>
<!-- Node5 -->
<g id="Node000005" class="node">
<title>Node5</title>
<g id="a_Node000005"><a xlink:href="_types_8h_source.html" target="_top" xlink:title=" ">
<polygon fill="white" stroke="#666666" points="668.42,-74.5 617.92,-74.5 617.92,-55.25 668.42,-55.25 668.42,-74.5"/>
<text text-anchor="middle" x="643.17" y="-61" font-family="Helvetica,sans-Serif" font-size="10.00">Types.h</text>
</a>
</g>
</g>
<!-- Node4&#45;&gt;Node5 -->
<g id="edge4_Node000004_Node000005" class="edge">
<title>Node4&#45;&gt;Node5</title>
<g id="a_edge4_Node000004_Node000005"><a xlink:title=" ">
<path fill="none" stroke="#63b8ff" d="M895.68,-113.73C844.38,-104 736.55,-83.57 679.83,-72.82"/>
<polygon fill="#63b8ff" stroke="#63b8ff" points="680.83,-69.45 670.35,-71.03 679.53,-76.33 680.83,-69.45"/>
</a>
</g>
</g>
<!-- Node6 -->
<g id="Node000006" class="node">
<title>Node6</title>
<g id="a_Node000006"><a xlink:title=" ">
<polygon fill="#e0e0e0" stroke="#999999" points="600.67,-19.25 533.67,-19.25 533.67,0 600.67,0 600.67,-19.25"/>
<text text-anchor="middle" x="567.17" y="-5.75" font-family="Helvetica,sans-Serif" font-size="10.00">sys/types.h</text>
</a>
</g>
</g>
<!-- Node5&#45;&gt;Node6 -->
<g id="edge5_Node000005_Node000006" class="edge">
<title>Node5&#45;&gt;Node6</title>
<g id="a_edge5_Node000005_Node000006"><a xlink:title=" ">
<path fill="none" stroke="#63b8ff" d="M630.28,-54.84C619.14,-47.04 602.8,-35.59 589.53,-26.29"/>
<polygon fill="#63b8ff" stroke="#63b8ff" points="591.57,-23.44 581.37,-20.57 587.55,-29.18 591.57,-23.44"/>
</a>
</g>
</g>
<!-- Node7 -->
<g id="Node000007" class="node">
<title>Node7</title>
<g id="a_Node000007"><a xlink:title=" ">
<polygon fill="#e0e0e0" stroke="#999999" points="667.3,-19.25 619.05,-19.25 619.05,0 667.3,0 667.3,-19.25"/>
<text text-anchor="middle" x="643.17" y="-5.75" font-family="Helvetica,sans-Serif" font-size="10.00">stdint.h</text>
</a>
</g>
</g>
<!-- Node5&#45;&gt;Node7 -->
<g id="edge6_Node000005_Node000007" class="edge">
<title>Node5&#45;&gt;Node7</title>
<g id="a_edge6_Node000005_Node000007"><a xlink:title=" ">
<path fill="none" stroke="#63b8ff" d="M643.17,-55.08C643.17,-48.57 643.17,-39.42 643.17,-31.12"/>
<polygon fill="#63b8ff" stroke="#63b8ff" points="646.67,-31.12 643.17,-21.12 639.67,-31.12 646.67,-31.12"/>
</a>
</g>
</g>
<!-- Node8 -->
<g id="Node000008" class="node">
<title>Node8</title>
<g id="a_Node000008"><a xlink:title=" ">
<polygon fill="#e0e0e0" stroke="#999999" points="741.05,-19.25 685.3,-19.25 685.3,0 741.05,0 741.05,-19.25"/>
<text text-anchor="middle" x="713.17" y="-5.75" font-family="Helvetica,sans-Serif" font-size="10.00">stdbool.h</text>
</a>
</g>
</g>
<!-- Node5&#45;&gt;Node8 -->
<g id="edge7_Node000005_Node000008" class="edge">
<title>Node5&#45;&gt;Node8</title>
<g id="a_edge7_Node000005_Node000008"><a xlink:title=" ">
<path fill="none" stroke="#63b8ff" d="M655.05,-54.84C665.27,-47.07 680.24,-35.67 692.44,-26.4"/>
<polygon fill="#63b8ff" stroke="#63b8ff" points="694.43,-29.28 700.27,-20.44 690.19,-23.71 694.43,-29.28"/>
</a>
</g>
</g>
<!-- Node10&#45;&gt;Node2 -->
<g id="edge58_Node000010_Node000002" class="edge">
<title>Node10&#45;&gt;Node2</title>
<g id="a_edge58_Node000010_Node000002"><a xlink:title=" ">
<path fill="none" stroke="#63b8ff" d="M590.2,-502.15C731.37,-490.58 1135.17,-452.65 1135.17,-397.38 1135.17,-397.38 1135.17,-397.38 1135.17,-340.12 1135.17,-309.41 1135.17,-273.8 1135.17,-251.99"/>
<polygon fill="#63b8ff" stroke="#63b8ff" points="1138.67,-252.14 1135.17,-242.14 1131.67,-252.14 1138.67,-252.14"/>
</a>
</g>
</g>
<!-- Node11 -->
<g id="Node000011" class="node">
<title>Node11</title>
<g id="a_Node000011"><a xlink:href="_emulator_types_8h.html" target="_top" xlink:title=" ">
<polygon fill="white" stroke="#666666" points="1106.92,-295.5 1017.42,-295.5 1017.42,-276.25 1106.92,-276.25 1106.92,-295.5"/>
<text text-anchor="middle" x="1062.17" y="-282" font-family="Helvetica,sans-Serif" font-size="10.00">EmulatorTypes.h</text>
</a>
</g>
</g>
<!-- Node10&#45;&gt;Node11 -->
<g id="edge10_Node000010_Node000011" class="edge">
<title>Node10&#45;&gt;Node11</title>
<g id="a_edge10_Node000010_Node000011"><a xlink:title=" ">
<path fill="none" stroke="#63b8ff" d="M590.3,-504.51C646.26,-501.47 740.5,-491.8 815.17,-461.25 911.42,-421.87 1006.63,-339.01 1044.76,-303.55"/>
<polygon fill="#63b8ff" stroke="#63b8ff" points="1046.82,-306.42 1051.7,-297.02 1042.02,-301.32 1046.82,-306.42"/>
</a>
</g>
</g>
<!-- Node12 -->
<g id="Node000012" class="node">
<title>Node12</title>
<g id="a_Node000012"><a xlink:href="_core_object_8h_source.html" target="_top" xlink:title=" ">
<polygon fill="white" stroke="#666666" points="704.05,-350.75 630.3,-350.75 630.3,-331.5 704.05,-331.5 704.05,-350.75"/>
<text text-anchor="middle" x="667.17" y="-337.25" font-family="Helvetica,sans-Serif" font-size="10.00">CoreObject.h</text>
</a>
</g>
</g>
<!-- Node10&#45;&gt;Node12 -->
<g id="edge14_Node000010_Node000012" class="edge">
<title>Node10&#45;&gt;Node12</title>
<g id="a_edge14_Node000010_Node000012"><a xlink:title=" ">
<path fill="none" stroke="#63b8ff" d="M545.14,-497.1C553.51,-472.66 577.74,-404.48 593.17,-386.75 604.43,-373.82 620.38,-363.54 634.59,-356.13"/>
<polygon fill="#63b8ff" stroke="#63b8ff" points="635.75,-359.45 643.18,-351.9 632.66,-353.17 635.75,-359.45"/>
</a>
</g>
</g>
<!-- Node19 -->
<g id="Node000019" class="node">
<title>Node19</title>
<g id="a_Node000019"><a xlink:href="_synchronizable_8h_source.html" target="_top" xlink:title=" ">
<polygon fill="white" stroke="#666666" points="507.67,-406 416.67,-406 416.67,-386.75 507.67,-386.75 507.67,-406"/>
<text text-anchor="middle" x="462.17" y="-392.5" font-family="Helvetica,sans-Serif" font-size="10.00">Synchronizable.h</text>
</a>
</g>
</g>
<!-- Node10&#45;&gt;Node19 -->
<g id="edge24_Node000010_Node000019" class="edge">
<title>Node10&#45;&gt;Node19</title>
<g id="a_edge24_Node000010_Node000019"><a xlink:title=" ">
<path fill="none" stroke="#63b8ff" d="M511.2,-496.88C493.84,-490.09 473.63,-478.85 463.17,-461.25 455.45,-448.24 455.67,-430.96 457.56,-417.66"/>
<polygon fill="#63b8ff" stroke="#63b8ff" points="461,-418.35 459.41,-407.87 454.12,-417.05 461,-418.35"/>
</a>
</g>
</g>
<!-- Node20 -->
<g id="Node000020" class="node">
<title>Node20</title>
<g id="a_Node000020"><a xlink:href="_concurrency_8h_source.html" target="_top" xlink:title=" ">
<polygon fill="white" stroke="#666666" points="427.3,-350.75 349.05,-350.75 349.05,-331.5 427.3,-331.5 427.3,-350.75"/>
<text text-anchor="middle" x="388.17" y="-337.25" font-family="Helvetica,sans-Serif" font-size="10.00">Concurrency.h</text>
</a>
</g>
</g>
<!-- Node10&#45;&gt;Node20 -->
<g id="edge55_Node000010_Node000020" class="edge">
<title>Node10&#45;&gt;Node20</title>
<g id="a_edge55_Node000010_Node000020"><a xlink:title=" ">
<path fill="none" stroke="#63b8ff" d="M518.27,-496.81C499.67,-489.07 473.81,-476.73 454.17,-461.25 428.86,-441.29 422.54,-434.34 407.17,-406 399.65,-392.13 394.75,-374.9 391.81,-361.84"/>
<polygon fill="#63b8ff" stroke="#63b8ff" points="395.3,-361.42 389.88,-352.31 388.44,-362.81 395.3,-361.42"/>
</a>
</g>
</g>
<!-- Node25 -->
<g id="Node000025" class="node">
<title>Node25</title>
<g id="a_Node000025"><a xlink:href="_serializable_8h_source.html" target="_top" xlink:title=" ">
<polygon fill="white" stroke="#666666" points="546.42,-461.25 471.92,-461.25 471.92,-442 546.42,-442 546.42,-461.25"/>
<text text-anchor="middle" x="509.17" y="-447.75" font-family="Helvetica,sans-Serif" font-size="10.00">Serializable.h</text>
</a>
</g>
</g>
<!-- Node10&#45;&gt;Node25 -->
<g id="edge31_Node000010_Node000025" class="edge">
<title>Node10&#45;&gt;Node25</title>
<g id="a_edge31_Node000010_Node000025"><a xlink:title=" ">
<path fill="none" stroke="#63b8ff" d="M536.72,-497.08C532.4,-490.11 526.21,-480.12 520.79,-471.37"/>
<polygon fill="#63b8ff" stroke="#63b8ff" points="523.78,-469.55 515.54,-462.9 517.83,-473.24 523.78,-469.55"/>
</a>
</g>
</g>
<!-- Node26 -->
<g id="Node000026" class="node">
<title>Node26</title>
<g id="a_Node000026"><a xlink:href="_configurable_8h_source.html" target="_top" xlink:title=" ">
<polygon fill="white" stroke="#666666" points="805.67,-461.25 726.67,-461.25 726.67,-442 805.67,-442 805.67,-461.25"/>
<text text-anchor="middle" x="766.17" y="-447.75" font-family="Helvetica,sans-Serif" font-size="10.00">Configurable.h</text>
</a>
</g>
</g>
<!-- Node10&#45;&gt;Node26 -->
<g id="edge32_Node000010_Node000026" class="edge">
<title>Node10&#45;&gt;Node26</title>
<g id="a_edge32_Node000010_Node000026"><a xlink:title=" ">
<path fill="none" stroke="#63b8ff" d="M580.43,-496.78C618.12,-487.82 675.87,-474.09 716.96,-464.32"/>
<polygon fill="#63b8ff" stroke="#63b8ff" points="717.69,-467.75 726.61,-462.03 716.07,-460.94 717.69,-467.75"/>
</a>
</g>
</g>
<!-- Node31 -->
<g id="Node000031" class="node">
<title>Node31</title>
<g id="a_Node000031"><a xlink:title=" ">
<polygon fill="#e0e0e0" stroke="#999999" points="466.67,-185 423.67,-185 423.67,-165.75 466.67,-165.75 466.67,-185"/>
<text text-anchor="middle" x="445.17" y="-171.5" font-family="Helvetica,sans-Serif" font-size="10.00">vector</text>
</a>
</g>
</g>
<!-- Node10&#45;&gt;Node31 -->
<g id="edge59_Node000010_Node000031" class="edge">
<title>Node10&#45;&gt;Node31</title>
<g id="a_edge59_Node000010_Node000031"><a xlink:title=" ">
<path fill="none" stroke="#63b8ff" d="M494.3,-499.25C384.14,-481.12 113.85,-419.45 5.17,-240.25 0.74,-232.93 -0.56,-227.35 5.17,-221 32.35,-190.92 314.14,-180.1 411.95,-177.23"/>
<polygon fill="#63b8ff" stroke="#63b8ff" points="411.79,-180.74 421.68,-176.96 411.59,-173.74 411.79,-180.74"/>
</a>
</g>
</g>
<!-- Node39 -->
<g id="Node000039" class="node">
<title>Node39</title>
<g id="a_Node000039"><a xlink:href="_suspendable_8h_source.html" target="_top" xlink:title=" ">
<polygon fill="white" stroke="#666666" points="682.42,-461.25 601.92,-461.25 601.92,-442 682.42,-442 682.42,-461.25"/>
<text text-anchor="middle" x="642.17" y="-447.75" font-family="Helvetica,sans-Serif" font-size="10.00">Suspendable.h</text>
</a>
</g>
</g>
<!-- Node10&#45;&gt;Node39 -->
<g id="edge56_Node000010_Node000039" class="edge">
<title>Node10&#45;&gt;Node39</title>
<g id="a_edge56_Node000010_Node000039"><a xlink:title=" ">
<path fill="none" stroke="#63b8ff" d="M559.14,-496.84C574.44,-488.69 597.21,-476.57 615.04,-467.08"/>
<polygon fill="#63b8ff" stroke="#63b8ff" points="616.61,-470.2 623.79,-462.41 613.32,-464.02 616.61,-470.2"/>
</a>
</g>
</g>
<!-- Node11&#45;&gt;Node2 -->
<g id="edge13_Node000011_Node000002" class="edge">
<title>Node11&#45;&gt;Node2</title>
<g id="a_edge13_Node000011_Node000002"><a xlink:title=" ">
<path fill="none" stroke="#63b8ff" d="M1074.56,-275.84C1085.32,-267.99 1101.14,-256.45 1113.93,-247.12"/>
<polygon fill="#63b8ff" stroke="#63b8ff" points="1115.73,-250.14 1121.75,-241.42 1111.61,-244.48 1115.73,-250.14"/>
</a>
</g>
</g>
<!-- Node11&#45;&gt;Node3 -->
<g id="edge11_Node000011_Node000003" class="edge">
<title>Node11&#45;&gt;Node3</title>
<g id="a_edge11_Node000011_Node000003"><a xlink:title=" ">
<path fill="none" stroke="#63b8ff" d="M1059.51,-275.77C1055.87,-263.36 1049.12,-240.47 1043.17,-221 1040.68,-212.85 1037.88,-203.87 1035.44,-196.13"/>
<polygon fill="#63b8ff" stroke="#63b8ff" points="1038.81,-195.18 1032.46,-186.7 1032.13,-197.29 1038.81,-195.18"/>
</a>
</g>
</g>
<!-- Node11&#45;&gt;Node9 -->
<g id="edge12_Node000011_Node000009" class="edge">
<title>Node11&#45;&gt;Node9</title>
<g id="a_edge12_Node000011_Node000009"><a xlink:title=" ">
<path fill="none" stroke="#63b8ff" d="M1017.1,-281.62C985.93,-277.03 945.65,-266.12 920.17,-240.25 908.74,-228.64 904.13,-210.46 902.31,-196.46"/>
<polygon fill="#63b8ff" stroke="#63b8ff" points="905.8,-196.25 901.43,-186.6 898.83,-196.87 905.8,-196.25"/>
</a>
</g>
</g>
<!-- Node13 -->
<g id="Node000013" class="node">
<title>Node13</title>
<g id="a_Node000013"><a xlink:href="_error_8h.html" target="_top" xlink:title=" ">
<polygon fill="white" stroke="#666666" points="785.42,-295.5 740.92,-295.5 740.92,-276.25 785.42,-276.25 785.42,-295.5"/>
<text text-anchor="middle" x="763.17" y="-282" font-family="Helvetica,sans-Serif" font-size="10.00">Error.h</text>
</a>
</g>
</g>
<!-- Node12&#45;&gt;Node13 -->
<g id="edge15_Node000012_Node000013" class="edge">
<title>Node12&#45;&gt;Node13</title>
<g id="a_edge15_Node000012_Node000013"><a xlink:title=" ">
<path fill="none" stroke="#63b8ff" d="M683.46,-331.09C698.08,-322.98 719.8,-310.93 736.88,-301.46"/>
<polygon fill="#63b8ff" stroke="#63b8ff" points="738.44,-304.6 745.48,-296.69 735.04,-298.48 738.44,-304.6"/>
</a>
</g>
</g>
<!-- Node17 -->
<g id="Node000017" class="node">
<title>Node17</title>
<g id="a_Node000017"><a xlink:href="_inspectable_8h_source.html" target="_top" xlink:title=" ">
<polygon fill="white" stroke="#666666" points="611.42,-295.5 536.92,-295.5 536.92,-276.25 611.42,-276.25 611.42,-295.5"/>
<text text-anchor="middle" x="574.17" y="-282" font-family="Helvetica,sans-Serif" font-size="10.00">Inspectable.h</text>
</a>
</g>
</g>
<!-- Node12&#45;&gt;Node17 -->
<g id="edge22_Node000012_Node000017" class="edge">
<title>Node12&#45;&gt;Node17</title>
<g id="a_edge22_Node000012_Node000017"><a xlink:title=" ">
<path fill="none" stroke="#63b8ff" d="M651.4,-331.09C637.23,-322.98 616.19,-310.93 599.65,-301.46"/>
<polygon fill="#63b8ff" stroke="#63b8ff" points="601.76,-298.64 591.34,-296.7 598.28,-304.71 601.76,-298.64"/>
</a>
</g>
</g>
<!-- Node14 -->
<g id="Node000014" class="node">
<title>Node14</title>
<g id="a_Node000014"><a xlink:href="_error_types_8h.html" target="_top" xlink:title=" ">
<polygon fill="white" stroke="#666666" points="1000.92,-240.25 929.42,-240.25 929.42,-221 1000.92,-221 1000.92,-240.25"/>
<text text-anchor="middle" x="965.17" y="-226.75" font-family="Helvetica,sans-Serif" font-size="10.00">ErrorTypes.h</text>
</a>
</g>
</g>
<!-- Node13&#45;&gt;Node14 -->
<g id="edge16_Node000013_Node000014" class="edge">
<title>Node13&#45;&gt;Node14</title>
<g id="a_edge16_Node000013_Node000014"><a xlink:title=" ">
<path fill="none" stroke="#63b8ff" d="M785.56,-278.97C817.84,-270.46 878.14,-254.57 919.91,-243.56"/>
<polygon fill="#63b8ff" stroke="#63b8ff" points="920.66,-246.98 929.44,-241.05 918.88,-240.21 920.66,-246.98"/>
</a>
</g>
</g>
<!-- Node15 -->
<g id="Node000015" class="node">
<title>Node15</title>
<g id="a_Node000015"><a xlink:href="_exception_8h_source.html" target="_top" xlink:title=" ">
<polygon fill="white" stroke="#666666" points="797.05,-240.25 729.3,-240.25 729.3,-221 797.05,-221 797.05,-240.25"/>
<text text-anchor="middle" x="763.17" y="-226.75" font-family="Helvetica,sans-Serif" font-size="10.00">Exception.h</text>
</a>
</g>
</g>
<!-- Node13&#45;&gt;Node15 -->
<g id="edge19_Node000013_Node000015" class="edge">
<title>Node13&#45;&gt;Node15</title>
<g id="a_edge19_Node000013_Node000015"><a xlink:title=" ">
<path fill="none" stroke="#63b8ff" d="M763.17,-276.08C763.17,-269.57 763.17,-260.42 763.17,-252.12"/>
<polygon fill="#63b8ff" stroke="#63b8ff" points="766.67,-252.12 763.17,-242.12 759.67,-252.12 766.67,-252.12"/>
</a>
</g>
</g>
<!-- Node14&#45;&gt;Node3 -->
<g id="edge17_Node000014_Node000003" class="edge">
<title>Node14&#45;&gt;Node3</title>
<g id="a_edge17_Node000014_Node000003"><a xlink:title=" ">
<path fill="none" stroke="#63b8ff" d="M976.03,-220.59C985.28,-212.9 998.8,-201.65 1009.88,-192.43"/>
<polygon fill="#63b8ff" stroke="#63b8ff" points="1011.86,-195.33 1017.31,-186.24 1007.39,-189.95 1011.86,-195.33"/>
</a>
</g>
</g>
<!-- Node14&#45;&gt;Node9 -->
<g id="edge18_Node000014_Node000009" class="edge">
<title>Node14&#45;&gt;Node9</title>
<g id="a_edge18_Node000014_Node000009"><a xlink:title=" ">
<path fill="none" stroke="#63b8ff" d="M954.32,-220.59C945.07,-212.9 931.55,-201.65 920.46,-192.43"/>
<polygon fill="#63b8ff" stroke="#63b8ff" points="922.96,-189.95 913.03,-186.24 918.48,-195.33 922.96,-189.95"/>
</a>
</g>
</g>
<!-- Node15&#45;&gt;Node5 -->
<g id="edge20_Node000015_Node000005" class="edge">
<title>Node15&#45;&gt;Node5</title>
<g id="a_edge20_Node000015_Node000005"><a xlink:title=" ">
<path fill="none" stroke="#63b8ff" d="M761.97,-220.8C759.92,-207.93 754.88,-183.61 744.17,-165.75 723.31,-130.96 687.56,-99.64 664.66,-81.7"/>
<polygon fill="#63b8ff" stroke="#63b8ff" points="666.99,-79.07 656.92,-75.77 662.74,-84.63 666.99,-79.07"/>
</a>
</g>
</g>
<!-- Node16 -->
<g id="Node000016" class="node">
<title>Node16</title>
<g id="a_Node000016"><a xlink:title=" ">
<polygon fill="#e0e0e0" stroke="#999999" points="735.17,-185 677.17,-185 677.17,-165.75 735.17,-165.75 735.17,-185"/>
<text text-anchor="middle" x="706.17" y="-171.5" font-family="Helvetica,sans-Serif" font-size="10.00">exception</text>
</a>
</g>
</g>
<!-- Node15&#45;&gt;Node16 -->
<g id="edge21_Node000015_Node000016" class="edge">
<title>Node15&#45;&gt;Node16</title>
<g id="a_edge21_Node000015_Node000016"><a xlink:title=" ">
<path fill="none" stroke="#63b8ff" d="M753.5,-220.59C745.43,-213.05 733.71,-202.1 723.95,-192.98"/>
<polygon fill="#63b8ff" stroke="#63b8ff" points="726.5,-190.58 716.81,-186.31 721.72,-195.69 726.5,-190.58"/>
</a>
</g>
</g>
<!-- Node18 -->
<g id="Node000018" class="node">
<title>Node18</title>
<g id="a_Node000018"><a xlink:title=" ">
<polygon fill="#e0e0e0" stroke="#999999" points="614.92,-240.25 561.42,-240.25 561.42,-221 614.92,-221 614.92,-240.25"/>
<text text-anchor="middle" x="588.17" y="-226.75" font-family="Helvetica,sans-Serif" font-size="10.00">iostream</text>
</a>
</g>
</g>
<!-- Node17&#45;&gt;Node18 -->
<g id="edge23_Node000017_Node000018" class="edge">
<title>Node17&#45;&gt;Node18</title>
<g id="a_edge23_Node000017_Node000018"><a xlink:title=" ">
<path fill="none" stroke="#63b8ff" d="M576.48,-276.08C578.24,-269.42 580.72,-259.99 582.94,-251.53"/>
<polygon fill="#63b8ff" stroke="#63b8ff" points="586.27,-252.63 585.43,-242.07 579.5,-250.85 586.27,-252.63"/>
</a>
</g>
</g>
<!-- Node19&#45;&gt;Node20 -->
<g id="edge25_Node000019_Node000020" class="edge">
<title>Node19&#45;&gt;Node20</title>
<g id="a_edge25_Node000019_Node000020"><a xlink:title=" ">
<path fill="none" stroke="#63b8ff" d="M449.62,-386.34C438.71,-378.49 422.67,-366.95 409.71,-357.62"/>
<polygon fill="#63b8ff" stroke="#63b8ff" points="411.93,-354.91 401.77,-351.91 407.84,-360.59 411.93,-354.91"/>
</a>
</g>
</g>
<!-- Node20&#45;&gt;Node21 -->
<g id="edge26_Node000020_Node000021" class="edge">
<title>Node20&#45;&gt;Node21</title>
<g id="a_edge26_Node000020_Node000021"><a xlink:title=" ">
<path fill="none" stroke="#63b8ff" d="M427.68,-333.01C471.66,-324.98 545.15,-311.26 617.75,-295.95"/>
<polygon fill="#63b8ff" stroke="#63b8ff" points="618.38,-299.39 627.44,-293.9 616.93,-292.55 618.38,-299.39"/>
</a>
</g>
</g>
<!-- Node23 -->
<g id="Node000023" class="node">
<title>Node23</title>
<g id="a_Node000023"><a xlink:title=" ">
<polygon fill="#e0e0e0" stroke="#999999" points="341.67,-295.5 298.67,-295.5 298.67,-276.25 341.67,-276.25 341.67,-295.5"/>
<text text-anchor="middle" x="320.17" y="-282" font-family="Helvetica,sans-Serif" font-size="10.00">thread</text>
</a>
</g>
</g>
<!-- Node20&#45;&gt;Node23 -->
<g id="edge29_Node000020_Node000023" class="edge">
<title>Node20&#45;&gt;Node23</title>
<g id="a_edge29_Node000020_Node000023"><a xlink:title=" ">
<path fill="none" stroke="#63b8ff" d="M376.64,-331.09C366.71,-323.32 352.16,-311.92 340.32,-302.65"/>
<polygon fill="#63b8ff" stroke="#63b8ff" points="342.76,-300.12 332.73,-296.71 338.45,-305.63 342.76,-300.12"/>
</a>
</g>
</g>
<!-- Node24 -->
<g id="Node000024" class="node">
<title>Node24</title>
<g id="a_Node000024"><a xlink:title=" ">
<polygon fill="#e0e0e0" stroke="#999999" points="280.55,-295.5 239.8,-295.5 239.8,-276.25 280.55,-276.25 280.55,-295.5"/>
<text text-anchor="middle" x="260.17" y="-282" font-family="Helvetica,sans-Serif" font-size="10.00">future</text>
</a>
</g>
</g>
<!-- Node20&#45;&gt;Node24 -->
<g id="edge30_Node000020_Node000024" class="edge">
<title>Node20&#45;&gt;Node24</title>
<g id="a_edge30_Node000020_Node000024"><a xlink:title=" ">
<path fill="none" stroke="#63b8ff" d="M366.46,-331.09C345.77,-322.48 314.41,-309.44 291.11,-299.75"/>
<polygon fill="#63b8ff" stroke="#63b8ff" points="292.7,-296.61 282.12,-296 290.01,-303.08 292.7,-296.61"/>
</a>
</g>
</g>
<!-- Node21&#45;&gt;Node5 -->
<g id="edge27_Node000021_Node000005" class="edge">
<title>Node21&#45;&gt;Node5</title>
<g id="a_edge27_Node000021_Node000005"><a xlink:title=" ">
<path fill="none" stroke="#63b8ff" d="M656.61,-276.02C654.54,-243.76 647.4,-132.01 644.46,-85.96"/>
<polygon fill="#63b8ff" stroke="#63b8ff" points="647.96,-85.87 643.83,-76.11 640.97,-86.31 647.96,-85.87"/>
</a>
</g>
</g>
<!-- Node22 -->
<g id="Node000022" class="node">
<title>Node22</title>
<g id="a_Node000022"><a xlink:title=" ">
<polygon fill="#e0e0e0" stroke="#999999" points="711.17,-240.25 671.17,-240.25 671.17,-221 711.17,-221 711.17,-240.25"/>
<text text-anchor="middle" x="691.17" y="-226.75" font-family="Helvetica,sans-Serif" font-size="10.00">ctime</text>
</a>
</g>
</g>
<!-- Node21&#45;&gt;Node22 -->
<g id="edge28_Node000021_Node000022" class="edge">
<title>Node21&#45;&gt;Node22</title>
<g id="a_edge28_Node000021_Node000022"><a xlink:title=" ">
<path fill="none" stroke="#63b8ff" d="M662.79,-276.08C667.29,-269.03 673.76,-258.9 679.39,-250.08"/>
<polygon fill="#63b8ff" stroke="#63b8ff" points="682.19,-252.2 684.62,-241.88 676.29,-248.43 682.19,-252.2"/>
</a>
</g>
</g>
<!-- Node26&#45;&gt;Node9 -->
<g id="edge36_Node000026_Node000009" class="edge">
<title>Node26&#45;&gt;Node9</title>
<g id="a_edge36_Node000026_Node000009"><a xlink:title=" ">
<path fill="none" stroke="#63b8ff" d="M776.44,-441.68C785.47,-433.29 798.35,-419.98 806.17,-406 820.63,-380.15 825.17,-371.74 825.17,-342.12 825.17,-342.12 825.17,-342.12 825.17,-284.88 825.17,-246.27 857.85,-211.64 880.35,-192.37"/>
<polygon fill="#63b8ff" stroke="#63b8ff" points="882.28,-195.32 887.79,-186.27 877.84,-189.91 882.28,-195.32"/>
</a>
</g>
</g>
<!-- Node27 -->
<g id="Node000027" class="node">
<title>Node27</title>
<g id="a_Node000027"><a xlink:href="_option_types_8h.html" target="_top" xlink:title=" ">
<polygon fill="white" stroke="#666666" points="932.67,-350.75 853.67,-350.75 853.67,-331.5 932.67,-331.5 932.67,-350.75"/>
<text text-anchor="middle" x="893.17" y="-337.25" font-family="Helvetica,sans-Serif" font-size="10.00">OptionTypes.h</text>
</a>
</g>
</g>
<!-- Node26&#45;&gt;Node27 -->
<g id="edge33_Node000026_Node000027" class="edge">
<title>Node26&#45;&gt;Node27</title>
<g id="a_edge33_Node000026_Node000027"><a xlink:title=" ">
<path fill="none" stroke="#63b8ff" d="M784.35,-441.63C799.81,-433.5 822.15,-420.6 839.17,-406 854.98,-392.44 870.03,-374.02 880.2,-360.45"/>
<polygon fill="#63b8ff" stroke="#63b8ff" points="883.01,-362.54 886.08,-352.4 877.36,-358.41 883.01,-362.54"/>
</a>
</g>
</g>
<!-- Node28 -->
<g id="Node000028" class="node">
<title>Node28</title>
<g id="a_Node000028"><a xlink:href="_defaults_8h_source.html" target="_top" xlink:title=" ">
<polygon fill="white" stroke="#666666" points="796.67,-406 735.67,-406 735.67,-386.75 796.67,-386.75 796.67,-406"/>
<text text-anchor="middle" x="766.17" y="-392.5" font-family="Helvetica,sans-Serif" font-size="10.00">Defaults.h</text>
</a>
</g>
</g>
<!-- Node26&#45;&gt;Node28 -->
<g id="edge37_Node000026_Node000028" class="edge">
<title>Node26&#45;&gt;Node28</title>
<g id="a_edge37_Node000026_Node000028"><a xlink:title=" ">
<path fill="none" stroke="#63b8ff" d="M766.17,-441.83C766.17,-435.32 766.17,-426.17 766.17,-417.87"/>
<polygon fill="#63b8ff" stroke="#63b8ff" points="769.67,-417.87 766.17,-407.87 762.67,-417.87 769.67,-417.87"/>
</a>
</g>
</g>
<!-- Node38 -->
<g id="Node000038" class="node">
<title>Node38</title>
<g id="a_Node000038"><a xlink:title=" ">
<polygon fill="#e0e0e0" stroke="#999999" points="718.05,-406 662.3,-406 662.3,-386.75 718.05,-386.75 718.05,-406"/>
<text text-anchor="middle" x="690.17" y="-392.5" font-family="Helvetica,sans-Serif" font-size="10.00">algorithm</text>
</a>
</g>
</g>
<!-- Node26&#45;&gt;Node38 -->
<g id="edge54_Node000026_Node000038" class="edge">
<title>Node26&#45;&gt;Node38</title>
<g id="a_edge54_Node000026_Node000038"><a xlink:title=" ">
<path fill="none" stroke="#63b8ff" d="M753.28,-441.59C742.14,-433.79 725.8,-422.34 712.53,-413.04"/>
<polygon fill="#63b8ff" stroke="#63b8ff" points="714.57,-410.19 704.37,-407.32 710.55,-415.93 714.57,-410.19"/>
</a>
</g>
</g>
<!-- Node27&#45;&gt;Node3 -->
<g id="edge34_Node000027_Node000003" class="edge">
<title>Node27&#45;&gt;Node3</title>
<g id="a_edge34_Node000027_Node000003"><a xlink:title=" ">
<path fill="none" stroke="#63b8ff" d="M908.56,-331.15C933.6,-315.75 983.09,-281.89 1010.17,-240.25 1018.78,-227.02 1023.61,-209.75 1026.24,-196.51"/>
<polygon fill="#63b8ff" stroke="#63b8ff" points="1029.67,-197.24 1027.89,-186.8 1022.77,-196.07 1029.67,-197.24"/>
</a>
</g>
</g>
<!-- Node27&#45;&gt;Node9 -->
<g id="edge35_Node000027_Node000009" class="edge">
<title>Node27&#45;&gt;Node9</title>
<g id="a_edge35_Node000027_Node000009"><a xlink:title=" ">
<path fill="none" stroke="#63b8ff" d="M893.6,-331.32C894.84,-306 898.43,-232.5 900.19,-196.59"/>
<polygon fill="#63b8ff" stroke="#63b8ff" points="903.67,-196.89 900.67,-186.73 896.68,-196.55 903.67,-196.89"/>
</a>
</g>
</g>
<!-- Node28&#45;&gt;Node12 -->
<g id="edge38_Node000028_Node000012" class="edge">
<title>Node28&#45;&gt;Node12</title>
<g id="a_edge38_Node000028_Node000012"><a xlink:title=" ">
<path fill="none" stroke="#63b8ff" d="M749.38,-386.34C734.16,-378.16 711.48,-365.96 693.79,-356.44"/>
<polygon fill="#63b8ff" stroke="#63b8ff" points="695.85,-353.57 685.38,-351.92 692.53,-359.74 695.85,-353.57"/>
</a>
</g>
</g>
<!-- Node28&#45;&gt;Node20 -->
<g id="edge40_Node000028_Node000020" class="edge">
<title>Node28&#45;&gt;Node20</title>
<g id="a_edge40_Node000028_Node000020"><a xlink:title=" ">
<path fill="none" stroke="#63b8ff" d="M735.57,-388.34C732.74,-387.77 729.9,-387.23 727.17,-386.75 625.56,-368.86 505.65,-354.69 439.14,-347.44"/>
<polygon fill="#63b8ff" stroke="#63b8ff" points="439.57,-343.97 429.25,-346.37 438.82,-350.92 439.57,-343.97"/>
</a>
</g>
</g>
<!-- Node28&#45;&gt;Node27 -->
<g id="edge39_Node000028_Node000027" class="edge">
<title>Node28&#45;&gt;Node27</title>
<g id="a_edge39_Node000028_Node000027"><a xlink:title=" ">
<path fill="none" stroke="#63b8ff" d="M787.72,-386.34C807.79,-377.93 837.98,-365.27 860.92,-355.65"/>
<polygon fill="#63b8ff" stroke="#63b8ff" points="862.26,-358.88 870.13,-351.79 859.55,-352.43 862.26,-358.88"/>
</a>
</g>
</g>
<!-- Node29 -->
<g id="Node000029" class="node">
<title>Node29</title>
<g id="a_Node000029"><a xlink:href="_i_o_utils_8h_source.html" target="_top" xlink:title=" ">
<polygon fill="white" stroke="#666666" points="414.67,-295.5 359.67,-295.5 359.67,-276.25 414.67,-276.25 414.67,-295.5"/>
<text text-anchor="middle" x="387.17" y="-282" font-family="Helvetica,sans-Serif" font-size="10.00">IOUtils.h</text>
</a>
</g>
</g>
<!-- Node28&#45;&gt;Node29 -->
<g id="edge41_Node000028_Node000029" class="edge">
<title>Node28&#45;&gt;Node29</title>
<g id="a_edge41_Node000028_Node000029"><a xlink:title=" ">
<path fill="none" stroke="#63b8ff" d="M735.48,-386.59C666.92,-366.96 501.46,-319.59 425.93,-297.97"/>
<polygon fill="#63b8ff" stroke="#63b8ff" points="427.07,-294.66 416.49,-295.27 425.14,-301.39 427.07,-294.66"/>
</a>
</g>
</g>
<!-- Node29&#45;&gt;Node5 -->
<g id="edge42_Node000029_Node000005" class="edge">
<title>Node29&#45;&gt;Node5</title>
<g id="a_edge42_Node000029_Node000005"><a xlink:title=" ">
<path fill="none" stroke="#63b8ff" d="M359.37,-278C356.28,-277.35 353.17,-276.75 350.17,-276.25 273.6,-263.38 -42.81,-282.04 5.17,-221 81.18,-124.3 482.36,-80.4 606.52,-69"/>
<polygon fill="#63b8ff" stroke="#63b8ff" points="606.5,-72.51 616.14,-68.13 605.87,-65.54 606.5,-72.51"/>
</a>
</g>
</g>
<!-- Node29&#45;&gt;Node18 -->
<g id="edge50_Node000029_Node000018" class="edge">
<title>Node29&#45;&gt;Node18</title>
<g id="a_edge50_Node000029_Node000018"><a xlink:title=" ">
<path fill="none" stroke="#63b8ff" d="M415.12,-277.47C450.27,-268.16 510.77,-252.13 550.12,-241.71"/>
<polygon fill="#63b8ff" stroke="#63b8ff" points="550.87,-245.13 559.64,-239.18 549.08,-238.36 550.87,-245.13"/>
</a>
</g>
</g>
<!-- Node30 -->
<g id="Node000030" class="node">
<title>Node30</title>
<g id="a_Node000030"><a xlink:href="_string_utils_8h_source.html" target="_top" xlink:title=" ">
<polygon fill="white" stroke="#666666" points="543.17,-240.25 473.17,-240.25 473.17,-221 543.17,-221 543.17,-240.25"/>
<text text-anchor="middle" x="508.17" y="-226.75" font-family="Helvetica,sans-Serif" font-size="10.00">StringUtils.h</text>
</a>
</g>
</g>
<!-- Node29&#45;&gt;Node30 -->
<g id="edge43_Node000029_Node000030" class="edge">
<title>Node29&#45;&gt;Node30</title>
<g id="a_edge43_Node000029_Node000030"><a xlink:title=" ">
<path fill="none" stroke="#63b8ff" d="M407.7,-275.84C426.73,-267.47 455.32,-254.88 477.14,-245.28"/>
<polygon fill="#63b8ff" stroke="#63b8ff" points="478.42,-248.54 486.16,-241.31 475.6,-242.14 478.42,-248.54"/>
</a>
</g>
</g>
<!-- Node29&#45;&gt;Node31 -->
<g id="edge53_Node000029_Node000031" class="edge">
<title>Node29&#45;&gt;Node31</title>
<g id="a_edge53_Node000029_Node000031"><a xlink:title=" ">
<path fill="none" stroke="#63b8ff" d="M397.17,-275.88C405.97,-267.46 418.53,-254.13 426.17,-240.25 433.79,-226.43 438.68,-209.2 441.59,-196.12"/>
<polygon fill="#63b8ff" stroke="#63b8ff" points="444.97,-197.08 443.5,-186.58 438.11,-195.7 444.97,-197.08"/>
</a>
</g>
</g>
<!-- Node32 -->
<g id="Node000032" class="node">
<title>Node32</title>
<g id="a_Node000032"><a xlink:title=" ">
<polygon fill="#e0e0e0" stroke="#999999" points="57.67,-240.25 14.67,-240.25 14.67,-221 57.67,-221 57.67,-240.25"/>
<text text-anchor="middle" x="36.17" y="-226.75" font-family="Helvetica,sans-Serif" font-size="10.00">fcntl.h</text>
</a>
</g>
</g>
<!-- Node29&#45;&gt;Node32 -->
<g id="edge46_Node000029_Node000032" class="edge">
<title>Node29&#45;&gt;Node32</title>
<g id="a_edge46_Node000029_Node000032"><a xlink:title=" ">
<path fill="none" stroke="#63b8ff" d="M359.36,-278.07C356.27,-277.41 353.16,-276.79 350.17,-276.25 228.49,-254.41 192.8,-265.24 69.08,-240.58"/>
<polygon fill="#63b8ff" stroke="#63b8ff" points="70.01,-237.2 59.51,-238.63 68.62,-244.06 70.01,-237.2"/>
</a>
</g>
</g>
<!-- Node33 -->
<g id="Node000033" class="node">
<title>Node33</title>
<g id="a_Node000033"><a xlink:title=" ">
<polygon fill="#e0e0e0" stroke="#999999" points="136.67,-240.25 75.67,-240.25 75.67,-221 136.67,-221 136.67,-240.25"/>
<text text-anchor="middle" x="106.17" y="-226.75" font-family="Helvetica,sans-Serif" font-size="10.00">filesystem</text>
</a>
</g>
</g>
<!-- Node29&#45;&gt;Node33 -->
<g id="edge47_Node000029_Node000033" class="edge">
<title>Node29&#45;&gt;Node33</title>
<g id="a_edge47_Node000029_Node000033"><a xlink:title=" ">
<path fill="none" stroke="#63b8ff" d="M359.33,-278.21C356.24,-277.52 353.15,-276.86 350.17,-276.25 263.08,-258.47 237.86,-258.23 148.08,-240.75"/>
<polygon fill="#63b8ff" stroke="#63b8ff" points="148.78,-237.32 138.29,-238.82 147.42,-244.19 148.78,-237.32"/>
</a>
</g>
</g>
<!-- Node34 -->
<g id="Node000034" class="node">
<title>Node34</title>
<g id="a_Node000034"><a xlink:title=" ">
<polygon fill="#e0e0e0" stroke="#999999" points="203.67,-240.25 154.67,-240.25 154.67,-221 203.67,-221 203.67,-240.25"/>
<text text-anchor="middle" x="179.17" y="-226.75" font-family="Helvetica,sans-Serif" font-size="10.00">fstream</text>
</a>
</g>
</g>
<!-- Node29&#45;&gt;Node34 -->
<g id="edge48_Node000029_Node000034" class="edge">
<title>Node29&#45;&gt;Node34</title>
<g id="a_edge48_Node000029_Node000034"><a xlink:title=" ">
<path fill="none" stroke="#63b8ff" d="M359.55,-277.8C322.36,-268.28 256.12,-251.32 215.09,-240.82"/>
<polygon fill="#63b8ff" stroke="#63b8ff" points="216,-237.44 205.45,-238.35 214.27,-244.22 216,-237.44"/>
</a>
</g>
</g>
<!-- Node35 -->
<g id="Node000035" class="node">
<title>Node35</title>
<g id="a_Node000035"><a xlink:title=" ">
<polygon fill="#e0e0e0" stroke="#999999" points="270.3,-240.25 222.05,-240.25 222.05,-221 270.3,-221 270.3,-240.25"/>
<text text-anchor="middle" x="246.17" y="-226.75" font-family="Helvetica,sans-Serif" font-size="10.00">istream</text>
</a>
</g>
</g>
<!-- Node29&#45;&gt;Node35 -->
<g id="edge49_Node000029_Node000035" class="edge">
<title>Node29&#45;&gt;Node35</title>
<g id="a_edge49_Node000029_Node000035"><a xlink:title=" ">
<path fill="none" stroke="#63b8ff" d="M363.25,-275.84C340.67,-267.31 306.54,-254.42 280.94,-244.76"/>
<polygon fill="#63b8ff" stroke="#63b8ff" points="282.22,-241.5 271.63,-241.24 279.74,-248.04 282.22,-241.5"/>
</a>
</g>
</g>
<!-- Node36 -->
<g id="Node000036" class="node">
<title>Node36</title>
<g id="a_Node000036"><a xlink:title=" ">
<polygon fill="#e0e0e0" stroke="#999999" points="339.8,-240.25 288.55,-240.25 288.55,-221 339.8,-221 339.8,-240.25"/>
<text text-anchor="middle" x="314.17" y="-226.75" font-family="Helvetica,sans-Serif" font-size="10.00">sstream</text>
</a>
</g>
</g>
<!-- Node29&#45;&gt;Node36 -->
<g id="edge51_Node000029_Node000036" class="edge">
<title>Node29&#45;&gt;Node36</title>
<g id="a_edge51_Node000029_Node000036"><a xlink:title=" ">
<path fill="none" stroke="#63b8ff" d="M374.79,-275.84C364.03,-267.99 348.2,-256.45 335.42,-247.12"/>
<polygon fill="#63b8ff" stroke="#63b8ff" points="337.74,-244.48 327.6,-241.42 333.61,-250.14 337.74,-244.48"/>
</a>
</g>
</g>
<!-- Node37 -->
<g id="Node000037" class="node">
<title>Node37</title>
<g id="a_Node000037"><a xlink:title=" ">
<polygon fill="#e0e0e0" stroke="#999999" points="416.92,-240.25 357.42,-240.25 357.42,-221 416.92,-221 416.92,-240.25"/>
<text text-anchor="middle" x="387.17" y="-226.75" font-family="Helvetica,sans-Serif" font-size="10.00">sys/stat.h</text>
</a>
</g>
</g>
<!-- Node29&#45;&gt;Node37 -->
<g id="edge52_Node000029_Node000037" class="edge">
<title>Node29&#45;&gt;Node37</title>
<g id="a_edge52_Node000029_Node000037"><a xlink:title=" ">
<path fill="none" stroke="#63b8ff" d="M387.17,-276.08C387.17,-269.57 387.17,-260.42 387.17,-252.12"/>
<polygon fill="#63b8ff" stroke="#63b8ff" points="390.67,-252.12 387.17,-242.12 383.67,-252.12 390.67,-252.12"/>
</a>
</g>
</g>
<!-- Node30&#45;&gt;Node5 -->
<g id="edge44_Node000030_Node000005" class="edge">
<title>Node30&#45;&gt;Node5</title>
<g id="a_edge44_Node000030_Node000005"><a xlink:title=" ">
<path fill="none" stroke="#63b8ff" d="M515.43,-220.82C536.86,-194.83 600.12,-118.09 628.78,-83.34"/>
<polygon fill="#63b8ff" stroke="#63b8ff" points="631.26,-85.83 634.92,-75.89 625.85,-81.38 631.26,-85.83"/>
</a>
</g>
</g>
<!-- Node30&#45;&gt;Node31 -->
<g id="edge45_Node000030_Node000031" class="edge">
<title>Node30&#45;&gt;Node31</title>
<g id="a_edge45_Node000030_Node000031"><a xlink:title=" ">
<path fill="none" stroke="#63b8ff" d="M497.49,-220.59C488.47,-212.97 475.34,-201.87 464.49,-192.7"/>
<polygon fill="#63b8ff" stroke="#63b8ff" points="466.76,-190.03 456.86,-186.25 462.24,-195.38 466.76,-190.03"/>
</a>
</g>
</g>
<!-- Node40 -->
<g id="Node000040" class="node">
<title>Node40</title>
<g id="a_Node000040"><a xlink:title=" ">
<polygon fill="#e0e0e0" stroke="#999999" points="644.3,-406 602.05,-406 602.05,-386.75 644.3,-386.75 644.3,-406"/>
<text text-anchor="middle" x="623.17" y="-392.5" font-family="Helvetica,sans-Serif" font-size="10.00">cstdio</text>
</a>
</g>
</g>
<!-- Node39&#45;&gt;Node40 -->
<g id="edge57_Node000039_Node000040" class="edge">
<title>Node39&#45;&gt;Node40</title>
<g id="a_edge57_Node000039_Node000040"><a xlink:title=" ">
<path fill="none" stroke="#63b8ff" d="M639.04,-441.83C636.63,-435.09 633.22,-425.52 630.17,-416.99"/>
<polygon fill="#63b8ff" stroke="#63b8ff" points="633.54,-416.03 626.89,-407.78 626.95,-418.38 633.54,-416.03"/>
</a>
</g>
</g>
<!-- Node41&#45;&gt;Node20 -->
<g id="edge62_Node000041_Node000020" class="edge">
<title>Node41&#45;&gt;Node20</title>
<g id="a_edge62_Node000041_Node000020"><a xlink:title=" ">
<path fill="none" stroke="#63b8ff" d="M250.97,-497.07C273.98,-471.08 341.93,-394.34 372.71,-359.59"/>
<polygon fill="#63b8ff" stroke="#63b8ff" points="375.33,-361.91 379.34,-352.11 370.09,-357.27 375.33,-361.91"/>
</a>
</g>
</g>
</g>
</svg>
