<?xml version="1.0" encoding="UTF-8" standalone="no"?>
<!DOCTYPE svg PUBLIC "-//W3C//DTD SVG 1.1//EN"
 "http://www.w3.org/Graphics/SVG/1.1/DTD/svg11.dtd">
<!-- Generated by graphviz version 10.0.1 (20240210.2158)
 -->
<!-- Title: /Users/hoff/Retro/virtualc64/Emulator/Base/Thread.h Pages: 1 -->
<svg width="214pt" height="371pt"
 viewBox="0.00 0.00 213.88 371.00" xmlns="http://www.w3.org/2000/svg" xmlns:xlink="http://www.w3.org/1999/xlink">
<g id="graph0" class="graph" transform="scale(1 1) rotate(0) translate(4 367)">
<title>/Users/hoff/Retro/virtualc64/Emulator/Base/Thread.h</title>
<!-- Node1 -->
<g id="Node000001" class="node">
<title>Node1</title>
<g id="a_Node000001"><a xlink:title=" ">
<polygon fill="#999999" stroke="#666666" points="191.25,-363 54.5,-363 54.5,-332.5 191.25,-332.5 191.25,-363"/>
<text text-anchor="start" x="62.5" y="-349.5" font-family="Helvetica,sans-Serif" font-size="10.00">/Users/hoff/Retro/virtualc64</text>
<text text-anchor="middle" x="122.88" y="-338.25" font-family="Helvetica,sans-Serif" font-size="10.00">/Emulator/Base/Thread.h</text>
</a>
</g>
</g>
<!-- Node2 -->
<g id="Node000002" class="node">
<title>Node2</title>
<g id="a_Node000002"><a xlink:href="_c64_8h_source.html" target="_top" xlink:title=" ">
<polygon fill="white" stroke="#666666" points="145.75,-296.5 0,-296.5 0,-266 145.75,-266 145.75,-296.5"/>
<text text-anchor="start" x="8" y="-283" font-family="Helvetica,sans-Serif" font-size="10.00">/Users/hoff/Retro/virtualc64</text>
<text text-anchor="middle" x="72.88" y="-271.75" font-family="Helvetica,sans-Serif" font-size="10.00">/Emulator/Components/C64.h</text>
</a>
</g>
</g>
<!-- Node1&#45;&gt;Node2 -->
<g id="edge1_Node000001_Node000002" class="edge">
<title>Node1&#45;&gt;Node2</title>
<g id="a_edge1_Node000001_Node000002"><a xlink:title=" ">
<path fill="none" stroke="#63b8ff" d="M104.52,-323.07C97.7,-314.28 90.18,-304.57 84.18,-296.83"/>
<polygon fill="#63b8ff" stroke="#63b8ff" points="101.71,-325.16 110.6,-330.92 107.24,-320.87 101.71,-325.16"/>
</a>
</g>
</g>
<!-- Node3 -->
<g id="Node000003" class="node">
<title>Node3</title>
<g id="a_Node000003"><a xlink:href="_emulator_8h_source.html" target="_top" xlink:title=" ">
<polygon fill="white" stroke="#666666" points="205.88,-230 39.88,-230 39.88,-199.5 205.88,-199.5 205.88,-230"/>
<text text-anchor="start" x="47.88" y="-216.5" font-family="Helvetica,sans-Serif" font-size="10.00">/Users/hoff/Retro/virtualc64</text>
<text text-anchor="middle" x="122.88" y="-205.25" font-family="Helvetica,sans-Serif" font-size="10.00">/Emulator/Components/Emulator.h</text>
</a>
</g>
</g>
<!-- Node1&#45;&gt;Node3 -->
<g id="edge6_Node000001_Node000003" class="edge">
<title>Node1&#45;&gt;Node3</title>
<g id="a_edge6_Node000001_Node000003"><a xlink:title=" ">
<path fill="none" stroke="#63b8ff" d="M142.03,-322.76C147.25,-314.85 152.19,-305.72 154.88,-296.5 158.67,-283.49 158.67,-279.01 154.88,-266 151.06,-252.89 142.67,-239.94 135.44,-230.47"/>
<polygon fill="#63b8ff" stroke="#63b8ff" points="139.26,-320.62 136.31,-330.79 144.96,-324.68 139.26,-320.62"/>
</a>
</g>
</g>
<!-- Node2&#45;&gt;Node3 -->
<g id="edge2_Node000002_Node000003" class="edge">
<title>Node2&#45;&gt;Node3</title>
<g id="a_edge2_Node000002_Node000003"><a xlink:title=" ">
<path fill="none" stroke="#63b8ff" d="M91.23,-256.57C98.05,-247.78 105.57,-238.07 111.57,-230.33"/>
<polygon fill="#63b8ff" stroke="#63b8ff" points="88.51,-254.37 85.15,-264.42 94.04,-258.66 88.51,-254.37"/>
</a>
</g>
</g>
<!-- Node4 -->
<g id="Node000004" class="node">
<title>Node4</title>
<g id="a_Node000004"><a xlink:href="_virtual_c64_8h.html" target="_top" xlink:title=" ">
<polygon fill="white" stroke="#666666" points="191.25,-163.5 54.5,-163.5 54.5,-133 191.25,-133 191.25,-163.5"/>
<text text-anchor="start" x="62.5" y="-150" font-family="Helvetica,sans-Serif" font-size="10.00">/Users/hoff/Retro/virtualc64</text>
<text text-anchor="middle" x="122.88" y="-138.75" font-family="Helvetica,sans-Serif" font-size="10.00">/Emulator/VirtualC64.h</text>
</a>
</g>
</g>
<!-- Node3&#45;&gt;Node4 -->
<g id="edge3_Node000003_Node000004" class="edge">
<title>Node3&#45;&gt;Node4</title>
<g id="a_edge3_Node000003_Node000004"><a xlink:title=" ">
<path fill="none" stroke="#63b8ff" d="M122.88,-187.81C122.88,-179.64 122.88,-170.91 122.88,-163.83"/>
<polygon fill="#63b8ff" stroke="#63b8ff" points="119.38,-187.6 122.88,-197.6 126.38,-187.6 119.38,-187.6"/>
</a>
</g>
</g>
<!-- Node5 -->
<g id="Node000005" class="node">
<title>Node5</title>
<g id="a_Node000005"><a xlink:href="_headless_8h_source.html" target="_top" xlink:title=" ">
<polygon fill="white" stroke="#666666" points="191.25,-97 54.5,-97 54.5,-66.5 191.25,-66.5 191.25,-97"/>
<text text-anchor="start" x="62.5" y="-83.5" font-family="Helvetica,sans-Serif" font-size="10.00">/Users/hoff/Retro/virtualc64</text>
<text text-anchor="middle" x="122.88" y="-72.25" font-family="Helvetica,sans-Serif" font-size="10.00">/Emulator/Headless.h</text>
</a>
</g>
</g>
<!-- Node4&#45;&gt;Node5 -->
<g id="edge4_Node000004_Node000005" class="edge">
<title>Node4&#45;&gt;Node5</title>
<g id="a_edge4_Node000004_Node000005"><a xlink:title=" ">
<path fill="none" stroke="#63b8ff" d="M122.88,-121.31C122.88,-113.14 122.88,-104.41 122.88,-97.33"/>
<polygon fill="#63b8ff" stroke="#63b8ff" points="119.38,-121.1 122.88,-131.1 126.38,-121.1 119.38,-121.1"/>
</a>
</g>
</g>
<!-- Node6 -->
<g id="Node000006" class="node">
<title>Node6</title>
<g id="a_Node000006"><a xlink:href="_headless_8cpp.html" target="_top" xlink:title=" ">
<polygon fill="white" stroke="#666666" points="191.25,-30.5 54.5,-30.5 54.5,0 191.25,0 191.25,-30.5"/>
<text text-anchor="start" x="62.5" y="-17" font-family="Helvetica,sans-Serif" font-size="10.00">/Users/hoff/Retro/virtualc64</text>
<text text-anchor="middle" x="122.88" y="-5.75" font-family="Helvetica,sans-Serif" font-size="10.00">/Emulator/Headless.cpp</text>
</a>
</g>
</g>
<!-- Node5&#45;&gt;Node6 -->
<g id="edge5_Node000005_Node000006" class="edge">
<title>Node5&#45;&gt;Node6</title>
<g id="a_edge5_Node000005_Node000006"><a xlink:title=" ">
<path fill="none" stroke="#63b8ff" d="M122.88,-54.81C122.88,-46.64 122.88,-37.91 122.88,-30.83"/>
<polygon fill="#63b8ff" stroke="#63b8ff" points="119.38,-54.6 122.88,-64.6 126.38,-54.6 119.38,-54.6"/>
</a>
</g>
</g>
</g>
</svg>
