<?xml version="1.0" encoding="UTF-8" standalone="no"?>
<!DOCTYPE svg PUBLIC "-//W3C//DTD SVG 1.1//EN"
 "http://www.w3.org/Graphics/SVG/1.1/DTD/svg11.dtd">
<!-- Generated by graphviz version 10.0.1 (20240210.2158)
 -->
<!-- Title: /Users/hoff/Retro/virtualc64/Emulator/Utilities/Types.h Pages: 1 -->
<svg width="215pt" height="94pt"
 viewBox="0.00 0.00 215.38 93.75" xmlns="http://www.w3.org/2000/svg" xmlns:xlink="http://www.w3.org/1999/xlink">
<g id="graph0" class="graph" transform="scale(1 1) rotate(0) translate(4 89.75)">
<title>/Users/hoff/Retro/virtualc64/Emulator/Utilities/Types.h</title>
<!-- Node1 -->
<g id="Node000001" class="node">
<title>Node1</title>
<g id="a_Node000001"><a xlink:title=" ">
<polygon fill="#999999" stroke="#666666" points="177.88,-85.75 41.12,-85.75 41.12,-55.25 177.88,-55.25 177.88,-85.75"/>
<text text-anchor="start" x="49.12" y="-72.25" font-family="Helvetica,sans-Serif" font-size="10.00">/Users/hoff/Retro/virtualc64</text>
<text text-anchor="middle" x="109.5" y="-61" font-family="Helvetica,sans-Serif" font-size="10.00">/Emulator/Utilities/Types.h</text>
</a>
</g>
</g>
<!-- Node2 -->
<g id="Node000002" class="node">
<title>Node2</title>
<g id="a_Node000002"><a xlink:title=" ">
<polygon fill="#e0e0e0" stroke="#999999" points="67,-19.25 0,-19.25 0,0 67,0 67,-19.25"/>
<text text-anchor="middle" x="33.5" y="-5.75" font-family="Helvetica,sans-Serif" font-size="10.00">sys/types.h</text>
</a>
</g>
</g>
<!-- Node1&#45;&gt;Node2 -->
<g id="edge1_Node000001_Node000002" class="edge">
<title>Node1&#45;&gt;Node2</title>
<g id="a_edge1_Node000001_Node000002"><a xlink:title=" ">
<path fill="none" stroke="#63b8ff" d="M90.71,-54.95C79.59,-46.33 65.48,-35.4 54.06,-26.55"/>
<polygon fill="#63b8ff" stroke="#63b8ff" points="56.46,-23.99 46.41,-20.63 52.17,-29.52 56.46,-23.99"/>
</a>
</g>
</g>
<!-- Node3 -->
<g id="Node000003" class="node">
<title>Node3</title>
<g id="a_Node000003"><a xlink:title=" ">
<polygon fill="#e0e0e0" stroke="#999999" points="133.62,-19.25 85.38,-19.25 85.38,0 133.62,0 133.62,-19.25"/>
<text text-anchor="middle" x="109.5" y="-5.75" font-family="Helvetica,sans-Serif" font-size="10.00">stdint.h</text>
</a>
</g>
</g>
<!-- Node1&#45;&gt;Node3 -->
<g id="edge2_Node000001_Node000003" class="edge">
<title>Node1&#45;&gt;Node3</title>
<g id="a_edge2_Node000001_Node000003"><a xlink:title=" ">
<path fill="none" stroke="#63b8ff" d="M109.5,-54.95C109.5,-47.71 109.5,-38.84 109.5,-30.94"/>
<polygon fill="#63b8ff" stroke="#63b8ff" points="113,-31.21 109.5,-21.21 106,-31.21 113,-31.21"/>
</a>
</g>
</g>
<!-- Node4 -->
<g id="Node000004" class="node">
<title>Node4</title>
<g id="a_Node000004"><a xlink:title=" ">
<polygon fill="#e0e0e0" stroke="#999999" points="207.38,-19.25 151.62,-19.25 151.62,0 207.38,0 207.38,-19.25"/>
<text text-anchor="middle" x="179.5" y="-5.75" font-family="Helvetica,sans-Serif" font-size="10.00">stdbool.h</text>
</a>
</g>
</g>
<!-- Node1&#45;&gt;Node4 -->
<g id="edge3_Node000001_Node000004" class="edge">
<title>Node1&#45;&gt;Node4</title>
<g id="a_edge3_Node000001_Node000004"><a xlink:title=" ">
<path fill="none" stroke="#63b8ff" d="M126.8,-54.95C136.85,-46.5 149.53,-35.83 159.93,-27.08"/>
<polygon fill="#63b8ff" stroke="#63b8ff" points="162.15,-29.79 167.55,-20.68 157.64,-24.43 162.15,-29.79"/>
</a>
</g>
</g>
</g>
</svg>
