<?xml version="1.0" encoding="UTF-8" standalone="no"?>
<!DOCTYPE svg PUBLIC "-//W3C//DTD SVG 1.1//EN"
 "http://www.w3.org/Graphics/SVG/1.1/DTD/svg11.dtd">
<!-- Generated by graphviz version 10.0.1 (20240210.2158)
 -->
<!-- Title: /Users/hoff/Retro/virtualc64/Emulator/Components/VICII/VICIITypes.h Pages: 1 -->
<svg width="419pt" height="381pt"
 viewBox="0.00 0.00 418.62 381.25" xmlns="http://www.w3.org/2000/svg" xmlns:xlink="http://www.w3.org/1999/xlink">
<g id="graph0" class="graph" transform="scale(1 1) rotate(0) translate(4 377.25)">
<title>/Users/hoff/Retro/virtualc64/Emulator/Components/VICII/VICIITypes.h</title>
<!-- Node1 -->
<g id="Node000001" class="node">
<title>Node1</title>
<g id="a_Node000001"><a xlink:title=" ">
<polygon fill="#999999" stroke="#666666" points="231.12,-373.25 88.37,-373.25 88.37,-331.5 231.12,-331.5 231.12,-373.25"/>
<text text-anchor="start" x="96.37" y="-359.75" font-family="Helvetica,sans-Serif" font-size="10.00">/Users/hoff/Retro/virtualc64</text>
<text text-anchor="start" x="96.37" y="-348.5" font-family="Helvetica,sans-Serif" font-size="10.00">/Emulator/Components/VICII</text>
<text text-anchor="middle" x="159.75" y="-337.25" font-family="Helvetica,sans-Serif" font-size="10.00">/VICIITypes.h</text>
</a>
</g>
</g>
<!-- Node2 -->
<g id="Node000002" class="node">
<title>Node2</title>
<g id="a_Node000002"><a xlink:href="_aliases_8h_source.html" target="_top" xlink:title=" ">
<polygon fill="white" stroke="#666666" points="159,-185 102.5,-185 102.5,-165.75 159,-165.75 159,-185"/>
<text text-anchor="middle" x="130.75" y="-171.5" font-family="Helvetica,sans-Serif" font-size="10.00">Aliases.h</text>
</a>
</g>
</g>
<!-- Node1&#45;&gt;Node2 -->
<g id="edge1_Node000001_Node000002" class="edge">
<title>Node1&#45;&gt;Node2</title>
<g id="a_edge1_Node000001_Node000002"><a xlink:title=" ">
<path fill="none" stroke="#63b8ff" d="M169.24,-331.05C180.15,-304.6 194.64,-257.49 178.75,-221 173.7,-209.42 164.01,-199.49 154.64,-191.96"/>
<polygon fill="#63b8ff" stroke="#63b8ff" points="156.91,-189.29 146.79,-186.16 152.75,-194.92 156.91,-189.29"/>
</a>
</g>
</g>
<!-- Node10 -->
<g id="Node000010" class="node">
<title>Node10</title>
<g id="a_Node000010"><a xlink:href="_reflection_8h_source.html" target="_top" xlink:title=" ">
<polygon fill="white" stroke="#666666" points="79,-185 10.5,-185 10.5,-165.75 79,-165.75 79,-185"/>
<text text-anchor="middle" x="44.75" y="-171.5" font-family="Helvetica,sans-Serif" font-size="10.00">Reflection.h</text>
</a>
</g>
</g>
<!-- Node1&#45;&gt;Node10 -->
<g id="edge9_Node000001_Node000010" class="edge">
<title>Node1&#45;&gt;Node10</title>
<g id="a_edge9_Node000001_Node000010"><a xlink:title=" ">
<path fill="none" stroke="#63b8ff" d="M87.93,-342.81C58.33,-335.35 26.79,-321.42 8.75,-295.5 -13.17,-264.02 12.63,-218.91 30.5,-194.21"/>
<polygon fill="#63b8ff" stroke="#63b8ff" points="33.12,-196.55 36.37,-186.47 27.54,-192.32 33.12,-196.55"/>
</a>
</g>
</g>
<!-- Node12 -->
<g id="Node000012" class="node">
<title>Node12</title>
<g id="a_Node000012"><a xlink:href="_serializable_8h_source.html" target="_top" xlink:title=" ">
<polygon fill="white" stroke="#666666" points="300,-240.25 225.5,-240.25 225.5,-221 300,-221 300,-240.25"/>
<text text-anchor="middle" x="262.75" y="-226.75" font-family="Helvetica,sans-Serif" font-size="10.00">Serializable.h</text>
</a>
</g>
</g>
<!-- Node1&#45;&gt;Node12 -->
<g id="edge12_Node000001_Node000012" class="edge">
<title>Node1&#45;&gt;Node12</title>
<g id="a_edge12_Node000001_Node000012"><a xlink:title=" ">
<path fill="none" stroke="#63b8ff" d="M179.39,-331.02C189.29,-320.57 201.36,-307.54 211.75,-295.5 224.89,-280.26 239.13,-262.3 249.21,-249.31"/>
<polygon fill="#63b8ff" stroke="#63b8ff" points="251.76,-251.73 255.1,-241.67 246.22,-247.45 251.76,-251.73"/>
</a>
</g>
</g>
<!-- Node18 -->
<g id="Node000018" class="node">
<title>Node18</title>
<g id="a_Node000018"><a xlink:href="_bus_types_8h.html" target="_top" xlink:title=" ">
<polygon fill="white" stroke="#666666" points="169.62,-240.25 101.87,-240.25 101.87,-221 169.62,-221 169.62,-240.25"/>
<text text-anchor="middle" x="135.75" y="-226.75" font-family="Helvetica,sans-Serif" font-size="10.00">BusTypes.h</text>
</a>
</g>
</g>
<!-- Node1&#45;&gt;Node18 -->
<g id="edge23_Node000001_Node000018" class="edge">
<title>Node1&#45;&gt;Node18</title>
<g id="a_edge23_Node000001_Node000018"><a xlink:title=" ">
<path fill="none" stroke="#63b8ff" d="M155.67,-331.06C151.25,-308.97 144.21,-273.88 139.8,-251.83"/>
<polygon fill="#63b8ff" stroke="#63b8ff" points="143.23,-251.16 137.83,-242.04 136.37,-252.53 143.23,-251.16"/>
</a>
</g>
</g>
<!-- Node19 -->
<g id="Node000019" class="node">
<title>Node19</title>
<g id="a_Node000019"><a xlink:href="_dma_debugger_types_8h.html" target="_top" xlink:title=" ">
<polygon fill="white" stroke="#666666" points="131.5,-295.5 18,-295.5 18,-276.25 131.5,-276.25 131.5,-295.5"/>
<text text-anchor="middle" x="74.75" y="-282" font-family="Helvetica,sans-Serif" font-size="10.00">DmaDebuggerTypes.h</text>
</a>
</g>
</g>
<!-- Node1&#45;&gt;Node19 -->
<g id="edge26_Node000001_Node000019" class="edge">
<title>Node1&#45;&gt;Node19</title>
<g id="a_edge26_Node000001_Node000019"><a xlink:title=" ">
<path fill="none" stroke="#63b8ff" d="M133.32,-331.32C121.25,-322.17 107.17,-311.48 95.83,-302.88"/>
<polygon fill="#63b8ff" stroke="#63b8ff" points="97.99,-300.12 87.9,-296.86 93.75,-305.69 97.99,-300.12"/>
</a>
</g>
</g>
<!-- Node3 -->
<g id="Node000003" class="node">
<title>Node3</title>
<g id="a_Node000003"><a xlink:href="_macros_8h_source.html" target="_top" xlink:title=" ">
<polygon fill="white" stroke="#666666" points="199,-129.75 142.5,-129.75 142.5,-110.5 199,-110.5 199,-129.75"/>
<text text-anchor="middle" x="170.75" y="-116.25" font-family="Helvetica,sans-Serif" font-size="10.00">Macros.h</text>
</a>
</g>
</g>
<!-- Node2&#45;&gt;Node3 -->
<g id="edge2_Node000002_Node000003" class="edge">
<title>Node2&#45;&gt;Node3</title>
<g id="a_edge2_Node000002_Node000003"><a xlink:title=" ">
<path fill="none" stroke="#63b8ff" d="M137.35,-165.58C142.7,-158.46 150.42,-148.18 157.09,-139.3"/>
<polygon fill="#63b8ff" stroke="#63b8ff" points="159.88,-141.42 163.09,-131.32 154.28,-137.21 159.88,-141.42"/>
</a>
</g>
</g>
<!-- Node4 -->
<g id="Node000004" class="node">
<title>Node4</title>
<g id="a_Node000004"><a xlink:href="_types_8h_source.html" target="_top" xlink:title=" ">
<polygon fill="white" stroke="#666666" points="252,-74.5 201.5,-74.5 201.5,-55.25 252,-55.25 252,-74.5"/>
<text text-anchor="middle" x="226.75" y="-61" font-family="Helvetica,sans-Serif" font-size="10.00">Types.h</text>
</a>
</g>
</g>
<!-- Node3&#45;&gt;Node4 -->
<g id="edge3_Node000003_Node000004" class="edge">
<title>Node3&#45;&gt;Node4</title>
<g id="a_edge3_Node000003_Node000004"><a xlink:title=" ">
<path fill="none" stroke="#63b8ff" d="M180.24,-110.09C188.18,-102.55 199.69,-91.6 209.28,-82.48"/>
<polygon fill="#63b8ff" stroke="#63b8ff" points="211.45,-85.24 216.29,-75.82 206.63,-80.17 211.45,-85.24"/>
</a>
</g>
</g>
<!-- Node5 -->
<g id="Node000005" class="node">
<title>Node5</title>
<g id="a_Node000005"><a xlink:title=" ">
<polygon fill="#e0e0e0" stroke="#999999" points="122.25,-19.25 55.25,-19.25 55.25,0 122.25,0 122.25,-19.25"/>
<text text-anchor="middle" x="88.75" y="-5.75" font-family="Helvetica,sans-Serif" font-size="10.00">sys/types.h</text>
</a>
</g>
</g>
<!-- Node4&#45;&gt;Node5 -->
<g id="edge4_Node000004_Node000005" class="edge">
<title>Node4&#45;&gt;Node5</title>
<g id="a_edge4_Node000004_Node000005"><a xlink:title=" ">
<path fill="none" stroke="#63b8ff" d="M203.34,-54.84C181.23,-46.31 147.83,-33.42 122.78,-23.76"/>
<polygon fill="#63b8ff" stroke="#63b8ff" points="124.27,-20.58 113.68,-20.25 121.75,-27.11 124.27,-20.58"/>
</a>
</g>
</g>
<!-- Node6 -->
<g id="Node000006" class="node">
<title>Node6</title>
<g id="a_Node000006"><a xlink:title=" ">
<polygon fill="#e0e0e0" stroke="#999999" points="188.87,-19.25 140.62,-19.25 140.62,0 188.87,0 188.87,-19.25"/>
<text text-anchor="middle" x="164.75" y="-5.75" font-family="Helvetica,sans-Serif" font-size="10.00">stdint.h</text>
</a>
</g>
</g>
<!-- Node4&#45;&gt;Node6 -->
<g id="edge5_Node000004_Node000006" class="edge">
<title>Node4&#45;&gt;Node6</title>
<g id="a_edge5_Node000004_Node000006"><a xlink:title=" ">
<path fill="none" stroke="#63b8ff" d="M216.23,-54.84C207.36,-47.22 194.43,-36.12 183.76,-26.95"/>
<polygon fill="#63b8ff" stroke="#63b8ff" points="186.12,-24.37 176.26,-20.51 181.56,-29.68 186.12,-24.37"/>
</a>
</g>
</g>
<!-- Node7 -->
<g id="Node000007" class="node">
<title>Node7</title>
<g id="a_Node000007"><a xlink:title=" ">
<polygon fill="#e0e0e0" stroke="#999999" points="246.75,-19.25 206.75,-19.25 206.75,0 246.75,0 246.75,-19.25"/>
<text text-anchor="middle" x="226.75" y="-5.75" font-family="Helvetica,sans-Serif" font-size="10.00">string</text>
</a>
</g>
</g>
<!-- Node4&#45;&gt;Node7 -->
<g id="edge6_Node000004_Node000007" class="edge">
<title>Node4&#45;&gt;Node7</title>
<g id="a_edge6_Node000004_Node000007"><a xlink:title=" ">
<path fill="none" stroke="#63b8ff" d="M226.75,-55.08C226.75,-48.57 226.75,-39.42 226.75,-31.12"/>
<polygon fill="#63b8ff" stroke="#63b8ff" points="230.25,-31.12 226.75,-21.12 223.25,-31.12 230.25,-31.12"/>
</a>
</g>
</g>
<!-- Node8 -->
<g id="Node000008" class="node">
<title>Node8</title>
<g id="a_Node000008"><a xlink:title=" ">
<polygon fill="#e0e0e0" stroke="#999999" points="310.37,-19.25 265.12,-19.25 265.12,0 310.37,0 310.37,-19.25"/>
<text text-anchor="middle" x="287.75" y="-5.75" font-family="Helvetica,sans-Serif" font-size="10.00">cstring</text>
</a>
</g>
</g>
<!-- Node4&#45;&gt;Node8 -->
<g id="edge7_Node000004_Node000008" class="edge">
<title>Node4&#45;&gt;Node8</title>
<g id="a_edge7_Node000004_Node000008"><a xlink:title=" ">
<path fill="none" stroke="#63b8ff" d="M237.09,-54.84C245.82,-47.22 258.54,-36.12 269.04,-26.95"/>
<polygon fill="#63b8ff" stroke="#63b8ff" points="271.18,-29.73 276.41,-20.52 266.57,-24.46 271.18,-29.73"/>
</a>
</g>
</g>
<!-- Node9 -->
<g id="Node000009" class="node">
<title>Node9</title>
<g id="a_Node000009"><a xlink:title=" ">
<polygon fill="#e0e0e0" stroke="#999999" points="378.62,-19.25 328.87,-19.25 328.87,0 378.62,0 378.62,-19.25"/>
<text text-anchor="middle" x="353.75" y="-5.75" font-family="Helvetica,sans-Serif" font-size="10.00">optional</text>
</a>
</g>
</g>
<!-- Node4&#45;&gt;Node9 -->
<g id="edge8_Node000004_Node000009" class="edge">
<title>Node4&#45;&gt;Node9</title>
<g id="a_edge8_Node000004_Node000009"><a xlink:title=" ">
<path fill="none" stroke="#63b8ff" d="M248.29,-54.84C268.36,-46.43 298.55,-33.77 321.49,-24.15"/>
<polygon fill="#63b8ff" stroke="#63b8ff" points="322.83,-27.38 330.7,-20.29 320.12,-20.93 322.83,-27.38"/>
</a>
</g>
</g>
<!-- Node10&#45;&gt;Node4 -->
<g id="edge10_Node000010_Node000004" class="edge">
<title>Node10&#45;&gt;Node4</title>
<g id="a_edge10_Node000010_Node000004"><a xlink:title=" ">
<path fill="none" stroke="#63b8ff" d="M55.83,-165.44C72.26,-152.44 104.29,-127.95 133.75,-110.5 153.36,-98.88 176.46,-87.78 194.73,-79.56"/>
<polygon fill="#63b8ff" stroke="#63b8ff" points="196.03,-82.81 203.76,-75.56 193.2,-76.41 196.03,-82.81"/>
</a>
</g>
</g>
<!-- Node11 -->
<g id="Node000011" class="node">
<title>Node11</title>
<g id="a_Node000011"><a xlink:title=" ">
<polygon fill="#e0e0e0" stroke="#999999" points="62.12,-129.75 27.37,-129.75 27.37,-110.5 62.12,-110.5 62.12,-129.75"/>
<text text-anchor="middle" x="44.75" y="-116.25" font-family="Helvetica,sans-Serif" font-size="10.00">map</text>
</a>
</g>
</g>
<!-- Node10&#45;&gt;Node11 -->
<g id="edge11_Node000010_Node000011" class="edge">
<title>Node10&#45;&gt;Node11</title>
<g id="a_edge11_Node000010_Node000011"><a xlink:title=" ">
<path fill="none" stroke="#63b8ff" d="M44.75,-165.58C44.75,-159.07 44.75,-149.92 44.75,-141.62"/>
<polygon fill="#63b8ff" stroke="#63b8ff" points="48.25,-141.62 44.75,-131.62 41.25,-141.62 48.25,-141.62"/>
</a>
</g>
</g>
<!-- Node12&#45;&gt;Node3 -->
<g id="edge13_Node000012_Node000003" class="edge">
<title>Node12&#45;&gt;Node3</title>
<g id="a_edge13_Node000012_Node000003"><a xlink:title=" ">
<path fill="none" stroke="#63b8ff" d="M248.59,-220.64C236.44,-212.42 219,-199.38 206.75,-185 195.25,-171.51 185.61,-153.8 179.21,-140.45"/>
<polygon fill="#63b8ff" stroke="#63b8ff" points="182.43,-139.07 175.08,-131.44 176.06,-141.98 182.43,-139.07"/>
</a>
</g>
</g>
<!-- Node13 -->
<g id="Node000013" class="node">
<title>Node13</title>
<g id="a_Node000013"><a xlink:href="_mem_utils_8h_source.html" target="_top" xlink:title=" ">
<polygon fill="white" stroke="#666666" points="342.87,-185 276.62,-185 276.62,-165.75 342.87,-165.75 342.87,-185"/>
<text text-anchor="middle" x="309.75" y="-171.5" font-family="Helvetica,sans-Serif" font-size="10.00">MemUtils.h</text>
</a>
</g>
</g>
<!-- Node12&#45;&gt;Node13 -->
<g id="edge14_Node000012_Node000013" class="edge">
<title>Node12&#45;&gt;Node13</title>
<g id="a_edge14_Node000012_Node000013"><a xlink:title=" ">
<path fill="none" stroke="#63b8ff" d="M270.51,-220.83C276.93,-213.55 286.26,-202.98 294.21,-193.98"/>
<polygon fill="#63b8ff" stroke="#63b8ff" points="296.82,-196.31 300.81,-186.49 291.57,-191.68 296.82,-196.31"/>
</a>
</g>
</g>
<!-- Node16 -->
<g id="Node000016" class="node">
<title>Node16</title>
<g id="a_Node000016"><a xlink:href="_buffer_8h_source.html" target="_top" xlink:title=" ">
<polygon fill="white" stroke="#666666" points="410.62,-185 360.87,-185 360.87,-165.75 410.62,-165.75 410.62,-185"/>
<text text-anchor="middle" x="385.75" y="-171.5" font-family="Helvetica,sans-Serif" font-size="10.00">Buffer.h</text>
</a>
</g>
</g>
<!-- Node12&#45;&gt;Node16 -->
<g id="edge19_Node000012_Node000016" class="edge">
<title>Node12&#45;&gt;Node16</title>
<g id="a_edge19_Node000012_Node000016"><a xlink:title=" ">
<path fill="none" stroke="#63b8ff" d="M283.61,-220.59C303.05,-212.18 332.29,-199.52 354.51,-189.9"/>
<polygon fill="#63b8ff" stroke="#63b8ff" points="355.6,-193.24 363.39,-186.05 352.82,-186.81 355.6,-193.24"/>
</a>
</g>
</g>
<!-- Node17 -->
<g id="Node000017" class="node">
<title>Node17</title>
<g id="a_Node000017"><a xlink:title=" ">
<polygon fill="#e0e0e0" stroke="#999999" points="258.25,-185 215.25,-185 215.25,-165.75 258.25,-165.75 258.25,-185"/>
<text text-anchor="middle" x="236.75" y="-171.5" font-family="Helvetica,sans-Serif" font-size="10.00">vector</text>
</a>
</g>
</g>
<!-- Node12&#45;&gt;Node17 -->
<g id="edge22_Node000012_Node000017" class="edge">
<title>Node12&#45;&gt;Node17</title>
<g id="a_edge22_Node000012_Node000017"><a xlink:title=" ">
<path fill="none" stroke="#63b8ff" d="M258.45,-220.83C255.12,-214.01 250.38,-204.31 246.18,-195.7"/>
<polygon fill="#63b8ff" stroke="#63b8ff" points="249.33,-194.17 241.8,-186.72 243.04,-197.24 249.33,-194.17"/>
</a>
</g>
</g>
<!-- Node13&#45;&gt;Node4 -->
<g id="edge15_Node000013_Node000004" class="edge">
<title>Node13&#45;&gt;Node4</title>
<g id="a_edge15_Node000013_Node000004"><a xlink:title=" ">
<path fill="none" stroke="#63b8ff" d="M290.27,-165.3C275.99,-157.71 257.17,-145.56 245.75,-129.75 236.5,-116.96 231.72,-99.66 229.26,-86.29"/>
<polygon fill="#63b8ff" stroke="#63b8ff" points="232.73,-85.82 227.78,-76.45 225.81,-86.86 232.73,-85.82"/>
</a>
</g>
</g>
<!-- Node14 -->
<g id="Node000014" class="node">
<title>Node14</title>
<g id="a_Node000014"><a xlink:href="_checksum_8h_source.html" target="_top" xlink:title=" ">
<polygon fill="white" stroke="#666666" points="372.5,-129.75 301,-129.75 301,-110.5 372.5,-110.5 372.5,-129.75"/>
<text text-anchor="middle" x="336.75" y="-116.25" font-family="Helvetica,sans-Serif" font-size="10.00">Checksum.h</text>
</a>
</g>
</g>
<!-- Node13&#45;&gt;Node14 -->
<g id="edge16_Node000013_Node000014" class="edge">
<title>Node13&#45;&gt;Node14</title>
<g id="a_edge16_Node000013_Node000014"><a xlink:title=" ">
<path fill="none" stroke="#63b8ff" d="M314.2,-165.58C317.7,-158.69 322.69,-148.84 327.09,-140.16"/>
<polygon fill="#63b8ff" stroke="#63b8ff" points="330.1,-141.96 331.51,-131.46 323.86,-138.8 330.1,-141.96"/>
</a>
</g>
</g>
<!-- Node15 -->
<g id="Node000015" class="node">
<title>Node15</title>
<g id="a_Node000015"><a xlink:title=" ">
<polygon fill="#e0e0e0" stroke="#999999" points="283.15,-129.75 254.35,-129.75 254.35,-110.5 283.15,-110.5 283.15,-129.75"/>
<text text-anchor="middle" x="268.75" y="-116.25" font-family="Helvetica,sans-Serif" font-size="10.00">bit</text>
</a>
</g>
</g>
<!-- Node13&#45;&gt;Node15 -->
<g id="edge18_Node000013_Node000015" class="edge">
<title>Node13&#45;&gt;Node15</title>
<g id="a_edge18_Node000013_Node000015"><a xlink:title=" ">
<path fill="none" stroke="#63b8ff" d="M302.97,-165.58C297.43,-158.38 289.4,-147.96 282.52,-139.01"/>
<polygon fill="#63b8ff" stroke="#63b8ff" points="285.46,-137.1 276.59,-131.31 279.91,-141.37 285.46,-137.1"/>
</a>
</g>
</g>
<!-- Node14&#45;&gt;Node4 -->
<g id="edge17_Node000014_Node000004" class="edge">
<title>Node14&#45;&gt;Node4</title>
<g id="a_edge17_Node000014_Node000004"><a xlink:title=" ">
<path fill="none" stroke="#63b8ff" d="M318.09,-110.09C301.02,-101.83 275.5,-89.48 255.77,-79.93"/>
<polygon fill="#63b8ff" stroke="#63b8ff" points="257.38,-76.82 246.86,-75.61 254.33,-83.12 257.38,-76.82"/>
</a>
</g>
</g>
<!-- Node16&#45;&gt;Node4 -->
<g id="edge20_Node000016_Node000004" class="edge">
<title>Node16&#45;&gt;Node4</title>
<g id="a_edge20_Node000016_Node000004"><a xlink:title=" ">
<path fill="none" stroke="#63b8ff" d="M388.11,-165.4C391.09,-151.9 394.41,-126.27 381.75,-110.5 353.59,-75.43 299.75,-66.8 263.54,-65.24"/>
<polygon fill="#63b8ff" stroke="#63b8ff" points="264.05,-61.75 253.97,-64.99 263.87,-68.75 264.05,-61.75"/>
</a>
</g>
</g>
<!-- Node16&#45;&gt;Node14 -->
<g id="edge21_Node000016_Node000014" class="edge">
<title>Node16&#45;&gt;Node14</title>
<g id="a_edge21_Node000016_Node000014"><a xlink:title=" ">
<path fill="none" stroke="#63b8ff" d="M377.65,-165.58C370.89,-158.23 361.02,-147.51 352.68,-138.44"/>
<polygon fill="#63b8ff" stroke="#63b8ff" points="355.38,-136.21 346.04,-131.22 350.23,-140.95 355.38,-136.21"/>
</a>
</g>
</g>
<!-- Node18&#45;&gt;Node2 -->
<g id="edge24_Node000018_Node000002" class="edge">
<title>Node18&#45;&gt;Node2</title>
<g id="a_edge24_Node000018_Node000002"><a xlink:title=" ">
<path fill="none" stroke="#63b8ff" d="M134.92,-220.83C134.3,-214.24 133.43,-204.96 132.64,-196.57"/>
<polygon fill="#63b8ff" stroke="#63b8ff" points="136.15,-196.5 131.73,-186.87 129.18,-197.15 136.15,-196.5"/>
</a>
</g>
</g>
<!-- Node18&#45;&gt;Node10 -->
<g id="edge25_Node000018_Node000010" class="edge">
<title>Node18&#45;&gt;Node10</title>
<g id="a_edge25_Node000018_Node000010"><a xlink:title=" ">
<path fill="none" stroke="#63b8ff" d="M120.31,-220.59C106.58,-212.56 86.25,-200.66 70.13,-191.23"/>
<polygon fill="#63b8ff" stroke="#63b8ff" points="71.96,-188.25 61.56,-186.22 68.43,-194.29 71.96,-188.25"/>
</a>
</g>
</g>
<!-- Node19&#45;&gt;Node2 -->
<g id="edge27_Node000019_Node000002" class="edge">
<title>Node19&#45;&gt;Node2</title>
<g id="a_edge27_Node000019_Node000002"><a xlink:title=" ">
<path fill="none" stroke="#63b8ff" d="M75.98,-276.17C78.05,-263.44 82.98,-239.3 92.75,-221 98.05,-211.06 105.87,-201.38 113.04,-193.58"/>
<polygon fill="#63b8ff" stroke="#63b8ff" points="115.47,-196.1 119.91,-186.48 110.44,-191.23 115.47,-196.1"/>
</a>
</g>
</g>
<!-- Node19&#45;&gt;Node10 -->
<g id="edge28_Node000019_Node000010" class="edge">
<title>Node19&#45;&gt;Node10</title>
<g id="a_edge28_Node000019_Node000010"><a xlink:title=" ">
<path fill="none" stroke="#63b8ff" d="M71.51,-276.06C68.29,-267.11 63.33,-252.83 59.75,-240.25 55.58,-225.62 51.68,-208.88 48.9,-196.21"/>
<polygon fill="#63b8ff" stroke="#63b8ff" points="52.36,-195.65 46.84,-186.6 45.51,-197.11 52.36,-195.65"/>
</a>
</g>
</g>
<!-- Node19&#45;&gt;Node18 -->
<g id="edge29_Node000019_Node000018" class="edge">
<title>Node19&#45;&gt;Node18</title>
<g id="a_edge29_Node000019_Node000018"><a xlink:title=" ">
<path fill="none" stroke="#63b8ff" d="M85.09,-275.84C93.82,-268.22 106.54,-257.12 117.04,-247.95"/>
<polygon fill="#63b8ff" stroke="#63b8ff" points="119.18,-250.73 124.41,-241.52 114.57,-245.46 119.18,-250.73"/>
</a>
</g>
</g>
</g>
</svg>
