<?xml version="1.0" encoding="UTF-8" standalone="no"?>
<!DOCTYPE svg PUBLIC "-//W3C//DTD SVG 1.1//EN"
 "http://www.w3.org/Graphics/SVG/1.1/DTD/svg11.dtd">
<!-- Generated by graphviz version 10.0.1 (20240210.2158)
 -->
<!-- Title: VirtualC64 Pages: 1 -->
<svg width="739pt" height="741pt"
 viewBox="0.00 0.00 739.25 741.26" xmlns="http://www.w3.org/2000/svg" xmlns:xlink="http://www.w3.org/1999/xlink">
<g id="graph0" class="graph" transform="scale(1 1) rotate(0) translate(4 737.26)">
<title>VirtualC64</title>
<!-- Node1 -->
<g id="Node000001" class="node">
<title>Node1</title>
<g id="a_Node000001"><a xlink:title="Main API class.">
<polygon fill="#999999" stroke="#666666" points="731.25,-409.26 669.5,-409.26 669.5,-390.01 731.25,-390.01 731.25,-409.26"/>
<text text-anchor="middle" x="700.38" y="-395.76" font-family="Helvetica,sans-Serif" font-size="10.00">VirtualC64</text>
</a>
</g>
</g>
<!-- Node2 -->
<g id="Node000002" class="node">
<title>Node2</title>
<g id="a_Node000002"><a xlink:title=" ">
<polygon fill="white" stroke="#bfbfbf" points="523.25,-733.26 441.25,-733.26 441.25,-714.01 523.25,-714.01 523.25,-733.26"/>
<text text-anchor="middle" x="482.25" y="-719.76" font-family="Helvetica,sans-Serif" font-size="10.00">vc64::Emulator</text>
</a>
</g>
</g>
<!-- Node2&#45;&gt;Node1 -->
<g id="edge1_Node000001_Node000002" class="edge">
<title>Node2&#45;&gt;Node1</title>
<g id="a_edge1_Node000001_Node000002"><a xlink:title=" ">
<path fill="none" stroke="#8b1a1a" d="M534.6,-730.65C572.05,-732.69 621.34,-728.46 651.5,-698.64 693.65,-656.96 698.69,-456.71 699.29,-409.58"/>
<polygon fill="#8b1a1a" stroke="#8b1a1a" points="535.13,-727.18 524.9,-729.95 534.62,-734.16 535.13,-727.18"/>
</a>
</g>
</g>
<!-- Node3 -->
<g id="Node000003" class="node">
<title>Node3</title>
<g id="a_Node000003"><a xlink:href="struct_virtual_c64_1_1_c64___a_p_i.html" target="_top" xlink:title=" ">
<polygon fill="white" stroke="#bfbfbf" points="359.12,-699.26 251.62,-699.26 251.62,-680.01 359.12,-680.01 359.12,-699.26"/>
<text text-anchor="middle" x="305.38" y="-685.76" font-family="Helvetica,sans-Serif" font-size="10.00">VirtualC64::C64_API</text>
</a>
</g>
</g>
<!-- Node3&#45;&gt;Node1 -->
<g id="edge2_Node000001_Node000003" class="edge">
<title>Node3&#45;&gt;Node1</title>
<g id="a_edge2_Node000001_Node000003"><a xlink:title=" ">
<path fill="none" stroke="#9a32cd" stroke-dasharray="5,2" d="M370.63,-691.74C459.06,-693.21 611.86,-690.14 651.5,-653.64 688.31,-619.74 697.32,-452.16 699.03,-409.52"/>
<polygon fill="#9a32cd" stroke="#9a32cd" points="370.97,-688.25 360.9,-691.55 370.84,-695.24 370.97,-688.25"/>
</a>
</g>
<text text-anchor="middle" x="482.25" y="-693.39" font-family="Helvetica,sans-Serif" font-size="10.00" fill="grey"> c64</text>
</g>
<!-- Node4 -->
<g id="Node000004" class="node">
<title>Node4</title>
<g id="a_Node000004"><a xlink:title=" ">
<polygon fill="white" stroke="#bfbfbf" points="32.5,-363.26 0,-363.26 0,-344.01 32.5,-344.01 32.5,-363.26"/>
<text text-anchor="middle" x="16.25" y="-349.76" font-family="Helvetica,sans-Serif" font-size="10.00">API</text>
</a>
</g>
</g>
<!-- Node4&#45;&gt;Node3 -->
<g id="edge3_Node000003_Node000004" class="edge">
<title>Node4&#45;&gt;Node3</title>
<g id="a_edge3_Node000003_Node000004"><a xlink:title=" ">
<path fill="none" stroke="#63b8ff" d="M17.93,-375.03C20.32,-442.89 29.28,-650.04 50.5,-670.64 108.38,-726.82 212.76,-712.55 267.92,-699.73"/>
<polygon fill="#63b8ff" stroke="#63b8ff" points="21.44,-375.12 17.61,-365.25 14.44,-375.36 21.44,-375.12"/>
</a>
</g>
</g>
<!-- Node5 -->
<g id="Node000005" class="node">
<title>Node5</title>
<g id="a_Node000005"><a xlink:href="struct_virtual_c64_1_1_m_e_m___a_p_i.html" target="_top" xlink:title=" ">
<polygon fill="white" stroke="#bfbfbf" points="538.62,-648.26 425.88,-648.26 425.88,-629.01 538.62,-629.01 538.62,-648.26"/>
<text text-anchor="middle" x="482.25" y="-634.76" font-family="Helvetica,sans-Serif" font-size="10.00">VirtualC64::MEM_API</text>
</a>
</g>
</g>
<!-- Node4&#45;&gt;Node5 -->
<g id="edge5_Node000005_Node000004" class="edge">
<title>Node4&#45;&gt;Node5</title>
<g id="a_edge5_Node000005_Node000004"><a xlink:title=" ">
<path fill="none" stroke="#63b8ff" d="M17.56,-374.86C18.97,-433.98 26.74,-597.86 69.5,-623.64 188.96,-695.64 365.34,-666.65 442.61,-648.75"/>
<polygon fill="#63b8ff" stroke="#63b8ff" points="21.07,-375.08 17.37,-365.15 14.07,-375.22 21.07,-375.08"/>
</a>
</g>
</g>
<!-- Node6 -->
<g id="Node000006" class="node">
<title>Node6</title>
<g id="a_Node000006"><a xlink:href="struct_virtual_c64_1_1_c_p_u___a_p_i.html" target="_top" xlink:title=" ">
<polygon fill="white" stroke="#bfbfbf" points="537.88,-611.26 426.62,-611.26 426.62,-592.01 537.88,-592.01 537.88,-611.26"/>
<text text-anchor="middle" x="482.25" y="-597.76" font-family="Helvetica,sans-Serif" font-size="10.00">VirtualC64::CPU_API</text>
</a>
</g>
</g>
<!-- Node4&#45;&gt;Node6 -->
<g id="edge7_Node000006_Node000004" class="edge">
<title>Node4&#45;&gt;Node6</title>
<g id="a_edge7_Node000006_Node000004"><a xlink:title=" ">
<path fill="none" stroke="#63b8ff" d="M17.93,-374.89C20.26,-430.51 30.1,-577.57 69.5,-599.64 128.98,-632.96 328.43,-617.73 426.23,-607.81"/>
<polygon fill="#63b8ff" stroke="#63b8ff" points="21.44,-375.04 17.57,-365.17 14.44,-375.3 21.44,-375.04"/>
</a>
</g>
</g>
<!-- Node7 -->
<g id="Node000007" class="node">
<title>Node7</title>
<g id="a_Node000007"><a xlink:href="struct_virtual_c64_1_1_g_u_a_r_d___a_p_i.html" target="_top" xlink:title=" ">
<polygon fill="white" stroke="#bfbfbf" points="205.88,-590.26 79.62,-590.26 79.62,-571.01 205.88,-571.01 205.88,-590.26"/>
<text text-anchor="middle" x="142.75" y="-576.76" font-family="Helvetica,sans-Serif" font-size="10.00">VirtualC64::GUARD_API</text>
</a>
</g>
</g>
<!-- Node4&#45;&gt;Node7 -->
<g id="edge9_Node000007_Node000004" class="edge">
<title>Node4&#45;&gt;Node7</title>
<g id="a_edge9_Node000007_Node000004"><a xlink:title=" ">
<path fill="none" stroke="#63b8ff" d="M17.89,-374.93C19.71,-421.48 26.51,-530.25 50.5,-556.64 58.21,-565.12 68.53,-570.76 79.45,-574.47"/>
<polygon fill="#63b8ff" stroke="#63b8ff" points="21.39,-374.96 17.54,-365.08 14.39,-375.2 21.39,-374.96"/>
</a>
</g>
</g>
<!-- Node8 -->
<g id="Node000008" class="node">
<title>Node8</title>
<g id="a_Node000008"><a xlink:href="struct_virtual_c64_1_1_c_i_a___a_p_i.html" target="_top" xlink:title=" ">
<polygon fill="white" stroke="#bfbfbf" points="358.75,-555.26 252,-555.26 252,-536.01 358.75,-536.01 358.75,-555.26"/>
<text text-anchor="middle" x="305.38" y="-541.76" font-family="Helvetica,sans-Serif" font-size="10.00">VirtualC64::CIA_API</text>
</a>
</g>
</g>
<!-- Node4&#45;&gt;Node8 -->
<g id="edge11_Node000008_Node000004" class="edge">
<title>Node4&#45;&gt;Node8</title>
<g id="a_edge11_Node000008_Node000004"><a xlink:title=" ">
<path fill="none" stroke="#63b8ff" d="M18.47,-374.62C21.26,-414.63 29.55,-499.55 50.5,-518.64 106.2,-569.39 199.88,-564.64 256.53,-555.72"/>
<polygon fill="#63b8ff" stroke="#63b8ff" points="21.98,-374.62 17.85,-364.86 14.99,-375.06 21.98,-374.62"/>
</a>
</g>
</g>
<!-- Node9 -->
<g id="Node000009" class="node">
<title>Node9</title>
<g id="a_Node000009"><a xlink:href="struct_virtual_c64_1_1_v_i_c_i_i___a_p_i.html" target="_top" xlink:title=" ">
<polygon fill="white" stroke="#bfbfbf" points="538.62,-515.26 425.88,-515.26 425.88,-496.01 538.62,-496.01 538.62,-515.26"/>
<text text-anchor="middle" x="482.25" y="-501.76" font-family="Helvetica,sans-Serif" font-size="10.00">VirtualC64::VICII_API</text>
</a>
</g>
</g>
<!-- Node4&#45;&gt;Node9 -->
<g id="edge13_Node000009_Node000004" class="edge">
<title>Node4&#45;&gt;Node9</title>
<g id="a_edge13_Node000009_Node000004"><a xlink:title=" ">
<path fill="none" stroke="#63b8ff" d="M18.2,-374.87C20.91,-405.65 31.15,-461.2 69.5,-481.64 129.61,-513.67 327.79,-511.35 425.62,-508.04"/>
<polygon fill="#63b8ff" stroke="#63b8ff" points="21.72,-374.97 17.56,-365.23 14.73,-375.44 21.72,-374.97"/>
</a>
</g>
</g>
<!-- Node10 -->
<g id="Node000010" class="node">
<title>Node10</title>
<g id="a_Node000010"><a xlink:href="struct_virtual_c64_1_1_s_i_d___a_p_i.html" target="_top" xlink:title=" ">
<polygon fill="white" stroke="#bfbfbf" points="358.75,-476.26 252,-476.26 252,-457.01 358.75,-457.01 358.75,-476.26"/>
<text text-anchor="middle" x="305.38" y="-462.76" font-family="Helvetica,sans-Serif" font-size="10.00">VirtualC64::SID_API</text>
</a>
</g>
</g>
<!-- Node4&#45;&gt;Node10 -->
<g id="edge15_Node000010_Node000004" class="edge">
<title>Node4&#45;&gt;Node10</title>
<g id="a_edge15_Node000010_Node000004"><a xlink:title=" ">
<path fill="none" stroke="#63b8ff" d="M18.9,-374.8C21.74,-395.61 29.47,-426.53 50.5,-442.64 108.05,-486.73 195.85,-484.23 251.65,-476.71"/>
<polygon fill="#63b8ff" stroke="#63b8ff" points="22.41,-374.71 17.87,-365.14 15.45,-375.46 22.41,-374.71"/>
</a>
</g>
</g>
<!-- Node11 -->
<g id="Node000011" class="node">
<title>Node11</title>
<g id="a_Node000011"><a xlink:href="struct_virtual_c64_1_1_d_m_a___d_e_b_u_g_g_e_r___a_p_i.html" target="_top" xlink:title=" ">
<polygon fill="white" stroke="#bfbfbf" points="569.75,-430.26 394.75,-430.26 394.75,-411.01 569.75,-411.01 569.75,-430.26"/>
<text text-anchor="middle" x="482.25" y="-416.76" font-family="Helvetica,sans-Serif" font-size="10.00">VirtualC64::DMA_DEBUGGER_API</text>
</a>
</g>
</g>
<!-- Node4&#45;&gt;Node11 -->
<g id="edge17_Node000011_Node000004" class="edge">
<title>Node4&#45;&gt;Node11</title>
<g id="a_edge17_Node000011_Node000004"><a xlink:title=" ">
<path fill="none" stroke="#63b8ff" d="M29.17,-372.87C38.4,-385.85 52.47,-401.96 69.5,-409.64 191.09,-464.43 354.05,-445.22 433.57,-430.76"/>
<polygon fill="#63b8ff" stroke="#63b8ff" points="32.13,-371 23.67,-364.62 26.3,-374.88 32.13,-371"/>
</a>
</g>
</g>
<!-- Node12 -->
<g id="Node000012" class="node">
<title>Node12</title>
<g id="a_Node000012"><a xlink:href="struct_virtual_c64_1_1_k_b_d___a_p_i.html" target="_top" xlink:title=" ">
<polygon fill="white" stroke="#bfbfbf" points="198,-400.26 87.5,-400.26 87.5,-381.01 198,-381.01 198,-400.26"/>
<text text-anchor="middle" x="142.75" y="-386.76" font-family="Helvetica,sans-Serif" font-size="10.00">VirtualC64::KBD_API</text>
</a>
</g>
</g>
<!-- Node4&#45;&gt;Node12 -->
<g id="edge19_Node000012_Node000004" class="edge">
<title>Node4&#45;&gt;Node12</title>
<g id="a_edge19_Node000012_Node000004"><a xlink:title=" ">
<path fill="none" stroke="#63b8ff" d="M43.57,-365.12C45.9,-366.01 48.23,-366.86 50.5,-367.64 65.04,-372.58 81.2,-377 95.84,-380.6"/>
<polygon fill="#63b8ff" stroke="#63b8ff" points="44.95,-361.9 34.37,-361.37 42.31,-368.38 44.95,-361.9"/>
</a>
</g>
</g>
<!-- Node13 -->
<g id="Node000013" class="node">
<title>Node13</title>
<g id="a_Node000013"><a xlink:href="struct_virtual_c64_1_1_d_a_t_a_s_e_t_t_e___a_p_i.html" target="_top" xlink:title=" ">
<polygon fill="white" stroke="#bfbfbf" points="216,-363.26 69.5,-363.26 69.5,-344.01 216,-344.01 216,-363.26"/>
<text text-anchor="middle" x="142.75" y="-349.76" font-family="Helvetica,sans-Serif" font-size="10.00">VirtualC64::DATASETTE_API</text>
</a>
</g>
</g>
<!-- Node4&#45;&gt;Node13 -->
<g id="edge21_Node000013_Node000004" class="edge">
<title>Node4&#45;&gt;Node13</title>
<g id="a_edge21_Node000013_Node000004"><a xlink:title=" ">
<path fill="none" stroke="#63b8ff" d="M44.04,-353.64C51.62,-353.64 60.25,-353.64 69.17,-353.64"/>
<polygon fill="#63b8ff" stroke="#63b8ff" points="44.28,-350.14 34.28,-353.64 44.28,-357.14 44.28,-350.14"/>
</a>
</g>
</g>
<!-- Node14 -->
<g id="Node000014" class="node">
<title>Node14</title>
<g id="a_Node000014"><a xlink:href="struct_virtual_c64_1_1_c_p___a_p_i.html" target="_top" xlink:title=" ">
<polygon fill="white" stroke="#bfbfbf" points="534.12,-297.26 430.38,-297.26 430.38,-278.01 534.12,-278.01 534.12,-297.26"/>
<text text-anchor="middle" x="482.25" y="-283.76" font-family="Helvetica,sans-Serif" font-size="10.00">VirtualC64::CP_API</text>
</a>
</g>
</g>
<!-- Node4&#45;&gt;Node14 -->
<g id="edge23_Node000014_Node000004" class="edge">
<title>Node4&#45;&gt;Node14</title>
<g id="a_edge23_Node000014_Node000004"><a xlink:title=" ">
<path fill="none" stroke="#63b8ff" d="M43.43,-342.75C51.65,-339.71 60.84,-336.67 69.5,-334.64 86.83,-330.56 323.67,-304.67 430.09,-293.15"/>
<polygon fill="#63b8ff" stroke="#63b8ff" points="42.42,-339.39 34.37,-346.28 44.96,-345.91 42.42,-339.39"/>
</a>
</g>
</g>
<!-- Node15 -->
<g id="Node000015" class="node">
<title>Node15</title>
<g id="a_Node000015"><a xlink:href="struct_virtual_c64_1_1_j_o_y_s_t_i_c_k___a_p_i.html" target="_top" xlink:title=" ">
<polygon fill="white" stroke="#bfbfbf" points="212.25,-287.26 73.25,-287.26 73.25,-268.01 212.25,-268.01 212.25,-287.26"/>
<text text-anchor="middle" x="142.75" y="-273.76" font-family="Helvetica,sans-Serif" font-size="10.00">VirtualC64::JOYSTICK_API</text>
</a>
</g>
</g>
<!-- Node4&#45;&gt;Node15 -->
<g id="edge25_Node000015_Node000004" class="edge">
<title>Node4&#45;&gt;Node15</title>
<g id="a_edge25_Node000015_Node000004"><a xlink:title=" ">
<path fill="none" stroke="#63b8ff" d="M25.8,-333.22C31.34,-322.34 39.57,-309.6 50.5,-301.64 58.84,-295.56 68.6,-291.02 78.58,-287.63"/>
<polygon fill="#63b8ff" stroke="#63b8ff" points="22.65,-331.69 21.64,-342.23 29.01,-334.62 22.65,-331.69"/>
</a>
</g>
</g>
<!-- Node16 -->
<g id="Node000016" class="node">
<title>Node16</title>
<g id="a_Node000016"><a xlink:href="struct_virtual_c64_1_1_m_o_u_s_e___a_p_i.html" target="_top" xlink:title=" ">
<polygon fill="white" stroke="#bfbfbf" points="205.88,-250.26 79.62,-250.26 79.62,-231.01 205.88,-231.01 205.88,-250.26"/>
<text text-anchor="middle" x="142.75" y="-236.76" font-family="Helvetica,sans-Serif" font-size="10.00">VirtualC64::MOUSE_API</text>
</a>
</g>
</g>
<!-- Node4&#45;&gt;Node16 -->
<g id="edge27_Node000016_Node000004" class="edge">
<title>Node4&#45;&gt;Node16</title>
<g id="a_edge27_Node000016_Node000004"><a xlink:title=" ">
<path fill="none" stroke="#63b8ff" d="M23.21,-332.82C30.53,-311.03 45.09,-277.43 69.5,-258.64 73.6,-255.48 78.18,-252.87 82.99,-250.72"/>
<polygon fill="#63b8ff" stroke="#63b8ff" points="19.95,-331.51 20.32,-342.09 26.63,-333.59 19.95,-331.51"/>
</a>
</g>
</g>
<!-- Node17 -->
<g id="Node000017" class="node">
<title>Node17</title>
<g id="a_Node000017"><a xlink:href="struct_virtual_c64_1_1_r_e_c___a_p_i.html" target="_top" xlink:title=" ">
<polygon fill="white" stroke="#bfbfbf" points="361,-216.26 249.75,-216.26 249.75,-197.01 361,-197.01 361,-216.26"/>
<text text-anchor="middle" x="305.38" y="-202.76" font-family="Helvetica,sans-Serif" font-size="10.00">VirtualC64::REC_API</text>
</a>
</g>
</g>
<!-- Node4&#45;&gt;Node17 -->
<g id="edge29_Node000017_Node000004" class="edge">
<title>Node4&#45;&gt;Node17</title>
<g id="a_edge29_Node000017_Node000004"><a xlink:title=" ">
<path fill="none" stroke="#63b8ff" d="M18.88,-332.23C22.44,-302.01 33.75,-247.64 69.5,-221.64 97.17,-201.51 189.19,-201.3 249.49,-203.56"/>
<polygon fill="#63b8ff" stroke="#63b8ff" points="15.41,-331.75 17.93,-342.04 22.38,-332.43 15.41,-331.75"/>
</a>
</g>
</g>
<!-- Node18 -->
<g id="Node000018" class="node">
<title>Node18</title>
<g id="a_Node000018"><a xlink:href="struct_virtual_c64_1_1_e_x_p___p_o_r_t___a_p_i.html" target="_top" xlink:title=" ">
<polygon fill="white" stroke="#bfbfbf" points="376.75,-185.26 234,-185.26 234,-166.01 376.75,-166.01 376.75,-185.26"/>
<text text-anchor="middle" x="305.38" y="-171.76" font-family="Helvetica,sans-Serif" font-size="10.00">VirtualC64::EXP_PORT_API</text>
</a>
</g>
</g>
<!-- Node4&#45;&gt;Node18 -->
<g id="edge31_Node000018_Node000004" class="edge">
<title>Node4&#45;&gt;Node18</title>
<g id="a_edge31_Node000018_Node000004"><a xlink:title=" ">
<path fill="none" stroke="#63b8ff" d="M16.99,-332.34C17.86,-297.16 25.42,-227.81 69.5,-197.64 118.42,-164.15 187.11,-161.5 237.57,-165.52"/>
<polygon fill="#63b8ff" stroke="#63b8ff" points="13.49,-332.08 16.92,-342.1 20.49,-332.13 13.49,-332.08"/>
</a>
</g>
</g>
<!-- Node19 -->
<g id="Node000019" class="node">
<title>Node19</title>
<g id="a_Node000019"><a xlink:href="struct_virtual_c64_1_1_i_e_c___a_p_i.html" target="_top" xlink:title=" ">
<polygon fill="white" stroke="#bfbfbf" points="358.75,-141.26 252,-141.26 252,-122.01 358.75,-122.01 358.75,-141.26"/>
<text text-anchor="middle" x="305.38" y="-127.76" font-family="Helvetica,sans-Serif" font-size="10.00">VirtualC64::IEC_API</text>
</a>
</g>
</g>
<!-- Node4&#45;&gt;Node19 -->
<g id="edge33_Node000019_Node000004" class="edge">
<title>Node4&#45;&gt;Node19</title>
<g id="a_edge33_Node000019_Node000004"><a xlink:title=" ">
<path fill="none" stroke="#63b8ff" d="M19.78,-332.43C25.7,-286.66 42.11,-181.03 69.5,-159.64 121.28,-119.19 200.08,-118.36 251.9,-123.43"/>
<polygon fill="#63b8ff" stroke="#63b8ff" points="16.33,-331.77 18.57,-342.13 23.28,-332.64 16.33,-331.77"/>
</a>
</g>
</g>
<!-- Node20 -->
<g id="Node000020" class="node">
<title>Node20</title>
<g id="a_Node000020"><a xlink:href="struct_virtual_c64_1_1_d_r_i_v_e___a_p_i.html" target="_top" xlink:title=" ">
<polygon fill="white" stroke="#bfbfbf" points="542.75,-98.26 421.75,-98.26 421.75,-79.01 542.75,-79.01 542.75,-98.26"/>
<text text-anchor="middle" x="482.25" y="-84.76" font-family="Helvetica,sans-Serif" font-size="10.00">VirtualC64::DRIVE_API</text>
</a>
</g>
</g>
<!-- Node4&#45;&gt;Node20 -->
<g id="edge35_Node000020_Node000004" class="edge">
<title>Node4&#45;&gt;Node20</title>
<g id="a_edge35_Node000020_Node000004"><a xlink:title=" ">
<path fill="none" stroke="#63b8ff" d="M18.66,-332.49C22.66,-279.62 36.04,-143.97 69.5,-116.64 121.8,-73.91 320.32,-78.93 421.38,-84.54"/>
<polygon fill="#63b8ff" stroke="#63b8ff" points="15.18,-332.04 17.96,-342.26 22.16,-332.54 15.18,-332.04"/>
</a>
</g>
</g>
<!-- Node21 -->
<g id="Node000021" class="node">
<title>Node21</title>
<g id="a_Node000021"><a xlink:href="struct_virtual_c64_1_1_d_i_s_k___a_p_i.html" target="_top" xlink:title=" ">
<polygon fill="white" stroke="#bfbfbf" points="199.5,-60.26 86,-60.26 86,-41.01 199.5,-41.01 199.5,-60.26"/>
<text text-anchor="middle" x="142.75" y="-46.76" font-family="Helvetica,sans-Serif" font-size="10.00">VirtualC64::DISK_API</text>
</a>
</g>
</g>
<!-- Node4&#45;&gt;Node21 -->
<g id="edge37_Node000021_Node000004" class="edge">
<title>Node4&#45;&gt;Node21</title>
<g id="a_edge37_Node000021_Node000004"><a xlink:title=" ">
<path fill="none" stroke="#63b8ff" d="M16.81,-332.14C16.06,-273.56 17.16,-112.95 50.5,-74.64 59.53,-64.26 72.46,-58.1 85.76,-54.52"/>
<polygon fill="#63b8ff" stroke="#63b8ff" points="13.31,-332.13 16.97,-342.07 20.31,-332.01 13.31,-332.13"/>
</a>
</g>
</g>
<!-- Node22 -->
<g id="Node000022" class="node">
<title>Node22</title>
<g id="a_Node000022"><a xlink:href="struct_virtual_c64_1_1_r_s_h_e_l_l___a_p_i.html" target="_top" xlink:title=" ">
<polygon fill="white" stroke="#bfbfbf" points="369.62,-24.26 241.12,-24.26 241.12,-5.01 369.62,-5.01 369.62,-24.26"/>
<text text-anchor="middle" x="305.38" y="-10.76" font-family="Helvetica,sans-Serif" font-size="10.00">VirtualC64::RSHELL_API</text>
</a>
</g>
</g>
<!-- Node4&#45;&gt;Node22 -->
<g id="edge39_Node000022_Node000004" class="edge">
<title>Node4&#45;&gt;Node22</title>
<g id="a_edge39_Node000022_Node000004"><a xlink:title=" ">
<path fill="none" stroke="#63b8ff" d="M16.95,-332.12C16.55,-265.55 19.59,-65.41 69.5,-31.64 123.68,5.02 201.88,2.5 252.92,-4.55"/>
<polygon fill="#63b8ff" stroke="#63b8ff" points="13.45,-332.08 17.05,-342.05 20.45,-332.02 13.45,-332.08"/>
</a>
</g>
</g>
<!-- Node5&#45;&gt;Node1 -->
<g id="edge4_Node000001_Node000005" class="edge">
<title>Node5&#45;&gt;Node1</title>
<g id="a_edge4_Node000001_Node000005"><a xlink:title=" ">
<path fill="none" stroke="#9a32cd" stroke-dasharray="5,2" d="M550.4,-644.07C584.78,-643.14 624.89,-635.74 651.5,-610.64 681.49,-582.35 695.25,-447.45 698.56,-409.56"/>
<polygon fill="#9a32cd" stroke="#9a32cd" points="550.48,-640.57 540.5,-644.14 550.53,-647.57 550.48,-640.57"/>
</a>
</g>
<text text-anchor="middle" x="619.62" y="-640.39" font-family="Helvetica,sans-Serif" font-size="10.00" fill="grey"> mem</text>
</g>
<!-- Node6&#45;&gt;Node1 -->
<g id="edge6_Node000001_Node000006" class="edge">
<title>Node6&#45;&gt;Node1</title>
<g id="a_edge6_Node000001_Node000006"><a xlink:title=" ">
<path fill="none" stroke="#9a32cd" stroke-dasharray="5,2" d="M549.72,-602.94C584.1,-600.13 624.41,-590.89 651.5,-565.64 697.57,-522.68 700.27,-438.5 699.76,-409.63"/>
<polygon fill="#9a32cd" stroke="#9a32cd" points="549.59,-599.44 539.83,-603.56 550.03,-606.43 549.59,-599.44"/>
</a>
</g>
<text text-anchor="middle" x="619.62" y="-597.39" font-family="Helvetica,sans-Serif" font-size="10.00" fill="grey"> cpu</text>
</g>
<!-- Node7&#45;&gt;Node6 -->
<g id="edge8_Node000006_Node000007" class="edge">
<title>Node7&#45;&gt;Node6</title>
<g id="a_edge8_Node000006_Node000007"><a xlink:title=" ">
<path fill="none" stroke="#9a32cd" stroke-dasharray="5,2" d="M217.56,-577.77C263.47,-576.81 323.67,-577.05 376.75,-582.14 396.59,-584.04 418.29,-587.8 436.75,-591.53"/>
<polygon fill="#9a32cd" stroke="#9a32cd" points="217.63,-574.26 207.72,-578 217.8,-581.26 217.63,-574.26"/>
</a>
</g>
<text text-anchor="middle" x="305.38" y="-594.64" font-family="Helvetica,sans-Serif" font-size="10.00" fill="grey"> breakpoints</text>
<text text-anchor="middle" x="305.38" y="-583.39" font-family="Helvetica,sans-Serif" font-size="10.00" fill="grey">watchpoints</text>
</g>
<!-- Node8&#45;&gt;Node1 -->
<g id="edge10_Node000001_Node000008" class="edge">
<title>Node8&#45;&gt;Node1</title>
<g id="a_edge10_Node000001_Node000008"><a xlink:title=" ">
<path fill="none" stroke="#9a32cd" stroke-dasharray="5,2" d="M370.6,-548.45C457.95,-550.98 608.32,-550.33 651.5,-518.64 687.76,-492.02 696.61,-433.32 698.72,-409.73"/>
<polygon fill="#9a32cd" stroke="#9a32cd" points="370.84,-544.95 360.74,-548.14 370.62,-551.95 370.84,-544.95"/>
</a>
</g>
<text text-anchor="middle" x="482.25" y="-561.64" font-family="Helvetica,sans-Serif" font-size="10.00" fill="grey"> cia1</text>
<text text-anchor="middle" x="482.25" y="-550.39" font-family="Helvetica,sans-Serif" font-size="10.00" fill="grey">cia2</text>
</g>
<!-- Node9&#45;&gt;Node1 -->
<g id="edge12_Node000001_Node000009" class="edge">
<title>Node9&#45;&gt;Node1</title>
<g id="a_edge12_Node000001_Node000009"><a xlink:title=" ">
<path fill="none" stroke="#9a32cd" stroke-dasharray="5,2" d="M550.47,-508.71C583.38,-507.13 622.13,-500.4 651.5,-480.64 677.25,-463.31 691.15,-427.08 696.6,-409.56"/>
<polygon fill="#9a32cd" stroke="#9a32cd" points="550.49,-505.21 540.61,-509.02 550.71,-512.2 550.49,-505.21"/>
</a>
</g>
<text text-anchor="middle" x="619.62" y="-505.39" font-family="Helvetica,sans-Serif" font-size="10.00" fill="grey"> vicii</text>
</g>
<!-- Node10&#45;&gt;Node1 -->
<g id="edge14_Node000001_Node000010" class="edge">
<title>Node10&#45;&gt;Node1</title>
<g id="a_edge14_Node000001_Node000010"><a xlink:title=" ">
<path fill="none" stroke="#9a32cd" stroke-dasharray="5,2" d="M370.42,-466.77C441.09,-465.12 557.29,-457.05 651.5,-424.64 662.49,-420.85 674.07,-414.87 683.09,-409.71"/>
<polygon fill="#9a32cd" stroke="#9a32cd" points="370.5,-463.27 360.57,-466.96 370.63,-470.27 370.5,-463.27"/>
</a>
</g>
<text text-anchor="middle" x="482.25" y="-467.39" font-family="Helvetica,sans-Serif" font-size="10.00" fill="grey"> muxer</text>
</g>
<!-- Node11&#45;&gt;Node1 -->
<g id="edge16_Node000001_Node000011" class="edge">
<title>Node11&#45;&gt;Node1</title>
<g id="a_edge16_Node000001_Node000011"><a xlink:title=" ">
<path fill="none" stroke="#9a32cd" stroke-dasharray="5,2" d="M581.4,-411.1C613.2,-408.01 646.16,-404.81 669.13,-402.58"/>
<polygon fill="#9a32cd" stroke="#9a32cd" points="581.34,-407.59 571.73,-412.04 582.02,-414.56 581.34,-407.59"/>
</a>
</g>
<text text-anchor="middle" x="619.62" y="-411.39" font-family="Helvetica,sans-Serif" font-size="10.00" fill="grey"> dmaDebugger</text>
</g>
<!-- Node12&#45;&gt;Node1 -->
<g id="edge18_Node000001_Node000012" class="edge">
<title>Node12&#45;&gt;Node1</title>
<g id="a_edge18_Node000001_Node000012"><a xlink:title=" ">
<path fill="none" stroke="#9a32cd" stroke-dasharray="5,2" d="M209.61,-389.12C293.34,-387.53 442.33,-385.85 569.75,-390.39 603.8,-391.6 642.78,-394.6 669.03,-396.86"/>
<polygon fill="#9a32cd" stroke="#9a32cd" points="209.68,-385.62 199.76,-389.31 209.82,-392.62 209.68,-385.62"/>
</a>
</g>
<text text-anchor="middle" x="482.25" y="-391.39" font-family="Helvetica,sans-Serif" font-size="10.00" fill="grey"> keyboard</text>
</g>
<!-- Node13&#45;&gt;Node1 -->
<g id="edge20_Node000001_Node000013" class="edge">
<title>Node13&#45;&gt;Node1</title>
<g id="a_edge20_Node000001_Node000013"><a xlink:title=" ">
<path fill="none" stroke="#9a32cd" stroke-dasharray="5,2" d="M227.63,-353.61C313.75,-354.4 451.5,-357.96 569.75,-371.39 606.47,-375.56 615.47,-378.4 651.5,-386.64 657.21,-387.94 663.26,-389.47 669.08,-391.01"/>
<polygon fill="#9a32cd" stroke="#9a32cd" points="227.9,-350.11 217.87,-353.53 227.84,-357.11 227.9,-350.11"/>
</a>
</g>
<text text-anchor="middle" x="482.25" y="-372.39" font-family="Helvetica,sans-Serif" font-size="10.00" fill="grey"> datasette</text>
</g>
<!-- Node14&#45;&gt;Node1 -->
<g id="edge22_Node000001_Node000014" class="edge">
<title>Node14&#45;&gt;Node1</title>
<g id="a_edge22_Node000001_Node000014"><a xlink:title=" ">
<path fill="none" stroke="#9a32cd" stroke-dasharray="5,2" d="M545.55,-277C579.6,-274.55 620.93,-277.39 651.5,-298.14 683.42,-319.8 694.6,-368.67 698.03,-389.7"/>
<polygon fill="#9a32cd" stroke="#9a32cd" points="545.46,-273.5 535.82,-277.88 546.09,-280.47 545.46,-273.5"/>
</a>
</g>
<text text-anchor="middle" x="619.62" y="-310.64" font-family="Helvetica,sans-Serif" font-size="10.00" fill="grey"> port1</text>
<text text-anchor="middle" x="619.62" y="-299.39" font-family="Helvetica,sans-Serif" font-size="10.00" fill="grey">port2</text>
</g>
<!-- Node15&#45;&gt;Node14 -->
<g id="edge24_Node000014_Node000015" class="edge">
<title>Node15&#45;&gt;Node14</title>
<g id="a_edge24_Node000014_Node000015"><a xlink:title=" ">
<path fill="none" stroke="#9a32cd" stroke-dasharray="5,2" d="M223.69,-280.01C287.56,-281.9 375.18,-284.49 429.98,-286.12"/>
<polygon fill="#9a32cd" stroke="#9a32cd" points="224.07,-276.52 213.97,-279.72 223.86,-283.51 224.07,-276.52"/>
</a>
</g>
<text text-anchor="middle" x="305.38" y="-285.39" font-family="Helvetica,sans-Serif" font-size="10.00" fill="grey"> joystick</text>
</g>
<!-- Node16&#45;&gt;Node14 -->
<g id="edge26_Node000014_Node000016" class="edge">
<title>Node16&#45;&gt;Node14</title>
<g id="a_edge26_Node000014_Node000016"><a xlink:title=" ">
<path fill="none" stroke="#9a32cd" stroke-dasharray="5,2" d="M217.68,-245.94C263.63,-249.79 323.83,-255.83 376.75,-264.39 398.22,-267.86 421.89,-273.01 441.27,-277.59"/>
<polygon fill="#9a32cd" stroke="#9a32cd" points="218.07,-242.46 207.82,-245.13 217.5,-249.44 218.07,-242.46"/>
</a>
</g>
<text text-anchor="middle" x="305.38" y="-265.39" font-family="Helvetica,sans-Serif" font-size="10.00" fill="grey"> mouse</text>
</g>
<!-- Node17&#45;&gt;Node1 -->
<g id="edge28_Node000001_Node000017" class="edge">
<title>Node17&#45;&gt;Node1</title>
<g id="a_edge28_Node000001_Node000017"><a xlink:title=" ">
<path fill="none" stroke="#9a32cd" stroke-dasharray="5,2" d="M372.54,-211.65C460.63,-219.58 610.14,-237.83 651.5,-272.64 688.1,-303.44 696.76,-365.25 698.77,-389.52"/>
<polygon fill="#9a32cd" stroke="#9a32cd" points="373.1,-208.19 362.84,-210.8 372.49,-215.16 373.1,-208.19"/>
</a>
</g>
<text text-anchor="middle" x="482.25" y="-241.39" font-family="Helvetica,sans-Serif" font-size="10.00" fill="grey"> recorder</text>
</g>
<!-- Node18&#45;&gt;Node1 -->
<g id="edge30_Node000001_Node000018" class="edge">
<title>Node18&#45;&gt;Node1</title>
<g id="a_edge30_Node000001_Node000018"><a xlink:title=" ">
<path fill="none" stroke="#9a32cd" stroke-dasharray="5,2" d="M388.34,-164.81C469.1,-159.3 589.16,-165.98 651.5,-241.64 689.23,-287.43 697.25,-362.47 698.93,-389.52"/>
<polygon fill="#9a32cd" stroke="#9a32cd" points="388.43,-161.29 378.73,-165.55 388.97,-168.27 388.43,-161.29"/>
</a>
</g>
<text text-anchor="middle" x="482.25" y="-185.39" font-family="Helvetica,sans-Serif" font-size="10.00" fill="grey"> expansionport</text>
</g>
<!-- Node19&#45;&gt;Node1 -->
<g id="edge32_Node000001_Node000019" class="edge">
<title>Node19&#45;&gt;Node1</title>
<g id="a_edge32_Node000001_Node000019"><a xlink:title=" ">
<path fill="none" stroke="#9a32cd" stroke-dasharray="5,2" d="M369.58,-120.01C450.12,-109.31 586.66,-105.91 651.5,-189.64 700.5,-252.9 701.03,-357.14 699.89,-389.64"/>
<polygon fill="#9a32cd" stroke="#9a32cd" points="369.51,-116.48 360.1,-121.34 370.49,-123.41 369.51,-116.48"/>
</a>
</g>
<text text-anchor="middle" x="482.25" y="-133.39" font-family="Helvetica,sans-Serif" font-size="10.00" fill="grey"> iec</text>
</g>
<!-- Node20&#45;&gt;Node1 -->
<g id="edge34_Node000001_Node000020" class="edge">
<title>Node20&#45;&gt;Node1</title>
<g id="a_edge34_Node000001_Node000020"><a xlink:title=" ">
<path fill="none" stroke="#9a32cd" stroke-dasharray="5,2" d="M535.15,-76.8C572.2,-71.62 620.74,-72.04 651.5,-100.14 695.33,-140.18 699.09,-342.06 699.36,-389.6"/>
<polygon fill="#9a32cd" stroke="#9a32cd" points="534.87,-73.3 525.54,-78.32 535.97,-80.21 534.87,-73.3"/>
</a>
</g>
<text text-anchor="middle" x="619.62" y="-112.64" font-family="Helvetica,sans-Serif" font-size="10.00" fill="grey"> drive8</text>
<text text-anchor="middle" x="619.62" y="-101.39" font-family="Helvetica,sans-Serif" font-size="10.00" fill="grey">drive9</text>
</g>
<!-- Node21&#45;&gt;Node20 -->
<g id="edge36_Node000020_Node000021" class="edge">
<title>Node21&#45;&gt;Node20</title>
<g id="a_edge36_Node000020_Node000021"><a xlink:title=" ">
<path fill="none" stroke="#9a32cd" stroke-dasharray="5,2" d="M211.08,-51.08C257.79,-52.18 321.32,-55.24 376.75,-63.39 400.39,-66.86 426.51,-73.17 446.73,-78.62"/>
<polygon fill="#9a32cd" stroke="#9a32cd" points="211.17,-47.58 201.1,-50.87 211.03,-54.58 211.17,-47.58"/>
</a>
</g>
<text text-anchor="middle" x="305.38" y="-64.39" font-family="Helvetica,sans-Serif" font-size="10.00" fill="grey"> disk</text>
</g>
<!-- Node22&#45;&gt;Node1 -->
<g id="edge38_Node000001_Node000022" class="edge">
<title>Node22&#45;&gt;Node1</title>
<g id="a_edge38_Node000001_Node000022"><a xlink:title=" ">
<path fill="none" stroke="#9a32cd" stroke-dasharray="5,2" d="M381.1,-3.63C459.77,3.35 581.71,0.3 651.5,-70.64 697.44,-117.34 699.55,-339.9 699.44,-389.73"/>
<polygon fill="#9a32cd" stroke="#9a32cd" points="380.94,-0.13 371.32,-4.58 381.61,-7.1 380.94,-0.13"/>
</a>
</g>
<text text-anchor="middle" x="482.25" y="-22.39" font-family="Helvetica,sans-Serif" font-size="10.00" fill="grey"> retroShell</text>
</g>
</g>
</svg>
