<?xml version="1.0" encoding="UTF-8" standalone="no"?>
<!DOCTYPE svg PUBLIC "-//W3C//DTD SVG 1.1//EN"
 "http://www.w3.org/Graphics/SVG/1.1/DTD/svg11.dtd">
<!-- Generated by graphviz version 10.0.1 (20240210.2158)
 -->
<!-- Title: /Users/hoff/Retro/virtualc64/Emulator/Components/SID/resid/dac.h Pages: 1 -->
<svg width="610pt" height="128pt"
 viewBox="0.00 0.00 609.75 127.50" xmlns="http://www.w3.org/2000/svg" xmlns:xlink="http://www.w3.org/1999/xlink">
<g id="graph0" class="graph" transform="scale(1 1) rotate(0) translate(4 123.5)">
<title>/Users/hoff/Retro/virtualc64/Emulator/Components/SID/resid/dac.h</title>
<!-- Node1 -->
<g id="Node000001" class="node">
<title>Node1</title>
<g id="a_Node000001"><a xlink:title=" ">
<polygon fill="#999999" stroke="#666666" points="368.75,-119.5 232,-119.5 232,-77.75 368.75,-77.75 368.75,-119.5"/>
<text text-anchor="start" x="240" y="-106" font-family="Helvetica,sans-Serif" font-size="10.00">/Users/hoff/Retro/virtualc64</text>
<text text-anchor="start" x="240" y="-94.75" font-family="Helvetica,sans-Serif" font-size="10.00">/Emulator/Components/SID</text>
<text text-anchor="middle" x="300.38" y="-83.5" font-family="Helvetica,sans-Serif" font-size="10.00">/resid/dac.h</text>
</a>
</g>
</g>
<!-- Node2 -->
<g id="Node000002" class="node">
<title>Node2</title>
<g id="a_Node000002"><a xlink:href="dac_8cc.html" target="_top" xlink:title=" ">
<polygon fill="white" stroke="#666666" points="136.75,-41.75 0,-41.75 0,0 136.75,0 136.75,-41.75"/>
<text text-anchor="start" x="8" y="-28.25" font-family="Helvetica,sans-Serif" font-size="10.00">/Users/hoff/Retro/virtualc64</text>
<text text-anchor="start" x="8" y="-17" font-family="Helvetica,sans-Serif" font-size="10.00">/Emulator/Components/SID</text>
<text text-anchor="middle" x="68.38" y="-5.75" font-family="Helvetica,sans-Serif" font-size="10.00">/resid/dac.cc</text>
</a>
</g>
</g>
<!-- Node1&#45;&gt;Node2 -->
<g id="edge1_Node000001_Node000002" class="edge">
<title>Node1&#45;&gt;Node2</title>
<g id="a_edge1_Node000001_Node000002"><a xlink:title=" ">
<path fill="none" stroke="#63b8ff" d="M227.44,-73.81C196.38,-63.67 160.52,-51.96 130.72,-42.23"/>
<polygon fill="#63b8ff" stroke="#63b8ff" points="226.17,-77.08 236.76,-76.86 228.34,-70.42 226.17,-77.08"/>
</a>
</g>
</g>
<!-- Node3 -->
<g id="Node000003" class="node">
<title>Node3</title>
<g id="a_Node000003"><a xlink:href="envelope_8cc.html" target="_top" xlink:title=" ">
<polygon fill="white" stroke="#666666" points="291.75,-41.75 155,-41.75 155,0 291.75,0 291.75,-41.75"/>
<text text-anchor="start" x="163" y="-28.25" font-family="Helvetica,sans-Serif" font-size="10.00">/Users/hoff/Retro/virtualc64</text>
<text text-anchor="start" x="163" y="-17" font-family="Helvetica,sans-Serif" font-size="10.00">/Emulator/Components/SID</text>
<text text-anchor="middle" x="223.38" y="-5.75" font-family="Helvetica,sans-Serif" font-size="10.00">/resid/envelope.cc</text>
</a>
</g>
</g>
<!-- Node1&#45;&gt;Node3 -->
<g id="edge2_Node000001_Node000003" class="edge">
<title>Node1&#45;&gt;Node3</title>
<g id="a_edge2_Node000001_Node000003"><a xlink:title=" ">
<path fill="none" stroke="#63b8ff" d="M271.62,-69.34C262.47,-60.34 252.53,-50.56 244.07,-42.23"/>
<polygon fill="#63b8ff" stroke="#63b8ff" points="269.08,-71.75 278.66,-76.26 273.99,-66.76 269.08,-71.75"/>
</a>
</g>
</g>
<!-- Node4 -->
<g id="Node000004" class="node">
<title>Node4</title>
<g id="a_Node000004"><a xlink:href="filter_8cc.html" target="_top" xlink:title=" ">
<polygon fill="white" stroke="#666666" points="446.75,-41.75 310,-41.75 310,0 446.75,0 446.75,-41.75"/>
<text text-anchor="start" x="318" y="-28.25" font-family="Helvetica,sans-Serif" font-size="10.00">/Users/hoff/Retro/virtualc64</text>
<text text-anchor="start" x="318" y="-17" font-family="Helvetica,sans-Serif" font-size="10.00">/Emulator/Components/SID</text>
<text text-anchor="middle" x="378.38" y="-5.75" font-family="Helvetica,sans-Serif" font-size="10.00">/resid/filter.cc</text>
</a>
</g>
</g>
<!-- Node1&#45;&gt;Node4 -->
<g id="edge3_Node000001_Node000004" class="edge">
<title>Node1&#45;&gt;Node4</title>
<g id="a_edge3_Node000001_Node000004"><a xlink:title=" ">
<path fill="none" stroke="#63b8ff" d="M329.5,-69.34C338.77,-60.34 348.84,-50.56 357.41,-42.23"/>
<polygon fill="#63b8ff" stroke="#63b8ff" points="327.1,-66.79 322.36,-76.27 331.98,-71.81 327.1,-66.79"/>
</a>
</g>
</g>
<!-- Node5 -->
<g id="Node000005" class="node">
<title>Node5</title>
<g id="a_Node000005"><a xlink:href="wave_8cc.html" target="_top" xlink:title=" ">
<polygon fill="white" stroke="#666666" points="601.75,-41.75 465,-41.75 465,0 601.75,0 601.75,-41.75"/>
<text text-anchor="start" x="473" y="-28.25" font-family="Helvetica,sans-Serif" font-size="10.00">/Users/hoff/Retro/virtualc64</text>
<text text-anchor="start" x="473" y="-17" font-family="Helvetica,sans-Serif" font-size="10.00">/Emulator/Components/SID</text>
<text text-anchor="middle" x="533.38" y="-5.75" font-family="Helvetica,sans-Serif" font-size="10.00">/resid/wave.cc</text>
</a>
</g>
</g>
<!-- Node1&#45;&gt;Node5 -->
<g id="edge4_Node000001_Node000005" class="edge">
<title>Node1&#45;&gt;Node5</title>
<g id="a_edge4_Node000001_Node000005"><a xlink:title=" ">
<path fill="none" stroke="#63b8ff" d="M373.63,-73.81C404.82,-63.67 440.84,-51.96 470.76,-42.23"/>
<polygon fill="#63b8ff" stroke="#63b8ff" points="372.68,-70.44 364.25,-76.86 374.85,-77.09 372.68,-70.44"/>
</a>
</g>
</g>
</g>
</svg>
