<?xml version="1.0" encoding="UTF-8" standalone="no"?>
<!DOCTYPE svg PUBLIC "-//W3C//DTD SVG 1.1//EN"
 "http://www.w3.org/Graphics/SVG/1.1/DTD/svg11.dtd">
<!-- Generated by graphviz version 10.0.1 (20240210.2158)
 -->
<!-- Title: /Users/hoff/Retro/virtualc64/Emulator/Components/SID/resid/dac.cc Pages: 1 -->
<svg width="145pt" height="105pt"
 viewBox="0.00 0.00 144.75 105.00" xmlns="http://www.w3.org/2000/svg" xmlns:xlink="http://www.w3.org/1999/xlink">
<g id="graph0" class="graph" transform="scale(1 1) rotate(0) translate(4 101)">
<title>/Users/hoff/Retro/virtualc64/Emulator/Components/SID/resid/dac.cc</title>
<!-- Node1 -->
<g id="Node000001" class="node">
<title>Node1</title>
<g id="a_Node000001"><a xlink:title=" ">
<polygon fill="#999999" stroke="#666666" points="136.75,-97 0,-97 0,-55.25 136.75,-55.25 136.75,-97"/>
<text text-anchor="start" x="8" y="-83.5" font-family="Helvetica,sans-Serif" font-size="10.00">/Users/hoff/Retro/virtualc64</text>
<text text-anchor="start" x="8" y="-72.25" font-family="Helvetica,sans-Serif" font-size="10.00">/Emulator/Components/SID</text>
<text text-anchor="middle" x="68.38" y="-61" font-family="Helvetica,sans-Serif" font-size="10.00">/resid/dac.cc</text>
</a>
</g>
</g>
<!-- Node2 -->
<g id="Node000002" class="node">
<title>Node2</title>
<g id="a_Node000002"><a xlink:href="dac_8h.html" target="_top" xlink:title=" ">
<polygon fill="white" stroke="#666666" points="58.38,-19.25 18.38,-19.25 18.38,0 58.38,0 58.38,-19.25"/>
<text text-anchor="middle" x="38.38" y="-5.75" font-family="Helvetica,sans-Serif" font-size="10.00">dac.h</text>
</a>
</g>
</g>
<!-- Node1&#45;&gt;Node2 -->
<g id="edge1_Node000001_Node000002" class="edge">
<title>Node1&#45;&gt;Node2</title>
<g id="a_edge1_Node000001_Node000002"><a xlink:title=" ">
<path fill="none" stroke="#63b8ff" d="M59.05,-55.07C55.35,-47.12 51.11,-38.01 47.44,-30.11"/>
<polygon fill="#63b8ff" stroke="#63b8ff" points="50.62,-28.66 43.23,-21.07 44.28,-31.61 50.62,-28.66"/>
</a>
</g>
</g>
<!-- Node3 -->
<g id="Node000003" class="node">
<title>Node3</title>
<g id="a_Node000003"><a xlink:title=" ">
<polygon fill="#e0e0e0" stroke="#999999" points="122.38,-19.25 76.38,-19.25 76.38,0 122.38,0 122.38,-19.25"/>
<text text-anchor="middle" x="99.38" y="-5.75" font-family="Helvetica,sans-Serif" font-size="10.00">math.h</text>
</a>
</g>
</g>
<!-- Node1&#45;&gt;Node3 -->
<g id="edge2_Node000001_Node000003" class="edge">
<title>Node1&#45;&gt;Node3</title>
<g id="a_edge2_Node000001_Node000003"><a xlink:title=" ">
<path fill="none" stroke="#63b8ff" d="M78.01,-55.07C81.88,-47.03 86.32,-37.8 90.14,-29.84"/>
<polygon fill="#63b8ff" stroke="#63b8ff" points="93.18,-31.59 94.36,-21.06 86.87,-28.56 93.18,-31.59"/>
</a>
</g>
</g>
</g>
</svg>
