<?xml version="1.0" encoding="UTF-8" standalone="no"?>
<!DOCTYPE svg PUBLIC "-//W3C//DTD SVG 1.1//EN"
 "http://www.w3.org/Graphics/SVG/1.1/DTD/svg11.dtd">
<!-- Generated by graphviz version 10.0.1 (20240210.2158)
 -->
<!-- Title: /Users/hoff/Retro/virtualc64/Emulator Pages: 1 -->
<svg width="218pt" height="336pt"
 viewBox="0.00 0.00 218.00 335.50" xmlns="http://www.w3.org/2000/svg" xmlns:xlink="http://www.w3.org/1999/xlink">
<g id="graph0" class="graph" transform="scale(1 1) rotate(0) translate(4 331.5)">
<title>/Users/hoff/Retro/virtualc64/Emulator</title>
<g id="clust1" class="cluster">
<title>clusterdir_3eca51afc31ab9312b29b4249736bc7a</title>
<g id="a_clust1"><a xlink:href="dir_3eca51afc31ab9312b29b4249736bc7a.html" target="_top">
<polygon fill="#edf0f7" stroke="#404040" stroke-width="2" points="8,-8 8,-319.5 202,-319.5 202,-8 8,-8"/>
</a>
</g>
</g>
<!-- dir_3eca51afc31ab9312b29b4249736bc7a -->
<g id="node1" class="node">
<title>dir_3eca51afc31ab9312b29b4249736bc7a</title>
<text text-anchor="middle" x="81" y="-298" font-family="Helvetica,sans-Serif" font-size="10.00">Emulator</text>
</g>
<!-- dir_9110424d8d329f8b6a25ed0145171490 -->
<g id="node2" class="node">
<title>dir_9110424d8d329f8b6a25ed0145171490</title>
<g id="a_node2"><a xlink:href="dir_9110424d8d329f8b6a25ed0145171490.html" target="_top" xlink:title="Base">
<polygon fill="#a2b4d6" stroke="#404040" points="152.25,-201 113.75,-201 113.75,-181.75 152.25,-181.75 152.25,-201"/>
<text text-anchor="middle" x="133" y="-187.5" font-family="Helvetica,sans-Serif" font-size="10.00">Base</text>
</a>
</g>
</g>
<!-- dir_3eca51afc31ab9312b29b4249736bc7a&#45;&gt;dir_9110424d8d329f8b6a25ed0145171490 -->
<g id="edge4" class="edge">
<title>dir_3eca51afc31ab9312b29b4249736bc7a&#45;&gt;dir_9110424d8d329f8b6a25ed0145171490</title>
<g id="a_edge4"><a xlink:href="dir_000009_000000.html" target="_top">
<path fill="none" stroke="#63b8ff" d="M108.31,-293.98C127.3,-287.6 151.24,-276.03 163,-256.25 172.05,-241.02 161.3,-222.61 150.23,-209.48"/>
<polygon fill="#63b8ff" stroke="#63b8ff" points="153.12,-207.45 143.78,-202.45 147.97,-212.18 153.12,-207.45"/>
</a>
</g>
<g id="a_edge4&#45;headlabel"><a xlink:href="dir_000009_000000.html" target="_top" xlink:title="25">
<text text-anchor="middle" x="156.62" y="-203.19" font-family="Helvetica,sans-Serif" font-size="10.00" fill="#63b8ff">25</text>
</a>
</g>
</g>
<!-- dir_f1dd3ab951341472f6f0525fe7f46f05 -->
<g id="node3" class="node">
<title>dir_f1dd3ab951341472f6f0525fe7f46f05</title>
<g id="a_node3"><a xlink:href="dir_f1dd3ab951341472f6f0525fe7f46f05.html" target="_top" xlink:title="Components">
<polygon fill="#a2b4d6" stroke="#404040" points="121.75,-145.75 50.25,-145.75 50.25,-126.5 121.75,-126.5 121.75,-145.75"/>
<text text-anchor="middle" x="86" y="-132.25" font-family="Helvetica,sans-Serif" font-size="10.00">Components</text>
</a>
</g>
</g>
<!-- dir_3eca51afc31ab9312b29b4249736bc7a&#45;&gt;dir_f1dd3ab951341472f6f0525fe7f46f05 -->
<g id="edge6" class="edge">
<title>dir_3eca51afc31ab9312b29b4249736bc7a&#45;&gt;dir_f1dd3ab951341472f6f0525fe7f46f05</title>
<g id="a_edge6"><a xlink:href="dir_000009_000003.html" target="_top">
<path fill="none" stroke="#63b8ff" d="M71.98,-292.3C63.93,-283.97 52.71,-270.53 48,-256.25 36.27,-220.67 57.62,-178.93 72.79,-155.5"/>
<polygon fill="#63b8ff" stroke="#63b8ff" points="75.59,-157.6 78.32,-147.36 69.8,-153.66 75.59,-157.6"/>
</a>
</g>
<g id="a_edge6&#45;headlabel"><a xlink:href="dir_000009_000003.html" target="_top" xlink:title="34">
<text text-anchor="middle" x="76.77" y="-157.04" font-family="Helvetica,sans-Serif" font-size="10.00" fill="#63b8ff">34</text>
</a>
</g>
</g>
<!-- dir_899058ae01f0eb85e2d1a53e03af8bff -->
<g id="node4" class="node">
<title>dir_899058ae01f0eb85e2d1a53e03af8bff</title>
<g id="a_node4"><a xlink:href="dir_899058ae01f0eb85e2d1a53e03af8bff.html" target="_top" xlink:title="FileSystems">
<polygon fill="#a2b4d6" stroke="#404040" points="176.38,-35.25 105.62,-35.25 105.62,-16 176.38,-16 176.38,-35.25"/>
<text text-anchor="middle" x="141" y="-21.75" font-family="Helvetica,sans-Serif" font-size="10.00">FileSystems</text>
</a>
</g>
</g>
<!-- dir_3eca51afc31ab9312b29b4249736bc7a&#45;&gt;dir_899058ae01f0eb85e2d1a53e03af8bff -->
<g id="edge3" class="edge">
<title>dir_3eca51afc31ab9312b29b4249736bc7a&#45;&gt;dir_899058ae01f0eb85e2d1a53e03af8bff</title>
<g id="a_edge3"><a xlink:href="dir_000009_000010.html" target="_top">
<path fill="none" stroke="#63b8ff" d="M71.36,-292.51C62.21,-284.14 48.61,-270.47 40,-256.25 24.37,-230.44 17,-222.55 17,-192.38 17,-192.38 17,-192.38 17,-135.12 17,-87.87 68.63,-56.42 105.26,-40.06"/>
<polygon fill="#63b8ff" stroke="#63b8ff" points="106.39,-43.38 114.22,-36.25 103.64,-36.94 106.39,-43.38"/>
</a>
</g>
<g id="a_edge3&#45;headlabel"><a xlink:href="dir_000009_000010.html" target="_top" xlink:title="2">
<text text-anchor="middle" x="105.58" y="-42.94" font-family="Helvetica,sans-Serif" font-size="10.00" fill="#63b8ff">2</text>
</a>
</g>
</g>
<!-- dir_05d809685911b910dcd065bcbda36bec -->
<g id="node5" class="node">
<title>dir_05d809685911b910dcd065bcbda36bec</title>
<g id="a_node5"><a xlink:href="dir_05d809685911b910dcd065bcbda36bec.html" target="_top" xlink:title="Media">
<polygon fill="#a2b4d6" stroke="#404040" points="154.12,-256.25 111.88,-256.25 111.88,-237 154.12,-237 154.12,-256.25"/>
<text text-anchor="middle" x="133" y="-242.75" font-family="Helvetica,sans-Serif" font-size="10.00">Media</text>
</a>
</g>
</g>
<!-- dir_3eca51afc31ab9312b29b4249736bc7a&#45;&gt;dir_05d809685911b910dcd065bcbda36bec -->
<g id="edge1" class="edge">
<title>dir_3eca51afc31ab9312b29b4249736bc7a&#45;&gt;dir_05d809685911b910dcd065bcbda36bec</title>
<g id="a_edge1"><a xlink:href="dir_000009_000013.html" target="_top">
<path fill="none" stroke="#63b8ff" d="M89.12,-292.55C96.4,-285.11 107.29,-273.95 116.4,-264.62"/>
<polygon fill="#63b8ff" stroke="#63b8ff" points="118.87,-267.1 123.36,-257.5 113.87,-262.21 118.87,-267.1"/>
</a>
</g>
<g id="a_edge1&#45;headlabel"><a xlink:href="dir_000009_000013.html" target="_top" xlink:title="3">
<text text-anchor="middle" x="119.45" y="-266.7" font-family="Helvetica,sans-Serif" font-size="10.00" fill="#63b8ff">3</text>
</a>
</g>
</g>
<!-- dir_58a291701bf16a57ae56b95613394650 -->
<g id="node6" class="node">
<title>dir_58a291701bf16a57ae56b95613394650</title>
<g id="a_node6"><a xlink:href="dir_58a291701bf16a57ae56b95613394650.html" target="_top" xlink:title="Misc">
<polygon fill="#a2b4d6" stroke="#404040" points="93.5,-256.25 56.5,-256.25 56.5,-237 93.5,-237 93.5,-256.25"/>
<text text-anchor="middle" x="75" y="-242.75" font-family="Helvetica,sans-Serif" font-size="10.00">Misc</text>
</a>
</g>
</g>
<!-- dir_3eca51afc31ab9312b29b4249736bc7a&#45;&gt;dir_58a291701bf16a57ae56b95613394650 -->
<g id="edge2" class="edge">
<title>dir_3eca51afc31ab9312b29b4249736bc7a&#45;&gt;dir_58a291701bf16a57ae56b95613394650</title>
<g id="a_edge2"><a xlink:href="dir_000009_000015.html" target="_top">
<path fill="none" stroke="#63b8ff" d="M80.06,-292.55C79.31,-285.87 78.22,-276.21 77.25,-267.56"/>
<polygon fill="#63b8ff" stroke="#63b8ff" points="80.76,-267.47 76.16,-257.92 73.8,-268.25 80.76,-267.47"/>
</a>
</g>
<g id="a_edge2&#45;headlabel"><a xlink:href="dir_000009_000015.html" target="_top" xlink:title="2">
<text text-anchor="middle" x="83.81" y="-265.34" font-family="Helvetica,sans-Serif" font-size="10.00" fill="#63b8ff">2</text>
</a>
</g>
</g>
<!-- dir_caa8e5cf067d1e3bd80d413bc762db78 -->
<g id="node7" class="node">
<title>dir_caa8e5cf067d1e3bd80d413bc762db78</title>
<g id="a_node7"><a xlink:href="dir_caa8e5cf067d1e3bd80d413bc762db78.html" target="_top" xlink:title="Peripherals">
<polygon fill="#a2b4d6" stroke="#404040" points="173.38,-90.5 108.62,-90.5 108.62,-71.25 173.38,-71.25 173.38,-90.5"/>
<text text-anchor="middle" x="141" y="-77" font-family="Helvetica,sans-Serif" font-size="10.00">Peripherals</text>
</a>
</g>
</g>
<!-- dir_3eca51afc31ab9312b29b4249736bc7a&#45;&gt;dir_caa8e5cf067d1e3bd80d413bc762db78 -->
<g id="edge5" class="edge">
<title>dir_3eca51afc31ab9312b29b4249736bc7a&#45;&gt;dir_caa8e5cf067d1e3bd80d413bc762db78</title>
<g id="a_edge5"><a xlink:href="dir_000009_000021.html" target="_top">
<path fill="none" stroke="#63b8ff" d="M108.11,-295.16C128.76,-289.24 155.82,-277.71 169,-256.25 178.65,-240.54 214.78,-310.08 165,-126.5 162.56,-117.5 158.02,-108.3 153.55,-100.61"/>
<polygon fill="#63b8ff" stroke="#63b8ff" points="156.56,-98.82 148.28,-92.2 150.62,-102.54 156.56,-98.82"/>
</a>
</g>
<g id="a_edge5&#45;headlabel"><a xlink:href="dir_000009_000021.html" target="_top" xlink:title="24">
<text text-anchor="middle" x="160.07" y="-95.2" font-family="Helvetica,sans-Serif" font-size="10.00" fill="#63b8ff">24</text>
</a>
</g>
</g>
<!-- dir_9110424d8d329f8b6a25ed0145171490&#45;&gt;dir_f1dd3ab951341472f6f0525fe7f46f05 -->
<g id="edge8" class="edge">
<title>dir_9110424d8d329f8b6a25ed0145171490&#45;&gt;dir_f1dd3ab951341472f6f0525fe7f46f05</title>
<g id="a_edge8"><a xlink:href="dir_000000_000003.html" target="_top">
<path fill="none" stroke="#63b8ff" d="M119.81,-181.34C112,-174.18 102.57,-163.96 95.47,-155.14"/>
<polygon fill="#63b8ff" stroke="#63b8ff" points="98.36,-153.15 89.57,-147.24 92.75,-157.34 98.36,-153.15"/>
</a>
</g>
<g id="a_edge8&#45;headlabel"><a xlink:href="dir_000000_000003.html" target="_top" xlink:title="12">
<text text-anchor="middle" x="101.88" y="-149.25" font-family="Helvetica,sans-Serif" font-size="10.00" fill="#63b8ff">12</text>
</a>
</g>
</g>
<!-- dir_9110424d8d329f8b6a25ed0145171490&#45;&gt;dir_caa8e5cf067d1e3bd80d413bc762db78 -->
<g id="edge7" class="edge">
<title>dir_9110424d8d329f8b6a25ed0145171490&#45;&gt;dir_caa8e5cf067d1e3bd80d413bc762db78</title>
<g id="a_edge7"><a xlink:href="dir_000000_000021.html" target="_top">
<path fill="none" stroke="#63b8ff" d="M129.74,-181.5C127.81,-164.25 130.15,-125.83 134.12,-102.06"/>
<polygon fill="#63b8ff" stroke="#63b8ff" points="137.53,-102.86 136.1,-92.36 130.67,-101.46 137.53,-102.86"/>
</a>
</g>
<g id="a_edge7&#45;headlabel"><a xlink:href="dir_000000_000021.html" target="_top" xlink:title="11">
<text text-anchor="middle" x="139.9" y="-101.59" font-family="Helvetica,sans-Serif" font-size="10.00" fill="#63b8ff">11</text>
</a>
</g>
</g>
<!-- dir_f1dd3ab951341472f6f0525fe7f46f05&#45;&gt;dir_9110424d8d329f8b6a25ed0145171490 -->
<g id="edge9" class="edge">
<title>dir_f1dd3ab951341472f6f0525fe7f46f05&#45;&gt;dir_9110424d8d329f8b6a25ed0145171490</title>
<g id="a_edge9"><a xlink:href="dir_000003_000000.html" target="_top">
<path fill="none" stroke="#63b8ff" d="M99.14,-146.11C106.98,-153.29 116.47,-163.59 123.59,-172.44"/>
<polygon fill="#63b8ff" stroke="#63b8ff" points="120.72,-174.44 129.5,-180.37 126.33,-170.26 120.72,-174.44"/>
</a>
</g>
<g id="a_edge9&#45;headlabel"><a xlink:href="dir_000003_000000.html" target="_top" xlink:title="11">
<text text-anchor="middle" x="117.2" y="-170.6" font-family="Helvetica,sans-Serif" font-size="10.00" fill="#63b8ff">11</text>
</a>
</g>
</g>
<!-- dir_f1dd3ab951341472f6f0525fe7f46f05&#45;&gt;dir_caa8e5cf067d1e3bd80d413bc762db78 -->
<g id="edge10" class="edge">
<title>dir_f1dd3ab951341472f6f0525fe7f46f05&#45;&gt;dir_caa8e5cf067d1e3bd80d413bc762db78</title>
<g id="a_edge10"><a xlink:href="dir_000003_000021.html" target="_top">
<path fill="none" stroke="#63b8ff" d="M89.92,-126.33C96.19,-118.67 107.5,-107.36 118.01,-98.07"/>
<polygon fill="#63b8ff" stroke="#63b8ff" points="119.99,-100.97 125.36,-91.84 115.47,-95.63 119.99,-100.97"/>
</a>
</g>
<g id="a_edge10&#45;headlabel"><a xlink:href="dir_000003_000021.html" target="_top" xlink:title="1">
<text text-anchor="middle" x="120.24" y="-100.61" font-family="Helvetica,sans-Serif" font-size="10.00" fill="#63b8ff">1</text>
</a>
</g>
</g>
<!-- dir_899058ae01f0eb85e2d1a53e03af8bff&#45;&gt;dir_caa8e5cf067d1e3bd80d413bc762db78 -->
<g id="edge11" class="edge">
<title>dir_899058ae01f0eb85e2d1a53e03af8bff&#45;&gt;dir_caa8e5cf067d1e3bd80d413bc762db78</title>
<g id="a_edge11"><a xlink:href="dir_000010_000021.html" target="_top">
<path fill="none" stroke="#63b8ff" d="M146.21,-35.61C147.6,-42.25 148.05,-51.55 147.56,-59.92"/>
<polygon fill="#63b8ff" stroke="#63b8ff" points="144.12,-59.22 146.35,-69.58 151.06,-60.09 144.12,-59.22"/>
</a>
</g>
<g id="a_edge11&#45;headlabel"><a xlink:href="dir_000010_000021.html" target="_top" xlink:title="1">
<text text-anchor="middle" x="141.56" y="-52.93" font-family="Helvetica,sans-Serif" font-size="10.00" fill="#63b8ff">1</text>
</a>
</g>
</g>
<!-- dir_05d809685911b910dcd065bcbda36bec&#45;&gt;dir_9110424d8d329f8b6a25ed0145171490 -->
<g id="edge12" class="edge">
<title>dir_05d809685911b910dcd065bcbda36bec&#45;&gt;dir_9110424d8d329f8b6a25ed0145171490</title>
<g id="a_edge12"><a xlink:href="dir_000013_000000.html" target="_top">
<path fill="none" stroke="#63b8ff" d="M133,-236.83C133,-230.32 133,-221.17 133,-212.87"/>
<polygon fill="#63b8ff" stroke="#63b8ff" points="136.5,-212.87 133,-202.87 129.5,-212.87 136.5,-212.87"/>
</a>
</g>
<g id="a_edge12&#45;headlabel"><a xlink:href="dir_000013_000000.html" target="_top" xlink:title="1">
<text text-anchor="middle" x="139.34" y="-211.08" font-family="Helvetica,sans-Serif" font-size="10.00" fill="#63b8ff">1</text>
</a>
</g>
</g>
<!-- dir_05d809685911b910dcd065bcbda36bec&#45;&gt;dir_f1dd3ab951341472f6f0525fe7f46f05 -->
<g id="edge14" class="edge">
<title>dir_05d809685911b910dcd065bcbda36bec&#45;&gt;dir_f1dd3ab951341472f6f0525fe7f46f05</title>
<g id="a_edge14"><a xlink:href="dir_000013_000003.html" target="_top">
<path fill="none" stroke="#63b8ff" d="M126.45,-236.8C120.23,-228.08 110.96,-214.17 105,-201 98.57,-186.78 93.64,-169.81 90.42,-156.94"/>
<polygon fill="#63b8ff" stroke="#63b8ff" points="93.9,-156.48 88.2,-147.55 87.09,-158.08 93.9,-156.48"/>
</a>
</g>
<g id="a_edge14&#45;headlabel"><a xlink:href="dir_000013_000003.html" target="_top" xlink:title="2">
<text text-anchor="middle" x="97.14" y="-153.98" font-family="Helvetica,sans-Serif" font-size="10.00" fill="#63b8ff">2</text>
</a>
</g>
</g>
<!-- dir_05d809685911b910dcd065bcbda36bec&#45;&gt;dir_caa8e5cf067d1e3bd80d413bc762db78 -->
<g id="edge13" class="edge">
<title>dir_05d809685911b910dcd065bcbda36bec&#45;&gt;dir_caa8e5cf067d1e3bd80d413bc762db78</title>
<g id="a_edge13"><a xlink:href="dir_000013_000021.html" target="_top">
<path fill="none" stroke="#63b8ff" d="M140.67,-236.79C147.52,-228.28 157.05,-214.71 161,-201 170.87,-166.69 158.77,-125.33 149.55,-101.47"/>
<polygon fill="#63b8ff" stroke="#63b8ff" points="152.86,-100.32 145.82,-92.4 146.39,-102.98 152.86,-100.32"/>
</a>
</g>
<g id="a_edge13&#45;headlabel"><a xlink:href="dir_000013_000021.html" target="_top" xlink:title="2">
<text text-anchor="middle" x="156.28" y="-97.29" font-family="Helvetica,sans-Serif" font-size="10.00" fill="#63b8ff">2</text>
</a>
</g>
</g>
<!-- dir_58a291701bf16a57ae56b95613394650&#45;&gt;dir_9110424d8d329f8b6a25ed0145171490 -->
<g id="edge16" class="edge">
<title>dir_58a291701bf16a57ae56b95613394650&#45;&gt;dir_9110424d8d329f8b6a25ed0145171490</title>
<g id="a_edge16"><a xlink:href="dir_000015_000000.html" target="_top">
<path fill="none" stroke="#63b8ff" d="M84.84,-236.59C93.05,-229.05 104.98,-218.1 114.91,-208.98"/>
<polygon fill="#63b8ff" stroke="#63b8ff" points="117.19,-211.64 122.19,-202.3 112.46,-206.48 117.19,-211.64"/>
</a>
</g>
<g id="a_edge16&#45;headlabel"><a xlink:href="dir_000015_000000.html" target="_top" xlink:title="2">
<text text-anchor="middle" x="117.58" y="-211.26" font-family="Helvetica,sans-Serif" font-size="10.00" fill="#63b8ff">2</text>
</a>
</g>
</g>
<!-- dir_58a291701bf16a57ae56b95613394650&#45;&gt;dir_f1dd3ab951341472f6f0525fe7f46f05 -->
<g id="edge15" class="edge">
<title>dir_58a291701bf16a57ae56b95613394650&#45;&gt;dir_f1dd3ab951341472f6f0525fe7f46f05</title>
<g id="a_edge15"><a xlink:href="dir_000015_000003.html" target="_top">
<path fill="none" stroke="#63b8ff" d="M75.9,-236.75C77.65,-219.5 81.54,-181.08 83.95,-157.31"/>
<polygon fill="#63b8ff" stroke="#63b8ff" points="87.41,-157.93 84.93,-147.63 80.44,-157.23 87.41,-157.93"/>
</a>
</g>
<g id="a_edge15&#45;headlabel"><a xlink:href="dir_000015_000003.html" target="_top" xlink:title="1">
<text text-anchor="middle" x="90.02" y="-156.42" font-family="Helvetica,sans-Serif" font-size="10.00" fill="#63b8ff">1</text>
</a>
</g>
</g>
<!-- dir_caa8e5cf067d1e3bd80d413bc762db78&#45;&gt;dir_9110424d8d329f8b6a25ed0145171490 -->
<g id="edge18" class="edge">
<title>dir_caa8e5cf067d1e3bd80d413bc762db78&#45;&gt;dir_9110424d8d329f8b6a25ed0145171490</title>
<g id="a_edge18"><a xlink:href="dir_000021_000000.html" target="_top">
<path fill="none" stroke="#63b8ff" d="M144.27,-90.88C146.18,-108.22 143.83,-146.65 139.85,-170.35"/>
<polygon fill="#63b8ff" stroke="#63b8ff" points="136.45,-169.51 137.87,-180.01 143.31,-170.92 136.45,-169.51"/>
</a>
</g>
<g id="a_edge18&#45;headlabel"><a xlink:href="dir_000021_000000.html" target="_top" xlink:title="4">
<text text-anchor="middle" x="134.09" y="-163.03" font-family="Helvetica,sans-Serif" font-size="10.00" fill="#63b8ff">4</text>
</a>
</g>
</g>
<!-- dir_caa8e5cf067d1e3bd80d413bc762db78&#45;&gt;dir_f1dd3ab951341472f6f0525fe7f46f05 -->
<g id="edge19" class="edge">
<title>dir_caa8e5cf067d1e3bd80d413bc762db78&#45;&gt;dir_f1dd3ab951341472f6f0525fe7f46f05</title>
<g id="a_edge19"><a xlink:href="dir_000021_000003.html" target="_top">
<path fill="none" stroke="#63b8ff" d="M137,-90.77C130.71,-98.43 119.46,-109.67 109.01,-118.91"/>
<polygon fill="#63b8ff" stroke="#63b8ff" points="107.07,-115.98 101.7,-125.11 111.59,-121.32 107.07,-115.98"/>
</a>
</g>
<g id="a_edge19&#45;headlabel"><a xlink:href="dir_000021_000003.html" target="_top" xlink:title="6">
<text text-anchor="middle" x="106.82" y="-108.59" font-family="Helvetica,sans-Serif" font-size="10.00" fill="#63b8ff">6</text>
</a>
</g>
</g>
<!-- dir_caa8e5cf067d1e3bd80d413bc762db78&#45;&gt;dir_899058ae01f0eb85e2d1a53e03af8bff -->
<g id="edge17" class="edge">
<title>dir_caa8e5cf067d1e3bd80d413bc762db78&#45;&gt;dir_899058ae01f0eb85e2d1a53e03af8bff</title>
<g id="a_edge17"><a xlink:href="dir_000021_000010.html" target="_top">
<path fill="none" stroke="#63b8ff" d="M135.83,-71.08C134.42,-64.49 133.96,-55.21 134.43,-46.82"/>
<polygon fill="#63b8ff" stroke="#63b8ff" points="137.88,-47.46 135.61,-37.11 130.93,-46.62 137.88,-47.46"/>
</a>
</g>
<g id="a_edge17&#45;headlabel"><a xlink:href="dir_000021_000010.html" target="_top" xlink:title="1">
<text text-anchor="middle" x="140.44" y="-46" font-family="Helvetica,sans-Serif" font-size="10.00" fill="#63b8ff">1</text>
</a>
</g>
</g>
<!-- dir_e7bcbed7319f2a350050e6b463e2c1e2 -->
<g id="node8" class="node">
<title>dir_e7bcbed7319f2a350050e6b463e2c1e2</title>
<g id="a_node8"><a xlink:href="dir_e7bcbed7319f2a350050e6b463e2c1e2.html" target="_top" xlink:title="Utilities">
<polygon fill="#a2b4d6" stroke="#404040" points="187.5,-311.5 138.5,-311.5 138.5,-292.25 187.5,-292.25 187.5,-311.5"/>
<text text-anchor="middle" x="163" y="-298" font-family="Helvetica,sans-Serif" font-size="10.00">Utilities</text>
</a>
</g>
</g>
</g>
</svg>
