<?xml version="1.0" encoding="UTF-8" standalone="no"?>
<!DOCTYPE svg PUBLIC "-//W3C//DTD SVG 1.1//EN"
 "http://www.w3.org/Graphics/SVG/1.1/DTD/svg11.dtd">
<!-- Generated by graphviz version 10.0.1 (20240210.2158)
 -->
<!-- Title: /Users/hoff/Retro/virtualc64/Emulator Pages: 1 -->
<svg width="258pt" height="280pt"
 viewBox="0.00 0.00 258.00 280.25" xmlns="http://www.w3.org/2000/svg" xmlns:xlink="http://www.w3.org/1999/xlink">
<g id="graph0" class="graph" transform="scale(1 1) rotate(0) translate(4 276.25)">
<title>/Users/hoff/Retro/virtualc64/Emulator</title>
<g id="clust1" class="cluster">
<title>clusterdir_3eca51afc31ab9312b29b4249736bc7a</title>
<g id="a_clust1"><a xlink:href="dir_3eca51afc31ab9312b29b4249736bc7a.html" target="_top">
<polygon fill="#edf0f7" stroke="#404040" stroke-width="2" points="8,-8 8,-264.25 242,-264.25 242,-8 8,-8"/>
</a>
</g>
</g>
<!-- dir_3eca51afc31ab9312b29b4249736bc7a -->
<g id="node1" class="node">
<title>dir_3eca51afc31ab9312b29b4249736bc7a</title>
<text text-anchor="middle" x="117" y="-242.75" font-family="Helvetica,sans-Serif" font-size="10.00">Emulator</text>
</g>
<!-- dir_9110424d8d329f8b6a25ed0145171490 -->
<g id="node2" class="node">
<title>dir_9110424d8d329f8b6a25ed0145171490</title>
<g id="a_node2"><a xlink:href="dir_9110424d8d329f8b6a25ed0145171490.html" target="_top" xlink:title="Base">
<polygon fill="#a2b4d6" stroke="#404040" points="194.25,-145.75 155.75,-145.75 155.75,-126.5 194.25,-126.5 194.25,-145.75"/>
<text text-anchor="middle" x="175" y="-132.25" font-family="Helvetica,sans-Serif" font-size="10.00">Base</text>
</a>
</g>
</g>
<!-- dir_3eca51afc31ab9312b29b4249736bc7a&#45;&gt;dir_9110424d8d329f8b6a25ed0145171490 -->
<g id="edge4" class="edge">
<title>dir_3eca51afc31ab9312b29b4249736bc7a&#45;&gt;dir_9110424d8d329f8b6a25ed0145171490</title>
<g id="a_edge4"><a xlink:href="dir_000008_000000.html" target="_top">
<path fill="none" stroke="#63b8ff" d="M123.46,-237.03C129.89,-228.25 139.81,-214.09 147,-201 154.95,-186.54 162.37,-169.37 167.57,-156.48"/>
<polygon fill="#63b8ff" stroke="#63b8ff" points="170.72,-158.04 171.12,-147.45 164.21,-155.47 170.72,-158.04"/>
</a>
</g>
<g id="a_edge4&#45;headlabel"><a xlink:href="dir_000008_000000.html" target="_top" xlink:title="22">
<text text-anchor="middle" x="172.6" y="-157.14" font-family="Helvetica,sans-Serif" font-size="10.00" fill="#63b8ff">22</text>
</a>
</g>
</g>
<!-- dir_c2beb47eaebe98e9380045ecd1929e73 -->
<g id="node3" class="node">
<title>dir_c2beb47eaebe98e9380045ecd1929e73</title>
<g id="a_node3"><a xlink:href="dir_c2beb47eaebe98e9380045ecd1929e73.html" target="_top" xlink:title="Cartridges">
<polygon fill="#a2b4d6" stroke="#404040" points="117.5,-145.75 56.5,-145.75 56.5,-126.5 117.5,-126.5 117.5,-145.75"/>
<text text-anchor="middle" x="87" y="-132.25" font-family="Helvetica,sans-Serif" font-size="10.00">Cartridges</text>
</a>
</g>
</g>
<!-- dir_3eca51afc31ab9312b29b4249736bc7a&#45;&gt;dir_c2beb47eaebe98e9380045ecd1929e73 -->
<g id="edge5" class="edge">
<title>dir_3eca51afc31ab9312b29b4249736bc7a&#45;&gt;dir_c2beb47eaebe98e9380045ecd1929e73</title>
<g id="a_edge5"><a xlink:href="dir_000008_000001.html" target="_top">
<path fill="none" stroke="#63b8ff" d="M109.07,-237.22C101.72,-228.8 91.3,-215.11 87,-201 82.68,-186.84 82.87,-170.08 84.03,-157.28"/>
<polygon fill="#63b8ff" stroke="#63b8ff" points="87.49,-157.89 85.21,-147.55 80.54,-157.05 87.49,-157.89"/>
</a>
</g>
<g id="a_edge5&#45;headlabel"><a xlink:href="dir_000008_000001.html" target="_top" xlink:title="2">
<text text-anchor="middle" x="90.05" y="-156.43" font-family="Helvetica,sans-Serif" font-size="10.00" fill="#63b8ff">2</text>
</a>
</g>
</g>
<!-- dir_f1dd3ab951341472f6f0525fe7f46f05 -->
<g id="node4" class="node">
<title>dir_f1dd3ab951341472f6f0525fe7f46f05</title>
<g id="a_node4"><a xlink:href="dir_f1dd3ab951341472f6f0525fe7f46f05.html" target="_top" xlink:title="Components">
<polygon fill="#a2b4d6" stroke="#404040" points="228.75,-35.25 157.25,-35.25 157.25,-16 228.75,-16 228.75,-35.25"/>
<text text-anchor="middle" x="193" y="-21.75" font-family="Helvetica,sans-Serif" font-size="10.00">Components</text>
</a>
</g>
</g>
<!-- dir_3eca51afc31ab9312b29b4249736bc7a&#45;&gt;dir_f1dd3ab951341472f6f0525fe7f46f05 -->
<g id="edge7" class="edge">
<title>dir_3eca51afc31ab9312b29b4249736bc7a&#45;&gt;dir_f1dd3ab951341472f6f0525fe7f46f05</title>
<g id="a_edge7"><a xlink:href="dir_000008_000003.html" target="_top">
<path fill="none" stroke="#63b8ff" d="M144.46,-237.84C172.74,-229.21 213.92,-214.68 223,-201 255.37,-152.26 222.96,-79.52 204.25,-45.47"/>
<polygon fill="#63b8ff" stroke="#63b8ff" points="207.3,-43.75 199.3,-36.81 201.23,-47.23 207.3,-43.75"/>
</a>
</g>
<g id="a_edge7&#45;headlabel"><a xlink:href="dir_000008_000003.html" target="_top" xlink:title="28">
<text text-anchor="middle" x="210.8" y="-40.28" font-family="Helvetica,sans-Serif" font-size="10.00" fill="#63b8ff">28</text>
</a>
</g>
</g>
<!-- dir_899058ae01f0eb85e2d1a53e03af8bff -->
<g id="node5" class="node">
<title>dir_899058ae01f0eb85e2d1a53e03af8bff</title>
<g id="a_node5"><a xlink:href="dir_899058ae01f0eb85e2d1a53e03af8bff.html" target="_top" xlink:title="FileSystems">
<polygon fill="#a2b4d6" stroke="#404040" points="113.38,-35.25 42.62,-35.25 42.62,-16 113.38,-16 113.38,-35.25"/>
<text text-anchor="middle" x="78" y="-21.75" font-family="Helvetica,sans-Serif" font-size="10.00">FileSystems</text>
</a>
</g>
</g>
<!-- dir_3eca51afc31ab9312b29b4249736bc7a&#45;&gt;dir_899058ae01f0eb85e2d1a53e03af8bff -->
<g id="edge3" class="edge">
<title>dir_3eca51afc31ab9312b29b4249736bc7a&#45;&gt;dir_899058ae01f0eb85e2d1a53e03af8bff</title>
<g id="a_edge3"><a xlink:href="dir_000008_000010.html" target="_top">
<path fill="none" stroke="#63b8ff" d="M95.24,-237.08C79.65,-229.82 59.46,-217.88 48,-201 33.93,-180.29 39.46,-170.67 37,-145.75 33.35,-108.71 52.66,-68.28 66.03,-45.33"/>
<polygon fill="#63b8ff" stroke="#63b8ff" points="68.98,-47.21 71.2,-36.85 63,-43.57 68.98,-47.21"/>
</a>
</g>
<g id="a_edge3&#45;headlabel"><a xlink:href="dir_000008_000010.html" target="_top" xlink:title="2">
<text text-anchor="middle" x="70.32" y="-46.59" font-family="Helvetica,sans-Serif" font-size="10.00" fill="#63b8ff">2</text>
</a>
</g>
</g>
<!-- dir_05d809685911b910dcd065bcbda36bec -->
<g id="node6" class="node">
<title>dir_05d809685911b910dcd065bcbda36bec</title>
<g id="a_node6"><a xlink:href="dir_05d809685911b910dcd065bcbda36bec.html" target="_top" xlink:title="Media">
<polygon fill="#a2b4d6" stroke="#404040" points="138.12,-201 95.88,-201 95.88,-181.75 138.12,-181.75 138.12,-201"/>
<text text-anchor="middle" x="117" y="-187.5" font-family="Helvetica,sans-Serif" font-size="10.00">Media</text>
</a>
</g>
</g>
<!-- dir_3eca51afc31ab9312b29b4249736bc7a&#45;&gt;dir_05d809685911b910dcd065bcbda36bec -->
<g id="edge1" class="edge">
<title>dir_3eca51afc31ab9312b29b4249736bc7a&#45;&gt;dir_05d809685911b910dcd065bcbda36bec</title>
<g id="a_edge1"><a xlink:href="dir_000008_000014.html" target="_top">
<path fill="none" stroke="#63b8ff" d="M117,-237.3C117,-230.7 117,-221.19 117,-212.61"/>
<polygon fill="#63b8ff" stroke="#63b8ff" points="120.5,-212.68 117,-202.68 113.5,-212.68 120.5,-212.68"/>
</a>
</g>
<g id="a_edge1&#45;headlabel"><a xlink:href="dir_000008_000014.html" target="_top" xlink:title="1">
<text text-anchor="middle" x="123.34" y="-210.89" font-family="Helvetica,sans-Serif" font-size="10.00" fill="#63b8ff">1</text>
</a>
</g>
</g>
<!-- dir_58a291701bf16a57ae56b95613394650 -->
<g id="node7" class="node">
<title>dir_58a291701bf16a57ae56b95613394650</title>
<g id="a_node7"><a xlink:href="dir_58a291701bf16a57ae56b95613394650.html" target="_top" xlink:title="Misc">
<polygon fill="#a2b4d6" stroke="#404040" points="213.5,-201 176.5,-201 176.5,-181.75 213.5,-181.75 213.5,-201"/>
<text text-anchor="middle" x="195" y="-187.5" font-family="Helvetica,sans-Serif" font-size="10.00">Misc</text>
</a>
</g>
</g>
<!-- dir_3eca51afc31ab9312b29b4249736bc7a&#45;&gt;dir_58a291701bf16a57ae56b95613394650 -->
<g id="edge2" class="edge">
<title>dir_3eca51afc31ab9312b29b4249736bc7a&#45;&gt;dir_58a291701bf16a57ae56b95613394650</title>
<g id="a_edge2"><a xlink:href="dir_000008_000016.html" target="_top">
<path fill="none" stroke="#63b8ff" d="M129.53,-237.07C141.04,-229.22 158.36,-217.39 172.3,-207.87"/>
<polygon fill="#63b8ff" stroke="#63b8ff" points="174.18,-210.83 180.47,-202.3 170.23,-205.05 174.18,-210.83"/>
</a>
</g>
<g id="a_edge2&#45;headlabel"><a xlink:href="dir_000008_000016.html" target="_top" xlink:title="1">
<text text-anchor="middle" x="174.06" y="-210.47" font-family="Helvetica,sans-Serif" font-size="10.00" fill="#63b8ff">1</text>
</a>
</g>
</g>
<!-- dir_caa8e5cf067d1e3bd80d413bc762db78 -->
<g id="node8" class="node">
<title>dir_caa8e5cf067d1e3bd80d413bc762db78</title>
<g id="a_node8"><a xlink:href="dir_caa8e5cf067d1e3bd80d413bc762db78.html" target="_top" xlink:title="Peripherals">
<polygon fill="#a2b4d6" stroke="#404040" points="174.38,-90.5 109.62,-90.5 109.62,-71.25 174.38,-71.25 174.38,-90.5"/>
<text text-anchor="middle" x="142" y="-77" font-family="Helvetica,sans-Serif" font-size="10.00">Peripherals</text>
</a>
</g>
</g>
<!-- dir_3eca51afc31ab9312b29b4249736bc7a&#45;&gt;dir_caa8e5cf067d1e3bd80d413bc762db78 -->
<g id="edge6" class="edge">
<title>dir_3eca51afc31ab9312b29b4249736bc7a&#45;&gt;dir_caa8e5cf067d1e3bd80d413bc762db78</title>
<g id="a_edge6"><a xlink:href="dir_000008_000020.html" target="_top">
<path fill="none" stroke="#63b8ff" d="M105.26,-237.11C79.51,-217.38 22.33,-167.1 48,-126.5 59.22,-108.76 79.62,-97.93 98.55,-91.39"/>
<polygon fill="#63b8ff" stroke="#63b8ff" points="99.49,-94.77 108.01,-88.47 97.42,-88.08 99.49,-94.77"/>
</a>
</g>
<g id="a_edge6&#45;headlabel"><a xlink:href="dir_000008_000020.html" target="_top" xlink:title="15">
<text text-anchor="middle" x="98.34" y="-94.22" font-family="Helvetica,sans-Serif" font-size="10.00" fill="#63b8ff">15</text>
</a>
</g>
</g>
<!-- dir_9110424d8d329f8b6a25ed0145171490&#45;&gt;dir_f1dd3ab951341472f6f0525fe7f46f05 -->
<g id="edge9" class="edge">
<title>dir_9110424d8d329f8b6a25ed0145171490&#45;&gt;dir_f1dd3ab951341472f6f0525fe7f46f05</title>
<g id="a_edge9"><a xlink:href="dir_000000_000003.html" target="_top">
<path fill="none" stroke="#63b8ff" d="M169.85,-126.24C169.31,-117.25 171.91,-102.92 174,-90.5 176.48,-75.74 179.09,-59.02 182.29,-46.39"/>
<polygon fill="#63b8ff" stroke="#63b8ff" points="185.53,-47.77 185.12,-37.18 178.84,-45.71 185.53,-47.77"/>
</a>
</g>
<g id="a_edge9&#45;headlabel"><a xlink:href="dir_000000_000003.html" target="_top" xlink:title="12">
<text text-anchor="middle" x="187.64" y="-46.71" font-family="Helvetica,sans-Serif" font-size="10.00" fill="#63b8ff">12</text>
</a>
</g>
</g>
<!-- dir_9110424d8d329f8b6a25ed0145171490&#45;&gt;dir_caa8e5cf067d1e3bd80d413bc762db78 -->
<g id="edge8" class="edge">
<title>dir_9110424d8d329f8b6a25ed0145171490&#45;&gt;dir_caa8e5cf067d1e3bd80d413bc762db78</title>
<g id="a_edge8"><a xlink:href="dir_000000_000020.html" target="_top">
<path fill="none" stroke="#63b8ff" d="M164.38,-126.33C158.64,-119.44 152.09,-109.59 147.3,-100.91"/>
<polygon fill="#63b8ff" stroke="#63b8ff" points="150.58,-99.65 143.03,-92.22 144.29,-102.74 150.58,-99.65"/>
</a>
</g>
<g id="a_edge8&#45;headlabel"><a xlink:href="dir_000000_000020.html" target="_top" xlink:title="9">
<text text-anchor="middle" x="154.04" y="-96.39" font-family="Helvetica,sans-Serif" font-size="10.00" fill="#63b8ff">9</text>
</a>
</g>
</g>
<!-- dir_f1dd3ab951341472f6f0525fe7f46f05&#45;&gt;dir_9110424d8d329f8b6a25ed0145171490 -->
<g id="edge10" class="edge">
<title>dir_f1dd3ab951341472f6f0525fe7f46f05&#45;&gt;dir_9110424d8d329f8b6a25ed0145171490</title>
<g id="a_edge10"><a xlink:href="dir_000003_000000.html" target="_top">
<path fill="none" stroke="#63b8ff" d="M197.71,-35.73C198.77,-48.13 195.27,-71.02 192,-90.5 190.63,-98.65 189.04,-107.62 187.02,-115.37"/>
<polygon fill="#63b8ff" stroke="#63b8ff" points="183.71,-114.21 183.93,-124.81 190.37,-116.39 183.71,-114.21"/>
</a>
</g>
<g id="a_edge10&#45;headlabel"><a xlink:href="dir_000003_000000.html" target="_top" xlink:title="10">
<text text-anchor="middle" x="181.66" y="-107.48" font-family="Helvetica,sans-Serif" font-size="10.00" fill="#63b8ff">10</text>
</a>
</g>
</g>
<!-- dir_05d809685911b910dcd065bcbda36bec&#45;&gt;dir_9110424d8d329f8b6a25ed0145171490 -->
<g id="edge11" class="edge">
<title>dir_05d809685911b910dcd065bcbda36bec&#45;&gt;dir_9110424d8d329f8b6a25ed0145171490</title>
<g id="a_edge11"><a xlink:href="dir_000014_000000.html" target="_top">
<path fill="none" stroke="#63b8ff" d="M126.84,-181.34C135.05,-173.8 146.98,-162.85 156.91,-153.73"/>
<polygon fill="#63b8ff" stroke="#63b8ff" points="159.19,-156.39 164.19,-147.05 154.46,-151.23 159.19,-156.39"/>
</a>
</g>
<g id="a_edge11&#45;headlabel"><a xlink:href="dir_000014_000000.html" target="_top" xlink:title="1">
<text text-anchor="middle" x="159.58" y="-156.01" font-family="Helvetica,sans-Serif" font-size="10.00" fill="#63b8ff">1</text>
</a>
</g>
</g>
<!-- dir_05d809685911b910dcd065bcbda36bec&#45;&gt;dir_c2beb47eaebe98e9380045ecd1929e73 -->
<g id="edge12" class="edge">
<title>dir_05d809685911b910dcd065bcbda36bec&#45;&gt;dir_c2beb47eaebe98e9380045ecd1929e73</title>
<g id="a_edge12"><a xlink:href="dir_000014_000001.html" target="_top">
<path fill="none" stroke="#63b8ff" d="M112.05,-181.58C108.12,-174.61 102.49,-164.62 97.56,-155.87"/>
<polygon fill="#63b8ff" stroke="#63b8ff" points="100.76,-154.42 92.8,-147.43 94.66,-157.86 100.76,-154.42"/>
</a>
</g>
<g id="a_edge12&#45;headlabel"><a xlink:href="dir_000014_000001.html" target="_top" xlink:title="1">
<text text-anchor="middle" x="104.26" y="-150.97" font-family="Helvetica,sans-Serif" font-size="10.00" fill="#63b8ff">1</text>
</a>
</g>
</g>
<!-- dir_05d809685911b910dcd065bcbda36bec&#45;&gt;dir_f1dd3ab951341472f6f0525fe7f46f05 -->
<g id="edge13" class="edge">
<title>dir_05d809685911b910dcd065bcbda36bec&#45;&gt;dir_f1dd3ab951341472f6f0525fe7f46f05</title>
<g id="a_edge13"><a xlink:href="dir_000014_000003.html" target="_top">
<path fill="none" stroke="#63b8ff" d="M120.93,-181.49C125.91,-168.97 133.15,-145.51 127,-126.5 118.65,-100.68 86.59,-94.25 101,-71.25 111.14,-55.05 129.03,-44.59 146.35,-37.9"/>
<polygon fill="#63b8ff" stroke="#63b8ff" points="147.25,-41.29 155.55,-34.7 144.96,-34.67 147.25,-41.29"/>
</a>
</g>
<g id="a_edge13&#45;headlabel"><a xlink:href="dir_000014_000003.html" target="_top" xlink:title="1">
<text text-anchor="middle" x="146.22" y="-40.78" font-family="Helvetica,sans-Serif" font-size="10.00" fill="#63b8ff">1</text>
</a>
</g>
</g>
<!-- dir_58a291701bf16a57ae56b95613394650&#45;&gt;dir_9110424d8d329f8b6a25ed0145171490 -->
<g id="edge15" class="edge">
<title>dir_58a291701bf16a57ae56b95613394650&#45;&gt;dir_9110424d8d329f8b6a25ed0145171490</title>
<g id="a_edge15"><a xlink:href="dir_000016_000000.html" target="_top">
<path fill="none" stroke="#63b8ff" d="M191.7,-181.58C189.17,-174.84 185.57,-165.27 182.37,-156.74"/>
<polygon fill="#63b8ff" stroke="#63b8ff" points="185.7,-155.66 178.91,-147.53 179.15,-158.12 185.7,-155.66"/>
</a>
</g>
<g id="a_edge15&#45;headlabel"><a xlink:href="dir_000016_000000.html" target="_top" xlink:title="2">
<text text-anchor="middle" x="189.09" y="-152.73" font-family="Helvetica,sans-Serif" font-size="10.00" fill="#63b8ff">2</text>
</a>
</g>
</g>
<!-- dir_58a291701bf16a57ae56b95613394650&#45;&gt;dir_f1dd3ab951341472f6f0525fe7f46f05 -->
<g id="edge14" class="edge">
<title>dir_58a291701bf16a57ae56b95613394650&#45;&gt;dir_f1dd3ab951341472f6f0525fe7f46f05</title>
<g id="a_edge14"><a xlink:href="dir_000016_000003.html" target="_top">
<path fill="none" stroke="#63b8ff" d="M197.06,-181.55C199.04,-172.59 201.88,-158.29 203,-145.75 206.09,-111.04 200.82,-70.62 196.83,-46.9"/>
<polygon fill="#63b8ff" stroke="#63b8ff" points="200.28,-46.31 195.08,-37.08 193.39,-47.54 200.28,-46.31"/>
</a>
</g>
<g id="a_edge14&#45;headlabel"><a xlink:href="dir_000016_000003.html" target="_top" xlink:title="1">
<text text-anchor="middle" x="203.44" y="-43.98" font-family="Helvetica,sans-Serif" font-size="10.00" fill="#63b8ff">1</text>
</a>
</g>
</g>
<!-- dir_caa8e5cf067d1e3bd80d413bc762db78&#45;&gt;dir_9110424d8d329f8b6a25ed0145171490 -->
<g id="edge17" class="edge">
<title>dir_caa8e5cf067d1e3bd80d413bc762db78&#45;&gt;dir_9110424d8d329f8b6a25ed0145171490</title>
<g id="a_edge17"><a xlink:href="dir_000020_000000.html" target="_top">
<path fill="none" stroke="#63b8ff" d="M152.77,-90.86C158.47,-97.73 164.93,-107.46 169.68,-116.04"/>
<polygon fill="#63b8ff" stroke="#63b8ff" points="166.51,-117.53 174.05,-124.97 172.8,-114.45 166.51,-117.53"/>
</a>
</g>
<g id="a_edge17&#45;headlabel"><a xlink:href="dir_000020_000000.html" target="_top" xlink:title="4">
<text text-anchor="middle" x="163.04" y="-113.04" font-family="Helvetica,sans-Serif" font-size="10.00" fill="#63b8ff">4</text>
</a>
</g>
</g>
<!-- dir_caa8e5cf067d1e3bd80d413bc762db78&#45;&gt;dir_f1dd3ab951341472f6f0525fe7f46f05 -->
<g id="edge18" class="edge">
<title>dir_caa8e5cf067d1e3bd80d413bc762db78&#45;&gt;dir_f1dd3ab951341472f6f0525fe7f46f05</title>
<g id="a_edge18"><a xlink:href="dir_000020_000003.html" target="_top">
<path fill="none" stroke="#63b8ff" d="M150.42,-71.08C157.54,-63.65 167.94,-52.79 176.69,-43.66"/>
<polygon fill="#63b8ff" stroke="#63b8ff" points="178.96,-46.35 183.35,-36.7 173.9,-41.5 178.96,-46.35"/>
</a>
</g>
<g id="a_edge18&#45;headlabel"><a xlink:href="dir_000020_000003.html" target="_top" xlink:title="3">
<text text-anchor="middle" x="179.57" y="-45.94" font-family="Helvetica,sans-Serif" font-size="10.00" fill="#63b8ff">3</text>
</a>
</g>
</g>
<!-- dir_caa8e5cf067d1e3bd80d413bc762db78&#45;&gt;dir_899058ae01f0eb85e2d1a53e03af8bff -->
<g id="edge16" class="edge">
<title>dir_caa8e5cf067d1e3bd80d413bc762db78&#45;&gt;dir_899058ae01f0eb85e2d1a53e03af8bff</title>
<g id="a_edge16"><a xlink:href="dir_000020_000010.html" target="_top">
<path fill="none" stroke="#63b8ff" d="M131.14,-70.84C121.89,-63.15 108.38,-51.9 97.29,-42.68"/>
<polygon fill="#63b8ff" stroke="#63b8ff" points="99.79,-40.2 89.86,-36.49 95.31,-45.58 99.79,-40.2"/>
</a>
</g>
<g id="a_edge16&#45;headlabel"><a xlink:href="dir_000020_000010.html" target="_top" xlink:title="1">
<text text-anchor="middle" x="103.2" y="-35.47" font-family="Helvetica,sans-Serif" font-size="10.00" fill="#63b8ff">1</text>
</a>
</g>
</g>
<!-- dir_e7bcbed7319f2a350050e6b463e2c1e2 -->
<g id="node9" class="node">
<title>dir_e7bcbed7319f2a350050e6b463e2c1e2</title>
<g id="a_node9"><a xlink:href="dir_e7bcbed7319f2a350050e6b463e2c1e2.html" target="_top" xlink:title="Utilities">
<polygon fill="#a2b4d6" stroke="#404040" points="222.5,-256.25 173.5,-256.25 173.5,-237 222.5,-237 222.5,-256.25"/>
<text text-anchor="middle" x="198" y="-242.75" font-family="Helvetica,sans-Serif" font-size="10.00">Utilities</text>
</a>
</g>
</g>
</g>
</svg>
