<?xml version="1.0" encoding="UTF-8" standalone="no"?>
<!DOCTYPE svg PUBLIC "-//W3C//DTD SVG 1.1//EN"
 "http://www.w3.org/Graphics/SVG/1.1/DTD/svg11.dtd">
<!-- Generated by graphviz version 10.0.1 (20240210.2158)
 -->
<!-- Title: /Users/hoff/Retro/virtualc64/Emulator/Peripherals Pages: 1 -->
<svg width="717pt" height="197pt"
 viewBox="0.00 0.00 717.00 197.00" xmlns="http://www.w3.org/2000/svg" xmlns:xlink="http://www.w3.org/1999/xlink">
<g id="graph0" class="graph" transform="scale(1 1) rotate(0) translate(4 193)">
<title>/Users/hoff/Retro/virtualc64/Emulator/Peripherals</title>
<g id="clust1" class="cluster">
<title>clusterdir_3eca51afc31ab9312b29b4249736bc7a</title>
<g id="a_clust1"><a xlink:href="dir_3eca51afc31ab9312b29b4249736bc7a.html" target="_top" xlink:title="Emulator">
<polygon fill="#edf0f7" stroke="#404040" stroke-dasharray="5,2" points="8,-8 8,-181 701,-181 701,-8 8,-8"/>
<text text-anchor="middle" x="354.5" y="-167.5" font-family="Helvetica,sans-Serif" font-size="10.00">Emulator</text>
</a>
</g>
</g>
<g id="clust2" class="cluster">
<title>clusterdir_caa8e5cf067d1e3bd80d413bc762db78</title>
<g id="a_clust2"><a xlink:href="dir_caa8e5cf067d1e3bd80d413bc762db78.html" target="_top">
<polygon fill="#edf0f7" stroke="#404040" stroke-width="2" points="16,-63.25 16,-153.75 499,-153.75 499,-63.25 16,-63.25"/>
</a>
</g>
</g>
<!-- dir_899058ae01f0eb85e2d1a53e03af8bff -->
<g id="node1" class="node">
<title>dir_899058ae01f0eb85e2d1a53e03af8bff</title>
<g id="a_node1"><a xlink:href="dir_899058ae01f0eb85e2d1a53e03af8bff.html" target="_top" xlink:title="FileSystems">
<polygon fill="#a2b4d6" stroke="#404040" points="577.38,-90.5 506.62,-90.5 506.62,-71.25 577.38,-71.25 577.38,-90.5"/>
<text text-anchor="middle" x="542" y="-77" font-family="Helvetica,sans-Serif" font-size="10.00">FileSystems</text>
</a>
</g>
</g>
<!-- dir_f1dd3ab951341472f6f0525fe7f46f05 -->
<g id="node2" class="node">
<title>dir_f1dd3ab951341472f6f0525fe7f46f05</title>
<g id="a_node2"><a xlink:href="dir_f1dd3ab951341472f6f0525fe7f46f05.html" target="_top" xlink:title="Components">
<polygon fill="#a2b4d6" stroke="red" points="520.75,-35.25 449.25,-35.25 449.25,-16 520.75,-16 520.75,-35.25"/>
<text text-anchor="middle" x="485" y="-21.75" font-family="Helvetica,sans-Serif" font-size="10.00">Components</text>
</a>
</g>
</g>
<!-- dir_9110424d8d329f8b6a25ed0145171490 -->
<g id="node3" class="node">
<title>dir_9110424d8d329f8b6a25ed0145171490</title>
<g id="a_node3"><a xlink:href="dir_9110424d8d329f8b6a25ed0145171490.html" target="_top" xlink:title="Base">
<polygon fill="#a2b4d6" stroke="#404040" points="653.25,-90.5 614.75,-90.5 614.75,-71.25 653.25,-71.25 653.25,-90.5"/>
<text text-anchor="middle" x="634" y="-77" font-family="Helvetica,sans-Serif" font-size="10.00">Base</text>
</a>
</g>
</g>
<!-- dir_caa8e5cf067d1e3bd80d413bc762db78 -->
<g id="node4" class="node">
<title>dir_caa8e5cf067d1e3bd80d413bc762db78</title>
<text text-anchor="middle" x="56" y="-132.25" font-family="Helvetica,sans-Serif" font-size="10.00">Peripherals</text>
</g>
<!-- dir_171317804943a9abfbc511e8231d6d72 -->
<g id="node5" class="node">
<title>dir_171317804943a9abfbc511e8231d6d72</title>
<g id="a_node5"><a xlink:href="dir_171317804943a9abfbc511e8231d6d72.html" target="_top" xlink:title="Datasette">
<polygon fill="#a2b4d6" stroke="#404040" points="292.38,-145.75 233.62,-145.75 233.62,-126.5 292.38,-126.5 292.38,-145.75"/>
<text text-anchor="middle" x="263" y="-132.25" font-family="Helvetica,sans-Serif" font-size="10.00">Datasette</text>
</a>
</g>
</g>
<!-- dir_171317804943a9abfbc511e8231d6d72&#45;&gt;dir_f1dd3ab951341472f6f0525fe7f46f05 -->
<g id="edge2" class="edge">
<title>dir_171317804943a9abfbc511e8231d6d72&#45;&gt;dir_f1dd3ab951341472f6f0525fe7f46f05</title>
<g id="a_edge2"><a xlink:href="dir_000006_000003.html" target="_top">
<path fill="none" stroke="#63b8ff" d="M282.72,-126.05C301.99,-117.14 332.11,-103.09 358,-90.5 392.38,-73.79 431.64,-53.92 457.3,-40.83"/>
<polygon fill="#63b8ff" stroke="#63b8ff" points="458.75,-44.02 466.06,-36.35 455.56,-37.78 458.75,-44.02"/>
</a>
</g>
<g id="a_edge2&#45;headlabel"><a xlink:href="dir_000006_000003.html" target="_top" xlink:title="1">
<text text-anchor="middle" x="458.18" y="-43.62" font-family="Helvetica,sans-Serif" font-size="10.00" fill="#63b8ff">1</text>
</a>
</g>
</g>
<!-- dir_171317804943a9abfbc511e8231d6d72&#45;&gt;dir_9110424d8d329f8b6a25ed0145171490 -->
<g id="edge1" class="edge">
<title>dir_171317804943a9abfbc511e8231d6d72&#45;&gt;dir_9110424d8d329f8b6a25ed0145171490</title>
<g id="a_edge1"><a xlink:href="dir_000006_000000.html" target="_top">
<path fill="none" stroke="#63b8ff" d="M292.82,-128.07C295.58,-127.5 298.34,-126.97 301,-126.5 426.74,-104.34 459.79,-109.8 586,-90.5 591.57,-89.65 597.48,-88.66 603.18,-87.66"/>
<polygon fill="#63b8ff" stroke="#63b8ff" points="603.71,-91.12 612.93,-85.9 602.47,-84.23 603.71,-91.12"/>
</a>
</g>
<g id="a_edge1&#45;headlabel"><a xlink:href="dir_000006_000000.html" target="_top" xlink:title="2">
<text text-anchor="middle" x="602.17" y="-90.41" font-family="Helvetica,sans-Serif" font-size="10.00" fill="#63b8ff">2</text>
</a>
</g>
</g>
<!-- dir_785735119cac6aaae703f4b201f10d8d -->
<g id="node6" class="node">
<title>dir_785735119cac6aaae703f4b201f10d8d</title>
<g id="a_node6"><a xlink:href="dir_785735119cac6aaae703f4b201f10d8d.html" target="_top" xlink:title="Drive">
<polygon fill="#a2b4d6" stroke="#404040" points="349.62,-145.75 310.38,-145.75 310.38,-126.5 349.62,-126.5 349.62,-145.75"/>
<text text-anchor="middle" x="330" y="-132.25" font-family="Helvetica,sans-Serif" font-size="10.00">Drive</text>
</a>
</g>
</g>
<!-- dir_785735119cac6aaae703f4b201f10d8d&#45;&gt;dir_899058ae01f0eb85e2d1a53e03af8bff -->
<g id="edge3" class="edge">
<title>dir_785735119cac6aaae703f4b201f10d8d&#45;&gt;dir_899058ae01f0eb85e2d1a53e03af8bff</title>
<g id="a_edge3"><a xlink:href="dir_000008_000010.html" target="_top">
<path fill="none" stroke="#63b8ff" d="M349.84,-128.85C352.57,-128.03 355.35,-127.23 358,-126.5 404.39,-113.74 457.88,-100.99 495.18,-92.4"/>
<polygon fill="#63b8ff" stroke="#63b8ff" points="495.78,-95.86 504.74,-90.21 494.21,-89.03 495.78,-95.86"/>
</a>
</g>
<g id="a_edge3&#45;headlabel"><a xlink:href="dir_000008_000010.html" target="_top" xlink:title="1">
<text text-anchor="middle" x="494.38" y="-95.21" font-family="Helvetica,sans-Serif" font-size="10.00" fill="#63b8ff">1</text>
</a>
</g>
</g>
<!-- dir_785735119cac6aaae703f4b201f10d8d&#45;&gt;dir_f1dd3ab951341472f6f0525fe7f46f05 -->
<g id="edge5" class="edge">
<title>dir_785735119cac6aaae703f4b201f10d8d&#45;&gt;dir_f1dd3ab951341472f6f0525fe7f46f05</title>
<g id="a_edge5"><a xlink:href="dir_000008_000003.html" target="_top">
<path fill="none" stroke="#63b8ff" d="M350.09,-128.56C352.74,-127.81 355.42,-127.1 358,-126.5 407.97,-114.92 552.68,-129.5 586,-90.5 593.87,-81.29 592.95,-73.17 586,-63.25 573.77,-45.81 552.35,-36.64 532.37,-31.83"/>
<polygon fill="#63b8ff" stroke="#63b8ff" points="533.16,-28.42 522.66,-29.84 531.75,-35.28 533.16,-28.42"/>
</a>
</g>
<g id="a_edge5&#45;headlabel"><a xlink:href="dir_000008_000003.html" target="_top" xlink:title="1">
<text text-anchor="middle" x="535.76" y="-22.18" font-family="Helvetica,sans-Serif" font-size="10.00" fill="#63b8ff">1</text>
</a>
</g>
</g>
<!-- dir_785735119cac6aaae703f4b201f10d8d&#45;&gt;dir_9110424d8d329f8b6a25ed0145171490 -->
<g id="edge4" class="edge">
<title>dir_785735119cac6aaae703f4b201f10d8d&#45;&gt;dir_9110424d8d329f8b6a25ed0145171490</title>
<g id="a_edge4"><a xlink:href="dir_000008_000000.html" target="_top">
<path fill="none" stroke="#63b8ff" d="M350.09,-128.54C352.73,-127.79 355.42,-127.08 358,-126.5 464.48,-102.36 494.03,-112.34 601,-90.5 601.83,-90.33 602.66,-90.15 603.51,-89.97"/>
<polygon fill="#63b8ff" stroke="#63b8ff" points="604.15,-93.42 613.07,-87.69 602.53,-86.61 604.15,-93.42"/>
</a>
</g>
<g id="a_edge4&#45;headlabel"><a xlink:href="dir_000008_000000.html" target="_top" xlink:title="1">
<text text-anchor="middle" x="602.79" y="-92.79" font-family="Helvetica,sans-Serif" font-size="10.00" fill="#63b8ff">1</text>
</a>
</g>
</g>
<!-- dir_8b75e2c966dbd6e9d814cce494bf41c3 -->
<g id="node7" class="node">
<title>dir_8b75e2c966dbd6e9d814cce494bf41c3</title>
<g id="a_node7"><a xlink:href="dir_8b75e2c966dbd6e9d814cce494bf41c3.html" target="_top" xlink:title="Joystick">
<polygon fill="#a2b4d6" stroke="#404040" points="219.38,-90.5 166.62,-90.5 166.62,-71.25 219.38,-71.25 219.38,-90.5"/>
<text text-anchor="middle" x="193" y="-77" font-family="Helvetica,sans-Serif" font-size="10.00">Joystick</text>
</a>
</g>
</g>
<!-- dir_8b75e2c966dbd6e9d814cce494bf41c3&#45;&gt;dir_f1dd3ab951341472f6f0525fe7f46f05 -->
<g id="edge6" class="edge">
<title>dir_8b75e2c966dbd6e9d814cce494bf41c3&#45;&gt;dir_f1dd3ab951341472f6f0525fe7f46f05</title>
<g id="a_edge6"><a xlink:href="dir_000011_000003.html" target="_top">
<path fill="none" stroke="#63b8ff" d="M206.85,-70.81C211.77,-67.97 217.47,-65.1 223,-63.25 295.29,-39.1 383.95,-30.87 437.39,-28.07"/>
<polygon fill="#63b8ff" stroke="#63b8ff" points="437.55,-31.56 447.37,-27.59 437.21,-24.57 437.55,-31.56"/>
</a>
</g>
<g id="a_edge6&#45;headlabel"><a xlink:href="dir_000011_000003.html" target="_top" xlink:title="1">
<text text-anchor="middle" x="435.6" y="-30.62" font-family="Helvetica,sans-Serif" font-size="10.00" fill="#63b8ff">1</text>
</a>
</g>
</g>
<!-- dir_ad57646ff3c58b38e572ff2f8562525c -->
<g id="node8" class="node">
<title>dir_ad57646ff3c58b38e572ff2f8562525c</title>
<g id="a_node8"><a xlink:href="dir_ad57646ff3c58b38e572ff2f8562525c.html" target="_top" xlink:title="Keyboard">
<polygon fill="#a2b4d6" stroke="#404040" points="424.62,-145.75 367.38,-145.75 367.38,-126.5 424.62,-126.5 424.62,-145.75"/>
<text text-anchor="middle" x="396" y="-132.25" font-family="Helvetica,sans-Serif" font-size="10.00">Keyboard</text>
</a>
</g>
</g>
<!-- dir_ad57646ff3c58b38e572ff2f8562525c&#45;&gt;dir_f1dd3ab951341472f6f0525fe7f46f05 -->
<g id="edge8" class="edge">
<title>dir_ad57646ff3c58b38e572ff2f8562525c&#45;&gt;dir_f1dd3ab951341472f6f0525fe7f46f05</title>
<g id="a_edge8"><a xlink:href="dir_000012_000003.html" target="_top">
<path fill="none" stroke="#63b8ff" d="M425,-128.33C428.04,-127.69 431.08,-127.06 434,-126.5 484.37,-116.82 628.68,-129.5 662,-90.5 700.34,-45.63 596.43,-32.28 531.94,-28.31"/>
<polygon fill="#63b8ff" stroke="#63b8ff" points="532.48,-24.83 522.3,-27.77 532.09,-31.82 532.48,-24.83"/>
</a>
</g>
<g id="a_edge8&#45;headlabel"><a xlink:href="dir_000012_000003.html" target="_top" xlink:title="1">
<text text-anchor="middle" x="534.71" y="-18.24" font-family="Helvetica,sans-Serif" font-size="10.00" fill="#63b8ff">1</text>
</a>
</g>
</g>
<!-- dir_ad57646ff3c58b38e572ff2f8562525c&#45;&gt;dir_9110424d8d329f8b6a25ed0145171490 -->
<g id="edge7" class="edge">
<title>dir_ad57646ff3c58b38e572ff2f8562525c&#45;&gt;dir_9110424d8d329f8b6a25ed0145171490</title>
<g id="a_edge7"><a xlink:href="dir_000012_000000.html" target="_top">
<path fill="none" stroke="#63b8ff" d="M425.04,-128.5C428.06,-127.82 431.09,-127.14 434,-126.5 508.13,-110.1 527.14,-108.1 601,-90.5 601.82,-90.3 602.65,-90.1 603.49,-89.9"/>
<polygon fill="#63b8ff" stroke="#63b8ff" points="604.18,-93.33 613.02,-87.49 602.47,-86.55 604.18,-93.33"/>
</a>
</g>
<g id="a_edge7&#45;headlabel"><a xlink:href="dir_000012_000000.html" target="_top" xlink:title="1">
<text text-anchor="middle" x="602.86" y="-92.72" font-family="Helvetica,sans-Serif" font-size="10.00" fill="#63b8ff">1</text>
</a>
</g>
</g>
<!-- dir_6d3b13d2604c41986d39132f8f547f0b -->
<g id="node9" class="node">
<title>dir_6d3b13d2604c41986d39132f8f547f0b</title>
<g id="a_node9"><a xlink:href="dir_6d3b13d2604c41986d39132f8f547f0b.html" target="_top" xlink:title="Monitor">
<polygon fill="#a2b4d6" stroke="#404040" points="491.12,-145.75 442.88,-145.75 442.88,-126.5 491.12,-126.5 491.12,-145.75"/>
<text text-anchor="middle" x="467" y="-132.25" font-family="Helvetica,sans-Serif" font-size="10.00">Monitor</text>
</a>
</g>
</g>
<!-- dir_6d3b13d2604c41986d39132f8f547f0b&#45;&gt;dir_f1dd3ab951341472f6f0525fe7f46f05 -->
<g id="edge9" class="edge">
<title>dir_6d3b13d2604c41986d39132f8f547f0b&#45;&gt;dir_f1dd3ab951341472f6f0525fe7f46f05</title>
<g id="a_edge9"><a xlink:href="dir_000016_000003.html" target="_top">
<path fill="none" stroke="#63b8ff" d="M491.26,-133.68C541.42,-130.13 653.84,-119.1 677,-90.5 717.49,-40.5 601.77,-29.35 532.63,-27.05"/>
<polygon fill="#63b8ff" stroke="#63b8ff" points="532.74,-23.55 522.65,-26.78 532.55,-30.55 532.74,-23.55"/>
</a>
</g>
<g id="a_edge9&#45;headlabel"><a xlink:href="dir_000016_000003.html" target="_top" xlink:title="1">
<text text-anchor="middle" x="534.9" y="-16.9" font-family="Helvetica,sans-Serif" font-size="10.00" fill="#63b8ff">1</text>
</a>
</g>
</g>
<!-- dir_71c828aa706dc687262082dc30a81d57 -->
<g id="node10" class="node">
<title>dir_71c828aa706dc687262082dc30a81d57</title>
<g id="a_node10"><a xlink:href="dir_71c828aa706dc687262082dc30a81d57.html" target="_top" xlink:title="Mouse">
<polygon fill="#a2b4d6" stroke="#404040" points="151.62,-145.75 106.38,-145.75 106.38,-126.5 151.62,-126.5 151.62,-145.75"/>
<text text-anchor="middle" x="129" y="-132.25" font-family="Helvetica,sans-Serif" font-size="10.00">Mouse</text>
</a>
</g>
</g>
<!-- dir_71c828aa706dc687262082dc30a81d57&#45;&gt;dir_8b75e2c966dbd6e9d814cce494bf41c3 -->
<g id="edge10" class="edge">
<title>dir_71c828aa706dc687262082dc30a81d57&#45;&gt;dir_8b75e2c966dbd6e9d814cce494bf41c3</title>
<g id="a_edge10"><a xlink:href="dir_000017_000011.html" target="_top">
<path fill="none" stroke="#63b8ff" d="M139.86,-126.09C149.11,-118.4 162.62,-107.15 173.71,-97.93"/>
<polygon fill="#63b8ff" stroke="#63b8ff" points="175.69,-100.83 181.14,-91.74 171.21,-95.45 175.69,-100.83"/>
</a>
</g>
<g id="a_edge10&#45;headlabel"><a xlink:href="dir_000017_000011.html" target="_top" xlink:title="1">
<text text-anchor="middle" x="175.91" y="-100.47" font-family="Helvetica,sans-Serif" font-size="10.00" fill="#63b8ff">1</text>
</a>
</g>
</g>
<!-- dir_9068981ac05c97c919bc9e7910fe0c7d -->
<g id="node11" class="node">
<title>dir_9068981ac05c97c919bc9e7910fe0c7d</title>
<g id="a_node11"><a xlink:href="dir_9068981ac05c97c919bc9e7910fe0c7d.html" target="_top" xlink:title="Paddle">
<polygon fill="#a2b4d6" stroke="#404040" points="216,-145.75 170,-145.75 170,-126.5 216,-126.5 216,-145.75"/>
<text text-anchor="middle" x="193" y="-132.25" font-family="Helvetica,sans-Serif" font-size="10.00">Paddle</text>
</a>
</g>
</g>
<!-- dir_9068981ac05c97c919bc9e7910fe0c7d&#45;&gt;dir_f1dd3ab951341472f6f0525fe7f46f05 -->
<g id="edge12" class="edge">
<title>dir_9068981ac05c97c919bc9e7910fe0c7d&#45;&gt;dir_f1dd3ab951341472f6f0525fe7f46f05</title>
<g id="a_edge12"><a xlink:href="dir_000018_000003.html" target="_top">
<path fill="none" stroke="#63b8ff" d="M211.49,-126.13C241.67,-111.65 303.62,-82.84 358,-63.25 384.09,-53.85 413.85,-45.16 438.01,-38.61"/>
<polygon fill="#63b8ff" stroke="#63b8ff" points="438.8,-42.02 447.56,-36.05 436.99,-35.26 438.8,-42.02"/>
</a>
</g>
<g id="a_edge12&#45;headlabel"><a xlink:href="dir_000018_000003.html" target="_top" xlink:title="1">
<text text-anchor="middle" x="437.53" y="-41.42" font-family="Helvetica,sans-Serif" font-size="10.00" fill="#63b8ff">1</text>
</a>
</g>
</g>
<!-- dir_9068981ac05c97c919bc9e7910fe0c7d&#45;&gt;dir_8b75e2c966dbd6e9d814cce494bf41c3 -->
<g id="edge11" class="edge">
<title>dir_9068981ac05c97c919bc9e7910fe0c7d&#45;&gt;dir_8b75e2c966dbd6e9d814cce494bf41c3</title>
<g id="a_edge11"><a xlink:href="dir_000018_000011.html" target="_top">
<path fill="none" stroke="#63b8ff" d="M193,-126.33C193,-119.82 193,-110.67 193,-102.37"/>
<polygon fill="#63b8ff" stroke="#63b8ff" points="196.5,-102.37 193,-92.37 189.5,-102.37 196.5,-102.37"/>
</a>
</g>
<g id="a_edge11&#45;headlabel"><a xlink:href="dir_000018_000011.html" target="_top" xlink:title="1">
<text text-anchor="middle" x="199.34" y="-100.58" font-family="Helvetica,sans-Serif" font-size="10.00" fill="#63b8ff">1</text>
</a>
</g>
</g>
</g>
</svg>
