<?xml version="1.0" encoding="UTF-8" standalone="no"?>
<!DOCTYPE svg PUBLIC "-//W3C//DTD SVG 1.1//EN"
 "http://www.w3.org/Graphics/SVG/1.1/DTD/svg11.dtd">
<!-- Generated by graphviz version 10.0.1 (20240210.2158)
 -->
<!-- Title: /Users/hoff/Retro/virtualc64/Emulator Pages: 1 -->
<svg width="258pt" height="280pt"
 viewBox="0.00 0.00 258.00 280.25" xmlns="http://www.w3.org/2000/svg" xmlns:xlink="http://www.w3.org/1999/xlink">
<g id="graph0" class="graph" transform="scale(1 1) rotate(0) translate(4 276.25)">
<title>/Users/hoff/Retro/virtualc64/Emulator</title>
<g id="clust1" class="cluster">
<title>clusterdir_3eca51afc31ab9312b29b4249736bc7a</title>
<g id="a_clust1"><a xlink:href="dir_3eca51afc31ab9312b29b4249736bc7a.html" target="_top">
<polygon fill="#edf0f7" stroke="#404040" stroke-width="2" points="8,-8 8,-264.25 242,-264.25 242,-8 8,-8"/>
</a>
</g>
</g>
<!-- dir_3eca51afc31ab9312b29b4249736bc7a -->
<g id="node1" class="node">
<title>dir_3eca51afc31ab9312b29b4249736bc7a</title>
<text text-anchor="middle" x="137" y="-242.75" font-family="Helvetica,sans-Serif" font-size="10.00">Emulator</text>
</g>
<!-- dir_9110424d8d329f8b6a25ed0145171490 -->
<g id="node2" class="node">
<title>dir_9110424d8d329f8b6a25ed0145171490</title>
<g id="a_node2"><a xlink:href="dir_9110424d8d329f8b6a25ed0145171490.html" target="_top" xlink:title="Base">
<polygon fill="#a2b4d6" stroke="#404040" points="174.25,-145.75 135.75,-145.75 135.75,-126.5 174.25,-126.5 174.25,-145.75"/>
<text text-anchor="middle" x="155" y="-132.25" font-family="Helvetica,sans-Serif" font-size="10.00">Base</text>
</a>
</g>
</g>
<!-- dir_3eca51afc31ab9312b29b4249736bc7a&#45;&gt;dir_9110424d8d329f8b6a25ed0145171490 -->
<g id="edge4" class="edge">
<title>dir_3eca51afc31ab9312b29b4249736bc7a&#45;&gt;dir_9110424d8d329f8b6a25ed0145171490</title>
<g id="a_edge4"><a xlink:href="dir_000008_000000.html" target="_top">
<path fill="none" stroke="#63b8ff" d="M138.41,-237.11C141.24,-220.09 147.65,-181.44 151.62,-157.48"/>
<polygon fill="#63b8ff" stroke="#63b8ff" points="155.06,-158.14 153.25,-147.7 148.16,-156.99 155.06,-158.14"/>
</a>
</g>
<g id="a_edge4&#45;headlabel"><a xlink:href="dir_000008_000000.html" target="_top" xlink:title="16">
<text text-anchor="middle" x="157.52" y="-156.78" font-family="Helvetica,sans-Serif" font-size="10.00" fill="#63b8ff">16</text>
</a>
</g>
</g>
<!-- dir_c2beb47eaebe98e9380045ecd1929e73 -->
<g id="node3" class="node">
<title>dir_c2beb47eaebe98e9380045ecd1929e73</title>
<g id="a_node3"><a xlink:href="dir_c2beb47eaebe98e9380045ecd1929e73.html" target="_top" xlink:title="Cartridges">
<polygon fill="#a2b4d6" stroke="#404040" points="97.5,-145.75 36.5,-145.75 36.5,-126.5 97.5,-126.5 97.5,-145.75"/>
<text text-anchor="middle" x="67" y="-132.25" font-family="Helvetica,sans-Serif" font-size="10.00">Cartridges</text>
</a>
</g>
</g>
<!-- dir_3eca51afc31ab9312b29b4249736bc7a&#45;&gt;dir_c2beb47eaebe98e9380045ecd1929e73 -->
<g id="edge5" class="edge">
<title>dir_3eca51afc31ab9312b29b4249736bc7a&#45;&gt;dir_c2beb47eaebe98e9380045ecd1929e73</title>
<g id="a_edge5"><a xlink:href="dir_000008_000001.html" target="_top">
<path fill="none" stroke="#63b8ff" d="M112.19,-237.04C96.16,-230.04 76.56,-218.44 67,-201 59.73,-187.74 60.2,-170.47 62.24,-157.24"/>
<polygon fill="#63b8ff" stroke="#63b8ff" points="65.65,-158.02 64.17,-147.53 58.79,-156.65 65.65,-158.02"/>
</a>
</g>
<g id="a_edge5&#45;headlabel"><a xlink:href="dir_000008_000001.html" target="_top" xlink:title="2">
<text text-anchor="middle" x="68.03" y="-156.74" font-family="Helvetica,sans-Serif" font-size="10.00" fill="#63b8ff">2</text>
</a>
</g>
</g>
<!-- dir_f1dd3ab951341472f6f0525fe7f46f05 -->
<g id="node4" class="node">
<title>dir_f1dd3ab951341472f6f0525fe7f46f05</title>
<g id="a_node4"><a xlink:href="dir_f1dd3ab951341472f6f0525fe7f46f05.html" target="_top" xlink:title="Components">
<polygon fill="#a2b4d6" stroke="#404040" points="145.75,-35.25 74.25,-35.25 74.25,-16 145.75,-16 145.75,-35.25"/>
<text text-anchor="middle" x="110" y="-21.75" font-family="Helvetica,sans-Serif" font-size="10.00">Components</text>
</a>
</g>
</g>
<!-- dir_3eca51afc31ab9312b29b4249736bc7a&#45;&gt;dir_f1dd3ab951341472f6f0525fe7f46f05 -->
<g id="edge7" class="edge">
<title>dir_3eca51afc31ab9312b29b4249736bc7a&#45;&gt;dir_f1dd3ab951341472f6f0525fe7f46f05</title>
<g id="a_edge7"><a xlink:href="dir_000008_000003.html" target="_top">
<path fill="none" stroke="#63b8ff" d="M114.42,-237.13C97.05,-229.7 73.32,-217.51 57,-201 37.35,-181.13 33.88,-172.83 27,-145.75 16.18,-103.13 58.64,-63.29 86.8,-42.22"/>
<polygon fill="#63b8ff" stroke="#63b8ff" points="88.74,-45.14 94.82,-36.46 84.65,-39.45 88.74,-45.14"/>
</a>
</g>
<g id="a_edge7&#45;headlabel"><a xlink:href="dir_000008_000003.html" target="_top" xlink:title="25">
<text text-anchor="middle" x="88.7" y="-44.78" font-family="Helvetica,sans-Serif" font-size="10.00" fill="#63b8ff">25</text>
</a>
</g>
</g>
<!-- dir_899058ae01f0eb85e2d1a53e03af8bff -->
<g id="node5" class="node">
<title>dir_899058ae01f0eb85e2d1a53e03af8bff</title>
<g id="a_node5"><a xlink:href="dir_899058ae01f0eb85e2d1a53e03af8bff.html" target="_top" xlink:title="FileSystems">
<polygon fill="#a2b4d6" stroke="#404040" points="234.38,-35.25 163.62,-35.25 163.62,-16 234.38,-16 234.38,-35.25"/>
<text text-anchor="middle" x="199" y="-21.75" font-family="Helvetica,sans-Serif" font-size="10.00">FileSystems</text>
</a>
</g>
</g>
<!-- dir_3eca51afc31ab9312b29b4249736bc7a&#45;&gt;dir_899058ae01f0eb85e2d1a53e03af8bff -->
<g id="edge3" class="edge">
<title>dir_3eca51afc31ab9312b29b4249736bc7a&#45;&gt;dir_899058ae01f0eb85e2d1a53e03af8bff</title>
<g id="a_edge3"><a xlink:href="dir_000008_000010.html" target="_top">
<path fill="none" stroke="#63b8ff" d="M163.57,-237.02C180.13,-230.11 200.12,-218.62 210,-201 238,-151.06 218.73,-79.97 206.68,-46.07"/>
<polygon fill="#63b8ff" stroke="#63b8ff" points="210.12,-45.27 203.33,-37.14 203.56,-47.73 210.12,-45.27"/>
</a>
</g>
<g id="a_edge3&#45;headlabel"><a xlink:href="dir_000008_000010.html" target="_top" xlink:title="2">
<text text-anchor="middle" x="213.51" y="-42.35" font-family="Helvetica,sans-Serif" font-size="10.00" fill="#63b8ff">2</text>
</a>
</g>
</g>
<!-- dir_05d809685911b910dcd065bcbda36bec -->
<g id="node6" class="node">
<title>dir_05d809685911b910dcd065bcbda36bec</title>
<g id="a_node6"><a xlink:href="dir_05d809685911b910dcd065bcbda36bec.html" target="_top" xlink:title="Media">
<polygon fill="#a2b4d6" stroke="#404040" points="118.12,-201 75.88,-201 75.88,-181.75 118.12,-181.75 118.12,-201"/>
<text text-anchor="middle" x="97" y="-187.5" font-family="Helvetica,sans-Serif" font-size="10.00">Media</text>
</a>
</g>
</g>
<!-- dir_3eca51afc31ab9312b29b4249736bc7a&#45;&gt;dir_05d809685911b910dcd065bcbda36bec -->
<g id="edge1" class="edge">
<title>dir_3eca51afc31ab9312b29b4249736bc7a&#45;&gt;dir_05d809685911b910dcd065bcbda36bec</title>
<g id="a_edge1"><a xlink:href="dir_000008_000014.html" target="_top">
<path fill="none" stroke="#63b8ff" d="M130.75,-237.3C125.33,-230.09 117.29,-219.39 110.42,-210.25"/>
<polygon fill="#63b8ff" stroke="#63b8ff" points="113.32,-208.27 104.51,-202.38 107.72,-212.48 113.32,-208.27"/>
</a>
</g>
<g id="a_edge1&#45;headlabel"><a xlink:href="dir_000008_000014.html" target="_top" xlink:title="1">
<text text-anchor="middle" x="116.84" y="-204.36" font-family="Helvetica,sans-Serif" font-size="10.00" fill="#63b8ff">1</text>
</a>
</g>
</g>
<!-- dir_58a291701bf16a57ae56b95613394650 -->
<g id="node7" class="node">
<title>dir_58a291701bf16a57ae56b95613394650</title>
<g id="a_node7"><a xlink:href="dir_58a291701bf16a57ae56b95613394650.html" target="_top" xlink:title="Misc">
<polygon fill="#a2b4d6" stroke="#404040" points="193.5,-201 156.5,-201 156.5,-181.75 193.5,-181.75 193.5,-201"/>
<text text-anchor="middle" x="175" y="-187.5" font-family="Helvetica,sans-Serif" font-size="10.00">Misc</text>
</a>
</g>
</g>
<!-- dir_3eca51afc31ab9312b29b4249736bc7a&#45;&gt;dir_58a291701bf16a57ae56b95613394650 -->
<g id="edge2" class="edge">
<title>dir_3eca51afc31ab9312b29b4249736bc7a&#45;&gt;dir_58a291701bf16a57ae56b95613394650</title>
<g id="a_edge2"><a xlink:href="dir_000008_000016.html" target="_top">
<path fill="none" stroke="#63b8ff" d="M142.94,-237.3C148.03,-230.16 155.56,-219.62 162.04,-210.54"/>
<polygon fill="#63b8ff" stroke="#63b8ff" points="164.89,-212.57 167.85,-202.4 159.19,-208.51 164.89,-212.57"/>
</a>
</g>
<g id="a_edge2&#45;headlabel"><a xlink:href="dir_000008_000016.html" target="_top" xlink:title="1">
<text text-anchor="middle" x="165.99" y="-212.04" font-family="Helvetica,sans-Serif" font-size="10.00" fill="#63b8ff">1</text>
</a>
</g>
</g>
<!-- dir_caa8e5cf067d1e3bd80d413bc762db78 -->
<g id="node8" class="node">
<title>dir_caa8e5cf067d1e3bd80d413bc762db78</title>
<g id="a_node8"><a xlink:href="dir_caa8e5cf067d1e3bd80d413bc762db78.html" target="_top" xlink:title="Peripherals">
<polygon fill="#a2b4d6" stroke="#404040" points="193.38,-90.5 128.62,-90.5 128.62,-71.25 193.38,-71.25 193.38,-90.5"/>
<text text-anchor="middle" x="161" y="-77" font-family="Helvetica,sans-Serif" font-size="10.00">Peripherals</text>
</a>
</g>
</g>
<!-- dir_3eca51afc31ab9312b29b4249736bc7a&#45;&gt;dir_caa8e5cf067d1e3bd80d413bc762db78 -->
<g id="edge6" class="edge">
<title>dir_3eca51afc31ab9312b29b4249736bc7a&#45;&gt;dir_caa8e5cf067d1e3bd80d413bc762db78</title>
<g id="a_edge6"><a xlink:href="dir_000008_000019.html" target="_top">
<path fill="none" stroke="#63b8ff" d="M159.45,-237.13C174.76,-230.01 193.85,-218.22 203,-201 221.08,-166.95 194.53,-123.5 176.11,-99.61"/>
<polygon fill="#63b8ff" stroke="#63b8ff" points="179.06,-97.68 170.05,-92.1 173.61,-102.08 179.06,-97.68"/>
</a>
</g>
<g id="a_edge6&#45;headlabel"><a xlink:href="dir_000008_000019.html" target="_top" xlink:title="15">
<text text-anchor="middle" x="182.57" y="-93.64" font-family="Helvetica,sans-Serif" font-size="10.00" fill="#63b8ff">15</text>
</a>
</g>
</g>
<!-- dir_9110424d8d329f8b6a25ed0145171490&#45;&gt;dir_f1dd3ab951341472f6f0525fe7f46f05 -->
<g id="edge9" class="edge">
<title>dir_9110424d8d329f8b6a25ed0145171490&#45;&gt;dir_f1dd3ab951341472f6f0525fe7f46f05</title>
<g id="a_edge9"><a xlink:href="dir_000000_000003.html" target="_top">
<path fill="none" stroke="#63b8ff" d="M138.6,-126.14C128.48,-117.73 117.05,-104.41 111,-90.5 105.02,-76.76 102.56,-59.98 102.85,-47.07"/>
<polygon fill="#63b8ff" stroke="#63b8ff" points="106.32,-47.51 103.87,-37.2 99.36,-46.79 106.32,-47.51"/>
</a>
</g>
<g id="a_edge9&#45;headlabel"><a xlink:href="dir_000000_000003.html" target="_top" xlink:title="10">
<text text-anchor="middle" x="108.93" y="-46" font-family="Helvetica,sans-Serif" font-size="10.00" fill="#63b8ff">10</text>
</a>
</g>
</g>
<!-- dir_9110424d8d329f8b6a25ed0145171490&#45;&gt;dir_caa8e5cf067d1e3bd80d413bc762db78 -->
<g id="edge8" class="edge">
<title>dir_9110424d8d329f8b6a25ed0145171490&#45;&gt;dir_caa8e5cf067d1e3bd80d413bc762db78</title>
<g id="a_edge8"><a xlink:href="dir_000000_000019.html" target="_top">
<path fill="none" stroke="#63b8ff" d="M150.82,-126.33C150.15,-119.67 150.75,-110.24 152.2,-101.78"/>
<polygon fill="#63b8ff" stroke="#63b8ff" points="155.54,-102.87 154.43,-92.33 148.73,-101.26 155.54,-102.87"/>
</a>
</g>
<g id="a_edge8&#45;headlabel"><a xlink:href="dir_000000_000019.html" target="_top" xlink:title="9">
<text text-anchor="middle" x="157.83" y="-101.67" font-family="Helvetica,sans-Serif" font-size="10.00" fill="#63b8ff">9</text>
</a>
</g>
</g>
<!-- dir_f1dd3ab951341472f6f0525fe7f46f05&#45;&gt;dir_9110424d8d329f8b6a25ed0145171490 -->
<g id="edge10" class="edge">
<title>dir_f1dd3ab951341472f6f0525fe7f46f05&#45;&gt;dir_9110424d8d329f8b6a25ed0145171490</title>
<g id="a_edge10"><a xlink:href="dir_000003_000000.html" target="_top">
<path fill="none" stroke="#63b8ff" d="M115.97,-35.7C119.31,-48.45 121.03,-72.18 129,-90.5 133.2,-100.17 140.02,-109.56 145.86,-117.21"/>
<polygon fill="#63b8ff" stroke="#63b8ff" points="142.91,-119.11 151.76,-124.94 148.47,-114.86 142.91,-119.11"/>
</a>
</g>
<g id="a_edge10&#45;headlabel"><a xlink:href="dir_000003_000000.html" target="_top" xlink:title="7">
<text text-anchor="middle" x="139.39" y="-115.31" font-family="Helvetica,sans-Serif" font-size="10.00" fill="#63b8ff">7</text>
</a>
</g>
</g>
<!-- dir_05d809685911b910dcd065bcbda36bec&#45;&gt;dir_c2beb47eaebe98e9380045ecd1929e73 -->
<g id="edge11" class="edge">
<title>dir_05d809685911b910dcd065bcbda36bec&#45;&gt;dir_c2beb47eaebe98e9380045ecd1929e73</title>
<g id="a_edge11"><a xlink:href="dir_000014_000001.html" target="_top">
<path fill="none" stroke="#63b8ff" d="M92.05,-181.58C88.12,-174.61 82.49,-164.62 77.56,-155.87"/>
<polygon fill="#63b8ff" stroke="#63b8ff" points="80.76,-154.42 72.8,-147.43 74.66,-157.86 80.76,-154.42"/>
</a>
</g>
<g id="a_edge11&#45;headlabel"><a xlink:href="dir_000014_000001.html" target="_top" xlink:title="1">
<text text-anchor="middle" x="84.26" y="-150.97" font-family="Helvetica,sans-Serif" font-size="10.00" fill="#63b8ff">1</text>
</a>
</g>
</g>
<!-- dir_05d809685911b910dcd065bcbda36bec&#45;&gt;dir_f1dd3ab951341472f6f0525fe7f46f05 -->
<g id="edge12" class="edge">
<title>dir_05d809685911b910dcd065bcbda36bec&#45;&gt;dir_f1dd3ab951341472f6f0525fe7f46f05</title>
<g id="a_edge12"><a xlink:href="dir_000014_000003.html" target="_top">
<path fill="none" stroke="#63b8ff" d="M99.51,-181.57C101.93,-172.64 105.44,-158.36 107,-145.75 109.28,-127.24 109.84,-75.7 109.97,-46.85"/>
<polygon fill="#63b8ff" stroke="#63b8ff" points="113.47,-47.24 110,-37.23 106.47,-47.21 113.47,-47.24"/>
</a>
</g>
<g id="a_edge12&#45;headlabel"><a xlink:href="dir_000014_000003.html" target="_top" xlink:title="1">
<text text-anchor="middle" x="116.3" y="-45.45" font-family="Helvetica,sans-Serif" font-size="10.00" fill="#63b8ff">1</text>
</a>
</g>
</g>
<!-- dir_58a291701bf16a57ae56b95613394650&#45;&gt;dir_9110424d8d329f8b6a25ed0145171490 -->
<g id="edge14" class="edge">
<title>dir_58a291701bf16a57ae56b95613394650&#45;&gt;dir_9110424d8d329f8b6a25ed0145171490</title>
<g id="a_edge14"><a xlink:href="dir_000016_000000.html" target="_top">
<path fill="none" stroke="#63b8ff" d="M171.7,-181.58C169.17,-174.84 165.57,-165.27 162.37,-156.74"/>
<polygon fill="#63b8ff" stroke="#63b8ff" points="165.7,-155.66 158.91,-147.53 159.15,-158.12 165.7,-155.66"/>
</a>
</g>
<g id="a_edge14&#45;headlabel"><a xlink:href="dir_000016_000000.html" target="_top" xlink:title="2">
<text text-anchor="middle" x="169.09" y="-152.73" font-family="Helvetica,sans-Serif" font-size="10.00" fill="#63b8ff">2</text>
</a>
</g>
</g>
<!-- dir_58a291701bf16a57ae56b95613394650&#45;&gt;dir_f1dd3ab951341472f6f0525fe7f46f05 -->
<g id="edge13" class="edge">
<title>dir_58a291701bf16a57ae56b95613394650&#45;&gt;dir_f1dd3ab951341472f6f0525fe7f46f05</title>
<g id="a_edge13"><a xlink:href="dir_000016_000003.html" target="_top">
<path fill="none" stroke="#63b8ff" d="M181.13,-181.56C194.78,-160.73 224.74,-107.55 202,-71.25 191.86,-55.05 173.97,-44.59 156.65,-37.9"/>
<polygon fill="#63b8ff" stroke="#63b8ff" points="158.04,-34.67 147.45,-34.7 155.75,-41.29 158.04,-34.67"/>
</a>
</g>
<g id="a_edge13&#45;headlabel"><a xlink:href="dir_000016_000003.html" target="_top" xlink:title="1">
<text text-anchor="middle" x="160.94" y="-28.8" font-family="Helvetica,sans-Serif" font-size="10.00" fill="#63b8ff">1</text>
</a>
</g>
</g>
<!-- dir_caa8e5cf067d1e3bd80d413bc762db78&#45;&gt;dir_9110424d8d329f8b6a25ed0145171490 -->
<g id="edge16" class="edge">
<title>dir_caa8e5cf067d1e3bd80d413bc762db78&#45;&gt;dir_9110424d8d329f8b6a25ed0145171490</title>
<g id="a_edge16"><a xlink:href="dir_000019_000000.html" target="_top">
<path fill="none" stroke="#63b8ff" d="M165.19,-90.86C165.84,-97.5 165.24,-106.8 163.81,-115.17"/>
<polygon fill="#63b8ff" stroke="#63b8ff" points="160.41,-114.32 161.51,-124.86 167.22,-115.94 160.41,-114.32"/>
</a>
</g>
<g id="a_edge16&#45;headlabel"><a xlink:href="dir_000019_000000.html" target="_top" xlink:title="3">
<text text-anchor="middle" x="158.13" y="-107.77" font-family="Helvetica,sans-Serif" font-size="10.00" fill="#63b8ff">3</text>
</a>
</g>
</g>
<!-- dir_caa8e5cf067d1e3bd80d413bc762db78&#45;&gt;dir_f1dd3ab951341472f6f0525fe7f46f05 -->
<g id="edge17" class="edge">
<title>dir_caa8e5cf067d1e3bd80d413bc762db78&#45;&gt;dir_f1dd3ab951341472f6f0525fe7f46f05</title>
<g id="a_edge17"><a xlink:href="dir_000019_000003.html" target="_top">
<path fill="none" stroke="#63b8ff" d="M152.58,-71.08C145.46,-63.65 135.06,-52.79 126.31,-43.66"/>
<polygon fill="#63b8ff" stroke="#63b8ff" points="129.1,-41.5 119.65,-36.7 124.04,-46.35 129.1,-41.5"/>
</a>
</g>
<g id="a_edge17&#45;headlabel"><a xlink:href="dir_000019_000003.html" target="_top" xlink:title="3">
<text text-anchor="middle" x="132.59" y="-37.17" font-family="Helvetica,sans-Serif" font-size="10.00" fill="#63b8ff">3</text>
</a>
</g>
</g>
<!-- dir_caa8e5cf067d1e3bd80d413bc762db78&#45;&gt;dir_899058ae01f0eb85e2d1a53e03af8bff -->
<g id="edge15" class="edge">
<title>dir_caa8e5cf067d1e3bd80d413bc762db78&#45;&gt;dir_899058ae01f0eb85e2d1a53e03af8bff</title>
<g id="a_edge15"><a xlink:href="dir_000019_000010.html" target="_top">
<path fill="none" stroke="#63b8ff" d="M167.27,-71.08C172.36,-63.96 179.7,-53.68 186.03,-44.8"/>
<polygon fill="#63b8ff" stroke="#63b8ff" points="188.75,-47.01 191.71,-36.84 183.05,-42.95 188.75,-47.01"/>
</a>
</g>
<g id="a_edge15&#45;headlabel"><a xlink:href="dir_000019_000010.html" target="_top" xlink:title="1">
<text text-anchor="middle" x="189.85" y="-46.48" font-family="Helvetica,sans-Serif" font-size="10.00" fill="#63b8ff">1</text>
</a>
</g>
</g>
<!-- dir_e7bcbed7319f2a350050e6b463e2c1e2 -->
<g id="node9" class="node">
<title>dir_e7bcbed7319f2a350050e6b463e2c1e2</title>
<g id="a_node9"><a xlink:href="dir_e7bcbed7319f2a350050e6b463e2c1e2.html" target="_top" xlink:title="Utilities">
<polygon fill="#a2b4d6" stroke="#404040" points="232.5,-256.25 183.5,-256.25 183.5,-237 232.5,-237 232.5,-256.25"/>
<text text-anchor="middle" x="208" y="-242.75" font-family="Helvetica,sans-Serif" font-size="10.00">Utilities</text>
</a>
</g>
</g>
</g>
</svg>
