<?xml version="1.0" encoding="UTF-8" standalone="no"?>
<!DOCTYPE svg PUBLIC "-//W3C//DTD SVG 1.1//EN"
 "http://www.w3.org/Graphics/SVG/1.1/DTD/svg11.dtd">
<!-- Generated by graphviz version 10.0.1 (20240210.2158)
 -->
<!-- Title: /Users/hoff/Retro/virtualc64/Emulator/Components/SID/resid/envelope.cc Pages: 1 -->
<svg width="149pt" height="216pt"
 viewBox="0.00 0.00 148.62 215.50" xmlns="http://www.w3.org/2000/svg" xmlns:xlink="http://www.w3.org/1999/xlink">
<g id="graph0" class="graph" transform="scale(1 1) rotate(0) translate(4 211.5)">
<title>/Users/hoff/Retro/virtualc64/Emulator/Components/SID/resid/envelope.cc</title>
<!-- Node1 -->
<g id="Node000001" class="node">
<title>Node1</title>
<g id="a_Node000001"><a xlink:title=" ">
<polygon fill="#999999" stroke="#666666" points="140.62,-207.5 3.88,-207.5 3.88,-165.75 140.62,-165.75 140.62,-207.5"/>
<text text-anchor="start" x="11.88" y="-194" font-family="Helvetica,sans-Serif" font-size="10.00">/Users/hoff/Retro/virtualc64</text>
<text text-anchor="start" x="11.88" y="-182.75" font-family="Helvetica,sans-Serif" font-size="10.00">/Emulator/Components/SID</text>
<text text-anchor="middle" x="72.25" y="-171.5" font-family="Helvetica,sans-Serif" font-size="10.00">/resid/envelope.cc</text>
</a>
</g>
</g>
<!-- Node2 -->
<g id="Node000002" class="node">
<title>Node2</title>
<g id="a_Node000002"><a xlink:href="envelope_8h.html" target="_top" xlink:title=" ">
<polygon fill="white" stroke="#666666" points="68.88,-129.75 5.62,-129.75 5.62,-110.5 68.88,-110.5 68.88,-129.75"/>
<text text-anchor="middle" x="37.25" y="-116.25" font-family="Helvetica,sans-Serif" font-size="10.00">envelope.h</text>
</a>
</g>
</g>
<!-- Node1&#45;&gt;Node2 -->
<g id="edge1_Node000001_Node000002" class="edge">
<title>Node1&#45;&gt;Node2</title>
<g id="a_edge1_Node000001_Node000002"><a xlink:title=" ">
<path fill="none" stroke="#63b8ff" d="M61.37,-165.57C56.95,-157.43 51.88,-148.08 47.53,-140.07"/>
<polygon fill="#63b8ff" stroke="#63b8ff" points="50.74,-138.65 42.89,-131.53 44.59,-141.98 50.74,-138.65"/>
</a>
</g>
</g>
<!-- Node5 -->
<g id="Node000005" class="node">
<title>Node5</title>
<g id="a_Node000005"><a xlink:href="dac_8h.html" target="_top" xlink:title=" ">
<polygon fill="white" stroke="#666666" points="127.25,-129.75 87.25,-129.75 87.25,-110.5 127.25,-110.5 127.25,-129.75"/>
<text text-anchor="middle" x="107.25" y="-116.25" font-family="Helvetica,sans-Serif" font-size="10.00">dac.h</text>
</a>
</g>
</g>
<!-- Node1&#45;&gt;Node5 -->
<g id="edge4_Node000001_Node000005" class="edge">
<title>Node1&#45;&gt;Node5</title>
<g id="a_edge4_Node000001_Node000005"><a xlink:title=" ">
<path fill="none" stroke="#63b8ff" d="M83.13,-165.57C87.55,-157.43 92.62,-148.08 96.97,-140.07"/>
<polygon fill="#63b8ff" stroke="#63b8ff" points="99.91,-141.98 101.61,-131.53 93.76,-138.65 99.91,-141.98"/>
</a>
</g>
</g>
<!-- Node3 -->
<g id="Node000003" class="node">
<title>Node3</title>
<g id="a_Node000003"><a xlink:href="resid-config_8h.html" target="_top" xlink:title=" ">
<polygon fill="white" stroke="#666666" points="74.5,-74.5 0,-74.5 0,-55.25 74.5,-55.25 74.5,-74.5"/>
<text text-anchor="middle" x="37.25" y="-61" font-family="Helvetica,sans-Serif" font-size="10.00">resid&#45;config.h</text>
</a>
</g>
</g>
<!-- Node2&#45;&gt;Node3 -->
<g id="edge2_Node000002_Node000003" class="edge">
<title>Node2&#45;&gt;Node3</title>
<g id="a_edge2_Node000002_Node000003"><a xlink:title=" ">
<path fill="none" stroke="#63b8ff" d="M37.25,-110.33C37.25,-103.82 37.25,-94.67 37.25,-86.37"/>
<polygon fill="#63b8ff" stroke="#63b8ff" points="40.75,-86.37 37.25,-76.37 33.75,-86.37 40.75,-86.37"/>
</a>
</g>
</g>
<!-- Node4 -->
<g id="Node000004" class="node">
<title>Node4</title>
<g id="a_Node000004"><a xlink:href="siddefs_8h.html" target="_top" xlink:title=" ">
<polygon fill="white" stroke="#666666" points="65.12,-19.25 9.38,-19.25 9.38,0 65.12,0 65.12,-19.25"/>
<text text-anchor="middle" x="37.25" y="-5.75" font-family="Helvetica,sans-Serif" font-size="10.00">siddefs.h</text>
</a>
</g>
</g>
<!-- Node3&#45;&gt;Node4 -->
<g id="edge3_Node000003_Node000004" class="edge">
<title>Node3&#45;&gt;Node4</title>
<g id="a_edge3_Node000003_Node000004"><a xlink:title=" ">
<path fill="none" stroke="#63b8ff" d="M37.25,-55.08C37.25,-48.57 37.25,-39.42 37.25,-31.12"/>
<polygon fill="#63b8ff" stroke="#63b8ff" points="40.75,-31.12 37.25,-21.12 33.75,-31.12 40.75,-31.12"/>
</a>
</g>
</g>
</g>
</svg>
