<?xml version="1.0" encoding="UTF-8" standalone="no"?>
<!DOCTYPE svg PUBLIC "-//W3C//DTD SVG 1.1//EN"
 "http://www.w3.org/Graphics/SVG/1.1/DTD/svg11.dtd">
<!-- Generated by graphviz version 10.0.1 (20240210.2158)
 -->
<!-- Title: /Users/hoff/Retro/virtualc64/Emulator/Components/SID/resid/filter.cc Pages: 1 -->
<svg width="256pt" height="216pt"
 viewBox="0.00 0.00 256.25 215.50" xmlns="http://www.w3.org/2000/svg" xmlns:xlink="http://www.w3.org/1999/xlink">
<g id="graph0" class="graph" transform="scale(1 1) rotate(0) translate(4 211.5)">
<title>/Users/hoff/Retro/virtualc64/Emulator/Components/SID/resid/filter.cc</title>
<!-- Node1 -->
<g id="Node000001" class="node">
<title>Node1</title>
<g id="a_Node000001"><a xlink:title=" ">
<polygon fill="#999999" stroke="#666666" points="195.62,-207.5 58.88,-207.5 58.88,-165.75 195.62,-165.75 195.62,-207.5"/>
<text text-anchor="start" x="66.88" y="-194" font-family="Helvetica,sans-Serif" font-size="10.00">/Users/hoff/Retro/virtualc64</text>
<text text-anchor="start" x="66.88" y="-182.75" font-family="Helvetica,sans-Serif" font-size="10.00">/Emulator/Components/SID</text>
<text text-anchor="middle" x="127.25" y="-171.5" font-family="Helvetica,sans-Serif" font-size="10.00">/resid/filter.cc</text>
</a>
</g>
</g>
<!-- Node2 -->
<g id="Node000002" class="node">
<title>Node2</title>
<g id="a_Node000002"><a xlink:href="filter_8h.html" target="_top" xlink:title=" ">
<polygon fill="white" stroke="#666666" points="58.38,-129.75 16.12,-129.75 16.12,-110.5 58.38,-110.5 58.38,-129.75"/>
<text text-anchor="middle" x="37.25" y="-116.25" font-family="Helvetica,sans-Serif" font-size="10.00">filter.h</text>
</a>
</g>
</g>
<!-- Node1&#45;&gt;Node2 -->
<g id="edge1_Node000001_Node000002" class="edge">
<title>Node1&#45;&gt;Node2</title>
<g id="a_edge1_Node000001_Node000002"><a xlink:title=" ">
<path fill="none" stroke="#63b8ff" d="M99.27,-165.57C86.37,-156.33 71.28,-145.51 59.21,-136.87"/>
<polygon fill="#63b8ff" stroke="#63b8ff" points="61.3,-134.06 51.14,-131.08 57.23,-139.75 61.3,-134.06"/>
</a>
</g>
</g>
<!-- Node5 -->
<g id="Node000005" class="node">
<title>Node5</title>
<g id="a_Node000005"><a xlink:href="dac_8h.html" target="_top" xlink:title=" ">
<polygon fill="white" stroke="#666666" points="116.25,-129.75 76.25,-129.75 76.25,-110.5 116.25,-110.5 116.25,-129.75"/>
<text text-anchor="middle" x="96.25" y="-116.25" font-family="Helvetica,sans-Serif" font-size="10.00">dac.h</text>
</a>
</g>
</g>
<!-- Node1&#45;&gt;Node5 -->
<g id="edge4_Node000001_Node000005" class="edge">
<title>Node1&#45;&gt;Node5</title>
<g id="a_edge4_Node000001_Node000005"><a xlink:title=" ">
<path fill="none" stroke="#63b8ff" d="M117.61,-165.57C113.75,-157.53 109.31,-148.3 105.48,-140.34"/>
<polygon fill="#63b8ff" stroke="#63b8ff" points="108.75,-139.06 101.27,-131.56 102.44,-142.09 108.75,-139.06"/>
</a>
</g>
</g>
<!-- Node6 -->
<g id="Node000006" class="node">
<title>Node6</title>
<g id="a_Node000006"><a xlink:href="spline_8h.html" target="_top" xlink:title=" ">
<polygon fill="white" stroke="#666666" points="184.12,-129.75 134.38,-129.75 134.38,-110.5 184.12,-110.5 184.12,-129.75"/>
<text text-anchor="middle" x="159.25" y="-116.25" font-family="Helvetica,sans-Serif" font-size="10.00">spline.h</text>
</a>
</g>
</g>
<!-- Node1&#45;&gt;Node6 -->
<g id="edge5_Node000001_Node000006" class="edge">
<title>Node1&#45;&gt;Node6</title>
<g id="a_edge5_Node000001_Node000006"><a xlink:title=" ">
<path fill="none" stroke="#63b8ff" d="M137.2,-165.57C141.19,-157.53 145.77,-148.3 149.72,-140.34"/>
<polygon fill="#63b8ff" stroke="#63b8ff" points="152.77,-142.06 154.08,-131.55 146.5,-138.95 152.77,-142.06"/>
</a>
</g>
</g>
<!-- Node7 -->
<g id="Node000007" class="node">
<title>Node7</title>
<g id="a_Node000007"><a xlink:title=" ">
<polygon fill="#e0e0e0" stroke="#999999" points="248.25,-129.75 202.25,-129.75 202.25,-110.5 248.25,-110.5 248.25,-129.75"/>
<text text-anchor="middle" x="225.25" y="-116.25" font-family="Helvetica,sans-Serif" font-size="10.00">math.h</text>
</a>
</g>
</g>
<!-- Node1&#45;&gt;Node7 -->
<g id="edge6_Node000001_Node000007" class="edge">
<title>Node1&#45;&gt;Node7</title>
<g id="a_edge6_Node000001_Node000007"><a xlink:title=" ">
<path fill="none" stroke="#63b8ff" d="M157.99,-165.39C172.3,-155.97 189.04,-144.96 202.24,-136.27"/>
<polygon fill="#63b8ff" stroke="#63b8ff" points="203.85,-139.4 210.28,-130.98 200,-133.55 203.85,-139.4"/>
</a>
</g>
</g>
<!-- Node3 -->
<g id="Node000003" class="node">
<title>Node3</title>
<g id="a_Node000003"><a xlink:href="resid-config_8h.html" target="_top" xlink:title=" ">
<polygon fill="white" stroke="#666666" points="74.5,-74.5 0,-74.5 0,-55.25 74.5,-55.25 74.5,-74.5"/>
<text text-anchor="middle" x="37.25" y="-61" font-family="Helvetica,sans-Serif" font-size="10.00">resid&#45;config.h</text>
</a>
</g>
</g>
<!-- Node2&#45;&gt;Node3 -->
<g id="edge2_Node000002_Node000003" class="edge">
<title>Node2&#45;&gt;Node3</title>
<g id="a_edge2_Node000002_Node000003"><a xlink:title=" ">
<path fill="none" stroke="#63b8ff" d="M37.25,-110.33C37.25,-103.82 37.25,-94.67 37.25,-86.37"/>
<polygon fill="#63b8ff" stroke="#63b8ff" points="40.75,-86.37 37.25,-76.37 33.75,-86.37 40.75,-86.37"/>
</a>
</g>
</g>
<!-- Node4 -->
<g id="Node000004" class="node">
<title>Node4</title>
<g id="a_Node000004"><a xlink:href="siddefs_8h.html" target="_top" xlink:title=" ">
<polygon fill="white" stroke="#666666" points="65.12,-19.25 9.38,-19.25 9.38,0 65.12,0 65.12,-19.25"/>
<text text-anchor="middle" x="37.25" y="-5.75" font-family="Helvetica,sans-Serif" font-size="10.00">siddefs.h</text>
</a>
</g>
</g>
<!-- Node3&#45;&gt;Node4 -->
<g id="edge3_Node000003_Node000004" class="edge">
<title>Node3&#45;&gt;Node4</title>
<g id="a_edge3_Node000003_Node000004"><a xlink:title=" ">
<path fill="none" stroke="#63b8ff" d="M37.25,-55.08C37.25,-48.57 37.25,-39.42 37.25,-31.12"/>
<polygon fill="#63b8ff" stroke="#63b8ff" points="40.75,-31.12 37.25,-21.12 33.75,-31.12 40.75,-31.12"/>
</a>
</g>
</g>
</g>
</svg>
