<?xml version="1.0" encoding="UTF-8" standalone="no"?>
<!DOCTYPE svg PUBLIC "-//W3C//DTD SVG 1.1//EN"
 "http://www.w3.org/Graphics/SVG/1.1/DTD/svg11.dtd">
<!-- Generated by graphviz version 10.0.1 (20240210.2158)
 -->
<!-- Title: Graphical Class Hierarchy Pages: 1 -->
<svg width="211pt" height="101pt"
 viewBox="0.00 0.00 211.00 101.25" xmlns="http://www.w3.org/2000/svg" xmlns:xlink="http://www.w3.org/1999/xlink">
<g id="graph0" class="graph" transform="scale(1 1) rotate(0) translate(4 97.25)">
<title>Graphical Class Hierarchy</title>
<!-- Node0 -->
<g id="Node000000" class="node">
<title>Node0</title>
<g id="a_Node000000"><a xlink:href="classvc64_1_1_option_parser.html" target="_top" xlink:title=" ">
<polygon fill="white" stroke="#666666" points="73,-56.25 0,-56.25 0,-37 73,-37 73,-56.25"/>
<text text-anchor="middle" x="36.5" y="-42.75" font-family="Helvetica,sans-Serif" font-size="10.00">OptionParser</text>
</a>
</g>
</g>
<!-- Node1 -->
<g id="Node000001" class="node">
<title>Node1</title>
<g id="a_Node000001"><a xlink:href="classvc64_1_1_bool_parser.html" target="_top" xlink:title=" ">
<polygon fill="white" stroke="#666666" points="188,-93.25 124,-93.25 124,-74 188,-74 188,-93.25"/>
<text text-anchor="middle" x="156" y="-79.75" font-family="Helvetica,sans-Serif" font-size="10.00">BoolParser</text>
</a>
</g>
</g>
<!-- Node0&#45;&gt;Node1 -->
<g id="edge200_Node000000_Node000001" class="edge">
<title>Node0&#45;&gt;Node1</title>
<g id="a_edge200_Node000000_Node000001"><a xlink:title=" ">
<path fill="none" stroke="#63b8ff" d="M80.27,-60.09C94.65,-64.62 110.42,-69.59 123.74,-73.78"/>
<polygon fill="#63b8ff" stroke="#63b8ff" points="81.64,-56.86 71.05,-57.19 79.54,-63.53 81.64,-56.86"/>
</a>
</g>
</g>
<!-- Node2 -->
<g id="Node000002" class="node">
<title>Node2</title>
<g id="a_Node000002"><a xlink:href="classvc64_1_1_enum_parser.html" target="_top" xlink:title=" ">
<polygon fill="white" stroke="#666666" points="203,-56.25 109,-56.25 109,-37 203,-37 203,-56.25"/>
<text text-anchor="middle" x="156" y="-42.75" font-family="Helvetica,sans-Serif" font-size="10.00">EnumParser&lt; T &gt;</text>
</a>
</g>
</g>
<!-- Node0&#45;&gt;Node2 -->
<g id="edge201_Node000000_Node000002" class="edge">
<title>Node0&#45;&gt;Node2</title>
<g id="a_edge201_Node000000_Node000002"><a xlink:title=" ">
<path fill="none" stroke="#63b8ff" d="M84.77,-46.62C92.73,-46.62 100.98,-46.62 108.91,-46.62"/>
<polygon fill="#63b8ff" stroke="#63b8ff" points="84.91,-43.13 74.91,-46.63 84.91,-50.13 84.91,-43.13"/>
</a>
</g>
</g>
<!-- Node3 -->
<g id="Node000003" class="node">
<title>Node3</title>
<g id="a_Node000003"><a xlink:href="classvc64_1_1_num_parser.html" target="_top" xlink:title=" ">
<polygon fill="white" stroke="#666666" points="188.75,-19.25 123.25,-19.25 123.25,0 188.75,0 188.75,-19.25"/>
<text text-anchor="middle" x="156" y="-5.75" font-family="Helvetica,sans-Serif" font-size="10.00">NumParser</text>
</a>
</g>
</g>
<!-- Node0&#45;&gt;Node3 -->
<g id="edge202_Node000000_Node000003" class="edge">
<title>Node0&#45;&gt;Node3</title>
<g id="a_edge202_Node000000_Node000003"><a xlink:title=" ">
<path fill="none" stroke="#63b8ff" d="M80.51,-33.08C94.54,-28.66 109.85,-23.84 122.93,-19.72"/>
<polygon fill="#63b8ff" stroke="#63b8ff" points="79.54,-29.72 71.05,-36.06 81.64,-36.39 79.54,-29.72"/>
</a>
</g>
</g>
</g>
</svg>
