<?xml version="1.0" encoding="UTF-8" standalone="no"?>
<!DOCTYPE svg PUBLIC "-//W3C//DTD SVG 1.1//EN"
 "http://www.w3.org/Graphics/SVG/1.1/DTD/svg11.dtd">
<!-- Generated by graphviz version 10.0.1 (20240210.2158)
 -->
<!-- Title: Graphical Class Hierarchy Pages: 1 -->
<svg width="189pt" height="101pt"
 viewBox="0.00 0.00 189.25 101.25" xmlns="http://www.w3.org/2000/svg" xmlns:xlink="http://www.w3.org/1999/xlink">
<g id="graph0" class="graph" transform="scale(1 1) rotate(0) translate(4 97.25)">
<title>Graphical Class Hierarchy</title>
<!-- Node0 -->
<g id="Node000000" class="node">
<title>Node0</title>
<g id="a_Node000000"><a xlink:title=" ">
<polygon fill="#e0e0e0" stroke="#999999" points="68.88,-93.25 3.38,-93.25 3.38,-74 68.88,-74 68.88,-93.25"/>
<text text-anchor="middle" x="36.12" y="-79.75" font-family="Helvetica,sans-Serif" font-size="10.00">CoreObject</text>
</a>
</g>
</g>
<!-- Node1 -->
<g id="Node000001" class="node">
<title>Node1</title>
<g id="a_Node000001"><a xlink:href="classvc64_1_1_thread.html" target="_top" xlink:title="Implements the emulator&#39;s state model.">
<polygon fill="white" stroke="#666666" points="181.25,-56.25 108.25,-56.25 108.25,-37 181.25,-37 181.25,-56.25"/>
<text text-anchor="middle" x="144.75" y="-42.75" font-family="Helvetica,sans-Serif" font-size="10.00">vc64::Thread</text>
</a>
</g>
</g>
<!-- Node0&#45;&gt;Node1 -->
<g id="edge20_Node000000_Node000001" class="edge">
<title>Node0&#45;&gt;Node1</title>
<g id="a_edge20_Node000000_Node000001"><a xlink:title=" ">
<path fill="none" stroke="#63b8ff" d="M76.91,-69.82C89.43,-65.47 103.02,-60.76 114.65,-56.72"/>
<polygon fill="#63b8ff" stroke="#63b8ff" points="75.99,-66.43 67.69,-73.02 78.29,-73.05 75.99,-66.43"/>
</a>
</g>
</g>
<!-- Node2 -->
<g id="Node000002" class="node">
<title>Node2</title>
<g id="a_Node000002"><a xlink:title=" ">
<polygon fill="#e0e0e0" stroke="#999999" points="72.25,-56.25 0,-56.25 0,-37 72.25,-37 72.25,-56.25"/>
<text text-anchor="middle" x="36.12" y="-42.75" font-family="Helvetica,sans-Serif" font-size="10.00">Suspendable</text>
</a>
</g>
</g>
<!-- Node2&#45;&gt;Node1 -->
<g id="edge21_Node000002_Node000001" class="edge">
<title>Node2&#45;&gt;Node1</title>
<g id="a_edge21_Node000002_Node000001"><a xlink:title=" ">
<path fill="none" stroke="#63b8ff" d="M83.87,-46.62C91.98,-46.62 100.29,-46.62 108.04,-46.62"/>
<polygon fill="#63b8ff" stroke="#63b8ff" points="84.14,-43.13 74.14,-46.63 84.14,-50.13 84.14,-43.13"/>
</a>
</g>
</g>
<!-- Node3 -->
<g id="Node000003" class="node">
<title>Node3</title>
<g id="a_Node000003"><a xlink:title=" ">
<polygon fill="#e0e0e0" stroke="#999999" points="65.5,-19.25 6.75,-19.25 6.75,0 65.5,0 65.5,-19.25"/>
<text text-anchor="middle" x="36.12" y="-5.75" font-family="Helvetica,sans-Serif" font-size="10.00">Wakeable</text>
</a>
</g>
</g>
<!-- Node3&#45;&gt;Node1 -->
<g id="edge22_Node000003_Node000001" class="edge">
<title>Node3&#45;&gt;Node1</title>
<g id="a_edge22_Node000003_Node000001"><a xlink:title=" ">
<path fill="none" stroke="#8b1a1a" d="M76.73,-23.37C89.38,-27.76 103.14,-32.53 114.87,-36.6"/>
<polygon fill="#8b1a1a" stroke="#8b1a1a" points="78,-20.11 67.41,-20.13 75.71,-26.72 78,-20.11"/>
</a>
</g>
</g>
</g>
</svg>
