<?xml version="1.0" encoding="UTF-8" standalone="no"?>
<!DOCTYPE svg PUBLIC "-//W3C//DTD SVG 1.1//EN"
 "http://www.w3.org/Graphics/SVG/1.1/DTD/svg11.dtd">
<!-- Generated by graphviz version 10.0.1 (20240210.2158)
 -->
<!-- Title: Graphical Class Hierarchy Pages: 1 -->
<svg width="252pt" height="693pt"
 viewBox="0.00 0.00 251.50 693.25" xmlns="http://www.w3.org/2000/svg" xmlns:xlink="http://www.w3.org/1999/xlink">
<g id="graph0" class="graph" transform="scale(1 1) rotate(0) translate(4 689.25)">
<title>Graphical Class Hierarchy</title>
<!-- Node0 -->
<g id="Node000000" class="node">
<title>Node0</title>
<g id="a_Node000000"><a xlink:title=" ">
<polygon fill="#e0e0e0" stroke="#999999" points="32.5,-352.25 0,-352.25 0,-333 32.5,-333 32.5,-352.25"/>
<text text-anchor="middle" x="16.25" y="-338.75" font-family="Helvetica,sans-Serif" font-size="10.00">API</text>
</a>
</g>
</g>
<!-- Node1 -->
<g id="Node000001" class="node">
<title>Node1</title>
<g id="a_Node000001"><a xlink:href="struct_virtual_c64_1_1_c64___a_p_i.html" target="_top" xlink:title=" ">
<polygon fill="white" stroke="#666666" points="209.75,-685.25 102.25,-685.25 102.25,-666 209.75,-666 209.75,-685.25"/>
<text text-anchor="middle" x="156" y="-671.75" font-family="Helvetica,sans-Serif" font-size="10.00">VirtualC64::C64_API</text>
</a>
</g>
</g>
<!-- Node0&#45;&gt;Node1 -->
<g id="edge1_Node000000_Node000001" class="edge">
<title>Node0&#45;&gt;Node1</title>
<g id="a_edge1_Node000000_Node000001"><a xlink:title=" ">
<path fill="none" stroke="#63b8ff" d="M17.69,-364.09C19.44,-428.02 28,-615.31 68.5,-657.62 77.3,-666.82 89.49,-671.95 101.94,-674.68"/>
<polygon fill="#63b8ff" stroke="#63b8ff" points="21.19,-364.15 17.45,-354.24 14.19,-364.32 21.19,-364.15"/>
</a>
</g>
</g>
<!-- Node2 -->
<g id="Node000002" class="node">
<title>Node2</title>
<g id="a_Node000002"><a xlink:href="struct_virtual_c64_1_1_c_i_a___a_p_i.html" target="_top" xlink:title=" ">
<polygon fill="white" stroke="#666666" points="209.38,-648.25 102.62,-648.25 102.62,-629 209.38,-629 209.38,-648.25"/>
<text text-anchor="middle" x="156" y="-634.75" font-family="Helvetica,sans-Serif" font-size="10.00">VirtualC64::CIA_API</text>
</a>
</g>
</g>
<!-- Node0&#45;&gt;Node2 -->
<g id="edge2_Node000000_Node000002" class="edge">
<title>Node0&#45;&gt;Node2</title>
<g id="a_edge2_Node000000_Node000002"><a xlink:title=" ">
<path fill="none" stroke="#63b8ff" d="M18.21,-364.22C21.26,-423.03 32.78,-584.08 68.5,-620.62 77.51,-629.84 89.92,-634.94 102.52,-637.65"/>
<polygon fill="#63b8ff" stroke="#63b8ff" points="21.7,-364.06 17.72,-354.24 14.71,-364.4 21.7,-364.06"/>
</a>
</g>
</g>
<!-- Node3 -->
<g id="Node000003" class="node">
<title>Node3</title>
<g id="a_Node000003"><a xlink:href="struct_virtual_c64_1_1_c_p_u___a_p_i.html" target="_top" xlink:title=" ">
<polygon fill="white" stroke="#666666" points="211.62,-611.25 100.38,-611.25 100.38,-592 211.62,-592 211.62,-611.25"/>
<text text-anchor="middle" x="156" y="-597.75" font-family="Helvetica,sans-Serif" font-size="10.00">VirtualC64::CPU_API</text>
</a>
</g>
</g>
<!-- Node0&#45;&gt;Node3 -->
<g id="edge3_Node000000_Node000003" class="edge">
<title>Node0&#45;&gt;Node3</title>
<g id="a_edge3_Node000000_Node000003"><a xlink:title=" ">
<path fill="none" stroke="#63b8ff" d="M18.84,-363.76C23.24,-416.64 37.42,-552.68 68.5,-583.62 76.98,-592.07 88.32,-597.04 99.99,-599.86"/>
<polygon fill="#63b8ff" stroke="#63b8ff" points="22.34,-363.68 18.06,-353.98 15.36,-364.23 22.34,-363.68"/>
</a>
</g>
</g>
<!-- Node4 -->
<g id="Node000004" class="node">
<title>Node4</title>
<g id="a_Node000004"><a xlink:href="struct_virtual_c64_1_1_c_p___a_p_i.html" target="_top" xlink:title=" ">
<polygon fill="white" stroke="#666666" points="207.88,-574.25 104.12,-574.25 104.12,-555 207.88,-555 207.88,-574.25"/>
<text text-anchor="middle" x="156" y="-560.75" font-family="Helvetica,sans-Serif" font-size="10.00">VirtualC64::CP_API</text>
</a>
</g>
</g>
<!-- Node0&#45;&gt;Node4 -->
<g id="edge4_Node000000_Node000004" class="edge">
<title>Node0&#45;&gt;Node4</title>
<g id="a_edge4_Node000000_Node000004"><a xlink:title=" ">
<path fill="none" stroke="#63b8ff" d="M19.74,-363.9C25.67,-410.89 42.14,-521.32 68.5,-546.62 78.02,-555.76 90.9,-560.79 103.82,-563.44"/>
<polygon fill="#63b8ff" stroke="#63b8ff" points="23.24,-363.7 18.56,-354.2 16.29,-364.55 23.24,-363.7"/>
</a>
</g>
</g>
<!-- Node5 -->
<g id="Node000005" class="node">
<title>Node5</title>
<g id="a_Node000005"><a xlink:href="struct_virtual_c64_1_1_d_a_t_a_s_e_t_t_e___a_p_i.html" target="_top" xlink:title=" ">
<polygon fill="white" stroke="#666666" points="229.25,-537.25 82.75,-537.25 82.75,-518 229.25,-518 229.25,-537.25"/>
<text text-anchor="middle" x="156" y="-523.75" font-family="Helvetica,sans-Serif" font-size="10.00">VirtualC64::DATASETTE_API</text>
</a>
</g>
</g>
<!-- Node0&#45;&gt;Node5 -->
<g id="edge5_Node000000_Node000005" class="edge">
<title>Node0&#45;&gt;Node5</title>
<g id="a_edge5_Node000000_Node000005"><a xlink:title=" ">
<path fill="none" stroke="#63b8ff" d="M17.28,-364.14C18.56,-399.9 26.58,-471.42 68.5,-509.62 72.69,-513.45 77.48,-516.54 82.61,-519.04"/>
<polygon fill="#63b8ff" stroke="#63b8ff" points="20.78,-364.15 17.09,-354.22 13.78,-364.29 20.78,-364.15"/>
</a>
</g>
</g>
<!-- Node6 -->
<g id="Node000006" class="node">
<title>Node6</title>
<g id="a_Node000006"><a xlink:href="struct_virtual_c64_1_1_d_i_s_k___a_p_i.html" target="_top" xlink:title=" ">
<polygon fill="white" stroke="#666666" points="212.75,-500.25 99.25,-500.25 99.25,-481 212.75,-481 212.75,-500.25"/>
<text text-anchor="middle" x="156" y="-486.75" font-family="Helvetica,sans-Serif" font-size="10.00">VirtualC64::DISK_API</text>
</a>
</g>
</g>
<!-- Node0&#45;&gt;Node6 -->
<g id="edge6_Node000000_Node000006" class="edge">
<title>Node0&#45;&gt;Node6</title>
<g id="a_edge6_Node000000_Node000006"><a xlink:title=" ">
<path fill="none" stroke="#63b8ff" d="M19.45,-363.87C23.64,-392.99 35.53,-444.85 68.5,-472.62 77.18,-479.94 88.07,-484.53 99.17,-487.36"/>
<polygon fill="#63b8ff" stroke="#63b8ff" points="22.94,-363.59 18.24,-354.09 15.99,-364.45 22.94,-363.59"/>
</a>
</g>
</g>
<!-- Node7 -->
<g id="Node000007" class="node">
<title>Node7</title>
<g id="a_Node000007"><a xlink:href="struct_virtual_c64_1_1_d_m_a___d_e_b_u_g_g_e_r___a_p_i.html" target="_top" xlink:title=" ">
<polygon fill="white" stroke="#666666" points="243.5,-463.25 68.5,-463.25 68.5,-444 243.5,-444 243.5,-463.25"/>
<text text-anchor="middle" x="156" y="-449.75" font-family="Helvetica,sans-Serif" font-size="10.00">VirtualC64::DMA_DEBUGGER_API</text>
</a>
</g>
</g>
<!-- Node0&#45;&gt;Node7 -->
<g id="edge7_Node000000_Node000007" class="edge">
<title>Node0&#45;&gt;Node7</title>
<g id="a_edge7_Node000000_Node000007"><a xlink:title=" ">
<path fill="none" stroke="#63b8ff" d="M23.07,-363.49C30.17,-384.98 44.34,-417.78 68.5,-435.62 72.82,-438.81 77.57,-441.47 82.56,-443.67"/>
<polygon fill="#63b8ff" stroke="#63b8ff" points="26.45,-362.6 20.19,-354.06 19.76,-364.64 26.45,-362.6"/>
</a>
</g>
</g>
<!-- Node8 -->
<g id="Node000008" class="node">
<title>Node8</title>
<g id="a_Node000008"><a xlink:href="struct_virtual_c64_1_1_d_r_i_v_e___a_p_i.html" target="_top" xlink:title=" ">
<polygon fill="white" stroke="#666666" points="216.5,-426.25 95.5,-426.25 95.5,-407 216.5,-407 216.5,-426.25"/>
<text text-anchor="middle" x="156" y="-412.75" font-family="Helvetica,sans-Serif" font-size="10.00">VirtualC64::DRIVE_API</text>
</a>
</g>
</g>
<!-- Node0&#45;&gt;Node8 -->
<g id="edge8_Node000000_Node000008" class="edge">
<title>Node0&#45;&gt;Node8</title>
<g id="a_edge8_Node000000_Node000008"><a xlink:title=" ">
<path fill="none" stroke="#63b8ff" d="M29.94,-361.81C39.17,-374.22 52.77,-389.67 68.5,-398.62 76.63,-403.25 85.8,-406.7 95.05,-409.26"/>
<polygon fill="#63b8ff" stroke="#63b8ff" points="33.01,-360.09 24.39,-353.93 27.29,-364.12 33.01,-360.09"/>
</a>
</g>
</g>
<!-- Node9 -->
<g id="Node000009" class="node">
<title>Node9</title>
<g id="a_Node000009"><a xlink:href="struct_virtual_c64_1_1_e_x_p___p_o_r_t___a_p_i.html" target="_top" xlink:title=" ">
<polygon fill="white" stroke="#666666" points="227.38,-389.25 84.62,-389.25 84.62,-370 227.38,-370 227.38,-389.25"/>
<text text-anchor="middle" x="156" y="-375.75" font-family="Helvetica,sans-Serif" font-size="10.00">VirtualC64::EXP_PORT_API</text>
</a>
</g>
</g>
<!-- Node0&#45;&gt;Node9 -->
<g id="edge9_Node000000_Node000009" class="edge">
<title>Node0&#45;&gt;Node9</title>
<g id="a_edge9_Node000000_Node000009"><a xlink:title=" ">
<path fill="none" stroke="#63b8ff" d="M43.31,-353.15C51.31,-356.14 60.19,-359.24 68.5,-361.62 78.67,-364.55 89.64,-367.21 100.25,-369.53"/>
<polygon fill="#63b8ff" stroke="#63b8ff" points="44.75,-349.95 34.16,-349.61 42.23,-356.48 44.75,-349.95"/>
</a>
</g>
</g>
<!-- Node10 -->
<g id="Node000010" class="node">
<title>Node10</title>
<g id="a_Node000010"><a xlink:href="struct_virtual_c64_1_1_g_u_a_r_d___a_p_i.html" target="_top" xlink:title=" ">
<polygon fill="white" stroke="#666666" points="219.12,-352.25 92.88,-352.25 92.88,-333 219.12,-333 219.12,-352.25"/>
<text text-anchor="middle" x="156" y="-338.75" font-family="Helvetica,sans-Serif" font-size="10.00">VirtualC64::GUARD_API</text>
</a>
</g>
</g>
<!-- Node0&#45;&gt;Node10 -->
<g id="edge10_Node000000_Node000010" class="edge">
<title>Node0&#45;&gt;Node10</title>
<g id="a_edge10_Node000000_Node000010"><a xlink:title=" ">
<path fill="none" stroke="#63b8ff" d="M43.9,-342.62C57.76,-342.62 75.33,-342.62 92.39,-342.62"/>
<polygon fill="#63b8ff" stroke="#63b8ff" points="44.3,-339.13 34.3,-342.63 44.3,-346.13 44.3,-339.13"/>
</a>
</g>
</g>
<!-- Node11 -->
<g id="Node000011" class="node">
<title>Node11</title>
<g id="a_Node000011"><a xlink:href="struct_virtual_c64_1_1_i_e_c___a_p_i.html" target="_top" xlink:title=" ">
<polygon fill="white" stroke="#666666" points="209.38,-315.25 102.62,-315.25 102.62,-296 209.38,-296 209.38,-315.25"/>
<text text-anchor="middle" x="156" y="-301.75" font-family="Helvetica,sans-Serif" font-size="10.00">VirtualC64::IEC_API</text>
</a>
</g>
</g>
<!-- Node0&#45;&gt;Node11 -->
<g id="edge11_Node000000_Node000011" class="edge">
<title>Node0&#45;&gt;Node11</title>
<g id="a_edge11_Node000000_Node000011"><a xlink:title=" ">
<path fill="none" stroke="#63b8ff" d="M43.31,-332.1C51.31,-329.11 60.19,-326.01 68.5,-323.62 79.41,-320.49 91.24,-317.66 102.55,-315.22"/>
<polygon fill="#63b8ff" stroke="#63b8ff" points="42.23,-328.77 34.16,-335.64 44.75,-335.3 42.23,-328.77"/>
</a>
</g>
</g>
<!-- Node12 -->
<g id="Node000012" class="node">
<title>Node12</title>
<g id="a_Node000012"><a xlink:href="struct_virtual_c64_1_1_j_o_y_s_t_i_c_k___a_p_i.html" target="_top" xlink:title=" ">
<polygon fill="white" stroke="#666666" points="225.5,-278.25 86.5,-278.25 86.5,-259 225.5,-259 225.5,-278.25"/>
<text text-anchor="middle" x="156" y="-264.75" font-family="Helvetica,sans-Serif" font-size="10.00">VirtualC64::JOYSTICK_API</text>
</a>
</g>
</g>
<!-- Node0&#45;&gt;Node12 -->
<g id="edge12_Node000000_Node000012" class="edge">
<title>Node0&#45;&gt;Node12</title>
<g id="a_edge12_Node000000_Node000012"><a xlink:title=" ">
<path fill="none" stroke="#63b8ff" d="M29.94,-323.44C39.17,-311.03 52.77,-295.58 68.5,-286.62 74.1,-283.44 80.19,-280.81 86.46,-278.65"/>
<polygon fill="#63b8ff" stroke="#63b8ff" points="27.29,-321.13 24.39,-331.32 33.01,-325.16 27.29,-321.13"/>
</a>
</g>
</g>
<!-- Node13 -->
<g id="Node000013" class="node">
<title>Node13</title>
<g id="a_Node000013"><a xlink:href="struct_virtual_c64_1_1_k_b_d___a_p_i.html" target="_top" xlink:title=" ">
<polygon fill="white" stroke="#666666" points="211.25,-241.25 100.75,-241.25 100.75,-222 211.25,-222 211.25,-241.25"/>
<text text-anchor="middle" x="156" y="-227.75" font-family="Helvetica,sans-Serif" font-size="10.00">VirtualC64::KBD_API</text>
</a>
</g>
</g>
<!-- Node0&#45;&gt;Node13 -->
<g id="edge13_Node000000_Node000013" class="edge">
<title>Node0&#45;&gt;Node13</title>
<g id="a_edge13_Node000000_Node000013"><a xlink:title=" ">
<path fill="none" stroke="#63b8ff" d="M23.07,-321.76C30.17,-300.27 44.34,-267.47 68.5,-249.62 77.75,-242.79 89.01,-238.42 100.3,-235.65"/>
<polygon fill="#63b8ff" stroke="#63b8ff" points="19.76,-320.61 20.19,-331.19 26.45,-322.65 19.76,-320.61"/>
</a>
</g>
</g>
<!-- Node14 -->
<g id="Node000014" class="node">
<title>Node14</title>
<g id="a_Node000014"><a xlink:href="struct_virtual_c64_1_1_m_e_m___a_p_i.html" target="_top" xlink:title=" ">
<polygon fill="white" stroke="#666666" points="212.38,-204.25 99.62,-204.25 99.62,-185 212.38,-185 212.38,-204.25"/>
<text text-anchor="middle" x="156" y="-190.75" font-family="Helvetica,sans-Serif" font-size="10.00">VirtualC64::MEM_API</text>
</a>
</g>
</g>
<!-- Node0&#45;&gt;Node14 -->
<g id="edge14_Node000000_Node000014" class="edge">
<title>Node0&#45;&gt;Node14</title>
<g id="a_edge14_Node000000_Node000014"><a xlink:title=" ">
<path fill="none" stroke="#63b8ff" d="M19.45,-321.38C23.64,-292.26 35.53,-240.4 68.5,-212.62 77.18,-205.31 88.07,-200.72 99.17,-197.89"/>
<polygon fill="#63b8ff" stroke="#63b8ff" points="15.99,-320.8 18.24,-331.16 22.94,-321.66 15.99,-320.8"/>
</a>
</g>
</g>
<!-- Node15 -->
<g id="Node000015" class="node">
<title>Node15</title>
<g id="a_Node000015"><a xlink:href="struct_virtual_c64_1_1_m_o_u_s_e___a_p_i.html" target="_top" xlink:title=" ">
<polygon fill="white" stroke="#666666" points="219.12,-167.25 92.88,-167.25 92.88,-148 219.12,-148 219.12,-167.25"/>
<text text-anchor="middle" x="156" y="-153.75" font-family="Helvetica,sans-Serif" font-size="10.00">VirtualC64::MOUSE_API</text>
</a>
</g>
</g>
<!-- Node0&#45;&gt;Node15 -->
<g id="edge15_Node000000_Node000015" class="edge">
<title>Node0&#45;&gt;Node15</title>
<g id="a_edge15_Node000000_Node000015"><a xlink:title=" ">
<path fill="none" stroke="#63b8ff" d="M17.28,-321.11C18.56,-285.35 26.58,-213.83 68.5,-175.62 75.3,-169.43 83.67,-165.14 92.49,-162.22"/>
<polygon fill="#63b8ff" stroke="#63b8ff" points="13.78,-320.96 17.09,-331.03 20.78,-321.1 13.78,-320.96"/>
</a>
</g>
</g>
<!-- Node16 -->
<g id="Node000016" class="node">
<title>Node16</title>
<g id="a_Node000016"><a xlink:href="struct_virtual_c64_1_1_r_e_c___a_p_i.html" target="_top" xlink:title=" ">
<polygon fill="white" stroke="#666666" points="211.62,-130.25 100.38,-130.25 100.38,-111 211.62,-111 211.62,-130.25"/>
<text text-anchor="middle" x="156" y="-116.75" font-family="Helvetica,sans-Serif" font-size="10.00">VirtualC64::REC_API</text>
</a>
</g>
</g>
<!-- Node0&#45;&gt;Node16 -->
<g id="edge16_Node000000_Node000016" class="edge">
<title>Node0&#45;&gt;Node16</title>
<g id="a_edge16_Node000000_Node000016"><a xlink:title=" ">
<path fill="none" stroke="#63b8ff" d="M19.74,-321.35C25.67,-274.36 42.14,-163.93 68.5,-138.62 77.13,-130.34 88.53,-125.43 100.22,-122.61"/>
<polygon fill="#63b8ff" stroke="#63b8ff" points="16.29,-320.7 18.56,-331.05 23.24,-321.55 16.29,-320.7"/>
</a>
</g>
</g>
<!-- Node17 -->
<g id="Node000017" class="node">
<title>Node17</title>
<g id="a_Node000017"><a xlink:href="struct_virtual_c64_1_1_r_s_h_e_l_l___a_p_i.html" target="_top" xlink:title=" ">
<polygon fill="white" stroke="#666666" points="220.25,-93.25 91.75,-93.25 91.75,-74 220.25,-74 220.25,-93.25"/>
<text text-anchor="middle" x="156" y="-79.75" font-family="Helvetica,sans-Serif" font-size="10.00">VirtualC64::RSHELL_API</text>
</a>
</g>
</g>
<!-- Node0&#45;&gt;Node17 -->
<g id="edge17_Node000000_Node000017" class="edge">
<title>Node0&#45;&gt;Node17</title>
<g id="a_edge17_Node000000_Node000017"><a xlink:title=" ">
<path fill="none" stroke="#63b8ff" d="M18.84,-321.49C23.24,-268.61 37.42,-132.57 68.5,-101.62 74.91,-95.24 82.97,-90.84 91.56,-87.85"/>
<polygon fill="#63b8ff" stroke="#63b8ff" points="15.36,-321.02 18.06,-331.27 22.34,-321.57 15.36,-321.02"/>
</a>
</g>
</g>
<!-- Node18 -->
<g id="Node000018" class="node">
<title>Node18</title>
<g id="a_Node000018"><a xlink:href="struct_virtual_c64_1_1_s_i_d___a_p_i.html" target="_top" xlink:title=" ">
<polygon fill="white" stroke="#666666" points="209.38,-56.25 102.62,-56.25 102.62,-37 209.38,-37 209.38,-56.25"/>
<text text-anchor="middle" x="156" y="-42.75" font-family="Helvetica,sans-Serif" font-size="10.00">VirtualC64::SID_API</text>
</a>
</g>
</g>
<!-- Node0&#45;&gt;Node18 -->
<g id="edge18_Node000000_Node000018" class="edge">
<title>Node0&#45;&gt;Node18</title>
<g id="a_edge18_Node000000_Node000018"><a xlink:title=" ">
<path fill="none" stroke="#63b8ff" d="M18.21,-321.03C21.26,-262.22 32.78,-101.17 68.5,-64.62 77.51,-55.41 89.92,-50.31 102.52,-47.6"/>
<polygon fill="#63b8ff" stroke="#63b8ff" points="14.71,-320.85 17.72,-331.01 21.7,-321.19 14.71,-320.85"/>
</a>
</g>
</g>
<!-- Node19 -->
<g id="Node000019" class="node">
<title>Node19</title>
<g id="a_Node000019"><a xlink:href="struct_virtual_c64_1_1_v_i_c_i_i___a_p_i.html" target="_top" xlink:title=" ">
<polygon fill="white" stroke="#666666" points="212.38,-19.25 99.62,-19.25 99.62,0 212.38,0 212.38,-19.25"/>
<text text-anchor="middle" x="156" y="-5.75" font-family="Helvetica,sans-Serif" font-size="10.00">VirtualC64::VICII_API</text>
</a>
</g>
</g>
<!-- Node0&#45;&gt;Node19 -->
<g id="edge19_Node000000_Node000019" class="edge">
<title>Node0&#45;&gt;Node19</title>
<g id="a_edge19_Node000000_Node000019"><a xlink:title=" ">
<path fill="none" stroke="#63b8ff" d="M17.69,-321.16C19.44,-257.23 28,-69.94 68.5,-27.62 76.67,-19.09 87.75,-14.06 99.25,-11.2"/>
<polygon fill="#63b8ff" stroke="#63b8ff" points="14.19,-320.93 17.45,-331.01 21.19,-321.1 14.19,-320.93"/>
</a>
</g>
</g>
</g>
</svg>
