<?xml version="1.0" encoding="UTF-8" standalone="no"?>
<!DOCTYPE svg PUBLIC "-//W3C//DTD SVG 1.1//EN"
 "http://www.w3.org/Graphics/SVG/1.1/DTD/svg11.dtd">
<!-- Generated by graphviz version 10.0.1 (20240210.2158)
 -->
<!-- Title: Graphical Class Hierarchy Pages: 1 -->
<svg width="202pt" height="64pt"
 viewBox="0.00 0.00 202.00 64.25" xmlns="http://www.w3.org/2000/svg" xmlns:xlink="http://www.w3.org/1999/xlink">
<g id="graph0" class="graph" transform="scale(1 1) rotate(0) translate(4 60.25)">
<title>Graphical Class Hierarchy</title>
<!-- Node0 -->
<g id="Node000000" class="node">
<title>Node0</title>
<g id="a_Node000000"><a xlink:href="classvc64_1_1_ser_resetter.html" target="_top" xlink:title=" ">
<polygon fill="white" stroke="#666666" points="68.5,-37.25 0,-37.25 0,-18 68.5,-18 68.5,-37.25"/>
<text text-anchor="middle" x="34.25" y="-23.75" font-family="Helvetica,sans-Serif" font-size="10.00">SerResetter</text>
</a>
</g>
</g>
<!-- Node1 -->
<g id="Node000001" class="node">
<title>Node1</title>
<g id="a_Node000001"><a xlink:href="classvc64_1_1_ser_hard_resetter.html" target="_top" xlink:title=" ">
<polygon fill="white" stroke="#666666" points="194,-56.25 104.5,-56.25 104.5,-37 194,-37 194,-56.25"/>
<text text-anchor="middle" x="149.25" y="-42.75" font-family="Helvetica,sans-Serif" font-size="10.00">SerHardResetter</text>
</a>
</g>
</g>
<!-- Node0&#45;&gt;Node1 -->
<g id="edge257_Node000000_Node000001" class="edge">
<title>Node0&#45;&gt;Node1</title>
<g id="a_edge257_Node000000_Node000001"><a xlink:title=" ">
<path fill="none" stroke="#63b8ff" d="M80.11,-35.17C88.01,-36.5 96.22,-37.88 104.1,-39.2"/>
<polygon fill="#63b8ff" stroke="#63b8ff" points="80.78,-31.73 70.34,-33.53 79.62,-38.63 80.78,-31.73"/>
</a>
</g>
</g>
<!-- Node2 -->
<g id="Node000002" class="node">
<title>Node2</title>
<g id="a_Node000002"><a xlink:href="classvc64_1_1_ser_soft_resetter.html" target="_top" xlink:title=" ">
<polygon fill="white" stroke="#666666" points="192.5,-19.25 106,-19.25 106,0 192.5,0 192.5,-19.25"/>
<text text-anchor="middle" x="149.25" y="-5.75" font-family="Helvetica,sans-Serif" font-size="10.00">SerSoftResetter</text>
</a>
</g>
</g>
<!-- Node0&#45;&gt;Node2 -->
<g id="edge258_Node000000_Node000002" class="edge">
<title>Node0&#45;&gt;Node2</title>
<g id="a_edge258_Node000000_Node000002"><a xlink:title=" ">
<path fill="none" stroke="#63b8ff" d="M80.08,-20.48C88.54,-19.14 97.36,-17.73 105.75,-16.39"/>
<polygon fill="#63b8ff" stroke="#63b8ff" points="79.67,-17.01 70.34,-22.04 80.77,-23.92 79.67,-17.01"/>
</a>
</g>
</g>
</g>
</svg>
