<?xml version="1.0" encoding="UTF-8" standalone="no"?>
<!DOCTYPE svg PUBLIC "-//W3C//DTD SVG 1.1//EN"
 "http://www.w3.org/Graphics/SVG/1.1/DTD/svg11.dtd">
<!-- Generated by graphviz version 10.0.1 (20240210.2158)
 -->
<!-- Title: Graphical Class Hierarchy Pages: 1 -->
<svg width="219pt" height="138pt"
 viewBox="0.00 0.00 219.25 138.25" xmlns="http://www.w3.org/2000/svg" xmlns:xlink="http://www.w3.org/1999/xlink">
<g id="graph0" class="graph" transform="scale(1 1) rotate(0) translate(4 134.25)">
<title>Graphical Class Hierarchy</title>
<!-- Node0 -->
<g id="Node000000" class="node">
<title>Node0</title>
<g id="a_Node000000"><a xlink:title=" ">
<polygon fill="#e0e0e0" stroke="#999999" points="74.12,-93.25 8.62,-93.25 8.62,-74 74.12,-74 74.12,-93.25"/>
<text text-anchor="middle" x="41.38" y="-79.75" font-family="Helvetica,sans-Serif" font-size="10.00">CoreObject</text>
</a>
</g>
</g>
<!-- Node1 -->
<g id="Node000001" class="node">
<title>Node1</title>
<g id="a_Node000001"><a xlink:href="classvc64_1_1_cmd_queue.html" target="_top" xlink:title=" ">
<polygon fill="white" stroke="#666666" points="211.25,-111.25 118.75,-111.25 118.75,-92 211.25,-92 211.25,-111.25"/>
<text text-anchor="middle" x="165" y="-97.75" font-family="Helvetica,sans-Serif" font-size="10.00">vc64::CmdQueue</text>
</a>
</g>
</g>
<!-- Node0&#45;&gt;Node1 -->
<g id="edge20_Node000000_Node000001" class="edge">
<title>Node0&#45;&gt;Node1</title>
<g id="a_edge20_Node000000_Node000001"><a xlink:title=" ">
<path fill="none" stroke="#8b1a1a" d="M85.55,-90.02C96.25,-91.6 107.74,-93.3 118.54,-94.9"/>
<polygon fill="#8b1a1a" stroke="#8b1a1a" points="86.23,-86.58 75.83,-88.58 85.21,-93.5 86.23,-86.58"/>
</a>
</g>
</g>
<!-- Node3 -->
<g id="Node000003" class="node">
<title>Node3</title>
<g id="a_Node000003"><a xlink:href="classvc64_1_1_thread.html" target="_top" xlink:title="Implements the emulator&#39;s state model.">
<polygon fill="white" stroke="#666666" points="201.5,-56.25 128.5,-56.25 128.5,-37 201.5,-37 201.5,-56.25"/>
<text text-anchor="middle" x="165" y="-42.75" font-family="Helvetica,sans-Serif" font-size="10.00">vc64::Thread</text>
</a>
</g>
</g>
<!-- Node0&#45;&gt;Node3 -->
<g id="edge21_Node000000_Node000003" class="edge">
<title>Node0&#45;&gt;Node3</title>
<g id="a_edge21_Node000000_Node000003"><a xlink:title=" ">
<path fill="none" stroke="#63b8ff" d="M84.97,-70.67C100.06,-66.07 116.81,-60.98 130.99,-56.67"/>
<polygon fill="#63b8ff" stroke="#63b8ff" points="84.33,-67.2 75.78,-73.46 86.36,-73.9 84.33,-67.2"/>
</a>
</g>
</g>
<!-- Node4 -->
<g id="Node000004" class="node">
<title>Node4</title>
<g id="a_Node000004"><a xlink:title=" ">
<polygon fill="#e0e0e0" stroke="#999999" points="77.5,-56.25 5.25,-56.25 5.25,-37 77.5,-37 77.5,-56.25"/>
<text text-anchor="middle" x="41.38" y="-42.75" font-family="Helvetica,sans-Serif" font-size="10.00">Suspendable</text>
</a>
</g>
</g>
<!-- Node4&#45;&gt;Node3 -->
<g id="edge22_Node000004_Node000003" class="edge">
<title>Node4&#45;&gt;Node3</title>
<g id="a_edge22_Node000004_Node000003"><a xlink:title=" ">
<path fill="none" stroke="#63b8ff" d="M89.02,-46.62C102.03,-46.62 115.96,-46.62 128.24,-46.62"/>
<polygon fill="#63b8ff" stroke="#63b8ff" points="89.39,-43.13 79.39,-46.63 89.39,-50.13 89.39,-43.13"/>
</a>
</g>
</g>
<!-- Node2 -->
<g id="Node000002" class="node">
<title>Node2</title>
<g id="a_Node000002"><a xlink:title=" ">
<polygon fill="#e0e0e0" stroke="#999999" points="82.75,-130.25 0,-130.25 0,-111 82.75,-111 82.75,-130.25"/>
<text text-anchor="middle" x="41.38" y="-116.75" font-family="Helvetica,sans-Serif" font-size="10.00">Synchronizable</text>
</a>
</g>
</g>
<!-- Node2&#45;&gt;Node1 -->
<g id="edge23_Node000002_Node000001" class="edge">
<title>Node2&#45;&gt;Node1</title>
<g id="a_edge23_Node000002_Node000001"><a xlink:title=" ">
<path fill="none" stroke="#8b1a1a" d="M94.35,-112.51C102.37,-111.25 110.59,-109.97 118.45,-108.74"/>
<polygon fill="#8b1a1a" stroke="#8b1a1a" points="94.05,-109.01 84.71,-114.01 95.13,-115.93 94.05,-109.01"/>
</a>
</g>
</g>
<!-- Node5 -->
<g id="Node000005" class="node">
<title>Node5</title>
<g id="a_Node000005"><a xlink:title=" ">
<polygon fill="#e0e0e0" stroke="#999999" points="70.75,-19.25 12,-19.25 12,0 70.75,0 70.75,-19.25"/>
<text text-anchor="middle" x="41.38" y="-5.75" font-family="Helvetica,sans-Serif" font-size="10.00">Wakeable</text>
</a>
</g>
</g>
<!-- Node5&#45;&gt;Node3 -->
<g id="edge24_Node000005_Node000003" class="edge">
<title>Node5&#45;&gt;Node3</title>
<g id="a_edge24_Node000005_Node000003"><a xlink:title=" ">
<path fill="none" stroke="#8b1a1a" d="M81.8,-21.62C97.72,-26.46 115.89,-31.99 131.09,-36.61"/>
<polygon fill="#8b1a1a" stroke="#8b1a1a" points="83.23,-18.4 72.65,-18.83 81.19,-25.09 83.23,-18.4"/>
</a>
</g>
</g>
</g>
</svg>
