<?xml version="1.0" encoding="UTF-8" standalone="no"?>
<!DOCTYPE svg PUBLIC "-//W3C//DTD SVG 1.1//EN"
 "http://www.w3.org/Graphics/SVG/1.1/DTD/svg11.dtd">
<!-- Generated by graphviz version 10.0.1 (20240210.2158)
 -->
<!-- Title: Graphical Class Hierarchy Pages: 1 -->
<svg width="225pt" height="693pt"
 viewBox="0.00 0.00 224.50 693.25" xmlns="http://www.w3.org/2000/svg" xmlns:xlink="http://www.w3.org/1999/xlink">
<g id="graph0" class="graph" transform="scale(1 1) rotate(0) translate(4 689.25)">
<title>Graphical Class Hierarchy</title>
<!-- Node0 -->
<g id="Node000000" class="node">
<title>Node0</title>
<g id="a_Node000000"><a xlink:title=" ">
<polygon fill="#e0e0e0" stroke="#999999" points="32.5,-352.25 0,-352.25 0,-333 32.5,-333 32.5,-352.25"/>
<text text-anchor="middle" x="16.25" y="-338.75" font-family="Helvetica,sans-Serif" font-size="10.00">API</text>
</a>
</g>
</g>
<!-- Node1 -->
<g id="Node000001" class="node">
<title>Node1</title>
<g id="a_Node000001"><a xlink:href="struct_virtual_c64_1_1_c64_a_p_i.html" target="_top" xlink:title=" ">
<polygon fill="white" stroke="#666666" points="193.62,-685.25 91.38,-685.25 91.38,-666 193.62,-666 193.62,-685.25"/>
<text text-anchor="middle" x="142.5" y="-671.75" font-family="Helvetica,sans-Serif" font-size="10.00">VirtualC64::C64API</text>
</a>
</g>
</g>
<!-- Node0&#45;&gt;Node1 -->
<g id="edge1_Node000000_Node000001" class="edge">
<title>Node0&#45;&gt;Node1</title>
<g id="a_edge1_Node000000_Node000001"><a xlink:title=" ">
<path fill="none" stroke="#63b8ff" d="M17.76,-364.03C19.71,-427.76 28.78,-614.57 68.5,-657.62 74.52,-664.15 82.49,-668.48 90.95,-671.32"/>
<polygon fill="#63b8ff" stroke="#63b8ff" points="21.26,-364.11 17.49,-354.21 14.26,-364.3 21.26,-364.11"/>
</a>
</g>
</g>
<!-- Node2 -->
<g id="Node000002" class="node">
<title>Node2</title>
<g id="a_Node000002"><a xlink:href="struct_virtual_c64_1_1_c_i_a_a_p_i.html" target="_top" xlink:title=" ">
<polygon fill="white" stroke="#666666" points="193.25,-648.25 91.75,-648.25 91.75,-629 193.25,-629 193.25,-648.25"/>
<text text-anchor="middle" x="142.5" y="-634.75" font-family="Helvetica,sans-Serif" font-size="10.00">VirtualC64::CIAAPI</text>
</a>
</g>
</g>
<!-- Node0&#45;&gt;Node2 -->
<g id="edge2_Node000000_Node000002" class="edge">
<title>Node0&#45;&gt;Node2</title>
<g id="a_edge2_Node000000_Node000002"><a xlink:title=" ">
<path fill="none" stroke="#63b8ff" d="M18.28,-364.15C21.51,-422.79 33.46,-583.43 68.5,-620.62 74.68,-627.18 82.83,-631.51 91.44,-634.34"/>
<polygon fill="#63b8ff" stroke="#63b8ff" points="21.77,-364.01 17.76,-354.21 14.78,-364.37 21.77,-364.01"/>
</a>
</g>
</g>
<!-- Node3 -->
<g id="Node000003" class="node">
<title>Node3</title>
<g id="a_Node000003"><a xlink:href="struct_virtual_c64_1_1_c_p_u_a_p_i.html" target="_top" xlink:title=" ">
<polygon fill="white" stroke="#666666" points="195.5,-611.25 89.5,-611.25 89.5,-592 195.5,-592 195.5,-611.25"/>
<text text-anchor="middle" x="142.5" y="-597.75" font-family="Helvetica,sans-Serif" font-size="10.00">VirtualC64::CPUAPI</text>
</a>
</g>
</g>
<!-- Node0&#45;&gt;Node3 -->
<g id="edge3_Node000000_Node000003" class="edge">
<title>Node0&#45;&gt;Node3</title>
<g id="a_edge3_Node000000_Node000003"><a xlink:title=" ">
<path fill="none" stroke="#63b8ff" d="M18.94,-364.05C23.54,-417.03 38.06,-552.18 68.5,-583.62 74.22,-589.53 81.55,-593.62 89.34,-596.43"/>
<polygon fill="#63b8ff" stroke="#63b8ff" points="22.44,-363.91 18.12,-354.23 15.46,-364.49 22.44,-363.91"/>
</a>
</g>
</g>
<!-- Node4 -->
<g id="Node000004" class="node">
<title>Node4</title>
<g id="a_Node000004"><a xlink:href="struct_virtual_c64_1_1_control_port_a_p_i.html" target="_top" xlink:title=" ">
<polygon fill="white" stroke="#666666" points="209.38,-574.25 75.62,-574.25 75.62,-555 209.38,-555 209.38,-574.25"/>
<text text-anchor="middle" x="142.5" y="-560.75" font-family="Helvetica,sans-Serif" font-size="10.00">VirtualC64::ControlPortAPI</text>
</a>
</g>
</g>
<!-- Node0&#45;&gt;Node4 -->
<g id="edge4_Node000000_Node000004" class="edge">
<title>Node0&#45;&gt;Node4</title>
<g id="a_edge4_Node000000_Node000004"><a xlink:title=" ">
<path fill="none" stroke="#63b8ff" d="M19.81,-363.84C25.87,-410.68 42.6,-520.84 68.5,-546.62 71.65,-549.76 75.24,-552.37 79.12,-554.56"/>
<polygon fill="#63b8ff" stroke="#63b8ff" points="23.31,-363.65 18.6,-354.16 16.36,-364.52 23.31,-363.65"/>
</a>
</g>
</g>
<!-- Node5 -->
<g id="Node000005" class="node">
<title>Node5</title>
<g id="a_Node000005"><a xlink:href="struct_virtual_c64_1_1_datasette_a_p_i.html" target="_top" xlink:title=" ">
<polygon fill="white" stroke="#666666" points="206,-537.25 79,-537.25 79,-518 206,-518 206,-537.25"/>
<text text-anchor="middle" x="142.5" y="-523.75" font-family="Helvetica,sans-Serif" font-size="10.00">VirtualC64::DatasetteAPI</text>
</a>
</g>
</g>
<!-- Node0&#45;&gt;Node5 -->
<g id="edge5_Node000000_Node000005" class="edge">
<title>Node0&#45;&gt;Node5</title>
<g id="a_edge5_Node000000_Node000005"><a xlink:title=" ">
<path fill="none" stroke="#63b8ff" d="M17.43,-363.97C18.94,-399.49 27.28,-470.66 68.5,-509.62 71.82,-512.76 75.6,-515.38 79.64,-517.56"/>
<polygon fill="#63b8ff" stroke="#63b8ff" points="20.93,-364.04 17.18,-354.14 13.94,-364.23 20.93,-364.04"/>
</a>
</g>
</g>
<!-- Node6 -->
<g id="Node000006" class="node">
<title>Node6</title>
<g id="a_Node000006"><a xlink:href="struct_virtual_c64_1_1_disk_a_p_i.html" target="_top" xlink:title=" ">
<polygon fill="white" stroke="#666666" points="194.75,-500.25 90.25,-500.25 90.25,-481 194.75,-481 194.75,-500.25"/>
<text text-anchor="middle" x="142.5" y="-486.75" font-family="Helvetica,sans-Serif" font-size="10.00">VirtualC64::DiskAPI</text>
</a>
</g>
</g>
<!-- Node0&#45;&gt;Node6 -->
<g id="edge6_Node000000_Node000006" class="edge">
<title>Node0&#45;&gt;Node6</title>
<g id="a_edge6_Node000000_Node000006"><a xlink:title=" ">
<path fill="none" stroke="#63b8ff" d="M19.59,-363.7C23.95,-392.63 36.05,-444.25 68.5,-472.62 74.59,-477.95 82.02,-481.76 89.77,-484.46"/>
<polygon fill="#63b8ff" stroke="#63b8ff" points="23.09,-363.47 18.32,-354.01 16.15,-364.38 23.09,-363.47"/>
</a>
</g>
</g>
<!-- Node7 -->
<g id="Node000007" class="node">
<title>Node7</title>
<g id="a_Node000007"><a xlink:href="struct_virtual_c64_1_1_dma_debugger_a_p_i.html" target="_top" xlink:title=" ">
<polygon fill="white" stroke="#666666" points="216.12,-463.25 68.88,-463.25 68.88,-444 216.12,-444 216.12,-463.25"/>
<text text-anchor="middle" x="142.5" y="-449.75" font-family="Helvetica,sans-Serif" font-size="10.00">VirtualC64::DmaDebuggerAPI</text>
</a>
</g>
</g>
<!-- Node0&#45;&gt;Node7 -->
<g id="edge7_Node000000_Node000007" class="edge">
<title>Node0&#45;&gt;Node7</title>
<g id="a_edge7_Node000000_Node000007"><a xlink:title=" ">
<path fill="none" stroke="#63b8ff" d="M23.2,-363.31C30.41,-384.66 44.67,-417.34 68.5,-435.62 72.64,-438.8 77.27,-441.43 82.14,-443.59"/>
<polygon fill="#63b8ff" stroke="#63b8ff" points="26.6,-362.46 20.27,-353.96 19.92,-364.55 26.6,-362.46"/>
</a>
</g>
</g>
<!-- Node8 -->
<g id="Node000008" class="node">
<title>Node8</title>
<g id="a_Node000008"><a xlink:href="struct_virtual_c64_1_1_drive_a_p_i.html" target="_top" xlink:title=" ">
<polygon fill="white" stroke="#666666" points="196.25,-426.25 88.75,-426.25 88.75,-407 196.25,-407 196.25,-426.25"/>
<text text-anchor="middle" x="142.5" y="-412.75" font-family="Helvetica,sans-Serif" font-size="10.00">VirtualC64::DriveAPI</text>
</a>
</g>
</g>
<!-- Node0&#45;&gt;Node8 -->
<g id="edge8_Node000000_Node000008" class="edge">
<title>Node0&#45;&gt;Node8</title>
<g id="a_edge8_Node000000_Node000008"><a xlink:title=" ">
<path fill="none" stroke="#63b8ff" d="M30.05,-361.62C39.33,-373.95 52.94,-389.39 68.5,-398.62 74.67,-402.29 81.56,-405.21 88.58,-407.54"/>
<polygon fill="#63b8ff" stroke="#63b8ff" points="33.13,-359.91 24.47,-353.81 27.44,-363.98 33.13,-359.91"/>
</a>
</g>
</g>
<!-- Node9 -->
<g id="Node000009" class="node">
<title>Node9</title>
<g id="a_Node000009"><a xlink:href="struct_virtual_c64_1_1_expansion_port_a_p_i.html" target="_top" xlink:title=" ">
<polygon fill="white" stroke="#666666" points="216.5,-389.25 68.5,-389.25 68.5,-370 216.5,-370 216.5,-389.25"/>
<text text-anchor="middle" x="142.5" y="-375.75" font-family="Helvetica,sans-Serif" font-size="10.00">VirtualC64::ExpansionPortAPI</text>
</a>
</g>
</g>
<!-- Node0&#45;&gt;Node9 -->
<g id="edge9_Node000000_Node000009" class="edge">
<title>Node0&#45;&gt;Node9</title>
<g id="a_edge9_Node000000_Node000009"><a xlink:title=" ">
<path fill="none" stroke="#63b8ff" d="M43.37,-352.96C51.37,-355.95 60.24,-359.08 68.5,-361.62 77.73,-364.46 87.73,-367.17 97.27,-369.57"/>
<polygon fill="#63b8ff" stroke="#63b8ff" points="44.8,-349.76 34.21,-349.45 42.3,-356.29 44.8,-349.76"/>
</a>
</g>
</g>
<!-- Node10 -->
<g id="Node000010" class="node">
<title>Node10</title>
<g id="a_Node000010"><a xlink:href="struct_virtual_c64_1_1_guard_a_p_i.html" target="_top" xlink:title=" ">
<polygon fill="white" stroke="#666666" points="197.75,-352.25 87.25,-352.25 87.25,-333 197.75,-333 197.75,-352.25"/>
<text text-anchor="middle" x="142.5" y="-338.75" font-family="Helvetica,sans-Serif" font-size="10.00">VirtualC64::GuardAPI</text>
</a>
</g>
</g>
<!-- Node0&#45;&gt;Node10 -->
<g id="edge10_Node000000_Node000010" class="edge">
<title>Node0&#45;&gt;Node10</title>
<g id="a_edge10_Node000000_Node000010"><a xlink:title=" ">
<path fill="none" stroke="#63b8ff" d="M44.4,-342.62C56.87,-342.62 72.12,-342.62 86.81,-342.62"/>
<polygon fill="#63b8ff" stroke="#63b8ff" points="44.5,-339.13 34.5,-342.63 44.5,-346.13 44.5,-339.13"/>
</a>
</g>
</g>
<!-- Node11 -->
<g id="Node000011" class="node">
<title>Node11</title>
<g id="a_Node000011"><a xlink:href="struct_virtual_c64_1_1_i_e_c_a_p_i.html" target="_top" xlink:title=" ">
<polygon fill="white" stroke="#666666" points="193.25,-315.25 91.75,-315.25 91.75,-296 193.25,-296 193.25,-315.25"/>
<text text-anchor="middle" x="142.5" y="-301.75" font-family="Helvetica,sans-Serif" font-size="10.00">VirtualC64::IECAPI</text>
</a>
</g>
</g>
<!-- Node0&#45;&gt;Node11 -->
<g id="edge11_Node000000_Node000011" class="edge">
<title>Node0&#45;&gt;Node11</title>
<g id="a_edge11_Node000000_Node000011"><a xlink:title=" ">
<path fill="none" stroke="#63b8ff" d="M43.37,-332.29C51.37,-329.3 60.24,-326.17 68.5,-323.62 77.73,-320.79 87.73,-318.08 97.27,-315.68"/>
<polygon fill="#63b8ff" stroke="#63b8ff" points="42.3,-328.96 34.21,-335.8 44.8,-335.49 42.3,-328.96"/>
</a>
</g>
</g>
<!-- Node12 -->
<g id="Node000012" class="node">
<title>Node12</title>
<g id="a_Node000012"><a xlink:href="struct_virtual_c64_1_1_joystick_a_p_i.html" target="_top" xlink:title=" ">
<polygon fill="white" stroke="#666666" points="203,-278.25 82,-278.25 82,-259 203,-259 203,-278.25"/>
<text text-anchor="middle" x="142.5" y="-264.75" font-family="Helvetica,sans-Serif" font-size="10.00">VirtualC64::JoystickAPI</text>
</a>
</g>
</g>
<!-- Node0&#45;&gt;Node12 -->
<g id="edge12_Node000000_Node000012" class="edge">
<title>Node0&#45;&gt;Node12</title>
<g id="a_edge12_Node000000_Node000012"><a xlink:title=" ">
<path fill="none" stroke="#63b8ff" d="M30.05,-323.63C39.33,-311.3 52.94,-295.86 68.5,-286.62 73.89,-283.43 79.82,-280.8 85.91,-278.63"/>
<polygon fill="#63b8ff" stroke="#63b8ff" points="27.44,-321.27 24.47,-331.44 33.13,-325.34 27.44,-321.27"/>
</a>
</g>
</g>
<!-- Node13 -->
<g id="Node000013" class="node">
<title>Node13</title>
<g id="a_Node000013"><a xlink:href="struct_virtual_c64_1_1_keyboard_a_p_i.html" target="_top" xlink:title=" ">
<polygon fill="white" stroke="#666666" points="205.25,-241.25 79.75,-241.25 79.75,-222 205.25,-222 205.25,-241.25"/>
<text text-anchor="middle" x="142.5" y="-227.75" font-family="Helvetica,sans-Serif" font-size="10.00">VirtualC64::KeyboardAPI</text>
</a>
</g>
</g>
<!-- Node0&#45;&gt;Node13 -->
<g id="edge13_Node000000_Node000013" class="edge">
<title>Node0&#45;&gt;Node13</title>
<g id="a_edge13_Node000000_Node000013"><a xlink:title=" ">
<path fill="none" stroke="#63b8ff" d="M23.2,-321.94C30.41,-300.59 44.67,-267.91 68.5,-249.62 72.64,-246.45 77.27,-243.82 82.14,-241.66"/>
<polygon fill="#63b8ff" stroke="#63b8ff" points="19.92,-320.7 20.27,-331.29 26.6,-322.79 19.92,-320.7"/>
</a>
</g>
</g>
<!-- Node14 -->
<g id="Node000014" class="node">
<title>Node14</title>
<g id="a_Node000014"><a xlink:href="struct_virtual_c64_1_1_memory_a_p_i.html" target="_top" xlink:title=" ">
<polygon fill="white" stroke="#666666" points="202.25,-204.25 82.75,-204.25 82.75,-185 202.25,-185 202.25,-204.25"/>
<text text-anchor="middle" x="142.5" y="-190.75" font-family="Helvetica,sans-Serif" font-size="10.00">VirtualC64::MemoryAPI</text>
</a>
</g>
</g>
<!-- Node0&#45;&gt;Node14 -->
<g id="edge14_Node000000_Node000014" class="edge">
<title>Node0&#45;&gt;Node14</title>
<g id="a_edge14_Node000000_Node000014"><a xlink:title=" ">
<path fill="none" stroke="#63b8ff" d="M19.59,-321.55C23.95,-292.62 36.05,-241 68.5,-212.62 72.63,-209.02 77.36,-206.11 82.4,-203.77"/>
<polygon fill="#63b8ff" stroke="#63b8ff" points="16.15,-320.87 18.32,-331.24 23.09,-321.78 16.15,-320.87"/>
</a>
</g>
</g>
<!-- Node15 -->
<g id="Node000015" class="node">
<title>Node15</title>
<g id="a_Node000015"><a xlink:href="struct_virtual_c64_1_1_mouse_a_p_i.html" target="_top" xlink:title=" ">
<polygon fill="white" stroke="#666666" points="199.25,-167.25 85.75,-167.25 85.75,-148 199.25,-148 199.25,-167.25"/>
<text text-anchor="middle" x="142.5" y="-153.75" font-family="Helvetica,sans-Serif" font-size="10.00">VirtualC64::MouseAPI</text>
</a>
</g>
</g>
<!-- Node0&#45;&gt;Node15 -->
<g id="edge15_Node000000_Node000015" class="edge">
<title>Node0&#45;&gt;Node15</title>
<g id="a_edge15_Node000000_Node000015"><a xlink:title=" ">
<path fill="none" stroke="#63b8ff" d="M17.43,-321.28C18.94,-285.76 27.28,-214.59 68.5,-175.62 73.34,-171.05 79.14,-167.59 85.34,-164.97"/>
<polygon fill="#63b8ff" stroke="#63b8ff" points="13.94,-321.02 17.18,-331.11 20.93,-321.21 13.94,-321.02"/>
</a>
</g>
</g>
<!-- Node16 -->
<g id="Node000016" class="node">
<title>Node16</title>
<g id="a_Node000016"><a xlink:href="struct_virtual_c64_1_1_recorder_a_p_i.html" target="_top" xlink:title=" ">
<polygon fill="white" stroke="#666666" points="204.5,-130.25 80.5,-130.25 80.5,-111 204.5,-111 204.5,-130.25"/>
<text text-anchor="middle" x="142.5" y="-116.75" font-family="Helvetica,sans-Serif" font-size="10.00">VirtualC64::RecorderAPI</text>
</a>
</g>
</g>
<!-- Node0&#45;&gt;Node16 -->
<g id="edge16_Node000000_Node000016" class="edge">
<title>Node0&#45;&gt;Node16</title>
<g id="a_edge16_Node000000_Node000016"><a xlink:title=" ">
<path fill="none" stroke="#63b8ff" d="M19.81,-321.41C25.87,-274.57 42.6,-164.41 68.5,-138.62 71.92,-135.22 75.88,-132.42 80.15,-130.12"/>
<polygon fill="#63b8ff" stroke="#63b8ff" points="16.36,-320.73 18.6,-331.09 23.31,-321.6 16.36,-320.73"/>
</a>
</g>
</g>
<!-- Node17 -->
<g id="Node000017" class="node">
<title>Node17</title>
<g id="a_Node000017"><a xlink:href="struct_virtual_c64_1_1_retro_shell_a_p_i.html" target="_top" xlink:title=" ">
<polygon fill="white" stroke="#666666" points="207.5,-93.25 77.5,-93.25 77.5,-74 207.5,-74 207.5,-93.25"/>
<text text-anchor="middle" x="142.5" y="-79.75" font-family="Helvetica,sans-Serif" font-size="10.00">VirtualC64::RetroShellAPI</text>
</a>
</g>
</g>
<!-- Node0&#45;&gt;Node17 -->
<g id="edge17_Node000000_Node000017" class="edge">
<title>Node0&#45;&gt;Node17</title>
<g id="a_edge17_Node000000_Node000017"><a xlink:title=" ">
<path fill="none" stroke="#63b8ff" d="M18.94,-321.2C23.54,-268.22 38.06,-133.07 68.5,-101.62 71.59,-98.44 75.14,-95.78 78.99,-93.56"/>
<polygon fill="#63b8ff" stroke="#63b8ff" points="15.46,-320.76 18.12,-331.02 22.44,-321.34 15.46,-320.76"/>
</a>
</g>
</g>
<!-- Node18 -->
<g id="Node000018" class="node">
<title>Node18</title>
<g id="a_Node000018"><a xlink:href="struct_virtual_c64_1_1_s_i_d_a_p_i.html" target="_top" xlink:title=" ">
<polygon fill="white" stroke="#666666" points="193.25,-56.25 91.75,-56.25 91.75,-37 193.25,-37 193.25,-56.25"/>
<text text-anchor="middle" x="142.5" y="-42.75" font-family="Helvetica,sans-Serif" font-size="10.00">VirtualC64::SIDAPI</text>
</a>
</g>
</g>
<!-- Node0&#45;&gt;Node18 -->
<g id="edge18_Node000000_Node000018" class="edge">
<title>Node0&#45;&gt;Node18</title>
<g id="a_edge18_Node000000_Node000018"><a xlink:title=" ">
<path fill="none" stroke="#63b8ff" d="M18.28,-321.1C21.51,-262.46 33.46,-101.82 68.5,-64.62 74.68,-58.07 82.83,-53.74 91.44,-50.91"/>
<polygon fill="#63b8ff" stroke="#63b8ff" points="14.78,-320.88 17.76,-331.04 21.77,-321.24 14.78,-320.88"/>
</a>
</g>
</g>
<!-- Node19 -->
<g id="Node000019" class="node">
<title>Node19</title>
<g id="a_Node000019"><a xlink:href="struct_virtual_c64_1_1_v_i_c_i_i_a_p_i.html" target="_top" xlink:title=" ">
<polygon fill="white" stroke="#666666" points="196.25,-19.25 88.75,-19.25 88.75,0 196.25,0 196.25,-19.25"/>
<text text-anchor="middle" x="142.5" y="-5.75" font-family="Helvetica,sans-Serif" font-size="10.00">VirtualC64::VICIIAPI</text>
</a>
</g>
</g>
<!-- Node0&#45;&gt;Node19 -->
<g id="edge19_Node000000_Node000019" class="edge">
<title>Node0&#45;&gt;Node19</title>
<g id="a_edge19_Node000000_Node000019"><a xlink:title=" ">
<path fill="none" stroke="#63b8ff" d="M17.76,-321.22C19.71,-257.49 28.78,-70.68 68.5,-27.62 73.9,-21.77 80.87,-17.69 88.36,-14.86"/>
<polygon fill="#63b8ff" stroke="#63b8ff" points="14.26,-320.95 17.49,-331.04 21.26,-321.14 14.26,-320.95"/>
</a>
</g>
</g>
</g>
</svg>
