<?xml version="1.0" encoding="UTF-8" standalone="no"?>
<!DOCTYPE svg PUBLIC "-//W3C//DTD SVG 1.1//EN"
 "http://www.w3.org/Graphics/SVG/1.1/DTD/svg11.dtd">
<!-- Generated by graphviz version 10.0.1 (20240210.2158)
 -->
<!-- Title: Graphical Class Hierarchy Pages: 1 -->
<svg width="390pt" height="286pt"
 viewBox="0.00 0.00 389.75 286.25" xmlns="http://www.w3.org/2000/svg" xmlns:xlink="http://www.w3.org/1999/xlink">
<g id="graph0" class="graph" transform="scale(1 1) rotate(0) translate(4 282.25)">
<title>Graphical Class Hierarchy</title>
<!-- Node0 -->
<g id="Node000000" class="node">
<title>Node0</title>
<g id="a_Node000000"><a xlink:title=" ">
<polygon fill="#e0e0e0" stroke="#999999" points="77.5,-185.25 0,-185.25 0,-166 77.5,-166 77.5,-185.25"/>
<text text-anchor="middle" x="38.75" y="-171.75" font-family="Helvetica,sans-Serif" font-size="10.00">std::exception</text>
</a>
</g>
</g>
<!-- Node1 -->
<g id="Node000001" class="node">
<title>Node1</title>
<g id="a_Node000001"><a xlink:href="structutil_1_1_exception.html" target="_top" xlink:title=" ">
<polygon fill="white" stroke="#666666" points="193.25,-241.25 115,-241.25 115,-222 193.25,-222 193.25,-241.25"/>
<text text-anchor="middle" x="154.12" y="-227.75" font-family="Helvetica,sans-Serif" font-size="10.00">util::Exception</text>
</a>
</g>
</g>
<!-- Node0&#45;&gt;Node1 -->
<g id="edge1_Node000000_Node000001" class="edge">
<title>Node0&#45;&gt;Node1</title>
<g id="a_edge1_Node000000_Node000001"><a xlink:title=" ">
<path fill="none" stroke="#63b8ff" d="M70.08,-190.61C89.88,-200.39 115.2,-212.89 132.65,-221.51"/>
<polygon fill="#63b8ff" stroke="#63b8ff" points="71.89,-187.6 61.38,-186.31 68.79,-193.87 71.89,-187.6"/>
</a>
</g>
</g>
<!-- Node4 -->
<g id="Node000004" class="node">
<title>Node4</title>
<g id="a_Node000004"><a xlink:href="structutil_1_1_parse_error.html" target="_top" xlink:title=" ">
<polygon fill="white" stroke="#666666" points="194.75,-130.25 113.5,-130.25 113.5,-111 194.75,-111 194.75,-130.25"/>
<text text-anchor="middle" x="154.12" y="-116.75" font-family="Helvetica,sans-Serif" font-size="10.00">util::ParseError</text>
</a>
</g>
</g>
<!-- Node0&#45;&gt;Node4 -->
<g id="edge4_Node000000_Node000004" class="edge">
<title>Node0&#45;&gt;Node4</title>
<g id="a_edge4_Node000000_Node000004"><a xlink:title=" ">
<path fill="none" stroke="#63b8ff" d="M70.83,-160.55C90.44,-151.03 115.24,-139 132.46,-130.65"/>
<polygon fill="#63b8ff" stroke="#63b8ff" points="69.38,-157.36 61.91,-164.88 72.43,-163.66 69.38,-157.36"/>
</a>
</g>
</g>
<!-- Node2 -->
<g id="Node000002" class="node">
<title>Node2</title>
<g id="a_Node000002"><a xlink:href="structvc64_1_1_script_interruption.html" target="_top" xlink:title=" ">
<polygon fill="white" stroke="#666666" points="364.88,-278.25 247.62,-278.25 247.62,-259 364.88,-259 364.88,-278.25"/>
<text text-anchor="middle" x="306.25" y="-264.75" font-family="Helvetica,sans-Serif" font-size="10.00">vc64::ScriptInterruption</text>
</a>
</g>
</g>
<!-- Node1&#45;&gt;Node2 -->
<g id="edge2_Node000001_Node000002" class="edge">
<title>Node1&#45;&gt;Node2</title>
<g id="a_edge2_Node000001_Node000002"><a xlink:title=" ">
<path fill="none" stroke="#63b8ff" d="M204.46,-244.09C213.21,-246.28 222.25,-248.53 230.75,-250.62 241.21,-253.2 252.52,-255.95 263.08,-258.51"/>
<polygon fill="#63b8ff" stroke="#63b8ff" points="205.6,-240.77 195.05,-241.73 203.9,-247.56 205.6,-240.77"/>
</a>
</g>
</g>
<!-- Node3 -->
<g id="Node000003" class="node">
<title>Node3</title>
<g id="a_Node000003"><a xlink:href="structvc64_1_1_v_c64_error.html" target="_top" xlink:title=" ">
<polygon fill="white" stroke="#666666" points="350.62,-241.25 261.88,-241.25 261.88,-222 350.62,-222 350.62,-241.25"/>
<text text-anchor="middle" x="306.25" y="-227.75" font-family="Helvetica,sans-Serif" font-size="10.00">vc64::VC64Error</text>
</a>
</g>
</g>
<!-- Node1&#45;&gt;Node3 -->
<g id="edge3_Node000001_Node000003" class="edge">
<title>Node1&#45;&gt;Node3</title>
<g id="a_edge3_Node000001_Node000003"><a xlink:title=" ">
<path fill="none" stroke="#63b8ff" d="M204.76,-231.62C223.08,-231.62 243.7,-231.62 261.47,-231.62"/>
<polygon fill="#63b8ff" stroke="#63b8ff" points="204.91,-228.13 194.91,-231.63 204.91,-235.13 204.91,-228.13"/>
</a>
</g>
</g>
<!-- Node5 -->
<g id="Node000005" class="node">
<title>Node5</title>
<g id="a_Node000005"><a xlink:href="structutil_1_1_enum_parse_error.html" target="_top" xlink:title=" ">
<polygon fill="white" stroke="#666666" points="359.62,-204.25 252.88,-204.25 252.88,-185 359.62,-185 359.62,-204.25"/>
<text text-anchor="middle" x="306.25" y="-190.75" font-family="Helvetica,sans-Serif" font-size="10.00">util::EnumParseError</text>
</a>
</g>
</g>
<!-- Node4&#45;&gt;Node5 -->
<g id="edge5_Node000004_Node000005" class="edge">
<title>Node4&#45;&gt;Node5</title>
<g id="a_edge5_Node000004_Node000005"><a xlink:title=" ">
<path fill="none" stroke="#63b8ff" d="M174.03,-138.01C188.55,-150.48 209.62,-166.75 230.75,-176.62 237.62,-179.84 245.13,-182.51 252.64,-184.73"/>
<polygon fill="#63b8ff" stroke="#63b8ff" points="176.45,-135.48 166.64,-131.48 171.81,-140.72 176.45,-135.48"/>
</a>
</g>
</g>
<!-- Node6 -->
<g id="Node000006" class="node">
<title>Node6</title>
<g id="a_Node000006"><a xlink:href="structutil_1_1_parse_bool_error.html" target="_top" xlink:title=" ">
<polygon fill="white" stroke="#666666" points="356.62,-167.25 255.88,-167.25 255.88,-148 356.62,-148 356.62,-167.25"/>
<text text-anchor="middle" x="306.25" y="-153.75" font-family="Helvetica,sans-Serif" font-size="10.00">util::ParseBoolError</text>
</a>
</g>
</g>
<!-- Node4&#45;&gt;Node6 -->
<g id="edge6_Node000004_Node000006" class="edge">
<title>Node4&#45;&gt;Node6</title>
<g id="a_edge6_Node000004_Node000006"><a xlink:title=" ">
<path fill="none" stroke="#63b8ff" d="M205.88,-133.44C214.19,-135.52 222.71,-137.64 230.75,-139.62 241.21,-142.2 252.52,-144.95 263.08,-147.51"/>
<polygon fill="#63b8ff" stroke="#63b8ff" points="206.77,-130.06 196.22,-131.02 205.07,-136.85 206.77,-130.06"/>
</a>
</g>
</g>
<!-- Node7 -->
<g id="Node000007" class="node">
<title>Node7</title>
<g id="a_Node000007"><a xlink:href="structutil_1_1_parse_num_error.html" target="_top" xlink:title=" ">
<polygon fill="white" stroke="#666666" points="357.38,-130.25 255.12,-130.25 255.12,-111 357.38,-111 357.38,-130.25"/>
<text text-anchor="middle" x="306.25" y="-116.75" font-family="Helvetica,sans-Serif" font-size="10.00">util::ParseNumError</text>
</a>
</g>
</g>
<!-- Node4&#45;&gt;Node7 -->
<g id="edge7_Node000004_Node000007" class="edge">
<title>Node4&#45;&gt;Node7</title>
<g id="a_edge7_Node000004_Node000007"><a xlink:title=" ">
<path fill="none" stroke="#63b8ff" d="M206.07,-120.62C221.77,-120.62 239.05,-120.62 254.72,-120.62"/>
<polygon fill="#63b8ff" stroke="#63b8ff" points="206.48,-117.13 196.48,-120.63 206.48,-124.13 206.48,-117.13"/>
</a>
</g>
</g>
<!-- Node8 -->
<g id="Node000008" class="node">
<title>Node8</title>
<g id="a_Node000008"><a xlink:href="structutil_1_1_parse_on_off_error.html" target="_top" xlink:title=" ">
<polygon fill="white" stroke="#666666" points="360,-93.25 252.5,-93.25 252.5,-74 360,-74 360,-93.25"/>
<text text-anchor="middle" x="306.25" y="-79.75" font-family="Helvetica,sans-Serif" font-size="10.00">util::ParseOnOffError</text>
</a>
</g>
</g>
<!-- Node4&#45;&gt;Node8 -->
<g id="edge8_Node000004_Node000008" class="edge">
<title>Node4&#45;&gt;Node8</title>
<g id="a_edge8_Node000004_Node000008"><a xlink:title=" ">
<path fill="none" stroke="#63b8ff" d="M205.88,-107.81C214.19,-105.73 222.71,-103.61 230.75,-101.62 241.21,-99.05 252.52,-96.3 263.08,-93.74"/>
<polygon fill="#63b8ff" stroke="#63b8ff" points="205.07,-104.4 196.22,-110.23 206.77,-111.19 205.07,-104.4"/>
</a>
</g>
</g>
<!-- Node9 -->
<g id="Node000009" class="node">
<title>Node9</title>
<g id="a_Node000009"><a xlink:href="structvc64_1_1_too_few_arguments_error.html" target="_top" xlink:title=" ">
<polygon fill="white" stroke="#666666" points="379.12,-56.25 233.38,-56.25 233.38,-37 379.12,-37 379.12,-56.25"/>
<text text-anchor="middle" x="306.25" y="-42.75" font-family="Helvetica,sans-Serif" font-size="10.00">vc64::TooFewArgumentsError</text>
</a>
</g>
</g>
<!-- Node4&#45;&gt;Node9 -->
<g id="edge9_Node000004_Node000009" class="edge">
<title>Node4&#45;&gt;Node9</title>
<g id="a_edge9_Node000004_Node000009"><a xlink:title=" ">
<path fill="none" stroke="#63b8ff" d="M174.03,-103.24C188.55,-90.77 209.62,-74.5 230.75,-64.62 237.5,-61.47 244.86,-58.83 252.25,-56.64"/>
<polygon fill="#63b8ff" stroke="#63b8ff" points="171.81,-100.53 166.64,-109.77 176.45,-105.77 171.81,-100.53"/>
</a>
</g>
</g>
<!-- Node10 -->
<g id="Node000010" class="node">
<title>Node10</title>
<g id="a_Node000010"><a xlink:href="structvc64_1_1_too_many_arguments_error.html" target="_top" xlink:title=" ">
<polygon fill="white" stroke="#666666" points="381.75,-19.25 230.75,-19.25 230.75,0 381.75,0 381.75,-19.25"/>
<text text-anchor="middle" x="306.25" y="-5.75" font-family="Helvetica,sans-Serif" font-size="10.00">vc64::TooManyArgumentsError</text>
</a>
</g>
</g>
<!-- Node4&#45;&gt;Node10 -->
<g id="edge10_Node000004_Node000010" class="edge">
<title>Node4&#45;&gt;Node10</title>
<g id="a_edge10_Node000004_Node000010"><a xlink:title=" ">
<path fill="none" stroke="#63b8ff" d="M165.94,-100.75C178.63,-79.36 201.67,-45.96 230.75,-27.62 235.81,-24.43 241.4,-21.8 247.17,-19.64"/>
<polygon fill="#63b8ff" stroke="#63b8ff" points="162.93,-98.96 161.02,-109.38 169.02,-102.42 162.93,-98.96"/>
</a>
</g>
</g>
</g>
</svg>
