<?xml version="1.0" encoding="UTF-8" standalone="no"?>
<!DOCTYPE svg PUBLIC "-//W3C//DTD SVG 1.1//EN"
 "http://www.w3.org/Graphics/SVG/1.1/DTD/svg11.dtd">
<!-- Generated by graphviz version 10.0.1 (20240210.2158)
 -->
<!-- Title: Graphical Class Hierarchy Pages: 1 -->
<svg width="162pt" height="64pt"
 viewBox="0.00 0.00 161.50 64.25" xmlns="http://www.w3.org/2000/svg" xmlns:xlink="http://www.w3.org/1999/xlink">
<g id="graph0" class="graph" transform="scale(1 1) rotate(0) translate(4 60.25)">
<title>Graphical Class Hierarchy</title>
<!-- Node0 -->
<g id="Node000000" class="node">
<title>Node0</title>
<g id="a_Node000000"><a xlink:href="classvc64_1_1peddle_1_1_guards.html" target="_top" xlink:title=" ">
<polygon fill="white" stroke="#666666" points="47.5,-37.25 0,-37.25 0,-18 47.5,-18 47.5,-37.25"/>
<text text-anchor="middle" x="23.75" y="-23.75" font-family="Helvetica,sans-Serif" font-size="10.00">Guards</text>
</a>
</g>
</g>
<!-- Node1 -->
<g id="Node000001" class="node">
<title>Node1</title>
<g id="a_Node000001"><a xlink:href="classvc64_1_1peddle_1_1_breakpoints.html" target="_top" xlink:title=" ">
<polygon fill="white" stroke="#666666" points="152.38,-56.25 84.62,-56.25 84.62,-37 152.38,-37 152.38,-56.25"/>
<text text-anchor="middle" x="118.5" y="-42.75" font-family="Helvetica,sans-Serif" font-size="10.00">Breakpoints</text>
</a>
</g>
</g>
<!-- Node0&#45;&gt;Node1 -->
<g id="edge198_Node000000_Node000001" class="edge">
<title>Node0&#45;&gt;Node1</title>
<g id="a_edge198_Node000000_Node000001"><a xlink:title=" ">
<path fill="none" stroke="#63b8ff" d="M58.92,-34.62C67.22,-36.32 76.08,-38.14 84.33,-39.83"/>
<polygon fill="#63b8ff" stroke="#63b8ff" points="59.66,-31.2 49.16,-32.63 58.25,-38.06 59.66,-31.2"/>
</a>
</g>
</g>
<!-- Node2 -->
<g id="Node000002" class="node">
<title>Node2</title>
<g id="a_Node000002"><a xlink:href="classvc64_1_1peddle_1_1_watchpoints.html" target="_top" xlink:title=" ">
<polygon fill="white" stroke="#666666" points="153.5,-19.25 83.5,-19.25 83.5,0 153.5,0 153.5,-19.25"/>
<text text-anchor="middle" x="118.5" y="-5.75" font-family="Helvetica,sans-Serif" font-size="10.00">Watchpoints</text>
</a>
</g>
</g>
<!-- Node0&#45;&gt;Node2 -->
<g id="edge199_Node000000_Node000002" class="edge">
<title>Node0&#45;&gt;Node2</title>
<g id="a_edge199_Node000000_Node000002"><a xlink:title=" ">
<path fill="none" stroke="#63b8ff" d="M58.85,-21.01C66.82,-19.46 75.3,-17.81 83.27,-16.27"/>
<polygon fill="#63b8ff" stroke="#63b8ff" points="58.31,-17.55 49.16,-22.89 59.65,-24.42 58.31,-17.55"/>
</a>
</g>
</g>
</g>
</svg>
