<?xml version="1.0" encoding="UTF-8" standalone="no"?>
<!DOCTYPE svg PUBLIC "-//W3C//DTD SVG 1.1//EN"
 "http://www.w3.org/Graphics/SVG/1.1/DTD/svg11.dtd">
<!-- Generated by graphviz version 10.0.1 (20240210.2158)
 -->
<!-- Title: Graphical Class Hierarchy Pages: 1 -->
<svg width="265pt" height="101pt"
 viewBox="0.00 0.00 265.00 101.25" xmlns="http://www.w3.org/2000/svg" xmlns:xlink="http://www.w3.org/1999/xlink">
<g id="graph0" class="graph" transform="scale(1 1) rotate(0) translate(4 97.25)">
<title>Graphical Class Hierarchy</title>
<!-- Node0 -->
<g id="Node000000" class="node">
<title>Node0</title>
<g id="a_Node000000"><a xlink:href="classvc64_1_1_option_parser.html" target="_top" xlink:title=" ">
<polygon fill="white" stroke="#666666" points="100,-56.25 0,-56.25 0,-37 100,-37 100,-56.25"/>
<text text-anchor="middle" x="50" y="-42.75" font-family="Helvetica,sans-Serif" font-size="10.00">vc64::OptionParser</text>
</a>
</g>
</g>
<!-- Node1 -->
<g id="Node000001" class="node">
<title>Node1</title>
<g id="a_Node000001"><a xlink:href="classvc64_1_1_bool_parser.html" target="_top" xlink:title=" ">
<polygon fill="white" stroke="#666666" points="242,-93.25 151,-93.25 151,-74 242,-74 242,-93.25"/>
<text text-anchor="middle" x="196.5" y="-79.75" font-family="Helvetica,sans-Serif" font-size="10.00">vc64::BoolParser</text>
</a>
</g>
</g>
<!-- Node0&#45;&gt;Node1 -->
<g id="edge198_Node000000_Node000001" class="edge">
<title>Node0&#45;&gt;Node1</title>
<g id="a_edge198_Node000000_Node000001"><a xlink:title=" ">
<path fill="none" stroke="#63b8ff" d="M101.6,-59.58C119.46,-64.15 139.26,-69.23 156.06,-73.53"/>
<polygon fill="#63b8ff" stroke="#63b8ff" points="102.51,-56.2 91.95,-57.11 100.77,-62.98 102.51,-56.2"/>
</a>
</g>
</g>
<!-- Node2 -->
<g id="Node000002" class="node">
<title>Node2</title>
<g id="a_Node000002"><a xlink:href="classvc64_1_1_enum_parser.html" target="_top" xlink:title=" ">
<polygon fill="white" stroke="#666666" points="257,-56.25 136,-56.25 136,-37 257,-37 257,-56.25"/>
<text text-anchor="middle" x="196.5" y="-42.75" font-family="Helvetica,sans-Serif" font-size="10.00">vc64::EnumParser&lt; T &gt;</text>
</a>
</g>
</g>
<!-- Node0&#45;&gt;Node2 -->
<g id="edge199_Node000000_Node000002" class="edge">
<title>Node0&#45;&gt;Node2</title>
<g id="a_edge199_Node000000_Node000002"><a xlink:title=" ">
<path fill="none" stroke="#63b8ff" d="M111.74,-46.62C119.65,-46.62 127.76,-46.62 135.65,-46.62"/>
<polygon fill="#63b8ff" stroke="#63b8ff" points="111.84,-43.13 101.84,-46.63 111.84,-50.13 111.84,-43.13"/>
</a>
</g>
</g>
<!-- Node3 -->
<g id="Node000003" class="node">
<title>Node3</title>
<g id="a_Node000003"><a xlink:href="classvc64_1_1_num_parser.html" target="_top" xlink:title=" ">
<polygon fill="white" stroke="#666666" points="242.75,-19.25 150.25,-19.25 150.25,0 242.75,0 242.75,-19.25"/>
<text text-anchor="middle" x="196.5" y="-5.75" font-family="Helvetica,sans-Serif" font-size="10.00">vc64::NumParser</text>
</a>
</g>
</g>
<!-- Node0&#45;&gt;Node3 -->
<g id="edge200_Node000000_Node000003" class="edge">
<title>Node0&#45;&gt;Node3</title>
<g id="a_edge200_Node000000_Node000003"><a xlink:title=" ">
<path fill="none" stroke="#63b8ff" d="M101.6,-33.67C119.46,-29.1 139.26,-24.02 156.06,-19.72"/>
<polygon fill="#63b8ff" stroke="#63b8ff" points="100.77,-30.27 91.95,-36.14 102.51,-37.05 100.77,-30.27"/>
</a>
</g>
</g>
</g>
</svg>
