<?xml version="1.0" encoding="UTF-8" standalone="no"?>
<!DOCTYPE svg PUBLIC "-//W3C//DTD SVG 1.1//EN"
 "http://www.w3.org/Graphics/SVG/1.1/DTD/svg11.dtd">
<!-- Generated by graphviz version 10.0.1 (20240210.2158)
 -->
<!-- Title: Graphical Class Hierarchy Pages: 1 -->
<svg width="252pt" height="88pt"
 viewBox="0.00 0.00 251.50 87.50" xmlns="http://www.w3.org/2000/svg" xmlns:xlink="http://www.w3.org/1999/xlink">
<g id="graph0" class="graph" transform="scale(1 1) rotate(0) translate(4 83.5)">
<title>Graphical Class Hierarchy</title>
<!-- Node0 -->
<g id="Node000000" class="node">
<title>Node0</title>
<g id="a_Node000000"><a xlink:href="structutil_1_1_ring_buffer.html" target="_top" xlink:title=" ">
<polygon fill="white" stroke="#666666" points="97.75,-54.5 0,-54.5 0,-24 97.75,-24 97.75,-54.5"/>
<text text-anchor="start" x="8" y="-41" font-family="Helvetica,sans-Serif" font-size="10.00">util::RingBuffer&lt; T,</text>
<text text-anchor="middle" x="48.88" y="-29.75" font-family="Helvetica,sans-Serif" font-size="10.00"> capacity &gt;</text>
</a>
</g>
</g>
<!-- Node1 -->
<g id="Node000001" class="node">
<title>Node1</title>
<g id="a_Node000001"><a xlink:href="structutil_1_1_sorted_ring_buffer.html" target="_top" xlink:title=" ">
<polygon fill="white" stroke="#666666" points="243.5,-79.5 133.75,-79.5 133.75,-49 243.5,-49 243.5,-79.5"/>
<text text-anchor="start" x="141.75" y="-66" font-family="Helvetica,sans-Serif" font-size="10.00">util::SortedRingBuffer</text>
<text text-anchor="middle" x="188.62" y="-54.75" font-family="Helvetica,sans-Serif" font-size="10.00">&lt; Cmd, 1024 &gt;</text>
</a>
</g>
</g>
<!-- Node0&#45;&gt;Node1 -->
<g id="edge15_Node000000_Node000001" class="edge">
<title>Node0&#45;&gt;Node1</title>
<g id="a_edge15_Node000000_Node000001"><a xlink:title=" ">
<path fill="none" stroke="#63b8ff" d="M109.3,-50.03C117.37,-51.5 125.62,-53 133.59,-54.44"/>
<polygon fill="#63b8ff" stroke="#63b8ff" points="110.01,-46.61 99.54,-48.26 108.76,-53.49 110.01,-46.61"/>
</a>
</g>
</g>
<!-- Node2 -->
<g id="Node000002" class="node">
<title>Node2</title>
<g id="a_Node000002"><a xlink:href="structutil_1_1_sorted_ring_buffer.html" target="_top" xlink:title=" ">
<polygon fill="white" stroke="#666666" points="243.5,-30.5 133.75,-30.5 133.75,0 243.5,0 243.5,-30.5"/>
<text text-anchor="start" x="141.75" y="-17" font-family="Helvetica,sans-Serif" font-size="10.00">util::SortedRingBuffer</text>
<text text-anchor="middle" x="188.62" y="-5.75" font-family="Helvetica,sans-Serif" font-size="10.00">&lt; T, capacity &gt;</text>
</a>
</g>
</g>
<!-- Node0&#45;&gt;Node2 -->
<g id="edge16_Node000000_Node000002" class="edge">
<title>Node0&#45;&gt;Node2</title>
<g id="a_edge16_Node000000_Node000002"><a xlink:title=" ">
<path fill="none" stroke="#63b8ff" d="M109.3,-28.9C117.37,-27.49 125.62,-26.05 133.59,-24.66"/>
<polygon fill="#63b8ff" stroke="#63b8ff" points="108.8,-25.43 99.54,-30.6 110,-32.33 108.8,-25.43"/>
</a>
</g>
</g>
</g>
</svg>
