<?xml version="1.0" encoding="UTF-8" standalone="no"?>
<!DOCTYPE svg PUBLIC "-//W3C//DTD SVG 1.1//EN"
 "http://www.w3.org/Graphics/SVG/1.1/DTD/svg11.dtd">
<!-- Generated by graphviz version 10.0.1 (20240210.2158)
 -->
<!-- Title: Graphical Class Hierarchy Pages: 1 -->
<svg width="296pt" height="88pt"
 viewBox="0.00 0.00 295.75 87.50" xmlns="http://www.w3.org/2000/svg" xmlns:xlink="http://www.w3.org/1999/xlink">
<g id="graph0" class="graph" transform="scale(1 1) rotate(0) translate(4 83.5)">
<title>Graphical Class Hierarchy</title>
<!-- Node0 -->
<g id="Node000000" class="node">
<title>Node0</title>
<g id="a_Node000000"><a xlink:href="structutil_1_1_ring_buffer.html" target="_top" xlink:title=" ">
<polygon fill="white" stroke="#666666" points="127.75,-48.88 0,-48.88 0,-29.62 127.75,-29.62 127.75,-48.88"/>
<text text-anchor="middle" x="63.88" y="-35.38" font-family="Helvetica,sans-Serif" font-size="10.00">RingBuffer&lt; T, capacity &gt;</text>
</a>
</g>
</g>
<!-- Node1 -->
<g id="Node000001" class="node">
<title>Node1</title>
<g id="a_Node000001"><a xlink:href="structutil_1_1_sorted_ring_buffer.html" target="_top" xlink:title=" ">
<polygon fill="white" stroke="#666666" points="287.75,-79.5 163.75,-79.5 163.75,-49 287.75,-49 287.75,-79.5"/>
<text text-anchor="start" x="171.75" y="-66" font-family="Helvetica,sans-Serif" font-size="10.00">SortedRingBuffer&lt; Cmd,</text>
<text text-anchor="middle" x="225.75" y="-54.75" font-family="Helvetica,sans-Serif" font-size="10.00"> 1024 &gt;</text>
</a>
</g>
</g>
<!-- Node0&#45;&gt;Node1 -->
<g id="edge254_Node000000_Node000001" class="edge">
<title>Node0&#45;&gt;Node1</title>
<g id="a_edge254_Node000000_Node000001"><a xlink:title=" ">
<path fill="none" stroke="#63b8ff" d="M139.33,-50.89C147.37,-52.15 155.47,-53.42 163.33,-54.65"/>
<polygon fill="#63b8ff" stroke="#63b8ff" points="139.98,-47.45 129.56,-49.36 138.9,-54.37 139.98,-47.45"/>
</a>
</g>
</g>
<!-- Node2 -->
<g id="Node000002" class="node">
<title>Node2</title>
<g id="a_Node000002"><a xlink:href="structutil_1_1_sorted_ring_buffer.html" target="_top" xlink:title=" ">
<polygon fill="white" stroke="#666666" points="279.5,-30.5 172,-30.5 172,0 279.5,0 279.5,-30.5"/>
<text text-anchor="start" x="180" y="-17" font-family="Helvetica,sans-Serif" font-size="10.00">SortedRingBuffer&lt; T,</text>
<text text-anchor="middle" x="225.75" y="-5.75" font-family="Helvetica,sans-Serif" font-size="10.00"> capacity &gt;</text>
</a>
</g>
</g>
<!-- Node0&#45;&gt;Node2 -->
<g id="edge255_Node000000_Node000002" class="edge">
<title>Node0&#45;&gt;Node2</title>
<g id="a_edge255_Node000000_Node000002"><a xlink:title=" ">
<path fill="none" stroke="#63b8ff" d="M139.32,-28.07C150.2,-26.44 161.22,-24.79 171.56,-23.23"/>
<polygon fill="#63b8ff" stroke="#63b8ff" points="138.93,-24.59 129.56,-29.54 139.97,-31.52 138.93,-24.59"/>
</a>
</g>
</g>
</g>
</svg>
