<?xml version="1.0" encoding="UTF-8" standalone="no"?>
<!DOCTYPE svg PUBLIC "-//W3C//DTD SVG 1.1//EN"
 "http://www.w3.org/Graphics/SVG/1.1/DTD/svg11.dtd">
<!-- Generated by graphviz version 10.0.1 (20240210.2158)
 -->
<!-- Title: Graphical Class Hierarchy Pages: 1 -->
<svg width="325pt" height="286pt"
 viewBox="0.00 0.00 324.50 286.25" xmlns="http://www.w3.org/2000/svg" xmlns:xlink="http://www.w3.org/1999/xlink">
<g id="graph0" class="graph" transform="scale(1 1) rotate(0) translate(4 282.25)">
<title>Graphical Class Hierarchy</title>
<!-- Node0 -->
<g id="Node000000" class="node">
<title>Node0</title>
<g id="a_Node000000"><a xlink:title=" ">
<polygon fill="#e0e0e0" stroke="#999999" points="58,-185.25 0,-185.25 0,-166 58,-166 58,-185.25"/>
<text text-anchor="middle" x="29" y="-171.75" font-family="Helvetica,sans-Serif" font-size="10.00">exception</text>
</a>
</g>
</g>
<!-- Node1 -->
<g id="Node000001" class="node">
<title>Node1</title>
<g id="a_Node000001"><a xlink:href="structutil_1_1_exception.html" target="_top" xlink:title=" ">
<polygon fill="white" stroke="#666666" points="155,-241.25 95.5,-241.25 95.5,-222 155,-222 155,-241.25"/>
<text text-anchor="middle" x="125.25" y="-227.75" font-family="Helvetica,sans-Serif" font-size="10.00">Exception</text>
</a>
</g>
</g>
<!-- Node0&#45;&gt;Node1 -->
<g id="edge188_Node000000_Node000001" class="edge">
<title>Node0&#45;&gt;Node1</title>
<g id="a_edge188_Node000000_Node000001"><a xlink:title=" ">
<path fill="none" stroke="#63b8ff" d="M56.36,-191.29C72.64,-200.96 93.06,-213.09 107.23,-221.51"/>
<polygon fill="#63b8ff" stroke="#63b8ff" points="58.54,-188.51 48.15,-186.41 54.96,-194.53 58.54,-188.51"/>
</a>
</g>
</g>
<!-- Node4 -->
<g id="Node000004" class="node">
<title>Node4</title>
<g id="a_Node000004"><a xlink:href="structutil_1_1_parse_error.html" target="_top" xlink:title=" ">
<polygon fill="white" stroke="#666666" points="156.5,-130.25 94,-130.25 94,-111 156.5,-111 156.5,-130.25"/>
<text text-anchor="middle" x="125.25" y="-116.75" font-family="Helvetica,sans-Serif" font-size="10.00">ParseError</text>
</a>
</g>
</g>
<!-- Node0&#45;&gt;Node4 -->
<g id="edge191_Node000000_Node000004" class="edge">
<title>Node0&#45;&gt;Node4</title>
<g id="a_edge191_Node000000_Node000004"><a xlink:title=" ">
<path fill="none" stroke="#63b8ff" d="M57.2,-159.75C73.28,-150.37 93.15,-138.77 107.07,-130.65"/>
<polygon fill="#63b8ff" stroke="#63b8ff" points="55.47,-156.71 48.59,-164.77 59,-162.76 55.47,-156.71"/>
</a>
</g>
</g>
<!-- Node2 -->
<g id="Node000002" class="node">
<title>Node2</title>
<g id="a_Node000002"><a xlink:href="structvc64_1_1_script_interruption.html" target="_top" xlink:title=" ">
<polygon fill="white" stroke="#666666" points="299.62,-278.25 209.38,-278.25 209.38,-259 299.62,-259 299.62,-278.25"/>
<text text-anchor="middle" x="254.5" y="-264.75" font-family="Helvetica,sans-Serif" font-size="10.00">ScriptInterruption</text>
</a>
</g>
</g>
<!-- Node1&#45;&gt;Node2 -->
<g id="edge189_Node000001_Node000002" class="edge">
<title>Node1&#45;&gt;Node2</title>
<g id="a_edge189_Node000001_Node000002"><a xlink:title=" ">
<path fill="none" stroke="#63b8ff" d="M166.15,-243.23C183.11,-248.16 202.7,-253.85 219.02,-258.6"/>
<polygon fill="#63b8ff" stroke="#63b8ff" points="167.48,-239.97 156.9,-240.54 165.52,-246.69 167.48,-239.97"/>
</a>
</g>
</g>
<!-- Node3 -->
<g id="Node000003" class="node">
<title>Node3</title>
<g id="a_Node000003"><a xlink:href="structvc64_1_1_v_c64_error.html" target="_top" xlink:title="Emulator exception.">
<polygon fill="white" stroke="#666666" points="285.38,-241.25 223.62,-241.25 223.62,-222 285.38,-222 285.38,-241.25"/>
<text text-anchor="middle" x="254.5" y="-227.75" font-family="Helvetica,sans-Serif" font-size="10.00">VC64Error</text>
</a>
</g>
</g>
<!-- Node1&#45;&gt;Node3 -->
<g id="edge190_Node000001_Node000003" class="edge">
<title>Node1&#45;&gt;Node3</title>
<g id="a_edge190_Node000001_Node000003"><a xlink:title=" ">
<path fill="none" stroke="#63b8ff" d="M166.75,-231.62C185.19,-231.62 206.61,-231.62 223.56,-231.62"/>
<polygon fill="#63b8ff" stroke="#63b8ff" points="166.96,-228.13 156.96,-231.63 166.96,-235.13 166.96,-228.13"/>
</a>
</g>
</g>
<!-- Node5 -->
<g id="Node000005" class="node">
<title>Node5</title>
<g id="a_Node000005"><a xlink:href="structutil_1_1_enum_parse_error.html" target="_top" xlink:title=" ">
<polygon fill="white" stroke="#666666" points="298.5,-204.25 210.5,-204.25 210.5,-185 298.5,-185 298.5,-204.25"/>
<text text-anchor="middle" x="254.5" y="-190.75" font-family="Helvetica,sans-Serif" font-size="10.00">EnumParseError</text>
</a>
</g>
</g>
<!-- Node4&#45;&gt;Node5 -->
<g id="edge192_Node000004_Node000005" class="edge">
<title>Node4&#45;&gt;Node5</title>
<g id="a_edge192_Node000004_Node000005"><a xlink:title=" ">
<path fill="none" stroke="#63b8ff" d="M142.93,-138.18C155.51,-150.5 173.76,-166.52 192.5,-176.62 198.23,-179.72 204.57,-182.34 210.91,-184.54"/>
<polygon fill="#63b8ff" stroke="#63b8ff" points="145.77,-136.08 136.25,-131.43 140.8,-141 145.77,-136.08"/>
</a>
</g>
</g>
<!-- Node6 -->
<g id="Node000006" class="node">
<title>Node6</title>
<g id="a_Node000006"><a xlink:href="structutil_1_1_parse_bool_error.html" target="_top" xlink:title=" ">
<polygon fill="white" stroke="#666666" points="295.5,-167.25 213.5,-167.25 213.5,-148 295.5,-148 295.5,-167.25"/>
<text text-anchor="middle" x="254.5" y="-153.75" font-family="Helvetica,sans-Serif" font-size="10.00">ParseBoolError</text>
</a>
</g>
</g>
<!-- Node4&#45;&gt;Node6 -->
<g id="edge193_Node000004_Node000006" class="edge">
<title>Node4&#45;&gt;Node6</title>
<g id="a_edge193_Node000004_Node000006"><a xlink:title=" ">
<path fill="none" stroke="#63b8ff" d="M167.73,-132.69C184.23,-137.48 203.01,-142.94 218.77,-147.53"/>
<polygon fill="#63b8ff" stroke="#63b8ff" points="168.76,-129.34 158.18,-129.91 166.81,-136.06 168.76,-129.34"/>
</a>
</g>
</g>
<!-- Node7 -->
<g id="Node000007" class="node">
<title>Node7</title>
<g id="a_Node000007"><a xlink:href="structutil_1_1_parse_num_error.html" target="_top" xlink:title=" ">
<polygon fill="white" stroke="#666666" points="296.25,-130.25 212.75,-130.25 212.75,-111 296.25,-111 296.25,-130.25"/>
<text text-anchor="middle" x="254.5" y="-116.75" font-family="Helvetica,sans-Serif" font-size="10.00">ParseNumError</text>
</a>
</g>
</g>
<!-- Node4&#45;&gt;Node7 -->
<g id="edge194_Node000004_Node000007" class="edge">
<title>Node4&#45;&gt;Node7</title>
<g id="a_edge194_Node000004_Node000007"><a xlink:title=" ">
<path fill="none" stroke="#63b8ff" d="M167.84,-120.62C182.24,-120.62 198.35,-120.62 212.68,-120.62"/>
<polygon fill="#63b8ff" stroke="#63b8ff" points="168.24,-117.13 158.24,-120.63 168.24,-124.13 168.24,-117.13"/>
</a>
</g>
</g>
<!-- Node8 -->
<g id="Node000008" class="node">
<title>Node8</title>
<g id="a_Node000008"><a xlink:href="structutil_1_1_parse_on_off_error.html" target="_top" xlink:title=" ">
<polygon fill="white" stroke="#666666" points="298.88,-93.25 210.12,-93.25 210.12,-74 298.88,-74 298.88,-93.25"/>
<text text-anchor="middle" x="254.5" y="-79.75" font-family="Helvetica,sans-Serif" font-size="10.00">ParseOnOffError</text>
</a>
</g>
</g>
<!-- Node4&#45;&gt;Node8 -->
<g id="edge195_Node000004_Node000008" class="edge">
<title>Node4&#45;&gt;Node8</title>
<g id="a_edge195_Node000004_Node000008"><a xlink:title=" ">
<path fill="none" stroke="#63b8ff" d="M167.73,-108.56C184.23,-103.77 203.01,-98.31 218.77,-93.72"/>
<polygon fill="#63b8ff" stroke="#63b8ff" points="166.81,-105.19 158.18,-111.34 168.76,-111.91 166.81,-105.19"/>
</a>
</g>
</g>
<!-- Node9 -->
<g id="Node000009" class="node">
<title>Node9</title>
<g id="a_Node000009"><a xlink:href="structvc64_1_1_too_few_arguments_error.html" target="_top" xlink:title=" ">
<polygon fill="white" stroke="#666666" points="313.88,-56.25 195.12,-56.25 195.12,-37 313.88,-37 313.88,-56.25"/>
<text text-anchor="middle" x="254.5" y="-42.75" font-family="Helvetica,sans-Serif" font-size="10.00">TooFewArgumentsError</text>
</a>
</g>
</g>
<!-- Node4&#45;&gt;Node9 -->
<g id="edge196_Node000004_Node000009" class="edge">
<title>Node4&#45;&gt;Node9</title>
<g id="a_edge196_Node000004_Node000009"><a xlink:title=" ">
<path fill="none" stroke="#63b8ff" d="M142.93,-103.07C155.51,-90.75 173.76,-74.73 192.5,-64.62 198.23,-61.53 204.57,-58.91 210.91,-56.71"/>
<polygon fill="#63b8ff" stroke="#63b8ff" points="140.8,-100.25 136.25,-109.82 145.77,-105.17 140.8,-100.25"/>
</a>
</g>
</g>
<!-- Node10 -->
<g id="Node000010" class="node">
<title>Node10</title>
<g id="a_Node000010"><a xlink:href="structvc64_1_1_too_many_arguments_error.html" target="_top" xlink:title=" ">
<polygon fill="white" stroke="#666666" points="316.5,-19.25 192.5,-19.25 192.5,0 316.5,0 316.5,-19.25"/>
<text text-anchor="middle" x="254.5" y="-5.75" font-family="Helvetica,sans-Serif" font-size="10.00">TooManyArgumentsError</text>
</a>
</g>
</g>
<!-- Node4&#45;&gt;Node10 -->
<g id="edge197_Node000004_Node000010" class="edge">
<title>Node4&#45;&gt;Node10</title>
<g id="a_edge197_Node000004_Node000010"><a xlink:title=" ">
<path fill="none" stroke="#63b8ff" d="M135.59,-100.38C146.38,-79.2 166.09,-46.45 192.5,-27.62 196.91,-24.48 201.86,-21.89 206.99,-19.74"/>
<polygon fill="#63b8ff" stroke="#63b8ff" points="132.54,-98.65 131.31,-109.17 138.84,-101.71 132.54,-98.65"/>
</a>
</g>
</g>
</g>
</svg>
