<?xml version="1.0" encoding="UTF-8" standalone="no"?>
<!DOCTYPE svg PUBLIC "-//W3C//DTD SVG 1.1//EN"
 "http://www.w3.org/Graphics/SVG/1.1/DTD/svg11.dtd">
<!-- Generated by graphviz version 10.0.1 (20240210.2158)
 -->
<!-- Title: Graphical Class Hierarchy Pages: 1 -->
<svg width="285pt" height="64pt"
 viewBox="0.00 0.00 284.50 64.25" xmlns="http://www.w3.org/2000/svg" xmlns:xlink="http://www.w3.org/1999/xlink">
<g id="graph0" class="graph" transform="scale(1 1) rotate(0) translate(4 60.25)">
<title>Graphical Class Hierarchy</title>
<!-- Node0 -->
<g id="Node000000" class="node">
<title>Node0</title>
<g id="a_Node000000"><a xlink:href="classvc64_1_1peddle_1_1_guards.html" target="_top" xlink:title=" ">
<polygon fill="white" stroke="#666666" points="109,-37.25 0,-37.25 0,-18 109,-18 109,-37.25"/>
<text text-anchor="middle" x="54.5" y="-23.75" font-family="Helvetica,sans-Serif" font-size="10.00">vc64::peddle::Guards</text>
</a>
</g>
</g>
<!-- Node1 -->
<g id="Node000001" class="node">
<title>Node1</title>
<g id="a_Node000001"><a xlink:href="classvc64_1_1peddle_1_1_breakpoints.html" target="_top" xlink:title=" ">
<polygon fill="white" stroke="#666666" points="275.38,-56.25 146.12,-56.25 146.12,-37 275.38,-37 275.38,-56.25"/>
<text text-anchor="middle" x="210.75" y="-42.75" font-family="Helvetica,sans-Serif" font-size="10.00">vc64::peddle::Breakpoints</text>
</a>
</g>
</g>
<!-- Node0&#45;&gt;Node1 -->
<g id="edge201_Node000000_Node000001" class="edge">
<title>Node0&#45;&gt;Node1</title>
<g id="a_edge201_Node000000_Node000001"><a xlink:title=" ">
<path fill="none" stroke="#63b8ff" d="M120.64,-35.65C128.96,-36.67 137.47,-37.72 145.77,-38.74"/>
<polygon fill="#63b8ff" stroke="#63b8ff" points="121.3,-32.2 110.95,-34.46 120.45,-39.15 121.3,-32.2"/>
</a>
</g>
</g>
<!-- Node2 -->
<g id="Node000002" class="node">
<title>Node2</title>
<g id="a_Node000002"><a xlink:href="classvc64_1_1peddle_1_1_watchpoints.html" target="_top" xlink:title=" ">
<polygon fill="white" stroke="#666666" points="276.5,-19.25 145,-19.25 145,0 276.5,0 276.5,-19.25"/>
<text text-anchor="middle" x="210.75" y="-5.75" font-family="Helvetica,sans-Serif" font-size="10.00">vc64::peddle::Watchpoints</text>
</a>
</g>
</g>
<!-- Node0&#45;&gt;Node2 -->
<g id="edge202_Node000000_Node000002" class="edge">
<title>Node0&#45;&gt;Node2</title>
<g id="a_edge202_Node000000_Node000002"><a xlink:title=" ">
<path fill="none" stroke="#63b8ff" d="M120.85,-20C128.74,-19.08 136.81,-18.14 144.69,-17.22"/>
<polygon fill="#63b8ff" stroke="#63b8ff" points="120.48,-16.52 110.95,-21.15 121.29,-23.47 120.48,-16.52"/>
</a>
</g>
</g>
</g>
</svg>
