<?xml version="1.0" encoding="UTF-8" standalone="no"?>
<!DOCTYPE svg PUBLIC "-//W3C//DTD SVG 1.1//EN"
 "http://www.w3.org/Graphics/SVG/1.1/DTD/svg11.dtd">
<!-- Generated by graphviz version 10.0.1 (20240210.2158)
 -->
<!-- Title: /Users/hoff/Retro/virtualc64/Emulator/Components/SID/resid/sid.h Pages: 1 -->
<svg width="174pt" height="604pt"
 viewBox="0.00 0.00 174.00 604.25" xmlns="http://www.w3.org/2000/svg" xmlns:xlink="http://www.w3.org/1999/xlink">
<g id="graph0" class="graph" transform="scale(1 1) rotate(0) translate(4 600.25)">
<title>/Users/hoff/Retro/virtualc64/Emulator/Components/SID/resid/sid.h</title>
<!-- Node1 -->
<g id="Node000001" class="node">
<title>Node1</title>
<g id="a_Node000001"><a xlink:title=" ">
<polygon fill="#999999" stroke="#666666" points="151.38,-596.25 14.62,-596.25 14.62,-554.5 151.38,-554.5 151.38,-596.25"/>
<text text-anchor="start" x="22.62" y="-582.75" font-family="Helvetica,sans-Serif" font-size="10.00">/Users/hoff/Retro/virtualc64</text>
<text text-anchor="start" x="22.62" y="-571.5" font-family="Helvetica,sans-Serif" font-size="10.00">/Emulator/Components/SID</text>
<text text-anchor="middle" x="83" y="-560.25" font-family="Helvetica,sans-Serif" font-size="10.00">/resid/sid.h</text>
</a>
</g>
</g>
<!-- Node2 -->
<g id="Node000002" class="node">
<title>Node2</title>
<g id="a_Node000002"><a xlink:href="_re_s_i_d_8h_source.html" target="_top" xlink:title=" ">
<polygon fill="white" stroke="#666666" points="151.38,-518.5 14.62,-518.5 14.62,-476.75 151.38,-476.75 151.38,-518.5"/>
<text text-anchor="start" x="22.62" y="-505" font-family="Helvetica,sans-Serif" font-size="10.00">/Users/hoff/Retro/virtualc64</text>
<text text-anchor="start" x="22.62" y="-493.75" font-family="Helvetica,sans-Serif" font-size="10.00">/Emulator/Components/SID</text>
<text text-anchor="middle" x="83" y="-482.5" font-family="Helvetica,sans-Serif" font-size="10.00">/ReSID.h</text>
</a>
</g>
</g>
<!-- Node1&#45;&gt;Node2 -->
<g id="edge1_Node000001_Node000002" class="edge">
<title>Node1&#45;&gt;Node2</title>
<g id="a_edge1_Node000001_Node000002"><a xlink:title=" ">
<path fill="none" stroke="#63b8ff" d="M83,-542.75C83,-534.71 83,-526.29 83,-518.98"/>
<polygon fill="#63b8ff" stroke="#63b8ff" points="79.5,-542.56 83,-552.56 86.5,-542.56 79.5,-542.56"/>
</a>
</g>
</g>
<!-- Node3 -->
<g id="Node000003" class="node">
<title>Node3</title>
<g id="a_Node000003"><a xlink:href="sid_8h_source.html" target="_top" xlink:title=" ">
<polygon fill="white" stroke="#666666" points="165.62,-440.75 0.38,-440.75 0.38,-410.25 165.62,-410.25 165.62,-440.75"/>
<text text-anchor="start" x="8.38" y="-427.25" font-family="Helvetica,sans-Serif" font-size="10.00">/Users/hoff/Retro/virtualc64</text>
<text text-anchor="middle" x="83" y="-416" font-family="Helvetica,sans-Serif" font-size="10.00">/Emulator/Components/SID/SID.h</text>
</a>
</g>
</g>
<!-- Node2&#45;&gt;Node3 -->
<g id="edge2_Node000002_Node000003" class="edge">
<title>Node2&#45;&gt;Node3</title>
<g id="a_edge2_Node000002_Node000003"><a xlink:title=" ">
<path fill="none" stroke="#63b8ff" d="M83,-464.88C83,-456.52 83,-447.9 83,-440.95"/>
<polygon fill="#63b8ff" stroke="#63b8ff" points="79.5,-464.83 83,-474.83 86.5,-464.83 79.5,-464.83"/>
</a>
</g>
</g>
<!-- Node4 -->
<g id="Node000004" class="node">
<title>Node4</title>
<g id="a_Node000004"><a xlink:href="_muxer_8h_source.html" target="_top" xlink:title=" ">
<polygon fill="white" stroke="#666666" points="151.38,-374.25 14.62,-374.25 14.62,-332.5 151.38,-332.5 151.38,-374.25"/>
<text text-anchor="start" x="22.62" y="-360.75" font-family="Helvetica,sans-Serif" font-size="10.00">/Users/hoff/Retro/virtualc64</text>
<text text-anchor="start" x="22.62" y="-349.5" font-family="Helvetica,sans-Serif" font-size="10.00">/Emulator/Components/SID</text>
<text text-anchor="middle" x="83" y="-338.25" font-family="Helvetica,sans-Serif" font-size="10.00">/Muxer.h</text>
</a>
</g>
</g>
<!-- Node3&#45;&gt;Node4 -->
<g id="edge3_Node000003_Node000004" class="edge">
<title>Node3&#45;&gt;Node4</title>
<g id="a_edge3_Node000003_Node000004"><a xlink:title=" ">
<path fill="none" stroke="#63b8ff" d="M83,-398.72C83,-390.81 83,-382.23 83,-374.74"/>
<polygon fill="#63b8ff" stroke="#63b8ff" points="79.5,-398.46 83,-408.46 86.5,-398.46 79.5,-398.46"/>
</a>
</g>
</g>
<!-- Node5 -->
<g id="Node000005" class="node">
<title>Node5</title>
<g id="a_Node000005"><a xlink:href="_c64_8h_source.html" target="_top" xlink:title=" ">
<polygon fill="white" stroke="#666666" points="155.88,-296.5 10.12,-296.5 10.12,-266 155.88,-266 155.88,-296.5"/>
<text text-anchor="start" x="18.12" y="-283" font-family="Helvetica,sans-Serif" font-size="10.00">/Users/hoff/Retro/virtualc64</text>
<text text-anchor="middle" x="83" y="-271.75" font-family="Helvetica,sans-Serif" font-size="10.00">/Emulator/Components/C64.h</text>
</a>
</g>
</g>
<!-- Node4&#45;&gt;Node5 -->
<g id="edge4_Node000004_Node000005" class="edge">
<title>Node4&#45;&gt;Node5</title>
<g id="a_edge4_Node000004_Node000005"><a xlink:title=" ">
<path fill="none" stroke="#63b8ff" d="M83,-320.63C83,-312.27 83,-303.65 83,-296.7"/>
<polygon fill="#63b8ff" stroke="#63b8ff" points="79.5,-320.58 83,-330.58 86.5,-320.58 79.5,-320.58"/>
</a>
</g>
</g>
<!-- Node6 -->
<g id="Node000006" class="node">
<title>Node6</title>
<g id="a_Node000006"><a xlink:href="_emulator_8h_source.html" target="_top" xlink:title=" ">
<polygon fill="white" stroke="#666666" points="166,-230 0,-230 0,-199.5 166,-199.5 166,-230"/>
<text text-anchor="start" x="8" y="-216.5" font-family="Helvetica,sans-Serif" font-size="10.00">/Users/hoff/Retro/virtualc64</text>
<text text-anchor="middle" x="83" y="-205.25" font-family="Helvetica,sans-Serif" font-size="10.00">/Emulator/Components/Emulator.h</text>
</a>
</g>
</g>
<!-- Node5&#45;&gt;Node6 -->
<g id="edge5_Node000005_Node000006" class="edge">
<title>Node5&#45;&gt;Node6</title>
<g id="a_edge5_Node000005_Node000006"><a xlink:title=" ">
<path fill="none" stroke="#63b8ff" d="M83,-254.31C83,-246.14 83,-237.41 83,-230.33"/>
<polygon fill="#63b8ff" stroke="#63b8ff" points="79.5,-254.1 83,-264.1 86.5,-254.1 79.5,-254.1"/>
</a>
</g>
</g>
<!-- Node7 -->
<g id="Node000007" class="node">
<title>Node7</title>
<g id="a_Node000007"><a xlink:href="_virtual_c64_8h.html" target="_top" xlink:title=" ">
<polygon fill="white" stroke="#666666" points="151.38,-163.5 14.62,-163.5 14.62,-133 151.38,-133 151.38,-163.5"/>
<text text-anchor="start" x="22.62" y="-150" font-family="Helvetica,sans-Serif" font-size="10.00">/Users/hoff/Retro/virtualc64</text>
<text text-anchor="middle" x="83" y="-138.75" font-family="Helvetica,sans-Serif" font-size="10.00">/Emulator/VirtualC64.h</text>
</a>
</g>
</g>
<!-- Node6&#45;&gt;Node7 -->
<g id="edge6_Node000006_Node000007" class="edge">
<title>Node6&#45;&gt;Node7</title>
<g id="a_edge6_Node000006_Node000007"><a xlink:title=" ">
<path fill="none" stroke="#63b8ff" d="M83,-187.81C83,-179.64 83,-170.91 83,-163.83"/>
<polygon fill="#63b8ff" stroke="#63b8ff" points="79.5,-187.6 83,-197.6 86.5,-187.6 79.5,-187.6"/>
</a>
</g>
</g>
<!-- Node8 -->
<g id="Node000008" class="node">
<title>Node8</title>
<g id="a_Node000008"><a xlink:href="_headless_8h_source.html" target="_top" xlink:title=" ">
<polygon fill="white" stroke="#666666" points="151.38,-97 14.62,-97 14.62,-66.5 151.38,-66.5 151.38,-97"/>
<text text-anchor="start" x="22.62" y="-83.5" font-family="Helvetica,sans-Serif" font-size="10.00">/Users/hoff/Retro/virtualc64</text>
<text text-anchor="middle" x="83" y="-72.25" font-family="Helvetica,sans-Serif" font-size="10.00">/Emulator/Headless.h</text>
</a>
</g>
</g>
<!-- Node7&#45;&gt;Node8 -->
<g id="edge7_Node000007_Node000008" class="edge">
<title>Node7&#45;&gt;Node8</title>
<g id="a_edge7_Node000007_Node000008"><a xlink:title=" ">
<path fill="none" stroke="#63b8ff" d="M83,-121.31C83,-113.14 83,-104.41 83,-97.33"/>
<polygon fill="#63b8ff" stroke="#63b8ff" points="79.5,-121.1 83,-131.1 86.5,-121.1 79.5,-121.1"/>
</a>
</g>
</g>
<!-- Node9 -->
<g id="Node000009" class="node">
<title>Node9</title>
<g id="a_Node000009"><a xlink:href="_headless_8cpp.html" target="_top" xlink:title=" ">
<polygon fill="white" stroke="#666666" points="151.38,-30.5 14.62,-30.5 14.62,0 151.38,0 151.38,-30.5"/>
<text text-anchor="start" x="22.62" y="-17" font-family="Helvetica,sans-Serif" font-size="10.00">/Users/hoff/Retro/virtualc64</text>
<text text-anchor="middle" x="83" y="-5.75" font-family="Helvetica,sans-Serif" font-size="10.00">/Emulator/Headless.cpp</text>
</a>
</g>
</g>
<!-- Node8&#45;&gt;Node9 -->
<g id="edge8_Node000008_Node000009" class="edge">
<title>Node8&#45;&gt;Node9</title>
<g id="a_edge8_Node000008_Node000009"><a xlink:title=" ">
<path fill="none" stroke="#63b8ff" d="M83,-54.81C83,-46.64 83,-37.91 83,-30.83"/>
<polygon fill="#63b8ff" stroke="#63b8ff" points="79.5,-54.6 83,-64.6 86.5,-54.6 79.5,-54.6"/>
</a>
</g>
</g>
</g>
</svg>
