<?xml version="1.0" encoding="UTF-8" standalone="no"?>
<!DOCTYPE svg PUBLIC "-//W3C//DTD SVG 1.1//EN"
 "http://www.w3.org/Graphics/SVG/1.1/DTD/svg11.dtd">
<!-- Generated by graphviz version 10.0.1 (20240210.2158)
 -->
<!-- Title: /Users/hoff/Retro/virtualc64/Emulator/Components/SID/resid/sid.h Pages: 1 -->
<svg width="288pt" height="271pt"
 viewBox="0.00 0.00 287.76 270.75" xmlns="http://www.w3.org/2000/svg" xmlns:xlink="http://www.w3.org/1999/xlink">
<g id="graph0" class="graph" transform="scale(1 1) rotate(0) translate(4 266.75)">
<title>/Users/hoff/Retro/virtualc64/Emulator/Components/SID/resid/sid.h</title>
<!-- Node1 -->
<g id="Node000001" class="node">
<title>Node1</title>
<g id="a_Node000001"><a xlink:title=" ">
<polygon fill="#999999" stroke="#666666" points="214.26,-262.75 77.51,-262.75 77.51,-221 214.26,-221 214.26,-262.75"/>
<text text-anchor="start" x="85.51" y="-249.25" font-family="Helvetica,sans-Serif" font-size="10.00">/Users/hoff/Retro/virtualc64</text>
<text text-anchor="start" x="85.51" y="-238" font-family="Helvetica,sans-Serif" font-size="10.00">/Emulator/Components/SID</text>
<text text-anchor="middle" x="145.89" y="-226.75" font-family="Helvetica,sans-Serif" font-size="10.00">/resid/sid.h</text>
</a>
</g>
</g>
<!-- Node2 -->
<g id="Node000002" class="node">
<title>Node2</title>
<g id="a_Node000002"><a xlink:href="resid-config_8h_source.html" target="_top" xlink:title=" ">
<polygon fill="white" stroke="#666666" points="153.14,-74.5 78.64,-74.5 78.64,-55.25 153.14,-55.25 153.14,-74.5"/>
<text text-anchor="middle" x="115.89" y="-61" font-family="Helvetica,sans-Serif" font-size="10.00">resid&#45;config.h</text>
</a>
</g>
</g>
<!-- Node1&#45;&gt;Node2 -->
<g id="edge1_Node000001_Node000002" class="edge">
<title>Node1&#45;&gt;Node2</title>
<g id="a_edge1_Node000001_Node000002"><a xlink:title=" ">
<path fill="none" stroke="#63b8ff" d="M84.72,-220.55C65.43,-211.89 45.18,-200.21 29.89,-185 10.51,-165.73 9.05,-156.38 2.89,-129.75 0.96,-121.41 -1.92,-117.57 2.89,-110.5 17.38,-89.2 43.77,-78.06 67.4,-72.24"/>
<polygon fill="#63b8ff" stroke="#63b8ff" points="67.86,-75.73 76.89,-70.18 66.37,-68.89 67.86,-75.73"/>
</a>
</g>
</g>
<!-- Node4 -->
<g id="Node000004" class="node">
<title>Node4</title>
<g id="a_Node000004"><a xlink:href="voice_8h_source.html" target="_top" xlink:title=" ">
<polygon fill="white" stroke="#666666" points="86.64,-185 39.14,-185 39.14,-165.75 86.64,-165.75 86.64,-185"/>
<text text-anchor="middle" x="62.89" y="-171.5" font-family="Helvetica,sans-Serif" font-size="10.00">voice.h</text>
</a>
</g>
</g>
<!-- Node1&#45;&gt;Node4 -->
<g id="edge3_Node000001_Node000004" class="edge">
<title>Node1&#45;&gt;Node4</title>
<g id="a_edge3_Node000001_Node000004"><a xlink:title=" ">
<path fill="none" stroke="#63b8ff" d="M120.08,-220.82C108.3,-211.67 94.55,-200.98 83.48,-192.38"/>
<polygon fill="#63b8ff" stroke="#63b8ff" points="85.8,-189.75 75.76,-186.37 81.5,-195.27 85.8,-189.75"/>
</a>
</g>
</g>
<!-- Node7 -->
<g id="Node000007" class="node">
<title>Node7</title>
<g id="a_Node000007"><a xlink:href="filter_8h_source.html" target="_top" xlink:title=" ">
<polygon fill="white" stroke="#666666" points="167.01,-185 124.76,-185 124.76,-165.75 167.01,-165.75 167.01,-185"/>
<text text-anchor="middle" x="145.89" y="-171.5" font-family="Helvetica,sans-Serif" font-size="10.00">filter.h</text>
</a>
</g>
</g>
<!-- Node1&#45;&gt;Node7 -->
<g id="edge9_Node000001_Node000007" class="edge">
<title>Node1&#45;&gt;Node7</title>
<g id="a_edge9_Node000001_Node000007"><a xlink:title=" ">
<path fill="none" stroke="#63b8ff" d="M145.89,-220.82C145.89,-213.15 145.89,-204.39 145.89,-196.7"/>
<polygon fill="#63b8ff" stroke="#63b8ff" points="149.39,-196.96 145.89,-186.96 142.39,-196.96 149.39,-196.96"/>
</a>
</g>
</g>
<!-- Node8 -->
<g id="Node000008" class="node">
<title>Node8</title>
<g id="a_Node000008"><a xlink:href="extfilt_8h_source.html" target="_top" xlink:title=" ">
<polygon fill="white" stroke="#666666" points="233.01,-185 184.76,-185 184.76,-165.75 233.01,-165.75 233.01,-185"/>
<text text-anchor="middle" x="208.89" y="-171.5" font-family="Helvetica,sans-Serif" font-size="10.00">extfilt.h</text>
</a>
</g>
</g>
<!-- Node1&#45;&gt;Node8 -->
<g id="edge11_Node000001_Node000008" class="edge">
<title>Node1&#45;&gt;Node8</title>
<g id="a_edge11_Node000001_Node000008"><a xlink:title=" ">
<path fill="none" stroke="#63b8ff" d="M165.48,-220.82C174.05,-212.04 184.02,-201.84 192.23,-193.43"/>
<polygon fill="#63b8ff" stroke="#63b8ff" points="194.49,-196.13 198.97,-186.53 189.48,-191.24 194.49,-196.13"/>
</a>
</g>
</g>
<!-- Node9 -->
<g id="Node000009" class="node">
<title>Node9</title>
<g id="a_Node000009"><a xlink:href="pot_8h_source.html" target="_top" xlink:title=" ">
<polygon fill="white" stroke="#666666" points="279.76,-129.75 242.01,-129.75 242.01,-110.5 279.76,-110.5 279.76,-129.75"/>
<text text-anchor="middle" x="260.89" y="-116.25" font-family="Helvetica,sans-Serif" font-size="10.00">pot.h</text>
</a>
</g>
</g>
<!-- Node1&#45;&gt;Node9 -->
<g id="edge13_Node000001_Node000009" class="edge">
<title>Node1&#45;&gt;Node9</title>
<g id="a_edge13_Node000001_Node000009"><a xlink:title=" ">
<path fill="none" stroke="#63b8ff" d="M196.61,-220.54C213.06,-211.76 230.09,-200.01 241.89,-185 251.85,-172.33 256.6,-154.53 258.86,-140.93"/>
<polygon fill="#63b8ff" stroke="#63b8ff" points="262.28,-141.77 260.11,-131.4 255.34,-140.86 262.28,-141.77"/>
</a>
</g>
</g>
<!-- Node3 -->
<g id="Node000003" class="node">
<title>Node3</title>
<g id="a_Node000003"><a xlink:href="siddefs_8h_source.html" target="_top" xlink:title=" ">
<polygon fill="white" stroke="#666666" points="143.76,-19.25 88.01,-19.25 88.01,0 143.76,0 143.76,-19.25"/>
<text text-anchor="middle" x="115.89" y="-5.75" font-family="Helvetica,sans-Serif" font-size="10.00">siddefs.h</text>
</a>
</g>
</g>
<!-- Node2&#45;&gt;Node3 -->
<g id="edge2_Node000002_Node000003" class="edge">
<title>Node2&#45;&gt;Node3</title>
<g id="a_edge2_Node000002_Node000003"><a xlink:title=" ">
<path fill="none" stroke="#63b8ff" d="M115.89,-55.08C115.89,-48.57 115.89,-39.42 115.89,-31.12"/>
<polygon fill="#63b8ff" stroke="#63b8ff" points="119.39,-31.12 115.89,-21.12 112.39,-31.12 119.39,-31.12"/>
</a>
</g>
</g>
<!-- Node4&#45;&gt;Node2 -->
<g id="edge4_Node000004_Node000002" class="edge">
<title>Node4&#45;&gt;Node2</title>
<g id="a_edge4_Node000004_Node000002"><a xlink:title=" ">
<path fill="none" stroke="#63b8ff" d="M45.79,-165.34C25.49,-153.39 -3.98,-131.39 9.89,-110.5 22.77,-91.09 45.93,-80.11 67.32,-73.9"/>
<polygon fill="#63b8ff" stroke="#63b8ff" points="68.01,-77.33 76.81,-71.44 66.25,-70.56 68.01,-77.33"/>
</a>
</g>
</g>
<!-- Node5 -->
<g id="Node000005" class="node">
<title>Node5</title>
<g id="a_Node000005"><a xlink:href="wave_8h_source.html" target="_top" xlink:title=" ">
<polygon fill="white" stroke="#666666" points="66.64,-129.75 19.14,-129.75 19.14,-110.5 66.64,-110.5 66.64,-129.75"/>
<text text-anchor="middle" x="42.89" y="-116.25" font-family="Helvetica,sans-Serif" font-size="10.00">wave.h</text>
</a>
</g>
</g>
<!-- Node4&#45;&gt;Node5 -->
<g id="edge5_Node000004_Node000005" class="edge">
<title>Node4&#45;&gt;Node5</title>
<g id="a_edge5_Node000004_Node000005"><a xlink:title=" ">
<path fill="none" stroke="#63b8ff" d="M59.59,-165.58C57.05,-158.84 53.46,-149.27 50.26,-140.74"/>
<polygon fill="#63b8ff" stroke="#63b8ff" points="53.59,-139.66 46.79,-131.53 47.03,-142.12 53.59,-139.66"/>
</a>
</g>
</g>
<!-- Node6 -->
<g id="Node000006" class="node">
<title>Node6</title>
<g id="a_Node000006"><a xlink:href="envelope_8h_source.html" target="_top" xlink:title=" ">
<polygon fill="white" stroke="#666666" points="147.51,-129.75 84.26,-129.75 84.26,-110.5 147.51,-110.5 147.51,-129.75"/>
<text text-anchor="middle" x="115.89" y="-116.25" font-family="Helvetica,sans-Serif" font-size="10.00">envelope.h</text>
</a>
</g>
</g>
<!-- Node4&#45;&gt;Node6 -->
<g id="edge7_Node000004_Node000006" class="edge">
<title>Node4&#45;&gt;Node6</title>
<g id="a_edge7_Node000004_Node000006"><a xlink:title=" ">
<path fill="none" stroke="#63b8ff" d="M71.64,-165.58C79.04,-158.15 89.85,-147.29 98.93,-138.16"/>
<polygon fill="#63b8ff" stroke="#63b8ff" points="101.3,-140.74 105.88,-131.18 96.34,-135.8 101.3,-140.74"/>
</a>
</g>
</g>
<!-- Node5&#45;&gt;Node2 -->
<g id="edge6_Node000005_Node000002" class="edge">
<title>Node5&#45;&gt;Node2</title>
<g id="a_edge6_Node000005_Node000002"><a xlink:title=" ">
<path fill="none" stroke="#63b8ff" d="M55.27,-110.09C66.03,-102.24 81.86,-90.7 94.64,-81.37"/>
<polygon fill="#63b8ff" stroke="#63b8ff" points="96.45,-84.39 102.46,-75.67 92.32,-78.73 96.45,-84.39"/>
</a>
</g>
</g>
<!-- Node6&#45;&gt;Node2 -->
<g id="edge8_Node000006_Node000002" class="edge">
<title>Node6&#45;&gt;Node2</title>
<g id="a_edge8_Node000006_Node000002"><a xlink:title=" ">
<path fill="none" stroke="#63b8ff" d="M115.89,-110.33C115.89,-103.82 115.89,-94.67 115.89,-86.37"/>
<polygon fill="#63b8ff" stroke="#63b8ff" points="119.39,-86.37 115.89,-76.37 112.39,-86.37 119.39,-86.37"/>
</a>
</g>
</g>
<!-- Node7&#45;&gt;Node2 -->
<g id="edge10_Node000007_Node000002" class="edge">
<title>Node7&#45;&gt;Node2</title>
<g id="a_edge10_Node000007_Node000002"><a xlink:title=" ">
<path fill="none" stroke="#63b8ff" d="M150.35,-165.4C156,-152.75 164.16,-129.16 156.89,-110.5 152.73,-99.82 144.68,-90.14 136.8,-82.55"/>
<polygon fill="#63b8ff" stroke="#63b8ff" points="139.14,-79.95 129.34,-75.93 134.5,-85.19 139.14,-79.95"/>
</a>
</g>
</g>
<!-- Node8&#45;&gt;Node2 -->
<g id="edge12_Node000008_Node000002" class="edge">
<title>Node8&#45;&gt;Node2</title>
<g id="a_edge12_Node000008_Node000002"><a xlink:title=" ">
<path fill="none" stroke="#63b8ff" d="M205.02,-165.45C199.12,-152.45 186.95,-127.97 171.89,-110.5 162.44,-99.54 150.01,-89.33 139.26,-81.44"/>
<polygon fill="#63b8ff" stroke="#63b8ff" points="141.42,-78.68 131.23,-75.77 137.38,-84.4 141.42,-78.68"/>
</a>
</g>
</g>
<!-- Node9&#45;&gt;Node2 -->
<g id="edge14_Node000009_Node000002" class="edge">
<title>Node9&#45;&gt;Node2</title>
<g id="a_edge14_Node000009_Node000002"><a xlink:title=" ">
<path fill="none" stroke="#63b8ff" d="M241.63,-112.05C218.65,-103.61 179.74,-89.33 151.28,-78.87"/>
<polygon fill="#63b8ff" stroke="#63b8ff" points="152.58,-75.62 141.98,-75.46 150.16,-82.19 152.58,-75.62"/>
</a>
</g>
</g>
</g>
</svg>
