<?xml version="1.0" encoding="UTF-8" standalone="no"?>
<!DOCTYPE svg PUBLIC "-//W3C//DTD SVG 1.1//EN"
 "http://www.w3.org/Graphics/SVG/1.1/DTD/svg11.dtd">
<!-- Generated by graphviz version 10.0.1 (20240210.2158)
 -->
<!-- Title: /Users/hoff/Retro/virtualc64/Emulator/Components/SID/resid/sid.h Pages: 1 -->
<svg width="174pt" height="405pt"
 viewBox="0.00 0.00 174.00 404.75" xmlns="http://www.w3.org/2000/svg" xmlns:xlink="http://www.w3.org/1999/xlink">
<g id="graph0" class="graph" transform="scale(1 1) rotate(0) translate(4 400.75)">
<title>/Users/hoff/Retro/virtualc64/Emulator/Components/SID/resid/sid.h</title>
<!-- Node1 -->
<g id="Node000001" class="node">
<title>Node1</title>
<g id="a_Node000001"><a xlink:title=" ">
<polygon fill="#999999" stroke="#666666" points="151.38,-396.75 14.62,-396.75 14.62,-355 151.38,-355 151.38,-396.75"/>
<text text-anchor="start" x="22.62" y="-383.25" font-family="Helvetica,sans-Serif" font-size="10.00">/Users/hoff/Retro/virtualc64</text>
<text text-anchor="start" x="22.62" y="-372" font-family="Helvetica,sans-Serif" font-size="10.00">/Emulator/Components/SID</text>
<text text-anchor="middle" x="83" y="-360.75" font-family="Helvetica,sans-Serif" font-size="10.00">/resid/sid.h</text>
</a>
</g>
</g>
<!-- Node2 -->
<g id="Node000002" class="node">
<title>Node2</title>
<g id="a_Node000002"><a xlink:href="_re_s_i_d_8h_source.html" target="_top" xlink:title=" ">
<polygon fill="white" stroke="#666666" points="151.38,-319 14.62,-319 14.62,-277.25 151.38,-277.25 151.38,-319"/>
<text text-anchor="start" x="22.62" y="-305.5" font-family="Helvetica,sans-Serif" font-size="10.00">/Users/hoff/Retro/virtualc64</text>
<text text-anchor="start" x="22.62" y="-294.25" font-family="Helvetica,sans-Serif" font-size="10.00">/Emulator/Components/SID</text>
<text text-anchor="middle" x="83" y="-283" font-family="Helvetica,sans-Serif" font-size="10.00">/ReSID.h</text>
</a>
</g>
</g>
<!-- Node1&#45;&gt;Node2 -->
<g id="edge1_Node000001_Node000002" class="edge">
<title>Node1&#45;&gt;Node2</title>
<g id="a_edge1_Node000001_Node000002"><a xlink:title=" ">
<path fill="none" stroke="#63b8ff" d="M83,-343.25C83,-335.21 83,-326.79 83,-319.48"/>
<polygon fill="#63b8ff" stroke="#63b8ff" points="79.5,-343.06 83,-353.06 86.5,-343.06 79.5,-343.06"/>
</a>
</g>
</g>
<!-- Node3 -->
<g id="Node000003" class="node">
<title>Node3</title>
<g id="a_Node000003"><a xlink:href="sid_8h_source.html" target="_top" xlink:title=" ">
<polygon fill="white" stroke="#666666" points="165.62,-241.25 0.38,-241.25 0.38,-210.75 165.62,-210.75 165.62,-241.25"/>
<text text-anchor="start" x="8.38" y="-227.75" font-family="Helvetica,sans-Serif" font-size="10.00">/Users/hoff/Retro/virtualc64</text>
<text text-anchor="middle" x="83" y="-216.5" font-family="Helvetica,sans-Serif" font-size="10.00">/Emulator/Components/SID/SID.h</text>
</a>
</g>
</g>
<!-- Node2&#45;&gt;Node3 -->
<g id="edge2_Node000002_Node000003" class="edge">
<title>Node2&#45;&gt;Node3</title>
<g id="a_edge2_Node000002_Node000003"><a xlink:title=" ">
<path fill="none" stroke="#63b8ff" d="M83,-265.38C83,-257.02 83,-248.4 83,-241.45"/>
<polygon fill="#63b8ff" stroke="#63b8ff" points="79.5,-265.33 83,-275.33 86.5,-265.33 79.5,-265.33"/>
</a>
</g>
</g>
<!-- Node4 -->
<g id="Node000004" class="node">
<title>Node4</title>
<g id="a_Node000004"><a xlink:href="_s_i_d_bridge_8h_source.html" target="_top" xlink:title=" ">
<polygon fill="white" stroke="#666666" points="151.38,-174.75 14.62,-174.75 14.62,-133 151.38,-133 151.38,-174.75"/>
<text text-anchor="start" x="22.62" y="-161.25" font-family="Helvetica,sans-Serif" font-size="10.00">/Users/hoff/Retro/virtualc64</text>
<text text-anchor="start" x="22.62" y="-150" font-family="Helvetica,sans-Serif" font-size="10.00">/Emulator/Components/SID</text>
<text text-anchor="middle" x="83" y="-138.75" font-family="Helvetica,sans-Serif" font-size="10.00">/SIDBridge.h</text>
</a>
</g>
</g>
<!-- Node3&#45;&gt;Node4 -->
<g id="edge3_Node000003_Node000004" class="edge">
<title>Node3&#45;&gt;Node4</title>
<g id="a_edge3_Node000003_Node000004"><a xlink:title=" ">
<path fill="none" stroke="#63b8ff" d="M83,-199.22C83,-191.31 83,-182.73 83,-175.24"/>
<polygon fill="#63b8ff" stroke="#63b8ff" points="79.5,-198.96 83,-208.96 86.5,-198.96 79.5,-198.96"/>
</a>
</g>
</g>
<!-- Node5 -->
<g id="Node000005" class="node">
<title>Node5</title>
<g id="a_Node000005"><a xlink:href="_c64_8h_source.html" target="_top" xlink:title=" ">
<polygon fill="white" stroke="#666666" points="155.88,-97 10.12,-97 10.12,-66.5 155.88,-66.5 155.88,-97"/>
<text text-anchor="start" x="18.12" y="-83.5" font-family="Helvetica,sans-Serif" font-size="10.00">/Users/hoff/Retro/virtualc64</text>
<text text-anchor="middle" x="83" y="-72.25" font-family="Helvetica,sans-Serif" font-size="10.00">/Emulator/Components/C64.h</text>
</a>
</g>
</g>
<!-- Node4&#45;&gt;Node5 -->
<g id="edge4_Node000004_Node000005" class="edge">
<title>Node4&#45;&gt;Node5</title>
<g id="a_edge4_Node000004_Node000005"><a xlink:title=" ">
<path fill="none" stroke="#63b8ff" d="M83,-121.13C83,-112.77 83,-104.15 83,-97.2"/>
<polygon fill="#63b8ff" stroke="#63b8ff" points="79.5,-121.08 83,-131.08 86.5,-121.08 79.5,-121.08"/>
</a>
</g>
</g>
<!-- Node6 -->
<g id="Node000006" class="node">
<title>Node6</title>
<g id="a_Node000006"><a xlink:href="_emulator_8h_source.html" target="_top" xlink:title=" ">
<polygon fill="white" stroke="#666666" points="166,-30.5 0,-30.5 0,0 166,0 166,-30.5"/>
<text text-anchor="start" x="8" y="-17" font-family="Helvetica,sans-Serif" font-size="10.00">/Users/hoff/Retro/virtualc64</text>
<text text-anchor="middle" x="83" y="-5.75" font-family="Helvetica,sans-Serif" font-size="10.00">/Emulator/Components/Emulator.h</text>
</a>
</g>
</g>
<!-- Node5&#45;&gt;Node6 -->
<g id="edge5_Node000005_Node000006" class="edge">
<title>Node5&#45;&gt;Node6</title>
<g id="a_edge5_Node000005_Node000006"><a xlink:title=" ">
<path fill="none" stroke="#63b8ff" d="M83,-54.81C83,-46.64 83,-37.91 83,-30.83"/>
<polygon fill="#63b8ff" stroke="#63b8ff" points="79.5,-54.6 83,-64.6 86.5,-54.6 79.5,-54.6"/>
</a>
</g>
</g>
</g>
</svg>
