<?xml version="1.0" encoding="UTF-8" standalone="no"?>
<!DOCTYPE svg PUBLIC "-//W3C//DTD SVG 1.1//EN"
 "http://www.w3.org/Graphics/SVG/1.1/DTD/svg11.dtd">
<!-- Generated by graphviz version 10.0.1 (20240210.2158)
 -->
<!-- Title: /Users/hoff/Retro/virtualc64/Emulator/Components/SID/resid/sid.cc Pages: 1 -->
<svg width="387pt" height="326pt"
 viewBox="0.00 0.00 386.57 326.00" xmlns="http://www.w3.org/2000/svg" xmlns:xlink="http://www.w3.org/1999/xlink">
<g id="graph0" class="graph" transform="scale(1 1) rotate(0) translate(4 322)">
<title>/Users/hoff/Retro/virtualc64/Emulator/Components/SID/resid/sid.cc</title>
<!-- Node1 -->
<g id="Node000001" class="node">
<title>Node1</title>
<g id="a_Node000001"><a xlink:title=" ">
<polygon fill="#999999" stroke="#666666" points="320.44,-318 183.69,-318 183.69,-276.25 320.44,-276.25 320.44,-318"/>
<text text-anchor="start" x="191.69" y="-304.5" font-family="Helvetica,sans-Serif" font-size="10.00">/Users/hoff/Retro/virtualc64</text>
<text text-anchor="start" x="191.69" y="-293.25" font-family="Helvetica,sans-Serif" font-size="10.00">/Emulator/Components/SID</text>
<text text-anchor="middle" x="252.07" y="-282" font-family="Helvetica,sans-Serif" font-size="10.00">/resid/sid.cc</text>
</a>
</g>
</g>
<!-- Node2 -->
<g id="Node000002" class="node">
<title>Node2</title>
<g id="a_Node000002"><a xlink:href="resid_2sid_8h.html" target="_top" xlink:title=" ">
<polygon fill="white" stroke="#666666" points="179.57,-240.25 142.57,-240.25 142.57,-221 179.57,-221 179.57,-240.25"/>
<text text-anchor="middle" x="161.07" y="-226.75" font-family="Helvetica,sans-Serif" font-size="10.00">sid.h</text>
</a>
</g>
</g>
<!-- Node1&#45;&gt;Node2 -->
<g id="edge1_Node000001_Node000002" class="edge">
<title>Node1&#45;&gt;Node2</title>
<g id="a_edge1_Node000001_Node000002"><a xlink:title=" ">
<path fill="none" stroke="#63b8ff" d="M223.77,-276.07C210.6,-266.73 195.17,-255.8 182.91,-247.11"/>
<polygon fill="#63b8ff" stroke="#63b8ff" points="185.28,-244.5 175.1,-241.57 181.23,-250.21 185.28,-244.5"/>
</a>
</g>
</g>
<!-- Node11 -->
<g id="Node000011" class="node">
<title>Node11</title>
<g id="a_Node000011"><a xlink:title=" ">
<polygon fill="#e0e0e0" stroke="#999999" points="240.57,-240.25 197.57,-240.25 197.57,-221 240.57,-221 240.57,-240.25"/>
<text text-anchor="middle" x="219.07" y="-226.75" font-family="Helvetica,sans-Serif" font-size="10.00">cmath</text>
</a>
</g>
</g>
<!-- Node1&#45;&gt;Node11 -->
<g id="edge16_Node000001_Node000011" class="edge">
<title>Node1&#45;&gt;Node11</title>
<g id="a_edge16_Node000001_Node000011"><a xlink:title=" ">
<path fill="none" stroke="#63b8ff" d="M241.8,-276.07C237.69,-268.03 232.97,-258.8 228.9,-250.84"/>
<polygon fill="#63b8ff" stroke="#63b8ff" points="232.07,-249.35 224.4,-242.04 225.83,-252.54 232.07,-249.35"/>
</a>
</g>
</g>
<!-- Node12 -->
<g id="Node000012" class="node">
<title>Node12</title>
<g id="a_Node000012"><a xlink:title=" ">
<polygon fill="#e0e0e0" stroke="#999999" points="311.82,-240.25 258.32,-240.25 258.32,-221 311.82,-221 311.82,-240.25"/>
<text text-anchor="middle" x="285.07" y="-226.75" font-family="Helvetica,sans-Serif" font-size="10.00">iostream</text>
</a>
</g>
</g>
<!-- Node1&#45;&gt;Node12 -->
<g id="edge17_Node000001_Node000012" class="edge">
<title>Node1&#45;&gt;Node12</title>
<g id="a_edge17_Node000001_Node000012"><a xlink:title=" ">
<path fill="none" stroke="#63b8ff" d="M262.33,-276.07C266.44,-268.03 271.16,-258.8 275.23,-250.84"/>
<polygon fill="#63b8ff" stroke="#63b8ff" points="278.3,-252.54 279.74,-242.04 272.06,-249.35 278.3,-252.54"/>
</a>
</g>
</g>
<!-- Node13 -->
<g id="Node000013" class="node">
<title>Node13</title>
<g id="a_Node000013"><a xlink:title=" ">
<polygon fill="#e0e0e0" stroke="#999999" points="378.57,-240.25 329.57,-240.25 329.57,-221 378.57,-221 378.57,-240.25"/>
<text text-anchor="middle" x="354.07" y="-226.75" font-family="Helvetica,sans-Serif" font-size="10.00">fstream</text>
</a>
</g>
</g>
<!-- Node1&#45;&gt;Node13 -->
<g id="edge18_Node000001_Node000013" class="edge">
<title>Node1&#45;&gt;Node13</title>
<g id="a_edge18_Node000001_Node000013"><a xlink:title=" ">
<path fill="none" stroke="#63b8ff" d="M284.06,-275.89C298.96,-266.47 316.38,-255.46 330.12,-246.77"/>
<polygon fill="#63b8ff" stroke="#63b8ff" points="331.94,-249.76 338.52,-241.45 328.2,-243.84 331.94,-249.76"/>
</a>
</g>
</g>
<!-- Node3 -->
<g id="Node000003" class="node">
<title>Node3</title>
<g id="a_Node000003"><a xlink:href="resid-config_8h.html" target="_top" xlink:title=" ">
<polygon fill="white" stroke="#666666" points="153.32,-74.5 78.82,-74.5 78.82,-55.25 153.32,-55.25 153.32,-74.5"/>
<text text-anchor="middle" x="116.07" y="-61" font-family="Helvetica,sans-Serif" font-size="10.00">resid&#45;config.h</text>
</a>
</g>
</g>
<!-- Node2&#45;&gt;Node3 -->
<g id="edge2_Node000002_Node000003" class="edge">
<title>Node2&#45;&gt;Node3</title>
<g id="a_edge2_Node000002_Node000003"><a xlink:title=" ">
<path fill="none" stroke="#63b8ff" d="M142.25,-226.04C117.47,-220.59 73.51,-208.28 43.07,-185 18.98,-166.58 12.41,-158.59 3.07,-129.75 0.43,-121.61 -1.75,-117.57 3.07,-110.5 17.56,-89.2 43.95,-78.06 67.58,-72.24"/>
<polygon fill="#63b8ff" stroke="#63b8ff" points="68.04,-75.73 77.07,-70.18 66.55,-68.89 68.04,-75.73"/>
</a>
</g>
</g>
<!-- Node5 -->
<g id="Node000005" class="node">
<title>Node5</title>
<g id="a_Node000005"><a xlink:href="voice_8h.html" target="_top" xlink:title=" ">
<polygon fill="white" stroke="#666666" points="99.82,-185 52.32,-185 52.32,-165.75 99.82,-165.75 99.82,-185"/>
<text text-anchor="middle" x="76.07" y="-171.5" font-family="Helvetica,sans-Serif" font-size="10.00">voice.h</text>
</a>
</g>
</g>
<!-- Node2&#45;&gt;Node5 -->
<g id="edge4_Node000002_Node000005" class="edge">
<title>Node2&#45;&gt;Node5</title>
<g id="a_edge4_Node000002_Node000005"><a xlink:title=" ">
<path fill="none" stroke="#63b8ff" d="M146.65,-220.59C133.95,-212.64 115.19,-200.89 100.21,-191.5"/>
<polygon fill="#63b8ff" stroke="#63b8ff" points="102.17,-188.6 91.84,-186.26 98.45,-194.53 102.17,-188.6"/>
</a>
</g>
</g>
<!-- Node8 -->
<g id="Node000008" class="node">
<title>Node8</title>
<g id="a_Node000008"><a xlink:href="filter_8h.html" target="_top" xlink:title=" ">
<polygon fill="white" stroke="#666666" points="208.19,-129.75 165.94,-129.75 165.94,-110.5 208.19,-110.5 208.19,-129.75"/>
<text text-anchor="middle" x="187.07" y="-116.25" font-family="Helvetica,sans-Serif" font-size="10.00">filter.h</text>
</a>
</g>
</g>
<!-- Node2&#45;&gt;Node8 -->
<g id="edge10_Node000002_Node000008" class="edge">
<title>Node2&#45;&gt;Node8</title>
<g id="a_edge10_Node000002_Node000008"><a xlink:title=" ">
<path fill="none" stroke="#63b8ff" d="M163.19,-220.75C167.33,-203.5 176.53,-165.08 182.23,-141.31"/>
<polygon fill="#63b8ff" stroke="#63b8ff" points="185.63,-142.14 184.56,-131.6 178.82,-140.51 185.63,-142.14"/>
</a>
</g>
</g>
<!-- Node9 -->
<g id="Node000009" class="node">
<title>Node9</title>
<g id="a_Node000009"><a xlink:href="extfilt_8h.html" target="_top" xlink:title=" ">
<polygon fill="white" stroke="#666666" points="237.19,-185 188.94,-185 188.94,-165.75 237.19,-165.75 237.19,-185"/>
<text text-anchor="middle" x="213.07" y="-171.5" font-family="Helvetica,sans-Serif" font-size="10.00">extfilt.h</text>
</a>
</g>
</g>
<!-- Node2&#45;&gt;Node9 -->
<g id="edge12_Node000002_Node000009" class="edge">
<title>Node2&#45;&gt;Node9</title>
<g id="a_edge12_Node000002_Node000009"><a xlink:title=" ">
<path fill="none" stroke="#63b8ff" d="M169.65,-220.83C176.91,-213.4 187.52,-202.54 196.43,-193.41"/>
<polygon fill="#63b8ff" stroke="#63b8ff" points="198.75,-196.04 203.23,-186.44 193.74,-191.15 198.75,-196.04"/>
</a>
</g>
</g>
<!-- Node10 -->
<g id="Node000010" class="node">
<title>Node10</title>
<g id="a_Node000010"><a xlink:href="pot_8h.html" target="_top" xlink:title=" ">
<polygon fill="white" stroke="#666666" points="292.94,-185 255.19,-185 255.19,-165.75 292.94,-165.75 292.94,-185"/>
<text text-anchor="middle" x="274.07" y="-171.5" font-family="Helvetica,sans-Serif" font-size="10.00">pot.h</text>
</a>
</g>
</g>
<!-- Node2&#45;&gt;Node10 -->
<g id="edge14_Node000002_Node000010" class="edge">
<title>Node2&#45;&gt;Node10</title>
<g id="a_edge14_Node000002_Node000010"><a xlink:title=" ">
<path fill="none" stroke="#63b8ff" d="M179.98,-220.71C197.55,-212.43 224.01,-199.96 244.39,-190.36"/>
<polygon fill="#63b8ff" stroke="#63b8ff" points="245.79,-193.57 253.34,-186.14 242.8,-187.24 245.79,-193.57"/>
</a>
</g>
</g>
<!-- Node4 -->
<g id="Node000004" class="node">
<title>Node4</title>
<g id="a_Node000004"><a xlink:href="siddefs_8h.html" target="_top" xlink:title=" ">
<polygon fill="white" stroke="#666666" points="143.94,-19.25 88.19,-19.25 88.19,0 143.94,0 143.94,-19.25"/>
<text text-anchor="middle" x="116.07" y="-5.75" font-family="Helvetica,sans-Serif" font-size="10.00">siddefs.h</text>
</a>
</g>
</g>
<!-- Node3&#45;&gt;Node4 -->
<g id="edge3_Node000003_Node000004" class="edge">
<title>Node3&#45;&gt;Node4</title>
<g id="a_edge3_Node000003_Node000004"><a xlink:title=" ">
<path fill="none" stroke="#63b8ff" d="M116.07,-55.08C116.07,-48.57 116.07,-39.42 116.07,-31.12"/>
<polygon fill="#63b8ff" stroke="#63b8ff" points="119.57,-31.12 116.07,-21.12 112.57,-31.12 119.57,-31.12"/>
</a>
</g>
</g>
<!-- Node5&#45;&gt;Node3 -->
<g id="edge5_Node000005_Node000003" class="edge">
<title>Node5&#45;&gt;Node3</title>
<g id="a_edge5_Node000005_Node000003"><a xlink:title=" ">
<path fill="none" stroke="#63b8ff" d="M54.08,-165.44C29.5,-154.08 -5.02,-133.22 10.07,-110.5 22.95,-91.09 46.11,-80.11 67.49,-73.9"/>
<polygon fill="#63b8ff" stroke="#63b8ff" points="68.18,-77.33 76.99,-71.44 66.43,-70.56 68.18,-77.33"/>
</a>
</g>
</g>
<!-- Node6 -->
<g id="Node000006" class="node">
<title>Node6</title>
<g id="a_Node000006"><a xlink:href="wave_8h.html" target="_top" xlink:title=" ">
<polygon fill="white" stroke="#666666" points="66.82,-129.75 19.32,-129.75 19.32,-110.5 66.82,-110.5 66.82,-129.75"/>
<text text-anchor="middle" x="43.07" y="-116.25" font-family="Helvetica,sans-Serif" font-size="10.00">wave.h</text>
</a>
</g>
</g>
<!-- Node5&#45;&gt;Node6 -->
<g id="edge6_Node000005_Node000006" class="edge">
<title>Node5&#45;&gt;Node6</title>
<g id="a_edge6_Node000005_Node000006"><a xlink:title=" ">
<path fill="none" stroke="#63b8ff" d="M70.62,-165.58C66.3,-158.61 60.1,-148.62 54.68,-139.87"/>
<polygon fill="#63b8ff" stroke="#63b8ff" points="57.67,-138.05 49.43,-131.4 51.72,-141.74 57.67,-138.05"/>
</a>
</g>
</g>
<!-- Node7 -->
<g id="Node000007" class="node">
<title>Node7</title>
<g id="a_Node000007"><a xlink:href="envelope_8h.html" target="_top" xlink:title=" ">
<polygon fill="white" stroke="#666666" points="147.69,-129.75 84.44,-129.75 84.44,-110.5 147.69,-110.5 147.69,-129.75"/>
<text text-anchor="middle" x="116.07" y="-116.25" font-family="Helvetica,sans-Serif" font-size="10.00">envelope.h</text>
</a>
</g>
</g>
<!-- Node5&#45;&gt;Node7 -->
<g id="edge8_Node000005_Node000007" class="edge">
<title>Node5&#45;&gt;Node7</title>
<g id="a_edge8_Node000005_Node000007"><a xlink:title=" ">
<path fill="none" stroke="#63b8ff" d="M82.67,-165.58C88.02,-158.46 95.74,-148.18 102.41,-139.3"/>
<polygon fill="#63b8ff" stroke="#63b8ff" points="105.2,-141.42 108.41,-131.32 99.6,-137.21 105.2,-141.42"/>
</a>
</g>
</g>
<!-- Node6&#45;&gt;Node3 -->
<g id="edge7_Node000006_Node000003" class="edge">
<title>Node6&#45;&gt;Node3</title>
<g id="a_edge7_Node000006_Node000003"><a xlink:title=" ">
<path fill="none" stroke="#63b8ff" d="M55.45,-110.09C66.21,-102.24 82.04,-90.7 94.82,-81.37"/>
<polygon fill="#63b8ff" stroke="#63b8ff" points="96.63,-84.39 102.64,-75.67 92.5,-78.73 96.63,-84.39"/>
</a>
</g>
</g>
<!-- Node7&#45;&gt;Node3 -->
<g id="edge9_Node000007_Node000003" class="edge">
<title>Node7&#45;&gt;Node3</title>
<g id="a_edge9_Node000007_Node000003"><a xlink:title=" ">
<path fill="none" stroke="#63b8ff" d="M116.07,-110.33C116.07,-103.82 116.07,-94.67 116.07,-86.37"/>
<polygon fill="#63b8ff" stroke="#63b8ff" points="119.57,-86.37 116.07,-76.37 112.57,-86.37 119.57,-86.37"/>
</a>
</g>
</g>
<!-- Node8&#45;&gt;Node3 -->
<g id="edge11_Node000008_Node000003" class="edge">
<title>Node8&#45;&gt;Node3</title>
<g id="a_edge11_Node000008_Node000003"><a xlink:title=" ">
<path fill="none" stroke="#63b8ff" d="M175.02,-110.09C164.66,-102.32 149.46,-90.92 137.1,-81.65"/>
<polygon fill="#63b8ff" stroke="#63b8ff" points="139.24,-78.88 129.14,-75.68 135.04,-84.48 139.24,-78.88"/>
</a>
</g>
</g>
<!-- Node9&#45;&gt;Node3 -->
<g id="edge13_Node000009_Node000003" class="edge">
<title>Node9&#45;&gt;Node3</title>
<g id="a_edge13_Node000009_Node000003"><a xlink:title=" ">
<path fill="none" stroke="#63b8ff" d="M216.8,-165.26C221.57,-152.03 227.98,-127.26 217.07,-110.5 205.28,-92.41 184.31,-81.6 164.52,-75.16"/>
<polygon fill="#63b8ff" stroke="#63b8ff" points="165.75,-71.87 155.17,-72.44 163.79,-78.6 165.75,-71.87"/>
</a>
</g>
</g>
<!-- Node10&#45;&gt;Node3 -->
<g id="edge15_Node000010_Node000003" class="edge">
<title>Node10&#45;&gt;Node3</title>
<g id="a_edge15_Node000010_Node000003"><a xlink:title=" ">
<path fill="none" stroke="#63b8ff" d="M270.63,-165.69C264.83,-152.1 251.88,-125.79 233.07,-110.5 213.27,-94.42 187.05,-83.71 164.45,-76.82"/>
<polygon fill="#63b8ff" stroke="#63b8ff" points="165.72,-73.54 155.15,-74.15 163.8,-80.27 165.72,-73.54"/>
</a>
</g>
</g>
</g>
</svg>
