<?xml version="1.0" encoding="UTF-8" standalone="no"?>
<!DOCTYPE svg PUBLIC "-//W3C//DTD SVG 1.1//EN"
 "http://www.w3.org/Graphics/SVG/1.1/DTD/svg11.dtd">
<!-- Generated by graphviz version 10.0.1 (20240210.2158)
 -->
<!-- Title: VirtualC64::CP_API Pages: 1 -->
<svg width="305pt" height="150pt"
 viewBox="0.00 0.00 305.04 150.00" xmlns="http://www.w3.org/2000/svg" xmlns:xlink="http://www.w3.org/1999/xlink">
<g id="graph0" class="graph" transform="scale(1 1) rotate(0) translate(4 146)">
<title>VirtualC64::CP_API</title>
<!-- Node1 -->
<g id="Node000001" class="node">
<title>Node1</title>
<g id="a_Node000001"><a xlink:title=" ">
<polygon fill="#999999" stroke="#666666" points="134.79,-19.25 31.04,-19.25 31.04,0 134.79,0 134.79,-19.25"/>
<text text-anchor="middle" x="82.91" y="-5.75" font-family="Helvetica,sans-Serif" font-size="10.00">VirtualC64::CP_API</text>
</a>
</g>
</g>
<!-- Node2 -->
<g id="Node000002" class="node">
<title>Node2</title>
<g id="a_Node000002"><a xlink:title=" ">
<polygon fill="white" stroke="#bfbfbf" points="99.16,-142 66.66,-142 66.66,-122.75 99.16,-122.75 99.16,-142"/>
<text text-anchor="middle" x="82.91" y="-128.5" font-family="Helvetica,sans-Serif" font-size="10.00">API</text>
</a>
</g>
</g>
<!-- Node2&#45;&gt;Node1 -->
<g id="edge1_Node000001_Node000002" class="edge">
<title>Node2&#45;&gt;Node1</title>
<g id="a_edge1_Node000001_Node000002"><a xlink:title=" ">
<path fill="none" stroke="#63b8ff" d="M55.5,-123.49C37.36,-116.68 14.94,-104.86 3.91,-85.75 -12.74,-56.9 30.84,-32.21 59.71,-19.6"/>
<polygon fill="#63b8ff" stroke="#63b8ff" points="54.35,-126.79 64.95,-126.69 56.6,-120.16 54.35,-126.79"/>
</a>
</g>
</g>
<!-- Node3 -->
<g id="Node000003" class="node">
<title>Node3</title>
<g id="a_Node000003"><a xlink:href="struct_virtual_c64_1_1_j_o_y_s_t_i_c_k___a_p_i.html" target="_top" xlink:title=" ">
<polygon fill="white" stroke="#bfbfbf" points="152.41,-85.75 13.41,-85.75 13.41,-66.5 152.41,-66.5 152.41,-85.75"/>
<text text-anchor="middle" x="82.91" y="-72.25" font-family="Helvetica,sans-Serif" font-size="10.00">VirtualC64::JOYSTICK_API</text>
</a>
</g>
</g>
<!-- Node2&#45;&gt;Node3 -->
<g id="edge3_Node000003_Node000002" class="edge">
<title>Node2&#45;&gt;Node3</title>
<g id="a_edge3_Node000003_Node000002"><a xlink:title=" ">
<path fill="none" stroke="#63b8ff" d="M82.91,-111.19C82.91,-102.48 82.91,-92.74 82.91,-85.92"/>
<polygon fill="#63b8ff" stroke="#63b8ff" points="79.41,-110.9 82.91,-120.9 86.41,-110.9 79.41,-110.9"/>
</a>
</g>
</g>
<!-- Node4 -->
<g id="Node000004" class="node">
<title>Node4</title>
<g id="a_Node000004"><a xlink:href="struct_virtual_c64_1_1_m_o_u_s_e___a_p_i.html" target="_top" xlink:title=" ">
<polygon fill="white" stroke="#bfbfbf" points="297.04,-85.75 170.79,-85.75 170.79,-66.5 297.04,-66.5 297.04,-85.75"/>
<text text-anchor="middle" x="233.91" y="-72.25" font-family="Helvetica,sans-Serif" font-size="10.00">VirtualC64::MOUSE_API</text>
</a>
</g>
</g>
<!-- Node2&#45;&gt;Node4 -->
<g id="edge5_Node000004_Node000002" class="edge">
<title>Node2&#45;&gt;Node4</title>
<g id="a_edge5_Node000004_Node000002"><a xlink:title=" ">
<path fill="none" stroke="#63b8ff" d="M110.27,-121.55C138.24,-111.5 181.34,-96.01 208.56,-86.23"/>
<polygon fill="#63b8ff" stroke="#63b8ff" points="109.3,-118.18 101.07,-124.85 111.67,-124.76 109.3,-118.18"/>
</a>
</g>
</g>
<!-- Node3&#45;&gt;Node1 -->
<g id="edge2_Node000001_Node000003" class="edge">
<title>Node3&#45;&gt;Node1</title>
<g id="a_edge2_Node000001_Node000003"><a xlink:title=" ">
<path fill="none" stroke="#9a32cd" stroke-dasharray="5,2" d="M82.91,-54.65C82.91,-42.82 82.91,-28.54 82.91,-19.52"/>
<polygon fill="#9a32cd" stroke="#9a32cd" points="79.41,-54.64 82.91,-64.64 86.41,-54.64 79.41,-54.64"/>
</a>
</g>
<text text-anchor="middle" x="101.29" y="-39" font-family="Helvetica,sans-Serif" font-size="10.00" fill="grey"> joystick</text>
</g>
<!-- Node4&#45;&gt;Node1 -->
<g id="edge4_Node000001_Node000004" class="edge">
<title>Node4&#45;&gt;Node1</title>
<g id="a_edge4_Node000001_Node000004"><a xlink:title=" ">
<path fill="none" stroke="#9a32cd" stroke-dasharray="5,2" d="M202.03,-61.51C172.56,-48.92 129.59,-30.56 104.12,-19.68"/>
<polygon fill="#9a32cd" stroke="#9a32cd" points="200.64,-64.72 211.21,-65.43 203.39,-58.28 200.64,-64.72"/>
</a>
</g>
<text text-anchor="middle" x="184.04" y="-39" font-family="Helvetica,sans-Serif" font-size="10.00" fill="grey"> mouse</text>
</g>
</g>
</svg>
