<?xml version="1.0" encoding="UTF-8" standalone="no"?>
<!DOCTYPE svg PUBLIC "-//W3C//DTD SVG 1.1//EN"
 "http://www.w3.org/Graphics/SVG/1.1/DTD/svg11.dtd">
<!-- Generated by graphviz version 10.0.1 (20240210.2158)
 -->
<!-- Title: VirtualC64::DRIVE_API Pages: 1 -->
<svg width="194pt" height="150pt"
 viewBox="0.00 0.00 194.25 150.00" xmlns="http://www.w3.org/2000/svg" xmlns:xlink="http://www.w3.org/1999/xlink">
<g id="graph0" class="graph" transform="scale(1 1) rotate(0) translate(4 146)">
<title>VirtualC64::DRIVE_API</title>
<!-- Node1 -->
<g id="Node000001" class="node">
<title>Node1</title>
<g id="a_Node000001"><a xlink:title=" ">
<polygon fill="#999999" stroke="#666666" points="121,-19.25 0,-19.25 0,0 121,0 121,-19.25"/>
<text text-anchor="middle" x="60.5" y="-5.75" font-family="Helvetica,sans-Serif" font-size="10.00">VirtualC64::DRIVE_API</text>
</a>
</g>
</g>
<!-- Node2 -->
<g id="Node000002" class="node">
<title>Node2</title>
<g id="a_Node000002"><a xlink:title=" ">
<polygon fill="white" stroke="#bfbfbf" points="72.75,-142 40.25,-142 40.25,-122.75 72.75,-122.75 72.75,-142"/>
<text text-anchor="middle" x="56.5" y="-128.5" font-family="Helvetica,sans-Serif" font-size="10.00">API</text>
</a>
</g>
</g>
<!-- Node2&#45;&gt;Node1 -->
<g id="edge1_Node000001_Node000002" class="edge">
<title>Node2&#45;&gt;Node1</title>
<g id="a_edge1_Node000001_Node000002"><a xlink:title=" ">
<path fill="none" stroke="#63b8ff" d="M57.18,-110.9C58.06,-84.18 59.57,-38.6 60.21,-19.48"/>
<polygon fill="#63b8ff" stroke="#63b8ff" points="53.68,-110.68 56.85,-120.79 60.68,-110.91 53.68,-110.68"/>
</a>
</g>
</g>
<!-- Node3 -->
<g id="Node000003" class="node">
<title>Node3</title>
<g id="a_Node000003"><a xlink:href="struct_virtual_c64_1_1_d_i_s_k___a_p_i.html" target="_top" xlink:title=" ">
<polygon fill="white" stroke="#bfbfbf" points="186.25,-85.75 72.75,-85.75 72.75,-66.5 186.25,-66.5 186.25,-85.75"/>
<text text-anchor="middle" x="129.5" y="-72.25" font-family="Helvetica,sans-Serif" font-size="10.00">VirtualC64::DISK_API</text>
</a>
</g>
</g>
<!-- Node2&#45;&gt;Node3 -->
<g id="edge3_Node000003_Node000002" class="edge">
<title>Node2&#45;&gt;Node3</title>
<g id="a_edge3_Node000003_Node000002"><a xlink:title=" ">
<path fill="none" stroke="#63b8ff" d="M77.74,-115.59C90.75,-105.92 106.9,-93.92 117.67,-85.92"/>
<polygon fill="#63b8ff" stroke="#63b8ff" points="75.71,-112.74 69.77,-121.51 79.88,-118.36 75.71,-112.74"/>
</a>
</g>
</g>
<!-- Node3&#45;&gt;Node1 -->
<g id="edge2_Node000001_Node000003" class="edge">
<title>Node3&#45;&gt;Node1</title>
<g id="a_edge2_Node000001_Node000003"><a xlink:title=" ">
<path fill="none" stroke="#9a32cd" stroke-dasharray="5,2" d="M111.53,-58.33C98.25,-45.91 80.69,-29.5 70.01,-19.52"/>
<polygon fill="#9a32cd" stroke="#9a32cd" points="109.1,-60.85 118.8,-65.12 113.88,-55.74 109.1,-60.85"/>
</a>
</g>
<text text-anchor="middle" x="109" y="-39" font-family="Helvetica,sans-Serif" font-size="10.00" fill="grey"> disk</text>
</g>
</g>
</svg>
