<?xml version="1.0" encoding="UTF-8" standalone="no"?>
<!DOCTYPE svg PUBLIC "-//W3C//DTD SVG 1.1//EN"
 "http://www.w3.org/Graphics/SVG/1.1/DTD/svg11.dtd">
<!-- Generated by graphviz version 10.0.1 (20240210.2158)
 -->
<!-- Title: /Users/hoff/Retro/virtualc64/Emulator/Components/SID/resid/voice.h Pages: 1 -->
<svg width="181pt" height="216pt"
 viewBox="0.00 0.00 181.00 215.50" xmlns="http://www.w3.org/2000/svg" xmlns:xlink="http://www.w3.org/1999/xlink">
<g id="graph0" class="graph" transform="scale(1 1) rotate(0) translate(4 211.5)">
<title>/Users/hoff/Retro/virtualc64/Emulator/Components/SID/resid/voice.h</title>
<!-- Node1 -->
<g id="Node000001" class="node">
<title>Node1</title>
<g id="a_Node000001"><a xlink:title=" ">
<polygon fill="#999999" stroke="#666666" points="136.75,-207.5 0,-207.5 0,-165.75 136.75,-165.75 136.75,-207.5"/>
<text text-anchor="start" x="8" y="-194" font-family="Helvetica,sans-Serif" font-size="10.00">/Users/hoff/Retro/virtualc64</text>
<text text-anchor="start" x="8" y="-182.75" font-family="Helvetica,sans-Serif" font-size="10.00">/Emulator/Components/SID</text>
<text text-anchor="middle" x="68.38" y="-171.5" font-family="Helvetica,sans-Serif" font-size="10.00">/resid/voice.h</text>
</a>
</g>
</g>
<!-- Node2 -->
<g id="Node000002" class="node">
<title>Node2</title>
<g id="a_Node000002"><a xlink:href="resid-config_8h.html" target="_top" xlink:title=" ">
<polygon fill="white" stroke="#666666" points="105.62,-74.5 31.12,-74.5 31.12,-55.25 105.62,-55.25 105.62,-74.5"/>
<text text-anchor="middle" x="68.38" y="-61" font-family="Helvetica,sans-Serif" font-size="10.00">resid&#45;config.h</text>
</a>
</g>
</g>
<!-- Node1&#45;&gt;Node2 -->
<g id="edge1_Node000001_Node000002" class="edge">
<title>Node1&#45;&gt;Node2</title>
<g id="a_edge1_Node000001_Node000002"><a xlink:title=" ">
<path fill="none" stroke="#63b8ff" d="M50.57,-165.31C39.74,-150.43 29.09,-129.58 35.38,-110.5 38.68,-100.48 45.19,-90.87 51.56,-83.15"/>
<polygon fill="#63b8ff" stroke="#63b8ff" points="53.99,-85.69 58.04,-75.9 48.77,-81.03 53.99,-85.69"/>
</a>
</g>
</g>
<!-- Node4 -->
<g id="Node000004" class="node">
<title>Node4</title>
<g id="a_Node000004"><a xlink:href="wave_8h.html" target="_top" xlink:title=" ">
<polygon fill="white" stroke="#666666" points="92.12,-129.75 44.62,-129.75 44.62,-110.5 92.12,-110.5 92.12,-129.75"/>
<text text-anchor="middle" x="68.38" y="-116.25" font-family="Helvetica,sans-Serif" font-size="10.00">wave.h</text>
</a>
</g>
</g>
<!-- Node1&#45;&gt;Node4 -->
<g id="edge3_Node000001_Node000004" class="edge">
<title>Node1&#45;&gt;Node4</title>
<g id="a_edge3_Node000001_Node000004"><a xlink:title=" ">
<path fill="none" stroke="#63b8ff" d="M68.38,-165.57C68.38,-157.9 68.38,-149.14 68.38,-141.45"/>
<polygon fill="#63b8ff" stroke="#63b8ff" points="71.88,-141.71 68.38,-131.71 64.88,-141.71 71.88,-141.71"/>
</a>
</g>
</g>
<!-- Node5 -->
<g id="Node000005" class="node">
<title>Node5</title>
<g id="a_Node000005"><a xlink:href="envelope_8h.html" target="_top" xlink:title=" ">
<polygon fill="white" stroke="#666666" points="173,-129.75 109.75,-129.75 109.75,-110.5 173,-110.5 173,-129.75"/>
<text text-anchor="middle" x="141.38" y="-116.25" font-family="Helvetica,sans-Serif" font-size="10.00">envelope.h</text>
</a>
</g>
</g>
<!-- Node1&#45;&gt;Node5 -->
<g id="edge5_Node000001_Node000005" class="edge">
<title>Node1&#45;&gt;Node5</title>
<g id="a_edge5_Node000001_Node000005"><a xlink:title=" ">
<path fill="none" stroke="#63b8ff" d="M91.07,-165.57C101.22,-156.6 113.04,-146.16 122.67,-137.65"/>
<polygon fill="#63b8ff" stroke="#63b8ff" points="124.8,-140.44 129.98,-131.2 120.16,-135.2 124.8,-140.44"/>
</a>
</g>
</g>
<!-- Node3 -->
<g id="Node000003" class="node">
<title>Node3</title>
<g id="a_Node000003"><a xlink:href="siddefs_8h.html" target="_top" xlink:title=" ">
<polygon fill="white" stroke="#666666" points="96.25,-19.25 40.5,-19.25 40.5,0 96.25,0 96.25,-19.25"/>
<text text-anchor="middle" x="68.38" y="-5.75" font-family="Helvetica,sans-Serif" font-size="10.00">siddefs.h</text>
</a>
</g>
</g>
<!-- Node2&#45;&gt;Node3 -->
<g id="edge2_Node000002_Node000003" class="edge">
<title>Node2&#45;&gt;Node3</title>
<g id="a_edge2_Node000002_Node000003"><a xlink:title=" ">
<path fill="none" stroke="#63b8ff" d="M68.38,-55.08C68.38,-48.57 68.38,-39.42 68.38,-31.12"/>
<polygon fill="#63b8ff" stroke="#63b8ff" points="71.88,-31.12 68.38,-21.12 64.88,-31.12 71.88,-31.12"/>
</a>
</g>
</g>
<!-- Node4&#45;&gt;Node2 -->
<g id="edge4_Node000004_Node000002" class="edge">
<title>Node4&#45;&gt;Node2</title>
<g id="a_edge4_Node000004_Node000002"><a xlink:title=" ">
<path fill="none" stroke="#63b8ff" d="M68.38,-110.33C68.38,-103.82 68.38,-94.67 68.38,-86.37"/>
<polygon fill="#63b8ff" stroke="#63b8ff" points="71.88,-86.37 68.38,-76.37 64.88,-86.37 71.88,-86.37"/>
</a>
</g>
</g>
<!-- Node5&#45;&gt;Node2 -->
<g id="edge6_Node000005_Node000002" class="edge">
<title>Node5&#45;&gt;Node2</title>
<g id="a_edge6_Node000005_Node000002"><a xlink:title=" ">
<path fill="none" stroke="#63b8ff" d="M128.99,-110.09C118.23,-102.24 102.4,-90.7 89.62,-81.37"/>
<polygon fill="#63b8ff" stroke="#63b8ff" points="91.94,-78.73 81.8,-75.67 87.81,-84.39 91.94,-78.73"/>
</a>
</g>
</g>
</g>
</svg>
