<?xml version="1.0" encoding="UTF-8" standalone="no"?>
<!DOCTYPE svg PUBLIC "-//W3C//DTD SVG 1.1//EN"
 "http://www.w3.org/Graphics/SVG/1.1/DTD/svg11.dtd">
<!-- Generated by graphviz version 10.0.1 (20240210.2158)
 -->
<!-- Title: /Users/hoff/Retro/virtualc64/Emulator/Components/SID/resid/voice.cc Pages: 1 -->
<svg width="181pt" height="271pt"
 viewBox="0.00 0.00 181.00 270.75" xmlns="http://www.w3.org/2000/svg" xmlns:xlink="http://www.w3.org/1999/xlink">
<g id="graph0" class="graph" transform="scale(1 1) rotate(0) translate(4 266.75)">
<title>/Users/hoff/Retro/virtualc64/Emulator/Components/SID/resid/voice.cc</title>
<!-- Node1 -->
<g id="Node000001" class="node">
<title>Node1</title>
<g id="a_Node000001"><a xlink:title=" ">
<polygon fill="#999999" stroke="#666666" points="136.75,-262.75 0,-262.75 0,-221 136.75,-221 136.75,-262.75"/>
<text text-anchor="start" x="8" y="-249.25" font-family="Helvetica,sans-Serif" font-size="10.00">/Users/hoff/Retro/virtualc64</text>
<text text-anchor="start" x="8" y="-238" font-family="Helvetica,sans-Serif" font-size="10.00">/Emulator/Components/SID</text>
<text text-anchor="middle" x="68.38" y="-226.75" font-family="Helvetica,sans-Serif" font-size="10.00">/resid/voice.cc</text>
</a>
</g>
</g>
<!-- Node2 -->
<g id="Node000002" class="node">
<title>Node2</title>
<g id="a_Node000002"><a xlink:href="voice_8h.html" target="_top" xlink:title=" ">
<polygon fill="white" stroke="#666666" points="92.12,-185 44.62,-185 44.62,-165.75 92.12,-165.75 92.12,-185"/>
<text text-anchor="middle" x="68.38" y="-171.5" font-family="Helvetica,sans-Serif" font-size="10.00">voice.h</text>
</a>
</g>
</g>
<!-- Node1&#45;&gt;Node2 -->
<g id="edge1_Node000001_Node000002" class="edge">
<title>Node1&#45;&gt;Node2</title>
<g id="a_edge1_Node000001_Node000002"><a xlink:title=" ">
<path fill="none" stroke="#63b8ff" d="M68.38,-220.82C68.38,-213.15 68.38,-204.39 68.38,-196.7"/>
<polygon fill="#63b8ff" stroke="#63b8ff" points="71.88,-196.96 68.38,-186.96 64.88,-196.96 71.88,-196.96"/>
</a>
</g>
</g>
<!-- Node3 -->
<g id="Node000003" class="node">
<title>Node3</title>
<g id="a_Node000003"><a xlink:href="resid-config_8h.html" target="_top" xlink:title=" ">
<polygon fill="white" stroke="#666666" points="105.62,-74.5 31.12,-74.5 31.12,-55.25 105.62,-55.25 105.62,-74.5"/>
<text text-anchor="middle" x="68.38" y="-61" font-family="Helvetica,sans-Serif" font-size="10.00">resid&#45;config.h</text>
</a>
</g>
</g>
<!-- Node2&#45;&gt;Node3 -->
<g id="edge2_Node000002_Node000003" class="edge">
<title>Node2&#45;&gt;Node3</title>
<g id="a_edge2_Node000002_Node000003"><a xlink:title=" ">
<path fill="none" stroke="#63b8ff" d="M59.05,-165.48C51.02,-157.13 40.02,-143.84 35.38,-129.75 29.96,-113.31 40.09,-95.94 50.52,-83.47"/>
<polygon fill="#63b8ff" stroke="#63b8ff" points="53.09,-85.84 57.27,-76.1 47.93,-81.11 53.09,-85.84"/>
</a>
</g>
</g>
<!-- Node5 -->
<g id="Node000005" class="node">
<title>Node5</title>
<g id="a_Node000005"><a xlink:href="wave_8h.html" target="_top" xlink:title=" ">
<polygon fill="white" stroke="#666666" points="92.12,-129.75 44.62,-129.75 44.62,-110.5 92.12,-110.5 92.12,-129.75"/>
<text text-anchor="middle" x="68.38" y="-116.25" font-family="Helvetica,sans-Serif" font-size="10.00">wave.h</text>
</a>
</g>
</g>
<!-- Node2&#45;&gt;Node5 -->
<g id="edge4_Node000002_Node000005" class="edge">
<title>Node2&#45;&gt;Node5</title>
<g id="a_edge4_Node000002_Node000005"><a xlink:title=" ">
<path fill="none" stroke="#63b8ff" d="M68.38,-165.58C68.38,-159.07 68.38,-149.92 68.38,-141.62"/>
<polygon fill="#63b8ff" stroke="#63b8ff" points="71.88,-141.62 68.38,-131.62 64.88,-141.62 71.88,-141.62"/>
</a>
</g>
</g>
<!-- Node6 -->
<g id="Node000006" class="node">
<title>Node6</title>
<g id="a_Node000006"><a xlink:href="envelope_8h.html" target="_top" xlink:title=" ">
<polygon fill="white" stroke="#666666" points="173,-129.75 109.75,-129.75 109.75,-110.5 173,-110.5 173,-129.75"/>
<text text-anchor="middle" x="141.38" y="-116.25" font-family="Helvetica,sans-Serif" font-size="10.00">envelope.h</text>
</a>
</g>
</g>
<!-- Node2&#45;&gt;Node6 -->
<g id="edge6_Node000002_Node000006" class="edge">
<title>Node2&#45;&gt;Node6</title>
<g id="a_edge6_Node000002_Node000006"><a xlink:title=" ">
<path fill="none" stroke="#63b8ff" d="M80.76,-165.34C91.52,-157.49 107.35,-145.95 120.13,-136.62"/>
<polygon fill="#63b8ff" stroke="#63b8ff" points="121.94,-139.64 127.95,-130.92 117.81,-133.98 121.94,-139.64"/>
</a>
</g>
</g>
<!-- Node4 -->
<g id="Node000004" class="node">
<title>Node4</title>
<g id="a_Node000004"><a xlink:href="siddefs_8h.html" target="_top" xlink:title=" ">
<polygon fill="white" stroke="#666666" points="96.25,-19.25 40.5,-19.25 40.5,0 96.25,0 96.25,-19.25"/>
<text text-anchor="middle" x="68.38" y="-5.75" font-family="Helvetica,sans-Serif" font-size="10.00">siddefs.h</text>
</a>
</g>
</g>
<!-- Node3&#45;&gt;Node4 -->
<g id="edge3_Node000003_Node000004" class="edge">
<title>Node3&#45;&gt;Node4</title>
<g id="a_edge3_Node000003_Node000004"><a xlink:title=" ">
<path fill="none" stroke="#63b8ff" d="M68.38,-55.08C68.38,-48.57 68.38,-39.42 68.38,-31.12"/>
<polygon fill="#63b8ff" stroke="#63b8ff" points="71.88,-31.12 68.38,-21.12 64.88,-31.12 71.88,-31.12"/>
</a>
</g>
</g>
<!-- Node5&#45;&gt;Node3 -->
<g id="edge5_Node000005_Node000003" class="edge">
<title>Node5&#45;&gt;Node3</title>
<g id="a_edge5_Node000005_Node000003"><a xlink:title=" ">
<path fill="none" stroke="#63b8ff" d="M68.38,-110.33C68.38,-103.82 68.38,-94.67 68.38,-86.37"/>
<polygon fill="#63b8ff" stroke="#63b8ff" points="71.88,-86.37 68.38,-76.37 64.88,-86.37 71.88,-86.37"/>
</a>
</g>
</g>
<!-- Node6&#45;&gt;Node3 -->
<g id="edge7_Node000006_Node000003" class="edge">
<title>Node6&#45;&gt;Node3</title>
<g id="a_edge7_Node000006_Node000003"><a xlink:title=" ">
<path fill="none" stroke="#63b8ff" d="M128.99,-110.09C118.23,-102.24 102.4,-90.7 89.62,-81.37"/>
<polygon fill="#63b8ff" stroke="#63b8ff" points="91.94,-78.73 81.8,-75.67 87.81,-84.39 91.94,-78.73"/>
</a>
</g>
</g>
</g>
</svg>
