<?xml version="1.0" encoding="UTF-8" standalone="no"?>
<!DOCTYPE svg PUBLIC "-//W3C//DTD SVG 1.1//EN"
 "http://www.w3.org/Graphics/SVG/1.1/DTD/svg11.dtd">
<!-- Generated by graphviz version 10.0.1 (20240210.2158)
 -->
<!-- Title: /Users/hoff/Retro/virtualc64/Emulator/Components/SID/resid/wave.cc Pages: 1 -->
<svg width="999pt" height="216pt"
 viewBox="0.00 0.00 999.12 215.50" xmlns="http://www.w3.org/2000/svg" xmlns:xlink="http://www.w3.org/1999/xlink">
<g id="graph0" class="graph" transform="scale(1 1) rotate(0) translate(4 211.5)">
<title>/Users/hoff/Retro/virtualc64/Emulator/Components/SID/resid/wave.cc</title>
<!-- Node1 -->
<g id="Node000001" class="node">
<title>Node1</title>
<g id="a_Node000001"><a xlink:title=" ">
<polygon fill="#999999" stroke="#666666" points="522.62,-207.5 385.88,-207.5 385.88,-165.75 522.62,-165.75 522.62,-207.5"/>
<text text-anchor="start" x="393.88" y="-194" font-family="Helvetica,sans-Serif" font-size="10.00">/Users/hoff/Retro/virtualc64</text>
<text text-anchor="start" x="393.88" y="-182.75" font-family="Helvetica,sans-Serif" font-size="10.00">/Emulator/Components/SID</text>
<text text-anchor="middle" x="454.25" y="-171.5" font-family="Helvetica,sans-Serif" font-size="10.00">/resid/wave.cc</text>
</a>
</g>
</g>
<!-- Node2 -->
<g id="Node000002" class="node">
<title>Node2</title>
<g id="a_Node000002"><a xlink:href="wave_8h.html" target="_top" xlink:title=" ">
<polygon fill="white" stroke="#666666" points="61,-129.75 13.5,-129.75 13.5,-110.5 61,-110.5 61,-129.75"/>
<text text-anchor="middle" x="37.25" y="-116.25" font-family="Helvetica,sans-Serif" font-size="10.00">wave.h</text>
</a>
</g>
</g>
<!-- Node1&#45;&gt;Node2 -->
<g id="edge1_Node000001_Node000002" class="edge">
<title>Node1&#45;&gt;Node2</title>
<g id="a_edge1_Node000001_Node000002"><a xlink:title=" ">
<path fill="none" stroke="#63b8ff" d="M385.53,-177.96C310.8,-169.11 187.68,-152.99 72.45,-130"/>
<polygon fill="#63b8ff" stroke="#63b8ff" points="73.31,-126.6 62.81,-128.05 71.92,-133.46 73.31,-126.6"/>
</a>
</g>
</g>
<!-- Node5 -->
<g id="Node000005" class="node">
<title>Node5</title>
<g id="a_Node000005"><a xlink:href="dac_8h.html" target="_top" xlink:title=" ">
<polygon fill="white" stroke="#666666" points="119.25,-129.75 79.25,-129.75 79.25,-110.5 119.25,-110.5 119.25,-129.75"/>
<text text-anchor="middle" x="99.25" y="-116.25" font-family="Helvetica,sans-Serif" font-size="10.00">dac.h</text>
</a>
</g>
</g>
<!-- Node1&#45;&gt;Node5 -->
<g id="edge4_Node000001_Node000005" class="edge">
<title>Node1&#45;&gt;Node5</title>
<g id="a_edge4_Node000001_Node000005"><a xlink:title=" ">
<path fill="none" stroke="#63b8ff" d="M385.4,-176.26C321.62,-167.04 223.97,-151.52 130.53,-130.05"/>
<polygon fill="#63b8ff" stroke="#63b8ff" points="131.46,-126.67 120.92,-127.81 129.87,-133.49 131.46,-126.67"/>
</a>
</g>
</g>
<!-- Node6 -->
<g id="Node000006" class="node">
<title>Node6</title>
<g id="a_Node000006"><a xlink:href="wave6581_____s_t_8h.html" target="_top" xlink:title=" ">
<polygon fill="white" stroke="#666666" points="227.38,-129.75 137.12,-129.75 137.12,-110.5 227.38,-110.5 227.38,-129.75"/>
<text text-anchor="middle" x="182.25" y="-116.25" font-family="Helvetica,sans-Serif" font-size="10.00">wave6581__ST.h</text>
</a>
</g>
</g>
<!-- Node1&#45;&gt;Node6 -->
<g id="edge5_Node000001_Node000006" class="edge">
<title>Node1&#45;&gt;Node6</title>
<g id="a_edge5_Node000001_Node000006"><a xlink:title=" ">
<path fill="none" stroke="#63b8ff" d="M385.61,-169.35C337.65,-157.98 274.73,-143.06 231.66,-132.84"/>
<polygon fill="#63b8ff" stroke="#63b8ff" points="232.62,-129.47 222.08,-130.57 231,-136.28 232.62,-129.47"/>
</a>
</g>
</g>
<!-- Node7 -->
<g id="Node000007" class="node">
<title>Node7</title>
<g id="a_Node000007"><a xlink:href="wave6581___p___t_8h.html" target="_top" xlink:title=" ">
<polygon fill="white" stroke="#666666" points="335.38,-129.75 245.12,-129.75 245.12,-110.5 335.38,-110.5 335.38,-129.75"/>
<text text-anchor="middle" x="290.25" y="-116.25" font-family="Helvetica,sans-Serif" font-size="10.00">wave6581_P_T.h</text>
</a>
</g>
</g>
<!-- Node1&#45;&gt;Node7 -->
<g id="edge6_Node000001_Node000007" class="edge">
<title>Node1&#45;&gt;Node7</title>
<g id="a_edge6_Node000001_Node000007"><a xlink:title=" ">
<path fill="none" stroke="#63b8ff" d="M402.81,-165.39C376.98,-155.23 346.42,-143.22 323.67,-134.27"/>
<polygon fill="#63b8ff" stroke="#63b8ff" points="325.18,-131.1 314.59,-130.7 322.62,-137.62 325.18,-131.1"/>
</a>
</g>
</g>
<!-- Node8 -->
<g id="Node000008" class="node">
<title>Node8</title>
<g id="a_Node000008"><a xlink:href="wave6581___p_s___8h.html" target="_top" xlink:title=" ">
<polygon fill="white" stroke="#666666" points="445.5,-129.75 353,-129.75 353,-110.5 445.5,-110.5 445.5,-129.75"/>
<text text-anchor="middle" x="399.25" y="-116.25" font-family="Helvetica,sans-Serif" font-size="10.00">wave6581_PS_.h</text>
</a>
</g>
</g>
<!-- Node1&#45;&gt;Node8 -->
<g id="edge7_Node000001_Node000008" class="edge">
<title>Node1&#45;&gt;Node8</title>
<g id="a_edge7_Node000001_Node000008"><a xlink:title=" ">
<path fill="none" stroke="#63b8ff" d="M437.15,-165.57C429.82,-156.97 421.33,-147.02 414.25,-138.71"/>
<polygon fill="#63b8ff" stroke="#63b8ff" points="417.12,-136.69 407.97,-131.35 411.79,-141.23 417.12,-136.69"/>
</a>
</g>
</g>
<!-- Node9 -->
<g id="Node000009" class="node">
<title>Node9</title>
<g id="a_Node000009"><a xlink:href="wave6581___p_s_t_8h.html" target="_top" xlink:title=" ">
<polygon fill="white" stroke="#666666" points="555.12,-129.75 463.38,-129.75 463.38,-110.5 555.12,-110.5 555.12,-129.75"/>
<text text-anchor="middle" x="509.25" y="-116.25" font-family="Helvetica,sans-Serif" font-size="10.00">wave6581_PST.h</text>
</a>
</g>
</g>
<!-- Node1&#45;&gt;Node9 -->
<g id="edge8_Node000001_Node000009" class="edge">
<title>Node1&#45;&gt;Node9</title>
<g id="a_edge8_Node000001_Node000009"><a xlink:title=" ">
<path fill="none" stroke="#63b8ff" d="M471.35,-165.57C478.68,-156.97 487.17,-147.02 494.25,-138.71"/>
<polygon fill="#63b8ff" stroke="#63b8ff" points="496.71,-141.23 500.53,-131.35 491.38,-136.69 496.71,-141.23"/>
</a>
</g>
</g>
<!-- Node10 -->
<g id="Node000010" class="node">
<title>Node10</title>
<g id="a_Node000010"><a xlink:href="wave8580_____s_t_8h.html" target="_top" xlink:title=" ">
<polygon fill="white" stroke="#666666" points="663.38,-129.75 573.12,-129.75 573.12,-110.5 663.38,-110.5 663.38,-129.75"/>
<text text-anchor="middle" x="618.25" y="-116.25" font-family="Helvetica,sans-Serif" font-size="10.00">wave8580__ST.h</text>
</a>
</g>
</g>
<!-- Node1&#45;&gt;Node10 -->
<g id="edge9_Node000001_Node000010" class="edge">
<title>Node1&#45;&gt;Node10</title>
<g id="a_edge9_Node000001_Node000010"><a xlink:title=" ">
<path fill="none" stroke="#63b8ff" d="M505.69,-165.39C531.52,-155.23 562.08,-143.22 584.83,-134.27"/>
<polygon fill="#63b8ff" stroke="#63b8ff" points="585.88,-137.62 593.91,-130.7 583.32,-131.1 585.88,-137.62"/>
</a>
</g>
</g>
<!-- Node11 -->
<g id="Node000011" class="node">
<title>Node11</title>
<g id="a_Node000011"><a xlink:href="wave8580___p___t_8h.html" target="_top" xlink:title=" ">
<polygon fill="white" stroke="#666666" points="771.38,-129.75 681.12,-129.75 681.12,-110.5 771.38,-110.5 771.38,-129.75"/>
<text text-anchor="middle" x="726.25" y="-116.25" font-family="Helvetica,sans-Serif" font-size="10.00">wave8580_P_T.h</text>
</a>
</g>
</g>
<!-- Node1&#45;&gt;Node11 -->
<g id="edge10_Node000001_Node000011" class="edge">
<title>Node1&#45;&gt;Node11</title>
<g id="a_edge10_Node000001_Node000011"><a xlink:title=" ">
<path fill="none" stroke="#63b8ff" d="M522.89,-169.35C570.85,-157.98 633.77,-143.06 676.84,-132.84"/>
<polygon fill="#63b8ff" stroke="#63b8ff" points="677.5,-136.28 686.42,-130.57 675.88,-129.47 677.5,-136.28"/>
</a>
</g>
</g>
<!-- Node12 -->
<g id="Node000012" class="node">
<title>Node12</title>
<g id="a_Node000012"><a xlink:href="wave8580___p_s___8h.html" target="_top" xlink:title=" ">
<polygon fill="white" stroke="#666666" points="881.5,-129.75 789,-129.75 789,-110.5 881.5,-110.5 881.5,-129.75"/>
<text text-anchor="middle" x="835.25" y="-116.25" font-family="Helvetica,sans-Serif" font-size="10.00">wave8580_PS_.h</text>
</a>
</g>
</g>
<!-- Node1&#45;&gt;Node12 -->
<g id="edge11_Node000001_Node000012" class="edge">
<title>Node1&#45;&gt;Node12</title>
<g id="a_edge11_Node000001_Node000012"><a xlink:title=" ">
<path fill="none" stroke="#63b8ff" d="M522.81,-174.02C595.56,-161.7 709.26,-142.45 777.58,-130.89"/>
<polygon fill="#63b8ff" stroke="#63b8ff" points="777.78,-134.4 787.06,-129.28 776.61,-127.5 777.78,-134.4"/>
</a>
</g>
</g>
<!-- Node13 -->
<g id="Node000013" class="node">
<title>Node13</title>
<g id="a_Node000013"><a xlink:href="wave8580___p_s_t_8h.html" target="_top" xlink:title=" ">
<polygon fill="white" stroke="#666666" points="991.12,-129.75 899.38,-129.75 899.38,-110.5 991.12,-110.5 991.12,-129.75"/>
<text text-anchor="middle" x="945.25" y="-116.25" font-family="Helvetica,sans-Serif" font-size="10.00">wave8580_PST.h</text>
</a>
</g>
</g>
<!-- Node1&#45;&gt;Node13 -->
<g id="edge12_Node000001_Node000013" class="edge">
<title>Node1&#45;&gt;Node13</title>
<g id="a_edge12_Node000001_Node000013"><a xlink:title=" ">
<path fill="none" stroke="#63b8ff" d="M523.05,-177.41C606.69,-167.3 752.44,-149.23 887.67,-130.08"/>
<polygon fill="#63b8ff" stroke="#63b8ff" points="888.14,-133.55 897.55,-128.68 887.16,-126.62 888.14,-133.55"/>
</a>
</g>
</g>
<!-- Node3 -->
<g id="Node000003" class="node">
<title>Node3</title>
<g id="a_Node000003"><a xlink:href="resid-config_8h.html" target="_top" xlink:title=" ">
<polygon fill="white" stroke="#666666" points="74.5,-74.5 0,-74.5 0,-55.25 74.5,-55.25 74.5,-74.5"/>
<text text-anchor="middle" x="37.25" y="-61" font-family="Helvetica,sans-Serif" font-size="10.00">resid&#45;config.h</text>
</a>
</g>
</g>
<!-- Node2&#45;&gt;Node3 -->
<g id="edge2_Node000002_Node000003" class="edge">
<title>Node2&#45;&gt;Node3</title>
<g id="a_edge2_Node000002_Node000003"><a xlink:title=" ">
<path fill="none" stroke="#63b8ff" d="M37.25,-110.33C37.25,-103.82 37.25,-94.67 37.25,-86.37"/>
<polygon fill="#63b8ff" stroke="#63b8ff" points="40.75,-86.37 37.25,-76.37 33.75,-86.37 40.75,-86.37"/>
</a>
</g>
</g>
<!-- Node4 -->
<g id="Node000004" class="node">
<title>Node4</title>
<g id="a_Node000004"><a xlink:href="siddefs_8h.html" target="_top" xlink:title=" ">
<polygon fill="white" stroke="#666666" points="65.12,-19.25 9.38,-19.25 9.38,0 65.12,0 65.12,-19.25"/>
<text text-anchor="middle" x="37.25" y="-5.75" font-family="Helvetica,sans-Serif" font-size="10.00">siddefs.h</text>
</a>
</g>
</g>
<!-- Node3&#45;&gt;Node4 -->
<g id="edge3_Node000003_Node000004" class="edge">
<title>Node3&#45;&gt;Node4</title>
<g id="a_edge3_Node000003_Node000004"><a xlink:title=" ">
<path fill="none" stroke="#63b8ff" d="M37.25,-55.08C37.25,-48.57 37.25,-39.42 37.25,-31.12"/>
<polygon fill="#63b8ff" stroke="#63b8ff" points="40.75,-31.12 37.25,-21.12 33.75,-31.12 40.75,-31.12"/>
</a>
</g>
</g>
</g>
</svg>
